<?xml version="1.0" encoding="UTF-8"?>
<svg id="Layer_1" xmlns="http://www.w3.org/2000/svg" version="1.1" viewBox="0 0 432.58 96.12">
  <!-- Generator: Adobe Illustrator 29.6.0, SVG Export Plug-In . SVG Version: 2.1.1 Build 207)  -->
  <defs>
    <style>
      .st0, .st1, .st2 {
        fill: none;
      }

      .st1 {
        stroke: #fff;
      }

      .st1, .st3 {
        font-family: ArialMT, Arial;
        font-size: 4.25px;
      }

      .st1, .st3, .st4 {
        isolation: isolate;
      }

      .st1, .st2 {
        stroke-miterlimit: 10;
      }

      .st2 {
        stroke: #000;
        stroke-width: .26px;
      }

      .st5 {
        fill: #22b7e9;
      }

      .st6 {
        fill: #006ba6;
      }
    </style>
  </defs>
  <g id="Graph">
    <g>
      <g>
        <rect class="st5" x=".13" y="50.03" width="11.12" height="36.41"/>
        <rect class="st5" x="21.2" y="48.45" width="11.12" height="37.99"/>
        <rect class="st5" x="42.27" y="42.73" width="11.12" height="43.7"/>
        <rect class="st5" x="63.33" y="50.95" width="11.12" height="35.49"/>
        <rect class="st5" x="84.4" y="47.79" width="11.12" height="38.64"/>
        <rect class="st5" x="105.47" y="51.87" width="11.12" height="34.57"/>
        <rect class="st5" x="126.53" y="33.53" width="11.12" height="52.9"/>
        <rect class="st5" x="147.6" y="44.31" width="11.12" height="42.13"/>
        <rect class="st5" x="168.67" y="34.19" width="11.12" height="52.25"/>
        <rect class="st5" x="189.73" y="34.52" width="11.12" height="51.92"/>
        <rect class="st5" x="210.8" y="35.11" width="11.12" height="51.33"/>
        <rect class="st5" x="231.87" y="40.23" width="11.12" height="46.2"/>
        <rect class="st5" x="252.93" y="27.61" width="11.12" height="58.82"/>
        <rect class="st5" x="274" y="30.44" width="11.12" height="55.99"/>
        <rect class="st5" x="295.07" y="8.03" width="11.12" height="78.4"/>
        <rect class="st5" x="316.13" y="30.9" width="11.12" height="55.53"/>
        <rect class="st5" x="337.2" y="24.39" width="11.12" height="62.04"/>
        <rect class="st5" x="358.27" y="13.55" width="11.12" height="72.88"/>
        <rect class="st5" x="379.33" y="27.22" width="11.12" height="59.21"/>
        <rect class="st6" x="400.4" y="17.76" width="11.12" height="68.68"/>
      </g>
      <g>
        <g class="st4">
          <g class="st4">
            <text class="st3" transform="translate(403.05 90.33) scale(1.33 1)"><tspan x="0" y="0">25</tspan></text>
          </g>
          <g class="st4">
            <text class="st1" transform="translate(403.05 90.33) scale(1.33 1)"><tspan x="0" y="0">25</tspan></text>
          </g>
        </g>
        <g class="st4">
          <g class="st4">
            <text class="st3" transform="translate(381.99 90.33) scale(1.33 1)"><tspan x="0" y="0">24</tspan></text>
          </g>
          <g class="st4">
            <text class="st1" transform="translate(381.99 90.33) scale(1.33 1)"><tspan x="0" y="0">24</tspan></text>
          </g>
        </g>
        <g class="st4">
          <g class="st4">
            <text class="st3" transform="translate(360.92 90.33) scale(1.33 1)"><tspan x="0" y="0">23</tspan></text>
          </g>
          <g class="st4">
            <text class="st1" transform="translate(360.92 90.33) scale(1.33 1)"><tspan x="0" y="0">23</tspan></text>
          </g>
        </g>
        <g class="st4">
          <g class="st4">
            <text class="st3" transform="translate(339.85 90.33) scale(1.33 1)"><tspan x="0" y="0">22</tspan></text>
          </g>
          <g class="st4">
            <text class="st1" transform="translate(339.85 90.33) scale(1.33 1)"><tspan x="0" y="0">22</tspan></text>
          </g>
        </g>
        <g class="st4">
          <g class="st4">
            <text class="st3" transform="translate(318.79 90.33) scale(1.33 1)"><tspan x="0" y="0">21</tspan></text>
          </g>
          <g class="st4">
            <text class="st1" transform="translate(318.79 90.33) scale(1.33 1)"><tspan x="0" y="0">21</tspan></text>
          </g>
        </g>
        <g class="st4">
          <g class="st4">
            <text class="st3" transform="translate(297.72 90.33) scale(1.33 1)"><tspan x="0" y="0">20</tspan></text>
          </g>
          <g class="st4">
            <text class="st1" transform="translate(297.72 90.33) scale(1.33 1)"><tspan x="0" y="0">20</tspan></text>
          </g>
        </g>
        <g class="st4">
          <g class="st4">
            <text class="st3" transform="translate(276.65 90.33) scale(1.33 1)"><tspan x="0" y="0">19</tspan></text>
          </g>
          <g class="st4">
            <text class="st1" transform="translate(276.65 90.33) scale(1.33 1)"><tspan x="0" y="0">19</tspan></text>
          </g>
        </g>
        <g class="st4">
          <g class="st4">
            <text class="st3" transform="translate(255.59 90.33) scale(1.33 1)"><tspan x="0" y="0">18</tspan></text>
          </g>
          <g class="st4">
            <text class="st1" transform="translate(255.59 90.33) scale(1.33 1)"><tspan x="0" y="0">18</tspan></text>
          </g>
        </g>
        <g class="st4">
          <g class="st4">
            <text class="st3" transform="translate(234.52 90.33) scale(1.33 1)"><tspan x="0" y="0">17</tspan></text>
          </g>
          <g class="st4">
            <text class="st1" transform="translate(234.52 90.33) scale(1.33 1)"><tspan x="0" y="0">17</tspan></text>
          </g>
        </g>
        <g class="st4">
          <g class="st4">
            <text class="st3" transform="translate(213.45 90.33) scale(1.33 1)"><tspan x="0" y="0">16</tspan></text>
          </g>
          <g class="st4">
            <text class="st1" transform="translate(213.45 90.33) scale(1.33 1)"><tspan x="0" y="0">16</tspan></text>
          </g>
        </g>
        <g class="st4">
          <g class="st4">
            <text class="st3" transform="translate(192.39 90.33) scale(1.33 1)"><tspan x="0" y="0">15</tspan></text>
          </g>
          <g class="st4">
            <text class="st1" transform="translate(192.39 90.33) scale(1.33 1)"><tspan x="0" y="0">15</tspan></text>
          </g>
        </g>
        <g class="st4">
          <g class="st4">
            <text class="st3" transform="translate(171.32 90.33) scale(1.33 1)"><tspan x="0" y="0">14</tspan></text>
          </g>
          <g class="st4">
            <text class="st1" transform="translate(171.32 90.33) scale(1.33 1)"><tspan x="0" y="0">14</tspan></text>
          </g>
        </g>
        <g class="st4">
          <g class="st4">
            <text class="st3" transform="translate(150.25 90.33) scale(1.33 1)"><tspan x="0" y="0">13</tspan></text>
          </g>
          <g class="st4">
            <text class="st1" transform="translate(150.25 90.33) scale(1.33 1)"><tspan x="0" y="0">13</tspan></text>
          </g>
        </g>
        <g class="st4">
          <g class="st4">
            <text class="st3" transform="translate(129.19 90.33) scale(1.33 1)"><tspan x="0" y="0">12</tspan></text>
          </g>
          <g class="st4">
            <text class="st1" transform="translate(129.19 90.33) scale(1.33 1)"><tspan x="0" y="0">12</tspan></text>
          </g>
        </g>
        <g class="st4">
          <g class="st4">
            <text class="st3" transform="translate(108.12 90.33) scale(1.33 1)"><tspan x="0" y="0">11</tspan></text>
          </g>
          <g class="st4">
            <text class="st1" transform="translate(108.12 90.33) scale(1.33 1)"><tspan x="0" y="0">11</tspan></text>
          </g>
        </g>
        <g class="st4">
          <g class="st4">
            <text class="st3" transform="translate(87.05 90.33) scale(1.33 1)"><tspan x="0" y="0">10</tspan></text>
          </g>
          <g class="st4">
            <text class="st1" transform="translate(87.05 90.33) scale(1.33 1)"><tspan x="0" y="0">10</tspan></text>
          </g>
        </g>
        <g class="st4">
          <g class="st4">
            <text class="st3" transform="translate(65.99 90.33) scale(1.33 1)"><tspan x="0" y="0">09</tspan></text>
          </g>
          <g class="st4">
            <text class="st1" transform="translate(65.99 90.33) scale(1.33 1)"><tspan x="0" y="0">09</tspan></text>
          </g>
        </g>
        <g class="st4">
          <g class="st4">
            <text class="st3" transform="translate(44.92 90.33) scale(1.33 1)"><tspan x="0" y="0">08</tspan></text>
          </g>
          <g class="st4">
            <text class="st1" transform="translate(44.92 90.33) scale(1.33 1)"><tspan x="0" y="0">08</tspan></text>
          </g>
        </g>
        <g class="st4">
          <g class="st4">
            <text class="st3" transform="translate(23.85 90.33) scale(1.33 1)"><tspan x="0" y="0">07</tspan></text>
          </g>
          <g class="st4">
            <text class="st1" transform="translate(23.85 90.33) scale(1.33 1)"><tspan x="0" y="0">07</tspan></text>
          </g>
        </g>
        <g class="st4">
          <g class="st4">
            <text class="st3" transform="translate(2.79 90.33) scale(1.33 1)"><tspan x="0" y="0">06</tspan></text>
          </g>
          <g class="st4">
            <text class="st1" transform="translate(2.79 90.33) scale(1.33 1)"><tspan x="0" y="0">06</tspan></text>
          </g>
        </g>
      </g>
    </g>
  </g>
  <g id="Text">
    <line class="st2" y1="86.43" x2="432.58" y2="86.43"/>
    <g>
      <path d="M47.5,92.94c0,.54-.06,1-.17,1.39s-.29.68-.54.88c-.24.21-.57.31-.96.31-.56,0-.98-.23-1.25-.68-.27-.46-.4-1.09-.4-1.89,0-.54.05-1,.17-1.39.11-.38.29-.68.53-.88.24-.2.56-.3.96-.3.56,0,.98.23,1.25.68s.41,1.08.41,1.89h0ZM44.79,92.94c0,.69.08,1.2.23,1.54s.42.51.8.51.64-.17.8-.51c.16-.34.24-.85.24-1.54s-.08-1.19-.24-1.53-.43-.51-.8-.51-.65.17-.8.51-.23.85-.23,1.53Z"/>
      <path d="M49.83,90.37c.44,0,.8.1,1.08.31.28.21.42.5.42.89,0,.2-.04.38-.13.53s-.2.28-.35.4-.3.22-.48.3c.21.1.39.21.56.34.17.12.3.26.4.43.1.16.15.36.15.59,0,.42-.15.75-.45,1s-.7.37-1.19.37c-.54,0-.96-.12-1.24-.35-.29-.24-.43-.57-.43-.99,0-.22.05-.42.14-.59.1-.17.22-.32.38-.44s.33-.22.51-.31c-.25-.14-.46-.31-.62-.51s-.25-.45-.25-.76c0-.25.07-.47.2-.64.13-.18.31-.31.53-.41.22-.09.48-.14.76-.14v-.02h0ZM48.78,94.18c0,.24.09.44.26.61.17.16.44.24.8.24.34,0,.6-.08.78-.24.18-.16.27-.37.27-.63,0-.24-.1-.44-.29-.61s-.45-.3-.76-.42l-.11-.04c-.31.14-.54.29-.7.46s-.24.38-.24.64h0ZM49.83,90.87c-.26,0-.47.06-.64.18-.16.12-.24.3-.24.54,0,.17.04.32.12.43.08.12.19.22.33.3.14.08.29.16.46.23.24-.1.45-.23.61-.37.17-.14.25-.34.25-.59,0-.23-.08-.41-.25-.54-.16-.12-.38-.18-.65-.18,0,0,0,0,.01,0Z"/>
    </g>
    <g>
      <path d="M68.56,92.94c0,.54-.06,1-.17,1.39s-.29.68-.54.88c-.24.21-.57.31-.96.31-.56,0-.98-.23-1.25-.68-.27-.46-.4-1.09-.4-1.89,0-.54.05-1,.17-1.39.11-.38.29-.68.53-.88s.56-.3.96-.3c.56,0,.98.23,1.25.68s.41,1.08.41,1.89h0ZM65.86,92.94c0,.69.08,1.2.23,1.54s.42.51.8.51.64-.17.8-.51c.16-.34.24-.85.24-1.54s-.08-1.19-.24-1.53c-.16-.34-.43-.51-.8-.51s-.65.17-.8.51-.23.85-.23,1.53Z"/>
      <path d="M72.54,92.58c0,.36-.03.71-.09,1.06s-.18.66-.34.95c-.17.28-.4.51-.7.68-.3.17-.69.25-1.16.25-.09,0-.2,0-.33-.02s-.23-.03-.3-.05v-.53c.18.06.39.09.62.09.33,0,.6-.05.81-.16s.38-.25.51-.44c.13-.18.22-.4.27-.64s.09-.5.1-.77h-.04c-.11.16-.26.29-.45.41-.19.11-.44.17-.74.17-.43,0-.78-.13-1.04-.4s-.4-.64-.4-1.12c0-.35.07-.65.2-.9s.32-.45.56-.58c.24-.13.52-.2.84-.2s.6.08.86.24c.26.16.46.4.61.73s.22.74.22,1.24h0ZM70.85,90.89c-.29,0-.53.1-.71.29s-.28.48-.28.88c0,.32.08.58.23.76.16.18.4.28.72.28.22,0,.42-.05.58-.14s.29-.21.38-.35.14-.28.14-.43c0-.2-.04-.4-.12-.6s-.2-.36-.36-.49-.36-.2-.59-.2h0Z"/>
    </g>
    <g>
      <path d="M88.27,95.44h-.6v-3.97c0-.12.01-.25.02-.38-.08.08-.14.14-.21.19-.06.05-.14.12-.23.2l-.53.43-.32-.41,1.35-1.05h.51v5h.01Z"/>
      <path d="M93.45,92.94c0,.54-.06,1-.17,1.38s-.29.68-.54.88c-.24.21-.57.31-.96.31-.56,0-.98-.23-1.25-.68-.27-.46-.4-1.09-.4-1.89,0-.54.05-1,.17-1.39.11-.38.29-.68.53-.88s.56-.3.96-.3c.56,0,.98.23,1.25.68.28.45.41,1.08.41,1.89ZM90.75,92.94c0,.69.08,1.2.23,1.54.16.34.42.51.8.51s.64-.17.8-.51c.16-.34.24-.85.24-1.54s-.08-1.19-.24-1.53c-.16-.34-.43-.51-.8-.51s-.65.17-.8.51c-.16.34-.23.85-.23,1.53Z"/>
    </g>
    <g>
      <path d="M109.93,95.44h-.6v-3.97c0-.12.01-.25.02-.38-.08.08-.14.14-.21.19-.06.05-.14.12-.23.2l-.53.43-.32-.41,1.35-1.05h.51v5h.01Z"/>
      <path d="M113.93,95.44h-.6v-3.97c0-.12.01-.25.02-.38-.08.08-.14.14-.21.19-.06.05-.14.12-.23.2l-.53.43-.32-.41,1.35-1.05h.51v5h.01Z"/>
    </g>
    <g>
      <path d="M130.44,95.44h-.6v-3.97c0-.12,0-.25.02-.38-.08.08-.14.14-.21.19-.06.05-.14.12-.23.2l-.53.43-.32-.41,1.35-1.05h.51v5h.01Z"/>
      <path d="M135.6,95.44h-3.3v-.51l1.31-1.32c.25-.25.46-.48.63-.67s.31-.39.4-.57.13-.39.13-.62c0-.28-.08-.48-.25-.63-.16-.14-.38-.21-.64-.21s-.46.04-.64.13c-.18.08-.37.2-.56.35l-.33-.41c.2-.16.42-.3.68-.42.25-.11.54-.17.86-.17.47,0,.84.12,1.11.36s.41.56.41.97c0,.26-.05.51-.16.74-.11.23-.26.46-.45.68s-.42.46-.67.71l-1.04,1.03v.03h2.53v.56s-.02-.03-.02-.03Z"/>
    </g>
    <g>
      <path d="M151.53,95.44h-.6v-3.97c0-.12,0-.25.02-.38-.08.08-.14.14-.21.19-.06.05-.14.12-.23.2l-.53.43-.32-.41,1.35-1.05h.51v5h.01Z"/>
      <path d="M156.5,91.61c0,.34-.09.6-.28.8-.19.2-.44.33-.75.4v.03c.4.05.69.17.89.38s.3.47.3.8c0,.29-.07.55-.2.78-.14.22-.34.4-.63.52s-.65.19-1.09.19c-.26,0-.5-.02-.73-.06-.22-.04-.44-.11-.64-.21v-.57c.21.11.44.19.68.25.24.06.48.08.7.08.45,0,.77-.09.97-.26.2-.17.3-.42.3-.72s-.12-.54-.37-.68-.59-.21-1.03-.21h-.48v-.52h.49c.41,0,.72-.09.93-.26.21-.17.32-.4.32-.69,0-.24-.08-.43-.25-.56-.16-.13-.38-.2-.67-.2s-.5.04-.69.12-.38.18-.57.3l-.31-.42c.18-.14.4-.26.66-.36s.56-.15.9-.15c.52,0,.91.12,1.17.35.25.23.38.53.38.89v-.02h0Z"/>
    </g>
    <g>
      <path d="M172.46,95.44h-.6v-3.97c0-.12,0-.25.02-.38-.08.08-.14.14-.21.19-.06.05-.14.12-.23.2l-.53.43-.32-.41,1.35-1.05h.51v5h.01Z"/>
      <path d="M177.84,94.31h-.73v1.13h-.59v-1.13h-2.39v-.53l2.35-3.37h.64v3.34h.73v.55h-.01ZM176.52,93.76v-2.2c0-.17,0-.33.02-.49h-.03c-.04.09-.08.18-.14.29-.06.1-.11.19-.16.26l-1.5,2.14h1.81Z"/>
    </g>
    <g>
      <path d="M193.66,95.44h-.6v-3.97c0-.12,0-.25.02-.38-.08.08-.14.14-.21.19-.06.05-.14.12-.23.2l-.53.43-.32-.41,1.35-1.05h.51v5h.01Z"/>
      <path d="M197.1,92.38c.51,0,.92.13,1.22.39s.46.62.46,1.08c0,.52-.17.92-.49,1.22-.33.3-.79.44-1.38.44-.26,0-.5-.02-.73-.07-.22-.05-.41-.11-.57-.2v-.58c.17.1.37.18.61.24s.47.09.69.09c.37,0,.67-.09.89-.26.23-.17.34-.45.34-.82,0-.33-.1-.58-.3-.75-.2-.18-.52-.26-.95-.26-.13,0-.28.01-.45.04s-.3.05-.41.07l-.31-.2.19-2.36h2.51v.56h-1.98l-.12,1.45c.08-.01.19-.03.32-.05.14-.02.29-.03.45-.03h0Z"/>
    </g>
    <g>
      <path d="M214.68,95.44h-.6v-3.97c0-.12,0-.25.02-.38-.08.08-.14.14-.21.19-.06.05-.14.12-.23.2l-.53.43-.32-.41,1.35-1.05h.51v5h.01Z"/>
      <path d="M216.59,93.31c0-.36.03-.71.09-1.06s.18-.66.34-.95c.17-.28.4-.51.7-.68s.68-.25,1.16-.25c.1,0,.21,0,.33.01.12,0,.22.03.29.05v.53c-.08-.03-.18-.05-.29-.06s-.21-.02-.31-.02c-.32,0-.59.05-.81.16s-.38.25-.51.44c-.12.19-.21.4-.27.64s-.09.5-.11.78h.04c.11-.16.26-.3.45-.42.19-.12.44-.17.73-.17.43,0,.78.13,1.05.4.27.26.4.64.4,1.12,0,.52-.14.93-.43,1.23s-.67.45-1.16.45c-.32,0-.6-.08-.86-.24-.26-.16-.46-.4-.61-.73s-.23-.74-.23-1.24h.01ZM218.28,94.99c.29,0,.53-.09.71-.28.18-.19.27-.48.27-.88,0-.32-.08-.57-.24-.76s-.4-.28-.72-.28c-.22,0-.41.05-.57.14s-.29.21-.38.35c-.09.14-.14.29-.14.43,0,.2.04.4.12.6s.2.36.36.49.36.19.59.19h0Z"/>
    </g>
    <g>
      <path d="M235.73,95.44h-.6v-3.97c0-.12,0-.25.02-.38-.08.08-.14.14-.21.19-.06.05-.14.12-.23.2l-.53.43-.32-.41,1.35-1.05h.51v5h.01Z"/>
      <path d="M238.2,95.44l2.05-4.44h-2.7v-.56h3.35v.48l-2.03,4.52h-.68,0Z"/>
    </g>
    <g>
      <path d="M256.83,95.44h-.6v-3.97c0-.12.01-.25.02-.38-.08.08-.14.14-.21.19-.06.05-.14.12-.23.2l-.53.43-.32-.41,1.35-1.05h.51v5h.01Z"/>
      <path d="M260.34,90.37c.44,0,.8.1,1.08.31s.42.5.42.89c0,.2-.04.38-.13.53s-.2.28-.35.4-.3.22-.48.3c.21.1.39.21.56.34.17.12.3.26.4.43.1.16.15.36.15.59,0,.42-.15.75-.45,1s-.7.37-1.19.37c-.54,0-.96-.12-1.24-.35-.29-.24-.43-.57-.43-.99,0-.22.05-.42.14-.59.1-.17.22-.32.38-.44s.33-.22.51-.31c-.25-.14-.46-.31-.62-.51s-.25-.45-.25-.76c0-.25.07-.47.2-.64.13-.18.31-.31.53-.41.22-.09.48-.14.76-.14v-.02h0ZM259.29,94.18c0,.24.09.44.26.61.17.16.44.24.8.24.34,0,.6-.08.78-.24.18-.16.27-.37.27-.63,0-.24-.1-.44-.29-.61s-.45-.3-.76-.42l-.11-.04c-.31.14-.54.29-.7.46s-.24.38-.24.64h0ZM260.33,90.87c-.26,0-.47.06-.64.19-.16.12-.24.3-.24.54,0,.17.04.32.12.43.08.12.19.22.33.3.14.08.29.16.46.23.24-.1.45-.23.61-.37.17-.14.25-.34.25-.59,0-.23-.08-.41-.25-.54-.16-.12-.38-.19-.65-.19h.01Z"/>
    </g>
    <g>
      <path d="M277.9,95.44h-.6v-3.97c0-.12.01-.25.02-.38-.08.08-.14.14-.21.19-.06.05-.14.12-.23.2l-.53.43-.32-.41,1.35-1.05h.51v5h.01Z"/>
      <path d="M283.05,92.58c0,.36-.03.71-.09,1.06s-.18.66-.34.95c-.17.28-.4.51-.7.68-.3.17-.69.25-1.16.25-.09,0-.2,0-.33-.02s-.23-.03-.3-.05v-.53c.18.06.39.09.62.09.33,0,.6-.05.81-.16s.38-.25.51-.44c.13-.18.22-.4.27-.64s.09-.5.1-.77h-.04c-.11.16-.26.29-.45.41-.19.11-.44.17-.74.17-.43,0-.78-.13-1.04-.4s-.4-.64-.4-1.12c0-.35.07-.65.2-.9s.32-.45.56-.58c.24-.13.52-.2.84-.2s.6.08.86.24c.26.16.46.4.61.73s.22.74.22,1.24h0ZM281.36,90.89c-.29,0-.53.1-.71.29s-.28.48-.28.88c0,.32.08.58.23.76.16.18.4.28.72.28.22,0,.42-.05.58-.14s.29-.21.38-.35.14-.28.14-.43c0-.2-.04-.4-.12-.6s-.2-.36-.36-.49c-.16-.13-.36-.2-.59-.2h0Z"/>
    </g>
    <g>
      <path d="M300.25,95.44h-3.3v-.51l1.31-1.32c.25-.25.46-.48.63-.67s.31-.39.4-.57.13-.39.13-.62c0-.28-.08-.48-.25-.63-.16-.14-.38-.21-.64-.21s-.46.04-.64.13c-.18.08-.37.2-.56.35l-.33-.41c.2-.16.42-.3.68-.42.25-.11.54-.17.86-.17.47,0,.84.12,1.11.36s.41.56.41.97c0,.26-.05.51-.16.74-.11.23-.26.46-.45.68s-.42.46-.67.71l-1.04,1.03v.03h2.53v.56l-.02-.03h0Z"/>
      <path d="M304.28,92.94c0,.54-.06,1-.17,1.39s-.29.68-.54.88c-.24.21-.57.31-.96.31-.56,0-.98-.23-1.25-.68-.27-.46-.4-1.09-.4-1.89,0-.54.05-1,.17-1.39.11-.38.29-.68.53-.88s.56-.3.96-.3c.56,0,.98.23,1.25.68s.41,1.08.41,1.89h0ZM301.57,92.94c0,.69.08,1.2.23,1.54s.42.51.8.51.64-.17.8-.51c.16-.34.24-.85.24-1.54s-.08-1.19-.24-1.53-.43-.51-.8-.51-.65.17-.8.51-.23.85-.23,1.53Z"/>
    </g>
    <g>
      <path d="M26.42,92.94c0,.54-.06,1-.17,1.39s-.29.68-.54.88c-.24.21-.57.31-.96.31-.56,0-.98-.23-1.25-.68-.27-.46-.4-1.09-.4-1.89,0-.54.05-1,.17-1.39.11-.38.29-.68.53-.88s.56-.3.96-.3c.56,0,.98.23,1.25.68s.41,1.08.41,1.89h0ZM23.72,92.94c0,.69.08,1.2.23,1.54s.42.51.8.51.64-.17.8-.51c.16-.34.24-.85.24-1.54s-.08-1.19-.24-1.53-.43-.51-.8-.51-.65.17-.8.51-.23.85-.23,1.53Z"/>
      <path d="M27.72,95.44l2.05-4.44h-2.7v-.56h3.35v.48l-2.03,4.52h-.68.01Z"/>
    </g>
    <g>
      <path d="M5.36,92.94c0,.54-.06,1-.17,1.39s-.29.68-.54.88c-.24.21-.57.31-.96.31-.56,0-.98-.23-1.25-.68-.27-.46-.4-1.09-.4-1.89,0-.54.05-1,.17-1.39.11-.38.29-.68.53-.88s.56-.3.96-.3c.56,0,.98.23,1.25.68s.41,1.08.41,1.89h0ZM2.65,92.94c0,.69.08,1.2.23,1.54s.42.51.8.51.64-.17.8-.51c.16-.34.24-.85.24-1.54s-.08-1.19-.24-1.53-.43-.51-.8-.51-.65.17-.8.51-.23.85-.23,1.53Z"/>
      <path d="M6.08,93.31c0-.36.03-.71.09-1.06s.18-.66.34-.95c.17-.28.4-.51.7-.67.3-.17.68-.25,1.16-.25.1,0,.21,0,.33.01.12,0,.22.03.29.05v.53c-.08-.03-.18-.05-.29-.06s-.21-.02-.31-.02c-.32,0-.59.05-.81.16s-.38.25-.51.44c-.12.19-.21.4-.27.64s-.09.5-.11.78h.04c.11-.16.26-.3.45-.42.19-.12.44-.17.73-.17.43,0,.78.13,1.05.4.27.26.4.64.4,1.12,0,.52-.14.93-.43,1.23s-.67.45-1.16.45c-.32,0-.6-.08-.86-.24-.26-.16-.46-.4-.61-.73s-.23-.74-.23-1.24h.01ZM7.78,94.99c.29,0,.53-.09.71-.28.18-.19.27-.48.27-.88,0-.32-.08-.57-.24-.76s-.4-.28-.72-.28c-.22,0-.41.05-.57.14-.16.09-.29.21-.38.35s-.14.29-.14.43c0,.2.04.4.12.6s.2.36.36.49c.16.13.36.19.59.19Z"/>
    </g>
    <path class="st5" d="M25.12,43.27c0-.36.03-.71.09-1.06s.18-.66.34-.95c.17-.28.4-.51.7-.67.3-.17.68-.25,1.16-.25.1,0,.21,0,.33,0,.12,0,.22.03.29.05v.53c-.08-.03-.18-.05-.29-.06-.11,0-.21-.02-.31-.02-.32,0-.59.05-.81.16s-.38.25-.51.44c-.12.19-.21.4-.27.64-.06.24-.09.5-.11.78h.04c.11-.16.26-.3.45-.42s.44-.17.73-.17c.43,0,.78.13,1.05.4.27.26.4.64.4,1.12,0,.52-.14.93-.43,1.23s-.67.45-1.16.45c-.32,0-.6-.08-.86-.24s-.46-.4-.61-.73c-.15-.33-.23-.74-.23-1.24,0,0,.01,0,.01,0ZM26.82,44.96c.29,0,.53-.09.71-.28.18-.19.27-.48.27-.88,0-.32-.08-.57-.24-.76s-.4-.28-.72-.28c-.22,0-.41.04-.57.14-.16.09-.29.21-.38.35s-.14.29-.14.43c0,.2.04.4.12.6s.2.36.36.49.36.19.59.19Z"/>
    <path class="st5" d="M4.05,44.85c0-.36.03-.71.09-1.06.06-.35.18-.66.34-.95.17-.28.4-.51.7-.68.3-.17.68-.25,1.16-.25.1,0,.21,0,.33,0,.12,0,.22.03.29.05v.52c-.08-.03-.18-.05-.29-.06-.11,0-.21-.02-.31-.02-.32,0-.59.05-.81.16s-.38.25-.51.44c-.12.19-.21.4-.27.64s-.09.5-.11.78h.04c.11-.16.26-.3.45-.42s.44-.17.73-.17c.43,0,.78.13,1.05.4.27.26.4.64.4,1.12,0,.52-.14.93-.43,1.23s-.67.45-1.16.45c-.32,0-.6-.08-.86-.24-.26-.16-.46-.4-.61-.73s-.23-.74-.23-1.24v.02h.01ZM5.75,46.53c.29,0,.53-.09.71-.28.18-.19.27-.48.27-.88,0-.32-.08-.57-.24-.76s-.4-.28-.72-.28c-.22,0-.41.05-.57.14-.16.09-.29.21-.38.35s-.14.29-.14.43c0,.2.04.4.12.6s.2.36.36.49c.16.13.36.19.59.19Z"/>
    <path class="st5" d="M46.8,39.76l2.05-4.44h-2.7v-.56h3.35v.48l-2.03,4.52h-.68.01Z"/>
    <path class="st5" d="M68.8,44.83c.51,0,.92.13,1.22.38s.46.62.46,1.08c0,.52-.17.92-.49,1.22-.33.3-.79.44-1.38.44-.26,0-.5-.02-.73-.07-.22-.05-.41-.11-.57-.2v-.58c.17.1.37.18.61.24s.47.09.69.09c.37,0,.67-.09.89-.26.23-.18.34-.45.34-.82,0-.33-.1-.58-.3-.75-.2-.17-.52-.26-.95-.26-.13,0-.28,0-.45.04s-.3.05-.41.07l-.31-.2.19-2.36h2.51v.56h-1.98l-.12,1.45c.08,0,.19-.03.32-.05.14-.02.29-.03.45-.03h.01Z"/>
    <path class="st5" d="M88.32,42.61c0-.36.03-.71.09-1.06s.18-.66.34-.95c.17-.28.4-.51.7-.68.3-.17.68-.25,1.16-.25.1,0,.21,0,.33,0,.12,0,.22.03.29.05v.52c-.08-.03-.18-.05-.29-.06-.11,0-.21-.02-.31-.02-.32,0-.59.05-.81.16s-.38.25-.51.44c-.12.19-.21.4-.27.64s-.09.5-.11.78h.04c.11-.16.26-.3.45-.42s.44-.17.73-.17c.43,0,.78.13,1.05.4.27.26.4.64.4,1.12,0,.52-.14.93-.43,1.23s-.67.45-1.16.45c-.32,0-.6-.08-.86-.24s-.46-.4-.61-.73-.23-.74-.23-1.24v.02h.01ZM90.01,44.3c.29,0,.53-.09.71-.28s.27-.48.27-.88c0-.32-.08-.57-.24-.76s-.4-.28-.72-.28c-.22,0-.41.05-.57.14-.16.09-.29.21-.38.35s-.14.29-.14.43c0,.2.04.4.12.6s.2.36.36.49.36.19.59.19Z"/>
    <path class="st5" d="M110.93,45.76c.51,0,.92.13,1.22.38.31.26.46.62.46,1.08,0,.52-.17.93-.49,1.22-.33.3-.79.44-1.38.44-.26,0-.5-.02-.73-.07-.22-.05-.41-.11-.57-.2v-.58c.17.1.37.18.61.24s.47.09.69.09c.37,0,.67-.09.89-.26.23-.17.34-.45.34-.82,0-.33-.1-.58-.3-.75-.2-.17-.52-.26-.95-.26-.13,0-.28,0-.45.03s-.3.05-.41.07l-.31-.2.19-2.36h2.51v.56h-1.98l-.12,1.45c.08,0,.19-.03.32-.05.14-.02.29-.03.45-.03v.02h.01Z"/>
    <path class="st5" d="M132.09,25.41c.44,0,.8.1,1.08.31s.42.5.42.89c0,.2-.04.38-.13.53-.09.15-.2.28-.35.4s-.3.22-.48.3c.21.1.39.21.56.34s.3.26.4.43c.1.16.15.36.15.59,0,.42-.15.75-.45,1-.3.24-.7.37-1.19.37-.54,0-.96-.12-1.24-.35s-.43-.57-.43-.99c0-.22.05-.42.14-.59s.22-.32.38-.44.33-.22.51-.31c-.25-.14-.46-.31-.62-.51s-.25-.45-.25-.76c0-.25.07-.47.2-.64.13-.18.31-.31.53-.41.22-.09.48-.14.76-.14v-.02h.01ZM131.04,29.21c0,.24.09.44.26.61s.44.24.8.24c.34,0,.6-.08.78-.24s.27-.37.27-.63c0-.24-.1-.44-.29-.61s-.45-.3-.76-.42l-.11-.04c-.31.13-.54.29-.7.46s-.24.38-.24.64h-.01ZM132.08,25.91c-.26,0-.47.06-.64.18-.16.12-.24.3-.24.54,0,.17.04.32.12.43.08.12.19.22.33.3s.29.16.46.23c.24-.1.45-.23.61-.37.17-.14.25-.34.25-.59,0-.23-.08-.41-.25-.54-.16-.12-.38-.18-.65-.18h0Z"/>
    <path class="st5" d="M151.51,39.12c0-.36.03-.71.09-1.06s.18-.66.34-.95c.17-.28.4-.51.7-.67.3-.17.68-.25,1.16-.25.1,0,.21,0,.33,0,.12,0,.22.03.29.05v.53c-.08-.03-.18-.05-.29-.06-.11,0-.21-.02-.31-.02-.32,0-.59.05-.81.16s-.38.25-.51.44c-.12.19-.21.4-.27.64s-.09.5-.11.78h.04c.11-.16.26-.3.45-.42s.44-.17.73-.17c.43,0,.78.13,1.05.4.27.26.4.64.4,1.12,0,.52-.14.93-.43,1.23s-.67.45-1.16.45c-.32,0-.6-.08-.86-.24s-.46-.4-.61-.73-.23-.74-.23-1.24h.01ZM153.21,40.81c.29,0,.53-.09.71-.28.18-.19.27-.48.27-.88,0-.32-.08-.57-.24-.76s-.4-.28-.72-.28c-.22,0-.41.04-.57.14-.16.09-.29.21-.38.35s-.14.29-.14.43c0,.2.04.4.12.6s.2.36.36.49.36.19.59.19h0Z"/>
    <path class="st5" d="M174.22,26.07c.44,0,.8.1,1.08.31s.42.5.42.89c0,.2-.04.38-.13.53-.09.15-.2.28-.35.4s-.3.22-.48.3c.21.1.39.21.56.34s.3.26.4.43c.1.16.15.36.15.59,0,.42-.15.75-.45,1-.3.24-.7.37-1.19.37-.54,0-.96-.12-1.24-.35s-.43-.57-.43-.99c0-.22.05-.42.14-.59s.22-.32.38-.44.33-.22.51-.31c-.25-.14-.46-.31-.62-.51s-.25-.45-.25-.76c0-.25.07-.47.2-.64.13-.18.31-.31.53-.41.22-.09.48-.14.76-.14v-.02h.01ZM173.17,29.87c0,.24.09.44.26.61s.44.24.8.24c.34,0,.6-.08.78-.24s.27-.37.27-.63c0-.24-.1-.44-.29-.61s-.45-.3-.76-.42l-.11-.04c-.31.13-.54.29-.7.46s-.24.38-.24.64h-.01ZM174.21,26.57c-.26,0-.47.06-.64.18-.16.12-.24.3-.24.54,0,.17.04.32.12.43.08.12.19.22.33.3s.29.16.46.23c.24-.1.45-.23.61-.37.17-.14.25-.34.25-.59,0-.23-.08-.41-.25-.54-.16-.12-.38-.18-.65-.18h0Z"/>
    <path class="st5" d="M195.29,26.39c.44,0,.8.1,1.08.31s.42.5.42.89c0,.2-.04.38-.13.52-.09.15-.2.28-.35.4-.14.12-.3.22-.48.3.21.1.39.21.56.34.17.12.3.26.4.43.1.16.15.36.15.59,0,.42-.15.75-.45,1s-.7.37-1.19.37c-.54,0-.96-.12-1.24-.35-.29-.24-.43-.57-.43-.99,0-.22.05-.42.14-.59.1-.17.22-.32.38-.44s.33-.22.51-.31c-.25-.14-.46-.31-.62-.51-.17-.2-.25-.45-.25-.76,0-.25.07-.47.2-.64.13-.18.31-.31.53-.41.22-.09.48-.14.76-.14h.01ZM194.24,30.19c0,.24.09.45.26.61s.44.24.8.24c.34,0,.6-.08.78-.24s.27-.37.27-.63c0-.24-.1-.44-.29-.61s-.45-.3-.76-.42l-.11-.04c-.31.14-.54.29-.7.46s-.24.38-.24.64h-.01ZM195.28,26.89c-.26,0-.47.06-.64.19-.16.12-.24.3-.24.54,0,.17.04.32.12.43.08.12.19.22.33.3s.29.16.46.24c.24-.1.45-.23.61-.37.17-.14.25-.34.25-.6,0-.23-.08-.41-.25-.54-.16-.12-.38-.19-.65-.19h0Z"/>
    <path class="st5" d="M216.35,26.98c.44,0,.8.1,1.08.31s.42.5.42.89c0,.2-.04.38-.13.52-.09.15-.2.28-.35.4-.14.12-.3.22-.48.3.21.1.39.21.56.34.17.12.3.26.4.43.1.16.15.36.15.59,0,.42-.15.75-.45,1s-.7.37-1.19.37c-.54,0-.96-.12-1.24-.35-.29-.24-.43-.57-.43-.99,0-.22.05-.42.14-.59.1-.17.22-.32.38-.44s.33-.22.51-.31c-.25-.14-.46-.31-.62-.51-.17-.2-.25-.45-.25-.76,0-.25.07-.47.2-.64.13-.18.31-.31.53-.41.22-.09.48-.14.76-.14h.01ZM215.3,30.78c0,.24.09.45.26.61s.44.24.8.24c.34,0,.6-.08.78-.24s.27-.37.27-.63c0-.24-.1-.44-.29-.61s-.45-.3-.76-.42l-.11-.04c-.31.14-.54.29-.7.46s-.24.38-.24.64h-.01ZM216.34,27.48c-.26,0-.47.06-.64.19-.16.12-.24.3-.24.54,0,.17.04.32.12.43.08.12.19.22.33.3s.29.16.46.24c.24-.1.45-.23.61-.37.17-.14.25-.34.25-.6,0-.23-.08-.41-.25-.54-.16-.12-.38-.19-.65-.19h0Z"/>
    <path class="st5" d="M236.39,37.24l2.05-4.44h-2.7v-.56h3.35v.48l-2.03,4.52h-.68,0Z"/>
    <path class="st5" d="M260.13,21.7c0,.36-.03.71-.09,1.06s-.18.66-.34.95c-.17.28-.4.51-.7.68-.3.17-.69.25-1.16.25-.09,0-.2,0-.33-.02s-.23-.03-.3-.05v-.52c.18.06.39.09.62.09.33,0,.6-.05.81-.16s.38-.25.51-.44c.13-.18.22-.4.27-.64.06-.25.09-.5.1-.77h-.04c-.11.16-.26.3-.45.41s-.44.17-.74.17c-.43,0-.78-.13-1.04-.4s-.4-.64-.4-1.12c0-.35.07-.65.2-.9s.32-.45.56-.58.52-.2.84-.2.6.08.86.24c.26.16.46.4.61.73s.22.74.22,1.24v-.02h0ZM258.43,20.01c-.29,0-.53.1-.71.29s-.28.48-.28.88c0,.32.08.58.23.76.16.18.4.28.72.28.22,0,.42-.05.58-.14s.29-.21.38-.35.14-.28.14-.43c0-.2-.04-.4-.12-.59-.08-.2-.2-.36-.36-.49-.16-.13-.36-.2-.59-.2h0Z"/>
    <path class="st5" d="M281.19,24.53c0,.36-.03.71-.09,1.06s-.18.66-.34.95c-.17.28-.4.51-.7.68-.3.17-.69.25-1.16.25-.09,0-.2,0-.33-.02s-.23-.03-.3-.05v-.52c.18.06.39.09.62.09.33,0,.6-.05.81-.16s.38-.25.51-.44c.13-.18.22-.4.27-.64.06-.25.09-.5.1-.77h-.04c-.11.16-.26.3-.45.41s-.44.17-.74.17c-.43,0-.78-.13-1.04-.4s-.4-.64-.4-1.12c0-.35.07-.65.2-.9s.32-.45.56-.58.52-.2.84-.2.6.08.86.24c.26.16.46.4.61.73s.22.74.22,1.24v-.02h0ZM279.5,22.84c-.29,0-.53.1-.71.29s-.28.48-.28.88c0,.32.08.58.23.76.16.18.4.28.72.28.22,0,.42-.05.58-.14s.29-.21.38-.35.14-.28.14-.43c0-.2-.04-.4-.12-.59-.08-.2-.2-.36-.36-.49-.16-.13-.36-.2-.59-.2h0Z"/>
    <g>
      <path class="st5" d="M298.9,5.05h-.6V1.08c0-.12.01-.25.02-.38-.08.08-.14.14-.21.19-.06.05-.14.12-.23.2l-.53.43-.32-.41,1.35-1.05h.51v5h.01Z"/>
      <path class="st5" d="M303.6,5.05h-3.3v-.51l1.31-1.32c.25-.25.46-.48.63-.67.17-.2.31-.39.4-.57s.13-.39.13-.62c0-.28-.08-.48-.25-.63-.16-.14-.38-.21-.64-.21s-.46.04-.64.13c-.18.08-.37.2-.56.35l-.33-.41c.2-.16.42-.3.68-.42.25-.11.54-.17.86-.17.47,0,.84.12,1.11.36.27.24.41.56.41.97,0,.26-.05.51-.16.74-.11.23-.26.46-.45.68s-.42.46-.67.71l-1.04,1.03v.03h2.53v.56l-.02-.03h0Z"/>
    </g>
    <path class="st5" d="M321.68,22.78c.44,0,.8.1,1.08.31s.42.5.42.89c0,.2-.04.38-.13.52-.09.15-.2.28-.35.4-.14.12-.3.22-.48.3.21.1.39.21.56.34.17.12.3.26.4.43.1.16.15.36.15.59,0,.42-.15.75-.45,1s-.7.37-1.19.37c-.54,0-.96-.12-1.24-.35-.29-.24-.43-.57-.43-.99,0-.22.05-.42.14-.59.1-.17.22-.32.38-.44s.33-.22.51-.31c-.25-.14-.46-.31-.62-.51-.17-.2-.25-.45-.25-.76,0-.25.07-.47.2-.64.13-.18.31-.31.53-.41.22-.09.48-.14.76-.14h0ZM320.63,26.58c0,.24.09.45.26.61s.44.24.8.24c.34,0,.6-.08.78-.24s.27-.37.27-.63c0-.24-.1-.44-.29-.61s-.45-.3-.76-.42l-.11-.04c-.31.14-.54.29-.7.46s-.24.38-.24.64h0ZM321.67,23.28c-.26,0-.47.06-.64.19-.16.12-.24.3-.24.54,0,.17.04.32.12.43.08.12.19.22.33.3.14.08.29.16.46.24.24-.1.45-.23.61-.37.17-.14.25-.34.25-.6,0-.23-.08-.41-.25-.54-.16-.12-.38-.19-.65-.19h.01Z"/>
    <g>
      <path d="M321.89,95.44h-3.3v-.51l1.31-1.32c.25-.25.46-.48.63-.67s.31-.39.4-.57.13-.39.13-.62c0-.28-.08-.48-.25-.63-.16-.14-.38-.21-.64-.21s-.46.04-.64.13c-.18.08-.37.2-.56.35l-.33-.41c.2-.16.42-.3.68-.42.25-.11.54-.17.86-.17.47,0,.84.12,1.11.36s.41.56.41.97c0,.26-.05.51-.16.74-.11.23-.26.46-.45.68s-.42.46-.67.71l-1.04,1.03v.03h2.53v.56l-.02-.03h0Z"/>
      <path d="M324.74,95.44h-.6v-3.97c0-.12.01-.25.02-.38-.08.08-.14.14-.21.19-.06.05-.14.12-.23.2l-.53.43-.32-.41,1.35-1.05h.51v5h.01Z"/>
    </g>
    <path class="st5" d="M344.38,18.48c0,.36-.03.71-.09,1.06s-.18.66-.34.95c-.17.28-.4.51-.7.67-.3.17-.69.25-1.16.25-.09,0-.2,0-.33-.02-.13,0-.23-.03-.3-.05v-.53c.18.06.39.09.62.09.33,0,.6-.05.81-.16s.38-.25.51-.44c.13-.18.22-.4.27-.64s.09-.5.1-.77h-.04c-.11.16-.26.29-.45.41s-.44.17-.74.17c-.43,0-.78-.13-1.04-.4s-.4-.64-.4-1.12c0-.35.07-.65.2-.9s.32-.45.56-.58.52-.2.84-.2.6.08.86.24c.26.16.46.4.61.73s.22.74.22,1.24h0ZM342.69,16.8c-.29,0-.53.1-.71.29s-.28.48-.28.88c0,.32.08.58.23.76s.4.28.72.28c.22,0,.42-.04.58-.14.16-.09.29-.21.38-.35s.14-.29.14-.43c0-.2-.04-.4-.12-.59-.08-.2-.2-.36-.36-.49-.16-.13-.36-.2-.59-.2h0Z"/>
    <g>
      <path d="M342.39,95.44h-3.3v-.51l1.31-1.32c.25-.25.46-.48.63-.67s.31-.39.4-.57.13-.39.13-.62c0-.28-.08-.48-.25-.63-.16-.14-.38-.21-.64-.21s-.46.04-.64.13c-.18.08-.37.2-.56.35l-.33-.41c.2-.16.42-.3.68-.42.25-.11.54-.17.86-.17.47,0,.84.12,1.11.36s.41.56.41.97c0,.26-.05.51-.16.74-.11.23-.26.46-.45.68s-.42.46-.67.71l-1.04,1.03v.03h2.53v.56l-.02-.03h0Z"/>
      <path d="M346.4,95.44h-3.3v-.51l1.31-1.32c.25-.25.46-.48.63-.67s.31-.39.4-.57.13-.39.13-.62c0-.28-.08-.48-.25-.63-.16-.14-.38-.21-.64-.21s-.46.04-.64.13c-.18.08-.37.2-.56.35l-.33-.41c.2-.16.42-.3.68-.42.25-.11.54-.17.86-.17.47,0,.84.12,1.11.36s.41.56.41.97c0,.26-.05.51-.16.74-.11.23-.26.46-.45.68s-.42.46-.67.71l-1.04,1.03v.03h2.53v.56l-.02-.03h0Z"/>
    </g>
    <g>
      <path class="st5" d="M362.44,10.57h-.6v-3.97c0-.12.01-.25.02-.38-.08.08-.14.14-.21.19-.06.05-.14.12-.23.2l-.53.43-.32-.41,1.35-1.05h.51v5h.01Z"/>
      <path class="st5" d="M365.86,10.57h-.6v-3.97c0-.12.01-.25.02-.38-.08.08-.14.14-.21.19-.06.05-.14.12-.23.2l-.53.43-.32-.41,1.35-1.05h.51v5h.01Z"/>
    </g>
    <g>
      <path d="M363.49,95.44h-3.3v-.51l1.31-1.32c.25-.25.46-.48.63-.67s.31-.39.4-.57.13-.39.13-.62c0-.28-.08-.48-.25-.63-.16-.14-.38-.21-.64-.21s-.46.04-.64.13c-.18.08-.37.2-.56.35l-.33-.41c.2-.16.42-.3.68-.42.25-.11.54-.17.86-.17.47,0,.84.12,1.11.36s.41.56.41.97c0,.26-.05.51-.16.74-.11.23-.26.46-.45.68s-.42.46-.67.71l-1.04,1.03v.03h2.53v.56l-.02-.03h0Z"/>
      <path d="M367.31,91.61c0,.34-.09.6-.28.8-.19.2-.44.33-.75.4v.03c.4.05.69.17.89.38s.3.47.3.8c0,.29-.07.55-.2.78-.14.22-.34.4-.63.52s-.65.19-1.09.19c-.26,0-.5-.02-.73-.06-.22-.04-.44-.11-.64-.21v-.57c.21.11.44.19.68.25s.48.08.7.08c.45,0,.77-.09.97-.26.2-.17.3-.42.3-.72s-.12-.54-.37-.68-.59-.21-1.03-.21h-.48v-.52h.49c.41,0,.72-.09.93-.26.21-.17.32-.4.32-.69,0-.24-.08-.43-.25-.56-.16-.13-.38-.2-.67-.2s-.5.04-.69.12-.38.18-.57.3l-.31-.42c.18-.14.4-.26.66-.36s.56-.15.9-.15c.52,0,.91.12,1.17.35.25.23.38.53.38.89v-.02h0Z"/>
    </g>
    <path class="st5" d="M386.51,21.31c0,.36-.03.71-.09,1.06s-.18.66-.34.95c-.17.28-.4.51-.7.68-.3.17-.69.25-1.16.25-.09,0-.2,0-.33-.02s-.23-.03-.3-.05v-.52c.18.06.39.09.62.09.33,0,.6-.05.81-.16s.38-.25.51-.44c.13-.18.22-.4.27-.64.06-.25.09-.5.1-.77h-.04c-.11.16-.26.3-.45.41s-.44.17-.74.17c-.43,0-.78-.13-1.04-.4s-.4-.64-.4-1.12c0-.35.07-.65.2-.9s.32-.45.56-.58.52-.2.84-.2.6.08.86.24c.26.16.46.4.61.73s.22.74.22,1.24v-.02h0ZM384.81,19.62c-.29,0-.53.1-.71.29s-.28.48-.28.88c0,.32.08.58.23.76.16.18.4.28.72.28.22,0,.42-.05.58-.14s.29-.21.38-.35.14-.28.14-.43c0-.2-.04-.4-.12-.59-.08-.2-.2-.36-.36-.49-.16-.13-.36-.2-.59-.2h0Z"/>
    <g>
      <path d="M384.41,95.44h-3.3v-.51l1.31-1.32c.25-.25.46-.48.63-.67s.31-.39.4-.57.13-.39.13-.62c0-.28-.08-.48-.25-.63-.16-.14-.38-.21-.64-.21s-.46.04-.64.13c-.18.08-.37.2-.56.35l-.33-.41c.2-.16.42-.3.68-.42.25-.11.54-.17.86-.17.47,0,.84.12,1.11.36s.41.56.41.97c0,.26-.05.51-.16.74-.11.23-.26.46-.45.68s-.42.46-.67.71l-1.04,1.03v.03h2.53v.56l-.02-.03h0Z"/>
      <path d="M388.64,94.31h-.73v1.13h-.59v-1.13h-2.39v-.53l2.35-3.37h.64v3.34h.73v.55h-.01ZM387.32,93.76v-1.58c0-.24,0-.45.01-.62,0-.17.01-.33.02-.49h-.03c-.04.09-.08.18-.14.29-.06.1-.11.19-.16.26l-1.5,2.14h1.8Z"/>
    </g>
    <g>
      <path class="st6" d="M404.17,14.76h-.6v-3.97c0-.12.01-.25.02-.38-.08.07-.14.14-.21.19-.06.05-.14.12-.23.2l-.53.43-.32-.41,1.35-1.05h.51v5h.01Z"/>
      <path class="st6" d="M409.03,12.26c0,.54-.06,1-.17,1.39-.11.38-.29.68-.54.88-.24.21-.57.31-.96.31-.56,0-.98-.23-1.25-.68-.27-.46-.4-1.09-.4-1.89,0-.54.05-1,.17-1.39.11-.38.29-.68.53-.88s.56-.3.96-.3c.56,0,.98.23,1.25.68s.41,1.08.41,1.89h0ZM406.33,12.26c0,.69.08,1.2.23,1.54s.42.51.8.51.64-.17.8-.51c.16-.34.24-.85.24-1.54s-.08-1.19-.24-1.53-.43-.51-.8-.51-.65.17-.8.51c-.16.34-.23.85-.23,1.53Z"/>
    </g>
    <g>
      <path d="M405.63,95.44h-3.3v-.51l1.31-1.32c.25-.25.46-.48.63-.67s.31-.39.4-.57.13-.39.13-.62c0-.28-.08-.48-.25-.63-.16-.14-.38-.21-.64-.21s-.46.04-.64.13c-.18.08-.37.2-.56.35l-.33-.41c.2-.16.42-.3.68-.42.25-.11.54-.17.86-.17.47,0,.84.12,1.11.36s.41.56.41.97c0,.26-.05.51-.16.74-.11.23-.26.46-.45.68s-.42.46-.67.71l-1.04,1.03v.03h2.53v.56l-.02-.03h0Z"/>
      <path d="M407.92,92.38c.51,0,.92.13,1.22.39s.46.62.46,1.08c0,.52-.17.92-.49,1.22-.33.3-.79.44-1.38.44-.26,0-.5-.02-.73-.07-.22-.05-.41-.11-.57-.2v-.58c.17.1.37.18.61.24s.47.09.69.09c.37,0,.67-.09.89-.26.23-.17.34-.45.34-.82,0-.33-.1-.58-.3-.75-.2-.18-.52-.26-.95-.26-.13,0-.28.01-.45.04s-.3.05-.41.07l-.31-.2.19-2.36h2.51v.56h-1.98l-.12,1.45c.08-.01.19-.03.32-.05.14-.02.29-.03.45-.03,0,0,.01,0,.01,0Z"/>
    </g>
    <rect class="st0" x=".13" y="88.91" width="1.88" height="6.53"/>
    <rect class="st0" x="9.37" y="88.91" width="1.88" height="6.53"/>
    <rect class="st0" x="126.52" y="89.59" width="2.05" height="6.53"/>
    <rect class="st0" x="135.6" y="89.59" width="2.05" height="6.53"/>
    <rect class="st0" x="147.59" y="89.59" width="2.05" height="6.53"/>
    <rect class="st0" x="156.67" y="89.59" width="2.05" height="6.53"/>
    <rect class="st0" x="168.66" y="89.59" width="2.05" height="6.53"/>
    <rect class="st0" x="177.73" y="89.59" width="2.05" height="6.53"/>
    <rect class="st0" x="189.72" y="89.59" width="2.05" height="6.53"/>
    <rect class="st0" x="198.79" y="89.59" width="2.05" height="6.53"/>
    <rect class="st0" x="210.78" y="89.59" width="2.05" height="6.53"/>
    <rect class="st0" x="219.85" y="89.59" width="2.05" height="6.53"/>
    <rect class="st0" x="231.84" y="89.59" width="2.05" height="6.53"/>
    <rect class="st0" x="240.91" y="89.59" width="2.05" height="6.53"/>
    <rect class="st0" x="400.4" y="89.59" width="1.92" height="6.53"/>
    <rect class="st0" x="409.59" y="89.59" width="1.92" height="6.53"/>
    <rect class="st0" x="379.3" y="18.29" width="3.89" height="9.41"/>
    <rect class="st0" x="386.53" y="18.29" width="3.89" height="9.41"/>
    <rect class="st0" x="358.25" y="4.86" width="2.88" height="9.14"/>
    <rect class="st0" x="366.48" y="4.86" width="2.88" height="9.14"/>
    <rect class="st0" x="400.42" y="14.78" width="11.09" height="2.97"/>
    <rect class="st0" x="400.4" y="8.61" width="2.2" height="6.21"/>
    <rect class="st0" x="409.32" y="8.61" width="2.2" height="6.21"/>
  </g>
</svg>