<?xml version="1.0" encoding="UTF-8"?>
<svg id="Layer_1" xmlns="http://www.w3.org/2000/svg" version="1.1" viewBox="0 0 390.73 91.76">
  <!-- Generator: Adobe Illustrator 29.6.0, SVG Export Plug-In . SVG Version: 2.1.1 Build 207)  -->
  <defs>
    <style>
      .st0, .st1, .st2, .st3 {
        fill: none;
      }

      .st4 {
        fill: #ee7003;
      }

      .st1 {
        stroke: #ee7003;
      }

      .st1, .st3 {
        stroke-linecap: round;
        stroke-miterlimit: 10;
      }

      .st2 {
        stroke: #000;
        stroke-width: .25px;
      }

      .st5 {
        fill: #633169;
      }

      .st3 {
        stroke: #a183a5;
      }
    </style>
  </defs>
  <g id="Legend">
    <path d="M3.32,66.42c0,.54-.06,1-.17,1.39-.11.38-.29.68-.54.88s-.57.31-.96.31c-.56,0-.98-.23-1.25-.68-.27-.46-.4-1.1-.4-1.9,0-.54.06-1,.16-1.39.11-.38.29-.67.53-.88s.56-.3.96-.3c.56,0,.98.23,1.25.68s.41,1.08.41,1.89h0ZM.62,66.42c0,.69.08,1.2.23,1.54.16.34.42.51.8.51s.64-.17.8-.51c.16-.34.24-.85.24-1.54s-.08-1.19-.24-1.53-.43-.51-.8-.51-.65.17-.8.51-.23.85-.23,1.53Z"/>
    <line class="st2" x1="6.86" y1="66.42" x2="390.73" y2="66.42"/>
    <g>
      <path d="M104.46,72.93c0,.54-.06,1-.17,1.39s-.29.68-.54.88c-.24.21-.57.31-.96.31-.56,0-.98-.23-1.25-.68-.27-.46-.4-1.09-.4-1.89,0-.54.05-1,.17-1.39.11-.38.29-.67.53-.88.24-.2.56-.3.96-.3.56,0,.98.23,1.25.68s.41,1.08.41,1.89h0ZM101.76,72.93c0,.69.08,1.2.23,1.54.16.34.42.51.8.51s.64-.17.8-.51c.16-.34.24-.85.24-1.54s-.08-1.19-.24-1.53c-.16-.34-.43-.51-.8-.51s-.65.17-.8.51-.23.85-.23,1.53Z"/>
      <path d="M107.05,70.37c.44,0,.8.1,1.08.31s.42.5.42.89c0,.2-.04.38-.13.52-.09.15-.2.28-.35.4-.14.12-.3.22-.48.3.21.1.39.21.56.34.17.12.3.26.4.43.1.16.15.36.15.59,0,.42-.15.75-.45,1s-.7.37-1.19.37c-.54,0-.96-.12-1.24-.35-.29-.24-.43-.57-.43-.99,0-.22.05-.42.14-.59.1-.17.22-.32.38-.44.16-.12.33-.22.51-.31-.25-.14-.46-.31-.62-.51-.17-.2-.25-.45-.25-.76,0-.25.07-.47.2-.64.13-.18.31-.31.53-.41.22-.09.48-.14.76-.14h.01ZM106,74.17c0,.24.09.45.26.61.17.16.44.24.8.24.34,0,.6-.08.78-.24.18-.16.27-.37.27-.63,0-.24-.1-.44-.29-.61s-.45-.3-.76-.42l-.11-.04c-.31.14-.54.29-.7.46s-.24.38-.24.64h-.01ZM107.04,70.86c-.26,0-.47.06-.64.19-.16.12-.24.3-.24.54,0,.17.04.32.12.43.08.12.19.22.33.3s.29.16.46.24c.24-.1.45-.23.61-.37.17-.14.25-.34.25-.6,0-.23-.08-.41-.25-.54-.16-.12-.38-.19-.65-.19h0Z"/>
    </g>
    <g>
      <path d="M120.13,72.93c0,.54-.06,1-.17,1.39-.11.38-.29.68-.54.88-.24.21-.57.31-.96.31-.56,0-.98-.23-1.25-.68-.27-.46-.4-1.09-.4-1.89,0-.54.05-1,.17-1.39.11-.38.29-.68.53-.88s.56-.3.96-.3c.56,0,.98.23,1.25.68s.41,1.08.41,1.89h0ZM117.43,72.93c0,.69.08,1.2.23,1.54s.42.51.8.51.64-.17.8-.51c.16-.34.24-.85.24-1.54s-.08-1.19-.24-1.53c-.16-.34-.43-.51-.8-.51s-.65.17-.8.51c-.16.34-.23.85-.23,1.53Z"/>
      <path d="M124.35,72.57c0,.36-.03.71-.09,1.06s-.18.66-.34.95c-.17.28-.4.51-.7.68-.3.17-.69.25-1.16.25-.09,0-.2,0-.33-.02s-.23-.03-.3-.05v-.52c.18.06.39.09.62.09.33,0,.6-.05.81-.16s.38-.25.51-.44c.13-.18.22-.4.27-.64.06-.25.09-.5.1-.77h-.04c-.11.16-.26.3-.45.41s-.44.17-.74.17c-.43,0-.78-.13-1.04-.4s-.4-.64-.4-1.12c0-.35.07-.65.2-.9s.32-.45.56-.58c.24-.13.52-.2.84-.2s.6.08.86.24c.26.16.46.4.61.73s.22.74.22,1.24v-.02ZM122.66,70.89c-.29,0-.53.1-.71.29s-.28.48-.28.88c0,.32.08.58.23.76.16.18.4.28.72.28.22,0,.42-.05.58-.14s.29-.21.38-.35.14-.28.14-.43c0-.2-.04-.4-.12-.59-.08-.2-.2-.36-.36-.49s-.36-.2-.59-.2h0Z"/>
    </g>
    <g>
      <path d="M88.88,72.93c0,.54-.06,1-.17,1.39s-.29.68-.54.88c-.24.21-.57.31-.96.31-.56,0-.98-.23-1.25-.68-.27-.46-.4-1.09-.4-1.89,0-.54.05-1,.17-1.39.11-.38.29-.67.53-.88.24-.2.56-.3.96-.3.56,0,.98.23,1.25.68s.41,1.08.41,1.89h0ZM86.18,72.93c0,.69.08,1.2.23,1.54.16.34.42.51.8.51s.64-.17.8-.51c.16-.34.24-.85.24-1.54s-.08-1.19-.24-1.53c-.16-.34-.43-.51-.8-.51s-.65.17-.8.51-.23.85-.23,1.53Z"/>
      <path d="M90.27,75.44l2.05-4.44h-2.7v-.56h3.35v.48l-2.03,4.52h-.68,0Z"/>
    </g>
    <g>
      <path d="M73.13,72.93c0,.54-.06,1-.17,1.39s-.29.68-.54.88c-.24.21-.57.31-.96.31-.56,0-.98-.23-1.25-.68-.27-.46-.4-1.09-.4-1.89,0-.54.05-1,.17-1.39.11-.38.29-.67.53-.88.24-.2.56-.3.96-.3.56,0,.98.23,1.25.68s.41,1.08.41,1.89h0ZM70.43,72.93c0,.69.08,1.2.23,1.54.16.34.42.51.8.51s.64-.17.8-.51c.16-.34.24-.85.24-1.54s-.08-1.19-.24-1.53c-.16-.34-.43-.51-.8-.51s-.65.17-.8.51-.23.85-.23,1.53Z"/>
      <path d="M74.15,73.3c0-.36.03-.71.09-1.06s.18-.66.34-.95c.17-.28.4-.51.7-.68.3-.17.68-.25,1.16-.25.1,0,.21,0,.33.01.12,0,.22.03.29.05v.52c-.08-.03-.18-.05-.29-.06-.11-.01-.21-.02-.31-.02-.32,0-.59.05-.81.16s-.38.25-.51.44c-.12.19-.21.4-.27.64s-.09.5-.11.78h.04c.11-.16.26-.3.45-.42s.44-.17.73-.17c.43,0,.78.13,1.05.4.27.26.4.64.4,1.12,0,.52-.14.93-.43,1.23s-.67.45-1.16.45c-.32,0-.6-.08-.86-.24-.26-.16-.46-.4-.61-.73s-.23-.74-.23-1.24v.02ZM75.85,74.99c.29,0,.53-.09.71-.28s.27-.48.27-.88c0-.32-.08-.57-.24-.76s-.4-.28-.72-.28c-.22,0-.41.05-.57.14-.16.09-.29.21-.38.35s-.14.29-.14.43c0,.2.04.4.12.6s.2.36.36.49.36.19.59.19Z"/>
    </g>
    <g>
      <path d="M57.56,72.93c0,.54-.06,1-.17,1.39s-.29.68-.54.88c-.24.21-.57.31-.96.31-.56,0-.98-.23-1.25-.68-.27-.46-.4-1.09-.4-1.89,0-.54.05-1,.17-1.39.11-.38.29-.67.53-.88.24-.2.56-.3.96-.3.56,0,.98.23,1.25.68s.41,1.08.41,1.89h0ZM54.85,72.93c0,.69.08,1.2.23,1.54.16.34.42.51.8.51s.64-.17.8-.51c.16-.34.24-.85.24-1.54s-.08-1.19-.24-1.53-.43-.51-.8-.51-.65.17-.8.51-.23.85-.23,1.53Z"/>
      <path d="M60.03,72.37c.51,0,.92.13,1.22.38.31.26.46.62.46,1.08,0,.52-.17.93-.49,1.22-.33.3-.79.44-1.38.44-.26,0-.5-.02-.73-.07-.22-.05-.41-.11-.57-.2v-.58c.17.1.37.18.61.24s.47.09.69.09c.37,0,.67-.09.89-.26.23-.17.34-.45.34-.82,0-.33-.1-.58-.3-.75s-.52-.26-.95-.26c-.13,0-.28.01-.45.03-.17.02-.3.05-.41.07l-.31-.2.19-2.36h2.51v.56h-1.98l-.12,1.45c.08-.01.19-.03.32-.05.14-.02.29-.03.45-.03v.02Z"/>
    </g>
    <g>
      <path d="M41.72,72.93c0,.54-.06,1-.17,1.39s-.29.68-.54.88c-.24.21-.57.31-.96.31-.56,0-.98-.23-1.25-.68-.27-.46-.4-1.09-.4-1.89,0-.54.05-1,.17-1.39.11-.38.29-.67.53-.88.24-.2.56-.3.96-.3.56,0,.98.23,1.25.68s.41,1.08.41,1.89h0ZM39.01,72.93c0,.69.08,1.2.23,1.54.16.34.42.51.8.51s.64-.17.8-.51c.16-.34.24-.85.24-1.54s-.08-1.19-.24-1.53-.43-.51-.8-.51-.65.17-.8.51-.23.85-.23,1.53Z"/>
      <path d="M46.25,74.3h-.73v1.13h-.59v-1.13h-2.39v-.53l2.35-3.37h.64v3.34h.73v.55h0ZM44.92,73.75v-1.58c0-.24,0-.45,0-.62,0-.17,0-.33.02-.49h-.03c-.04.09-.08.18-.14.29-.06.1-.11.19-.16.26l-1.5,2.13h1.8Z"/>
    </g>
    <g>
      <path d="M134.63,75.44h-.6v-3.97c0-.12,0-.25.02-.38-.08.07-.14.14-.21.19-.06.05-.14.12-.23.2l-.53.43-.32-.41,1.35-1.05h.51v5h.01Z"/>
      <path d="M139.67,72.93c0,.54-.06,1-.17,1.39-.11.38-.29.68-.54.88-.24.21-.57.31-.96.31-.56,0-.98-.23-1.25-.68-.27-.46-.4-1.09-.4-1.89,0-.54.05-1,.17-1.39.11-.38.29-.68.53-.88s.56-.3.96-.3c.56,0,.98.23,1.25.68s.41,1.08.41,1.89h0ZM136.97,72.93c0,.69.08,1.2.23,1.54s.42.51.8.51.64-.17.8-.51c.16-.34.24-.85.24-1.54s-.08-1.19-.24-1.53-.43-.51-.8-.51-.65.17-.8.51c-.16.34-.23.85-.23,1.53Z"/>
    </g>
    <g>
      <path d="M151.01,75.44h-.6v-3.97c0-.12,0-.25.02-.38-.08.07-.14.14-.21.19-.06.05-.14.12-.23.2l-.53.43-.32-.41,1.35-1.05h.51v5h.01Z"/>
      <path d="M154.6,75.44h-.6v-3.97c0-.12,0-.25.02-.38-.08.07-.14.14-.21.19-.06.05-.14.12-.23.2l-.53.43-.32-.41,1.35-1.05h.51v5h.01Z"/>
    </g>
    <g>
      <path d="M166.01,75.44h-.6v-3.97c0-.12,0-.25.02-.38-.08.07-.14.14-.21.19-.06.05-.14.12-.23.2l-.53.43-.32-.41,1.35-1.05h.51v5h.01Z"/>
      <path d="M170.89,75.44h-3.3v-.51l1.31-1.32c.25-.25.46-.48.63-.67s.31-.39.4-.57c.09-.19.13-.39.13-.62,0-.28-.08-.48-.25-.63-.16-.14-.38-.21-.64-.21s-.46.04-.64.13c-.18.08-.37.2-.56.35l-.33-.41c.2-.16.42-.3.68-.42.25-.11.54-.17.86-.17.47,0,.84.12,1.11.36s.41.56.41.97c0,.26-.05.51-.16.73-.11.23-.26.46-.45.68s-.42.46-.67.71l-1.04,1.03v.03h2.53v.56l-.02-.02Z"/>
    </g>
    <g>
      <path d="M181.67,75.44h-.6v-3.97c0-.12,0-.25.02-.38-.08.07-.14.14-.21.19-.06.05-.14.12-.23.2l-.53.43-.32-.41,1.35-1.05h.51v5h.01Z"/>
      <path d="M186.38,71.61c0,.34-.09.6-.28.8-.19.2-.44.33-.75.4v.03c.4.05.69.17.89.38s.3.47.3.8c0,.29-.07.55-.2.78-.14.22-.34.4-.63.52s-.65.19-1.09.19c-.26,0-.5-.02-.73-.06s-.44-.11-.64-.21v-.57c.21.11.44.19.68.24.24.06.48.08.7.08.45,0,.77-.09.97-.26.2-.18.3-.42.3-.72s-.12-.54-.37-.68-.59-.21-1.03-.21h-.48v-.53h.49c.41,0,.72-.09.93-.26.21-.17.32-.4.32-.69,0-.24-.08-.43-.25-.56-.16-.13-.38-.2-.67-.2s-.5.04-.69.12-.38.18-.57.3l-.31-.42c.18-.14.4-.26.66-.36s.56-.15.9-.15c.52,0,.91.12,1.17.35.25.23.38.53.38.89h0Z"/>
    </g>
    <g>
      <path d="M197.16,75.44h-.6v-3.97c0-.12,0-.25.02-.38-.08.07-.14.14-.21.19-.06.05-.14.12-.23.2l-.53.43-.32-.41,1.35-1.05h.51v5h.01Z"/>
      <path d="M202.35,74.3h-.73v1.13h-.59v-1.13h-2.39v-.53l2.35-3.37h.64v3.34h.73v.55h-.01ZM201.03,73.75v-1.58c0-.24,0-.45,0-.62,0-.17,0-.33.02-.49h-.03c-.04.09-.08.18-.14.29-.06.1-.11.19-.16.26l-1.5,2.13h1.8Z"/>
    </g>
    <g>
      <path d="M212.96,75.44h-.6v-3.97c0-.12,0-.25.02-.38-.08.07-.14.14-.21.19-.06.05-.14.12-.23.2l-.53.43-.32-.41,1.35-1.05h.51v5h.01Z"/>
      <path d="M216.18,72.37c.51,0,.92.13,1.22.38s.46.62.46,1.08c0,.52-.17.92-.49,1.22-.33.3-.79.44-1.38.44-.26,0-.5-.02-.73-.07-.22-.05-.41-.11-.57-.2v-.58c.17.1.37.18.61.24s.47.09.69.09c.37,0,.67-.09.89-.26.23-.18.34-.45.34-.82,0-.33-.1-.58-.3-.75s-.52-.26-.95-.26c-.13,0-.28.01-.45.04s-.3.05-.41.07l-.31-.2.19-2.36h2.51v.56h-1.98l-.12,1.45c.08-.01.19-.03.32-.05.14-.02.29-.03.45-.03h0Z"/>
    </g>
    <g>
      <path d="M228.55,75.44h-.6v-3.97c0-.12,0-.25.02-.38-.08.07-.14.14-.21.19-.06.05-.14.12-.23.2l-.53.43-.32-.41,1.35-1.05h.51v5h.01Z"/>
      <path d="M230.27,73.3c0-.36.03-.71.09-1.06s.18-.66.34-.95c.17-.28.4-.51.7-.67.3-.17.68-.25,1.16-.25.1,0,.21,0,.33.01.12,0,.22.03.29.05v.53c-.08-.03-.18-.05-.29-.06-.11-.01-.21-.02-.31-.02-.32,0-.59.05-.81.16s-.38.25-.51.44c-.12.19-.21.4-.27.64s-.09.5-.11.78h.04c.11-.16.26-.3.45-.42s.44-.17.73-.17c.43,0,.78.13,1.05.4.27.26.4.64.4,1.12,0,.52-.14.93-.43,1.23s-.67.45-1.16.45c-.32,0-.6-.08-.86-.24-.26-.16-.46-.4-.61-.73s-.23-.74-.23-1.24h.01ZM231.96,74.99c.29,0,.53-.09.71-.28.18-.19.27-.48.27-.88,0-.32-.08-.57-.24-.76s-.4-.28-.72-.28c-.22,0-.41.04-.57.14-.16.09-.29.21-.38.35s-.14.29-.14.43c0,.2.04.4.12.6s.2.36.36.49.36.19.59.19h0Z"/>
    </g>
    <g>
      <path d="M244.25,75.45h-.6v-3.97c0-.12,0-.25.02-.38-.08.08-.14.14-.21.19-.06.05-.14.12-.23.2l-.53.43-.32-.41,1.35-1.05h.51v5h.01Z"/>
      <path d="M246.45,75.45l2.05-4.44h-2.7v-.56h3.35v.48l-2.03,4.52h-.68,0Z"/>
    </g>
    <g>
      <path d="M259.85,75.44h-.6v-3.97c0-.12.01-.25.02-.38-.08.07-.14.14-.21.19-.06.05-.14.12-.23.2l-.53.43-.32-.41,1.35-1.05h.51v5h.01Z"/>
      <path d="M263.19,70.37c.44,0,.8.1,1.08.31s.42.5.42.89c0,.2-.04.38-.13.53s-.2.28-.35.4-.3.22-.48.3c.21.1.39.21.56.34s.3.26.4.43c.1.16.15.36.15.59,0,.42-.15.75-.45,1-.3.24-.7.37-1.19.37-.54,0-.96-.12-1.24-.35s-.43-.57-.43-.99c0-.22.05-.42.14-.59s.22-.32.38-.44.33-.22.51-.31c-.25-.14-.46-.31-.62-.51s-.25-.45-.25-.76c0-.25.07-.47.2-.64.13-.18.31-.31.53-.41.22-.09.48-.14.76-.14v-.02ZM262.14,74.17c0,.24.09.44.26.61s.44.24.8.24c.34,0,.6-.08.78-.24s.27-.37.27-.63c0-.24-.1-.44-.29-.61s-.45-.3-.76-.42l-.11-.04c-.31.13-.54.29-.7.46s-.24.38-.24.64h0ZM263.18,70.86c-.26,0-.47.06-.64.18-.16.12-.24.3-.24.54,0,.17.04.32.12.43.08.12.19.22.33.3.14.08.29.16.46.23.24-.1.45-.23.61-.37.17-.14.25-.34.25-.59,0-.23-.08-.41-.25-.54-.16-.12-.38-.18-.65-.18h.01Z"/>
    </g>
    <g>
      <path d="M275.54,75.43h-.6v-3.97c0-.12.01-.25.02-.38-.08.08-.14.14-.21.19-.06.05-.14.12-.23.2l-.53.43-.32-.41,1.35-1.05h.51v5h.01Z"/>
      <path d="M280.46,72.57c0,.36-.03.71-.09,1.06s-.18.66-.34.95c-.17.28-.4.51-.7.67-.3.17-.69.25-1.16.25-.09,0-.2,0-.33-.02-.13-.01-.23-.03-.3-.05v-.53c.18.06.39.09.62.09.33,0,.6-.05.81-.16s.38-.25.51-.44c.13-.18.22-.4.27-.64s.09-.5.1-.77h-.04c-.11.16-.26.29-.45.41s-.44.17-.74.17c-.43,0-.78-.13-1.04-.4s-.4-.64-.4-1.12c0-.35.07-.65.2-.9s.32-.45.56-.58.52-.2.84-.2.6.08.86.24c.26.16.46.4.61.73s.22.74.22,1.24h0ZM278.77,70.88c-.29,0-.53.1-.71.29s-.28.48-.28.88c0,.32.08.58.23.76s.4.28.72.28c.22,0,.42-.04.58-.14.16-.09.29-.21.38-.35s.14-.29.14-.43c0-.2-.04-.4-.12-.59-.08-.2-.2-.36-.36-.49-.16-.13-.36-.2-.59-.2h0Z"/>
    </g>
    <g>
      <path d="M292.29,75.44h-3.3v-.51l1.31-1.32c.25-.25.46-.48.63-.67.17-.2.31-.39.4-.57s.13-.39.13-.62c0-.28-.08-.48-.25-.63-.16-.14-.38-.21-.64-.21s-.46.04-.64.13c-.18.08-.37.2-.56.35l-.33-.41c.2-.16.42-.3.68-.42.25-.11.54-.17.86-.17.47,0,.84.12,1.11.36s.41.56.41.97c0,.26-.05.51-.16.74-.11.23-.26.46-.45.68s-.42.46-.67.71l-1.04,1.03v.03h2.53v.56l-.02-.03Z"/>
      <path d="M296.44,72.93c0,.54-.06,1-.17,1.39s-.29.68-.54.88c-.24.21-.57.31-.96.31-.56,0-.98-.23-1.25-.68-.27-.46-.4-1.09-.4-1.89,0-.54.05-1,.17-1.39.11-.38.29-.67.53-.88.24-.2.56-.3.96-.3.56,0,.98.23,1.25.68s.41,1.08.41,1.89h0ZM293.74,72.93c0,.69.08,1.2.23,1.54.16.34.42.51.8.51s.64-.17.8-.51c.16-.34.24-.85.24-1.54s-.08-1.19-.24-1.53-.43-.51-.8-.51-.65.17-.8.51-.23.85-.23,1.53Z"/>
    </g>
    <g>
      <path d="M308.59,75.44h-3.3v-.51l1.31-1.32c.25-.25.46-.48.63-.67s.31-.39.4-.57c.09-.19.13-.39.13-.62,0-.28-.08-.48-.25-.63-.16-.14-.38-.21-.64-.21s-.46.04-.64.13c-.18.08-.37.2-.56.35l-.33-.41c.2-.16.42-.3.68-.42.25-.11.54-.17.86-.17.47,0,.84.12,1.11.36s.41.56.41.97c0,.26-.05.51-.16.73-.11.23-.26.46-.45.68s-.42.46-.67.71l-1.04,1.03v.03h2.53v.56l-.02-.02Z"/>
      <path d="M311.46,75.44h-.6v-3.97c0-.12.01-.25.02-.38-.08.07-.14.14-.21.19-.06.05-.14.12-.23.2l-.53.43-.32-.41,1.35-1.05h.51v5h.01Z"/>
    </g>
    <g>
      <path d="M323.55,75.44h-3.3v-.51l1.31-1.32c.25-.25.46-.48.63-.67s.31-.39.4-.57c.09-.19.13-.39.13-.62,0-.28-.08-.48-.25-.63-.16-.14-.38-.21-.64-.21s-.46.04-.64.13c-.18.08-.37.2-.56.35l-.33-.41c.2-.16.42-.3.68-.42.25-.11.54-.17.86-.17.47,0,.84.12,1.11.36s.41.56.41.97c0,.26-.05.51-.16.73-.11.23-.26.46-.45.68s-.42.46-.67.71l-1.04,1.03v.03h2.53v.56l-.02-.02Z"/>
      <path d="M327.8,75.44h-3.3v-.51l1.31-1.32c.25-.25.46-.48.63-.67s.31-.39.4-.57c.09-.19.13-.39.13-.62,0-.28-.08-.48-.25-.63-.16-.14-.38-.21-.64-.21s-.46.04-.64.13c-.18.08-.37.2-.56.35l-.33-.41c.2-.16.42-.3.68-.42.25-.11.54-.17.86-.17.47,0,.84.12,1.11.36s.41.56.41.97c0,.26-.05.51-.16.73-.11.23-.26.46-.45.68s-.42.46-.67.71l-1.04,1.03v.03h2.53v.56l-.02-.02Z"/>
    </g>
    <g>
      <path d="M339.2,75.44h-3.3v-.51l1.31-1.32c.25-.25.46-.48.63-.67s.31-.39.4-.57c.09-.19.13-.39.13-.62,0-.28-.08-.48-.25-.63-.16-.14-.38-.21-.64-.21s-.46.04-.64.13c-.18.08-.37.2-.56.35l-.33-.41c.2-.16.42-.3.68-.42.25-.11.54-.17.86-.17.47,0,.84.12,1.11.36s.41.56.41.97c0,.26-.05.51-.16.73-.11.23-.26.46-.45.68s-.42.46-.67.71l-1.04,1.03v.03h2.53v.56l-.02-.02Z"/>
      <path d="M343.27,71.61c0,.34-.09.6-.28.8-.19.2-.44.33-.75.4v.03c.4.05.69.17.89.38s.3.47.3.8c0,.29-.07.55-.2.78-.14.22-.34.4-.63.52s-.65.19-1.09.19c-.26,0-.5-.02-.73-.06s-.44-.11-.64-.21v-.57c.21.11.44.19.68.24.24.06.48.08.7.08.45,0,.77-.09.97-.26.2-.18.3-.42.3-.72s-.12-.54-.37-.68-.59-.21-1.03-.21h-.48v-.53h.49c.41,0,.72-.09.93-.26.21-.17.32-.4.32-.69,0-.24-.08-.43-.25-.56-.16-.13-.38-.2-.67-.2s-.5.04-.69.12-.38.18-.57.3l-.31-.42c.18-.14.4-.26.66-.36s.56-.15.9-.15c.52,0,.91.12,1.17.35.25.23.38.53.38.89h0Z"/>
    </g>
    <g>
      <path d="M354.87,75.44h-3.3v-.51l1.31-1.32c.25-.25.46-.48.63-.67s.31-.39.4-.57c.09-.19.13-.39.13-.62,0-.28-.08-.48-.25-.63-.16-.14-.38-.21-.64-.21s-.46.04-.64.13c-.18.08-.37.2-.56.35l-.33-.41c.2-.16.42-.3.68-.42.25-.11.54-.17.86-.17.47,0,.84.12,1.11.36s.41.56.41.97c0,.26-.05.51-.16.73-.11.23-.26.46-.45.68s-.42.46-.67.71l-1.04,1.03v.03h2.53v.56l-.02-.02Z"/>
      <path d="M359.2,74.3h-.73v1.13h-.59v-1.13h-2.39v-.53l2.35-3.37h.64v3.34h.73v.55h-.01ZM357.88,73.75v-1.58c0-.24,0-.45.01-.62,0-.17.01-.33.02-.49h-.03c-.04.09-.08.18-.14.29-.06.1-.11.19-.16.26l-1.5,2.13h1.8Z"/>
    </g>
    <g>
      <path d="M370.45,75.44h-3.3v-.51l1.31-1.32c.25-.25.46-.48.63-.67s.31-.39.4-.57c.09-.19.13-.39.13-.62,0-.28-.08-.48-.25-.63-.16-.14-.38-.21-.64-.21s-.46.04-.64.13c-.18.08-.37.2-.56.35l-.33-.41c.2-.16.42-.3.68-.42.25-.11.54-.17.86-.17.47,0,.84.12,1.11.36s.41.56.41.97c0,.26-.05.51-.16.73-.11.23-.26.46-.45.68s-.42.46-.67.71l-1.04,1.03v.03h2.53v.56l-.02-.02Z"/>
      <path d="M372.94,72.37c.51,0,.92.13,1.22.38s.46.62.46,1.08c0,.52-.17.92-.49,1.22-.33.3-.79.44-1.38.44-.26,0-.5-.02-.73-.07-.22-.05-.41-.11-.57-.2v-.58c.17.1.37.18.61.24s.47.09.69.09c.37,0,.67-.09.89-.26.23-.18.34-.45.34-.82,0-.33-.1-.58-.3-.75-.2-.17-.52-.26-.95-.26-.13,0-.28.01-.45.04s-.3.05-.41.07l-.31-.2.19-2.36h2.51v.56h-1.98l-.12,1.45c.08-.01.19-.03.32-.05.14-.02.29-.03.45-.03h.01Z"/>
    </g>
    <g>
      <path d="M26.28,72.93c0,.54-.06,1-.17,1.39s-.29.68-.54.88c-.24.21-.57.31-.96.31-.56,0-.98-.23-1.25-.68-.27-.46-.4-1.09-.4-1.89,0-.54.05-1,.17-1.39.11-.38.29-.67.53-.88.24-.2.56-.3.96-.3.56,0,.98.23,1.25.68s.41,1.08.41,1.89h0ZM23.58,72.93c0,.69.08,1.2.23,1.54.16.34.42.51.8.51s.64-.17.8-.51c.16-.34.24-.85.24-1.54s-.08-1.19-.24-1.53-.43-.51-.8-.51-.65.17-.8.51-.23.85-.23,1.53Z"/>
      <path d="M30.23,71.61c0,.34-.09.6-.28.8-.19.2-.44.33-.75.4v.03c.4.05.69.17.89.38.2.21.3.47.3.81,0,.29-.07.55-.2.78-.14.22-.34.4-.63.53s-.65.19-1.09.19c-.26,0-.5-.02-.73-.06-.22-.04-.44-.11-.64-.21v-.57c.21.11.44.19.68.25s.48.08.7.08c.45,0,.77-.09.97-.26s.3-.42.3-.72-.12-.54-.37-.67-.59-.21-1.03-.21h-.48v-.52h.49c.41,0,.72-.09.93-.26.21-.17.32-.4.32-.69,0-.24-.08-.43-.25-.56-.16-.13-.38-.2-.67-.2s-.5.04-.69.12-.38.18-.57.3l-.31-.42c.18-.14.4-.26.66-.36s.56-.15.9-.15c.52,0,.91.12,1.17.35.25.23.38.53.38.89v-.05Z"/>
    </g>
    <g>
      <g>
        <line class="st1" x1="55.69" y1="86.96" x2="64.2" y2="86.96"/>
        <g>
          <path d="M71.15,89.82h-3.62v-.38l1.64-1.7c.27-.28.5-.54.69-.76s.33-.45.42-.67c.1-.22.14-.47.14-.75,0-.36-.1-.63-.31-.83-.21-.19-.49-.29-.84-.29-.26,0-.5.05-.72.14s-.45.22-.66.39l-.25-.32c.23-.19.49-.34.77-.45s.57-.16.86-.16c.49,0,.88.14,1.18.41.29.27.44.64.44,1.1,0,.31-.05.59-.16.85s-.26.51-.46.75c-.2.25-.44.51-.72.78l-1.43,1.46v.02h3.03v.42h0Z"/>
          <path d="M76.01,86.95c0,.95-.15,1.69-.44,2.19-.3.51-.76.76-1.4.76s-1.06-.25-1.37-.75c-.31-.5-.46-1.24-.46-2.2,0-.58.06-1.09.18-1.53s.31-.78.58-1.03c.27-.25.63-.37,1.08-.37s.79.12,1.06.36.47.58.59,1.02c.12.44.18.96.18,1.55ZM72.79,86.95c0,.86.11,1.5.33,1.92s.57.63,1.04.63.84-.21,1.05-.63.32-1.06.32-1.92c0-.53-.04-.98-.12-1.36s-.22-.67-.42-.87c-.2-.2-.47-.3-.82-.3s-.62.1-.82.3c-.2.2-.35.49-.43.87-.09.38-.13.83-.13,1.35h0Z"/>
          <path d="M77.39,87.87v-.42h1.94v.42h-1.94Z"/>
          <path d="M80.25,85.56h.49l1.02,2.65c.08.24.16.44.22.63.06.18.12.35.15.49h.02c.04-.12.09-.28.15-.47.06-.19.14-.41.22-.64l.99-2.66h.49l-1.92,5.02c-.14.37-.31.66-.51.87s-.46.31-.8.31c-.11,0-.2,0-.28-.02s-.16-.04-.23-.06v-.38c.14.05.29.07.46.07.22,0,.41-.07.55-.21s.27-.35.37-.63l.28-.72-1.67-4.24h0Z"/>
          <path d="M86.84,85.48c.36,0,.67.08.91.25.25.17.43.4.55.69s.18.63.18,1.01v.32h-3.04c0,.56.13.99.39,1.29s.64.45,1.13.45c.27,0,.5-.02.7-.06s.41-.12.65-.22v.42c-.21.1-.42.17-.63.21s-.45.06-.73.06c-.63,0-1.12-.2-1.46-.58-.34-.39-.51-.92-.51-1.59,0-.43.07-.82.22-1.16s.36-.6.64-.8c.28-.19.61-.29,1.01-.29h-.01ZM86.83,85.87c-.39,0-.71.13-.95.39s-.39.63-.43,1.11h2.55c0-.45-.09-.81-.28-1.09s-.49-.42-.89-.42h0Z"/>
          <path d="M91.43,85.49c.48,0,.84.12,1.07.35.23.24.35.61.35,1.11v2.86h-.34l-.09-.72h-.02c-.15.24-.34.43-.56.58s-.53.22-.93.22-.73-.1-.96-.3c-.24-.2-.36-.5-.36-.89,0-.42.17-.74.52-.97.34-.22.85-.35,1.52-.38l.78-.04v-.3c0-.42-.08-.72-.25-.89s-.41-.26-.74-.26c-.22,0-.43.03-.63.08-.2.06-.41.14-.61.24l-.14-.37c.2-.1.42-.18.66-.25.24-.06.49-.1.74-.1v.03ZM92.41,87.67l-.72.03c-.54.02-.95.11-1.22.28-.27.16-.4.41-.4.73,0,.26.08.46.25.6s.39.2.68.2c.44,0,.79-.12,1.03-.38.24-.25.37-.6.38-1.06v-.41h0Z"/>
          <path d="M96.29,85.49c.22,0,.42.02.58.07l-.06.42c-.08-.02-.17-.04-.26-.05-.09,0-.18-.02-.27-.02-.39,0-.71.14-.93.43-.23.29-.34.67-.34,1.14v2.34h-.46v-4.26h.38l.05.8h.02c.11-.24.27-.45.48-.62.22-.17.48-.26.8-.26h0Z"/>
        </g>
      </g>
      <g>
        <line class="st3" x1=".5" y1="86.96" x2="9" y2="86.96"/>
        <g>
          <path d="M14.27,89.82h-.45v-4.81c0-.15,0-.29.02-.42-.08.08-.14.14-.21.19-.06.05-.15.12-.26.21l-.8.61-.24-.32,1.55-1.17h.38v5.71h0Z"/>
          <path d="M20.16,86.94c0,.95-.15,1.69-.44,2.19-.3.51-.76.76-1.4.76s-1.06-.25-1.37-.75c-.31-.5-.46-1.24-.46-2.2,0-.58.06-1.09.18-1.53s.31-.78.58-1.03.63-.37,1.08-.37.79.12,1.06.36c.27.24.47.58.59,1.02.12.44.18.96.18,1.55ZM16.95,86.94c0,.86.11,1.5.33,1.92s.57.63,1.04.63.84-.21,1.05-.63.32-1.06.32-1.92c0-.53-.04-.98-.12-1.36s-.22-.67-.42-.87c-.2-.2-.47-.3-.82-.3s-.62.1-.82.3c-.2.2-.35.49-.43.87-.09.38-.13.83-.13,1.35h0Z"/>
          <path d="M21.55,87.86v-.42h1.94v.42h-1.94Z"/>
          <path d="M24.4,85.56h.49l1.02,2.65c.08.24.16.44.22.63.06.18.12.35.15.49h.02c.04-.12.09-.28.15-.47s.14-.41.22-.64l.99-2.66h.49l-1.92,5.02c-.14.37-.31.66-.51.87s-.46.31-.8.31c-.11,0-.2,0-.28-.02s-.16-.04-.23-.06v-.38c.14.05.29.07.46.07.22,0,.41-.07.55-.21s.27-.35.37-.63l.28-.72-1.67-4.24h0Z"/>
          <path d="M30.99,85.48c.36,0,.67.08.91.25.25.17.43.4.55.69.12.29.18.63.18,1.01v.32h-3.04c0,.56.13.99.39,1.29s.64.45,1.13.45c.27,0,.5-.02.7-.06.2-.04.41-.12.65-.22v.42c-.21.1-.42.17-.63.21s-.45.06-.73.06c-.63,0-1.12-.2-1.46-.58-.34-.39-.51-.92-.51-1.59,0-.43.07-.82.22-1.16s.36-.6.64-.8c.28-.19.61-.29,1.01-.29h0ZM30.99,85.86c-.39,0-.71.13-.95.39-.24.26-.39.63-.43,1.11h2.55c0-.45-.09-.81-.28-1.09s-.49-.42-.89-.42h0Z"/>
          <path d="M35.59,85.49c.48,0,.84.12,1.07.35.23.24.35.61.35,1.11v2.86h-.34l-.09-.72h-.02c-.15.24-.34.43-.56.58s-.53.22-.93.22-.73-.1-.96-.3c-.24-.2-.36-.5-.36-.89,0-.42.17-.74.52-.97.34-.22.85-.35,1.52-.38l.78-.04v-.3c0-.42-.08-.72-.25-.89s-.41-.26-.74-.26c-.22,0-.43.03-.63.08-.2.06-.41.14-.61.24l-.14-.37c.2-.1.42-.18.66-.25.24-.06.49-.1.74-.1v.03ZM36.57,87.67l-.72.03c-.54.02-.95.11-1.22.28-.27.16-.4.41-.4.73,0,.26.08.46.25.6s.39.2.68.2c.44,0,.79-.12,1.03-.38.24-.25.37-.6.38-1.06v-.41h0Z"/>
          <path d="M40.44,85.49c.22,0,.42.02.58.07l-.06.42c-.08-.02-.17-.04-.26-.05-.09,0-.18-.02-.27-.02-.39,0-.71.14-.93.43-.23.29-.34.67-.34,1.14v2.34h-.46v-4.26h.38l.05.8h.02c.11-.24.27-.45.48-.62.22-.17.48-.26.8-.26h0Z"/>
        </g>
      </g>
    </g>
  </g>
  <g id="Chart">
    <g>
      <g>
        <line class="st1" x1="42.33" y1="8.49" x2="26.69" y2="19.75"/>
        <line class="st1" x1="57.98" y1="11.79" x2="42.33" y2="8.49"/>
        <line class="st1" x1="73.63" y1="17.91" x2="57.98" y2="11.79"/>
        <line class="st1" x1="89.28" y1="13.19" x2="73.63" y2="17.91"/>
        <line class="st1" x1="104.93" y1="16.54" x2="89.28" y2="13.19"/>
        <line class="st1" x1="120.57" y1="27.06" x2="104.93" y2="16.54"/>
        <line class="st1" x1="136.22" y1="18.03" x2="120.57" y2="27.06"/>
        <line class="st1" x1="151.87" y1="22.4" x2="136.22" y2="18.03"/>
        <line class="st1" x1="167.52" y1="22.51" x2="151.87" y2="22.4"/>
        <line class="st1" x1="183.17" y1="23.41" x2="167.52" y2="22.51"/>
        <line class="st1" x1="198.81" y1="49.43" x2="183.17" y2="23.41"/>
        <line class="st1" x1="214.46" y1="45.06" x2="198.81" y2="49.43"/>
        <line class="st1" x1="230.11" y1="48.84" x2="214.46" y2="45.06"/>
        <line class="st1" x1="245.76" y1="47.47" x2="230.11" y2="48.84"/>
        <line class="st1" x1="261.4" y1="44.86" x2="245.76" y2="47.47"/>
        <line class="st1" x1="277.05" y1="44.86" x2="261.4" y2="44.86"/>
        <line class="st1" x1="292.7" y1="49.94" x2="277.05" y2="44.86"/>
        <line class="st1" x1="308.35" y1="43.1" x2="292.7" y2="49.94"/>
        <line class="st1" x1="324" y1="41.68" x2="308.35" y2="43.1"/>
        <line class="st1" x1="339.64" y1="39.18" x2="324" y2="41.68"/>
        <line class="st1" x1="355.29" y1="44.97" x2="339.64" y2="39.18"/>
        <line class="st1" x1="370.94" y1="45.6" x2="355.29" y2="44.97"/>
      </g>
      <g>
        <line class="st3" x1="42.33" y1="58.25" x2="26.69" y2="18.42"/>
        <line class="st3" x1="57.98" y1="50.47" x2="42.33" y2="58.25"/>
        <line class="st3" x1="73.63" y1="48.06" x2="57.98" y2="50.47"/>
        <line class="st3" x1="89.28" y1="41.68" x2="73.63" y2="48.06"/>
        <line class="st3" x1="104.93" y1="37.96" x2="89.28" y2="41.68"/>
        <line class="st3" x1="120.57" y1="49.61" x2="104.93" y2="37.96"/>
        <line class="st3" x1="136.22" y1="47.83" x2="120.57" y2="49.61"/>
        <line class="st3" x1="151.87" y1="39.6" x2="136.22" y2="47.83"/>
        <line class="st3" x1="167.52" y1="38.08" x2="151.87" y2="39.6"/>
        <line class="st3" x1="183.17" y1="28.43" x2="167.52" y2="38.08"/>
        <line class="st3" x1="198.81" y1="40.34" x2="183.17" y2="28.43"/>
        <line class="st3" x1="214.46" y1="39.57" x2="198.81" y2="40.34"/>
        <line class="st3" x1="230.11" y1="49.61" x2="214.46" y2="39.57"/>
        <line class="st3" x1="245.76" y1="53.17" x2="230.11" y2="49.61"/>
        <line class="st3" x1="261.4" y1="51.63" x2="245.76" y2="53.17"/>
        <line class="st3" x1="277.05" y1="40.01" x2="261.4" y2="51.63"/>
        <line class="st3" x1="292.7" y1="52.05" x2="277.05" y2="40.01"/>
        <line class="st3" x1="308.35" y1="46.55" x2="292.7" y2="52.05"/>
        <line class="st3" x1="324" y1="45.24" x2="308.35" y2="46.55"/>
        <line class="st3" x1="339.64" y1="49.55" x2="324" y2="45.24"/>
        <line class="st3" x1="355.29" y1="49.52" x2="339.64" y2="49.55"/>
        <line class="st3" x1="370.94" y1="51.54" x2="355.29" y2="49.52"/>
      </g>
    </g>
    <rect class="st0" x="322.2" y="26.67" width="7.82" height="2.4"/>
  </g>
  <g id="Figure">
    <g>
      <path class="st4" d="M25.38,15h-.6v-3.97c0-.12.01-.25.02-.38-.07.07-.14.14-.21.19s-.14.12-.23.2l-.53.43-.32-.41,1.35-1.05h.51v5h0Z"/>
      <path class="st4" d="M27.1,12.87c0-.36.03-.71.09-1.06s.18-.66.34-.95c.17-.28.4-.51.7-.68.3-.17.68-.25,1.15-.25.1,0,.21,0,.33,0,.12,0,.22.03.29.05v.52c-.08-.03-.18-.05-.29-.06s-.21-.02-.31-.02c-.32,0-.59.05-.81.16-.21.11-.38.25-.51.44s-.21.4-.27.64-.09.5-.1.78h.04c.11-.16.26-.3.45-.42.19-.11.44-.17.73-.17.43,0,.78.13,1.05.4s.4.64.4,1.12c0,.52-.14.93-.43,1.23s-.67.45-1.16.45c-.32,0-.6-.08-.86-.24s-.46-.4-.61-.73c-.15-.33-.23-.74-.23-1.24v.02ZM28.79,14.55c.29,0,.53-.09.71-.28s.27-.48.27-.88c0-.32-.08-.57-.24-.76s-.4-.28-.72-.28c-.22,0-.41.05-.57.14s-.29.21-.38.35c-.09.14-.14.29-.14.43,0,.2.04.4.12.6.08.2.2.36.36.49s.36.19.6.19h-.01Z"/>
    </g>
    <g>
      <path class="st5" d="M25.38,7.54h-.6v-3.97c0-.12.01-.25.02-.38-.07.07-.14.14-.21.19s-.14.12-.23.2l-.53.43-.32-.41,1.35-1.05h.51v5h0Z"/>
      <path class="st5" d="M27.1,5.4c0-.36.03-.71.09-1.06s.18-.66.34-.95c.17-.28.4-.51.7-.68.3-.17.68-.25,1.15-.25.1,0,.21,0,.33,0,.12,0,.22.03.29.05v.52c-.08-.03-.18-.05-.29-.06s-.21-.02-.31-.02c-.32,0-.59.05-.81.16-.21.11-.38.25-.51.44s-.21.4-.27.64-.09.5-.1.78h.04c.11-.16.26-.3.45-.42.19-.11.44-.17.73-.17.43,0,.78.13,1.05.4s.4.64.4,1.12c0,.52-.14.93-.43,1.23s-.67.45-1.16.45c-.32,0-.6-.08-.86-.24s-.46-.4-.61-.73c-.15-.33-.23-.74-.23-1.24v.02ZM28.79,7.09c.29,0,.53-.09.71-.28s.27-.48.27-.88c0-.32-.08-.57-.24-.76s-.4-.28-.72-.28c-.22,0-.41.05-.57.14s-.29.21-.38.35c-.09.14-.14.29-.14.43,0,.2.04.4.12.6.08.2.2.36.36.49s.36.19.6.19h-.01Z"/>
    </g>
    <g>
      <path class="st5" d="M103.45,46.49h-.6v-3.97c0-.12.01-.25.02-.38-.07.07-.14.14-.21.19s-.14.12-.23.2l-.53.43-.32-.41,1.35-1.05h.51v5h.01Z"/>
      <path class="st5" d="M108.49,43.99c0,.54-.06,1-.17,1.39-.11.38-.29.68-.54.88-.25.21-.57.31-.96.31-.56,0-.98-.23-1.25-.68-.27-.46-.4-1.09-.4-1.89,0-.54.06-1,.16-1.39.11-.38.29-.68.53-.88s.56-.3.96-.3c.56,0,.98.23,1.25.68s.41,1.08.41,1.89h0ZM105.79,43.99c0,.69.08,1.2.23,1.54.16.34.42.51.8.51s.64-.17.8-.51c.16-.34.24-.85.24-1.54s-.08-1.19-.24-1.53c-.16-.34-.43-.51-.8-.51s-.65.17-.8.51c-.16.34-.23.85-.23,1.53Z"/>
    </g>
    <path class="st5" d="M89.28,45.13c.44,0,.8.1,1.08.31s.42.5.42.89c0,.2-.04.38-.13.52-.09.15-.2.28-.35.4-.15.11-.3.22-.48.3.21.1.39.21.56.34.17.12.3.26.4.43.1.16.15.36.15.59,0,.42-.15.75-.45,1-.3.24-.7.37-1.19.37-.54,0-.96-.12-1.24-.35-.29-.24-.43-.57-.43-.99,0-.22.05-.42.14-.59.1-.17.22-.32.38-.44.16-.12.33-.22.51-.31-.25-.14-.46-.31-.62-.51-.17-.2-.25-.45-.25-.76,0-.25.07-.47.2-.64.13-.18.31-.31.53-.41.22-.09.48-.14.76-.14h.01ZM88.23,48.93c0,.24.09.44.26.61.17.16.44.24.8.24.34,0,.6-.08.78-.24.18-.16.27-.37.27-.63,0-.24-.1-.44-.29-.61-.19-.16-.45-.3-.76-.42l-.11-.04c-.31.14-.54.29-.7.46s-.24.38-.24.64h-.01ZM89.27,45.63c-.26,0-.47.06-.64.19-.16.12-.25.3-.25.54,0,.17.04.32.12.43s.19.22.33.3.29.16.46.23c.24-.1.45-.23.61-.37.17-.14.25-.34.25-.6,0-.23-.08-.41-.24-.54-.16-.12-.38-.19-.65-.19h0Z"/>
    <g>
      <path class="st4" d="M103.54,13.11h-.6v-3.97c0-.12.01-.25.02-.38-.07.07-.14.14-.21.19s-.14.12-.23.2l-.53.43-.32-.41,1.35-1.05h.51v5h.01Z"/>
      <path class="st4" d="M105.74,13.11l2.05-4.44h-2.69v-.56h3.35v.48l-2.03,4.52h-.68Z"/>
    </g>
    <g>
      <path class="st4" d="M87.85,10.25h-.6v-3.97c0-.12.01-.25.02-.38-.07.07-.14.14-.21.19s-.14.12-.23.2l-.53.43-.32-.41,1.35-1.05h.51v5h.01Z"/>
      <path class="st4" d="M91.19,5.19c.44,0,.8.1,1.08.31.28.21.42.5.42.89,0,.2-.04.38-.13.52-.09.15-.2.28-.35.4-.15.11-.3.22-.48.3.21.1.39.21.56.34.17.12.3.26.4.43.1.16.15.36.15.59,0,.42-.15.75-.45,1-.3.24-.7.37-1.19.37-.54,0-.96-.12-1.24-.35-.29-.24-.43-.57-.43-.99,0-.22.05-.42.14-.59.1-.17.22-.32.38-.44.16-.12.33-.22.51-.31-.25-.14-.46-.31-.62-.51-.17-.2-.25-.45-.25-.76,0-.25.07-.47.2-.64.13-.18.31-.31.53-.41.22-.09.48-.14.76-.14h.01ZM90.14,8.99c0,.24.09.44.26.61.17.16.44.24.8.24.34,0,.6-.08.78-.24s.27-.37.27-.63c0-.24-.1-.44-.29-.61-.19-.16-.45-.3-.76-.42l-.11-.04c-.31.14-.54.29-.7.46s-.24.38-.24.64h-.01ZM91.18,5.68c-.26,0-.47.06-.64.19-.16.12-.25.3-.25.54,0,.17.04.32.12.43s.19.22.33.3c.14.08.29.16.46.23.24-.1.45-.23.61-.37.17-.14.25-.34.25-.6,0-.23-.08-.41-.24-.54-.16-.12-.38-.19-.65-.19h0Z"/>
    </g>
    <path class="st5" d="M71.98,54.41c0-.36.03-.71.09-1.06s.18-.66.34-.95c.17-.28.4-.51.7-.68.3-.17.68-.25,1.15-.25.1,0,.21,0,.33.01.12,0,.22.03.29.05v.52c-.08-.03-.18-.05-.29-.06s-.21-.02-.31-.02c-.32,0-.59.05-.81.16-.21.11-.38.25-.51.44s-.21.4-.27.64-.09.5-.1.78h.04c.11-.16.26-.3.45-.42.19-.11.44-.17.73-.17.43,0,.78.13,1.05.4s.4.64.4,1.12c0,.52-.14.93-.43,1.23s-.67.45-1.16.45c-.32,0-.6-.08-.86-.24-.26-.16-.46-.4-.61-.73s-.23-.74-.23-1.24v.02ZM73.68,56.1c.29,0,.53-.09.71-.28s.27-.48.27-.88c0-.32-.08-.57-.24-.76-.16-.19-.4-.28-.72-.28-.22,0-.41.05-.57.14-.16.09-.29.21-.38.35s-.14.29-.14.43c0,.2.04.4.12.6s.2.36.36.49.36.19.6.19h-.01Z"/>
    <g>
      <path class="st4" d="M72.17,14.47h-.6v-3.97c0-.12.01-.25.02-.38-.07.07-.14.14-.21.19s-.14.12-.23.2l-.53.43-.32-.41,1.35-1.05h.51v5h.01Z"/>
      <path class="st4" d="M73.89,12.33c0-.36.03-.71.09-1.06s.18-.66.34-.95c.17-.28.4-.51.7-.68.3-.17.68-.25,1.15-.25.1,0,.21,0,.33,0,.12,0,.22.03.29.05v.52c-.08-.03-.18-.05-.29-.06s-.21-.02-.31-.02c-.32,0-.59.05-.81.16-.21.11-.38.25-.51.44s-.21.4-.27.64-.09.5-.1.78h.04c.11-.16.26-.3.45-.42.19-.11.44-.17.73-.17.43,0,.78.13,1.05.4s.4.64.4,1.12c0,.52-.14.93-.43,1.23s-.67.45-1.16.45c-.32,0-.6-.08-.86-.24s-.46-.4-.61-.73c-.15-.33-.23-.74-.23-1.24v.02ZM75.59,14.02c.29,0,.53-.09.71-.28s.27-.48.27-.88c0-.32-.08-.57-.24-.76-.16-.19-.4-.28-.72-.28-.22,0-.41.05-.57.14-.16.09-.29.21-.38.35s-.14.29-.14.43c0,.2.04.4.12.6.08.2.2.36.36.49s.36.19.6.19h-.01Z"/>
    </g>
    <path class="st5" d="M58.24,55.89c.51,0,.92.13,1.22.38.31.26.46.62.46,1.08,0,.52-.16.92-.49,1.22s-.79.44-1.38.44c-.26,0-.5-.02-.73-.07-.22-.05-.41-.11-.57-.2v-.58c.17.1.37.18.61.24s.47.09.69.09c.37,0,.67-.09.89-.26.23-.18.34-.45.34-.82,0-.33-.1-.58-.3-.75s-.52-.26-.95-.26c-.13,0-.28.01-.45.03-.17.02-.3.05-.41.07l-.31-.2.19-2.36h2.51v.56h-1.98l-.12,1.45c.08-.01.19-.03.32-.05s.28-.03.45-.03v.02Z"/>
    <g>
      <path class="st4" d="M56.56,8.38h-.6v-3.97c0-.12,0-.25.02-.38-.07.07-.14.14-.21.19s-.14.12-.23.2l-.53.43-.32-.41,1.35-1.05h.51v5h0Z"/>
      <path class="st4" d="M59.9,3.31c.44,0,.8.1,1.08.31.28.21.42.5.42.89,0,.2-.04.38-.13.52-.09.15-.2.28-.35.4-.15.11-.3.22-.48.3.21.1.39.21.56.34.17.12.3.26.4.43.1.16.15.36.15.59,0,.42-.15.75-.45,1-.3.24-.7.37-1.19.37-.54,0-.96-.12-1.24-.35-.29-.24-.43-.57-.43-.99,0-.22.05-.42.14-.59.1-.17.22-.32.38-.44s.33-.22.51-.31c-.25-.14-.46-.31-.62-.51-.17-.2-.25-.45-.25-.76,0-.25.07-.47.2-.64.13-.18.31-.31.53-.41.22-.09.48-.14.76-.14h0ZM58.85,7.11c0,.24.09.44.26.61.17.16.44.24.8.24.34,0,.6-.08.78-.24s.27-.37.27-.63c0-.24-.1-.44-.29-.61-.19-.16-.45-.3-.76-.42l-.11-.04c-.31.14-.54.29-.7.46s-.24.38-.24.64h0ZM59.89,3.81c-.26,0-.47.06-.64.19-.16.12-.25.3-.25.54,0,.17.04.32.12.43s.19.22.33.3c.14.08.29.16.46.23.24-.1.45-.23.61-.37.17-.14.25-.34.25-.6,0-.23-.08-.41-.24-.54-.16-.12-.38-.19-.65-.19h.01Z"/>
    </g>
    <path class="st5" d="M43.76,61.19c0,.34-.09.6-.28.8s-.44.33-.75.4v.03c.4.05.69.17.89.38s.3.47.3.8c0,.29-.07.55-.2.78-.14.22-.34.4-.63.52s-.65.19-1.09.19c-.26,0-.5-.02-.73-.06s-.44-.11-.64-.21v-.57c.21.11.44.19.68.24.24.06.48.08.7.08.45,0,.77-.09.97-.26.2-.18.3-.42.3-.72s-.12-.54-.37-.68c-.24-.14-.59-.21-1.03-.21h-.48v-.53h.49c.41,0,.72-.09.93-.26s.32-.4.32-.69c0-.24-.08-.43-.24-.56s-.39-.2-.67-.2-.5.04-.69.12-.38.18-.57.3l-.31-.42c.18-.14.4-.26.66-.36s.56-.15.9-.15c.52,0,.91.12,1.17.35s.38.53.38.89h-.01Z"/>
    <g>
      <path class="st4" d="M42.09,5.07h-3.3v-.51l1.31-1.32c.25-.25.46-.48.63-.67.18-.2.31-.39.4-.57.09-.19.13-.39.13-.62,0-.28-.08-.48-.25-.63-.16-.14-.38-.21-.64-.21s-.46.04-.64.13c-.18.08-.37.2-.56.35l-.33-.41c.2-.16.42-.3.68-.42s.54-.17.86-.17c.47,0,.84.12,1.11.36s.41.56.41.97c0,.26-.05.51-.16.73s-.26.46-.45.68c-.19.22-.42.46-.67.71l-1.04,1.03v.03h2.53v.56l-.02-.02Z"/>
      <path class="st4" d="M46.24,2.56c0,.54-.06,1-.17,1.39-.11.38-.29.68-.54.88-.25.21-.57.31-.96.31-.56,0-.98-.23-1.25-.68-.27-.46-.4-1.09-.4-1.89,0-.54.06-1,.16-1.39.11-.38.29-.68.53-.88s.56-.3.96-.3c.56,0,.98.23,1.25.68s.41,1.08.41,1.89h.01ZM43.54,2.56c0,.69.08,1.2.23,1.54.16.34.42.51.8.51s.64-.17.8-.51.24-.85.24-1.54-.08-1.19-.24-1.53-.43-.51-.8-.51-.65.17-.8.51c-.16.34-.23.85-.23,1.53Z"/>
    </g>
    <g>
      <path class="st4" d="M119.16,23.55h-.6v-3.97c0-.12.01-.25.02-.38-.08.07-.14.14-.21.19-.06.05-.14.12-.23.2l-.53.43-.32-.41,1.35-1.05h.51v5h.01Z"/>
      <path class="st4" d="M123.88,19.72c0,.34-.09.6-.28.8s-.44.33-.75.4v.03c.4.05.69.17.89.38.2.21.3.47.3.81,0,.29-.07.55-.2.78-.14.22-.34.4-.63.52s-.65.19-1.09.19c-.26,0-.5-.02-.73-.06-.22-.04-.44-.11-.64-.21v-.57c.21.11.44.19.68.24.24.06.48.08.7.08.45,0,.77-.09.97-.26.2-.18.3-.42.3-.72s-.12-.54-.37-.68-.59-.21-1.03-.21h-.48v-.52h.49c.41,0,.72-.09.93-.26s.32-.4.32-.69c0-.24-.08-.43-.25-.56-.16-.13-.38-.2-.67-.2s-.5.04-.69.12c-.19.08-.38.18-.57.3l-.31-.42c.18-.14.4-.26.66-.36s.56-.15.9-.15c.52,0,.91.12,1.17.35.25.23.38.53.38.89v-.02Z"/>
    </g>
    <path class="st5" d="M118.94,55.98c0-.36.03-.71.09-1.06s.18-.66.34-.95c.17-.28.4-.51.7-.68.3-.17.68-.25,1.16-.25.1,0,.21,0,.33.01.12,0,.22.03.29.05v.52c-.08-.03-.18-.05-.29-.06s-.21-.02-.31-.02c-.32,0-.59.05-.81.16s-.38.25-.51.44c-.12.19-.21.4-.27.64s-.09.5-.11.78h.04c.11-.16.26-.3.45-.42s.44-.17.73-.17c.43,0,.78.13,1.05.4.27.26.4.64.4,1.12,0,.52-.14.93-.43,1.23s-.67.45-1.16.45c-.32,0-.6-.08-.86-.24-.26-.16-.46-.4-.61-.73s-.23-.74-.23-1.24v.02ZM120.63,57.66c.29,0,.53-.09.71-.28s.27-.48.27-.88c0-.32-.08-.57-.24-.76-.16-.19-.4-.28-.72-.28-.22,0-.41.05-.57.14-.16.09-.29.21-.38.35s-.14.29-.14.43c0,.2.04.4.12.6s.2.36.36.49.36.19.59.19Z"/>
    <path class="st5" d="M134.58,54.19c0-.36.03-.71.09-1.06s.18-.66.34-.95c.17-.28.4-.51.7-.68s.68-.25,1.16-.25c.1,0,.21,0,.33.01.12,0,.22.03.29.05v.52c-.08-.03-.18-.05-.29-.06s-.21-.02-.31-.02c-.32,0-.59.05-.81.16s-.38.25-.51.44c-.12.19-.21.4-.27.64s-.09.5-.11.78h.04c.11-.16.26-.3.45-.42s.44-.17.73-.17c.43,0,.78.13,1.05.4.27.26.4.64.4,1.12,0,.52-.14.93-.43,1.23s-.67.45-1.16.45c-.32,0-.6-.08-.86-.24-.26-.16-.46-.4-.61-.73s-.23-.74-.23-1.24v.02ZM136.28,55.88c.29,0,.53-.09.71-.28s.27-.48.27-.88c0-.32-.08-.57-.24-.76s-.4-.28-.72-.28c-.22,0-.41.05-.57.14s-.29.21-.38.35c-.09.14-.14.29-.14.43,0,.2.04.4.12.6s.2.36.36.49.36.19.59.19h0Z"/>
    <path class="st5" d="M153.51,45.3c0,.36-.03.71-.09,1.06s-.18.66-.34.95c-.17.28-.4.51-.7.68s-.69.25-1.16.25c-.09,0-.2,0-.33-.02-.13-.01-.23-.03-.3-.05v-.52c.18.06.39.09.62.09.33,0,.6-.05.81-.16.21-.11.38-.25.51-.44.13-.18.22-.4.27-.64.06-.25.09-.5.1-.77h-.04c-.11.16-.26.3-.45.41s-.44.17-.74.17c-.43,0-.78-.13-1.04-.4s-.4-.64-.4-1.12c0-.35.07-.65.2-.9s.32-.45.56-.58c.24-.14.52-.2.84-.2s.6.08.86.24c.26.16.46.4.61.73.15.32.22.74.22,1.24v-.02ZM151.82,43.61c-.29,0-.53.1-.71.29-.18.19-.28.48-.28.88,0,.32.08.58.23.76.16.18.4.28.72.28.22,0,.42-.05.58-.14s.29-.21.38-.35c.09-.14.14-.28.14-.43,0-.2-.04-.4-.12-.59-.08-.2-.2-.36-.36-.49s-.36-.2-.59-.2h0Z"/>
    <g>
      <path class="st4" d="M134.77,14.61h-.6v-3.97c0-.12,0-.25.02-.38-.08.07-.14.14-.21.19-.06.05-.14.12-.23.2l-.53.43-.32-.41,1.35-1.05h.51v5h.01Z"/>
      <path class="st4" d="M136.49,12.48c0-.36.03-.71.09-1.06s.18-.66.34-.95c.17-.28.4-.51.7-.68.3-.17.68-.25,1.16-.25.1,0,.21,0,.33,0,.12,0,.22.03.29.05v.52c-.08-.03-.18-.05-.29-.06s-.21-.02-.31-.02c-.32,0-.59.05-.81.16s-.38.25-.51.44c-.12.19-.21.4-.27.64-.06.24-.09.5-.11.78h.04c.11-.16.26-.3.45-.42s.44-.17.73-.17c.43,0,.78.13,1.05.4.27.26.4.64.4,1.12,0,.52-.14.93-.43,1.23s-.67.45-1.16.45c-.32,0-.6-.08-.86-.24s-.46-.4-.61-.73-.23-.74-.23-1.24v.02ZM138.19,14.17c.29,0,.53-.09.71-.28s.27-.48.27-.88c0-.32-.08-.57-.24-.76s-.4-.28-.72-.28c-.22,0-.41.05-.57.14s-.29.21-.38.35c-.09.14-.14.29-.14.43,0,.2.04.4.12.6s.2.36.36.49.36.19.59.19h0Z"/>
    </g>
    <g>
      <path class="st4" d="M150.36,18.95h-.6v-3.97c0-.12,0-.25.02-.38-.08.07-.14.14-.21.19-.06.05-.14.12-.23.2l-.53.43-.32-.41,1.35-1.05h.51v5h.01Z"/>
      <path class="st4" d="M153.58,15.89c.51,0,.92.13,1.22.38.31.26.46.62.46,1.08,0,.52-.17.93-.49,1.22s-.79.44-1.38.44c-.26,0-.5-.02-.73-.07-.22-.05-.41-.11-.57-.2v-.58c.17.1.37.18.61.24s.47.09.69.09c.37,0,.67-.09.89-.26.23-.18.34-.45.34-.82,0-.33-.1-.58-.3-.75s-.52-.26-.95-.26c-.13,0-.28,0-.45.03s-.3.05-.41.07l-.31-.2.19-2.36h2.51v.56h-1.98l-.12,1.45c.08,0,.19-.03.32-.05.14-.02.29-.03.45-.03v.02Z"/>
    </g>
    <g>
      <path class="st5" d="M166.06,46.58h-.6v-3.97c0-.12,0-.25.02-.38-.08.07-.14.14-.21.19-.06.05-.14.12-.23.2l-.53.43-.32-.41,1.35-1.05h.51v5h.01Z"/>
      <path class="st5" d="M171.01,44.08c0,.54-.06,1-.17,1.39-.11.38-.29.68-.54.88-.24.21-.57.31-.96.31-.56,0-.98-.23-1.25-.68-.27-.46-.4-1.09-.4-1.89,0-.54.05-1,.17-1.39.11-.38.29-.68.53-.88s.56-.3.96-.3c.56,0,.98.23,1.25.68s.41,1.08.41,1.89h0ZM168.31,44.08c0,.69.08,1.2.23,1.54.16.34.42.51.8.51s.64-.17.8-.51c.16-.34.24-.85.24-1.54s-.08-1.19-.24-1.53-.43-.51-.8-.51-.65.17-.8.51c-.16.34-.23.85-.23,1.53Z"/>
    </g>
    <g>
      <path class="st5" d="M181.76,37.03h-.6v-3.97c0-.12,0-.25.02-.38-.08.07-.14.14-.21.19-.06.05-.14.12-.23.2l-.53.43-.32-.41,1.35-1.05h.51v5h.01Z"/>
      <path class="st5" d="M186.48,33.2c0,.34-.09.6-.28.8-.19.2-.44.33-.75.4v.03c.4.05.69.17.89.38s.3.47.3.81c0,.29-.07.55-.2.78-.14.22-.34.4-.63.52s-.65.19-1.09.19c-.26,0-.5-.02-.73-.06-.22-.04-.44-.11-.64-.21v-.57c.21.11.44.19.68.24.24.06.48.08.7.08.45,0,.77-.09.97-.26.2-.18.3-.42.3-.72s-.12-.54-.37-.68-.59-.21-1.03-.21h-.48v-.52h.49c.41,0,.72-.09.93-.26.21-.17.32-.4.32-.69,0-.24-.08-.43-.25-.56-.16-.13-.38-.2-.67-.2s-.5.04-.69.12-.38.18-.57.3l-.31-.42c.18-.14.4-.26.66-.36s.56-.15.9-.15c.52,0,.91.12,1.17.35.25.23.38.53.38.89v-.02Z"/>
    </g>
    <path class="st5" d="M200.44,33.87c0,.36-.03.71-.09,1.06s-.18.66-.34.95c-.17.28-.4.51-.7.68s-.69.25-1.16.25c-.09,0-.2,0-.33-.02-.13-.01-.23-.03-.3-.05v-.52c.18.06.39.09.62.09.33,0,.6-.05.81-.16.21-.11.38-.25.51-.44.13-.18.22-.4.27-.64.06-.25.09-.5.1-.77h-.04c-.11.16-.26.3-.45.41s-.44.17-.74.17c-.43,0-.78-.13-1.04-.4s-.4-.64-.4-1.12c0-.35.07-.65.2-.9s.32-.45.56-.58c.24-.14.52-.2.84-.2s.6.08.86.24c.26.16.46.4.61.73.15.32.22.74.22,1.24v-.02ZM198.75,32.18c-.29,0-.53.1-.71.29-.18.19-.28.48-.28.88,0,.32.08.58.23.76.16.18.4.28.72.28.22,0,.42-.05.58-.14s.29-.21.38-.35c.09-.14.14-.28.14-.43,0-.2-.04-.4-.12-.59-.08-.2-.2-.36-.36-.49s-.36-.2-.59-.2h0Z"/>
    <path class="st5" d="M216.11,33.21c0,.36-.03.71-.09,1.06s-.18.66-.34.95c-.17.28-.4.51-.7.68s-.69.25-1.16.25c-.09,0-.2,0-.33-.02-.13-.01-.23-.03-.3-.05v-.52c.18.06.39.09.62.09.33,0,.6-.05.81-.16.21-.11.38-.25.51-.44.13-.18.22-.4.27-.64.06-.25.09-.5.1-.77h-.04c-.11.16-.26.3-.45.41s-.44.17-.74.17c-.43,0-.78-.13-1.04-.4s-.4-.64-.4-1.12c0-.35.07-.65.2-.9s.32-.45.56-.58c.24-.14.52-.2.84-.2s.6.08.86.24c.26.16.46.4.61.73.15.32.22.74.22,1.24v-.02ZM214.42,31.52c-.29,0-.53.1-.71.29-.18.19-.28.48-.28.88,0,.32.08.58.23.76.16.18.4.28.72.28.22,0,.42-.05.58-.14s.29-.21.38-.35c.09-.14.14-.28.14-.43,0-.2-.04-.4-.12-.59-.08-.2-.2-.36-.36-.49s-.36-.2-.59-.2h0Z"/>
    <g>
      <path class="st4" d="M166.07,19.09h-.6v-3.97c0-.12,0-.25.02-.38-.08.07-.14.14-.21.19-.06.05-.14.12-.23.2l-.53.43-.32-.41,1.35-1.05h.51v5h.01Z"/>
      <path class="st4" d="M169.29,16.02c.51,0,.92.13,1.22.38.31.26.46.62.46,1.08,0,.52-.17.93-.49,1.22s-.79.44-1.38.44c-.26,0-.5-.02-.73-.07-.22-.05-.41-.11-.57-.2v-.58c.17.1.37.18.61.24s.47.09.69.09c.37,0,.67-.09.89-.26.23-.18.34-.45.34-.82,0-.33-.1-.58-.3-.75s-.52-.26-.95-.26c-.13,0-.28,0-.45.03s-.3.05-.41.07l-.31-.2.19-2.36h2.51v.56h-1.98l-.12,1.45c.08,0,.19-.03.32-.05.14-.02.29-.03.45-.03v.02Z"/>
    </g>
    <g>
      <path class="st4" d="M181.73,19.99h-.6v-3.97c0-.12,0-.25.02-.38-.08.07-.14.14-.21.19-.06.05-.14.12-.23.2l-.53.43-.32-.41,1.35-1.05h.51v5h.01Z"/>
      <path class="st4" d="M186.92,18.86h-.73v1.13h-.59v-1.13h-2.39v-.53l2.35-3.37h.64v3.34h.73v.55h-.01ZM185.6,18.3v-1.58c0-.24,0-.45,0-.62s0-.33.02-.49h-.03c-.04.09-.08.18-.14.29-.06.1-.11.19-.16.26l-1.5,2.13h1.8Z"/>
    </g>
    <path class="st4" d="M197.19,55.78c0-.36.03-.71.09-1.06s.18-.66.34-.95c.17-.28.4-.51.7-.68s.68-.25,1.16-.25c.1,0,.21,0,.33.01.12,0,.22.03.29.05v.52c-.08-.03-.18-.05-.29-.06s-.21-.02-.31-.02c-.32,0-.59.05-.81.16s-.38.25-.51.44c-.12.19-.21.4-.27.64s-.09.5-.11.78h.04c.11-.16.26-.3.45-.42s.44-.17.73-.17c.43,0,.78.13,1.05.4.27.26.4.64.4,1.12,0,.52-.14.93-.43,1.23s-.67.45-1.16.45c-.32,0-.6-.08-.86-.24-.26-.16-.46-.4-.61-.73s-.23-.74-.23-1.24v.02ZM198.88,57.46c.29,0,.53-.09.71-.28s.27-.48.27-.88c0-.32-.08-.57-.24-.76s-.4-.28-.72-.28c-.22,0-.41.05-.57.14s-.29.21-.38.35c-.09.14-.14.29-.14.43,0,.2.04.4.12.6s.2.36.36.49.36.19.59.19h0Z"/>
    <path class="st4" d="M213.44,53.49l2.05-4.44h-2.7v-.56h3.35v.48l-2.03,4.52h-.68,0Z"/>
    <path class="st4" d="M228.49,43.18c0-.36.03-.71.09-1.06s.18-.66.34-.95c.17-.28.4-.51.7-.68s.68-.25,1.16-.25c.1,0,.21,0,.33.01.12,0,.22.03.29.05v.52c-.08-.03-.18-.05-.29-.06s-.21-.02-.31-.02c-.32,0-.59.05-.81.16s-.38.25-.51.44c-.12.19-.21.4-.27.64s-.09.5-.11.78h.04c.11-.16.26-.3.45-.42s.44-.17.73-.17c.43,0,.78.13,1.05.4.27.26.4.64.4,1.12,0,.52-.14.93-.43,1.23s-.67.45-1.16.45c-.32,0-.6-.08-.86-.24-.26-.16-.46-.4-.61-.73s-.23-.74-.23-1.24v.02ZM230.18,44.87c.29,0,.53-.09.71-.28s.27-.48.27-.88c0-.32-.08-.57-.24-.76s-.4-.28-.72-.28c-.22,0-.41.05-.57.14s-.29.21-.38.35c-.09.14-.14.29-.14.43,0,.2.04.4.12.6s.2.36.36.49.36.19.59.19h0Z"/>
    <path class="st5" d="M228.49,55.98c0-.36.03-.71.09-1.06s.18-.66.34-.95c.17-.28.4-.51.7-.68s.68-.25,1.16-.25c.1,0,.21,0,.33.01.12,0,.22.03.29.05v.52c-.08-.03-.18-.05-.29-.06s-.21-.02-.31-.02c-.32,0-.59.05-.81.16s-.38.25-.51.44c-.12.19-.21.4-.27.64s-.09.5-.11.78h.04c.11-.16.26-.3.45-.42s.44-.17.73-.17c.43,0,.78.13,1.05.4.27.26.4.64.4,1.12,0,.52-.14.93-.43,1.23s-.67.45-1.16.45c-.32,0-.6-.08-.86-.24-.26-.16-.46-.4-.61-.73s-.23-.74-.23-1.24v.02ZM230.18,57.66c.29,0,.53-.09.71-.28s.27-.48.27-.88c0-.32-.08-.57-.24-.76s-.4-.28-.72-.28c-.22,0-.41.05-.57.14s-.29.21-.38.35c-.09.14-.14.29-.14.43,0,.2.04.4.12.6s.2.36.36.49.36.19.59.19h0Z"/>
    <path class="st4" d="M244.37,41.84c0-.36.03-.71.09-1.06s.18-.66.34-.95c.17-.28.4-.51.7-.68s.68-.25,1.16-.25c.1,0,.21,0,.33.01.12,0,.22.03.29.05v.52c-.08-.03-.18-.05-.29-.06s-.21-.02-.31-.02c-.32,0-.59.05-.81.16s-.38.25-.51.44c-.12.19-.21.4-.27.64s-.09.5-.11.78h.04c.11-.16.26-.3.45-.42s.44-.17.73-.17c.43,0,.78.13,1.05.4.27.26.4.64.4,1.12,0,.52-.14.93-.43,1.23s-.67.45-1.16.45c-.32,0-.6-.08-.86-.24-.26-.16-.46-.4-.61-.73s-.23-.74-.23-1.24v.02ZM246.06,43.53c.29,0,.53-.09.71-.28s.27-.48.27-.88c0-.32-.08-.57-.24-.76s-.4-.28-.72-.28c-.22,0-.41.05-.57.14s-.29.21-.38.35c-.09.14-.14.29-.14.43,0,.2.04.4.12.6s.2.36.36.49.36.19.59.19h0Z"/>
    <path class="st5" d="M247.69,60.49h-.73v1.13h-.59v-1.13h-2.39v-.53l2.35-3.37h.64v3.34h.73v.55h-.01ZM246.37,59.94v-1.58c0-.24,0-.45,0-.62s0-.33.02-.49h-.03c-.04.09-.08.18-.14.29-.06.1-.11.19-.16.26l-1.5,2.14h1.8Z"/>
    <path class="st5" d="M261.36,56.99c.51,0,.92.13,1.22.38.31.26.46.62.46,1.08,0,.52-.17.93-.49,1.22-.33.3-.79.44-1.38.44-.26,0-.5-.02-.73-.07-.22-.05-.41-.11-.57-.2v-.58c.17.1.37.18.61.24s.47.09.69.09c.37,0,.67-.09.89-.26.23-.17.34-.45.34-.82,0-.33-.1-.58-.3-.75-.2-.17-.52-.26-.95-.26-.13,0-.28.01-.45.03s-.3.05-.41.07l-.31-.2.19-2.36h2.51v.56h-1.98l-.12,1.45c.08-.01.19-.03.32-.05.14-.02.29-.03.45-.03v.02Z"/>
    <path class="st5" d="M278.63,33.66c0,.36-.03.71-.09,1.06s-.18.66-.34.95c-.17.28-.4.51-.7.68-.3.17-.69.25-1.16.25-.09,0-.2,0-.33-.02-.13-.01-.23-.03-.3-.05v-.52c.18.06.39.09.62.09.33,0,.6-.05.81-.16s.38-.25.51-.44c.13-.18.22-.4.27-.64.06-.25.09-.5.1-.77h-.04c-.11.16-.26.3-.45.41s-.44.17-.74.17c-.43,0-.78-.13-1.04-.4s-.4-.64-.4-1.12c0-.35.07-.65.2-.9s.32-.45.56-.58c.24-.14.52-.2.84-.2s.6.08.86.24c.26.16.46.4.61.73.15.32.22.74.22,1.24v-.02ZM276.94,31.98c-.29,0-.53.1-.71.29s-.28.48-.28.88c0,.32.08.58.23.76.16.18.4.28.72.28.22,0,.42-.05.58-.14.16-.09.29-.21.38-.35s.14-.28.14-.43c0-.2-.04-.4-.12-.59-.08-.2-.2-.36-.36-.49-.16-.13-.36-.2-.59-.2h0Z"/>
    <path class="st4" d="M260.39,41.44l2.05-4.44h-2.7v-.56h3.35v.48l-2.03,4.52h-.68.01Z"/>
    <path class="st4" d="M275.94,53.27l2.05-4.44h-2.7v-.56h3.35v.48l-2.03,4.52h-.68.01Z"/>
    <path class="st5" d="M292.6,57.41c.51,0,.92.13,1.22.38.31.26.46.62.46,1.08,0,.52-.17.92-.49,1.22-.33.3-.79.44-1.38.44-.26,0-.5-.02-.73-.07-.22-.05-.41-.11-.57-.2v-.58c.17.1.37.18.61.24s.47.09.69.09c.37,0,.67-.09.89-.26.23-.18.34-.45.34-.82,0-.33-.1-.58-.3-.75-.2-.17-.52-.26-.95-.26-.13,0-.28.01-.45.03s-.3.05-.41.07l-.31-.2.19-2.36h2.51v.56h-1.98l-.12,1.45c.08-.01.19-.03.32-.05.14-.02.29-.03.45-.03v.02Z"/>
    <path class="st4" d="M291.05,44.3c0-.36.03-.71.09-1.06s.18-.66.34-.95c.17-.28.4-.51.7-.68.3-.17.68-.25,1.16-.25.1,0,.21,0,.33.01.12,0,.22.03.29.05v.52c-.08-.03-.18-.05-.29-.06s-.21-.02-.31-.02c-.32,0-.59.05-.81.16s-.38.25-.51.44c-.12.19-.21.4-.27.64s-.09.5-.11.78h.04c.11-.16.26-.3.45-.42s.44-.17.73-.17c.43,0,.78.13,1.05.4.27.26.4.64.4,1.12,0,.52-.14.93-.43,1.23s-.67.45-1.16.45c-.32,0-.6-.08-.86-.24-.26-.16-.46-.4-.61-.73s-.23-.74-.23-1.24v.02ZM292.74,45.98c.29,0,.53-.09.71-.28s.27-.48.27-.88c0-.32-.08-.57-.24-.76s-.4-.28-.72-.28c-.22,0-.41.05-.57.14s-.29.21-.38.35-.14.29-.14.43c0,.2.04.4.12.6s.2.36.36.49c.16.13.36.19.59.19h0Z"/>
    <path class="st5" d="M307.62,54.96l2.05-4.44h-2.7v-.56h3.35v.48l-2.03,4.52h-.68.01Z"/>
    <path class="st4" d="M308.66,34.56c.44,0,.8.1,1.08.31s.42.5.42.89c0,.2-.04.38-.13.52-.09.15-.2.28-.35.4-.14.11-.3.22-.48.3.21.1.39.21.56.34.17.12.3.26.4.43.1.16.15.36.15.59,0,.42-.15.75-.45,1-.3.24-.7.37-1.19.37-.54,0-.96-.12-1.24-.35-.29-.24-.43-.57-.43-.99,0-.22.05-.42.14-.59.1-.17.22-.32.38-.44s.33-.22.51-.31c-.25-.14-.46-.31-.62-.51-.17-.2-.25-.45-.25-.76,0-.25.07-.47.2-.64s.31-.31.53-.41c.22-.09.48-.14.76-.14h0ZM307.61,38.36c0,.24.09.44.26.61.17.16.44.24.8.24.34,0,.6-.08.78-.24.18-.16.27-.37.27-.63,0-.24-.1-.44-.29-.61s-.45-.3-.76-.42l-.11-.04c-.31.14-.54.29-.7.46s-.24.38-.24.64h0ZM308.65,35.05c-.26,0-.47.06-.64.19-.16.12-.24.3-.24.54,0,.17.04.32.12.43s.19.22.33.3c.14.08.29.16.46.23.24-.1.45-.23.61-.37.17-.14.25-.34.25-.6,0-.23-.08-.41-.25-.54-.16-.12-.38-.19-.65-.19h.01Z"/>
    <path class="st5" d="M323.34,53.66l2.05-4.44h-2.7v-.56h3.35v.48l-2.03,4.52h-.68.01Z"/>
    <path class="st4" d="M324.39,33.11c.44,0,.8.1,1.08.31s.42.5.42.89c0,.2-.04.38-.13.52-.09.15-.2.28-.35.4-.14.11-.3.22-.48.3.21.1.39.21.56.34.17.12.3.26.4.43.1.16.15.36.15.59,0,.42-.15.75-.45,1-.3.24-.7.37-1.19.37-.54,0-.96-.12-1.24-.35-.29-.24-.43-.57-.43-.99,0-.22.05-.42.14-.59.1-.17.22-.32.38-.44s.33-.22.51-.31c-.25-.14-.46-.31-.62-.51-.17-.2-.25-.45-.25-.76,0-.25.07-.47.2-.64s.31-.31.53-.41c.22-.09.48-.14.76-.14h0ZM323.34,36.91c0,.24.09.44.26.61.17.16.44.24.8.24.34,0,.6-.08.78-.24.18-.16.27-.37.27-.63,0-.24-.1-.44-.29-.61s-.45-.3-.76-.42l-.11-.04c-.31.14-.54.29-.7.46s-.24.38-.24.64h0ZM324.38,33.6c-.26,0-.47.06-.64.19-.16.12-.24.3-.24.54,0,.17.04.32.12.43s.19.22.33.3c.14.08.29.16.46.23.24-.1.45-.23.61-.37.17-.14.25-.34.25-.6,0-.23-.08-.41-.25-.54-.16-.12-.38-.19-.65-.19h.01Z"/>
    <path class="st5" d="M338.04,55.9c0-.36.03-.71.09-1.06s.18-.66.34-.95c.17-.28.4-.51.7-.68.3-.17.68-.25,1.16-.25.1,0,.21,0,.33.01.12,0,.22.03.29.05v.52c-.08-.03-.18-.05-.29-.06s-.21-.02-.31-.02c-.32,0-.59.05-.81.16s-.38.25-.51.44c-.12.19-.21.4-.27.64s-.09.5-.11.78h.04c.11-.16.26-.3.45-.42s.44-.17.73-.17c.43,0,.78.13,1.05.4.27.26.4.64.4,1.12,0,.52-.14.93-.43,1.23s-.67.45-1.16.45c-.32,0-.6-.08-.86-.24-.26-.16-.46-.4-.61-.73s-.23-.74-.23-1.24v.02ZM339.73,57.59c.29,0,.53-.09.71-.28s.27-.48.27-.88c0-.32-.08-.57-.24-.76s-.4-.28-.72-.28c-.22,0-.41.05-.57.14s-.29.21-.38.35-.14.29-.14.43c0,.2.04.4.12.6s.2.36.36.49c.16.13.36.19.59.19h0Z"/>
    <path class="st4" d="M341.29,32.84c0,.36-.03.71-.09,1.06s-.18.66-.34.95c-.17.28-.4.51-.7.68-.3.17-.69.25-1.16.25-.09,0-.2,0-.33-.02-.13-.01-.23-.03-.3-.05v-.52c.18.06.39.09.62.09.33,0,.6-.05.81-.16s.38-.25.51-.44c.13-.18.22-.4.27-.64.06-.25.09-.5.1-.77h-.04c-.11.16-.26.3-.45.41s-.44.17-.74.17c-.43,0-.78-.13-1.04-.4s-.4-.64-.4-1.12c0-.35.07-.65.2-.9s.32-.45.56-.58c.24-.14.52-.2.84-.2s.6.08.86.24c.26.16.46.4.61.73.15.32.22.74.22,1.24v-.02ZM339.6,31.15c-.29,0-.53.1-.71.29s-.28.48-.28.88c0,.32.08.58.23.76.16.18.4.28.72.28.22,0,.42-.05.58-.14.16-.09.29-.21.38-.35s.14-.28.14-.43c0-.2-.04-.4-.12-.59-.08-.2-.2-.36-.36-.49-.16-.13-.36-.2-.59-.2h0Z"/>
    <path class="st5" d="M353.64,55.88c0-.36.03-.71.09-1.06s.18-.66.34-.95c.17-.28.4-.51.7-.68.3-.17.68-.25,1.16-.25.1,0,.21,0,.33.01.12,0,.22.03.29.05v.52c-.08-.03-.18-.05-.29-.06s-.21-.02-.31-.02c-.32,0-.59.05-.81.16s-.38.25-.51.44c-.12.19-.21.4-.27.64s-.09.5-.11.78h.04c.11-.16.26-.3.45-.42s.44-.17.73-.17c.43,0,.78.13,1.05.4.27.26.4.64.4,1.12,0,.52-.14.93-.43,1.23s-.67.45-1.16.45c-.32,0-.6-.08-.86-.24-.26-.16-.46-.4-.61-.73s-.23-.74-.23-1.24v.02ZM355.34,57.57c.29,0,.53-.09.71-.28s.27-.48.27-.88c0-.32-.08-.57-.24-.76s-.4-.28-.72-.28c-.22,0-.41.05-.57.14s-.29.21-.38.35-.14.29-.14.43c0,.2.04.4.12.6s.2.36.36.49c.16.13.36.19.59.19h0Z"/>
    <path class="st4" d="M354.22,41.51l2.05-4.44h-2.69v-.56h3.35v.48l-2.03,4.52h-.68Z"/>
    <rect class="st0" x="367.01" y="73.49" width="7.82" height="7.34"/>
    <path class="st5" d="M370.86,56.89c.51,0,.92.13,1.22.38.31.26.46.62.46,1.08,0,.52-.17.92-.49,1.22-.33.3-.79.44-1.38.44-.26,0-.5-.02-.73-.07-.22-.05-.41-.11-.57-.2v-.58c.17.1.37.18.61.24s.47.09.69.09c.37,0,.67-.09.89-.26.23-.18.34-.45.34-.82,0-.33-.1-.58-.3-.75-.2-.17-.52-.26-.95-.26-.13,0-.28.01-.45.03s-.3.05-.41.07l-.31-.2.19-2.36h2.51v.56h-1.98l-.12,1.45c.08-.01.19-.03.32-.05.14-.02.29-.03.45-.03v.02Z"/>
    <path class="st4" d="M369.89,42.18l2.05-4.44h-2.69v-.56h3.35v.48l-2.03,4.52h-.68Z"/>
    <rect class="st0" x="22.78" y="15" width="8.5" height="2.92"/>
    <rect class="st0" x="38.21" y="5.07" width="8.5" height="2.92"/>
    <rect class="st0" x="54.34" y="8.38" width="8.5" height="2.92"/>
    <rect class="st0" x="69.36" y="14.47" width="8.5" height="2.92"/>
    <rect class="st0" x="85.03" y="10.25" width="8.5" height="2.92"/>
  </g>
</svg>