<?xml version="1.0" encoding="UTF-8"?>
<svg id="Layer_1" xmlns="http://www.w3.org/2000/svg" version="1.1" viewBox="0 0 129.13 60.66">
  <!-- Generator: Adobe Illustrator 29.6.0, SVG Export Plug-In . SVG Version: 2.1.1 Build 207)  -->
  <defs>
    <style>
      .st0, .st1 {
        fill: none;
      }

      .st1 {
        stroke: #000;
        stroke-miterlimit: 10;
        stroke-width: .25px;
      }

      .st2 {
        fill: #006ba6;
      }
    </style>
  </defs>
  <g id="Chart_x5F_Bar">
    <g>
      <rect class="st2" x="54.79" y="4.49" width="64.35" height="11.01"/>
      <rect class="st2" x="54.79" y="20" width="33.2" height="11.01"/>
      <rect class="st2" x="54.79" y="35.5" width="23.74" height="11.01"/>
    </g>
  </g>
  <g id="Text">
    <g>
      <path d="M42.83,43.55h-.6v-3.97c0-.12,0-.25.02-.38-.07.07-.14.14-.21.19s-.14.12-.23.2l-.53.43-.32-.41,1.35-1.05h.51v5h0Z"/>
      <path d="M47.86,41.05c0,.54-.06,1-.17,1.39-.11.38-.29.68-.54.88-.25.21-.57.31-.96.31-.56,0-.98-.23-1.25-.68-.27-.46-.4-1.09-.4-1.89,0-.54.06-1,.16-1.39.11-.38.29-.68.53-.88s.56-.3.96-.3c.56,0,.98.23,1.25.68s.41,1.08.41,1.89h.01ZM45.16,41.05c0,.69.08,1.2.23,1.54.16.34.42.51.8.51s.64-.17.8-.51.24-.85.24-1.54-.08-1.19-.24-1.53-.43-.51-.8-.51-.65.17-.8.51c-.16.34-.23.85-.23,1.53Z"/>
    </g>
    <g>
      <path d="M43.71,28h-3.3v-.51l1.31-1.32c.25-.25.46-.48.63-.67.18-.2.31-.39.4-.57.09-.19.13-.39.13-.62,0-.28-.08-.48-.25-.63-.16-.14-.38-.21-.64-.21s-.46.04-.64.13c-.18.08-.37.2-.56.35l-.33-.41c.2-.16.42-.3.68-.42s.54-.17.86-.17c.47,0,.84.12,1.11.36s.41.56.41.97c0,.26-.05.51-.16.73s-.26.46-.45.68c-.19.22-.42.46-.67.71l-1.04,1.03v.03h2.53v.56l-.02-.02Z"/>
      <path d="M47.86,25.5c0,.54-.06,1-.17,1.39-.11.38-.29.68-.54.88-.25.21-.57.31-.96.31-.56,0-.98-.23-1.25-.68-.27-.46-.4-1.09-.4-1.89,0-.54.06-1,.16-1.39.11-.38.29-.68.53-.88s.56-.3.96-.3c.56,0,.98.23,1.25.68s.41,1.08.41,1.89h.01ZM45.16,25.5c0,.69.08,1.2.23,1.54.16.34.42.51.8.51s.64-.17.8-.51.24-.85.24-1.54-.08-1.19-.24-1.53-.43-.51-.8-.51-.65.17-.8.51c-.16.34-.23.85-.23,1.53Z"/>
    </g>
    <path class="st2" d="M82.94,40.48c.51,0,.92.13,1.22.39s.46.62.46,1.08c0,.52-.16.92-.49,1.22-.33.3-.79.44-1.38.44-.26,0-.5-.02-.73-.07-.22-.05-.41-.11-.57-.2v-.58c.17.1.37.18.61.24s.47.09.69.09c.37,0,.67-.09.89-.26.23-.17.34-.45.34-.82,0-.33-.1-.58-.3-.75-.2-.18-.52-.26-.95-.26-.13,0-.28,0-.45.04s-.3.05-.41.07l-.31-.2.19-2.36h2.51v.56h-1.98l-.12,1.45c.08,0,.19-.03.32-.05s.28-.03.45-.03h.01Z"/>
    <path class="st2" d="M91.55,28.03l2.05-4.44h-2.69v-.56h3.35v.48l-2.03,4.52h-.68Z"/>
    <g>
      <path class="st2" d="M123.94,12.5h-.6v-3.97c0-.12,0-.25.02-.38-.07.07-.14.14-.21.19-.06.05-.14.12-.23.2l-.53.43-.32-.41,1.35-1.05h.51v5h.01Z"/>
      <path class="st2" d="M129.13,11.36h-.73v1.13h-.6v-1.13h-2.39v-.53l2.35-3.37h.64v3.34h.73v.55h0ZM127.8,10.81v-1.58c0-.24,0-.45,0-.62,0-.17,0-.33.02-.49h-.03c-.04.09-.08.18-.14.29s-.11.19-.16.26l-1.5,2.14h1.8Z"/>
    </g>
    <g>
      <path d="M16.23,11.16c0,.44-.16.79-.48,1.04s-.76.37-1.3.37c-.28,0-.54-.02-.78-.06s-.44-.1-.6-.17v-.6c.17.07.38.14.63.2s.51.09.77.09c.37,0,.65-.07.84-.22.19-.14.29-.34.29-.59,0-.16-.03-.3-.1-.41s-.19-.21-.36-.31c-.17-.09-.41-.2-.71-.31-.43-.15-.75-.34-.97-.57-.21-.22-.32-.53-.32-.92,0-.26.07-.49.2-.68.14-.19.32-.34.56-.44s.52-.15.83-.15c.27,0,.52.03.75.08.23.05.44.12.63.2l-.2.54c-.17-.07-.36-.14-.57-.19-.21-.05-.42-.08-.63-.08-.31,0-.55.07-.71.2s-.24.31-.24.53c0,.17.03.31.1.42s.18.21.34.3.37.19.64.28c.29.11.54.22.75.35.2.12.36.27.46.44.1.17.16.39.16.65h.02Z"/>
      <path d="M17.59,7.34c.09,0,.18.03.25.09s.11.16.11.3-.04.23-.11.3c-.07.06-.16.09-.25.09-.1,0-.19-.03-.26-.09-.07-.06-.1-.16-.1-.3s.04-.23.1-.3c.07-.06.16-.09.26-.09ZM17.89,8.75v3.75h-.62v-3.75h.62Z"/>
      <path d="M21.01,8.68c.45,0,.79.11,1.02.33s.34.57.34,1.05v2.44h-.61v-2.4c0-.6-.28-.9-.84-.9-.42,0-.7.12-.86.35-.16.23-.24.57-.24,1.01v1.95h-.62v-3.75h.5l.09.51h.03c.12-.2.29-.34.5-.44.21-.1.44-.14.68-.14h.01Z"/>
      <path d="M25.19,12.57c-.34,0-.63-.07-.89-.2s-.46-.35-.61-.63-.22-.65-.22-1.09.08-.84.23-1.13c.15-.29.36-.5.63-.64s.57-.2.9-.2c.19,0,.37.02.55.06s.33.09.44.14l-.19.51c-.11-.04-.24-.08-.39-.12-.15-.04-.29-.06-.42-.06-.74,0-1.11.47-1.11,1.42,0,.45.09.8.27,1.04s.45.36.8.36c.2,0,.38-.02.54-.06s.3-.09.43-.15v.55c-.13.07-.26.12-.42.15s-.33.05-.55.05h0Z"/>
      <path d="M28.6,8.68c.32,0,.59.07.83.21.23.14.41.34.54.59.12.25.19.55.19.89v.37h-2.57c0,.42.12.75.33.97.21.22.5.33.87.33.24,0,.45-.02.63-.07.18-.04.37-.11.57-.19v.54c-.19.08-.38.15-.57.19s-.41.06-.67.06c-.36,0-.67-.07-.94-.22-.27-.14-.48-.36-.63-.64-.15-.28-.23-.64-.23-1.06s.07-.76.21-1.06c.14-.29.33-.52.58-.68s.54-.24.87-.24h-.01ZM28.59,9.18c-.29,0-.53.09-.7.28s-.27.45-.3.79h1.91c0-.32-.08-.58-.22-.77-.15-.2-.37-.3-.69-.3Z"/>
      <path d="M34.8,12.5h-.6v-3.97c0-.12,0-.25.02-.38-.07.07-.14.14-.21.19s-.14.12-.23.2l-.53.43-.32-.41,1.35-1.05h.51v5h0Z"/>
      <path d="M39.72,9.64c0,.36-.03.71-.09,1.06s-.18.66-.34.95c-.17.28-.4.51-.7.68s-.69.25-1.16.25c-.09,0-.2,0-.33-.02-.13-.01-.23-.03-.3-.05v-.52c.18.06.39.09.62.09.33,0,.6-.05.81-.16.21-.11.38-.25.51-.44.13-.18.22-.4.27-.64.06-.25.09-.5.1-.77h-.04c-.11.16-.26.3-.45.41s-.44.17-.74.17c-.43,0-.78-.13-1.04-.4s-.4-.64-.4-1.12c0-.35.07-.65.2-.9s.32-.45.56-.58c.24-.14.52-.2.84-.2s.6.08.86.24c.26.16.46.4.61.73.15.32.22.74.22,1.24v-.02ZM38.03,7.95c-.29,0-.53.1-.71.29s-.28.48-.28.88c0,.32.08.58.23.76.16.18.4.28.72.28.22,0,.42-.05.58-.14.16-.09.29-.21.38-.35s.14-.28.14-.43c0-.2-.04-.4-.12-.59-.08-.2-.2-.36-.36-.49s-.36-.2-.6-.2h.02Z"/>
      <path d="M41.14,12.5l2.05-4.44h-2.69v-.56h3.35v.48l-2.03,4.52h-.68Z"/>
      <path d="M47.84,11.37h-.73v1.13h-.6v-1.13h-2.39v-.53l2.35-3.37h.64v3.34h.73v.55h0ZM46.51,10.81v-1.58c0-.24,0-.45,0-.62,0-.17.02-.33.02-.49h-.03c-.04.09-.08.18-.14.29-.06.1-.11.19-.16.26l-1.5,2.13h1.8Z"/>
    </g>
    <line class="st1" x1="54.79" y1="51" x2="54.79"/>
    <g>
      <path d="M1.32,53.99c.65,0,1.13.13,1.43.39s.45.62.45,1.08c0,.28-.06.53-.19.77s-.33.44-.62.58c-.29.15-.69.22-1.19.22h-.57v1.95h-.63v-5h1.32,0ZM1.26,54.53h-.64v1.97h.5c.48,0,.83-.08,1.06-.23.23-.15.35-.42.35-.78,0-.32-.1-.56-.31-.72s-.53-.24-.97-.24h.01Z"/>
      <path d="M5.6,55.17c.32,0,.59.07.83.21.23.14.41.34.54.59.12.25.19.55.19.89v.37h-2.57c0,.42.12.75.33.97s.5.33.87.33c.24,0,.45-.02.63-.07.18-.04.37-.11.57-.19v.54c-.19.08-.38.15-.57.19-.19.04-.41.06-.67.06-.36,0-.67-.07-.94-.22-.27-.14-.48-.36-.63-.64-.15-.29-.23-.64-.23-1.06s.07-.76.21-1.06c.14-.29.33-.52.58-.68s.54-.24.87-.24h-.01ZM5.59,55.67c-.29,0-.53.09-.7.28s-.27.45-.3.79h1.91c0-.32-.08-.58-.22-.77-.15-.2-.37-.3-.69-.3Z"/>
      <path d="M9.85,55.17c.07,0,.14,0,.22,0,.08,0,.15.02.22.03l-.08.57c-.06,0-.13-.03-.2-.04s-.14,0-.2,0c-.19,0-.37.05-.54.16s-.3.25-.4.44-.15.41-.15.66v2h-.62v-3.75h.5l.07.69h.03c.12-.21.27-.38.47-.53.19-.15.42-.22.68-.22h0Z"/>
      <path d="M11.3,53.83c.09,0,.18.03.25.09s.11.16.11.3-.04.23-.11.3c-.07.06-.16.09-.25.09-.1,0-.19-.03-.26-.09s-.1-.16-.1-.3.04-.23.1-.3c.07-.06.16-.09.26-.09ZM11.6,55.24v3.75h-.62v-3.75h.62Z"/>
      <path d="M16.06,57.1c0,.62-.16,1.1-.47,1.44s-.74.51-1.28.51c-.33,0-.63-.08-.89-.23-.26-.15-.46-.37-.61-.66-.15-.29-.22-.65-.22-1.06,0-.62.16-1.1.47-1.44s.74-.5,1.28-.5c.34,0,.63.08.9.23.26.15.47.37.61.66.15.29.22.64.22,1.05h-.01ZM13.22,57.1c0,.44.09.79.26,1.05s.45.39.84.39.66-.13.83-.39c.18-.26.27-.61.27-1.05s-.09-.79-.27-1.04-.46-.38-.84-.38-.66.13-.83.38-.26.6-.26,1.04Z"/>
      <path d="M18.36,59.06c-.47,0-.84-.16-1.12-.49-.28-.32-.42-.81-.42-1.45s.14-1.13.42-1.46c.28-.33.66-.49,1.12-.49.29,0,.53.05.71.16.18.11.33.24.45.39h.04c0-.06-.02-.15-.03-.27s-.01-.21-.01-.28v-1.5h.62v5.32h-.5l-.09-.5h-.03c-.11.16-.26.29-.45.41-.19.11-.43.17-.72.17h.01ZM18.46,58.55c.4,0,.68-.11.84-.33s.24-.54.24-.98v-.11c0-.47-.08-.82-.23-1.07s-.44-.37-.85-.37c-.33,0-.58.13-.75.4s-.25.62-.25,1.06.08.8.25,1.04c.17.25.42.37.75.37h0Z"/>
      <path d="M23.47,53.83c.09,0,.18.03.25.09s.11.16.11.3-.04.23-.11.3c-.07.06-.16.09-.25.09-.1,0-.19-.03-.26-.09s-.1-.16-.1-.3.04-.23.1-.3c.07-.06.16-.09.26-.09ZM23.77,55.24v3.75h-.62v-3.75h.62Z"/>
      <path d="M26.77,55.17c.45,0,.79.11,1.02.33s.34.57.34,1.05v2.44h-.61v-2.4c0-.6-.28-.9-.84-.9-.42,0-.7.12-.86.35s-.24.57-.24,1.01v1.95h-.62v-3.75h.5l.09.51h.03c.12-.2.29-.34.5-.44s.44-.14.68-.14h.01Z"/>
      <path d="M30.52,55.24h.66l.81,2.13c.07.19.13.37.19.54s.1.33.13.48h.03c.03-.12.07-.27.13-.46s.12-.38.19-.57l.76-2.13h.67l-1.62,4.27c-.14.35-.31.64-.51.85-.21.21-.49.31-.85.31-.11,0-.21,0-.29-.02s-.16-.02-.22-.04v-.49s.11.02.19.03c.07,0,.15,0,.23,0,.21,0,.39-.06.52-.18s.24-.28.32-.48l.2-.5-1.51-3.77-.03.02Z"/>
      <path d="M36.12,55.17c.32,0,.59.07.83.21.23.14.41.34.54.59.12.25.19.55.19.89v.37h-2.57c0,.42.12.75.33.97.21.22.5.33.87.33.24,0,.45-.02.63-.07.18-.04.37-.11.57-.19v.54c-.19.08-.38.15-.57.19-.19.04-.41.06-.67.06-.36,0-.67-.07-.94-.22-.27-.14-.48-.36-.63-.64-.15-.29-.23-.64-.23-1.06s.07-.76.21-1.06c.14-.29.33-.52.58-.68s.54-.24.87-.24h-.01ZM36.12,55.67c-.29,0-.53.09-.7.28s-.27.45-.3.79h1.91c0-.32-.08-.58-.22-.77-.15-.2-.37-.3-.69-.3Z"/>
      <path d="M40.04,55.17c.46,0,.8.1,1.01.3.22.2.33.52.33.96v2.56h-.45l-.12-.53h-.03c-.16.21-.34.36-.52.46s-.43.15-.74.15c-.34,0-.62-.09-.85-.27-.22-.18-.34-.46-.34-.84s.15-.66.44-.86.75-.31,1.36-.33l.64-.02v-.22c0-.31-.07-.53-.2-.65-.14-.12-.33-.18-.57-.18-.2,0-.38.03-.56.09s-.34.12-.5.2l-.19-.46c.16-.09.36-.16.58-.23s.46-.09.7-.09v-.04ZM40.78,57.15l-.55.02c-.47.02-.79.09-.97.22s-.27.31-.27.55c0,.21.06.36.19.46s.29.15.49.15c.31,0,.58-.09.79-.26s.32-.44.32-.81v-.34h0Z"/>
      <path d="M44.3,55.17c.07,0,.14,0,.22,0,.08,0,.15.02.22.03l-.08.57c-.06,0-.13-.03-.2-.04s-.14,0-.2,0c-.19,0-.37.05-.54.16s-.3.25-.4.44c-.1.19-.15.41-.15.66v2h-.62v-3.75h.5l.07.69h.03c.12-.21.27-.38.47-.53.19-.15.42-.22.68-.22h0Z"/>
      <path d="M47.88,57.95c0,.36-.14.64-.41.83-.27.19-.63.28-1.09.28-.26,0-.49-.02-.68-.06s-.36-.1-.5-.17v-.56c.15.08.33.14.54.21.21.06.43.09.65.09.31,0,.54-.05.68-.15.14-.1.21-.23.21-.4,0-.09-.03-.18-.08-.25-.05-.07-.14-.15-.28-.22-.13-.08-.32-.16-.57-.25-.24-.09-.45-.19-.62-.28s-.31-.21-.4-.34-.14-.3-.14-.5c0-.32.13-.56.39-.73s.6-.26,1.02-.26c.23,0,.44.02.64.07s.38.11.56.18l-.21.49c-.16-.07-.32-.12-.5-.17-.17-.05-.35-.07-.53-.07-.25,0-.44.04-.58.12s-.2.19-.2.33c0,.11.03.2.09.27s.16.14.3.21.33.15.57.24c.24.09.44.18.61.27.17.09.3.21.38.34.09.13.13.3.13.5l.02-.02Z"/>
      <path d="M49.65,56.66h-.35v-2.32c0-.07,0-.14,0-.22-.04.04-.08.08-.12.11s-.08.07-.13.11l-.31.25-.19-.24.79-.61h.3v2.91h0Z"/>
    </g>
    <rect class="st0" x="119.14" y="4.49" width="2.92" height="11.01"/>
    <rect class="st0" x="87.99" y="20" width="2.92" height="11.01"/>
    <rect class="st0" x="78.53" y="35.51" width="2.92" height="11.01"/>
  </g>
</svg>