<?xml version="1.0" encoding="UTF-8"?>
<svg id="Layer_1" xmlns="http://www.w3.org/2000/svg" version="1.1" viewBox="0 0 437.58 161.85">
  <!-- Generator: Adobe Illustrator 29.6.0, SVG Export Plug-In . SVG Version: 2.1.1 Build 207)  -->
  <defs>
    <style>
      .st0, .st1, .st2 {
        fill: none;
      }

      .st1 {
        stroke: #633169;
        stroke-linecap: round;
      }

      .st1, .st2 {
        stroke-miterlimit: 10;
      }

      .st3 {
        fill: #59c174;
      }

      .st4 {
        fill: #633169;
      }

      .st2 {
        stroke: #000;
        stroke-width: .26px;
      }

      .st5 {
        fill: #12a639;
      }

      .st6 {
        fill: #22b7e9;
      }

      .st7 {
        fill: #64cdf0;
      }
    </style>
  </defs>
  <g id="Legend">
    <g>
      <path d="M97.52,143.35c0,.54-.06,1-.17,1.39-.11.38-.29.68-.54.88-.24.21-.57.31-.96.31-.56,0-.98-.23-1.25-.68-.27-.46-.4-1.09-.4-1.89,0-.54.05-1,.17-1.39.11-.38.29-.68.53-.88.24-.2.56-.3.96-.3.56,0,.98.23,1.25.68s.41,1.08.41,1.89h0ZM94.82,143.35c0,.69.08,1.2.23,1.54.16.34.42.51.8.51s.64-.17.8-.51.24-.85.24-1.54-.08-1.19-.24-1.53c-.16-.34-.43-.51-.8-.51s-.65.17-.8.51c-.16.34-.23.85-.23,1.53Z"/>
      <path d="M100.11,140.79c.44,0,.8.1,1.08.31.28.21.42.5.42.89,0,.2-.04.38-.13.52-.09.15-.2.28-.35.4-.14.11-.3.22-.48.3.21.1.39.21.56.34.17.12.3.26.4.43.1.16.15.36.15.59,0,.42-.15.75-.45,1-.3.24-.7.37-1.19.37-.54,0-.96-.12-1.24-.35-.29-.24-.43-.57-.43-.99,0-.22.05-.42.14-.59.1-.17.22-.32.38-.44.16-.12.33-.22.51-.31-.25-.14-.46-.31-.62-.51-.17-.2-.25-.45-.25-.76,0-.25.07-.47.2-.64s.31-.31.53-.41c.22-.09.48-.14.76-.14h.01ZM99.06,144.59c0,.24.09.44.26.61.17.16.44.24.8.24.34,0,.6-.08.78-.24s.27-.37.27-.63c0-.24-.1-.44-.29-.61s-.45-.3-.76-.42l-.11-.04c-.31.14-.54.29-.7.46s-.24.38-.24.64h-.01ZM100.11,141.29c-.26,0-.47.06-.64.19-.16.12-.24.3-.24.54,0,.17.04.32.12.43s.19.22.33.3.29.16.46.23c.24-.1.45-.23.61-.37.17-.14.25-.34.25-.6,0-.23-.08-.41-.25-.54-.16-.12-.38-.19-.65-.19h0Z"/>
    </g>
    <g>
      <path d="M116.12,143.35c0,.54-.06,1-.17,1.39-.11.38-.29.68-.54.88-.24.21-.57.31-.96.31-.56,0-.98-.23-1.25-.68-.27-.46-.4-1.09-.4-1.89,0-.54.05-1,.17-1.39.11-.38.29-.68.53-.88.24-.2.56-.3.96-.3.56,0,.98.23,1.25.68s.41,1.08.41,1.89h0ZM113.41,143.35c0,.69.08,1.2.23,1.54.16.34.42.51.8.51s.64-.17.8-.51.24-.85.24-1.54-.08-1.19-.24-1.53c-.16-.34-.43-.51-.8-.51s-.65.17-.8.51c-.16.34-.23.85-.23,1.53Z"/>
      <path d="M120.34,142.99c0,.36-.03.71-.09,1.06-.06.35-.18.66-.34.95-.17.28-.4.51-.7.68-.3.17-.69.25-1.16.25-.09,0-.2,0-.33-.02-.13,0-.23-.03-.3-.05v-.52c.18.06.39.09.62.09.33,0,.6-.05.81-.16s.38-.25.51-.44c.13-.18.22-.4.27-.64.06-.25.09-.5.1-.77h-.04c-.11.16-.26.3-.45.41s-.44.17-.74.17c-.43,0-.78-.13-1.04-.4s-.4-.64-.4-1.12c0-.35.07-.65.2-.9s.32-.45.56-.58c.24-.14.52-.2.84-.2s.6.08.86.24.46.4.61.73c.15.32.22.74.22,1.24v-.02ZM118.64,141.31c-.29,0-.53.1-.71.29-.18.19-.28.48-.28.88,0,.32.08.58.23.76.16.18.4.28.72.28.22,0,.42-.05.58-.14s.29-.21.38-.35.14-.28.14-.43c0-.2-.04-.4-.12-.59-.08-.2-.2-.36-.36-.49s-.36-.2-.59-.2h0Z"/>
    </g>
    <g>
      <path d="M79.22,143.35c0,.54-.06,1-.17,1.39-.11.38-.29.68-.54.88-.24.21-.57.31-.96.31-.56,0-.98-.23-1.25-.68-.27-.46-.4-1.09-.4-1.89,0-.54.05-1,.17-1.39.11-.38.29-.68.53-.88.24-.2.56-.3.96-.3.56,0,.98.23,1.25.68s.41,1.08.41,1.89h0ZM76.52,143.35c0,.69.08,1.2.23,1.54.16.34.42.51.8.51s.64-.17.8-.51.24-.85.24-1.54-.08-1.19-.24-1.53c-.16-.34-.43-.51-.8-.51s-.65.17-.8.51c-.16.34-.23.85-.23,1.53Z"/>
      <path d="M80.61,145.86l2.05-4.44h-2.7v-.56h3.35v.48l-2.03,4.52h-.68,0Z"/>
    </g>
    <g>
      <path d="M60.32,143.35c0,.54-.06,1-.17,1.39-.11.38-.29.68-.54.88-.24.21-.57.31-.96.31-.56,0-.98-.23-1.25-.68-.27-.46-.4-1.09-.4-1.89,0-.54.05-1,.17-1.39.11-.38.29-.68.53-.88.24-.2.56-.3.96-.3.56,0,.98.23,1.25.68s.41,1.08.41,1.89h0ZM57.62,143.35c0,.69.08,1.2.23,1.54.16.34.42.51.8.51s.64-.17.8-.51.24-.85.24-1.54-.08-1.19-.24-1.53-.43-.51-.8-.51-.65.17-.8.51c-.16.34-.23.85-.23,1.53Z"/>
      <path d="M61.34,143.72c0-.36.03-.71.09-1.06s.18-.66.34-.95c.17-.28.4-.51.7-.68s.68-.25,1.16-.25c.1,0,.21,0,.33,0,.12,0,.22.03.29.05v.52c-.08-.03-.18-.05-.29-.06s-.21-.02-.31-.02c-.32,0-.59.05-.81.16s-.38.25-.51.44c-.12.19-.21.4-.27.64s-.09.5-.11.78h.04c.11-.16.26-.3.45-.42s.44-.17.73-.17c.43,0,.78.13,1.05.4.27.26.4.64.4,1.12,0,.52-.14.93-.43,1.23s-.67.45-1.16.45c-.32,0-.6-.08-.86-.24-.26-.16-.46-.4-.61-.73s-.23-.74-.23-1.24v.02ZM63.03,145.41c.29,0,.53-.09.71-.28s.27-.48.27-.88c0-.32-.08-.57-.24-.76-.16-.19-.4-.28-.72-.28-.22,0-.41.05-.57.14s-.29.21-.38.35-.14.29-.14.43c0,.2.04.4.12.6s.2.36.36.49.36.19.59.19h0Z"/>
    </g>
    <g>
      <path d="M41.81,143.35c0,.54-.06,1-.17,1.39-.11.38-.29.68-.54.88-.24.21-.57.31-.96.31-.56,0-.98-.23-1.25-.68-.27-.46-.4-1.09-.4-1.89,0-.54.05-1,.17-1.39.11-.38.29-.68.53-.88.24-.2.56-.3.96-.3.56,0,.98.23,1.25.68s.41,1.08.41,1.89h0ZM39.11,143.35c0,.69.08,1.2.23,1.54.16.34.42.51.8.51s.64-.17.8-.51.24-.85.24-1.54-.08-1.19-.24-1.53-.43-.51-.8-.51-.65.17-.8.51c-.16.34-.23.85-.23,1.53Z"/>
      <path d="M44.29,142.79c.51,0,.92.13,1.22.38.31.26.46.62.46,1.08,0,.52-.17.93-.49,1.22s-.79.44-1.38.44c-.26,0-.5-.02-.73-.07-.22-.05-.41-.11-.57-.2v-.58c.17.1.37.18.61.24.24.06.47.09.69.09.37,0,.67-.09.89-.26.23-.18.34-.45.34-.82,0-.33-.1-.58-.3-.75s-.52-.26-.95-.26c-.13,0-.28,0-.45.03-.17.02-.3.05-.41.07l-.31-.2.19-2.36h2.51v.56h-1.98l-.12,1.45c.08,0,.19-.03.32-.05.14-.02.29-.03.45-.03v.02Z"/>
    </g>
    <g>
      <path d="M23.05,143.35c0,.54-.06,1-.17,1.39-.11.38-.29.68-.54.88-.24.21-.57.31-.96.31-.56,0-.98-.23-1.25-.68-.27-.46-.4-1.09-.4-1.89,0-.54.05-1,.17-1.39.11-.38.29-.68.53-.88.24-.2.56-.3.96-.3.56,0,.98.23,1.25.68s.41,1.08.41,1.89h0ZM20.34,143.35c0,.69.08,1.2.23,1.54.16.34.42.51.8.51s.64-.17.8-.51.24-.85.24-1.54-.08-1.19-.24-1.53-.43-.51-.8-.51-.65.17-.8.51c-.16.34-.23.85-.23,1.53Z"/>
      <path d="M27.58,144.72h-.73v1.13h-.59v-1.13h-2.39v-.53l2.35-3.37h.64v3.34h.73v.55h-.01ZM26.25,144.17v-1.58c0-.24,0-.45.01-.62s.01-.33.02-.49h-.03c-.04.09-.08.18-.14.29-.06.1-.11.19-.16.26l-1.5,2.13h1.8Z"/>
    </g>
    <g>
      <path d="M4.67,143.35c0,.54-.06,1-.17,1.39-.11.38-.29.68-.54.88-.24.21-.57.31-.96.31-.56,0-.98-.23-1.25-.68-.27-.46-.4-1.09-.4-1.89,0-.54.05-1,.17-1.39.11-.38.29-.68.53-.88.24-.2.56-.3.96-.3.56,0,.98.23,1.25.68.27.45.41,1.08.41,1.89h0ZM1.96,143.35c0,.69.08,1.2.23,1.54.16.34.42.51.8.51s.64-.17.8-.51.24-.85.24-1.54-.08-1.19-.24-1.53-.43-.51-.8-.51-.65.17-.8.51c-.16.34-.23.85-.23,1.53Z"/>
      <path d="M8.62,142.03c0,.34-.09.6-.28.8s-.44.33-.75.4v.03c.4.05.69.17.89.38.2.21.3.47.3.81,0,.29-.07.55-.2.78-.14.22-.34.4-.63.52s-.65.19-1.09.19c-.26,0-.5-.02-.73-.06-.22-.04-.44-.11-.64-.21v-.57c.21.11.44.19.68.24.24.06.48.08.7.08.45,0,.77-.09.97-.26.2-.18.3-.42.3-.72s-.12-.54-.37-.68-.59-.21-1.03-.21h-.48v-.52h.49c.41,0,.72-.09.93-.26.21-.17.32-.4.32-.69,0-.24-.08-.43-.25-.56-.16-.13-.38-.2-.67-.2s-.5.04-.69.12-.38.18-.57.3l-.31-.42c.18-.14.4-.26.66-.36s.56-.15.9-.15c.52,0,.91.12,1.17.35.25.23.38.53.38.89v-.02Z"/>
    </g>
    <g>
      <path d="M133.56,145.86h-.6v-3.97c0-.12,0-.25.02-.38-.08.07-.14.14-.21.19-.06.05-.14.12-.23.2l-.53.43-.32-.41,1.35-1.05h.51v5h.01Z"/>
      <path d="M138.6,143.35c0,.54-.06,1-.17,1.39-.11.38-.29.68-.54.88-.24.21-.57.31-.96.31-.56,0-.98-.23-1.25-.68-.27-.46-.4-1.09-.4-1.89,0-.54.05-1,.17-1.39.11-.38.29-.68.53-.88.24-.2.56-.3.96-.3.56,0,.98.23,1.25.68s.41,1.08.41,1.89h0ZM135.89,143.35c0,.69.08,1.2.23,1.54.16.34.42.51.8.51s.64-.17.8-.51.24-.85.24-1.54-.08-1.19-.24-1.53-.43-.51-.8-.51-.65.17-.8.51c-.16.34-.23.85-.23,1.53Z"/>
    </g>
    <g>
      <path d="M152.88,145.86h-.6v-3.97c0-.12,0-.25.02-.38-.08.07-.14.14-.21.19-.06.05-.14.12-.23.2l-.53.43-.32-.41,1.35-1.05h.51v5h.01Z"/>
      <path d="M156.47,145.86h-.6v-3.97c0-.12,0-.25.02-.38-.08.07-.14.14-.21.19-.06.05-.14.12-.23.2l-.53.43-.32-.41,1.35-1.05h.51v5h.01Z"/>
    </g>
    <g>
      <path d="M170.82,145.86h-.6v-3.97c0-.12,0-.25.02-.38-.07.07-.14.14-.21.19-.06.05-.14.12-.23.2l-.53.43-.32-.41,1.35-1.05h.51v5h.01Z"/>
      <path d="M175.7,145.86h-3.3v-.51l1.31-1.32c.25-.25.46-.48.63-.67.18-.2.31-.39.4-.57.09-.19.13-.39.13-.62,0-.28-.08-.48-.25-.63-.16-.14-.38-.21-.64-.21s-.46.04-.64.13c-.18.08-.37.2-.56.35l-.33-.41c.2-.16.42-.3.68-.42.26-.11.54-.17.86-.17.47,0,.84.12,1.11.36s.4.56.4.97c0,.26-.05.51-.16.73s-.26.46-.45.68c-.19.22-.42.46-.67.71l-1.04,1.03v.03h2.53v.56-.02Z"/>
    </g>
    <g>
      <path d="M189.41,145.86h-.6v-3.97c0-.12,0-.25.02-.38-.08.07-.14.14-.21.19-.06.05-.14.12-.23.2l-.53.43-.32-.41,1.35-1.05h.51v5h.01Z"/>
      <path d="M194.12,142.03c0,.34-.09.6-.28.8s-.44.33-.75.4v.03c.4.05.69.17.89.38s.3.47.3.81c0,.29-.07.55-.2.78-.14.22-.34.4-.63.52s-.65.19-1.09.19c-.26,0-.5-.02-.73-.06-.22-.04-.44-.11-.64-.21v-.57c.21.11.44.19.68.24.24.06.48.08.7.08.45,0,.77-.09.97-.26.2-.18.3-.42.3-.72s-.12-.54-.37-.68-.59-.21-1.03-.21h-.48v-.52h.49c.41,0,.72-.09.93-.26.21-.17.32-.4.32-.69,0-.24-.08-.43-.25-.56-.16-.13-.38-.2-.67-.2s-.5.04-.69.12-.38.18-.57.3l-.31-.42c.18-.14.4-.26.66-.36s.56-.15.9-.15c.52,0,.91.12,1.17.35.25.23.38.53.38.89v-.02Z"/>
    </g>
    <g>
      <path d="M207.83,145.86h-.6v-3.97c0-.12,0-.25.02-.38-.08.07-.14.14-.21.19-.06.05-.14.12-.23.2l-.53.43-.32-.41,1.35-1.05h.51v5h.01Z"/>
      <path d="M213.02,144.72h-.73v1.13h-.59v-1.13h-2.39v-.53l2.35-3.37h.64v3.34h.73v.55h-.01ZM211.7,144.17v-1.58c0-.24,0-.45,0-.62s0-.33.02-.49h-.03c-.04.09-.08.18-.14.29-.06.1-.11.19-.16.26l-1.5,2.13h1.8Z"/>
    </g>
    <g>
      <path d="M226.56,145.86h-.6v-3.97c0-.12,0-.25.02-.38-.08.07-.14.14-.21.19-.06.05-.14.12-.23.2l-.53.43-.32-.41,1.35-1.05h.51v5h.01Z"/>
      <path d="M229.78,142.79c.51,0,.92.13,1.22.38.31.26.46.62.46,1.08,0,.52-.17.93-.49,1.22s-.79.44-1.38.44c-.26,0-.5-.02-.73-.07-.22-.05-.41-.11-.57-.2v-.58c.17.1.37.18.61.24.24.06.47.09.69.09.37,0,.67-.09.89-.26.23-.18.34-.45.34-.82,0-.33-.1-.58-.3-.75s-.52-.26-.95-.26c-.13,0-.28,0-.45.03s-.3.05-.41.07l-.31-.2.19-2.36h2.51v.56h-1.98l-.12,1.45c.08,0,.19-.03.32-.05.14-.02.29-.03.45-.03v.02Z"/>
    </g>
    <g>
      <path d="M245.09,145.86h-.6v-3.97c0-.12,0-.25.02-.38-.08.07-.14.14-.21.19-.06.05-.14.12-.23.2l-.53.43-.32-.41,1.35-1.05h.51v5h.01Z"/>
      <path d="M246.81,143.72c0-.36.03-.71.09-1.06s.18-.66.34-.95c.17-.28.4-.51.7-.68s.68-.25,1.16-.25c.1,0,.21,0,.33,0,.12,0,.22.03.29.05v.52c-.08-.03-.18-.05-.29-.06s-.21-.02-.31-.02c-.32,0-.59.05-.81.16s-.38.25-.51.44c-.12.19-.21.4-.27.64s-.09.5-.11.78h.04c.11-.16.26-.3.45-.42s.44-.17.73-.17c.43,0,.78.13,1.05.4.27.26.4.64.4,1.12,0,.52-.14.93-.43,1.23s-.67.45-1.16.45c-.32,0-.6-.08-.86-.24s-.46-.4-.61-.73-.23-.74-.23-1.24v.02ZM248.51,145.41c.29,0,.53-.09.71-.28s.27-.48.27-.88c0-.32-.08-.57-.24-.76-.16-.19-.4-.28-.72-.28-.22,0-.41.05-.57.14s-.29.21-.38.35c-.09.14-.14.29-.14.43,0,.2.04.4.12.6s.2.36.36.49.36.19.59.19h0Z"/>
    </g>
    <g>
      <path d="M263.73,145.86h-.6v-3.97c0-.12.01-.25.02-.38-.08.07-.14.14-.21.19-.06.05-.14.12-.23.2l-.53.43-.32-.41,1.35-1.05h.51v5h.01Z"/>
      <path d="M265.93,145.86l2.05-4.44h-2.7v-.56h3.35v.48l-2.03,4.52h-.68.01Z"/>
    </g>
    <g>
      <path d="M282.62,145.86h-.6v-3.97c0-.12.01-.25.02-.38-.08.07-.14.14-.21.19-.06.05-.14.12-.23.2l-.53.43-.32-.41,1.35-1.05h.51v5h.01Z"/>
      <path d="M285.96,140.79c.44,0,.8.1,1.08.31.28.21.42.5.42.89,0,.2-.04.38-.13.52-.09.15-.2.28-.35.4-.14.11-.3.22-.48.3.21.1.39.21.56.34.17.12.3.26.4.43.1.16.15.36.15.59,0,.42-.15.75-.45,1-.3.24-.7.37-1.19.37-.54,0-.96-.12-1.24-.35-.29-.24-.43-.57-.43-.99,0-.22.05-.42.14-.59.1-.17.22-.32.38-.44s.33-.22.51-.31c-.25-.14-.46-.31-.62-.51-.17-.2-.25-.45-.25-.76,0-.25.07-.47.2-.64s.31-.31.53-.41c.22-.09.48-.14.76-.14h0ZM284.91,144.59c0,.24.09.44.26.61.17.16.44.24.8.24.34,0,.6-.08.78-.24s.27-.37.27-.63c0-.24-.1-.44-.29-.61s-.45-.3-.76-.42l-.11-.04c-.31.14-.54.29-.7.46s-.24.38-.24.64h0ZM285.95,141.29c-.26,0-.47.06-.64.19-.16.12-.24.3-.24.54,0,.17.04.32.12.43s.19.22.33.3c.14.08.29.16.46.23.24-.1.45-.23.61-.37.17-.14.25-.34.25-.6,0-.23-.08-.41-.25-.54-.16-.12-.38-.19-.65-.19h.01Z"/>
    </g>
    <g>
      <path d="M301.06,145.86h-.6v-3.97c0-.12.01-.25.02-.38-.08.07-.14.14-.21.19-.06.05-.14.12-.23.2l-.53.43-.32-.41,1.35-1.05h.51v5h.01Z"/>
      <path d="M305.98,142.99c0,.36-.03.71-.09,1.06-.06.35-.18.66-.34.95-.17.28-.4.51-.7.68-.3.17-.69.25-1.16.25-.09,0-.2,0-.33-.02-.13,0-.23-.03-.3-.05v-.52c.18.06.39.09.62.09.33,0,.6-.05.81-.16s.38-.25.51-.44c.13-.18.22-.4.27-.64.06-.25.09-.5.1-.77h-.04c-.11.16-.26.3-.45.41s-.44.17-.74.17c-.43,0-.78-.13-1.04-.4s-.4-.64-.4-1.12c0-.35.07-.65.2-.9s.32-.45.56-.58c.24-.14.52-.2.84-.2s.6.08.86.24c.26.16.46.4.61.73.15.32.22.74.22,1.24v-.02ZM304.28,141.31c-.29,0-.53.1-.71.29-.18.19-.28.48-.28.88,0,.32.08.58.23.76.16.18.4.28.72.28.22,0,.42-.05.58-.14.16-.09.29-.21.38-.35s.14-.28.14-.43c0-.2-.04-.4-.12-.59-.08-.2-.2-.36-.36-.49-.16-.13-.36-.2-.59-.2h0Z"/>
    </g>
    <g>
      <path d="M320.58,145.86h-3.3v-.51l1.31-1.32c.25-.25.46-.48.63-.67.17-.2.31-.39.4-.57.09-.19.13-.39.13-.62,0-.28-.08-.48-.25-.63-.16-.14-.38-.21-.64-.21s-.46.04-.64.13c-.18.08-.37.2-.56.35l-.33-.41c.2-.16.42-.3.68-.42.25-.11.54-.17.86-.17.47,0,.84.12,1.11.36s.41.56.41.97c0,.26-.05.51-.16.73-.11.23-.26.46-.45.68-.19.22-.42.46-.67.71l-1.04,1.03v.03h2.53v.56l-.02-.02Z"/>
      <path d="M324.73,143.35c0,.54-.06,1-.17,1.39-.11.38-.29.68-.54.88-.24.21-.57.31-.96.31-.56,0-.98-.23-1.25-.68-.27-.46-.4-1.09-.4-1.89,0-.54.05-1,.17-1.39.11-.38.29-.68.53-.88.24-.2.56-.3.96-.3.56,0,.98.23,1.25.68s.41,1.08.41,1.89h0ZM322.03,143.35c0,.69.08,1.2.23,1.54.16.34.42.51.8.51s.64-.17.8-.51c.16-.34.24-.85.24-1.54s-.08-1.19-.24-1.53-.43-.51-.8-.51-.65.17-.8.51c-.16.34-.23.85-.23,1.53Z"/>
    </g>
    <g>
      <path d="M339.81,145.86h-3.3v-.51l1.31-1.32c.25-.25.46-.48.63-.67.17-.2.31-.39.4-.57.09-.19.13-.39.13-.62,0-.28-.08-.48-.25-.63-.16-.14-.38-.21-.64-.21s-.46.04-.64.13c-.18.08-.37.2-.56.35l-.33-.41c.2-.16.42-.3.68-.42.25-.11.54-.17.86-.17.47,0,.84.12,1.11.36s.41.56.41.97c0,.26-.05.51-.16.73-.11.23-.26.46-.45.68-.19.22-.42.46-.67.71l-1.04,1.03v.03h2.53v.56l-.02-.02Z"/>
      <path d="M342.68,145.86h-.6v-3.97c0-.12.01-.25.02-.38-.08.07-.14.14-.21.19-.06.05-.14.12-.23.2l-.53.43-.32-.41,1.35-1.05h.51v5h.01Z"/>
    </g>
    <g>
      <path d="M357.7,145.86h-3.3v-.51l1.31-1.32c.25-.25.46-.48.63-.67.17-.2.31-.39.4-.57.09-.19.13-.39.13-.62,0-.28-.08-.48-.25-.63-.16-.14-.38-.21-.64-.21s-.46.04-.64.13c-.18.08-.37.2-.56.35l-.33-.41c.2-.16.42-.3.68-.42.25-.11.54-.17.86-.17.47,0,.84.12,1.11.36s.41.56.41.97c0,.26-.05.51-.16.73-.11.23-.26.46-.45.68-.19.22-.42.46-.67.71l-1.04,1.03v.03h2.53v.56l-.02-.02Z"/>
      <path d="M361.95,145.86h-3.3v-.51l1.31-1.32c.25-.25.46-.48.63-.67.17-.2.31-.39.4-.57.09-.19.13-.39.13-.62,0-.28-.08-.48-.25-.63-.16-.14-.38-.21-.64-.21s-.46.04-.64.13c-.18.08-.37.2-.56.35l-.33-.41c.2-.16.42-.3.68-.42.25-.11.54-.17.86-.17.47,0,.84.12,1.11.36s.41.56.41.97c0,.26-.05.51-.16.73-.11.23-.26.46-.45.68-.19.22-.42.46-.67.71l-1.04,1.03v.03h2.53v.56l-.02-.02Z"/>
    </g>
    <g>
      <path d="M376.27,145.86h-3.3v-.51l1.31-1.32c.25-.25.46-.48.63-.67.17-.2.31-.39.4-.57.09-.19.13-.39.13-.62,0-.28-.08-.48-.25-.63-.16-.14-.38-.21-.64-.21s-.46.04-.64.13c-.18.08-.37.2-.56.35l-.33-.41c.2-.16.42-.3.68-.42.25-.11.54-.17.86-.17.47,0,.84.12,1.11.36s.41.56.41.97c0,.26-.05.51-.16.73-.11.23-.26.46-.45.68-.19.22-.42.46-.67.71l-1.04,1.03v.03h2.53v.56l-.02-.02Z"/>
      <path d="M380.35,142.03c0,.34-.09.6-.28.8s-.44.33-.75.4v.03c.4.05.69.17.89.38s.3.47.3.81c0,.29-.07.55-.2.78-.14.22-.34.4-.63.52s-.65.19-1.09.19c-.26,0-.5-.02-.73-.06-.22-.04-.44-.11-.64-.21v-.57c.21.11.44.19.68.24.24.06.48.08.7.08.45,0,.77-.09.97-.26.2-.18.3-.42.3-.72s-.12-.54-.37-.68-.59-.21-1.03-.21h-.48v-.52h.49c.41,0,.72-.09.93-.26s.32-.4.32-.69c0-.24-.08-.43-.25-.56-.16-.13-.38-.2-.67-.2s-.5.04-.69.12-.38.18-.57.3l-.31-.42c.18-.14.4-.26.66-.36s.56-.15.9-.15c.52,0,.91.12,1.17.35.25.23.38.53.38.89v-.02Z"/>
    </g>
    <g>
      <path d="M394.93,145.86h-3.3v-.51l1.31-1.32c.25-.25.46-.48.63-.67.17-.2.31-.39.4-.57.09-.19.13-.39.13-.62,0-.28-.08-.48-.25-.63-.16-.14-.38-.21-.64-.21s-.46.04-.64.13c-.18.08-.37.2-.56.35l-.33-.41c.2-.16.42-.3.68-.42.25-.11.54-.17.86-.17.47,0,.84.12,1.11.36s.41.56.41.97c0,.26-.05.51-.16.73-.11.23-.26.46-.45.68-.19.22-.42.46-.67.71l-1.04,1.03v.03h2.53v.56l-.02-.02Z"/>
      <path d="M399.26,144.72h-.73v1.13h-.59v-1.13h-2.39v-.53l2.35-3.37h.64v3.34h.73v.55h-.01ZM397.94,144.17v-1.58c0-.24,0-.45.01-.62s.01-.33.02-.49h-.03c-.04.09-.08.18-.14.29-.06.1-.11.19-.16.26l-1.5,2.13h1.8Z"/>
    </g>
    <g>
      <path d="M413.46,145.86h-3.3v-.51l1.31-1.32c.25-.25.46-.48.63-.67.17-.2.31-.39.4-.57.09-.19.13-.39.13-.62,0-.28-.08-.48-.25-.63-.16-.14-.38-.21-.64-.21s-.46.04-.64.13c-.18.08-.37.2-.56.35l-.33-.41c.2-.16.42-.3.68-.42.25-.11.54-.17.86-.17.47,0,.84.12,1.11.36s.41.56.41.97c0,.26-.05.51-.16.73-.11.23-.26.46-.45.68-.19.22-.42.46-.67.71l-1.04,1.03v.03h2.53v.56l-.02-.02Z"/>
      <path d="M415.95,142.79c.51,0,.92.13,1.22.38.31.26.46.62.46,1.08,0,.52-.17.93-.49,1.22s-.79.44-1.38.44c-.26,0-.5-.02-.73-.07-.22-.05-.41-.11-.57-.2v-.58c.17.1.37.18.61.24.24.06.47.09.69.09.37,0,.67-.09.89-.26.23-.18.34-.45.34-.82,0-.33-.1-.58-.3-.75-.2-.17-.52-.26-.95-.26-.13,0-.28,0-.45.03s-.3.05-.41.07l-.31-.2.19-2.36h2.51v.56h-1.98l-.12,1.45c.08,0,.19-.03.32-.05.14-.02.29-.03.45-.03v.02Z"/>
    </g>
    <g>
      <path class="st6" d="M6.39,157.71c0,.43-.08.83-.24,1.22-.16.38-.39.73-.7,1.04-.3.3-.64.53-1.03.69s-.79.24-1.22.24-.84-.08-1.23-.24c-.39-.16-.73-.39-1.03-.69-.3-.31-.54-.65-.7-1.04-.16-.38-.24-.79-.24-1.22s.08-.83.24-1.22.39-.73.7-1.04c.3-.3.65-.53,1.03-.69.39-.16.79-.24,1.22-.24s.84.08,1.22.24c.38.16.73.39,1.04.7.3.31.54.65.7,1.04s.24.79.24,1.22h0Z"/>
      <g>
        <path d="M10.94,160.57h-1.68v-.29l.61-.09v-4.95l-.61-.1v-.29h1.68v.29l-.61.1v4.95l.61.09v.29Z"/>
        <path d="M13.95,156.24c.48,0,.86.12,1.11.38s.38.64.38,1.18v2.78h-.46v-2.75c0-.41-.09-.7-.28-.9-.18-.19-.46-.29-.81-.29-.94,0-1.41.54-1.41,1.62v2.32h-.45v-4.26h.37l.06.74h.03c.11-.24.29-.43.53-.58.24-.16.54-.23.91-.23h.02Z"/>
        <path d="M17.74,160.57l-1.63-4.26h.48l1.06,2.82c.07.18.13.35.19.52.06.17.1.32.13.46h.03c.04-.13.08-.29.14-.46.06-.17.12-.35.18-.52l1.06-2.82h.49l-1.63,4.26h-.5Z"/>
        <path d="M22.18,156.24c.36,0,.67.08.91.25.25.17.43.4.55.69.12.29.18.63.18,1.01v.32h-3.04c0,.56.13.99.39,1.29.26.3.64.45,1.13.45.27,0,.5-.02.7-.06s.41-.12.65-.22v.42c-.21.1-.42.17-.63.21-.21.04-.45.06-.73.06-.63,0-1.12-.19-1.46-.58s-.51-.92-.51-1.59c0-.43.07-.82.22-1.16s.36-.6.64-.8c.28-.19.61-.29,1.01-.29h0ZM22.18,156.62c-.39,0-.71.13-.95.39-.24.26-.39.63-.43,1.11h2.55c0-.45-.09-.81-.28-1.09s-.49-.42-.89-.42h0Z"/>
        <path d="M27.66,159.44c0,.39-.14.69-.43.9s-.69.31-1.22.31c-.3,0-.56-.03-.79-.08-.23-.05-.42-.12-.57-.19v-.44c.19.1.4.17.64.24.24.06.49.09.74.09.42,0,.72-.07.9-.21.19-.14.28-.33.28-.58s-.1-.42-.29-.54c-.19-.13-.49-.25-.88-.39-.26-.09-.49-.18-.69-.27-.2-.09-.36-.21-.47-.36-.11-.15-.17-.34-.17-.6,0-.34.14-.61.42-.8s.65-.29,1.11-.29c.26,0,.5.03.72.08s.42.11.6.19l-.16.38c-.17-.07-.35-.14-.56-.18s-.42-.07-.62-.07c-.34,0-.6.06-.78.18-.19.12-.28.29-.28.51,0,.17.04.3.14.4s.22.18.39.26c.17.07.38.15.62.24.25.09.48.18.68.27.21.1.37.22.49.37.12.15.18.35.18.6v-.02Z"/>
        <path d="M29.93,160.27c.12,0,.23,0,.34-.03s.2-.04.28-.07v.37c-.08.03-.18.06-.3.08-.11.02-.24.03-.38.03-.35,0-.62-.1-.82-.3-.19-.2-.29-.52-.29-.96v-2.7h-.63v-.26l.63-.14.16-.98h.29v1.02h1.31v.37h-1.31v2.69c0,.6.24.9.72.9v-.02Z"/>
        <path d="M35.9,156.24c.42,0,.75.12.99.36s.36.62.36,1.14v2.84h-.45v-2.82c0-.38-.08-.67-.26-.85s-.41-.27-.7-.27c-.41,0-.72.12-.94.36s-.33.6-.33,1.1v2.48h-.45v-2.82c0-.38-.08-.67-.26-.85s-.41-.27-.7-.27c-.41,0-.72.12-.94.37-.22.25-.33.63-.33,1.15v2.42h-.45v-4.26h.37l.06.67h.03c.11-.21.27-.39.48-.53.22-.15.49-.22.83-.22.31,0,.57.07.78.2.21.13.36.33.45.6h.03c.12-.26.3-.45.54-.59s.53-.21.86-.21h.03Z"/>
        <path d="M40.22,156.24c.36,0,.67.08.91.25.25.17.43.4.55.69.12.29.18.63.18,1.01v.32h-3.04c0,.56.13.99.39,1.29.26.3.64.45,1.13.45.27,0,.5-.02.7-.06s.41-.12.65-.22v.42c-.21.1-.42.17-.63.21-.21.04-.45.06-.73.06-.63,0-1.12-.19-1.46-.58s-.51-.92-.51-1.59c0-.43.07-.82.22-1.16s.36-.6.64-.8c.28-.19.61-.29,1.01-.29h-.01ZM40.21,156.62c-.39,0-.71.13-.95.39s-.39.63-.43,1.11h2.55c0-.45-.09-.81-.28-1.09s-.49-.42-.89-.42h0Z"/>
        <path d="M44.92,156.24c.48,0,.86.12,1.11.38s.38.64.38,1.18v2.78h-.46v-2.75c0-.41-.09-.7-.28-.9-.18-.19-.46-.29-.81-.29-.94,0-1.41.54-1.41,1.62v2.32h-.45v-4.26h.37l.06.74h.03c.11-.24.29-.43.53-.58.24-.16.54-.23.91-.23h.02Z"/>
        <path d="M48.98,160.27c.12,0,.23,0,.34-.03s.2-.04.28-.07v.37c-.08.03-.18.06-.3.08-.11.02-.24.03-.38.03-.35,0-.62-.1-.82-.3-.19-.2-.29-.52-.29-.96v-2.7h-.63v-.26l.63-.14.16-.98h.29v1.02h1.31v.37h-1.31v2.69c0,.6.24.9.72.9v-.02Z"/>
        <path d="M53.18,159.44c0,.39-.14.69-.43.9s-.69.31-1.22.31c-.3,0-.56-.03-.79-.08s-.42-.12-.57-.19v-.44c.19.1.4.17.64.24.24.06.49.09.74.09.42,0,.72-.07.9-.21.19-.14.28-.33.28-.58s-.1-.42-.29-.54c-.19-.13-.49-.25-.88-.39-.26-.09-.49-.18-.69-.27-.2-.09-.36-.21-.47-.36s-.17-.34-.17-.6c0-.34.14-.61.42-.8s.65-.29,1.11-.29c.26,0,.5.03.72.08s.42.11.6.19l-.16.38c-.17-.07-.35-.14-.56-.18s-.42-.07-.62-.07c-.34,0-.6.06-.78.18-.19.12-.28.29-.28.51,0,.17.04.3.14.4s.22.18.39.26c.17.07.38.15.62.24.25.09.48.18.68.27.21.1.37.22.49.37.12.15.18.35.18.6v-.02Z"/>
      </g>
    </g>
    <g>
      <path class="st5" d="M73.73,157.71c0,.43-.08.83-.24,1.22-.16.38-.39.73-.7,1.04s-.64.53-1.03.69-.79.24-1.22.24-.84-.08-1.23-.24c-.39-.16-.73-.39-1.03-.69-.31-.31-.54-.65-.7-1.04-.16-.38-.24-.79-.24-1.22s.08-.83.24-1.22c.16-.39.39-.73.7-1.04s.64-.53,1.03-.69.79-.24,1.22-.24.84.08,1.22.24c.38.16.73.39,1.04.7s.54.65.7,1.04.24.79.24,1.22h0Z"/>
      <g>
        <path d="M80.98,157.66c0,.96-.25,1.69-.76,2.18-.51.49-1.25.74-2.22.74h-1.41v-5.71h1.58c.91,0,1.6.24,2.08.72s.72,1.17.72,2.08h.01ZM80.5,157.68c0-1.6-.8-2.41-2.41-2.41h-1.03v4.9h.91c1.69,0,2.53-.83,2.53-2.49h0Z"/>
        <path d="M82.41,154.74c.21,0,.32.12.32.34s-.11.35-.32.35-.3-.12-.3-.35.1-.34.3-.34ZM82.64,156.32v4.26h-.45v-4.26h.45Z"/>
        <path d="M84.97,160.57l-1.63-4.26h.48l1.06,2.82c.07.18.13.35.19.52.06.17.1.32.13.46h.03c.04-.13.08-.29.14-.46.06-.17.12-.35.18-.52l1.06-2.82h.49l-1.63,4.26h-.5Z"/>
        <path d="M89.42,156.24c.36,0,.67.08.91.25.25.17.43.4.55.69.12.29.18.63.18,1.01v.32h-3.04c0,.56.13.99.39,1.29.26.3.64.45,1.13.45.27,0,.5-.02.7-.06s.41-.12.65-.22v.42c-.21.1-.42.17-.63.21-.21.04-.45.06-.73.06-.63,0-1.12-.19-1.46-.58s-.51-.92-.51-1.59c0-.43.07-.82.22-1.16s.36-.6.64-.8c.28-.19.61-.29,1.01-.29h-.01ZM89.41,156.62c-.39,0-.71.13-.95.39s-.39.63-.43,1.11h2.55c0-.45-.09-.81-.28-1.09s-.49-.42-.89-.42h0Z"/>
        <path d="M94.89,159.44c0,.39-.14.69-.43.9s-.69.31-1.22.31c-.3,0-.56-.03-.79-.08s-.42-.12-.57-.19v-.44c.19.1.4.17.64.24.24.06.49.09.74.09.42,0,.72-.07.9-.21.19-.14.28-.33.28-.58s-.1-.42-.29-.54c-.19-.13-.49-.25-.88-.39-.26-.09-.49-.18-.69-.27-.2-.09-.36-.21-.47-.36s-.17-.34-.17-.6c0-.34.14-.61.42-.8s.65-.29,1.11-.29c.26,0,.5.03.72.08s.42.11.6.19l-.16.38c-.17-.07-.35-.14-.56-.18s-.42-.07-.62-.07c-.34,0-.6.06-.78.18-.19.12-.28.29-.28.51,0,.17.04.3.14.4s.22.18.39.26c.17.07.38.15.62.24.25.09.48.18.68.27.21.1.37.22.49.37.12.15.18.35.18.6v-.02Z"/>
        <path d="M97.16,160.27c.12,0,.23,0,.34-.03s.2-.04.28-.07v.37c-.08.03-.18.06-.3.08-.11.02-.24.03-.38.03-.35,0-.62-.1-.82-.3-.19-.2-.29-.52-.29-.96v-2.7h-.63v-.26l.63-.14.16-.98h.29v1.02h1.31v.37h-1.31v2.69c0,.6.24.9.72.9v-.02Z"/>
        <path d="M103.13,156.24c.42,0,.75.12.99.36s.36.62.36,1.14v2.84h-.45v-2.82c0-.38-.08-.67-.26-.85s-.41-.27-.7-.27c-.41,0-.72.12-.94.36s-.33.6-.33,1.1v2.48h-.45v-2.82c0-.38-.08-.67-.26-.85s-.41-.27-.7-.27c-.41,0-.72.12-.94.37s-.33.63-.33,1.15v2.42h-.45v-4.26h.37l.06.67h.03c.11-.21.27-.39.48-.53.22-.15.49-.22.83-.22.31,0,.57.07.78.2.21.13.36.33.45.6h.03c.12-.26.3-.45.54-.59s.53-.21.86-.21h.03Z"/>
        <path d="M107.45,156.24c.36,0,.67.08.91.25.25.17.43.4.55.69.12.29.18.63.18,1.01v.32h-3.04c0,.56.13.99.39,1.29.26.3.64.45,1.13.45.27,0,.5-.02.7-.06s.41-.12.65-.22v.42c-.21.1-.42.17-.63.21-.21.04-.45.06-.73.06-.63,0-1.12-.19-1.46-.58s-.51-.92-.51-1.59c0-.43.07-.82.22-1.16s.36-.6.64-.8c.28-.19.61-.29,1.01-.29h-.01ZM107.44,156.62c-.39,0-.71.13-.95.39s-.39.63-.43,1.11h2.55c0-.45-.09-.81-.28-1.09s-.49-.42-.89-.42h0Z"/>
        <path d="M112.15,156.24c.48,0,.86.12,1.11.38s.38.64.38,1.18v2.78h-.46v-2.75c0-.41-.09-.7-.28-.9-.18-.19-.46-.29-.81-.29-.94,0-1.41.54-1.41,1.62v2.32h-.45v-4.26h.37l.06.74h.03c.11-.24.29-.43.53-.58.24-.16.54-.23.91-.23h.02Z"/>
        <path d="M116.22,160.27c.12,0,.23,0,.34-.03s.2-.04.28-.07v.37c-.08.03-.18.06-.3.08-.11.02-.24.03-.38.03-.35,0-.62-.1-.82-.3-.19-.2-.29-.52-.29-.96v-2.7h-.63v-.26l.63-.14.16-.98h.29v1.02h1.31v.37h-1.31v2.69c0,.6.24.9.72.9v-.02Z"/>
        <path d="M120.41,159.44c0,.39-.14.69-.43.9s-.69.31-1.22.31c-.3,0-.56-.03-.79-.08s-.42-.12-.57-.19v-.44c.19.1.4.17.64.24.24.06.49.09.74.09.42,0,.72-.07.9-.21.19-.14.28-.33.28-.58s-.1-.42-.29-.54c-.19-.13-.49-.25-.88-.39-.26-.09-.49-.18-.69-.27-.2-.09-.36-.21-.47-.36s-.17-.34-.17-.6c0-.34.14-.61.42-.8s.65-.29,1.11-.29c.26,0,.5.03.72.08s.42.11.6.19l-.16.38c-.17-.07-.35-.14-.56-.18s-.42-.07-.62-.07c-.34,0-.6.06-.78.18-.19.12-.28.29-.28.51,0,.17.04.3.14.4s.22.18.39.26c.17.07.38.15.62.24.25.09.48.18.68.27.21.1.37.22.49.37.12.15.18.35.18.6v-.02Z"/>
      </g>
    </g>
    <g>
      <line class="st1" x1="135.09" y1="157.71" x2="143.59" y2="157.71"/>
      <g>
        <path d="M151.19,160.57h-.5l-3.3-4.99h-.02c0,.21.02.43.02.66v4.33h-.43v-5.71h.5l3.3,4.98h.03c0-.17-.02-.38-.02-.64v-4.34h.43v5.71h0Z"/>
        <path d="M154.65,156.24c.36,0,.67.08.91.25.25.17.43.4.55.69.12.29.18.63.18,1.01v.32h-3.04c0,.56.13.99.39,1.29.26.3.64.45,1.13.45.27,0,.5-.02.7-.06s.41-.12.65-.22v.42c-.21.1-.42.17-.63.21-.21.04-.45.06-.73.06-.63,0-1.12-.19-1.46-.58-.34-.39-.51-.92-.51-1.59,0-.43.07-.82.22-1.16s.36-.6.64-.8c.28-.19.61-.29,1.01-.29h0ZM154.64,156.62c-.39,0-.71.13-.95.39-.24.26-.39.63-.43,1.11h2.55c0-.45-.09-.81-.28-1.09s-.49-.42-.89-.42h0Z"/>
        <path d="M158.99,160.27c.12,0,.23,0,.34-.03s.2-.04.28-.07v.37c-.08.03-.18.06-.3.08-.11.02-.24.03-.38.03-.35,0-.62-.1-.82-.3-.19-.2-.29-.52-.29-.96v-2.7h-.63v-.26l.63-.14.16-.98h.29v1.02h1.31v.37h-1.31v2.69c0,.6.24.9.72.9v-.02Z"/>
        <path d="M164.36,160.57h-1.68v-.29l.61-.09v-4.95l-.61-.1v-.29h1.68v.29l-.61.1v4.95l.61.09v.29Z"/>
        <path d="M167.66,156.24c.48,0,.86.13,1.11.38s.38.64.38,1.18v2.78h-.46v-2.75c0-.41-.09-.7-.28-.9s-.46-.29-.81-.29c-.94,0-1.41.54-1.41,1.62v2.32h-.45v-4.26h.37l.06.74h.03c.11-.23.29-.43.53-.58.24-.15.54-.23.91-.23h.02Z"/>
        <path d="M171.77,160.57l-1.63-4.26h.48l1.06,2.82c.07.18.13.35.19.52s.1.32.13.46h.03c.04-.13.08-.29.14-.46.06-.17.12-.35.18-.52l1.06-2.82h.49l-1.63,4.26h-.5Z"/>
        <path d="M176.53,156.24c.36,0,.67.08.91.25.25.17.43.4.55.69.12.29.18.63.18,1.01v.32h-3.04c0,.56.13.99.39,1.29.26.3.64.45,1.13.45.27,0,.5-.02.7-.06s.41-.12.65-.22v.42c-.21.1-.42.17-.63.21-.21.04-.45.06-.73.06-.63,0-1.12-.19-1.46-.58-.34-.39-.51-.92-.51-1.59,0-.43.07-.82.22-1.16s.36-.6.64-.8c.28-.19.61-.29,1.01-.29h0ZM176.52,156.62c-.39,0-.71.13-.95.39-.24.26-.39.63-.43,1.11h2.55c0-.45-.09-.81-.28-1.09s-.49-.42-.89-.42h0Z"/>
        <path d="M182.35,159.44c0,.39-.14.69-.43.9s-.69.31-1.22.31c-.3,0-.56-.03-.79-.08s-.42-.12-.57-.19v-.44c.19.1.4.17.64.24.24.06.49.09.74.09.42,0,.72-.07.9-.21.19-.14.28-.33.28-.58s-.1-.41-.29-.54c-.19-.12-.49-.25-.88-.39-.26-.09-.49-.18-.69-.27-.2-.09-.36-.21-.47-.36s-.17-.35-.17-.6c0-.34.14-.61.42-.8s.65-.29,1.11-.29c.26,0,.5.03.72.08s.42.11.6.19l-.16.38c-.17-.07-.35-.14-.56-.18-.21-.05-.42-.07-.62-.07-.34,0-.6.06-.78.18-.19.12-.28.29-.28.51,0,.17.04.31.14.4s.22.18.39.26c.17.07.38.15.62.24.25.09.48.18.68.27.21.1.37.22.49.37s.18.35.18.6v-.02Z"/>
        <path d="M185.14,160.27c.12,0,.23,0,.34-.03s.2-.04.28-.07v.37c-.08.03-.18.06-.3.08-.11.02-.24.03-.38.03-.35,0-.62-.1-.82-.3-.19-.2-.29-.52-.29-.96v-2.7h-.63v-.26l.63-.14.16-.98h.29v1.02h1.31v.37h-1.31v2.69c0,.6.24.9.72.9v-.02Z"/>
        <path d="M191.46,156.24c.42,0,.75.12.99.36s.36.62.36,1.14v2.84h-.45v-2.82c0-.38-.08-.67-.26-.85-.17-.18-.41-.27-.7-.27-.41,0-.72.12-.94.36s-.33.6-.33,1.1v2.48h-.45v-2.82c0-.38-.08-.67-.26-.85-.17-.18-.41-.27-.7-.27-.41,0-.72.12-.94.37s-.33.63-.33,1.15v2.42h-.45v-4.26h.37l.06.67h.03c.11-.21.27-.39.48-.53.22-.15.49-.22.83-.22.31,0,.57.07.78.2.21.13.36.33.45.6h.03c.12-.26.3-.45.54-.59s.53-.21.86-.21h.03Z"/>
        <path d="M196.13,156.24c.36,0,.67.08.91.25.25.17.43.4.55.69.12.29.18.63.18,1.01v.32h-3.04c0,.56.13.99.39,1.29.26.3.64.45,1.13.45.27,0,.5-.02.7-.06s.41-.12.65-.22v.42c-.21.1-.42.17-.63.21-.21.04-.45.06-.73.06-.63,0-1.12-.19-1.46-.58-.34-.39-.51-.92-.51-1.59,0-.43.07-.82.22-1.16s.36-.6.64-.8c.28-.19.61-.29,1.01-.29h0ZM196.12,156.62c-.39,0-.71.13-.95.39-.24.26-.39.63-.43,1.11h2.55c0-.45-.09-.81-.28-1.09s-.49-.42-.89-.42h0Z"/>
        <path d="M201.15,156.24c.48,0,.86.13,1.11.38s.38.64.38,1.18v2.78h-.46v-2.75c0-.41-.09-.7-.28-.9s-.46-.29-.81-.29c-.94,0-1.41.54-1.41,1.62v2.32h-.45v-4.26h.37l.06.74h.03c.11-.23.29-.43.53-.58.24-.15.54-.23.91-.23h.02Z"/>
        <path d="M205.53,160.27c.12,0,.23,0,.34-.03s.2-.04.28-.07v.37c-.08.03-.18.06-.3.08-.11.02-.24.03-.38.03-.35,0-.62-.1-.82-.3-.19-.2-.29-.52-.29-.96v-2.7h-.63v-.26l.63-.14.16-.98h.29v1.02h1.31v.37h-1.31v2.69c0,.6.24.9.72.9v-.02Z"/>
        <path d="M209.7,154.86l-2.14,5.71h-.45l2.13-5.71h.46,0Z"/>
        <path d="M210.37,158.38c0-.68.1-1.33.3-1.93.2-.6.49-1.13.87-1.59h.46c-.39.49-.68,1.04-.88,1.64-.19.6-.29,1.23-.29,1.88s.1,1.26.29,1.85c.19.59.48,1.13.87,1.62h-.46c-.38-.46-.67-.98-.87-1.57-.2-.59-.3-1.22-.3-1.89h.01Z"/>
        <path d="M217.76,157.66c0,.96-.25,1.69-.76,2.18s-1.25.74-2.22.74h-1.41v-5.71h1.58c.91,0,1.6.24,2.08.72s.72,1.17.72,2.08h0ZM217.28,157.68c0-1.61-.8-2.41-2.41-2.41h-1.03v4.9h.91c1.69,0,2.53-.83,2.53-2.49h0Z"/>
        <path d="M219.54,154.74c.21,0,.32.11.32.34s-.11.35-.32.35-.3-.12-.3-.35.1-.34.3-.34ZM219.77,156.32v4.26h-.45v-4.26h.45Z"/>
        <path d="M222.55,160.57l-1.63-4.26h.48l1.06,2.82c.07.18.13.35.19.52s.1.32.13.46h.03c.04-.13.08-.29.14-.46.06-.17.12-.35.18-.52l1.06-2.82h.49l-1.63,4.26h-.5Z"/>
        <path d="M227.31,156.24c.36,0,.67.08.91.25.25.17.43.4.55.69.12.29.18.63.18,1.01v.32h-3.04c0,.56.13.99.39,1.29.26.3.64.45,1.13.45.27,0,.5-.02.7-.06s.41-.12.65-.22v.42c-.21.1-.42.17-.63.21-.21.04-.45.06-.73.06-.63,0-1.12-.19-1.46-.58-.34-.39-.51-.92-.51-1.59,0-.43.07-.82.22-1.16s.36-.6.64-.8c.28-.19.61-.29,1.01-.29h0ZM227.3,156.62c-.39,0-.71.13-.95.39-.24.26-.39.63-.43,1.11h2.55c0-.45-.09-.81-.28-1.09s-.49-.42-.89-.42h0Z"/>
        <path d="M233.13,159.44c0,.39-.14.69-.43.9s-.69.31-1.22.31c-.3,0-.56-.03-.79-.08s-.42-.12-.57-.19v-.44c.19.1.4.17.64.24.24.06.49.09.74.09.42,0,.72-.07.9-.21.19-.14.28-.33.28-.58s-.1-.41-.29-.54c-.19-.12-.49-.25-.88-.39-.26-.09-.49-.18-.69-.27-.2-.09-.36-.21-.47-.36s-.17-.35-.17-.6c0-.34.14-.61.42-.8s.65-.29,1.11-.29c.26,0,.5.03.72.08s.42.11.6.19l-.16.38c-.17-.07-.35-.14-.56-.18-.21-.05-.42-.07-.62-.07-.34,0-.6.06-.78.18-.19.12-.28.29-.28.51,0,.17.04.31.14.4s.22.18.39.26c.17.07.38.15.62.24.25.09.48.18.68.27.21.1.37.22.49.37s.18.35.18.6v-.02Z"/>
        <path d="M235.92,160.27c.12,0,.23,0,.34-.03s.2-.04.28-.07v.37c-.08.03-.18.06-.3.08-.11.02-.24.03-.38.03-.35,0-.62-.1-.82-.3-.19-.2-.29-.52-.29-.96v-2.7h-.63v-.26l.63-.14.16-.98h.29v1.02h1.31v.37h-1.31v2.69c0,.6.24.9.72.9v-.02Z"/>
        <path d="M242.24,156.24c.42,0,.75.12.99.36s.36.62.36,1.14v2.84h-.45v-2.82c0-.38-.08-.67-.26-.85-.17-.18-.41-.27-.7-.27-.41,0-.72.12-.94.36s-.33.6-.33,1.1v2.48h-.45v-2.82c0-.38-.08-.67-.26-.85-.17-.18-.41-.27-.7-.27-.41,0-.72.12-.94.37s-.33.63-.33,1.15v2.42h-.45v-4.26h.37l.06.67h.03c.11-.21.27-.39.48-.53.22-.15.49-.22.83-.22.31,0,.57.07.78.2.21.13.36.33.45.6h.03c.12-.26.3-.45.54-.59s.53-.21.86-.21h.03Z"/>
        <path d="M246.91,156.24c.36,0,.67.08.91.25.25.17.43.4.55.69.12.29.18.63.18,1.01v.32h-3.04c0,.56.13.99.39,1.29.26.3.64.45,1.13.45.27,0,.5-.02.7-.06s.41-.12.65-.22v.42c-.21.1-.42.17-.63.21-.21.04-.45.06-.73.06-.63,0-1.12-.19-1.46-.58-.34-.39-.51-.92-.51-1.59,0-.43.07-.82.22-1.16s.36-.6.64-.8c.28-.19.61-.29,1.01-.29h0ZM246.9,156.62c-.39,0-.71.13-.95.39-.24.26-.39.63-.43,1.11h2.55c0-.45-.09-.81-.28-1.09s-.49-.42-.89-.42h0Z"/>
        <path d="M251.93,156.24c.48,0,.86.13,1.11.38s.38.64.38,1.18v2.78h-.46v-2.75c0-.41-.09-.7-.28-.9s-.46-.29-.81-.29c-.94,0-1.41.54-1.41,1.62v2.32h-.45v-4.26h.37l.06.74h.03c.11-.23.29-.43.53-.58.24-.15.54-.23.91-.23h.02Z"/>
        <path d="M256.31,160.27c.12,0,.23,0,.34-.03s.2-.04.28-.07v.37c-.08.03-.18.06-.3.08-.11.02-.24.03-.38.03-.35,0-.62-.1-.82-.3-.19-.2-.29-.52-.29-.96v-2.7h-.63v-.26l.63-.14.16-.98h.29v1.02h1.31v.37h-1.31v2.69c0,.6.24.9.72.9v-.02Z"/>
        <path d="M259.28,158.35c0,.68-.1,1.32-.3,1.92s-.49,1.12-.87,1.57h-.46c.39-.49.68-1.03.87-1.62s.29-1.21.29-1.86-.1-1.27-.29-1.86-.49-1.13-.88-1.62h.46c.38.46.67.99.87,1.58.2.59.3,1.23.3,1.9h.01Z"/>
      </g>
    </g>
  </g>
  <g id="Graph">
    <g>
      <rect class="st0" x="0" y="76.52" width="10.11" height=".04"/>
      <rect class="st7" x="18.59" y="72.92" width="10.11" height="3.64"/>
      <rect class="st7" x="37.18" y="62.38" width="10.11" height="14.19"/>
      <rect class="st7" x="55.76" y="53.44" width="10.11" height="23.13"/>
      <rect class="st7" x="74.35" y="59.05" width="10.11" height="17.51"/>
      <rect class="st7" x="92.93" y="40.92" width="10.11" height="35.64"/>
      <rect class="st7" x="111.52" y="66.69" width="10.11" height="9.87"/>
      <rect class="st7" x="130.1" y="64.91" width="10.11" height="11.65"/>
      <rect class="st7" x="148.69" y="62.22" width="10.11" height="14.34"/>
      <rect class="st7" x="167.27" y="51.82" width="10.11" height="24.74"/>
      <rect class="st7" x="185.85" y="54.56" width="10.11" height="22"/>
      <rect class="st7" x="204.44" y="49.99" width="10.11" height="26.57"/>
      <rect class="st7" x="223.02" y="42.89" width="10.11" height="33.67"/>
      <rect class="st7" x="241.61" y="42.77" width="10.11" height="33.8"/>
      <rect class="st7" x="260.19" y="58.57" width="10.11" height="17.99"/>
      <rect class="st7" x="278.78" y="44.52" width="10.11" height="32.04"/>
      <rect class="st7" x="297.36" y="49.73" width="10.11" height="26.83"/>
      <rect class="st7" x="315.94" y="40.48" width="10.11" height="36.08"/>
      <rect class="st7" x="334.53" y="21.94" width="10.11" height="54.62"/>
      <rect class="st7" x="353.11" y="7.99" width="10.11" height="68.57"/>
      <rect class="st7" x="371.7" y="42.1" width="10.11" height="34.47"/>
      <rect class="st7" x="390.28" y="47.53" width="10.11" height="29.03"/>
      <rect class="st6" x="408.87" y="18.07" width="10.11" height="58.49"/>
    </g>
    <g>
      <rect class="st3" x="0" y="76.56" width="10.11" height=".36"/>
      <rect class="st3" x="18.59" y="76.56" width="10.11" height="1.42"/>
      <rect class="st3" x="37.18" y="76.56" width="10.11" height="5.6"/>
      <rect class="st3" x="55.77" y="76.56" width="10.11" height="14.83"/>
      <rect class="st3" x="74.35" y="76.56" width="10.11" height="6.05"/>
      <rect class="st3" x="92.93" y="76.56" width="10.11" height="18.63"/>
      <rect class="st3" x="111.52" y="76.56" width="10.11" height="17.9"/>
      <rect class="st3" x="130.1" y="76.56" width="10.11" height="6.6"/>
      <rect class="st3" x="148.69" y="76.56" width="10.11" height="9.74"/>
      <rect class="st3" x="167.27" y="76.56" width="10.11" height="16.88"/>
      <rect class="st3" x="185.85" y="76.56" width="10.11" height="14.41"/>
      <rect class="st3" x="204.44" y="76.56" width="10.11" height="10.96"/>
      <rect class="st3" x="223.03" y="76.56" width="10.11" height="20.67"/>
      <rect class="st3" x="241.61" y="76.56" width="10.11" height="31.47"/>
      <rect class="st3" x="260.19" y="76.56" width="10.11" height="20.48"/>
      <rect class="st3" x="278.78" y="76.56" width="10.11" height="17.79"/>
      <rect class="st3" x="297.36" y="76.56" width="10.11" height="31.59"/>
      <rect class="st3" x="315.95" y="76.56" width="10.11" height="29.42"/>
      <rect class="st3" x="334.53" y="76.56" width="10.11" height="43.65"/>
      <rect class="st3" x="353.12" y="76.56" width="10.11" height="41.42"/>
      <rect class="st3" x="371.7" y="76.56" width="10.11" height="29.98"/>
      <rect class="st3" x="390.29" y="76.56" width="10.11" height="36.8"/>
      <rect class="st5" x="408.86" y="76.56" width="10.11" height="46.53"/>
    </g>
  </g>
  <g id="Line_graph">
    <line class="st2" x1="0" y1="76.56" x2="437.58" y2="76.56"/>
    <g>
      <line class="st1" x1="23.65" y1="74.34" x2="5.07" y2="76.87"/>
      <line class="st1" x1="42.24" y1="67.98" x2="23.65" y2="74.34"/>
      <line class="st1" x1="60.82" y1="68.27" x2="42.24" y2="67.98"/>
      <line class="st1" x1="79.4" y1="65.1" x2="60.82" y2="68.27"/>
      <line class="st1" x1="97.99" y1="59.55" x2="79.4" y2="65.1"/>
      <line class="st1" x1="116.57" y1="84.6" x2="97.99" y2="59.55"/>
      <line class="st1" x1="135.16" y1="71.51" x2="116.57" y2="84.6"/>
      <line class="st1" x1="153.74" y1="71.96" x2="135.16" y2="71.51"/>
      <line class="st1" x1="172.33" y1="68.69" x2="153.74" y2="71.96"/>
      <line class="st1" x1="190.91" y1="68.97" x2="172.33" y2="68.69"/>
      <line class="st1" x1="209.49" y1="60.95" x2="190.91" y2="68.97"/>
      <line class="st1" x1="228.08" y1="63.56" x2="209.49" y2="60.95"/>
      <line class="st1" x1="246.66" y1="74.24" x2="228.08" y2="63.56"/>
      <line class="st1" x1="265.25" y1="79.05" x2="246.66" y2="74.24"/>
      <line class="st1" x1="283.83" y1="62.31" x2="265.25" y2="79.05"/>
      <line class="st1" x1="302.42" y1="81.32" x2="283.83" y2="62.31"/>
      <line class="st1" x1="321" y1="69.9" x2="302.42" y2="81.32"/>
      <line class="st1" x1="339.58" y1="65.59" x2="321" y2="69.9"/>
      <line class="st1" x1="358.17" y1="49.41" x2="339.58" y2="65.59"/>
      <line class="st1" x1="376.75" y1="72.07" x2="358.17" y2="49.41"/>
      <line class="st1" x1="395.34" y1="84.33" x2="376.75" y2="72.07"/>
      <line class="st1" x1="413.92" y1="64.6" x2="395.34" y2="84.33"/>
    </g>
    <rect class="st0" x="10.12" y="76.61" width="8.48" height="2.86"/>
    <rect class="st0" x="28.7" y="76.61" width="8.48" height="2.86"/>
    <rect class="st0" x="47.29" y="76.61" width="8.48" height="2.86"/>
    <rect class="st0" x="65.87" y="76.67" width="8.54" height="2.86"/>
    <rect class="st0" x="84.46" y="76.67" width="8.54" height="2.86"/>
  </g>
  <g id="Figure">
    <g>
      <path class="st6" d="M97.39,34.18c0,.34-.09.6-.28.8s-.44.33-.75.4v.03c.4.05.69.17.89.38.2.21.3.47.3.81,0,.29-.07.55-.2.78-.14.22-.34.4-.63.52s-.65.19-1.09.19c-.26,0-.5-.02-.73-.06-.22-.04-.44-.11-.64-.21v-.57c.21.11.44.19.68.24.24.06.48.08.7.08.45,0,.77-.09.97-.26.2-.18.3-.42.3-.72s-.12-.54-.37-.68-.59-.21-1.03-.21h-.48v-.52h.49c.41,0,.72-.09.93-.26s.32-.4.32-.69c0-.24-.08-.43-.25-.56-.16-.13-.38-.2-.67-.2s-.5.04-.69.12c-.19.08-.38.18-.57.3l-.31-.42c.18-.14.4-.26.66-.36s.56-.15.9-.15c.52,0,.91.12,1.17.35.25.23.38.53.38.89v-.02Z"/>
      <path class="st6" d="M101.72,38.01h-3.3v-.51l1.31-1.32c.25-.25.46-.48.63-.67.17-.2.31-.39.4-.57.09-.19.13-.39.13-.62,0-.28-.08-.48-.25-.63-.16-.14-.38-.21-.64-.21s-.46.04-.64.13c-.18.08-.37.2-.56.35l-.33-.41c.2-.16.42-.3.68-.42.25-.11.54-.17.86-.17.47,0,.84.12,1.11.36.27.24.41.56.41.97,0,.26-.05.51-.16.73-.11.23-.26.46-.45.68-.19.22-.42.46-.67.71l-1.04,1.03v.03h2.53v.56l-.02-.02Z"/>
    </g>
    <g>
      <path class="st5" d="M96.46,103.09h-.6v-3.97c0-.12.01-.25.02-.38-.08.07-.14.14-.21.19-.06.05-.14.12-.23.2l-.53.43-.32-.41,1.35-1.05h.51v5h.01Z"/>
      <path class="st5" d="M98.67,103.09l2.05-4.44h-2.7v-.56h3.35v.48l-2.03,4.52h-.68,0Z"/>
    </g>
    <g>
      <path class="st5" d="M59.31,99.3h-.6v-3.97c0-.12,0-.25.02-.38-.08.07-.14.14-.21.19-.06.05-.14.12-.23.2l-.53.43-.32-.41,1.35-1.05h.51v5h0Z"/>
      <path class="st5" d="M64.03,95.47c0,.34-.09.6-.28.8-.19.2-.44.33-.75.4v.03c.4.05.69.17.89.38.2.21.3.47.3.81,0,.29-.07.55-.2.78-.14.22-.34.4-.63.52s-.65.19-1.09.19c-.26,0-.5-.02-.73-.06-.22-.04-.44-.11-.64-.21v-.57c.21.11.44.19.68.24.24.06.48.08.7.08.45,0,.77-.09.97-.26.2-.18.3-.42.3-.72s-.12-.54-.37-.68-.59-.21-1.03-.21h-.48v-.52h.49c.41,0,.72-.09.93-.26.21-.17.32-.4.32-.69,0-.24-.08-.43-.25-.56-.16-.13-.38-.2-.67-.2s-.5.04-.69.12-.38.18-.57.3l-.31-.42c.18-.14.4-.26.66-.36s.56-.15.9-.15c.52,0,.91.12,1.17.35.25.23.38.53.38.89v-.02Z"/>
    </g>
    <path class="st5" d="M42.13,87c.51,0,.92.13,1.22.38.31.26.46.62.46,1.08,0,.52-.17.93-.49,1.22s-.79.44-1.38.44c-.26,0-.5-.02-.73-.07-.22-.05-.41-.11-.57-.2v-.58c.17.1.37.18.61.24s.47.09.69.09c.37,0,.67-.09.89-.26.23-.18.34-.45.34-.82,0-.33-.1-.58-.3-.75s-.52-.26-.95-.26c-.13,0-.28.01-.45.03-.17.02-.3.05-.41.07l-.31-.2.19-2.36h2.51v.56h-1.98l-.12,1.45c.08-.01.19-.03.32-.05.14-.02.29-.03.45-.03v.02Z"/>
    <g>
      <path class="st6" d="M77.83,54.3h-.6v-3.97c0-.12.01-.25.02-.38-.08.07-.14.14-.21.19-.06.05-.14.12-.23.2l-.53.43-.32-.41,1.35-1.05h.51v5h.01Z"/>
      <path class="st6" d="M79.55,52.17c0-.36.03-.71.09-1.06s.18-.66.34-.95c.17-.28.4-.51.7-.68.3-.17.68-.25,1.16-.25.1,0,.21,0,.33,0,.12,0,.22.03.29.05v.52c-.08-.03-.18-.05-.29-.06s-.21-.02-.31-.02c-.32,0-.59.05-.81.16s-.38.25-.51.44c-.12.19-.21.4-.27.64-.06.24-.09.5-.11.78h.04c.11-.16.26-.3.45-.42s.44-.17.73-.17c.43,0,.78.13,1.05.4.27.26.4.64.4,1.12,0,.52-.14.93-.43,1.23s-.67.45-1.16.45c-.32,0-.6-.08-.86-.24s-.46-.4-.61-.73-.23-.74-.23-1.24v.02ZM81.24,53.85c.29,0,.53-.09.71-.28s.27-.48.27-.88c0-.32-.08-.57-.24-.76-.16-.19-.4-.28-.72-.28-.22,0-.41.05-.57.14-.16.09-.29.21-.38.35s-.14.29-.14.43c0,.2.04.4.12.6s.2.36.36.49.36.19.59.19Z"/>
    </g>
    <g>
      <path class="st6" d="M61.04,50.52h-3.3v-.51l1.31-1.32c.25-.25.46-.48.63-.67.17-.2.31-.39.4-.57.09-.19.13-.39.13-.62,0-.28-.08-.48-.25-.63-.16-.14-.38-.21-.64-.21s-.46.04-.64.13c-.18.08-.37.2-.56.35l-.33-.41c.2-.16.42-.3.68-.42.25-.11.54-.17.86-.17.47,0,.84.12,1.11.36s.41.56.41.97c0,.26-.05.51-.16.73-.11.23-.26.46-.45.68-.19.22-.42.46-.67.71l-1.04,1.03v.03h2.53v.56l-.02-.02Z"/>
      <path class="st6" d="M63.91,50.52h-.6v-3.97c0-.12,0-.25.02-.38-.08.07-.14.14-.21.19-.06.05-.14.12-.23.2l-.53.43-.32-.41,1.35-1.05h.51v5h0Z"/>
    </g>
    <g>
      <path class="st6" d="M40.73,57.01h-.6v-3.97c0-.12,0-.25.02-.38-.08.07-.14.14-.21.19-.06.05-.14.12-.23.2l-.53.43-.32-.41,1.35-1.05h.51v5h0Z"/>
      <path class="st6" d="M45.44,53.18c0,.34-.09.6-.28.8s-.44.33-.75.4v.03c.4.05.69.17.89.38.2.21.3.47.3.81,0,.29-.07.55-.2.78-.14.22-.34.4-.63.52s-.65.19-1.09.19c-.26,0-.5-.02-.73-.06-.22-.04-.44-.11-.64-.21v-.57c.21.11.44.19.68.24.24.06.48.08.7.08.45,0,.77-.09.97-.26.2-.18.3-.42.3-.72s-.12-.54-.37-.68-.59-.21-1.03-.21h-.48v-.52h.49c.41,0,.72-.09.93-.26s.32-.4.32-.69c0-.24-.08-.43-.25-.56-.16-.13-.38-.2-.67-.2s-.5.04-.69.12c-.19.08-.38.18-.57.3l-.31-.42c.18-.14.4-.26.66-.36s.56-.15.9-.15c.52,0,.91.12,1.17.35.25.23.38.53.38.89v-.02Z"/>
    </g>
    <path class="st4" d="M42.23,59.41c.44,0,.8.1,1.08.31.28.21.42.5.42.89,0,.2-.04.38-.13.52-.09.15-.2.28-.35.4-.14.11-.3.22-.48.3.21.1.39.21.56.34.17.12.3.26.4.43.1.16.15.36.15.59,0,.42-.15.75-.45,1-.3.24-.7.37-1.19.37-.54,0-.96-.12-1.24-.35-.29-.24-.43-.57-.43-.99,0-.22.05-.42.14-.59.1-.17.22-.32.38-.44s.33-.22.51-.31c-.25-.14-.46-.31-.62-.51-.17-.2-.25-.45-.25-.76,0-.25.07-.47.2-.64s.31-.31.53-.41c.22-.09.48-.14.76-.14h0ZM41.18,63.21c0,.24.09.44.26.61.17.16.44.24.8.24.34,0,.6-.08.78-.24.18-.16.27-.37.27-.63,0-.24-.1-.44-.29-.61s-.45-.3-.76-.42l-.11-.04c-.31.14-.54.29-.7.46s-.24.38-.24.64h0ZM42.22,59.9c-.26,0-.47.06-.64.19-.16.12-.24.3-.24.54,0,.17.04.32.12.43s.19.22.33.3c.14.08.29.16.46.23.24-.1.45-.23.61-.37.17-.14.25-.34.25-.6,0-.23-.08-.41-.25-.54-.16-.12-.38-.19-.65-.19h.01Z"/>
    <path class="st4" d="M60.81,59.7c.44,0,.8.1,1.08.31.28.21.42.5.42.89,0,.2-.04.38-.13.52-.09.15-.2.28-.35.4-.14.11-.3.22-.48.3.21.1.39.21.56.34.17.12.3.26.4.43.1.16.15.36.15.59,0,.42-.15.75-.45,1-.3.24-.7.37-1.19.37-.54,0-.96-.12-1.24-.35-.29-.24-.43-.57-.43-.99,0-.22.05-.42.14-.59.1-.17.22-.32.38-.44s.33-.22.51-.31c-.25-.14-.46-.31-.62-.51-.17-.2-.25-.45-.25-.76,0-.25.07-.47.2-.64s.31-.31.53-.41c.22-.09.48-.14.76-.14h0ZM59.76,63.5c0,.24.09.44.26.61.17.16.44.24.8.24.34,0,.6-.08.78-.24.18-.16.27-.37.27-.63,0-.24-.1-.44-.29-.61s-.45-.3-.76-.42l-.11-.04c-.31.14-.54.29-.7.46s-.24.38-.24.64h0ZM60.81,60.2c-.26,0-.47.06-.64.19-.16.12-.24.3-.24.54,0,.17.04.32.12.43s.19.22.33.3c.14.08.29.16.46.23.24-.1.45-.23.61-.37.17-.14.25-.34.25-.6,0-.23-.08-.41-.25-.54-.16-.12-.38-.19-.65-.19h.01Z"/>
    <g>
      <path class="st4" d="M78.09,61.7h-.6v-3.97c0-.12.01-.25.02-.38-.08.07-.14.14-.21.19-.06.05-.14.12-.23.2l-.53.43-.32-.41,1.35-1.05h.51v5h.01Z"/>
      <path class="st4" d="M81.68,61.7h-.6v-3.97c0-.12.01-.25.02-.38-.08.07-.14.14-.21.19-.06.05-.14.12-.23.2l-.53.43-.32-.41,1.35-1.05h.51v5h.01Z"/>
    </g>
    <g>
      <path class="st4" d="M96.46,56.13h-.6v-3.97c0-.12.01-.25.02-.38-.08.07-.14.14-.21.19-.06.05-.14.12-.23.2l-.53.43-.32-.41,1.35-1.05h.51v5h.01Z"/>
      <path class="st4" d="M99.69,53.07c.51,0,.92.13,1.22.38.31.26.46.62.46,1.08,0,.52-.17.93-.49,1.22s-.79.44-1.38.44c-.26,0-.5-.02-.73-.07-.22-.05-.41-.11-.57-.2v-.58c.17.1.37.18.61.24s.47.09.69.09c.37,0,.67-.09.89-.26.23-.18.34-.45.34-.82,0-.33-.1-.58-.3-.75-.2-.17-.52-.26-.95-.26-.13,0-.28,0-.45.03s-.3.05-.41.07l-.31-.2.19-2.36h2.51v.56h-1.98l-.12,1.45c.08,0,.19-.03.32-.05.14-.02.29-.03.45-.03v.02Z"/>
    </g>
    <g>
      <path class="st4" d="M112.46,91.11c0-.57.08-1.12.25-1.65s.43-1.01.78-1.43h.58c-.33.44-.57.92-.74,1.45s-.25,1.07-.25,1.62.08,1.07.25,1.59.41,1,.73,1.44h-.57c-.35-.41-.61-.88-.78-1.4-.17-.52-.25-1.06-.25-1.63h0Z"/>
      <path class="st4" d="M115.53,93.03l2.05-4.44h-2.7v-.56h3.35v.48l-2.03,4.52h-.68,0Z"/>
      <path class="st4" d="M120.68,91.11c0,.56-.08,1.11-.25,1.63s-.43.99-.78,1.4h-.57c.32-.44.57-.92.73-1.44.17-.52.25-1.05.25-1.59s-.08-1.1-.25-1.62c-.17-.53-.41-1.01-.74-1.45h.58c.35.42.62.9.78,1.43.17.53.25,1.08.25,1.65h0Z"/>
    </g>
    <path class="st4" d="M137.01,66.97h-.73v1.13h-.59v-1.13h-2.39v-.53l2.35-3.37h.64v3.34h.73v.55h-.01ZM135.69,66.41v-1.58c0-.24,0-.45,0-.62s0-.33.02-.49h-.03c-.04.09-.08.18-.14.29-.06.1-.11.19-.16.26l-1.5,2.13h1.8Z"/>
    <path class="st4" d="M155.6,67.41h-.73v1.13h-.59v-1.13h-2.39v-.53l2.35-3.37h.64v3.34h.73v.55h-.01ZM154.28,66.85v-1.58c0-.24,0-.45,0-.62s0-.33.02-.49h-.03c-.04.09-.08.18-.14.29-.06.1-.11.19-.16.26l-1.5,2.13h1.8Z"/>
    <path class="st4" d="M171.29,65.26l2.05-4.44h-2.7v-.56h3.35v.48l-2.03,4.52h-.68,0Z"/>
    <path class="st4" d="M189.88,65.53l2.05-4.44h-2.7v-.56h3.35v.48l-2.03,4.52h-.68,0Z"/>
    <g>
      <path class="st4" d="M207.83,57.52h-.6v-3.97c0-.12,0-.25.02-.38-.08.07-.14.14-.21.19-.06.05-.14.12-.23.2l-.53.43-.32-.41,1.35-1.05h.51v5h.01Z"/>
      <path class="st4" d="M213.02,56.38h-.73v1.13h-.59v-1.13h-2.39v-.53l2.35-3.37h.64v3.34h.73v.55h-.01ZM211.69,55.83v-1.58c0-.24,0-.45,0-.62s0-.33.02-.49h-.03c-.04.09-.08.18-.14.29-.06.1-.11.19-.16.26l-1.5,2.13h1.8Z"/>
    </g>
    <g>
      <path class="st4" d="M226.9,60.14h-.6v-3.97c0-.12,0-.25.02-.38-.08.07-.14.14-.21.19-.06.05-.14.12-.23.2l-.53.43-.32-.41,1.35-1.05h.51v5h.01Z"/>
      <path class="st4" d="M230.49,60.14h-.6v-3.97c0-.12,0-.25.02-.38-.08.07-.14.14-.21.19-.06.05-.14.12-.23.2l-.53.43-.32-.41,1.35-1.05h.51v5h.01Z"/>
    </g>
    <path class="st4" d="M248.31,70.81h-3.3v-.51l1.31-1.32c.25-.25.46-.48.63-.67.17-.2.31-.39.4-.57.09-.19.13-.39.13-.62,0-.28-.08-.48-.25-.63-.16-.14-.38-.21-.64-.21s-.46.04-.64.13c-.18.08-.37.2-.56.35l-.33-.41c.2-.16.42-.3.68-.42.25-.11.54-.17.86-.17.47,0,.84.12,1.11.36s.41.56.41.97c0,.26-.05.51-.16.73-.11.23-.26.46-.45.68s-.42.46-.67.71l-1.04,1.03v.03h2.53v.56l-.02-.02Z"/>
    <g>
      <path class="st4" d="M261.32,85.55c0-.57.08-1.12.25-1.65s.43-1.01.78-1.43h.58c-.33.44-.57.92-.74,1.45s-.25,1.07-.25,1.62.08,1.07.25,1.59.41,1,.73,1.44h-.57c-.35-.41-.61-.88-.78-1.4-.17-.52-.25-1.06-.25-1.63h0Z"/>
      <path class="st4" d="M266.96,87.46h-3.3v-.51l1.31-1.32c.25-.25.46-.48.63-.67.17-.2.31-.39.4-.57.09-.19.13-.39.13-.62,0-.28-.08-.48-.25-.63-.16-.14-.38-.21-.64-.21s-.46.04-.64.13c-.18.08-.37.2-.56.35l-.33-.41c.2-.16.42-.3.68-.42.25-.11.54-.17.86-.17.47,0,.84.12,1.11.36s.41.56.41.97c0,.26-.05.51-.16.73-.11.23-.26.46-.45.68s-.42.46-.67.71l-1.04,1.03v.03h2.53v.56l-.02-.02Z"/>
      <path class="st4" d="M269.18,85.55c0,.56-.08,1.11-.25,1.63s-.43.99-.78,1.4h-.57c.32-.44.57-.92.73-1.44.17-.52.25-1.05.25-1.59s-.08-1.1-.25-1.62c-.17-.53-.41-1.01-.74-1.45h.58c.35.42.62.9.78,1.43.17.53.25,1.08.25,1.65h0Z"/>
    </g>
    <g>
      <path class="st4" d="M282.33,58.88h-.6v-3.97c0-.12.01-.25.02-.38-.08.07-.14.14-.21.19-.06.05-.14.12-.23.2l-.53.43-.32-.41,1.35-1.05h.51v5h.01Z"/>
      <path class="st4" d="M287.05,55.05c0,.34-.09.6-.28.8-.19.2-.44.33-.75.4v.03c.4.05.69.17.89.38s.3.47.3.81c0,.29-.07.55-.2.78-.14.22-.34.4-.63.52s-.65.19-1.09.19c-.26,0-.5-.02-.73-.06-.22-.04-.44-.11-.64-.21v-.57c.21.11.44.19.68.24.24.06.48.08.7.08.45,0,.77-.09.97-.26.2-.18.3-.42.3-.72s-.12-.54-.37-.68-.59-.21-1.03-.21h-.48v-.52h.49c.41,0,.72-.09.93-.26.21-.17.32-.4.32-.69,0-.24-.08-.43-.25-.56-.16-.13-.38-.2-.67-.2s-.5.04-.69.12c-.19.08-.38.18-.57.3l-.31-.42c.18-.14.4-.26.66-.36s.56-.15.9-.15c.52,0,.91.12,1.17.35.25.23.38.53.38.89v-.02Z"/>
    </g>
    <g>
      <path class="st4" d="M298.58,87.83c0-.57.08-1.12.25-1.65s.43-1.01.78-1.43h.58c-.33.44-.57.92-.74,1.45s-.25,1.07-.25,1.62.08,1.07.25,1.59.41,1,.73,1.44h-.57c-.35-.41-.61-.88-.78-1.4-.17-.52-.25-1.06-.25-1.63h0Z"/>
      <path class="st4" d="M304.25,88.61h-.73v1.13h-.59v-1.13h-2.39v-.53l2.35-3.37h.64v3.34h.73v.55h-.01ZM302.93,88.06v-1.58c0-.24,0-.45.01-.62s.01-.33.02-.49h-.03c-.04.09-.08.18-.14.29-.06.1-.11.19-.16.26l-1.5,2.13h1.8Z"/>
      <path class="st4" d="M306.26,87.83c0,.56-.08,1.11-.25,1.63s-.43.99-.78,1.4h-.57c.32-.44.57-.92.73-1.44.17-.52.25-1.05.25-1.59s-.08-1.1-.25-1.62c-.17-.53-.41-1.01-.74-1.45h.58c.35.42.62.9.78,1.43.17.53.25,1.08.25,1.65h0Z"/>
    </g>
    <path class="st4" d="M319.35,64.27c0-.36.03-.71.09-1.06s.18-.66.34-.95c.17-.28.4-.51.7-.68.3-.17.68-.25,1.16-.25.1,0,.21,0,.33.01.12,0,.22.03.29.05v.52c-.08-.03-.18-.05-.29-.06s-.21-.02-.31-.02c-.32,0-.59.05-.81.16s-.38.25-.51.44c-.12.19-.21.4-.27.64s-.09.5-.11.78h.04c.11-.16.26-.3.45-.42s.44-.17.73-.17c.43,0,.78.13,1.05.4.27.26.4.64.4,1.12,0,.52-.14.93-.43,1.23s-.67.45-1.16.45c-.32,0-.6-.08-.86-.24-.26-.16-.46-.4-.61-.73s-.23-.74-.23-1.24v.02ZM321.05,65.95c.29,0,.53-.09.71-.28s.27-.48.27-.88c0-.32-.08-.57-.24-.76s-.4-.28-.72-.28c-.22,0-.41.05-.57.14s-.29.21-.38.35-.14.29-.14.43c0,.2.04.4.12.6s.2.36.36.49c.16.13.36.19.59.19h0Z"/>
    <g>
      <path class="st4" d="M338,60.78h-.6v-3.97c0-.12.01-.25.02-.38-.08.07-.14.14-.21.19-.06.05-.14.12-.23.2l-.53.43-.32-.41,1.35-1.05h.51v5h.01Z"/>
      <path class="st4" d="M343.04,58.27c0,.54-.06,1-.17,1.39-.11.38-.29.68-.54.88-.24.21-.57.31-.96.31-.56,0-.98-.23-1.25-.68-.27-.46-.4-1.09-.4-1.89,0-.54.05-1,.17-1.39.11-.38.29-.68.53-.88s.56-.3.96-.3c.56,0,.98.23,1.25.68s.41,1.08.41,1.89h0ZM340.33,58.27c0,.69.08,1.2.23,1.54.16.34.42.51.8.51s.64-.17.8-.51c.16-.34.24-.85.24-1.54s-.08-1.19-.24-1.53-.43-.51-.8-.51-.65.17-.8.51c-.16.34-.23.85-.23,1.53Z"/>
    </g>
    <g>
      <path class="st4" d="M357.66,45.98h-3.3v-.51l1.31-1.32c.25-.25.46-.48.63-.67.17-.2.31-.39.4-.57.09-.19.13-.39.13-.62,0-.28-.08-.48-.25-.63-.16-.14-.38-.21-.64-.21s-.46.04-.64.13c-.18.08-.37.2-.56.35l-.33-.41c.2-.16.42-.3.68-.42.25-.11.54-.17.86-.17.47,0,.84.12,1.11.36s.41.56.41.97c0,.26-.05.51-.16.73-.11.23-.26.46-.45.68s-.42.46-.67.71l-1.04,1.03v.03h2.53v.56l-.02-.02Z"/>
      <path class="st4" d="M361.99,44.85h-.73v1.13h-.59v-1.13h-2.39v-.53l2.35-3.37h.64v3.34h.73v.55h-.01ZM360.67,44.3v-1.58c0-.24,0-.45.01-.62s.01-.33.02-.49h-.03c-.04.09-.08.18-.14.29-.06.1-.11.19-.16.26l-1.5,2.13h1.8Z"/>
    </g>
    <path class="st4" d="M378.62,67.66h-.73v1.13h-.59v-1.13h-2.39v-.53l2.35-3.37h.64v3.34h.73v.55h-.01ZM377.3,67.11v-1.58c0-.24,0-.45.01-.62s.01-.33.02-.49h-.03c-.04.09-.08.18-.14.29-.06.1-.11.19-.16.26l-1.5,2.13h1.8Z"/>
    <g>
      <path class="st4" d="M391.24,90.84c0-.57.08-1.12.25-1.65s.43-1.01.78-1.43h.58c-.33.44-.57.92-.74,1.45s-.25,1.07-.25,1.62.08,1.07.25,1.59.41,1,.73,1.44h-.57c-.35-.41-.61-.88-.78-1.4-.17-.52-.25-1.06-.25-1.63h0Z"/>
      <path class="st4" d="M394.31,92.76l2.05-4.44h-2.7v-.56h3.35v.48l-2.03,4.52h-.68.01Z"/>
      <path class="st4" d="M399.46,90.84c0,.56-.08,1.11-.25,1.63s-.43.99-.78,1.4h-.57c.32-.44.57-.92.73-1.44.17-.52.25-1.05.25-1.59s-.08-1.1-.25-1.62c-.17-.53-.41-1.01-.74-1.45h.58c.35.42.62.9.78,1.43.17.53.25,1.08.25,1.65h0Z"/>
    </g>
    <g>
      <path class="st4" d="M412.33,61.18h-.6v-3.97c0-.12.01-.25.02-.38-.08.07-.14.14-.21.19-.06.05-.14.12-.23.2l-.53.43-.32-.41,1.35-1.05h.51v5h.01Z"/>
      <path class="st4" d="M417.36,58.67c0,.54-.06,1-.17,1.39-.11.38-.29.68-.54.88-.24.21-.57.31-.96.31-.56,0-.98-.23-1.25-.68-.27-.46-.4-1.09-.4-1.89,0-.54.05-1,.17-1.39.11-.38.29-.68.53-.88s.56-.3.96-.3c.56,0,.98.23,1.25.68s.41,1.08.41,1.89h0ZM414.66,58.67c0,.69.08,1.2.23,1.54.16.34.42.51.8.51s.64-.17.8-.51c.16-.34.24-.85.24-1.54s-.08-1.19-.24-1.53-.43-.51-.8-.51-.65.17-.8.51c-.16.34-.23.85-.23,1.53Z"/>
    </g>
    <path class="st5" d="M24.08,85.89h-.6v-3.97c0-.12.01-.25.02-.38-.08.07-.14.14-.21.19-.06.05-.14.12-.23.2l-.53.43-.32-.41,1.35-1.05h.51v5h0Z"/>
    <path class="st6" d="M25.23,59.52c0,.34-.09.6-.28.8-.19.2-.44.33-.75.4v.03c.4.05.69.17.89.38.2.21.3.47.3.81,0,.29-.07.55-.2.78-.14.22-.34.4-.63.52s-.65.19-1.09.19c-.26,0-.5-.02-.73-.06-.22-.04-.44-.11-.64-.21v-.57c.21.11.44.19.68.24.24.06.48.08.7.08.45,0,.77-.09.97-.26.2-.18.3-.42.3-.72s-.12-.54-.37-.68-.59-.21-1.03-.21h-.48v-.52h.49c.41,0,.72-.09.93-.26.21-.17.32-.4.32-.69,0-.24-.08-.43-.25-.56-.16-.13-.38-.2-.67-.2s-.5.04-.69.12-.38.18-.57.3l-.31-.42c.18-.14.4-.26.66-.36s.56-.15.9-.15c.52,0,.91.12,1.17.35.25.23.38.53.38.89v-.02Z"/>
    <path class="st4" d="M25.38,70.88h-3.3v-.51l1.31-1.32c.25-.25.46-.48.63-.67.17-.2.31-.39.4-.57.09-.19.13-.39.13-.62,0-.28-.08-.48-.25-.63-.16-.14-.38-.21-.64-.21s-.46.04-.64.13c-.18.08-.37.2-.56.35l-.33-.41c.2-.16.42-.3.68-.42.25-.11.54-.17.86-.17.47,0,.84.12,1.11.36s.41.56.41.97c0,.26-.05.51-.16.73-.11.23-.26.46-.45.68s-.42.46-.67.71l-1.04,1.03v.03h2.53v.56l-.02-.02Z"/>
    <path class="st5" d="M6.72,89.92c0,.54-.06,1-.17,1.39-.11.38-.29.68-.54.88-.24.21-.57.31-.96.31-.56,0-.98-.23-1.25-.68-.27-.46-.4-1.09-.4-1.89,0-.54.05-1,.17-1.39.11-.38.29-.68.53-.88.24-.2.56-.3.96-.3.56,0,.98.23,1.25.68s.41,1.08.41,1.89h0ZM4.02,89.92c0,.69.08,1.2.23,1.54.16.34.42.51.8.51s.64-.17.8-.51c.16-.34.24-.85.24-1.54s-.08-1.19-.24-1.53-.43-.51-.8-.51-.65.17-.8.51c-.16.34-.23.85-.23,1.53Z"/>
    <path class="st6" d="M6.72,71.01c0,.54-.06,1-.17,1.39-.11.38-.29.68-.54.88-.24.21-.57.31-.96.31-.56,0-.98-.23-1.25-.68-.27-.46-.4-1.09-.4-1.89,0-.54.05-1,.17-1.39.11-.38.29-.68.53-.88.24-.2.56-.3.96-.3.56,0,.98.23,1.25.68s.41,1.08.41,1.89h0ZM4.02,71.01c0,.69.08,1.2.23,1.54.16.34.42.51.8.51s.64-.17.8-.51c.16-.34.24-.85.24-1.54s-.08-1.19-.24-1.53-.43-.51-.8-.51-.65.17-.8.51c-.16.34-.23.85-.23,1.53Z"/>
    <path class="st4" d="M6.72,82.39c0,.54-.06,1-.17,1.39-.11.38-.29.68-.54.88-.24.21-.57.31-.96.31-.56,0-.98-.23-1.25-.68-.27-.46-.4-1.09-.4-1.89,0-.54.05-1,.17-1.39.11-.38.29-.68.53-.88.24-.2.56-.3.96-.3.56,0,.98.23,1.25.68s.41,1.08.41,1.89h0ZM4.02,82.39c0,.69.08,1.2.23,1.54.16.34.42.51.8.51s.64-.17.8-.51c.16-.34.24-.85.24-1.54s-.08-1.19-.24-1.53-.43-.51-.8-.51-.65.17-.8.51c-.16.34-.23.85-.23,1.53Z"/>
    <path class="st5" d="M79.3,87.45c.51,0,.92.13,1.22.38.31.26.46.62.46,1.08,0,.52-.17.93-.49,1.22s-.79.44-1.38.44c-.26,0-.5-.02-.73-.07-.22-.05-.41-.11-.57-.2v-.58c.17.1.37.18.61.24s.47.09.69.09c.37,0,.67-.09.89-.26.23-.18.34-.45.34-.82,0-.33-.1-.58-.3-.75-.2-.17-.52-.26-.95-.26-.13,0-.28.01-.45.03s-.3.05-.41.07l-.31-.2.19-2.36h2.51v.56h-1.98l-.12,1.45c.08-.01.19-.03.32-.05.14-.02.29-.03.45-.03v.02Z"/>
    <path class="st6" d="M118.22,60.84c0,.36-.03.71-.09,1.06s-.18.66-.34.95c-.17.28-.4.51-.7.68-.3.17-.69.25-1.16.25-.09,0-.2,0-.33-.02-.13-.01-.23-.03-.3-.05v-.52c.18.06.39.09.62.09.33,0,.6-.05.81-.16s.38-.25.51-.44c.13-.18.22-.4.27-.64.06-.25.09-.5.1-.77h-.04c-.11.16-.26.3-.45.41s-.44.17-.74.17c-.43,0-.78-.13-1.04-.4s-.4-.64-.4-1.12c0-.35.07-.65.2-.9s.32-.45.56-.58c.24-.14.52-.2.84-.2s.6.08.86.24c.26.16.46.4.61.73.15.32.22.74.22,1.24v-.02ZM116.52,59.15c-.29,0-.53.1-.71.29s-.28.48-.28.88c0,.32.08.58.23.76.16.18.4.28.72.28.22,0,.42-.05.58-.14s.29-.21.38-.35.14-.28.14-.43c0-.2-.04-.4-.12-.59-.08-.2-.2-.36-.36-.49s-.36-.2-.59-.2h0Z"/>
    <g>
      <path class="st5" d="M115,102.38h-.6v-3.97c0-.12.01-.25.02-.38-.08.07-.14.14-.21.19-.06.05-.14.12-.23.2l-.53.43-.32-.41,1.35-1.05h.51v5h.01Z"/>
      <path class="st5" d="M116.72,100.24c0-.36.03-.71.09-1.06s.18-.66.34-.95c.17-.28.4-.51.7-.68.3-.17.68-.25,1.16-.25.1,0,.21,0,.33.01.12,0,.22.03.29.05v.52c-.08-.03-.18-.05-.29-.06s-.21-.02-.31-.02c-.32,0-.59.05-.81.16s-.38.25-.51.44c-.12.19-.21.4-.27.64s-.09.5-.11.78h.04c.11-.16.26-.3.45-.42s.44-.17.73-.17c.43,0,.78.13,1.05.4.27.26.4.64.4,1.12,0,.52-.14.93-.43,1.23s-.67.45-1.16.45c-.32,0-.6-.08-.86-.24-.26-.16-.46-.4-.61-.73s-.23-.74-.23-1.24v.02ZM118.41,101.93c.29,0,.53-.09.71-.28s.27-.48.27-.88c0-.32-.08-.57-.24-.76-.16-.19-.4-.28-.72-.28-.22,0-.41.05-.57.14-.16.09-.29.21-.38.35s-.14.29-.14.43c0,.2.04.4.12.6s.2.36.36.49.36.19.59.19Z"/>
    </g>
    <g>
      <path class="st6" d="M190.49,51.65h-3.3v-.51l1.31-1.32c.25-.25.46-.48.63-.67.17-.2.31-.39.4-.57.09-.19.13-.39.13-.62,0-.28-.08-.48-.25-.63-.16-.14-.38-.21-.64-.21s-.46.04-.64.13c-.18.08-.37.2-.56.35l-.33-.41c.2-.16.42-.3.68-.42.25-.11.54-.17.86-.17.47,0,.84.12,1.11.36s.41.56.41.97c0,.26-.05.51-.16.73-.11.23-.26.46-.45.68s-.42.46-.67.71l-1.04,1.03v.03h2.53v.56l-.02-.02Z"/>
      <path class="st6" d="M194.64,49.14c0,.54-.06,1-.17,1.39-.11.38-.29.68-.54.88-.24.21-.57.31-.96.31-.56,0-.98-.23-1.25-.68-.27-.46-.4-1.09-.4-1.89,0-.54.05-1,.17-1.39.11-.38.29-.68.53-.88s.56-.3.96-.3c.56,0,.98.23,1.25.68s.41,1.08.41,1.89h0ZM191.94,49.14c0,.69.08,1.2.23,1.54.16.34.42.51.8.51s.64-.17.8-.51.24-.85.24-1.54-.08-1.19-.24-1.53-.43-.51-.8-.51-.65.17-.8.51c-.16.34-.23.85-.23,1.53Z"/>
    </g>
    <g>
      <path class="st5" d="M189.41,98.88h-.6v-3.97c0-.12,0-.25.02-.38-.08.07-.14.14-.21.19-.06.05-.14.12-.23.2l-.53.43-.32-.41,1.35-1.05h.51v5h.01Z"/>
      <path class="st5" d="M194.12,95.06c0,.34-.09.6-.28.8-.19.2-.44.33-.75.4v.03c.4.05.69.17.89.38s.3.47.3.81c0,.29-.07.55-.2.78-.14.22-.34.4-.63.52s-.65.19-1.09.19c-.26,0-.5-.02-.73-.06-.22-.04-.44-.11-.64-.21v-.57c.21.11.44.19.68.24.24.06.48.08.7.08.45,0,.77-.09.97-.26.2-.18.3-.42.3-.72s-.12-.54-.37-.68-.59-.21-1.03-.21h-.48v-.52h.49c.41,0,.72-.09.93-.26.21-.17.32-.4.32-.69,0-.24-.08-.43-.25-.56-.16-.13-.38-.2-.67-.2s-.5.04-.69.12-.38.18-.57.3l-.31-.42c.18-.14.4-.26.66-.36s.56-.15.9-.15c.52,0,.91.12,1.17.35.25.23.38.53.38.89v-.02Z"/>
    </g>
    <g>
      <path class="st6" d="M133.57,60.68h-.6v-3.97c0-.12,0-.25.02-.38-.08.07-.14.14-.21.19-.06.05-.14.12-.23.2l-.53.43-.32-.41,1.35-1.05h.51v5h.01Z"/>
      <path class="st6" d="M138.6,58.17c0,.54-.06,1-.17,1.39-.11.38-.29.68-.54.88-.24.21-.57.31-.96.31-.56,0-.98-.23-1.25-.68-.27-.46-.4-1.09-.4-1.89,0-.54.05-1,.17-1.39.11-.38.29-.68.53-.88.24-.2.56-.3.96-.3.56,0,.98.23,1.25.68s.41,1.08.41,1.89h0ZM135.9,58.17c0,.69.08,1.2.23,1.54.16.34.42.51.8.51s.64-.17.8-.51c.16-.34.24-.85.24-1.54s-.08-1.19-.24-1.53-.43-.51-.8-.51-.65.17-.8.51c-.16.34-.23.85-.23,1.53Z"/>
    </g>
    <path class="st5" d="M133.51,89c0-.36.03-.71.09-1.06s.18-.66.34-.95c.17-.28.4-.51.7-.68s.68-.25,1.16-.25c.1,0,.21,0,.33.01.12,0,.22.03.29.05v.52c-.08-.03-.18-.05-.29-.06s-.21-.02-.31-.02c-.32,0-.59.05-.81.16s-.38.25-.51.44c-.12.19-.21.4-.27.64s-.09.5-.11.78h.04c.11-.16.26-.3.45-.42s.44-.17.73-.17c.43,0,.78.13,1.05.4.27.26.4.64.4,1.12,0,.52-.14.93-.43,1.23s-.67.45-1.16.45c-.32,0-.6-.08-.86-.24-.26-.16-.46-.4-.61-.73s-.23-.74-.23-1.24v.02ZM135.21,90.69c.29,0,.53-.09.71-.28s.27-.48.27-.88c0-.32-.08-.57-.24-.76s-.4-.28-.72-.28c-.22,0-.41.05-.57.14s-.29.21-.38.35c-.09.14-.14.29-.14.43,0,.2.04.4.12.6s.2.36.36.49.36.19.59.19h0Z"/>
    <g>
      <path class="st6" d="M152.24,59.3h-.6v-3.97c0-.12,0-.25.02-.38-.08.07-.14.14-.21.19-.06.05-.14.12-.23.2l-.53.43-.32-.41,1.35-1.05h.51v5h.01Z"/>
      <path class="st6" d="M156.95,55.48c0,.34-.09.6-.28.8-.19.2-.44.33-.75.4v.03c.4.05.69.17.89.38s.3.47.3.81c0,.29-.07.55-.2.78-.14.22-.34.4-.63.52s-.65.19-1.09.19c-.26,0-.5-.02-.73-.06-.22-.04-.44-.11-.64-.21v-.57c.21.11.44.19.68.24.24.06.48.08.7.08.45,0,.77-.09.97-.26.2-.18.3-.42.3-.72s-.12-.54-.37-.68-.59-.21-1.03-.21h-.48v-.52h.49c.41,0,.72-.09.93-.26.21-.17.32-.4.32-.69,0-.24-.08-.43-.25-.56-.16-.13-.38-.2-.67-.2s-.5.04-.69.12c-.19.08-.38.18-.57.3l-.31-.42c.18-.14.4-.26.66-.36s.56-.15.9-.15c.52,0,.91.12,1.17.35.25.23.38.53.38.89v-.02Z"/>
    </g>
    <path class="st5" d="M155.38,91.42c0,.36-.03.71-.09,1.06s-.18.66-.34.95c-.17.28-.4.51-.7.68s-.69.25-1.16.25c-.09,0-.2,0-.33-.02s-.23-.03-.3-.05v-.52c.18.06.39.09.62.09.33,0,.6-.05.81-.16.21-.11.38-.25.51-.44.13-.18.22-.4.27-.64.06-.25.09-.5.1-.77h-.04c-.11.16-.26.3-.45.41s-.44.17-.74.17c-.43,0-.78-.13-1.04-.4s-.4-.64-.4-1.12c0-.35.07-.65.2-.9s.32-.45.56-.58c.24-.13.52-.2.84-.2s.6.08.86.24c.26.16.46.4.61.73s.22.74.22,1.24v-.02ZM153.69,89.73c-.29,0-.53.1-.71.29s-.28.48-.28.88c0,.32.08.58.23.76.16.18.4.28.72.28.22,0,.42-.05.58-.14s.29-.21.38-.35c.09-.14.14-.28.14-.43,0-.2-.04-.4-.12-.59-.08-.2-.2-.36-.36-.49s-.36-.2-.59-.2h0Z"/>
    <g>
      <path class="st6" d="M171.85,48.9h-3.3v-.51l1.31-1.32c.25-.25.46-.48.63-.67.17-.2.31-.39.4-.57.09-.19.13-.39.13-.62,0-.28-.08-.48-.25-.63-.16-.14-.38-.21-.64-.21s-.46.04-.64.13c-.18.08-.37.2-.56.35l-.33-.41c.2-.16.42-.3.68-.42.25-.11.54-.17.86-.17.47,0,.84.12,1.11.36s.41.56.41.97c0,.26-.05.51-.16.73-.11.23-.26.46-.45.68s-.42.46-.67.71l-1.04,1.03v.03h2.53v.56l-.02-.02Z"/>
      <path class="st6" d="M176.1,48.9h-3.3v-.51l1.31-1.32c.25-.25.46-.48.63-.67.17-.2.31-.39.4-.57.09-.19.13-.39.13-.62,0-.28-.08-.48-.25-.63-.16-.14-.38-.21-.64-.21s-.46.04-.64.13c-.18.08-.37.2-.56.35l-.33-.41c.2-.16.42-.3.68-.42.25-.11.54-.17.86-.17.47,0,.84.12,1.11.36s.41.56.41.97c0,.26-.05.51-.16.73-.11.23-.26.46-.45.68s-.42.46-.67.71l-1.04,1.03v.03h2.53v.56l-.02-.02Z"/>
    </g>
    <g>
      <path class="st5" d="M170.8,101.35h-.6v-3.97c0-.12,0-.25.02-.38-.08.07-.14.14-.21.19-.06.05-.14.12-.23.2l-.53.43-.32-.41,1.35-1.05h.51v5h.01Z"/>
      <path class="st5" d="M174.03,98.28c.51,0,.92.13,1.22.38.31.26.46.62.46,1.08,0,.52-.17.93-.49,1.22s-.79.44-1.38.44c-.26,0-.5-.02-.73-.07-.22-.05-.41-.11-.57-.2v-.58c.17.1.37.18.61.24s.47.09.69.09c.37,0,.67-.09.89-.26.23-.18.34-.45.34-.82,0-.33-.1-.58-.3-.75s-.52-.26-.95-.26c-.13,0-.28.01-.45.03s-.3.05-.41.07l-.31-.2.19-2.36h2.51v.56h-1.98l-.12,1.45c.08-.01.19-.03.32-.05.14-.02.29-.03.45-.03v.02Z"/>
    </g>
    <g>
      <path class="st6" d="M208.98,47.07h-3.3v-.51l1.31-1.32c.25-.25.46-.48.63-.67.17-.2.31-.39.4-.57.09-.19.13-.39.13-.62,0-.28-.08-.48-.25-.63-.16-.14-.38-.21-.64-.21s-.46.04-.64.13c-.18.08-.37.2-.56.35l-.33-.41c.2-.16.42-.3.68-.42.25-.11.54-.17.86-.17.47,0,.84.12,1.11.36s.41.56.41.97c0,.26-.05.51-.16.73-.11.23-.26.46-.45.68s-.42.46-.67.71l-1.04,1.03v.03h2.53v.56l-.02-.02Z"/>
      <path class="st6" d="M213.32,45.94h-.73v1.13h-.59v-1.13h-2.39v-.53l2.35-3.37h.64v3.34h.73v.55h-.01ZM211.99,45.38v-1.58c0-.24,0-.45,0-.62s0-.33.02-.49h-.03c-.04.09-.08.18-.14.29-.06.1-.11.19-.16.26l-1.5,2.13h1.8Z"/>
    </g>
    <g>
      <path class="st5" d="M207.91,95.44h-.6v-3.97c0-.12,0-.25.02-.38-.08.07-.14.14-.21.19-.06.05-.14.12-.23.2l-.53.43-.32-.41,1.35-1.05h.51v5h.01Z"/>
      <path class="st5" d="M212.94,92.93c0,.54-.06,1-.17,1.39-.11.38-.29.68-.54.88-.24.21-.57.31-.96.31-.56,0-.98-.23-1.25-.68-.27-.46-.4-1.09-.4-1.89,0-.54.05-1,.17-1.39.11-.38.29-.68.53-.88s.56-.3.96-.3c.56,0,.98.23,1.25.68s.41,1.08.41,1.89h0ZM210.24,92.93c0,.69.08,1.2.23,1.54.16.34.42.51.8.51s.64-.17.8-.51c.16-.34.24-.85.24-1.54s-.08-1.19-.24-1.53-.43-.51-.8-.51-.65.17-.8.51c-.16.34-.23.85-.23,1.53Z"/>
    </g>
    <g>
      <path class="st6" d="M227.42,36.08c0,.34-.09.6-.28.8s-.44.33-.75.4v.03c.4.05.69.17.89.38.2.21.3.47.3.81,0,.29-.07.55-.2.78-.14.22-.34.4-.63.52s-.65.19-1.09.19c-.26,0-.5-.02-.73-.06-.22-.04-.44-.11-.64-.21v-.57c.21.11.44.19.68.24.24.06.48.08.7.08.45,0,.77-.09.97-.26.2-.18.3-.42.3-.72s-.12-.54-.37-.68-.59-.21-1.03-.21h-.48v-.52h.49c.41,0,.72-.09.93-.26.21-.17.32-.4.32-.69,0-.24-.08-.43-.25-.56-.16-.13-.38-.2-.67-.2s-.5.04-.69.12c-.19.08-.38.18-.57.3l-.31-.42c.18-.14.4-.26.66-.36s.56-.15.9-.15c.52,0,.91.12,1.17.35.25.23.38.53.38.89v-.02Z"/>
      <path class="st6" d="M231.88,37.4c0,.54-.06,1-.17,1.39-.11.38-.29.68-.54.88-.24.21-.57.31-.96.31-.56,0-.98-.23-1.25-.68-.27-.46-.4-1.09-.4-1.89,0-.54.05-1,.17-1.39.11-.38.29-.68.53-.88s.56-.3.96-.3c.56,0,.98.23,1.25.68s.41,1.08.41,1.89h0ZM229.17,37.4c0,.69.08,1.2.23,1.54.16.34.42.51.8.51s.64-.17.8-.51.24-.85.24-1.54-.08-1.19-.24-1.53-.43-.51-.8-.51-.65.17-.8.51c-.16.34-.23.85-.23,1.53Z"/>
    </g>
    <g>
      <path class="st6" d="M246,35.96c0,.34-.09.6-.28.8s-.44.33-.75.4v.03c.4.05.69.17.89.38.2.21.3.47.3.81,0,.29-.07.55-.2.78-.14.22-.34.4-.63.52s-.65.19-1.09.19c-.26,0-.5-.02-.73-.06-.22-.04-.44-.11-.64-.21v-.57c.21.11.44.19.68.24.24.06.48.08.7.08.45,0,.77-.09.97-.26.2-.18.3-.42.3-.72s-.12-.54-.37-.68-.59-.21-1.03-.21h-.48v-.52h.49c.41,0,.72-.09.93-.26.21-.17.32-.4.32-.69,0-.24-.08-.43-.25-.56-.16-.13-.38-.2-.67-.2s-.5.04-.69.12c-.19.08-.38.18-.57.3l-.31-.42c.18-.14.4-.26.66-.36s.56-.15.9-.15c.52,0,.91.12,1.17.35.25.23.38.53.38.89v-.02Z"/>
      <path class="st6" d="M250.46,37.28c0,.54-.06,1-.17,1.39-.11.38-.29.68-.54.88-.24.21-.57.31-.96.31-.56,0-.98-.23-1.25-.68-.27-.46-.4-1.09-.4-1.89,0-.54.05-1,.17-1.39.11-.38.29-.68.53-.88s.56-.3.96-.3c.56,0,.98.23,1.25.68s.41,1.08.41,1.89h0ZM247.76,37.28c0,.69.08,1.2.23,1.54.16.34.42.51.8.51s.64-.17.8-.51.24-.85.24-1.54-.08-1.19-.24-1.53-.43-.51-.8-.51-.65.17-.8.51c-.16.34-.23.85-.23,1.53Z"/>
    </g>
    <g>
      <path class="st5" d="M226.55,105.15h-.6v-3.97c0-.12,0-.25.02-.38-.08.07-.14.14-.21.19-.06.05-.14.12-.23.2l-.53.43-.32-.41,1.35-1.05h.51v5h.01Z"/>
      <path class="st5" d="M231.47,102.28c0,.36-.03.71-.09,1.06s-.18.66-.34.95c-.17.28-.4.51-.7.68s-.69.25-1.16.25c-.09,0-.2,0-.33-.02-.13-.01-.23-.03-.3-.05v-.52c.18.06.39.09.62.09.33,0,.6-.05.81-.16.21-.11.38-.25.51-.44.13-.18.22-.4.27-.64.06-.25.09-.5.1-.77h-.04c-.11.16-.26.3-.45.41s-.44.17-.74.17c-.43,0-.78-.13-1.04-.4s-.4-.64-.4-1.12c0-.35.07-.65.2-.9s.32-.45.56-.58c.24-.14.52-.2.84-.2s.6.08.86.24c.26.16.46.4.61.73.15.32.22.74.22,1.24v-.02ZM229.78,100.6c-.29,0-.53.1-.71.29-.18.19-.28.48-.28.88,0,.32.08.58.23.76.16.18.4.28.72.28.22,0,.42-.05.58-.14s.29-.21.38-.35c.09-.14.14-.28.14-.43,0-.2-.04-.4-.12-.59-.08-.2-.2-.36-.36-.49s-.36-.2-.59-.2h0Z"/>
    </g>
    <g>
      <path class="st5" d="M246.21,116.01h-3.3v-.51l1.31-1.32c.25-.25.46-.48.63-.67.17-.2.31-.39.4-.57.09-.19.13-.39.13-.62,0-.28-.08-.48-.25-.63-.16-.14-.38-.21-.64-.21s-.46.04-.64.13c-.18.08-.37.2-.56.35l-.33-.41c.2-.16.42-.3.68-.42.25-.11.54-.17.86-.17.47,0,.84.12,1.11.36s.41.56.41.97c0,.26-.05.51-.16.73-.11.23-.26.46-.45.68s-.42.46-.67.71l-1.04,1.03v.03h2.53v.56l-.02-.02Z"/>
      <path class="st5" d="M248.76,110.95c.44,0,.8.1,1.08.31s.42.5.42.89c0,.2-.04.38-.13.52-.09.15-.2.28-.35.4-.14.11-.3.22-.48.3.21.1.39.21.56.34.17.12.3.26.4.43.1.16.15.36.15.59,0,.42-.15.75-.45,1-.3.24-.7.37-1.19.37-.54,0-.96-.12-1.24-.35-.29-.24-.43-.57-.43-.99,0-.22.05-.42.14-.59.1-.17.22-.32.38-.44s.33-.22.51-.31c-.25-.14-.46-.31-.62-.51-.17-.2-.25-.45-.25-.76,0-.25.07-.47.2-.64s.31-.31.53-.41c.22-.09.48-.14.76-.14h.01ZM247.71,114.75c0,.24.09.44.26.61.17.16.44.24.8.24.34,0,.6-.08.78-.24.18-.16.27-.37.27-.63,0-.24-.1-.44-.29-.61s-.45-.3-.76-.42l-.11-.04c-.31.14-.54.29-.7.46s-.24.38-.24.64h-.01ZM248.75,111.44c-.26,0-.47.06-.64.19-.16.12-.24.3-.24.54,0,.17.04.32.12.43s.19.22.33.3.29.16.46.23c.24-.1.45-.23.61-.37.17-.14.25-.34.25-.6,0-.23-.08-.41-.25-.54-.16-.12-.38-.19-.65-.19h0Z"/>
    </g>
    <g>
      <path class="st6" d="M263.68,55.66h-.6v-3.97c0-.12.01-.25.02-.38-.08.07-.14.14-.21.19-.06.05-.14.12-.23.2l-.53.43-.32-.41,1.35-1.05h.51v5h.01Z"/>
      <path class="st6" d="M265.4,53.52c0-.36.03-.71.09-1.06s.18-.66.34-.95c.17-.28.4-.51.7-.68.3-.17.68-.25,1.16-.25.1,0,.21,0,.33,0,.12,0,.22.03.29.05v.52c-.08-.03-.18-.05-.29-.06s-.21-.02-.31-.02c-.32,0-.59.05-.81.16s-.38.25-.51.44c-.12.19-.21.4-.27.64-.06.24-.09.5-.11.78h.04c.11-.16.26-.3.45-.42s.44-.17.73-.17c.43,0,.78.13,1.05.4.27.26.4.64.4,1.12,0,.52-.14.93-.43,1.23s-.67.45-1.16.45c-.32,0-.6-.08-.86-.24-.26-.16-.46-.4-.61-.73s-.23-.74-.23-1.24v.02ZM267.09,55.21c.29,0,.53-.09.71-.28s.27-.48.27-.88c0-.32-.08-.57-.24-.76s-.4-.28-.72-.28c-.22,0-.41.05-.57.14s-.29.21-.38.35-.14.29-.14.43c0,.2.04.4.12.6s.2.36.36.49c.16.13.36.19.59.19h0Z"/>
    </g>
    <g>
      <path class="st6" d="M283.41,41.61h-3.3v-.51l1.31-1.32c.25-.25.46-.48.63-.67.17-.2.31-.39.4-.57.09-.19.13-.39.13-.62,0-.28-.08-.48-.25-.63-.16-.14-.38-.21-.64-.21s-.46.04-.64.13c-.18.08-.37.2-.56.35l-.33-.41c.2-.16.42-.3.68-.42.25-.11.54-.17.86-.17.47,0,.84.12,1.11.36s.41.56.41.97c0,.26-.05.51-.16.73-.11.23-.26.46-.45.68s-.42.46-.67.71l-1.04,1.03v.03h2.53v.56l-.02-.02Z"/>
      <path class="st6" d="M287.56,38.74c0,.36-.03.71-.09,1.06-.06.35-.18.66-.34.95-.17.28-.4.51-.7.68-.3.17-.69.25-1.16.25-.09,0-.2,0-.33-.02-.13,0-.23-.03-.3-.05v-.52c.18.06.39.09.62.09.33,0,.6-.05.81-.16s.38-.25.51-.44c.13-.18.22-.4.27-.64.06-.25.09-.5.1-.77h-.04c-.11.16-.26.3-.45.41s-.44.17-.74.17c-.43,0-.78-.13-1.04-.4s-.4-.64-.4-1.12c0-.35.07-.65.2-.9s.32-.45.56-.58c.24-.14.52-.2.84-.2s.6.08.86.24c.26.16.46.4.61.73.15.32.22.74.22,1.24v-.02ZM285.87,37.06c-.29,0-.53.1-.71.29-.18.19-.28.48-.28.88,0,.32.08.58.23.76.16.18.4.28.72.28.22,0,.42-.05.58-.14.16-.09.29-.21.38-.35s.14-.28.14-.43c0-.2-.04-.4-.12-.59-.08-.2-.2-.36-.36-.49-.16-.13-.36-.2-.59-.2h0Z"/>
    </g>
    <g>
      <path class="st6" d="M301.9,46.82h-3.3v-.51l1.31-1.32c.25-.25.46-.48.63-.67.17-.2.31-.39.4-.57.09-.19.13-.39.13-.62,0-.28-.08-.48-.25-.63-.16-.14-.38-.21-.64-.21s-.46.04-.64.13c-.18.08-.37.2-.56.35l-.33-.41c.2-.16.42-.3.68-.42.25-.11.54-.17.86-.17.47,0,.84.12,1.11.36s.41.56.41.97c0,.26-.05.51-.16.73-.11.23-.26.46-.45.68s-.42.46-.67.71l-1.04,1.03v.03h2.53v.56l-.02-.02Z"/>
      <path class="st6" d="M306.24,45.69h-.73v1.13h-.59v-1.13h-2.39v-.53l2.35-3.37h.64v3.34h.73v.55h-.01ZM304.92,45.13v-1.58c0-.24,0-.45.01-.62s.01-.33.02-.49h-.03c-.04.09-.08.18-.14.29-.06.1-.11.19-.16.26l-1.5,2.13h1.8Z"/>
    </g>
    <g>
      <path class="st6" d="M320.41,33.74c0,.34-.09.6-.28.8s-.44.33-.75.4v.03c.4.05.69.17.89.38.2.21.3.47.3.81,0,.29-.07.55-.2.78-.14.22-.34.4-.63.52s-.65.19-1.09.19c-.26,0-.5-.02-.73-.06-.22-.04-.44-.11-.64-.21v-.57c.21.11.44.19.68.24.24.06.48.08.7.08.45,0,.77-.09.97-.26.2-.18.3-.42.3-.72s-.12-.54-.37-.68-.59-.21-1.03-.21h-.48v-.52h.49c.41,0,.72-.09.93-.26s.32-.4.32-.69c0-.24-.08-.43-.25-.56-.16-.13-.38-.2-.67-.2s-.5.04-.69.12c-.19.08-.38.18-.57.3l-.31-.42c.18-.14.4-.26.66-.36s.56-.15.9-.15c.52,0,.91.12,1.17.35.25.23.38.53.38.89v-.02Z"/>
      <path class="st6" d="M324.73,37.56h-3.3v-.51l1.31-1.32c.25-.25.46-.48.63-.67.17-.2.31-.39.4-.57.09-.19.13-.39.13-.62,0-.28-.08-.48-.25-.63-.16-.14-.38-.21-.64-.21s-.46.04-.64.13c-.18.08-.37.2-.56.35l-.33-.41c.2-.16.42-.3.68-.42.25-.11.54-.17.86-.17.47,0,.84.12,1.11.36s.41.56.41.97c0,.26-.05.51-.16.73-.11.23-.26.46-.45.68s-.42.46-.67.71l-1.04,1.03v.03h2.53v.56l-.02-.02Z"/>
    </g>
    <g>
      <path class="st6" d="M339.5,17.89h-.73v1.13h-.59v-1.13h-2.39v-.53l2.35-3.37h.64v3.34h.73v.55h-.01ZM338.18,17.34v-1.58c0-.24,0-.45.01-.62s.01-.33.02-.49h-.03c-.04.09-.08.18-.14.29-.06.1-.11.19-.16.26l-1.5,2.13h1.8Z"/>
      <path class="st6" d="M343.39,16.16c0,.36-.03.71-.09,1.06s-.18.66-.34.95c-.17.28-.4.51-.7.68-.3.17-.69.25-1.16.25-.09,0-.2,0-.33-.02-.13-.01-.23-.03-.3-.05v-.52c.18.06.39.09.62.09.33,0,.6-.05.81-.16s.38-.25.51-.44c.13-.18.22-.4.27-.64.06-.25.09-.5.1-.77h-.04c-.11.16-.26.3-.45.41s-.44.17-.74.17c-.43,0-.78-.13-1.04-.4s-.4-.64-.4-1.12c0-.35.07-.65.2-.9s.32-.45.56-.58c.24-.14.52-.2.84-.2s.6.08.86.24c.26.16.46.4.61.73.15.32.22.74.22,1.24v-.02ZM341.69,14.48c-.29,0-.53.1-.71.29s-.28.48-.28.88c0,.32.08.58.23.76.16.18.4.28.72.28.22,0,.42-.05.58-.14.16-.09.29-.21.38-.35.09-.14.14-.28.14-.43,0-.2-.04-.4-.12-.59-.08-.2-.2-.36-.36-.49-.16-.13-.36-.2-.59-.2h0Z"/>
    </g>
    <g>
      <path class="st6" d="M354.94,2.94c0-.36.03-.71.09-1.06s.18-.66.34-.95c.17-.28.4-.51.7-.68.3-.17.68-.25,1.16-.25.1,0,.21,0,.33.01.12,0,.22.03.29.05v.52c-.08-.03-.18-.05-.29-.06s-.21-.02-.31-.02c-.32,0-.59.05-.81.16s-.38.25-.51.44c-.12.19-.21.4-.27.64-.06.24-.09.5-.11.78h.04c.11-.16.26-.3.45-.42s.44-.17.73-.17c.43,0,.78.13,1.05.4.27.26.4.64.4,1.12,0,.52-.14.93-.43,1.23s-.67.45-1.16.45c-.32,0-.6-.08-.86-.24-.26-.16-.46-.4-.61-.73s-.23-.74-.23-1.24v.02ZM356.63,4.63c.29,0,.53-.09.71-.28s.27-.48.27-.88c0-.32-.08-.57-.24-.76-.16-.19-.4-.28-.72-.28-.22,0-.41.05-.57.14s-.29.21-.38.35-.14.29-.14.43c0,.2.04.4.12.6s.2.36.36.49c.16.13.36.19.59.19h0Z"/>
      <path class="st6" d="M360.83,5.08h-.6V1.11c0-.12.01-.25.02-.38-.08.07-.14.14-.21.19-.06.05-.14.12-.23.2l-.53.43-.32-.41,1.35-1.05h.51v5h.01Z"/>
    </g>
    <g>
      <path class="st5" d="M263.68,104.96h-.6v-3.97c0-.12.01-.25.02-.38-.08.07-.14.14-.21.19-.06.05-.14.12-.23.2l-.53.43-.32-.41,1.35-1.05h.51v5h.01Z"/>
      <path class="st5" d="M267.02,99.89c.44,0,.8.1,1.08.31s.42.5.42.89c0,.2-.04.38-.13.52-.09.15-.2.28-.35.4-.14.11-.3.22-.48.3.21.1.39.21.56.34.17.12.3.26.4.43.1.16.15.36.15.59,0,.42-.15.75-.45,1-.3.24-.7.37-1.19.37-.54,0-.96-.12-1.24-.35-.29-.24-.43-.57-.43-.99,0-.22.05-.42.14-.59.1-.17.22-.32.38-.44s.33-.22.51-.31c-.25-.14-.46-.31-.62-.51-.17-.2-.25-.45-.25-.76,0-.25.07-.47.2-.64s.31-.31.53-.41c.22-.09.48-.14.76-.14h0ZM265.97,103.69c0,.24.09.44.26.61.17.16.44.24.8.24.34,0,.6-.08.78-.24.18-.16.27-.37.27-.63,0-.24-.1-.44-.29-.61s-.45-.3-.76-.42l-.11-.04c-.31.14-.54.29-.7.46s-.24.38-.24.64h0ZM267.01,100.39c-.26,0-.47.06-.64.19-.16.12-.24.3-.24.54,0,.17.04.32.12.43s.19.22.33.3c.14.08.29.16.46.23.24-.1.45-.23.61-.37.17-.14.25-.34.25-.6,0-.23-.08-.41-.25-.54-.16-.12-.38-.19-.65-.19h.01Z"/>
    </g>
    <g>
      <path class="st5" d="M282.26,102.26h-.6v-3.97c0-.12.01-.25.02-.38-.08.07-.14.14-.21.19-.06.05-.14.12-.23.2l-.53.43-.32-.41,1.35-1.05h.51v5h.01Z"/>
      <path class="st5" d="M283.98,100.13c0-.36.03-.71.09-1.06s.18-.66.34-.95c.17-.28.4-.51.7-.68.3-.17.68-.25,1.16-.25.1,0,.21,0,.33.01.12,0,.22.03.29.05v.52c-.08-.03-.18-.05-.29-.06s-.21-.02-.31-.02c-.32,0-.59.05-.81.16s-.38.25-.51.44c-.12.19-.21.4-.27.64s-.09.5-.11.78h.04c.11-.16.26-.3.45-.42s.44-.17.73-.17c.43,0,.78.13,1.05.4.27.26.4.64.4,1.12,0,.52-.14.93-.43,1.23s-.67.45-1.16.45c-.32,0-.6-.08-.86-.24-.26-.16-.46-.4-.61-.73s-.23-.74-.23-1.24v.02ZM285.68,101.81c.29,0,.53-.09.71-.28s.27-.48.27-.88c0-.32-.08-.57-.24-.76s-.4-.28-.72-.28c-.22,0-.41.05-.57.14s-.29.21-.38.35-.14.29-.14.43c0,.2.04.4.12.6s.2.36.36.49c.16.13.36.19.59.19h0Z"/>
    </g>
    <g>
      <path class="st5" d="M301.97,116.13h-3.3v-.51l1.31-1.32c.25-.25.46-.48.63-.67.17-.2.31-.39.4-.57.09-.19.13-.39.13-.62,0-.28-.08-.48-.25-.63-.16-.14-.38-.21-.64-.21s-.46.04-.64.13c-.18.08-.37.2-.56.35l-.33-.41c.2-.16.42-.3.68-.42.25-.11.54-.17.86-.17.47,0,.84.12,1.11.36s.41.56.41.97c0,.26-.05.51-.16.73-.11.23-.26.46-.45.68s-.42.46-.67.71l-1.04,1.03v.03h2.53v.56l-.02-.02Z"/>
      <path class="st5" d="M304.51,111.06c.44,0,.8.1,1.08.31s.42.5.42.89c0,.2-.04.38-.13.52-.09.15-.2.28-.35.4-.14.11-.3.22-.48.3.21.1.39.21.56.34.17.12.3.26.4.43.1.16.15.36.15.59,0,.42-.15.75-.45,1-.3.24-.7.37-1.19.37-.54,0-.96-.12-1.24-.35-.29-.24-.43-.57-.43-.99,0-.22.05-.42.14-.59.1-.17.22-.32.38-.44s.33-.22.51-.31c-.25-.14-.46-.31-.62-.51-.17-.2-.25-.45-.25-.76,0-.25.07-.47.2-.64s.31-.31.53-.41c.22-.09.48-.14.76-.14h0ZM303.46,114.86c0,.24.09.44.26.61.17.16.44.24.8.24.34,0,.6-.08.78-.24.18-.16.27-.37.27-.63,0-.24-.1-.44-.29-.61s-.45-.3-.76-.42l-.11-.04c-.31.14-.54.29-.7.46s-.24.38-.24.64h0ZM304.5,111.55c-.26,0-.47.06-.64.19-.16.12-.24.3-.24.54,0,.17.04.32.12.43s.19.22.33.3c.14.08.29.16.46.23.24-.1.45-.23.61-.37.17-.14.25-.34.25-.6,0-.23-.08-.41-.25-.54-.16-.12-.38-.19-.65-.19h.01Z"/>
    </g>
    <g>
      <path class="st5" d="M320.6,113.96h-3.3v-.51l1.31-1.32c.25-.25.46-.48.63-.67.17-.2.31-.39.4-.57.09-.19.13-.39.13-.62,0-.28-.08-.48-.25-.63-.16-.14-.38-.21-.64-.21s-.46.04-.64.13c-.18.08-.37.2-.56.35l-.33-.41c.2-.16.42-.3.68-.42.25-.11.54-.17.86-.17.47,0,.84.12,1.11.36s.41.56.41.97c0,.26-.05.51-.16.73-.11.23-.26.46-.45.68s-.42.46-.67.71l-1.04,1.03v.03h2.53v.56l-.02-.02Z"/>
      <path class="st5" d="M321.42,111.82c0-.36.03-.71.09-1.06s.18-.66.34-.95c.17-.28.4-.51.7-.68.3-.17.68-.25,1.16-.25.1,0,.21,0,.33.01.12,0,.22.03.29.05v.52c-.08-.03-.18-.05-.29-.06s-.21-.02-.31-.02c-.32,0-.59.05-.81.16s-.38.25-.51.44c-.12.19-.21.4-.27.64s-.09.5-.11.78h.04c.11-.16.26-.3.45-.42s.44-.17.73-.17c.43,0,.78.13,1.05.4.27.26.4.64.4,1.12,0,.52-.14.93-.43,1.23s-.67.45-1.16.45c-.32,0-.6-.08-.86-.24-.26-.16-.46-.4-.61-.73s-.23-.74-.23-1.24v.02ZM323.11,113.51c.29,0,.53-.09.71-.28s.27-.48.27-.88c0-.32-.08-.57-.24-.76s-.4-.28-.72-.28c-.22,0-.41.05-.57.14s-.29.21-.38.35-.14.29-.14.43c0,.2.04.4.12.6s.2.36.36.49c.16.13.36.19.59.19h0Z"/>
    </g>
    <g>
      <path class="st5" d="M338.98,124.36c0,.34-.09.6-.28.8s-.44.33-.75.4v.03c.4.05.69.17.89.38s.3.47.3.81c0,.29-.07.55-.2.78-.14.22-.34.4-.63.52s-.65.19-1.09.19c-.26,0-.5-.02-.73-.06-.22-.04-.44-.11-.64-.21v-.57c.21.11.44.19.68.24.24.06.48.08.7.08.45,0,.77-.09.97-.26.2-.18.3-.42.3-.72s-.12-.54-.37-.68-.59-.21-1.03-.21h-.48v-.52h.49c.41,0,.72-.09.93-.26s.32-.4.32-.69c0-.24-.08-.43-.25-.56-.16-.13-.38-.2-.67-.2s-.5.04-.69.12-.38.18-.57.3l-.31-.42c.18-.14.4-.26.66-.36s.56-.15.9-.15c.52,0,.91.12,1.17.35.25.23.38.53.38.89v-.02Z"/>
      <path class="st5" d="M343.33,125.33c0,.36-.03.71-.09,1.06-.06.35-.18.66-.34.95-.17.28-.4.51-.7.68-.3.17-.69.25-1.16.25-.09,0-.2,0-.33-.02-.13,0-.23-.03-.3-.05v-.52c.18.06.39.09.62.09.33,0,.6-.05.81-.16s.38-.25.51-.44c.13-.18.22-.4.27-.64.06-.25.09-.5.1-.77h-.04c-.11.16-.26.3-.45.41s-.44.17-.74.17c-.43,0-.78-.13-1.04-.4s-.4-.64-.4-1.12c0-.35.07-.65.2-.9s.32-.45.56-.58c.24-.14.52-.2.84-.2s.6.08.86.24c.26.16.46.4.61.73.15.32.22.74.22,1.24v-.02ZM341.63,123.64c-.29,0-.53.1-.71.29-.18.19-.28.48-.28.88,0,.32.08.58.23.76.16.18.4.28.72.28.22,0,.42-.05.58-.14.16-.09.29-.21.38-.35s.14-.28.14-.43c0-.2-.04-.4-.12-.59-.08-.2-.2-.36-.36-.49-.16-.13-.36-.2-.59-.2h0Z"/>
    </g>
    <g>
      <path class="st5" d="M357.57,122.06c0,.34-.09.6-.28.8s-.44.33-.75.4v.03c.4.05.69.17.89.38s.3.47.3.81c0,.29-.07.55-.2.78-.14.22-.34.4-.63.52s-.65.19-1.09.19c-.26,0-.5-.02-.73-.06-.22-.04-.44-.11-.64-.21v-.57c.21.11.44.19.68.24.24.06.48.08.7.08.45,0,.77-.09.97-.26.2-.18.3-.42.3-.72s-.12-.54-.37-.68-.59-.21-1.03-.21h-.48v-.52h.49c.41,0,.72-.09.93-.26s.32-.4.32-.69c0-.24-.08-.43-.25-.56-.16-.13-.38-.2-.67-.2s-.5.04-.69.12-.38.18-.57.3l-.31-.42c.18-.14.4-.26.66-.36s.56-.15.9-.15c.52,0,.91.12,1.17.35.25.23.38.53.38.89v-.02Z"/>
      <path class="st5" d="M359.2,125.89l2.05-4.44h-2.7v-.56h3.35v.48l-2.03,4.52h-.68.01Z"/>
    </g>
    <g>
      <path class="st6" d="M376.53,35.35c0,.34-.09.6-.28.8s-.44.33-.75.4v.03c.4.05.69.17.89.38.2.21.3.47.3.81,0,.29-.07.55-.2.78-.14.22-.34.4-.63.52s-.65.19-1.09.19c-.26,0-.5-.02-.73-.06-.22-.04-.44-.11-.64-.21v-.57c.21.11.44.19.68.24.24.06.48.08.7.08.45,0,.77-.09.97-.26.2-.18.3-.42.3-.72s-.12-.54-.37-.68-.59-.21-1.03-.21h-.48v-.52h.49c.41,0,.72-.09.93-.26s.32-.4.32-.69c0-.24-.08-.43-.25-.56-.16-.13-.38-.2-.67-.2s-.5.04-.69.12c-.19.08-.38.18-.57.3l-.31-.42c.18-.14.4-.26.66-.36s.56-.15.9-.15c.52,0,.91.12,1.17.35.25.23.38.53.38.89v-.02Z"/>
      <path class="st6" d="M379.59,39.18h-.6v-3.97c0-.12.01-.25.02-.38-.08.07-.14.14-.21.19-.06.05-.14.12-.23.2l-.53.43-.32-.41,1.35-1.05h.51v5h.01Z"/>
    </g>
    <g>
      <path class="st5" d="M376.35,114.45h-3.3v-.51l1.31-1.32c.25-.25.46-.48.63-.67s.31-.39.4-.57c.09-.19.13-.39.13-.62,0-.28-.08-.48-.25-.63-.16-.14-.38-.21-.64-.21s-.46.04-.64.13c-.18.08-.37.2-.56.35l-.33-.41c.2-.16.42-.3.68-.42.25-.11.54-.17.86-.17.47,0,.84.12,1.11.36s.41.56.41.97c0,.26-.05.51-.16.73-.11.23-.26.46-.45.68s-.42.46-.67.71l-1.04,1.03v.03h2.53v.56l-.02-.02Z"/>
      <path class="st5" d="M377.77,114.45l2.05-4.44h-2.7v-.56h3.35v.48l-2.03,4.52h-.68.01Z"/>
    </g>
    <g>
      <path class="st6" d="M394.94,44.61h-3.3v-.51l1.31-1.32c.25-.25.46-.48.63-.67.17-.2.31-.39.4-.57.09-.19.13-.39.13-.62,0-.28-.08-.48-.25-.63-.16-.14-.38-.21-.64-.21s-.46.04-.64.13c-.18.08-.37.2-.56.35l-.33-.41c.2-.16.42-.3.68-.42.25-.11.54-.17.86-.17.47,0,.84.12,1.11.36s.41.56.41.97c0,.26-.05.51-.16.73-.11.23-.26.46-.45.68s-.42.46-.67.71l-1.04,1.03v.03h2.53v.56l-.02-.02Z"/>
      <path class="st6" d="M395.76,42.48c0-.36.03-.71.09-1.06s.18-.66.34-.95c.17-.28.4-.51.7-.68.3-.17.68-.25,1.16-.25.1,0,.21,0,.33,0,.12,0,.22.03.29.05v.52c-.08-.03-.18-.05-.29-.06s-.21-.02-.31-.02c-.32,0-.59.05-.81.16s-.38.25-.51.44c-.12.19-.21.4-.27.64-.06.24-.09.5-.11.78h.04c.11-.16.26-.3.45-.42s.44-.17.73-.17c.43,0,.78.13,1.05.4.27.26.4.64.4,1.12,0,.52-.14.93-.43,1.23s-.67.45-1.16.45c-.32,0-.6-.08-.86-.24-.26-.16-.46-.4-.61-.73s-.23-.74-.23-1.24v.02ZM397.45,44.16c.29,0,.53-.09.71-.28s.27-.48.27-.88c0-.32-.08-.57-.24-.76s-.4-.28-.72-.28c-.22,0-.41.05-.57.14s-.29.21-.38.35-.14.29-.14.43c0,.2.04.4.12.6s.2.36.36.49c.16.13.36.19.59.19h0Z"/>
    </g>
    <g>
      <path class="st5" d="M394.74,117.52c0,.34-.09.6-.28.8-.19.2-.44.33-.75.4v.03c.4.05.69.17.89.38s.3.47.3.81c0,.29-.07.55-.2.78-.14.22-.34.4-.63.52s-.65.19-1.09.19c-.26,0-.5-.02-.73-.06-.22-.04-.44-.11-.64-.21v-.57c.21.11.44.19.68.24.24.06.48.08.7.08.45,0,.77-.09.97-.26.2-.18.3-.42.3-.72s-.12-.54-.37-.68-.59-.21-1.03-.21h-.48v-.52h.49c.41,0,.72-.09.93-.26.21-.17.32-.4.32-.69,0-.24-.08-.43-.25-.56-.16-.13-.38-.2-.67-.2s-.5.04-.69.12-.38.18-.57.3l-.31-.42c.18-.14.4-.26.66-.36s.56-.15.9-.15c.52,0,.91.12,1.17.35.25.23.38.53.38.89v-.02Z"/>
      <path class="st5" d="M398.95,117.52c0,.34-.09.6-.28.8-.19.2-.44.33-.75.4v.03c.4.05.69.17.89.38s.3.47.3.81c0,.29-.07.55-.2.78-.14.22-.34.4-.63.52s-.65.19-1.09.19c-.26,0-.5-.02-.73-.06-.22-.04-.44-.11-.64-.21v-.57c.21.11.44.19.68.24.24.06.48.08.7.08.45,0,.77-.09.97-.26.2-.18.3-.42.3-.72s-.12-.54-.37-.68-.59-.21-1.03-.21h-.48v-.52h.49c.41,0,.72-.09.93-.26.21-.17.32-.4.32-.69,0-.24-.08-.43-.25-.56-.16-.13-.38-.2-.67-.2s-.5.04-.69.12-.38.18-.57.3l-.31-.42c.18-.14.4-.26.66-.36s.56-.15.9-.15c.52,0,.91.12,1.17.35.25.23.38.53.38.89v-.02Z"/>
    </g>
    <rect class="st0" x="3.1" y="73.59" width="4.71" height="2.92"/>
    <rect class="st0" x="3.1" y="76.92" width="4.71" height="2.92"/>
    <g>
      <path class="st6" d="M411.78,12.08c.51,0,.92.13,1.22.38.31.26.46.62.46,1.08,0,.52-.17.93-.49,1.22s-.79.44-1.38.44c-.26,0-.5-.02-.73-.07-.22-.05-.41-.11-.57-.2v-.58c.17.1.37.18.61.24s.47.09.69.09c.37,0,.67-.09.89-.26.23-.18.34-.45.34-.82,0-.33-.1-.58-.3-.75-.2-.17-.52-.26-.95-.26-.13,0-.28.01-.45.03s-.3.05-.41.07l-.31-.2.19-2.36h2.51v.56h-1.98l-.12,1.45c.08-.01.19-.03.32-.05.14-.02.29-.03.45-.03v.02Z"/>
      <path class="st6" d="M417.61,15.14h-3.3v-.51l1.31-1.32c.25-.25.46-.48.63-.67.17-.2.31-.39.4-.57.09-.19.13-.39.13-.62,0-.28-.08-.48-.25-.63-.16-.14-.38-.21-.64-.21s-.46.04-.64.13c-.18.08-.37.2-.56.35l-.33-.41c.2-.16.42-.3.68-.42.25-.11.54-.17.86-.17.47,0,.84.12,1.11.36s.41.56.41.97c0,.26-.05.51-.16.73-.11.23-.26.46-.45.68-.19.22-.42.46-.67.71l-1.04,1.03v.03h2.53v.56l-.02-.02Z"/>
    </g>
    <g>
      <path class="st5" d="M413.77,129.94h-.73v1.13h-.59v-1.13h-2.39v-.53l2.35-3.37h.64v3.34h.73v.55h-.01ZM412.44,129.39v-1.58c0-.24,0-.45.01-.62s.01-.33.02-.49h-.03c-.04.09-.08.18-.14.29-.06.1-.11.19-.16.26l-1.5,2.13h1.8Z"/>
      <path class="st5" d="M417.68,131.08h-3.3v-.51l1.31-1.32c.25-.25.46-.48.63-.67.17-.2.31-.39.4-.57.09-.19.13-.39.13-.62,0-.28-.08-.48-.25-.63-.16-.14-.38-.21-.64-.21s-.46.04-.64.13c-.18.08-.37.2-.56.35l-.33-.41c.2-.16.42-.3.68-.42.25-.11.54-.17.86-.17.47,0,.84.12,1.11.36s.41.56.41.97c0,.26-.05.51-.16.73-.11.23-.26.46-.45.68-.19.22-.42.46-.67.71l-1.04,1.03v.03h2.53v.56l-.02-.02Z"/>
    </g>
    <rect class="st0" x="18.67" y="65.45" width="3.4" height="5.53"/>
    <rect class="st0" x="25.39" y="64.57" width="3.4" height="5.53"/>
    <rect class="st0" x="37.17" y="59.13" width="3.39" height="5.66"/>
    <rect class="st0" x="43.9" y="58.77" width="3.39" height="5.66"/>
    <rect class="st0" x="55.76" y="59.43" width="3.39" height="5.66"/>
    <rect class="st0" x="62.48" y="59.43" width="3.39" height="5.66"/>
    <rect class="st0" x="74.34" y="55.6" width="2.33" height="5.66"/>
    <rect class="st0" x="82.13" y="55.6" width="2.33" height="5.66"/>
    <rect class="st0" x="92.94" y="51.29" width="1.67" height="5.66"/>
    <rect class="st0" x="101.37" y="51.29" width="1.67" height="5.66"/>
    <rect class="st0" x="111.52" y="57.59" width="3.41" height="5.66"/>
    <rect class="st0" x="118.22" y="57.59" width="3.41" height="5.66"/>
    <rect class="st0" x="130.1" y="62.87" width="3.19" height="5.66"/>
    <rect class="st0" x="137.01" y="62.87" width="3.19" height="5.66"/>
    <rect class="st0" x="148.69" y="63.18" width="3.19" height="5.66"/>
    <rect class="st0" x="155.6" y="63.18" width="3.19" height="5.66"/>
    <rect class="st0" x="167.27" y="59.71" width="3.36" height="5.66"/>
    <rect class="st0" x="174.02" y="59.71" width="3.36" height="5.66"/>
    <rect class="st0" x="185.85" y="59.71" width="3.36" height="5.66"/>
    <rect class="st0" x="192.6" y="59.71" width="3.36" height="5.66"/>
    <rect class="st0" x="204.44" y="52.26" width="1.53" height="5.66"/>
    <rect class="st0" x="213.02" y="52.26" width="1.53" height="5.66"/>
    <rect class="st0" x="223.02" y="55.63" width="2.33" height="5.66"/>
    <rect class="st0" x="230.8" y="55.63" width="2.33" height="5.66"/>
    <rect class="st0" x="241.61" y="65.16" width="3.37" height="5.66"/>
    <rect class="st0" x="248.34" y="65.16" width="3.37" height="5.66"/>
    <rect class="st0" x="260.2" y="82.66" width="1.11" height="5.66"/>
    <rect class="st0" x="278.78" y="52.79" width="1.69" height="5.66"/>
    <rect class="st0" x="287.19" y="52.79" width="1.69" height="5.66"/>
    <rect class="st0" x="315.95" y="60.49" width="3.43" height="5.66"/>
    <rect class="st0" x="322.62" y="60.49" width="3.43" height="5.66"/>
    <rect class="st0" x="334.54" y="55.01" width="1.61" height="5.66"/>
    <rect class="st0" x="343.03" y="55.01" width="1.61" height="5.66"/>
    <rect class="st0" x="353.12" y="41.21" width="1.21" height="5.66"/>
    <rect class="st0" x="362.02" y="41.21" width="1.21" height="5.66"/>
    <rect class="st0" x="371.71" y="62.64" width="3.18" height="5.66"/>
    <rect class="st0" x="378.64" y="62.64" width="3.18" height="5.66"/>
    <rect class="st0" x="297.36" y="84.88" width="1.21" height="5.66"/>
    <rect class="st0" x="306.26" y="84.88" width="1.21" height="5.66"/>
    <rect class="st0" x="269.19" y="82.66" width="1.11" height="5.66"/>
    <rect class="st0" x="390.3" y="88.44" width=".94" height="5.54"/>
    <rect class="st0" x="399.46" y="88.53" width=".94" height="5.54"/>
    <rect class="st0" x="408.87" y="55.9" width="1.61" height="5.54"/>
    <rect class="st0" x="417.36" y="55.9" width="1.61" height="5.54"/>
    <rect class="st0" x="20.18" y="63.41" width="7.82" height="2.4"/>
    <rect class="st0" x="38.01" y="57" width="7.82" height="2.4"/>
    <rect class="st0" x="38.01" y="57" width="7.82" height="2.4"/>
    <rect class="st0" x="76.1" y="53.46" width="7.82" height="2.4"/>
    <rect class="st0" x="132.06" y="61.27" width="7.82" height="2.4"/>
  </g>
</svg>