<?xml version="1.0" encoding="UTF-8"?>
<svg id="Layer_1" xmlns="http://www.w3.org/2000/svg" version="1.1" viewBox="0 0 451.72 113.7">
  <!-- Generator: Adobe Illustrator 29.6.0, SVG Export Plug-In . SVG Version: 2.1.1 Build 207)  -->
  <defs>
    <style>
      .st0, .st1 {
        fill: none;
      }

      .st2 {
        fill: #049791;
      }

      .st1 {
        stroke: #000;
        stroke-miterlimit: 10;
        stroke-width: .25px;
      }

      .st3 {
        fill: #006ba6;
      }

      .st4 {
        fill: #33aba6;
      }
    </style>
  </defs>
  <g id="Graph">
    <g>
      <rect class="st4" y="83.98" width="9.92" height="15.73"/>
      <rect class="st4" x="18.41" y="87.3" width="9.92" height="12.42"/>
      <rect class="st4" x="36.81" y="81.27" width="9.92" height="18.44"/>
      <rect class="st4" x="55.22" y="78.52" width="9.92" height="21.19"/>
      <rect class="st4" x="73.63" y="73.29" width="9.92" height="26.43"/>
      <rect class="st4" x="92.04" y="66.14" width="9.92" height="33.57"/>
      <rect class="st4" x="110.44" y="61.84" width="9.92" height="37.89"/>
      <rect class="st4" x="128.85" y="73.03" width="9.92" height="26.69"/>
      <rect class="st4" x="147.26" y="61.63" width="9.92" height="38.09"/>
      <rect class="st4" x="165.67" y="60.23" width="9.92" height="39.49"/>
      <rect class="st4" x="184.07" y="59.2" width="9.92" height="40.51"/>
      <rect class="st4" x="202.48" y="55.61" width="9.92" height="44.1"/>
      <rect class="st4" x="220.89" y="53.94" width="9.92" height="45.78"/>
      <rect class="st4" x="239.3" y="45.15" width="9.92" height="54.57"/>
      <rect class="st4" x="257.71" y="50.07" width="9.92" height="49.64"/>
      <rect class="st4" x="276.11" y="43.43" width="9.92" height="56.28"/>
      <rect class="st4" x="294.52" y="36.57" width="9.92" height="63.14"/>
      <rect class="st4" x="312.93" y="35.63" width="9.92" height="64.09"/>
      <rect class="st4" x="331.34" y="37.09" width="9.92" height="62.63"/>
      <rect class="st4" x="349.74" y="21.72" width="9.92" height="77.99"/>
      <rect class="st4" x="368.15" y="17.19" width="9.92" height="82.52"/>
      <rect class="st4" x="386.56" y="21.38" width="9.92" height="78.33"/>
      <rect class="st4" x="404.97" y="20.13" width="9.92" height="79.59"/>
      <rect class="st3" x="423.38" y="10.76" width="9.92" height="88.96"/>
    </g>
    <rect class="st0" x="433.28" y="83.72" width="18.41" height="14.11"/>
  </g>
  <g id="Text">
    <line class="st1" y1="99.82" x2="451.72" y2="99.82"/>
    <g>
      <path d="M59.87,106.32c0,.54-.06,1-.17,1.39s-.29.68-.54.88c-.24.21-.57.31-.96.31-.56,0-.98-.23-1.25-.68-.27-.46-.4-1.09-.4-1.89,0-.54.05-1,.17-1.39.11-.38.29-.68.53-.88.24-.2.56-.3.96-.3.56,0,.98.23,1.25.68s.41,1.08.41,1.89h0ZM57.17,106.32c0,.69.08,1.2.23,1.54s.42.51.8.51.64-.17.8-.51c.16-.34.24-.85.24-1.54s-.08-1.19-.24-1.53-.43-.51-.8-.51-.65.17-.8.51-.23.85-.23,1.53Z"/>
      <path d="M62.14,105.76c.51,0,.92.13,1.22.39s.46.62.46,1.08c0,.52-.17.92-.49,1.22-.33.3-.79.44-1.38.44-.26,0-.5-.02-.73-.07-.22-.05-.41-.11-.57-.2v-.58c.17.1.37.18.61.24s.47.09.69.09c.37,0,.67-.09.89-.26.23-.17.34-.45.34-.82,0-.33-.1-.58-.3-.75-.2-.18-.52-.26-.95-.26-.13,0-.28.01-.45.04s-.3.05-.41.07l-.31-.2.19-2.36h2.51v.56h-1.98l-.12,1.45c.08-.01.19-.03.32-.05.14-.02.29-.03.45-.03h.01Z"/>
    </g>
    <g>
      <path d="M41.33,106.32c0,.54-.06,1-.17,1.39s-.29.68-.54.88c-.24.21-.57.31-.96.31-.56,0-.98-.23-1.25-.68-.27-.46-.4-1.09-.4-1.89,0-.54.05-1,.17-1.39.11-.38.29-.68.53-.88.24-.2.56-.3.96-.3.56,0,.98.23,1.25.68s.41,1.08.41,1.89h0ZM38.63,106.32c0,.69.08,1.2.23,1.54s.42.51.8.51.64-.17.8-.51c.16-.34.24-.85.24-1.54s-.08-1.19-.24-1.53-.43-.51-.8-.51-.65.17-.8.51-.23.85-.23,1.53Z"/>
      <path d="M45.54,107.69h-.73v1.13h-.59v-1.13h-2.39v-.53l2.35-3.37h.64v3.34h.73v.55h0ZM44.21,107.14v-1.58c0-.24,0-.45,0-.62,0-.17,0-.33.02-.49h-.03c-.04.09-.08.18-.14.29-.06.1-.11.19-.16.26l-1.5,2.14h1.8Z"/>
    </g>
    <g>
      <path d="M78.25,106.32c0,.54-.06,1-.17,1.39s-.29.68-.54.88c-.24.21-.57.31-.96.31-.56,0-.98-.23-1.25-.68-.27-.46-.4-1.09-.4-1.89,0-.54.05-1,.17-1.39.11-.38.29-.68.53-.88s.56-.3.96-.3c.56,0,.98.23,1.25.68s.41,1.08.41,1.89h0ZM75.55,106.32c0,.69.08,1.2.23,1.54s.42.51.8.51.64-.17.8-.51c.16-.34.24-.85.24-1.54s-.08-1.19-.24-1.53c-.16-.34-.43-.51-.8-.51s-.65.17-.8.51-.23.85-.23,1.53Z"/>
      <path d="M78.98,106.69c0-.36.03-.71.09-1.06s.18-.66.34-.95c.17-.28.4-.51.7-.67.3-.17.68-.25,1.16-.25.1,0,.21,0,.33.01.12,0,.22.03.29.05v.53c-.08-.03-.18-.05-.29-.06s-.21-.02-.31-.02c-.32,0-.59.05-.81.16s-.38.25-.51.44c-.12.19-.21.4-.27.64s-.09.5-.11.78h.04c.11-.16.26-.3.45-.42.19-.12.44-.17.73-.17.43,0,.78.13,1.05.4.27.26.4.64.4,1.12,0,.52-.14.93-.43,1.23s-.67.45-1.16.45c-.32,0-.6-.08-.86-.24-.26-.16-.46-.4-.61-.73s-.23-.74-.23-1.24h.01ZM80.67,108.37c.29,0,.53-.09.71-.28s.27-.48.27-.88c0-.32-.08-.57-.24-.76s-.4-.28-.72-.28c-.22,0-.41.05-.57.14-.16.09-.29.21-.38.35s-.14.29-.14.43c0,.2.04.4.12.6s.2.36.36.49.36.19.59.19Z"/>
    </g>
    <g>
      <path d="M96.67,106.32c0,.54-.06,1-.17,1.39s-.29.68-.54.88c-.24.21-.57.31-.96.31-.56,0-.98-.23-1.25-.68-.27-.46-.4-1.09-.4-1.89,0-.54.05-1,.17-1.39.11-.38.29-.68.53-.88s.56-.3.96-.3c.56,0,.98.23,1.25.68s.41,1.08.41,1.89h0ZM93.97,106.32c0,.69.08,1.2.23,1.54s.42.51.8.51.64-.17.8-.51c.16-.34.24-.85.24-1.54s-.08-1.19-.24-1.53c-.16-.34-.43-.51-.8-.51s-.65.17-.8.51-.23.85-.23,1.53Z"/>
      <path d="M97.96,108.82l2.05-4.44h-2.7v-.56h3.35v.48l-2.03,4.52h-.68,0Z"/>
    </g>
    <g>
      <path d="M115.07,106.32c0,.54-.06,1-.17,1.39s-.29.68-.54.88c-.24.21-.57.31-.96.31-.56,0-.98-.23-1.25-.68-.27-.46-.4-1.09-.4-1.89,0-.54.05-1,.17-1.39.11-.38.29-.68.53-.88s.56-.3.96-.3c.56,0,.98.23,1.25.68s.41,1.08.41,1.89h0ZM112.37,106.32c0,.69.08,1.2.23,1.54s.42.51.8.51.64-.17.8-.51c.16-.34.24-.85.24-1.54s-.08-1.19-.24-1.53c-.16-.34-.43-.51-.8-.51s-.65.17-.8.51-.23.85-.23,1.53Z"/>
      <path d="M117.41,103.75c.44,0,.8.1,1.08.31s.42.5.42.89c0,.2-.04.38-.13.53s-.2.28-.35.4-.3.22-.48.3c.21.1.39.21.56.34.17.12.3.26.4.43.1.16.15.36.15.59,0,.42-.15.75-.45,1s-.7.37-1.19.37c-.54,0-.96-.12-1.24-.35-.29-.24-.43-.57-.43-.99,0-.22.05-.42.14-.59.1-.17.22-.32.38-.44.16-.12.33-.22.51-.31-.25-.14-.46-.31-.62-.51s-.25-.45-.25-.76c0-.25.07-.47.2-.64.13-.18.31-.31.53-.41.22-.09.48-.14.76-.14v-.02ZM116.36,107.56c0,.24.09.44.26.61.17.16.44.24.8.24.34,0,.6-.08.78-.24.18-.16.27-.37.27-.63,0-.24-.1-.44-.29-.61s-.45-.3-.76-.42l-.11-.04c-.31.14-.54.29-.7.46s-.24.38-.24.64h-.01ZM117.4,104.25c-.26,0-.47.06-.64.18-.16.12-.24.3-.24.54,0,.17.04.32.12.43.08.12.19.22.33.3s.29.16.46.23c.24-.1.45-.23.61-.37.17-.14.25-.34.25-.59,0-.23-.08-.41-.25-.54-.16-.12-.38-.18-.65-.18h0Z"/>
    </g>
    <g>
      <path d="M133.47,106.32c0,.54-.06,1-.17,1.39s-.29.68-.54.88c-.24.21-.57.31-.96.31-.56,0-.98-.23-1.25-.68-.27-.46-.4-1.09-.4-1.89,0-.54.05-1,.17-1.39.11-.38.29-.68.53-.88s.56-.3.96-.3c.56,0,.98.23,1.25.68s.41,1.08.41,1.89h0ZM130.77,106.32c0,.69.08,1.2.23,1.54s.42.51.8.51.64-.17.8-.51c.16-.34.24-.85.24-1.54s-.08-1.19-.24-1.53-.43-.51-.8-.51-.65.17-.8.51-.23.85-.23,1.53Z"/>
      <path d="M137.46,105.96c0,.36-.03.71-.09,1.06s-.18.66-.34.95c-.17.28-.4.51-.7.68s-.69.25-1.16.25c-.09,0-.2,0-.33-.02s-.23-.03-.3-.05v-.53c.18.06.39.09.62.09.33,0,.6-.05.81-.16.21-.11.38-.25.51-.44.13-.18.22-.4.27-.64s.09-.5.1-.77h-.04c-.11.16-.26.29-.45.41-.19.11-.44.17-.74.17-.43,0-.78-.13-1.04-.4s-.4-.64-.4-1.12c0-.35.07-.65.2-.9s.32-.45.56-.58c.24-.13.52-.2.84-.2s.6.08.86.24c.26.16.46.4.61.73s.22.74.22,1.24h-.01ZM135.76,104.27c-.29,0-.53.1-.71.29s-.28.48-.28.88c0,.32.08.58.23.76.16.18.4.28.72.28.22,0,.42-.05.58-.14s.29-.21.38-.35c.09-.14.14-.28.14-.43,0-.2-.04-.4-.12-.6s-.2-.36-.36-.49-.36-.2-.59-.2h0Z"/>
    </g>
    <g>
      <path d="M150.56,108.82h-.6v-3.97c0-.12,0-.25.02-.38-.08.08-.14.14-.21.19-.06.05-.14.12-.23.2l-.53.43-.32-.41,1.35-1.05h.51v5h.01Z"/>
      <path d="M155.74,106.32c0,.54-.06,1-.17,1.39s-.29.68-.54.88c-.24.21-.57.31-.96.31-.56,0-.98-.23-1.25-.68-.27-.46-.4-1.09-.4-1.89,0-.54.05-1,.17-1.39.11-.38.29-.68.53-.88s.56-.3.96-.3c.56,0,.98.23,1.25.68s.41,1.08.41,1.89h0ZM153.04,106.32c0,.69.08,1.2.23,1.54s.42.51.8.51.64-.17.8-.51c.16-.34.24-.85.24-1.54s-.08-1.19-.24-1.53-.43-.51-.8-.51-.65.17-.8.51-.23.85-.23,1.53Z"/>
    </g>
    <g>
      <path d="M169.28,108.82h-.6v-3.97c0-.12,0-.25.02-.38-.08.08-.14.14-.21.19-.06.05-.14.12-.23.2l-.53.43-.32-.41,1.35-1.05h.51v5h.01Z"/>
      <path d="M173.28,108.82h-.6v-3.97c0-.12,0-.25.02-.38-.08.08-.14.14-.21.19-.06.05-.14.12-.23.2l-.53.43-.32-.41,1.35-1.05h.51v5h.01Z"/>
    </g>
    <g>
      <path d="M187.4,108.82h-.6v-3.97c0-.12,0-.25.02-.38-.08.08-.14.14-.21.19-.06.05-.14.12-.23.2l-.53.43-.32-.41,1.35-1.05h.51v5h.01Z"/>
      <path d="M192.55,108.82h-3.3v-.51l1.31-1.32c.25-.25.46-.48.63-.67s.31-.39.4-.57.13-.39.13-.62c0-.28-.08-.48-.25-.63-.16-.14-.38-.21-.64-.21s-.46.04-.64.13c-.18.08-.37.2-.56.35l-.33-.41c.2-.16.42-.3.68-.42.25-.11.54-.17.86-.17.47,0,.84.12,1.11.36s.41.56.41.97c0,.26-.05.51-.16.74-.11.23-.26.46-.45.68s-.42.46-.67.71l-1.04,1.03v.03h2.53v.56l-.02-.03Z"/>
    </g>
    <g>
      <path d="M242.64,108.82h-.6v-3.97c0-.12,0-.25.02-.38-.08.08-.14.14-.21.19-.06.05-.14.12-.23.2l-.53.43-.32-.41,1.35-1.05h.51v5h.01Z"/>
      <path d="M246.08,105.76c.51,0,.92.13,1.22.39s.46.62.46,1.08c0,.52-.17.92-.49,1.22-.33.3-.79.44-1.38.44-.26,0-.5-.02-.73-.07-.22-.05-.41-.11-.57-.2v-.58c.17.1.37.18.61.24s.47.09.69.09c.37,0,.67-.09.89-.26.23-.17.34-.45.34-.82,0-.33-.1-.58-.3-.75-.2-.18-.52-.26-.95-.26-.13,0-.28.01-.45.04s-.3.05-.41.07l-.31-.2.19-2.36h2.51v.56h-1.98l-.12,1.45c.08-.01.19-.03.32-.05.14-.02.29-.03.45-.03h0Z"/>
    </g>
    <g>
      <path d="M224.1,108.82h-.6v-3.97c0-.12,0-.25.02-.38-.08.08-.14.14-.21.19-.06.05-.14.12-.23.2l-.53.43-.32-.41,1.35-1.05h.51v5h.01Z"/>
      <path d="M229.48,107.69h-.73v1.13h-.59v-1.13h-2.39v-.53l2.35-3.37h.64v3.34h.73v.55h-.01ZM228.16,107.14v-1.58c0-.24,0-.45,0-.62,0-.17,0-.33.02-.49h-.03c-.04.09-.08.18-.14.29-.06.1-.11.19-.16.26l-1.5,2.14h1.8Z"/>
    </g>
    <g>
      <path d="M205.83,108.82h-.6v-3.97c0-.12,0-.25.02-.38-.08.08-.14.14-.21.19-.06.05-.14.12-.23.2l-.53.43-.32-.41,1.35-1.05h.51v5h.01Z"/>
      <path d="M210.8,104.99c0,.34-.09.6-.28.8-.19.2-.44.33-.75.4v.03c.4.05.69.17.89.38s.3.47.3.8c0,.29-.07.55-.2.78-.14.22-.34.4-.63.52s-.65.19-1.09.19c-.26,0-.5-.02-.73-.06-.22-.04-.44-.11-.64-.21v-.57c.21.11.44.19.68.25.24.06.48.08.7.08.45,0,.77-.09.97-.26.2-.17.3-.42.3-.72s-.12-.54-.37-.68-.59-.21-1.03-.21h-.48v-.52h.49c.41,0,.72-.09.93-.26.21-.17.32-.4.32-.69,0-.24-.08-.43-.25-.56-.16-.13-.38-.2-.67-.2s-.5.04-.69.12-.38.18-.57.3l-.31-.42c.18-.14.4-.26.66-.36s.56-.15.9-.15c.52,0,.91.12,1.17.35.25.23.38.53.38.89v-.02Z"/>
    </g>
    <g>
      <path d="M261.02,108.82h-.6v-3.97c0-.12.01-.25.02-.38-.08.08-.14.14-.21.19-.06.05-.14.12-.23.2l-.53.43-.32-.41,1.35-1.05h.51v5h.01Z"/>
      <path d="M262.92,106.69c0-.36.03-.71.09-1.06s.18-.66.34-.95c.17-.28.4-.51.7-.68.3-.17.68-.25,1.16-.25.1,0,.21,0,.33.01.12,0,.22.03.29.05v.53c-.08-.03-.18-.05-.29-.06s-.21-.02-.31-.02c-.32,0-.59.05-.81.16s-.38.25-.51.44c-.12.19-.21.4-.27.64s-.09.5-.11.78h.04c.11-.16.26-.3.45-.42.19-.12.44-.17.73-.17.43,0,.78.13,1.05.4.27.26.4.64.4,1.12,0,.52-.14.93-.43,1.23s-.67.45-1.16.45c-.32,0-.6-.08-.86-.24-.26-.16-.46-.4-.61-.73s-.23-.74-.23-1.24h0ZM264.61,108.37c.29,0,.53-.09.71-.28s.27-.48.27-.88c0-.32-.08-.57-.24-.76s-.4-.28-.72-.28c-.22,0-.41.05-.57.14s-.29.21-.38.35-.14.29-.14.43c0,.2.04.4.12.6s.2.36.36.49c.16.13.36.19.59.19h0Z"/>
    </g>
    <g>
      <path d="M279.43,108.82h-.6v-3.97c0-.12.01-.25.02-.38-.08.08-.14.14-.21.19-.06.05-.14.12-.23.2l-.53.43-.32-.41,1.35-1.05h.51v5h.01Z"/>
      <path d="M281.9,108.82l2.05-4.44h-2.7v-.56h3.35v.48l-2.03,4.52h-.68.01Z"/>
    </g>
    <g>
      <path d="M297.84,108.82h-.6v-3.97c0-.12.01-.25.02-.38-.08.08-.14.14-.21.19-.06.05-.14.12-.23.2l-.53.43-.32-.41,1.35-1.05h.51v5h.01Z"/>
      <path d="M301.36,103.75c.44,0,.8.1,1.08.31s.42.5.42.89c0,.2-.04.38-.13.53s-.2.28-.35.4-.3.22-.48.3c.21.1.39.21.56.34.17.12.3.26.4.43.1.16.15.36.15.59,0,.42-.15.75-.45,1s-.7.37-1.19.37c-.54,0-.96-.12-1.24-.35-.29-.24-.43-.57-.43-.99,0-.22.05-.42.14-.59.1-.17.22-.32.38-.44s.33-.22.51-.31c-.25-.14-.46-.31-.62-.51s-.25-.45-.25-.76c0-.25.07-.47.2-.64.13-.18.31-.31.53-.41.22-.09.48-.14.76-.14v-.02ZM300.31,107.56c0,.24.09.44.26.61.17.16.44.24.8.24.34,0,.6-.08.78-.24.18-.16.27-.37.27-.63,0-.24-.1-.44-.29-.61s-.45-.3-.76-.42l-.11-.04c-.31.14-.54.29-.7.46s-.24.38-.24.64h0ZM301.35,104.25c-.26,0-.47.06-.64.18-.16.12-.24.3-.24.54,0,.17.04.32.12.43.08.12.19.22.33.3.14.08.29.16.46.23.24-.1.45-.23.61-.37.17-.14.25-.34.25-.59,0-.23-.08-.41-.25-.54-.16-.12-.38-.18-.65-.18h.01Z"/>
    </g>
    <g>
      <path d="M316.25,108.82h-.6v-3.97c0-.12.01-.25.02-.38-.08.08-.14.14-.21.19-.06.05-.14.12-.23.2l-.53.43-.32-.41,1.35-1.05h.51v5h.01Z"/>
      <path d="M321.41,105.96c0,.36-.03.71-.09,1.06s-.18.66-.34.95c-.17.28-.4.51-.7.68-.3.17-.69.25-1.16.25-.09,0-.2,0-.33-.02s-.23-.03-.3-.05v-.53c.18.06.39.09.62.09.33,0,.6-.05.81-.16s.38-.25.51-.44c.13-.18.22-.4.27-.64s.09-.5.1-.77h-.04c-.11.16-.26.29-.45.41-.19.11-.44.17-.74.17-.43,0-.78-.13-1.04-.4s-.4-.64-.4-1.12c0-.35.07-.65.2-.9s.32-.45.56-.58c.24-.13.52-.2.84-.2s.6.08.86.24c.26.16.46.4.61.73s.22.74.22,1.24h0ZM319.72,104.27c-.29,0-.53.1-.71.29s-.28.48-.28.88c0,.32.08.58.23.76.16.18.4.28.72.28.22,0,.42-.05.58-.14s.29-.21.38-.35.14-.28.14-.43c0-.2-.04-.4-.12-.6s-.2-.36-.36-.49c-.16-.13-.36-.2-.59-.2h0Z"/>
    </g>
    <g>
      <path d="M335.95,108.82h-3.3v-.51l1.31-1.32c.25-.25.46-.48.63-.67s.31-.39.4-.57.13-.39.13-.62c0-.28-.08-.48-.25-.63-.16-.14-.38-.21-.64-.21s-.46.04-.64.13c-.18.08-.37.2-.56.35l-.33-.41c.2-.16.42-.3.68-.42.25-.11.54-.17.86-.17.47,0,.84.12,1.11.36s.41.56.41.97c0,.26-.05.51-.16.74-.11.23-.26.46-.45.68s-.42.46-.67.71l-1.04,1.03v.03h2.53v.56l-.02-.03Z"/>
      <path d="M339.97,106.32c0,.54-.06,1-.17,1.39s-.29.68-.54.88c-.24.21-.57.31-.96.31-.56,0-.98-.23-1.25-.68-.27-.46-.4-1.09-.4-1.89,0-.54.05-1,.17-1.39.11-.38.29-.68.53-.88s.56-.3.96-.3c.56,0,.98.23,1.25.68s.41,1.08.41,1.89h0ZM337.27,106.32c0,.69.08,1.2.23,1.54s.42.51.8.51.64-.17.8-.51c.16-.34.24-.85.24-1.54s-.08-1.19-.24-1.53-.43-.51-.8-.51-.65.17-.8.51-.23.85-.23,1.53Z"/>
    </g>
    <g>
      <path d="M354.95,108.82h-3.3v-.51l1.31-1.32c.25-.25.46-.48.63-.67s.31-.39.4-.57.13-.39.13-.62c0-.28-.08-.48-.25-.63-.16-.14-.38-.21-.64-.21s-.46.04-.64.13c-.18.08-.37.2-.56.35l-.33-.41c.2-.16.42-.3.68-.42.25-.11.54-.17.86-.17.47,0,.84.12,1.11.36s.41.56.41.97c0,.26-.05.51-.16.74-.11.23-.26.46-.45.68s-.42.46-.67.71l-1.04,1.03v.03h2.53v.56l-.02-.03Z"/>
      <path d="M357.8,108.82h-.6v-3.97c0-.12.01-.25.02-.38-.08.08-.14.14-.21.19-.06.05-.14.12-.23.2l-.53.43-.32-.41,1.35-1.05h.51v5h.01Z"/>
    </g>
    <g>
      <path d="M372.78,108.82h-3.3v-.51l1.31-1.32c.25-.25.46-.48.63-.67s.31-.39.4-.57.13-.39.13-.62c0-.28-.08-.48-.25-.63-.16-.14-.38-.21-.64-.21s-.46.04-.64.13c-.18.08-.37.2-.56.35l-.33-.41c.2-.16.42-.3.68-.42.25-.11.54-.17.86-.17.47,0,.84.12,1.11.36s.41.56.41.97c0,.26-.05.51-.16.74-.11.23-.26.46-.45.68s-.42.46-.67.71l-1.04,1.03v.03h2.53v.56l-.02-.03Z"/>
      <path d="M376.79,108.82h-3.3v-.51l1.31-1.32c.25-.25.46-.48.63-.67s.31-.39.4-.57.13-.39.13-.62c0-.28-.08-.48-.25-.63-.16-.14-.38-.21-.64-.21s-.46.04-.64.13c-.18.08-.37.2-.56.35l-.33-.41c.2-.16.42-.3.68-.42.25-.11.54-.17.86-.17.47,0,.84.12,1.11.36s.41.56.41.97c0,.26-.05.51-.16.74-.11.23-.26.46-.45.68s-.42.46-.67.71l-1.04,1.03v.03h2.53v.56l-.02-.03Z"/>
    </g>
    <g>
      <path d="M391.17,108.82h-3.3v-.51l1.31-1.32c.25-.25.46-.48.63-.67s.31-.39.4-.57.13-.39.13-.62c0-.28-.08-.48-.25-.63-.16-.14-.38-.21-.64-.21s-.46.04-.64.13c-.18.08-.37.2-.56.35l-.33-.41c.2-.16.42-.3.68-.42.25-.11.54-.17.86-.17.47,0,.84.12,1.11.36s.41.56.41.97c0,.26-.05.51-.16.74-.11.23-.26.46-.45.68s-.42.46-.67.71l-1.04,1.03v.03h2.53v.56l-.02-.03Z"/>
      <path d="M394.99,104.99c0,.34-.09.6-.28.8-.19.2-.44.33-.75.4v.03c.4.05.69.17.89.38s.3.47.3.8c0,.29-.07.55-.2.78-.14.22-.34.4-.63.52s-.65.19-1.09.19c-.26,0-.5-.02-.73-.06-.22-.04-.44-.11-.64-.21v-.57c.21.11.44.19.68.25s.48.08.7.08c.45,0,.77-.09.97-.26.2-.17.3-.42.3-.72s-.12-.54-.37-.68-.59-.21-1.03-.21h-.48v-.52h.49c.41,0,.72-.09.93-.26.21-.17.32-.4.32-.69,0-.24-.08-.43-.25-.56-.16-.13-.38-.2-.67-.2s-.5.04-.69.12-.38.18-.57.3l-.31-.42c.18-.14.4-.26.66-.36s.56-.15.9-.15c.52,0,.91.12,1.17.35.25.23.38.53.38.89v-.02Z"/>
    </g>
    <g>
      <path d="M409.58,108.82h-3.3v-.51l1.31-1.32c.25-.25.46-.48.63-.67s.31-.39.4-.57.13-.39.13-.62c0-.28-.08-.48-.25-.63-.16-.14-.38-.21-.64-.21s-.46.04-.64.13c-.18.08-.37.2-.56.35l-.33-.41c.2-.16.42-.3.68-.42.25-.11.54-.17.86-.17.47,0,.84.12,1.11.36s.41.56.41.97c0,.26-.05.51-.16.74-.11.23-.26.46-.45.68s-.42.46-.67.71l-1.04,1.03v.03h2.53v.56l-.02-.03Z"/>
      <path d="M413.81,107.69h-.73v1.13h-.59v-1.13h-2.39v-.53l2.35-3.37h.64v3.34h.73v.55h-.01ZM412.48,107.14v-1.58c0-.24,0-.45.01-.62,0-.17.01-.33.02-.49h-.03c-.04.09-.08.18-.14.29-.06.1-.11.19-.16.26l-1.5,2.14h1.8Z"/>
    </g>
    <g>
      <path d="M427.98,108.82h-3.3v-.51l1.31-1.32c.25-.25.46-.48.63-.67s.31-.39.4-.57.13-.39.13-.62c0-.28-.08-.48-.25-.63-.16-.14-.38-.21-.64-.21s-.46.04-.64.13c-.18.08-.37.2-.56.35l-.33-.41c.2-.16.42-.3.68-.42.25-.11.54-.17.86-.17.47,0,.84.12,1.11.36s.41.56.41.97c0,.26-.05.51-.16.74-.11.23-.26.46-.45.68s-.42.46-.67.71l-1.04,1.03v.03h2.53v.56l-.02-.03Z"/>
      <path d="M430.27,105.76c.51,0,.92.13,1.22.39s.46.62.46,1.08c0,.52-.17.92-.49,1.22-.33.3-.79.44-1.38.44-.26,0-.5-.02-.73-.07-.22-.05-.41-.11-.57-.2v-.58c.17.1.37.18.61.24s.47.09.69.09c.37,0,.67-.09.89-.26.23-.17.34-.45.34-.82,0-.33-.1-.58-.3-.75-.2-.18-.52-.26-.95-.26-.13,0-.28.01-.45.04s-.3.05-.41.07l-.31-.2.19-2.36h2.51v.56h-1.98l-.12,1.45c.08-.01.19-.03.32-.05.14-.02.29-.03.45-.03h.01Z"/>
    </g>
    <g>
      <path d="M23.05,106.32c0,.54-.06,1-.17,1.39s-.29.68-.54.88c-.24.21-.57.31-.96.31-.56,0-.98-.23-1.25-.68-.27-.46-.4-1.09-.4-1.89,0-.54.05-1,.17-1.39.11-.38.29-.68.53-.88s.56-.3.96-.3c.56,0,.98.23,1.25.68s.41,1.08.41,1.89h0ZM20.35,106.32c0,.69.08,1.2.23,1.54s.42.51.8.51.64-.17.8-.51c.16-.34.24-.85.24-1.54s-.08-1.19-.24-1.53-.43-.51-.8-.51-.65.17-.8.51-.23.85-.23,1.53Z"/>
      <path d="M26.84,104.99c0,.34-.09.6-.28.8-.19.2-.44.33-.75.4v.03c.4.05.69.17.89.38.2.21.3.47.3.8,0,.29-.07.55-.2.78-.14.22-.34.4-.63.52s-.65.19-1.09.19c-.26,0-.5-.02-.73-.06-.22-.04-.44-.11-.64-.21v-.57c.21.11.44.19.68.25s.48.08.7.08c.45,0,.77-.09.97-.26.2-.17.3-.42.3-.72s-.12-.54-.37-.68-.59-.21-1.03-.21h-.48v-.52h.49c.41,0,.72-.09.93-.26.21-.17.32-.4.32-.69,0-.24-.08-.43-.25-.56-.16-.13-.38-.2-.67-.2s-.5.04-.69.12-.38.18-.57.3l-.31-.42c.18-.14.4-.26.66-.36s.56-.15.9-.15c.52,0,.91.12,1.17.35.25.23.38.53.38.89v-.02Z"/>
    </g>
    <g>
      <path d="M4.63,106.32c0,.54-.06,1-.17,1.39s-.29.68-.54.88c-.24.21-.57.31-.96.31-.56,0-.98-.23-1.25-.68-.27-.46-.4-1.09-.4-1.89,0-.54.05-1,.17-1.39.11-.38.29-.68.53-.88s.56-.3.96-.3c.56,0,.98.23,1.25.68.27.45.41,1.08.41,1.89h0ZM1.93,106.32c0,.69.08,1.2.23,1.54s.42.51.8.51.64-.17.8-.51c.16-.34.24-.85.24-1.54s-.08-1.19-.24-1.53-.43-.51-.8-.51-.65.17-.8.51-.23.85-.23,1.53Z"/>
      <path d="M8.61,108.82h-3.3v-.51l1.31-1.32c.25-.25.46-.48.63-.67s.31-.39.4-.57.13-.39.13-.62c0-.28-.08-.48-.25-.63-.16-.14-.38-.21-.64-.21s-.46.04-.64.13c-.18.08-.37.2-.56.35l-.33-.41c.2-.16.42-.3.68-.42.25-.11.54-.17.86-.17.47,0,.84.12,1.11.36.27.24.41.56.41.97,0,.26-.05.51-.16.74-.11.23-.26.46-.45.68-.19.22-.42.46-.67.71l-1.04,1.03v.03h2.53v.56l-.02-.03Z"/>
    </g>
    <rect class="st0" x="36.82" y="102.41" width="1.2" height="11.29"/>
    <rect class="st0" x="45.55" y="102.41" width="1.2" height="11.29"/>
    <rect class="st0" x="36.82" y="102.41" width="1.2" height="11.29"/>
    <rect class="st0" x="18.41" y="103" width="1.33" height="8.87"/>
    <rect class="st0" x="27" y="103" width="1.33" height="8.87"/>
  </g>
  <g id="Figure">
    <g>
      <path class="st2" d="M223.45,51h-3.3v-.51l1.31-1.32c.25-.25.46-.48.63-.67.17-.2.31-.39.4-.57.09-.19.13-.39.13-.62,0-.28-.08-.48-.25-.63-.16-.14-.38-.21-.64-.21s-.46.04-.64.13c-.18.08-.37.2-.56.35l-.33-.41c.2-.16.42-.3.68-.42.25-.11.54-.17.86-.17.47,0,.84.12,1.11.36s.41.56.41.97c0,.26-.05.51-.16.73-.11.23-.26.46-.45.68s-.42.46-.67.71l-1.04,1.03v.03h2.53v.56l-.02-.02Z"/>
      <path class="st2" d="M227.53,51h-3.3v-.51l1.31-1.32c.25-.25.46-.48.63-.67.17-.2.31-.39.4-.57.09-.19.13-.39.13-.62,0-.28-.08-.48-.25-.63-.16-.14-.38-.21-.64-.21s-.46.04-.64.13c-.18.08-.37.2-.56.35l-.33-.41c.2-.16.42-.3.68-.42.25-.11.54-.17.86-.17.47,0,.84.12,1.11.36s.41.56.41.97c0,.26-.05.51-.16.73-.11.23-.26.46-.45.68s-.42.46-.67.71l-1.04,1.03v.03h2.53v.56l-.02-.02Z"/>
      <path class="st2" d="M231.43,47.17c0,.34-.09.6-.28.8-.19.2-.44.33-.75.4v.03c.4.05.69.17.89.38s.3.47.3.81c0,.29-.07.55-.2.78-.14.22-.34.4-.63.52s-.65.19-1.09.19c-.26,0-.5-.02-.73-.06-.22-.04-.44-.11-.64-.21v-.57c.21.11.44.19.68.24.24.06.48.08.7.08.45,0,.77-.09.97-.26.2-.18.3-.42.3-.72s-.12-.54-.37-.68-.59-.21-1.03-.21h-.48v-.52h.49c.41,0,.72-.09.93-.26.21-.17.32-.4.32-.69,0-.24-.08-.43-.25-.56-.16-.13-.38-.2-.67-.2s-.5.04-.69.12-.38.18-.57.3l-.31-.42c.18-.14.4-.26.66-.36s.56-.15.9-.15c.52,0,.91.12,1.17.35.25.23.38.53.38.89v-.02Z"/>
    </g>
    <g>
      <path class="st2" d="M205.39,52.67h-3.3v-.51l1.31-1.32c.25-.25.46-.48.63-.67.17-.2.31-.39.4-.57.09-.19.13-.39.13-.62,0-.28-.08-.48-.25-.63-.16-.14-.38-.21-.64-.21s-.46.04-.64.13c-.18.08-.37.2-.56.35l-.33-.41c.2-.16.42-.3.68-.42.25-.11.54-.17.86-.17.47,0,.84.12,1.11.36s.41.56.41.97c0,.26-.05.51-.16.73-.11.23-.26.46-.45.68s-.42.46-.67.71l-1.04,1.03v.03h2.53v.56l-.02-.02Z"/>
      <path class="st2" d="M208.09,52.67h-.6v-3.97c0-.12,0-.25.02-.38-.08.07-.14.14-.21.19-.06.05-.14.12-.23.2l-.53.43-.32-.41,1.35-1.05h.51v5h.01Z"/>
      <path class="st2" d="M211.14,49.61c.51,0,.92.13,1.22.38.31.26.46.62.46,1.08,0,.52-.17.93-.49,1.22-.33.3-.79.44-1.38.44-.26,0-.5-.02-.73-.07-.22-.05-.41-.11-.57-.2v-.58c.17.1.37.18.61.24s.47.09.69.09c.37,0,.67-.09.89-.26.23-.18.34-.45.34-.82,0-.33-.1-.58-.3-.75s-.52-.26-.95-.26c-.13,0-.28.01-.45.03s-.3.05-.41.07l-.31-.2.19-2.36h2.51v.56h-1.98l-.12,1.45c.08-.01.19-.03.32-.05.14-.02.29-.03.45-.03v.02Z"/>
    </g>
    <g>
      <path class="st2" d="M241.93,42.21h-3.3v-.51l1.31-1.32c.25-.25.46-.48.63-.67.17-.2.31-.39.4-.57.09-.19.13-.39.13-.62,0-.28-.08-.48-.25-.63-.16-.14-.38-.21-.64-.21s-.46.04-.64.13c-.18.08-.37.2-.56.35l-.33-.41c.2-.16.42-.3.68-.42.25-.11.54-.17.86-.17.47,0,.84.12,1.11.36s.41.56.41.97c0,.26-.05.51-.16.73-.11.23-.26.46-.45.68s-.42.46-.67.71l-1.04,1.03v.03h2.53v.56l-.02-.02Z"/>
      <path class="st2" d="M242.57,40.08c0-.36.03-.71.09-1.06s.18-.66.34-.95c.17-.28.4-.51.7-.68.3-.17.68-.25,1.16-.25.1,0,.21,0,.33,0,.12,0,.22.03.29.05v.52c-.08-.03-.18-.05-.29-.06s-.21-.02-.31-.02c-.32,0-.59.05-.81.16s-.38.25-.51.44c-.12.19-.21.4-.27.64-.06.24-.09.5-.11.78h.04c.11-.16.26-.3.45-.42s.44-.17.73-.17c.43,0,.78.13,1.05.4.27.26.4.64.4,1.12,0,.52-.14.93-.43,1.23s-.67.45-1.16.45c-.32,0-.6-.08-.86-.24s-.46-.4-.61-.73-.23-.74-.23-1.24v.02ZM244.26,41.76c.29,0,.53-.09.71-.28s.27-.48.27-.88c0-.32-.08-.57-.24-.76s-.4-.28-.72-.28c-.22,0-.41.05-.57.14s-.29.21-.38.35c-.09.14-.14.29-.14.43,0,.2.04.4.12.6s.2.36.36.49.36.19.59.19h0Z"/>
      <path class="st2" d="M246.64,40.08c0-.36.03-.71.09-1.06s.18-.66.34-.95c.17-.28.4-.51.7-.68.3-.17.68-.25,1.16-.25.1,0,.21,0,.33,0,.12,0,.22.03.29.05v.52c-.08-.03-.18-.05-.29-.06s-.21-.02-.31-.02c-.32,0-.59.05-.81.16s-.38.25-.51.44c-.12.19-.21.4-.27.64-.06.24-.09.5-.11.78h.04c.11-.16.26-.3.45-.42s.44-.17.73-.17c.43,0,.78.13,1.05.4.27.26.4.64.4,1.12,0,.52-.14.93-.43,1.23s-.67.45-1.16.45c-.32,0-.6-.08-.86-.24s-.46-.4-.61-.73-.23-.74-.23-1.24v.02ZM248.33,41.76c.29,0,.53-.09.71-.28s.27-.48.27-.88c0-.32-.08-.57-.24-.76s-.4-.28-.72-.28c-.22,0-.41.05-.57.14s-.29.21-.38.35c-.09.14-.14.29-.14.43,0,.2.04.4.12.6s.2.36.36.49.36.19.59.19h0Z"/>
    </g>
    <g>
      <path class="st2" d="M296.89,29.74c0,.34-.09.6-.28.8s-.44.33-.75.4v.03c.4.05.69.17.89.38.2.21.3.47.3.81,0,.29-.07.55-.2.78-.14.22-.34.4-.63.52s-.65.19-1.09.19c-.26,0-.5-.02-.73-.06-.22-.04-.44-.11-.64-.21v-.57c.21.11.44.19.68.24.24.06.48.08.7.08.45,0,.77-.09.97-.26.2-.18.3-.42.3-.72s-.12-.54-.37-.68-.59-.21-1.03-.21h-.48v-.52h.49c.41,0,.72-.09.93-.26s.32-.4.32-.69c0-.24-.08-.43-.25-.56-.16-.13-.38-.2-.67-.2s-.5.04-.69.12c-.19.08-.38.18-.57.3l-.31-.42c.18-.14.4-.26.66-.36s.56-.15.9-.15c.52,0,.91.12,1.17.35.25.23.38.53.38.89v-.02Z"/>
      <path class="st2" d="M301.17,31.06c0,.54-.06,1-.17,1.39-.11.38-.29.68-.54.88-.24.21-.57.31-.96.31-.56,0-.98-.23-1.25-.68-.27-.46-.4-1.09-.4-1.89,0-.54.05-1,.17-1.39.11-.38.29-.68.53-.88s.56-.3.96-.3c.56,0,.98.23,1.25.68s.41,1.08.41,1.89h0ZM298.47,31.06c0,.69.08,1.2.23,1.54.16.34.42.51.8.51s.64-.17.8-.51c.16-.34.24-.85.24-1.54s-.08-1.19-.24-1.53-.43-.51-.8-.51-.65.17-.8.51c-.16.34-.23.85-.23,1.53Z"/>
      <path class="st2" d="M303.59,28.5c.44,0,.8.1,1.08.31.28.21.42.5.42.89,0,.2-.04.38-.13.52-.09.15-.2.28-.35.4-.14.11-.3.22-.48.3.21.1.39.21.56.34.17.12.3.26.4.43.1.16.15.36.15.59,0,.42-.15.75-.45,1-.3.24-.7.37-1.19.37-.54,0-.96-.12-1.24-.35-.29-.24-.43-.57-.43-.99,0-.22.05-.42.14-.59.1-.17.22-.32.38-.44s.33-.22.51-.31c-.25-.14-.46-.31-.62-.51-.17-.2-.25-.45-.25-.76,0-.25.07-.47.2-.64s.31-.31.53-.41c.22-.09.48-.14.76-.14h0ZM302.54,32.3c0,.24.09.44.26.61.17.16.44.24.8.24.34,0,.6-.08.78-.24s.27-.37.27-.63c0-.24-.1-.44-.29-.61s-.45-.3-.76-.42l-.11-.04c-.31.14-.54.29-.7.46s-.24.38-.24.64h0ZM303.58,28.99c-.26,0-.47.06-.64.19-.16.12-.24.3-.24.54,0,.17.04.32.12.43s.19.22.33.3c.14.08.29.16.46.23.24-.1.45-.23.61-.37.17-.14.25-.34.25-.6,0-.23-.08-.41-.25-.54-.16-.12-.38-.19-.65-.19h.01Z"/>
    </g>
    <g>
      <path class="st2" d="M315.68,28.87c0,.34-.09.6-.28.8s-.44.33-.75.4v.03c.4.05.69.17.89.38.2.21.3.47.3.81,0,.29-.07.55-.2.78-.14.22-.34.4-.63.52s-.65.19-1.09.19c-.26,0-.5-.02-.73-.06-.22-.04-.44-.11-.64-.21v-.57c.21.11.44.19.68.24.24.06.48.08.7.08.45,0,.77-.09.97-.26.2-.18.3-.42.3-.72s-.12-.54-.37-.68-.59-.21-1.03-.21h-.48v-.52h.49c.41,0,.72-.09.93-.26s.32-.4.32-.69c0-.24-.08-.43-.25-.56-.16-.13-.38-.2-.67-.2s-.5.04-.69.12c-.19.08-.38.18-.57.3l-.31-.42c.18-.14.4-.26.66-.36s.56-.15.9-.15c.52,0,.91.12,1.17.35.25.23.38.53.38.89v-.02Z"/>
      <path class="st2" d="M318.57,32.69h-.6v-3.97c0-.12.01-.25.02-.38-.08.07-.14.14-.21.19-.06.05-.14.12-.23.2l-.53.43-.32-.41,1.35-1.05h.51v5h.01Z"/>
      <path class="st2" d="M323.12,28.87c0,.34-.09.6-.28.8s-.44.33-.75.4v.03c.4.05.69.17.89.38.2.21.3.47.3.81,0,.29-.07.55-.2.78-.14.22-.34.4-.63.52s-.65.19-1.09.19c-.26,0-.5-.02-.73-.06-.22-.04-.44-.11-.64-.21v-.57c.21.11.44.19.68.24.24.06.48.08.7.08.45,0,.77-.09.97-.26.2-.18.3-.42.3-.72s-.12-.54-.37-.68-.59-.21-1.03-.21h-.48v-.52h.49c.41,0,.72-.09.93-.26s.32-.4.32-.69c0-.24-.08-.43-.25-.56-.16-.13-.38-.2-.67-.2s-.5.04-.69.12c-.19.08-.38.18-.57.3l-.31-.42c.18-.14.4-.26.66-.36s.56-.15.9-.15c.52,0,.91.12,1.17.35.25.23.38.53.38.89v-.02Z"/>
    </g>
    <g>
      <path class="st2" d="M333.67,30.25c0,.34-.09.6-.28.8s-.44.33-.75.4v.03c.4.05.69.17.89.38.2.21.3.47.3.81,0,.29-.07.55-.2.78-.14.22-.34.4-.63.52s-.65.19-1.09.19c-.26,0-.5-.02-.73-.06-.22-.04-.44-.11-.64-.21v-.57c.21.11.44.19.68.24.24.06.48.08.7.08.45,0,.77-.09.97-.26.2-.18.3-.42.3-.72s-.12-.54-.37-.68-.59-.21-1.03-.21h-.48v-.52h.49c.41,0,.72-.09.93-.26s.32-.4.32-.69c0-.24-.08-.43-.25-.56-.16-.13-.38-.2-.67-.2s-.5.04-.69.12c-.19.08-.38.18-.57.3l-.31-.42c.18-.14.4-.26.66-.36s.56-.15.9-.15c.52,0,.91.12,1.17.35.25.23.38.53.38.89v-.02Z"/>
      <path class="st2" d="M337.96,31.57c0,.54-.06,1-.17,1.39-.11.38-.29.68-.54.88-.24.21-.57.31-.96.31-.56,0-.98-.23-1.25-.68-.27-.46-.4-1.09-.4-1.89,0-.54.05-1,.17-1.39.11-.38.29-.68.53-.88s.56-.3.96-.3c.56,0,.98.23,1.25.68s.41,1.08.41,1.89h0ZM335.26,31.57c0,.69.08,1.2.23,1.54.16.34.42.51.8.51s.64-.17.8-.51c.16-.34.24-.85.24-1.54s-.08-1.19-.24-1.53-.43-.51-.8-.51-.65.17-.8.51c-.16.34-.23.85-.23,1.53Z"/>
      <path class="st2" d="M338.8,31.94c0-.36.03-.71.09-1.06s.18-.66.34-.95c.17-.28.4-.51.7-.68.3-.17.68-.25,1.16-.25.1,0,.21,0,.33,0,.12,0,.22.03.29.05v.52c-.08-.03-.18-.05-.29-.06s-.21-.02-.31-.02c-.32,0-.59.05-.81.16s-.38.25-.51.44c-.12.19-.21.4-.27.64-.06.24-.09.5-.11.78h.04c.11-.16.26-.3.45-.42s.44-.17.73-.17c.43,0,.78.13,1.05.4.27.26.4.64.4,1.12,0,.52-.14.93-.43,1.23s-.67.45-1.16.45c-.32,0-.6-.08-.86-.24-.26-.16-.46-.4-.61-.73s-.23-.74-.23-1.24v.02ZM340.5,33.63c.29,0,.53-.09.71-.28s.27-.48.27-.88c0-.32-.08-.57-.24-.76s-.4-.28-.72-.28c-.22,0-.41.05-.57.14s-.29.21-.38.35-.14.29-.14.43c0,.2.04.4.12.6s.2.36.36.49c.16.13.36.19.59.19h0Z"/>
    </g>
    <g>
      <path class="st2" d="M352.78,14.96c0,.34-.09.6-.28.8s-.44.33-.75.4v.03c.4.05.69.17.89.38.2.21.3.47.3.81,0,.29-.07.55-.2.78-.14.22-.34.4-.63.52s-.65.19-1.09.19c-.26,0-.5-.02-.73-.06-.22-.04-.44-.11-.64-.21v-.57c.21.11.44.19.68.24.24.06.48.08.7.08.45,0,.77-.09.97-.26.2-.18.3-.42.3-.72s-.12-.54-.37-.68-.59-.21-1.03-.21h-.48v-.52h.49c.41,0,.72-.09.93-.26s.32-.4.32-.69c0-.24-.08-.43-.25-.56-.16-.13-.38-.2-.67-.2s-.5.04-.69.12c-.19.08-.38.18-.57.3l-.31-.42c.18-.14.4-.26.66-.36s.56-.15.9-.15c.52,0,.91.12,1.17.35.25.23.38.53.38.89v-.02Z"/>
      <path class="st2" d="M355.38,13.72c.44,0,.8.1,1.08.31.28.21.42.5.42.89,0,.2-.04.38-.13.52-.09.15-.2.28-.35.4-.14.11-.3.22-.48.3.21.1.39.21.56.34.17.12.3.26.4.43.1.16.15.36.15.59,0,.42-.15.75-.45,1-.3.24-.7.37-1.19.37-.54,0-.96-.12-1.24-.35-.29-.24-.43-.57-.43-.99,0-.22.05-.42.14-.59.1-.17.22-.32.38-.44s.33-.22.51-.31c-.25-.14-.46-.31-.62-.51-.17-.2-.25-.45-.25-.76,0-.25.07-.47.2-.64s.31-.31.53-.41c.22-.09.48-.14.76-.14h0ZM354.33,17.52c0,.24.09.44.26.61.17.16.44.24.8.24.34,0,.6-.08.78-.24s.27-.37.27-.63c0-.24-.1-.44-.29-.61s-.45-.3-.76-.42l-.11-.04c-.31.14-.54.29-.7.46s-.24.38-.24.64h0ZM355.38,14.22c-.26,0-.47.06-.64.19-.16.12-.24.3-.24.54,0,.17.04.32.12.43s.19.22.33.3c.14.08.29.16.46.23.24-.1.45-.23.61-.37.17-.14.25-.34.25-.6,0-.23-.08-.41-.25-.54-.16-.12-.38-.19-.65-.19h.01Z"/>
      <path class="st2" d="M359.75,18.79h-.6v-3.97c0-.12.01-.25.02-.38-.08.07-.14.14-.21.19-.06.05-.14.12-.23.2l-.53.43-.32-.41,1.35-1.05h.51v5h.01Z"/>
    </g>
    <g>
      <path class="st2" d="M370.91,13.12h-.73v1.13h-.59v-1.13h-2.39v-.53l2.35-3.37h.64v3.34h.73v.55h-.01ZM369.59,12.57v-1.58c0-.24,0-.45.01-.62s.01-.33.02-.49h-.03c-.04.09-.08.18-.14.29-.06.1-.11.19-.16.26l-1.5,2.13h1.8Z"/>
      <path class="st2" d="M374.87,11.75c0,.54-.06,1-.17,1.39-.11.38-.29.68-.54.88-.24.21-.57.31-.96.31-.56,0-.98-.23-1.25-.68-.27-.46-.4-1.09-.4-1.89,0-.54.05-1,.17-1.39.11-.38.29-.68.53-.88.24-.2.56-.3.96-.3.56,0,.98.23,1.25.68s.41,1.08.41,1.89h0ZM372.17,11.75c0,.69.08,1.2.23,1.54.16.34.42.51.8.51s.64-.17.8-.51c.16-.34.24-.85.24-1.54s-.08-1.19-.24-1.53-.43-.51-.8-.51-.65.17-.8.51c-.16.34-.23.85-.23,1.53Z"/>
      <path class="st2" d="M378.65,10.43c0,.34-.09.6-.28.8-.19.2-.44.33-.75.4v.03c.4.05.69.17.89.38s.3.47.3.81c0,.29-.07.55-.2.78-.14.22-.34.4-.63.52s-.65.19-1.09.19c-.26,0-.5-.02-.73-.06-.22-.04-.44-.11-.64-.21v-.57c.21.11.44.19.68.24.24.06.48.08.7.08.45,0,.77-.09.97-.26.2-.18.3-.42.3-.72s-.12-.54-.37-.68-.59-.21-1.03-.21h-.48v-.52h.49c.41,0,.72-.09.93-.26s.32-.4.32-.69c0-.24-.08-.43-.25-.56-.16-.13-.38-.2-.67-.2s-.5.04-.69.12-.38.18-.57.3l-.31-.42c.18-.14.4-.26.66-.36s.56-.15.9-.15c.52,0,.91.12,1.17.35.25.23.38.53.38.89v-.02Z"/>
    </g>
    <g>
      <path class="st2" d="M278.83,40.5h-3.3v-.51l1.31-1.32c.25-.25.46-.48.63-.67.17-.2.31-.39.4-.57.09-.19.13-.39.13-.62,0-.28-.08-.48-.25-.63-.16-.14-.38-.21-.64-.21s-.46.04-.64.13c-.18.08-.37.2-.56.35l-.33-.41c.2-.16.42-.3.68-.42.25-.11.54-.17.86-.17.47,0,.84.12,1.11.36s.41.56.41.97c0,.26-.05.51-.16.73-.11.23-.26.46-.45.68s-.42.46-.67.71l-1.04,1.03v.03h2.53v.56l-.02-.02Z"/>
      <path class="st2" d="M280.08,40.5l2.05-4.44h-2.7v-.56h3.35v.48l-2.03,4.52h-.68.01Z"/>
      <path class="st2" d="M284.97,37.43c.51,0,.92.13,1.22.38.31.26.46.62.46,1.08,0,.52-.17.93-.49,1.22s-.79.44-1.38.44c-.26,0-.5-.02-.73-.07-.22-.05-.41-.11-.57-.2v-.58c.17.1.37.18.61.24s.47.09.69.09c.37,0,.67-.09.89-.26.23-.18.34-.45.34-.82,0-.33-.1-.58-.3-.75-.2-.17-.52-.26-.95-.26-.13,0-.28,0-.45.03s-.3.05-.41.07l-.31-.2.19-2.36h2.51v.56h-1.98l-.12,1.45c.08,0,.19-.03.32-.05.14-.02.29-.03.45-.03v.02Z"/>
    </g>
    <g>
      <path class="st2" d="M260.39,47.14h-3.3v-.51l1.31-1.32c.25-.25.46-.48.63-.67.17-.2.31-.39.4-.57.09-.19.13-.39.13-.62,0-.28-.08-.48-.25-.63-.16-.14-.38-.21-.64-.21s-.46.04-.64.13c-.18.08-.37.2-.56.35l-.33-.41c.2-.16.42-.3.68-.42.25-.11.54-.17.86-.17.47,0,.84.12,1.11.36s.41.56.41.97c0,.26-.05.51-.16.73-.11.23-.26.46-.45.68-.19.22-.42.46-.67.71l-1.04,1.03v.03h2.53v.56l-.02-.02Z"/>
      <path class="st2" d="M264.55,46h-.73v1.13h-.59v-1.13h-2.39v-.53l2.35-3.37h.64v3.34h.73v.55h-.01ZM263.22,45.45v-1.58c0-.24,0-.45.01-.62s.01-.33.02-.49h-.03c-.04.09-.08.18-.14.29-.06.1-.11.19-.16.26l-1.5,2.13h1.8Z"/>
      <path class="st2" d="M268.28,47.14h-3.3v-.51l1.31-1.32c.25-.25.46-.48.63-.67.17-.2.31-.39.4-.57.09-.19.13-.39.13-.62,0-.28-.08-.48-.25-.63-.16-.14-.38-.21-.64-.21s-.46.04-.64.13c-.18.08-.37.2-.56.35l-.33-.41c.2-.16.42-.3.68-.42.25-.11.54-.17.86-.17.47,0,.84.12,1.11.36s.41.56.41.97c0,.26-.05.51-.16.73-.11.23-.26.46-.45.68-.19.22-.42.46-.67.71l-1.04,1.03v.03h2.53v.56l-.02-.02Z"/>
    </g>
    <g>
      <path class="st2" d="M185.56,56.26h-.6v-3.97c0-.12,0-.25.02-.38-.08.07-.14.14-.21.19-.06.05-.14.12-.23.2l-.53.43-.32-.41,1.35-1.05h.51v5h.01Z"/>
      <path class="st2" d="M190.3,53.4c0,.36-.03.71-.09,1.06s-.18.66-.34.95c-.17.28-.4.51-.7.67-.3.17-.69.25-1.16.25-.09,0-.2,0-.33-.02-.13-.01-.23-.03-.3-.05v-.53c.18.06.39.09.62.09.33,0,.6-.05.81-.16.21-.11.38-.25.51-.44.13-.18.22-.4.27-.64s.09-.5.1-.77h-.04c-.11.16-.26.29-.45.41s-.44.17-.74.17c-.43,0-.78-.13-1.04-.4s-.4-.64-.4-1.12c0-.35.07-.65.2-.9s.32-.45.56-.58c.24-.14.52-.2.84-.2s.6.08.86.24c.26.16.46.4.61.73.15.32.22.74.22,1.24h-.01ZM188.61,51.71c-.29,0-.53.1-.71.29-.18.19-.28.48-.28.88,0,.32.08.58.23.76s.4.28.72.28c.22,0,.42-.04.58-.14.16-.09.29-.21.38-.35.09-.14.14-.29.14-.43,0-.2-.04-.4-.12-.59-.08-.2-.2-.36-.36-.49s-.36-.2-.59-.2h0Z"/>
      <path class="st2" d="M192.7,51.2c.44,0,.8.1,1.08.31s.42.5.42.89c0,.2-.04.38-.13.52-.09.15-.2.28-.35.4-.14.12-.3.22-.48.3.21.1.39.21.56.34.17.12.3.26.4.43.1.16.15.36.15.59,0,.42-.15.75-.45,1s-.7.37-1.19.37c-.54,0-.96-.12-1.24-.35-.29-.24-.43-.57-.43-.99,0-.22.05-.42.14-.59.1-.17.22-.32.38-.44s.33-.22.51-.31c-.25-.14-.46-.31-.62-.51-.17-.2-.25-.45-.25-.76,0-.25.07-.47.2-.64s.31-.31.53-.41c.22-.09.48-.14.76-.14h.01ZM191.65,55c0,.24.09.45.26.61s.44.24.8.24c.34,0,.6-.08.78-.24.18-.16.27-.37.27-.63,0-.24-.1-.44-.29-.61s-.45-.3-.76-.42l-.11-.04c-.31.14-.54.29-.7.46s-.24.38-.24.64h-.01ZM192.7,51.69c-.26,0-.47.06-.64.19-.16.12-.24.3-.24.54,0,.17.04.32.12.43.08.12.19.22.33.3s.29.16.46.24c.24-.1.45-.23.61-.37.17-.14.25-.34.25-.6,0-.23-.08-.41-.25-.54-.16-.12-.38-.19-.65-.19h0Z"/>
    </g>
    <g>
      <path class="st2" d="M167.24,57.29h-.6v-3.97c0-.12,0-.25.02-.38-.08.07-.14.14-.21.19-.06.05-.14.12-.23.2l-.53.43-.32-.41,1.35-1.05h.51v5h.01Z"/>
      <path class="st2" d="M171.98,54.43c0,.36-.03.71-.09,1.06s-.18.66-.34.95c-.17.28-.4.51-.7.68s-.69.25-1.16.25c-.09,0-.2,0-.33-.02s-.23-.03-.3-.05v-.53c.18.06.39.09.62.09.33,0,.6-.05.81-.16.21-.11.38-.25.51-.44.13-.18.22-.4.27-.64s.09-.5.1-.77h-.04c-.11.16-.26.29-.45.41-.19.11-.44.17-.74.17-.43,0-.78-.13-1.04-.4s-.4-.64-.4-1.12c0-.35.07-.65.2-.9s.32-.45.56-.58c.24-.13.52-.2.84-.2s.6.08.86.24c.26.16.46.4.61.73s.22.74.22,1.24h-.01ZM170.29,52.74c-.29,0-.53.1-.71.29s-.28.48-.28.88c0,.32.08.58.23.76.16.18.4.28.72.28.22,0,.42-.05.58-.14s.29-.21.38-.35c.09-.14.14-.28.14-.43,0-.2-.04-.4-.12-.59-.08-.2-.2-.36-.36-.49s-.36-.2-.59-.2h0Z"/>
      <path class="st2" d="M175.71,53.46c0,.34-.09.6-.28.8-.19.2-.44.33-.75.4v.03c.4.05.69.17.89.38s.3.47.3.8c0,.29-.07.55-.2.78-.14.22-.34.4-.63.52s-.65.19-1.09.19c-.26,0-.5-.02-.73-.06-.22-.04-.44-.11-.64-.21v-.57c.21.11.44.19.68.25.24.06.48.08.7.08.45,0,.77-.09.97-.26.2-.17.3-.42.3-.72s-.12-.54-.37-.68-.59-.21-1.03-.21h-.48v-.52h.49c.41,0,.72-.09.93-.26.21-.17.32-.4.32-.69,0-.24-.08-.43-.25-.56-.16-.13-.38-.2-.67-.2s-.5.04-.69.12-.38.18-.57.3l-.31-.42c.18-.14.4-.26.66-.36s.56-.15.9-.15c.52,0,.91.12,1.17.35.25.23.38.53.38.89v-.02Z"/>
    </g>
    <g>
      <path class="st2" d="M148.7,58.69h-.6v-3.97c0-.12,0-.25.02-.38-.08.07-.14.14-.21.19-.06.05-.14.12-.23.2l-.53.43-.32-.41,1.35-1.05h.51v5h.01Z"/>
      <path class="st2" d="M151.86,53.62c.44,0,.8.1,1.08.31s.42.5.42.89c0,.2-.04.38-.13.53-.09.15-.2.28-.35.4s-.3.22-.48.3c.21.1.39.21.56.34s.3.26.4.43c.1.16.15.36.15.59,0,.42-.15.75-.45,1s-.7.37-1.19.37c-.54,0-.96-.12-1.24-.35-.29-.24-.43-.57-.43-.99,0-.22.05-.42.14-.59.1-.17.22-.32.38-.44s.33-.22.51-.31c-.25-.14-.46-.31-.62-.51s-.25-.45-.25-.76c0-.25.07-.47.2-.64.13-.18.31-.31.53-.41.22-.09.48-.14.76-.14v-.02ZM150.81,57.43c0,.24.09.44.26.61.17.16.44.24.8.24.34,0,.6-.08.78-.24.18-.16.27-.37.27-.63,0-.24-.1-.44-.29-.61s-.45-.3-.76-.42l-.11-.04c-.31.13-.54.29-.7.45-.16.17-.24.38-.24.64h-.01ZM151.86,54.12c-.26,0-.47.06-.64.18-.16.12-.24.3-.24.54,0,.17.04.32.12.43.08.12.19.22.33.3s.29.16.46.23c.24-.1.45-.23.61-.37.17-.14.25-.34.25-.59,0-.23-.08-.41-.25-.54-.16-.12-.38-.18-.65-.18h0Z"/>
      <path class="st2" d="M154.3,56.56c0-.36.03-.71.09-1.06s.18-.66.34-.95c.17-.28.4-.51.7-.67.3-.17.68-.25,1.16-.25.1,0,.21,0,.33.01.12,0,.22.03.29.05v.53c-.08-.03-.18-.05-.29-.06-.11-.01-.21-.02-.31-.02-.32,0-.59.05-.81.16s-.38.25-.51.44c-.12.19-.21.4-.27.64s-.09.5-.11.78h.04c.11-.16.26-.3.45-.42s.44-.17.73-.17c.43,0,.78.13,1.05.4.27.26.4.64.4,1.12,0,.52-.14.93-.43,1.23s-.67.45-1.16.45c-.32,0-.6-.08-.86-.24-.26-.16-.46-.4-.61-.73s-.23-.74-.23-1.24h.01ZM155.99,58.24c.29,0,.53-.09.71-.28.18-.19.27-.48.27-.88,0-.32-.08-.57-.24-.76s-.4-.28-.72-.28c-.22,0-.41.04-.57.14-.16.09-.29.21-.38.35s-.14.29-.14.43c0,.2.04.4.12.6s.2.36.36.49.36.19.59.19h0Z"/>
    </g>
    <g>
      <path class="st2" d="M130.32,70.09h-.6v-3.97c0-.12,0-.25.02-.38-.08.07-.14.14-.21.19-.06.05-.14.12-.23.2l-.53.43-.32-.41,1.35-1.05h.51v5h.01Z"/>
      <path class="st2" d="M134.86,66.26c0,.34-.09.6-.28.8-.19.2-.44.33-.75.4v.03c.4.05.69.17.89.38s.3.47.3.8c0,.29-.07.55-.2.78-.14.22-.34.4-.63.52s-.65.19-1.09.19c-.26,0-.5-.02-.73-.06-.22-.04-.44-.11-.64-.21v-.57c.21.11.44.19.68.25.24.06.48.08.7.08.45,0,.77-.09.97-.26.2-.17.3-.42.3-.72s-.12-.54-.37-.68-.59-.21-1.03-.21h-.48v-.52h.49c.41,0,.72-.09.93-.26.21-.17.32-.4.32-.69,0-.24-.08-.43-.25-.56-.16-.13-.38-.2-.67-.2s-.5.04-.69.12-.38.18-.57.3l-.31-.42c.18-.14.4-.26.66-.36s.56-.15.9-.15c.52,0,.91.12,1.17.35.25.23.38.53.38.89v-.02Z"/>
      <path class="st2" d="M139.15,67.58c0,.54-.06,1-.17,1.39s-.29.68-.54.88c-.24.21-.57.31-.96.31-.56,0-.98-.23-1.25-.68-.27-.46-.4-1.09-.4-1.89,0-.54.05-1,.17-1.39.11-.38.29-.68.53-.88s.56-.3.96-.3c.56,0,.98.23,1.25.68s.41,1.08.41,1.89h0ZM136.44,67.58c0,.69.08,1.2.23,1.54s.42.51.8.51.64-.17.8-.51c.16-.34.24-.85.24-1.54s-.08-1.19-.24-1.53-.43-.51-.8-.51-.65.17-.8.51-.23.85-.23,1.53Z"/>
    </g>
    <g>
      <path class="st2" d="M111.92,58.91h-.6v-3.97c0-.12.01-.25.02-.38-.08.07-.14.14-.21.19-.06.05-.14.12-.23.2l-.53.43-.32-.41,1.35-1.05h.51v5h.01Z"/>
      <path class="st2" d="M115.09,53.84c.44,0,.8.1,1.08.31s.42.5.42.89c0,.2-.04.38-.13.53s-.2.28-.35.4-.3.22-.48.3c.21.1.39.21.56.34.17.12.3.26.4.43.1.16.15.36.15.59,0,.42-.15.75-.45,1s-.7.37-1.19.37c-.54,0-.96-.12-1.24-.35-.29-.24-.43-.57-.43-.99,0-.22.05-.42.14-.59.1-.17.22-.32.38-.44.16-.12.33-.22.51-.31-.25-.14-.46-.31-.62-.51s-.25-.45-.25-.76c0-.25.07-.47.2-.64.13-.18.31-.31.53-.41.22-.09.48-.14.76-.14v-.02ZM114.04,57.64c0,.24.09.44.26.61.17.16.44.24.8.24.34,0,.6-.08.78-.24.18-.16.27-.37.27-.63,0-.24-.1-.44-.29-.61s-.45-.3-.76-.42l-.11-.04c-.31.14-.54.29-.7.46s-.24.38-.24.64h-.01ZM115.08,54.33c-.26,0-.47.06-.64.19-.16.12-.24.3-.24.54,0,.17.04.32.12.43.08.12.19.22.33.3s.29.16.46.23c.24-.1.45-.23.61-.37.17-.14.25-.34.25-.59,0-.23-.08-.41-.25-.54-.16-.12-.38-.19-.65-.19h0Z"/>
      <path class="st2" d="M119.03,55.84c.51,0,.92.13,1.22.39s.46.62.46,1.08c0,.52-.17.92-.49,1.22-.33.3-.79.44-1.38.44-.26,0-.5-.02-.73-.07-.22-.05-.41-.11-.57-.2v-.58c.17.1.37.18.61.24s.47.09.69.09c.37,0,.67-.09.89-.26.23-.17.34-.45.34-.82,0-.33-.1-.58-.3-.75-.2-.18-.52-.26-.95-.26-.13,0-.28.01-.45.04s-.3.05-.41.07l-.31-.2.19-2.36h2.51v.56h-1.98l-.12,1.45c.08-.01.19-.03.32-.05.14-.02.29-.03.45-.03h.01Z"/>
    </g>
    <g>
      <path class="st2" d="M75.17,70.36h-.6v-3.97c0-.12.01-.25.02-.38-.07.07-.14.14-.21.19-.06.05-.14.12-.23.2l-.53.43-.32-.41,1.35-1.05h.51v5h.01Z"/>
      <path class="st2" d="M79.87,70.36h-3.3v-.51l1.31-1.32c.25-.25.46-.48.63-.67s.31-.39.4-.57.13-.39.13-.62c0-.28-.08-.48-.25-.63-.16-.14-.38-.21-.64-.21s-.46.04-.64.13c-.18.08-.37.2-.56.35l-.33-.41c.2-.16.42-.3.68-.42.25-.11.54-.17.86-.17.47,0,.83.12,1.11.36.27.24.41.56.41.97,0,.26-.05.51-.16.74s-.26.46-.45.68c-.19.22-.42.46-.67.71l-1.04,1.03v.03h2.53v.56l-.02-.03Z"/>
      <path class="st2" d="M83.85,67.49c0,.36-.03.71-.09,1.06s-.18.66-.34.95-.4.51-.7.68c-.3.17-.69.25-1.16.25-.09,0-.2,0-.33-.02s-.23-.03-.3-.05v-.53c.18.06.39.09.62.09.33,0,.6-.05.81-.16s.38-.25.51-.44.22-.4.27-.64c.06-.25.09-.5.1-.77h-.04c-.11.16-.26.29-.45.41-.19.11-.44.17-.74.17-.43,0-.78-.13-1.04-.4s-.4-.64-.4-1.12c0-.35.07-.65.2-.9s.32-.45.56-.58c.24-.13.52-.2.84-.2s.6.08.86.24.46.4.61.73.22.74.22,1.24h0ZM82.15,65.81c-.29,0-.53.1-.71.29s-.28.48-.28.88c0,.32.08.58.23.76.16.18.4.28.72.28.22,0,.42-.05.58-.14s.29-.21.38-.35.14-.28.14-.43c0-.2-.04-.4-.12-.6s-.2-.36-.36-.49-.36-.2-.6-.2h.02Z"/>
    </g>
    <g>
      <path class="st2" d="M56.7,75.58h-.6v-3.97c0-.12,0-.25.02-.38-.08.07-.14.14-.21.19-.06.05-.14.12-.23.2l-.53.43-.32-.41,1.35-1.05h.51v5h0Z"/>
      <path class="st2" d="M61.56,73.07c0,.54-.06,1-.17,1.39-.11.38-.29.68-.54.88-.25.21-.57.31-.96.31-.57,0-.98-.23-1.25-.68s-.4-1.09-.4-1.89c0-.54.05-1,.16-1.39.11-.38.29-.68.53-.88.24-.2.56-.3.96-.3.56,0,.98.23,1.25.68s.41,1.08.41,1.89h.01ZM58.86,73.07c0,.69.08,1.2.23,1.54s.42.51.8.51.64-.17.8-.51c.16-.34.24-.85.24-1.54s-.08-1.19-.24-1.53-.43-.51-.8-.51-.65.17-.8.51-.23.85-.23,1.53Z"/>
      <path class="st2" d="M65.34,71.75c0,.34-.09.6-.28.8-.19.2-.44.33-.75.4v.03c.4.05.69.17.89.38s.3.47.3.8c0,.29-.07.55-.2.78-.14.22-.34.4-.63.52s-.64.19-1.09.19c-.26,0-.5-.02-.73-.06-.22-.04-.44-.11-.64-.21v-.57c.21.11.44.19.68.25s.48.08.7.08c.45,0,.77-.09.97-.26.2-.17.3-.42.3-.72s-.12-.54-.37-.68-.59-.21-1.03-.21h-.48v-.52h.49c.41,0,.72-.09.93-.26.21-.17.32-.4.32-.69,0-.24-.08-.43-.25-.56s-.38-.2-.67-.2-.5.04-.69.12-.38.18-.57.3l-.31-.42c.18-.14.4-.26.66-.36s.56-.15.9-.15c.52,0,.91.12,1.17.35.25.23.38.53.38.89v-.02Z"/>
    </g>
    <g>
      <path class="st2" d="M41.34,75.4c0,.36-.03.71-.09,1.06s-.18.66-.34.95c-.17.28-.4.51-.7.68s-.69.25-1.16.25c-.09,0-.2,0-.33-.02s-.23-.03-.3-.05v-.53c.18.06.39.09.62.09.33,0,.6-.05.81-.16.21-.11.38-.25.51-.44s.22-.4.27-.64c.06-.25.09-.5.1-.77h-.04c-.11.16-.26.29-.45.41-.19.11-.44.17-.74.17-.43,0-.78-.13-1.04-.4s-.4-.64-.4-1.12c0-.35.07-.65.2-.9s.32-.45.56-.58c.24-.13.52-.2.84-.2s.6.08.86.24c.26.16.46.4.61.73s.22.74.22,1.24h0ZM39.64,73.72c-.29,0-.53.1-.71.29s-.28.48-.28.88c0,.32.08.58.23.76.16.18.4.28.72.28.22,0,.42-.05.58-.14s.29-.21.38-.35.14-.28.14-.43c0-.2-.04-.4-.12-.6-.08-.2-.2-.36-.36-.49s-.36-.2-.59-.2h0Z"/>
      <path class="st2" d="M45.48,75.76c0,.54-.06,1-.17,1.39-.11.38-.29.68-.54.88-.25.21-.57.31-.96.31-.57,0-.98-.23-1.25-.68s-.4-1.09-.4-1.89c0-.54.05-1,.16-1.39.11-.38.29-.68.53-.88.24-.2.56-.3.96-.3.56,0,.98.23,1.25.68s.41,1.08.41,1.89h.01ZM42.78,75.76c0,.69.08,1.2.23,1.54s.42.51.8.51.64-.17.8-.51c.16-.34.24-.85.24-1.54s-.08-1.19-.24-1.53-.43-.51-.8-.51-.65.17-.8.51-.23.85-.23,1.53Z"/>
    </g>
    <g>
      <path class="st2" d="M20.51,82.23c0-.36.03-.71.09-1.06s.18-.66.34-.95c.17-.28.4-.51.7-.68.3-.17.68-.25,1.15-.25.1,0,.21,0,.33.01.12,0,.22.03.29.05v.52c-.08-.03-.18-.05-.29-.06s-.21-.02-.32-.02c-.32,0-.59.05-.8.16s-.38.25-.51.44c-.12.19-.21.4-.27.64-.06.24-.09.5-.11.78h.04c.11-.16.26-.3.45-.42.19-.12.44-.17.73-.17.43,0,.78.13,1.05.4.27.26.4.64.4,1.12,0,.52-.14.93-.43,1.23s-.67.45-1.16.45c-.32,0-.6-.08-.86-.24-.26-.16-.46-.4-.61-.73-.15-.33-.23-.74-.23-1.24l.02.02ZM22.21,83.91c.29,0,.53-.09.71-.28.18-.19.27-.48.27-.88,0-.32-.08-.57-.24-.76s-.4-.28-.72-.28c-.22,0-.41.05-.57.14s-.29.21-.38.35c-.09.14-.14.29-.14.43,0,.2.04.4.12.6s.2.36.36.49.36.19.59.19Z"/>
      <path class="st2" d="M26.23,84.36h-.6v-3.97c0-.12.01-.25.02-.38-.08.07-.14.14-.21.19-.06.05-.14.12-.23.2l-.53.43-.32-.41,1.35-1.05h.51v5h0Z"/>
    </g>
    <g>
      <path class="st2" d="M1.86,81.05l2.05-4.44H1.22v-.56h3.35v.48l-2.03,4.52s-.68,0-.68,0Z"/>
      <path class="st2" d="M5.96,81.05l2.05-4.44h-2.69v-.56h3.35v.48l-2.03,4.52h-.68Z"/>
    </g>
    <g>
      <path class="st2" d="M93.31,63.2h-.6v-3.97c0-.12.01-.25.02-.38-.07.07-.14.14-.21.19-.06.05-.14.12-.23.2l-.53.43-.32-.41,1.35-1.05h.51v5h.01Z"/>
      <path class="st2" d="M94.86,61.07c0-.36.03-.71.09-1.06s.18-.66.34-.95.4-.51.7-.68.68-.25,1.16-.25c.1,0,.21,0,.33.01.12,0,.22.03.29.05v.52c-.08-.03-.18-.05-.29-.06s-.21-.02-.32-.02c-.32,0-.59.05-.8.16s-.38.25-.51.44c-.12.19-.21.4-.27.64s-.09.5-.1.78h.04c.11-.16.26-.3.45-.42.19-.12.44-.17.73-.17.43,0,.78.13,1.05.4.27.26.4.64.4,1.12,0,.52-.14.93-.43,1.23s-.67.45-1.16.45c-.32,0-.6-.08-.86-.24s-.46-.4-.61-.73-.23-.74-.23-1.24v.02ZM96.55,62.76c.29,0,.53-.09.71-.28s.27-.48.27-.88c0-.32-.08-.57-.24-.76s-.4-.28-.72-.28c-.22,0-.41.05-.57.14-.16.09-.29.21-.38.35s-.14.29-.14.43c0,.2.04.4.12.6s.2.36.36.49.36.19.6.19h-.01Z"/>
      <path class="st2" d="M102.52,62.07h-.73v1.13h-.59v-1.13h-2.39v-.53l2.35-3.37h.64v3.34h.73v.55h-.01ZM101.2,61.52v-2.2c0-.17.02-.33.03-.49h-.03c-.04.09-.08.18-.14.29-.06.1-.11.19-.16.26l-1.5,2.14h1.8Z"/>
    </g>
    <g>
      <path class="st2" d="M389,14.61c0,.34-.09.6-.28.8s-.44.33-.75.4v.03c.4.05.69.17.89.38.2.21.3.47.3.81,0,.29-.07.55-.2.78-.14.22-.34.4-.63.52s-.65.19-1.09.19c-.26,0-.5-.02-.73-.06-.22-.04-.44-.11-.64-.21v-.57c.21.11.44.19.68.24.24.06.48.08.7.08.45,0,.77-.09.97-.26.2-.18.3-.42.3-.72s-.12-.54-.37-.68-.59-.21-1.03-.21h-.48v-.52h.49c.41,0,.72-.09.93-.26s.32-.4.32-.69c0-.24-.08-.43-.25-.56-.16-.13-.38-.2-.67-.2s-.5.04-.69.12c-.19.08-.38.18-.57.3l-.31-.42c.18-.14.4-.26.66-.36s.56-.15.9-.15c.52,0,.91.12,1.17.35.25.23.38.53.38.89v-.02Z"/>
      <path class="st2" d="M391.6,13.38c.44,0,.8.1,1.08.31.28.21.42.5.42.89,0,.2-.04.38-.13.52-.09.15-.2.28-.35.4-.14.11-.3.22-.48.3.21.1.39.21.56.34.17.12.3.26.4.43.1.16.15.36.15.59,0,.42-.15.75-.45,1-.3.24-.7.37-1.19.37-.54,0-.96-.12-1.24-.35-.29-.24-.43-.57-.43-.99,0-.22.05-.42.14-.59.1-.17.22-.32.38-.44s.33-.22.51-.31c-.25-.14-.46-.31-.62-.51-.17-.2-.25-.45-.25-.76,0-.25.07-.47.2-.64s.31-.31.53-.41c.22-.09.48-.14.76-.14h0ZM390.55,17.18c0,.24.09.44.26.61.17.16.44.24.8.24.34,0,.6-.08.78-.24s.27-.37.27-.63c0-.24-.1-.44-.29-.61s-.45-.3-.76-.42l-.11-.04c-.31.14-.54.29-.7.46s-.24.38-.24.64h0ZM391.6,13.87c-.26,0-.47.06-.64.19-.16.12-.24.3-.24.54,0,.17.04.32.12.43s.19.22.33.3c.14.08.29.16.46.23.24-.1.45-.23.61-.37.17-.14.25-.34.25-.6,0-.23-.08-.41-.25-.54-.16-.12-.38-.19-.65-.19h.01Z"/>
      <path class="st2" d="M397.26,18.44h-3.3v-.51l1.31-1.32c.25-.25.46-.48.63-.67.17-.2.31-.39.4-.57.09-.19.13-.39.13-.62,0-.28-.08-.48-.25-.63-.16-.14-.38-.21-.64-.21s-.46.04-.64.13c-.18.08-.37.2-.56.35l-.33-.41c.2-.16.42-.3.68-.42.25-.11.54-.17.86-.17.47,0,.84.12,1.11.36s.41.56.41.97c0,.26-.05.51-.16.73-.11.23-.26.46-.45.68s-.42.46-.67.71l-1.04,1.03v.03h2.53v.56l-.02-.02Z"/>
    </g>
    <g>
      <path class="st2" d="M407.36,13.36c0,.34-.09.6-.28.8s-.44.33-.75.4v.03c.4.05.69.17.89.38.2.21.3.47.3.81,0,.29-.07.55-.2.78-.14.22-.34.4-.63.52s-.65.19-1.09.19c-.26,0-.5-.02-.73-.06-.22-.04-.44-.11-.64-.21v-.57c.21.11.44.19.68.24.24.06.48.08.7.08.45,0,.77-.09.97-.26.2-.18.3-.42.3-.72s-.12-.54-.37-.68-.59-.21-1.03-.21h-.48v-.52h.49c.41,0,.72-.09.93-.26s.32-.4.32-.69c0-.24-.08-.43-.25-.56-.16-.13-.38-.2-.67-.2s-.5.04-.69.12-.38.18-.57.3l-.31-.42c.18-.14.4-.26.66-.36s.56-.15.9-.15c.52,0,.91.12,1.17.35.25.23.38.53.38.89v-.02Z"/>
      <path class="st2" d="M409.97,12.12c.44,0,.8.1,1.08.31s.42.5.42.89c0,.2-.04.38-.13.52-.09.15-.2.28-.35.4-.14.11-.3.22-.48.3.21.1.39.21.56.34.17.12.3.26.4.43.1.16.15.36.15.59,0,.42-.15.75-.45,1-.3.24-.7.37-1.19.37-.54,0-.96-.12-1.24-.35-.29-.24-.43-.57-.43-.99,0-.22.05-.42.14-.59.1-.17.22-.32.38-.44s.33-.22.51-.31c-.25-.14-.46-.31-.62-.51-.17-.2-.25-.45-.25-.76,0-.25.07-.47.2-.64s.31-.31.53-.41c.22-.09.48-.14.76-.14h0ZM408.92,15.93c0,.24.09.44.26.61.17.16.44.24.8.24.34,0,.6-.08.78-.24s.27-.37.27-.63c0-.24-.1-.44-.29-.61s-.45-.3-.76-.42l-.11-.04c-.31.14-.54.29-.7.46s-.24.38-.24.64h0ZM409.96,12.62c-.26,0-.47.06-.64.19-.16.12-.24.3-.24.54,0,.17.04.32.12.43s.19.22.33.3c.14.08.29.16.46.23.24-.1.45-.23.61-.37.17-.14.25-.34.25-.6,0-.23-.08-.41-.25-.54-.16-.12-.38-.19-.65-.19h.01Z"/>
      <path class="st2" d="M415.61,14.33c0,.36-.03.71-.09,1.06-.06.35-.18.66-.34.95-.17.28-.4.51-.7.68-.3.17-.69.25-1.16.25-.09,0-.2,0-.33-.02-.13,0-.23-.03-.3-.05v-.52c.18.06.39.09.62.09.33,0,.6-.05.81-.16s.38-.25.51-.44c.13-.18.22-.4.27-.64.06-.25.09-.5.1-.77h-.04c-.11.16-.26.3-.45.41s-.44.17-.74.17c-.43,0-.78-.13-1.04-.4s-.4-.64-.4-1.12c0-.35.07-.65.2-.9s.32-.45.56-.58c.24-.14.52-.2.84-.2s.6.08.86.24c.26.16.46.4.61.73.15.32.22.74.22,1.24v-.02ZM413.92,12.64c-.29,0-.53.1-.71.29s-.28.48-.28.88c0,.32.08.58.23.76.16.18.4.28.72.28.22,0,.42-.05.58-.14.16-.09.29-.21.38-.35s.14-.28.14-.43c0-.2-.04-.4-.12-.59-.08-.2-.2-.36-.36-.49-.16-.13-.36-.2-.59-.2h0Z"/>
    </g>
    <g>
      <path class="st3" d="M426.09,6.74h-.73v1.13h-.59v-1.13h-2.39v-.53l2.35-3.37h.64v3.34h.73v.55h-.01ZM424.77,6.19v-1.58c0-.24,0-.45.01-.62s.01-.33.02-.49h-.03c-.04.09-.08.18-.14.29-.06.1-.11.19-.16.26l-1.5,2.13h1.8Z"/>
      <path class="st3" d="M429.76,4.04c0,.34-.09.6-.28.8-.19.2-.44.33-.75.4v.03c.4.05.69.17.89.38s.3.47.3.81c0,.29-.07.55-.2.78-.14.22-.34.4-.63.52s-.65.19-1.09.19c-.26,0-.5-.02-.73-.06-.22-.04-.44-.11-.64-.21v-.57c.21.11.44.19.68.24.24.06.48.08.7.08.45,0,.77-.09.97-.26.2-.18.3-.42.3-.72s-.12-.54-.37-.68-.59-.21-1.03-.21h-.48v-.52h.49c.41,0,.72-.09.93-.26s.32-.4.32-.69c0-.24-.08-.43-.25-.56-.16-.13-.38-.2-.67-.2s-.5.04-.69.12-.38.18-.57.3l-.31-.42c.18-.14.4-.26.66-.36s.56-.15.9-.15c.52,0,.91.12,1.17.35.25.23.38.53.38.89v-.02Z"/>
      <path class="st3" d="M434.32,6.74h-.73v1.13h-.59v-1.13h-2.39v-.53l2.35-3.37h.64v3.34h.73v.55h-.01ZM433,6.19v-1.58c0-.24,0-.45.01-.62s.01-.33.02-.49h-.03c-.04.09-.08.18-.14.29-.06.1-.11.19-.16.26l-1.5,2.13h1.8Z"/>
    </g>
    <rect class="st0" x="433.31" width="1.01" height="10.29"/>
    <rect class="st0" x="422.37" width="1.01" height="10.29"/>
    <rect class="st0" x="138.78" y="63.84" width=".38" height="9.75"/>
    <rect class="st0" x="128.48" y="63.79" width=".38" height="9.75"/>
  </g>
</svg>