<svg id="logo" xmlns="http://www.w3.org/2000/svg" width="146.911" height="20" viewBox="0 0 146.911 20">
  <path id="Path_119" data-name="Path 119" d="M86.184,264.416c0,1.049.145,1.428,1.226,1.515l1.772.119v.99h-9.62v-.99l1.681-.119c1.019-.087,1.193-.466,1.193-1.515V249.2H81.076c-2.679,0-3.058,1.048-3.875,3.906H76.181V248H92.565v5.1H91.542c-.813-2.858-1.193-3.906-3.876-3.906H86.184Z" transform="translate(-76.181 -247.507)" fill="#49176d"/>
  <path id="Path_120" data-name="Path 120" d="M175.36,250.656c0-1.457-.206-1.574-2.278-1.661V248h14.509v4.926h-.954c-.727-2.74-1.16-3.729-4.078-3.729h-2.467c-.785,0-.962.174-.962.991v6.3h3.139c1.865,0,2.187-.584,2.563-2.507h1.023v6.253h-1.023c-.376-1.955-.7-2.436-2.563-2.436H179.13v5.946c0,1.779.206,2.1,3.323,2.1,3.3,0,4.23-1.12,5.133-4.121h.857l-.141,5.318H173.115v-1.023c2.068-.087,2.245-.2,2.245-1.631Z" transform="translate(-152.445 -247.507)" fill="#49176d"/>
  <path id="Path_121" data-name="Path 121" d="M266.118,267.04v-1.023c1.457-.145,1.905-.029,2.079-1.544a34.714,34.714,0,0,0,.145-4.11v-9.708c0-1.428-.174-1.545-2.245-1.661V248h6.88c1.461,3.7,3.966,10.172,5.191,13.233h.087c1.573-4.052,3.825-9.267,5.311-13.233h6.529v.992c-2.039.087-2.4.094-2.4,1.524v13.7c0,1.457.26,1.681,2.3,1.8v1.023h-8.116v-1.023c2.039-.087,2.245-.2,2.245-1.66v-13.7h-.087c-1.605,4.315-5.177,13.1-6.258,16.071h-1.392c-1.75-4.779-5.011-12.338-6.5-16.071l.018.08v9.708a34.017,34.017,0,0,0,.148,4.11c.174,1.605,1.092,1.32,2.636,1.465v1.023Z" transform="translate(-225.65 -247.507)" fill="#49176d"/>
  <path id="Path_122" data-name="Path 122" d="M403.46,266.613V265.59l1.544,0c.64-.058.755-.38.524-.991-.466-1.515-1.348-3.872-1.7-4.891h-5.527c-.55,1.685-1.063,3.478-1.46,4.75-.177.568-.127,1.009.513,1.1l1.663.04v1.023h-6.356V265.59c1.605-.083,1.732-.145,2.3-1.544,1.605-3.922,4.194-11.4,5.914-16.587h2.946c1.544,4.694,4.335,12.943,5.571,16.772.383,1.185.8,1.3,2.26,1.359v1.023ZM401.171,250.9h-.087c-.611,1.923-1.64,5.19-2.371,7.55h4.71C402.809,256.584,401.757,252.735,401.171,250.9Z" transform="translate(-325.266 -247.08)" fill="#49176d"/>
  <path id="Path_123" data-name="Path 123" d="M509.62,251.333c-.7-3.12-2.274-4.43-4.2-4.43a2.853,2.853,0,0,0-3,3.031c0,2.128,2.014,2.973,4.082,3.906,2.769,1.166,5.278,2.3,5.278,5.948,0,2.885-1.75,5.889-7.115,5.889-1.866,0-4.371-.379-5.741-1.605l-.351-4.895h.991c.991,3.38,2.856,5.3,5.1,5.3,1.952,0,3.5-1.07,3.5-3.2,0-1.837-1.3-3.04-3.687-4.032-3.12-1.312-5.661-2.787-5.7-5.858-.036-3.409,2.274-5.714,6.706-5.714a10.66,10.66,0,0,1,5.13,1.226v4.43Z" transform="translate(-408.618 -245.677)" fill="#49176d"/>
  <path id="Path_124" data-name="Path 124" d="M587.766,250.656c0-1.457-.177-1.574-2.245-1.661V248h14.634v4.957h-1.02c-.73-2.74-1.255-3.76-4.168-3.76h-2.1c-.788,0-.962.174-.962.991v6.3h2.769c1.866,0,2.187-.584,2.567-2.507h1.019v6.441h-1.019c-.38-1.953-.7-2.624-2.567-2.624h-2.769v5.946c0,1.779.2,2.1,3.322,2.1,3.293,0,4.023-1.341,4.927-4.341h1.019l-.466,5.538H585.521v-1.023c2.068-.087,2.245-.2,2.245-1.631Z" transform="translate(-477.05 -247.507)" fill="#49176d"/>
  <path id="Path_125" data-name="Path 125" d="M682.032,250.656c0-1.428-.173-1.574-2.245-1.661V248h8.377v.992c-2.068.087-2.245.2-2.245,1.661v13.7c0,1.457.184,1.544,2.252,1.66v1.023h-8.384v-1.023c2.072-.116,2.245-.232,2.245-1.66Zm10.123-1.545-1.233-.145V248h7.23v.963a5.891,5.891,0,0,0-3.742,1.368,49.293,49.293,0,0,0-5.43,5.218,70.8,70.8,0,0,0,6.558,8.921,5.669,5.669,0,0,0,2.505,1.75l-.058.99-1.865-.058c-3.062-.086-4.324-.94-6.1-3.387-1.544-2.01-4.41-6.6-4.41-6.6,2.187-2.214,5.13-5.35,6.587-7.216C692.6,249.459,692.552,249.179,692.155,249.11Z" transform="translate(-551.242 -247.507)" fill="#49176d"/>
</svg>
