<?xml version="1.0" encoding="UTF-8"?>
<svg id="Layer_1" xmlns="http://www.w3.org/2000/svg" version="1.1" viewBox="0 0 1256 298.2">
  <!-- Generator: Adobe Illustrator 29.6.0, SVG Export Plug-In . SVG Version: 2.1.1 Build 207)  -->
  <defs>
    <style>
      .st0 {
        fill: #21b8e8;
      }

      .st1, .st2, .st3, .st4, .st5, .st6, .st7, .st8, .st9, .st10, .st11, .st12, .st13, .st14, .st15, .st16, .st17, .st18, .st19, .st20, .st21, .st22, .st23, .st24, .st25, .st26, .st27, .st28, .st29, .st30, .st31, .st32, .st33, .st34, .st35, .st36, .st37, .st38, .st39, .st40, .st41, .st42 {
        fill: none;
      }

      .st1, .st2, .st4, .st5, .st6, .st7, .st8, .st9, .st10, .st11, .st12, .st13, .st14, .st15, .st17, .st18, .st19, .st20, .st21, .st22, .st23, .st25, .st27, .st28, .st29, .st30, .st31, .st32, .st33, .st36, .st37, .st38, .st39, .st40, .st41, .st42 {
        stroke-linecap: round;
        stroke-width: 2px;
      }

      .st1, .st2, .st4, .st5, .st6, .st7, .st8, .st12, .st13, .st14, .st15, .st19, .st21, .st22, .st23, .st25, .st27, .st28, .st29, .st30, .st31, .st32, .st33, .st36, .st37, .st38, .st39, .st40, .st41, .st42 {
        stroke-linejoin: round;
      }

      .st1, .st8, .st20, .st28, .st29, .st30, .st34 {
        stroke: #009690;
      }

      .st1, .st19, .st22, .st23, .st39, .st40 {
        stroke-dasharray: 0 4.1;
      }

      .st2, .st4, .st8, .st41, .st42 {
        stroke-dasharray: 0 3.9;
      }

      .st2, .st6, .st9, .st13, .st19, .st24, .st25 {
        stroke: #12a639;
      }

      .st3 {
        stroke-width: 1.7px;
      }

      .st3, .st5, .st7, .st10, .st37, .st39, .st42 {
        stroke: #d50065;
      }

      .st3, .st9, .st10, .st11, .st16, .st17, .st18, .st20, .st24, .st26, .st34, .st35 {
        stroke-miterlimit: 10;
      }

      .st4, .st14, .st16, .st17, .st32, .st36, .st40 {
        stroke: #ee7003;
      }

      .st43 {
        fill: #009690;
      }

      .st7, .st21, .st25, .st28, .st32 {
        stroke-dasharray: 0 4.3;
      }

      .st44 {
        fill: #fae0c7;
      }

      .st45 {
        fill: #ee7003;
      }

      .st46 {
        fill: #ed7003;
      }

      .st11, .st21, .st23, .st27, .st33, .st35, .st41 {
        stroke: #009ee4;
      }

      .st47 {
        fill: #009ee4;
      }

      .st48 {
        fill: #004587;
      }

      .st12, .st13, .st14, .st27, .st29, .st37 {
        stroke-dasharray: 0 4;
      }

      .st12, .st15, .st18, .st22, .st26, .st31, .st38 {
        stroke: #633169;
      }

      .st49 {
        fill: #007d73;
      }

      .st16, .st24, .st26, .st34 {
        stroke-width: 2.1px;
      }

      .st50 {
        fill: #633169;
      }

      .st51 {
        fill: #ba0051;
      }

      .st52 {
        fill: #f0b073;
      }

      .st53 {
        fill: #fff;
      }

      .st54 {
        fill: #0055a4;
      }

      .st55 {
        fill: #d50065;
      }

      .st56 {
        fill: #12a639;
      }

      .st31 {
        stroke-dasharray: 0 4.4;
      }

      .st35 {
        stroke-width: 2.2px;
      }

      .st38 {
        stroke-dasharray: 0 4.1;
      }

      .st57 {
        fill: #fab600;
      }

      .st58 {
        fill: #fabf99;
      }
    </style>
  </defs>
  <g>
    <path class="st55" d="M98.3,112.3h-7.2v1.1h-1.9v-9.2c-.2.3-.5.5-.7.8-.2-.4-.6-.9-.9-1.3v5.3h-3.2v1.4h-1.9v-11.8h5.1v4.5c1.3-1.6,2.5-4,3-6l2.1.6c-.3.8-.6,1.6-1,2.5h2.4c-.2-.7-.7-1.6-1.1-2.3l1.8-.7c.5.8,1,1.8,1.3,2.5l-1.1.5h3.2v1.9h-2.8v1.5h2.4v1.9h-2.4v1.5h2.4v1.9h-2.4v1.6h3v1.9ZM85.7,100.6h-1.3v6.4h1.3v-6.4ZM93.3,102.1h-2.2v1.5h2.2v-1.5ZM93.3,105.5h-2.2v1.5h2.2v-1.5ZM91.1,110.4h2.2v-1.6h-2.2v1.6Z"/>
    <path class="st55" d="M115.6,102.7h-4v8c0,1.3-.3,1.9-1.1,2.2-.8.4-2,.4-3.7.4,0-.6-.4-1.6-.7-2.2,1.1,0,2.3,0,2.7,0,.4,0,.5-.1.5-.5v-7.3c-1.9,3.2-4.9,6.4-8,8.2-.4-.6-1.1-1.4-1.7-1.9,2.9-1.4,5.7-4.2,7.5-7h-6.9v-2.2h9.1v-3.4h2.3v3.4h4v2.2Z"/>
    <path class="st55" d="M126.9,111.2c.5,0,.9,0,1.4,0,1,0,4.3,0,5.6,0-.3.5-.6,1.4-.7,2h-5c-3.2,0-5.4-.5-6.8-2.5-.6,1.2-1.4,2.1-2.5,2.8-.3-.4-1.1-1.2-1.6-1.5,1.8-1.1,2.9-3,3.3-5.3l2.1.3c-.1.6-.3,1.1-.4,1.6.5,1.2,1.4,1.8,2.5,2.2v-4.4h-6.8v-1.8h15.4v1.8h-6.5v1.3h5.4v1.8h-5.4v1.7ZM131.7,103.8h-12.2v-6.1h12.2v6.1ZM129.6,99.2h-8v.9h8v-.9ZM129.6,101.4h-8v.9h8v-.9Z"/>
    <path class="st55" d="M150.4,111c0,1.1-.2,1.7-.9,2-.7.3-1.8.4-3.4.4,0-.6-.4-1.5-.7-2,1,0,2.1,0,2.5,0s.5-.1.5-.4v-2.6h-3.7v4.9h-2.1v-4.9h-3.6c-.3,1.9-.9,3.8-2.2,5.2-.3-.4-1.2-1.1-1.6-1.3,1.9-2.1,2.1-5.2,2.1-7.7v-6.2h13.2v12.7ZM142.5,106.4v-2.2h-3.3v.3c0,.6,0,1.2,0,1.8h3.3ZM139.2,100.3v2h3.3v-2h-3.3ZM148.3,100.3h-3.7v2h3.7v-2ZM148.3,106.4v-2.2h-3.7v2.2h3.7Z"/>
  </g>
  <g>
    <path class="st55" d="M67.1,133.5l-3-9.8h0c0,.2,0,.6,0,1,0,.5,0,1,0,1.5,0,.5,0,1,0,1.4v5.8h-2.4v-12.5h3.6l3,9.6h0l3.1-9.6h3.6v12.5h-2.5v-5.9c0-.4,0-.9,0-1.4,0-.5,0-1,0-1.5,0-.5,0-.8,0-1h0l-3.2,9.8h-2.4Z"/>
    <path class="st55" d="M82.2,123.7c1.3,0,2.4.4,3.1,1.1s1.2,1.8,1.2,3.2v1.3h-6.2c0,.7.2,1.3.7,1.7.4.4,1,.6,1.7.6s1.2,0,1.7-.2c.5-.1,1-.3,1.6-.6v2c-.5.2-1,.4-1.5.5-.5.1-1.1.2-1.9.2s-1.8-.2-2.5-.5c-.7-.4-1.3-.9-1.7-1.6s-.6-1.6-.6-2.7.2-2,.6-2.8c.4-.7.9-1.3,1.6-1.7s1.5-.6,2.4-.6ZM82.2,125.6c-.5,0-.9.2-1.3.5s-.5.8-.6,1.5h3.7c0-.6-.2-1.1-.5-1.4-.3-.4-.8-.6-1.4-.6Z"/>
    <path class="st55" d="M94.1,123.7c.1,0,.3,0,.5,0,.2,0,.3,0,.4,0l-.2,2.5c0,0-.2,0-.4,0-.2,0-.3,0-.4,0-.4,0-.9,0-1.3.2-.4.2-.7.4-1,.8-.3.3-.4.8-.4,1.4v4.9h-2.6v-9.6h2l.4,1.6h.1c.3-.5.7-.9,1.2-1.3.5-.4,1.1-.5,1.7-.5Z"/>
    <path class="st55" d="M98.2,120.2c.4,0,.7,0,1,.3.3.2.4.5.4,1s-.1.8-.4,1c-.3.2-.6.3-1,.3s-.7,0-1-.3c-.3-.2-.4-.5-.4-1s.1-.8.4-1c.3-.2.6-.3,1-.3ZM99.5,123.9v9.6h-2.6v-9.6h2.6Z"/>
    <path class="st55" d="M106.4,131.5c.3,0,.6,0,.8,0,.3,0,.5-.1.8-.2v1.9c-.3.1-.6.2-1,.3-.4,0-.9.1-1.4.1s-1.1,0-1.5-.3c-.4-.2-.8-.5-1.1-1-.3-.5-.4-1.1-.4-1.9v-4.6h-1.2v-1.1l1.4-.9.8-2h1.7v2h2.7v2h-2.7v4.6c0,.4.1.6.3.8.2.2.5.3.8.3Z"/>
    <path class="st55" d="M118.8,128.7c0,1.6-.4,2.8-1.3,3.7-.8.9-2,1.3-3.4,1.3s-1.7-.2-2.4-.6c-.7-.4-1.2-.9-1.6-1.7-.4-.7-.6-1.6-.6-2.7,0-1.6.4-2.8,1.2-3.7.8-.9,2-1.3,3.4-1.3s1.7.2,2.4.6c.7.4,1.2.9,1.6,1.7.4.7.6,1.6.6,2.7ZM112.2,128.7c0,.9.2,1.7.5,2.1.3.5.8.7,1.5.7s1.2-.2,1.5-.7c.3-.5.5-1.2.5-2.1s-.2-1.7-.5-2.1c-.3-.5-.8-.7-1.5-.7s-1.2.2-1.5.7c-.3.5-.5,1.2-.5,2.1Z"/>
    <path class="st55" d="M125,133.6c-1.4,0-2.5-.4-3.3-1.2-.8-.8-1.2-2-1.2-3.7s.2-2.1.6-2.9c.4-.7.9-1.3,1.7-1.6s1.5-.5,2.4-.5,1.2,0,1.7.2c.5.1.9.3,1.3.5l-.8,2c-.4-.2-.8-.3-1.1-.4s-.7-.2-1.1-.2c-1.4,0-2,1-2,2.9s.2,1.7.5,2.1c.4.5.9.7,1.5.7s1,0,1.5-.2c.4-.1.8-.3,1.2-.6v2.2c-.4.3-.8.4-1.3.6s-1,.2-1.7.2Z"/>
    <path class="st55" d="M135.7,123.7c.1,0,.3,0,.5,0,.2,0,.3,0,.4,0l-.2,2.5c0,0-.2,0-.4,0-.2,0-.3,0-.4,0-.4,0-.9,0-1.3.2-.4.2-.7.4-1,.8-.3.3-.4.8-.4,1.4v4.9h-2.6v-9.6h2l.4,1.6h.1c.3-.5.7-.9,1.2-1.3.5-.4,1.1-.5,1.7-.5Z"/>
    <path class="st55" d="M142.4,123.7c1.3,0,2.3.3,2.9.8.7.6,1,1.4,1,2.5v6.4h-1.8l-.5-1.3h0c-.4.5-.8.9-1.3,1.1-.5.2-1.1.3-1.9.3s-1.6-.2-2.1-.7c-.6-.5-.8-1.3-.8-2.3s.4-1.8,1.1-2.2c.7-.5,1.8-.7,3.2-.8h1.7v-.5c0-.5-.1-.9-.4-1.1-.3-.2-.6-.3-1.1-.3s-.9,0-1.4.2-.9.3-1.3.5l-.9-1.8c.5-.3,1.1-.5,1.7-.6.6-.2,1.3-.2,2-.2ZM143.8,129h-1c-.8,0-1.4.2-1.8.5s-.5.6-.5,1.1.1.7.4.8c.2.2.5.3.9.3.6,0,1-.2,1.4-.5.4-.3.6-.8.6-1.4v-.8Z"/>
    <path class="st55" d="M153.1,133.6c-1.4,0-2.5-.4-3.3-1.2-.8-.8-1.2-2-1.2-3.7s.2-2.1.6-2.9c.4-.7.9-1.3,1.7-1.6s1.5-.5,2.4-.5,1.2,0,1.7.2c.5.1.9.3,1.3.5l-.8,2c-.4-.2-.8-.3-1.1-.4s-.7-.2-1.1-.2c-1.4,0-2,1-2,2.9s.2,1.7.5,2.1c.4.5.9.7,1.5.7s1,0,1.5-.2c.4-.1.8-.3,1.2-.6v2.2c-.4.3-.8.4-1.3.6s-1,.2-1.7.2Z"/>
    <path class="st55" d="M157,123.9h2.9l1.8,5.4c0,.3.2.5.2.8,0,.3,0,.6.1.9h0c0-.3,0-.6.1-.9,0-.3.1-.5.2-.8l1.8-5.4h2.8l-4,10.8c-.4,1-.9,1.7-1.6,2.2-.7.5-1.5.7-2.4.7s-.6,0-.8,0c-.2,0-.4,0-.6,0v-2.1c.1,0,.3,0,.5,0s.4,0,.6,0c.5,0,1-.2,1.3-.5s.6-.7.7-1.2l.2-.5-3.8-9.5Z"/>
  </g>
  <g>
    <path d="M73.8,147.9c-.7,1.3-1.7,2.6-2.8,3.8.7,1.9,1.5,3,2.5,3s.7-.8.8-2.9c.2.1.4.3.7.4-.2,2.5-.5,3.3-1.5,3.3s-2.3-1.2-3-3.2c-1.1,1-2.3,1.9-3.5,2.5-.1-.2-.3-.4-.5-.6,1.4-.7,2.7-1.6,3.8-2.7-.4-1.3-.7-2.9-.9-4.7h-3.9v2.9l3-.7v.7c0,0-3,.7-3,.7v3.9c0,.6-.2.9-.6,1-.4.1-1.2.2-2.5.1,0-.2-.2-.5-.3-.8,1.1,0,2,0,2.2,0,.3,0,.4,0,.4-.4v-3.7c-1.3.3-2.5.6-3.5.8l-.3-.7c1-.2,2.3-.5,3.7-.8v-3.1h-3.5v-.7h3.5v-2.9c-1,.2-2.1.4-3.1.6,0-.2-.2-.4-.3-.6,2.2-.4,4.7-.9,6.2-1.5l.6.6c-.7.3-1.6.5-2.6.8v3.1h3.9c-.2-1.4-.2-3-.2-4.6h.8c0,1.6,0,3.2.2,4.6h4.7v.7h-4.7c.2,1.6.4,2.9.8,4.1.9-1,1.8-2.1,2.4-3.3l.7.3ZM73.5,144.9c-.5-.7-1.6-1.9-2.6-2.7l.6-.4c.9.8,2,1.9,2.6,2.6l-.6.5Z"/>
    <path d="M79.9,141.7c-.3,1.1-.7,2.3-1.2,3.3v10.4h-.7v-8.9c-.4.8-.9,1.6-1.3,2.2,0-.2-.3-.5-.5-.7,1.3-1.6,2.4-4.1,3-6.5l.7.2ZM81,144.3h.7v11.1h-.7v-11.1ZM82.2,141.4c.7.9,1.5,2.2,1.8,3l-.6.3c-.3-.8-1.1-2.1-1.8-3.1l.6-.3ZM89.7,154.3c0,.6-.2.8-.6,1-.4.1-1.2.1-2.4.1,0-.2-.2-.5-.3-.7,1,0,1.9,0,2.1,0,.3,0,.4,0,.4-.4v-11.6h-4.5v-.7h5.2v12.3Z"/>
    <path d="M98.4,150.4c0,.2.2.5.2.7-4.5,2-5,2.3-5.3,2.6,0-.2-.3-.5-.4-.6.3-.2.8-.5.8-1.2v-9.2h.8v9.6l4-1.8ZM103.8,142c-.2,3.8-.7,6.6-1.7,8.8,1.4,1.3,3,3,3.8,4.1l-.6.5c-.7-1.1-2.1-2.7-3.5-4-1,1.8-2.5,3.1-4.8,4.1,0-.2-.4-.5-.5-.7,5.1-2,6.3-5.9,6.7-12.9h.8ZM99.4,146.8c-.4-1-1.5-2.6-2.4-3.7l.6-.3c.9,1.1,2,2.7,2.4,3.7l-.7.4Z"/>
    <path d="M112.6,142.1c-1.1,2.5-2.7,4.8-4.4,6.3-.2-.1-.5-.4-.7-.5,1.8-1.4,3.4-3.7,4.3-6l.8.2ZM116.8,149.7c1.4,1.6,3.1,3.8,3.8,5.2l-.7.4c-.3-.5-.7-1.1-1.1-1.7-8.5.5-9.3.6-9.7.7,0-.2-.2-.6-.3-.8.3,0,.8-.6,1.3-1.3.6-.7,2.5-3.4,3.8-6l.8.3c-1.4,2.4-2.9,4.9-4.5,6.8l8.1-.4c-.7-1-1.5-2-2.2-2.9l.7-.3ZM116.6,141.8c1.1,2.2,3.1,4.8,4.8,6.1-.2.2-.5.4-.6.6-1.6-1.4-3.7-4.1-4.9-6.4l.7-.3Z"/>
    <path d="M136.7,149.8h-6.5v5.6h-.7v-5.6h-6.4v-.7h6.4v-5.8h-5.7v-.7h12.1v.7h-5.7v5.8h6.5v.7ZM125.6,144.1c.7,1.2,1.4,2.8,1.6,3.7l-.7.3c-.2-1-.9-2.6-1.6-3.8l.7-.2ZM132.1,147.9c.7-1,1.5-2.7,1.9-3.9l.8.3c-.6,1.3-1.4,2.9-2,3.9l-.6-.2Z"/>
    <path d="M149.4,145.5c-.8,1.2-2,2.2-3.3,3,1.8,1,4.1,1.6,6.4,2-.2.2-.4.5-.5.7-2.4-.4-4.7-1.1-6.6-2.2-1.2.7-2.6,1.3-4,1.7h8.1v4.7h-.8v-.5h-6.7v.5h-.7v-4.7c-.9.3-1.8.5-2.7.7,0-.2-.2-.5-.4-.7,2.1-.4,4.4-1.2,6.4-2.2-1-.6-1.8-1.4-2.4-2.2-.8.7-1.7,1.3-2.7,1.8-.1-.2-.3-.4-.5-.5,2.1-1,3.6-2.5,4.4-3.7l.8.2c-.2.4-.5.7-.9,1.1h5.5s.5.3.5.3ZM139.6,145.5h-.7v-2.6h6.4c-.2-.4-.5-1-.8-1.4l.7-.2c.4.5.7,1.1,1,1.6h5.6v2.6h-.7v-1.9h-11.4v1.9ZM142,151.4v2.8h6.7v-2.8h-6.7ZM142.7,145.9c.7.9,1.5,1.6,2.6,2.2,1.1-.7,2.1-1.4,2.8-2.3h-5.5Z"/>
    <path d="M158.4,153.3c-.2-.8-.7-1.8-1.2-2.8-.8,1.8-1.8,3.2-2.9,4.2-.1-.2-.4-.4-.6-.6,1.1-1,2.2-2.5,3-4.5-.8-1.5-1.8-3-2.8-4.3l.6-.3c.9,1.1,1.7,2.4,2.5,3.8.6-1.6,1.1-3.4,1.3-5.4h-4.5v-.7h4.9s.5.1.5.1c-.3,2.7-.9,4.9-1.7,6.9.7,1.2,1.2,2.3,1.5,3.3l-.7.4ZM163,144.4h.7v3.3c0,2.6-.7,5.7-4.6,7.7,0-.2-.3-.4-.5-.6,3.9-2,4.4-4.8,4.4-7.2v-3.3ZM161,150.4h-.7v-8.2h6.4v8.2h-.7v-7.5h-5v7.5ZM166.5,154.5c.6,0,.7-.4.8-2.7.2.2.4.2.7.3-.1,2.4-.2,3-1.4,3h-1.5c-.9,0-1.3-.2-1.3-1.1v-4h.7v3.9c0,.4.1.5.6.5h1.5Z"/>
  </g>
  <g>
    <path d="M160.8,159.4c0,.5,0,1.2,0,2.1.2,1.6,1.1,8.6,6.7,11.1-.2.2-.4.4-.5.6-4.3-2-5.8-6.5-6.5-9.4-.6,3.3-2.2,7.3-6.4,9.5-.1-.2-.4-.4-.6-.5,6.5-3.2,6.6-11.1,6.6-13.3h.8Z"/>
    <path d="M145.7,159.7c-.1.2-.2.4-.4.6,1.7,2.4,4,4,6.7,5.4-.2.1-.4.4-.5.6-2.7-1.5-4.8-3.1-6.6-5.5-1.6,2.2-4,4.2-6.5,5.5-.1-.2-.3-.5-.6-.6,2.9-1.4,5.7-3.8,7.2-6.4l.7.3ZM144.5,163.7h.7v9.8h-.7v-9.8Z"/>
    <path d="M129.7,172.1c.9.2,1.9.3,3,.3s3.1,0,3.7,0c-.1.2-.3.5-.3.7h-3.5c-3.4,0-5.9-.6-7.3-3.5-.5,1.6-1.3,2.9-2.4,3.9-.1-.1-.4-.4-.6-.5,1.8-1.4,2.6-3.6,3-6.5h.7c-.1.8-.2,1.5-.4,2.2.7,1.9,1.8,2.8,3.3,3.3v-7.1h-4.2v-.7h9.3v.7h-4.4v2.9h4.8v.7h-4.8v3.6ZM123.8,164.2h-.7v-3.1h6.2c-.2-.5-.5-1.1-.9-1.7l.7-.2c.4.6.8,1.3.9,1.8h-.3c0,.1,6,.1,6,.1v3.1h-.8v-2.4h-11.2v2.4Z"/>
    <path d="M120.5,163.5v.7h-13.2v-.7h2.5v-3.2h.7v3.2h3.1v-4.2h.7v1.7h4.8v.7h-4.8v1.8h6.2ZM118.6,172.4c0,.5-.1.7-.5.9-.4.1-1.2.1-2.5.1,0-.2-.2-.5-.3-.7,1,0,1.9,0,2.2,0,.2,0,.3,0,.3-.3v-1.9h-7.9v2.9h-.7v-7.9h9.4v7ZM109.9,166.1v1.5h7.9v-1.5h-7.9ZM117.8,169.9v-1.6h-7.9v1.6h7.9Z"/>
    <path d="M93.5,165.3c0,2.4-.2,5.8-1.5,8.2-.1-.1-.5-.3-.7-.4,1.3-2.3,1.4-5.5,1.4-7.8v-4.2h6.1c-.2-.5-.5-1.1-.8-1.5l.7-.2c.3.5.7,1.2.9,1.7h5.5v.7h-11.8v3.6ZM103.8,168.5c-.8,1.3-2,2.4-3.5,3.1,1.5.6,3.2,1,5.1,1.2-.2.2-.4.4-.4.7-2-.3-3.9-.7-5.5-1.5-1.7.7-3.7,1.1-5.7,1.4,0-.2-.2-.5-.3-.7,1.8-.2,3.7-.5,5.3-1.1-1.2-.7-2.1-1.5-2.8-2.4l.5-.2h-2.3v-.7h9.2s.5.2.5.2ZM96.6,167v-2.6h-2.7v-.7h2.7v-1.5h.7v1.5h4.3v-1.5h.7v1.5h2.7v.7h-2.7v2.6h-5.8ZM96.6,168.9c.7,1,1.7,1.8,2.9,2.4,1.3-.6,2.4-1.3,3.2-2.4h-6.1ZM97.3,164.4v2h4.3v-2h-4.3Z"/>
    <path d="M83.7,162.4c1,2.5,3.2,4.3,6.1,5-.2.2-.4.5-.5.7-3.1-.9-5.3-2.8-6.4-5.7h-.1c-.8,2.5-2.4,4.6-6.4,5.7,0-.2-.3-.5-.4-.7,3.8-.9,5.3-2.8,6-5h-5.9v-.7h6.1c.2-.7.3-1.5.4-2.3h.8c0,.8-.2,1.6-.4,2.3h6.8v.7h-6ZM76.1,172.4c.7-1,1.3-2.6,1.6-3.8l.7.2c-.3,1.2-.9,2.9-1.6,3.9l-.7-.4ZM85.3,172.4c.9,0,1-.2,1.1-1.8.2.1.5.2.7.3-.1,1.8-.4,2.2-1.7,2.2h-4c-1.6,0-2-.2-2-1.2v-3.3h.7v3.3c0,.4.2.5,1.3.5h3.9ZM81.7,165.3c.9.5,2,1.3,2.5,1.9l-.6.4c-.5-.6-1.6-1.4-2.5-2l.6-.4ZM82.1,167.7c.9.8,2.1,1.9,2.7,2.7l-.6.4c-.5-.7-1.7-1.9-2.6-2.7l.6-.4ZM87.5,168.4c.8,1.3,1.7,3,2,4.1l-.7.3c-.3-1.1-1.1-2.8-1.9-4.1l.7-.2Z"/>
    <path d="M64.4,159.5c-.3.8-.6,1.7-.8,2.3h2.7v9.9h-4.4v1.3h-.7v-11.2h1.7c.3-.7.6-1.8.7-2.5l.8.2ZM65.5,162.5h-3.7v3.7h3.7v-3.7ZM65.5,171.1v-4.2h-3.7v4.2h3.7ZM73.8,162.3c-.3,7.2-.5,9.5-1.1,10.3-.3.3-.6.4-1.1.5-.5,0-1.4,0-2.2,0,0-.2-.1-.5-.2-.7,1,0,1.9,0,2.3,0s.5,0,.7-.2c.5-.6.8-3,1-9.6h-4.3c-.4,1.1-1,2.1-1.5,2.9-.1-.1-.4-.3-.6-.4,1.1-1.4,1.9-3.6,2.4-5.8l.7.2c-.2.8-.4,1.6-.7,2.4h4.8v.4ZM70.8,169.2c-.5-.9-1.6-2.5-2.5-3.6l.6-.3c.9,1.1,2,2.6,2.5,3.6l-.6.4Z"/>
  </g>
  <g>
    <path d="M153.3,190.4c0,.4,0,.6-.4.7-.3.1-.8.1-1.6.1,0-.2-.1-.4-.2-.6.6,0,1.1,0,1.3,0,.2,0,.2,0,.2-.2v-8.1h-5.5v9.1h-.7v-9.7h3.1v-1.8h-3.4v-.7h3.4v-1.8h.7v1.8h3.4v.7h-3.4v1.8h3.1v8.7ZM150.1,188v2.7h-.7v-2.7h-2.1v-.6h2.1v-1.6h-1.9v-.6h2.4c.4-.7.8-1.8,1-2.6l.6.2c-.3.8-.7,1.7-1,2.4h1.5v.6h-2v1.6h2.2v.6h-2.2ZM148.4,182.6c.4.6.9,1.5,1,2.1l-.5.2c-.1-.6-.6-1.5-1-2.2l.5-.2ZM156.9,182.4c.4,3.6,1.3,6.7,2.9,8.3-.2.1-.4.4-.5.6-1.4-1.4-2.2-3.7-2.7-6.5-.3,2.2-.9,4.6-2.5,6.6-.1-.2-.4-.4-.6-.5,2.1-2.6,2.5-5.9,2.6-8.5h-2.4v-.7h2.4v-4.4h.7v4.4h3v.7h-2.9ZM158.9,181.1c-.3-.7-.9-1.8-1.6-2.6l.6-.3c.6.8,1.3,1.8,1.6,2.5l-.6.3Z"/>
    <path d="M144.2,181.3v.7h-13.5v-.7h6.3v-2.3h-5.2v-.7h11.4v.7h-5.5v2.3h6.5ZM137.8,186.5c0,1.6-.6,3.5-6.5,4.8,0-.2-.3-.5-.5-.7,5.8-1.1,6.2-2.9,6.2-4.2v-1.4h.8v1.4ZM141.3,188.6v-4.5h-7.8v4.5h-.8v-5.2h9.3v5.2h-.8ZM138.2,188.3c2,.7,4.5,1.7,5.8,2.5l-.4.7c-1.3-.8-3.8-1.8-5.8-2.5l.4-.6Z"/>
    <path d="M118.9,177.5c-.3.8-.6,1.7-.8,2.3h2.7v9.9h-4.4v1.3h-.7v-11.2h1.7c.3-.7.6-1.8.7-2.5l.8.2ZM120.1,180.5h-3.7v3.7h3.7v-3.7ZM120.1,189.1v-4.2h-3.7v4.2h3.7ZM128.4,180.3c-.3,7.2-.5,9.5-1.1,10.3-.3.3-.6.4-1.1.5-.5,0-1.4,0-2.2,0,0-.2-.1-.5-.2-.7,1,0,1.9,0,2.3,0s.5,0,.7-.2c.5-.6.8-3,1-9.6h-4.3c-.4,1.1-1,2.1-1.5,2.9-.1-.1-.4-.3-.6-.4,1.1-1.4,1.9-3.6,2.4-5.8l.7.2c-.2.8-.4,1.6-.7,2.4h4.8v.4ZM125.4,187.2c-.5-.9-1.6-2.5-2.5-3.6l.6-.3c.9,1.1,2,2.6,2.5,3.5l-.6.4Z"/>
    <path d="M105.1,178.3c-.5,1.2-1.1,2.7-1.7,4,1.3,1.3,1.6,2.5,1.6,3.5s-.2,1.4-.6,1.7c-.2.2-.5.2-.8.3-.3,0-.7,0-1.1,0,0-.2,0-.5-.2-.7.4,0,.8,0,1.1,0,.2,0,.4,0,.5-.1.3-.2.4-.7.4-1.1,0-.9-.4-2-1.6-3.3.6-1.2,1.1-2.6,1.5-3.7h-3v12.7h-.7v-13.4h4.1s.5.3.5.3ZM109.2,177.3c0,1.7,0,3.3-.1,4.9.3,1.3,1.1,6.5,4.6,8.6-.2.1-.4.3-.6.5-2.6-1.6-3.7-4.8-4.2-7-.5,3-1.6,5.5-4.2,7.1-.1-.2-.4-.4-.6-.5,4.4-2.6,4.4-8.2,4.4-13.6h.7Z"/>
    <path d="M97.3,178.1v13.3h-.8v-.7h-11.1v.7h-.8v-13.3h12.7ZM96.5,190v-11.2h-11.1v11.2h11.1ZM95.4,182.4h-2.7v5.5c0,.5-.1.7-.4.8-.3.1-.9.1-2,.1,0-.2-.2-.5-.3-.7.8,0,1.5,0,1.7,0,.2,0,.3,0,.3-.3v-4.5c-1.3,1.7-3.2,3.2-5,4.2-.1-.2-.3-.4-.5-.5,1.9-1.1,4-2.8,5.3-4.7h-5.1v-.7h5.3v-2.2h.7v2.2h2.7v.7Z"/>
    <path d="M78.3,187.5h-9.6v-.7h9.6v.7ZM81.3,183.6s0,.3,0,.4c-.5,4.5-.9,6.2-1.6,6.9-.3.3-.7.4-1.2.4-.5,0-1.6,0-2.7-.1,0-.2-.1-.5-.3-.7,1.2.1,2.4.1,2.8.1s.6,0,.8-.2c.6-.5,1-2.2,1.4-6.1h-10.1c.5-1.6,1.1-4.5,1.5-6.5h.7c-.1.7-.2,1.3-.4,1.9h8.9v.7h-9.1c-.2,1.1-.5,2.3-.8,3.2h10Z"/>
  </g>
  <g>
    <path d="M101.6,205.5h-9.6v-.7h9.6v.7ZM104.6,201.6s0,.3,0,.4c-.5,4.5-.9,6.2-1.6,6.9-.3.3-.7.4-1.2.4-.5,0-1.6,0-2.7-.1,0-.2-.1-.5-.3-.7,1.2.1,2.4.1,2.8.1s.6,0,.8-.2c.6-.5,1-2.2,1.4-6.1h-10.1c.5-1.6,1.1-4.5,1.5-6.5h.7c-.1.7-.2,1.3-.4,1.9h8.9v.7h-9.1c-.2,1.1-.5,2.3-.8,3.2h10Z"/>
    <path d="M120.4,203.4c-.9.8-2.1,1.7-3.1,2.4,1.1,1.1,2.5,2,4.1,2.4-.2.2-.4.4-.5.7-3.1-1.1-5.5-3.4-6.7-6.6h-.1c-.7.8-1.6,1.5-2.6,2.1v3.9l4-1.3c0,.2,0,.5.1.6-4.3,1.4-4.7,1.6-5,1.8,0-.2-.2-.5-.3-.7.2,0,.5-.3.5-.9v-3c-1,.6-2,1.1-3,1.4-.1-.2-.3-.5-.5-.6,2-.7,4.4-2,5.9-3.4h-5.5v-.7h6.2v-1.7h-4.9v-.7h4.9v-1.6h-5.7v-.7h5.7v-1.5h.7v1.5h5.8v.7h-5.8v1.6h5.1v.7h-5.1v1.7h6.3v.7h-5.9c.4,1.2,1.1,2.2,1.9,3.1,1-.7,2.2-1.6,2.9-2.3l.6.4Z"/>
    <path d="M128.2,206.1c-1.8.6-3.7,1.2-5.1,1.6l-.2-.7c.6-.2,1.4-.4,2.3-.7v-4.6h-1.9v-.7h1.9v-3.8h-2.2v-.7h4.9v.7h-2v3.8h1.7v.7h-1.7v4.3c.7-.2,1.4-.4,2.2-.7v.7ZM132.4,201.7c0,2.6-.6,5.7-4.6,7.8,0-.1-.3-.4-.5-.6,3.9-2,4.4-4.8,4.4-7.2v-3.3h.7v3.3ZM129.5,204.3h-.7v-8.2h6.6v8.2h-.7v-7.5h-5.1v7.5ZM135.2,208.3c.6,0,.7-.4.8-2.7.2.1.4.3.7.3-.1,2.4-.2,3-1.4,3h-1.6c-.9,0-1.3-.2-1.3-1.1v-3.9h.7v3.8c0,.4.1.5.6.5h1.5Z"/>
  </g>
  <g>
    <path class="st53" d="M188.8,236.7c16.7,0,30.3,13.6,30.3,30.3s-13.6,30.3-30.3,30.3-30.3-13.6-30.3-30.3,13.6-30.3,30.3-30.3"/>
    <path class="st3" d="M188.8,236.7c16.7,0,30.3,13.6,30.3,30.3s-13.6,30.3-30.3,30.3-30.3-13.6-30.3-30.3,13.6-30.3,30.3-30.3"/>
    <path class="st44" d="M194.4,261c-.4,0-.7-.3-.8-.6l-.6-2.3-2.1-3.2c-.3-.4-.1-1,.3-1.2.4-.3,1-.1,1.2.3l2.1,3.4c0,0,0,.2.1.2l.7,2.4c.1.5-.1,1-.6,1.1,0,0-.2,0-.2,0"/>
    <path class="st44" d="M183.5,261c0,0-.2,0-.2,0-.5-.1-.7-.6-.6-1.1l.7-2.4c0,0,0-.2.1-.2l2.1-3.4c.3-.4.8-.5,1.2-.3.4.3.5.8.3,1.2l-2.1,3.2-.6,2.3c-.1.4-.5.6-.8.6"/>
  </g>
  <rect class="st57" x="170.6" y="281.4" width="36.4" height="2.4"/>
  <rect class="st57" x="182.1" y="273.5" width="13.3" height="8.4"/>
  <rect class="st57" x="170.6" y="276.8" width="13.3" height="5.1"/>
  <rect class="st57" x="193.7" y="278.9" width="13.3" height="3"/>
  <g>
    <path class="st44" d="M185.9,263.3h0s.3,0,.3,0c.2,3.3.5,6.7.6,9.9,0,.1.1.2.2.2h1.1c.1,0,.2-.1.2-.2l.2-9.5c0-.3.4-.3.4,0l.2,9.5c0,.1.1.2.2.2h1.1c.1,0,.2-.1.2-.2,0-3.2.4-6.6.6-9.9h.3s-5.9,0-5.9,0Z"/>
    <path class="st55" d="M186.8,272.6c0,.2,0,.4,0,.6,0,.1.1.2.2.2h1.1c.1,0,.2-.1.2-.2v-.6s-1.6,0-1.6,0Z"/>
    <path class="st51" d="M186,263.3c0,.9.3,1.8.4,2.7h2.2v-2.4c0-.3.5-.3.5,0v2.4h2.3c0-.9.3-1.8.4-2.7h-5.7Z"/>
    <path class="st55" d="M189.4,272.6v.6c0,.1.1.2.3.2h1.1c.1,0,.2-.1.2-.2,0-.2,0-.4,0-.6h-1.6Z"/>
    <path d="M188.9,247.3h0c-1.6,0-2.8,1.3-2.8,2.8v2.6c0,.1,0,.2.2.3.6-.2,1.2-.5,1.8-.7,0,0,1.6,0,1.6,0,.2,0,1.3.4,1.8.7.1,0,.2-.2.2-.3v-2.6c0-1.6-1.3-2.8-2.8-2.8"/>
    <path class="st44" d="M190.6,250.5c0,1.1-.8,2.2-1.7,2.2s-1.7-1.1-1.7-2.2.8-2.1,1.7-2.1,1.7.9,1.7,2.1"/>
    <path d="M190.8,250.2h-3.8c0-1.2.9-2,1.9-2s1.9.9,1.9,1.9h0Z"/>
    <path class="st55" d="M191.7,256.4v-2.8s-.1,0-.3-.1c-.6-.2-.9-.3-1.5-.5,0,.3-.5.5-1,.5s-.9-.2-1-.5l-2.1.6.3,2.8c-.3,2.1.2,2.9,0,4.8-.1,1,0,2,0,2.1h5.9c0-.4,0-1.1-.2-2-.1-1.6.3-3.1,0-4.9"/>
    <path class="st55" d="M186.8,253.6c-.4-.3-1-.1-1.2.3l-1.3,2,1.3,1.2,1.4-2.2c.3-.4.1-1-.3-1.2"/>
    <path class="st55" d="M193.7,256.1l-1.4-2.2c-.3-.4-.8-.5-1.2-.3-.4.3-.5.8-.3,1.2l1.3,2.1,1.6-.8Z"/>
    <path class="st58" d="M203.7,268c.3,0,.7-.2.8-.5l1.5-3.5c.1-.2,0-.5,0-.7l-1.8-3.4c-.2-.4-.8-.6-1.2-.4-.4.2-.6.8-.4,1.2l1.6,3-1.3,3.1c-.2.4,0,1,.5,1.1.1,0,.2,0,.3,0"/>
    <path class="st58" d="M203.5,268.9h0s-.3,0-.3,0c-.2,3.3-.5,6.6-.6,9.7,0,.1-.1.2-.2.2h-1.1c-.1,0-.2-.1-.2-.2l-.2-9.4c0-.3-.4-.3-.4,0l-.2,9.4c0,.1-.1.2-.2.2h-1.1c-.1,0-.2-.1-.2-.2,0-3.2-.4-6.5-.6-9.7h-.3s5.8,0,5.8,0Z"/>
    <path class="st43" d="M202.6,278c0,.2,0,.4,0,.6,0,.1-.1.2-.2.2h-1.1c-.1,0-.2-.1-.2-.2v-.6s1.6,0,1.6,0Z"/>
    <path class="st49" d="M203.4,268.9c0,.9-.3,1.8-.4,2.7h-2.2v-2.3c0-.3-.5-.3-.5,0v2.3h-2.2c0-.9-.3-1.8-.4-2.7h5.6Z"/>
    <path class="st43" d="M200.1,278v.6c0,.1-.1.2-.3.2h-1.1c-.1,0-.2-.1-.2-.2,0-.2,0-.4,0-.6h1.6Z"/>
    <path d="M200.6,253.2h0c1.5,0,2.8,1.3,2.8,2.8v2.6c0,.1,0,.2-.2.3-.5-.2-1.2-.5-1.8-.6,0,0-1.6,0-1.6,0-.2,0-1.2.4-1.8.7-.1,0-.2-.1-.2-.3v-2.6c0-1.5,1.3-2.8,2.8-2.8"/>
    <path class="st58" d="M198.9,256.3c0,1.1.7,2.2,1.7,2.2s1.7-1,1.7-2.2-.7-2-1.7-2-1.7.9-1.7,2"/>
    <path d="M198.7,256h3.8c0-1.2-.8-2-1.9-2s-1.9.8-1.9,1.9h0Z"/>
    <path class="st43" d="M197.8,262.1v-2.7s.1,0,.3-.1c.6-.2.9-.3,1.5-.5,0,.3.5.5,1,.5s.9-.2,1-.5l2.1.6-.3,2.7c0,1.8-.4,3.4.2,5.3v.8c0,.1,0,.6,0,.7h-5.8c0-.1,0-.6,0-.7v-.8c.5-1.7.1-3.5.1-5.3"/>
    <path class="st43" d="M203.8,262.9l-1.2-2.3c-.2-.4,0-1,.4-1.2s1,0,1.2.4l1.2,2.2-1.5.9Z"/>
    <path class="st52" d="M173.7,265.4c.1,0,.2,0,.3,0,.4-.2.7-.7.5-1.1l-1.3-3.1,1.6-3c.2-.4,0-1-.4-1.2-.4-.2-1,0-1.2.4l-1.8,3.4c-.1.2-.1.5,0,.8l1.5,3.5c.1.3.5.5.8.5"/>
    <path class="st52" d="M178.3,253.9c0,.3.2.5.4.5s.4-.2.4-.5-.2-.5-.4-.5-.4.2-.4.5"/>
    <path class="st52" d="M174.6,253.9c0,.3.2.5.4.5s.4-.2.4-.5-.2-.5-.4-.5-.4.2-.4.5"/>
    <path class="st52" d="M175,253.5c0,1.3.8,2.5,1.9,2.5s1.9-1.2,1.9-2.5-.8-2.3-1.9-2.3-1.9,1-1.9,2.3"/>
    <path d="M178.8,253.8s-.4-.5-.5-.9c-.7.1-2.1.2-2.7,0-.2.3-.3.7-.5.8-.2-.2-.4-2.8,1.7-2.9,1.7,0,2.3,1.2,2,3"/>
    <path class="st52" d="M179.9,266.6h0s-.3,0-.3,0c-.2,3.4-.5,6.8-.6,10,0,.1-.1.2-.3.2h-1.1c-.1,0-.2-.1-.3-.2l-.3-9.6c0-.3-.4-.3-.4,0l-.3,9.6c0,.1-.1.2-.3.2h-1.1c-.1,0-.2-.1-.3-.2,0-3.2-.4-6.7-.6-10h-.3s6,0,6,0Z"/>
    <path class="st0" d="M179,276c0,.2,0,.4,0,.6,0,.1-.1.2-.3.2h-1.1c-.1,0-.2-.1-.3-.2v-.6s1.6,0,1.6,0Z"/>
    <path class="st54" d="M179.9,266.6h0s-.3,0-.3,0c0,.9-.1,1.9-.2,2.8h-2.2v-2.4c0-.3-.5-.3-.5,0v2.4h-2.3c0-.9-.1-1.9-.2-2.8h-.3s6,0,6,0Z"/>
    <path class="st0" d="M176.4,276v.6c0,.1-.1.2-.3.2h-1.1c-.1,0-.2-.1-.3-.2,0-.2,0-.4,0-.6h1.6Z"/>
    <path class="st0" d="M174,259.6v-2.9c0,0,.2,0,.3,0,.6-.2.9-.3,1.5-.5,0,.3.5.5,1,.5s.9-.2,1-.5l2,.6v2.8c-.1,1.9,0,3.6,0,5.5v.8c0,.1,0,.6,0,.7h-6c0-.1,0-.6,0-.7v-.8c0-1.8.1-3.6.2-5.5"/>
    <path class="st0" d="M173.5,260.5h0l-1.5-.9,1.3-2.4c.2-.4.8-.6,1.2-.4.4.2.6.8.4,1.2l-1.3,2.5Z"/>
    <path class="st58" d="M195.7,265.3c-.3,0-.6-.2-.7-.6l-1.2-3.2c-.2-.5,0-1,.5-1.1.5-.2,1,0,1.1.5l.5,1.4,1.5-2.7c.2-.4.8-.6,1.2-.3.4.2.6.8.3,1.2l-2.4,4.4c-.2.3-.5.5-.8.5,0,0,0,0,0,0"/>
    <path class="st43" d="M198.6,259.3c-.4-.2-1,0-1.2.3l-1.3,2.4,1.4,1.1,1.5-2.7c.2-.4,0-1-.3-1.2"/>
    <path class="st52" d="M181.8,264.5s0,0,0,0c-.4,0-.7-.3-.8-.6l-2-5.9c-.2-.5,0-1,.6-1.1.5-.2,1,0,1.1.6l1.3,3.9.6-1.2c.2-.4.7-.6,1.2-.4.4.2.6.7.4,1.2l-1.6,3c-.2.3-.5.5-.8.5"/>
    <path class="st0" d="M179.9,260.6l1.6-.6-.9-2.6c-.2-.5-.6-.7-1.1-.6-.5.2-.7.6-.6,1.1l.9,2.7Z"/>
    <path class="st39" d="M43.7,78.2c18.8-2,33.6-17.4,34.6-36.5"/>
    <path class="st39" d="M78.2,35.6C76.2,16.8,60.8,2,41.7,1.1"/>
    <path class="st39" d="M35.6,1.2C16.8,3.2,2,18.6,1.1,37.7"/>
    <path class="st39" d="M1.2,43.7c2,18.8,17.4,33.6,36.5,34.6"/>
    <path class="st5" d="M39.7,78.4h0M1,39.7h0M39.7,1h0M78.4,39.7h0"/>
    <path class="st55" d="M39.7,70.9c17.2,0,31.2-14,31.2-31.2s-14-31.2-31.2-31.2-31.2,14-31.2,31.2,14,31.2,31.2,31.2"/>
    <path class="st53" d="M59.5,53.7v-18.9c0-6.2-2.9-9.1-8.2-9.1s-8,3.3-9.2,5.9c-.4-2.4-2.2-5.9-7.6-5.9s-7.7,2.3-9.3,6h-.1c.3-1.7-1.2-4.6-3.4-5.1-1-.3-1.9-.3-1.9-.3v23.7c0,1.8,1.4,3.8,3.3,3.8h2.6v-11.5c0-5.7,3.3-11.5,7-11.5s4,2.4,4,5.5c0,0,0,12.8,0,13.7,0,2,1.6,3.8,3.4,3.8h2.3v-13.1c0-6,3.5-9.9,7.1-9.9s4,2.2,4,5.6v13.7c0,2,1.9,3.8,3.7,3.8h2.1Z"/>
    <path class="st10" d="M188.8,227.2V49c0-6.1-5.2-11.1-11.5-11.1h-89.6"/>
    <line class="st37" x1="39.8" y1="91.9" x2="39.8" y2="253.9"/>
    <path class="st7" d="M40.7,260.1c1.4,3.4,4.4,5.9,8,6.6"/>
    <line class="st42" x1="54.7" y1="267" x2="147.1" y2="267"/>
    <path class="st5" d="M149,267h0M50.8,267h0M39.8,255.9h0M39.8,87.9h0"/>
    <path class="st53" d="M396,236.9c16.6,0,30.1,13.5,30.1,30.1s-13.5,30.1-30.1,30.1-30.1-13.5-30.1-30.1,13.5-30.1,30.1-30.1"/>
    <path class="st34" d="M396,236.9c16.6,0,30.1,13.5,30.1,30.1s-13.5,30.1-30.1,30.1-30.1-13.5-30.1-30.1,13.5-30.1,30.1-30.1"/>
    <path class="st54" d="M402.4,270.5c-1.9,1.2-4.2,1.9-6.6,1.9s-5.5-1-7.6-2.7l-6,8.6,5.5-.2,3.7,4.9,3.9-10,5.2,12.2,3.7-5.3,5.3.3-7.2-9.7Z"/>
    <path class="st54" d="M384.2,260.2c0,6.4,5.2,11.6,11.6,11.6s11.6-5.2,11.6-11.6-5.2-11.5-11.6-11.5-11.6,5.1-11.6,11.5"/>
    <path class="st57" d="M387.5,260.2c0,4.8,3.4,8.6,8.2,8.6s8.6-3.9,8.6-8.6-3.9-8.6-8.6-8.6-8.2,3.9-8.2,8.6"/>
    <path class="st46" d="M395.6,254.1c0-.2.1-.4.2-.2l1.7,3.5c0,.2.3.4.5.4l3.7.5c.2,0,.2.2.1.3l-2.7,2.6c-.1.1-.2.4-.2.6l.6,3.7c0,.2,0,.3-.3.2l-3.3-1.7c-.2,0-.5,0-.7,0l-3.3,1.7c-.2,0-.3,0-.3-.2l.6-3.7c0-.2,0-.5-.2-.6l-2.7-2.6c-.1-.1-.1-.3.1-.3l3.7-.5c.2,0,.4-.2.5-.4l1.6-3.3Z"/>
  </g>
  <g>
    <path class="st43" d="M355.8,102.8c-.5,1.8-1.2,3.4-2.2,4.8.2.7.5,1.1.7,1.1s.4-.6.4-2.1c.4.4.9.8,1.3,1-.3,2.3-.8,2.9-1.9,2.9-.7,0-1.2-.5-1.7-1.4-.7.8-1.4,1.4-2.3,1.9,1.8,0,4.9,0,6.1,0-.3.5-.7,1.4-.8,2.1h-6.3c-3.4,0-5.7-.5-7.2-2.7-.2,1.1-.6,2.2-1.2,3.2-.3-.4-.9-1.1-1.3-1.3,1.1-2,1.2-4.7,1.1-7.1h1.8c0,.8,0,1.5,0,2.2.3.8.6,1.4,1,1.9v-5h-3.4v-1.8h3v-1.5h-2.4v-1.8h2.4v-1.9h1.9v1.9h2.4v1.8h-2.4v1.5h2.7v1.8h-2.3v1.9h2v1.6c.3-.2.7-.6.7-1.3v-6.5h3.2c0-.9,0-1.8,0-2.8h1.9c0,.9,0,1.9,0,2.8h1.5c-.3-.6-.9-1.4-1.3-2l1.4-.7c.5.6,1.2,1.5,1.5,2l-1.2.7h1.4v1.7h-3.1c0,1.2.2,2.3.3,3.3.4-.8.8-1.7,1-2.6l1.6.4ZM345.1,110.5c1.1.4,2.4.5,4,.5h1c-.3-.4-.8-1.1-1.2-1.4,1.1-.6,2.1-1.5,2.9-2.5-.4-1.5-.6-3.4-.8-5.5h-1.4v4.6l1.2-.7c0,.5.3,1.2.5,1.6-2.8,1.7-3.3,2.1-3.6,2.4-.1-.4-.4-1.2-.7-1.7h-2v2.6Z"/>
    <path class="st43" d="M338.1,110.9h-6.9v2.6h-2.2v-2.6h-6.8v-1.9h6.8v-1h-5v-6.9h4.9v-3.9h2.2v1.2h6.3v1.8h-6.3v1h5.4v6.9h-5.3v1h6.9v1.9ZM326,103.7h8.2v-1h-8.2v1ZM326,106.3h8.2v-1h-8.2v1Z"/>
    <path class="st43" d="M319.7,103.5c-1,1.1-2.3,2.4-3.3,3.3,1.2,1.3,2.7,2.5,4.3,3.2-.5.4-1.2,1.3-1.5,1.9-2.4-1.3-4.3-3.3-5.7-5.8v4.8c0,1.2-.2,1.8-1,2.2-.7.4-1.9.4-3.4.4,0-.6-.4-1.6-.7-2.2,1.1,0,2.2,0,2.5,0s.5-.1.5-.4v-2.7c-2,1.3-4.1,2.6-5.8,3.6l-1.3-1.9c1.7-.9,4.5-2.4,7.1-3.9v-4.2h-6.6v-2h6.6v-2.6h2.1v2.6h3.5c-.7-.5-1.6-1-2.4-1.4l1.2-1.3c1,.5,2.5,1.3,3.2,1.8l-.8.9h1.9v2h-6.7v.2c.5,1.2,1,2.3,1.8,3.4.9-.9,2-2.1,2.6-3.1l1.8,1.3ZM308.1,106.8c-.5-1-1.7-2.3-2.8-3.3l1.6-1.1c1,.9,2.3,2.2,2.9,3.2l-1.7,1.3Z"/>
    <path class="st43" d="M290.9,110.2c.2.1.5.3.8.5,1.1.6,2.6.7,4.4.7s5-.1,6.9-.4c-.2.5-.5,1.5-.5,2-1.6.1-4.5.2-6.4.2s-3.5-.2-4.6-.8c-.6-.4-1.2-.8-1.5-.8-.5,0-1.4.9-2.1,1.9l-1.3-1.8c.8-.7,1.6-1.3,2.3-1.6v-4.9h-2.3v-1.9h4.3v6.9ZM289.5,101.6c-.5-.8-1.6-2-2.6-2.8l1.5-1.1c.9.8,2.1,1.9,2.7,2.7l-1.7,1.2ZM292.6,98.8h2.7c.2-.6.4-1.3.5-1.9l2.4.3c-.2.6-.5,1.1-.7,1.6h3.5v4.9h-6.4v1.2h7.1v5.3h-9.1v-11.4ZM294.6,100.5v1.5h4.4v-1.5h-4.4ZM294.6,106.6v1.9h5v-1.9h-5Z"/>
  </g>
  <g>
    <path class="st43" d="M283.5,133.5h-7.2v-12.5h7.2v2.2h-4.6v2.7h4.2v2.2h-4.2v3.2h4.6v2.2Z"/>
    <path class="st43" d="M288,128.6l-3.1-4.7h3l1.9,3,1.9-3h3l-3.1,4.7,3.3,4.9h-3l-2-3.3-2,3.3h-3l3.2-4.9Z"/>
    <path class="st43" d="M300.2,133.6c-1.4,0-2.5-.4-3.3-1.2-.8-.8-1.2-2-1.2-3.7s.2-2.1.6-2.9c.4-.7.9-1.3,1.7-1.6s1.5-.5,2.4-.5,1.2,0,1.7.2c.5.1.9.3,1.3.5l-.8,2c-.4-.2-.8-.3-1.1-.4s-.7-.2-1.1-.2c-1.4,0-2,1-2,2.9s.2,1.7.5,2.1c.4.5.9.7,1.5.7s1,0,1.5-.2c.4-.1.8-.3,1.2-.6v2.2c-.4.3-.8.4-1.3.6s-1,.2-1.7.2Z"/>
    <path class="st43" d="M309.5,123.7c1.3,0,2.4.4,3.1,1.1s1.2,1.8,1.2,3.2v1.3h-6.2c0,.7.2,1.3.7,1.7.4.4,1,.6,1.7.6s1.2,0,1.7-.2c.5-.1,1-.3,1.6-.6v2c-.5.2-1,.4-1.5.5-.5.1-1.1.2-1.9.2s-1.8-.2-2.5-.5c-.7-.4-1.3-.9-1.7-1.6s-.6-1.6-.6-2.7.2-2,.6-2.8c.4-.7.9-1.3,1.6-1.7s1.5-.6,2.4-.6ZM309.5,125.6c-.5,0-.9.2-1.3.5s-.5.8-.6,1.5h3.7c0-.6-.2-1.1-.5-1.4-.3-.4-.8-.6-1.4-.6Z"/>
    <path class="st43" d="M318.7,133.5h-2.6v-13.3h2.6v13.3Z"/>
    <path class="st43" d="M324.2,133.5h-2.6v-13.3h2.6v13.3Z"/>
    <path class="st43" d="M331,123.7c1.3,0,2.4.4,3.1,1.1s1.2,1.8,1.2,3.2v1.3h-6.2c0,.7.2,1.3.7,1.7.4.4,1,.6,1.7.6s1.2,0,1.7-.2c.5-.1,1-.3,1.6-.6v2c-.5.2-1,.4-1.5.5-.5.1-1.1.2-1.9.2s-1.8-.2-2.5-.5c-.7-.4-1.3-.9-1.7-1.6s-.6-1.6-.6-2.7.2-2,.6-2.8c.4-.7.9-1.3,1.6-1.7s1.5-.6,2.4-.6ZM331,125.6c-.5,0-.9.2-1.3.5s-.5.8-.6,1.5h3.7c0-.6-.2-1.1-.5-1.4-.3-.4-.8-.6-1.4-.6Z"/>
    <path class="st43" d="M343,123.7c1,0,1.8.3,2.5.8.6.6.9,1.4.9,2.7v6.2h-2.6v-5.6c0-.7-.1-1.2-.4-1.5-.2-.3-.6-.5-1.2-.5-.8,0-1.3.3-1.6.8-.3.5-.4,1.3-.4,2.3v4.5h-2.6v-9.6h2l.4,1.2h.1c.3-.5.7-.8,1.3-1.1s1.1-.3,1.7-.3Z"/>
    <path class="st43" d="M353.1,133.6c-1.4,0-2.5-.4-3.3-1.2-.8-.8-1.2-2-1.2-3.7s.2-2.1.6-2.9c.4-.7.9-1.3,1.7-1.6s1.5-.5,2.4-.5,1.2,0,1.7.2c.5.1.9.3,1.3.5l-.8,2c-.4-.2-.8-.3-1.1-.4s-.7-.2-1.1-.2c-1.4,0-2,1-2,2.9s.2,1.7.5,2.1c.4.5.9.7,1.5.7s1,0,1.5-.2c.4-.1.8-.3,1.2-.6v2.2c-.4.3-.8.4-1.3.6s-1,.2-1.7.2Z"/>
    <path class="st43" d="M362.3,123.7c1.3,0,2.4.4,3.1,1.1s1.2,1.8,1.2,3.2v1.3h-6.2c0,.7.2,1.3.7,1.7.4.4,1,.6,1.7.6s1.2,0,1.7-.2c.5-.1,1-.3,1.6-.6v2c-.5.2-1,.4-1.5.5-.5.1-1.1.2-1.9.2s-1.8-.2-2.5-.5c-.7-.4-1.3-.9-1.7-1.6s-.6-1.6-.6-2.7.2-2,.6-2.8c.4-.7.9-1.3,1.6-1.7s1.5-.6,2.4-.6ZM362.4,125.6c-.5,0-.9.2-1.3.5s-.5.8-.6,1.5h3.7c0-.6-.2-1.1-.5-1.4-.3-.4-.8-.6-1.4-.6Z"/>
  </g>
  <g>
    <path d="M278.1,147.9c-.7,1.3-1.7,2.6-2.8,3.8.7,1.9,1.5,3,2.5,3s.7-.8.8-2.9c.2.1.4.3.7.4-.2,2.5-.5,3.3-1.5,3.3s-2.3-1.2-3-3.2c-1.1,1-2.3,1.9-3.5,2.5-.1-.2-.3-.4-.5-.6,1.4-.7,2.7-1.6,3.8-2.7-.4-1.3-.7-2.9-.9-4.7h-3.9v2.9l3-.7v.7c0,0-3,.7-3,.7v3.9c0,.6-.2.9-.6,1-.4.1-1.2.2-2.5.1,0-.2-.2-.5-.3-.8,1.1,0,2,0,2.2,0,.3,0,.4,0,.4-.4v-3.7c-1.3.3-2.5.6-3.5.8l-.3-.7c1-.2,2.3-.5,3.7-.8v-3.1h-3.5v-.7h3.5v-2.9c-1,.2-2.1.4-3.1.6,0-.2-.2-.4-.3-.6,2.2-.4,4.7-.9,6.2-1.5l.6.6c-.7.3-1.6.5-2.6.8v3.1h3.9c-.2-1.4-.2-3-.2-4.6h.8c0,1.6,0,3.2.2,4.6h4.7v.7h-4.7c.2,1.6.4,2.9.8,4.1.9-1,1.8-2.1,2.4-3.3l.7.3ZM277.8,144.9c-.5-.7-1.6-1.9-2.6-2.7l.6-.4c.9.8,2,1.9,2.6,2.6l-.6.5Z"/>
    <path d="M284.3,141.7c-.3,1.1-.7,2.3-1.2,3.3v10.4h-.7v-8.9c-.4.8-.9,1.6-1.3,2.2,0-.2-.3-.5-.5-.7,1.3-1.6,2.4-4.1,3-6.5l.7.2ZM285.3,144.3h.7v11.1h-.7v-11.1ZM286.6,141.4c.7.9,1.5,2.2,1.8,3l-.6.3c-.3-.8-1.1-2.1-1.8-3.1l.6-.3ZM294,154.3c0,.6-.2.8-.6,1-.4.1-1.2.1-2.4.1,0-.2-.2-.5-.3-.7,1,0,1.9,0,2.1,0,.3,0,.4,0,.4-.4v-11.6h-4.5v-.7h5.2v12.3Z"/>
    <path d="M301.6,150.6c-.3-.6-1.2-1.9-1.9-2.8v7.6h-.7v-7.5c-.7,1.8-1.7,3.6-2.6,4.6,0-.2-.3-.5-.4-.7,1.1-1.2,2.2-3.4,2.9-5.3h-2.7v-.7h2.9v-2.9c-.9.2-1.9.3-2.8.5,0-.2-.1-.4-.2-.6,1.9-.3,4.3-.7,5.6-1.3l.5.6c-.6.2-1.4.5-2.3.7v3.1h2.6v.7h-2.6v.4c.5.6,2,2.6,2.4,3l-.5.7ZM304.8,150.9c-.5,1.8-1.4,3.4-2.4,4.5-.1-.1-.5-.3-.7-.4,1.1-1,1.9-2.6,2.3-4.2l.8.2ZM309.4,149.1h-6.5v-6.5h6.5v6.5ZM308.7,143.3h-5.1v5.1h5.1v-5.1ZM308,150.7c.8,1.3,1.8,3.1,2.1,4.2l-.7.3c-.4-1.1-1.2-2.9-2.1-4.2l.7-.2Z"/>
    <path d="M316.3,149.1c-.2-.5-.9-1.6-1.4-2.4v8.7h-.7v-8.4c-.6,1.9-1.4,3.9-2.2,5.1,0-.2-.3-.5-.4-.7,1-1.3,2.1-4,2.6-6.2h-2.1v-.7h2.2v-3h.7v3h1.9v.7h-1.9v.6c.4.5,1.6,2.3,1.9,2.8l-.5.6ZM325.1,146.9c-.5,2.3-1.4,4.2-2.6,5.6.9,1,2,1.7,3.2,2.2-.2.1-.4.4-.5.6-1.2-.5-2.2-1.3-3.1-2.3-.9,1-2,1.8-3.2,2.3-.1-.2-.4-.5-.5-.6,1.2-.5,2.3-1.3,3.2-2.3-1-1.3-1.8-2.9-2.4-4.6-.4,3.2-1.3,5.6-3.1,7.5-.1-.1-.4-.4-.6-.5,2.6-2.5,3.1-6.5,3.3-11.9h-1.9v-.7h6.6c-.4,1.4-.8,3.1-1.2,4.4h2.3s.5.2.5.2ZM319.6,143.1c0,1.1-.1,2.2-.2,3.1.6,2.2,1.5,4.2,2.7,5.7.9-1.2,1.7-2.7,2.1-4.5h-2.9c.4-1.1.9-2.9,1.2-4.4h-3Z"/>
    <path d="M329.9,150.9c.6-.3,1.3-.6,2-.8v.7c-1.5.7-3.3,1.5-4.6,2.1l-.3-.7c.6-.2,1.4-.5,2.2-.9v-5.3h-2.1v-.7h2.1v-3.6h.7v3.6h2v.7h-2v5ZM339.3,154.4c.9,0,1.1-.5,1.2-2.4.2.1.5.3.7.3-.1,2.1-.4,2.7-1.9,2.7h-4.1c-1.6,0-2-.3-2-1.8v-5.4l-1.5.6-.3-.7,1.8-.8v-4.3h.7v4l2.6-1.1v-4.4h.7v4.1l2.5-1.1.2-.2h.2c0-.1.5,0,.5,0v.2c0,2.9,0,5.5-.2,6-.1.6-.4.8-.9.9-.4,0-1,0-1.3,0,0-.2-.1-.5-.2-.7.4,0,1,0,1.2,0s.4,0,.5-.5c.1-.4.2-2.6.2-5.2l-2.7,1.1v5.8h-.7v-5.6l-2.6,1.1v5.7c0,.8.2,1,1.3,1h4.2Z"/>
    <path d="M356.4,150.8h-6.5v3.6c0,.5-.2.8-.6.9-.5.1-1.3.1-2.8.1,0-.2-.2-.5-.4-.7,1.3,0,2.3,0,2.6,0,.3,0,.4-.1.4-.3v-3.6h-6.3v-.7h6.3v-1.2c1.1-.4,2.4-1,3.3-1.7h-7.1v-.7h8.1s.5.3.5.3c-1,.9-2.6,1.8-4,2.4v.9h6.5v.7ZM344,146.9h-.7v-2.9h2.7c-.3-.6-.9-1.5-1.5-2.2l.6-.3c.6.7,1.3,1.6,1.5,2.2l-.5.3h6.6c.6-.7,1.3-1.8,1.7-2.6l.7.3c-.5.7-1.1,1.6-1.7,2.2h2.7v2.9h-.7v-2.2h-11.4v2.2ZM349.8,144c-.2-.7-.7-1.7-1.3-2.5l.7-.2c.5.8,1.1,1.8,1.3,2.5l-.7.3Z"/>
    <path d="M368.6,150c-3.3,1.1-6.9,2.3-9.2,3.1l-.3-.8c2.2-.7,5.9-1.9,9.3-3.1v.7ZM370.9,143.1c-.1,8.3-.2,10.9-.8,11.6-.3.4-.6.5-1.1.6-.5,0-1.5,0-2.3,0,0-.2,0-.5-.2-.7,1,0,2,0,2.3,0,.3,0,.4,0,.6-.2.5-.5.6-3.3.7-11h-10.9v-.7h11.6v.5ZM361.6,144.9c1.5,1,3.3,2.3,4.3,3.2l-.5.6c-.9-.9-2.8-2.3-4.2-3.3l.5-.5Z"/>
    <path d="M377.3,155c-1-1.3-2.4-2.6-3.5-3.5l.6-.6c1.1.9,2.5,2.2,3.6,3.5l-.7.6Z"/>
  </g>
  <g>
    <path d="M289.4,161.2c-.4.6-.8,1.3-1.2,1.9v10.3h-.8v-9.3c-1.6,2-3.7,3.7-6,4.9-.1-.2-.4-.5-.5-.6,3.2-1.7,6-4.4,7.6-7.2h-7.3v-.7h13.2v.7h-5ZM289.3,164.1c1.9,1.2,4.3,2.9,5.4,4l-.6.6c-1.1-1.2-3.5-2.9-5.4-4.1l.5-.5Z"/>
    <path d="M303.3,171.7h-6.3v-11.8h.7v11.1h5.6v.7ZM300.6,165.8c-.6,1.4-1.5,2.8-2.3,3.6,0-.2-.2-.4-.4-.6.9-.9,2-2.5,2.5-4h-2.3v-.7h2.4v-4.7h.7v4.7h2.4v.7h-2.4v.2c.5.5,1.9,2.2,2.2,2.7l-.5.6c-.3-.5-1.1-1.6-1.7-2.4v4.6h-.7v-4.6ZM299.2,163.3c0-.7-.4-1.9-.8-2.7l.5-.2c.4.8.7,2,.8,2.7l-.6.2ZM303.5,160.6c-.4.9-.9,2-1.2,2.8l-.5-.2c.4-.7.9-2,1.1-2.8l.6.2ZM310.3,165.3h-1.8v8.1h-.7v-8.1h-2.7v.6c0,2.8-.2,5.3-1.4,7.5-.1-.2-.4-.3-.6-.5,1.1-2.1,1.3-4.6,1.3-7.1v-5.1c1.8-.4,4-.9,5.2-1.5l.6.6c-1.3.6-3.3,1.1-5.1,1.4v3.3h5.3v.7Z"/>
    <path d="M314.6,168.9c.6-.3,1.3-.6,2-.8v.7c-1.5.7-3.3,1.5-4.6,2.1l-.3-.7c.6-.2,1.4-.5,2.2-.9v-5.3h-2.1v-.7h2.1v-3.6h.7v3.6h2v.7h-2v5ZM323.9,172.4c.9,0,1.1-.5,1.2-2.4.2.1.5.3.7.3-.1,2.1-.4,2.7-1.9,2.7h-4.1c-1.6,0-2-.3-2-1.8v-5.4l-1.5.6-.3-.7,1.8-.8v-4.3h.7v4l2.6-1.1v-4.4h.7v4.1l2.5-1.1.2-.2h.2c0-.1.5,0,.5,0v.2c0,2.9,0,5.5-.2,6-.1.6-.4.8-.9.9-.4,0-1,0-1.3,0,0-.2-.1-.5-.2-.7.4,0,1,0,1.2,0s.4,0,.5-.5c.1-.4.2-2.6.2-5.2l-2.7,1.1v5.8h-.7v-5.6l-2.6,1.1v5.7c0,.8.2,1,1.3,1h4.2Z"/>
    <path d="M339.8,172.4c.6,0,.7-.3.8-2.2.2.1.5.2.7.3,0,2.1-.3,2.5-1.4,2.5h-2.6c-1.2,0-1.5-.2-1.5-1.2v-4.4h-3.1c-.3,3.4-1.2,5.1-4.9,5.9,0-.2-.3-.5-.4-.6,3.5-.7,4.3-2.2,4.5-5.3h-4.4v-.7h13.6v.7h-4.7v4.4c0,.4.1.5.8.5h2.5ZM328.7,164.4h-.7v-3.2h6.2c-.2-.5-.6-1.2-1-1.8l.7-.2c.4.6.9,1.4,1.1,2h5.6v3.2h-.7v-2.4h-11.2v2.4ZM330,164.6v-.7h8.7v.7h-8.7Z"/>
    <path d="M356.7,167.5v.7h-13.7v-.7h3.4c-.2-.5-.6-1.1-1-1.5l.6-.2c.4.5.9,1.1,1.1,1.6l-.4.2h2.7v-1.8h-6v-.6h6v-1.3h-4.7v-.6h4.7v-1.3h-5.6v-.6h3.2c-.2-.4-.6-1.1-1-1.5l.6-.2c.4.4.9,1.1,1.1,1.5l-.5.2h4.5c.4-.5.8-1.3,1.1-1.8l.7.2c-.3.5-.7,1.1-1,1.5h3.3v.6h-5.7v1.3h4.8v.6h-4.8v1.3h6.2v.6h-6.2v1.8h2.3c.4-.5.8-1.3,1-1.8l.7.2c-.3.5-.7,1.1-.9,1.5h3.4ZM345.1,169.3h9.6v4.1h-.7v-.5h-8.1v.6h-.7v-4.1ZM345.8,169.9v2.3h8.1v-2.3h-8.1Z"/>
    <path d="M359.4,173.1c1.2-.6,1.9-1.3,1.9-2.5-.1,0-.2,0-.3,0-.6,0-1-.3-1-.9s.4-.9,1-.9c.7,0,1.1.6,1.1,1.6,0,1.6-1,2.8-2.4,3.4l-.3-.6Z"/>
  </g>
  <g>
    <path d="M366,185.6c0,.2,0,.5,0,.6-4.1.8-4.5,1-4.8,1.1,0-.2-.1-.5-.2-.7.3,0,.7-.5,1.1-1,.3-.3,1.1-1.3,1.8-2.4-2.3.3-2.6.4-2.8.5,0-.2-.2-.5-.2-.7.2,0,.5-.4.9-1,.4-.5,1.6-2.6,2.3-4.5l.7.3c-.8,1.8-1.8,3.6-2.7,5l2.4-.3c.4-.6.7-1.2,1-1.7l.6.3c-1.1,1.9-2.4,3.8-3.7,5.2l3.7-.7ZM366.2,189c-1.8.5-3.7.9-5.1,1.3l-.2-.7c1.3-.3,3.3-.7,5.2-1.2v.7ZM370,186h.7v1.1c0,1.3-.4,3.1-5,4.3,0-.2-.3-.4-.4-.6,4.4-1,4.7-2.6,4.7-3.7v-1.1ZM374.9,183.1h-8.9v-.6h4.1v-1.3h-3.2v-.6h3.2v-1.1h-3.6v-.6h3.6v-1.4h.7v1.4h3.8v.6h-3.8v1.1h3.5v.6h-3.5v1.3h4.1v.6ZM373.3,188.7v-3.8h-5.6v3.8h-.7v-4.4h7v4.4h-.7ZM371.2,189c1.3.5,2.9,1.2,3.7,1.8l-.4.6c-.8-.6-2.4-1.4-3.7-1.9l.4-.5Z"/>
    <path d="M358.3,182.5c-.7,2-1.6,3.8-2.8,5.3.7,1.7,1.5,2.7,2.4,2.7s.7-.8.8-2.9c.2.2.4.3.7.4-.2,2.5-.5,3.3-1.5,3.3s-2.2-1.1-2.9-2.9c-1,1.1-2.2,2.1-3.6,2.9-.1-.2-.4-.4-.5-.6,1.5-.8,2.8-1.8,3.8-3.1-.6-1.8-1-4.1-1.2-6.7h-5.9v2.2h4s0,.3,0,.4c0,3.6-.2,4.9-.5,5.3-.2.2-.4.3-.8.3-.4,0-1.1,0-1.9,0,0-.2-.1-.5-.2-.7.8,0,1.6,0,1.8,0s.4,0,.5-.2c.2-.2.3-1.4.4-4.5h-3.3v.6c0,2.1-.2,5-1.6,7-.1-.1-.4-.4-.6-.5,1.3-1.9,1.5-4.6,1.5-6.6v-4.2h6.6c0-.9,0-1.8,0-2.8h.8c0,1,0,1.9,0,2.8h5.1v.7h-5.1c.2,2.4.5,4.4,1,6,1-1.3,1.7-2.9,2.3-4.6l.7.2ZM358,179.9c-.6-.6-1.9-1.4-2.9-1.9l.4-.5c1,.5,2.3,1.3,2.9,1.8l-.4.5Z"/>
    <path d="M343.8,187.6h-3.6v3.7h-.7v-3.7h-5.5c-.3,1.3-1.1,2.8-3.4,3.8-.1-.2-.3-.4-.5-.6,2.1-.9,2.8-2.1,3.1-3.3h-3.2v-.7h3.3c0-.2,0-.5,0-.7v-1.2h.7v1.2c0,.2,0,.4,0,.7h5.4v-1.9h.7v1.9h3.6v.7ZM334.4,184.5c-2.3,0-2.9-.3-2.9-1.5v-4.8h10.5v3.5h-9.8v1.3c0,.7.3.9,2.1.9h6.7c1.3,0,1.5-.3,1.6-1.7.2.1.5.2.7.3-.2,1.7-.5,2.1-2.4,2.1h-6.6ZM332.2,178.8v2.1h9v-2.1h-9Z"/>
    <path d="M318.9,177.6c-.5,1.2-1,2.5-1.7,3.6v10.2h-.7v-9c-.5.8-1.1,1.5-1.6,2.1,0-.2-.3-.5-.4-.7,1.5-1.6,2.9-3.9,3.7-6.4l.7.2ZM328.3,181.1v.7h-5.8c-.3,3.8-1.1,7.4-3.9,9.5-.1-.2-.4-.4-.5-.5,2.7-1.9,3.5-5.4,3.7-9h-3.7v-.7h3.7c0-1.2,0-2.4,0-3.6h.7c0,1.2,0,2.4,0,3.6h5.7ZM326.9,190.3c.5,0,.6-.4.7-2.4.2.1.5.3.7.3,0,2.2-.3,2.8-1.3,2.8h-2c-1,0-1.3-.2-1.3-1.2v-6.5h.7v6.5c0,.4.1.5.6.5h1.9ZM326.7,180.5c-.4-.6-1.4-1.7-2.2-2.4l.5-.4c.8.7,1.7,1.7,2.2,2.3l-.5.4Z"/>
    <path d="M311.9,185.1v6.3h-.8v-.9h-11.1v-5.4h.8v4.7h4.7v-5.8h-4.9v-5.1h.8v4.4h4.2v-5.9h.8v5.9h4.2v-4.4h.8v5.1h-5v5.8h4.8v-4.7h.8Z"/>
    <path d="M287.2,177.6c-.3,1-.8,2.1-1.2,3.1v10.7h-.7v-9.4c-.5,1-1.1,1.8-1.8,2.6,0-.2-.3-.5-.4-.7,1.4-1.6,2.7-4,3.5-6.5l.7.2ZM288,189.7v1h-.7v-6.3h1.9v-3.2h-2.4v-.7h2.4v-3h.7v3h2.2v.7h-2.2v3.2h1.8v5.3h-3.7ZM288,185.1v4h3v-4h-3ZM296.7,181.1c-.3,2.7-.9,4.9-1.8,6.6.6,1.3,1.5,2.4,2.7,3.1-.2.1-.4.4-.5.6-1.1-.8-2-1.8-2.6-3-.8,1.2-1.8,2.2-3.1,3,0-.1-.4-.4-.5-.5,1.4-.8,2.5-1.9,3.3-3.2-.7-1.6-1.1-3.4-1.3-5.1-.3.7-.6,1.3-.9,1.8-.1-.1-.4-.4-.6-.5,1-1.6,1.7-4.1,2.1-6.6h.7c-.2,1.1-.4,2.1-.6,3.1h3.9v.7h-.7ZM293.3,181.3c.2,1.8.5,3.8,1.3,5.6.7-1.6,1.2-3.5,1.4-5.8h-2.6v.2Z"/>
    <path d="M281.8,185.8h-3.7v5.6h-.8v-5.6h-4.9c-.2,2.1-.9,4.2-3.9,5.7,0-.2-.3-.4-.5-.6,2.7-1.4,3.5-3.2,3.7-5.1h-3.7v-.7h3.7v-3.7h-3.1v-.7h8.1c.5-.9,1.2-2.3,1.6-3.3l.8.3c-.4,1-1,2.1-1.6,3h3.7v.7h-3.1v3.7h3.7v.7ZM272.4,180.5c-.3-.8-1-1.9-1.7-2.8l.7-.3c.7.8,1.4,2,1.7,2.7l-.7.3ZM277.4,185.1v-3.7h-4.9v3.7h4.9Z"/>
  </g>
  <g>
    <path class="st43" d="M246.9,70.9c17.2,0,31.2-14,31.2-31.2s-14-31.2-31.2-31.2-31.2,14-31.2,31.2,14,31.2,31.2,31.2"/>
    <path class="st53" d="M258.7,37.4c0-6.5-3.3-11.8-11.1-11.8s-12.4,6.1-12.4,14.3,4.7,14,13.1,14,6.7-.6,9.4-1.8c0,0,.1-.1-.3-1.2-.6-1.5-2-2.6-3.5-2.3-1.5.3-3.1.6-4.7.6-5.4,0-8.2-2.8-8.1-9.1h17.4c.1-1,.2-2,.2-2.7M252.8,36h-11.6c.5-3.7,2.8-6.1,6.1-6.1s5.6,2.4,5.5,6.1"/>
    <path class="st1" d="M250.9,78.2c18.8-2,33.6-17.4,34.6-36.5"/>
    <path class="st1" d="M285.4,35.6c-2-18.8-17.4-33.6-36.5-34.6"/>
    <path class="st1" d="M242.9,1.2c-18.8,2-33.6,17.4-34.6,36.5"/>
    <path class="st1" d="M208.4,43.7c2,18.8,17.4,33.6,36.5,34.6"/>
    <path class="st30" d="M246.9,78.4h0M208.2,39.7h0M246.9,1h0M285.6,39.7h0"/>
    <path class="st20" d="M396,227.2V49c0-6.1-5.2-11.1-11.5-11.1h-89.6"/>
    <line class="st29" x1="247" y1="91.9" x2="247" y2="253.9"/>
    <path class="st28" d="M247.9,260.1c1.4,3.4,4.4,5.9,8,6.6"/>
    <line class="st8" x1="262" y1="267" x2="354.3" y2="267"/>
    <path class="st30" d="M356.2,267h0M258,267h0M247,255.9h0M247,87.9h0"/>
    <path class="st53" d="M603.2,236.9c16.6,0,30.1,13.5,30.1,30.1s-13.5,30.1-30.1,30.1-30.1-13.5-30.1-30.1,13.5-30.1,30.1-30.1"/>
    <path class="st35" d="M603.2,236.9c16.6,0,30.1,13.5,30.1,30.1s-13.5,30.1-30.1,30.1-30.1-13.5-30.1-30.1,13.5-30.1,30.1-30.1"/>
    <path class="st52" d="M616.4,268.4l-6.4.7-.8,14.2c0,.3.2.5.5.5h1.7c.2,0,.4-.2.4-.4.3-3.2.8-8.9,1.2-12.1,0,0,0,0,0,0,.2,3.4.3,9.3.5,12.1,0,.2.2.4.4.4h1.7c.3,0,.4-.2.4-.5,0-4.4,0-10.6.2-14.8"/>
    <path class="st54" d="M589.2,268c-.3,5.7-.3,9.9-.6,15.3,0,.3.2.5.4.5h1.7c.2,0,.4-.1.4-.4.5-4,.5-7.5.8-11.6,0,0,.2,0,.2,0,.3,4.3.3,7.1.2,11.6,0,.2.2.4.4.4h1.7c.3,0,.5-.2.5-.5.3-5.3.4-9.5.3-14.2l-6-1.1Z"/>
    <path d="M588.7,282.4c0,.3,0,.6,0,.9,0,.3.2.5.4.5h1.7c.2,0,.4-.1.4-.4,0-.3,0-.7.1-1h-2.6Z"/>
    <path d="M592.4,282.4c0,.3,0,.7,0,1,0,.2.2.4.4.4h1.7c.3,0,.5-.2.5-.5,0-.3,0-.6,0-.9h-2.6Z"/>
    <path class="st55" d="M609.2,282.4v.9c0,.3.2.5.4.5h1.7c.2,0,.4-.1.4-.4,0-.3,0-.7,0-1h-2.6Z"/>
    <path class="st55" d="M613.5,282.4c0,.3,0,.7,0,1,0,.2.2.4.4.4h1.7c.3,0,.4-.2.4-.5,0-.3,0-.6,0-.9h-2.6Z"/>
    <path class="st44" d="M592.1,250.6c0,1.5.9,2.9,2.1,2.9,1.2,0,2.3-1.3,2.3-2.8s-.9-2.7-2.1-2.8c-1.2,0-2.2,1.1-2.3,2.6"/>
    <path d="M596.5,250.1c-.3.2-.8.3-1.5,0-.2.4-.5,3.4-1.4,3.3-2.4-.4-2.3-6,.6-5.9,2.3,0,2.5,2.2,2.4,2.7"/>
    <path class="st44" d="M594.1,251.4c0,.3.2.6.4.6.3,0,.5-.3.5-.6s-.2-.6-.4-.6c-.3,0-.5.3-.5.6"/>
    <path class="st55" d="M601.1,266.3c.2.3.6.5.9.5s.2,0,.3,0l-1.4-.9c0,.1,0,.3.2.4"/>
    <path class="st55" d="M610.6,254.8c-.6-.2-1.2,0-1.4.7l-2,5.6-4,2.5.9.6c.4.2.6.6.7,1l3.8-2.4c.2-.1.4-.3.4-.6l2.1-5.9c.2-.6,0-1.2-.7-1.4"/>
    <path class="st0" d="M603.3,266.6c-.2,0-.3,0-.5-.2l-6-3.6c-.2-.1-.4-.3-.5-.6l-2.2-6.3c-.2-.6.1-1.2.7-1.4.6-.2,1.2.1,1.4.7l2,5.9,5.6,3.4c.5.3.7,1,.4,1.5-.2.4-.6.5-1,.5"/>
    <path class="st55" d="M616.6,266.2c-.1-2.2-.1-4.3-.3-6.7v-.5s.4.4.4.4c.4.4.7.9,1.1,1.4-.4,2.1-.6,3.5-1.2,5.3M620.3,260.4c-.2-1.2-3.1-4.6-4-5.6h0c0-.2-.1-.3-.3-.4-.3-.2-1.9-.5-2.4-.6-1.5.6-2.3.2-2.3.2-.7.3-1.2.6-1.6,1l-.4,7.6c0,2.9-1.6,9.9-1.6,10.9.1,0,9.8,0,9.8,0,0-.2-.8-5.2-.8-5.4.5.4,1.5.3,1.8-.7.4-1.2,2.1-6,1.9-7"/>
    <path class="st0" d="M595,254.2h-.2c-.3.2-.6.3-1,.3-.4,0-.7-.2-.9-.4h-1.1c-.7-.1-1.2.4-1.3,1l-.8,5-.9,8.4,6.9.6v-7.1s.8-6.2.8-6.2c0-.8-.6-1.5-1.4-1.6"/>
    <path class="st0" d="M587,269.1c-.6,0-1-.6-1-1.1l.3-6.9c0-.2,0-.4.2-.6l3.9-5.9c.3-.5,1-.6,1.5-.3.5.3.6,1,.3,1.5l-3.8,5.7-.3,6.6c0,.6-.5,1.1-1.1,1,0,0,0,0,0,0"/>
    <path class="st52" d="M614.1,250.6c0,1.5-.9,2.8-2,2.9-1.2,0-2.2-1.3-2.3-2.7,0-1.5.9-2.7,2.1-2.7,1.2,0,2.2,1.1,2.3,2.5"/>
    <path d="M614.9,250.5l-5.3-.4s0-2.7,2.7-2.8c2.7,0,2.6,3.2,2.6,3.2"/>
    <path d="M613.5,254.9h1.1c.7-.2,1.3-.9,1.2-1.6l-1-3.6c0-.7-.7-1-1.5-.9h-.5c-.7.1-1.3.8-1.2,1.5l.3,3.4c0,.7.7,1.3,1.5,1.2"/>
  </g>
  <g>
    <path class="st47" d="M563.3,111.3v1.6h-15.9v-1.6h6.8v-.9h-5.5v-1.6h5.5v-.8h-4.9v-5.5h4.9v-.7h-6.7v-1.6h6.7v-.8c-1.7,0-3.4.1-5,.1,0-.5-.2-1.2-.4-1.6,4.1,0,8.8-.4,11.8-.9l1,1.6c-1.5.2-3.3.4-5.3.6v.9h6.9v1.6h-6.9v.7h5.2v5.5h-5.2v.8h5.8v1.6h-5.8v.9h7ZM551.3,104.7h2.9v-.8h-2.9v.8ZM554.2,106.7v-.8h-2.9v.8h2.9ZM556.3,103.9v.8h3.1v-.8h-3.1ZM559.4,105.9h-3.1v.8h3.1v-.8Z"/>
    <path class="st47" d="M545.6,110.1h-3.7v1.4c0,1-.2,1.5-.9,1.8-.7.3-1.6.3-2.9.3,0-.6-.4-1.3-.7-1.9.9,0,1.8,0,2.1,0,.3,0,.4,0,.4-.3v-1.3h-5.1c.8.5,1.6,1.1,2,1.6l-1.3,1.3c-.6-.6-1.8-1.6-2.9-2.2l.7-.7h-3.6v-1.7h10.2v-.8h-8.5v-6.5h3.9v-.7h-5.3v-1.6h3.8c-.2-.4-.6-.8-.9-1.2l1.7-.7c.4.5,1,1.2,1.3,1.6l-.5.2h4.2c.3-.5.7-1.2.9-1.8l2.2.5c-.4.4-.7.8-1,1.2h3.6v1.6h-5.3v.7h4.2v6.5h-2.1v.8h3.7v1.7ZM533.2,102.3v1.2c1.3-.2,1.8-.7,1.9-1.2h-1.9ZM534.1,104.7c-.2-.4-.6-.9-.9-1.1v1.1h.9ZM533.2,106.4h8.8v-.6h-8.8v.6ZM536.9,102.3c-.2,1-.8,1.8-2.4,2.4h7.5v-.6h-2c-1.6,0-2-.3-2-1.5v-.3h-1.2ZM536.9,101.1h1.2v-.7h-1.2v.7ZM539.8,102.3v.3c0,.4,0,.4.5.4h1.3c.3,0,.4,0,.4-.1v-.6h-2.2Z"/>
    <path class="st47" d="M516.4,103.7c.6.7,2.1,2.5,2.5,2.9l-1.2,1.7c-.3-.6-.8-1.4-1.3-2.2v7.3h-2v-6.9c-.6,1.5-1.2,3-2,3.9-.2-.6-.6-1.4-1-2,1.1-1.4,2.2-3.8,2.7-5.8h-2.3v-2h2.5v-3.6h2v3.6h2.2v2h-2.2v1.1ZM527.4,98.1v15.1h-2.1v-.9h-4.1v1h-2v-15.2h8.2ZM521.2,100v2.2h4.1v-2.2h-4.1ZM521.2,104.1v2.2h4.1v-2.2h-4.1ZM525.3,110.4v-2.2h-4.1v2.2h4.1Z"/>
    <path class="st47" d="M510.1,111v2h-15.9v-2h9.7c.1-.7.2-1.5.4-2.3h-7.8c.7-2.3,1.5-6,2-8.9h-3.7v-2h14.9v2h-8.9c-.2.8-.3,1.5-.4,2.3h5.4c0,0,1.6.1,1.6.1-.3,2.5-.8,5.9-1.2,8.8h4.1ZM504.5,106.8c.1-1,.3-1.9.4-2.7h-5c-.2,1-.4,1.9-.6,2.7h5.3Z"/>
  </g>
  <g>
    <path class="st47" d="M498.6,121c1.7,0,3,.3,3.8.9.8.6,1.2,1.6,1.2,2.8s-.1,1.1-.3,1.5c-.2.4-.5.8-.9,1.1-.4.3-.7.5-1.1.7l3.7,5.4h-2.9l-3-4.8h-1.4v4.8h-2.6v-12.5h3.6ZM498.4,123.1h-.8v3.4h.9c.9,0,1.5-.1,1.9-.4.4-.3.6-.7.6-1.3s-.2-1-.6-1.3c-.4-.3-1-.4-1.9-.4Z"/>
    <path class="st47" d="M510.4,123.7c1.3,0,2.4.4,3.1,1.1s1.2,1.8,1.2,3.2v1.3h-6.2c0,.7.2,1.3.7,1.7.4.4,1,.6,1.7.6s1.2,0,1.7-.2c.5-.1,1-.3,1.6-.6v2c-.5.2-1,.4-1.5.5-.5.1-1.1.2-1.9.2s-1.8-.2-2.5-.5c-.7-.4-1.3-.9-1.7-1.6s-.6-1.6-.6-2.7.2-2,.6-2.8c.4-.7.9-1.3,1.6-1.7s1.5-.6,2.4-.6ZM510.4,125.6c-.5,0-.9.2-1.3.5s-.5.8-.6,1.5h3.7c0-.6-.2-1.1-.5-1.4-.3-.4-.8-.6-1.4-.6Z"/>
    <path class="st47" d="M523.7,130.6c0,1-.3,1.7-1,2.2s-1.7.8-3.1.8-1.2,0-1.7-.1c-.5,0-1-.2-1.4-.4v-2.2c.5.2,1.1.4,1.7.6.6.2,1.1.2,1.6.2s.9,0,1.1-.2c.2-.2.3-.4.3-.6s0-.3-.1-.4c0-.1-.3-.3-.6-.4-.3-.2-.7-.4-1.4-.6-.6-.3-1.1-.5-1.5-.8-.4-.3-.7-.6-.8-.9-.2-.4-.3-.8-.3-1.3,0-.9.3-1.6,1-2s1.6-.7,2.7-.7,1.2,0,1.7.2c.5.1,1.1.3,1.7.6l-.8,1.9c-.5-.2-.9-.4-1.3-.5-.4-.1-.8-.2-1.3-.2-.8,0-1.2.2-1.2.6s0,.3.1.4c0,.1.3.3.6.4.3.1.7.3,1.3.6.5.2,1,.5,1.4.7.4.2.7.5.9.9.2.4.3.8.3,1.4Z"/>
    <path class="st47" d="M531.2,123.7c1.1,0,1.9.4,2.6,1.3s1,2.1,1,3.7-.3,2.9-1,3.7-1.6,1.3-2.6,1.3-1.2-.1-1.6-.4c-.4-.3-.7-.5-1-.8h-.1c0,.5.1,1,.1,1.4v3.9h-2.6v-13.8h2.1l.4,1.2h.1c.3-.4.6-.7,1-1,.4-.3,1-.4,1.7-.4ZM530.3,125.8c-.7,0-1.2.2-1.4.6-.3.4-.4,1.1-.4,1.9v.3c0,.9.1,1.6.4,2.1.3.5.8.7,1.5.7s1-.2,1.3-.7c.3-.5.4-1.2.4-2.1,0-1.9-.6-2.8-1.8-2.8Z"/>
    <path class="st47" d="M541,123.7c1.3,0,2.4.4,3.1,1.1s1.2,1.8,1.2,3.2v1.3h-6.2c0,.7.2,1.3.7,1.7.4.4,1,.6,1.7.6s1.2,0,1.7-.2c.5-.1,1-.3,1.6-.6v2c-.5.2-1,.4-1.5.5-.5.1-1.1.2-1.9.2s-1.8-.2-2.5-.5c-.7-.4-1.3-.9-1.7-1.6s-.6-1.6-.6-2.7.2-2,.6-2.8c.4-.7.9-1.3,1.6-1.7s1.5-.6,2.4-.6ZM541.1,125.6c-.5,0-.9.2-1.3.5s-.5.8-.6,1.5h3.7c0-.6-.2-1.1-.5-1.4-.3-.4-.8-.6-1.4-.6Z"/>
    <path class="st47" d="M551.5,133.6c-1.4,0-2.5-.4-3.3-1.2-.8-.8-1.2-2-1.2-3.7s.2-2.1.6-2.9c.4-.7.9-1.3,1.7-1.6s1.5-.5,2.4-.5,1.2,0,1.7.2c.5.1.9.3,1.3.5l-.8,2c-.4-.2-.8-.3-1.1-.4s-.7-.2-1.1-.2c-1.4,0-2,1-2,2.9s.2,1.7.5,2.1c.4.5.9.7,1.5.7s1,0,1.5-.2c.4-.1.8-.3,1.2-.6v2.2c-.4.3-.8.4-1.3.6s-1,.2-1.7.2Z"/>
    <path class="st47" d="M560.8,131.5c.3,0,.6,0,.8,0,.3,0,.5-.1.8-.2v1.9c-.3.1-.6.2-1,.3-.4,0-.9.1-1.4.1s-1.1,0-1.5-.3c-.4-.2-.8-.5-1.1-1-.3-.5-.4-1.1-.4-1.9v-4.6h-1.2v-1.1l1.4-.9.8-2h1.7v2h2.7v2h-2.7v4.6c0,.4.1.6.3.8.2.2.5.3.8.3Z"/>
  </g>
  <g>
    <path d="M493.3,147.9c-.7,1.3-1.7,2.6-2.8,3.8.7,1.9,1.5,3,2.5,3s.7-.8.8-2.9c.2.1.4.3.7.4-.2,2.5-.5,3.3-1.5,3.3s-2.3-1.2-3-3.2c-1.1,1-2.3,1.9-3.5,2.5-.1-.2-.3-.4-.5-.6,1.4-.7,2.7-1.6,3.8-2.7-.4-1.3-.7-2.9-.9-4.7h-3.9v2.9l3-.7v.7c0,0-3,.7-3,.7v3.9c0,.6-.2.9-.6,1-.4.1-1.2.2-2.5.1,0-.2-.2-.5-.3-.8,1.1,0,2,0,2.2,0,.3,0,.4,0,.4-.4v-3.7c-1.3.3-2.5.6-3.5.8l-.3-.7c1-.2,2.3-.5,3.7-.8v-3.1h-3.5v-.7h3.5v-2.9c-1,.2-2.1.4-3.1.6,0-.2-.2-.4-.3-.6,2.2-.4,4.7-.9,6.2-1.5l.6.6c-.7.3-1.6.5-2.6.8v3.1h3.9c-.2-1.4-.2-3-.2-4.6h.8c0,1.6,0,3.2.2,4.6h4.7v.7h-4.7c.2,1.6.4,2.9.8,4.1.9-1,1.8-2.1,2.4-3.3l.7.3ZM493.1,144.9c-.5-.7-1.6-1.9-2.6-2.7l.6-.4c.9.8,2,1.9,2.6,2.6l-.6.5Z"/>
    <path d="M499.5,141.7c-.3,1.1-.7,2.3-1.2,3.3v10.4h-.7v-8.9c-.4.8-.9,1.6-1.3,2.2,0-.2-.3-.5-.5-.7,1.3-1.6,2.4-4.1,3-6.5l.7.2ZM500.6,144.3h.7v11.1h-.7v-11.1ZM501.8,141.4c.7.9,1.5,2.2,1.8,3l-.6.3c-.3-.8-1.1-2.1-1.8-3.1l.6-.3ZM509.3,154.3c0,.6-.2.8-.6,1-.4.1-1.2.1-2.4.1,0-.2-.2-.5-.3-.7,1,0,1.9,0,2.1,0,.3,0,.4,0,.4-.4v-11.6h-4.5v-.7h5.2v12.3Z"/>
    <path d="M514.4,141.4h.7v14h-.7v-5.9c-.9.9-1.9,1.8-2.6,2.6l-.5-.6c.8-.7,2-1.8,3.1-2.9v-7.3ZM513.6,146.5c-.4-.8-1.3-1.9-2.2-2.7l.5-.4c.9.8,1.8,1.9,2.2,2.6l-.6.5ZM525.2,149.7h-2v4.7c0,.5-.1.8-.5.9s-1.2.1-2.4.1c0-.2-.2-.5-.3-.7,1,0,1.9,0,2.2,0,.3,0,.3,0,.3-.3v-4.7h-6.5v-.7h6.5v-2.2h.7v2.2h2v.7ZM519.7,143.3c-.9.7-1.9,1.4-3,1.9-.1-.1-.3-.3-.5-.5,1.8-.8,3.5-2.1,4.4-3.4l.7.2c-.2.4-.5.7-.9,1h3.9s.5.2.5.2c-1.5,3-4.9,4.7-8.2,5.5,0-.2-.2-.5-.4-.6,1.3-.3,2.7-.7,3.9-1.4-.4-.5-1-1.2-1.6-1.7l.6-.3c.6.5,1.3,1.2,1.7,1.7,1.2-.7,2.3-1.6,2.9-2.7h-4.1ZM517.9,150.4c.9.8,1.8,2,2.2,2.8l-.6.4c-.4-.8-1.3-2-2.2-2.8l.6-.3Z"/>
    <path d="M529.1,147.1c-.3,1.7-.8,4.3-1.5,5.9l-.7-.3c.7-1.6,1.3-4,1.5-5.7l.7.2ZM531.5,145.6v7.9c0,.7.2.9,1.2.9h3.4c1.1,0,1.2-.6,1.3-3.4.2.1.5.3.7.3-.1,2.9-.4,3.8-2,3.8h-3.5c-1.5,0-1.9-.3-1.9-1.6v-7.9h.8ZM532,142.1c1.5,1.1,3.3,2.6,4.1,3.5l-.5.5c-.9-1-2.6-2.5-4.1-3.6l.5-.5ZM538.8,146.6c.9,1.9,1.8,4.3,2.2,5.9l-.7.2c-.3-1.6-1.2-4-2.1-5.9l.7-.2Z"/>
    <path d="M548.7,152.8c0,.2,0,.6,0,.7-4.3,1.3-4.8,1.5-5.1,1.7,0-.2-.2-.5-.4-.7.2-.1.5-.4.5-1v-12h.8v4.8h4v.7h-4v7l4.1-1.2ZM554.3,154.3c.9,0,1-.7,1.1-3.7.2.2.5.3.7.4-.1,3-.3,4-1.8,4h-2.6c-1.3,0-1.6-.3-1.6-1.8v-11.8h.7v6c1.6-.8,3.3-1.9,4.2-2.9l.7.6c-1.3,1.1-3.1,2.1-4.9,3v5.1c0,.9.2,1,.9,1h2.5Z"/>
    <path d="M560.1,147.1c-.3,1.7-.8,4.3-1.5,5.9l-.7-.3c.7-1.6,1.3-4,1.5-5.7l.7.2ZM562.5,145.6v7.9c0,.7.2.9,1.2.9h3.4c1.1,0,1.2-.6,1.3-3.4.2.1.5.3.7.3-.1,2.9-.4,3.8-2,3.8h-3.5c-1.5,0-1.9-.3-1.9-1.6v-7.9h.8ZM563,142.1c1.5,1.1,3.3,2.6,4.1,3.5l-.5.5c-.9-1-2.6-2.5-4.1-3.6l.5-.5ZM569.8,146.6c.9,1.9,1.8,4.3,2.2,5.9l-.7.2c-.3-1.6-1.2-4-2.1-5.9l.7-.2Z"/>
    <path d="M574.4,155.1c1.2-.6,1.9-1.3,1.9-2.5-.1,0-.2,0-.3,0-.6,0-1-.3-1-.9s.4-.9,1-.9c.7,0,1.1.6,1.1,1.6,0,1.6-1,2.8-2.4,3.4l-.3-.6Z"/>
  </g>
  <g>
    <path d="M552.3,159.4c0,.5,0,1.2,0,2.1.2,1.6,1.1,8.6,6.7,11.1-.2.2-.4.4-.5.6-4.3-2-5.8-6.5-6.5-9.4-.6,3.3-2.2,7.3-6.4,9.5-.1-.2-.4-.4-.6-.5,6.5-3.2,6.6-11.1,6.6-13.3h.8Z"/>
    <path d="M533.7,159.6c-.5,1.2-1,2.3-1.7,3.4v10.4h-.7v-9.3c-.6.9-1.2,1.7-1.9,2.3,0-.2-.3-.5-.4-.7,1.6-1.6,3.1-4,4-6.4l.7.2ZM541.4,172.5c1,0,1.1-.5,1.3-2.3.2.1.5.3.7.3-.2,2-.4,2.7-2,2.7h-4.4c-1.6,0-2.1-.3-2.1-1.8v-5.5l-1.7.7-.3-.7,2-.8v-4.3h.7v4.1l2.7-1.1v-4.4h.7v4.2l2.9-1.1h.1c0,0,.2-.2.2-.2l.5.2v.2c0,2.9,0,5.3-.3,6-.1.7-.5.9-.9.9-.4,0-1.1,0-1.5,0,0-.2-.1-.5-.2-.7.5,0,1.1,0,1.3,0,.3,0,.5,0,.6-.5.2-.5.2-2.6.2-5.1l-2.9,1.1v5.8h-.7v-5.5l-2.7,1.1v5.8c0,.9.2,1.1,1.4,1.1h4.5Z"/>
    <path d="M518.1,163.1c-.4.6-.8,1.3-1.2,1.9v8.5h-.7v-7.6c-.6.8-1.3,1.5-2,2,0-.2-.3-.5-.5-.7,1.4-1.1,2.9-2.7,3.8-4.4l.7.2ZM518,159.7c-.9,1.3-2.3,2.7-3.6,3.6,0-.2-.3-.4-.4-.6,1.2-.8,2.6-2.1,3.3-3.3l.7.2ZM525.6,165.2v2h2.2v.7h-2.2v4.4c0,.6-.1.8-.5.9-.4.1-1.2.1-2.4.1,0-.2-.2-.5-.3-.7,1,0,1.9,0,2.2,0,.2,0,.3,0,.3-.3v-4.4h-6.5v-.7h6.5v-2h-6.7v-.7h4.5v-2.3h-3.6v-.7h3.6v-2.1h.7v2.1h3.7v.7h-3.7v2.3h4.5v.7h-2.3ZM520.4,168.6c.8.8,1.6,2,1.9,2.7l-.6.4c-.3-.7-1.1-1.9-1.9-2.7l.6-.4Z"/>
    <path d="M512.2,167.5v.7h-13.7v-.7h3.4c-.2-.5-.6-1.1-1-1.5l.6-.2c.4.5.9,1.1,1.1,1.6l-.4.2h2.7v-1.8h-6v-.6h6v-1.3h-4.7v-.6h4.7v-1.3h-5.6v-.6h3.2c-.2-.4-.6-1.1-1-1.5l.6-.2c.4.4.9,1.1,1.1,1.5l-.5.2h4.5c.4-.5.8-1.3,1.1-1.8l.7.2c-.3.5-.7,1.1-1,1.5h3.3v.6h-5.7v1.3h4.8v.6h-4.8v1.3h6.2v.6h-6.2v1.8h2.3c.4-.5.8-1.3,1-1.8l.7.2c-.3.5-.7,1.1-.9,1.5h3.4ZM500.7,169.3h9.6v4.1h-.7v-.5h-8.1v.6h-.7v-4.1ZM501.4,169.9v2.3h8.1v-2.3h-8.1Z"/>
  </g>
  <g>
    <path class="st47" d="M454.1,70.9c17.2,0,31.2-14,31.2-31.2s-14-31.2-31.2-31.2-31.2,14-31.2,31.2,14,31.2,31.2,31.2"/>
    <path class="st53" d="M461.2,25.9c-5.1-.5-7.8,2.9-9,6.6h-.1c.4-2.1-.8-4.9-2.1-5.5-1.7-.9-2.9-.5-2.9-.5v22.5c0,2,1.5,4.7,3.8,4.7h2.1v-11c0-8.1,2.6-11.9,8-10.9l.3-5.7Z"/>
    <path class="st23" d="M458.2,78.2c18.8-2,33.6-17.4,34.6-36.5"/>
    <path class="st23" d="M492.6,35.6c-2-18.8-17.4-33.6-36.5-34.6"/>
    <path class="st23" d="M450.1,1.2c-18.8,2-33.6,17.4-34.6,36.5"/>
    <path class="st23" d="M415.6,43.7c2,18.8,17.4,33.6,36.5,34.6"/>
    <path class="st33" d="M454.1,78.4h0M415.4,39.7h0M454.1,1h0M492.8,39.7h0"/>
    <path class="st11" d="M603.2,227.2V49c0-6.1-5.2-11.1-11.5-11.1h-89.6"/>
    <line class="st27" x1="454.3" y1="91.9" x2="454.3" y2="253.9"/>
    <path class="st21" d="M455.1,260.1c1.4,3.4,4.4,5.9,8,6.6"/>
    <line class="st41" x1="469.2" y1="267" x2="561.5" y2="267"/>
    <path class="st33" d="M563.4,267h0M465.2,267h0M454.3,255.9h0M454.3,87.9h0"/>
    <path class="st53" d="M810.4,236.9c16.6,0,30.1,13.5,30.1,30.1s-13.5,30.1-30.1,30.1-30.1-13.5-30.1-30.1,13.5-30.1,30.1-30.1"/>
    <path class="st16" d="M810.4,236.9c16.6,0,30.1,13.5,30.1,30.1s-13.5,30.1-30.1,30.1-30.1-13.5-30.1-30.1,13.5-30.1,30.1-30.1"/>
  </g>
  <polygon class="st53" points="812.3 272.4 815.5 270.2 817.5 272.4 822.5 267.5 825.1 269.9 817.8 278 812.3 272.4"/>
  <g>
    <path class="st52" d="M806.1,254.8c0,.7-.4,1.2-1,1.2s-1-.6-1-1.2.4-1.2,1-1.2,1,.6,1,1.2"/>
    <path class="st52" d="M814.9,254.8c0,.7-.4,1.2-1,1.2s-1-.6-1-1.2.4-1.2,1-1.2,1,.6,1,1.2"/>
    <path class="st52" d="M814.1,253.8c0,3-2,5.9-4.5,5.9s-4.5-2.8-4.5-5.9,2-5.5,4.5-5.5,4.5,2.5,4.5,5.5"/>
    <path class="st0" d="M810.3,274.9h0v-10.6l1.2-.3c3.2-.7,5.8-.9,6.8-.9-.7-2.4-2.9-4.1-5.5-4.1-.9,1-2,1.6-3.2,1.6s-2.3-.6-3.2-1.6c-3.1,0-5.7,2.6-5.7,5.7v18.2h15.8c-5.7-3.7-6.1-7.8-6.1-8"/>
    <path d="M805,254.4s.8-1.2,1.3-2.2c1.7.3,5,.4,6.5-.1.4.8.7,1.7,1.1,2,.4-.6.9-6.6-4.1-6.9-4.1-.2-5.5,2.8-4.7,7.2"/>
    <path class="st46" d="M819.3,275.3h0s-1.8,1.8-1.8,1.8h0s0,0,0,0l-1.8-1.8h0s-2.5-2.5-2.5-2.5l1.8-1.8,2.5,2.5,5.1-5.1,1.8,1.8-5.1,5.1ZM825.7,264.6c-3.9-.9-6.9-.9-7.1-.9h0c-.1,0-3.2,0-7.1.9l-.8.2v10.1h0c0,.2.4,4.8,7.4,8.6l.5.3.5-.3c6.9-3.7,7.4-8.3,7.4-8.5h0v-10.2l-.8-.2Z"/>
    <path class="st57" d="M819.3,275.3h0s-1.8,1.8-1.8,1.8h0s0,0,0,0l-1.8-1.8h0s-2.5-2.5-2.5-2.5l1.8-1.8,2.5,2.5,5.1-5.1,1.8,1.8-5.1,5.1ZM818.6,264.7s-3,0-6.9.9v9.3s.3,4.2,6.9,7.7c6.5-3.5,6.9-7.7,6.9-7.7v-9.3c-3.8-.8-6.9-.9-6.9-.9"/>
  </g>
  <g>
    <path class="st45" d="M709.1,108c.2.6.5,1.4.8,1.8-2.9,2.4-3.5,2.9-3.8,3.4-.2-.5-.7-1.5-1.1-1.9.4-.3.9-.9.9-1.7v-5.1h-2v-2h4v6.4l1.1-.9ZM707.3,101.5c-.5-.8-1.7-2.1-2.6-3l1.4-1.2c.9.8,2.1,2.1,2.7,2.9l-1.5,1.3ZM720.2,107.8h-2v5.7h-2.1v-5.7h-2.3c-.3,2.2-1,4.3-2.8,5.6-.3-.4-1.1-1.1-1.6-1.3,1.4-1.1,2-2.6,2.3-4.3h-2.3v-2.1h2.5v-3.3h-2.2v-2.1h2.2v-3.3h2.1v3.3h2.2v-3.3h2.1v3.3h1.8v2.1h-1.8v3.3h2v2.1ZM716,105.7v-3.3h-2.2v3.3h2.2Z"/>
    <path class="st45" d="M737.1,103.5c-1,1.1-2.3,2.4-3.3,3.3,1.2,1.3,2.7,2.5,4.3,3.2-.5.4-1.2,1.3-1.5,1.9-2.4-1.3-4.3-3.3-5.7-5.8v4.8c0,1.2-.2,1.8-1,2.2-.7.4-1.9.4-3.4.4,0-.6-.4-1.6-.7-2.2,1,0,2.2,0,2.5,0s.5-.1.5-.4v-2.7c-2,1.3-4.1,2.6-5.8,3.6l-1.3-1.9c1.7-.9,4.5-2.4,7.1-3.9v-4.2h-6.6v-2h6.6v-2.6h2.1v2.6h3.5c-.7-.5-1.6-1-2.4-1.4l1.2-1.3c1,.5,2.5,1.3,3.2,1.8l-.8.9h1.9v2h-6.7v.2c.5,1.2,1,2.3,1.8,3.4.9-.9,2-2.1,2.6-3.1l1.8,1.3ZM725.5,106.8c-.5-1-1.7-2.3-2.8-3.3l1.6-1.1c1,.9,2.3,2.2,2.9,3.2l-1.7,1.3Z"/>
    <path class="st45" d="M755.6,103.6c-.5,2.3-1.3,4.2-2.4,5.9.3,1.2.6,2,.9,2s.4-.8.4-2.5c.4.4,1,.9,1.4,1.1-.3,2.6-.8,3.3-2.1,3.3s-1.5-.8-2-2c-.7.8-1.5,1.5-2.4,2.1-.3-.4-.9-.9-1.3-1.2,1.2-.8,2.2-1.8,3.1-3-.5-2.1-.7-4.8-.9-7.6h-3.3v1.9h3.1v.7c0,4-.1,5.6-.5,6.1-.3.4-.6.5-1,.6-.3,0-.9,0-1.5,0,0-.5-.2-1.2-.4-1.7-.2,1.6-.6,3.1-1.3,4.3-.3-.3-1.2-1.1-1.6-1.3.2-.5.4-1,.6-1.6-2.2,1.9-2.7,2.3-2.9,2.7-.2-.4-.7-1.1-1-1.4.3-.3.8-1,.8-1.9v-5.7h-1.9v-2h3.8v6.9l1.1-.9c0,.3.2.7.4,1.1.3-1.8.4-3.6.4-5.1v-4.7h5.3c0-.8,0-1.6,0-2.5h1.9c0,.8,0,1.7,0,2.5h1.5c-.3-.5-.8-1.3-1.3-1.9l1.4-.7c.5.5,1.2,1.3,1.4,1.9l-1.3.7h1.7v1.9h-3.4c0,1.8.2,3.5.4,4.9.5-1.1.8-2.3,1.1-3.6l1.8.7ZM743.1,101.6c-.6-.8-1.9-2-2.9-2.9l1.3-1.3c1,.8,2.4,2,3,2.7l-1.4,1.5ZM747,105.1c0,1.2-.1,2.7-.3,4.1.4,0,.7,0,.9,0,.2,0,.3,0,.4-.2.2-.3.2-1.2.3-4h-1.3Z"/>
    <path class="st45" d="M762.5,97.7c-.4,1-.8,2.1-1.3,3.1v12.7h-1.9v-9.4c-.4.6-.9,1.2-1.3,1.7-.2-.5-.7-1.6-1.1-2,1.5-1.6,2.9-4.1,3.7-6.5l1.9.6ZM773.3,99.8v1.7h-11.3v-1.7h5c-.3-.6-.7-1.5-1.1-2.1l1.8-.7c.5.7,1,1.7,1.3,2.3l-1,.4h5.3ZM763,107.6h9.3v5.8h-1.8v-.5h-5.7v.5h-1.8v-5.8ZM772.1,104.1h-8.8v-1.6h8.8v1.6ZM763.3,105h8.8v1.6h-8.8v-1.6ZM764.8,109.3v2h5.7v-2h-5.7Z"/>
  </g>
  <g>
    <path class="st45" d="M702.3,133.5h-5.7v-1.5l1.5-.7v-8.1l-1.5-.7v-1.5h5.7v1.5l-1.5.7v8.1l1.5.7v1.5Z"/>
    <path class="st45" d="M709.8,123.7c1,0,1.8.3,2.5.8.6.6.9,1.4.9,2.7v6.2h-2.6v-5.6c0-.7-.1-1.2-.4-1.5-.2-.3-.6-.5-1.2-.5-.8,0-1.3.3-1.6.8-.3.5-.4,1.3-.4,2.3v4.5h-2.6v-9.6h2l.3,1.2h.1c.3-.5.7-.8,1.3-1.1.5-.2,1.1-.3,1.7-.3Z"/>
    <path class="st45" d="M720.1,131.5c.3,0,.6,0,.8,0,.3,0,.5-.1.8-.2v1.9c-.3.1-.6.2-1,.3-.4,0-.9.1-1.4.1s-1.1,0-1.5-.3-.8-.5-1.1-1c-.3-.5-.4-1.1-.4-1.9v-4.6h-1.2v-1.1l1.4-.9.8-2h1.7v2h2.7v2h-2.7v4.6c0,.4.1.6.3.8.2.2.5.3.8.3Z"/>
    <path class="st45" d="M727.8,123.7c1.3,0,2.4.4,3.1,1.1.8.8,1.2,1.8,1.2,3.2v1.3h-6.2c0,.7.2,1.3.7,1.7s1,.6,1.7.6,1.2,0,1.7-.2c.5-.1,1-.3,1.6-.6v2c-.5.2-1,.4-1.5.5-.5.1-1.1.2-1.9.2s-1.8-.2-2.5-.5c-.7-.4-1.3-.9-1.7-1.6-.4-.7-.6-1.6-.6-2.7s.2-2,.6-2.8c.4-.7.9-1.3,1.6-1.7.7-.4,1.5-.6,2.4-.6ZM727.8,125.6c-.5,0-.9.2-1.3.5-.3.3-.5.8-.6,1.5h3.7c0-.6-.2-1.1-.5-1.4-.3-.4-.7-.6-1.4-.6Z"/>
    <path class="st45" d="M737.5,123.7c1.2,0,2.1.5,2.8,1.4h0l.2-1.2h2.2v9.6c0,1.4-.4,2.4-1.2,3.1s-2,1.1-3.6,1.1-1.3,0-1.9-.1c-.6,0-1.1-.2-1.7-.4v-2.1c1.2.5,2.4.7,3.7.7s2-.7,2-2.2v-.2c0-.2,0-.4,0-.6,0-.2,0-.4,0-.6h0c-.3.5-.7.9-1.2,1.1-.5.2-1,.3-1.5.3-1.1,0-2-.4-2.7-1.3-.6-.9-1-2.1-1-3.6s.3-2.8,1-3.7,1.6-1.3,2.7-1.3ZM738.3,125.8c-1.2,0-1.8,1-1.8,2.9s.6,2.9,1.9,2.9,1.2-.2,1.5-.6c.3-.4.5-1,.5-2v-.3c0-1-.2-1.8-.5-2.2-.3-.4-.8-.7-1.5-.7Z"/>
    <path class="st45" d="M750.9,123.7c.1,0,.3,0,.5,0s.3,0,.4,0l-.2,2.5c0,0-.2,0-.4,0-.2,0-.3,0-.4,0-.4,0-.9,0-1.3.2-.4.2-.7.4-1,.8-.3.3-.4.8-.4,1.4v4.9h-2.6v-9.6h2l.4,1.6h.1c.3-.5.7-.9,1.2-1.3s1.1-.5,1.7-.5Z"/>
    <path class="st45" d="M755,120.2c.4,0,.7,0,1,.3.3.2.4.5.4,1s-.1.8-.4,1-.6.3-1,.3-.7,0-1-.3c-.3-.2-.4-.5-.4-1s.1-.8.4-1c.3-.2.6-.3,1-.3ZM756.3,123.9v9.6h-2.6v-9.6h2.6Z"/>
    <path class="st45" d="M763.2,131.5c.3,0,.6,0,.8,0,.3,0,.5-.1.8-.2v1.9c-.3.1-.6.2-1,.3-.4,0-.9.1-1.4.1s-1.1,0-1.5-.3-.8-.5-1.1-1c-.3-.5-.4-1.1-.4-1.9v-4.6h-1.2v-1.1l1.4-.9.8-2h1.7v2h2.7v2h-2.7v4.6c0,.4.1.6.3.8.2.2.5.3.8.3Z"/>
    <path class="st45" d="M765.6,123.9h2.9l1.8,5.4c0,.3.2.5.2.8,0,.3,0,.6.1.9h0c0-.3,0-.6.1-.9,0-.3.1-.5.2-.8l1.8-5.4h2.8l-4,10.8c-.4,1-.9,1.7-1.6,2.2-.7.5-1.5.7-2.4.7s-.6,0-.8,0c-.2,0-.4,0-.6,0v-2.1c.1,0,.3,0,.5,0s.4,0,.6,0c.5,0,1-.2,1.3-.5.3-.3.6-.7.7-1.2l.2-.5-3.8-9.5Z"/>
  </g>
  <g>
    <path d="M711,147.9c-.7,1.3-1.7,2.6-2.8,3.8.7,1.9,1.5,3,2.5,3s.7-.8.8-2.9c.2.1.4.3.7.4-.2,2.5-.5,3.3-1.5,3.3s-2.3-1.2-3-3.2c-1.1,1-2.3,1.9-3.5,2.5-.1-.2-.3-.4-.5-.6,1.4-.7,2.7-1.6,3.8-2.7-.4-1.3-.7-2.9-.9-4.7h-3.9v2.9l3-.7v.7c0,0-3,.7-3,.7v3.9c0,.6-.2.9-.6,1-.4.1-1.2.2-2.5.1,0-.2-.2-.5-.3-.8,1.1,0,2,0,2.2,0,.3,0,.4,0,.4-.4v-3.7c-1.3.3-2.5.6-3.5.8l-.3-.7c1-.2,2.3-.5,3.7-.8v-3.1h-3.5v-.7h3.5v-2.9c-1,.2-2.1.4-3.1.6,0-.2-.2-.4-.3-.6,2.2-.4,4.7-.9,6.2-1.5l.6.6c-.7.3-1.6.5-2.6.8v3.1h3.9c-.2-1.4-.2-3-.2-4.6h.8c0,1.6,0,3.2.2,4.6h4.7v.7h-4.7c.2,1.6.4,2.9.8,4.1.9-1,1.8-2.1,2.4-3.3l.7.3ZM710.7,144.9c-.5-.7-1.6-1.9-2.6-2.7l.6-.4c.9.8,2,1.9,2.6,2.6l-.6.5Z"/>
    <path d="M717.2,141.7c-.3,1.1-.7,2.3-1.2,3.3v10.4h-.7v-8.9c-.4.8-.9,1.6-1.3,2.2,0-.2-.3-.5-.5-.7,1.3-1.6,2.4-4.1,3-6.5l.7.2ZM718.2,144.3h.7v11.1h-.7v-11.1ZM719.5,141.4c.7.9,1.5,2.2,1.8,3l-.6.3c-.3-.8-1.1-2.1-1.8-3.1l.6-.3ZM726.9,154.3c0,.6-.2.8-.6,1-.4.1-1.2.1-2.4.1,0-.2-.2-.5-.3-.7,1,0,1.9,0,2.1,0,.3,0,.4,0,.4-.4v-11.6h-4.5v-.7h5.2v12.3Z"/>
    <path d="M733.5,152c0,.2.2.5.3.6-2.1,1.7-2.5,2-2.7,2.3,0,0,0,0,0,0h0s0,0,0,0h0c0-.2-.3-.4-.4-.5.2-.2.8-.7.8-1.5v-6h-2.3v-.7h3v6.9l1.5-1.1ZM732.5,144.9c-.5-.7-1.6-1.8-2.5-2.6l.5-.5c.9.8,2,1.8,2.6,2.5l-.5.6ZM742.6,146.7c-.5,2.1-1.2,4-2.2,5.6.5,1.4,1,2.3,1.5,2.3s.5-.7.5-2.4c.2.2.4.3.6.4-.1,2.1-.4,2.8-1.2,2.8s-1.4-.8-1.9-2.2c-.6.9-1.3,1.7-2.1,2.3-.1-.1-.4-.3-.5-.4.9-.7,1.6-1.6,2.3-2.7-.6-1.8-1-4.4-1.2-7.3h-3.5v2.4h2.9v.4c0,3.9-.2,5.1-.5,5.5-.2.2-.4.3-.7.3-.3,0-.9,0-1.4,0,0-.2,0-.5-.2-.7.6,0,1.1,0,1.3,0s.3,0,.4-.2c.2-.3.3-1.4.4-4.8h-2.2v.4c0,2.1-.2,5-1.3,7.1-.1-.2-.4-.4-.6-.5,1.1-2,1.2-4.6,1.2-6.6v-4.2h4.2c0-.9,0-1.8-.1-2.8h.7c0,.9,0,1.9,0,2.8h3.9v.7h-3.9c.2,2.6.5,4.8,1,6.5.8-1.4,1.4-3.1,1.7-4.9l.7.2ZM741.8,143.7c-.4-.5-1.1-1.2-1.7-1.7l.5-.3c.6.5,1.4,1.2,1.7,1.7l-.5.4Z"/>
    <path d="M758.2,150.5v.7h-6.6c-.9,2.1-2.6,3.4-6.1,4.2,0-.2-.3-.5-.4-.6,3.2-.7,4.9-1.8,5.7-3.5h-5.8v-.7h6.1c.5-1.5.6-3.3.7-5.6h.8c0,2.2-.2,4.1-.7,5.6h6.3ZM746,146.2h-.7v-2.9h6.2c-.2-.5-.6-1.2-1-1.8l.7-.2c.4.6.9,1.5,1.1,2h5.3v2.9h-.8v-2.2h-10.9v2.2ZM746.5,147.5c.9.5,2,1.3,2.5,1.8l-.5.6c-.5-.6-1.6-1.4-2.5-1.9l.4-.5ZM749.9,147.4c-.5-.5-1.5-1.3-2.3-1.8l.5-.5c.8.5,1.8,1.2,2.3,1.8l-.5.5ZM752.5,151.7c2.1.9,4.3,2,5.6,3l-.5.6c-1.3-1-3.3-2.2-5.5-3.1l.4-.5Z"/>
    <path d="M762.8,150.9c.6-.3,1.3-.6,2-.8v.7c-1.5.7-3.3,1.5-4.6,2.1l-.3-.7c.6-.2,1.4-.5,2.2-.9v-5.3h-2.1v-.7h2.1v-3.6h.7v3.6h2v.7h-2v5ZM772.2,154.4c.9,0,1.1-.5,1.2-2.4.2.1.5.3.7.3-.1,2.1-.4,2.7-1.9,2.7h-4.1c-1.6,0-2-.3-2-1.8v-5.4l-1.5.6-.3-.7,1.8-.8v-4.3h.7v4l2.6-1.1v-4.4h.7v4.1l2.5-1.1.2-.2h.2c0-.1.5,0,.5,0v.2c0,2.9,0,5.5-.2,6-.1.6-.4.8-.9.9-.4,0-1,0-1.3,0,0-.2-.1-.5-.2-.7.4,0,1,0,1.2,0s.4,0,.5-.5c.1-.4.2-2.6.2-5.2l-2.7,1.1v5.8h-.7v-5.6l-2.6,1.1v5.7c0,.8.2,1,1.3,1h4.2Z"/>
  </g>
  <g>
    <path d="M708.9,161.3c-.4,2.4-1,4.5-1.9,6.2.7,1.2,1.4,2.3,1.8,3.2l-.6.5c-.4-.8-.9-1.8-1.6-2.9-.9,1.7-2.1,3-3.3,3.9-.1-.2-.4-.5-.5-.6,1.2-.8,2.4-2.2,3.3-4-.9-1.4-1.9-2.9-2.8-4.1l.5-.4c.9,1.1,1.8,2.4,2.6,3.7.7-1.4,1.2-3.1,1.5-4.9h-4.9v-.7h5.3s.5.1.5.1ZM717,163.6h-2v8.6c0,.6-.2.8-.6,1-.4.1-1.1.2-2.4.1,0-.2-.2-.5-.3-.7,1.1,0,1.9,0,2.2,0,.2,0,.4,0,.4-.4v-8.6h-4.7v-.7h4.7v-3.5h.7v3.5h2v.7ZM712.1,169.6c-.2-1-1-2.6-1.8-3.8l.6-.3c.8,1.2,1.6,2.7,1.9,3.8l-.7.3Z"/>
    <path d="M722.8,163.1c-.4.6-.8,1.3-1.2,1.9v8.5h-.7v-7.6c-.6.8-1.3,1.5-2,2,0-.2-.3-.5-.5-.7,1.4-1.1,2.9-2.7,3.8-4.4l.7.2ZM722.6,159.7c-.9,1.3-2.3,2.7-3.6,3.6,0-.2-.3-.4-.4-.6,1.2-.8,2.6-2.1,3.3-3.3l.7.2ZM730.2,165.2v2h2.2v.7h-2.2v4.4c0,.6-.1.8-.5.9-.4.1-1.2.1-2.4.1,0-.2-.2-.5-.3-.7,1,0,1.9,0,2.2,0,.2,0,.3,0,.3-.3v-4.4h-6.5v-.7h6.5v-2h-6.7v-.7h4.5v-2.3h-3.6v-.7h3.6v-2.1h.7v2.1h3.7v.7h-3.7v2.3h4.5v.7h-2.3ZM725,168.6c.8.8,1.6,2,1.9,2.7l-.6.4c-.3-.7-1.1-1.9-1.9-2.7l.6-.4Z"/>
    <path d="M746.3,161.5v11.8h-.8v-.8h-8.8v.9h-.7v-11.9h3.9c.3-.7.6-1.6.7-2.2h.8c-.2.8-.5,1.6-.8,2.2h5.7ZM736.7,162.3v2.7h8.8v-2.7h-8.8ZM736.7,165.7v2.7h8.8v-2.7h-8.8ZM745.5,171.8v-2.7h-8.8v2.7h8.8Z"/>
    <path d="M760.6,172.3c1.7,0,2-.5,2.2-2.9.2.1.5.3.8.3-.2,2.7-.6,3.4-3,3.4h-6.4c-2.2,0-3-.3-3-1.8v-5.9h9.5v-4.3h-9.7v-.8h10.4v6.9h-.8v-1h-8.7v5.2c0,.8.4,1,2.1,1h6.5Z"/>
    <path d="M768.7,173c-1-1.3-2.4-2.6-3.5-3.5l.6-.6c1.1.9,2.5,2.2,3.6,3.5l-.7.6Z"/>
  </g>
  <g>
    <path d="M708.1,183.9c-.7,1.3-1.7,2.6-2.8,3.8.7,1.9,1.5,3,2.5,3s.7-.8.8-2.9c.2.1.4.3.7.4-.2,2.5-.5,3.3-1.5,3.3s-2.3-1.2-3-3.2c-1.1,1-2.3,1.9-3.5,2.5-.1-.2-.3-.4-.5-.6,1.4-.7,2.7-1.6,3.8-2.7-.4-1.3-.7-2.9-.9-4.7h-3.9v2.9l3-.7v.7c0,0-3,.7-3,.7v3.9c0,.6-.2.9-.6,1-.4.1-1.2.2-2.5.1,0-.2-.2-.5-.3-.8,1.1,0,2,0,2.2,0,.3,0,.4,0,.4-.4v-3.7c-1.3.3-2.5.6-3.5.8l-.3-.7c1-.2,2.3-.5,3.7-.8v-3.1h-3.5v-.7h3.5v-2.9c-1,.2-2.1.4-3.1.6,0-.2-.2-.4-.3-.6,2.2-.4,4.7-.9,6.2-1.5l.6.6c-.7.3-1.6.5-2.6.8v3.1h3.9c-.2-1.4-.2-3-.2-4.6h.8c0,1.6,0,3.2.2,4.6h4.7v.7h-4.7c.2,1.6.4,2.9.8,4.1.9-1,1.8-2.1,2.4-3.3l.7.3ZM707.8,180.9c-.5-.7-1.6-1.9-2.6-2.7l.6-.4c.9.8,2,1.9,2.6,2.6l-.6.5Z"/>
    <path d="M714.3,177.6c-.3,1.1-.7,2.3-1.2,3.3v10.4h-.7v-8.9c-.4.8-.9,1.5-1.3,2.2,0-.2-.3-.5-.5-.7,1.3-1.6,2.4-4.1,3-6.5l.7.2ZM715.3,180.3h.7v11.1h-.7v-11.1ZM716.6,177.4c.7.9,1.5,2.2,1.8,3l-.6.3c-.3-.8-1.1-2.1-1.8-3.1l.6-.3ZM724,190.3c0,.6-.2.8-.6,1-.4.1-1.2.1-2.4.1,0-.2-.2-.5-.3-.7,1,0,1.9,0,2.1,0,.3,0,.4,0,.4-.4v-11.6h-4.5v-.7h5.2v12.3Z"/>
    <path d="M730.1,177.5c-.3.8-.6,1.7-.8,2.3h2.7v9.9h-4.4v1.3h-.7v-11.2h1.7c.3-.7.6-1.8.7-2.5l.8.2ZM731.2,180.5h-3.7v3.7h3.7v-3.7ZM731.2,189.1v-4.2h-3.7v4.2h3.7ZM739.6,180.3c-.3,7.2-.5,9.5-1.1,10.3-.3.3-.6.4-1.1.5-.5,0-1.4,0-2.2,0,0-.2-.1-.5-.2-.7,1,0,1.9,0,2.3,0s.5,0,.7-.2c.5-.6.8-3,1-9.6h-4.3c-.4,1.1-1,2.1-1.5,2.9-.1-.1-.4-.3-.6-.4,1.1-1.4,1.9-3.6,2.4-5.8l.7.2c-.2.8-.4,1.6-.7,2.4h4.8v.4ZM736.5,187.2c-.5-.9-1.6-2.5-2.5-3.6l.6-.3c.9,1.1,2,2.6,2.5,3.5l-.6.4Z"/>
    <path d="M755.6,186.9h-1.6v2.8h-.7v-.7h-4.3v1.4c0,.6-.2.8-.6,1-.4.1-1.2.1-2.5.1,0-.2-.2-.5-.3-.7,1,0,2,0,2.2,0,.3,0,.4,0,.4-.4v-1.4h-5.2v-.6h5.2v-1.4h-6.5v-.7h6.5v-1.3h-5v-.6h5v-1.3h-4.6v-2.5h4.6v-1.1h-6.2v-.7h6.2v-1.4h.7v1.4h6.4v.7h-6.4v1.1h4.8v2.5h-4.8v1.3h5v2h1.6v.7ZM748.2,182.4v-1.3h-3.8v1.3h3.8ZM748.9,181.1v1.3h4v-1.3h-4ZM748.9,186.3h4.3v-1.3h-4.3v1.3ZM753.2,186.9h-4.3v1.4h4.3v-1.4Z"/>
    <path d="M770.9,189.8v.7h-13.5v-.7h4.5v-12.3h.8v12.3h2.9v-12.2h.7v12.2h4.5ZM760.1,186.5c-.4-1.3-1.4-3.6-2.3-5.2l.7-.2c.9,1.6,1.9,3.8,2.3,5.1l-.7.3ZM770.4,181.5c-.8,1.7-1.9,3.8-2.8,5.2l-.6-.3c.9-1.4,2-3.6,2.7-5.2l.7.3Z"/>
    <path d="M776.3,191c-1-1.3-2.4-2.6-3.5-3.5l.6-.6c1.1.9,2.5,2.2,3.5,3.5l-.7.6Z"/>
  </g>
  <g>
    <path d="M711.2,201.9c-.7,1.3-1.7,2.6-2.8,3.8.7,1.9,1.5,3,2.5,3s.7-.8.8-2.9c.2.1.4.3.7.4-.2,2.5-.5,3.3-1.5,3.3s-2.3-1.2-3-3.2c-1.1,1-2.3,1.9-3.5,2.5-.1-.2-.3-.4-.5-.6,1.4-.7,2.7-1.6,3.8-2.7-.4-1.3-.7-2.9-.9-4.7h-3.9v2.9l3-.7v.7c0,0-3,.7-3,.7v3.9c0,.6-.2.9-.6,1-.4.1-1.2.2-2.5.1,0-.2-.2-.5-.3-.8,1.1,0,2,0,2.2,0,.3,0,.4,0,.4-.4v-3.7c-1.3.3-2.5.6-3.5.8l-.3-.7c1-.2,2.3-.5,3.7-.8v-3.1h-3.5v-.7h3.5v-2.9c-1,.2-2.1.4-3.1.6,0-.2-.2-.4-.3-.6,2.2-.4,4.7-.9,6.2-1.5l.6.6c-.7.3-1.6.5-2.6.8v3.1h3.9c-.2-1.4-.2-3-.2-4.6h.8c0,1.6,0,3.2.2,4.6h4.7v.7h-4.7c.2,1.6.4,2.9.8,4.1.9-1,1.8-2.1,2.4-3.3l.7.3ZM711,198.9c-.5-.7-1.6-1.9-2.6-2.7l.6-.4c.9.8,2,1.9,2.6,2.6l-.6.5Z"/>
    <path d="M717.4,195.6c-.3,1.1-.7,2.3-1.2,3.3v10.4h-.7v-8.9c-.4.8-.9,1.5-1.3,2.2,0-.2-.3-.5-.5-.7,1.3-1.6,2.4-4.1,3-6.5l.7.2ZM718.5,198.3h.7v11.1h-.7v-11.1ZM719.7,195.4c.7.9,1.5,2.2,1.8,3l-.6.3c-.3-.8-1.1-2.1-1.8-3.1l.6-.3ZM727.2,208.3c0,.6-.2.8-.6,1-.4.1-1.2.1-2.4.1,0-.2-.2-.5-.3-.7,1,0,1.9,0,2.1,0,.3,0,.4,0,.4-.4v-11.6h-4.5v-.7h5.2v12.3Z"/>
    <path d="M733.2,195.5c-.3.8-.6,1.7-.8,2.3h2.7v9.9h-4.4v1.3h-.7v-11.2h1.7c.3-.7.6-1.8.7-2.5l.8.2ZM734.4,198.5h-3.7v3.7h3.7v-3.7ZM734.4,207.1v-4.2h-3.7v4.2h3.7ZM742.7,198.3c-.3,7.2-.5,9.5-1.1,10.3-.3.3-.6.4-1.1.5s-1.4,0-2.2,0c0-.2-.1-.5-.2-.7,1,0,1.9,0,2.3,0s.5,0,.7-.2c.5-.6.8-3,1-9.6h-4.3c-.4,1.1-1,2.1-1.5,2.9-.1-.1-.4-.3-.6-.4,1.1-1.4,1.9-3.6,2.4-5.8l.7.2c-.2.8-.4,1.6-.7,2.4h4.8v.4ZM739.7,205.2c-.5-.9-1.6-2.5-2.5-3.6l.6-.3c.9,1.1,2,2.6,2.5,3.5l-.6.4Z"/>
    <path d="M750.2,203.6c-.3-.6-1.2-1.9-1.9-2.8v8.7h-.7v-8.5c-.7,2-1.6,4.1-2.5,5.2-.1-.2-.3-.5-.5-.6,1.1-1.4,2.3-4,2.9-6.4h-2.6v-.7h2.7v-3.1h.7v3.1h2.4v.7h-2.4v.6c.5.6,2,2.7,2.4,3.1l-.5.7ZM757.5,208.5c.1,0,.3,0,.4-.1,0,0,.1-.2.2-.6,0-.4,0-1.2,0-2.3.2.2.4.3.6.4,0,.9,0,2.1-.1,2.4,0,.4-.2.7-.4.8-.2.1-.4.2-.7.2h-.7c-.2,0-.5,0-.8-.2-.2-.2-.3-.4-.3-1.7v-10.3h-3.3v4.2c0,2.6-.3,6-2.5,8.3-.1-.1-.4-.4-.6-.5,2.1-2.2,2.3-5.3,2.3-7.8v-4.9h4.8v11.2c0,.6,0,.9.1,1,.1,0,.2,0,.3,0h.5Z"/>
    <path d="M763.6,200c.4.5,1.6,2.3,1.8,2.8l-.5.6c-.2-.5-.9-1.6-1.3-2.4v8.4h-.7v-8.5c-.6,2-1.4,4-2.2,5.1-.1-.2-.3-.5-.5-.7,1-1.3,2.1-4,2.6-6.2h-2.4v-.7h2.5v-3h.7v3h2v.7h-2v.9ZM773.9,198.4c-.3,7.4-.5,9.8-1.1,10.5-.2.3-.6.4-1,.5-.4,0-1.2,0-1.9,0,0-.2,0-.5-.2-.7.9,0,1.6,0,1.9,0,.3,0,.5,0,.6-.2.5-.5.7-3,1-9.8h-5.9c-.4,1-.9,1.9-1.5,2.7-.2-.1-.5-.3-.7-.4,1.1-1.3,1.9-3.4,2.4-5.5l.7.2c-.2.8-.5,1.7-.8,2.4h6.3v.5ZM771,206.1c0-.3-.2-.7-.4-1.2-3.7.7-4.1.8-4.4,1,0-.1-.1-.5-.2-.7.2,0,.4-.4.7-.9.3-.5,1.1-2.5,1.6-4.4l.7.2c-.5,1.7-1.2,3.5-2,4.9l3.4-.6c-.3-.7-.6-1.5-.9-2.1l.6-.2c.6,1.2,1.3,2.9,1.5,3.8l-.6.2Z"/>
  </g>
  <g>
    <path d="M695.7,218.2c-.7,2.8-2,4.8-3.8,6.3,1.3.9,2.8,1.7,4.6,2.1-.2.2-.4.4-.5.7-1.8-.5-3.4-1.3-4.7-2.3-1.5,1.1-3.2,1.9-4.9,2.3,0-.2-.3-.5-.4-.7,1.7-.4,3.4-1.1,4.8-2.2-1.8-1.6-3.1-3.9-4-6.6-.1,2.9-.8,6.2-3.8,9.2-.1-.2-.4-.4-.5-.6,3.5-3.3,3.7-7.2,3.7-10.1v-1.4h-2.9v-.7h9.4c-.3,1.2-.7,2.7-.9,3.8h3.6s.5.2.5.2ZM686.8,215.7c.9,3.5,2.3,6.3,4.6,8.3,1.5-1.3,2.7-3,3.4-5.3h-4.2c.3-1,.7-2.5,1-3.8h-4.9v.8Z"/>
    <path d="M702.4,218h3.5v.7h-3.5v.3c.7.7,2.7,2.8,3.2,3.3l-.4.6c-.5-.6-1.9-2.1-2.7-3v7.4h-.7v-7.4c-.9,2-2.1,4-3.3,5.2-.1-.2-.3-.5-.4-.7,1.3-1.2,2.8-3.6,3.6-5.7h-3.3v-.7h3.4v-3c-1.1.2-2.2.4-3.2.5,0-.2-.1-.4-.2-.6,2.3-.3,5.1-.8,6.5-1.4l.6.6c-.8.3-1.8.6-2.9.8v3.2ZM707.9,223.6h-.7v-8.4h.7v8.4ZM711.3,213.5v12.7c0,.6-.2.9-.6,1-.4.1-1.2.1-2.6.1,0-.2-.2-.5-.3-.7,1.1,0,2.1,0,2.4,0,.3,0,.4-.1.4-.4v-12.7h.7Z"/>
    <path d="M727.5,226.2v.7h-14v-.7h2.1v-5h9.8v5h2ZM727.1,217.1h-13.3v-.7h13.3v.7ZM718.7,218.5c-1,.9-2.8,2.1-4.2,2.8-.1-.2-.3-.4-.5-.5,1.3-.6,3.2-1.7,4.1-2.6l.5.4ZM716.3,226.2h2.3v-4.4h-2.3v4.4ZM718,216.4c-.3-.7-1-1.9-1.6-2.7l.6-.3c.7.8,1.4,1.9,1.7,2.7l-.7.3ZM719.4,221.9v4.4h2.3v-4.4h-2.3ZM726.7,220.9c-1-.6-3.1-1.5-4.7-2.1l.3-.5c1.6.6,3.6,1.5,4.7,2l-.3.6ZM724.8,213.6c-.5.9-1.2,2-1.8,2.7l-.6-.2c.6-.7,1.3-1.9,1.7-2.8l.7.3ZM722.4,221.9v4.4h2.4v-4.4h-2.4Z"/>
    <path d="M732.5,216.7h2.4v.7h-2.4v1.7c.5.6,2,2.2,2.4,2.6l-.5.6c-.3-.5-1.2-1.6-1.8-2.4v7.4h-.7v-8.2c-.7,2-1.6,4-2.6,5.2,0-.2-.3-.5-.4-.6,1.1-1.3,2.3-4,2.9-6.3h-2.6v-.7h2.7v-3.4h.7v3.4ZM742.5,214.3v13h-.7v-.9h-5.3v1h-.7v-13h6.8ZM736.4,215v3h5.3v-3h-5.3ZM736.4,221.8h5.3v-3.1h-5.3v3.1ZM741.7,225.6v-3.1h-5.3v3.1h5.3Z"/>
    <path d="M752.2,221.4c1.1,2.5,3.4,4.4,6.2,5.2-.2.2-.4.5-.5.7-2.9-.9-5.1-2.8-6.3-5.5-.5,1.9-2.1,4-6.4,5.6-.1-.2-.3-.5-.5-.7,4.4-1.6,5.8-3.5,6.2-5.4h-6v-.7h6.1c0-.4,0-.9,0-1.3v-1.8h-5.3v-.7h7.4c.7-.9,1.4-2.3,1.8-3.3l.8.3c-.5,1-1.2,2.1-1.8,3h3.4v.7h-5.4v1.9c0,.4,0,.9,0,1.3h6.3v.7h-6ZM749,216.5c-.3-.7-.9-1.8-1.6-2.7l.6-.3c.7.8,1.3,1.9,1.6,2.6l-.7.4Z"/>
    <path d="M766.5,221.8v4.7h-4.1v.9h-.7v-4.7c-.4.7-.9,1.3-1.4,1.9,0-.1-.4-.4-.5-.5,1.1-1.1,1.8-2.4,2.3-4.1h-1.4v-.7h1.5c.2-.6.3-1.2.4-1.9h-2.6v-.7h2.7c0-.6.2-1.2.2-1.9h-2.2v-.7h5.5v2.6h1v.7h-1v2.6h-3.5c-.2.7-.4,1.3-.7,1.8h4.3ZM762.4,222.5v3.4h3.4v-3.4h-3.4ZM763.4,217.4c-.1.7-.2,1.3-.4,1.9h2.6v-1.9h-2.2ZM763.7,214.8c0,.7-.1,1.3-.2,1.9h2.1v-1.9h-1.9ZM774.1,223.6h-3.1v3.8h-.7v-3.8h-3.1v-.7h3.1v-2.6h-2.5v-.7h2.5v-2.5h-2.7v-.7h6.2v.7h-2.8v2.5h2.5v.7h-2.5v2.6h3.1v.7ZM768.9,216.2c-.2-.7-.6-1.8-1.1-2.5l.6-.2c.5.8,1,1.8,1.2,2.5l-.7.2ZM773.4,213.5c-.4.9-.9,2-1.3,2.7l-.6-.2c.4-.7,1-1.9,1.3-2.7l.7.2Z"/>
    <path d="M779.6,213.6c-.4,1.2-.9,2.4-1.5,3.5v10.3h-.7v-9.1c-.5.8-1,1.5-1.5,2.2,0-.2-.3-.5-.5-.7,1.4-1.6,2.7-4,3.5-6.4l.7.2ZM785.2,217.4c.9,2.7,2.7,5.4,4.4,6.7-.2.1-.4.4-.6.6-1.8-1.5-3.5-4.3-4.5-7.2v6.1h2.7v.7h-2.7v3h-.7v-3h-2.9v-.7h2.9v-6.1c-1,2.9-2.8,5.7-4.6,7.2-.1-.2-.4-.4-.5-.5,1.8-1.3,3.5-4.1,4.5-6.8h-4v-.7h4.6v-3.3h.7v3.3h4.8v.7h-4.2Z"/>
  </g>
  <g>
    <path class="st45" d="M661.3,70.9c17.2,0,31.2-14,31.2-31.2s-14-31.2-31.2-31.2-31.2,14-31.2,31.2,14,31.2,31.2,31.2"/>
    <path class="st53" d="M664.1,58.1v-23.4c0-1.9-1.6-4-4-4.6-1.8-.5-2.1,0-2.1,0v23.4c0,2.5,2.5,4.6,4.6,4.6h1.4Z"/>
    <path class="st53" d="M658.9,25.1c0,2,1.6,3.6,3.6,3.6s2.1-2.9,2.1-2.9c0-2-.1-4.4-2.1-4.4s-.4,1.4-1,1.8c-.8.7-2.4-.2-2.4.9v.9Z"/>
    <path class="st40" d="M665.4,78.2c18.8-2,33.6-17.4,34.6-36.5"/>
    <path class="st40" d="M699.8,35.6c-2-18.8-17.4-33.6-36.5-34.6"/>
    <path class="st40" d="M657.3,1.2c-18.8,2-33.6,17.4-34.6,36.5"/>
    <path class="st40" d="M622.8,43.7c2,18.8,17.4,33.6,36.5,34.6"/>
    <path class="st36" d="M661.3,78.4h0M622.6,39.7h0M661.3,1h0M700,39.7h0"/>
    <path class="st17" d="M810.4,227.2V49c0-6.1-5.2-11.1-11.5-11.1h-89.6"/>
    <line class="st14" x1="661.5" y1="91.9" x2="661.5" y2="253.9"/>
    <path class="st32" d="M662.3,260.1c1.4,3.4,4.4,5.9,8,6.6"/>
    <line class="st4" x1="676.4" y1="267" x2="768.7" y2="267"/>
    <path class="st36" d="M770.7,267h0M672.4,267h0M661.5,255.9h0M661.5,87.9h0"/>
    <path class="st53" d="M1017.6,236.9c16.6,0,30.1,13.5,30.1,30.1s-13.5,30.1-30.1,30.1-30.1-13.5-30.1-30.1,13.5-30.1,30.1-30.1"/>
    <path class="st24" d="M1017.6,236.9c16.6,0,30.1,13.5,30.1,30.1s-13.5,30.1-30.1,30.1-30.1-13.5-30.1-30.1,13.5-30.1,30.1-30.1"/>
    <path class="st57" d="M1032.6,275.7l-.5,2.6c0,.6-.5,1-1.1,1s0,0-.1,0l-1.2-.2c-.3,0-.6-.2-.7-.4s-.3-.5-.2-.8l.2-2.2h-13.9l-.5,2.6c0,.6-.5,1-1.1,1s0,0-.1,0l-1.2-.2c-.3,0-.6-.2-.7-.4-.2-.2-.3-.5-.2-.8l.2-2.2h-13v5.5h38.2v-5.5h-4.1Z"/>
    <path class="st54" d="M1006.9,267.5l-1.7,2.5,2.1,1.9,1.5-2.2-.8-.7c-.6-.3-1-.9-1.2-1.5"/>
    <path class="st44" d="M1010.3,256c-.1,1.3.7,2.5,1.7,2.5,1.1,0,2.1-1.2,2.2-2.5.1-1.3-.7-2.3-1.7-2.3-1.1,0-2,1.1-2.2,2.3"/>
    <path d="M1014.3,255.4c-.7.1-2.1,0-2.8-.1-.2.4-.4,1.5-1.2,1.4-.2-.3-.5-3.4,2.1-3.5,2.1,0,2,2.7,1.9,2.3"/>
    <path class="st44" d="M1010.7,256.1c0,.3.1.5.4.5.2,0,.4-.2.5-.5,0-.3-.1-.5-.4-.5-.2,0-.4.2-.5.5"/>
    <path class="st0" d="M1014.5,261.2l-1.9-2.4c-.2,0-.4.1-.6.1-.4,0-.8-.2-1-.5,0,0,0,0,0,0-.5.4-.6,1.1-.2,1.6l2.1,2.6,1.6-1.5Z"/>
    <path class="st0" d="M1013.5,269.3l-2.1-1.8c0,0,0-.1,0-.2l1.6-6.8c.1-.5,0-1.1-.4-1.4,0,0,0-.1,0-.1-.2,0-.4.1-.6.1-.5,0-.9-.2-1.1-.6-.7,0-3,.3-3.2.4v2.2c.1,0,.1,0,.1,0,.3,0,.6,0,.9-.1l-1.3,5.4c-.2.9.2,1.9,1,2.3l2.9,2.5,2.2-1.8Z"/>
    <path class="st54" d="M1013.5,269.3l-.5-.4-1.7-1.4-3.8-1.8v.6c-.4.9,0,1.9.9,2.3l2.9,2.5,2.2-1.8Z"/>
    <path class="st44" d="M1007.8,261v-2.2c-.7,0-1.3.1-2,.2-.4,0-.7.3-.9.7l-1.5,3.4c-.2.6,0,1.2.6,1.5.1,0,.3,0,.4,0,.4,0,.8-.3,1-.7l1.2-2.8c.4,0,.7,0,1.1-.1"/>
    <path class="st44" d="M1019.2,262.4c0-.6-.7-1-1.3-1l-3,.4-.5-.6-1.6,1.5.8,1c.2.3.5.4.9.4s.1,0,.2,0l3.6-.5c.6,0,1-.6,1-1.3"/>
    <path class="st44" d="M1014.8,270.4l-1.3-1.1-2.2,1.8,1.1,1-.5,4.9,2.4.3,1-5.6c0-.5-.1-.9-.5-1.2"/>
    <path class="st0" d="M1011.9,277v1c-.1.3,0,.6.4.6l1.2.2c.3,0,.6-.2.6-.5l.2-1-2.4-.3Z"/>
    <path class="st44" d="M1005.3,270l-.2.4-4.9.4v2.5h5.7c.5,0,.9-.3,1.1-.7l.4-.7-2.1-1.9Z"/>
    <path class="st0" d="M1000.1,270.8h-1c-.3,0-.6.4-.6.7v1.2c0,.3.3.6.6.6h1v-2.5Z"/>
    <path class="st54" d="M1024.5,267.5l-1.7,2.5,2.1,1.9,1.5-2.2-.8-.7c-.6-.3-1-.9-1.2-1.5"/>
    <path class="st0" d="M1030.1,258.8c0,0-.2,0-.3.1-.2.7-.9,1.1-1.6,1.1,0,0,0,0,0,0l2.1,2.6,1.6-1.5-1.9-2.4Z"/>
    <path class="st0" d="M1028.9,267.4c0,0,0-.1,0-.2l1.6-6.8c.1-.5,0-1.1-.4-1.4,0,0,0-.1,0-.2,0,0-.2,0-.3.1-.2.7-.9,1.1-1.6,1.1s-.3,0-.4,0l-1-.2c-.4-.1-.8-.4-1.1-.8,0-.1-.1-.2-.2-.3-.2,0-.3,0-.4,0v2.2c.1,0,.1,0,.1,0,.3,0,.6,0,.9-.1l-1.3,5.4c-.2.9.2,1.9,1,2.3l2.9,2.5,2.2-1.8-2.1-1.8Z"/>
    <path class="st54" d="M1031,269.3l-.5-.4-1.7-1.4-3.8-1.8v.6c-.4.9,0,1.9.9,2.3l2.9,2.5,2.2-1.8Z"/>
    <path class="st58" d="M1025.3,261v-2.2c-.7,0-1.3.1-2,.2-.4,0-.7.3-.9.7l-1.5,3.4c-.2.6,0,1.2.6,1.5.1,0,.3,0,.4,0,.4,0,.8-.3,1-.7l1.2-2.8c.4,0,.7,0,1.1-.1"/>
    <path class="st58" d="M1036.8,262.4c0-.6-.7-1-1.3-1l-3,.4-.5-.6-1.6,1.5.8,1c.2.3.5.4.9.4s.1,0,.2,0l3.6-.5c.6,0,1-.6,1-1.3"/>
    <path class="st58" d="M1032.3,270.4l-1.3-1.1-2.2,1.8,1.1,1-.5,4.9,2.4.3,1-5.6c0-.5-.1-.9-.5-1.2"/>
    <path class="st0" d="M1029.4,277v1c-.1.3,0,.6.4.6l1.2.2c.3,0,.6-.2.6-.5l.2-1-2.4-.3Z"/>
    <path class="st58" d="M1022.8,270l-.2.4-4.9.4v2.5h5.7c.5,0,.9-.3,1.1-.7l.4-.7-2.1-1.9Z"/>
    <path class="st0" d="M1017.6,270.8h-1c-.3,0-.6.4-.6.7v1.2c0,.3.3.6.6.6h1v-2.5Z"/>
    <path class="st58" d="M1027.9,255.6c-.2,1.3.4,2.6,1.5,2.8,1.1.2,2.1-.9,2.3-2.2.2-1.3-.5-2.4-1.5-2.6-1.1-.2-2.1.7-2.3,2"/>
    <path d="M1027.2,255.4l4.7.2s.3-2.4-2.1-2.8c-2.4-.3-2.7,2.5-2.7,2.5"/>
    <path d="M1027.9,259.5l-1-.2c-.7-.1-1.1-.8-.9-1.5l1.3-3c.1-.7.8-.8,1.4-.7h.4c.7.2,1.1.9.9,1.5l-.7,2.9c-.1.7-.8,1.1-1.5.9"/>
  </g>
  <rect class="st55" x="1017.1" y="259.7" width="6" height="1.1" transform="translate(212.4 935.5) rotate(-54.2)"/>
  <g>
    <path class="st56" d="M967.1,97.8c-.5,1.2-1,2.5-1.7,3.6v12h-2.1v-8.8c-.4.4-.7.9-1.1,1.3-.2-.5-.8-1.7-1.2-2.2,1.6-1.6,3.1-4.1,4-6.5l2,.6ZM972.7,101.9v1.8h4.5v1.9h-4.5v2h4.8v1.9h-4.8v3.9h-2.1v-11.5h-.7c-.7,1.3-1.5,2.5-2.3,3.4-.3-.4-1.2-1.1-1.6-1.5,1.5-1.6,2.9-4.1,3.7-6.6l2,.5c-.2.7-.5,1.5-.9,2.2h6.8v2h-5Z"/>
    <path class="st56" d="M947.4,103.2v10.3h-2v-10.3h-1.7v-1.9h1.7v-4.1h2v4.1h1.7v1.9h-1.7ZM951.1,104c-.4,1.8-1,3.6-1.8,4.8-.4-.3-1.1-.8-1.6-1,.8-1,1.3-2.6,1.6-4.1l1.8.4ZM958.4,109.2c-.1-1-.4-2.5-.8-3.8-.1,4.5-.3,6.3-.8,6.9-.4.6-.8.8-1.4.9-.6.1-1.5,0-2.4,0,0-.6-.3-1.4-.6-2,.9,0,1.6,0,2,0s.5,0,.6-.3c.4-.5.5-2.8.6-8.7h-1.6c-.1,3.6-.9,7.9-4.7,11.1-.3-.5-1.1-1.2-1.6-1.4,3.4-2.8,4.1-6.5,4.3-9.7h-2.6v-2h2.6v-3.1h2v3.1h3.6s0,.7,0,.9v2.6c0,0,1.2-.3,1.2-.3.5,1.6,1,3.8,1.3,5.1l-1.8.5Z"/>
    <path class="st56" d="M933.1,98.6c-.5,1.5-1.2,3.2-1.8,4.5,1.2,1.4,1.5,2.6,1.5,3.6s-.3,1.9-.9,2.4c-.3.2-.7.4-1.1.4-.4,0-.8,0-1.3,0,0-.6-.2-1.4-.5-1.9.4,0,.6,0,.9,0,.2,0,.4,0,.6-.1.2-.2.4-.5.4-1,0-.8-.3-1.9-1.5-3.1.4-1,.9-2.5,1.2-3.6h-1.9v13.8h-2v-15.6h5c0,0,1.5.8,1.5.8ZM937.8,97.2c0,1.7,0,3.4-.1,5,.2,1.8.8,7,4.6,9.7-.6.4-1.2,1-1.5,1.6-2.1-1.6-3.3-3.9-4-6.1-.7,2.4-2,4.5-4.2,6.1-.3-.5-1-1.2-1.6-1.6,4.8-3.2,4.6-9,4.7-14.7h2.1Z"/>
    <path class="st56" d="M923.6,97.8v15.7h-2.3v-.6h-10.5v.6h-2.2v-15.7h14.9ZM921.3,111v-11.3h-10.5v11.3h10.5ZM920.7,103.9h-2.1v4.4c0,.9-.1,1.4-.8,1.7-.6.3-1.4.4-2.4.4,0-.5-.4-1.3-.7-1.9.6,0,1.3,0,1.6,0,.2,0,.3,0,.3-.3v-2.4c-1.3,1.3-2.8,2.4-4.2,3.1-.3-.4-.8-1-1.3-1.4,1.6-.8,3.3-2.2,4.7-3.8h-4.2v-1.8h5v-1.9h2v1.9h2.1v1.8Z"/>
  </g>
  <g>
    <path class="st56" d="M902.3,133.5h-2.6v-10.3h-3.4v-2.2h9.4v2.2h-3.4v10.3Z"/>
    <path class="st56" d="M911.6,123.7c1.3,0,2.4.4,3.1,1.1.8.8,1.2,1.8,1.2,3.2v1.3h-6.2c0,.7.2,1.3.7,1.7s1,.6,1.7.6,1.2,0,1.7-.2c.5-.1,1-.3,1.6-.6v2c-.5.2-1,.4-1.5.5-.5.1-1.1.2-1.9.2s-1.8-.2-2.5-.5c-.7-.4-1.3-.9-1.7-1.6-.4-.7-.6-1.6-.6-2.7s.2-2,.6-2.8c.4-.7.9-1.3,1.6-1.7.7-.4,1.5-.6,2.4-.6ZM911.6,125.6c-.5,0-.9.2-1.3.5-.3.3-.5.8-.6,1.5h3.7c0-.6-.2-1.1-.5-1.4-.3-.4-.7-.6-1.4-.6Z"/>
    <path class="st56" d="M922.1,123.7c1.3,0,2.3.3,2.9.8s1,1.4,1,2.5v6.4h-1.8l-.5-1.3h0c-.4.5-.8.9-1.3,1.1-.5.2-1.1.3-1.9.3s-1.6-.2-2.1-.7c-.6-.5-.8-1.3-.8-2.3s.4-1.8,1.1-2.2c.7-.5,1.8-.7,3.2-.8h1.7v-.5c0-.5-.1-.9-.4-1.1-.3-.2-.6-.3-1.1-.3s-.9,0-1.4.2c-.4.1-.9.3-1.3.5l-.9-1.8c.5-.3,1.1-.5,1.7-.6s1.3-.2,2-.2ZM923.4,129h-1c-.8,0-1.4.2-1.8.5s-.5.6-.5,1.1.1.7.4.8c.2.2.5.3.9.3.6,0,1-.2,1.4-.5s.6-.8.6-1.4v-.8Z"/>
    <path class="st56" d="M940.1,123.7c1.1,0,1.9.3,2.5.8.6.6.8,1.4.8,2.7v6.2h-2.6v-5.6c0-1.4-.5-2.1-1.4-2.1s-1.2.2-1.5.7c-.3.5-.4,1.2-.4,2.1v4.8h-2.6v-5.6c0-1.4-.5-2.1-1.4-2.1s-1.2.3-1.5.8c-.3.5-.4,1.3-.4,2.3v4.5h-2.6v-9.6h2l.3,1.2h.1c.3-.5.7-.8,1.2-1.1s1-.3,1.6-.3,1.3.1,1.8.3c.5.2.9.6,1.1,1.1h.2c.3-.5.7-.8,1.2-1.1.5-.2,1.1-.3,1.6-.3Z"/>
    <path class="st56" d="M954.1,133.5l-.7-3.3c0-.2-.1-.5-.2-.9,0-.4-.2-.8-.3-1.3-.1-.4-.2-.9-.3-1.2,0-.4-.2-.7-.2-.8h0c0,.2,0,.5-.2.8,0,.4-.2.8-.3,1.2-.1.4-.2.9-.3,1.3,0,.4-.2.7-.2.9l-.8,3.3h-2.8l-2.7-9.6h2.6l1.1,4.2c0,.3.2.7.2,1.1,0,.4.1.8.2,1.2,0,.4,0,.7.1.9h0c0-.2,0-.4,0-.7,0-.3,0-.6.1-.8,0-.3,0-.6.1-.8s0-.4,0-.5l1.2-4.6h2.9l1.1,4.6c0,.2,0,.4.2.8,0,.4.1.7.2,1.1,0,.4,0,.7,0,.9h0c0-.2,0-.5.1-.9,0-.4.1-.8.2-1.2s.2-.8.2-1.1l1.1-4.2h2.6l-2.7,9.6h-2.8Z"/>
    <path class="st56" d="M970.1,128.7c0,1.6-.4,2.8-1.3,3.7-.8.9-2,1.3-3.4,1.3s-1.7-.2-2.4-.6c-.7-.4-1.2-.9-1.6-1.7-.4-.7-.6-1.6-.6-2.7,0-1.6.4-2.8,1.2-3.7.8-.9,2-1.3,3.4-1.3s1.7.2,2.4.6c.7.4,1.2.9,1.6,1.7.4.7.6,1.6.6,2.7ZM963.5,128.7c0,.9.2,1.7.5,2.1.3.5.8.7,1.5.7s1.2-.2,1.5-.7c.3-.5.5-1.2.5-2.1s-.2-1.7-.5-2.1c-.3-.5-.8-.7-1.5-.7s-1.2.2-1.5.7c-.3.5-.5,1.2-.5,2.1Z"/>
    <path class="st56" d="M977.7,123.7c.1,0,.3,0,.5,0s.3,0,.4,0l-.2,2.5c0,0-.2,0-.4,0-.2,0-.3,0-.4,0-.4,0-.9,0-1.3.2-.4.2-.7.4-1,.8-.3.3-.4.8-.4,1.4v4.9h-2.6v-9.6h2l.4,1.6h.1c.3-.5.7-.9,1.2-1.3s1.1-.5,1.7-.5Z"/>
    <path class="st56" d="M983.1,120.2v5.9c0,.4,0,.7,0,1.1,0,.4,0,.7,0,1.1h0c.2-.2.4-.5.5-.7s.4-.5.6-.7l2.7-2.9h2.9l-3.8,4.1,4,5.4h-3l-2.7-3.9-1.1.9v3h-2.6v-13.3h2.6Z"/>
  </g>
  <g>
    <path d="M907.4,147.9c-.7,1.3-1.7,2.6-2.8,3.8.7,1.9,1.5,3,2.5,3s.7-.8.8-2.9c.2.1.4.3.7.4-.2,2.5-.5,3.3-1.5,3.3s-2.3-1.2-3-3.2c-1.1,1-2.3,1.9-3.5,2.5-.1-.2-.3-.4-.5-.6,1.4-.7,2.7-1.6,3.8-2.7-.4-1.3-.7-2.9-.9-4.7h-3.9v2.9l3-.7v.7c0,0-3,.7-3,.7v3.9c0,.6-.2.9-.6,1-.4.1-1.2.2-2.5.1,0-.2-.2-.5-.3-.8,1.1,0,2,0,2.2,0,.3,0,.4,0,.4-.4v-3.7c-1.3.3-2.5.6-3.5.8l-.3-.7c1-.2,2.3-.5,3.7-.8v-3.1h-3.5v-.7h3.5v-2.9c-1,.2-2.1.4-3.1.6,0-.2-.2-.4-.3-.6,2.2-.4,4.7-.9,6.2-1.5l.6.6c-.7.3-1.6.5-2.6.8v3.1h3.9c-.2-1.4-.2-3-.2-4.6h.8c0,1.6,0,3.2.2,4.6h4.7v.7h-4.7c.2,1.6.4,2.9.8,4.1.9-1,1.8-2.1,2.4-3.3l.7.3ZM907.2,144.9c-.5-.7-1.6-1.9-2.6-2.7l.6-.4c.9.8,2,1.9,2.6,2.6l-.6.5Z"/>
    <path d="M913.6,141.7c-.3,1.1-.7,2.3-1.2,3.3v10.4h-.7v-8.9c-.4.8-.9,1.6-1.3,2.2,0-.2-.3-.5-.5-.7,1.3-1.6,2.4-4.1,3-6.5l.7.2ZM914.7,144.3h.7v11.1h-.7v-11.1ZM915.9,141.4c.7.9,1.5,2.2,1.8,3l-.6.3c-.3-.8-1.1-2.1-1.8-3.1l.6-.3ZM923.4,154.3c0,.6-.2.8-.6,1-.4.1-1.2.1-2.4.1,0-.2-.2-.5-.3-.7,1,0,1.9,0,2.1,0,.3,0,.4,0,.4-.4v-11.6h-4.5v-.7h5.2v12.3Z"/>
    <path d="M939.3,154v.7h-13.7v-.7h9.1c.1-.9.3-1.8.4-2.8h-7.1c.5-2,1.2-5.5,1.5-8.1h-3.3v-.7h12.7v.7h-8.6c-.2.9-.3,1.8-.5,2.8h6.1s.5,0,.5,0c-.2,2-.6,5.5-1,8.1h3.9ZM935.2,150.5c.2-1.4.3-2.9.4-3.9h-6c-.3,1.4-.5,2.8-.8,3.9h6.3Z"/>
    <path d="M944.5,144.7h2.4v.7h-2.4v1.7c.5.6,2,2.2,2.4,2.6l-.5.6c-.3-.5-1.2-1.6-1.8-2.4v7.4h-.7v-8.2c-.7,2-1.6,4-2.6,5.2,0-.2-.3-.5-.4-.6,1.1-1.3,2.3-4,2.9-6.3h-2.6v-.7h2.7v-3.4h.7v3.4ZM954.4,142.3v13h-.7v-.9h-5.3v1h-.7v-13h6.8ZM948.3,143v3h5.3v-3h-5.3ZM948.3,149.8h5.3v-3.1h-5.3v3.1ZM953.7,153.6v-3.1h-5.3v3.1h5.3Z"/>
    <path d="M970.3,154.2v.7h-13.7v-.7h6.4v-1.6h-5.3v-.7h5.3v-1.3h-4.8v-4.7h4.8v-1.1h-6.4v-.7h6.4v-1.4c-1.7.1-3.4.2-5,.2,0-.2,0-.4-.2-.6,3.6-.1,8-.4,10.4-.9l.5.6c-1.3.3-3.1.5-4.9.6v1.4h6.5v.7h-6.5v1.1h5v4.7h-5v1.3h5.6v.7h-5.6v1.6h6.6ZM959,148h4.1v-1.5h-4.1v1.5ZM963,150v-1.5h-4.1v1.5h4.1ZM963.8,146.5v1.5h4.2v-1.5h-4.2ZM968,148.6h-4.2v1.5h4.2v-1.5Z"/>
    <path d="M976.9,150.7c-.3-.5-1.2-1.5-1.8-2.2v7h-.7v-6.5c-.7.7-1.4,1.4-2,1.9,0-.2-.3-.5-.4-.7,1.7-1.2,3.5-3.3,4.4-5.4h-4v-.7h4.6s.4.2.4.2c-.4,1.2-1.1,2.4-1.9,3.4.6.6,1.7,2,2,2.3l-.5.6ZM975.3,143.8c-.3-.6-.9-1.4-1.5-2l.6-.4c.6.6,1.3,1.4,1.5,1.9l-.6.4ZM984.6,154.6c.6,0,.7-.4.8-2.7.2.2.4.3.7.3-.1,2.4-.3,3-1.5,3h-1.6c-.9,0-1.3-.2-1.3-1.1v-3.9c-.5,1.9-1.6,3.8-4.3,5.2,0-.2-.3-.4-.5-.6,3.9-2,4.4-4.9,4.4-7.3v-3.3h.7v3.3c0,.8,0,1.6-.2,2.5h.7v4c0,.5.1.6.6.6h1.6ZM979.1,150.4h-.7v-8.2h6.7v8.2h-.7v-7.5h-5.2v7.5Z"/>
    <path d="M991.1,155c-1-1.3-2.4-2.6-3.5-3.5l.6-.6c1.1.9,2.5,2.2,3.5,3.5l-.7.6Z"/>
  </g>
  <g>
    <path d="M922.9,172.3c0,.6-.2.8-.6,1-.4.1-1.1.1-2.5.1,0-.2-.2-.5-.3-.7,1.1,0,2,0,2.2,0,.3,0,.4-.1.4-.4v-11.4h-11.1v12.5h-.7v-13.2h12.6v12.1ZM920.6,163.5h-7.9v-.7h7.9v.7ZM914.2,170.2v1.2h-.7v-5.9h6.2v4.7h-5.5ZM914.2,166.1v3.4h4.8v-3.4h-4.8Z"/>
    <path d="M927.3,165.1c-.3,1.7-.8,4.3-1.5,5.9l-.7-.3c.7-1.6,1.3-4,1.5-5.7l.7.2ZM929.7,163.6v7.9c0,.7.2.9,1.2.9h3.4c1.1,0,1.2-.6,1.3-3.4.2.1.5.3.7.3-.1,2.9-.4,3.8-2,3.8h-3.5c-1.5,0-1.9-.3-1.9-1.6v-7.9h.8ZM930.2,160.1c1.5,1.1,3.3,2.6,4.1,3.5l-.5.5c-.9-1-2.6-2.5-4.1-3.6l.5-.5ZM937,164.6c.9,1.9,1.8,4.3,2.2,5.9l-.7.2c-.3-1.6-1.2-4-2.1-5.9l.7-.2Z"/>
    <path d="M943.3,163.7v9.7h-.7v-9.7h-1.9v-.7h1.9v-3.6h.7v3.6h1.8v.7h-1.8ZM952.6,162.3s0,.3,0,.4c-.2,7.1-.3,9.3-.9,10-.2.3-.5.4-1,.5-.5,0-1.3,0-2.1,0,0-.2-.1-.5-.2-.7,1,0,1.9,0,2.2,0s.4,0,.6-.2c.4-.5.6-2.8.8-9.3h-2.5c0,3.3-.7,7.2-4.5,10.4-.1-.2-.4-.4-.6-.5,3.7-3,4.2-6.8,4.3-9.9h-3v-.7h3v-2.8h.7v2.8h3.3ZM946.7,165.1c-.3,1.6-.9,3.3-1.6,4.4-.1-.1-.4-.3-.6-.4.7-1,1.2-2.6,1.5-4.1h.7ZM953.6,165c.5,1.4.9,3.2,1.1,4.2l-.7.2c-.1-1.1-.6-2.9-1-4.3h.7Z"/>
    <path d="M969.3,162.8s0,.3,0,.4c-.4,6.5-.7,8.8-1.4,9.6-.3.4-.6.4-1.2.5-.5,0-1.5,0-2.5,0,0-.2-.1-.5-.3-.7,1.1.1,2.1.1,2.5.1s.5,0,.7-.2c.6-.6.9-2.8,1.3-8.8h-5.8c-.2,3.2-1.2,7-5.8,9.9-.1-.2-.4-.4-.6-.6,4.4-2.8,5.4-6.3,5.6-9.3h-5.2v-.7h5.2c0-.4,0-.7,0-1.1v-2.4h.8v2.4c0,.4,0,.7,0,1.1h6.6Z"/>
    <path d="M975.2,173c-1-1.3-2.4-2.6-3.5-3.5l.6-.6c1.1.9,2.5,2.2,3.6,3.5l-.7.6Z"/>
  </g>
  <g>
    <path d="M918.7,188.1v3.3h-.7v-3.1c-1.8.3-3.6.6-4.9.9l-.2-.7,1.3-.2v-9.4h-1.1v-.7h7v.7h-1.2v8.6l1.4-.2v.7s-1.4.3-1.4.3ZM914.8,178.8v2.5h3.1v-2.5h-3.1ZM914.8,184.6h3.1v-2.6h-3.1v2.6ZM914.8,188.1c1-.2,2-.3,3.1-.5v-2.3h-3.1v2.8ZM926.4,179.3c-.5,3.3-1.4,5.9-2.6,8,.8,1.5,1.9,2.6,3.2,3.4-.2.1-.4.4-.5.6-1.3-.8-2.3-1.9-3.1-3.3-1,1.5-2.1,2.6-3.2,3.4-.1-.2-.3-.4-.5-.6,1.2-.8,2.4-2,3.3-3.6-1-2-1.7-4.5-2.1-7.3h-.9v-.7h6s.5,0,.5,0ZM921.6,179.9c.4,2.5,1,4.8,1.8,6.6,1-1.8,1.8-4,2.2-6.6h-4Z"/>
    <path d="M936,184.3c1.2,2.9,3.5,5.1,6.5,6-.2.2-.4.4-.5.7-3.2-1.1-5.5-3.4-6.8-6.7h-2.7v5.9l4-1c0,.2,0,.5,0,.7-4.2,1.2-4.7,1.3-5,1.6,0-.2-.2-.5-.3-.7.2,0,.5-.3.5-.8v-5.5h-3.2v-.7h3.2v-6.1h.8v6.1h9.7v.7h-6.2ZM940.5,178c-1.5,1.9-3.9,3.5-6,4.6-.1-.2-.4-.4-.6-.6,2.2-1,4.5-2.6,5.9-4.3l.7.3Z"/>
    <path d="M950.9,183.6c-.5.6-1.2,1.3-1.8,1.8.7.7,1.4,1.4,1.6,1.7l-.5.6c-.5-.6-1.7-2-2.5-2.9v6.7h-.7v-6.5c-.9,1-1.9,1.9-2.8,2.6-.1-.2-.3-.5-.5-.6,1.9-1.3,4.1-3.6,5.2-5.9h-4.9v-.7h5.4s.4.3.4.3c-.5,1.2-1.3,2.4-2.1,3.5.2.2.6.6.9,1,.6-.5,1.3-1.3,1.7-1.8l.6.5ZM947.5,179.9c-.3-.6-.9-1.4-1.6-2l.5-.4c.6.6,1.3,1.4,1.6,1.9l-.6.4ZM953.6,182c1.6,1,3.5,2.4,4.5,3.4l-.6.6c-.9-.9-2.7-2.3-4.2-3.3v8.7h-.8v-14h.8v4.9l.3-.2Z"/>
    <path d="M964.5,189.5c-.4-.6-1.3-2.1-2-2.9-.4,1.6-1.2,3.2-2.6,4.5,0-.2-.4-.4-.5-.5,2-1.8,2.6-4.2,2.8-6.3h-2.7v-.7h2.7c0-.2,0-.4,0-.7v-2.7h-1.1c-.3,1-.6,1.9-1.1,2.6-.1,0-.4-.3-.6-.4.8-1.2,1.3-3.1,1.5-5h.7c-.1.8-.2,1.5-.4,2.1h3.7v.7h-2v2.7c0,.2,0,.4,0,.7h2.3v.7h-2.3c0,.5,0,1-.2,1.4.5.7,2,2.7,2.3,3.2l-.5.6ZM973.4,190.1v.7h-8.6v-.7h4.9c.6-1.1,1.2-2.8,1.6-4l.8.2c-.5,1.2-1.1,2.8-1.6,3.8h2.9ZM973.3,178.8h-7.8v-.7h7.8v.7ZM972.6,185.4h-6.5v-4.6h6.5v4.6ZM967.7,189.7c-.2-.9-.7-2.3-1.2-3.4l.6-.2c.5,1,1,2.4,1.2,3.3l-.7.2ZM971.9,181.4h-5.1v3.3h5.1v-3.3Z"/>
  </g>
  <g>
    <path class="st56" d="M868.5,70.9c17.2,0,31.2-14,31.2-31.2s-14-31.2-31.2-31.2-31.2,14-31.2,31.2,14,31.2,31.2,31.2"/>
    <path class="st53" d="M877.7,58.2v-4.9c-.6.2-1.3.3-2,.4-.5,0-1.1,0-1.6,0-2.8,0-3.6-1.1-3.6-5.2v-13.1h7.2v-4.6h-7.2v-10.3s-1.8,0-3.2.6c-1.4.5-2.7,2.1-2.7,4.1v5.6h-5.2v4.6h5.2v15c0,6.1,1.8,8.4,7.6,8.4s3.9-.3,5.5-.6"/>
    <path class="st19" d="M872.6,78.2c18.8-2,33.6-17.4,34.6-36.5"/>
    <path class="st19" d="M907,35.6c-2-18.8-17.4-33.6-36.5-34.6"/>
    <path class="st19" d="M864.5,1.2c-18.8,2-33.6,17.4-34.6,36.5"/>
    <path class="st19" d="M830.1,43.7c2,18.8,17.4,33.6,36.5,34.6"/>
    <path class="st6" d="M868.5,78.4h0M829.8,39.7h0M868.5,1h0M907.2,39.7h0"/>
    <path class="st9" d="M1017.6,227.2V49c0-6.1-5.2-11.1-11.5-11.1h-89.6"/>
    <line class="st13" x1="868.7" y1="91.9" x2="868.7" y2="253.9"/>
    <path class="st25" d="M869.5,260.1c1.4,3.4,4.4,5.9,8,6.6"/>
    <line class="st2" x1="883.6" y1="267" x2="975.9" y2="267"/>
    <path class="st6" d="M977.9,267h0M879.7,267h0M868.7,255.9h0M868.7,87.9h0"/>
    <path class="st53" d="M1224.8,236.9c16.6,0,30.1,13.5,30.1,30.1s-13.5,30.1-30.1,30.1-30.1-13.5-30.1-30.1,13.5-30.1,30.1-30.1"/>
    <path class="st26" d="M1224.8,236.9c16.6,0,30.1,13.5,30.1,30.1s-13.5,30.1-30.1,30.1-30.1-13.5-30.1-30.1,13.5-30.1,30.1-30.1"/>
    <path class="st55" d="M1219.7,261.1c.2.4.5.6.9.6s.3,0,.4,0l.9-.4-2-1.3c-.4.3-.5.8-.3,1.2"/>
    <path class="st55" d="M1228.5,255.1c-.4-.4-1.1-.3-1.4,0l-2.4,2.7-1.4.6.4.3c.5.3.7.9.7,1.5l1.3-.6c.1,0,.3-.1.3-.3l2.6-2.9c.4-.4.3-1.1,0-1.4"/>
    <path class="st58" d="M1234.4,264.3c.9,4.4.7,5.6,4.7,9.6.2.2,0,.5-.2.6l-.7.8c-.2.2-.5,0-.7-.1-3.3-2.8-4.8-4.2-5.7-7.4,0,0,0,0,0,0-1.3,2.1-2.1,5.2-2.5,9.2,0,.2-.1.4-.3.3,0,0-2-.2-1.9-.7.8-6.1,1.3-8.6,2.1-11.3l5.2-1Z"/>
    <path class="st55" d="M1237.9,262.3c-.3,0-.7-.2-.9-.4l-2.9-4.2-2.9-2.2c-.5-.3-.6-1-.2-1.4.3-.5,1-.6,1.4-.2l3.1,2.3c0,0,.2.2.2.2l3,4.3c.3.5.2,1.1-.3,1.4-.2.1-.4.2-.6.2"/>
    <path class="st55" d="M1232,253.7c-.3-.1-1-.2-1.5-.2.1.2-.8.9-1.7.4-.5.2-1.3,1-1.6,1.3,0,0,1.2,5.3,1.4,6.1.2,1.3-.9,6.9-.9,8.3l8.5-1.6c-.5-1.7-2.1-6.1-2.4-7.8-.2-.8-1.8-6.5-1.8-6.5"/>
    <path class="st55" d="M1229.4,276l-2.2-.5c0,.4-.1.7-.2,1.1,0,.5,1.9.7,1.9.7.2,0,.3-.2.3-.3,0-.3,0-.6,0-1"/>
    <path class="st55" d="M1239,273.9c-.2-.2-.4-.4-.6-.6l-1.3,1.5c.1.1.3.2.4.4.1.1.5.3.7.1l.7-.8c.1-.1.4-.4.2-.6"/>
    <path class="st57" d="M1215.3,283.8h-8.7v-6.6h7.3c.8,0,1.4.6,1.4,1.4v5.3Z"/>
    <path class="st54" d="M1211.7,264.2c0,4.5-.7,8.1-1.1,12.5,0,.2.1.4.3.4h1.4c.2,0,.3,0,.4-.2.5-3.3,1.6-6.2,2-9.6,0,0,0,0,0,0,1.7,1.9,3.5,4.7,4.5,8.6,0,.2.2.3.4.3,0,0,1.9-.6,1.8-1-1.7-5.8-3.1-8.2-4.5-10.5l-5.2-.4Z"/>
    <path d="M1210.7,275.8c0,.3,0,.6,0,.9,0,.2.1.4.3.4h1.4c.2,0,.3,0,.4-.2,0-.3.1-.7.2-1-.7,0-1.7,0-2.2,0"/>
    <path class="st0" d="M1217.4,258.4l.4-5.1c-.4-.2-.8-.4-1.1-.5-.9.5-1.8-.2-1.7-.3-.4,0-1.1.2-1.4.3-.1,0-.3.2-.4.4-1.2,1.3-2.4,2.7-3.3,4.2-.5.7-.7,4.8-.8,5.9,0,1.4,1.7,1.5,1.8.1.1-1.9.4-3.1.8-5,.3-.5.7-.9,1.1-1.3,0,.8-.2,1.7-.3,2.4-.3,1.7-.7,3.2-1.1,4.9h.5c0,.1,0,.1,0,.1l5.4.5c.2-1.2,0-5.9.1-6.4"/>
    <path class="st44" d="M1214.3,249.9c0,1.2.7,2.4,1.7,2.4,1,0,1.8-1.1,1.9-2.3,0-1.2-.7-2.2-1.7-2.2-1,0-1.8.9-1.9,2.1"/>
    <path d="M1217.9,249.5c-.7.1-2,0-2.5-.2-.2.3-.3,1.4-1,1.3-.2-.2-.6-3.2,1.8-3.2,1.9,0,2,2.6,1.8,2.2"/>
    <path class="st44" d="M1214.6,250c0,.3.1.5.4.5.2,0,.4-.2.4-.5,0-.3-.1-.5-.4-.5-.2,0-.4.2-.4.5"/>
    <path d="M1221.2,274.1c-.5.2-1.6.6-2.1.8,0,.3.2.6.3.9,0,.2.2.3.4.3,0,0,1.9-.6,1.8-1,0-.3-.2-.7-.3-1"/>
  </g>
  <polygon class="st48" points="1216 253.5 1216.4 252.9 1215.4 252.9 1215.8 253.5 1214.9 257.9 1215.8 259.1 1216.7 257.9 1216 253.5"/>
  <g>
    <path class="st0" d="M1222.9,261c-.2,0-.4,0-.6-.2l-2.6-1.7c-.1,0-.2-.2-.3-.3l-3-4.1c-.3-.5-.2-1.1.2-1.4.5-.3,1.1-.2,1.4.2l2.8,3.9,2.5,1.6c.5.3.6,1,.3,1.4-.2.3-.5.5-.9.5"/>
    <path class="st57" d="M1223.9,283.8h19.2v-6.6h-17.8c-.8,0-1.4.6-1.4,1.4v5.3Z"/>
    <path class="st58" d="M1231,250.4c.2,1.2-.4,2.5-1.4,2.6-1,.2-2-.8-2.2-2-.2-1.2.4-2.3,1.4-2.5,1-.2,1.9.7,2.1,1.9"/>
    <path d="M1231.7,250.2l-4.5.2s-.3-2.3,1.9-2.6c2.2-.3,2.5,2.4,2.5,2.4"/>
    <path d="M1231,254.1l.9-.2c.6-.1,1-.8.9-1.4l-1.2-2.9c-.1-.6-.7-.8-1.3-.6h-.4c-.6.2-1,.8-.9,1.4l.6,2.8c.1.6.8,1,1.4.9"/>
  </g>
  <g>
    <path class="st50" d="M1134.4,111v2h-15.9v-2h9.7c.1-.7.2-1.5.3-2.3h-7.8c.7-2.3,1.5-6,2-8.9h-3.7v-2h14.9v2h-8.9c-.2.8-.3,1.5-.4,2.3h5.4c0,0,1.6.1,1.6.1-.3,2.5-.8,5.9-1.2,8.8h4.1ZM1128.8,106.8c.1-1,.3-1.9.4-2.7h-5c-.2,1-.4,1.9-.6,2.7h5.2Z"/>
    <path class="st50" d="M1141.4,97.7c-.4,1-.8,2.1-1.3,3.1v12.7h-1.9v-9.4c-.4.6-.9,1.2-1.3,1.7-.2-.5-.7-1.6-1.1-2,1.5-1.6,2.9-4.1,3.7-6.5l1.9.6ZM1152.1,99.8v1.7h-11.3v-1.7h5c-.3-.6-.7-1.5-1.1-2.1l1.8-.7c.5.7,1,1.7,1.3,2.3l-1,.4h5.3ZM1141.8,107.6h9.3v5.8h-1.8v-.5h-5.7v.5h-1.8v-5.8ZM1150.9,104.1h-8.8v-1.6h8.8v1.6ZM1142.1,105h8.8v1.6h-8.8v-1.6ZM1143.6,109.3v2h5.7v-2h-5.7Z"/>
    <path class="st50" d="M1169.9,111v2h-15.9v-2h9.7c.1-.7.2-1.5.3-2.3h-7.8c.7-2.3,1.5-6,2-8.9h-3.7v-2h14.9v2h-8.9c-.2.8-.3,1.5-.4,2.3h5.4c0,0,1.6.1,1.6.1-.3,2.5-.8,5.9-1.2,8.8h4.1ZM1164.3,106.8c.1-1,.3-1.9.4-2.7h-5c-.2,1-.4,1.9-.6,2.7h5.2Z"/>
    <path class="st50" d="M1187.2,101.8c-.2,7.2-.3,9.7-.9,10.6-.4.6-.8.8-1.5.9-.6.1-1.5,0-2.4,0,0-.6-.2-1.4-.6-2,.9,0,1.6,0,2,0s.5,0,.6-.3c.4-.5.6-2.6.7-8.3h-1.9c-.3,4.6-1.2,8.3-4.6,10.6-.3-.5-1-1.2-1.5-1.6.9-.6,1.5-1.2,2.1-2-2.7.7-5.5,1.3-7.7,1.8l-.3-2.1c.3,0,.8-.1,1.2-.2v-11.6h6.1v10.3l.8-.2.2,1.6c1.2-1.8,1.6-4.1,1.8-6.8h-2.2v-2h2.3c0-1.2,0-2.4,0-3.8h2c0,1.3,0,2.6,0,3.8h3.8v.9ZM1174.4,99.7v1.8h2.3v-1.8h-2.3ZM1176.7,103.3h-2.3v1.8h2.3v-1.8ZM1174.4,109c.7-.1,1.5-.3,2.3-.5v-1.6h-2.3v2.1Z"/>
  </g>
  <g>
    <path class="st50" d="M1133.5,133.5h-2.6v-10.3h-3.4v-2.2h9.4v2.2h-3.4v10.3Z"/>
    <path class="st50" d="M1144.1,123.7c.1,0,.3,0,.5,0s.3,0,.4,0l-.2,2.5c0,0-.2,0-.4,0-.2,0-.3,0-.4,0-.4,0-.9,0-1.3.2-.4.2-.7.4-1,.8-.3.3-.4.8-.4,1.4v4.9h-2.6v-9.6h2l.4,1.6h.1c.3-.5.7-.9,1.2-1.3s1.1-.5,1.7-.5Z"/>
    <path class="st50" d="M1155.7,123.9v9.6h-2l-.4-1.2h-.1c-.3.5-.7.8-1.3,1.1-.5.2-1.1.3-1.7.3-1,0-1.8-.3-2.5-.8-.6-.6-.9-1.4-.9-2.7v-6.2h2.6v5.6c0,.7.1,1.2.4,1.5.2.3.6.5,1.2.5.8,0,1.3-.3,1.6-.8.3-.5.4-1.3.4-2.3v-4.5h2.6Z"/>
    <path class="st50" d="M1165.2,130.6c0,1-.3,1.7-1,2.2s-1.7.8-3.1.8-1.2,0-1.7-.1c-.5,0-1-.2-1.4-.4v-2.2c.5.2,1.1.4,1.7.6.6.2,1.1.2,1.6.2s.9,0,1.1-.2c.2-.2.3-.4.3-.6s0-.3-.1-.4c0-.1-.3-.3-.6-.4-.3-.2-.7-.4-1.4-.6-.6-.3-1.1-.5-1.5-.8-.4-.3-.7-.6-.8-.9-.2-.4-.3-.8-.3-1.3,0-.9.3-1.6,1-2,.7-.4,1.6-.7,2.7-.7s1.2,0,1.7.2c.5.1,1.1.3,1.7.6l-.8,1.9c-.5-.2-.9-.4-1.3-.5-.4-.1-.8-.2-1.3-.2-.8,0-1.2.2-1.2.6s0,.3.1.4c0,.1.3.3.6.4.3.1.7.3,1.3.6.5.2,1,.5,1.4.7s.7.5.9.9c.2.4.3.8.3,1.4Z"/>
    <path class="st50" d="M1171.5,131.5c.3,0,.6,0,.8,0,.3,0,.5-.1.8-.2v1.9c-.3.1-.6.2-1,.3-.4,0-.9.1-1.4.1s-1.1,0-1.5-.3-.8-.5-1.1-1c-.3-.5-.4-1.1-.4-1.9v-4.6h-1.2v-1.1l1.4-.9.8-2h1.7v2h2.7v2h-2.7v4.6c0,.4.1.6.3.8.2.2.5.3.8.3Z"/>
  </g>
  <g>
    <path d="M1187.6,142.3c-.5,1.2-1.1,2.7-1.7,4,1.3,1.3,1.6,2.5,1.6,3.5s-.2,1.4-.6,1.7c-.2.2-.5.2-.8.3-.3,0-.7,0-1.1,0,0-.2,0-.5-.2-.7.4,0,.8,0,1.1,0,.2,0,.4,0,.5-.1.3-.2.4-.7.4-1.1,0-.9-.4-2-1.6-3.3.6-1.2,1.1-2.6,1.5-3.7h-3v12.7h-.7v-13.4h4.1s.5.3.5.3ZM1191.8,141.3c0,1.7,0,3.3-.1,4.9.3,1.3,1.1,6.5,4.6,8.6-.2.1-.4.3-.6.5-2.6-1.6-3.7-4.8-4.2-7-.5,3-1.6,5.5-4.2,7.1-.1-.2-.4-.4-.6-.5,4.5-2.6,4.4-8.2,4.4-13.6h.7Z"/>
    <path d="M1179.8,142.1v13.3h-.8v-.7h-11.1v.7h-.8v-13.3h12.7ZM1179.1,154v-11.2h-11.1v11.2h11.1ZM1177.9,146.4h-2.7v5.5c0,.5-.1.7-.5.8s-.9.1-2,.1c0-.2-.2-.5-.3-.7.8,0,1.5,0,1.7,0,.2,0,.3,0,.3-.3v-4.5c-1.3,1.7-3.2,3.2-5,4.2-.1-.2-.3-.4-.5-.5,1.9-1.1,4-2.8,5.3-4.7h-5.1v-.7h5.3v-2.2h.7v2.2h2.7v.7Z"/>
    <path d="M1160.4,148.1c1.1,1.2,2.9,2.2,4.6,2.7-.2.2-.4.4-.5.6-1.9-.6-3.8-1.9-4.9-3.3h-2.9c-1.2,1.7-2.9,2.7-5.3,3.4-.1-.2-.3-.5-.5-.7,2.1-.5,3.7-1.4,4.8-2.7h-4.5v-.7h5c.3-.5.6-1,.8-1.5h-4.4v-.7h4.7c.2-.4.3-.9.4-1.4h-5.8v-.7h3.6c-.2-.5-.7-1.1-1.1-1.7l.6-.2c.5.5.9,1.2,1.1,1.6l-.6.3h4.2c.4-.5,1-1.4,1.3-1.9l.7.3c-.4.6-.8,1.2-1.2,1.7h3.6v.7h-5.8c-.1.5-.2,1-.4,1.4h5.4v.7h-5.6c-.2.5-.4,1.1-.7,1.5h7.6v.7h-4.3ZM1155.2,149.7h.7v.9c0,1.6-.3,3.5-3.3,4.9,0-.2-.3-.4-.5-.6,2.8-1.3,3.1-3,3.1-4.4v-.9ZM1160,149.6h.8v5.8h-.8v-5.8Z"/>
    <path d="M1138.2,151.4c.6-.2,1.3-.5,2-.8v.7c-1.5.7-3.2,1.3-4.5,1.9l-.2-.8c.6-.2,1.3-.5,2.1-.7v-5.8h-2v-.7h2v-3.7h.7v3.7h1.9v.7h-1.9v5.5ZM1149.5,147.5v.7h-9.5v-.7h5.8c.5-1,1-2.5,1.3-3.5l.7.2c-.4,1-.8,2.3-1.2,3.3h2.9ZM1149,143.9h-8.4v-.7h4c0-.5-.3-1.2-.5-1.8h.7c.2.5.4,1.3.5,1.8h3.7v.7ZM1141.5,149.8h6.8v5.5h-.7v-.7h-5.3v.8h-.7v-5.6ZM1142.7,147.2c-.1-.8-.5-2-.9-2.9l.6-.2c.5.9.9,2.1,1,2.9l-.7.2ZM1142.2,150.5v3.4h5.3v-3.4h-5.3Z"/>
    <path d="M1123.7,141.7c-.3,1.1-.7,2.3-1.2,3.3v10.4h-.7v-8.9c-.4.8-.9,1.6-1.3,2.2,0-.2-.3-.5-.5-.7,1.3-1.6,2.4-4.1,3-6.5l.7.2ZM1124.7,144.3h.7v11.1h-.7v-11.1ZM1126,141.4c.7.9,1.5,2.2,1.8,3l-.6.3c-.3-.8-1.1-2.1-1.8-3.1l.6-.3ZM1133.4,154.3c0,.6-.2.8-.6,1-.4.1-1.2.1-2.4.1,0-.2-.2-.5-.3-.7,1,0,1.9,0,2.1,0,.3,0,.4,0,.4-.4v-11.6h-4.5v-.7h5.2v12.3Z"/>
    <path d="M1117.5,147.9c-.7,1.3-1.7,2.6-2.8,3.8.7,1.9,1.5,3,2.5,3s.7-.8.8-2.9c.2.1.4.3.7.4-.2,2.5-.5,3.3-1.5,3.3s-2.3-1.2-3-3.2c-1.1,1-2.3,1.9-3.5,2.5-.1-.2-.3-.4-.5-.6,1.4-.7,2.7-1.6,3.8-2.7-.4-1.3-.7-2.9-.9-4.7h-3.9v2.9l3-.7v.7c0,0-3,.7-3,.7v3.9c0,.6-.2.9-.6,1-.4.1-1.2.2-2.5.1,0-.2-.2-.5-.3-.8,1.1,0,2,0,2.2,0,.3,0,.4,0,.4-.4v-3.7c-1.3.3-2.5.6-3.5.8l-.3-.7c1-.2,2.3-.5,3.7-.8v-3.1h-3.5v-.7h3.5v-2.9c-1,.2-2.1.4-3.1.6,0-.2-.2-.4-.3-.6,2.2-.4,4.7-.9,6.2-1.5l.6.6c-.7.3-1.6.5-2.6.8v3.1h3.9c-.2-1.4-.2-3-.2-4.6h.8c0,1.6,0,3.2.2,4.6h4.7v.7h-4.7c.2,1.6.4,2.9.8,4.1.9-1,1.8-2.1,2.4-3.3l.7.3ZM1117.2,144.9c-.5-.7-1.6-1.9-2.6-2.7l.6-.4c.9.8,2,1.9,2.6,2.6l-.6.5Z"/>
  </g>
  <g>
    <path d="M1119.3,162.9c-1.9,2.8-5.5,6.2-8.7,8,.2.2.4.3.7.5,1,.6,2.2.7,4,.7s4.2-.1,5.7-.2c0,.2-.2.6-.2.8-1.2,0-4,.2-5.5.2s-3.2-.2-4.2-.8c-.6-.4-1.1-.9-1.4-.9-.5,0-1.3.8-2.1,1.9l-.6-.7c1-1.1,1.9-1.9,2.7-1.9s.2,0,.3,0c3-1.7,6.3-4.7,8.1-7.2h-10.2v-.7h10.9c0,0,.5.3.5.3ZM1114.4,162.3c-.3-.7-1-1.8-1.6-2.6l.6-.3c.6.8,1.3,1.9,1.7,2.5l-.7.4Z"/>
    <path d="M1123.3,162.7h.7v10.7h-.7v-10.7ZM1124.1,159.6c.7.6,1.5,1.5,1.9,2.1l-.6.4c-.4-.6-1.2-1.5-1.9-2.2l.6-.3ZM1126.6,163.8h5.5v6.8h-5.5v-6.8ZM1135.6,172.4c0,.5-.1.7-.4.9-.4.1-1,.1-1.9.1,0-.2-.2-.5-.3-.7.7,0,1.4,0,1.6,0,.2,0,.3,0,.3-.3v-11.4h-7.6v-.7h8.3v12ZM1127.3,166.9h4.1v-2.4h-4.1v2.4ZM1127.3,170h4.1v-2.4h-4.1v2.4Z"/>
    <path d="M1151.8,172v.7h-13.7v-.7h9.1c.1-.9.3-1.8.4-2.8h-7.1c.5-2,1.2-5.5,1.5-8.1h-3.3v-.7h12.7v.7h-8.6c-.2.9-.3,1.8-.5,2.8h6.1s.5,0,.5,0c-.2,2-.6,5.5-1,8.1h3.9ZM1147.7,168.5c.2-1.4.3-2.9.5-3.9h-6c-.3,1.4-.5,2.8-.8,3.9h6.3Z"/>
    <path d="M1157.5,159.6c-.4,1.1-.9,2.2-1.4,3.3v10.6h-.7v-9.3c-.5.9-1.1,1.7-1.7,2.3,0-.2-.3-.5-.5-.7,1.4-1.6,2.8-4,3.6-6.4l.7.2ZM1167.2,162v.7h-9.8v-.7h9.8ZM1158.4,168.6h7.7v4.8h-.7v-.7h-6.3v.7h-.7v-4.9ZM1166,164.8h-7.3v-.7h7.3v.7ZM1158.6,166.3h7.3v.7h-7.3v-.7ZM1159.1,169.2v2.9h6.3v-2.9h-6.3ZM1162.2,161.7c-.2-.5-.7-1.4-1.1-2l.7-.3c.4.7.9,1.5,1.1,2l-.7.3Z"/>
    <path d="M1182.8,172v.7h-13.7v-.7h9.1c.1-.9.3-1.8.4-2.8h-7.1c.5-2,1.2-5.5,1.5-8.1h-3.3v-.7h12.7v.7h-8.6c-.2.9-.3,1.8-.5,2.8h6.1s.5,0,.5,0c-.2,2-.6,5.5-1,8.1h3.9ZM1178.7,168.5c.2-1.4.3-2.9.5-3.9h-6c-.3,1.4-.5,2.8-.8,3.9h6.3Z"/>
    <path d="M1191.3,170.3l-6.8,1.6-.2-.8,1.1-.2v-10.7h4.8v9.7l1-.2v.7ZM1186.2,160.9v2.7h3.4v-2.7h-3.4ZM1189.6,164.3h-3.4v2.7h3.4v-2.7ZM1186.2,170.8c1-.2,2.2-.5,3.4-.7v-2.4h-3.4v3.1ZM1198,163.4c-.2,6.6-.3,8.8-.9,9.4-.2.3-.5.4-1,.5-.5,0-1.3,0-2.2,0,0-.2-.1-.5-.2-.7.9,0,1.8,0,2.1,0,.3,0,.5,0,.6-.2.4-.5.6-2.6.8-8.7h-2.9c-.2,4-1.1,7.7-4.3,9.8-.1-.2-.4-.4-.6-.5,3.1-1.9,4-5.4,4.2-9.2h-2.8v-.7h2.9c0-1.2,0-2.4,0-3.6h.7c0,1.2,0,2.4,0,3.6h3.6v.4Z"/>
  </g>
  <g>
    <path d="M1179,177.6c-.4,1.1-1,2.1-1.6,3.1v10.7h-.8v-9.6c-.7,1-1.4,1.9-2.2,2.6-.1-.2-.4-.5-.5-.7,1.7-1.6,3.3-3.9,4.3-6.4l.7.2ZM1186.1,190.4c.9,0,1-.7,1.1-3.4.2.2.5.3.7.4-.2,2.8-.4,3.8-1.9,3.8h-3c-1.4,0-1.8-.4-1.8-1.8v-3.3c-.8.5-1.6,1-2.4,1.4-.1-.2-.4-.4-.5-.5,1-.5,2-1.1,2.9-1.8v-7.5h.8v6.9c1.8-1.4,3.5-3.1,4.7-4.8l.7.4c-1.4,2-3.3,3.8-5.4,5.3v3.9c0,.8.2,1,1,1h3Z"/>
    <path d="M1169.9,180.9c-1,2.6-2.2,4.6-3.9,6.3,1.8,1.6,4,2.8,6.5,3.5-.2.2-.4.5-.5.7-2.6-.7-4.8-2-6.6-3.6-1.8,1.6-4,2.8-6.6,3.7,0-.2-.3-.5-.5-.7,2.6-.8,4.8-1.9,6.5-3.5-1.7-1.7-3-3.8-4-6.3h-2.4v-.7h13.8v.7h-2.5ZM1161.7,180.9c.9,2.2,2.1,4.2,3.7,5.7,1.5-1.5,2.7-3.4,3.6-5.7h-7.3ZM1165.6,180c-.2-.6-.8-1.7-1.3-2.4l.7-.2c.5.7,1.1,1.8,1.3,2.4l-.8.3Z"/>
    <path d="M1156.7,189.8v.7h-13.5v-.7h4.5v-12.3h.8v12.3h2.9v-12.2h.7v12.2h4.5ZM1145.9,186.5c-.4-1.3-1.4-3.6-2.3-5.2l.7-.2c.9,1.6,1.9,3.8,2.3,5.1l-.7.3ZM1156.3,181.5c-.8,1.7-1.9,3.8-2.8,5.2l-.6-.3c.9-1.4,2-3.6,2.7-5.2l.7.3Z"/>
    <path d="M1135.2,177.5c-.1.2-.2.4-.4.5,1.9,2.4,4.2,3.8,6.8,5.1-.2.1-.4.4-.5.6-2.5-1.3-4.7-2.8-6.7-5.1-1.6,2.1-4,4-6.6,5.1-.1-.2-.3-.4-.5-.6,2.9-1.2,5.7-3.5,7.2-5.9l.7.3ZM1135,190.2h6.2v.7h-13.1v-.7h2.1v-5.9h.7v5.9h3.4v-8.8h.8v3.8h4.7v.7h-4.7v4.3Z"/>
    <path d="M1115.9,177.5c-.3.8-.6,1.7-.8,2.3h2.7v9.9h-4.4v1.3h-.7v-11.2h1.7c.3-.7.6-1.8.7-2.5l.8.2ZM1117.1,180.5h-3.7v3.7h3.7v-3.7ZM1117.1,189.1v-4.2h-3.7v4.2h3.7ZM1125.4,180.3c-.3,7.2-.5,9.5-1.1,10.3-.3.3-.6.4-1.1.5-.5,0-1.4,0-2.2,0,0-.2-.1-.5-.2-.7,1,0,1.9,0,2.3,0s.5,0,.7-.2c.5-.6.8-3,1-9.6h-4.3c-.4,1.1-1,2.1-1.5,2.9-.1-.1-.5-.3-.6-.4,1.1-1.4,1.9-3.6,2.4-5.8l.7.2c-.2.8-.4,1.6-.7,2.4h4.8v.4ZM1122.4,187.2c-.5-.9-1.6-2.5-2.5-3.6l.6-.3c.9,1.1,2,2.6,2.5,3.5l-.6.4Z"/>
  </g>
  <g>
    <path class="st50" d="M1075.7,70.9c17.2,0,31.2-14,31.2-31.2s-14-31.2-31.2-31.2-31.2,14-31.2,31.2,14,31.2,31.2,31.2"/>
    <path class="st53" d="M1084.9,58.3v-4.9c-.6.2-1.3.3-2,.4-.5,0-1.1,0-1.6,0-2.8,0-3.6-1.1-3.6-5.2v-13.2h7.2v-4.6h-7.2v-10.3s-1.8,0-3.2.6c-1.4.5-2.7,2.1-2.7,4.1v5.6h-5.3v4.6h5.3v15c0,6.1,1.8,8.4,7.6,8.4s3.9-.3,5.5-.6"/>
    <path class="st22" d="M1079.8,78.2c18.8-2,33.6-17.4,34.6-36.5"/>
    <path class="st22" d="M1114.2,35.6c-2-18.8-17.4-33.6-36.5-34.6"/>
    <path class="st22" d="M1071.7,1.2c-18.8,2-33.6,17.4-34.6,36.5"/>
    <path class="st22" d="M1037.3,43.7c2,18.8,17.4,33.6,36.5,34.6"/>
    <path class="st15" d="M1075.7,78.4h0M1037.1,39.7h0M1075.7,1h0M1114.4,39.7h0"/>
    <path class="st18" d="M1224.8,227.2V49.2c0-6.3-5.2-11.3-11.5-11.3h-89.6"/>
    <line class="st12" x1="1075.9" y1="91.9" x2="1075.9" y2="253.9"/>
    <path class="st31" d="M1076.8,260.2c1.4,3.3,4.5,5.9,8.3,6.6"/>
    <line class="st38" x1="1091.3" y1="267" x2="1183" y2="267"/>
    <path class="st15" d="M1185.1,267h0M1087.2,267h0M1075.9,255.9h0M1075.9,87.9h0"/>
  </g>
</svg>