<?xml version="1.0" encoding="UTF-8"?>
<svg id="Layer_1" xmlns="http://www.w3.org/2000/svg" xmlns:xlink="http://www.w3.org/1999/xlink" version="1.1" viewBox="0 0 345.27 153.36">
  <!-- Generator: Adobe Illustrator 29.6.0, SVG Export Plug-In . SVG Version: 2.1.1 Build 207)  -->
  <defs>
    <style>
      .st0, .st1, .st2, .st3, .st4, .st5, .st6, .st7, .st8 {
        fill: none;
      }

      .st1, .st2, .st3, .st5, .st7 {
        stroke-linecap: round;
      }

      .st1, .st3, .st4, .st5, .st6, .st8 {
        stroke-miterlimit: 10;
      }

      .st1, .st5, .st6 {
        stroke-width: .5px;
      }

      .st1, .st6 {
        stroke: #009690;
      }

      .st2 {
        stroke-linejoin: round;
      }

      .st2, .st7 {
        stroke: #633169;
        stroke-width: 1.5px;
      }

      .st3, .st8 {
        stroke: #ee7003;
      }

      .st9 {
        fill: #009ee4;
      }

      .st10 {
        fill: #fff;
      }

      .st4 {
        stroke-width: .25px;
      }

      .st4, .st5 {
        stroke: #000;
      }

      .st5 {
        stroke-dasharray: .02 1;
      }

      .st11 {
        clip-path: url(#clippath);
      }
    </style>
    <clipPath id="clippath">
      <polygon class="st0" points="10.6 116.14 345.13 116.14 345.26 .34 10.63 .34 10.6 116.14"/>
    </clipPath>
  </defs>
  <g id="Key">
    <g>
      <g>
        <path d="M107.62,148.5h2.07v2.66c-.28.11-.57.2-.88.25-.31.06-.65.08-1.01.08-.91,0-1.6-.26-2.07-.78s-.71-1.24-.71-2.15c0-.58.12-1.09.35-1.53.23-.45.57-.79,1-1.04.44-.25.96-.38,1.58-.38.31,0,.61.03.89.09s.55.14.79.26l-.19.42c-.49-.23-.99-.34-1.52-.34s-.93.11-1.29.32-.64.51-.83.89-.29.82-.29,1.32c0,.82.2,1.45.61,1.88.41.43,1,.64,1.79.64.28,0,.52-.02.74-.06s.41-.09.59-.15v-1.95h-1.61v-.42h0Z"/>
        <path d="M111.44,151.42h-.46v-6.08h.46v6.08Z"/>
        <path d="M116.36,149.29c0,.44-.07.83-.22,1.16s-.36.59-.65.77c-.29.18-.63.28-1.04.28s-.73-.09-1.02-.27c-.28-.18-.5-.44-.65-.77s-.23-.72-.23-1.17c0-.69.17-1.23.52-1.62.34-.39.81-.58,1.41-.58.41,0,.75.09,1.03.28.28.18.49.44.64.77.14.33.22.72.22,1.16h0ZM113.02,149.29c0,.54.11.98.34,1.32s.59.5,1.08.5.86-.17,1.09-.5.35-.77.35-1.32c0-.35-.05-.66-.14-.94-.1-.27-.25-.49-.46-.64s-.48-.23-.82-.23c-.49,0-.85.16-1.09.48-.24.32-.36.76-.36,1.33h.01Z"/>
        <path d="M117.93,145.34v2.17c0,.18-.01.32-.02.42h.03c.11-.24.28-.44.52-.6s.55-.24.92-.24c.55,0,.98.19,1.28.56.3.37.46.92.46,1.64,0,.67-.15,1.21-.46,1.61s-.75.6-1.34.6c-.36,0-.65-.07-.88-.22-.23-.15-.39-.33-.5-.54h-.04l-.08.69h-.34v-6.08h.46-.01ZM119.32,147.47c-.5,0-.85.15-1.07.46-.22.31-.32.76-.32,1.34v.06c0,.58.1,1.01.31,1.32.21.3.55.45,1.02.45s.8-.16,1.04-.48.35-.77.35-1.36c0-1.2-.44-1.8-1.32-1.8h0Z"/>
        <path d="M123.74,147.09c.48,0,.84.12,1.07.35.23.23.35.61.35,1.11v2.86h-.34l-.09-.72h-.02c-.15.24-.34.43-.56.58s-.53.22-.93.22-.73-.1-.96-.3c-.24-.2-.36-.5-.36-.89,0-.42.17-.74.52-.97.34-.22.85-.35,1.52-.38l.78-.04v-.3c0-.42-.08-.72-.25-.89s-.42-.26-.74-.26c-.22,0-.43.03-.63.08-.2.06-.41.14-.61.24l-.14-.37c.2-.1.42-.18.66-.25.24-.06.49-.1.74-.1v.03ZM124.71,149.27l-.72.03c-.54.02-.95.11-1.22.28-.27.16-.4.41-.4.73,0,.26.08.46.25.6s.39.2.68.2c.44,0,.79-.12,1.03-.38.24-.25.37-.6.38-1.06v-.41h0Z"/>
        <path d="M126.94,151.42h-.46v-6.08h.46v6.08Z"/>
        <path d="M133.57,151.42h-3.14v-5.71h3.14v.42h-2.67v2.1h2.52v.41h-2.52v2.38h2.67v.42-.02Z"/>
        <path d="M137.65,153.3v-2.26c0-.16,0-.29.02-.4h-.03c-.11.25-.28.45-.53.61s-.56.24-.93.24c-.54,0-.96-.19-1.26-.56-.3-.37-.46-.92-.46-1.64,0-.67.15-1.21.46-1.62.3-.41.75-.61,1.34-.61.36,0,.66.08.88.23.23.15.39.34.5.55h.02l.06-.7h.37v6.14h-.45v.02ZM136.26,151.11c.49,0,.84-.15,1.06-.45s.33-.73.33-1.29v-.11c0-.59-.1-1.03-.32-1.33-.21-.3-.55-.45-1.03-.45s-.8.16-1.03.49-.34.77-.34,1.34.11,1.03.33,1.34.55.46,1,.46h0Z"/>
        <path d="M142.82,147.16v4.26h-.38l-.06-.73h-.02c-.12.23-.3.42-.54.58-.24.15-.54.23-.91.23-1,0-1.5-.52-1.5-1.55v-2.78h.46v2.75c0,.41.09.71.27.9.18.19.45.29.82.29.94,0,1.41-.54,1.41-1.62v-2.32h.46-.01Z"/>
        <path d="M144.42,145.58c.21,0,.32.12.32.34s-.11.35-.32.35-.3-.12-.3-.35.1-.34.3-.34ZM144.65,147.16v4.26h-.45v-4.26h.45Z"/>
        <path d="M147.21,151.11c.12,0,.23,0,.34-.03.11-.02.2-.04.28-.07v.37c-.09.03-.19.06-.3.08s-.24.03-.38.03c-.35,0-.62-.1-.82-.3s-.29-.52-.29-.96v-2.7h-.63v-.26l.63-.14.16-.98h.29v1.02h1.31v.37h-1.31v2.69c0,.6.24.9.72.9v-.02Z"/>
        <path d="M147.99,147.16h.49l1.02,2.65c.09.23.16.44.22.63.06.18.11.35.15.49h.02c.04-.12.09-.28.15-.47s.14-.41.22-.64l.99-2.66h.49l-1.92,5.02c-.14.37-.31.66-.51.87s-.46.31-.8.31c-.11,0-.2,0-.28-.02s-.16-.03-.23-.06v-.38c.14.05.29.07.46.07.22,0,.41-.07.55-.21s.27-.35.37-.63l.28-.72-1.67-4.24h0Z"/>
        <path d="M155.97,145.7c1.37,0,2.06.54,2.06,1.62,0,.55-.18.98-.53,1.29s-.91.47-1.65.47h-.83v2.34h-.46v-5.71h1.42,0ZM155.92,146.11h-.91v2.57h.78c.55,0,.99-.1,1.29-.29.31-.2.46-.54.46-1.04,0-.43-.13-.74-.4-.94-.26-.2-.67-.3-1.23-.3h0Z"/>
        <path d="M162.68,149.29c0,.44-.07.83-.22,1.16s-.36.59-.65.77c-.29.18-.63.28-1.04.28s-.73-.09-1.02-.27c-.28-.18-.5-.44-.65-.77s-.23-.72-.23-1.17c0-.69.17-1.23.52-1.62.34-.39.81-.58,1.41-.58.41,0,.75.09,1.03.28.28.18.49.44.64.77.14.33.22.72.22,1.16h-.01ZM159.34,149.29c0,.54.11.98.34,1.32s.59.5,1.08.5.86-.17,1.09-.5.35-.77.35-1.32c0-.35-.05-.66-.14-.94-.1-.27-.25-.49-.46-.64s-.48-.23-.82-.23c-.49,0-.85.16-1.09.48-.24.32-.36.76-.36,1.33h.01Z"/>
        <path d="M165.54,147.09c.22,0,.42.02.58.07l-.06.42c-.08-.02-.17-.04-.26-.05s-.18-.02-.27-.02c-.39,0-.71.14-.93.43s-.34.67-.34,1.14v2.34h-.46v-4.26h.38l.05.8h.02c.11-.24.27-.45.48-.62.22-.17.48-.26.8-.26h0Z"/>
        <path d="M168.11,151.11c.12,0,.23,0,.34-.03s.2-.04.28-.07v.37c-.08.03-.18.06-.3.08-.11.02-.24.03-.38.03-.35,0-.62-.1-.82-.3-.19-.2-.29-.52-.29-.96v-2.7h-.63v-.26l.63-.14.16-.98h.29v1.02h1.31v.37h-1.31v2.69c0,.6.24.9.72.9v-.02Z"/>
        <path d="M171.25,147.53h-1.02v3.89h-.46v-3.89h-.78v-.25l.78-.14v-.42c0-.49.11-.85.32-1.08s.53-.35.96-.35c.15,0,.29,0,.41.04.12.02.23.05.34.08l-.1.38c-.1-.03-.2-.06-.31-.08s-.22-.03-.33-.03c-.29,0-.5.08-.62.24-.13.16-.19.42-.19.79v.44h1.02v.37h-.02Z"/>
        <path d="M175.58,149.29c0,.44-.07.83-.22,1.16s-.36.59-.65.77c-.29.18-.63.28-1.04.28s-.73-.09-1.02-.27c-.28-.18-.5-.44-.65-.77s-.23-.72-.23-1.17c0-.69.17-1.23.52-1.62.34-.39.82-.58,1.41-.58.4,0,.75.09,1.03.28.28.18.49.44.64.77.14.33.22.72.22,1.16h-.01ZM172.25,149.29c0,.54.12.98.34,1.32.23.33.59.5,1.08.5s.86-.17,1.09-.5.35-.77.35-1.32c0-.35-.05-.66-.14-.94-.1-.27-.25-.49-.46-.64s-.48-.23-.82-.23c-.49,0-.85.16-1.09.48-.24.32-.36.76-.36,1.33h.01Z"/>
        <path d="M177.16,151.42h-.46v-6.08h.46v6.08Z"/>
        <path d="M178.74,145.58c.21,0,.32.12.32.34s-.11.35-.32.35-.3-.12-.3-.35.1-.34.3-.34ZM178.97,147.16v4.26h-.45v-4.26h.45Z"/>
        <path d="M183.89,149.29c0,.44-.07.83-.22,1.16s-.36.59-.65.77c-.29.18-.63.28-1.04.28s-.73-.09-1.02-.27c-.28-.18-.5-.44-.65-.77s-.23-.72-.23-1.17c0-.69.17-1.23.52-1.62.34-.39.82-.58,1.41-.58.41,0,.75.09,1.03.28.28.18.49.44.64.77.14.33.22.72.22,1.16h-.01ZM180.56,149.29c0,.54.12.98.34,1.32.23.33.59.5,1.08.5s.86-.17,1.09-.5.35-.77.35-1.32c0-.35-.05-.66-.14-.94-.1-.27-.25-.49-.46-.64s-.48-.23-.82-.23c-.49,0-.85.16-1.09.48-.24.32-.36.76-.36,1.33h.01Z"/>
        <path d="M185.89,148.75h-.26v-3.05s-.08.08-.12.11-.09.07-.15.12l-.47.35-.14-.19.91-.68h.22v3.33h0Z"/>
      </g>
      <line class="st3" x1="92.17" y1="148.56" x2="101.69" y2="148.56"/>
    </g>
    <g>
      <g>
        <path d="M15.73,151.42h-.46v-5.3h-1.84v-.42h4.14v.42h-1.84s0,5.3,0,5.3Z"/>
        <path d="M19.9,147.08c.36,0,.67.08.91.25s.43.4.55.69c.12.29.18.63.18,1.01v.32h-3.04c0,.56.13.99.39,1.29.26.3.64.45,1.13.45.27,0,.5-.02.7-.06s.41-.12.65-.22v.42c-.21.1-.42.17-.63.21-.21.04-.45.06-.73.06-.63,0-1.12-.19-1.46-.58s-.51-.92-.51-1.59c0-.43.07-.82.22-1.16s.36-.6.64-.8.61-.29,1.01-.29h0ZM19.89,147.46c-.39,0-.71.13-.95.39-.24.26-.39.63-.43,1.11h2.55c0-.45-.09-.81-.28-1.09s-.49-.42-.89-.42h0Z"/>
        <path d="M27.1,147.08c.42,0,.75.12.99.36s.36.62.36,1.14v2.84h-.45v-2.82c0-.38-.09-.67-.26-.85-.17-.18-.41-.27-.7-.27-.41,0-.72.12-.94.36s-.33.6-.33,1.1v2.48h-.45v-2.82c0-.38-.09-.67-.26-.85-.17-.18-.41-.27-.7-.27-.41,0-.72.12-.94.37s-.33.63-.33,1.15v2.42h-.45v-4.26h.37l.06.67h.03c.11-.21.27-.38.48-.53.22-.15.49-.22.83-.22.31,0,.57.07.78.2.21.13.36.33.45.6h.03c.12-.26.3-.45.54-.59.25-.14.53-.21.86-.21h.03Z"/>
        <path d="M31.27,147.09c.48,0,.84.12,1.07.35.23.23.35.61.35,1.11v2.86h-.34l-.09-.72h-.02c-.15.24-.34.43-.56.58s-.53.22-.93.22-.73-.1-.96-.3c-.24-.2-.36-.5-.36-.89,0-.42.17-.74.52-.97.34-.22.85-.35,1.52-.38l.78-.04v-.3c0-.42-.08-.72-.25-.89-.17-.17-.42-.26-.74-.26-.22,0-.43.03-.63.08-.2.06-.41.14-.61.24l-.14-.37c.2-.1.42-.18.66-.25.24-.06.49-.1.74-.1v.03ZM32.25,149.27l-.72.03c-.54.02-.95.11-1.22.28-.27.16-.4.41-.4.73,0,.26.08.46.25.6s.39.2.68.2c.44,0,.79-.12,1.03-.38.24-.25.37-.6.38-1.06v-.41h0Z"/>
        <path d="M36.69,150.29c0,.39-.14.69-.43.9-.29.21-.69.31-1.22.31-.3,0-.56-.03-.79-.08s-.42-.12-.57-.19v-.44c.19.1.4.17.64.24.24.06.49.09.74.09.42,0,.72-.07.9-.21s.28-.33.28-.58-.1-.42-.29-.54c-.19-.12-.49-.25-.88-.39-.26-.09-.49-.18-.69-.27-.2-.09-.36-.21-.47-.36s-.17-.35-.17-.6c0-.34.14-.61.42-.8s.65-.29,1.11-.29c.26,0,.49.03.72.08.22.05.42.11.6.19l-.16.38c-.17-.08-.35-.14-.56-.18s-.42-.07-.62-.07c-.34,0-.6.06-.78.18-.19.12-.28.29-.28.51,0,.17.05.31.14.4.09.1.22.18.39.26.17.07.38.15.62.24.25.09.48.18.68.27.21.1.37.22.49.37.12.15.18.35.18.6v-.02Z"/>
        <path d="M39.34,147.08c.36,0,.67.08.91.25s.43.4.55.69c.12.29.18.63.18,1.01v.32h-3.04c0,.56.13.99.39,1.29.26.3.64.45,1.13.45.27,0,.5-.02.7-.06s.41-.12.65-.22v.42c-.21.1-.42.17-.63.21-.21.04-.45.06-.73.06-.63,0-1.12-.19-1.46-.58s-.51-.92-.51-1.59c0-.43.07-.82.22-1.16s.36-.6.64-.8.61-.29,1.01-.29h-.01ZM39.33,147.46c-.39,0-.71.13-.95.39s-.39.63-.43,1.11h2.55c0-.45-.09-.81-.28-1.09s-.49-.42-.89-.42h0Z"/>
        <path d="M42.54,145.34v4.17h0c.07-.08.15-.18.24-.29s.17-.21.25-.29l1.62-1.76h.54l-1.68,1.82,1.82,2.43h-.54l-1.6-2.13-.64.66v1.47h-.45v-6.08h.45-.01Z"/>
        <path d="M49.57,145.7c1.37,0,2.06.54,2.06,1.62,0,.55-.18.98-.53,1.29s-.91.47-1.65.47h-.83v2.34h-.46v-5.71h1.42,0ZM49.52,146.11h-.91v2.57h.78c.55,0,.99-.1,1.29-.29.31-.2.46-.54.46-1.04,0-.43-.13-.74-.4-.94-.26-.2-.67-.3-1.23-.3h.01Z"/>
        <path d="M56.28,149.29c0,.44-.07.83-.22,1.16s-.36.59-.65.77c-.29.18-.63.28-1.04.28s-.73-.09-1.02-.27c-.28-.18-.5-.44-.65-.77s-.23-.72-.23-1.17c0-.69.17-1.23.52-1.62.34-.39.81-.58,1.41-.58.41,0,.75.09,1.03.28.28.18.49.44.64.77.14.33.22.72.22,1.16h0ZM52.94,149.29c0,.54.11.98.34,1.32s.59.5,1.08.5.86-.17,1.09-.5.35-.77.35-1.32c0-.35-.05-.66-.14-.94-.1-.27-.25-.49-.46-.64s-.48-.23-.82-.23c-.49,0-.85.16-1.09.48-.24.32-.36.76-.36,1.33h0Z"/>
        <path d="M59.14,147.09c.22,0,.42.02.58.07l-.06.42c-.09-.02-.17-.04-.26-.05-.09,0-.18-.02-.27-.02-.4,0-.71.14-.93.43s-.34.67-.34,1.14v2.34h-.46v-4.26h.38l.05.8h.02c.11-.24.27-.45.48-.62.22-.17.48-.26.8-.26h0Z"/>
        <path d="M61.71,151.11c.12,0,.23,0,.34-.03.11-.02.2-.04.28-.07v.37c-.09.03-.19.06-.3.08s-.24.03-.38.03c-.35,0-.62-.1-.82-.3s-.29-.52-.29-.96v-2.7h-.63v-.26l.63-.14.16-.98h.29v1.02h1.31v.37h-1.31v2.69c0,.6.24.9.72.9v-.02Z"/>
        <path d="M64.85,147.53h-1.02v3.89h-.46v-3.89h-.78v-.25l.78-.14v-.42c0-.49.1-.85.32-1.08.21-.23.53-.35.96-.35.15,0,.29,0,.41.04.12.02.23.05.34.08l-.1.38c-.1-.03-.2-.06-.31-.08s-.22-.03-.33-.03c-.29,0-.5.08-.62.24-.13.16-.19.42-.19.79v.44h1.02v.37h-.02Z"/>
        <path d="M69.18,149.29c0,.44-.07.83-.22,1.16s-.36.59-.65.77c-.29.18-.63.28-1.04.28s-.73-.09-1.02-.27c-.28-.18-.5-.44-.65-.77s-.23-.72-.23-1.17c0-.69.17-1.23.52-1.62.34-.39.81-.58,1.41-.58.41,0,.75.09,1.03.28.28.18.49.44.64.77.14.33.22.72.22,1.16h0ZM65.85,149.29c0,.54.11.98.34,1.32s.59.5,1.08.5.86-.17,1.09-.5.35-.77.35-1.32c0-.35-.05-.66-.14-.94-.1-.27-.25-.49-.46-.64s-.48-.23-.82-.23c-.49,0-.85.16-1.09.48-.24.32-.36.76-.36,1.33h.01Z"/>
        <path d="M70.76,151.42h-.46v-6.08h.46v6.08Z"/>
        <path d="M72.34,145.58c.21,0,.32.12.32.34s-.11.35-.32.35-.3-.12-.3-.35.1-.34.3-.34ZM72.57,147.16v4.26h-.45v-4.26h.45Z"/>
        <path d="M77.5,149.29c0,.44-.07.83-.22,1.16s-.36.59-.65.77c-.29.18-.63.28-1.04.28s-.73-.09-1.02-.27c-.28-.18-.5-.44-.65-.77s-.23-.72-.23-1.17c0-.69.17-1.23.52-1.62.34-.39.81-.58,1.41-.58.4,0,.75.09,1.03.28.28.18.49.44.64.77.14.33.21.72.21,1.16h0ZM74.16,149.29c0,.54.11.98.34,1.32.23.33.59.5,1.08.5s.86-.17,1.09-.5c.23-.33.35-.77.35-1.32,0-.35-.05-.66-.14-.94-.1-.27-.25-.49-.46-.64s-.48-.23-.82-.23c-.49,0-.85.16-1.09.48-.24.32-.36.76-.36,1.33h.01Z"/>
      </g>
      <line class="st7" x1=".75" y1="148.56" x2="9.84" y2="148.56"/>
    </g>
    <g>
      <g>
        <path d="M214.01,148.5h2.07v2.66c-.28.11-.57.2-.88.25-.31.06-.65.08-1.01.08-.91,0-1.6-.26-2.07-.78s-.71-1.23-.71-2.15c0-.58.12-1.09.35-1.53.23-.45.57-.79,1-1.04.44-.25.96-.38,1.58-.38.31,0,.61.03.89.09s.55.14.79.26l-.19.42c-.49-.23-.99-.34-1.52-.34s-.93.11-1.29.32-.64.51-.83.89c-.2.38-.29.82-.29,1.32,0,.82.2,1.45.61,1.88.41.43,1,.64,1.79.64.28,0,.52-.02.74-.06s.41-.09.59-.15v-1.95h-1.61v-.42h0Z"/>
        <path d="M217.83,151.42h-.46v-6.08h.46v6.08Z"/>
        <path d="M222.75,149.29c0,.44-.07.83-.22,1.16s-.36.59-.65.77-.63.28-1.04.28-.73-.09-1.02-.27c-.28-.18-.5-.44-.65-.77s-.23-.72-.23-1.17c0-.69.17-1.24.52-1.62.34-.39.81-.58,1.41-.58.41,0,.75.09,1.03.28.28.18.49.44.64.77.14.33.22.72.22,1.16h-.01ZM219.41,149.29c0,.54.11.98.34,1.32.23.33.59.5,1.08.5s.86-.17,1.09-.5.35-.77.35-1.32c0-.35-.05-.66-.14-.94-.1-.27-.25-.49-.46-.64s-.48-.23-.82-.23c-.49,0-.85.16-1.09.48-.24.32-.36.76-.36,1.33h.01Z"/>
        <path d="M224.32,145.34v2.17c0,.18,0,.32-.02.42h.03c.11-.24.28-.44.52-.6s.55-.24.92-.24c.55,0,.98.19,1.28.56s.46.92.46,1.64c0,.67-.15,1.21-.46,1.61-.31.4-.75.6-1.34.6-.36,0-.65-.08-.88-.22s-.39-.33-.5-.54h-.04l-.08.69h-.34v-6.08h.46-.01ZM225.71,147.47c-.5,0-.85.16-1.07.46-.22.31-.32.76-.32,1.34v.06c0,.58.1,1.01.31,1.32.21.3.55.45,1.02.45s.8-.16,1.04-.48c.23-.32.35-.77.35-1.36,0-1.2-.44-1.8-1.32-1.8h0Z"/>
        <path d="M230.12,147.09c.48,0,.84.12,1.07.35.23.24.35.61.35,1.11v2.86h-.34l-.09-.72h-.02c-.15.24-.34.43-.56.58-.22.15-.53.22-.93.22s-.73-.1-.96-.3c-.24-.2-.36-.5-.36-.89,0-.42.17-.74.52-.97.34-.22.85-.35,1.52-.38l.78-.04v-.3c0-.42-.08-.72-.25-.89s-.42-.26-.74-.26c-.22,0-.43.03-.63.08-.2.06-.41.14-.61.24l-.14-.37c.2-.1.42-.18.66-.25.24-.06.49-.1.74-.1v.03ZM231.1,149.27l-.72.03c-.54.02-.95.11-1.22.28-.27.16-.4.41-.4.73,0,.26.08.46.25.6s.39.2.68.2c.44,0,.79-.12,1.03-.38.24-.25.37-.6.38-1.06v-.41h0Z"/>
        <path d="M233.32,151.42h-.46v-6.08h.46v6.08Z"/>
        <path d="M236.82,145.71h1.58c.7,0,1.22.11,1.56.33s.5.57.5,1.06c0,.33-.1.61-.29.85-.19.24-.47.38-.82.45v.03c.42.06.73.21.95.43.22.22.32.54.32.94,0,.37-.08.67-.25.91s-.4.42-.7.54-.65.18-1.04.18h-1.81v-5.71h0ZM237.28,148.22h1.22c.52,0,.9-.09,1.13-.27.23-.18.35-.45.35-.81s-.12-.63-.38-.79-.65-.24-1.21-.24h-1.12v2.11h0ZM237.28,148.63v2.39h1.3c1.04,0,1.55-.42,1.55-1.25,0-.39-.13-.68-.4-.87-.26-.18-.67-.28-1.23-.28h-1.23,0Z"/>
        <path d="M245.3,149.29c0,.44-.07.83-.22,1.16s-.36.59-.65.77-.63.28-1.04.28-.73-.09-1.02-.27c-.28-.18-.5-.44-.65-.77s-.23-.72-.23-1.17c0-.69.17-1.24.52-1.62.34-.39.81-.58,1.41-.58.41,0,.75.09,1.03.28.28.18.49.44.64.77.14.33.22.72.22,1.16h-.01ZM241.96,149.29c0,.54.11.98.34,1.32.23.33.59.5,1.08.5s.86-.17,1.09-.5.35-.77.35-1.32c0-.35-.05-.66-.14-.94-.1-.27-.25-.49-.46-.64s-.48-.23-.82-.23c-.49,0-.85.16-1.09.48-.24.32-.36.76-.36,1.33h.01Z"/>
        <path d="M248.32,147.08c.49,0,.86.12,1.11.38.26.25.38.64.38,1.18v2.78h-.46v-2.75c0-.41-.09-.7-.28-.9-.18-.19-.45-.29-.81-.29-.94,0-1.41.54-1.41,1.62v2.32h-.45v-4.26h.37l.06.74h.03c.11-.23.29-.43.53-.58.24-.15.54-.23.91-.23h.02Z"/>
        <path d="M252.68,151.5c-.57,0-1.01-.18-1.32-.55s-.46-.9-.46-1.61.16-1.3.48-1.68c.32-.38.77-.58,1.33-.58.36,0,.65.08.87.23.22.16.39.35.5.58h.03c0-.13,0-.27-.02-.42,0-.15,0-.29,0-.41v-1.73h.46v6.08h-.37l-.06-.74h-.02c-.11.22-.28.42-.5.58s-.53.24-.9.24h0ZM252.73,151.1c.49,0,.84-.15,1.05-.45s.31-.73.31-1.29v-.08c0-.59-.1-1.04-.31-1.35-.21-.31-.55-.47-1.02-.47s-.8.16-1.04.48c-.23.32-.35.78-.35,1.38s.11,1.02.34,1.32c.22.3.57.45,1.02.45h0Z"/>
        <path d="M259.46,145.71c1.37,0,2.06.54,2.06,1.62,0,.55-.18.98-.53,1.29s-.91.47-1.65.47h-.83v2.34h-.46v-5.71h1.42-.01ZM259.41,146.11h-.91v2.57h.78c.55,0,.99-.1,1.29-.29.31-.19.46-.54.46-1.04,0-.43-.13-.74-.4-.94s-.67-.3-1.23-.3h.01Z"/>
        <path d="M266.17,149.29c0,.44-.07.83-.22,1.16s-.36.59-.65.77-.63.28-1.04.28-.73-.09-1.02-.27c-.28-.18-.5-.44-.65-.77s-.23-.72-.23-1.17c0-.69.17-1.24.52-1.62.34-.39.81-.58,1.41-.58.41,0,.75.09,1.03.28.28.18.49.44.64.77.14.33.22.72.22,1.16h-.01ZM262.84,149.29c0,.54.11.98.34,1.32.23.33.59.5,1.08.5s.86-.17,1.09-.5.35-.77.35-1.32c0-.35-.05-.66-.14-.94-.1-.27-.25-.49-.46-.64s-.48-.23-.82-.23c-.49,0-.85.16-1.09.48-.24.32-.36.76-.36,1.33h.01Z"/>
        <path d="M269.04,147.09c.22,0,.42.02.58.07l-.06.42c-.09-.02-.17-.04-.26-.05-.09,0-.18-.02-.27-.02-.39,0-.71.14-.93.43-.23.29-.34.67-.34,1.14v2.34h-.46v-4.26h.38l.05.8h.02c.11-.24.27-.45.48-.62s.48-.26.8-.26h.01Z"/>
        <path d="M271.6,151.11c.12,0,.23,0,.34-.03s.2-.04.28-.07v.37c-.08.03-.18.06-.3.08-.11.02-.24.03-.38.03-.35,0-.62-.1-.82-.3-.19-.2-.29-.52-.29-.96v-2.7h-.63v-.26l.63-.14.16-.98h.29v1.02h1.31v.37h-1.31v2.69c0,.6.24.9.72.9v-.02Z"/>
        <path d="M274.74,147.53h-1.02v3.89h-.46v-3.89h-.78v-.25l.78-.14v-.42c0-.49.11-.85.32-1.08.21-.23.53-.35.96-.35.15,0,.29,0,.41.04.12.02.23.05.34.08l-.1.38c-.1-.03-.2-.06-.31-.08s-.22-.03-.33-.03c-.29,0-.5.08-.62.24-.13.16-.19.43-.19.79v.44h1.02v.37h-.02Z"/>
        <path d="M279.07,149.29c0,.44-.07.83-.22,1.16s-.36.59-.65.77c-.29.18-.63.28-1.04.28s-.73-.09-1.02-.27c-.28-.18-.5-.44-.65-.77s-.23-.72-.23-1.17c0-.69.17-1.24.52-1.62.34-.39.82-.58,1.41-.58.41,0,.75.09,1.03.28.28.18.49.44.64.77.14.33.22.72.22,1.16h-.01ZM275.74,149.29c0,.54.12.98.34,1.32.23.33.59.5,1.08.5s.86-.17,1.09-.5.35-.77.35-1.32c0-.35-.05-.66-.14-.94-.1-.27-.25-.49-.46-.64s-.48-.23-.82-.23c-.49,0-.85.16-1.09.48-.24.32-.36.76-.36,1.33h.01Z"/>
        <path d="M280.65,151.42h-.46v-6.08h.46v6.08Z"/>
        <path d="M282.23,145.58c.21,0,.32.11.32.34s-.11.35-.32.35-.3-.12-.3-.35.1-.34.3-.34ZM282.46,147.16v4.26h-.45v-4.26h.45Z"/>
        <path d="M287.39,149.29c0,.44-.07.83-.22,1.16s-.36.59-.65.77c-.29.18-.63.28-1.04.28s-.73-.09-1.02-.27c-.28-.18-.5-.44-.65-.77s-.23-.72-.23-1.17c0-.69.17-1.24.52-1.62.34-.39.82-.58,1.41-.58.41,0,.75.09,1.03.28.28.18.49.44.64.77.14.33.22.72.22,1.16h-.01ZM284.05,149.29c0,.54.12.98.34,1.32.23.33.59.5,1.08.5s.86-.17,1.09-.5.35-.77.35-1.32c0-.35-.05-.66-.14-.94-.1-.27-.25-.49-.46-.64s-.48-.23-.82-.23c-.49,0-.85.16-1.09.48-.24.32-.36.76-.36,1.33h.01Z"/>
        <path d="M290.16,148.75h-2.11v-.22l.96-.99c.16-.16.29-.31.4-.44s.19-.26.25-.39.08-.28.08-.44c0-.21-.06-.37-.18-.48s-.29-.17-.49-.17c-.15,0-.29.03-.42.08s-.26.13-.39.23l-.14-.19c.14-.11.29-.2.45-.26s.33-.09.5-.09c.29,0,.51.08.69.24.17.16.26.37.26.64,0,.18-.03.34-.1.49s-.15.3-.27.44-.26.3-.42.46l-.83.85h1.77v.25h0Z"/>
      </g>
      <line class="st1" x1="198.34" y1="148.56" x2="208.35" y2="148.56"/>
    </g>
    <g>
      <path d="M31.14,133.52h1.98v2.8c-.31.1-.62.18-.94.22-.31.05-.67.07-1.07.07-.59,0-1.09-.12-1.5-.36s-.71-.58-.92-1.02c-.21-.44-.32-.96-.32-1.56s.12-1.11.35-1.55.57-.78,1.01-1.02.98-.36,1.6-.36c.32,0,.62.03.91.09s.55.14.8.25l-.27.62c-.2-.08-.43-.16-.68-.23-.25-.07-.52-.1-.79-.1-.68,0-1.21.21-1.6.62-.38.41-.57.97-.57,1.68,0,.45.07.85.22,1.2.15.35.38.62.69.82.31.2.73.29,1.24.29.25,0,.46,0,.64-.04s.34-.06.48-.1v-1.7h-1.26v-.64.02Z"/>
      <path d="M36.23,132.16c.36,0,.68.08.94.24s.47.39.61.68.21.63.21,1.02v.42h-2.94c0,.49.13.85.37,1.11.24.25.57.38,1,.38.27,0,.51-.03.72-.08s.43-.12.65-.22v.62c-.22.1-.43.17-.65.21-.21.04-.47.07-.76.07-.41,0-.77-.08-1.08-.25s-.55-.41-.72-.74c-.17-.33-.26-.73-.26-1.21s.08-.87.24-1.21.38-.59.66-.78.62-.27,1-.27h0ZM36.22,132.74c-.34,0-.6.11-.8.32-.2.22-.31.52-.35.9h2.18c0-.36-.09-.66-.26-.88-.17-.23-.43-.34-.78-.34h0Z"/>
      <path d="M42.98,134.38c0,.71-.18,1.26-.54,1.65s-.85.58-1.46.58c-.38,0-.72-.09-1.01-.26-.3-.17-.53-.43-.7-.76-.17-.33-.26-.74-.26-1.21,0-.71.18-1.26.53-1.64s.84-.58,1.46-.58c.38,0,.73.09,1.02.26.3.17.53.42.7.75s.25.73.25,1.2h0ZM39.74,134.38c0,.51.1.91.3,1.2.2.3.52.44.96.44s.75-.15.95-.44c.2-.3.3-.7.3-1.2s-.1-.9-.3-1.19-.52-.43-.96-.43-.75.14-.95.43-.3.69-.3,1.19Z"/>
      <path d="M48.91,132.16c.49,0,.85.13,1.09.38s.36.65.36,1.2v2.79h-.7v-2.76c0-.68-.29-1.02-.87-1.02-.42,0-.71.12-.89.36s-.27.59-.27,1.05v2.37h-.7v-2.76c0-.68-.29-1.02-.88-1.02-.43,0-.73.13-.9.4s-.25.65-.25,1.15v2.22h-.7v-4.29h.57l.1.58h.04c.13-.22.31-.39.54-.5s.47-.16.72-.16c.67,0,1.11.24,1.31.72h.04c.14-.25.34-.43.58-.54s.51-.18.79-.18h.02Z"/>
      <path d="M53.47,132.16c.36,0,.68.08.94.24s.47.39.61.68.21.63.21,1.02v.42h-2.94c0,.49.13.85.37,1.11.24.25.57.38,1,.38.27,0,.51-.03.72-.08s.43-.12.65-.22v.62c-.22.1-.43.17-.65.21-.21.04-.47.07-.76.07-.41,0-.77-.08-1.08-.25s-.55-.41-.72-.74c-.17-.33-.26-.73-.26-1.21s.08-.87.24-1.21.38-.59.66-.78.62-.27,1-.27h0ZM53.46,132.74c-.34,0-.6.11-.8.32-.2.22-.31.52-.35.9h2.18c0-.36-.09-.66-.26-.88-.17-.23-.43-.34-.78-.34h0Z"/>
      <path d="M57.93,136.04c.11,0,.22,0,.33-.02s.2-.04.27-.06v.54c-.07.04-.18.07-.32.09-.14.02-.27.04-.4.04-.22,0-.43-.04-.62-.12s-.34-.21-.46-.4c-.12-.19-.18-.46-.18-.81v-2.5h-.61v-.34l.62-.28.28-.91h.42v.98h1.24v.54h-1.24v2.48c0,.26.06.46.19.58s.29.19.48.19h0Z"/>
      <path d="M61.55,132.16c.08,0,.17,0,.26,0,.09,0,.17.02.25.04l-.09.65c-.07-.02-.15-.03-.23-.04-.09,0-.16-.02-.23-.02-.22,0-.42.06-.62.18-.19.12-.34.29-.46.5-.11.22-.17.47-.17.76v2.29h-.7v-4.29h.58l.08.78h.03c.13-.23.31-.44.53-.61.22-.17.48-.26.78-.26h-.01Z"/>
      <path d="M63.4,130.64c.11,0,.2.04.28.11.08.07.12.19.12.34s-.04.27-.12.34c-.08.07-.18.11-.28.11-.12,0-.22-.04-.3-.11-.08-.07-.12-.19-.12-.34s.04-.27.12-.34c.08-.07.18-.11.3-.11ZM63.74,132.24v4.29h-.7v-4.29h.7Z"/>
      <path d="M66.94,136.61c-.38,0-.72-.08-1.02-.23-.29-.16-.52-.39-.69-.72-.17-.33-.25-.74-.25-1.25s.09-.96.26-1.29c.17-.33.41-.57.72-.73s.65-.23,1.03-.23c.21,0,.42.02.63.07s.37.1.5.16l-.22.58c-.13-.05-.28-.09-.45-.14s-.33-.06-.48-.06c-.84,0-1.26.54-1.26,1.62,0,.52.1.91.31,1.19.21.27.51.41.92.41.23,0,.43-.02.62-.07s.35-.11.5-.18v.62c-.14.07-.3.13-.48.17-.17.04-.38.06-.63.06v.02Z"/>
      <path d="M72.81,130.82c.71,0,1.23.13,1.57.4s.51.68.51,1.22c0,.3-.06.56-.17.76s-.25.37-.43.49c-.17.12-.36.22-.55.28l1.57,2.56h-.84l-1.38-2.36h-1.14v2.36h-.72v-5.71h1.58,0ZM72.77,131.44h-.82v2.12h.86c.46,0,.8-.09,1.02-.28.21-.18.32-.45.32-.81s-.11-.64-.34-.8c-.22-.16-.57-.24-1.04-.24h0Z"/>
      <path d="M77.87,132.16c.36,0,.68.08.94.24s.47.39.61.68.21.63.21,1.02v.42h-2.94c.01.49.13.85.37,1.11.24.25.57.38,1,.38.27,0,.51-.03.72-.08s.43-.12.65-.22v.62c-.22.1-.43.17-.65.21-.21.04-.47.07-.76.07-.41,0-.77-.08-1.08-.25-.31-.17-.55-.41-.72-.74s-.26-.73-.26-1.21.08-.87.24-1.21.38-.59.66-.78.62-.27,1-.27h.01ZM77.86,132.74c-.34,0-.6.11-.8.32-.2.22-.31.52-.35.9h2.18c0-.36-.09-.66-.26-.88-.17-.23-.43-.34-.78-.34h.01Z"/>
      <path d="M82.33,136.04c.11,0,.22,0,.33-.02s.2-.04.27-.06v.54c-.07.04-.18.07-.32.09-.14.02-.27.04-.4.04-.22,0-.43-.04-.62-.12s-.34-.21-.46-.4c-.12-.19-.18-.46-.18-.81v-2.5h-.61v-.34l.62-.28.28-.91h.42v.98h1.24v.54h-1.24v2.48c0,.26.06.46.19.58s.29.19.48.19h0Z"/>
      <path d="M87.54,132.24v4.29h-.58l-.1-.57h-.03c-.14.22-.33.39-.58.49s-.51.16-.78.16c-.52,0-.91-.12-1.17-.37-.26-.25-.39-.64-.39-1.19v-2.81h.71v2.76c0,.68.32,1.02.95,1.02.47,0,.8-.13.99-.4.18-.27.28-.65.28-1.15v-2.23h.7Z"/>
      <path d="M90.99,132.16c.08,0,.17,0,.26,0,.09,0,.17.02.25.04l-.09.65c-.07-.02-.15-.03-.23-.04-.09,0-.16-.02-.23-.02-.22,0-.42.06-.62.18-.19.12-.34.29-.46.5-.11.22-.17.47-.17.76v2.29h-.7v-4.29h.58l.08.78h.03c.13-.23.31-.44.53-.61s.48-.26.78-.26h-.01Z"/>
      <path d="M94.55,132.16c.51,0,.9.13,1.16.38s.39.65.39,1.2v2.79h-.7v-2.74c0-.69-.32-1.03-.96-1.03-.47,0-.8.13-.98.4-.18.27-.27.65-.27,1.15v2.22h-.7v-4.29h.57l.1.58h.04c.14-.22.33-.39.58-.5s.5-.16.78-.16h-.01Z"/>
      <path d="M100.34,135.35c0,.42-.15.73-.46.94s-.73.32-1.25.32c-.3,0-.56-.02-.77-.07-.22-.05-.41-.11-.57-.2v-.64c.17.09.38.16.62.24.24.07.49.11.74.11.36,0,.62-.06.78-.17.16-.11.24-.27.24-.46,0-.11-.03-.2-.09-.29-.06-.08-.16-.17-.32-.26-.15-.08-.37-.18-.65-.29s-.51-.21-.71-.32-.35-.24-.46-.38c-.11-.15-.16-.34-.16-.58,0-.36.15-.64.44-.84.3-.2.68-.3,1.16-.3.26,0,.51.03.73.08.23.05.44.12.64.21l-.24.56c-.18-.08-.37-.14-.57-.19s-.4-.08-.61-.08c-.29,0-.51.05-.66.14s-.23.22-.23.38c0,.12.03.22.1.3s.19.16.35.24c.16.08.38.17.65.27.27.1.5.21.7.31.19.11.34.24.44.39.1.15.15.34.15.57h0Z"/>
      <path d="M103.1,134.34c0-.65.09-1.28.28-1.88s.49-1.15.89-1.64h.66c-.37.5-.66,1.05-.84,1.66-.19.6-.28,1.22-.28,1.86s.09,1.23.28,1.82c.19.59.47,1.14.84,1.64h-.66c-.41-.47-.7-1-.89-1.6-.19-.59-.28-1.21-.28-1.86Z"/>
      <path d="M108.35,131.37c-.61,0-1.1.21-1.45.62-.35.41-.53.97-.53,1.69s.16,1.27.49,1.68.82.62,1.48.62c.25,0,.48-.02.7-.06.22-.04.45-.1.66-.16v.62c-.21.08-.43.14-.66.18s-.5.06-.81.06c-.58,0-1.07-.12-1.46-.36s-.68-.58-.88-1.02-.29-.96-.29-1.56.1-1.08.32-1.52c.21-.44.52-.78.93-1.03s.91-.37,1.5-.37,1.13.11,1.58.34l-.29.61c-.18-.08-.37-.15-.59-.22-.22-.06-.45-.1-.71-.1v-.02Z"/>
      <path d="M114.62,134.38c0,.71-.18,1.26-.54,1.65s-.85.58-1.46.58c-.38,0-.72-.09-1.01-.26-.3-.17-.53-.43-.7-.76s-.26-.74-.26-1.21c0-.71.18-1.26.53-1.64s.84-.58,1.46-.58c.38,0,.73.09,1.02.26.3.17.53.42.7.75s.25.73.25,1.2h.01ZM111.38,134.38c0,.51.1.91.3,1.2.2.3.52.44.96.44s.75-.15.95-.44c.2-.3.3-.7.3-1.2s-.1-.9-.3-1.19-.52-.43-.96-.43-.75.14-.95.43-.3.69-.3,1.19Z"/>
      <path d="M120.55,132.16c.49,0,.85.13,1.09.38s.36.65.36,1.2v2.79h-.7v-2.76c0-.68-.29-1.02-.87-1.02-.42,0-.71.12-.89.36s-.27.59-.27,1.05v2.37h-.7v-2.76c0-.68-.29-1.02-.88-1.02-.43,0-.73.13-.9.4s-.25.65-.25,1.15v2.22h-.7v-4.29h.57l.1.58h.04c.13-.22.31-.39.54-.5s.47-.16.72-.16c.67,0,1.11.24,1.31.72h.04c.14-.25.34-.43.58-.54s.51-.18.79-.18h.02Z"/>
      <path d="M125.47,132.16c.53,0,.95.18,1.28.55.32.37.48.92.48,1.66s-.16,1.29-.48,1.66c-.32.38-.75.57-1.28.57-.33,0-.6-.06-.82-.18s-.38-.27-.51-.44h-.05c0,.09.01.21.03.34.01.14.02.26.02.36v1.76h-.7v-6.21h.58l.1.58h.03c.13-.19.3-.34.5-.47s.49-.19.83-.19h0ZM125.35,132.76c-.44,0-.75.12-.93.37s-.27.62-.28,1.12v.14c0,.53.09.93.26,1.22.17.29.5.43.96.43.26,0,.47-.07.64-.21s.3-.34.38-.59.12-.54.12-.86c0-.49-.09-.88-.28-1.18-.19-.29-.48-.44-.88-.44h0Z"/>
      <path d="M132.25,134.38c0,.71-.18,1.26-.54,1.65s-.85.58-1.46.58c-.38,0-.72-.09-1.01-.26-.3-.17-.53-.43-.7-.76s-.26-.74-.26-1.21c0-.71.18-1.26.53-1.64s.84-.58,1.46-.58c.38,0,.73.09,1.02.26.3.17.53.42.7.75s.25.73.25,1.2h0ZM129.01,134.38c0,.51.1.91.3,1.2.2.3.52.44.96.44s.75-.15.95-.44c.2-.3.3-.7.3-1.2s-.1-.9-.3-1.19-.52-.43-.96-.43-.75.14-.95.43-.3.69-.3,1.19Z"/>
      <path d="M137.07,132.24v4.29h-.58l-.1-.57h-.03c-.14.22-.33.39-.58.49s-.51.16-.78.16c-.52,0-.91-.12-1.17-.37s-.39-.64-.39-1.19v-2.81h.71v2.76c0,.68.32,1.02.95,1.02.47,0,.8-.13.99-.4.18-.27.28-.65.28-1.15v-2.23h.7Z"/>
      <path d="M140.59,132.16c.51,0,.9.13,1.16.38.26.25.39.65.39,1.2v2.79h-.7v-2.74c0-.69-.32-1.03-.96-1.03-.47,0-.8.13-.98.4-.18.27-.27.65-.27,1.15v2.22h-.7v-4.29h.57l.1.58h.04c.14-.22.33-.39.58-.5s.5-.16.78-.16h-.01Z"/>
      <path d="M145.12,136.61c-.53,0-.96-.19-1.28-.56-.32-.37-.48-.92-.48-1.66s.16-1.29.48-1.67c.32-.38.75-.56,1.28-.56.33,0,.6.06.81.18.21.12.38.27.52.45h.05c0-.07-.02-.17-.03-.31s-.02-.24-.02-.32v-1.71h.7v6.08h-.57l-.1-.58h-.03c-.13.18-.3.34-.51.46-.21.13-.49.19-.82.19h0ZM145.23,136.03c.45,0,.77-.12.96-.37.18-.25.28-.62.28-1.12v-.13c0-.53-.09-.94-.26-1.23-.18-.29-.5-.43-.98-.43-.38,0-.66.15-.85.45s-.28.71-.28,1.21.09.91.28,1.19.48.42.86.42h-.01Z"/>
      <path d="M150.3,132.16c.36,0,.68.08.94.24s.47.39.61.68.21.63.21,1.02v.42h-2.94c0,.49.13.85.37,1.11.24.25.57.38,1,.38.27,0,.51-.03.72-.08s.43-.12.65-.22v.62c-.22.1-.43.17-.65.21-.21.04-.47.07-.76.07-.41,0-.77-.08-1.08-.25s-.55-.41-.72-.74-.26-.73-.26-1.21.08-.87.24-1.21.38-.59.66-.78.62-.27,1-.27h0ZM150.29,132.74c-.34,0-.6.11-.8.32-.2.22-.31.52-.35.9h2.18c0-.36-.09-.66-.26-.88-.17-.23-.43-.34-.78-.34h.01Z"/>
      <path d="M154.84,136.61c-.53,0-.96-.19-1.28-.56-.32-.37-.48-.92-.48-1.66s.16-1.29.48-1.67c.32-.38.75-.56,1.28-.56.33,0,.6.06.81.18.21.12.38.27.52.45h.05c0-.07-.02-.17-.03-.31s-.02-.24-.02-.32v-1.71h.7v6.08h-.57l-.1-.58h-.03c-.13.18-.3.34-.51.46-.21.13-.49.19-.82.19h0ZM154.95,136.03c.45,0,.77-.12.96-.37.18-.25.28-.62.28-1.12v-.13c0-.53-.09-.94-.26-1.23-.18-.29-.5-.43-.98-.43-.38,0-.66.15-.85.45s-.28.71-.28,1.21.09.91.28,1.19.48.42.86.42h-.01Z"/>
      <path d="M164,136.53l-.69-1.77h-2.26l-.68,1.77h-.73l2.23-5.74h.65l2.22,5.74h-.74ZM163.09,134.12l-.64-1.73s-.04-.12-.08-.23c-.04-.11-.07-.23-.11-.35s-.06-.21-.08-.28c-.04.17-.09.33-.13.48-.05.16-.08.28-.12.37l-.65,1.73h1.81Z"/>
      <path d="M167.76,132.16c.51,0,.9.13,1.16.38.26.25.39.65.39,1.2v2.79h-.7v-2.74c0-.69-.32-1.03-.96-1.03-.47,0-.8.13-.98.4-.18.27-.27.65-.27,1.15v2.22h-.7v-4.29h.57l.1.58h.04c.14-.22.33-.39.58-.5s.5-.16.78-.16h-.01Z"/>
      <path d="M172.81,132.16c.51,0,.9.13,1.16.38.26.25.39.65.39,1.2v2.79h-.7v-2.74c0-.69-.32-1.03-.96-1.03-.47,0-.8.13-.98.4-.18.27-.27.65-.27,1.15v2.22h-.7v-4.29h.57l.1.58h.04c.14-.22.33-.39.58-.5s.5-.16.78-.16h-.01Z"/>
      <path d="M179.37,132.24v4.29h-.58l-.1-.57h-.03c-.14.22-.33.39-.58.49s-.51.16-.78.16c-.52,0-.91-.12-1.17-.37s-.39-.64-.39-1.19v-2.81h.71v2.76c0,.68.32,1.02.95,1.02.47,0,.8-.13.99-.4.18-.27.28-.65.28-1.15v-2.23h.7Z"/>
      <path d="M182.44,132.17c.52,0,.91.11,1.16.34s.38.59.38,1.1v2.92h-.51l-.14-.61h-.03c-.19.23-.38.41-.59.52s-.49.17-.85.17c-.39,0-.71-.1-.97-.31s-.38-.53-.38-.96.17-.76.5-.99c.34-.23.85-.36,1.55-.38l.73-.02v-.26c0-.36-.08-.61-.23-.74s-.37-.21-.66-.21c-.22,0-.44.03-.64.1s-.39.14-.57.23l-.22-.53c.19-.1.41-.19.66-.26s.52-.11.8-.11h0ZM183.28,134.44l-.63.02c-.53.02-.9.11-1.11.26s-.31.36-.31.63c0,.24.07.42.22.53s.33.17.56.17c.36,0,.66-.1.9-.3.24-.2.36-.51.36-.92v-.38h.01Z"/>
      <path d="M186.11,136.53h-.7v-6.08h.7v6.08Z"/>
      <path d="M187.93,130.64c.11,0,.2.04.28.11s.12.19.12.34-.04.27-.12.34c-.08.07-.18.11-.28.11-.12,0-.22-.04-.3-.11s-.12-.19-.12-.34.04-.27.12-.34c.08-.07.18-.11.3-.11ZM188.27,132.24v4.29h-.7v-4.29h.7Z"/>
      <path d="M192.54,135.35c0,.42-.15.73-.46.94-.31.21-.73.32-1.25.32-.3,0-.56-.02-.77-.07-.22-.05-.41-.11-.57-.2v-.64c.17.09.38.16.62.24.24.07.49.11.74.11.36,0,.62-.06.78-.17s.24-.27.24-.46c0-.11-.03-.2-.09-.29-.06-.08-.16-.17-.32-.26-.15-.08-.37-.18-.65-.29s-.51-.21-.71-.32c-.2-.11-.35-.24-.46-.38-.11-.15-.16-.34-.16-.58,0-.36.15-.64.44-.84.3-.2.68-.3,1.16-.3.26,0,.51.03.73.08.23.05.44.12.64.21l-.24.56c-.18-.08-.37-.14-.57-.19-.2-.05-.4-.08-.61-.08-.29,0-.51.05-.66.14-.15.09-.23.22-.23.38,0,.12.03.22.1.3s.19.16.35.24.38.17.65.27c.27.1.5.21.7.31.19.11.34.24.44.39s.15.34.15.57h.01Z"/>
      <path d="M195.4,132.16c.36,0,.68.08.94.24s.47.39.61.68.21.63.21,1.02v.42h-2.94c0,.49.13.85.37,1.11.24.25.57.38,1,.38.27,0,.51-.03.72-.08s.43-.12.65-.22v.62c-.22.1-.43.17-.65.21-.21.04-.47.07-.76.07-.41,0-.77-.08-1.08-.25s-.55-.41-.72-.74-.26-.73-.26-1.21.08-.87.24-1.21.38-.59.66-.78.62-.27,1-.27h0ZM195.39,132.74c-.34,0-.6.11-.8.32-.2.22-.31.52-.35.9h2.18c0-.36-.09-.66-.26-.88-.17-.23-.43-.34-.78-.34h.01Z"/>
      <path d="M199.93,136.61c-.53,0-.96-.19-1.28-.56-.32-.37-.48-.92-.48-1.66s.16-1.29.48-1.67c.32-.38.75-.56,1.28-.56.33,0,.6.06.81.18.21.12.38.27.52.45h.05c0-.07-.02-.17-.03-.31s-.02-.24-.02-.32v-1.71h.7v6.08h-.57l-.1-.58h-.03c-.13.18-.3.34-.51.46-.21.13-.49.19-.82.19h0ZM200.04,136.03c.45,0,.77-.12.96-.37.18-.25.28-.62.28-1.12v-.13c0-.53-.09-.94-.26-1.23-.18-.29-.5-.43-.98-.43-.38,0-.66.15-.85.45s-.28.71-.28,1.21.09.91.28,1.19.48.42.86.42h-.01Z"/>
      <path d="M204.85,134.34c0,.65-.09,1.26-.28,1.86s-.49,1.13-.89,1.6h-.66c.37-.5.65-1.05.84-1.64s.28-1.2.28-1.82-.09-1.25-.28-1.86-.47-1.15-.84-1.66h.66c.41.49.7,1.03.89,1.64s.28,1.23.28,1.88Z"/>
      <path d="M209.56,132.17c.52,0,.91.11,1.16.34s.38.59.38,1.1v2.92h-.51l-.14-.61h-.03c-.19.23-.38.41-.59.52s-.49.17-.85.17c-.39,0-.71-.1-.97-.31s-.38-.53-.38-.96.17-.76.5-.99c.34-.23.85-.36,1.55-.38l.73-.02v-.26c0-.36-.08-.61-.23-.74s-.37-.21-.66-.21c-.22,0-.44.03-.64.1s-.39.14-.57.23l-.22-.53c.19-.1.41-.19.66-.26s.52-.11.8-.11h0ZM210.4,134.44l-.63.02c-.53.02-.9.11-1.11.26s-.31.36-.31.63c0,.24.07.42.22.53s.33.17.56.17c.36,0,.66-.1.9-.3.24-.2.36-.51.36-.92v-.38h.01Z"/>
      <path d="M214,136.04c.11,0,.22,0,.33-.02s.2-.04.27-.06v.54c-.07.04-.18.07-.32.09-.14.02-.27.04-.4.04-.22,0-.43-.04-.62-.12s-.34-.21-.46-.4c-.12-.19-.18-.46-.18-.81v-2.5h-.61v-.34l.62-.28.28-.91h.42v.98h1.24v.54h-1.24v2.48c0,.26.06.46.19.58s.29.19.48.19h0Z"/>
      <path d="M218.97,136.04c.11,0,.22,0,.33-.02s.2-.04.27-.06v.54c-.07.04-.18.07-.32.09-.14.02-.27.04-.4.04-.22,0-.43-.04-.62-.12s-.34-.21-.46-.4c-.12-.19-.18-.46-.18-.81v-2.5h-.61v-.34l.62-.28.28-.91h.42v.98h1.24v.54h-1.24v2.48c0,.26.06.46.19.58s.29.19.48.19h0Z"/>
      <path d="M221.29,130.45v1.78c0,.21,0,.41-.04.6h.05c.14-.22.33-.38.56-.5.24-.11.49-.17.77-.17.52,0,.91.12,1.17.37s.4.65.4,1.2v2.79h-.7v-2.74c0-.69-.32-1.03-.96-1.03-.48,0-.81.13-.99.4-.18.27-.27.66-.27,1.16v2.22h-.7v-6.08h.71Z"/>
      <path d="M227.31,132.16c.36,0,.68.08.94.24s.47.39.61.68.21.63.21,1.02v.42h-2.94c0,.49.13.85.37,1.11.24.25.57.38,1,.38.27,0,.51-.03.72-.08s.43-.12.65-.22v.62c-.22.1-.43.17-.65.21-.21.04-.47.07-.76.07-.41,0-.77-.08-1.08-.25s-.55-.41-.72-.74-.26-.73-.26-1.21.08-.87.24-1.21.38-.59.66-.78.62-.27,1-.27h0ZM227.3,132.74c-.34,0-.6.11-.8.32-.2.22-.31.52-.35.9h2.18c0-.36-.09-.66-.26-.88-.17-.23-.43-.34-.78-.34h.01Z"/>
      <path d="M235.53,136.53h-3.19v-5.71h3.19v.63h-2.47v1.78h2.33v.62h-2.33v2.04h2.47v.63h0Z"/>
      <path d="M238.81,132.16c.51,0,.9.13,1.16.38.26.25.39.65.39,1.2v2.79h-.7v-2.74c0-.69-.32-1.03-.96-1.03-.47,0-.8.13-.98.4-.18.27-.27.65-.27,1.15v2.22h-.7v-4.29h.57l.1.58h.04c.14-.22.33-.39.58-.5s.5-.16.78-.16h-.01Z"/>
      <path d="M243.34,136.61c-.53,0-.96-.19-1.28-.56-.32-.37-.48-.92-.48-1.66s.16-1.29.48-1.67.75-.56,1.28-.56c.33,0,.6.06.81.18.21.12.38.27.52.45h.05c0-.07-.02-.17-.03-.31s-.02-.24-.02-.32v-1.71h.7v6.08h-.57l-.1-.58h-.03c-.13.18-.3.34-.51.46-.21.13-.49.19-.82.19h0ZM243.45,136.03c.45,0,.77-.12.96-.37.18-.25.28-.62.28-1.12v-.13c0-.53-.09-.94-.26-1.23s-.5-.43-.98-.43c-.38,0-.66.15-.85.45s-.28.71-.28,1.21.09.91.28,1.19.48.42.86.42h-.01Z"/>
      <path d="M252.55,134.38c0,.71-.18,1.26-.54,1.65s-.85.58-1.46.58c-.38,0-.72-.09-1.01-.26s-.53-.43-.7-.76-.26-.74-.26-1.21c0-.71.18-1.26.53-1.64s.84-.58,1.46-.58c.38,0,.73.09,1.02.26.3.17.53.42.7.75s.25.73.25,1.2h0ZM249.31,134.38c0,.51.1.91.3,1.2.2.3.52.44.96.44s.75-.15.95-.44c.2-.3.3-.7.3-1.2s-.1-.9-.3-1.19c-.2-.29-.52-.43-.96-.43s-.75.14-.95.43-.3.69-.3,1.19Z"/>
      <path d="M255.76,132.79h-1.08v3.74h-.7v-3.74h-.75v-.33l.75-.24v-.25c0-.55.12-.95.36-1.2s.58-.36,1.03-.36c.17,0,.32,0,.46.04.14.03.27.06.37.1l-.18.55c-.09-.03-.18-.05-.3-.08-.11-.03-.23-.04-.34-.04-.23,0-.41.08-.52.24s-.17.4-.17.74v.28h1.08v.54h-.01Z"/>
      <path d="M262.09,136.53h-3.78v-.58l1.5-1.51c.28-.29.52-.54.72-.77.2-.22.35-.44.45-.66.1-.21.15-.45.15-.71,0-.31-.09-.55-.28-.72-.19-.16-.43-.24-.73-.24-.28,0-.53.05-.74.14s-.42.23-.64.4l-.38-.47c.22-.19.48-.34.77-.48.29-.13.62-.2.98-.2.53,0,.95.14,1.26.41s.46.64.46,1.11c0,.3-.06.58-.18.84s-.29.52-.51.78-.47.52-.77.81l-1.19,1.18v.03h2.89v.64h.02Z"/>
      <path d="M266.79,133.67c0,.62-.06,1.15-.19,1.58-.13.44-.33.77-.61,1.01-.28.23-.65.35-1.1.35-.64,0-1.12-.26-1.43-.78s-.46-1.24-.46-2.16c0-.62.06-1.15.19-1.58.12-.44.33-.77.6-1,.28-.23.64-.35,1.1-.35.64,0,1.12.26,1.43.77.32.51.47,1.24.47,2.16h0ZM263.7,133.67c0,.78.09,1.37.27,1.76s.48.58.92.58.73-.19.92-.58c.18-.39.28-.97.28-1.76s-.09-1.36-.28-1.75c-.18-.39-.49-.58-.92-.58s-.74.2-.92.58c-.18.39-.27.97-.27,1.75Z"/>
      <path d="M267.96,134.7v-.62h1.94v.62h-1.94Z"/>
      <path d="M270.39,132.24h.75l.93,2.44c.08.22.15.42.22.62.06.19.11.38.14.55h.03c.03-.13.08-.31.15-.52.07-.22.14-.43.22-.65l.87-2.43h.76l-1.85,4.88c-.15.41-.35.73-.58.97-.23.24-.56.36-.98.36-.13,0-.24,0-.34-.02-.1,0-.18-.03-.25-.04v-.56c.06,0,.13.02.21.03s.17.02.26.02c.25,0,.44-.07.59-.21s.27-.32.36-.55l.22-.57-1.73-4.3.02-.02Z"/>
      <path d="M276.9,132.16c.36,0,.68.08.94.24.27.16.47.39.61.68.14.29.21.63.21,1.02v.42h-2.94c.01.49.13.85.37,1.11.24.25.57.38,1,.38.27,0,.51-.03.72-.08s.43-.12.65-.22v.62c-.22.1-.44.17-.65.21-.21.04-.47.07-.76.07-.41,0-.77-.08-1.08-.25s-.55-.41-.72-.74-.26-.73-.26-1.21.08-.87.24-1.21.38-.59.66-.78.62-.27,1-.27h.01ZM276.89,132.74c-.34,0-.6.11-.8.32s-.31.52-.35.9h2.18c0-.36-.09-.66-.26-.88-.16-.23-.43-.34-.78-.34h.01Z"/>
      <path d="M281.49,132.17c.52,0,.91.11,1.16.34s.38.59.38,1.1v2.92h-.51l-.14-.61h-.03c-.19.23-.38.41-.59.52s-.49.17-.85.17c-.39,0-.71-.1-.97-.31s-.38-.53-.38-.96.17-.76.5-.99c.34-.23.85-.36,1.55-.38l.73-.02v-.26c0-.36-.08-.61-.23-.74s-.37-.21-.66-.21c-.22,0-.44.03-.64.1s-.39.14-.57.23l-.22-.53c.19-.1.41-.19.66-.26s.52-.11.8-.11h.01ZM282.33,134.44l-.63.02c-.53.02-.9.11-1.11.26s-.31.36-.31.63c0,.24.07.42.22.53s.33.17.56.17c.36,0,.66-.1.9-.3s.37-.51.37-.92v-.38h0Z"/>
      <path d="M286.46,132.16c.08,0,.17,0,.26,0s.17.02.25.04l-.09.65c-.07-.02-.15-.03-.23-.04-.08,0-.16-.02-.23-.02-.22,0-.42.06-.62.18s-.35.29-.46.5-.17.47-.17.76v2.29h-.7v-4.29h.58l.08.78h.03c.13-.23.31-.44.53-.61s.48-.26.78-.26h0Z"/>
      <path d="M291.45,130.82c.75,0,1.29.15,1.63.44.34.29.51.71.51,1.24,0,.32-.07.61-.21.88-.14.27-.38.5-.71.67s-.79.26-1.36.26h-.66v2.22h-.72v-5.71h1.52ZM291.39,131.44h-.73v2.26h.58c.54,0,.95-.09,1.22-.26.27-.18.4-.47.4-.9,0-.37-.12-.64-.36-.82-.24-.18-.61-.27-1.11-.27h0Z"/>
      <path d="M296.39,132.16c.36,0,.68.08.94.24.27.16.47.39.61.68.14.29.21.63.21,1.02v.42h-2.94c.01.49.13.85.37,1.11.24.25.57.38,1,.38.27,0,.51-.03.72-.08s.43-.12.65-.22v.62c-.22.1-.43.17-.65.21-.21.04-.47.07-.76.07-.41,0-.77-.08-1.08-.25s-.55-.41-.72-.74-.26-.73-.26-1.21.08-.87.24-1.21.38-.59.66-.78c.29-.18.62-.27,1-.27h.01ZM296.39,132.74c-.34,0-.6.11-.8.32-.2.22-.31.52-.35.9h2.18c0-.36-.09-.66-.26-.88-.17-.23-.43-.34-.78-.34h.01Z"/>
      <path d="M301.38,132.16c.08,0,.17,0,.26,0s.17.02.25.04l-.09.65c-.07-.02-.15-.03-.23-.04s-.16-.02-.23-.02c-.22,0-.42.06-.62.18s-.35.29-.46.5c-.12.22-.17.47-.17.76v2.29h-.7v-4.29h.58l.08.78h.03c.13-.23.31-.44.53-.61s.48-.26.78-.26h0Z"/>
      <path d="M303.23,130.64c.11,0,.2.04.29.11.08.07.12.19.12.34s-.04.27-.12.34c-.08.07-.18.11-.29.11-.12,0-.21-.04-.29-.11-.08-.07-.12-.19-.12-.34s.04-.27.12-.34c.08-.07.18-.11.29-.11ZM303.58,132.24v4.29h-.7v-4.29h.7Z"/>
      <path d="M308.78,134.38c0,.71-.18,1.26-.54,1.65-.36.39-.85.58-1.46.58-.38,0-.72-.09-1.01-.26s-.53-.43-.7-.76-.26-.74-.26-1.21c0-.71.18-1.26.53-1.64s.84-.58,1.46-.58c.38,0,.73.09,1.02.26.3.17.53.42.7.75s.25.73.25,1.2h.01ZM305.54,134.38c0,.51.1.91.3,1.2.2.3.52.44.96.44s.75-.15.95-.44c.2-.3.3-.7.3-1.2s-.1-.9-.3-1.19c-.2-.29-.52-.43-.96-.43s-.75.14-.95.43-.3.69-.3,1.19Z"/>
      <path d="M311.58,136.61c-.53,0-.96-.19-1.28-.56s-.48-.92-.48-1.66.16-1.29.48-1.67.75-.56,1.28-.56c.33,0,.6.06.81.18s.38.27.52.45h.05c-.01-.07-.02-.17-.03-.31,0-.14-.02-.24-.02-.32v-1.71h.71v6.08h-.57l-.1-.58h-.03c-.13.18-.3.34-.51.46-.21.13-.49.19-.82.19h0ZM311.69,136.03c.45,0,.77-.12.96-.37s.28-.62.28-1.12v-.13c0-.53-.09-.94-.26-1.23s-.5-.43-.98-.43c-.38,0-.66.15-.85.45s-.28.71-.28,1.21.09.91.28,1.19.48.42.86.42h0Z"/>
      <path d="M316.7,134.34c0-.65.09-1.28.28-1.88s.49-1.15.89-1.64h.66c-.37.5-.66,1.05-.84,1.66s-.28,1.22-.28,1.86.09,1.23.28,1.82.47,1.14.84,1.64h-.66c-.41-.47-.7-1-.89-1.6s-.28-1.21-.28-1.86Z"/>
      <path d="M320.46,130.74c.39,0,.69.16.89.47.21.31.31.75.31,1.32s-.1,1.01-.29,1.32c-.2.32-.5.48-.91.48-.38,0-.67-.16-.87-.48s-.3-.76-.3-1.32.09-1,.28-1.32c.19-.31.48-.47.89-.47h0ZM320.46,131.24c-.2,0-.35.11-.44.32-.09.22-.14.54-.14.96s.05.75.14.97c.09.22.24.33.44.33.41,0,.62-.43.62-1.3s-.21-1.29-.62-1.29h0ZM324.12,130.82l-3.17,5.71h-.62l3.17-5.71h.62ZM323.96,133.03c.39,0,.69.16.89.47.21.31.31.75.31,1.32s-.1,1.01-.29,1.32c-.2.32-.5.48-.91.48-.38,0-.67-.16-.87-.48s-.3-.76-.3-1.32.09-1,.28-1.32c.19-.31.48-.47.89-.47h0ZM323.96,133.53c-.2,0-.35.11-.44.32s-.14.53-.14.96.05.76.14.97.24.32.44.32c.41,0,.62-.43.62-1.3s-.21-1.28-.62-1.28h0Z"/>
      <path d="M327.53,134.34c0,.65-.1,1.26-.29,1.86s-.49,1.13-.89,1.6h-.66c.37-.5.65-1.05.84-1.64s.28-1.2.28-1.82-.09-1.25-.28-1.86-.47-1.15-.84-1.66h.66c.41.49.7,1.03.89,1.64s.29,1.23.29,1.88Z"/>
    </g>
  </g>
  <g id="dot_line">
    <line class="st5" x1="177.89" y1=".34" x2="177.89" y2="116.13"/>
  </g>
  <g id="_x32_024_A">
    <g class="st11">
      <g>
        <path class="st6" d="M162.21,115.76c.8-.05,8.95,7.94,10.55-.71,3.52-19.06,7.03-111.9,10.55-113.63,3.52-1.73,7.03,84.2,10.55,103.26,1.87,10.12,10.74,11.59,10.74,11.59"/>
        <path class="st9" d="M188.79,66.88c1.69-3.07,3.37-4.92,5.06-3.91,3.52,2.1,7.03,20.56,10.55,28.64,3.52,8.08,7.03,15.8,10.55,19.85,2.1,2.42,4.2,3.25,6.3,3.69l.06.04c-2.12-.21-4.24-.69-6.36-2.5-3.52-3-7.03-8.14-10.55-15.13-3.52-6.98-7.03-22.28-10.55-26.77-1.7-2.17-3.4-3.53-5.1-3.75l.04-.16h0Z"/>
        <path class="st8" d="M151.66,116.55c1.76-.14,7.03.54,10.55-1.6s7.03-4.58,10.55-11.97c3.52-7.38,7.03-26.97,10.55-32.34,3.52-5.36,7.03-4.34,10.55.15s7.03,19.79,10.55,26.77,7.03,12.13,10.55,15.13,7.03,2.34,10.55,2.86,19.99.55,21.75.59"/>
        <path class="st2" d="M130.7,116.67c.92-.02,8.55-.32,16.11-.35,6.89-.03,12.87-.1,15.4-.55,4.41-.79,7.43-.24,10.55-5.77,3.49-6.18,7.14-23.06,10.55-30.95,3.66-8.48,6.94-18.23,10.55-16.07s7.02,20.56,10.53,28.64c3.52,8.08,6.94,15.91,10.56,19.86,2.64,2.87,7,3.78,10.58,4.22,2.88.36,7,.47,10.52.53s30.34.44,32.1.44"/>
      </g>
    </g>
  </g>
  <g id="Axis">
    <g>
      <path d="M.37,90.4c0-.71.13-1.23.4-1.57.27-.34.68-.51,1.22-.51.3,0,.56.06.76.17s.37.25.49.43.22.36.28.55l2.56-1.57v.84l-2.36,1.38v1.14h2.36v.72H.37v-1.58H.37ZM.99,90.44v.82h2.12v-.86c0-.46-.09-.8-.28-1.02-.18-.21-.45-.32-.81-.32s-.64.11-.8.34c-.16.22-.24.57-.24,1.04h.01Z"/>
      <path d="M1.71,85.5c0-.36.08-.68.24-.94s.39-.47.68-.61c.29-.14.63-.21,1.02-.21h.42v2.94c.49,0,.85-.13,1.11-.37s.38-.57.38-1c0-.27-.03-.51-.08-.72-.05-.21-.12-.43-.22-.65h.62c.1.22.17.43.21.65.04.21.07.47.07.76,0,.41-.08.77-.25,1.08s-.41.55-.74.72-.73.26-1.21.26-.87-.08-1.21-.24-.59-.38-.78-.66c-.18-.29-.27-.62-.27-1h0ZM2.29,85.51c0,.34.11.6.32.8.22.2.52.31.9.35v-2.18c-.36,0-.66.09-.88.26-.23.17-.34.43-.34.78h0Z"/>
      <path d="M6.08,81.96v.7H0v-.7h6.08Z"/>
      <path d="M1.72,79.04c0-.52.11-.91.34-1.16s.59-.38,1.1-.38h2.92v.51l-.61.14v.03c.23.19.41.38.52.59s.17.49.17.85c0,.39-.1.71-.31.97s-.53.38-.96.38-.76-.17-.99-.5-.36-.85-.38-1.55l-.02-.73h-.26c-.36,0-.61.08-.74.23s-.21.37-.21.66c0,.22.03.44.1.64s.14.39.23.57l-.53.22c-.1-.19-.19-.41-.26-.66-.07-.26-.11-.52-.11-.8h0ZM3.99,78.2l.02.63c.02.53.11.9.26,1.11s.36.31.63.31c.24,0,.42-.07.53-.22.11-.15.17-.33.17-.56,0-.36-.1-.66-.3-.9-.2-.24-.51-.36-.92-.36h-.39Z"/>
      <path d="M5.59,74.75c0-.11,0-.22-.02-.33s-.04-.2-.06-.27h.54c.04.07.07.18.09.32s.04.27.04.4c0,.22-.04.43-.12.62s-.21.34-.4.46-.46.18-.81.18h-2.5v.61h-.34l-.28-.62-.91-.28v-.42h.98v-1.24h.54v1.24h2.48c.26,0,.46-.06.58-.19.13-.12.19-.29.19-.48Z"/>
      <path d="M.19,72.93c0-.11.04-.2.11-.28s.19-.12.34-.12.27.04.34.12.11.18.11.28c0,.12-.04.22-.11.3s-.19.12-.34.12-.27-.04-.34-.12c-.07-.08-.11-.18-.11-.3ZM1.79,72.59h4.29v.7H1.79v-.7Z"/>
      <path d="M6.08,70.2l-4.29,1.62v-.75l2.53-.91c.12-.04.25-.09.39-.14s.28-.09.42-.13.24-.06.33-.08v-.03c-.09-.02-.2-.04-.33-.09-.14-.04-.27-.09-.42-.14-.14-.05-.27-.09-.39-.14l-2.53-.91v-.75l4.29,1.63v.81h0Z"/>
      <path d="M1.71,65.48c0-.36.08-.68.24-.94s.39-.47.68-.61c.29-.14.63-.21,1.02-.21h.42v2.94c.49-.01.85-.13,1.11-.37s.38-.57.38-1c0-.27-.03-.51-.08-.72-.05-.21-.12-.43-.22-.65h.62c.1.22.17.43.21.65.04.21.07.47.07.76,0,.41-.08.77-.25,1.08-.17.31-.41.55-.74.72s-.73.26-1.21.26-.87-.08-1.21-.24-.59-.38-.78-.66c-.18-.29-.27-.62-.27-1h0ZM2.29,65.48c0,.34.11.6.32.8.22.2.52.31.9.35v-2.18c-.36,0-.66.09-.88.26-.23.17-.34.43-.34.78h0Z"/>
      <path d="M6.08,60.76H.37v-.72h5.07v-2.5h.64v3.22Z"/>
      <path d="M.19,56.29c0-.11.04-.2.11-.28s.19-.12.34-.12.27.04.34.12.11.18.11.28c0,.12-.04.22-.11.3s-.19.12-.34.12-.27-.04-.34-.12c-.07-.08-.11-.18-.11-.3ZM1.79,55.95h4.29v.7H1.79v-.7Z"/>
      <path d="M0,53.95h3.18c.08,0,.2,0,.34.01s.26.01.36.02v-.03s-.1-.08-.18-.14c-.08-.06-.16-.13-.24-.2s-.15-.12-.2-.17l-1.45-1.37v-.82l1.83,1.74,2.46-1.86v.85l-2,1.49.42.49h1.58v.7H0v-.7H0Z"/>
      <path d="M1.71,48.93c0-.36.08-.68.24-.94s.39-.47.68-.61c.29-.14.63-.21,1.02-.21h.42v2.94c.49-.01.85-.13,1.11-.37s.38-.57.38-1c0-.27-.03-.51-.08-.72-.05-.21-.12-.43-.22-.65h.62c.1.22.17.43.21.65.04.21.07.47.07.76,0,.41-.08.77-.25,1.08-.17.31-.41.55-.74.72s-.73.26-1.21.26-.87-.08-1.21-.24-.59-.38-.78-.66c-.18-.29-.27-.62-.27-1h0ZM2.29,48.94c0,.34.11.6.32.8.22.2.52.31.9.35v-2.18c-.36,0-.66.09-.88.26-.23.17-.34.43-.34.78h0Z"/>
      <path d="M6.08,45.39v.7H0v-.7h6.08Z"/>
      <path d="M.19,43.73c0-.11.04-.2.11-.28s.19-.12.34-.12.27.04.34.12.11.18.11.28c0,.12-.04.22-.11.3s-.19.12-.34.12-.27-.04-.34-.12c-.07-.08-.11-.18-.11-.3ZM1.79,43.39h4.29v.7H1.79v-.7Z"/>
      <path d="M0,41.39h1.78c.21,0,.41.01.6.04v-.05c-.22-.14-.38-.33-.5-.56-.11-.24-.17-.49-.17-.77,0-.52.12-.91.37-1.17.25-.26.65-.4,1.2-.4h2.79v.7h-2.74c-.69,0-1.03.32-1.03.96,0,.48.13.81.4.99s.65.27,1.16.27h2.22v.7H0v-.7H0Z"/>
      <path d="M3.93,33.46c.71,0,1.26.18,1.65.54s.58.85.58,1.46c0,.38-.09.72-.26,1.01-.17.3-.43.53-.76.7-.33.17-.74.26-1.21.26-.71,0-1.26-.18-1.64-.53s-.58-.84-.58-1.46c0-.38.09-.73.26-1.02.17-.29.42-.53.75-.7s.73-.25,1.2-.25h0ZM3.93,36.7c.51,0,.91-.1,1.2-.3.3-.2.44-.52.44-.96s-.15-.75-.44-.95c-.3-.2-.7-.3-1.2-.3s-.9.1-1.19.3c-.29.2-.43.52-.43.96s.14.75.43.95.69.3,1.19.3Z"/>
      <path d="M3.93,28.63c.71,0,1.26.18,1.65.54s.58.85.58,1.46c0,.38-.09.72-.26,1.01-.17.3-.43.53-.76.7-.33.17-.74.26-1.21.26-.71,0-1.26-.18-1.64-.53s-.58-.84-.58-1.46c0-.38.09-.73.26-1.02.17-.29.42-.53.75-.7s.73-.25,1.2-.25h0ZM3.93,31.87c.51,0,.91-.1,1.2-.3.3-.2.44-.52.44-.96s-.15-.75-.44-.95c-.3-.2-.7-.3-1.2-.3s-.9.1-1.19.3c-.29.2-.43.52-.43.96s.14.75.43.95.69.3,1.19.3Z"/>
      <path d="M6.16,25.99c0,.53-.19.96-.56,1.28s-.92.48-1.66.48-1.29-.16-1.67-.48-.56-.75-.56-1.28c0-.33.06-.6.18-.81.12-.21.27-.38.45-.52v-.05c-.07.01-.17.02-.31.03-.14.01-.24.02-.32.02H0v-.7h6.08v.57l-.58.1v.03c.18.13.34.3.46.51.13.21.19.49.19.82h0ZM5.58,25.88c0-.45-.12-.77-.37-.96-.25-.18-.62-.28-1.12-.28h-.13c-.53,0-.94.09-1.23.26-.29.18-.43.5-.43.98,0,.38.15.66.45.85s.71.28,1.21.28.91-.09,1.19-.28.42-.48.42-.86h0Z"/>
    </g>
    <g>
      <path d="M10.77,123.38v-.55h1.69v.55h-1.69Z"/>
      <path d="M14.16,124.99l-1.42-3.75h.66l.8,2.21c.04.1.08.22.12.34s.08.25.11.36c.03.12.06.21.07.29h.03c.01-.07.04-.17.08-.29s.08-.24.12-.36.08-.24.12-.34l.8-2.21h.66l-1.43,3.75h-.72Z"/>
      <path d="M18.26,121.16c.32,0,.59.07.83.21.23.14.41.34.54.59.12.25.19.55.19.89v.37h-2.57c0,.42.12.75.33.97s.5.33.87.33c.24,0,.45-.02.63-.07.18-.04.37-.11.57-.19v.54c-.19.08-.38.15-.57.19-.19.04-.41.06-.67.06-.36,0-.67-.07-.94-.22-.27-.14-.48-.36-.63-.64s-.23-.64-.23-1.06.07-.76.21-1.06.33-.52.58-.68.54-.24.87-.24h-.01ZM18.25,121.67c-.29,0-.53.09-.7.28s-.27.45-.3.79h1.91c0-.32-.08-.58-.22-.77-.15-.2-.37-.3-.69-.3h0Z"/>
    </g>
    <path d="M179.54,122.38c0,.54-.06,1-.17,1.39s-.29.68-.54.88c-.25.21-.57.31-.96.31-.56,0-.98-.23-1.25-.68-.27-.46-.4-1.09-.4-1.89,0-.54.06-1,.17-1.39.11-.38.29-.68.53-.88.24-.2.56-.3.96-.3.56,0,.98.23,1.25.68s.41,1.08.41,1.89h0ZM176.84,122.38c0,.69.08,1.2.23,1.54s.42.51.8.51.64-.17.8-.51.24-.85.24-1.54-.08-1.19-.24-1.53-.43-.51-.8-.51-.65.17-.8.51-.23.85-.23,1.53Z"/>
    <g>
      <path d="M336.3,122.27h1.39v.5h-1.39v1.44h-.5v-1.44h-1.39v-.5h1.39v-1.45h.5v1.45Z"/>
      <path d="M339.49,124.99l-1.42-3.75h.66l.8,2.21c.04.1.08.22.12.34s.08.25.11.36c.03.12.06.21.07.29h.03c.01-.07.04-.17.08-.29.04-.12.08-.24.12-.36s.08-.24.12-.34l.8-2.21h.66l-1.43,3.75h-.72Z"/>
      <path d="M343.59,121.16c.32,0,.59.07.83.21.23.14.41.34.54.59.12.25.19.55.19.89v.37h-2.57c0,.42.12.75.33.97s.5.33.87.33c.24,0,.45-.02.63-.07s.37-.11.57-.19v.54c-.19.08-.38.15-.57.19-.19.04-.41.06-.67.06-.36,0-.67-.07-.95-.22-.27-.14-.48-.36-.63-.64s-.23-.64-.23-1.06.07-.76.21-1.06.33-.52.58-.68c.25-.16.54-.24.87-.24h0ZM343.58,121.67c-.29,0-.53.09-.7.28s-.27.45-.3.79h1.91c0-.32-.08-.58-.22-.77s-.37-.3-.69-.3h0Z"/>
    </g>
    <line class="st4" x1="136.07" y1="116.03" x2="136.07" y2="118.21"/>
    <line class="st4" x1="94.26" y1="116.03" x2="94.26" y2="118.21"/>
    <line class="st4" x1="52.44" y1="116.03" x2="52.44" y2="118.21"/>
    <line class="st4" x1="177.88" y1="116.03" x2="177.88" y2="118.21"/>
    <line class="st4" x1="219.7" y1="116.03" x2="219.7" y2="118.21"/>
    <line class="st4" x1="261.51" y1="116.03" x2="261.51" y2="118.21"/>
    <line class="st4" x1="303.32" y1="116.03" x2="303.32" y2="118.21"/>
    <polyline class="st4" points="10.63 0 10.63 116.13 345.26 116.13 345.14 116.13 345.14 118.21"/>
    <line class="st4" x1="10.63" x2="10.63" y2="118.21"/>
  </g>
  <g id="speech">
    <rect class="st9" x="225.33" y="9.76" width="98.67" height="36.41"/>
    <polygon id="purple_speech" class="st9" points="225.33 46.17 249.73 46.17 197.1 71.28 225.33 46.17"/>
    <g>
      <path class="st10" d="M235.37,21.5h-.72v-2.66h-2.93v2.66h-.72v-5.71h.72v2.42h2.93v-2.42h.72v5.71Z"/>
      <path class="st10" d="M237.3,15.6c.11,0,.2.04.28.11s.12.19.12.34-.04.27-.12.34-.18.11-.28.11c-.12,0-.22-.04-.3-.11s-.12-.18-.12-.34.04-.27.12-.34.18-.11.3-.11ZM237.65,17.21v4.29h-.7v-4.29s.7,0,.7,0Z"/>
      <path class="st10" d="M240.64,17.13c.28,0,.54.05.76.16s.42.27.58.49h.04l.1-.57h.56v4.36c0,.61-.16,1.07-.47,1.38s-.8.46-1.45.46-1.14-.09-1.54-.27v-.65c.42.22.95.34,1.58.34.37,0,.66-.11.87-.32s.32-.51.32-.88v-.45c0-.12,0-.2.02-.25h-.03c-.29.43-.73.65-1.33.65-.55,0-.99-.19-1.3-.58s-.47-.93-.47-1.63.16-1.23.47-1.63.74-.6,1.29-.6h0ZM240.74,17.72c-.36,0-.63.14-.83.43s-.3.69-.3,1.22.1.93.29,1.21c.19.28.48.42.86.42.43,0,.75-.12.94-.35.2-.23.3-.61.3-1.12v-.17c0-.58-.1-1-.3-1.26s-.52-.38-.95-.38h0Z"/>
      <path class="st10" d="M244.84,15.42v1.78c0,.21,0,.41-.04.6h.05c.14-.22.33-.38.56-.5.24-.11.49-.17.77-.17.52,0,.91.12,1.17.37s.4.65.4,1.2v2.79h-.7v-2.74c0-.69-.32-1.03-.96-1.03-.48,0-.81.13-.99.4s-.27.66-.27,1.16v2.22h-.7v-6.08h.71Z"/>
      <path class="st10" d="M250.85,17.13c.36,0,.68.08.94.24s.47.39.61.68.21.63.21,1.02v.42h-2.94c0,.49.13.85.37,1.11.24.25.57.38,1,.38.27,0,.51-.03.72-.08.21-.05.43-.12.65-.22v.62c-.22.1-.43.17-.65.21-.21.05-.47.07-.76.07-.41,0-.77-.08-1.08-.25s-.55-.41-.72-.74-.26-.73-.26-1.21.08-.87.24-1.21.38-.59.66-.78c.29-.18.62-.27,1-.27h0ZM250.85,17.71c-.34,0-.6.11-.8.32s-.31.52-.35.9h2.18c0-.36-.09-.66-.26-.88s-.43-.34-.78-.34h.01Z"/>
      <path class="st10" d="M255.84,17.13c.08,0,.17,0,.26,0,.09,0,.17.02.25.04l-.09.65c-.07-.02-.15-.03-.23-.04s-.16-.02-.23-.02c-.22,0-.42.06-.62.18-.19.12-.35.29-.46.5-.12.22-.17.47-.17.76v2.29h-.7v-4.29h.58l.08.78h.03c.13-.23.31-.44.53-.61.22-.17.48-.26.78-.26h0Z"/>
      <path class="st10" d="M259.93,21.5h-.7v-6.08h.7v6.08Z"/>
      <path class="st10" d="M261.75,15.6c.11,0,.2.04.28.11s.12.19.12.34-.04.27-.12.34-.18.11-.28.11c-.12,0-.22-.04-.3-.11s-.12-.18-.12-.34.04-.27.12-.34.18-.11.3-.11ZM262.09,17.21v4.29h-.7v-4.29s.7,0,.7,0Z"/>
      <path class="st10" d="M264.24,15.42v3.18c0,.09,0,.2-.01.34,0,.14-.01.26-.02.36h.03s.08-.1.14-.18c.06-.08.13-.16.2-.24s.12-.15.17-.2l1.37-1.45h.82l-1.74,1.83,1.86,2.46h-.85l-1.49-2-.49.42v1.58h-.7v-6.08h.7v-.02Z"/>
      <path class="st10" d="M269.43,17.13c.36,0,.68.08.94.24s.47.39.61.68c.14.29.21.63.21,1.02v.42h-2.94c.01.49.13.85.37,1.11.24.25.57.38,1,.38.27,0,.51-.03.72-.08.21-.05.43-.12.65-.22v.62c-.22.1-.43.17-.65.21-.21.05-.47.07-.76.07-.41,0-.77-.08-1.08-.25s-.55-.41-.72-.74-.26-.73-.26-1.21.08-.87.24-1.21.38-.59.66-.78c.29-.18.62-.27,1-.27h.01ZM269.42,17.71c-.34,0-.6.11-.8.32s-.31.52-.35.9h2.18c0-.36-.09-.66-.26-.88s-.43-.34-.78-.34h.01Z"/>
      <path class="st10" d="M273.13,21.5h-.7v-6.08h.7v6.08Z"/>
      <path class="st10" d="M274.94,15.6c.11,0,.2.04.28.11s.12.19.12.34-.04.27-.12.34-.18.11-.28.11c-.12,0-.22-.04-.3-.11s-.12-.18-.12-.34.04-.27.12-.34.18-.11.3-.11ZM275.29,17.21v4.29h-.7v-4.29s.7,0,.7,0Z"/>
      <path class="st10" d="M277.45,15.42v1.78c0,.21-.01.41-.04.6h.05c.14-.22.33-.38.56-.5.24-.11.49-.17.77-.17.52,0,.91.12,1.17.37s.4.65.4,1.2v2.79h-.7v-2.74c0-.69-.32-1.03-.96-1.03-.48,0-.81.13-.99.4s-.27.66-.27,1.16v2.22h-.7v-6.08h.71Z"/>
      <path class="st10" d="M285.54,19.35c0,.71-.18,1.26-.54,1.65s-.85.58-1.46.58c-.38,0-.72-.09-1.01-.26-.3-.17-.53-.43-.7-.76-.17-.33-.26-.74-.26-1.21,0-.71.18-1.26.53-1.64s.84-.58,1.46-.58c.38,0,.72.09,1.02.26s.53.42.7.75.25.73.25,1.2h.01ZM282.3,19.35c0,.51.1.91.3,1.2.2.3.52.44.96.44s.75-.15.95-.44c.2-.3.3-.7.3-1.2s-.1-.9-.3-1.19c-.2-.29-.52-.43-.96-.43s-.75.14-.95.43-.3.69-.3,1.19Z"/>
      <path class="st10" d="M290.53,19.35c0,.71-.18,1.26-.54,1.65-.36.39-.85.58-1.46.58-.38,0-.72-.09-1.01-.26-.3-.17-.53-.43-.7-.76-.17-.33-.26-.74-.26-1.21,0-.71.18-1.26.53-1.64s.84-.58,1.46-.58c.38,0,.73.09,1.02.26.3.17.53.42.7.75s.25.73.25,1.2h.01ZM287.29,19.35c0,.51.1.91.3,1.2s.52.44.96.44.75-.15.95-.44c.2-.3.3-.7.3-1.2s-.1-.9-.3-1.19c-.2-.29-.52-.43-.96-.43s-.75.14-.95.43-.3.69-.3,1.19Z"/>
      <path class="st10" d="M293.33,21.58c-.53,0-.96-.19-1.28-.56-.32-.37-.48-.92-.48-1.66s.16-1.29.48-1.67c.32-.38.75-.56,1.28-.56.33,0,.6.06.81.18s.38.27.52.45h.05c-.01-.07-.02-.17-.03-.31s-.02-.24-.02-.32v-1.71h.7v6.08h-.57l-.1-.58h-.03c-.13.18-.3.34-.51.46-.21.13-.49.19-.82.19h0ZM293.44,20.99c.45,0,.77-.12.96-.37.18-.25.28-.62.28-1.12v-.13c0-.53-.09-.94-.26-1.23-.18-.29-.5-.43-.98-.43-.38,0-.66.15-.85.45s-.28.71-.28,1.21.09.91.28,1.19.48.42.86.42h0Z"/>
      <path class="st10" d="M302.54,19.35c0,.71-.18,1.26-.54,1.65-.36.39-.85.58-1.46.58-.38,0-.72-.09-1.01-.26-.3-.17-.53-.43-.7-.76-.17-.33-.26-.74-.26-1.21,0-.71.18-1.26.53-1.64s.84-.58,1.46-.58c.38,0,.73.09,1.02.26.3.17.53.42.7.75s.25.73.25,1.2h.01ZM299.3,19.35c0,.51.1.91.3,1.2s.52.44.96.44.75-.15.95-.44c.2-.3.3-.7.3-1.2s-.1-.9-.3-1.19c-.2-.29-.52-.43-.96-.43s-.75.14-.95.43-.3.69-.3,1.19Z"/>
      <path class="st10" d="M305.74,17.75h-1.08v3.74h-.7v-3.74h-.75v-.33l.75-.24v-.25c0-.55.12-.95.36-1.2.24-.24.58-.36,1.03-.36.17,0,.32,0,.46.04.14.03.27.06.37.1l-.18.55c-.09-.03-.18-.05-.3-.08-.11-.03-.23-.04-.34-.04-.24,0-.41.08-.52.24-.12.16-.17.4-.17.74v.28h1.08v.54h0Z"/>
      <path class="st10" d="M231.71,24.92v1.78c0,.21,0,.41-.04.6h.05c.14-.22.33-.38.56-.5.24-.11.5-.17.77-.17.52,0,.91.12,1.17.37s.4.65.4,1.2v2.79h-.7v-2.74c0-.69-.32-1.03-.96-1.03-.48,0-.81.13-.99.4s-.27.66-.27,1.16v2.22h-.7v-6.08h.71Z"/>
      <path class="st10" d="M236.4,25.1c.11,0,.2.04.28.11s.12.19.12.34-.04.27-.12.34-.18.11-.28.11c-.12,0-.22-.04-.3-.11s-.12-.18-.12-.34.04-.27.12-.34.18-.11.3-.11ZM236.75,26.71v4.29h-.7v-4.29h.7Z"/>
      <path class="st10" d="M239.74,26.63c.28,0,.54.05.76.16s.42.27.58.49h.04l.1-.57h.56v4.36c0,.61-.16,1.07-.47,1.38s-.8.46-1.45.46-1.14-.09-1.54-.27v-.65c.42.22.95.34,1.58.34.37,0,.66-.11.87-.32.21-.22.32-.51.32-.88v-.45c0-.12,0-.2.02-.25h-.03c-.29.43-.73.65-1.33.65-.55,0-.99-.19-1.3-.58s-.47-.93-.47-1.63.16-1.23.47-1.63c.31-.4.74-.6,1.29-.6h0ZM239.84,27.22c-.36,0-.63.14-.83.43s-.3.69-.3,1.22.1.93.29,1.21c.19.28.48.42.86.42.43,0,.75-.12.94-.35.2-.23.3-.61.3-1.12v-.17c0-.58-.1-1-.3-1.26s-.52-.38-.95-.38h0Z"/>
      <path class="st10" d="M243.94,24.92v1.78c0,.21,0,.41-.04.6h.05c.14-.22.33-.38.56-.5.24-.11.5-.17.77-.17.52,0,.91.12,1.17.37s.4.65.4,1.2v2.79h-.7v-2.74c0-.69-.32-1.03-.96-1.03-.48,0-.81.13-.99.4s-.27.66-.27,1.16v2.22h-.7v-6.08h.71Z"/>
      <path class="st10" d="M249.95,26.63c.36,0,.68.08.94.24s.47.39.61.68.21.63.21,1.02v.42h-2.94c0,.49.13.85.37,1.11.24.25.57.38,1,.38.27,0,.51-.03.72-.08s.43-.12.65-.22v.62c-.22.1-.44.17-.65.21-.21.05-.47.07-.76.07-.41,0-.77-.08-1.08-.25s-.55-.41-.72-.74c-.17-.33-.26-.73-.26-1.21s.08-.87.24-1.21.38-.59.66-.78c.29-.18.62-.27,1-.27h0ZM249.94,27.21c-.34,0-.6.11-.8.32-.2.22-.31.52-.35.9h2.18c0-.36-.09-.66-.26-.88-.17-.23-.43-.34-.78-.34h.01Z"/>
      <path class="st10" d="M254.94,26.63c.08,0,.17,0,.26.01.09,0,.17.02.25.04l-.09.65c-.07-.02-.15-.03-.23-.04s-.16-.02-.23-.02c-.22,0-.42.06-.62.18-.19.12-.35.29-.46.5s-.17.47-.17.76v2.29h-.7v-4.29h.58l.08.78h.03c.13-.23.31-.44.53-.61s.48-.26.78-.26h-.01Z"/>
      <path class="st10" d="M260.36,26.63c.53,0,.95.18,1.28.55.32.37.48.92.48,1.66s-.16,1.29-.48,1.66c-.32.38-.75.57-1.28.57-.33,0-.6-.06-.82-.18s-.38-.27-.51-.44h-.05c0,.09.01.21.03.34.01.14.02.26.02.36v1.76h-.7v-6.21h.58l.1.58h.03c.13-.19.3-.34.5-.47s.49-.19.83-.19h0ZM260.24,27.22c-.44,0-.75.12-.93.37s-.28.62-.28,1.12v.14c0,.53.09.94.26,1.22.17.29.5.43.96.43.26,0,.47-.07.64-.21s.3-.34.38-.59c.08-.25.12-.54.12-.86,0-.49-.09-.88-.28-1.18s-.48-.44-.88-.44h0Z"/>
      <path class="st10" d="M267.14,28.85c0,.71-.18,1.26-.54,1.65s-.85.58-1.46.58c-.38,0-.72-.09-1.01-.26-.3-.17-.53-.43-.7-.76s-.26-.74-.26-1.21c0-.71.18-1.26.53-1.64s.84-.58,1.46-.58c.38,0,.72.09,1.02.26.3.17.53.42.7.75s.25.73.25,1.2h.01ZM263.9,28.85c0,.51.1.91.3,1.2.2.3.52.44.96.44s.75-.15.95-.44c.2-.3.3-.7.3-1.2s-.1-.9-.3-1.19c-.2-.29-.52-.43-.96-.43s-.75.14-.95.43-.3.69-.3,1.19Z"/>
      <path class="st10" d="M271.17,29.81c0,.42-.16.73-.46.94-.31.21-.72.32-1.25.32-.3,0-.56-.02-.77-.07s-.41-.11-.57-.2v-.64c.17.08.38.16.62.24.24.07.49.11.74.11.36,0,.62-.06.78-.17s.24-.27.24-.46c0-.11-.03-.2-.09-.29-.06-.08-.16-.17-.32-.26-.15-.08-.37-.18-.65-.29s-.51-.21-.71-.32c-.2-.11-.35-.23-.46-.38s-.16-.34-.16-.58c0-.36.15-.64.44-.84s.68-.3,1.16-.3c.26,0,.5.03.73.08s.44.12.64.21l-.24.56c-.18-.08-.37-.14-.57-.19s-.4-.08-.61-.08c-.29,0-.51.05-.66.14s-.23.22-.23.38c0,.12.04.22.1.3s.18.16.35.24c.16.08.38.17.65.27s.5.21.7.31c.19.11.34.24.44.39s.15.34.15.57h0Z"/>
      <path class="st10" d="M272.67,25.1c.11,0,.2.04.28.11s.12.19.12.34-.04.27-.12.34-.18.11-.28.11c-.12,0-.22-.04-.3-.11s-.12-.18-.12-.34.04-.27.12-.34.18-.11.3-.11ZM273.01,26.71v4.29h-.7v-4.29h.7Z"/>
      <path class="st10" d="M275.99,30.5c.11,0,.22,0,.33-.02s.2-.04.27-.06v.54c-.08.04-.18.07-.32.09s-.27.04-.4.04c-.22,0-.43-.04-.62-.12s-.34-.21-.46-.4-.18-.46-.18-.81v-2.5h-.61v-.34l.62-.28.28-.91h.42v.98h1.24v.54h-1.24v2.48c0,.26.06.45.19.58s.29.19.48.19h0Z"/>
      <path class="st10" d="M277.97,25.1c.11,0,.2.04.28.11s.12.19.12.34-.04.27-.12.34-.18.11-.28.11c-.12,0-.22-.04-.3-.11s-.12-.18-.12-.34.04-.27.12-.34.18-.11.3-.11ZM278.32,26.71v4.29h-.7v-4.29h.7Z"/>
      <path class="st10" d="M280.87,31l-1.62-4.29h.75l.91,2.53c.04.12.09.25.14.39.05.14.09.28.13.42.04.13.06.24.08.33h.03c.02-.08.04-.2.09-.33.04-.14.09-.27.14-.42s.09-.27.14-.39l.91-2.53h.75l-1.63,4.29h-.82Z"/>
      <path class="st10" d="M285.75,26.63c.36,0,.68.08.94.24s.47.39.61.68c.14.29.21.63.21,1.02v.42h-2.94c.01.49.13.85.37,1.11.24.25.57.38,1,.38.27,0,.51-.03.72-.08s.43-.12.65-.22v.62c-.22.1-.44.17-.65.21-.21.05-.47.07-.76.07-.41,0-.77-.08-1.08-.25s-.55-.41-.72-.74c-.17-.33-.26-.73-.26-1.21s.08-.87.24-1.21.38-.59.66-.78c.29-.18.62-.27,1-.27h.01ZM285.74,27.21c-.34,0-.6.11-.8.32-.2.22-.31.52-.35.9h2.18c0-.36-.09-.66-.26-.88-.17-.23-.43-.34-.78-.34h.01Z"/>
      <path class="st10" d="M292.68,26.63c.08,0,.17,0,.26.01.09,0,.17.02.25.04l-.09.65c-.07-.02-.15-.03-.23-.04-.08-.01-.16-.02-.23-.02-.22,0-.42.06-.62.18-.19.12-.35.29-.46.5s-.17.47-.17.76v2.29h-.7v-4.29h.58l.08.78h.03c.13-.23.31-.44.53-.61s.48-.26.78-.26h0Z"/>
      <path class="st10" d="M295.75,26.63c.36,0,.68.08.94.24s.47.39.61.68c.14.29.21.63.21,1.02v.42h-2.94c.01.49.13.85.37,1.11.24.25.57.38,1,.38.27,0,.51-.03.72-.08s.43-.12.65-.22v.62c-.22.1-.43.17-.65.21-.21.05-.47.07-.76.07-.41,0-.77-.08-1.08-.25s-.55-.41-.72-.74-.26-.73-.26-1.21.08-.87.24-1.21.38-.59.66-.78c.29-.18.62-.27,1-.27h.01ZM295.74,27.21c-.34,0-.6.11-.8.32s-.31.52-.35.9h2.18c0-.36-.09-.66-.26-.88s-.43-.34-.78-.34h.01Z"/>
      <path class="st10" d="M300.21,30.5c.11,0,.22,0,.33-.02s.2-.04.27-.06v.54c-.08.04-.18.07-.32.09s-.27.04-.4.04c-.22,0-.43-.04-.62-.12s-.34-.21-.46-.4-.18-.46-.18-.81v-2.5h-.61v-.34l.62-.28.28-.91h.42v.98h1.24v.54h-1.24v2.48c0,.26.06.45.19.58s.29.19.48.19h0Z"/>
      <path class="st10" d="M305.42,26.71v4.29h-.57l-.11-.57h-.03c-.14.22-.33.39-.58.49s-.51.16-.78.16c-.52,0-.91-.12-1.17-.37s-.39-.64-.39-1.19v-2.81h.71v2.76c0,.68.32,1.02.95,1.02.47,0,.8-.13.99-.4.18-.27.28-.65.28-1.15v-2.23s.7,0,.7,0Z"/>
      <path class="st10" d="M308.87,26.63c.08,0,.17,0,.26.01.09,0,.17.02.25.04l-.09.65c-.07-.02-.15-.03-.23-.04-.09-.01-.16-.02-.23-.02-.22,0-.42.06-.62.18-.19.12-.34.29-.46.5-.11.22-.17.47-.17.76v2.29h-.7v-4.29h.58l.08.78h.03c.13-.23.31-.44.53-.61s.48-.26.78-.26h0Z"/>
      <path class="st10" d="M312.43,26.63c.51,0,.9.13,1.16.38s.39.65.39,1.2v2.79h-.7v-2.74c0-.69-.32-1.03-.96-1.03-.47,0-.8.13-.98.4-.18.27-.27.65-.27,1.15v2.22h-.7v-4.29h.57l.1.58h.04c.14-.22.33-.39.58-.5s.5-.16.78-.16h-.01Z"/>
      <path class="st10" d="M318.22,29.81c0,.42-.15.73-.46.94s-.73.32-1.25.32c-.3,0-.56-.02-.77-.07s-.41-.11-.57-.2v-.64c.17.08.38.16.62.24.24.07.49.11.74.11.36,0,.62-.06.78-.17s.24-.27.24-.46c0-.11-.03-.2-.09-.29-.06-.08-.16-.17-.32-.26-.15-.08-.37-.18-.65-.29s-.51-.21-.71-.32c-.2-.11-.35-.23-.46-.38-.11-.15-.16-.34-.16-.58,0-.36.15-.64.44-.84.3-.2.68-.3,1.16-.3.26,0,.51.03.73.08.23.05.44.12.64.21l-.24.56c-.18-.08-.37-.14-.57-.19s-.4-.08-.61-.08c-.29,0-.51.05-.66.14s-.23.22-.23.38c0,.12.03.22.1.3s.19.16.35.24c.16.08.38.17.65.27s.5.21.7.31c.19.11.34.24.44.39s.15.34.15.57h0Z"/>
      <path class="st10" d="M233.54,36.75h-1.08v3.74h-.7v-3.74h-.75v-.33l.75-.24v-.25c0-.55.12-.95.36-1.2s.59-.36,1.03-.36c.17,0,.32.01.46.04s.27.06.37.1l-.18.55c-.09-.03-.18-.05-.3-.08-.11-.03-.23-.04-.34-.04-.23,0-.41.08-.52.24-.12.16-.17.4-.17.74v.28h1.08v.54h-.01Z"/>
      <path class="st10" d="M238.18,38.35c0,.71-.18,1.26-.54,1.65s-.85.58-1.46.58c-.38,0-.72-.09-1.01-.26-.3-.17-.53-.43-.7-.76s-.26-.74-.26-1.21c0-.71.18-1.26.53-1.64s.84-.58,1.46-.58c.38,0,.73.09,1.02.26.3.17.53.42.7.75s.25.73.25,1.2h0ZM234.94,38.35c0,.51.1.91.3,1.2s.52.44.96.44.75-.15.95-.44c.2-.3.3-.7.3-1.2s-.1-.9-.3-1.19-.52-.43-.96-.43-.75.14-.95.43-.3.69-.3,1.19Z"/>
      <path class="st10" d="M241.42,36.13c.08,0,.17,0,.26.01.09,0,.17.02.25.04l-.09.65c-.07-.02-.15-.03-.23-.04s-.16-.02-.23-.02c-.22,0-.42.06-.62.18-.19.12-.35.29-.46.5-.12.22-.17.47-.17.76v2.29h-.7v-4.29h.58l.08.78h.03c.13-.23.31-.44.53-.61s.48-.26.78-.26h-.01Z"/>
      <path class="st10" d="M246.7,40.5h-.72v-5.08h-1.78v-.63h4.28v.63h-1.78v5.08Z"/>
      <path class="st10" d="M250.37,36.13c.36,0,.68.08.94.24s.47.39.61.68.21.63.21,1.02v.42h-2.94c0,.49.13.85.37,1.11.24.25.57.38,1,.38.27,0,.51-.03.72-.08s.43-.12.65-.22v.62c-.22.1-.43.17-.65.21-.21.05-.47.07-.76.07-.41,0-.77-.08-1.08-.25s-.55-.41-.72-.74-.26-.73-.26-1.21.08-.87.24-1.21.38-.59.66-.78c.29-.18.62-.27,1-.27h0ZM250.37,36.71c-.34,0-.6.11-.8.32s-.31.52-.35.9h2.18c0-.36-.09-.66-.26-.88s-.43-.34-.78-.34h.01Z"/>
      <path class="st10" d="M257.93,36.13c.49,0,.85.13,1.09.38s.36.65.36,1.2v2.79h-.7v-2.76c0-.68-.29-1.02-.87-1.02-.42,0-.71.12-.89.36s-.27.59-.27,1.05v2.37h-.7v-2.76c0-.68-.29-1.02-.88-1.02-.43,0-.73.13-.9.4s-.25.65-.25,1.15v2.22h-.7v-4.29h.57l.1.58h.04c.13-.22.31-.39.54-.5s.47-.16.72-.16c.67,0,1.11.24,1.31.72h.04c.14-.25.34-.43.58-.54.25-.12.51-.18.79-.18h.02Z"/>
      <path class="st10" d="M262.28,36.14c.52,0,.91.12,1.16.34.25.23.38.59.38,1.1v2.92h-.51l-.14-.61h-.03c-.19.24-.38.41-.59.52s-.49.17-.85.17c-.39,0-.71-.1-.97-.31s-.38-.53-.38-.96.17-.76.5-.99c.34-.23.85-.36,1.55-.38l.73-.02v-.26c0-.36-.08-.61-.23-.74-.15-.14-.37-.21-.66-.21-.22,0-.44.03-.64.1s-.39.14-.57.23l-.22-.53c.19-.1.41-.19.66-.26s.52-.11.8-.11h.01ZM263.12,38.4l-.63.02c-.53.02-.9.11-1.11.26s-.31.36-.31.63c0,.24.07.42.22.53s.33.17.56.17c.36,0,.66-.1.9-.3.24-.2.36-.51.36-.92v-.38h.01Z"/>
      <path class="st10" d="M267.93,39.31c0,.42-.15.73-.46.94s-.73.32-1.25.32c-.3,0-.56-.02-.77-.07-.22-.05-.41-.11-.57-.2v-.64c.17.08.38.16.62.24.24.07.49.11.74.11.36,0,.62-.06.78-.17s.24-.27.24-.46c0-.11-.03-.2-.09-.29-.06-.08-.16-.17-.32-.26s-.37-.18-.65-.29-.51-.21-.71-.32c-.2-.11-.35-.23-.46-.38-.11-.15-.16-.34-.16-.58,0-.36.15-.64.44-.84s.68-.3,1.16-.3c.26,0,.51.03.73.08.23.05.44.12.64.21l-.24.56c-.18-.08-.37-.14-.57-.19s-.4-.08-.61-.08c-.29,0-.51.05-.66.14s-.23.22-.23.38c0,.12.03.22.1.3s.19.16.35.24c.16.08.38.17.65.27s.5.21.7.31c.19.11.34.24.44.39s.15.34.15.57h0Z"/>
      <path class="st10" d="M270.65,36.13c.36,0,.68.08.94.24s.47.39.61.68c.14.29.21.63.21,1.02v.42h-2.94c.01.49.13.85.37,1.11.24.25.57.38,1,.38.27,0,.51-.03.72-.08s.43-.12.65-.22v.62c-.22.1-.43.17-.65.21-.21.05-.47.07-.76.07-.41,0-.77-.08-1.08-.25s-.55-.41-.72-.74-.26-.73-.26-1.21.08-.87.24-1.21.38-.59.66-.78c.29-.18.62-.27,1-.27h.01ZM270.64,36.71c-.34,0-.6.11-.8.32s-.31.52-.35.9h2.18c0-.36-.09-.66-.26-.88s-.43-.34-.78-.34h.01Z"/>
      <path class="st10" d="M274.2,34.42v3.18c0,.09,0,.2-.01.34s-.01.26-.02.36h.03s.08-.1.14-.18c.06-.08.13-.16.2-.24.07-.08.12-.15.17-.2l1.37-1.45h.82l-1.74,1.83,1.86,2.46h-.85l-1.49-2-.49.42v1.58h-.7v-6.08h.7v-.02Z"/>
      <path class="st10" d="M281.19,34.79c.75,0,1.29.15,1.63.44s.51.71.51,1.24c0,.32-.07.61-.21.88-.14.28-.38.5-.71.67s-.79.26-1.36.26h-.66v2.22h-.72v-5.71h1.52ZM281.12,35.4h-.73v2.26h.58c.54,0,.95-.09,1.22-.26.27-.18.4-.48.4-.9,0-.37-.12-.64-.36-.82s-.61-.27-1.11-.27h0Z"/>
      <path class="st10" d="M288.07,38.35c0,.71-.18,1.26-.54,1.65s-.85.58-1.46.58c-.38,0-.72-.09-1.01-.26-.3-.17-.53-.43-.7-.76s-.26-.74-.26-1.21c0-.71.18-1.26.53-1.64s.84-.58,1.46-.58c.38,0,.72.09,1.02.26.3.17.53.42.7.75s.25.73.25,1.2h.01ZM284.83,38.35c0,.51.1.91.3,1.2.2.3.52.44.96.44s.75-.15.95-.44c.2-.3.3-.7.3-1.2s-.1-.9-.3-1.19c-.2-.29-.52-.43-.96-.43s-.75.14-.95.43-.3.69-.3,1.19Z"/>
      <path class="st10" d="M291.17,36.13c.08,0,.17,0,.26.01.09,0,.17.02.25.04l-.09.65c-.07-.02-.15-.03-.23-.04-.08-.01-.16-.02-.23-.02-.22,0-.42.06-.62.18-.19.12-.35.29-.46.5s-.17.47-.17.76v2.29h-.7v-4.29h.58l.08.78h.03c.13-.23.31-.44.53-.61s.48-.26.78-.26h0Z"/>
      <path class="st10" d="M294.21,40c.11,0,.22,0,.33-.02s.2-.04.27-.06v.54c-.07.04-.18.07-.32.09s-.27.04-.4.04c-.22,0-.43-.04-.62-.12s-.34-.21-.46-.4-.18-.46-.18-.81v-2.5h-.61v-.34l.62-.28.28-.91h.42v.98h1.24v.54h-1.24v2.48c0,.26.06.45.19.58.13.12.29.19.48.19h0Z"/>
      <path class="st10" d="M297.91,36.75h-1.08v3.74h-.7v-3.74h-.75v-.33l.75-.24v-.25c0-.55.12-.95.36-1.2.24-.24.58-.36,1.03-.36.17,0,.32.01.46.04.14.03.27.06.37.1l-.18.55c-.08-.03-.18-.05-.3-.08s-.23-.04-.34-.04c-.24,0-.41.08-.52.24-.11.16-.17.4-.17.74v.28h1.08v.54h0Z"/>
      <path class="st10" d="M302.42,38.35c0,.71-.18,1.26-.54,1.65-.36.39-.85.58-1.46.58-.38,0-.72-.09-1.01-.26-.3-.17-.53-.43-.7-.76s-.26-.74-.26-1.21c0-.71.18-1.26.53-1.64s.84-.58,1.46-.58c.38,0,.73.09,1.02.26.3.17.53.42.7.75s.25.73.25,1.2h.01ZM299.18,38.35c0,.51.1.91.3,1.2s.52.44.96.44.75-.15.95-.44c.2-.3.3-.7.3-1.2s-.1-.9-.3-1.19c-.2-.29-.52-.43-.96-.43s-.75.14-.95.43-.3.69-.3,1.19Z"/>
      <path class="st10" d="M304.23,40.5h-.7v-6.08h.7v6.08Z"/>
      <path class="st10" d="M305.91,34.6c.11,0,.2.04.28.11s.12.19.12.34-.04.27-.12.34-.18.11-.28.11c-.12,0-.22-.04-.3-.11s-.12-.18-.12-.34.04-.27.12-.34.18-.11.3-.11ZM306.25,36.21v4.29h-.7v-4.29h.7Z"/>
      <path class="st10" d="M311.32,38.35c0,.71-.18,1.26-.54,1.65-.36.39-.85.58-1.46.58-.38,0-.72-.09-1.01-.26-.3-.17-.53-.43-.7-.76s-.26-.74-.26-1.21c0-.71.18-1.26.53-1.64s.84-.58,1.46-.58c.38,0,.73.09,1.02.26.3.17.53.42.7.75s.25.73.25,1.2h.01ZM308.08,38.35c0,.51.1.91.3,1.2s.52.44.96.44.75-.15.95-.44.3-.7.3-1.2-.1-.9-.3-1.19-.52-.43-.96-.43-.75.14-.95.43-.3.69-.3,1.19Z"/>
    </g>
  </g>
</svg>