<?xml version="1.0" encoding="UTF-8"?>
<svg xmlns="http://www.w3.org/2000/svg" xmlns:xlink="http://www.w3.org/1999/xlink" version="1.1" viewBox="0 0 345.83 221.1">
  <!-- Generator: Adobe Illustrator 29.6.0, SVG Export Plug-In . SVG Version: 2.1.1 Build 207)  -->
  <defs>
    <style>
      .st0 {
        stroke-linejoin: round;
      }

      .st0, .st1, .st2, .st3, .st4, .st5, .st6, .st7, .st8 {
        fill: none;
      }

      .st0, .st2, .st3, .st4, .st6 {
        stroke-linecap: round;
      }

      .st0, .st4 {
        stroke: #633169;
        stroke-width: 1.5px;
      }

      .st9 {
        fill: #009690;
      }

      .st2, .st3, .st5, .st6, .st7, .st8 {
        stroke-miterlimit: 10;
      }

      .st2, .st8 {
        stroke: #ee7003;
      }

      .st10 {
        fill: #633169;
      }

      .st3, .st6, .st7 {
        stroke-width: .5px;
      }

      .st3, .st7 {
        stroke: #009690;
      }

      .st5 {
        stroke-width: .25px;
      }

      .st5, .st6 {
        stroke: #000;
      }

      .st6 {
        stroke-dasharray: .02 1;
      }

      .st11 {
        clip-path: url(#clippath);
      }
    </style>
    <clipPath id="clippath">
      <polygon class="st1" points="10.75 159.27 345.41 159.27 345.29 43.24 9.75 43.47 10.75 159.27"/>
    </clipPath>
  </defs>
  <g id="Key">
    <g>
      <path d="M75.41,176.66l1.49-2.81h.78l-1.9,3.5v2.22h-.72v-2.18l-1.9-3.53h.78l1.48,2.81Z"/>
      <path d="M79.74,175.19c.36,0,.68.08.94.24s.47.38.61.68c.14.29.21.63.21,1.02v.42h-2.94c.01.49.13.85.37,1.11.24.25.57.38,1,.38.27,0,.51-.03.72-.08.21-.05.43-.12.65-.22v.62c-.22.1-.43.17-.65.21-.21.04-.47.07-.76.07-.41,0-.77-.08-1.08-.25s-.55-.41-.72-.74c-.17-.33-.26-.73-.26-1.21s.08-.87.24-1.21.38-.59.66-.78c.29-.18.62-.27,1-.27ZM79.73,175.77c-.34,0-.6.11-.8.32-.2.22-.31.52-.35.9h2.18c0-.36-.09-.66-.26-.88-.17-.23-.43-.34-.78-.34Z"/>
      <path d="M84.32,175.2c.52,0,.91.12,1.16.34.25.23.38.59.38,1.1v2.92h-.51l-.14-.61h-.03c-.19.24-.38.41-.59.52-.21.11-.49.17-.85.17-.39,0-.71-.1-.97-.31-.26-.21-.38-.53-.38-.96s.17-.76.5-.99c.34-.23.85-.36,1.55-.38l.73-.02v-.26c0-.36-.08-.61-.23-.74s-.37-.21-.66-.21c-.22,0-.44.03-.64.1-.2.07-.39.14-.57.23l-.22-.53c.19-.1.41-.19.66-.26.26-.07.52-.11.8-.11ZM85.16,177.46l-.63.02c-.53.02-.9.11-1.11.26-.21.15-.31.36-.31.63,0,.24.07.42.22.53.15.11.33.17.56.17.36,0,.66-.1.9-.3.24-.2.36-.51.36-.92v-.38Z"/>
      <path d="M89.29,175.19c.08,0,.17,0,.26.01.09,0,.17.02.25.04l-.09.65c-.07-.02-.15-.03-.23-.04-.09-.01-.16-.02-.23-.02-.22,0-.42.06-.62.18-.19.12-.34.29-.46.5-.11.22-.17.47-.17.76v2.29h-.7v-4.29h.58l.08.78h.03c.13-.24.31-.44.53-.61.22-.17.48-.26.78-.26Z"/>
      <path d="M90.64,177.73v-.62h1.94v.62h-1.94Z"/>
      <path d="M95.41,179.06c.11,0,.22,0,.33-.02.11-.02.2-.04.27-.06v.54c-.07.04-.18.07-.32.09-.14.02-.27.04-.4.04-.22,0-.43-.04-.62-.12s-.34-.21-.46-.4c-.12-.19-.18-.46-.18-.81v-2.5h-.61v-.34l.62-.28.28-.91h.42v.98h1.24v.54h-1.24v2.48c0,.26.06.46.19.58.12.13.29.19.48.19Z"/>
      <path d="M100.69,177.41c0,.71-.18,1.26-.54,1.65-.36.39-.85.58-1.46.58-.38,0-.72-.09-1.01-.26-.3-.17-.53-.43-.7-.76-.17-.33-.26-.74-.26-1.21,0-.71.18-1.26.53-1.64s.84-.58,1.46-.58c.38,0,.73.09,1.02.26.3.17.53.42.7.75s.25.73.25,1.2ZM97.45,177.41c0,.51.1.91.3,1.2s.52.44.96.44.75-.15.95-.44.3-.7.3-1.2-.1-.9-.3-1.19c-.2-.29-.52-.43-.96-.43s-.75.14-.95.43c-.2.29-.3.69-.3,1.19Z"/>
      <path d="M101.84,177.73v-.62h1.94v.62h-1.94Z"/>
      <path d="M104.5,175.27h.75l.93,2.44c.08.22.15.42.22.62.06.19.11.38.14.55h.03c.03-.13.08-.31.15-.52.07-.22.14-.43.22-.65l.87-2.43h.76l-1.85,4.88c-.16.41-.35.73-.58.97-.24.24-.56.36-.98.36-.13,0-.24,0-.34-.02-.1-.01-.18-.03-.25-.04v-.56c.06.01.13.02.21.03s.17.02.26.02c.25,0,.44-.07.59-.21.15-.14.27-.32.36-.55l.22-.57-1.73-4.3Z"/>
      <path d="M111.02,175.19c.36,0,.68.08.94.24s.47.38.61.68c.14.29.21.63.21,1.02v.42h-2.94c.01.49.13.85.37,1.11.24.25.57.38,1,.38.27,0,.51-.03.72-.08.21-.05.43-.12.65-.22v.62c-.22.1-.43.17-.65.21-.21.04-.47.07-.76.07-.41,0-.77-.08-1.08-.25s-.55-.41-.72-.74c-.17-.33-.26-.73-.26-1.21s.08-.87.24-1.21.38-.59.66-.78c.29-.18.62-.27,1-.27ZM111.01,175.77c-.34,0-.6.11-.8.32-.2.22-.31.52-.35.9h2.18c0-.36-.09-.66-.26-.88-.17-.23-.43-.34-.78-.34Z"/>
      <path d="M115.6,175.2c.52,0,.91.12,1.16.34.25.23.38.59.38,1.1v2.92h-.51l-.14-.61h-.03c-.19.24-.38.41-.59.52-.21.11-.49.17-.85.17-.39,0-.71-.1-.97-.31-.26-.21-.38-.53-.38-.96s.17-.76.5-.99c.34-.23.85-.36,1.55-.38l.73-.02v-.26c0-.36-.08-.61-.23-.74s-.37-.21-.66-.21c-.22,0-.44.03-.64.1-.2.07-.39.14-.57.23l-.22-.53c.19-.1.41-.19.66-.26.26-.07.52-.11.8-.11ZM116.44,177.46l-.63.02c-.53.02-.9.11-1.11.26-.21.15-.31.36-.31.63,0,.24.07.42.22.53.15.11.33.17.56.17.36,0,.66-.1.9-.3.24-.2.36-.51.36-.92v-.38Z"/>
      <path d="M120.57,175.19c.08,0,.17,0,.26.01.09,0,.17.02.25.04l-.09.65c-.07-.02-.15-.03-.23-.04-.09-.01-.16-.02-.23-.02-.22,0-.42.06-.62.18-.19.12-.34.29-.46.5-.11.22-.17.47-.17.76v2.29h-.7v-4.29h.58l.08.78h.03c.13-.24.31-.44.53-.61.22-.17.48-.26.78-.26Z"/>
      <path d="M127.64,179.56l-.69-1.77h-2.26l-.68,1.77h-.73l2.23-5.74h.65l2.22,5.74h-.74ZM126.73,177.15l-.64-1.73s-.04-.12-.08-.23c-.04-.11-.07-.23-.11-.35-.04-.12-.06-.21-.08-.28-.04.17-.09.33-.13.48-.05.16-.08.28-.12.37l-.65,1.73h1.81Z"/>
      <path d="M131.4,175.19c.51,0,.9.12,1.16.38.26.25.39.65.39,1.2v2.79h-.7v-2.74c0-.69-.32-1.03-.96-1.03-.47,0-.8.13-.98.4-.18.27-.27.65-.27,1.15v2.22h-.7v-4.29h.57l.1.58h.04c.14-.22.33-.39.58-.5s.5-.16.78-.16Z"/>
      <path d="M136.45,175.19c.51,0,.9.12,1.16.38.26.25.39.65.39,1.2v2.79h-.7v-2.74c0-.69-.32-1.03-.96-1.03-.47,0-.8.13-.98.4-.18.27-.27.65-.27,1.15v2.22h-.7v-4.29h.57l.1.58h.04c.14-.22.33-.39.58-.5s.5-.16.78-.16Z"/>
      <path d="M143.01,175.27v4.29h-.58l-.1-.57h-.03c-.14.22-.33.39-.58.49-.25.1-.51.16-.78.16-.52,0-.91-.12-1.17-.37-.26-.25-.39-.64-.39-1.19v-2.81h.71v2.76c0,.68.32,1.02.95,1.02.47,0,.8-.13.99-.4.18-.27.28-.65.28-1.15v-2.23h.7Z"/>
      <path d="M146.08,175.2c.52,0,.91.12,1.16.34.25.23.38.59.38,1.1v2.92h-.51l-.14-.61h-.03c-.19.24-.38.41-.59.52-.21.11-.49.17-.85.17-.39,0-.71-.1-.97-.31-.26-.21-.38-.53-.38-.96s.17-.76.5-.99c.34-.23.85-.36,1.55-.38l.73-.02v-.26c0-.36-.08-.61-.23-.74s-.37-.21-.66-.21c-.22,0-.44.03-.64.1-.2.07-.39.14-.57.23l-.22-.53c.19-.1.41-.19.66-.26.26-.07.52-.11.8-.11ZM146.92,177.46l-.63.02c-.53.02-.9.11-1.11.26-.21.15-.31.36-.31.63,0,.24.07.42.22.53.15.11.33.17.56.17.36,0,.66-.1.9-.3.24-.2.36-.51.36-.92v-.38Z"/>
      <path d="M149.75,179.56h-.7v-6.08h.7v6.08Z"/>
      <path d="M154.87,173.85c.71,0,1.23.13,1.57.4.34.27.51.68.51,1.22,0,.3-.06.56-.17.76-.11.2-.25.37-.43.49-.17.12-.36.22-.55.28l1.57,2.56h-.84l-1.38-2.36h-1.14v2.36h-.72v-5.71h1.58ZM154.83,174.47h-.82v2.12h.86c.46,0,.8-.09,1.02-.28.21-.18.32-.46.32-.81s-.11-.64-.34-.8c-.22-.16-.57-.24-1.04-.24Z"/>
      <path d="M159.92,175.19c.36,0,.68.08.94.24s.47.38.61.68c.14.29.21.63.21,1.02v.42h-2.94c.01.49.13.85.37,1.11.24.25.57.38,1,.38.27,0,.51-.03.72-.08.21-.05.43-.12.65-.22v.62c-.22.1-.43.17-.65.21-.21.04-.47.07-.76.07-.41,0-.77-.08-1.08-.25s-.55-.41-.72-.74c-.17-.33-.26-.73-.26-1.21s.08-.87.24-1.21.38-.59.66-.78c.29-.18.62-.27,1-.27ZM159.92,175.77c-.34,0-.6.11-.8.32-.2.22-.31.52-.35.9h2.18c0-.36-.09-.66-.26-.88-.17-.23-.43-.34-.78-.34Z"/>
      <path d="M164.39,179.06c.11,0,.22,0,.33-.02.11-.02.2-.04.27-.06v.54c-.07.04-.18.07-.32.09-.14.02-.27.04-.4.04-.22,0-.43-.04-.62-.12s-.34-.21-.46-.4c-.12-.19-.18-.46-.18-.81v-2.5h-.61v-.34l.62-.28.28-.91h.42v.98h1.24v.54h-1.24v2.48c0,.26.06.46.19.58.12.13.29.19.48.19Z"/>
      <path d="M169.59,175.27v4.29h-.58l-.1-.57h-.03c-.14.22-.33.39-.58.49-.25.1-.51.16-.78.16-.52,0-.91-.12-1.17-.37-.26-.25-.39-.64-.39-1.19v-2.81h.71v2.76c0,.68.32,1.02.95,1.02.47,0,.8-.13.99-.4.18-.27.28-.65.28-1.15v-2.23h.7Z"/>
      <path d="M173.04,175.19c.08,0,.17,0,.26.01.09,0,.17.02.25.04l-.09.65c-.07-.02-.15-.03-.23-.04-.09-.01-.16-.02-.23-.02-.22,0-.42.06-.62.18-.19.12-.34.29-.46.5-.11.22-.17.47-.17.76v2.29h-.7v-4.29h.58l.08.78h.03c.13-.24.31-.44.53-.61.22-.17.48-.26.78-.26Z"/>
      <path d="M176.6,175.19c.51,0,.9.12,1.16.38.26.25.39.65.39,1.2v2.79h-.7v-2.74c0-.69-.32-1.03-.96-1.03-.47,0-.8.13-.98.4-.18.27-.27.65-.27,1.15v2.22h-.7v-4.29h.57l.1.58h.04c.14-.22.33-.39.58-.5s.5-.16.78-.16Z"/>
      <path d="M182.4,178.38c0,.42-.15.73-.46.94s-.73.32-1.25.32c-.3,0-.56-.02-.77-.07s-.41-.11-.57-.2v-.64c.17.08.38.16.62.24.24.07.49.11.74.11.36,0,.62-.06.78-.17s.24-.27.24-.46c0-.11-.03-.2-.09-.29s-.16-.17-.32-.26c-.15-.08-.37-.18-.65-.29-.28-.11-.51-.21-.71-.32-.2-.11-.35-.23-.46-.38-.11-.15-.16-.34-.16-.58,0-.36.15-.64.44-.84.3-.2.68-.3,1.16-.3.26,0,.51.03.73.08.23.05.44.12.64.21l-.24.56c-.18-.07-.37-.14-.57-.19-.2-.05-.4-.08-.61-.08-.29,0-.51.05-.66.14-.15.09-.23.22-.23.38,0,.12.03.22.1.3.07.08.19.16.35.24.16.08.38.17.65.27.27.1.5.21.7.31.19.11.34.24.44.39.1.15.15.34.15.57Z"/>
      <path d="M187.04,179.64c-.53,0-.96-.19-1.28-.56-.32-.37-.48-.92-.48-1.66s.16-1.29.48-1.67c.32-.38.75-.56,1.28-.56.33,0,.6.06.81.18.21.12.38.27.52.45h.05c-.01-.07-.02-.17-.03-.31-.01-.14-.02-.24-.02-.32v-1.71h.7v6.08h-.57l-.1-.58h-.03c-.13.18-.3.34-.51.46-.21.13-.49.19-.82.19ZM187.15,179.06c.45,0,.77-.12.96-.37.18-.25.28-.62.28-1.12v-.13c0-.53-.09-.94-.26-1.23-.18-.29-.5-.43-.98-.43-.38,0-.66.15-.85.45-.19.3-.28.71-.28,1.21s.09.91.28,1.19c.19.28.48.42.86.42Z"/>
      <path d="M194.13,175.27v4.29h-.58l-.1-.57h-.03c-.14.22-.33.39-.58.49-.25.1-.51.16-.78.16-.52,0-.91-.12-1.17-.37-.26-.25-.39-.64-.39-1.19v-2.81h.71v2.76c0,.68.32,1.02.95,1.02.47,0,.8-.13.99-.4.18-.27.28-.65.28-1.15v-2.23h.7Z"/>
      <path d="M197.58,175.19c.08,0,.17,0,.26.01.09,0,.17.02.25.04l-.09.65c-.07-.02-.15-.03-.23-.04-.09-.01-.16-.02-.23-.02-.22,0-.42.06-.62.18-.19.12-.34.29-.46.5-.11.22-.17.47-.17.76v2.29h-.7v-4.29h.58l.08.78h.03c.13-.24.31-.44.53-.61.22-.17.48-.26.78-.26Z"/>
      <path d="M199.44,173.66c.11,0,.2.04.28.11.08.07.12.19.12.34s-.04.27-.12.34c-.08.07-.18.11-.28.11-.12,0-.22-.04-.3-.11s-.12-.19-.12-.34.04-.27.12-.34.18-.11.3-.11ZM199.78,175.27v4.29h-.7v-4.29h.7Z"/>
      <path d="M203.3,175.19c.51,0,.9.12,1.16.38.26.25.39.65.39,1.2v2.79h-.7v-2.74c0-.69-.32-1.03-.96-1.03-.47,0-.8.13-.98.4-.18.27-.27.65-.27,1.15v2.22h-.7v-4.29h.57l.1.58h.04c.14-.22.33-.39.58-.5s.5-.16.78-.16Z"/>
      <path d="M207.84,175.19c.28,0,.54.05.76.16s.42.27.58.49h.04l.1-.57h.56v4.36c0,.61-.16,1.08-.47,1.38-.31.31-.8.46-1.45.46s-1.14-.09-1.54-.27v-.65c.42.22.95.34,1.58.34.37,0,.66-.11.87-.32.21-.22.32-.51.32-.88v-.17c0-.06,0-.16,0-.28,0-.12.01-.2.02-.25h-.03c-.29.43-.73.65-1.33.65-.55,0-.99-.2-1.3-.58-.31-.39-.47-.93-.47-1.63s.16-1.22.47-1.63c.31-.4.74-.6,1.29-.6ZM207.93,175.78c-.36,0-.63.14-.83.43-.2.29-.3.69-.3,1.22s.1.93.29,1.21c.19.28.48.42.86.42.43,0,.75-.12.94-.35.2-.23.3-.61.3-1.12v-.17c0-.58-.1-1-.3-1.26-.2-.26-.52-.38-.95-.38Z"/>
      <path d="M216.8,179.56h-3.78v-.58l1.5-1.51c.28-.29.52-.54.72-.77.2-.22.35-.44.45-.66.1-.21.15-.45.15-.71,0-.31-.09-.55-.28-.72s-.43-.24-.73-.24c-.28,0-.53.05-.74.14-.21.1-.42.23-.64.4l-.38-.47c.22-.19.48-.35.77-.48.29-.13.62-.2.98-.2.53,0,.95.14,1.26.41.31.27.46.64.46,1.11,0,.3-.06.58-.18.84-.12.26-.29.52-.51.78-.22.26-.48.53-.77.81l-1.19,1.18v.03h2.89v.64Z"/>
      <path d="M221.49,176.7c0,.62-.06,1.15-.19,1.58s-.33.77-.61,1.01c-.28.24-.65.35-1.1.35-.65,0-1.12-.26-1.43-.78-.31-.52-.46-1.24-.46-2.16,0-.62.06-1.15.19-1.58s.33-.77.6-1c.28-.23.64-.35,1.1-.35.64,0,1.12.26,1.43.77s.47,1.24.47,2.16ZM218.4,176.7c0,.78.09,1.37.27,1.76.18.39.48.58.92.58s.73-.19.92-.58c.18-.39.28-.97.28-1.76s-.09-1.36-.28-1.75c-.18-.39-.49-.58-.92-.58s-.74.19-.92.58-.27.97-.27,1.75Z"/>
      <path d="M222.68,177.73v-.62h1.94v.62h-1.94Z"/>
      <path d="M225.11,175.27h.75l.93,2.44c.08.22.15.42.22.62.06.19.11.38.14.55h.03c.03-.13.08-.31.15-.52.07-.22.14-.43.22-.65l.87-2.43h.76l-1.85,4.88c-.16.41-.35.73-.58.97-.24.24-.56.36-.98.36-.13,0-.24,0-.34-.02-.1-.01-.18-.03-.25-.04v-.56c.06.01.13.02.21.03s.17.02.26.02c.25,0,.44-.07.59-.21.15-.14.27-.32.36-.55l.22-.57-1.73-4.3Z"/>
      <path d="M231.62,175.19c.36,0,.68.08.94.24s.47.38.61.68c.14.29.21.63.21,1.02v.42h-2.94c.01.49.13.85.37,1.11.24.25.57.38,1,.38.27,0,.51-.03.72-.08.21-.05.43-.12.65-.22v.62c-.22.1-.43.17-.65.21-.21.04-.47.07-.76.07-.41,0-.77-.08-1.08-.25s-.55-.41-.72-.74c-.17-.33-.26-.73-.26-1.21s.08-.87.24-1.21.38-.59.66-.78c.29-.18.62-.27,1-.27ZM231.62,175.77c-.34,0-.6.11-.8.32-.2.22-.31.52-.35.9h2.18c0-.36-.09-.66-.26-.88-.17-.23-.43-.34-.78-.34Z"/>
      <path d="M236.21,175.2c.52,0,.91.12,1.16.34.25.23.38.59.38,1.1v2.92h-.51l-.14-.61h-.03c-.19.24-.38.41-.59.52-.21.11-.49.17-.85.17-.39,0-.71-.1-.97-.31-.26-.21-.38-.53-.38-.96s.17-.76.5-.99c.34-.23.85-.36,1.55-.38l.73-.02v-.26c0-.36-.08-.61-.23-.74s-.37-.21-.66-.21c-.22,0-.44.03-.64.1-.2.07-.39.14-.57.23l-.22-.53c.19-.1.41-.19.66-.26.26-.07.52-.11.8-.11ZM237.05,177.46l-.63.02c-.53.02-.9.11-1.11.26-.21.15-.31.36-.31.63,0,.24.07.42.22.53.15.11.33.17.56.17.36,0,.66-.1.9-.3.24-.2.36-.51.36-.92v-.38Z"/>
      <path d="M241.18,175.19c.08,0,.16,0,.26.01.09,0,.17.02.25.04l-.09.65c-.07-.02-.15-.03-.23-.04-.09-.01-.16-.02-.23-.02-.22,0-.42.06-.62.18-.19.12-.35.29-.46.5-.11.22-.17.47-.17.76v2.29h-.7v-4.29h.58l.08.78h.03c.13-.24.31-.44.53-.61.22-.17.48-.26.78-.26Z"/>
      <path d="M246.17,173.85c.75,0,1.29.15,1.63.44.34.29.51.71.51,1.24,0,.31-.07.61-.21.88-.14.28-.38.5-.71.67-.33.17-.79.26-1.36.26h-.66v2.22h-.72v-5.71h1.51ZM246.11,174.46h-.73v2.26h.58c.54,0,.95-.09,1.22-.26.27-.18.4-.47.4-.9,0-.37-.12-.64-.36-.82-.24-.18-.61-.27-1.11-.27Z"/>
      <path d="M251.11,175.19c.36,0,.68.08.94.24s.47.38.61.68c.14.29.21.63.21,1.02v.42h-2.94c.01.49.13.85.37,1.11.24.25.57.38,1,.38.27,0,.51-.03.72-.08.21-.05.43-.12.65-.22v.62c-.22.1-.43.17-.65.21-.21.04-.47.07-.76.07-.41,0-.77-.08-1.08-.25-.31-.17-.55-.41-.72-.74-.17-.33-.26-.73-.26-1.21s.08-.87.24-1.21c.16-.34.38-.59.66-.78.29-.18.62-.27,1-.27ZM251.11,175.77c-.34,0-.6.11-.79.32-.2.22-.31.52-.35.9h2.18c0-.36-.09-.66-.26-.88s-.43-.34-.78-.34Z"/>
      <path d="M256.1,175.19c.08,0,.17,0,.26.01.09,0,.17.02.25.04l-.09.65c-.07-.02-.15-.03-.23-.04-.08-.01-.16-.02-.23-.02-.22,0-.42.06-.62.18-.19.12-.35.29-.46.5-.12.22-.17.47-.17.76v2.29h-.7v-4.29h.58l.08.78h.03c.13-.24.31-.44.53-.61.22-.17.48-.26.78-.26Z"/>
      <path d="M257.96,173.66c.11,0,.2.04.29.11.08.07.12.19.12.34s-.04.27-.12.34c-.08.07-.18.11-.29.11-.12,0-.21-.04-.29-.11s-.12-.19-.12-.34.04-.27.12-.34.18-.11.29-.11ZM258.3,175.27v4.29h-.7v-4.29h.7Z"/>
      <path d="M263.5,177.41c0,.71-.18,1.26-.54,1.65-.36.39-.85.58-1.46.58-.38,0-.72-.09-1.01-.26-.3-.17-.53-.43-.7-.76-.17-.33-.26-.74-.26-1.21,0-.71.18-1.26.53-1.64.35-.38.84-.58,1.46-.58.38,0,.73.09,1.02.26.3.17.53.42.7.75s.25.73.25,1.2ZM260.26,177.41c0,.51.1.91.3,1.2s.52.44.96.44.75-.15.95-.44.3-.7.3-1.2-.1-.9-.3-1.19c-.2-.29-.52-.43-.96-.43s-.75.14-.95.43c-.2.29-.3.69-.3,1.19Z"/>
      <path d="M266.3,179.64c-.53,0-.96-.19-1.28-.56-.32-.37-.48-.92-.48-1.66s.16-1.29.48-1.67c.32-.38.75-.56,1.28-.56.33,0,.6.06.81.18.21.12.38.27.52.45h.05c-.01-.07-.02-.17-.03-.31,0-.14-.02-.24-.02-.32v-1.71h.71v6.08h-.57l-.1-.58h-.03c-.13.18-.3.34-.51.46s-.49.19-.82.19ZM266.41,179.06c.45,0,.77-.12.96-.37s.28-.62.28-1.12v-.13c0-.53-.09-.94-.26-1.23s-.5-.43-.98-.43c-.38,0-.66.15-.85.45-.19.3-.28.71-.28,1.21s.09.91.28,1.19c.19.28.48.42.86.42Z"/>
      <path d="M271.42,177.37c0-.65.09-1.28.28-1.88s.49-1.15.89-1.64h.66c-.37.5-.66,1.05-.84,1.66-.19.6-.28,1.22-.28,1.86s.09,1.23.28,1.82.47,1.14.84,1.64h-.66c-.41-.47-.7-1-.89-1.6s-.28-1.21-.28-1.86Z"/>
      <path d="M275.18,173.77c.39,0,.69.16.89.47.21.31.31.75.31,1.32s-.1,1.01-.29,1.32-.5.48-.91.48c-.38,0-.67-.16-.87-.48-.2-.32-.3-.76-.3-1.32s.09-1,.28-1.32c.19-.31.48-.47.89-.47ZM275.18,174.26c-.2,0-.35.11-.44.32-.09.22-.14.54-.14.96s.05.75.14.97c.09.22.24.33.44.33.41,0,.62-.43.62-1.3s-.21-1.29-.62-1.29ZM278.84,173.85l-3.17,5.71h-.62l3.17-5.71h.62ZM278.68,176.06c.39,0,.69.16.89.47.21.31.31.75.31,1.32s-.1,1.01-.29,1.32-.5.48-.91.48c-.38,0-.67-.16-.87-.48-.2-.32-.3-.76-.3-1.32s.09-1,.28-1.32c.19-.31.48-.47.89-.47ZM278.68,176.56c-.2,0-.35.11-.45.32-.09.21-.14.53-.14.96s.05.76.14.97c.09.22.24.32.45.32.41,0,.62-.43.62-1.3s-.21-1.28-.62-1.28Z"/>
      <path d="M282.25,177.37c0,.65-.1,1.27-.29,1.86s-.49,1.13-.89,1.6h-.66c.37-.5.65-1.05.84-1.64s.28-1.2.28-1.82-.09-1.25-.28-1.86c-.19-.6-.47-1.15-.84-1.66h.66c.41.49.7,1.03.89,1.64s.29,1.23.29,1.88Z"/>
    </g>
    <g>
      <g>
        <path d="M107.77,191.63h2.07v2.66c-.28.11-.57.2-.88.25s-.65.08-1.01.08c-.91,0-1.6-.26-2.07-.78-.47-.52-.71-1.24-.71-2.15,0-.58.12-1.09.35-1.53.23-.45.57-.79,1-1.04.44-.25.96-.38,1.58-.38.31,0,.61.03.89.09.28.06.55.14.79.26l-.19.42c-.49-.23-.99-.34-1.52-.34s-.93.11-1.29.32c-.36.21-.64.51-.83.89-.2.38-.29.82-.29,1.32,0,.82.2,1.45.61,1.88.41.43,1,.64,1.79.64.28,0,.52-.02.74-.06s.41-.09.59-.15v-1.95h-1.61v-.42Z"/>
        <path d="M111.59,194.55h-.46v-6.08h.46v6.08Z"/>
        <path d="M116.51,192.42c0,.44-.07.83-.22,1.16s-.36.59-.65.77c-.29.18-.63.28-1.04.28s-.73-.09-1.02-.27c-.28-.18-.5-.44-.65-.77-.15-.33-.23-.72-.23-1.17,0-.69.17-1.23.52-1.62.34-.39.81-.58,1.41-.58.41,0,.75.09,1.03.28.28.18.49.44.64.77.14.33.22.72.22,1.16ZM113.17,192.42c0,.54.11.98.34,1.32s.59.5,1.08.5.86-.17,1.09-.5c.23-.33.35-.77.35-1.32,0-.35-.05-.66-.14-.94-.1-.27-.25-.49-.46-.64-.21-.15-.48-.23-.82-.23-.49,0-.85.16-1.09.48-.24.32-.36.76-.36,1.33Z"/>
        <path d="M118.08,188.47v1.68c0,.15,0,.31,0,.49,0,.18-.01.32-.02.42h.03c.11-.24.28-.44.52-.6.24-.16.55-.24.92-.24.55,0,.98.19,1.28.56.3.37.46.92.46,1.64,0,.67-.15,1.21-.46,1.61-.31.4-.75.6-1.34.6-.36,0-.65-.07-.88-.22s-.39-.33-.5-.54h-.04l-.08.69h-.34v-6.08h.46ZM119.47,190.6c-.5,0-.85.15-1.07.46-.22.31-.32.76-.32,1.34v.06c0,.58.1,1.01.31,1.32s.55.45,1.02.45.8-.16,1.04-.48c.23-.32.35-.77.35-1.36,0-1.2-.44-1.8-1.32-1.8Z"/>
        <path d="M123.88,190.22c.48,0,.84.12,1.07.35s.35.61.35,1.11v2.86h-.34l-.09-.72h-.02c-.15.24-.34.43-.56.58-.22.15-.53.22-.93.22s-.73-.1-.96-.3c-.24-.2-.36-.5-.36-.89,0-.42.17-.74.52-.97.34-.22.85-.35,1.52-.38l.78-.04v-.3c0-.42-.08-.72-.25-.89-.17-.17-.42-.26-.74-.26-.22,0-.43.03-.63.08-.2.06-.41.14-.61.24l-.14-.37c.2-.1.42-.18.66-.25.24-.06.49-.1.74-.1ZM124.86,192.4l-.72.03c-.54.02-.95.11-1.22.28-.27.16-.4.41-.4.73,0,.26.08.46.25.6.17.14.39.2.68.2.44,0,.79-.12,1.03-.38.24-.25.37-.6.38-1.06v-.41Z"/>
        <path d="M127.09,194.55h-.46v-6.08h.46v6.08Z"/>
        <path d="M133.72,194.55h-3.14v-5.71h3.14v.42h-2.67v2.1h2.52v.41h-2.52v2.38h2.67v.42Z"/>
        <path d="M137.8,196.43v-1.86c0-.11,0-.25,0-.4s0-.29.02-.4h-.03c-.11.25-.28.45-.53.61-.25.16-.55.24-.93.24-.54,0-.96-.19-1.26-.56-.3-.37-.46-.92-.46-1.64,0-.67.15-1.21.46-1.62.3-.41.75-.61,1.34-.61.36,0,.66.08.88.23.23.15.39.34.5.55h.02l.06-.7h.37v6.14h-.45ZM136.41,194.24c.49,0,.84-.15,1.06-.45.22-.3.33-.73.33-1.29v-.11c0-.59-.11-1.03-.32-1.33-.21-.3-.55-.45-1.03-.45s-.8.16-1.03.49-.34.77-.34,1.34.11,1.03.33,1.34c.22.31.55.46,1,.46Z"/>
        <path d="M142.97,190.29v4.26h-.38l-.06-.73h-.02c-.12.23-.3.42-.54.58-.24.15-.54.23-.91.23-1,0-1.5-.52-1.5-1.55v-2.78h.46v2.75c0,.41.09.71.27.9.18.19.45.29.82.29.94,0,1.41-.54,1.41-1.62v-2.32h.46Z"/>
        <path d="M144.57,188.71c.21,0,.32.12.32.34s-.11.35-.32.35-.3-.12-.3-.35.1-.34.3-.34ZM144.8,190.29v4.26h-.45v-4.26h.45Z"/>
        <path d="M147.36,194.24c.12,0,.23,0,.34-.03.11-.02.2-.04.28-.07v.37c-.08.03-.19.06-.3.08-.11.02-.24.03-.38.03-.35,0-.62-.1-.82-.3-.19-.2-.29-.52-.29-.96v-2.7h-.63v-.26l.63-.14.16-.98h.29v1.02h1.31v.37h-1.31v2.69c0,.6.24.9.72.9Z"/>
        <path d="M148.14,190.29h.49l1.02,2.65c.08.23.16.44.22.63.06.18.12.35.15.49h.02c.04-.12.09-.28.15-.47.06-.19.14-.41.22-.64l.99-2.66h.49l-1.92,5.02c-.14.37-.31.66-.51.87s-.46.31-.8.31c-.11,0-.2,0-.28-.02-.08-.02-.16-.03-.23-.06v-.38c.14.05.29.07.46.07.22,0,.41-.07.55-.21s.27-.35.37-.63l.28-.72-1.67-4.24Z"/>
        <path d="M156.12,188.83c1.37,0,2.06.54,2.06,1.62,0,.55-.18.98-.53,1.29-.36.31-.91.47-1.65.47h-.83v2.34h-.46v-5.71h1.42ZM156.07,189.24h-.91v2.57h.78c.55,0,.99-.1,1.29-.29.31-.2.46-.54.46-1.04,0-.43-.13-.74-.4-.94-.26-.2-.67-.3-1.23-.3Z"/>
        <path d="M162.83,192.42c0,.44-.07.83-.22,1.16s-.36.59-.65.77c-.29.18-.63.28-1.04.28s-.73-.09-1.02-.27c-.28-.18-.5-.44-.65-.77-.15-.33-.23-.72-.23-1.17,0-.69.17-1.23.52-1.62.34-.39.81-.58,1.41-.58.41,0,.75.09,1.03.28.28.18.49.44.64.77.14.33.22.72.22,1.16ZM159.49,192.42c0,.54.11.98.34,1.32s.59.5,1.08.5.86-.17,1.09-.5c.23-.33.35-.77.35-1.32,0-.35-.05-.66-.14-.94-.1-.27-.25-.49-.46-.64-.21-.15-.48-.23-.82-.23-.49,0-.85.16-1.09.48-.24.32-.36.76-.36,1.33Z"/>
        <path d="M165.69,190.22c.22,0,.42.02.58.07l-.06.42c-.08-.02-.17-.04-.26-.05s-.18-.02-.27-.02c-.39,0-.71.14-.93.43s-.34.67-.34,1.14v2.34h-.46v-4.26h.38l.05.8h.02c.11-.24.27-.45.48-.62.22-.17.48-.26.8-.26Z"/>
        <path d="M168.26,194.24c.12,0,.23,0,.34-.03s.2-.04.28-.07v.37c-.08.03-.18.06-.3.08-.11.02-.24.03-.38.03-.35,0-.62-.1-.82-.3-.19-.2-.29-.52-.29-.96v-2.7h-.63v-.26l.63-.14.16-.98h.29v1.02h1.31v.37h-1.31v2.69c0,.6.24.9.72.9Z"/>
        <path d="M171.4,190.66h-1.02v3.89h-.46v-3.89h-.78v-.25l.78-.14v-.42c0-.49.11-.85.32-1.08.21-.23.53-.35.96-.35.15,0,.29.01.41.04.12.02.23.05.34.08l-.1.38c-.1-.03-.2-.06-.31-.08-.11-.02-.22-.03-.33-.03-.29,0-.5.08-.62.24-.13.16-.19.42-.19.79v.44h1.02v.37Z"/>
        <path d="M175.73,192.42c0,.44-.07.83-.22,1.16s-.36.59-.65.77c-.29.18-.63.28-1.04.28s-.73-.09-1.02-.27c-.28-.18-.5-.44-.65-.77-.15-.33-.23-.72-.23-1.17,0-.69.17-1.23.52-1.62.34-.39.82-.58,1.41-.58.41,0,.75.09,1.03.28.28.18.49.44.64.77.14.33.22.72.22,1.16ZM172.4,192.42c0,.54.12.98.34,1.32.23.33.59.5,1.08.5s.86-.17,1.09-.5c.23-.33.35-.77.35-1.32,0-.35-.05-.66-.14-.94-.1-.27-.25-.49-.46-.64-.21-.15-.48-.23-.82-.23-.49,0-.85.16-1.09.48-.24.32-.36.76-.36,1.33Z"/>
        <path d="M177.31,194.55h-.46v-6.08h.46v6.08Z"/>
        <path d="M178.89,188.71c.21,0,.32.12.32.34s-.11.35-.32.35c-.2,0-.3-.12-.3-.35s.1-.34.3-.34ZM179.12,190.29v4.26h-.45v-4.26h.45Z"/>
        <path d="M184.04,192.42c0,.44-.07.83-.22,1.16s-.36.59-.65.77c-.29.18-.63.28-1.04.28s-.73-.09-1.02-.27c-.28-.18-.5-.44-.65-.77-.15-.33-.23-.72-.23-1.17,0-.69.17-1.23.52-1.62.34-.39.82-.58,1.41-.58.41,0,.75.09,1.03.28.28.18.49.44.64.77.14.33.22.72.22,1.16ZM180.71,192.42c0,.54.12.98.34,1.32.23.33.59.5,1.08.5s.86-.17,1.09-.5c.23-.33.35-.77.35-1.32,0-.35-.05-.66-.14-.94-.1-.27-.25-.49-.46-.64-.21-.15-.48-.23-.82-.23-.49,0-.85.16-1.09.48-.24.32-.36.76-.36,1.33Z"/>
        <path d="M186.04,191.88h-.26v-2.8c0-.09,0-.17,0-.25-.04.04-.08.08-.12.11-.04.03-.09.07-.15.12l-.47.35-.14-.19.91-.68h.22v3.33Z"/>
      </g>
      <line class="st2" x1="92.32" y1="191.69" x2="101.84" y2="191.69"/>
    </g>
    <g>
      <g>
        <path d="M15.88,194.55h-.46v-5.3h-1.84v-.42h4.14v.42h-1.84v5.3Z"/>
        <path d="M20.05,190.21c.36,0,.67.08.91.25s.43.4.55.69c.12.29.18.63.18,1.01v.32h-3.04c0,.56.13.99.39,1.29.26.3.64.45,1.13.45.27,0,.5-.02.7-.06s.41-.12.65-.22v.42c-.21.1-.42.17-.63.21-.21.04-.45.06-.73.06-.63,0-1.12-.19-1.46-.58-.34-.39-.51-.92-.51-1.59,0-.43.07-.82.22-1.16s.36-.6.64-.8.61-.29,1.01-.29ZM20.04,190.59c-.39,0-.71.13-.95.39-.24.26-.38.63-.43,1.11h2.55c0-.45-.09-.81-.28-1.09-.19-.28-.49-.42-.89-.42Z"/>
        <path d="M27.25,190.21c.42,0,.75.12.99.36s.36.62.36,1.14v2.84h-.45v-2.82c0-.38-.08-.67-.26-.85-.17-.18-.41-.27-.7-.27-.41,0-.72.12-.94.36s-.33.6-.33,1.1v2.48h-.45v-2.82c0-.38-.08-.67-.26-.85-.17-.18-.41-.27-.7-.27-.41,0-.72.12-.94.37s-.33.63-.33,1.15v2.42h-.45v-4.26h.37l.06.67h.03c.11-.21.27-.38.48-.53.22-.15.49-.22.83-.22.31,0,.57.07.78.2.21.13.36.33.45.6h.03c.12-.26.3-.45.54-.59s.53-.21.86-.21Z"/>
        <path d="M31.42,190.22c.48,0,.84.12,1.07.35s.35.61.35,1.11v2.86h-.34l-.09-.72h-.02c-.15.24-.34.43-.56.58-.22.15-.53.22-.93.22s-.73-.1-.96-.3c-.24-.2-.36-.5-.36-.89,0-.42.17-.74.52-.97.34-.22.85-.35,1.52-.38l.78-.04v-.3c0-.42-.08-.72-.25-.89-.17-.17-.42-.26-.74-.26-.22,0-.43.03-.63.08-.2.06-.41.14-.61.24l-.14-.37c.2-.1.42-.18.66-.25.24-.06.49-.1.74-.1ZM32.4,192.4l-.72.03c-.54.02-.95.11-1.22.28-.27.16-.4.41-.4.73,0,.26.08.46.25.6.17.14.39.2.68.2.44,0,.79-.12,1.03-.38.24-.25.37-.6.38-1.06v-.41Z"/>
        <path d="M36.84,193.42c0,.39-.14.69-.43.9s-.69.31-1.22.31c-.3,0-.56-.03-.79-.08-.23-.05-.42-.12-.57-.19v-.44c.19.1.4.17.64.24.24.06.49.09.74.09.42,0,.72-.07.9-.21s.28-.33.28-.58-.1-.42-.29-.54c-.2-.12-.49-.25-.88-.39-.26-.09-.49-.18-.69-.27s-.36-.21-.47-.36c-.11-.15-.17-.35-.17-.6,0-.34.14-.61.42-.8s.65-.29,1.11-.29c.26,0,.5.03.72.08.22.05.42.11.6.19l-.16.38c-.17-.08-.35-.14-.56-.18s-.42-.07-.62-.07c-.34,0-.6.06-.78.18s-.28.29-.28.51c0,.17.05.31.14.4.09.1.22.18.39.26.17.07.38.15.62.24.25.09.48.18.68.27s.37.22.49.37.18.35.18.6Z"/>
        <path d="M39.49,190.21c.36,0,.67.08.91.25s.43.4.55.69c.12.29.18.63.18,1.01v.32h-3.04c0,.56.13.99.39,1.29.26.3.64.45,1.13.45.27,0,.5-.02.7-.06s.41-.12.65-.22v.42c-.21.1-.42.17-.63.21-.21.04-.45.06-.73.06-.63,0-1.12-.19-1.46-.58-.34-.39-.51-.92-.51-1.59,0-.43.07-.82.22-1.16s.36-.6.64-.8.61-.29,1.01-.29ZM39.48,190.59c-.39,0-.71.13-.95.39-.24.26-.38.63-.43,1.11h2.55c0-.45-.09-.81-.28-1.09-.19-.28-.49-.42-.89-.42Z"/>
        <path d="M42.69,188.47v3.09c0,.17,0,.35,0,.53,0,.18,0,.37,0,.55h0c.07-.08.15-.18.24-.29s.17-.21.25-.29l1.62-1.76h.54l-1.68,1.82,1.82,2.43h-.54l-1.6-2.13-.64.66v1.47h-.45v-6.08h.45Z"/>
        <path d="M49.72,188.83c1.37,0,2.06.54,2.06,1.62,0,.55-.18.98-.53,1.29-.35.31-.91.47-1.65.47h-.83v2.34h-.46v-5.71h1.42ZM49.67,189.24h-.91v2.57h.78c.55,0,.99-.1,1.29-.29.31-.2.46-.54.46-1.04,0-.43-.13-.74-.4-.94s-.67-.3-1.23-.3Z"/>
        <path d="M56.43,192.42c0,.44-.07.83-.22,1.16s-.36.59-.65.77c-.29.18-.63.28-1.04.28s-.73-.09-1.02-.27c-.28-.18-.5-.44-.65-.77-.15-.33-.23-.72-.23-1.17,0-.69.17-1.23.52-1.62.34-.39.81-.58,1.41-.58.41,0,.75.09,1.03.28.28.18.49.44.64.77.14.33.22.72.22,1.16ZM53.09,192.42c0,.54.11.98.34,1.32s.59.5,1.08.5.86-.17,1.09-.5c.23-.33.35-.77.35-1.32,0-.35-.05-.66-.14-.94-.1-.27-.25-.49-.46-.64-.21-.15-.48-.23-.82-.23-.49,0-.85.16-1.09.48-.24.32-.36.76-.36,1.33Z"/>
        <path d="M59.29,190.22c.22,0,.42.02.58.07l-.06.42c-.09-.02-.17-.04-.26-.05-.09-.01-.18-.02-.27-.02-.39,0-.71.14-.93.43s-.34.67-.34,1.14v2.34h-.46v-4.26h.38l.05.8h.02c.11-.24.27-.45.48-.62.22-.17.48-.26.8-.26Z"/>
        <path d="M61.86,194.24c.12,0,.23,0,.34-.03s.2-.04.28-.07v.37c-.09.03-.19.06-.3.08-.12.02-.24.03-.38.03-.35,0-.62-.1-.82-.3-.19-.2-.29-.52-.29-.96v-2.7h-.63v-.26l.63-.14.16-.98h.29v1.02h1.31v.37h-1.31v2.69c0,.6.24.9.72.9Z"/>
        <path d="M65,190.66h-1.02v3.89h-.46v-3.89h-.78v-.25l.78-.14v-.42c0-.49.11-.85.32-1.08.21-.23.53-.35.96-.35.15,0,.29.01.41.04.12.02.24.05.34.08l-.1.38c-.1-.03-.2-.06-.31-.08-.11-.02-.22-.03-.33-.03-.29,0-.5.08-.62.24-.13.16-.19.42-.19.79v.44h1.02v.37Z"/>
        <path d="M69.34,192.42c0,.44-.07.83-.22,1.16s-.36.59-.65.77c-.29.18-.63.28-1.04.28s-.73-.09-1.02-.27c-.28-.18-.5-.44-.65-.77-.15-.33-.23-.72-.23-1.17,0-.69.17-1.23.52-1.62.34-.39.81-.58,1.41-.58.41,0,.75.09,1.03.28.28.18.49.44.64.77.14.33.22.72.22,1.16ZM66,192.42c0,.54.11.98.34,1.32s.59.5,1.08.5.86-.17,1.09-.5c.23-.33.35-.77.35-1.32,0-.35-.05-.66-.14-.94-.1-.27-.25-.49-.46-.64-.21-.15-.48-.23-.82-.23-.49,0-.85.16-1.09.48-.24.32-.36.76-.36,1.33Z"/>
        <path d="M70.91,194.55h-.46v-6.08h.46v6.08Z"/>
        <path d="M72.49,188.71c.21,0,.32.12.32.34s-.11.35-.32.35-.3-.12-.3-.35.1-.34.3-.34ZM72.72,190.29v4.26h-.45v-4.26h.45Z"/>
        <path d="M77.65,192.42c0,.44-.07.83-.22,1.16s-.36.59-.65.77c-.29.18-.63.28-1.04.28s-.73-.09-1.02-.27c-.28-.18-.5-.44-.65-.77-.15-.33-.23-.72-.23-1.17,0-.69.17-1.23.52-1.62.34-.39.81-.58,1.41-.58.4,0,.75.09,1.03.28.28.18.49.44.64.77.14.33.21.72.21,1.16ZM74.31,192.42c0,.54.11.98.34,1.32.23.33.59.5,1.08.5s.86-.17,1.09-.5c.23-.33.35-.77.35-1.32,0-.35-.05-.66-.14-.94-.1-.27-.25-.49-.46-.64-.21-.15-.48-.23-.82-.23-.49,0-.85.16-1.09.48-.24.32-.36.76-.36,1.33Z"/>
      </g>
      <line class="st4" x1=".9" y1="191.69" x2="9.99" y2="191.69"/>
    </g>
    <g>
      <g>
        <path d="M214.16,191.63h2.07v2.66c-.28.11-.57.2-.88.25-.31.06-.65.08-1.01.08-.91,0-1.6-.26-2.07-.78s-.71-1.23-.71-2.15c0-.58.12-1.09.35-1.53.23-.45.57-.79,1-1.04.44-.25.96-.38,1.58-.38.31,0,.61.03.89.09.28.06.55.14.79.26l-.19.42c-.49-.23-.99-.34-1.52-.34-.5,0-.93.11-1.29.32-.36.21-.64.51-.83.89-.2.38-.29.82-.29,1.32,0,.82.21,1.45.61,1.88.41.43,1,.64,1.79.64.28,0,.52-.02.74-.06.22-.04.41-.09.59-.15v-1.95h-1.61v-.42Z"/>
        <path d="M217.98,194.55h-.46v-6.08h.46v6.08Z"/>
        <path d="M222.9,192.42c0,.44-.07.83-.22,1.16-.15.33-.36.59-.65.77s-.63.28-1.04.28-.73-.09-1.02-.27c-.28-.18-.5-.44-.65-.77-.15-.33-.23-.72-.23-1.17,0-.69.17-1.24.52-1.62.34-.39.81-.58,1.41-.58.4,0,.75.09,1.03.28.28.18.49.44.64.77.14.33.22.72.22,1.16ZM219.56,192.42c0,.54.11.98.34,1.32.23.33.59.5,1.08.5s.86-.17,1.09-.5c.23-.33.35-.77.35-1.32,0-.35-.05-.66-.14-.94-.1-.27-.25-.49-.46-.64s-.48-.23-.82-.23c-.49,0-.85.16-1.09.48-.24.32-.36.76-.36,1.33Z"/>
        <path d="M224.46,188.47v1.68c0,.15,0,.31,0,.49,0,.18-.01.32-.02.42h.03c.11-.24.28-.44.52-.6.24-.16.55-.24.92-.24.55,0,.98.19,1.28.56.3.37.46.92.46,1.64,0,.67-.15,1.21-.46,1.61-.31.4-.75.6-1.34.6-.36,0-.65-.08-.88-.22-.23-.15-.39-.33-.5-.54h-.04l-.08.69h-.34v-6.08h.46ZM225.86,190.6c-.5,0-.85.16-1.07.46-.22.31-.32.76-.32,1.34v.06c0,.58.1,1.01.31,1.32.21.3.54.45,1.02.45s.8-.16,1.04-.48c.23-.32.35-.77.35-1.36,0-1.2-.44-1.8-1.32-1.8Z"/>
        <path d="M230.27,190.22c.48,0,.84.12,1.07.35.23.24.35.61.35,1.11v2.86h-.34l-.09-.72h-.02c-.15.24-.34.43-.56.58-.22.15-.53.22-.93.22s-.73-.1-.96-.3c-.24-.2-.36-.5-.36-.89,0-.42.17-.74.52-.97.34-.22.85-.35,1.52-.38l.78-.04v-.3c0-.42-.08-.72-.25-.89-.17-.17-.42-.26-.74-.26-.22,0-.43.03-.63.08-.2.06-.4.14-.61.24l-.14-.37c.2-.1.42-.18.66-.25.24-.06.49-.1.74-.1ZM231.25,192.4l-.72.03c-.54.02-.95.11-1.22.28-.27.16-.4.41-.4.73,0,.26.08.46.25.6.16.14.39.2.68.2.44,0,.79-.12,1.03-.38.24-.25.37-.6.38-1.06v-.41Z"/>
        <path d="M233.47,194.55h-.46v-6.08h.46v6.08Z"/>
        <path d="M236.97,188.84h1.58c.71,0,1.22.11,1.56.33s.5.57.5,1.06c0,.33-.1.61-.29.85-.19.24-.47.38-.82.45v.03c.42.06.73.21.95.43.22.22.32.54.32.94,0,.37-.08.67-.25.91-.17.24-.4.42-.7.54-.3.12-.65.18-1.04.18h-1.81v-5.71ZM237.43,191.35h1.22c.52,0,.9-.09,1.13-.27.23-.18.35-.45.35-.81s-.12-.63-.38-.79c-.25-.16-.65-.24-1.21-.24h-1.12v2.11ZM237.43,191.76v2.39h1.3c1.03,0,1.55-.42,1.55-1.25,0-.39-.13-.68-.4-.87-.26-.18-.67-.28-1.23-.28h-1.23Z"/>
        <path d="M245.45,192.42c0,.44-.07.83-.22,1.16-.15.33-.36.59-.65.77s-.63.28-1.04.28-.73-.09-1.02-.27c-.28-.18-.5-.44-.65-.77-.15-.33-.23-.72-.23-1.17,0-.69.17-1.24.52-1.62.34-.39.81-.58,1.41-.58.41,0,.75.09,1.03.28.28.18.49.44.63.77.14.33.22.72.22,1.16ZM242.11,192.42c0,.54.11.98.34,1.32.23.33.59.5,1.08.5s.86-.17,1.09-.5c.23-.33.35-.77.35-1.32,0-.35-.05-.66-.14-.94-.1-.27-.25-.49-.46-.64s-.48-.23-.82-.23c-.48,0-.85.16-1.09.48-.24.32-.36.76-.36,1.33Z"/>
        <path d="M248.47,190.21c.49,0,.86.12,1.11.38.26.25.38.64.38,1.18v2.78h-.46v-2.75c0-.41-.09-.7-.28-.9-.18-.19-.45-.29-.81-.29-.94,0-1.41.54-1.41,1.62v2.32h-.45v-4.26h.37l.06.74h.03c.11-.23.29-.43.53-.58.24-.15.54-.23.91-.23Z"/>
        <path d="M252.83,194.63c-.57,0-1.01-.18-1.32-.55s-.46-.9-.46-1.61.16-1.3.48-1.68c.32-.38.77-.58,1.33-.58.36,0,.65.08.87.23.22.16.39.35.5.58h.03c0-.13-.01-.27-.02-.42,0-.15-.01-.29-.01-.41v-1.73h.46v6.08h-.37l-.06-.74h-.02c-.11.22-.28.42-.5.58s-.53.24-.9.24ZM252.88,194.23c.49,0,.84-.15,1.05-.45.21-.3.31-.73.31-1.29v-.08c0-.59-.1-1.04-.31-1.35-.21-.31-.55-.47-1.02-.47s-.81.16-1.04.48c-.23.32-.35.78-.35,1.38s.11,1.02.34,1.32c.22.3.56.45,1.02.45Z"/>
        <path d="M259.61,188.84c1.37,0,2.05.54,2.05,1.62,0,.55-.18.98-.53,1.29-.36.31-.91.47-1.65.47h-.83v2.34h-.46v-5.71h1.42ZM259.56,189.24h-.91v2.57h.78c.55,0,.99-.1,1.29-.29.31-.19.46-.54.46-1.04,0-.43-.13-.74-.4-.94s-.67-.3-1.23-.3Z"/>
        <path d="M266.32,192.42c0,.44-.07.83-.22,1.16-.15.33-.36.59-.65.77s-.63.28-1.04.28-.73-.09-1.02-.27c-.28-.18-.5-.44-.65-.77-.15-.33-.23-.72-.23-1.17,0-.69.17-1.24.52-1.62.34-.39.81-.58,1.41-.58.4,0,.75.09,1.03.28.28.18.49.44.64.77.14.33.22.72.22,1.16ZM262.99,192.42c0,.54.11.98.34,1.32.23.33.59.5,1.08.5s.86-.17,1.09-.5c.23-.33.35-.77.35-1.32,0-.35-.05-.66-.14-.94-.1-.27-.25-.49-.46-.64s-.48-.23-.82-.23c-.49,0-.85.16-1.09.48-.24.32-.36.76-.36,1.33Z"/>
        <path d="M269.19,190.22c.22,0,.42.02.58.07l-.06.42c-.09-.02-.17-.04-.26-.05-.09,0-.18-.02-.27-.02-.4,0-.71.14-.93.43-.23.29-.34.67-.34,1.14v2.34h-.46v-4.26h.38l.05.8h.02c.11-.24.27-.45.48-.62s.48-.26.8-.26Z"/>
        <path d="M271.75,194.24c.12,0,.23,0,.34-.03s.2-.04.28-.07v.37c-.08.03-.18.06-.3.08-.11.02-.24.03-.38.03-.35,0-.62-.1-.82-.3-.19-.2-.29-.52-.29-.96v-2.7h-.63v-.26l.63-.14.16-.98h.29v1.02h1.31v.37h-1.31v2.69c0,.6.24.9.72.9Z"/>
        <path d="M274.89,190.66h-1.02v3.89h-.46v-3.89h-.78v-.25l.78-.14v-.42c0-.49.11-.85.32-1.08.21-.23.53-.35.96-.35.15,0,.29.01.41.04.12.02.23.05.34.08l-.1.38c-.1-.03-.2-.06-.31-.08s-.22-.03-.33-.03c-.29,0-.5.08-.62.24-.13.16-.19.43-.19.79v.44h1.02v.37Z"/>
        <path d="M279.22,192.42c0,.44-.07.83-.22,1.16-.15.33-.36.59-.65.77-.29.18-.63.28-1.04.28s-.73-.09-1.02-.27c-.28-.18-.5-.44-.65-.77-.15-.33-.23-.72-.23-1.17,0-.69.17-1.24.52-1.62.34-.39.82-.58,1.41-.58.41,0,.75.09,1.03.28.28.18.49.44.64.77.14.33.22.72.22,1.16ZM275.89,192.42c0,.54.12.98.34,1.32.23.33.59.5,1.08.5s.86-.17,1.09-.5c.23-.33.35-.77.35-1.32,0-.35-.05-.66-.14-.94-.1-.27-.25-.49-.46-.64s-.48-.23-.82-.23c-.49,0-.85.16-1.09.48-.24.32-.36.76-.36,1.33Z"/>
        <path d="M280.8,194.55h-.46v-6.08h.46v6.08Z"/>
        <path d="M282.38,188.71c.21,0,.32.11.32.34s-.11.35-.32.35c-.2,0-.3-.12-.3-.35s.1-.34.3-.34ZM282.61,190.29v4.26h-.45v-4.26h.45Z"/>
        <path d="M287.54,192.42c0,.44-.07.83-.22,1.16-.15.33-.36.59-.65.77-.29.18-.63.28-1.04.28s-.73-.09-1.02-.27c-.28-.18-.5-.44-.65-.77-.15-.33-.23-.72-.23-1.17,0-.69.17-1.24.52-1.62.34-.39.82-.58,1.41-.58.41,0,.75.09,1.03.28.28.18.49.44.64.77.14.33.22.72.22,1.16ZM284.2,192.42c0,.54.12.98.34,1.32.23.33.59.5,1.08.5s.86-.17,1.09-.5c.23-.33.35-.77.35-1.32,0-.35-.05-.66-.14-.94-.1-.27-.25-.49-.46-.64s-.48-.23-.82-.23c-.49,0-.85.16-1.09.48-.24.32-.36.76-.36,1.33Z"/>
        <path d="M290.31,191.88h-2.11v-.22l.96-.99c.16-.16.29-.31.4-.44.11-.13.19-.26.25-.39.06-.13.08-.28.08-.44,0-.21-.06-.37-.18-.48-.12-.11-.29-.17-.49-.17-.15,0-.29.03-.42.08s-.26.13-.39.23l-.14-.19c.14-.11.29-.2.45-.26.16-.06.33-.09.5-.09.29,0,.51.08.69.24.17.16.26.37.26.64,0,.18-.03.34-.1.49s-.15.3-.27.44c-.12.14-.26.3-.42.46l-.83.85h0s1.77.01,1.77.01v.24Z"/>
      </g>
      <line class="st3" x1="198.49" y1="191.69" x2="208.5" y2="191.69"/>
    </g>
  </g>
  <g id="dot_line">
    <line class="st6" x1="178.03" y1="43.47" x2="178.03" y2="159.26"/>
  </g>
  <g id="_x32_024_B">
    <g class="st11">
      <g>
        <path class="st7" d="M343.5,159.09c-3.68,0-14.72-.18-22.07-.19-7.35,0-14.73,0-22.08-.02-7.35,0-14.65.07-22,0-7.35-.06-14.84,0-22.04,0s-16.02.9-22.08-3.64c-7.25-5.43-14.7-12.1-22.05-28.3-7.35-16.2-14.7-63.93-22.05-68.88-7.35-4.95-14.7,23.2-22.05,39.17-7.35,15.97-13.11,47.72-22.05,56.67-5.88,5.88-14.65,5.08-22.05,5.08s-18.33-.02-22.01,0l-21.47.09"/>
        <path class="st8" d="M10.06,159.24c3.68,0,17.23,0,24.59,0,7.36-.02,14.72.04,22.07-.1,7.36-.14,14.72-.12,22.07-.72,7.36-.59,14.72-1.07,22.07-2.84,7.36-1.77,14.72-4.48,22.07-7.79,7.36-3.31,14.72-8,22.07-12.05,7.36-4.05,14.72-9.47,22.07-12.25,7.36-2.78,14.43-5.55,21.77-6.07,8.36-.6,16.08,2.47,23.38,5.05,7.07,2.5,13.85,6.62,21.03,10.39,7.23,3.79,14.76,8.65,22.12,11.72,7.36,3.07,14.72,5.48,22.07,7.4,7.36,1.92,14.72,3.12,22.07,4.15,7.36,1.03,14.72,1.54,22.07,2,7.36.46,14.71.75,22.07.75,1.21,0,3.07.26,3.07.26"/>
        <path class="st0" d="M10.64,158.47c3.68,0,16.54,0,23.89-.01,7.35,0,14.71.02,22.06-.04,7.35-.06,14.94.16,22.2,0s14.67-.14,22.03-1.61c7.35-1.47,14.18-4.69,21.89-7.8s14.31-7.52,21.66-11.99c7.35-4.47,15.28-10.39,22.63-13.79,7.35-3.41,14.71-5.89,22.06-6.38,7.81-.52,14.07,1.09,22.06,4.17,7.25,2.79,14.71,7,22.06,10.82,7.35,3.82,14.74,8.59,22.06,12.1s14.71,6.16,22.06,8.23c7.35,2.06,14.71,3.14,22.06,4.15,7.35,1.01,14.71,1.5,22.06,1.93,7.35.43,14.87.06,22.32.31.77.03,3.06,0,3.06,0"/>
      </g>
    </g>
  </g>
  <g id="Axis">
    <g>
      <path d="M.52,133.53c0-.71.13-1.23.4-1.57s.68-.51,1.22-.51c.3,0,.56.06.76.17.2.11.37.25.49.43.12.17.22.36.28.55l2.56-1.57v.84l-2.36,1.38v1.14h2.36v.72H.52v-1.58ZM1.15,133.57v.82h2.12v-.86c0-.46-.09-.8-.28-1.02-.18-.21-.45-.32-.81-.32s-.64.11-.8.34c-.16.22-.24.57-.24,1.04Z"/>
      <path d="M1.87,128.63c0-.36.08-.68.24-.94s.39-.47.68-.61c.29-.14.63-.21,1.02-.21h.42v2.94c.49-.01.85-.13,1.11-.37.25-.24.38-.57.38-1,0-.27-.03-.51-.08-.72s-.12-.43-.22-.65h.62c.1.22.17.43.21.65.04.21.07.47.07.76,0,.41-.08.77-.25,1.08-.17.31-.41.55-.74.72-.33.17-.73.26-1.21.26s-.87-.08-1.21-.24-.59-.38-.78-.66-.27-.62-.27-1ZM2.44,128.64c0,.34.11.6.32.8.22.2.52.31.9.35v-2.18c-.36,0-.66.09-.88.26-.23.17-.34.43-.34.78Z"/>
      <path d="M6.23,125.09v.7H.15v-.7h6.08Z"/>
      <path d="M1.87,122.17c0-.52.11-.91.34-1.16s.59-.38,1.1-.38h2.92v.51l-.61.14v.03c.23.19.41.38.52.59s.17.49.17.85c0,.39-.1.71-.31.97s-.53.38-.96.38-.76-.17-.99-.5c-.23-.34-.36-.85-.38-1.55l-.02-.73h-.26c-.36,0-.61.08-.74.23s-.21.37-.21.66c0,.22.03.44.1.64.07.2.14.39.23.57l-.53.22c-.1-.19-.19-.41-.26-.66s-.11-.52-.11-.8ZM4.14,121.33l.02.63c.02.53.11.9.26,1.11.15.21.36.31.63.31.24,0,.42-.07.53-.22.11-.15.17-.33.17-.56,0-.36-.1-.66-.3-.9-.2-.24-.51-.36-.92-.36h-.38Z"/>
      <path d="M5.74,117.88c0-.11,0-.22-.02-.33-.02-.11-.04-.2-.06-.27h.54c.04.07.07.18.09.32.02.14.04.27.04.4,0,.22-.04.43-.12.62s-.21.34-.4.46c-.19.12-.46.18-.81.18h-2.5v.61h-.34l-.28-.62-.91-.28v-.42h.98v-1.24h.54v1.24h2.48c.26,0,.46-.06.58-.19s.19-.29.19-.48Z"/>
      <path d="M.34,116.06c0-.11.04-.2.11-.28.07-.08.19-.12.34-.12s.27.04.34.12c.07.08.11.18.11.28,0,.12-.04.22-.11.3-.07.08-.19.12-.34.12s-.27-.04-.34-.12c-.07-.08-.11-.18-.11-.3ZM1.95,115.72h4.29v.7H1.95v-.7Z"/>
      <path d="M6.23,113.33l-4.29,1.62v-.75l2.53-.91c.12-.04.25-.09.39-.14.14-.05.28-.09.42-.13.13-.04.24-.06.33-.08v-.03c-.08-.02-.2-.04-.33-.09-.14-.04-.27-.09-.42-.14-.14-.05-.27-.09-.39-.14l-2.53-.91v-.75l4.29,1.63v.81Z"/>
      <path d="M1.87,108.61c0-.36.08-.68.24-.94s.39-.47.68-.61c.29-.14.63-.21,1.02-.21h.42v2.94c.49-.01.85-.13,1.11-.37.25-.24.38-.57.38-1,0-.27-.03-.51-.08-.72s-.12-.43-.22-.65h.62c.1.22.17.43.21.65.04.21.07.47.07.76,0,.41-.08.77-.25,1.08-.17.31-.41.55-.74.72-.33.17-.73.26-1.21.26s-.87-.08-1.21-.24-.59-.38-.78-.66-.27-.62-.27-1ZM2.44,108.61c0,.34.11.6.32.8.22.2.52.31.9.35v-2.18c-.36,0-.66.09-.88.26-.23.17-.34.43-.34.78Z"/>
      <path d="M6.23,103.89H.52v-.72h5.07v-2.5h.64v3.22Z"/>
      <path d="M.34,99.42c0-.11.04-.2.11-.28.07-.08.19-.12.34-.12s.27.04.34.12c.07.08.11.18.11.28,0,.12-.04.22-.11.3-.07.08-.19.12-.34.12s-.27-.04-.34-.12c-.07-.08-.11-.18-.11-.3ZM1.95,99.08h4.29v.7H1.95v-.7Z"/>
      <path d="M.15,97.08h3.18c.08,0,.2,0,.34.01s.26.01.36.02v-.03s-.1-.08-.18-.14c-.08-.06-.16-.13-.24-.2s-.15-.12-.2-.17l-1.45-1.37v-.82l1.83,1.74,2.46-1.86v.85l-2,1.49.42.49h1.58v.7H.15v-.7Z"/>
      <path d="M1.87,92.06c0-.36.08-.68.24-.94s.39-.47.68-.61c.29-.14.63-.21,1.02-.21h.42v2.94c.49-.01.85-.13,1.11-.37.25-.24.38-.57.38-1,0-.27-.03-.51-.08-.72s-.12-.43-.22-.65h.62c.1.22.17.43.21.65.04.21.07.47.07.76,0,.41-.08.77-.25,1.08-.17.31-.41.55-.74.72-.33.17-.73.26-1.21.26s-.87-.08-1.21-.24-.59-.38-.78-.66-.27-.62-.27-1ZM2.44,92.07c0,.34.11.6.32.8.22.2.52.31.9.35v-2.18c-.36,0-.66.09-.88.26-.23.17-.34.43-.34.78Z"/>
      <path d="M6.23,88.52v.7H.15v-.7h6.08Z"/>
      <path d="M.34,86.86c0-.11.04-.2.11-.28.07-.08.19-.12.34-.12s.27.04.34.12c.07.08.11.18.11.28,0,.12-.04.22-.11.3-.07.08-.19.12-.34.12s-.27-.04-.34-.12c-.07-.08-.11-.18-.11-.3ZM1.95,86.52h4.29v.7H1.95v-.7Z"/>
      <path d="M.15,84.52h1.78c.21,0,.41.01.6.04v-.05c-.22-.14-.38-.33-.5-.56-.11-.24-.17-.49-.17-.77,0-.52.12-.91.37-1.17.25-.26.65-.4,1.2-.4h2.79v.7h-2.74c-.69,0-1.03.32-1.03.96,0,.48.13.81.4.99.27.18.66.27,1.16.27h2.22v.7H.15v-.7Z"/>
      <path d="M4.08,76.59c.71,0,1.26.18,1.65.54.39.36.58.85.58,1.46,0,.38-.09.72-.26,1.01-.17.3-.43.53-.76.7-.33.17-.74.26-1.21.26-.71,0-1.26-.18-1.64-.53s-.58-.84-.58-1.46c0-.38.09-.73.26-1.02.17-.3.42-.53.75-.7s.73-.25,1.2-.25ZM4.08,79.83c.51,0,.91-.1,1.2-.3.3-.2.44-.52.44-.96s-.15-.75-.44-.95c-.3-.2-.7-.3-1.2-.3s-.9.1-1.19.3-.43.52-.43.96.14.75.43.95.69.3,1.19.3Z"/>
      <path d="M4.08,71.76c.71,0,1.26.18,1.65.54.39.36.58.85.58,1.46,0,.38-.09.72-.26,1.01-.17.3-.43.53-.76.7-.33.17-.74.26-1.21.26-.71,0-1.26-.18-1.64-.53s-.58-.84-.58-1.46c0-.38.09-.73.26-1.02.17-.3.42-.53.75-.7s.73-.25,1.2-.25ZM4.08,75c.51,0,.91-.1,1.2-.3.3-.2.44-.52.44-.96s-.15-.75-.44-.95c-.3-.2-.7-.3-1.2-.3s-.9.1-1.19.3-.43.52-.43.96.14.75.43.95.69.3,1.19.3Z"/>
      <path d="M6.31,69.12c0,.53-.19.96-.56,1.28-.37.32-.92.48-1.66.48s-1.29-.16-1.67-.48c-.38-.32-.56-.75-.56-1.28,0-.33.06-.6.18-.81.12-.21.27-.38.45-.52v-.05c-.07.01-.17.02-.31.03s-.24.02-.32.02H.15v-.7h6.08v.57l-.58.1v.03c.18.13.34.3.46.51.13.21.19.49.19.82ZM5.73,69.01c0-.45-.12-.77-.37-.96-.25-.18-.62-.28-1.12-.28h-.13c-.53,0-.94.09-1.23.26-.29.18-.43.5-.43.98,0,.38.15.66.45.85.3.19.71.28,1.21.28s.91-.09,1.19-.28c.28-.19.42-.48.42-.86Z"/>
    </g>
    <g>
      <path d="M10.92,166.51v-.55h1.69v.55h-1.69Z"/>
      <path d="M14.31,168.12l-1.42-3.75h.66l.8,2.21c.04.1.08.22.12.34s.08.25.11.36c.03.12.06.21.07.29h.03c.01-.07.04-.17.08-.29.04-.12.08-.24.12-.36.04-.12.08-.24.12-.34l.8-2.21h.66l-1.43,3.75h-.71Z"/>
      <path d="M18.41,164.29c.32,0,.59.07.83.21.23.14.41.34.54.59.12.25.19.55.19.89v.37h-2.57c0,.42.12.75.33.97s.5.33.87.33c.24,0,.45-.02.63-.07s.38-.11.57-.19v.54c-.19.08-.38.15-.57.19-.19.04-.41.06-.67.06-.36,0-.67-.07-.95-.22-.27-.14-.48-.36-.63-.64-.15-.28-.23-.64-.23-1.06s.07-.76.21-1.06.33-.52.58-.68c.25-.16.54-.24.87-.24ZM18.4,164.8c-.29,0-.53.09-.7.28-.17.19-.27.45-.3.79h1.91c0-.32-.08-.58-.22-.77-.15-.2-.37-.3-.69-.3Z"/>
    </g>
    <path d="M179.69,165.51c0,.54-.06,1-.17,1.39s-.29.68-.54.88c-.25.21-.57.31-.96.31-.56,0-.98-.23-1.25-.68-.27-.46-.4-1.09-.4-1.89,0-.54.06-1,.17-1.39.11-.38.29-.68.53-.88.24-.2.56-.3.96-.3.56,0,.98.23,1.25.68s.41,1.08.41,1.89ZM176.99,165.51c0,.69.08,1.2.23,1.54s.42.51.8.51.64-.17.8-.51c.16-.34.24-.85.24-1.54s-.08-1.19-.24-1.53-.43-.51-.8-.51-.65.17-.8.51-.23.85-.23,1.53Z"/>
    <g>
      <path d="M336.45,165.4h1.39v.5h-1.39v1.44h-.5v-1.44h-1.39v-.5h1.39v-1.45h.5v1.45Z"/>
      <path d="M339.64,168.12l-1.42-3.75h.66l.8,2.21c.04.1.08.22.12.34s.08.25.11.36c.03.12.06.21.07.29h.03c.01-.07.04-.17.08-.29.04-.12.08-.24.12-.36.04-.12.08-.24.12-.34l.8-2.21h.66l-1.43,3.75h-.71Z"/>
      <path d="M343.74,164.29c.32,0,.59.07.83.21.23.14.41.34.54.59.12.25.19.55.19.89v.37h-2.57c0,.42.12.75.33.97.21.22.5.33.87.33.24,0,.45-.02.63-.07s.37-.11.57-.19v.54c-.19.08-.38.15-.57.19-.19.04-.41.06-.67.06-.36,0-.67-.07-.95-.22-.27-.14-.48-.36-.63-.64-.15-.28-.23-.64-.23-1.06s.07-.76.21-1.06.33-.52.58-.68c.25-.16.54-.24.87-.24ZM343.73,164.8c-.29,0-.53.09-.7.28-.17.19-.27.45-.3.79h1.91c0-.32-.08-.58-.22-.77s-.37-.3-.69-.3Z"/>
    </g>
    <line class="st5" x1="136.22" y1="159.16" x2="136.22" y2="161.34"/>
    <line class="st5" x1="94.41" y1="159.16" x2="94.41" y2="161.34"/>
    <line class="st5" x1="52.59" y1="159.16" x2="52.59" y2="161.34"/>
    <line class="st5" x1="178.03" y1="159.16" x2="178.03" y2="161.34"/>
    <line class="st5" x1="219.85" y1="159.16" x2="219.85" y2="161.34"/>
    <line class="st5" x1="261.66" y1="159.16" x2="261.66" y2="161.34"/>
    <line class="st5" x1="303.47" y1="159.16" x2="303.47" y2="161.34"/>
    <line class="st5" x1="10.77" y1="43.13" x2="10.77" y2="161.34"/>
    <polyline class="st5" points="10.77 43.13 10.77 159.27 345.29 159.26 345.29 161.33"/>
  </g>
  <g id="speech">
    <g>
      <g id="purple_speech">
        <path class="st10" d="M334.53,63.52v43.6h-64.84l-.33.73-12.93,28.21,2.25-27.66v-.05s0-.05,0-.05v-44.77h75.85M335.78,62.27h-78.35v46.02l-2.83,34.74,15.89-34.67h65.29v-46.1h0Z"/>
      </g>
      <g>
        <path d="M270.38,68.36l-1.52,5.71h-.73l-1.11-3.74c-.05-.15-.09-.3-.13-.46-.04-.16-.08-.3-.1-.42s-.05-.2-.05-.25c0,.07-.04.22-.09.44-.05.23-.12.46-.18.71l-1.08,3.72h-.73l-1.51-5.71h.75l.89,3.49c.06.25.12.48.16.71.04.23.08.45.11.65.03-.21.07-.43.12-.68.05-.25.12-.49.18-.72l1.01-3.45h.74l1.05,3.47c.07.25.14.49.19.74.05.25.09.46.12.64.02-.2.06-.41.11-.64.05-.23.11-.47.17-.72l.88-3.48h.75Z"/>
        <path d="M271.52,68.18c.11,0,.2.04.28.11.08.07.12.19.12.34s-.04.27-.12.34c-.08.07-.18.11-.28.11-.12,0-.22-.04-.3-.11-.08-.07-.12-.18-.12-.34s.04-.27.12-.34.18-.11.3-.11ZM271.87,69.79v4.29h-.7v-4.29h.7Z"/>
        <path d="M274.75,74.15c-.53,0-.96-.19-1.28-.56-.32-.37-.48-.92-.48-1.66s.16-1.29.48-1.67c.32-.38.75-.56,1.28-.56.33,0,.6.06.81.18.21.12.38.27.52.45h.05c-.01-.07-.02-.17-.03-.31s-.02-.24-.02-.32v-1.71h.7v6.08h-.57l-.1-.58h-.03c-.13.18-.3.34-.51.46-.21.13-.49.19-.82.19ZM274.86,73.57c.45,0,.77-.12.96-.37.18-.25.28-.62.28-1.12v-.13c0-.53-.09-.94-.26-1.23-.18-.29-.5-.43-.98-.43-.38,0-.66.15-.85.45-.19.3-.28.71-.28,1.21s.09.91.28,1.19c.19.28.48.42.86.42Z"/>
        <path d="M279.8,69.71c.36,0,.68.08.94.24s.47.39.61.68c.14.29.21.63.21,1.02v.42h-2.94c.01.49.13.85.37,1.11.24.25.57.38,1,.38.27,0,.51-.03.72-.08.21-.05.43-.12.65-.22v.62c-.22.1-.43.17-.65.21-.21.05-.47.07-.76.07-.41,0-.77-.08-1.08-.25-.31-.17-.55-.41-.72-.74s-.26-.73-.26-1.21.08-.87.24-1.21.38-.59.66-.78c.29-.18.62-.27,1-.27ZM279.79,70.28c-.34,0-.6.11-.8.32s-.31.52-.35.9h2.18c0-.36-.09-.66-.26-.88s-.43-.34-.78-.34Z"/>
        <path d="M284.66,69.71c.08,0,.17,0,.26.01.09,0,.17.02.25.04l-.09.65c-.07-.02-.15-.03-.23-.04-.08-.01-.16-.02-.23-.02-.22,0-.42.06-.62.18-.19.12-.35.29-.46.5s-.17.47-.17.76v2.29h-.7v-4.29h.58l.08.78h.03c.13-.23.31-.44.53-.61.22-.17.48-.26.78-.26Z"/>
        <path d="M289.76,74.15c-.38,0-.72-.08-1.02-.23-.29-.15-.52-.39-.69-.72s-.25-.74-.25-1.25.09-.96.26-1.29c.17-.33.41-.57.72-.73.3-.16.65-.23,1.03-.23.21,0,.42.02.63.07.21.04.37.1.5.16l-.22.58c-.13-.05-.28-.09-.45-.14-.17-.04-.33-.06-.48-.06-.84,0-1.26.54-1.26,1.62,0,.52.1.91.31,1.19.21.28.51.41.92.41.23,0,.43-.02.62-.07.18-.05.35-.11.5-.18v.62c-.14.08-.3.13-.48.17-.17.04-.38.06-.63.06Z"/>
        <path d="M295.46,69.79v4.29h-.58l-.1-.57h-.03c-.14.22-.33.39-.58.49-.25.1-.51.16-.78.16-.52,0-.91-.12-1.17-.37-.26-.25-.39-.64-.39-1.19v-2.81h.71v2.76c0,.68.32,1.02.95,1.02.47,0,.8-.13.99-.4.18-.27.28-.65.28-1.15v-2.23h.7Z"/>
        <path d="M298.83,69.71c.08,0,.17,0,.26.01.09,0,.17.02.25.04l-.09.65c-.07-.02-.15-.03-.23-.04-.09-.01-.16-.02-.23-.02-.22,0-.42.06-.62.18-.19.12-.34.29-.46.5-.11.22-.17.47-.17.76v2.29h-.7v-4.29h.58l.08.78h.03c.13-.23.31-.44.53-.61.22-.17.48-.26.78-.26Z"/>
        <path d="M301.07,74.07l-1.62-4.29h.75l.91,2.53c.04.12.09.25.14.39.05.14.09.28.13.42.04.13.06.24.08.33h.03c.02-.08.04-.2.09-.33s.09-.27.14-.42.09-.27.14-.39l.91-2.53h.75l-1.63,4.29h-.81Z"/>
        <path d="M305.85,69.71c.36,0,.68.08.94.24s.47.39.61.68c.14.29.21.63.21,1.02v.42h-2.94c.01.49.13.85.37,1.11.24.25.57.38,1,.38.27,0,.51-.03.72-.08s.43-.12.65-.22v.62c-.22.1-.43.17-.65.21-.21.05-.47.07-.76.07-.41,0-.77-.08-1.08-.25s-.55-.41-.72-.74c-.17-.33-.26-.73-.26-1.21s.08-.87.24-1.21.38-.59.66-.78c.29-.18.62-.27,1-.27ZM305.84,70.28c-.34,0-.6.11-.8.32-.2.22-.31.52-.35.9h2.18c0-.36-.09-.66-.26-.88-.17-.23-.43-.34-.78-.34Z"/>
        <path d="M314.51,71.92c0,.71-.18,1.26-.54,1.65-.36.39-.85.58-1.46.58-.38,0-.72-.09-1.01-.26-.3-.17-.53-.43-.7-.76-.17-.33-.26-.74-.26-1.21,0-.71.18-1.26.53-1.64s.84-.58,1.46-.58c.38,0,.73.09,1.02.26.3.17.53.42.7.75.17.33.25.73.25,1.2ZM311.27,71.92c0,.51.1.91.3,1.2s.52.44.96.44.75-.15.95-.44.3-.7.3-1.2-.1-.9-.3-1.19-.52-.43-.96-.43-.75.14-.95.43-.3.69-.3,1.19Z"/>
        <path d="M317.6,70.33h-1.08v3.74h-.7v-3.74h-.75v-.33l.75-.24v-.25c0-.55.12-.95.36-1.2.24-.24.58-.36,1.03-.36.17,0,.32.01.46.04.14.03.27.06.37.1l-.18.55c-.09-.03-.18-.05-.3-.08-.11-.03-.23-.04-.34-.04-.24,0-.41.08-.52.24-.12.16-.17.4-.17.74v.28h1.08v.54Z"/>
        <path d="M264.89,79.21c.28,0,.54.05.76.16s.42.27.58.49h.04l.1-.57h.56v4.36c0,.61-.16,1.07-.47,1.38-.31.31-.8.46-1.45.46s-1.14-.09-1.54-.27v-.65c.42.22.95.34,1.58.34.37,0,.66-.11.87-.32s.32-.51.32-.88v-.17c0-.06,0-.16,0-.28,0-.12.01-.2.02-.25h-.03c-.29.43-.73.65-1.33.65-.55,0-.99-.19-1.3-.58-.31-.39-.47-.93-.47-1.63s.16-1.23.47-1.63c.31-.4.74-.6,1.29-.6ZM264.99,79.8c-.36,0-.63.14-.83.43s-.3.69-.3,1.22.1.93.29,1.21c.19.28.48.42.86.42.43,0,.75-.12.94-.35.2-.23.3-.61.3-1.12v-.17c0-.58-.1-1-.3-1.26-.2-.26-.52-.38-.95-.38Z"/>
        <path d="M270.29,79.21c.08,0,.17,0,.26.01.09,0,.17.02.25.04l-.09.65c-.07-.02-.15-.03-.23-.04-.08-.01-.16-.02-.23-.02-.22,0-.42.06-.62.18-.19.12-.35.29-.46.5s-.17.47-.17.76v2.29h-.7v-4.29h.58l.08.78h.03c.13-.23.31-.44.53-.61.22-.17.48-.26.78-.26Z"/>
        <path d="M273.09,79.21c.36,0,.68.08.94.24s.47.39.61.68c.14.29.21.63.21,1.02v.42h-2.94c.01.49.13.85.37,1.11.24.25.57.38,1,.38.27,0,.51-.03.72-.08s.43-.12.65-.22v.62c-.22.1-.44.17-.65.21-.21.05-.47.07-.76.07-.41,0-.77-.08-1.08-.25s-.55-.41-.72-.74c-.17-.33-.26-.73-.26-1.21s.08-.87.24-1.21.38-.59.66-.78c.29-.18.62-.27,1-.27ZM273.08,79.78c-.34,0-.6.11-.8.32-.2.22-.31.52-.35.9h2.18c0-.36-.09-.66-.26-.88-.17-.23-.43-.34-.78-.34Z"/>
        <path d="M277.57,79.21c.52,0,.91.12,1.16.34.25.23.38.59.38,1.1v2.92h-.51l-.14-.61h-.03c-.19.24-.38.41-.59.52s-.49.17-.85.17c-.39,0-.71-.1-.97-.31-.26-.21-.38-.53-.38-.96s.17-.76.5-.99c.34-.23.85-.36,1.55-.38l.73-.02v-.26c0-.36-.08-.61-.23-.74-.16-.14-.37-.21-.66-.21-.22,0-.44.03-.64.1-.2.07-.39.14-.57.23l-.22-.53c.19-.1.41-.19.66-.26s.52-.11.8-.11ZM278.41,81.48l-.63.02c-.53.02-.9.11-1.11.26-.21.15-.31.36-.31.63,0,.24.07.42.22.53.15.11.33.17.56.17.36,0,.66-.1.9-.3.24-.2.36-.51.36-.92v-.38Z"/>
        <path d="M281.87,83.08c.11,0,.22,0,.33-.02.11-.02.2-.04.27-.06v.54c-.08.04-.18.07-.32.09s-.27.04-.4.04c-.22,0-.43-.04-.62-.12-.19-.08-.34-.21-.46-.4-.12-.19-.18-.46-.18-.81v-2.5h-.61v-.34l.62-.28.28-.91h.42v.98h1.24v.54h-1.24v2.48c0,.26.06.45.19.58s.29.19.48.19Z"/>
        <path d="M284.98,79.21c.36,0,.68.08.94.24s.47.39.61.68c.14.29.21.63.21,1.02v.42h-2.94c.01.49.13.85.37,1.11.24.25.57.38,1,.38.27,0,.51-.03.72-.08s.43-.12.65-.22v.62c-.22.1-.44.17-.65.21-.21.05-.47.07-.76.07-.41,0-.77-.08-1.08-.25s-.55-.41-.72-.74c-.17-.33-.26-.73-.26-1.21s.08-.87.24-1.21.38-.59.66-.78c.29-.18.62-.27,1-.27ZM284.97,79.78c-.34,0-.6.11-.8.32-.2.22-.31.52-.35.9h2.18c0-.36-.09-.66-.26-.88-.17-.23-.43-.34-.78-.34Z"/>
        <path d="M289.83,79.21c.08,0,.17,0,.26.01.09,0,.17.02.25.04l-.09.65c-.07-.02-.15-.03-.23-.04-.09-.01-.16-.02-.23-.02-.22,0-.42.06-.62.18-.19.12-.34.29-.46.5-.11.22-.17.47-.17.76v2.29h-.7v-4.29h.58l.08.78h.03c.13-.23.31-.44.53-.61.22-.17.48-.26.78-.26Z"/>
        <path d="M294.84,79.21c.52,0,.91.12,1.16.34.25.23.38.59.38,1.1v2.92h-.51l-.14-.61h-.03c-.19.24-.38.41-.59.52s-.49.17-.85.17c-.39,0-.71-.1-.97-.31-.26-.21-.38-.53-.38-.96s.17-.76.5-.99c.34-.23.85-.36,1.55-.38l.73-.02v-.26c0-.36-.08-.61-.23-.74s-.37-.21-.66-.21c-.22,0-.44.03-.64.1-.2.07-.39.14-.57.23l-.22-.53c.19-.1.41-.19.66-.26s.52-.11.8-.11ZM295.68,81.48l-.63.02c-.53.02-.9.11-1.11.26-.21.15-.31.36-.31.63,0,.24.07.42.22.53.15.11.33.17.56.17.36,0,.66-.1.9-.3.24-.2.36-.51.36-.92v-.38Z"/>
        <path d="M299.77,79.21c.51,0,.9.13,1.16.38.26.25.39.65.39,1.2v2.79h-.7v-2.74c0-.69-.32-1.03-.96-1.03-.47,0-.8.13-.98.4-.18.27-.27.65-.27,1.15v2.22h-.7v-4.29h.57l.1.58h.04c.14-.22.33-.39.58-.5s.5-.16.78-.16Z"/>
        <path d="M304.71,79.21c.51,0,.9.13,1.16.38.26.25.39.65.39,1.2v2.79h-.7v-2.74c0-.69-.32-1.03-.96-1.03-.47,0-.8.13-.98.4-.18.27-.27.65-.27,1.15v2.22h-.7v-4.29h.57l.1.58h.04c.14-.22.33-.39.58-.5s.5-.16.78-.16Z"/>
        <path d="M311.18,79.29v4.29h-.58l-.1-.57h-.03c-.14.22-.33.39-.58.49-.25.1-.51.16-.78.16-.52,0-.91-.12-1.17-.37-.26-.25-.39-.64-.39-1.19v-2.81h.71v2.76c0,.68.32,1.02.95,1.02.47,0,.8-.13.99-.4.18-.27.28-.65.28-1.15v-2.23h.7Z"/>
        <path d="M314.16,79.21c.52,0,.91.12,1.16.34.25.23.38.59.38,1.1v2.92h-.51l-.14-.61h-.03c-.19.24-.38.41-.59.52s-.49.17-.85.17c-.39,0-.71-.1-.97-.31-.26-.21-.38-.53-.38-.96s.17-.76.5-.99c.34-.23.85-.36,1.55-.38l.73-.02v-.26c0-.36-.08-.61-.23-.74s-.37-.21-.66-.21c-.22,0-.44.03-.64.1-.2.07-.39.14-.57.23l-.22-.53c.19-.1.41-.19.66-.26s.52-.11.8-.11ZM315,81.48l-.63.02c-.53.02-.9.11-1.11.26-.21.15-.31.36-.31.63,0,.24.07.42.22.53.15.11.33.17.56.17.36,0,.66-.1.9-.3.24-.2.36-.51.36-.92v-.38Z"/>
        <path d="M317.73,83.57h-.7v-6.08h.7v6.08Z"/>
        <path d="M264.77,93.07l-1.62-4.29h.75l.91,2.53c.04.12.09.25.14.39.05.14.09.28.13.42.04.13.06.24.08.33h.03c.02-.08.04-.2.09-.33.04-.14.09-.27.14-.42s.09-.27.14-.39l.91-2.53h.75l-1.63,4.29h-.81Z"/>
        <path d="M271.61,90.92c0,.71-.18,1.26-.54,1.65s-.85.58-1.46.58c-.38,0-.72-.09-1.01-.26-.3-.17-.53-.43-.7-.76-.17-.33-.26-.74-.26-1.21,0-.71.18-1.26.53-1.64.35-.38.84-.58,1.46-.58.38,0,.72.09,1.02.26.3.17.53.42.7.75.17.33.25.73.25,1.2ZM268.37,90.92c0,.51.1.91.3,1.2.2.3.52.44.96.44s.75-.15.95-.44c.2-.3.3-.7.3-1.2s-.1-.9-.3-1.19c-.2-.29-.52-.43-.96-.43s-.75.14-.95.43-.3.69-.3,1.19Z"/>
        <path d="M273.43,93.07h-.7v-6.08h.7v6.08Z"/>
        <path d="M276.41,88.71c.52,0,.91.12,1.16.34.25.23.38.59.38,1.1v2.92h-.51l-.14-.61h-.03c-.19.24-.38.41-.59.52s-.49.17-.85.17c-.39,0-.71-.1-.97-.31-.26-.21-.38-.53-.38-.96s.17-.76.5-.99c.34-.23.85-.36,1.55-.38l.73-.02v-.26c0-.36-.08-.61-.23-.74-.16-.14-.37-.21-.66-.21-.22,0-.44.03-.64.1-.2.07-.39.14-.57.23l-.22-.53c.19-.1.41-.19.66-.26s.52-.11.8-.11ZM277.25,90.98l-.63.02c-.53.02-.9.11-1.11.26-.21.15-.31.36-.31.63,0,.24.07.42.22.53.15.11.33.17.56.17.36,0,.66-.1.9-.3.24-.2.36-.51.36-.92v-.38Z"/>
        <path d="M280.71,92.58c.11,0,.22,0,.33-.02.11-.02.2-.04.27-.06v.54c-.07.04-.18.07-.32.09s-.27.04-.4.04c-.22,0-.43-.04-.62-.12s-.34-.21-.46-.4c-.12-.19-.18-.46-.18-.81v-2.5h-.61v-.34l.62-.28.28-.91h.42v.98h1.24v.54h-1.24v2.48c0,.26.06.45.19.58.13.12.29.19.48.19Z"/>
        <path d="M282.53,87.18c.11,0,.2.04.28.11.08.07.12.19.12.34s-.04.27-.12.34c-.08.07-.18.11-.28.11-.12,0-.22-.04-.3-.11-.08-.07-.12-.18-.12-.34s.04-.27.12-.34.18-.11.3-.11ZM282.87,88.79v4.29h-.7v-4.29h.7Z"/>
        <path d="M284.93,93.07h-.7v-6.08h.7v6.08Z"/>
        <path d="M286.65,87.18c.11,0,.2.04.28.11.08.07.12.19.12.34s-.04.27-.12.34c-.08.07-.18.11-.28.11-.12,0-.22-.04-.3-.11-.08-.07-.12-.18-.12-.34s.04-.27.12-.34.18-.11.3-.11ZM287,88.79v4.29h-.7v-4.29h.7Z"/>
        <path d="M289.79,92.58c.11,0,.21,0,.33-.02.11-.02.2-.04.27-.06v.54c-.07.04-.18.07-.32.09s-.27.04-.4.04c-.22,0-.43-.04-.62-.12s-.34-.21-.46-.4c-.12-.19-.18-.46-.18-.81v-2.5h-.61v-.34l.62-.28.28-.91h.42v.98h1.24v.54h-1.24v2.48c0,.26.06.45.19.58.12.12.29.19.48.19Z"/>
        <path d="M290.57,88.79h.75l.93,2.44c.08.22.15.42.22.62.06.19.11.38.14.55h.03c.03-.13.08-.31.15-.52.07-.22.14-.43.22-.65l.87-2.43h.76l-1.85,4.88c-.16.41-.35.73-.58.97-.24.24-.56.36-.98.36-.13,0-.24,0-.34-.02-.1-.01-.18-.03-.25-.04v-.56c.06.01.13.02.21.03s.17.02.26.02c.25,0,.44-.07.59-.21.15-.14.27-.32.36-.55l.22-.57-1.73-4.3Z"/>
        <path d="M299.38,89.33h-1.08v3.74h-.7v-3.74h-.75v-.33l.75-.24v-.25c0-.55.12-.95.36-1.2.24-.24.58-.36,1.03-.36.17,0,.32.01.46.04.14.03.27.06.37.1l-.18.55c-.09-.03-.18-.05-.3-.08-.11-.03-.23-.04-.34-.04-.24,0-.41.08-.52.24-.12.16-.17.4-.17.74v.28h1.08v.54Z"/>
        <path d="M303.89,90.92c0,.71-.18,1.26-.54,1.65-.36.39-.85.58-1.46.58-.38,0-.72-.09-1.01-.26-.3-.17-.53-.43-.7-.76-.17-.33-.26-.74-.26-1.21,0-.71.18-1.26.53-1.64s.84-.58,1.46-.58c.38,0,.73.09,1.02.26.3.17.53.42.7.75.17.33.25.73.25,1.2ZM300.65,90.92c0,.51.1.91.3,1.2s.52.44.96.44.75-.15.95-.44.3-.7.3-1.2-.1-.9-.3-1.19-.52-.43-.96-.43-.75.14-.95.43-.3.69-.3,1.19Z"/>
        <path d="M307,88.71c.08,0,.17,0,.26.01.09,0,.17.02.25.04l-.09.65c-.07-.02-.15-.03-.23-.04-.09-.01-.16-.02-.23-.02-.22,0-.42.06-.62.18-.19.12-.34.29-.46.5-.11.22-.17.47-.17.76v2.29h-.7v-4.29h.58l.08.78h.03c.13-.23.31-.44.53-.61.22-.17.48-.26.78-.26Z"/>
        <path d="M265.63,102.57h-.72v-5.08h-1.78v-.63h4.28v.63h-1.78v5.08Z"/>
        <path d="M269.26,98.21c.36,0,.68.08.94.24s.47.39.61.68c.14.29.21.63.21,1.02v.42h-2.94c.01.49.13.85.37,1.11.24.25.57.38,1,.38.27,0,.51-.03.72-.08.21-.05.43-.12.65-.22v.62c-.22.1-.43.17-.65.21-.21.05-.47.07-.76.07-.41,0-.77-.08-1.08-.25-.31-.17-.55-.41-.72-.74s-.26-.73-.26-1.21.08-.87.24-1.21.38-.59.66-.78c.29-.18.62-.27,1-.27ZM269.26,98.78c-.34,0-.6.11-.8.32s-.31.52-.35.9h2.18c0-.36-.09-.66-.26-.88s-.43-.34-.78-.34Z"/>
        <path d="M276.82,98.21c.49,0,.85.13,1.09.38.24.25.36.65.36,1.2v2.79h-.7v-2.76c0-.68-.29-1.02-.87-1.02-.42,0-.71.12-.89.36s-.27.59-.27,1.05v2.37h-.7v-2.76c0-.68-.29-1.02-.88-1.02-.43,0-.73.13-.9.4-.17.27-.25.65-.25,1.15v2.22h-.7v-4.29h.57l.1.58h.04c.13-.22.31-.39.54-.5.23-.11.47-.16.72-.16.67,0,1.11.24,1.31.72h.04c.14-.25.34-.43.58-.54.25-.12.51-.18.79-.18Z"/>
        <path d="M281.22,98.21c.52,0,.91.12,1.16.34.25.23.38.59.38,1.1v2.92h-.51l-.14-.61h-.03c-.19.24-.38.41-.59.52s-.49.17-.85.17c-.39,0-.71-.1-.97-.31-.26-.21-.38-.53-.38-.96s.17-.76.5-.99c.34-.23.85-.36,1.55-.38l.73-.02v-.26c0-.36-.08-.61-.23-.74-.16-.14-.37-.21-.66-.21-.22,0-.44.03-.64.1-.2.07-.39.14-.57.23l-.22-.53c.19-.1.41-.19.66-.26s.52-.11.8-.11ZM282.06,100.48l-.63.02c-.53.02-.9.11-1.11.26-.21.15-.31.36-.31.63,0,.24.07.42.22.53.15.11.33.17.56.17.36,0,.66-.1.9-.3.24-.2.36-.51.36-.92v-.38Z"/>
        <path d="M286.88,101.39c0,.42-.16.73-.46.94-.31.21-.72.32-1.25.32-.3,0-.56-.02-.77-.07s-.41-.11-.57-.2v-.64c.17.08.38.16.62.24.24.07.49.11.74.11.36,0,.62-.06.78-.17.16-.11.24-.27.24-.46,0-.11-.03-.2-.09-.29-.06-.08-.16-.17-.32-.26-.15-.08-.37-.18-.65-.29-.28-.11-.51-.21-.71-.32-.2-.11-.35-.23-.46-.38s-.16-.34-.16-.58c0-.36.15-.64.44-.84s.68-.3,1.16-.3c.26,0,.5.03.73.08.23.05.44.12.64.21l-.24.56c-.18-.08-.37-.14-.57-.19s-.4-.08-.61-.08c-.29,0-.51.05-.66.14-.15.09-.23.22-.23.38,0,.12.04.22.1.3s.18.16.35.24c.16.08.38.17.65.27.27.1.5.21.7.31.19.11.34.24.44.39s.15.34.15.57Z"/>
        <path d="M289.58,98.21c.36,0,.68.08.94.24.27.16.47.39.61.68.14.29.21.63.21,1.02v.42h-2.94c0,.49.13.85.37,1.11.24.25.57.38,1,.38.27,0,.51-.03.72-.08s.43-.12.65-.22v.62c-.22.1-.44.17-.65.21-.21.05-.47.07-.76.07-.41,0-.77-.08-1.08-.25-.31-.17-.55-.41-.72-.74s-.26-.73-.26-1.21.08-.87.24-1.21.38-.59.67-.78c.29-.18.62-.27,1-.27ZM289.57,98.78c-.34,0-.6.11-.8.32-.19.22-.31.52-.35.9h2.18c0-.36-.09-.66-.26-.88s-.43-.34-.78-.34Z"/>
        <path d="M293.13,96.49v3.18c0,.09,0,.2-.01.34s-.01.26-.02.36h.03s.08-.1.14-.18c.06-.08.13-.16.2-.24.07-.08.12-.15.17-.2l1.37-1.45h.82l-1.74,1.83,1.86,2.46h-.85l-1.49-2-.49.42v1.58h-.7v-6.08h.7Z"/>
        <path d="M300.39,96.86c.75,0,1.29.15,1.63.44.34.29.51.71.51,1.24,0,.32-.07.61-.21.88-.14.28-.38.5-.71.67-.33.17-.79.26-1.36.26h-.66v2.22h-.72v-5.71h1.51ZM300.33,97.48h-.73v2.26h.58c.54,0,.95-.09,1.22-.26.27-.18.4-.48.4-.9,0-.37-.12-.64-.36-.82-.24-.18-.61-.27-1.11-.27Z"/>
        <path d="M307.35,100.42c0,.71-.18,1.26-.54,1.65-.36.39-.85.58-1.46.58-.38,0-.72-.09-1.01-.26-.3-.17-.53-.43-.7-.76-.17-.33-.26-.74-.26-1.21,0-.71.18-1.26.53-1.64s.84-.58,1.46-.58c.38,0,.73.09,1.02.26.3.17.53.42.7.75.17.33.25.73.25,1.2ZM304.11,100.42c0,.51.1.91.3,1.2s.52.44.96.44.75-.15.95-.44.3-.7.3-1.2-.1-.9-.3-1.19-.52-.43-.96-.43-.75.14-.95.43-.3.69-.3,1.19Z"/>
        <path d="M310.46,98.21c.08,0,.17,0,.26.01.09,0,.17.02.25.04l-.09.65c-.07-.02-.15-.03-.23-.04-.09-.01-.16-.02-.23-.02-.22,0-.42.06-.62.18-.19.12-.34.29-.46.5-.11.22-.17.47-.17.76v2.29h-.7v-4.29h.58l.08.78h.03c.13-.23.31-.44.53-.61.22-.17.48-.26.78-.26Z"/>
        <path d="M313.2,102.08c.11,0,.22,0,.33-.02.11-.02.2-.04.27-.06v.54c-.07.04-.18.07-.32.09s-.27.04-.4.04c-.22,0-.43-.04-.62-.12s-.34-.21-.46-.4c-.12-.19-.18-.46-.18-.81v-2.5h-.61v-.34l.62-.28.28-.91h.42v.98h1.24v.54h-1.24v2.48c0,.26.06.45.19.58.12.12.29.19.48.19Z"/>
        <path d="M316.63,98.83h-1.08v3.74h-.7v-3.74h-.75v-.33l.75-.24v-.25c0-.55.12-.95.36-1.2.24-.24.58-.36,1.03-.36.17,0,.32.01.46.04.14.03.27.06.37.1l-.18.55c-.09-.03-.18-.05-.3-.08-.11-.03-.23-.04-.34-.04-.24,0-.41.08-.52.24-.12.16-.17.4-.17.74v.28h1.08v.54Z"/>
        <path d="M321.14,100.42c0,.71-.18,1.26-.54,1.65-.36.39-.85.58-1.46.58-.38,0-.72-.09-1.01-.26-.3-.17-.53-.43-.7-.76-.17-.33-.26-.74-.26-1.21,0-.71.18-1.26.53-1.64s.84-.58,1.46-.58c.38,0,.73.09,1.02.26.3.17.53.42.7.75.17.33.25.73.25,1.2ZM317.9,100.42c0,.51.1.91.3,1.2s.52.44.96.44.75-.15.95-.44.3-.7.3-1.2-.1-.9-.3-1.19-.52-.43-.96-.43-.75.14-.95.43-.3.69-.3,1.19Z"/>
        <path d="M322.95,102.57h-.7v-6.08h.7v6.08Z"/>
        <path d="M324.67,96.68c.11,0,.2.04.28.11.08.07.12.19.12.34s-.04.27-.12.34c-.08.07-.18.11-.28.11-.12,0-.22-.04-.3-.11-.08-.07-.12-.18-.12-.34s.04-.27.12-.34.18-.11.3-.11ZM325.02,98.29v4.29h-.7v-4.29h.7Z"/>
        <path d="M330.11,100.42c0,.71-.18,1.26-.54,1.65-.36.39-.85.58-1.46.58-.38,0-.72-.09-1.01-.26-.3-.17-.53-.43-.7-.76-.17-.33-.26-.74-.26-1.21,0-.71.18-1.26.53-1.64s.84-.58,1.46-.58c.38,0,.73.09,1.02.26.3.17.53.42.7.75.17.33.25.73.25,1.2ZM326.87,100.42c0,.51.1.91.3,1.2s.52.44.96.44.75-.15.95-.44.3-.7.3-1.2-.1-.9-.3-1.19-.52-.43-.96-.43-.75.14-.95.43-.3.69-.3,1.19Z"/>
      </g>
      <g>
        <g id="speech_green">
          <path class="st9" d="M126.61,46.06v55.35s0,.78,0,.78l.7.34,19.48,9.61-41.59-11.93-.17-.05H35.59l-.06-53.94,91.08-.16M127.86,44.81l-93.58.17.07,56.43h70.51l54.99,15.77-31.99-15.77v-56.6h0Z"/>
        </g>
        <g>
          <path d="M44.31,57.6h-.84l-3.06-4.74h-.03c.01.19.02.42.04.7.02.28.02.56.02.86v3.19h-.66v-5.71h.83l3.05,4.73h.03c0-.08-.01-.21-.02-.38s-.02-.36-.02-.56-.01-.39-.01-.56v-3.22h.67v5.71Z"/>
          <path d="M47.49,53.24c.52,0,.91.12,1.16.34.25.23.38.59.38,1.1v2.92h-.51l-.14-.61h-.03c-.19.24-.38.41-.59.52s-.49.17-.85.17c-.39,0-.71-.1-.97-.31-.26-.21-.38-.53-.38-.96s.17-.76.5-.99c.34-.23.85-.36,1.55-.38l.73-.02v-.26c0-.36-.08-.61-.23-.74-.15-.14-.37-.21-.66-.21-.22,0-.44.03-.64.1-.2.07-.39.14-.57.23l-.22-.53c.19-.1.41-.19.66-.26s.52-.11.8-.11ZM48.33,55.5l-.63.02c-.53.02-.9.11-1.11.26-.21.15-.31.36-.31.63,0,.24.07.42.22.53.15.11.33.17.56.17.36,0,.66-.1.9-.3.24-.2.36-.51.36-.92v-.38Z"/>
          <path d="M52.46,53.23c.08,0,.17,0,.26.01.09,0,.17.02.25.04l-.09.65c-.07-.02-.15-.03-.23-.04-.08-.01-.16-.02-.23-.02-.22,0-.42.06-.62.18-.19.12-.35.29-.46.5s-.17.47-.17.76v2.29h-.7v-4.29h.58l.08.78h.03c.13-.23.31-.44.53-.61.22-.17.48-.26.78-.26Z"/>
          <path d="M55.96,53.23c.08,0,.17,0,.26.01.09,0,.17.02.25.04l-.09.65c-.07-.02-.15-.03-.23-.04-.08-.01-.16-.02-.23-.02-.22,0-.42.06-.62.18-.19.12-.35.29-.46.5s-.17.47-.17.76v2.29h-.7v-4.29h.58l.08.78h.03c.13-.23.31-.44.53-.61.22-.17.48-.26.78-.26Z"/>
          <path d="M61.1,55.44c0,.71-.18,1.26-.54,1.65-.36.39-.85.58-1.46.58-.38,0-.72-.09-1.01-.26-.3-.17-.53-.43-.7-.76-.17-.33-.26-.74-.26-1.21,0-.71.18-1.26.53-1.64s.84-.58,1.46-.58c.38,0,.73.09,1.02.26.3.17.53.42.7.75.17.33.25.73.25,1.2ZM57.86,55.44c0,.51.1.91.3,1.2s.52.44.96.44.75-.15.95-.44c.2-.3.3-.7.3-1.2s-.1-.9-.3-1.19c-.2-.29-.52-.43-.96-.43s-.75.14-.95.43-.3.69-.3,1.19Z"/>
          <path d="M65.84,57.59l-.74-2.42c-.07-.22-.13-.43-.18-.64-.05-.21-.09-.37-.11-.5h-.03c-.02.12-.06.29-.1.5-.05.21-.11.42-.18.65l-.77,2.41h-.8l-1.18-4.29h.73l.59,2.29c.06.23.11.46.17.7.05.23.09.43.11.58h.03c.02-.09.04-.2.07-.34.03-.13.07-.27.1-.42.04-.15.07-.28.11-.4l.76-2.42h.77l.74,2.42c.05.19.11.39.17.6.06.21.1.4.12.54h.03c.02-.13.05-.32.11-.55s.12-.47.18-.72l.6-2.29h.72l-1.19,4.29h-.82Z"/>
          <path d="M70.39,53.23c.36,0,.68.08.94.24s.47.39.61.68c.14.29.21.63.21,1.02v.42h-2.94c.01.49.13.85.37,1.11.24.25.57.38,1,.38.27,0,.51-.03.72-.08s.43-.12.65-.22v.62c-.22.1-.44.17-.65.21-.21.05-.47.07-.76.07-.41,0-.77-.08-1.08-.25s-.55-.41-.72-.74c-.17-.33-.26-.73-.26-1.21s.08-.87.24-1.21.38-.59.66-.78c.29-.18.62-.27,1-.27ZM70.39,53.8c-.34,0-.6.11-.8.32-.2.22-.31.52-.35.9h2.18c0-.36-.09-.66-.26-.88-.17-.23-.43-.34-.78-.34Z"/>
          <path d="M75.38,53.23c.08,0,.17,0,.26.01.09,0,.17.02.25.04l-.09.65c-.07-.02-.15-.03-.23-.04s-.16-.02-.23-.02c-.22,0-.42.06-.62.18-.19.12-.35.29-.46.5-.12.22-.17.47-.17.76v2.29h-.7v-4.29h.58l.08.78h.03c.13-.23.31-.44.53-.61.22-.17.48-.26.78-.26Z"/>
          <path d="M80.49,57.68c-.38,0-.72-.08-1.02-.23-.29-.15-.52-.39-.69-.72s-.25-.74-.25-1.25.09-.96.26-1.29c.17-.33.41-.57.72-.73.3-.16.65-.23,1.03-.23.21,0,.42.02.63.07.21.04.37.1.5.16l-.22.58c-.13-.05-.28-.09-.45-.14-.17-.04-.33-.06-.48-.06-.84,0-1.26.54-1.26,1.62,0,.52.1.91.31,1.19.21.28.51.41.92.41.23,0,.43-.02.62-.07.18-.05.35-.11.5-.18v.62c-.14.08-.3.13-.48.17-.17.04-.38.06-.63.06Z"/>
          <path d="M86.33,53.31v4.29h-.57l-.11-.57h-.03c-.14.22-.33.39-.58.49-.25.1-.51.16-.78.16-.52,0-.91-.12-1.17-.37-.26-.25-.39-.64-.39-1.19v-2.81h.71v2.76c0,.68.32,1.02.95,1.02.47,0,.8-.13.99-.4.18-.27.28-.65.28-1.15v-2.23h.7Z"/>
          <path d="M89.79,53.23c.08,0,.17,0,.26.01.09,0,.17.02.25.04l-.09.65c-.07-.02-.15-.03-.23-.04-.09-.01-.16-.02-.23-.02-.22,0-.42.06-.62.18-.19.12-.34.29-.46.5-.11.22-.17.47-.17.76v2.29h-.7v-4.29h.58l.08.78h.03c.13-.23.31-.44.53-.61.22-.17.48-.26.78-.26Z"/>
          <path d="M92.54,57.6l-1.62-4.29h.75l.91,2.53c.04.12.09.25.14.39.05.14.09.28.13.42.04.13.06.24.08.33h.03c.02-.08.04-.2.09-.33s.09-.27.14-.42.09-.27.14-.39l.91-2.53h.75l-1.63,4.29h-.81Z"/>
          <path d="M97.43,53.23c.36,0,.68.08.94.24s.47.39.61.68c.14.29.21.63.21,1.02v.42h-2.94c.01.49.13.85.37,1.11.24.25.57.38,1,.38.27,0,.51-.03.72-.08s.43-.12.65-.22v.62c-.22.1-.43.17-.65.21-.21.05-.47.07-.76.07-.41,0-.77-.08-1.08-.25s-.55-.41-.72-.74c-.17-.33-.26-.73-.26-1.21s.08-.87.24-1.21.38-.59.66-.78c.29-.18.62-.27,1-.27ZM97.42,53.8c-.34,0-.6.11-.8.32-.2.22-.31.52-.35.9h2.18c0-.36-.09-.66-.26-.88-.17-.23-.43-.34-.78-.34Z"/>
          <path d="M104.34,53.85h-1.08v3.74h-.7v-3.74h-.75v-.33l.75-.24v-.25c0-.55.12-.95.36-1.2.24-.24.58-.36,1.03-.36.17,0,.32.01.46.04.14.03.27.06.37.1l-.18.55c-.09-.03-.18-.05-.3-.08-.11-.03-.23-.04-.34-.04-.24,0-.41.08-.52.24-.12.16-.17.4-.17.74v.28h1.08v.54Z"/>
          <path d="M108.98,55.44c0,.71-.18,1.26-.54,1.65-.36.39-.85.58-1.46.58-.38,0-.72-.09-1.01-.26-.3-.17-.53-.43-.7-.76-.17-.33-.26-.74-.26-1.21,0-.71.18-1.26.53-1.64s.84-.58,1.46-.58c.38,0,.73.09,1.02.26.3.17.53.42.7.75.17.33.25.73.25,1.2ZM105.74,55.44c0,.51.1.91.3,1.2s.52.44.96.44.75-.15.95-.44.3-.7.3-1.2-.1-.9-.3-1.19-.52-.43-.96-.43-.75.14-.95.43-.3.69-.3,1.19Z"/>
          <path d="M112.21,53.23c.08,0,.17,0,.26.01.09,0,.17.02.25.04l-.09.65c-.07-.02-.15-.03-.23-.04-.09-.01-.16-.02-.23-.02-.22,0-.42.06-.62.18-.19.12-.34.29-.46.5-.11.22-.17.47-.17.76v2.29h-.7v-4.29h.58l.08.78h.03c.13-.23.31-.44.53-.61.22-.17.48-.26.78-.26Z"/>
          <path d="M42.56,64.08h1.98v2.8c-.31.1-.62.18-.94.22s-.67.07-1.07.07c-.59,0-1.09-.12-1.5-.36s-.71-.58-.92-1.02-.32-.96-.32-1.56.12-1.11.35-1.55c.23-.44.57-.78,1.01-1.02.44-.24.98-.36,1.6-.36.32,0,.62.03.91.09s.55.14.8.25l-.27.62c-.2-.08-.43-.16-.68-.23-.25-.07-.52-.1-.79-.1-.68,0-1.21.21-1.6.62-.38.41-.57.97-.57,1.68,0,.45.07.86.22,1.2.15.35.38.62.69.82.32.19.73.29,1.24.29.25,0,.46-.01.64-.04.18-.03.34-.06.48-.1v-1.7h-1.26v-.64Z"/>
          <path d="M46.69,67.1h-.7v-6.08h.7v6.08Z"/>
          <path d="M51.91,64.94c0,.71-.18,1.26-.54,1.65-.36.39-.85.58-1.46.58-.38,0-.72-.09-1.01-.26-.3-.17-.53-.43-.7-.76-.17-.33-.26-.74-.26-1.21,0-.71.18-1.26.53-1.64s.84-.58,1.46-.58c.38,0,.73.09,1.02.26.3.17.53.42.7.75.17.33.25.73.25,1.2ZM48.67,64.94c0,.51.1.91.3,1.2s.52.44.96.44.75-.15.95-.44c.2-.3.3-.7.3-1.2s-.1-.9-.3-1.19c-.2-.29-.52-.43-.96-.43s-.75.14-.95.43-.3.69-.3,1.19Z"/>
          <path d="M53.85,61.02v1.48c0,.18,0,.35-.01.51,0,.16-.02.28-.03.37h.04c.12-.18.29-.33.5-.46.21-.12.49-.18.82-.18.53,0,.96.19,1.28.56.32.37.48.92.48,1.66s-.16,1.29-.49,1.66c-.33.37-.75.56-1.28.56-.34,0-.61-.06-.82-.18-.21-.12-.38-.27-.5-.44h-.06l-.14.54h-.5v-6.08h.7ZM55.06,63.32c-.46,0-.77.13-.95.39-.17.26-.26.67-.26,1.22v.03c0,.53.09.93.26,1.21.17.28.5.42.96.42.38,0,.67-.14.86-.42.19-.28.28-.69.28-1.22,0-1.08-.39-1.62-1.16-1.62Z"/>
          <path d="M59.85,62.74c.52,0,.91.12,1.16.34.25.23.38.59.38,1.1v2.92h-.51l-.14-.61h-.03c-.19.24-.38.41-.59.52s-.49.17-.85.17c-.39,0-.71-.1-.97-.31-.26-.21-.38-.53-.38-.96s.17-.76.5-.99c.34-.23.85-.36,1.55-.38l.73-.02v-.26c0-.36-.08-.61-.23-.74-.15-.14-.37-.21-.66-.21-.22,0-.44.03-.64.1-.2.07-.39.14-.57.23l-.22-.53c.19-.1.41-.19.66-.26s.52-.11.8-.11ZM60.69,65l-.63.02c-.53.02-.9.11-1.11.26-.21.15-.31.36-.31.63,0,.24.07.42.22.53.15.11.33.17.56.17.36,0,.66-.1.9-.3.24-.2.36-.51.36-.92v-.38Z"/>
          <path d="M63.52,67.1h-.7v-6.08h.7v6.08Z"/>
          <path d="M67.05,61.38h1.63c.71,0,1.25.11,1.62.32.37.21.55.58.55,1.1,0,.34-.09.61-.28.84s-.46.36-.81.43v.04c.24.04.46.12.65.22.19.1.35.25.46.43.11.19.17.43.17.72,0,.52-.18.92-.53,1.2-.35.28-.84.42-1.45.42h-2.01v-5.71ZM67.77,63.82h1.06c.49,0,.82-.08,1-.24.18-.16.28-.39.28-.7s-.11-.54-.33-.68c-.22-.14-.57-.2-1.06-.2h-.94v1.82ZM67.77,64.42v2.07h1.15c.51,0,.86-.1,1.06-.3s.3-.46.3-.78c0-.3-.1-.54-.31-.72-.21-.18-.57-.28-1.1-.28h-1.1Z"/>
          <path d="M76.07,64.94c0,.71-.18,1.26-.54,1.65-.36.39-.85.58-1.46.58-.38,0-.72-.09-1.01-.26-.3-.17-.53-.43-.7-.76-.17-.33-.26-.74-.26-1.21,0-.71.18-1.26.53-1.64s.84-.58,1.46-.58c.38,0,.73.09,1.02.26.3.17.53.42.7.75.17.33.25.73.25,1.2ZM72.83,64.94c0,.51.1.91.3,1.2s.52.44.96.44.75-.15.95-.44c.2-.3.3-.7.3-1.2s-.1-.9-.3-1.19c-.2-.29-.52-.43-.96-.43s-.75.14-.95.43-.3.69-.3,1.19Z"/>
          <path d="M79.36,62.73c.51,0,.9.13,1.16.38.26.25.39.65.39,1.2v2.79h-.7v-2.74c0-.69-.32-1.03-.96-1.03-.47,0-.8.13-.98.4-.18.27-.27.65-.27,1.15v2.22h-.7v-4.29h.57l.1.58h.04c.14-.22.33-.39.58-.5s.5-.16.78-.16Z"/>
          <path d="M83.9,67.18c-.53,0-.96-.19-1.28-.56-.32-.37-.48-.92-.48-1.66s.16-1.29.48-1.67c.32-.38.75-.56,1.29-.56.33,0,.6.06.81.18.21.12.38.27.52.45h.05c0-.07-.02-.17-.03-.31-.01-.14-.02-.24-.02-.32v-1.71h.7v6.08h-.57l-.1-.58h-.03c-.13.18-.3.34-.51.46-.21.13-.49.19-.82.19ZM84.01,66.59c.45,0,.77-.12.96-.37.19-.25.28-.62.28-1.12v-.13c0-.53-.09-.94-.26-1.23-.18-.29-.5-.43-.98-.43-.38,0-.66.15-.85.45-.19.3-.29.71-.29,1.21s.1.91.29,1.19c.19.28.47.42.86.42Z"/>
          <path d="M90.98,61.38c.75,0,1.29.15,1.63.44.34.29.51.71.51,1.24,0,.32-.07.61-.21.88-.14.28-.38.5-.71.67-.33.17-.79.26-1.36.26h-.66v2.22h-.72v-5.71h1.51ZM90.92,62h-.73v2.26h.58c.54,0,.95-.09,1.22-.26.27-.18.4-.48.4-.9,0-.37-.12-.64-.36-.82-.24-.18-.61-.27-1.11-.27Z"/>
          <path d="M98,64.94c0,.71-.18,1.26-.54,1.65-.36.39-.85.58-1.46.58-.38,0-.72-.09-1.01-.26-.3-.17-.53-.43-.7-.76-.17-.33-.26-.74-.26-1.21,0-.71.18-1.26.53-1.64s.84-.58,1.46-.58c.38,0,.73.09,1.02.26.3.17.53.42.7.75.17.33.25.73.25,1.2ZM94.76,64.94c0,.51.1.91.3,1.2s.52.44.96.44.75-.15.95-.44.3-.7.3-1.2-.1-.9-.3-1.19-.52-.43-.96-.43-.75.14-.95.43-.3.69-.3,1.19Z"/>
          <path d="M101.24,62.73c.08,0,.17,0,.26.01.09,0,.17.02.25.04l-.09.65c-.07-.02-.15-.03-.23-.04-.09-.01-.16-.02-.23-.02-.22,0-.42.06-.62.18-.19.12-.34.29-.46.5-.11.22-.17.47-.17.76v2.29h-.7v-4.29h.58l.08.78h.03c.13-.23.31-.44.53-.61.22-.17.48-.26.78-.26Z"/>
          <path d="M104.41,66.6c.11,0,.22,0,.33-.02.11-.02.2-.04.27-.06v.54c-.07.04-.18.07-.32.09s-.27.04-.4.04c-.22,0-.43-.04-.62-.12s-.34-.21-.46-.4c-.12-.19-.18-.46-.18-.81v-2.5h-.61v-.34l.62-.28.28-.91h.42v.98h1.24v.54h-1.24v2.48c0,.26.06.45.19.58.12.12.29.19.48.19Z"/>
          <path d="M108.25,63.35h-1.08v3.74h-.7v-3.74h-.75v-.33l.75-.24v-.25c0-.55.12-.95.36-1.2.24-.24.58-.36,1.03-.36.17,0,.32.01.46.04.14.03.27.06.37.1l-.18.55c-.09-.03-.18-.05-.3-.08-.11-.03-.23-.04-.34-.04-.24,0-.41.08-.52.24-.12.16-.17.4-.17.74v.28h1.08v.54Z"/>
          <path d="M112.89,64.94c0,.71-.18,1.26-.54,1.65-.36.39-.85.58-1.46.58-.38,0-.72-.09-1.01-.26-.3-.17-.53-.43-.7-.76-.17-.33-.26-.74-.26-1.21,0-.71.18-1.26.53-1.64s.84-.58,1.46-.58c.38,0,.73.09,1.02.26.3.17.53.42.7.75.17.33.25.73.25,1.2ZM109.65,64.94c0,.51.1.91.3,1.2s.52.44.96.44.75-.15.95-.44.3-.7.3-1.2-.1-.9-.3-1.19-.52-.43-.96-.43-.75.14-.95.43-.3.69-.3,1.19Z"/>
          <path d="M114.84,67.1h-.7v-6.08h.7v6.08Z"/>
          <path d="M116.65,61.2c.11,0,.2.04.28.11.08.07.12.19.12.34s-.04.27-.12.34c-.08.07-.18.11-.28.11-.12,0-.22-.04-.3-.11-.08-.07-.12-.18-.12-.34s.04-.27.12-.34.18-.11.3-.11ZM117,62.81v4.29h-.7v-4.29h.7Z"/>
          <path d="M122.2,64.94c0,.71-.18,1.26-.54,1.65-.36.39-.85.58-1.46.58-.38,0-.72-.09-1.01-.26-.3-.17-.53-.43-.7-.76-.17-.33-.26-.74-.26-1.21,0-.71.18-1.26.53-1.64s.84-.58,1.46-.58c.38,0,.73.09,1.02.26.3.17.53.42.7.75.17.33.25.73.25,1.2ZM118.96,64.94c0,.51.1.91.3,1.2s.52.44.96.44.75-.15.95-.44.3-.7.3-1.2-.1-.9-.3-1.19-.52-.43-.96-.43-.75.14-.95.43-.3.69-.3,1.19Z"/>
          <path d="M44.49,72.23c.49,0,.85.13,1.09.38.24.25.36.65.36,1.2v2.79h-.7v-2.76c0-.68-.29-1.02-.87-1.02-.42,0-.71.12-.89.36s-.27.59-.27,1.05v2.37h-.7v-2.76c0-.68-.29-1.02-.88-1.02-.43,0-.73.13-.9.4s-.25.65-.25,1.15v2.22h-.7v-4.29h.57l.1.58h.04c.13-.22.31-.39.54-.5s.47-.16.72-.16c.67,0,1.11.24,1.31.72h.04c.14-.25.34-.43.58-.54.25-.12.51-.18.79-.18Z"/>
          <path d="M49.04,72.23c.36,0,.68.08.94.24s.47.39.61.68c.14.29.21.63.21,1.02v.42h-2.94c.01.49.13.85.37,1.11.24.25.57.38,1,.38.27,0,.51-.03.72-.08.21-.05.43-.12.65-.22v.62c-.22.1-.43.17-.65.21-.21.05-.47.07-.76.07-.41,0-.77-.08-1.08-.25-.31-.17-.55-.41-.72-.74s-.26-.73-.26-1.21.08-.87.24-1.21.38-.59.66-.78c.29-.18.62-.27,1-.27ZM49.04,72.8c-.34,0-.6.11-.8.32s-.31.52-.35.9h2.18c0-.36-.09-.66-.26-.88s-.43-.34-.78-.34Z"/>
          <path d="M53.63,72.24c.52,0,.91.12,1.16.34.25.23.38.59.38,1.1v2.92h-.51l-.14-.61h-.03c-.19.24-.38.41-.59.52s-.49.17-.85.17c-.39,0-.71-.1-.97-.31-.26-.21-.38-.53-.38-.96s.17-.76.5-.99c.34-.23.85-.36,1.55-.38l.73-.02v-.26c0-.36-.08-.61-.23-.74-.15-.14-.37-.21-.66-.21-.22,0-.44.03-.64.1-.2.07-.39.14-.57.23l-.22-.53c.19-.1.41-.19.66-.26s.52-.11.8-.11ZM54.47,74.5l-.63.02c-.53.02-.9.11-1.11.26-.21.15-.31.36-.31.63,0,.24.07.42.22.53.15.11.33.17.56.17.36,0,.66-.1.9-.3.24-.2.36-.51.36-.92v-.38Z"/>
          <path d="M58.67,72.23c.51,0,.9.13,1.16.38.26.25.39.65.39,1.2v2.79h-.7v-2.74c0-.69-.32-1.03-.96-1.03-.47,0-.8.13-.98.4-.18.27-.27.65-.27,1.15v2.22h-.7v-4.29h.57l.1.58h.04c.14-.22.33-.39.58-.5s.5-.16.78-.16Z"/>
          <path d="M64.46,75.41c0,.42-.16.73-.46.94-.31.21-.72.32-1.25.32-.3,0-.56-.02-.77-.07s-.41-.11-.57-.2v-.64c.17.08.38.16.62.24.24.07.49.11.74.11.36,0,.62-.06.78-.17.16-.11.24-.27.24-.46,0-.11-.03-.2-.09-.29-.06-.08-.16-.17-.32-.26-.15-.08-.37-.18-.65-.29-.28-.11-.51-.21-.71-.32-.2-.11-.35-.23-.46-.38s-.16-.34-.16-.58c0-.36.15-.64.44-.84s.68-.3,1.16-.3c.26,0,.5.03.73.08.23.05.44.12.64.21l-.24.56c-.18-.08-.37-.14-.57-.19s-.4-.08-.61-.08c-.29,0-.51.05-.66.14-.15.09-.23.22-.23.38,0,.12.04.22.1.3s.18.16.35.24c.16.08.38.17.65.27.27.1.5.21.7.31.19.11.34.24.44.39s.15.34.15.57Z"/>
          <path d="M68.28,76.6h-.7v-6.08h.7v6.08Z"/>
          <path d="M71.43,72.23c.36,0,.68.08.94.24s.47.39.61.68c.14.29.21.63.21,1.02v.42h-2.94c.01.49.13.85.37,1.11.24.25.57.38,1,.38.27,0,.51-.03.72-.08.21-.05.43-.12.65-.22v.62c-.22.1-.43.17-.65.21-.21.05-.47.07-.76.07-.41,0-.77-.08-1.08-.25-.31-.17-.55-.41-.72-.74s-.26-.73-.26-1.21.08-.87.24-1.21.38-.59.66-.78c.29-.18.62-.27,1-.27ZM71.42,72.8c-.34,0-.6.11-.8.32s-.31.52-.35.9h2.18c0-.36-.09-.66-.26-.88s-.43-.34-.78-.34Z"/>
          <path d="M77.24,75.41c0,.42-.16.73-.46.94-.31.21-.72.32-1.25.32-.3,0-.56-.02-.77-.07s-.41-.11-.57-.2v-.64c.17.08.38.16.62.24.24.07.49.11.74.11.36,0,.62-.06.78-.17.16-.11.24-.27.24-.46,0-.11-.03-.2-.09-.29-.06-.08-.16-.17-.32-.26-.15-.08-.37-.18-.65-.29-.28-.11-.51-.21-.71-.32-.2-.11-.35-.23-.46-.38s-.16-.34-.16-.58c0-.36.15-.64.44-.84s.68-.3,1.16-.3c.26,0,.5.03.73.08.23.05.44.12.64.21l-.24.56c-.18-.08-.37-.14-.57-.19s-.4-.08-.61-.08c-.29,0-.51.05-.66.14-.15.09-.23.22-.23.38,0,.12.04.22.1.3s.18.16.35.24c.16.08.38.17.65.27.27.1.5.21.7.31.19.11.34.24.44.39s.15.34.15.57Z"/>
          <path d="M81.26,75.41c0,.42-.16.73-.46.94-.31.21-.72.32-1.25.32-.3,0-.56-.02-.77-.07s-.41-.11-.57-.2v-.64c.17.08.38.16.62.24.24.07.49.11.74.11.36,0,.62-.06.78-.17.16-.11.24-.27.24-.46,0-.11-.03-.2-.09-.29-.06-.08-.16-.17-.32-.26-.15-.08-.37-.18-.65-.29-.28-.11-.51-.21-.71-.32-.2-.11-.35-.23-.46-.38s-.16-.34-.16-.58c0-.36.15-.64.44-.84s.68-.3,1.16-.3c.26,0,.5.03.73.08.23.05.44.12.64.21l-.24.56c-.18-.08-.37-.14-.57-.19s-.4-.08-.61-.08c-.29,0-.51.05-.66.14-.15.09-.23.22-.23.38,0,.12.04.22.1.3s.18.16.35.24c.16.08.38.17.65.27.27.1.5.21.7.31.19.11.34.24.44.39s.15.34.15.57Z"/>
          <path d="M85.32,76.6l-1.62-4.29h.75l.91,2.53c.04.12.09.25.14.39.05.14.09.28.13.42.04.13.06.24.08.33h.03c.02-.08.04-.2.09-.33s.09-.27.14-.42.09-.27.14-.39l.91-2.53h.75l-1.63,4.29h-.81Z"/>
          <path d="M92.29,74.44c0,.71-.18,1.26-.54,1.65-.36.39-.85.58-1.46.58-.38,0-.72-.09-1.01-.26-.3-.17-.53-.43-.7-.76-.17-.33-.26-.74-.26-1.21,0-.71.18-1.26.53-1.64s.84-.58,1.46-.58c.38,0,.73.09,1.02.26.3.17.53.42.7.75.17.33.25.73.25,1.2ZM89.05,74.44c0,.51.1.91.3,1.2s.52.44.96.44.75-.15.95-.44.3-.7.3-1.2-.1-.9-.3-1.19-.52-.43-.96-.43-.75.14-.95.43-.3.69-.3,1.19Z"/>
          <path d="M94.23,76.6h-.7v-6.08h.7v6.08Z"/>
          <path d="M97.31,72.24c.52,0,.91.12,1.16.34.25.23.38.59.38,1.1v2.92h-.51l-.14-.61h-.03c-.19.24-.38.41-.59.52s-.49.17-.85.17c-.39,0-.71-.1-.97-.31-.26-.21-.38-.53-.38-.96s.17-.76.5-.99c.34-.23.85-.36,1.55-.38l.73-.02v-.26c0-.36-.08-.61-.23-.74s-.37-.21-.66-.21c-.22,0-.44.03-.64.1-.2.07-.39.14-.57.23l-.22-.53c.19-.1.41-.19.66-.26s.52-.11.8-.11ZM98.15,74.5l-.63.02c-.53.02-.9.11-1.11.26-.21.15-.31.36-.31.63,0,.24.07.42.22.53.15.11.33.17.56.17.36,0,.66-.1.9-.3.24-.2.36-.51.36-.92v-.38Z"/>
          <path d="M101.76,76.1c.11,0,.22,0,.33-.02.11-.02.2-.04.27-.06v.54c-.07.04-.18.07-.32.09s-.27.04-.4.04c-.22,0-.43-.04-.62-.12s-.34-.21-.46-.4c-.12-.19-.18-.46-.18-.81v-2.5h-.61v-.34l.62-.28.28-.91h.42v.98h1.24v.54h-1.24v2.48c0,.26.06.45.19.58.12.12.29.19.48.19Z"/>
          <path d="M103.74,70.7c.11,0,.2.04.28.11.08.07.12.19.12.34s-.04.27-.12.34c-.08.07-.18.11-.28.11-.12,0-.22-.04-.3-.11-.08-.07-.12-.18-.12-.34s.04-.27.12-.34.18-.11.3-.11ZM104.08,72.31v4.29h-.7v-4.29h.7Z"/>
          <path d="M106.24,76.6h-.7v-6.08h.7v6.08Z"/>
          <path d="M108.06,70.7c.11,0,.2.04.28.11.08.07.12.19.12.34s-.04.27-.12.34c-.08.07-.18.11-.28.11-.12,0-.22-.04-.3-.11-.08-.07-.12-.18-.12-.34s.04-.27.12-.34.18-.11.3-.11ZM108.4,72.31v4.29h-.7v-4.29h.7Z"/>
          <path d="M111.38,76.1c.11,0,.22,0,.33-.02.11-.02.2-.04.27-.06v.54c-.07.04-.18.07-.32.09s-.27.04-.4.04c-.22,0-.43-.04-.62-.12s-.34-.21-.46-.4c-.12-.19-.18-.46-.18-.81v-2.5h-.61v-.34l.62-.28.28-.91h.42v.98h1.24v.54h-1.24v2.48c0,.26.06.45.19.58.12.12.29.19.48.19Z"/>
          <path d="M112.62,72.31h.75l.93,2.44c.08.22.15.42.22.62.06.19.11.38.14.55h.03c.03-.13.08-.31.15-.52.07-.22.14-.43.22-.65l.87-2.43h.76l-1.85,4.88c-.16.41-.35.73-.58.97-.24.24-.56.36-.98.36-.13,0-.24,0-.34-.02-.1-.01-.18-.03-.25-.04v-.56c.06.01.13.02.21.03s.17.02.26.02c.25,0,.44-.07.59-.21.15-.14.27-.32.36-.55l.22-.57-1.73-4.3Z"/>
          <path d="M40.14,80.2c.11,0,.2.04.28.11.08.07.12.19.12.34s-.04.27-.12.34c-.08.07-.18.11-.28.11-.12,0-.22-.04-.3-.11-.08-.07-.12-.18-.12-.34s.04-.27.12-.34.18-.11.3-.11ZM40.49,81.81v4.29h-.7v-4.29h.7Z"/>
          <path d="M44.01,81.73c.51,0,.9.13,1.16.38.26.25.39.65.39,1.2v2.79h-.7v-2.74c0-.69-.32-1.03-.96-1.03-.47,0-.8.13-.98.4-.18.27-.27.65-.27,1.15v2.22h-.7v-4.29h.57l.1.58h.04c.14-.22.33-.39.58-.5s.5-.16.78-.16Z"/>
          <path d="M48.3,81.81h.75l.93,2.44c.08.22.15.42.22.62.06.19.11.38.14.55h.03c.03-.13.08-.31.15-.52s.14-.43.22-.65l.87-2.43h.76l-1.85,4.88c-.16.41-.35.73-.58.97-.24.24-.56.36-.98.36-.13,0-.24,0-.34-.02-.1-.01-.18-.03-.25-.04v-.56c.06.01.13.02.21.03.08.01.17.02.26.02.25,0,.44-.07.59-.21s.27-.32.36-.55l.22-.57-1.73-4.3Z"/>
          <path d="M54.81,81.73c.36,0,.68.08.94.24s.47.39.61.68c.14.29.21.63.21,1.02v.42h-2.94c.01.49.13.85.37,1.11.24.25.57.38,1,.38.27,0,.51-.03.72-.08.21-.05.43-.12.65-.22v.62c-.22.1-.43.17-.65.21-.21.05-.47.07-.76.07-.41,0-.77-.08-1.08-.25-.31-.17-.55-.41-.72-.74s-.26-.73-.26-1.21.08-.87.24-1.21.38-.59.66-.78c.29-.18.62-.27,1-.27ZM54.81,82.3c-.34,0-.6.11-.8.32s-.31.52-.35.9h2.18c0-.36-.09-.66-.26-.88s-.43-.34-.78-.34Z"/>
          <path d="M59.4,81.74c.52,0,.91.12,1.16.34.25.23.38.59.38,1.1v2.92h-.51l-.14-.61h-.03c-.19.24-.38.41-.59.52s-.49.17-.85.17c-.39,0-.71-.1-.97-.31-.26-.21-.38-.53-.38-.96s.17-.76.5-.99c.34-.23.85-.36,1.55-.38l.73-.02v-.26c0-.36-.08-.61-.23-.74-.16-.14-.37-.21-.66-.21-.22,0-.44.03-.64.1-.2.07-.39.14-.57.23l-.22-.53c.19-.1.41-.19.66-.26s.52-.11.8-.11ZM60.24,84l-.63.02c-.53.02-.9.11-1.11.26-.21.15-.31.36-.31.63,0,.24.07.42.22.53.15.11.33.17.56.17.36,0,.66-.1.9-.3.24-.2.36-.51.36-.92v-.38Z"/>
          <path d="M64.37,81.73c.08,0,.17,0,.26.01.09,0,.17.02.25.04l-.09.65c-.07-.02-.15-.03-.23-.04s-.16-.02-.23-.02c-.22,0-.42.06-.62.18-.19.12-.35.29-.46.5-.12.22-.17.47-.17.76v2.29h-.7v-4.29h.58l.08.78h.03c.13-.23.31-.44.53-.61.22-.17.48-.26.78-.26Z"/>
          <path d="M65,84.26v-.62h1.94v.62h-1.94Z"/>
          <path d="M69.59,85.6c.11,0,.22,0,.33-.02.11-.02.2-.04.27-.06v.54c-.08.04-.18.07-.32.09s-.27.04-.4.04c-.22,0-.43-.04-.62-.12-.19-.08-.34-.21-.46-.4-.12-.19-.18-.46-.18-.81v-2.5h-.61v-.34l.62-.28.28-.91h.42v.98h1.24v.54h-1.24v2.48c0,.26.06.45.19.58s.29.19.48.19Z"/>
          <path d="M74.87,83.94c0,.71-.18,1.26-.54,1.65s-.85.58-1.46.58c-.38,0-.72-.09-1.01-.26-.3-.17-.53-.43-.7-.76-.17-.33-.26-.74-.26-1.21,0-.71.18-1.26.53-1.64.35-.38.84-.58,1.46-.58.38,0,.72.09,1.02.26.3.17.53.42.7.75.17.33.25.73.25,1.2ZM71.63,83.94c0,.51.1.91.3,1.2.2.3.52.44.96.44s.75-.15.95-.44c.2-.3.3-.7.3-1.2s-.1-.9-.3-1.19c-.2-.29-.52-.43-.96-.43s-.75.14-.95.43-.3.69-.3,1.19Z"/>
          <path d="M75.99,84.26v-.62h1.94v.62h-1.94Z"/>
          <path d="M78.42,81.81h.75l.93,2.44c.08.22.15.42.22.62.06.19.11.38.14.55h.03c.03-.13.08-.31.15-.52s.14-.43.22-.65l.87-2.43h.76l-1.85,4.88c-.16.41-.35.73-.58.97-.24.24-.56.36-.98.36-.13,0-.24,0-.34-.02-.1-.01-.18-.03-.25-.04v-.56c.06.01.13.02.21.03.08.01.17.02.26.02.25,0,.44-.07.59-.21s.27-.32.36-.55l.22-.57-1.73-4.3Z"/>
          <path d="M84.93,81.73c.36,0,.68.08.94.24s.47.39.61.68c.14.29.21.63.21,1.02v.42h-2.94c.01.49.13.85.37,1.11.24.25.57.38,1,.38.27,0,.51-.03.72-.08s.43-.12.65-.22v.62c-.22.1-.43.17-.65.21-.21.05-.47.07-.76.07-.41,0-.77-.08-1.08-.25s-.55-.41-.72-.74c-.17-.33-.26-.73-.26-1.21s.08-.87.24-1.21.38-.59.66-.78c.29-.18.62-.27,1-.27ZM84.92,82.3c-.34,0-.6.11-.8.32-.2.22-.31.52-.35.9h2.18c0-.36-.09-.66-.26-.88-.17-.23-.43-.34-.78-.34Z"/>
          <path d="M89.52,81.74c.52,0,.91.12,1.16.34.25.23.38.59.38,1.1v2.92h-.51l-.14-.61h-.03c-.19.24-.38.41-.59.52s-.49.17-.85.17c-.39,0-.71-.1-.97-.31-.26-.21-.38-.53-.38-.96s.17-.76.5-.99c.34-.23.85-.36,1.55-.38l.73-.02v-.26c0-.36-.08-.61-.23-.74s-.37-.21-.66-.21c-.22,0-.44.03-.64.1-.2.07-.39.14-.57.23l-.22-.53c.19-.1.41-.19.66-.26s.52-.11.8-.11ZM90.36,84l-.63.02c-.53.02-.9.11-1.11.26-.21.15-.31.36-.31.63,0,.24.07.42.22.53.15.11.33.17.56.17.36,0,.66-.1.9-.3.24-.2.36-.51.36-.92v-.38Z"/>
          <path d="M94.49,81.73c.08,0,.17,0,.26.01.09,0,.17.02.25.04l-.09.65c-.07-.02-.15-.03-.23-.04-.09-.01-.16-.02-.23-.02-.22,0-.42.06-.62.18-.19.12-.34.29-.46.5-.11.22-.17.47-.17.76v2.29h-.7v-4.29h.58l.08.78h.03c.13-.23.31-.44.53-.61.22-.17.48-.26.78-.26Z"/>
          <path d="M41.69,91.24c.52,0,.91.12,1.16.34.25.23.38.59.38,1.1v2.92h-.51l-.14-.61h-.03c-.19.24-.38.41-.59.52s-.49.17-.85.17c-.39,0-.71-.1-.97-.31-.26-.21-.38-.53-.38-.96s.17-.76.5-.99c.34-.23.85-.36,1.55-.38l.73-.02v-.26c0-.36-.08-.61-.23-.74-.15-.14-.37-.21-.66-.21-.22,0-.44.03-.64.1-.2.07-.39.14-.57.23l-.22-.53c.19-.1.41-.19.66-.26s.52-.11.8-.11ZM42.53,93.5l-.63.02c-.53.02-.9.11-1.11.26-.21.15-.31.36-.31.63,0,.24.07.42.22.53.15.11.33.17.56.17.36,0,.66-.1.9-.3.24-.2.36-.51.36-.92v-.38Z"/>
          <path d="M46.72,91.23c.51,0,.9.13,1.16.38.26.25.39.65.39,1.2v2.79h-.7v-2.74c0-.69-.32-1.03-.96-1.03-.48,0-.8.13-.98.4s-.27.65-.27,1.15v2.22h-.7v-4.29h.57l.1.58h.04c.14-.22.33-.39.58-.5.25-.11.5-.16.78-.16Z"/>
          <path d="M51.77,91.23c.51,0,.9.13,1.16.38.26.25.39.65.39,1.2v2.79h-.7v-2.74c0-.69-.32-1.03-.96-1.03-.47,0-.8.13-.98.4-.18.27-.27.65-.27,1.15v2.22h-.7v-4.29h.57l.1.58h.04c.14-.22.33-.39.58-.5s.5-.16.78-.16Z"/>
          <path d="M58.34,91.31v4.29h-.58l-.1-.57h-.03c-.14.22-.33.39-.58.49-.25.1-.51.16-.78.16-.52,0-.91-.12-1.17-.37-.26-.25-.39-.64-.39-1.19v-2.81h.71v2.76c0,.68.32,1.02.95,1.02.47,0,.8-.13.99-.4.18-.27.28-.65.28-1.15v-2.23h.7Z"/>
          <path d="M61.41,91.24c.52,0,.91.12,1.16.34.25.23.38.59.38,1.1v2.92h-.51l-.14-.61h-.03c-.19.24-.38.41-.59.52s-.49.17-.85.17c-.39,0-.71-.1-.97-.31-.26-.21-.38-.53-.38-.96s.17-.76.5-.99c.34-.23.85-.36,1.55-.38l.73-.02v-.26c0-.36-.08-.61-.23-.74-.15-.14-.37-.21-.66-.21-.22,0-.44.03-.64.1-.2.07-.39.14-.57.23l-.22-.53c.19-.1.41-.19.66-.26s.52-.11.8-.11ZM62.25,93.5l-.63.02c-.53.02-.9.11-1.11.26-.21.15-.31.36-.31.63,0,.24.07.42.22.53.15.11.33.17.56.17.36,0,.66-.1.9-.3.24-.2.36-.51.36-.92v-.38Z"/>
          <path d="M65.08,95.6h-.7v-6.08h.7v6.08Z"/>
          <path d="M70.52,91.23c.08,0,.17,0,.26.01.09,0,.17.02.25.04l-.09.65c-.07-.02-.15-.03-.23-.04-.08-.01-.16-.02-.23-.02-.22,0-.42.06-.62.18-.19.12-.35.29-.46.5s-.17.47-.17.76v2.29h-.7v-4.29h.58l.08.78h.03c.13-.23.31-.44.53-.61.22-.17.48-.26.78-.26Z"/>
          <path d="M73.59,91.23c.36,0,.68.08.94.24s.47.39.61.68c.14.29.21.63.21,1.02v.42h-2.94c.01.49.13.85.37,1.11.24.25.57.38,1,.38.27,0,.51-.03.72-.08s.43-.12.65-.22v.62c-.22.1-.44.17-.65.21-.21.05-.47.07-.76.07-.41,0-.77-.08-1.08-.25s-.55-.41-.72-.74c-.17-.33-.26-.73-.26-1.21s.08-.87.24-1.21.38-.59.66-.78c.29-.18.62-.27,1-.27ZM73.58,91.8c-.34,0-.6.11-.8.32-.2.22-.31.52-.35.9h2.18c0-.36-.09-.66-.26-.88-.17-.23-.43-.34-.78-.34Z"/>
          <path d="M78.05,95.1c.11,0,.22,0,.33-.02.11-.02.2-.04.27-.06v.54c-.07.04-.18.07-.32.09s-.27.04-.4.04c-.22,0-.43-.04-.62-.12s-.34-.21-.46-.4c-.12-.19-.18-.46-.18-.81v-2.5h-.61v-.34l.62-.28.28-.91h.42v.98h1.24v.54h-1.24v2.48c0,.26.06.45.19.58.13.12.29.19.48.19Z"/>
          <path d="M83.25,91.31v4.29h-.58l-.1-.57h-.03c-.14.22-.33.39-.58.49-.25.1-.51.16-.78.16-.52,0-.91-.12-1.17-.37-.26-.25-.39-.64-.39-1.19v-2.81h.71v2.76c0,.68.32,1.02.95,1.02.47,0,.8-.13.99-.4.18-.27.28-.65.28-1.15v-2.23h.7Z"/>
          <path d="M86.71,91.23c.08,0,.17,0,.26.01.09,0,.17.02.25.04l-.09.65c-.07-.02-.15-.03-.23-.04-.09-.01-.16-.02-.23-.02-.22,0-.42.06-.62.18-.19.12-.34.29-.46.5-.11.22-.17.47-.17.76v2.29h-.7v-4.29h.58l.08.78h.03c.13-.23.31-.44.53-.61.22-.17.48-.26.78-.26Z"/>
          <path d="M90.26,91.23c.51,0,.9.13,1.16.38.26.25.39.65.39,1.2v2.79h-.7v-2.74c0-.69-.32-1.03-.96-1.03-.47,0-.8.13-.98.4-.18.27-.27.65-.27,1.15v2.22h-.7v-4.29h.57l.1.58h.04c.14-.22.33-.39.58-.5s.5-.16.78-.16Z"/>
          <path d="M96.06,94.41c0,.42-.15.73-.46.94-.31.21-.73.32-1.25.32-.3,0-.56-.02-.77-.07s-.41-.11-.57-.2v-.64c.17.08.38.16.62.24.24.07.49.11.74.11.36,0,.62-.06.78-.17.16-.11.24-.27.24-.46,0-.11-.03-.2-.09-.29-.06-.08-.16-.17-.32-.26-.15-.08-.37-.18-.65-.29-.28-.11-.51-.21-.71-.32-.2-.11-.35-.23-.46-.38-.11-.15-.16-.34-.16-.58,0-.36.15-.64.44-.84.3-.2.68-.3,1.16-.3.26,0,.51.03.73.08.23.05.44.12.64.21l-.24.56c-.18-.08-.37-.14-.57-.19s-.4-.08-.61-.08c-.29,0-.51.05-.66.14-.15.09-.23.22-.23.38,0,.12.03.22.1.3s.19.16.35.24c.16.08.38.17.65.27.27.1.5.21.7.31.19.11.34.24.44.39.1.15.15.34.15.57Z"/>
        </g>
      </g>
    </g>
  </g>
</svg>