<?xml version="1.0" encoding="UTF-8"?>
<svg id="Layer_2" data-name="Layer 2" xmlns="http://www.w3.org/2000/svg" viewBox="0 0 1026.07 256.38">
  <g id="Layer_1-2" data-name="Layer 1">
    <g>
      <path d="m49.69,256.38L0,170.92h99.93l-50.24,85.46Z" style="fill: #394197;"/>
      <polygon points="299.79 170.92 250.1 256.38 199.86 170.92 299.79 170.92" style="fill: #84d1d8;"/>
      <polygon points="250.1 256.38 149.62 256.38 99.93 170.92 199.86 170.92 250.1 256.38" style="fill: #ac9ccb;"/>
      <path d="m99.93,170.92l-50.24-85.46h99.93l-49.69,85.46Z" style="fill: #ac9ccb;"/>
      <polygon points="199.86 0 149.62 85.46 100.2 0 199.86 0" style="fill: #ac9ccb;"/>
      <path d="m49.69,85.46l50.24,85.46H0l49.69-85.46Z" style="fill: #84d1d8;"/>
      <polygon points="299.79 170.92 199.86 170.92 149.62 85.46 199.86 0 250.1 85.46 299.79 170.92" style="fill: #394197;"/>
      <polygon points="671.94 84.64 641.09 84.64 645.73 59.52 676.86 59.52 671.94 84.64" style="fill: #394197;"/>
      <polygon points="841.23 84.64 810.37 84.64 815.01 59.52 846.14 59.52 841.23 84.64" style="fill: #6167af;"/>
      <polygon points="1021.43 84.64 990.3 84.64 994.95 59.52 1026.07 59.52 1021.43 84.64" style="fill: #394197;"/>
      <path d="m633.99,66.62c-5.36-3.43-11.67-5.06-18.02-4.64-8.32-.09-15.43,5.97-16.66,14.2v14.47h32.22v27.3h-32.22v84.64l-30.85,19.11v-103.75h-19.11v-27.3h18.84v-13.11c0-28.67,15.29-44.23,42.87-44.23,9.41.14,18.7,2.19,27.3,6.01l-4.37,27.3Z" style="fill: #394197;"/>
      <path d="m555.08,66.62c-4.64-3.55-10.65-4.64-17.75-4.64-8.32-.09-15.43,5.97-16.66,14.2v14.47h32.22v27.3h-32.22v84.64l-31.13,19.11v-103.75h-18.84v-27.3h18.84v-13.11c0-28.67,15.56-44.23,43.14-44.23,9.41.2,18.68,2.24,27.3,6.01l-4.91,27.3Z" style="fill: #394197;"/>
      <path d="m436.04,176.38h-65.53l-9.56,26.21h-33.31l60.61-158.36h31.13l60.61,158.36h-34.4l-9.56-26.21Zm-33.31-90.65l-21.57,60.89h44.23l-22.66-60.89Z" style="fill: #394197;"/>
      <path d="m794.81,137.06v65.53h-32.22v-63.07c0-15.56-7.1-24.03-20.2-24.03s-22.66,9.56-22.66,27.58v59.52h-31.13v-111.94h26.48v16.66h0c7.73-12.08,21.16-19.3,35.49-19.11,27.58,0,44.23,18.02,44.23,48.87Z" style="fill: #394197;"/>
      <path d="m810.37,90.65h30.85v111.94h-30.85v-111.94Z" style="fill: #6167af;"/>
      <path d="m641.09,90.65h30.85v111.94h-30.85v-111.94Z" style="fill: #394197;"/>
      <path d="m946.07,202.59l-1.09-15.56h0c-8.19,12.01-22.66,18.02-36.86,18.02-30.16.15-54.73-24.17-54.88-54.33,0-.18,0-.36,0-.55v-3.55c-2.46-29.76,21.57-55.97,51.33-58.43h3.55c11.91-.41,23.49,3.91,32.22,12.01h0v-45.32l32.22-19.11v166.83h-26.48Zm-4.64-55.97c1.28-15.83-10.51-29.71-26.35-30.99-15.83-1.28-29.71,10.51-30.99,26.35v4.64c-1.28,15.83,10.51,29.71,26.35,30.99,15.83,1.28,29.71-10.51,30.99-26.35h0v-4.64Z" style="fill: #6167af;"/>
      <path d="m990.3,90.65h31.13v111.94h-31.13v-111.94Z" style="fill: #394197;"/>
    </g>
  </g>
</svg>