<?xml version="1.0" encoding="UTF-8"?><svg id="Layer_2" xmlns="http://www.w3.org/2000/svg" width="716.54" height="107.09" viewBox="0 0 716.54 107.09"><g id="Layer_1-2"><g><g><path d="m69.6,26.33c-.37,3.2-1.38,5.58-4.16,6.72-1.93.8-4.5.09-6.22-1.11l.6.53c-5.95-3.64-12.86-5.85-20.32-5.85C17.69,26.62,0,44.51,0,66.58s17.69,39.96,39.51,39.96c7.3,0,14.05-2.14,19.92-5.63,1.71-1.12,4.14-1.78,6.01-1,2.77,1.15,3.78,3.53,4.14,6.73h10.16V26.33h-10.14Zm-29.49,63.65c-13.41,0-24.28-10.67-24.28-23.83s10.87-23.83,24.28-23.83,24.28,10.67,24.28,23.83-10.87,23.83-24.28,23.83Z" style="fill:#005198;"/><path d="m202.38,90.25c-1.05-1.56-2.36-2.83-3.77-3.93-4.03,3.07-9.02,4.94-14.48,4.94-13.22,0-23.94-10.72-23.94-23.94s10.72-23.94,23.94-23.94c4.75,0,9.13,1.43,12.85,3.82,2.56-1.66,4.75-3.96,6.17-6.91,1.17-2.41,1.67-4.95,1.67-7.46-6.15-3.83-13.39-6.08-21.17-6.08-22.17,0-40.14,17.97-40.14,40.14s17.97,40.14,40.14,40.14c7.96,0,15.35-2.36,21.59-6.36.17-3.58-.72-7.23-2.87-10.43Z" style="fill:#005198;"/><path d="m297.37,26.62c-.37,3.21-1.38,5.59-4.17,6.74-1.94.8-4.51.1-6.23-1.11l.6.53c-5.97-3.64-12.88-5.86-20.36-5.86-21.87,0-39.59,17.93-39.59,40.04s17.73,40.04,39.59,40.04c7.32,0,14.08-2.15,19.96-5.64,1.72-1.13,4.15-1.78,6.02-1.01,2.78,1.15,3.79,3.54,4.15,6.75h10.18V26.62h-10.16Zm-29.55,63.78c-13.44,0-24.33-10.69-24.33-23.89s10.89-23.89,24.33-23.89,24.33,10.69,24.33,23.89-10.89,23.89-24.33,23.89Z" style="fill:#005198;"/><path d="m410.94,0c-2.95,0-5.69.81-8.11,2.11v25.14c-.53,2.35-1.59,4.14-3.86,5.07-1.94.8-4.52.09-6.24-1.11l.61.53c-5.97-3.65-12.9-5.87-20.39-5.87-21.89,0-39.64,17.95-39.64,40.09s17.75,40.09,39.64,40.09c7.32,0,14.1-2.15,19.98-5.65,1.72-1.13,4.16-1.79,6.03-1.01,2.3.96,3.36,2.78,3.87,5.19v2.17h16.02V2c-2.38-1.24-5.04-2-7.9-2Zm-37.39,89.44c-13.45,0-24.36-10.71-24.36-23.91s10.91-23.91,24.36-23.91,24.36,10.71,24.36,23.91-10.91,23.91-24.36,23.91Z" style="fill:#005198;"/><path d="m549.41,26.27c-2.9,0-5.59.78-7.99,2.03.11,12.15-.09,29.23-.09,42.43,0,10.63-9.82,20.65-21.94,20.65-9.9,0-21.21-11.06-21.58-20.77-.51-13.17.08-30.11.27-42.25-2.43-1.29-5.16-2.09-8.1-2.09-2.75,0-5.31.7-7.63,1.83-.19,18.79.28,19.79.09,43.06-.17,20.86,16.35,35.88,37.29,35.88s37.91-17.31,37.91-35.68c0-23.13.26-24.46.03-42.92-2.47-1.34-5.26-2.18-8.26-2.18Z" style="fill:#005198;"/><path d="m458.61,6.56c-2.2-1.93-5.01-3.2-8.16-3.2-2.72,0-5.11,1.05-7.17,2.53-.36.92-.59,1.9-.59,2.94,0,.77.24,1.46.44,2.16,2.2,1.9,4.98,3.16,8.11,3.16,2.78,0,5.21-1.08,7.29-2.61.3-.86.55-1.75.55-2.71,0-.8-.24-1.53-.46-2.27Z" style="fill:#005198;"/><path d="m449.85,106.71h.43c3.09-.04,5.95-.93,8.45-2.37V25.9c-2.44,1.05-5.15,1.69-8.06,1.69s-5.63-.64-8.07-1.69v79.09c2.21,1.06,4.65,1.69,7.25,1.73Z" style="fill:#005198;"/><path d="m700.05,62.48c0,13.28.21,30.53.09,42.65,2.32,1.14,4.9,1.84,7.66,1.84,3.17,0,6.09-.91,8.65-2.38.23-18.37-.03-19.71-.03-42.75,0-18.31-17.03-35.57-38.04-35.57-12.51,0-23.36,5.4-30.13,14.09-6.97-8.31-17.59-14.09-29.65-14.09-21.01,0-37.59,14.98-37.42,35.78.19,23.42-.29,24.18-.09,43.42,2.16.95,4.53,1.5,7.04,1.5,3.2,0,6.16-.92,8.74-2.43-.2-12.09-.77-28.88-.27-41.95.37-9.67,9.5-20.7,21.65-20.7s22.01,9.99,22.01,20.59c0,8.41.08,18.38.11,27.71,2.41,1.26,5.12,2.04,8.03,2.04s5.86-.85,8.35-2.21c-.01-7.32-.12-13.13-.12-28.18,0-.19-.06-.37-.06-.56,1.1-9.33,9.85-19.38,21.46-19.38s22.01,9.99,22.01,20.59Z" style="fill:#005198;"/><path d="m120.16,8.44c-2.2-1.92-5-3.19-8.15-3.19-2.72,0-5.1,1.05-7.15,2.52-.36.92-.59,1.89-.59,2.93,0,.77.24,1.45.44,2.16,2.19,1.9,4.97,3.16,8.09,3.16,2.77,0,5.2-1.08,7.28-2.6.3-.86.55-1.75.55-2.71,0-.8-.24-1.53-.46-2.26Z" style="fill:#005198;"/><path d="m111.63,106.74h.43c3.08-.04,5.94-.92,8.43-2.37V26.07c-2.43,1.04-5.14,1.69-8.05,1.69s-5.62-.64-8.05-1.69v78.94c2.2,1.06,4.64,1.69,7.24,1.72Z" style="fill:#005198;"/></g><path d="m79.74,104.87c-1.47.2-2.95.27-4.45.04-2.11-.33-4.25-.75-6.33-1.18.04.12.06.2.1.32,1.17.21,2.39.47,3.51.81-.92.62-1.9.54-2.92.29-.09-.02-.23-.03-.32-.05.02.12.04.12.06.24.23.05.49.2.72.26-.26.04-.47.07-.66.09.04.32.05.17.05.48l10.23-.06v-.16c-.88-.12-1.75-.34-2.61-.43.87-.13,1.74-.24,2.61-.36v-.29Zm-7.66.73c1.46-.72,2.86-.5,4.3.17-1.49-.06-2.9-.12-4.3-.17Z" style="fill:#fff; opacity:.65;"/><path d="m74.92,103.47c-2.22-.33-4.42-.75-6.63-1.18.07.12.09.16.16.28.67.17,1.39.37,2.06.53,3.05.7,6.13,1.1,9.23.76v-.36c-1.59.19-3.19.21-4.82-.03Z" style="fill:#fff; opacity:.65;"/><path d="m79.74,102.53v-.38c-2.82.3-5.65.14-8.52-.53-1.39-.32-2.92-.63-4.39-.95.16.13.35.26.5.42,1.17.25,2.43.53,3.59.8,2.94.69,5.87.94,8.82.63Z" style="fill:#fff; opacity:.65;"/><path d="m62.87,77.66c.29.44.03.79-.52.81-.49.01-.97.02-1.46.02-.05.07-.13.2-.19.3.58.03,1.17.03,1.74-.01.9-.06,1.16-.54.75-1.24-.54-.92-.48-1.81-.21-2.76.1-.37.1-.47.07-.81-.18.52-.3.79-.5,1.29-.15.82-.2,1.61.32,2.4Z" style="fill:#fff; opacity:.65;"/><path d="m7.67,89.99c-.13-.09-.19-.11-.3-.18l.24.34.23.3c.15.1.34.34.51.46-.05.03-.07.04-.12.06l.16.2c.29-.34.05-.68-.71-1.18Z" style="fill:#fff; opacity:.65;"/><path d="m64.46,81.73c-.7.45-1.56.75-1.89,1.6-.07.18-.67.22-1.04.28-1.4.23-2.69,1-4.2.69-.15-.03-.31-.04-.51-.06.06-.58-.02-.46-.35-.48-.81.71-1.27,1.07-2.13,1.7.34,0,1.02-.14,1.17-.05-.42.06-1.14.26-1.56.32-.84.56-1.45.91-2.32,1.4,2.86-.51,5.12-.91,7.98-1.41-2.77,1.12-5.32,1.41-8.31,1.59-.38.19-.66.33-1.05.5,3.56-.31,6.62-.58,10-1.74-3.37,1.4-6.73,2.23-10.45,1.94-.45.19-.88.36-1.34.53.14.07.12.05.25.15.36.29,1.05.3,1.6.34.72.05,1.44.01,2.17.01,1.44,3.99,4.8,6.62,8.24,9.38,0,0-.04.22-.18.33-.78.67-1.38,1.97-2,2.75l.64-.36.9-1.07.5-.21h0s.03-.01.04-.02l.87-.31,2.04-2.04s4.3-1.32,2.73,2.66c.56-.39,1.08-.66,1.73-.49,1.08.29,2.17.52,3.27.76,2.85.62,5.67.84,8.48.49v-.39c-2.12.28-4.25.29-6.43-.04-1.76-.27-3.49-.74-5.32-1.13.98-.78.98-.78,2.08-.54,1.25.27,2.49.58,3.75.77,2.02.31,4.01.38,5.92.02v-.38c-.16.03-.32.08-.47.1-3.47.6-6.75-.28-10.13-1.09.25-.3.45-.54.65-.79.52-.63,1.08-.96,2.07-.68.85.24,1.79.27,2.7.3,1.67.06,3.17-.24,4.48-1.35.22-.19.46-.34.7-.5v-.43c-.52.3-1.03.65-1.51,1.06-.47.4-1.19.65-1.83.77-1.79.31-3.55.06-5.36-.34.33-.84.55-1.63.94-2.36.29-.55.67-1.19,1.22-1.49,1.09-.59,2.32-.97,3.49-1.44,1.04-.42,2.11-.7,3.05-1.33v-4.14c-.12.1-.24.21-.35.33-.14.17-.37.31-.59.39-1.36.46-2.73.9-4.1,1.34.32-.31.7-.48,1.09-.63.9-.36,1.65-.79,1.65-1.83,0-.18.34-.47.59-.53.56-.16,1.14-.27,1.72-.33v-.6c-.76.15-1.51.32-2.19.67-.05-.13-.1-.26-.15-.39.78-.22,1.55-.44,2.33-.67v-.38c-.85.26-1.69.53-2.54.79.72-.69,1.61-1.04,2.54-1.3v-.29c-.88.24-1.77.48-2.64.72.79-.56,1.69-.89,2.64-1.17v-.35s-.07.02-.11.03c-.05-.1-.1-.2-.16-.29.09-.03.18-.06.27-.09v-3.33c-.88.19-1.76.38-2.63.57-.03-.11-.06-.22-.09-.33.91-.2,1.82-.39,2.73-.59v-.35c-1.01.25-2.02.48-3.04.72-.17.04-.36.04-.54.06,1.16-.5,2.35-.9,3.58-1.16v-.27c-1.52.33-3.05.66-4.57.99,1.5-.55,3.02-1.06,4.57-1.41v-.26c-1.54.36-3.07.8-4.6,1.18-.77.19-3.13-.53-3.47-1.17-.1-.18-.03-.48.07-.68.11-.22.4-.36.54-.57.16-.24.23-.53.33-.8-.31-.08-.62-.19-.94-.24-.14-.03-.31.03-.46.05-1.41.26-2.81.54-4.23.78-1.46.25-1.63.52-1.07,1.72.62,1.33,1.65,2.3,3.34,2.97-.58.35-1.05.63-1.51.92-1.1.67-2.21,1.32-3.28,2.01Zm-11.39,4.83c-.01-.07-.03-.15-.04-.22,1.11-.16,2.23-.32,3.34-.48.01.06.02.12.03.18-1.11.17-2.22.35-3.34.52Zm26.37,2.49c-1.13.41-2.26.82-3.38,1.23-.03-.07-.06-.14-.09-.21,1.11-.4,2.23-.8,3.34-1.2.05.06.09.12.14.18Zm-.33-.96c.06.13.12.26.18.38-1.29.48-2.58.96-3.87,1.44-.04-.08-.08-.16-.12-.24,1.27-.53,2.54-1.06,3.81-1.59Zm-.53-.65c.07.12.14.24.21.36-1.13.48-2.26.95-3.39,1.43-.04-.07-.08-.13-.12-.2,1.1-.53,2.2-1.06,3.3-1.59Zm-29.57,1.03c2.57-.2,5.13-.4,7.52-.58-1.15.69-5.67,1.09-7.52.58Zm14.68,6.39c-.49-.42-.86-.82-1.32-1.09-1.43-.86-2.19-2.11-2.76-3.5-.19-.47-.14-.73.4-.91,1.63-.54,3.23-.43,4.97.1-.49.16-.9.21-1.18.4-.42.29-.97.65-1.03,1.03-.05.3.55.71.92,1.01.22.18.59.21.83.38.15.11.32.4.26.52-.33.7-.72,1.38-1.08,2.05Zm-.17-3.43c-.62-.36-.61-.75.02-1.09.37-.2.79-.36,1.21-.42,1.51-.2,3.02-.36,4.53-.53l.16.25c-1.37.92-2.73,1.85-4.02,2.72-.72-.35-1.35-.6-1.91-.92Zm4.58,4.28c-.53.07-1.06.14-1.59.21-.04-.09-.08-.17-.12-.26.29-.11.58-.28.89-.32.28-.03.59.07.88.12-.02.08-.03.17-.05.25Zm-.8-1.83c1.42-.37,2.72-.7,4.17-1.08-1.65,2.15-2.95,2.52-4.17,1.08Zm3.6-1.54c.58-.4,1.14-.78,1.69-1.16-.32,1.1-.54,1.26-1.69,1.16Zm2.13-5.63c-.91.72-1.92,1.35-2.9,2-.12.08-.27.16-.42.16-1.95.1-3.86.62-5.85-.03-1.29-.42-2.73-.28-4.06.2-.56.2-.91.52-.65,1.1.58,1.32,1.11,2.68,2.53,3.54.46.28.82.68,1.21,1.05.61.58.56,1.03-.12,1.59-.58.48-1.12.99-1.91,1.69-3.17-2.39-6.32-4.95-8-8.92.83-.09,1.57-.11,2.28-.25,2.75-.53,5.52-.63,8.3-.4.9.08,1.46-.18,2.02-.77.56-.58,1.2-1.18,1.95-1.51,2.09-.92,4.4-1,6.78-1.08-.32.6-.66,1.18-1.18,1.59Zm3.97-1.71c-.12,1.11-.75,1.59-2.03,1.63.7-.56,1.28-1.03,2.03-1.63Zm-2.2-4.8c.76-.2,1.17.07,1.37.73.19.62.16,1.09-.64,1.33-1.87.55-3.74,1.12-5.6,1.69-.09-.05-.18-.09-.27-.14.45-.74.98-1.45,1.34-2.22.23-.5.61-.62,1.1-.72.91-.2,1.81-.43,2.71-.66Zm-8.56-4.52c-.38-.92-.33-1.04.79-1.24,1.41-.25,2.81-.53,4.21-.78.3-.05.61-.05,1.17-.09-.3.34-.44.52-.6.68-.98.95-.88,1.52.39,2.15.5.25,1.03.46,1.66.74-1.15.49-2.11.87-3.26.39-.49-.2-1.12-.29-1.65-.22-1.51.2-2.25-.46-2.73-1.62Zm2.56,1.88c.73.11,1.37.21,2.21.34-.97.51-1.71.78-2.21-.34Zm1.84,3.61c-.44.96-.84,1.88-1.28,2.79-.07.15-.27.33-.44.36-.6.12-1.21.18-1.81.26-.07-.09-.13-.17-.2-.26.19-.3.36-.62.58-.89.37-.45.88-.82,1.17-1.31.47-.8,1.25-.83,1.98-.95Zm-3.81,2.53c-.53.73-.22,1.23.74,1.16,1.15-.08,2.3-.23,3.42-.46,1.32-.27,2.62-.67,3.92-1.01-.31.52-.69,1.12-1.22,1.26-1.01.27-2.11.23-3.16.39-2.19.34-4.31.8-5.61,2.67-.18.26-.73.43-1.12.44-1.97.06-3.94.05-5.91.06-.24,0-.49-.02-.67-.03,1.33-.62,2.62-1.26,3.94-1.84,1.08-.47,2.23-.82,3.28-1.33.39-.19.61-.67.87-1.04.11-.15.06-.44.19-.52.88-.5,1.8-.95,2.89-1.52-.61.69-1.13,1.19-1.55,1.77Z" style="fill:#fff; opacity:.65;"/><path d="m5.67,86.6c-.05.14-.09.28-.13.41l.14.23.1.17.03.06c.05-.39.23-.83.45-1.43.1-.26.2-.53.3-.79.3-.74.35-1.47-.17-2.16-.41-.53-.14-1,.26-1.36,1.28-1.14,2.6-2.23,3.91-3.34.2-.17.47-.28.69-.43,1.01-.68,1.04-1.28,0-1.9-.95-.58-1.97-1.05-2.93-1.61-.62-.36-1.23-.76-1.76-1.21-.52-.44-.48-.94.1-1.37.05-.03.09-.08.14-.11,2.09-1.05,3.54-2.75,5.24-4.2,1.14-.97,2.47-1.73,3.82-2.49,0-.14.02-.29.02-.43-1.85.82-3.59,1.84-4.87,3.34-1.18,1.39-2.63,2.41-4.21,3.36-1.3.79-1.33,1.71-.07,2.55,1.01.68,2.13,1.24,3.23,1.81,2.17,1.14,2.11,1.21.17,2.57-1.38.97-2.58,2.16-3.81,3.3-.57.53-.61,1.14-.2,1.85.23.4.24.97.16,1.43-.11.6-.42,1.16-.62,1.75Z" style="fill:#fff; opacity:.65;"/><g style="opacity:.65;"><path d="m158.26,93.78c1-.3,2.05-.48,3.01-.85,3.4-1.31,6.81-2.61,10.15-4.03.44-.19.87-.35,1.31-.51-.14-.07-.28-.16-.42-.24-.2.08-.38.16-.58.25-1.16.54-2.33,1.08-3.53,1.56-3.15,1.26-6.25,2.62-9.63,3.36-1.25.28-1.91.99-1.97,2.22-.01.27-.09.5-.26.78.11.1.22.21.33.31.3-.38.45-.79.39-1.35-.07-.75.42-1.25,1.19-1.48Z" style="fill:#fff;"/><path d="m156.74,61.13c-4.36.54-8.62,1.37-13.01,1.71-.01.11-.02.21-.03.32,1.97-.15,3.89-.32,5.83-.63,3.82-.59,7.57-1.18,11.44-1.26.03-.1.06-.22.08-.32-.15,0-.25.02-.4.01-1.3-.03-2.62,0-3.91.16Z" style="fill:#fff;"/><path d="m160.25,68.86c0-.11-.01-.23-.02-.34-1.92.08-3.81.14-5.73.32-3.62.34-7.24.82-10.86,1.2.01.13.02.25.03.38,1.8-.18,3.62-.38,5.41-.59,3.72-.43,7.41-.78,11.16-.97Z" style="fill:#fff;"/><path d="m157.07,59.78c-2.45.32-4.86.92-7.31,1.19-1.97.22-3.9.38-5.88.53-.02.15-.04.29-.06.44,2.22-.17,4.4-.34,6.57-.74,3.65-.67,7.23-1.27,10.95-1.23.03-.09.07-.19.1-.29-.05,0-.04,0-.09,0-1.42-.11-2.88-.08-4.28.1Z" style="fill:#fff;"/><path d="m159.59,67.33c-1.55.08-3.13-.06-4.65.17-3.77.57-7.55,1.06-11.37,1.22,0,.09.01.17.02.26,2.38-.17,4.76-.33,7.13-.54,2.56-.23,5.11-.62,7.67-.8.61-.04,1.21-.04,1.82-.07,0-.09,0-.14,0-.23,0-.01,0-.05,0-.06-.21.01-.4.03-.61.04Z" style="fill:#fff;"/><path d="m151.41,64.66c3.03-.46,5.99-.84,9.05-.85.02-.11.04-.24.05-.35-.33-.01-.62.03-.96,0-1.16-.1-2.37.03-3.53.19-2.3.3-4.58.81-6.89,1.03-1.87.17-3.71.31-5.58.48,0,.09,0,.23-.01.33,2.63-.25,5.25-.42,7.86-.82Z" style="fill:#fff;"/><path d="m160.32,64.99c.01-.11.02-.22.03-.33-.25,0-.47.01-.72,0-1.02-.05-2.06.02-3.07.16-2.55.34-5.07.83-7.62,1.11-1.8.2-3.6.26-5.41.39,0,.08,0,.16,0,.23,0,.05,0,.09,0,.14,2.3-.15,4.58-.31,6.85-.63,3.31-.47,6.56-1.15,9.94-1.08Z" style="fill:#fff;"/><path d="m157.85,89.6c-1.51.34-2.49,1.1-2.52,2.61-.01.75-.52,1.16-1.2,1.52-.08.05-.13.08-.21.12.08.09.17.19.26.28.04-.02.03-.04.07-.06.7-.38,1.42-.78,1.41-1.59,0-1.69,1.19-2.26,2.74-2.7,2.59-.74,5.18-1.52,7.69-2.44,1.05-.38,2.06-.85,3.06-1.34-.1-.08-.21-.17-.31-.25-.32.15-.65.31-.98.46-3.2,1.48-6.53,2.61-10.02,3.4Z" style="fill:#fff;"/><path d="m149.55,63.73c3.71-.56,7.39-1.13,11.14-1.23.02-.1.04-.19.06-.29-.09,0-.15,0-.24,0-1.61-.02-3.23.08-4.83.27-3.66.43-7.3,1.03-10.96,1.42-.37.04-.7.07-1.07.11-.02.11-.02.23-.03.35,2-.15,3.96-.32,5.94-.62Z" style="fill:#fff;"/><path d="m156.23,93.34c.05-1.22.78-1.86,2.01-2.18,1.55-.41,3.14-.74,4.62-1.31,2.47-.97,4.89-2,7.32-3.06-.1-.07-.2-.15-.31-.23-2.18.96-4.33,1.91-6.56,2.75-1.65.63-3.42,1.03-5.14,1.51-1.25.35-2.21.95-2.28,2.23-.04.82-.43,1.35-1.07,1.78.09.09.17.18.26.26.66-.43,1.12-.97,1.15-1.74Z" style="fill:#fff;"/><path d="m158.72,92.29c4.47-1.03,8.61-2.74,12.65-4.71-.13-.08-.24-.16-.36-.24-2.3,1.13-4.72,2.11-7.14,3.03-1.73.65-3.55,1.12-5.34,1.62-1.33.37-2.27.95-2.36,2.35-.03.44-.22.95-.59,1.24.1.09.17.17.26.26.44-.39.7-.78.71-1.4.03-1.31.92-1.86,2.17-2.15Z" style="fill:#fff;"/><path d="m149.21,71.05c3.72-.46,7.42-.77,11.16-.96-.02-.14-.03-.27-.04-.41-5.26.27-10.48.91-15.7,1.52-.27.03-.57.04-.85.07,0,.13.02.25.04.38,1.79-.18,3.62-.37,5.4-.59Z" style="fill:#fff;"/><path d="m150.89,54.26c1.65-.22,3.27-.66,4.93-.84,3.21-.35,6.31-.64,9.53-.93.07-.09.13-.17.21-.26-.34.05-.56.09-.9.12-2.78.25-5.58.4-8.35.72-2.21.25-4.38.76-6.59,1.04-1.45.18-2.82.35-4.27.52-.03.11-.07.23-.11.34,1.88-.22,3.68-.46,5.56-.71Z" style="fill:#fff;"/><path d="m195.33,88.44c-.3.15-.59.29-.9.46,2.05-.15,3.98-.56,5.85-1.15-.09-.09-.16-.16-.25-.24-.22.06-.54.2-.76.25-1.34.33-2.58.52-3.94.68Z" style="fill:#fff;"/><path d="m154.23,91.9c-.47.26-.92.44-1.4.69.08.09.16.2.24.29.25-.11.44-.19.67-.31.3-.16.6-.32.88-.51.47-.33.65-.72.34-1.27-.43-.77-.24-1.3.6-1.7.5-.23,1.05-.39,1.6-.5,3.8-.76,7.39-2.01,10.87-3.56-.09-.09-.15-.14-.24-.22-.02,0-.05.02-.07.02-3.39,1.45-6.85,2.69-10.52,3.41-.64.13-1.3.3-1.88.58-.97.47-1.22,1.18-.74,2.09.26.49.07.76-.35.99Z" style="fill:#fff;"/><path d="m198.88,89.82c.35.12.72.38,1.05.35.68-.07,1.5-.17,2.16-.32-.07-.1-.11-.15-.18-.25-.74.17-1.66.23-2.43.35-.03-.13-.07-.26-.1-.39.62-.2,1.34-.46,1.96-.66-.07-.09-.13-.15-.21-.24-.46.13-1.02.3-1.46.46-.32.12-.54.46-.8.7Z" style="fill:#fff;"/><path d="m158.77,94.93c2.87-.95,5.74-1.92,8.56-2.97,1.83-.68,3.56-1.57,5.38-2.26.56-.21,1.08-.37,1.65-.52-.16-.07-.33-.15-.49-.23-.46.14-.87.26-1.32.44-4.68,1.89-9.18,4.15-14.21,5.32-.9.21-1.32.72-1.14,1.6.06.28.07.52.01.78.11.09.22.19.32.28.1-.28.14-.56.06-.91-.21-.92.31-1.25,1.18-1.53Z" style="fill:#fff;"/><path d="m158.89,41.95c.21.22.35.4.52.53.61.48.81.91.13,1.53-.52.48-.03,2.42.7,3.11.75.7,1.69,1,2.76,1.05,1.66.08,1.51.15,2.16,1.56.28.6.4,1.32,1.07,1.7.28-.31.56-.62.86-.92-.11-.04-.91-.31-1.02-.34-1.05-.76-.53-1.77-.51-1.87.2.03,1.67,1.85,1.87,1.88.79-.76-.48-1.88.55-1.67-.02,0,1.24.06,1.22.06-.4-.78,1.02-1.07,1.24-1.09.12,0,.22-.01.34-.02.29-.19.6-.4.9-.58-.32.04-.45.14-.76.2-.79.17-1.66.03-2.49.03-.01-.13-.03-.26-.04-.39,1.96-.36,3.66-.73,5.62-1.08.42-.2,1.1-.49,1.54-.66,0-.02-.03-.02-.03-.05-.53-.15-1.02-.19-1.57-.34.38-.2.74-.38,1.1-.56-.02-.08-.04-.15-.06-.22-.48-.05-.95-.1-1.43-.15-.02.06-.03.11-.05.17.13.08.26.16.49.31-1.5.28-2.93.53-4.34.82-.91.18-1.79.45-2.7.62-.45.08-.94.01-1.41.01-.03-.15-.05-.29-.08-.44,2.59-.64,5.18-1.28,7.77-1.92,0-.12,0-.23,0-.35-.56-.09-1.13-.18-1.69-.26-.03.07-.05.14-.08.21.2.1.41.2.68.33-2.32.57-4.55,1.11-6.92,1.69-.1-.1-.32-.32-.68-.68,2.66-.7,5.19-1.36,7.72-2.03-.01-.07-.03-.13-.04-.2-.3.03-.61.02-.89.1-2.03.52-4.06,1.02-6.07,1.59-.63.18-1,.09-1.29-.56,1.3-.34,2.6-.68,3.89-1.02-.02-.09-.05-.17-.07-.26-1.19.29-2.38.59-3.57.87-.27.06-.55.09-.83.14-.05-.26-.1-.53-.14-.79-.06-.03-.12-.06-.17-.09-.06.27-.25.58-.17.81.26.73.64,1.43.92,2.16.07.18.06.49-.07.62-.51.52-.94.99-.22,1.66.12.11.04.41.05.62-2.39.18-3.82-.96-3.88-3.05,0-.2.11-.43.24-.6.72-.96.36-1.8-1.04-2.17Zm7.85,3.96c2.63-.28,5.09-1.77,8.17-.74-2.64.51-5.03.99-7.43,1.41-.24.04-.55-.25-.83-.39.03-.09.06-.19.09-.28Zm-1.44.34c.22.33.42.62.61.92-.02.11-.04.21-.06.32-.47-.09-.94-.17-1.46-.26.39-.41.64-.68.91-.97Zm-1.69-.02c.23-.33.54-.61.86-.95.59.56.49,1.04-.24,1.44-.14.08-.45.09-.55,0-.11-.09-.15-.38-.07-.5Z" style="fill:#fff;"/><path d="m151.07,59.85c3.57-.61,7.04-1.21,10.69-1.07.04-.11.08-.21.13-.32-1.19.04-2.32.05-3.51.02-.92-.02-1.86.1-2.78.25-2.38.39-4.74.94-7.13,1.22-1.49.17-2.92.31-4.42.43-.01.09-.03.19-.04.28,2.39-.18,4.71-.41,7.06-.81Z" style="fill:#fff;"/><path d="m149.92,72.2c3.55-.35,7.05-.7,10.62-.84-.02-.12-.04-.23-.06-.35-1.55.03-3.05.06-4.58.2-3.99.37-8.01.81-12,1.22.02.14.04.29.06.43,1.97-.22,3.99-.46,5.96-.65Z" style="fill:#fff;"/><path d="m172.21,91.18c1.5-.62,2.99-.94,4.56-1.07-.27-.09-.58-.19-.85-.29-1.19.15-2.3.41-3.46.88-4.35,1.78-8.54,3.89-13.12,5.21-.95.28-1.39.84-1.61,1.62.11.09.23.21.35.3.14-.89.77-1.37,1.71-1.73,4.16-1.6,8.32-3.22,12.43-4.92Z" style="fill:#fff;"/><path d="m160.68,97c3.67-1.52,7.37-3.01,10.98-4.64,2.99-1.35,6.03-1.53,9.29-.95,2.45.43,4.93.52,7.43.32.26-.02.53.02.83.04-.68.7-1.3,1.34-1.92,1.99-.61.63-.54,1.25.32,1.57.7.27,1.49.44,2.25.47,1.68.07,3.36.05,5.04.01,2.28-.05,4.45.28,6.56,1.38-.17.43-.37.9-.55,1.36-.66,1.65,1.68,2.38,1.02,4.03,1.39-.66-.2-.27,1.13-.99.3-.38.76-.55,1.23-.71.11-.06.86-.44.97-.51q0-.14,0-.27c-.62.3-1.81.73-2.36,1-.05-.07-.11-.13-.16-.2.41-.7,1.83-.91,2.52-1.26,0-.17,0-.29-.01-.45-.72.37-1.82.68-2.48,1.02.38-.78,1.55-1.83,2.44-1.74-.04-.44-.12-.39-.47-.63-2.36-1.59.21-1.26.07-1.99-.1.05-.55-.14-.65-.09.06-.08.33-.63.44-.73-.15-.6-.33-1.08-.56-1.65-.5.3-1.19.62-1.72.84-.8.33-1.1.69-.64,1.18.51.54.18.91-.07,1.37-.3-.1-.58-.15-.82-.27-1.68-.78-3.47-1.04-5.32-1.02-1.8.02-3.61.04-5.41-.01-.73-.02-1.48-.16-2.18-.38-.65-.21-.86-.65-.23-1.16.49.19.91.47,1.33.48,3.05.12,6.08.17,8.93-1.17,1.8-.85,3.88-.88,5.82-.61-.07-.17-.1-.24-.18-.38-2.1-.21-4.38-.13-6.34.9-.55.29-1.21.53-1.83.58-2.04.18-4.08.27-6.13.36-.35.01-.71-.2-1.17-.34.85-.94,2.16-1.17,2.54-2.35.24-.73.68-.9-.15-1-.34.08-.71.2-1.05.27.47.05.56.03,1.03.08.02.1.04.19.06.29-.3.13-.59.39-.89.39-2.7-.02-5.44.28-8.12-.26-3.43-.69-6.69-.61-9.91.86-3.69,1.68-7.48,3.17-11.24,4.73-.65.27-1.39,1.01-1.73,1.52.09.07.19.15.28.22.35-.51,1.13-1.21,1.78-1.48Z" style="fill:#fff;"/><path d="m150.68,67.25c2.28-.25,4.53-.68,6.82-.82.92-.06,1.81-.09,2.73-.13,0-.11.01-.21.02-.32-1.69.06-3.35.12-5.04.28-1.91.17-3.78.63-5.69.82-1.99.2-3.99.32-5.99.45,0,.12,0,.28,0,.4.03,0,.07,0,.1,0,2.35-.2,4.7-.41,7.04-.66Z" style="fill:#fff;"/><path d="m151.6,79.65c-.71,1.57-.49,1.96,1.33,2.32,2.4.48,4.82.38,7.23.06,1.58-.2,2.88-.6,3.7-1.98-.07-.11-.16-.25-.23-.37-.21.21-.35.39-.53.66-.32.49-1.06.88-1.7,1.05-2.26.61-4.59.67-6.93.45-.77-.07-1.53-.24-2.27-.42-.51-.12-.77-.44-.57-.96.43-1.11.42-1.12-.88-1.31-.37-.06-.75-.1-1.11-.08-1.33.1-2.8.21-4.13.31.02.07.04.14.07.21,1.93-.17,4.01-.37,6.02.05Z" style="fill:#fff;"/><path d="m151.68,76.12c2.2.04,4.36.25,6.58-.05,1.17-.16,2.3-.2,3.49-.25-.05-.12-.09-.24-.14-.37-1.08.06-2.1.11-3.18.25-2.04.27-4.06.36-6.12.13-1.2-.13-2.43-.16-3.63-.04-1.33.13-2.76.27-4.08.42.03.12.06.25.09.37,2.29-.26,4.69-.49,6.98-.45Z" style="fill:#fff;"/><path d="m148.51,77.64c3.19-.2,6.23.33,8.95,2.02.55.34,1.33.49,2.01.53,1.6.09,2.04-.5,1.47-1.98.56-.18,1.05-.38,1.62-.53-.04-.08-.08-.16-.12-.24-.42.11-.77.19-1.2.3-.49.12-.9.48-.56.95.65.9-.06,1.09-.72,1.1-.74,0-1.62-.05-2.2-.4-2.94-1.75-6.18-2.36-9.6-2.06-1.02.09-2.16.22-3.17.33.03.1.05.21.09.31,1.1-.14,2.33-.26,3.44-.33Z" style="fill:#fff;"/><path d="m146.88,73.74c3.28-.3,6.54-.73,9.83-.89,1.37-.07,2.73-.07,4.1-.11-.02-.09-.05-.21-.07-.3-2.44.11-4.88.23-7.31.4-3.11.22-6.27.54-9.37.85.02.11.04.21.06.32.9-.1,1.86-.19,2.76-.27Z" style="fill:#fff;"/><path d="m146.18,75.05c5.02-.32,10.01-.52,15.04-.77-.04-.13-.08-.27-.12-.4-5.6.17-11.2.56-16.77,1.1.02.08.02.12.04.2.57-.05,1.23-.08,1.81-.12Z" style="fill:#fff;"/><path d="m153.02,55.77c3.47-.76,6.88-.84,10.45-.69.03,0,.07,0,.09,0,.06-.08.11-.18.17-.28-.37,0-.63-.01-1.01-.04-3.15-.26-6.25,0-9.35.6-2.82.54-5.65,1.14-8.52,1.36-.04,0,0,0-.04,0-.02.09-.04.18-.07.27,2.8-.25,5.51-.62,8.26-1.22Z" style="fill:#fff;"/><path d="m149.74,58.81c4.19-.62,8.27-1.28,12.54-1.26.05-.1.1-.2.15-.31-.53.02-.99.04-1.53.03-1.86-.02-3.73.08-5.57.32-2.85.37-5.66,1.1-8.52,1.32-.86.06-1.67.11-2.53.16-.02.11-.04.22-.06.33,1.87-.15,3.68-.33,5.52-.6Z" style="fill:#fff;"/><path d="m149.26,57.67c4.53-.76,8.99-1.46,13.62-1.35.06-.11.12-.22.18-.33-.68.03-1.31.04-1.99.05-2.38.02-4.77.27-7.13.57-2.98.37-5.92,1.05-8.9,1.3-.19.02-.31.02-.5.03-.02.09-.04.19-.06.28,1.63-.13,3.19-.29,4.8-.56Z" style="fill:#fff;"/><path d="m198.89,86.54c-.17.04-.58.11-.75.14-.28.19-.32.23-.6.42.59-.11,1.11-.13,1.68-.29-.13-.1-.19-.17-.33-.27Z" style="fill:#fff;"/><path d="m151.14,87.13c.3-.05.62-.11.89-.24,3.6-1.69,7.61-2.17,11.42-3.22.88-.24,1.63-.5,2.38-.93-.08-.09-.15-.18-.23-.27-.8.45-1.6.71-2.53.96-3.73,1-7.64,1.48-11.15,3.14-.24.11-.53.19-.8.21-.82.07-1.81.14-2.37-.09.08.14.14.25.23.39.52.13,1.45.16,2.16.03Z" style="fill:#fff;"/></g><g style="opacity:.65;"><path d="m306.71,106.76h.81v-.34c-.06.03-.13.06-.19.08-.22.07-.41.18-.62.26Z" style="fill:#fff;"/><path d="m303.22,98.48c-.63.58-1.24,1.12-2.17,1.18-1.39.08-2.78.09-4.17.18-.7.05-1.43.13-2.07.37-.17.06-.62.45-.77.55.1.07.24.14.34.21.28-.19.84-.61,1.26-.65,1.42-.11,2.84-.1,4.27-.17,1.26-.06,2.54-.21,3.33-1.21.78-.99,1.85-1.5,2.99-2.05.46-.22.87-.47,1.31-.73v-.43c-.74.4-1.45.78-2.17,1.21-.76.45-1.51.96-2.14,1.54Z" style="fill:#fff;"/><path d="m301.3,102.56c-.95.21-1.82.78-2.66,1.27-.25.14-.49.62-.41.86.21.68-.51,1.17-1.02,1.42l.05.33c.43-.26,1.4-.99,1.35-1.3-.18-1.01.49-1.4,1.22-1.74.68-.31,1.43-.55,2.18-.69,1.76-.33,3.15-1.17,4.49-2.24.35-.28.68-.54,1.03-.81v-.47c-.35.27-.66.54-1,.81-1.57,1.24-3.21,2.11-5.23,2.56Z" style="fill:#fff;"/><path d="m270.62,106.17c-2.16-.82-4.34-.8-6.46.18-.23.11-.46.32-.61.47.2.02.4.04.6.05.05-.04.14-.17.18-.21,1.72-1.49,4.16-.95,6.26-.15.09.03.2.23.27.3.13-.01.28-.02.42-.04-.18-.21-.42-.51-.66-.6Z" style="fill:#fff;"/><path d="m301.91,97.04c-.77.39-1.6.82-2.44.91-2.33.26-4.69.33-7.04.54-.91.08-1.86.21-2.71.51-.83.29-1.32,1.12-1.42,1.72.16-.06.35-.15.54-.23.51-.76,1.27-1.43,2.25-1.51,2.35-.19,4.69-.35,7.04-.51,1.37-.09,2.68-.3,3.87-1.03,1.43-.88,2.96-1.63,4.4-2.49.4-.24.76-.49,1.13-.78v-.36c-.47.36-.98.66-1.5.96-1.36.77-2.71,1.56-4.11,2.28Z" style="fill:#fff;"/><path d="m303.95,107.09h.44c.63-.48,1.6-1.19,2.43-1.46.26-.08.47-.22.7-.36v-.29c-.26.15-.51.29-.84.38-1.06.27-2.02,1.09-2.74,1.74Z" style="fill:#fff;"/><path d="m306.73,103.87c-.74.34-1.58.49-2.34.79-1.18.45-2.03,1.54-2.38,2.43h.42c.3-.69.95-1.6,1.73-1.95.86-.38,1.78-.63,2.68-.91.28-.09.48-.2.68-.35v-.67c-.25.26-.48.51-.8.66Z" style="fill:#fff;"/><path d="m291.27,60.18s.09-.08.12-.1c.39-.37,1.19-.38,1.89-.56-.9-.23-1.55-.15-2.13.23.04.14.08.29.12.42Z" style="fill:#fff;"/><path d="m293.39,62.59c.4,1.05.61,2.16.85,3.25.19.86-.71,1.72-1.65,1.55-.19-.03-.28-.08-.47-.12,0,.13,0,.23-.01.36.03,0,.17.02.2.03-.03,0-.17.01-.2.02-.02.25-.03.51-.05.76,1.5.31,2.91.62,4.41.93-.04.14-.07.28-.11.42-1.48-.31-2.86-.62-4.34-.92-.01.12-.02.23-.04.34,1.22.26,2.34.52,3.56.78,0,.09-.02.17-.03.26-1.02.35-2.01-.19-3-.32-.24-.03-.36-.07-.59-.19-.02.15-.04.25-.06.41,1.38.36,2.68.29,4.03,1.05-1.24.38-3.48-.02-4.08-.77-.05.32-.09.46-.14.79.13.12.13.27.23.44-.16-.04-.16-.06-.31-.09-.03.13-.06.26-.09.39.33.11.51.19.85.31-.33.08-.56.1-.95.07-.05.21-.1.41-.16.61.64.14,1.15.28,1.79.42-.03.1-.06.21-.09.31-.72.15-1.23-.02-1.84-.28-1.09,3.53-2.97,6.67-5.42,9.31.46.12.8.22,1.25.33-.04.13-.08.27-.12.4-.52-.14-.94-.25-1.45-.39-.15.16-.3.31-.46.46.77.15,1.33.27,2.03.41-.39.58-.86.6-2.22-.22-.11.11-.19.18-.31.29.3.11.52.19.81.34-.41-.02-.88.1-1.29.09-.46.37-.62.5-1.06.87.5-.02.77.06,1.27.03,0,.1.02.2.03.3-.66.03-1.42.21-2.08.24-.53.35-.79.55-1.33.89,1.28-.16,2.41-.28,3.69-.44.01.08.03.15.04.23-1.55.24-3.13.53-4.68.78-3.58,1.99-7.61,3.1-12,3.1s-8.2-1.11-11.7-2.94c-.44,0-.93-.03-1.37-.03,0-.04,0-.09-.01-.13.37,0,.7-.01,1.07-.01-.33-.19-.65-.37-.98-.58h-1.6c0-.08.01-.16.02-.24.46.04.88.07,1.37.11-.3-.19-.6-.39-.89-.59-.93-.02-1.76-.17-2.17-.46h1.53c-.19-.15-.4-.3-.59-.46-.32-.07-.47-.2-.57-.46-.19-.16-.41-.35-.59-.52-.26-.04-.81-.08-1.07-.12.02-.08.26-.16.28-.24.1-.02.27-.02.36-.03-.54-.53-1.08-1.08-1.56-1.63-.52-.13-.86-.22-1.31-.34.04-.1.08-.21.11-.31.25.04.42.02.69.04-.09-.11-.21-.26-.3-.38-.62-.19-1.31.19-1.69-.57.06-.11.11-.22.17-.32.45.16.72.26,1.17.42-.6-.8-1.11-1.57-1.6-2.45-.98-.09-1.7-.16-2.54-.24,0-.09,0-.19-.01-.28,1.75-.24,1.9-.26,2.39.24-.16-.29-.32-.59-.46-.88-.28-.04-.42-.1-.7-.14,0-.1,0-.2,0-.3.2.04.28.03.49,0-.26-.56-.51-1.13-.73-1.71h-1.38c0-.06,0-.13,0-.19.48,0,.83.02,1.3.02-.22-.59-.41-1.21-.59-1.82-.45,0-.78.03-1.23.13-.59.14-1.17.34-1.71.58-1.36.6-2.68,1.27-4.05,1.86-.26.11-.68.11-.94,0-1.04-.43-2.02-.98-3.08-1.37-.84-.31-1.74-.56-2.64-.66-.86-.09-1.46-.38-1.84-1.06-.35-.63-.68-1.27-1.03-1.91-.03-.06-.03-.07-.07-.12.06.87.16,1.68.28,2.53.19-.03.33-.02.52-.03.04.13.08.25.12.38-.2.1-.35.17-.54.27.02.15.05.32.08.47.32-.21.56-.45.8-.79.69.31.72.73.2,1.06-.3.19-.55.33-.86.5.02.09.02.18.04.27.53-.35.98-.69,1.51-1.05.11-.08.22-.21.34-.22.95-.03,1.89-.02,2.82.64h-2.15c0,.09,0,.18-.01.27,1.76.13,3.62-.02,5.1,1.17-1.9.66-3.78,1.27-5.63,1.98-.41.16-.78.33-1.11.61.08.26.15.54.23.8.76-.54,1.68-.65,2.57-.96.06.11.11.21.17.32-.89.35-1.71.67-2.6,1.02.04.12.07.24.11.36.71-.31,1.42-.47,2.19-.68-.58.58-1.27.81-2.05,1.07.04.12.08.22.12.33.21-.11.34-.17.54-.28.09.12.18.23.26.35-.25.12-.42.2-.66.32.36.98.75,1.92,1.18,2.84.32-.08.57-.11.93-.09.03.11.06.22.09.33-.29.09-.5.15-.8.24.04.09.08.17.12.26.67-.15,1.27-.29,1.95-.44.03.13.07.25.1.38-.65.15-1.22.28-1.87.42.72,1.44,1.51,2.82,2.4,4.16.18-.05.31-.09.49-.13.03.11.06.23.09.34-.14.04-.22.07-.35.13.72,1.06,1.48,2.1,2.29,3.08.41-.08.79-.15,1.29-.24-.23.53-.51.74-.89.71,1.45,1.69,2.99,3.26,4.69,4.69,1.91-.76,3.67-.39,5.67.33-1.57.29-2.95.55-4.28.79.11.09.22.17.33.25,1.47-.3,2.95-.66,4.42-.67.97,0,1.96.85,2.93,1.32.07.03.14.17.11.21-.29.45-.51,1.01-.95,1.29-.27.18-.92,0-1.33-.15-.64-.24-1.2-.72-1.86-.86-.69-.15-1.42-.22-2.13-.29.16.11.32.23.48.34,1.12.1,2.21.33,3.22,1-.39.14-.79.23-1.15.3.16.09.33.19.49.28.56-.1.76,0,.89.31-.1,0-.19.03-.29.03.3.16.6.33.91.48,0,0,.01-.03.01-.03h7.78s0,.09,0,.14c-2.51,0-5.04.02-7.55.02.36.18.72.36,1.09.53.83,0,1.69-.02,2.52-.02,0,0,0,.02,0,.03-.68.06-1.39.13-2.07.19.22.1.44.2.66.29,1.41-.12,2.85-.25,4.17-.36.22.73.32,1.31.56,1.84.03.06.08.18.11.24.17.04.33.09.5.14-.44-.65-.78-1.41-.57-2.29.32-.02.63-.03.94-.05,1.02-.08,1.29.13,1.06.99-.17.63-.07,1.24.22,1.75.2.04.42.09.63.13-.26-.42-.46-.97-.54-1.43-.09-.55.05-1.12.09-1.72.36-.05.78-.11,1.15-.17.26.27.46.55.73.74,1,.74,1.01.73.19,1.61-.39.41-.48.85-.34,1.2.15.02.31.05.46.07-.17-.25-.19-.63.07-.97.99-1.27.98-1.27-.36-2.33-.04-.03-.05-.09-.11-.21.32-.11.63-.21.95-.31,1.72-.54,3.36-.18,4.98.37,1.59.54,3.16,1.14,4.77,1.62,1.14.34,2.14.88,2.96,1.61.15-.03.3-.06.45-.09-.74-.74-1.66-1.31-2.73-1.66-2.66-.86-5.32-1.72-8.07-2.61,1.04-.21,2.04-.42,3.05-.59.18-.03.41.09.61.17,1.65.62,3.3,1.26,4.96,1.87,1.52.56,2.9,1.26,3.99,2.39.13-.03.26-.07.39-.1-1.5-1.58-3.48-2.39-5.62-3.04-1.17-.36-2.28-.87-3.42-1.31.02-.09.04-.18.05-.27.68-.07,1.47-.39,2.02-.19,2.99,1.1,6.15,1.93,8.21,4.44.14-.04.28-.09.42-.13-.23-.06-.39-.28-.56-.47-1.3-1.42-2.96-2.36-4.84-3.02-.96-.34-1.9-.71-2.91-1.08.9-.62,1.72-.74,2.67-.29.65.31,1.36.54,2.08.71.89.21,1.81.37,2.73.45.44.04,1.03-.11.79-.73-.29-.77.22-1.04.85-1.22.8-.22,1.62-.36,2.42-.58,1.72-.47,1.89-.84,1.14-2.31-.49-.95-.28-1.58.8-1.95.8-.28,1.66-.54,2.5-.58,3.19-.12,6.4-.04,9.58-.23,1.63-.1,3.34-.43,4.83-1.02,1.96-.78,3.75-1.92,5.61-2.9.54.84.36,1.23-.63,1.73-1.59.79-3.15,1.65-4.76,2.41-.75.36-1.58.66-2.41.79-1.09.17-2.22.17-3.34.21-2.98.12-5.96.17-8.93.36-1.85.11-3.34.94-2.1,2.89.41.65.13,1.15-.58,1.43-.76.31-1.56.55-2.32.85-1.49.59-1.91,1.33-1.75,2.8.06.51,0,.99-.1,1.49.14-.05.27-.1.41-.15.09-.45.11-.89.05-1.34-.15-1.31.25-2.02,1.59-2.53.6-.23,1.23-.39,1.82-.62,1.49-.56,1.7-1.05,1.05-2.41-.49-1.02-.21-1.59.96-1.91.38-.1.79-.18,1.18-.19,3.16-.12,6.33-.26,9.49-.34,2.41-.06,4.66-.42,6.59-1.89.76-.58,1.79-.87,2.67-1.33.68-.35,1.32-.74,1.99-1.12.33.85.06,1.34-1.1,1.93-1.51.76-2.97,1.6-4.49,2.34-.78.38-1.62.81-2.47.89-3.23.31-6.49.47-9.73.71-1.14.08-2.29.16-3.41.38-1.29.26-1.49.97-.65,1.89.14.15.29.29.42.45.58.7.52,1.11-.35,1.44-.88.34-1.81.57-2.72.84-1.9.56-2.27,1.14-2.33,2.61l.34-.13c-.07-.92.44-1.66,1.39-1.94,1.12-.32,2.25-.62,3.33-1.02,1.25-.45,1.45-1.19.55-2.07-1.24-1.21-1-1.52.73-1.9.12-.03.24-.04.37-.05,3-.17,6-.37,9-.5,2.49-.11,4.83-.51,6.86-1.98.88-.64,1.96-1.06,2.98-1.52.63-.29,1.17-.58,1.52-1.1v-6.68c-.41-.25-.88-.45-1.5-.66-.48-.16-1.06-.51-1.23-.9-.71-1.61-1.28-3.28-1.92-4.97,1.74-.19,3.24.03,4.65.54v-.36c-1.28-.46-2.61-.67-4.1-.58-.57.03-.9-.12-1.05-.69-.22-.88-.55-1.73-.86-2.59-.2-.57-.43-1.13-.66-1.76.34-.26.98-.54,1.17-.97.29-.64.32-1.4.35-2.1.02-.48.12-.73.68-.91.83-.27,1.59-.72,2.4-1.05.34-.14.77-.3,1.1-.23.34.08.63.15.97.23v-.16c-.1-.02-.16-.04-.25-.06.03-.09-.5-.44-.47-.53.07,0,.66.25.73.25v-4.14c-.31-.13-.58-.24-.88-.37.04-.08.08-.16.12-.24.27.11.5.2.77.31v-.67c-.44-.06-.85-.1-1.29-.17-.69-.11-1.17.05-1.66.61-.65.73-1.55,1.28-2.3,1.86-.48-.49-.86-1.08-1.42-1.43-1.85-1.15-2.14-2.75-1.91-4.59.1-.85.02-1.72.02-2.65h.69c.22.63.33,1.23.63,1.73.31.53.81.96,1.22,1.44-.7,1.05-.63,1.19.73,1.41.36.06.74.07,1.11.11,1.41.18,2.81.26,4.19.5v-.22c-1.13-.19-2.22-.38-3.35-.55-.89-.14-1.8-.18-2.94-.29.91-.81.64-1.29-.03-1.82-.88-.69-1.09-1.67-1.04-2.68,0-.18.2-.35.34-.57.29.47.47.82.7,1.13,1.27,1.7,3.01,2.69,5.25,3.19.37.08.71.16,1.08.24v-.49c-.9-.19-1.77-.34-2.67-.56-1.65-.4-2.7-1.64-3.6-2.91-.12-.17-.13-.4-.27-.88.63.21,1.15.24,1.39.49,1.47,1.54,3.22,2.38,5.15,2.94v-.37c-1.72-.5-3.25-1.23-4.52-2.49-.38-.38-.69-.81-1.06-1.25.75-.36,1.16-.16,1.62.23.81.68,1.6,1.46,2.58,1.89.46.2.9.36,1.38.52v-.35c-1.48-.49-2.8-1.17-3.85-2.41-.23-.27-.41-.57-.62-.86.06-.07.11-.14.17-.21.35.08.87.06,1.03.27.88,1.1,2,1.58,3.26,1.81v-.36c-1.67-.4-3.14-1.33-3.24-2.71.38.13.74.16.94.34.79.68,1.48.93,2.3.84v-.28c-.73.1-1.38-.2-1.9-.8.22-.09.44-.18.72-.28-.38-.33-1.27.2-1.14-.65.79-.12,1.56-.18,2.33-.3v-.29c-.13.02-.23.05-.36.05-.38,0-.77-.19-1.15-.29.02-.08.04-.16.07-.25.25-.07.5-.14.89-.25-.31-.14-.49-.23-.93-.44.66-.16,1.06-.33,1.49-.37v-.6s-.06-.01-.08-.02c-.06-.08-.1-.2-.03-.29.01,0,.1.03.11.02v-.33c-.25.16-.38.44-.38.85-1.02.47-1.81,1.1-2.45,1.99-.61.86-1.51,1.54-2.3,2.29-.78.73-1.56,1.47-2.39,2.16-.41.34-.94.58-1.34.82,0,1.65-.03,3.36.01,5.07.02.93.58,1.63,1.4,2.17.32.22.63.45.92.71.71.63,1.07,1.3.51,2.22-.77,1.27-1.42,2.6-2.15,3.95-.46-.4-.89-.77-1.41-1.22.46-.21.92-.41,1.38-.62,1.11-.53,1.32-.99.72-1.95-.51-.82-1.06-1.68-1.81-2.33-1.05-.92-1.36-2.16-1.23-3.21.15-1.24-.38-2.31-.38-3.55.37-.07.77-.14,1.18-.21l-.02-.24c-.46.06-.97.05-1.37.23-.15.07,0,.6-.04.92-.1.93.37,1.77.27,2.76-.12,1.18.17,2.46,1.24,3.46.72.67,1.24,1.53,1.84,2.31.07.09.08.21.14.31.34.66-.15,1-.67,1.16-.81.25-1.7,1.34-2.43.48-.73-.86-1.59-1.05-2.57-1.27-.14-.03-.29-.07-.55-.13,1.28-.76,1.07-1.7.67-2.77-.39-1.05-.73-2.16-.79-3.26-.04-.82.28-1.7.68-2.46.17-.32.92-.39,1.4-.57-.9-.32-1.55-.09-1.95.66-.6,1.11-.71,2.2-.25,3.4Zm8.51,7.66c.02.82.42,1.7-.34,2.4.09-.81-.4-1.68.34-2.4Zm-4.51,2.99c.14.03.23.25.34.38-.4.04-.81.08-1.3.14.1-.94.62-.58.96-.52Zm-.21,5.71h2.16c0,.09,0,.19,0,.28-.73.45-1.44-.04-2.16,0,0-.09,0-.19,0-.28Zm.64,1.53c.01.11.03.21.04.32-.61.4-1.23.15-1.86-.14.61-.06,1.21-.12,1.82-.18Zm-.46,2.66c.76.08,1.52.16,2.28.25-.01.1-.02.19-.04.29-.76-.08-1.52-.16-2.28-.24.01-.1.03-.2.04-.3Zm-2.82-11.14c.5,0,1.01-.02,1.51.02.09,0,.15.31.27.6-.73-.12-1.27-.21-1.8-.3,0-.11.01-.22.02-.33Zm1.25,2.47c-.75-.12-1.49-.23-2.45-.38,1.72-.56,2.41-.44,2.45.38Zm-2.71-2c.94.14,1.79.27,2.74.42-1.29.66-2.32.53-2.74-.42Zm2.89,3.31c-1.02.61-2.07.46-2.47-.38.85.13,1.64.25,2.47.38Zm-3.68-4.55c.71.15,1.41.31,2.22.48-1.38.58-2.1.4-2.22-.48Zm1.14,5.1c-1.31.46-1.82.28-1.82-.5.61.17,1.22.33,1.82.5Zm-.48-1.43c-.59-.18-1.15-.34-1.7-.5,1.55-.26,1.62-.23,1.7.5Zm3.93,9.45c-1.91.2-3.76.39-5.61.58-.01-.08-.03-.16-.04-.24,1.8-1.45,4.55-1.65,5.65-.34Zm-5.05.79c1.07.04,2.15-.14,3.22-.26,1.62-.18,3.25-.81,4.92.37-3.71.43-7.22,1.71-10.97.82.81-.63,1.69-.98,2.82-.94Zm-7.3,2.51c-1.15.81-2.94,1.16-3.69.68,1.29-.24,2.4-.44,3.69-.68Zm-12.84,9.54c-1.11.49-1.37-.25-1.98-.82,1.28-.43,2.36-.93,3.74-.63,1.41.3,2.89.33,4.49.49-1.23.69-2.33,1.3-3.49,1.95-.57-.75-1.99-1.33-2.76-.98Zm2.21.65c-.02.1-.04.21-.06.31-.88.54-1.54-.21-2.3-.38.02-.12.04-.24.06-.36.77.14,1.53.29,2.3.43Zm-21-3.26c2.06-.4,5.54-.58,8.54-.05-2.98.42-7.64.45-8.54.05Zm2.65.89c0,.12,0,.24-.01.35-.86-.05-1.72-.09-2.58-.14.01-.13.02-.27.03-.4.85.06,1.7.13,2.55.19Zm-12.71-16.18c-1.04.15-1.74.82-2.74.22.88-.21,1.59-.81,2.74-.22Zm-1.47-1.14c.84-.16,1.68-.73,2.63.13-.95.08-1.77.15-2.6.22-.01-.12-.02-.24-.03-.35Zm2.71,1.92c-.79.08-1.59.15-2.38.23-.02-.12-.03-.24-.05-.36.8-.06,1.59-.75,2.43.13Zm31.81,12.72c0,.13.01.27.02.4-.93-.07-1.86-.15-2.79-.22,0-.06,0-.12.01-.18h2.76Zm-.81-.85h2.86c0,.1,0,.2,0,.3-.91-.05-1.85.33-2.86-.3Zm-28.26.35c2.6-.1,4.94-.19,7.28-.29,0,.09,0,.17.01.26-2.34.37-4.67.81-7.29.03Zm4.8,1.13c0,.07,0,.15,0,.22h-7.08c0-.07-.01-.15-.02-.22,2.37-.14,4.74-.55,7.1,0Zm-10.08-7.95c.04.1.07.19.11.29-.63.22-1.27.44-1.9.66-.06-.15-.12-.29-.17-.44.65-.17,1.31-.34,1.96-.51Zm-2.52-.08c.85-.28,1.57-.51,2.31-.76.07.61-1.37,1.1-2.31.76Zm.93-2.06c.8-.25,1.47-.46,2.14-.66.04.1.07.2.11.3-.69.15-1.21.92-2.24.36Zm1.72-1.58c.7-.06,1.26-.11,1.82-.16.01.14.02.27.04.41-.57.05-1.15.57-1.85-.25Zm.37,9.26h2.49c-.81.11-1.65.83-2.49.36,0-.12,0-.24,0-.36Zm7.7.95h-6.37c2.12-.63,4.25-.73,6.37,0Zm10.59.87c-2.82.12-5.64.23-8.46.35-.02-.08-.03-.16-.05-.24,2.83-.36,5.66-.93,8.51-.11Zm5.18.48c0,.08,0,.16,0,.24-3.3.13-6.6.43-9.9-.03,0-.07,0-.14,0-.21h9.89Zm-3.44.77c1.95-.14,3.91-.27,5.86-.41,0,.16.02.31.03.47-1.97.09-3.94.18-5.9.27,0-.11,0-.22.01-.33Zm7.29.28c.01.08.02.16.04.23-.96.08-1.92.15-2.89.23,0-.08-.01-.16-.02-.23.95-.13,1.87-.6,2.87-.23Zm-.95-.85c1.38-.36,2.76-.72,4.19-.18-1.4-.1-2.76.66-4.19.18Zm7.16.27c-1.92.14-3.81.71-5.73.37,1.91-.33,3.8-.76,5.73-.37Zm-4.11,1.29c0,.1,0,.2-.01.3-1.09.35-2.23,1.22-3.28-.49,1.19.07,2.24.13,3.29.19Zm-.28-.39c1.26-.14,2.37-.26,3.65-.4-1.16.87-2.43,1.03-3.65.4Zm6.39-.33c-.26.19-.5.37-.93.68.68.29,1.18.5,1.88.8-1.77-.12-3.35-.23-4.93-.34,0-.07-.02-.14-.03-.21,1.34-.31,2.41-1.52,4.02-.93Zm-7.38-1.79c0-.11,0-.21-.01-.32,1.51-.05,3.01-.72,4.53-.1,0,.08,0,.15,0,.23-1.51.06-3.01.12-4.52.19Zm.63-.74c-.77.09-1.54.16-2.3.24-.02-.1-.04-.2-.06-.3,1.53-.34,3.04-.79,4.85-.26-.97.13-1.73.23-2.49.32Zm-1.01,1.07c-1.21.11-2.28.22-3.35.32,0-.07-.02-.15-.03-.22,2.43-.6,2.62-.61,3.37-.09Zm-9.01-.49c0-.08,0-.16,0-.23h6.97c-2.31.57-4.64.91-6.97.23Zm-5.98-.51c0-.08,0-.16,0-.24,3.4-.24,6.79-.45,10.19.24h-10.19Zm3.93-.79c-2.91.16-5.83.31-8.74.47-.02-.1-.03-.2-.05-.3.98-.1,1.96-.21,2.94-.31,1.02-.1,2.03-.23,3.05-.25.94-.02,1.88.09,2.81.15,0,.08,0,.16-.01.24Zm-14.03-.61h7.63c-2.54.39-5.09.82-7.63,0Zm3.33-2.62h2.79c-1.03.47-1.9.57-2.79,0Zm.79,1.08h-3.76c.45-.59,2.33-.64,3.76,0Zm-3.09-5.75c.93-.02,1.73-.12,2.28.57-.73-.13-1.64.37-2.28-.57Zm1.05,1.48c-.97-.05-1.7-.08-2.44-.12.02-.12.04-.24.05-.36.75-.03,1.55-.29,2.39.47Zm-4.06-4.21c.89.18,1.65-.6,2.22.36-.67-.05-1.45.61-2.22-.36Zm-.9,1.87c-.93.31-1.66.56-2.4.8-.03-.07-.06-.14-.09-.22.89.11,1.14-1.27,2.5-.59Zm-4.81.63c-.04-.12-.09-.23-.13-.35,1.11-.35,2.04-1.17,3.33-1,.04.1.07.2.11.29-1.1.35-2.2.71-3.31,1.06Zm.52.3c-.68.57-1.23,1.44-2.56.97.97-.37,1.76-.67,2.56-.97Zm2.41.55c-1.5.79-2.48,1.05-3.13.85.73-.67,2.18-1.1,3.13-.85Zm.67,5.47c.03.12.05.24.08.36-.94.16-1.88.32-2.82.48-.01-.1-.03-.2-.04-.3.93-.18,1.86-.35,2.79-.53Zm2.73,3.06c-1.06.22-1.96.4-2.86.59-.03-.14-.05-.27-.08-.41.91-.17,1.75-.82,2.94-.18Zm3.69.5c-.97.09-1.83.16-2.69.24-.84.08-1.69.16-2.53.25,0-.08-.02-.17-.03-.25,1.67-.62,3.38-.71,5.24-.24Zm1.37,1.46c0,.11,0,.22,0,.33h-4.72c0-.11.02-.22.02-.33h4.69Zm-.89.58h4.83c0,.08,0,.15,0,.23h-4.83c0-.08,0-.15,0-.23Zm1.89.69c1.02.04,2.04.09,3.05.13,0,.05,0,.1,0,.16h-3.05c0-.1,0-.19.01-.29Zm.11-1.18c-.03-.1-.07-.2-.1-.3,1.9.02,3.74-.85,5.69-.12-1.86.14-3.73.28-5.59.42Zm6.45.72c3.33-.09,6.65-.19,9.98-.28,0,.07.02.14.02.21-.23.06-.46.17-.7.18-2.75.14-5.5.28-8.25.38-.37.01-.75-.21-1.12-.32.02-.06.04-.11.06-.17Zm10.29.26c1.23-.25,2.02.15,2.99,1.11-.77.22-1.4.62-1.92.52-1.9-.35-3.76-.87-4.98-1.17.85-.09,2.41-.16,3.91-.46Zm2.82,3.35c-.74-.18-1.33-.31-1.98-.47.59-.76,1.24-.6,1.98.47Zm-.94-1.38c.42-.24.82-.48,1.24-.72.44.37.84.71,1.25,1.05.02.02.02.05.03.07-.77.87-.78.87-2.51-.4Zm8.15.47c1.85-.6,4-.52,5.53-2.1.16,1.1-.58,1.34-1.3,1.61-1.28.48-2.53,1.04-3.83,1.45-.61.2-1.32.14-1.99.2-.03-.11-.05-.22-.08-.33.55-.28,1.08-.64,1.67-.83Zm5.34-8.52c-.03-.09-.05-.18-.08-.27.89-.22,1.78-.44,2.66-.66.03.1.07.2.1.31-.9.21-1.79.42-2.69.62Zm-.7,5.41c.06.12-.18.5-.29.5-1.08.02-2.16,0-3.24-.02-.02-.13-.03-.26-.05-.39.99-.24,1.98-.51,2.98-.69.16-.03.47.35.59.59Zm-1.16-1.1h-2.57c0-.06,0-.12,0-.17h2.57c0,.06,0,.12,0,.17Zm-3.41-.8c.91-.12,1.86-.53,2.86.27-1.1-.06-2.01.12-2.86-.27Zm2.57-1.67c-1.48.76-3.09.13-4.62.41,0-.09-.02-.18-.03-.27,1.54-.15,3.08-.29,4.61-.44.01.1.02.2.03.3Zm-1.54-1.42c-.68.04-1.35.08-2.03.12.67-.21,1.28-1,2.03-.12Zm-5.57.59c1.79-.08,3.59-.15,5.38-.23-1.75.9-3.58.62-5.4.58,0-.12,0-.23.01-.35Zm-2.14.95c-1.34.15-2.67.3-4.01.45,0-.1,0-.21,0-.31,1.32-.19,2.63-.37,3.95-.56.02.14.04.28.06.42Zm-1.8-.7c-2.8.61-5.6.7-8.39,0h8.39Zm-9.98-.95c1.49.13,2.97.26,4.46.39-.02.1-.05.2-.07.29-1.47-.11-2.95-.23-4.42-.34.01-.11.02-.23.04-.34Zm-.55.56h-4.04c1.31-.19,2.63-.67,4.04,0Zm-2.05-2.14v.18h-2.36c.01-.06.03-.12.04-.18h2.31Zm-1.4-.77c0,.1,0,.21,0,.31-1.28-.12-2.55-.24-3.83-.36,0-.05.01-.1.02-.16,1.27.07,2.54.13,3.82.2Zm-4.31-1.1c.89.11,1.77.26,2.65.39-.03.1-.05.21-.08.31-.86-.06-1.73-.11-2.59-.19-.14-.01-.26-.18-.39-.27.13-.08.28-.25.4-.24Zm-.49-3.09c-.73-.16-1.45-.32-2.18-.49.02-.09.04-.18.06-.27.79,0,1.62-.16,2.12.76Zm-1.39-1.35c-.03.07-.06.14-.09.21-.48-.12-1.21.33-1.42-.42.05-.11.1-.21.14-.32.46.18.92.35,1.37.53Zm-1.28-1.89q-1.53.19-2.2-.64c.81.28,1.66-.39,2.2.64Zm-.75-.92c-1.1.04-1.91.08-2.73.11,0-.1,0-.21,0-.31.83-.08,1.67-.47,2.73.2Zm-3.28-2c.84-.2,1.68-.52,2.69.26h-2.71c0-.09,0-.18.01-.26Zm-.05.61c-.84.08-1.52.67-2.32.19.72-.21,1.39-.91,2.32-.19Zm-1.03,1.18c-.66.21-1.15.37-1.7.55.11-.83.56-.98,1.7-.55Zm.32,1.85c-.81.21-1.49.39-2.18.57.59-.89,1.23-1.01,2.18-.57Zm-3.08.79c-.99.53-1.94,1.16-3.15,1.17-.02-.09-.04-.17-.05-.26,1.02-.41,2.04-.82,3.07-1.23.05.11.1.21.14.32Zm-4.7.35c.14-.78,1.73-1.44,2.55-1.12-.87.38-1.67.73-2.55,1.12Zm-1.5-2.47c1.57-1.1,3.58-1.3,5.31-2.07-1.5,1.23-3.45,1.57-5.31,2.07Zm3.98-3.06l.07.18c-1.04.35-2.09.7-3.13,1.05-.03-.08-.06-.16-.1-.23,1.05-.33,2.1-.66,3.16-.99Zm.9.32c.05.11.1.22.15.34-1.58.55-3.17,1.1-4.75,1.65-.05-.12-.1-.24-.16-.36,1.52-.69,3.15-1.13,4.76-1.63Zm-7.49,2.1c-.03-.06-.06-.12-.09-.18.89-.35,1.78-.7,2.68-1.05.04.09.08.18.13.28-.91.32-1.81.64-2.72.96Zm5.44.29c.05.1.1.2.15.3-1.32.51-2.63,1.02-3.95,1.54-.03-.07-.06-.14-.1-.2,1.07-1.02,2.55-1.19,3.9-1.63Zm-1.4,1.48c-.78.98-2.06,1.01-3.19,1.33.83-.87,2.04-1.04,3.19-1.33Zm-2.69,2.25c-.06.02-.27-.14-.25-.17.05-.13.13-.3.25-.35.73-.28,1.48-.53,2.35-.84-.03.27,0,.49-.07.51-.75.3-1.51.58-2.28.84Zm1.48.89c.86-.2,1.54-.98,2.55-.64-.83.29-1.49,1.09-2.55.64Zm1.05,2.16c.73-.2,1.46-.4,2.18-.6.03.13.06.25.09.38-.76.05-1.34.82-2.28.22Zm.89.6c.76-.26,1.32-.45,1.87-.63.04.11.08.22.12.33-.55.24-1,.78-1.99.3Zm1.36,5.18c1.01-.54,2.01-1.06,3.19-.95.03.07.06.15.08.22-1.09.24-2.18.48-3.28.72Zm4.04.32c-.11.9-.9.7-1.54,1.06.18-1.02.96-.78,1.54-1.06Zm-1.57,1.67c-.02-.1-.03-.2-.05-.3.59-.13,1.19-.26,1.78-.39.04.16.08.31.12.47-.62.07-1.23.15-1.85.22Zm1.05.25c.71-.1,1.42-.19,2.12-.29.02.12.04.23.06.35-.71.15-1.41.3-2.12.44-.02-.17-.05-.33-.07-.5Zm4.7.42c-1.11.17-2.21.34-3.32.5-.04-.09-.07-.19-.11-.28,1.11-.26,2.18-.86,3.43-.22Zm-3.33,2.34c0-.09,0-.19.01-.28,1.37-.32,2.69-1.07,4.21-.49-1.17.28-2.32.57-3.48.82-.23.05-.5-.03-.75-.05Zm1.81.42c1.89-.97,4.73-1.15,6.22-.62-2.07.21-4.15.42-6.22.62Zm2.94.13c2.06-.38,6.97-.93,8.17.07-2.82.8-5.5,1.22-8.17-.07Zm5.36,3.93c.82-1.07.76-1.3-.49-1.93-.45-.23-.9-.47-1.41-.74,1.77-.49,3.64.01,5.07-1.21.13-.11.73.13,1.02.33.12.08.08.56-.07.69-.44.39-.96.69-1.46,1.02-1.17.77-1.27,1.04-.85,2.24h-2.07c.14-.22.19-.32.26-.41Zm-.82,1.22c-.03-.06-.05-.12-.08-.18.26-.1.52-.27.78-.28,2.26-.12,5,.12,5.32.46h-6.03Zm9.28-.15h-2.67c0-.07,0-.15,0-.22h2.67v.22Zm-1.51-.8c.83-.19,1.65-.38,2.62-.61-.73,1.03-1.69.75-2.62.61Zm2.73.18c-.04-.13-.07-.26-.11-.39,1.21-.26,2.41-.53,3.62-.79.03.11.06.22.09.33-1.2.28-2.4.57-3.61.86Zm3.95-1.56c-2.58.13-5.09.51-7.53,1.29-.84.27-1.77.3-2.65.44-.06-.13-.13-.26-.19-.39.69-.46,1.32-1.09,2.09-1.33,1.93-.59,3.9-1.11,5.9-1.42,1.85-.29,3.61.25,5.23,1.11-.96.16-1.9.26-2.85.31Zm5.56-.39c-.74-.06-1.57.07-2.19-.2-2.3-.98-4.66-1.64-7.17-.95-2.34.64-5.03.63-6.71,2.67-.11.14-.48.25-.64.18-.22-.09-.5-.37-.47-.54.05-.33.21-.7.47-.92.49-.42,1.11-.71,1.64-1.1.97-.72.87-1.35-.25-1.84-.26-.11-.51-.23-.76-.35.03-.09.06-.17.09-.26,1.01,0,2.01-.03,3.02,0,1.03.04,2.07.26,3.08.2,2.45-.15,4.78.13,7.04,1.03-.56.92-.42,1.24.64,1.46.47.1.97.04,1.46.09.28.03.55.12.83.18-.02.11-.05.22-.07.33Zm.15-.73c.32-.26.62-.5.91-.74.5.21.97.41,1.59.68-.94.24-1.66.81-2.51.06Zm12.8-1.45c.33.56.2.91-.45,1.09-.99.28-2,.55-2.99.82-1.27.35-1.48.64-1.27,1.95-2.15.18-3.91-.68-5.8-1.35.88-.5,1.66-.79,2.67-.49.49.15,1.17,0,1.7-.18,1.21-.4,2.36-.93,3.57-1.35,1.12-.38,2.02-.87,1.86-2.07.22.5.41,1.06.71,1.56Zm.06-2.93c-.09,0-.19,0-.28,0-.22-.26-.44-.53-.72-.87.36-.26.7-.5,1.03-.73.07.04.14.08.22.12-.08.49-.17.99-.25,1.48Zm22.4-4.2c-1.79.89-3.56,1.81-5.36,2.68-.46.22-.98.41-1.49.44-3.06.17-6.12.37-9.18.41-2.02.03-4.02.06-5.94.76.06-.58.11-1.13.18-1.84.7-.05,1.4-.14,2.11-.15,3.26-.02,6.52.06,9.78-.05,1.46-.05,3.02-.21,4.34-.72,1.99-.78,3.82-1.91,5.73-2.9.45.49.65.96-.18,1.37Zm1.78-3.51c-.02,1.08,0,2.16,0,3.45-1.21-1.48-.57-2.99-.99-4.4.78.04,1.01.37.99.94Zm-1.35-.91c.07.78.13,1.55.2,2.33-.11,0-.23.02-.34.03-.08-.78-.17-1.57-.25-2.35.13,0,.27,0,.4,0Zm-1,1.86c.63.67.34,1.11-.28,1.42-1.61.82-3.24,1.63-4.87,2.41-.37.18-.81.31-1.23.34-2.06.14-4.13.29-6.2.35-2.6.07-5.21.05-7.81.06-.36,0-.73-.08-1.09-.12.13-.36.17-.8.43-1.06.19-.19.66-.2,1.01-.2,4,.03,8,.13,11.99.1,1.01,0,2.11-.28,3.02-.68,1.73-.77,3.35-1.73,5.03-2.62Zm-.96.25c-1.28.6-2.5,1.33-3.81,1.86-1.02.41-2.15.82-3.24.86-3.5.11-7,.05-10.5.03-.72,0-1.43-.13-2.18-.2.28-.77.7-1.06,1.56-.89.78.16,1.6.21,2.4.19,2.69-.06,5.39-.1,8.08-.31,1.35-.11,2.74-.43,3.99-.91,1.37-.52,2.6-1.33,3.86-2,.76.66.58,1.03-.15,1.37Zm-.5-2.29c.67.55.41.81-.21,1.07-.89.38-1.73.86-2.62,1.23-.94.39-1.9.94-2.89,1.02-3.27.27-6.56.38-9.85.49-.79.03-1.6-.15-2.59-.25.92-.74,1.55-1.34,2.73-1.23,1.85.17,3.72.23,5.57.16,2.7-.09,5.37-.36,7.76-1.7.64-.36,1.41-.54,2.09-.79Zm-.89-.16c-2.3,1.22-4.66,2.07-7.33,2.22-2.6.15-5.18.23-7.82-.12.61-.97.61-.97,1.68-.94.43.01.87.03,1.3.09,3.22.43,6.25-.51,9.32-1.09.99-.18,1.87-.33,2.86-.16Zm-1.62-2.82c-.69.98-1.42.27-2.02.44,0-.08-.02-.16-.03-.24.62-.06,1.24-.12,2.05-.2Zm-.85-.73c-.77.7-1.62.06-2.42.17,0-.11-.01-.22-.02-.33.8-.03,1.59-.06,2.39-.1.02.09.04.17.05.26Zm-.56-4.68c-.53.78-1.14.29-1.83.29.6-.82,1.2-.37,1.83-.29Zm-1.94-5.64c.11.02.21.09.31.14-.02.11-.04.23-.06.34-.41-.09-.83-.17-1.23-.29-.07-.02-.07-.23-.11-.35.36.05.73.09,1.09.16Zm-1.63-2.61c-1.18-.24-2.36-.48-3.63-.73.81-.43,2.94-.04,3.63.73Z" style="fill:#fff;"/></g><g style="opacity:.65;"><path d="m390.56,31.24s.01-.03.02-.04c-.05,0-.09,0-.14-.01.04.02.08.03.12.05Z" style="fill:#fff;"/><path d="m418.48,99.8c.59.19,1.18.38,1.78.57v-.56c-.58-.04-1.17-.09-1.76-.13,0,.04,0,.08-.01.12Z" style="fill:#fff;"/><path d="m366.52,96.48c-3.98-.19-7.98-.24-11.97-.37-1.5-.05-3.01-.04-4.48-.22-1.12-.14-2.22-.45-3.24-.82-.63-.23-1.24-.46-1.86-.7.23.23.44.43.67.66,2.35,1.07,5.03,1.37,7.84,1.42,4.24.08,8.49.22,12.73.34.53.02,1.07.09,1.59.2,1.57.32,1.94.91,1.28,1.96-.87,1.39-.59,1.9,1.41,2.48.8.23,1.64.4,2.45.64,1.8.52,2.33,1.24,2.13,2.6-.07.45-.04.91.06,1.36.18,0,.35-.02.52-.03-.1-.44-.16-.89-.1-1.33.22-1.51-.34-2.27-2.34-2.88-1.02-.31-2.09-.56-3.11-.87-.95-.29-1.33-.81-.78-1.47,1.66-2-.33-2.85-2.81-2.97Z" style="fill:#fff;"/><path d="m367.14,100.81c.18-.16.38-.31.57-.46,1.13-.95.86-1.68-.87-1.94-1.49-.23-3.04-.3-4.57-.39-4.35-.25-8.71-.41-13.05-.73-.45-.03-.9-.13-1.34-.25.2.16.4.32.6.48,1.54.31,3.15.44,4.82.49,4.03.14,8.05.34,12.08.52.17,0,.33.03.49.05,2.33.39,2.64.71.98,1.96-1.21.91-.93,1.66.74,2.13,1.46.41,2.97.71,4.47,1.05,1.32.29,2.02.85,1.87,1.86-.02.17-.03.33-.03.5.18,0,.35-.01.53-.02,0-1.96-.36-2.27-3.17-2.9-1.22-.27-2.46-.52-3.64-.86-1.17-.34-1.26-.77-.47-1.48Z" style="fill:#fff;"/><path d="m361.94,100c-1.14-.31-2.4-.45-3.63-.53-2.56-.18-5.22-.27-7.78-.44.22.16.44.32.67.46,2.94.15,5.97.31,8.9.5,1.5.09,2.67.56,3.32,1.59.29.45.27.72-.36,1.01-1.01.47-.96.84.19,1.09,1.73.39,3.52.67,5.27,1.03.75.15,1.5.34,2.21.58.79.26,1.3.5,1.62.78.22,0,.45,0,.67,0-.31-.38-.83-.68-1.68-.93-2.08-.62-4.32-.99-6.48-1.47-.62-.14-1.24-.28-2.05-.46,1.77-1.05,1.29-2.63-.87-3.22Z" style="fill:#fff;"/><path d="m355.12,101.17c-.45-.13-1.02-.15-1.52-.21.3.17.54.3.84.46.67.14,1.29.47,1.66.84.32.15.61.29.93.43-.37-.6-1.02-1.27-1.91-1.52Z" style="fill:#fff;"/><path d="m348.33,68.25c.07-.1.09-.22.18-.31.26-.25.51-.51.76-.77-.02-.21-.02-.43-.03-.65-.41.41-.78.84-1.14,1.27-.81.96-.52,1.43.97,1.96.18.06.37.12.55.18-.03-.14-.04-.29-.07-.43-.11-.04-.21-.07-.32-.1-.7-.16-1.36-.5-.9-1.16Z" style="fill:#fff;"/><path d="m336.52,50.13c-.05.13-.11.25-.16.38.47,0,1.02.02,1.48.04.62.02,1.24.21,2.22.38-.6.21-.84.29-1.25.44.52.11.86.18,1.19.25.03.08.06.16.09.25-.51.1-1.03.29-1.54.29-.56,0-1.17-.1-1.68-.27-.29-.09-.65-.22-.94-.28-.05.12-.1.27-.15.39.19.04.45.08.64.13,1.48.36,3.14.4,4.77.58.17.85-1.02.31-1.53.65.37.11.66.2.96.28-.97.83-2.34,1.11-3.72.52-.54-.23-1.13-.43-1.66-.56-.04.12-.08.26-.12.38.39.11.83.25,1.2.38,1.91.66,3.28.53,4.84-.49.27-.18.76-.21,1.26-.34-.21,2.12-4.86,3.22-7.97,2.84-.03.11-.06.23-.08.34.24.05.53.11.77.1,2.77-.1,5.48-.32,7.31-2.03.22-.21.91-.18,1.39-.27.08.07.15.14.23.21-.28.29-.52.59-.83.86-2.29,2.02-5.66,2.66-9.08,3.18-.06,0-.15,0-.21.02-.02.12-.04.24-.06.36,2.08-.28,4.12-.69,6.04-1.32,1.3-.42,2.37-1.21,3.45-1.89.62-.39,1.17-.59,2.18-.23-.49.44-.91.87-1.42,1.25-2.18,1.62-5.01,2.41-8.11,2.9-.77.12-1.54.23-2.31.33-.02.11-.03.23-.05.35,4.21-.5,8.25-1.27,11.3-3.65.32-.25,1.03-.28,1.87-.49-.19.48-.2.71-.36.88-1.21,1.27-2.62,2.51-4.83,2.91-2.67.48-5.37.87-8.09,1.23-.02.16-.03.32-.05.48,2.02-.24,4-.56,6.01-.9,3-.5,5.33-1.49,7.04-3.2.32-.32.56-.67.94-1.14.18.22.44.39.45.57.06,1.01-.22,1.99-1.4,2.68-.9.53-1.27,1.01-.05,1.82-1.52.11-2.74.15-3.94.29-2.98.34-5.95.71-8.92,1.1-.09.01-.15,0-.24.02,0,.11-.01.22-.02.33,1.19-.14,2.35-.29,3.54-.51,2.19-.39,4.51-.46,6.77-.67.49-.05,1-.05,1.49-.11,1.82-.22,1.92-.37.98-1.41.56-.48,1.22-.92,1.64-1.44.4-.5.55-1.1.84-1.73h.92c0,.93-.12,1.81.02,2.66.03.17.04.33.06.49.09-.45.21-.88.32-1.33,0-.67-.01-1.34-.01-1.99-.54-.24-1.24-.48-1.8-.82-1.11-.69-2.15-1.43-3.2-2.16-1.06-.75-2.28-1.43-3.09-2.29-.86-.9-1.92-1.52-3.28-2-.01-.71-.7-1.05-1.65-.97-.04.09-.08.16-.12.26.4.07.89.14,1.27.21.01.09.02.17.04.26-.37.07-.74.2-1.12.21-.13,0-.35-.02-.48-.02Z" style="fill:#fff;"/><path d="m386.33,103.65c-1.54.36-3.03.76-4.38,1.31,1.53-.32,2.94-.75,4.38-1.31Z" style="fill:#fff;"/><path d="m397.86,64.47c.21.02,0-.7.64-.63.63.07,1.91,1.66,2.44,1.97-.8-.11-2.26-.27-3.06-.33,0,.13-.02.27-.02.4.54.05,1.08.11,1.61.2.53.09,1.04.26,1.59.4-.12.14-.19.22-.2.22-1.01-.27-2.02-.4-3.02-.45,0,.12-.01.24-.02.36,1.88,0,3.47.69,5.08,1.32-.23,0-.48.02-.69-.03-1.48-.37-2.96-.57-4.42-.64-.01.12,0,.25-.02.37,1.56.09,3.1.37,4.65.57-.01.09-.02.18-.03.27-.45,0-.91.05-1.35,0-1.13-.14-2.25-.21-3.36-.23-.01.12-.04.23-.05.34.54.01,2.16.09,2.74.13-.56.08-2.27.49-2.84.57-.04.23,0,.08-.05.3,1.37-.2,2.76-.06,4.15.19-1.4.06-2.85.32-4.25.38-.02.12,0,.03-.03.16.9-.06,2.48-.1,3.39-.16-.94.27-2.59.63-3.54.77-.03.14-.04.14-.07.27,1.94-.08,3.89-.16,6.06-.24-1.32.65-4.88,2.26-6.54,1.9-.47,1.79,1.94.3-1.02,2.26.63-.86,5.13.06,3.36.88.02.08-3.27.75-3.26.84-.09,0-.68-.01-.77,0-.14.26-.3.49-.45.74.81,0,2.61-.05,3.44-.05-.43.45-2.56,1.4-4.21,1.28-.23.38,0,.02-.26.39.86.08,2.59.11,3.45.3-.97.02-3.11.53-4.08.56-.15.21,0,0-.16.2,1.06-.05,2.13-.11,3.23-.17-.29.57-1.25.95-3.68.74-.14.17-.07.07-.21.24.97,0,2.41,0,3.39,0-.01.07-.03.16-.04.23-1.02,0-2.82.32-3.84.32-.19.21-.07.08-.27.29,1.4-.04,2.79-.09,4.19-.13.02.16.03.32.05.48-.98.28-2.03.02-3.06,0-.5-.01-1.12.12-1.62.12-.1.11-.08.09-.19.19.62,0,2.22.05,2.84.05-.21.22-2.8.46-3.54.55-.25.23.02.03-.23.25,1.78,0,3.37.16,5.16.16.01.08.03.17.04.25-1.12.17-3.83.43-6.19.4-.37.3-.33.25-.71.53,2.5-.14,4.89-.63,7.38.14-2.51,0-5.11.03-7.61.03-.19.14-.29.21-.49.34.95.06,1.92.18,2.88.25,0,.05,0,.09,0,.14-1.06-.03-2.89.34-3.95.3-.61.29-.05.02-.7.37,1.72,0,2.98.38,4.7.38,0,.15,0,.3,0,.44-1.8-.11-4.21-.03-6-.14-.61.32-.37.16-.98.47,2.31.16,4.39.56,6.84.73-.87.27-5.25.06-7.95-.29-2.69,1.03-2.86,2.97-5.92,2.97-1.05,0-1.97.89-2.98.76.83.16-1.76-.92-.92-.76-.66,0-1.83-.94.58-.78-1.2-.21-3.01-.51-4.21-.72.04-.09.55-.22.59-.32-1.56-.32-2.9-.69-4.36-1.18.07.08.13.23.22.34-3.55.35-7.01.26-10.49.12-3.57-.15-6.75-1-9.83-2.23,1.33-.17,2.51-.02,3.83.17,4.11.58,8.18,1.53,12.5,1.09.57-.06,1.16-.08,1.74-.09.17,0,.29-.05.42-.06-.27-.12-.4-.18-.67-.32-4.85.73-9.53-.49-14.35-.91,2.24-1.19,4.43-.55,6.6-.37,1.44.12,2.89.3,4.32.26.69-.02,1.31.05,1.88.18-1.3-.79-4.49-3.12-5.79-4.08-3.07-2.27-4.81-6-6.6-7.44-3.48-2.8,1.06-2.23,1.11-3.66-.28.18-.39.25-.67.43-.97-1.36-1.85-2.7-2.88-3.98-.76-.94-.28-1.6.68-2.24.38-.26.8-.5,1.24-.71.49-.24.89-.52,1.2-.84.02-.33.02-.66.06-.99-.37.76-1.08,1.43-2.3,2-.76.35-1.27.94-1.91,1.44-1-.59-2.21-1.14-3.08-1.88-.66-.56-1.3-.72-2.23-.61-1.5.18-3.04.29-4.5.57-.6.12-1.03.62-1.56.93-.16.1-.36.24-.53.35,0,.06,0,.11,0,.17-.04,1.61.06,3.21.23,4.77.15-.04.34-.08.49-.12,1.76-.46,3.61-.78,5.45-1.1.44-.07,1.02.09,1.47.23,1.09.33,2.1.78,3.21,1.05.75.18.88.44.91.92.04.71.08,1.48.47,2.12.26.44,1.12.71,1.57.98-.32.63-.06,2.19.55,2.02,2.45-.69.09,1.94-.2,2.83-.19.58-3.02.26-3.79.23-2.77-.13-5.32.39-7.59,1.26.05.11.09.24.14.35,2.37-.93,5.08-1.45,8.19-1.2-.86,1.71-1.62,3.38-2.58,5.01-.23.4-1.01.75-1.66.91-.5.12-1.05.28-1.45.42.08.13.15.26.23.39.2-.08.56-.15.91-.17-.13.34-.25.84-.27,1.2.16.25.31.48.47.73.07-.59.21-1.3.27-1.89.18,0,.36,0,.53,0-.11.77-.28,1.72-.39,2.5.23.32.35.51.59.83,2.37.94,4.81,1.94,7.3,2.67,1.77.52,3.86.68,5.82.73,4.37.11,8.74.03,13.11.05.94,0,1.89.09,2.83.15.1.72.17,1.27.25,1.85-2.57-.7-5.25-.73-7.96-.76-4.11-.04-8.21-.24-12.31-.42-.68-.03-1.39-.22-2-.44-1.83-.66-3.82-1.34-5.63-2.02.18.21.35.42.53.63,1.31.54,2.85,1.04,4.25,1.46,2,.6,4.29.92,6.48,1.02,4.27.2,8.57.12,12.85.24,1.13.03,2.28.3,3.36.58,1.45.38,1.73,1.01,1.07,1.97-1.02,1.48-.79,1.85,1.52,2.32,1.07.22,2.18.36,3.24.58.85.18,1.53.45,1.14,1.22-.32.63.46.78,1.06.74,1.23-.08,2.46-.24,3.66-.45.96-.17,1.91-.4,2.79-.72,1.27-.46,2.37-.33,3.58.29-1.35.38-2.62.75-3.91,1.09-2.44.65-4.62,1.81-6.33,3.17.21-.02.43-.07.64-.09,2.73-1.92,6.48-2.92,10.03-3.9.52-.14,1.98-.41,2.64-.3.81-.42.41-.22,1.33-.73-.26-.03-.05-.3-.32-.34.52-.21,1.05-.39,1.59-.55.54-.37,1.49-.53,2.65-.72-1.63.2-3.36.48-4.93.98-.84.27-1.95.15-2.94.2-.03-.11-.06-.22-.1-.33.37-.06.74-.16,1.11-.18.65-.05,1.33,0,1.96-.09,1.43-.22,1.61-.55.86-1.47,3.03-.9,6.16-1.19,9.44-1.04,1.37.06,2.76-.16,4.14-.2,1.35-.04,2.7,0,4.05,0,.04.09.08.18.12.26-.34.12-.68.24-1.02.35-1.5.49-1.63,1.12-.34,1.85.7.39,1.53.69,2.2,1.11.35.22.56.6.63.93.03.17-.35.45-.64.54-.21.06-.7-.04-.86-.18-2.25-2.06-5.86-2.04-9-2.69-1.04-.22-2.4-.09-3.41-.07.52.07.98.18,1.48.36,2.59.32,5.44.7,7.93,1.27,1.04.24,1.88.88,2.81,1.34-.09.13-.17.26-.26.4-1.19-.14-2.43-.17-3.56-.44-1.48-.35-3.1-.61-4.62-.82.08.11.17.22.25.34,1.12.2,2.24.39,3.23.57-.98.12-1.98.5-2.85.07.27.6.44,1,.66,1.72.21.02.49.07.68.09.05.6.24,1.18.12,1.73-.02.1-.13.96-.16,1.06h.54c.03-.24.13-1.24.03-1.51-.31-.87.05-1.08,1.42-.99.41.03.82.03,1.26.05.21.65-.23,1.95-.58,2.46h.57c.25-.48.57-1.74.83-2.39,2.16.14,4.46.28,6.77.42.01.06.03.12.04.19-.84.16-1.72.27-2.52.5-.5.14-1.07.31-1.48.53h8.72v-2.89c-.6-.03-1.19-.05-1.79-.08.23-.38.53-.46,1.79-.2v-.39c-.48-.07-.97-.16-1.49-.3.49-.24.98-.42,1.49-.56v-.34c-.63.21-1.22.53-1.88.71-.56.15-1.42.33-1.79.15-.59-.28-.88-.85-1.28-1.3-.03-.04.07-.18.15-.22,1.31-.48,2.63-1.34,3.93-1.33.29,0,.57.03.86.05v-.39c-.08-.01-.15-.02-.22-.03.08-.02.15-.04.22-.06v-.36c-2.77.45-5.58.07-8.5-.56,1.23-.77,5.38-.63,8.5-.34v-.33c-.65-.05-1.3-.1-1.96-.15.54-.14,1.21-.23,1.96-.27v-1.33h-1.45c0-.11,0-.22,0-.33h1.45v-.69h-5.74c0-.07,0-.15,0-.22,1.91-.34,3.83-.31,5.75-.21v-.8c-3.23.59-6.16.19-9.08-.16,0-.09.01-.17.02-.26,2.92.09,5.86.17,9.07.27v-.3h-3.21c1.07-.28,2.14-.4,3.21-.46v-.57c-2.24.08-4.49-.2-6.73-.45h6.73v-1.55h-2.01c.64-.21,1.34-.34,2.01-.41v-4.81c-.32-.02-.63-.04-.92,0,.26-.25.58-.37.92-.46v-.65c-.79.13-1.59.27-2.38.4.57-.79,1.47-.79,2.38-.77v-.39c-.14,0-.27,0-.39.02-.04-.07-.08-.14-.13-.21.17-.05.34-.1.51-.15v-.64c-.58.14-1.32.01-1.89.18-.05-.09-.11-.19-.16-.28.68-.18,1.37-.37,2.05-.55v-3.15c-.07,0-.15.02-.22.03.07-.11.15-.19.22-.27v-3.74c-.24.03-.48.07-.72.09-1.55.16-2.57-.07-3.06-1.07-.97-1.97-1.94-3.93-3.58-5.7-.35-.38-.71-.83-.72-1.25-.02-.57-.44-.79-1.1-.84-.65-.05-1.32.02-1.97.07-.73.05-3.74-.85-3.78-1.27-.08-1.09-1.48-.88-2.3-1.23-.34-.14-1.05-.2-1.07-.33-.11-.82-1.47.57-2.21.45-.44-.08-.53-1.34-.9-1.46.2,1.25.32,1.84.39,3.13Zm-64.14,5.45c1.26-1.55,3.09-1.03,4.69-1.08.03.09.07.18.1.27-1.52.26-3.04.52-4.79.81Zm1.14-4.23c-.06-.1-.12-.19-.17-.29,1.5-.45,3.01-.9,4.51-1.35.05.08.1.16.16.25-1.5.47-3,.93-4.49,1.39Zm11.3,7.63c-1.03-.71-.49-1.6-.46-2.42,1,.73.35,1.61.46,2.42Zm2.62,11.1c-.02-.1-.03-.2-.05-.29,1.02-.08,2.04-.17,3.05-.25.02.1.03.2.05.3-1.02.08-2.04.16-3.05.24Zm11.22,1.02c-.02.08-.04.16-.05.24-2.49-.19-4.97-.39-7.53-.59,1.48-1.32,4.2-.88,7.58.34Zm-8.9-3.92c.02-.11.04-.21.05-.32.81.06,1.63.12,2.44.18-.84.3-1.67.54-2.49.14Zm.91-1.57c-.97-.04-1.93.46-2.9,0,0-.1,0-.19,0-.28h2.9c0,.1,0,.19,0,.29Zm-.69-1.82c-.93,0-1.76.49-2.46-.3.86-.07,1.65-.53,2.46.3Zm-3.14,4.16c1.07.03,2.13.06,3.2.1,0,.11-.02.22-.02.33-1.08-.1-2.21.54-3.25-.17.02-.09.05-.17.07-.26Zm1.55,1.2c-.01.08-.03.16-.04.24-.81-.17-1.79.55-2.72-.44,1.09.08,1.92.14,2.75.2Zm50.82-14.31c.03-.1.05-.2.08-.3,1.29.18,2.58.36,3.87.54-.02.09-.05.17-.07.26-1.29-.17-2.59-.33-3.88-.5Zm.22,1.45c2.74-.67,3.68-.65,4.28.19-1.45-.07-2.81-.13-4.28-.19Zm13.64,14.11c-1.01.12-2.02.24-3.17.38.97-.81,1.35-.88,3.1-.64.02.08.05.17.07.25Zm-.02-2.61c.2-1.09,1.38-.68,2.13-.93.05.08.11.16.16.24-.76.23-1.52.46-2.28.69Zm-6.21,6.88c0-.06,0-.12,0-.18h3.1c.02.06.04.12.06.18h-3.15Zm2.65,1.98h-5.41c1.89-.67,3.65-.19,5.41,0Zm-1.89-2.78h-4.33s0-.09,0-.13h4.36s-.01.09-.02.13Zm-22.74,9.83c-1.04-.35-2.94.24-3.71.99-1.56-.65-3.03-1.27-4.68-1.96,2.15-.16,4.13-.19,6.03-.49,1.86-.3,3.3.21,5.01.64-.81.58-1.17,1.33-2.65.83Zm.21.59c-1.02.17-1.9.92-3.08.38-.03-.1-.06-.21-.08-.31,1.03-.14,2.05-.29,3.08-.43.03.12.06.24.08.36Zm-5.84-5.02h3.7c0,.06.01.12.02.19-1.25.07-2.5.15-3.75.22,0-.14.02-.27.02-.41Zm-2.74-.55c0-.1,0-.2-.01-.3h3.84c-1.35.63-2.61.25-3.83.3Zm12.78,1.3c-1.91.48-3.73-.28-5.62-.18,1.91-.54,3.76-.19,5.62.18Zm-1.89-.62c1.01-.52,1.27-.51,4.52.1-.01.07-.02.15-.03.22-1.43-.1-2.87-.2-4.49-.32Zm-7.72.89c2.59-.39,5.12.04,7.69.37-2.59.35-5.12-.23-7.69-.37Zm5.88.91c-1.64.63-3.34.47-4.9-.41,1.71.14,3.2.27,4.9.41Zm1.32-2.14c-2.02-.06-4.04-.13-6.06-.19,0-.08,0-.16,0-.23,2.04-.63,4.05.05,6.08.1,0,.11-.01.22-.02.32Zm-4.51,2.74c-.01.07-.03.14-.04.21-2.12.11-4.24.22-6.62.34.94-.3,1.61-.52,2.52-.81-.58-.31-.91-.49-1.25-.68,2.15-.59,3.59.62,5.39.94Zm2.83.09c0-.1-.01-.2-.02-.3,1.4-.06,2.81-.12,4.41-.19-1.4,1.72-2.93.85-4.39.5Zm2.75-.79c.02-.08.03-.16.05-.23,1.34-.37,2.57.1,3.85.23-.01.08-.02.16-.03.24-1.29-.08-2.58-.16-3.87-.23Zm1.93-.46c.01-.16.02-.31.03-.47,2.62.14,5.24.28,7.86.41,0,.11.01.22.02.33-2.64-.09-5.28-.18-7.92-.28Zm3.28-.59c0-.08,0-.16.01-.24h13.27c0,.07,0,.14,0,.21-4.43.47-8.85.17-13.28.03Zm-3.03-1.38h9.35c0,.08,0,.16,0,.23-3.13.69-6.26.34-9.35-.23Zm3.71-.28c4.55-.7,9.1-.49,13.66-.24,0,.08,0,.16,0,.24h-13.66Zm-3.86-1.34h11.25c-3.73.7-7.49.62-11.25,0Zm17.16-8.02c.04.18.08.35.12.53-3.93.5-7.91.81-11.88,1.1l-.07-.31c3.94-.44,7.89-.88,11.83-1.32Zm-8.6,0c2-.26,4-.51,6-.77.03.13.07.26.1.39-2.01.22-4.02.45-6.03.67-.03-.1-.05-.19-.08-.29Zm4.46,1.75c0-.08-.02-.15-.02-.23,2.2-.18,4.4-.36,6.6-.54.02.09.03.18.05.27-2.06.96-4.44.21-6.62.5Zm8.34.15c-.3.71-.77.77-4.23.43,1.38-.14,2.77-.28,4.23-.43Zm-6.14-2.07c1.16-.88,2.71-.56,4.32-.7-1.27,1.13-2.93.5-4.32.7Zm1.05,2.25c-1.35.14-2.76.85-4.4,0h4.4Zm-2.82,1.63c0,.08.02.16.03.24-2.18.07-4.35.14-6.53.21,2.17-.15,4.34-.3,6.5-.45Zm-5.96,4.03c-.03-.1-.06-.2-.09-.3,1.99-.13,3.99-.26,5.98-.39.02.11.03.23.05.34-1.98.12-3.95.23-5.93.35Zm8.02-3.62c1.57-.09,2.85-.17,4.14-.24,0,.08.01.16.02.24h-4.16Zm-.28-1.19h6.68c-1.22.67-5.82.6-6.68,0Zm9.29.64c.16-.01.35.15.53.24-.17.09-.33.26-.52.27-1.15.08-2.31.13-3.47.2-.03-.1-.07-.21-.1-.31,1.19-.14,2.37-.28,3.56-.39Zm-6.75-2.84c.99-.85,2.42-.53,3.92-.76-1.12,1.2-2.71.5-3.92.76Zm-.52-1.95c-.03-.07-.05-.14-.08-.21,1.02-.17,2.03-.34,3.24-.55-.15.88-.5.94-3.17.76Zm-2.55-.79c-.02-.12-.05-.25-.07-.37,1.59-.14,3.17-.28,4.76-.41.02.09.04.18.07.27-1.44.7-3.14.44-4.75.52Zm-9.49.06c3.94-.57,7.88-1.14,11.82-1.71.04.12.07.23.11.35-3.9.66-7.81,1.28-11.92,1.35Zm7.06-1.51c1.78-.31,3.4-1.35,5.42-.48-1.81.16-3.61.32-5.42.48Zm3.88-1.69c.03.14.06.29.09.43-3.4,0-6.43,1.41-9.93,1.07,3.32-.37,6.46-1.38,9.84-1.51Zm-9.27-.22c2.23-.33,4.46-.66,6.68-.99-2.03.86-4.21,1.31-6.58,1.29-.03-.1-.07-.2-.1-.29Zm6.05-5.21c1.52.15,2.76.28,4.24.43-1.93.5-3.19.4-4.24-.43Zm3.43-1.21c-.02.1-.03.2-.05.3-1.22-.09-2.44-.18-3.67-.27.01-.11.03-.21.04-.32,1.22.09,2.45.19,3.67.29Zm-1.84-3.45c.77-.55,2.44-.21,3.2.78-1.25-.3-2.21-.53-3.2-.78Zm-4.91,3.76c1.62.05,3.25.1,4.87.16,0,.07-.01.15-.02.22h-4.87c0-.13,0-.25.01-.38Zm-5.25,5.47c-.01-.08-.03-.16-.04-.25,1.37-.62,2.93-.23,4.39-.35.02.09.03.18.05.26-1.46.11-2.93.22-4.39.33Zm2.93,2.85c.85-.11,1.72-.12,2.58-.18.02.07.05.15.07.22-1.56.22-3.12.45-4.67.68-.06-.14-.12-.29-.18-.43.52-.61,1.48-.19,2.21-.28Zm-2.5,1.76c2.96-.31,5.91-.61,8.87-.91-2.88.78-5.79,1.42-8.98,1.29.05-.18.05-.38.1-.38Zm11.83-.4c.04.09.09.18.13.27-.32.15-.62.4-.97.44-3.73.41-7.48.78-11.22,1.16-.04-.14-.08-.28-.11-.43,4.06-.48,8.12-.96,12.18-1.43Zm-9.3,4.01c0,.06,0,.13,0,.19h-4.77c0-.06,0-.13,0-.19h4.77Zm-9.96.46h13.1c-4.39.56-8.74.64-13.1,0Zm.68,1.72c-.18,0-.35-.11-.66-.22h9.39c-.89.13-1.77.37-2.65.38-2.03.01-4.06-.09-6.08-.16Zm.53,1.36h5.02l-.02.23c-1.67-.06-3.34-.12-5.01-.18,0-.02,0-.04.01-.06Zm-.91,2.54c1.77.19,3.53.38,5.3.56,0,.1,0,.21,0,.31-1.79-.15-3.58-.3-5.38-.45.03-.14.05-.28.08-.42Zm1.57.94c-.03.1-.05.2-.08.31-1.03-.08-2.06-.16-3.09-.25-1.02-.09-2.04-.2-3.34-.32,2.43-.53,4.46-.07,6.51.27Zm-4.51-1.12c-2.44.05-4.89.32-7.24-.58,2.41.08,4.81.15,7.22.23,0,.12.01.23.02.35Zm-4.77-.83c-.91-.04-1.81-.08-2.72-.12,1-.89,1.82-.09,2.72.12Zm-4.74,1.01c2.06.15,4.12.29,6.19.44l-.04.28c-2.04-.28-4.21.35-6.19-.41.01-.1.03-.21.04-.31Zm3.4,1.99c-1.13.39-2.36.21-3.84.27,1.34-.8,2.61-.39,3.84-.27Zm-1.13.63c0,.06,0,.12,0,.17h-3.45c0-.06,0-.12,0-.17h3.45Zm-4.2.69c1.35.18,2.67.45,4,.69-.02.13-.04.26-.06.39-1.45.02-2.9.05-4.34.02-.15,0-.46-.39-.39-.51.16-.24.58-.62.79-.6Zm-1.98,1.61c2.05,1.59,4.93,1.51,7.41,2.12.79.19,1.5.55,2.24.84-.04.11-.07.22-.11.33-.89-.06-1.85,0-2.67-.2-1.75-.42-3.42-.98-5.13-1.46-.97-.28-1.95-.52-1.74-1.62Zm-29.02-10.29c.91.25,1.93.44,2.8.8,3.21,1.34,6.79,1.62,10.41,1.71,2.49.06,5,0,7.47-.17,1.59-.11,2.43.5,3.67,1.24-1.33.1-2.41.28-3.47.25-4.41-.12-8.82-.23-13.21-.5-1.33-.08-2.61-.63-3.88-1.02-1.2-.38-2.32-.86-3.51-1.24-.83-.26-1.17-.52-.28-1.08Zm-.87.92c1.69.67,3.34,1.49,5.18,2.01,1.68.48,3.54.81,5.35.92,3.6.21,7.22.25,10.83.32,1.07.02,2.17-.03,3.22-.19,1.16-.18,1.72.12,2.1.89-1,.07-1.96.19-2.92.2-4.7.02-9.39.08-14.09-.02-1.47-.03-2.98-.45-4.35-.86-1.76-.53-3.4-1.27-5.12-1.88-.98-.34-1.23-.72-.2-1.38Zm26.27,5.74c-3.49,0-6.99.01-10.48-.06-2.77-.05-5.55-.21-8.31-.35-.56-.03-1.15-.17-1.65-.35-2.19-.79-4.37-1.6-6.54-2.43-.82-.32-1.22-.76-.37-1.43,2.25.89,4.43,1.86,6.75,2.64,1.23.41,2.69.68,4.05.69,5.36.03,10.72-.07,16.09-.1.46,0,1.1.01,1.35.2.34.26.4.7.57,1.07-.49.04-.97.12-1.46.12Zm1.95,2.2c-.11-.5-.22-.99-.34-1.49.1-.04.19-.08.29-.12.45.24.9.48,1.39.74-.38.34-.67.61-.96.88-.13,0-.25,0-.38,0Zm6.4,6.84c.29-1.32.01-1.61-1.7-1.97-1.34-.28-2.68-.54-4.02-.83-.87-.19-1.05-.53-.61-1.1.4-.51.65-1.07.95-1.57-.21,1.21,1,1.7,2.5,2.08,1.62.42,3.16.95,4.79,1.36.71.18,1.61.33,2.27.18,1.36-.31,2.41-.01,3.58.5-2.53.67-4.89,1.53-7.78,1.36Zm7.49-2.49c.84-.27,1.46-.47,2.14-.68.4.24.79.48,1.23.74-1.13.75-2.11.18-3.36-.06Zm2.77-.88s.01-.06.04-.07c.54-.34,1.09-.69,1.67-1.06.56.24,1.1.48,1.66.73-2.32,1.28-2.34,1.28-3.37.41Zm4.76.51c-.87.15-1.66.29-2.65.47.99-1.07,1.86-1.24,2.65-.47Zm-.32-1.27c-.7.1-1.54-.3-2.57-.53,1.31-.97,2.37-1.37,4.01-1.12,2.01.3,4.1.37,5.24.46-1.65.3-4.14.82-6.68,1.18Zm13.83-1.41c-3.69-.1-7.37-.24-11.06-.38-.32-.01-.63-.12-.94-.19.01-.07.02-.14.03-.21,4.46.1,8.92.19,13.38.29l.08.17c-.5.11-1.01.34-1.5.32Zm-3.09,6.43v-.22h3.59c0,.07,0,.15,0,.22h-3.58Zm13.82,1.72c-1.85-.12-3.7-.25-5.56-.37,0,0,0-.02,0-.03h5.59c-.01.13-.03.27-.04.4Zm-.38-1.08s0,.09,0,.14h-10.45s0-.09.01-.14h10.44Zm-.89-.67c-.03.06-.07.12-.1.18h-8.08c.43-.35,4.11-.59,7.14-.47.36.01.7.19,1.05.28Zm1.34-3.73c-.68.27-1.28.51-1.88.74-1.67.63-1.75.86-.66,1.94.09.09.16.19.34.41h-2.78c.57-1.21.42-1.48-1.14-2.26-.67-.33-1.37-.64-1.96-1.03-.2-.13-.24-.62-.09-.7.39-.2,1.19-.44,1.37-.33,1.91,1.23,4.43.73,6.8,1.22Zm-8.8-2.46c0-.12-.01-.24-.02-.35,1.14-.06,2.28-.13,3.42-.19.02.13.03.27.05.4-1.15.05-2.3.09-3.45.14Zm-7.91-1.3c4.02-.54,8.69-.36,11.45.05-1.2.41-7.46.38-11.45-.05Zm12.04,1.36c0-.05,0-.1-.01-.16,1.36-.05,2.73-.09,4.09-.14,0,.1.01.19.02.29h-4.1Zm6.61-.99c0,.08,0,.16,0,.23h-6.48v-.23h6.48Zm-2.54-.8c-.05.1-.09.2-.14.3-2.5-.14-5-.28-7.5-.42,2.62-.73,5.09.14,7.64.12Zm-3.21-1.17c-.02.08-.05.16-.07.24-3.78-.12-7.57-.23-11.35-.35,3.83-.82,7.62-.25,11.42.11Zm2.48-1.67c-.02.1-.04.2-.07.3-3.91-.16-7.82-.32-11.73-.48,0-.08-.01-.16-.02-.25,1.26-.05,2.52-.17,3.78-.15,1.37.02,2.73.15,4.09.25,1.32.1,2.63.21,3.95.31Zm-5.29-3.74c0-.1,0-.21,0-.31,1.71-.07,3.41-.13,5.12-.2,0,.05.02.1.03.16-1.71.12-3.42.24-5.14.36Zm7.85.31c-1.19.57-2.35.47-3.74,0h3.74Zm-.11-6.52c.05.1.1.21.15.31-.92.18-1.83.36-3.01.59.77-1.06,1.91-.79,2.86-.9Zm.09-2.08c.08.14.16.28.23.42-.72.17-1.45.34-2.17.52-.08-.12-.16-.23-.23-.35.72-.2,1.45-.39,2.17-.59Zm-.84-.41c-.71.14-1.41.28-2.12.41-.06-.11-.11-.22-.17-.32.69-.18,1.39-.36,2.08-.54.07.15.14.3.21.45Zm-1.01-1.36c-.62.83-.81.88-2.54.81-.03-.09-.05-.17-.08-.26.81-.17,1.61-.34,2.62-.55Zm-1.08-.47c-.86.2-1.72.4-2.57.6-.07-.12-.13-.24-.2-.36.85-.21,1.69-.43,2.54-.64.08.13.15.27.23.4Zm-1.09-.81c-.97.19-1.94.37-2.91.56-.05-.12-.11-.25-.16-.37.97-.19,1.94-.37,2.91-.56.05.12.11.25.16.37Zm-1.26-1.13c.02.12.05.25.07.37-1.18.2-2.36.4-3.54.6-.05-.14-.1-.28-.15-.42,1.21-.18,2.42-.36,3.63-.55Zm-2.41-9.81c-.51-.08-.86-.13-1.21-.19-.34-.07-.68-.15-1.06-.24,1.35-.39,1.93-.3,2.28.43Zm-1.35.55c-.07.1-.15.19-.22.29-.75-.2-1.75-.11-2.13-1.06.92.3,1.64.54,2.35.77Zm-2.92.56c-1.49-.4-3.16-.51-4.36-1.37,1.63.18,3.2.45,4.62.99-.08.12-.17.25-.25.37Zm-.9-2.09c-.93-.19-1.86-.39-2.99-.62,1.47-.55,2.22.05,2.99.62Zm-1.91-1.32c-1.25-.25-2.51-.49-3.93-.77,1.05-.37,2.96-.01,3.93.77Zm-1.12.17c-1.28.44-2.06.3-2.95-.61,1.1.23,1.97.41,2.95.61Z" style="fill:#fff;"/></g><g style="opacity:.65;"><path d="m525.37,106.31s.01-.03.02-.04c-.05,0-.1,0-.14-.01.04.02.08.03.12.05Z" style="fill:#fff;"/><path d="m541.36,60.49v.36c2.68.24,5.35.59,8.03.96,2.75.38,5.46.56,8.27.72v-.44c-2.51-.14-4.91-.31-7.41-.51-2.98-.25-5.91-.75-8.88-1.09Z" style="fill:#fff;"/><path d="m545.37,55.93c-1.33-.19-2.64-.36-3.98-.47v.37c1.5.12,2.97.27,4.45.51,3.95.65,7.84,1.04,11.84,1.29v-.29c-.3-.02-.52-.02-.82-.04-3.86-.22-7.69-.82-11.49-1.37Z" style="fill:#fff;"/><path d="m487,65.18c-.17,0-.36.01-.5-.04-1.32-.47-2.65-.94-4.02-1.43v.38c.53.17,1.05.38,1.56.68,1.53.89,3.51.83,5.4.87,2.22.04,4.45,0,6.67.06.49.01,1.08.09,1.57.17,0-.12,0-.23,0-.35-1.48-.1-3.04-.2-4.52-.25-2.05-.07-4.1-.06-6.16-.09Z" style="fill:#fff;"/><path d="m557.77,43.44v-.32c-2.13-.03-4.25-.14-6.3-.72-.19-.05-.45,0-.68.02-.02.09-.05.18-.07.27,1.61.24,3.2.6,4.83.68.74.04,1.48.05,2.23.07Z" style="fill:#fff;"/><path d="m544.61,57.18c-1.08-.1-2.14-.22-3.23-.31v.33c3.19.26,6.35.65,9.53,1.04,2.26.28,4.46.45,6.76.59v-.29c-.38-.02-.67-.03-1.05-.05-4.03-.25-7.99-.94-12.01-1.31Z" style="fill:#fff;"/><path d="m550.4,79.82c-.49-.03-1.01.02-1.5.08-1.76.2-1.77.21-1.19,1.32.27.53-.08.84-.77.97-1.01.18-2.03.35-3.06.42-2.27.16-4.51.17-6.74-.07-.08.1-.15.21-.24.31,3.03.26,6.05.33,9.07-.12,2.45-.36,2.74-.75,1.79-2.33,2.86-.45,5.6-.19,8.36-.01.05,0,.13,0,.18,0l.07-.23c-1.98-.12-3.98-.23-5.96-.34Z" style="fill:#fff;"/><path d="m542.35,59.32c-.33-.04-.65-.07-.99-.11v.42c2.37.21,4.73.51,7.1.81,3.06.39,6.08.62,9.2.8v-.28c-1.93-.12-3.76-.26-5.69-.42-3.23-.28-6.41-.84-9.62-1.22Z" style="fill:#fff;"/><path d="m542.73,58.18c-.45-.04-.9-.06-1.35-.1v.39c2.97.25,5.92.6,8.89.92,2.48.27,4.89.45,7.41.6v-.33c-1.18-.05-2.26-.1-3.44-.16-3.86-.22-7.65-.96-11.5-1.33Z" style="fill:#fff;"/><path d="m482.5,59.75c.1-.15.2-.31.31-.47.93.81.94,1.14-.31,1.51v.74c1.71,1.15,2.8,2.71,5.59,2.77.41,0,.82-.26,1.25-.36.44-.1.92-.24,1.37-.22,2.31.1,4.64.22,6.94.15,0-.11,0-.23,0-.34-2.24.07-4.49-.04-6.73-.13-.83-.03-1.66-.18-2.35.47-.21.2-1.64.03-2.25-.24-1.04-.46-1.87-1.12-2.78-1.7-.7-.45-.32-.8.38-1.17,4.09,1.63,8.75,1.62,13.34,1.86.15,0,.25,0,.39-.01,0-.11,0-.22,0-.33-.22.01-.41.02-.65,0-4.02-.29-8.14-.19-11.87-1.51-.22-.08-.44-.15-.75-.26,1.37-1.16,2.35-1.31,4.37-1,1.33.2,2.71.19,3.81.86.19.12.56.16.84.14,1.43-.08,2.8-.18,4.23-.28v-2.57c-.33.01-.69,0-1.25-.07-.35-.03-.71,0-1.22,0,.2.34.33.55.47.77-1.86.51-3.46-.08-5.16-.43.37-.1.68-.19.99-.28-.01-.05-.02-.09-.03-.14-.54-.02-1.07-.04-1.61-.07-.03-.09-.05-.18-.08-.27,1.1-.18,2.21-.37,3.31-.55-.05-.11-.1-.22-.16-.33-1.12.22-2.57.23-3.28.73-.8.56-1.42.5-2.26.4-1.52-.18-2.99-.23-4.26.55-.18.11-.39.22-.58.33v1.42Zm2.61-.87c.06.06.12.13.19.19-.34.27-.68.55-1.13.91-.26-.36-.41-.58-.63-.89.61-.08,1.09-.15,1.58-.21Z" style="fill:#fff;"/><path d="m541.4,53.92c.23.02.43.03.66.05,2.24.18,4.42.63,6.66.85,3.01.3,5.96.57,8.98.83v-.32c-2.49-.2-4.9-.42-7.38-.66-2.98-.28-5.91-.79-8.9-1.05-.02,0,0,0-.02,0v.31Z" style="fill:#fff;"/><path d="m557.05,64.52c-4.95-.39-9.85-.99-14.79-1.42-.31-.03-.6-.04-.91-.06,0,.12,0,.25,0,.37,3.08.25,6.11.6,9.18.95,2.39.27,4.7.44,7.13.58v-.37c-.23-.02-.36-.03-.6-.04Z" style="fill:#fff;"/><path d="m494.48,81.67c2.45.22,5.33.1,7.68-.29-.07-.11-.14-.19-.21-.28-3.1.49-6.72.32-9.9,0-2.91-.29-5.76-.71-8.35-1.73-.15-.06-.32-.13-.45-.19l.09.42c.19.08.4.17.62.25,3.3,1.2,6.92,1.49,10.53,1.81Z" style="fill:#fff;"/><path d="m507.8,92.2c4.4-.57,8.53-.15,12.57,1.19,4.88,1.62,9.86,3.09,14.82,4.59,1.19.36,1.96.89,2.42,1.72.36.65.76,1.43,1.52,1.8.06.03.15.08.21.11l.39-.24c-.08-.04-.22-.09-.3-.13-.67-.32-1.01-1.02-1.32-1.59-.47-.87-1.19-1.53-2.47-1.92-5.07-1.55-10.19-3.02-15.17-4.69-4.34-1.45-8.82-1.78-13.45-1.1-3.61.53-7.24.49-10.88.51-.4,0-.8-.25-1.2-.38.03-.1.06-.19.09-.29.81-.07,1.62-.15,2.44-.2,4.13-.26,8.26-.51,12.38-.78,1.73-.12,3.38-.32,5.03-.14-.64-.2-.79-.27-1.37-.47-1.59-.05-3.65.24-5.27.37-3.11.26-6.24.44-9.37.64-1.09.07-2.18.09-3.26.18-1.16.1-1.13.32-.81,1.05.51,1.17,2.28,1.4,3.43,2.33-.63.14-1.11.35-1.59.33-1.8-.05-3.64-.12-5.43-.2l.48.52c1.73.08,3.56.05,5.32,0,.58-.02,1.14-.29,1.8-.48.84.5.56.94-.32,1.15-.93.22-1.95.36-2.94.38-.92.02-1.89.03-2.82.03l.35.34c.9,0,1.83,0,2.73-.04,1.02-.03,2.09-.2,3.03-.46,1.16-.32,1.26-.93.43-1.56-.84-.64-1.68-1.28-2.6-1.97.4-.02.76-.06,1.12-.04,3.38.2,6.7-.14,10-.56Z" style="fill:#fff;"/><path d="m540.87,74.74c-.03.15-.08.29-.11.45,4.79.17,9.52.35,14.31.58.74.04,1.5.09,2.24.13l.04-.26c-5.49-.4-10.95-.69-16.47-.9Z" style="fill:#fff;"/><path d="m541.33,70.63c0,.13,0,.26,0,.39,3.24.19,6.42.41,9.66.71,2.22.2,4.42.4,6.64.57l.02-.39c-.15-.01-.31-.02-.46-.04-5.29-.46-10.54-.91-15.85-1.24Z" style="fill:#fff;"/><path d="m542.12,89.57c-.76-.28-1.63-.45-2.48-.57-2.66-.39-5.14-.92-7.66-1.57-.13.09-.27.18-.4.27,2.66.69,5.3,1.23,8.1,1.65.73.11,1.46.26,2.12.49,1.12.39,1.37.91.8,1.68-.41.55-.17.92.45,1.25.36.19.76.35,1.16.51.65.26,1.44.42,1.94.78.47.33,1.01.62,1.54.89l.3-.32c-.38-.2-.76-.41-1.11-.64-.9-.6-2.21-.91-3.31-1.37-.56-.23-.81-.49-.46-.98.63-.89.31-1.6-.98-2.07Z" style="fill:#fff;"/><path d="m539.78,99.95c-.52-.23-.82-.85-.92-1.32-.22-.99-.79-1.73-2.25-2.05-6-1.31-11.48-3.39-17.18-5.16-.08-.02-.12-.03-.2-.05-.7-.01-1.39-.11-2.05-.17.87.17,1.71.44,2.57.7,5.38,1.68,10.82,3.29,16.27,4.87,1.32.38,2.21.88,2.3,1.89.08.91.83,1.51,1.89,1.98.12.05.26.12.38.18l.48-.31-.07-.02c-.43-.18-.8-.34-1.22-.53Z" style="fill:#fff;"/><path d="m496.66,86.29c-3.84-.35-7.76-.55-11.55-1.06l.18.42c2.69.31,5.43.55,8.14.77,2.2.18,4.43.27,6.64.37,2,.1,4.81-.3,6.72-.59-.12-.1-.24-.21-.37-.31-2.94.38-6.75.66-9.77.39Z" style="fill:#fff;"/><path d="m507.9,88.53c.24-.04,1.1-.5,1.34-.54-.16-.1-.21-.15-.36-.24-4.37.81-9.5,1.15-13.93.85-2.86-.2-5.73-.39-8.58-.67l.03.06.22.41s.1.02.15.02c3.45.28,6.94.37,10.4.61,3.63.26,7.19.13,10.72-.51Z" style="fill:#fff;"/><path d="m541.37,93.74c-.09-1.26-1.36-1.86-3.01-2.21-2.27-.48-4.6-.87-6.79-1.49-.93-.27-1.79-.53-2.71-.82-.15.07-.28.13-.43.2,1.27.39,2.45.77,3.73,1.15,1.94.57,4.05.89,6.1,1.3,1.62.32,2.6.95,2.66,2.16.04.86.8,1.44,1.87,1.89.89.38,1.78.8,2.65,1.19l.36-.32c-.77-.34-1.56-.7-2.36-1-1.23-.46-2-1.05-2.07-2.05Z" style="fill:#fff;"/><path d="m541.34,68.03c0,.16,0,.31,0,.47,2.54.19,5.07.43,7.62.6,2.94.19,5.76.34,8.7.49v-.24c-4.87-.19-9.57-.66-14.39-1.2-.64-.07-1.27-.1-1.92-.12Z" style="fill:#fff;"/><path d="m503.07,87.91c1.37.02,3.51-.58,4.89-.81-.14-.11-.2-.14-.34-.25-3.89.58-8.65.84-12.57.56-3.11-.22-6.22-.43-9.31-.77h0s.22.46.22.46c.39.04.78.08,1.18.1,5.3.3,10.62.62,15.93.71Z" style="fill:#fff;"/><path d="m496.82,68.33c-.76-1.35-2.34-1.59-4.14-1.61-1.85-.02-3.7.07-5.54-.02-1.67-.09-3.25-.35-4.66-.84v.36c1.88.61,3.99.86,6.25.85,1.76,0,3.52.04,5.28.09,1.07.03,1.7.45,2.19,1.09.33.44.98.98,1.58,1.2,0-.14,0-.31-.01-.45-.35-.19-.81-.44-.94-.68Z" style="fill:#fff;"/><path d="m550.55,63.14c2.39.28,4.69.44,7.11.58v-.33c-5.52-.35-10.83-1.08-16.3-1.61v.12c0,.09,0,.19,0,.28,3.07.25,6.13.6,9.19.96Z" style="fill:#fff;"/><path d="m494.7,69.47c-.46-1.07-1.98-1.08-3.28-1.23-2.98-.33-5.99-.62-8.95-1v.48c1.2.23,2.48.38,3.74.5,2.07.21,4.16.32,6.24.5.99.08,1.58.43,1.97,1.11.26.46,1,.92,1.69,1.11.53.15,1.2.25,1.76.34-.01-.12-.02-.24-.03-.36-.32-.05-.76-.09-1.08-.15-1.03-.18-1.74-.54-2.06-1.31Z" style="fill:#fff;"/><path d="m487.94,71.49c1.82.4,2.21,1.34,1,2.37-.68.57-1.53,1.05-2.27,1.59-.9.66-.79,1.16.46,1.38,1.4.24,2.9.45,4.32.37,2.58-.13,5.31-.35,7.88-.54-.04-.09-.08-.17-.11-.26-3.49.2-7.15.24-10.65.33-.65.02-1.31-.26-2.28-.46.86-.63,1.51-1.12,2.28-1.69.4.86,1.32.94,2.3.98,2.63.09,5.36.03,7.95-.15-.04-.12-.07-.2-.11-.32,0,0,0-.02-.01-.03-2.65.2-5.52.1-8.21.14-.35,0-.7-.13-1.04-.2-.03-.09-.06-.17-.09-.26.59-.24,1.18-.48,1.78-.7,1.92-.72,2.18-1.24,1.38-2.6-.17-.29-.25-.67-.13-.97.25-.62-.11-.82-.95-.9-2.98-.29-6.01-.56-8.97-.93v.43c1.58.25,3.24.4,4.88.53,1.53.12,3.05.23,4.27.32.24.77.29,1.38.63,1.92.45.71.22,1.22-.65,1.62-.69.31-1.45.55-2.46.93.27-.33.41-.48.53-.64.95-1.23.33-2.25-1.67-2.61-1.83-.32-3.7-.64-5.54-.94v.35c.16.03.36.05.51.08,1.66.27,3.34.51,4.97.87Z" style="fill:#fff;"/><path d="m485.11,72.56c1.52.38,1.81,1.06.98,2.01-.43.49-.95.94-1.29,1.45-.71,1.06-.32,1.92,1.34,2.21,2.37.42,4.84.84,7.26.82,2.21-.02,4.64-.34,6.83-.61-.04-.09-.09-.18-.14-.25-.69.09-1.61.22-2.3.31-3.54.45-7.01.28-10.47-.29-.44-.07-.87-.21-1.28-.35-.96-.33-1.37-.83-.88-1.53.29-.41.61-.8.97-1.18,1.6-1.62,1.18-2.54-1.6-3.09-.67-.13-1.41-.25-2.09-.36v.35c.88.14,1.82.29,2.66.5Z" style="fill:#fff;"/><path d="m547.65,76.83c3.12-.04,6.29.18,9.41.45l.07-.35c-1.81-.15-3.63-.31-5.44-.44-1.61-.12-3.28-.09-4.9.04-2.18.18-4.28.16-6.44.01-.03.11-.07.21-.11.32,2.49.13,4.92,0,7.41-.04Z" style="fill:#fff;"/><path d="m541.78,64.27c-.16-.02-.27-.02-.43-.04,0,.14,0,.28,0,.42,2.24.16,4.43.39,6.67.64,3.22.37,6.37.55,9.64.77v-.28c-2.23-.15-4.35-.32-6.58-.48-3.12-.22-6.19-.73-9.29-1.04Z" style="fill:#fff;"/><path d="m552.73,86.15c-.81,1.62-2.27,1.57-4.32,1.44-.37-.02-.75-.1-1.08-.22-3.84-1.35-7.97-1.93-12.11-2.64-.1.1-.21.2-.31.3,4.18.72,8.38,1.3,12.26,2.66.36.13.79.19,1.2.24,2.28.31,3.95-.13,4.52-1.29.28-.58.8-.98,1.44-1.26l.21-.44c-.74.24-1.57.72-1.81,1.2Z" style="fill:#fff;"/><path d="m542.88,66.89c-.52-.04-1.02-.05-1.55-.07,0,.12,0,.24,0,.36,2.56.19,5.09.52,7.65.73,2.92.24,5.73.43,8.65.62v-.36c-2.4-.13-4.69-.26-7.08-.44-2.57-.19-5.1-.65-7.68-.82Z" style="fill:#fff;"/><path d="m551.34,66.58c-3.36-.28-6.65-.75-10-1.09,0,.12,0,.25,0,.36,2.71.23,5.35.58,8.06.87,2.75.29-2.95.61,8.25.59v-.38c-2.14-.1-4.18-.17-6.31-.35Z" style="fill:#fff;"/><path d="m551.93,78.37c1.6.07,3.22.23,4.81.38l.08-.32c-1.46-.12-2.95-.27-4.41-.37-4.62-.3-8.99.31-12.96,2.08-.25.11-.54.17-.84.23-.09.15-.19.31-.28.46.55-.08,1.09-.21,1.52-.41,3.67-1.71,7.77-2.24,12.08-2.04Z" style="fill:#fff;"/><path d="m497.21,85.11c-3.88-.45-7.82-.63-11.7-1.07-.3-.03-.62-.11-.91-.16l.16.43c.43.07.87.14,1.33.19,2.94.3,5.9.51,8.85.74,1.79.14,3.6.41,5.37.34,1.45-.06,3.73-.37,5.17-.53-.09-.09-.24-.22-.33-.31-2.35.29-5.48.65-7.95.36Z" style="fill:#fff;"/><path d="m543.85,69.49c-.83-.06-1.68-.08-2.51-.12,0,.13,0,.26,0,.39,3.28.19,6.55.44,9.82.73,2.21.19,4.28.37,6.5.54v-.4c-4.65-.37-9.15-.8-13.8-1.13Z" style="fill:#fff;"/><path d="m541.78,96.41c-.56-.24-.98-.9-1.02-1.38-.11-1.39-1.34-1.96-3.09-2.33-2.35-.5-4.73-.96-7-1.6-1.25-.36-2.42-.71-3.66-1.09-.2.08-.42.15-.62.22,3.56,1.13,7.17,2.1,11.02,2.77,1.64.29,2.8.83,2.84,2.13.03.97.98,1.58,2.14,2.06.66.27,1.31.57,1.96.86l.33-.27c-.95-.46-1.92-.94-2.9-1.37Z" style="fill:#fff;"/><path d="m541.32,97.63c-.59-.29-1.09-.93-1.13-1.42-.08-1.22-.94-1.93-2.58-2.2-4.42-.74-8.49-2.08-12.61-3.33-.03,0-.03,0-.05-.02-.14.04-.31.08-.46.11,3.18.98,6.39,1.92,9.6,2.86,1.26.37,2.64.54,3.94.84,1.01.23,1.65.73,1.56,1.47-.11.9.52,1.55,1.49,2.02.7.33,1.41.68,2.11,1.02l.33-.25c-.73-.37-1.47-.74-2.21-1.1Z" style="fill:#fff;"/><path d="m542.1,92.92c-.03-1.5-1.33-2.25-3.32-2.58-2.92-.49-5.68-1.11-8.44-1.89-.11.06-.19.11-.3.17,2.67.69,5.29,1.3,8.01,1.89,2.04.44,3.63,1,3.62,2.68,0,.81.95,1.2,1.87,1.58,1.02.42,2.02.88,3.03,1.31l.3-.29c-1.04-.46-2.11-.93-3.18-1.36-.89-.36-1.56-.76-1.58-1.51Z" style="fill:#fff;"/><path d="m540.3,98.72c-.95-.42-1.06-1.07-.88-1.73.24-.87-.32-1.38-1.5-1.58-5.42-.95-10.34-2.65-15.34-4.27-.29.04-.59.08-.88.11,1.48.49,2.93,1,4.45,1.43,3.7,1.04,7.45,2,11.22,2.94,1.14.28,1.82.61,1.54,1.52-.28.92.36,1.58,1.47,2.07.52.23,1.04.48,1.56.72l.38-.27c-.66-.32-1.33-.63-2.01-.93Z" style="fill:#fff;"/><path d="m541.95,71.88c-.24-.02-.41-.01-.65-.03-.01.14-.02.29-.03.43,2.95.17,5.8.38,8.75.6,2.52.18,5.04.41,7.56.62l.02-.44c-5.23-.4-10.42-.82-15.65-1.18Z" style="fill:#fff;"/><path d="m488.33,83.4c2.8.15,5.58.44,8.37.65,2.3.17,5.22-.12,7.46-.32-.09-.11-.21-.23-.3-.32-2.13.18-4.9.48-7.09.31-2.87-.23-5.74-.49-8.62-.67-1.41-.09-2.76-.3-4.03-.58l.13.39c1.29.27,2.67.46,4.09.54Z" style="fill:#fff;"/><path d="m545.23,73.53c-1.39-.07-2.7-.13-4.09-.19,0,.06-.03.15-.04.22,4.36.17,8.62.59,12.97.88,1.12.08,2.27.16,3.39.25l.04-.34c-4.08-.31-8.18-.61-12.26-.83Z" style="fill:#fff;"/><path d="m498.85,90.31c3.12-.08,6.29-.25,9.33-.69.78-.11,1.97-.6,2.73-.64-.22-.14-.17-.1-.38-.21-.68.05-2.05.44-2.75.55-2.75.42-5.64.68-8.45.64-4.05-.05-8.13-.13-12.14-.56l.23.38c1.24.12,2.49.2,3.77.24,2.56.07,5.12.35,7.66.29Z" style="fill:#fff;"/></g><g style="opacity:.65;"><path d="m443.41,102.21c-.25-.17-.51-.27-.82-.41v1.99c.71.15,1.36.29,2.07.44-.04.09-.08.17-.12.25-.68,0-1.29-.03-1.95-.06v.11q0,.07,0,.09c.71.02,1.81.2,2.53.17.46-.02,1.39-.22,1.83.47.2.32-.55.86-.87.97.15.05.17.04.33.08.27-.1.76-.23,1.09-.34.31.16,1.08.49,1.19.69.35.03.23.02.8.05-.7-.44-1.18-1.05-1.84-1.54-1.38-1.01-2.81-1.99-4.24-2.96Z" style="fill:#fff;"/><path d="m450.68,84.14c-.38-.57-.94-1.16-1.65-1.55-1.89-1.03-3.71-2.05-4.92-3.53-.3-.36-.9-.66-1.52-.89v.34c.12.03.23.07.35.1-.04.06-.08.12-.11.18-.08-.02-.16-.04-.24-.06v.39c.6.21,1.14.5,1.56.96-.52-.15-1.04-.3-1.56-.46v.37c.83.24,1.58.56,2.19,1.08-.68-.27-1.44-.44-2.19-.62v.38c1.02.39,2.03.78,3.05,1.18-.08.09-.16.18-.23.27-.94-.33-1.88-.67-2.82-1v.32c1.24.54,2.48,1.08,3.72,1.62-.08.09-.17.17-.25.26-.99-.61-2.4-.77-3.47-1.3v.6c1.2.05,3.06.75,3.82,1.58-1.38-.43-2.6-.81-3.82-1.19v1.3c.46.14.93.28,1.42.37-.06.12-.12.25-.17.37-.42-.09-.83-.19-1.25-.28v3.25c.86.2,1.71.41,2.57.61-.05.13-.1.25-.14.38-.81-.21-1.62-.43-2.42-.64v1.34c.92.03,1.53.46,2.24.64-.04.1-.08.2-.12.29-.67-.18-1.35-.37-2.13-.58v.38c.2.08.41.16.64.26-.23.06-.44.07-.64.07v9.17c.45.09,3.05-.08,3.5.01-.52.27-3.1.56-3.5.49v.92s.05-.09.08-.13c.43-.02.86-.06,1.28-.04,1.25.05,2.5.18,3.76.19,2.31.02,4.71-.28,6.63,1.12-.5.73,0,1.34.75,1.95.32.27.8.64.94.98.29-.13.42-.14.71-.28-.31-.28-.54-.73.13-1.15.56-.36,1-.37,1.53-.07.11-.08.22-.47.32-.54v-13.02c-.24-.05-4.05-1.72-4.48-1.83.42-.27,4.1,1.23,4.48,1.27v-2.19c-1.95-.29-3.9-.58-5.7-1.17,1.9.28,3.81.52,5.7.81v-.48c-1.76-.31-3.52-.62-5.28-.93,1.79.07,3.56.18,5.28.39v-.37c-1.66-.25-3.41-.31-5.12-.43-1.46-.11-2.32-.58-2.92-1.48Zm-3.32-2.04c.9.48,1.81.96,2.71,1.44-.09.08-.18.16-.27.23-.9-.48-1.8-.96-2.7-1.44.09-.08.17-.16.26-.23Zm2.81,2.31c-.09.08-.19.16-.28.24-.89-.49-1.78-.98-2.67-1.46.08-.07.16-.14.24-.2.91.48,1.81.95,2.72,1.43Zm-5.97,3.79c.86-.33,1.39-.21,2.81.56-.03.09-.07.17-.1.26-.88-.26-1.76-.53-2.71-.81Zm-.49,1.56c.06-.1.13-.2.19-.3.94.26,1.87.53,2.81.79-.07.12-.15.25-.22.37-.93-.29-1.85-.58-2.78-.87Zm.31,11.41c.91-.67,4.56-.63,6.44,0h-6.44Zm6.7-.55c-1.3-.23-2.6-.46-3.9-.68.02-.09.04-.18.07-.27,1.46-.12,2.64.44,3.92.74-.03.07-.06.15-.09.22Zm-2.89-1.39c.02-.07.05-.13.07-.2,2.02.17,3.78.74,5.27,1.71-1.78-.51-3.56-1.01-5.34-1.52Zm3.02-9.79c.09-.11.17-.22.26-.33,1.17.48,2.34.97,3.51,1.45-.06.08-.13.15-.19.23-1.19-.45-2.38-.9-3.57-1.35Zm4.71,14.14c.09.14-.09.88,0,1.03-.35-.51-.7-1.02-1.04-1.54.12-.06.24-.12.36-.18.72.22,1.44.43,2.2.67-.69.24-.96-.17-1.52.02Zm.44-13.14c-.07.08-.15.17-.22.25-1.02-.46-2.05-.92-3.07-1.37.06-.07.12-.15.19-.22,1.03.45,2.07.9,3.1,1.35Z" style="fill:#fff;"/><path d="m442.59,74.19s.07.03.08.03c1.06.54,1.94,1.13,3.08,1.57,1.98.77,4.03,1.46,6.08,2.15.95.32,1.94.58,2.92.86,1.31.38,2.65.72,3.97,1.08v-.34c-.82-.24-1.65-.49-2.45-.75-1.83-.6-3.69-1.16-5.53-1.75-1.44-.46-2.89-.91-4.31-1.41-1.01-.35-2.03-.73-2.95-1.18-.68-.33-.64-.74.27-1.04,1.07,1.14,2.96,1.37,4.62,1.88,1.22.38,2.4.81,3.6,1.22.73.25,1.42.56,2.18.75,1.52.39,3.05.76,4.57,1.14v-.42c-4.99-1.29-9.89-2.71-14.54-4.52.05-.13.11-.25.16-.38.34.02.7-.01,1.01.06,1.03.26,2.05.53,3.05.85,1.58.5,3.11,1.07,4.69,1.57,1.07.34,2.17.62,3.28.88.78.19,1.57.37,2.35.55v-.33c-1.04-.24-2.09-.48-3.13-.73-.91-.22-1.75-.57-2.63-.86-1.51-.48-3.01-.97-4.53-1.43-.92-.28-1.88-.49-2.82-.74.02-.13.05-.25.07-.38.7,0,1.48-.13,2.1.02,2.34.58,4.61,1.27,6.94,1.87,1.33.34,2.67.66,4.01.98v-.44c-1.94-.51-3.88-1.02-5.82-1.53-1.82-.48-3.66-.94-5.55-1.42.25-.22.51-.46.76-.69,2.37.33,4.54.81,6.54,1.69,1.27.56,2.65.93,4.07,1.24v-.45c-2.02-.48-3.99-1.05-5.85-1.83-1.14-.48-2.6-.63-3.88-.92,2.99-.93,3.95-.86,6.36.65,1.01.63,2.16,1.01,3.37,1.29v-.31c-1.18-.28-2.26-.75-3.23-1.36-.85-.53-1.93-.9-2.78-1.28q1.75,0,1.99-.63c.68.37,1.45.64,1.89,1.05.6.57,1.33.95,2.13,1.23v-.43c-.72-.28-1.39-.64-1.94-1.15-.3-.28-.78-.49-1.29-.8.69-.22,1.27-.4,1.97-.63.27.24.69.47.82.76.11.25.27.45.44.63v-.63c-.28-.29-.53-.59-.74-.89-.15-.23-.13-.62.07-.82.13-.13.37-.23.67-.31v-2.38c-.99.95-2.46,1.58-4.08,2.08-1.27.39-2.99.14-3.79,1.21-.05.07-.31.07-.44.13-1.61.67-3.22,1.33-4.82,2.01-.13.05-.2.17-.27.27-.46.62-.89,1.26-1.36,1.88-.34.45-.75.7-1.36.86v.7Z" style="fill:#fff;"/></g><g style="opacity:.65;"><path d="m582.52,67.06c2.8-1.03,5.85-1.15,8.92-1.24.35-.01.86.06,1.05.22,1.08.94,2.49,1.18,3.98,1.28,0-.15.01-.33.01-.48-.73-.09-1.43-.16-2.16-.26-.35-.04-.82-.19-.95-.37-.52-.76-1.52-.78-2.47-.74-3.28.13-6.54.34-9.44,1.59-.11.05-.14.04-.26.08v.33c.48-.14.86-.25,1.31-.42Z" style="fill:#fff;"/><path d="m582.27,69.81c3.36-1.31,6.94-1.34,10.35-.46,1.3.33,2.53.53,3.81.63,0-.12,0-.28,0-.4-.52-.06-.98-.09-1.47-.18-2.56-.48-5.09-1.04-7.78-.88-1.28.07-2.67.18-3.76.58-.75.27-1.42.45-2.2.62v.4c.4-.09.69-.17,1.04-.31Z" style="fill:#fff;"/><path d="m582.2,68.49c2.12-.88,4.47-1.13,6.85-1.32.51-.04,1.12.04,1.59.19,1.94.62,3.83,1.01,5.81,1.21,0-.09,0-.19,0-.27-1.48-.16-2.86-.45-4.21-.89-3.12-1.03-6.15-.59-8.83.35-.76.27-1.43.47-2.2.66v.42c.38-.11.65-.21.98-.34Z" style="fill:#fff;"/><path d="m584.56,73.11c2.46-.69,4.98-.37,7.44.06,1.49.26,2.93.43,4.41.52v-.37c-1.76-.11-3.47-.29-5.23-.61-2.58-.48-5.14-.42-7.66.26-.79.21-1.49.37-2.29.52v.36c1.16-.2,2.2-.43,3.33-.74Z" style="fill:#fff;"/><path d="m582.08,74.92c3.7-.81,7.33-.93,11.03-.24,1.11.2,2.18.31,3.29.39v-.35c-1.72-.13-3.39-.35-5.09-.61-2.73-.43-5.44-.33-8.09.27-.7.16-1.3.28-2,.4v.32c.32-.06.54-.1.86-.17Z" style="fill:#fff;"/><path d="m586.37,63.67c2.41-.24,4.84-.39,7.27-.53.95-.06,1.8-.06,2.27.81.08.14.36.27.63.38.02-.19.02-.36.02-.55-.14-.1-.35-.24-.5-.32-.4-.22-.84-.6-1.25-.6-2.01.01-4.03.12-6.04.22-1.09.06-2.19.13-3.24.3-1.25.21-2.6.38-3.66.83-.24.1-.42.15-.67.24v.38c.47-.16.87-.28,1.33-.48,1.06-.46,2.53-.58,3.84-.7Z" style="fill:#fff;"/><path d="m581.21,77.53v.35s.07-.02.1-.03c3.12-.74,6.17-.66,9.38-.45,1.92.13,3.84.21,5.76.29v-.35c-2.92-.16-5.84-.3-8.76-.48-2.29-.14-4.36.22-6.49.66Z" style="fill:#fff;"/><path d="m581.14,84.74c2.54.3,5.06.62,7.61.87,2.59.26,5.16.41,7.77.61v-.39c-5.17-.38-10.27-.71-15.37-1.4v.31Z" style="fill:#fff;"/><path d="m583.03,76.1c3.24-.73,6.39-.67,9.68-.2,1.23.17,2.43.25,3.69.31v-.25c-1.16-.04-2.26-.13-3.36-.34-3.62-.67-7.12-.56-10.66.25-.42.1-.75.14-1.17.23v.36c.63-.12,1.18-.21,1.81-.35Z" style="fill:#fff;"/><path d="m589.22,64.59c.71-.07,1.42-.11,2.13-.19,1.34-.14,2.39.07,3.36.8.5.38,1.13.6,1.8.75,0-.13.01-.27.01-.41-.8-.22-1.58-.55-2.23-1.06-.98-.75-2.37-.44-3.59-.37-1.63.1-3.26.26-4.86.49-1.14.16-2.37.33-3.31.76-.45.21-.84.33-1.31.48v.35c2.49-1.14,5.19-1.33,8.01-1.6Z" style="fill:#fff;"/><path d="m582.38,72.32c3.47-.98,6.97-1.07,10.49-.36,1.2.24,2.35.4,3.54.49v-.36c-1.09-.1-2.13-.21-3.21-.42-3.7-.72-7.31-.59-11,.31-.35.08-.61.13-.97.2v.41c.42-.09.75-.15,1.15-.26Z" style="fill:#fff;"/><path d="m596.42,79.43v-.42c-.95-.02-1.86-.05-2.79-.04-4.19.02-8.28.15-12.43.49v.33c.18-.01.3-.04.48-.04,4.92-.17,9.82-.25,14.74-.31Z" style="fill:#fff;"/><path d="m584.37,81.4c4.03-.19,8.03-.48,12.07-.38v-.34c-2.79-.07-5.57.04-8.36.19-2.32.13-4.58.27-6.9.41v.33c1.08-.08,2.1-.16,3.18-.22Z" style="fill:#fff;"/><path d="m585.99,61.25c2.85-.15,5.7-.37,8.56-.4.67,0,1.52.05,2.21.12.03-.11.04-.23.05-.35-2.52-.23-5.24-.11-7.81.07-1.38.1-2.79.11-4.13.33-1.27.2-2.48.44-3.68.79v.24c1.52-.49,3.1-.71,4.81-.8Z" style="fill:#fff;"/><path d="m582.04,70.76c-.29.08-.51.09-.82.16v.43c.42-.1.74-.18,1.14-.29,3.45-1,7.03-1.15,10.49-.4,1.21.26,2.37.43,3.56.53v-.24s0-.14,0-.16c-.78-.08-1.52-.09-2.3-.26-4.05-.86-8.04-.85-12.08.23Z" style="fill:#fff;"/><path d="m592.42,104.81c.8.32,1.46.67,2.19.86.14-.07.31-.12.45-.19-2.23-.67-2.44-1.06-1.04-2.52.9-.94,1.83-1.88,2.78-2.85l-.05-2.25c-1.4-1.44-2.8-2.85-4.29-4.38.37-.18.7-.34,1.03-.49,1.11,1.21,2.18,2.39,3.24,3.57v-.61c-.17-.15-.32-.28-.46-.44-.48-.53-.99-1.06-1.26-1.64-.2-.44-1.53-.82-.4-1.42.73.74,1.4,1.46,2.08,2.16v-.71c-.53-.56-1.02-1.05-1.54-1.61.1-.09.19-.18.29-.26.24.06.66.08.71.18.11.27.28.51.51.75l-.02-.81c-.14-.14-.23-.24-.37-.39.13,0,.23-.01.36-.02l-.07-3.77c-.79.63-1.55,1.25-2.33,1.89-1.36,1.11-2.37,2.32-4.96,2.56-2.74.25-5.51.44-8.19.28v.4c.81.05,1.7.07,2.53.04,1.92-.06,3.84-.3,5.75-.46.36-.03.73-.08,1.19-.13-.76,1.45-2.65,1.43-4.2,1.54-1.72.12-3.54.12-5.28.14v.37c2.54-.09,5.13-.17,7.59-.25-.4.28-1,.72-1.64,1.13-1.69,1.1-1.88,2.39-.27,3.61,1.42,1.08,3.05,2.04,4.6,3.03,1.26.81,1.36,1.19.42,1.88-1.89-.92-3.79-1.83-5.65-2.78-1.34-.68-2.21-1.47-1.81-2.76.31-1.02-.25-1.62-1.83-1.93-.44-.09-.98-.18-1.43-.26v.28c.18.04.46.08.64.12,2.02.47,2.38.86,2.05,2.28-.17.75.17,1.38.97,1.83,1.55.87,3.19,1.67,4.79,2.49.54.28,1.09.56,1.94.99-1.12.32-1.88.51-2.62.74-1.55.49-3.2.94-4.7,1.49.51.15,1.16.25,1.7.32.26-.09.47-.14.89-.25.18.16.28.23.35.38.19.02.38.02.57.03-.09-.22-.17-.34-.25-.56.67-.17,1.31-.34,2.25-.57-.53.49-.7.68-1.13,1.08-.03.02-.13.06-.1.06.57,0,1.04-.04,1.59-.1-.23-.27,0-.45.67-.89.15-.1.3-.19.23-.15.55.23.92.39,1.41.61.15-.05.36-.09.52-.14-.12-.03-.22-.07-.31-.12-1.01-.53-.91-.78-.09-1.36Zm-.38-11.14c1.45,1.51,2.87,2.94,4.21,4.41.21.23.03.62.03.93-.1.01-.21.02-.31.03-1.74-1.54-3.48-3.08-5.29-4.67.54-.28.89-.46,1.36-.7Zm-1.74.96c1.61,1.41,3.25,2.79,4.79,4.23.33.3.29.79.42,1.19-.15.02-.29.04-.44.06-1.37-.99-2.76-1.97-4.09-2.99-.52-.4-.91-.88-1.32-1.34-.48-.54-.39-.96.63-1.16Zm-1.49.65c.9,1.89,3.23,3.05,5.09,4.45.81.6,1.27,1.15.18,1.76-1.35-.95-2.81-1.88-4.11-2.91-.83-.65-1.53-1.41-2.09-2.18-.53-.73-.39-.8.93-1.11Zm-1.42,3.84c-1.52-1.1-1.63-2.12-.32-3.19.59,1.6,2.13,2.65,3.68,3.69.77.52,1.49,1.07,2.23,1.61.72.53.89,1.06-.16,1.7-1.81-1.26-3.65-2.52-5.43-3.81Z" style="fill:#fff;"/><path d="m650.11,78.7c-3.26-.62-6.47-1.41-9.79-1.75v.42c3.42.18,6.6.94,9.76,1.82-3.26-.53-6.5-1.06-9.75-1.59v.55c3,0,5.76.63,8.42,1.5-.24-.02-.49-.02-.72-.06-2.58-.45-5.14-.89-7.69-1.43v3.06c1.23.26,2.44.55,3.46,1.12-1.15-.22-2.33-.39-3.45-.65v.34c1.35.34,2.66.68,3.98,1.01-.07.1-.14.2-.21.3-1.23-.29-2.51-.47-3.75-.78v.34c2.52.62,5.11.86,7.14,1.95-2.08-.43-4.21-.88-6.34-1.31-.27-.05-.53-.12-.79-.18v.43c2.45.51,5.12.59,7,1.94-2.34-.55-4.67-1.1-7-1.66v.5s.12.03.13.03c2.23.48,4.35.9,6.58,1.38-.07.13-.13.26-.2.39-2.02-.78-4.47-.71-6.52-1.45v1.34c1.11,0,2.21-.04,3.31.02.87.04,1.74.19,2.58.36.33.07.79.36.78.54-.01,1.05,1,1.49,2.2,1.85.52.16,1.03.32,1.45.64-1.83-.45-3.67-.89-5.49-1.36-.3-.08-.59-.22-.79-.39-.84-.73-1.87-1.1-3.28-1.02-.25.01-.51-.07-.78-.16v2.56c.84.61,1.7,1.2,2.48,1.81.03.02.06.03.09.05,1.69.7,3.41,1.05,5.35,1.06-1.35-.37-2.59-.67-3.93-1.04.06-.06.12-.12.19-.19,1.49.41,2.65.71,4.15,1.12,0,.02.31.08.3.1,2.48-.08,4.65-.7,6.73-1.67-.97-.48-1.87-1.19-2.77-1.73-.69-.42-1.15-1.01-1.58-1.62,1.84.04,3.65.13,5.38.34v-.35c-.15-.02-.31-.05-.46-.07-1.41-.16-2.88-.13-4.23-.4-.72-.14-1.23-.75-1.64-1.28,1.75.35,3.48.75,5.26,1.02.35.05.71.1,1.07.15v-.67c-2.38-.54-4.77-1.11-7.15-1.65-1.07-.24-1.11-.72-.86-1.35.27-.67.81-.94,1.84-.74,1.21.23,2.41.46,3.63.67.66.11,1.16.23,1.47.73.29.48.67.94,1.06,1.4v-.82c-.2-.33-.4-.66-.6-.99.19.02.39.03.59.06l-.02-3.02c-.33-.08-.68-.2-1.06-.35.38-.04.72-.08,1.05-.12v-.37c-.18.04-.37.05-.53.1-1.54.49-2.82.1-4.37-.4.85-.28,1.55-.5,2.22-.75,1.71-.64,1.84-1.22.52-2.18-.22-.16-.4-.34-.8-.69.75.04,1.17.03,1.57.09.45.06.9.13,1.35.19v-.35c-.43-.06-.86-.12-1.29-.18-.21-.03-.43-.08-.62-.06-.43.06-.84.16-1.26.25.14.27.24.56.45.81.18.22.57.36.72.58.14.2.22.51.09.69-.46.65-3.62,1.39-4.65,1.19Zm-.37,13.38c-1.73-.49-3.46-.98-5.19-1.47.08-.13.17-.26.25-.39,1.7.54,3.4,1.08,5.11,1.61-.05.08-.11.16-.16.24Zm.03-.69c-1.51-.48-3.03-.97-4.54-1.45.09-.12.19-.25.28-.37,1.47.54,2.94,1.08,4.42,1.62-.05.07-.11.14-.16.2Zm-2.29-11.23c-2.21-.37-4.42-.73-6.63-1.09.05-.11.09-.21.14-.32,2.2.36,4.41.72,6.61,1.08-.04.11-.08.22-.12.34Zm2.87,8.6c-1.72-.05-2.56-.53-2.72-1.66,1.01.61,1.79,1.09,2.72,1.66Z" style="fill:#fff;"/><path d="m582.63,103.62c-.48-.26-1.05-.5-1.56-.74v.43c.42.19.89.38,1.28.59,1.09.58,1.02.94-.03,1.56-.1.06-.43.25-.53.31.15.06.36.15.53.2.05-.03.22-.19.28-.22,1.35-.77,1.45-1.38.05-2.13Z" style="fill:#fff;"/><path d="m595.85,58.3c.37,0,1.08.04,1.45.05.02-.08.04-.13.06-.21-1.65-.1-3.65-.22-5.29-.18-3.3.08-6.6.46-9.86.84-.33.04-.61.08-.92.16l-.02.18-.02.28c1.65-.42,3.35-.66,5.18-.71,3.14-.09,6.28-.4,9.42-.41Z" style="fill:#fff;"/><path d="m586.62,44.2c1.25-.54,3.47-.31,4.28.53-1.13-.08-2.28-.15-3.43-.23,0,.06-.01.13-.02.19,1.69.27,3.37.54,5.06.81-.03.07-.06.15-.08.22-.81-.05-1.62-.1-2.72-.17,2,.56,3.66,1.03,5.33,1.5-.05.08-.1.15-.15.23-4.11-.81-4.94-.89-6.22-.42,3.36-.06,6.09.58,8.4,1.96-2.08-.75-4.2-1.35-6.67-1.03,1.86.27,3.87.25,5.41,1.14-1.35-.11-2.67-.21-4-.31-.03.1-.05.19-.08.28,1.66.23,3.53.06,4.93.92-1.15-.05-2.25-.09-3.35-.14,0,.09-.02.18-.03.27,1.67.23,3.55,0,5,.88-.85-.03-1.65-.06-2.45-.09,0,.08,0,.16-.01.24.75.09,1.49.18,2.24.28,0,.09-.02.19-.03.28-.9,0-1.81.07-2.7-.02-1.54-.14-3.07-.34-4.57-.59-1.22-.21-2.01.02-2.59.76-.72.91-1.84,1.45-3.41,1.53-.87.05-1.76.12-2.63.19l-.07.32c.88-.08,1.78-.16,2.67-.18,1.85-.05,3.07-.69,3.94-1.71.47-.55,1.01-.71,1.96-.58,2.72.35,5.46.61,8.18.93.17.02,1.03.24,1.2.27.55-.76.92-1.36,1.53-2.13-.58-.67-1.63-1.79-2.32-2.4-1.79-1.59-3.66-3.15-5.53-4.7-.24-.2-.65-.3-.98-.45-.33.54-.75.09-1.14.05-.28-.03-.58-.03-1.12-.05,1.24.46,2.23.83,3.21,1.19-2.35-.35-4.47-1.45-7.01-1.21l-.24.38-.06.09c.31.29.31.58-.3.84-.03.01-.22.06-.25.07l-.26.45c.33-.12.76-.22,1.08-.36Zm4.22-.5c1.28.4,2.55.81,3.83,1.21-.05.08-.11.16-.16.23-1.29-.38-2.58-.77-3.87-1.15.07-.1.13-.19.2-.29Z" style="fill:#fff;"/><path d="m586.65,48.62c1.45-.59,1.27-1.42-.27-1.93-.45-.15-.95-.23-1.42-.35-.08-.02-.23-.07-.3-.09l-.23.48c.77-.04,2.01.21,2.42.6.68.66-.21.91-.8,1.17-.85.38-1.78.64-2.7.83l-.14.38c1.19-.26,2.37-.67,3.45-1.11Z" style="fill:#fff;"/><path d="m585.33,59.97c3.02-.09,6.04-.27,9.07-.33.78-.01,1.79.02,2.57.04.02-.11.06-.23.07-.34-4.38.07-9.04.2-13.4.45-.81.05-1.65.27-2.43.52v.3c1.25-.42,2.66-.61,4.12-.66Z" style="fill:#fff;"/><path d="m593.47,62.02c1.09-.04,2.19.1,3.14.38,0-.13.02-.24.02-.36-1.48-.37-3.15-.44-4.76-.34-2.64.17-5.27.39-7.88.68-.97.1-1.91.32-2.75.67-.02,0-.03.01-.05.02v.32c2.65-.96,5.59-.94,8.51-1.18,1.25-.1,2.52-.13,3.77-.18Z" style="fill:#fff;"/><path d="m587.11,57.4c1.57-.16,3.09-.49,4.66-.66.97-.1,1.98-.08,2.96-.02.85.06,2.17.19,3.02.25.02-.08.08-.21.11-.29-.26-.04-1.01-.09-1.27-.13-2.24-.34-4.37-.35-6.65.16-2.11.47-4.49.4-6.71.7-.61.08-1.23.17-1.83.29l-.03.32c1.85-.38,3.82-.44,5.75-.63Z" style="fill:#fff;"/><path d="m586.75,56.25c2-.15,3.83-.34,4.94-1.65.36-.42.88-.42,1.5-.16,1.4.57,3.47,1.03,5.05,1.3.04-.1.09-.18.12-.28-1.59-.19-3.7-.58-5.04-1.35-.73-.42-1.56-.27-2.04.29-.99,1.15-2.57,1.41-4.38,1.5-1.81.09-3.59.25-5.34.54l-.05.34c1.68-.29,3.51-.39,5.24-.52Z" style="fill:#fff;"/></g><g style="opacity:.65;"><path d="m116.84,74.22c1.22-.33,2.43-.46,3.65-.4v-.26c-1.29-.07-2.56.05-3.87.39-2.31.6-4.63.71-6.97.24-1.77-.36-3.49-.74-5.26-1.11v.39c1.06.21,2.08.39,3.13.63,3.11.73,6.18.96,9.32.12Z" style="fill:#fff;"/><path d="m115.99,72.91c-1.91.54-3.84.59-5.78.22-1.96-.37-3.87-.79-5.83-1.18v.39c1.27.24,2.5.45,3.75.72,2.92.64,5.76.82,8.71-.04,1.2-.35,2.41-.47,3.64-.4v-.2c-1.5-.08-2.98.06-4.5.49Z" style="fill:#fff;"/><path d="m120.5,52.13v-.21c-.02.07,0,.14,0,.21Z" style="fill:#fff;"/><path d="m112.14,72.18c-2.04-.22-4.05-.66-6.06-1.04-.58-.11-1.11-.2-1.69-.32v.34c1.39.27,2.73.53,4.11.82,2.86.61,5.63.85,8.51-.14,1.15-.4,2.31-.58,3.48-.53v-.22c-1.75-.09-3.4.37-5.07.79-1.05.26-2.21.41-3.28.29Z" style="fill:#fff;"/><path d="m117.27,70.06c-1.65.73-3.51,1.13-5.35.9-2.52-.32-5-.79-7.54-1.22v.29c1.1.22,2.16.42,3.24.68,3.67.89,7.25.82,10.73-.68.32-.14.73-.21,1.08-.17.36.04.69.11,1.04.16v-.42c-1.05-.11-2.11-.01-3.22.47Z" style="fill:#fff;"/><path d="m118,74.91c-3.36.83-6.74.89-10.13.23-1.18-.23-2.31-.51-3.48-.78v.32c.32.07.61.11.93.2,4.01,1.08,8.02,1.4,12.12.45,1.01-.24,2.03-.35,3.05-.33v-.35c-.83-.02-1.65.06-2.49.26Z" style="fill:#fff;"/><path d="m117.9,76.18c-2.36.5-4.73.85-7.15.62-1.7-.16-3.42-.29-5.09-.62-.45-.09-.83-.24-1.27-.36v.21c.06.02.07.02.13.04.95.26,1.87.64,2.84.8,1.15.18,2.34.19,3.51.25,1.95.09,3.89.07,5.8-.41,1.28-.32,2.54-.44,3.81-.39v-.35c-.86-.03-1.72.03-2.59.22Z" style="fill:#fff;"/><path d="m116.5,68.98c-.09.17-.41.3-.64.34-1.09.19-2.19.42-3.3.49-2.83.17-5.47-.67-8.22-1.22v.29c.15.02.28.06.42.09,2.68.51,5.3,1.43,8.1,1.14,1.49-.15,3.13,0,4.23-1.29.13-.15.48-.21.72-.2.9.04,1.78.1,2.67.21v-.29c-.77-.1-1.53-.2-2.31-.24-.65-.04-1.33-.01-1.68.68Z" style="fill:#fff;"/><path d="m115.89,67.39c-1.03,1.05-2.35,1.29-3.79,1.34-2.7.1-5.13-.81-7.71-1.3v.32s.01-.01.05,0c.64.22,1.32.32,1.99.46,2.01.41,3.98,1.03,6.08.83,1.12-.11,2.3-.19,3.09-.99.66-.67,1.37-.86,2.29-.73.48.07.97.11,1.45.17.4.05.77.13,1.16.18v-.33c-.72-.11-1.43-.23-2.16-.29-.83-.07-1.78-.35-2.45.34Z" style="fill:#fff;"/><path d="m116.95,77.82c1.2-.23,2.37-.32,3.54-.28v-.35c-1.25-.05-2.49.06-3.76.37-1.06.26-2.21.38-3.31.35-2.71-.07-5.38.2-8.04.6-.33.05-.68,0-.99-.13v.81c.39.14.68.31.9.53-.3-.03-.59-.06-.9-.09v.35c.4.04.76.08,1.16.12,0,.1,0,.21,0,.31-.4-.04-.76-.08-1.16-.12v.41c.2.01.38.03.58.04,0,.07.01.15.02.22-.14.06-.38,0-.59.03v.88c.69-.47,1.7-.4,2.27.28-.83-.08-1.52-.14-2.28-.21v.41h1.41c0,.1,0,.2-.01.3-.48.07-.91.02-1.39.02v1.33c1.59.05,3.07.24,3.99.55-.66,1.02-1.25,1.82-2.81,1.5-.39-.08-.78-.12-1.18-.19v.32c.71.09,1.37.18,2.08.27-.02.11-.04.22-.06.33-.7-.05-1.33-.28-2.02-.39v.47c.5.08.96.17,1.46.25-.02.1-.04.21-.06.31-.48-.08-.92-.16-1.4-.24v.33c.45.08.87.16,1.33.25-.02.11-.05.21-.07.32-.43-.1-.82-.19-1.26-.28v1.06s.12,0,.13,0c0,.07-.12.14-.13.21v1.92c1.07.05,2.09.1,3.33.16-1.07,1.06-1.94,1.98-2.9,2.83-.13.12-.28.17-.43.27v.25c.45-.31.88-.57,1.3-.92.82-.67,1.55-1.45,2.3-2.16.83.58.46.97-.05,1.41-.73.62-1.47,1.25-2.08,1.96-.44.51-.91.81-1.46,1.08v.38c.67-.28,1.23-.67,1.74-1.28.5-.59,1.14-1.09,1.69-1.66.51-.53,1.03-.56,1.65-.08-.81.63-1.72,1.14-2.33,1.86-.79.93-1.7,1.54-2.75,2.01v.32c1.15-.5,2.17-1.12,3.02-2.15.58-.7,1.48-1.17,2.24-1.75.13.08.26.17.39.25-.22.33-.38.7-.67.96-.59.53-1.48.88-1.82,1.5-.5.9-1.28,1.34-2.13,1.82-.37.21-.67.42-1.03.65v.41c.69-.42,1.33-.81,2.01-1.25.35-.22.84-.42.97-.73.45-1.09,1.48-1.61,2.4-2.26.49-.36.79-.18,1.16.24-.15.1-.27.18-.38.26-2.09,1.44-3.56,3.51-5.89,4.7-.12.06-.17.12-.26.22v.51c.84-.66,1.69-1.24,2.56-1.87.38-.28.76-.55,1.11-.86.98-.87,1.95-1.74,2.89-2.63.39-.37.71-.31,1.15.06-.51.5-.96,1-1.48,1.43-1.63,1.37-3.28,2.71-4.91,4.06-.19.16-.36.35-.47.55-.21.42-.5.63-.85.86v.43c.47-.27.84-.61,1.19-1.11.42-.62,1.16-1.06,1.75-1.58.71-.63,1.49-1.21,2.11-1.9.94-1.05,1.46-1.21,2.91-.55-.67.28-1.27.5-1.84.76-.53.24-.59.54-.03.84.34.18.66.37,1.16.65-1.19.31-2.2.55-3.2.83-.9.25-1.75.65-2.11,1.48-.39.91-1.08,1.31-1.95,1.62v.41c.88-.22,1.62-.61,1.98-1.43.48-1.07,1.39-1.61,2.54-1.91.82-.21,1.66-.38,2.48-.6.62-.17.6-.51.14-.83-.32-.23-.69-.41-1.15-.67.81-.32,1.48-.59,2.2-.88.27.42.52.81.78,1.21-.14.04-.22.06-.3.08-.66.25-1.62.34-.8,1.34.06.07-.11.4-.26.48-.32.16-.68.25-1.04.35-1.01.29-2.04.52-3.02.87-.33.12-.71.51-.76.82-.24,1.53-.27,1.7-1.98,2.06-.09.02-.16.03-.26.05.16.07.28.13.45.19.2-.05.42-.09.62-.14,1.08-.27,1.56-.86,1.48-1.74-.06-.64.26-.93.83-1.09,1.01-.28,2.03-.52,3.05-.79,1.29-.35,1.45-.65.94-1.82.5-.15,1-.3,1.51-.45.78,1.06,1.52,2.07,2.25,3.08.99,1.38.83,1.7-.86,2.36-1.41.55-2.84,1.24-4.22,1.84.15,0,.31.02.47.02,1.3-.64,2.65-1.29,4.08-1.69.55-.15,1.02-.52,1.62-.84.55.53.57.81-.12,1.29-.36.25-.91.62-1.33.78-.03.01.03-.01,0,0,.54-.13,1.1-.48,1.62-.67.29-.17.55-.3.87-.47-.02-.02.14.25.17.28.54-.23,1.14-.51,1.66-.79-.09-.04-.31-.21-.41-.25-.5-.21-1.02-.39-1.79-.68.58-.4.95-.65,1.32-.9.45-.31.89-.63,1.35-.94v-.31c-.96.64-1.92,1.28-2.88,1.91-.65-.63-.58-.98.28-1.71.89-.76,1.76-1.5,2.6-2.29v-.38c-1.19,1.16-2.41,2.29-3.62,3.42-.71-.58-.6-1.07-.11-1.55.5-.49.99-1,1.52-1.47.91-.82,1.72-1.7,2.21-2.84v-1.27c-.29-.26-.58-.53-.77-.71.25.01.51.02.76.04v-.4c-.84-.1-1.66-.29-2.05-1.29.32.05.57.09.81.12.42.05.82.08,1.24.13v-.29c-.4-.04-.78-.04-1.18-.09-1.77-.22-2.46-1.32-3.38-2.33-.74-.81-1.52-1.59-2.26-2.41-.15-.16-.25-.42-.22-.62.01-.1.36-.21.56-.24,1.88-.2,3.77-.34,5.64-.59.28-.04.55-.09.84-.13v-.31c-2.25.27-4.49.49-6.74.72-.19.02-.51-.04-.57-.15-.69-1.3-1.7-2.5-1.58-4.08.31-.05.56-.1.81-.13,2.71-.29,5.38-.1,8.08.09v-.32c-.13-.01-.25-.02-.38-.02-2.87-.21-5.73-.36-8.59.07-1.19.18-1.19.16-1.75-1.15.91-.1,1.78-.28,2.65-.27,2.69.05,5.37.13,8.06.22v-.45c-1.39-.07-2.77-.14-4.16-.15-2.23-.01-4.45.13-6.78.21-.13-.15-.4-.44-.8-.88.94-.11,1.78-.24,2.62-.3,2.32-.16,4.64-.24,6.95-.45.73-.07,1.44-.06,2.16-.08v-.4s-.07-.01-.12,0c-2.6.21-5.21.37-7.81.57-1.17.09-2.36.12-3.49.38-1.48.34-2.64-.26-3.9-.79,2.31-.3,4.61-.46,6.91-.63,1.62-.12,3.28-.12,4.86-.42Zm3.29,18.71c-.38.71-.86,1.4-1.43,1.99-.89.94-1.88,1.79-2.8,2.66-.74-.55-.42-1.05.13-1.6,1.27-1.27,2.86-2.33,3.47-4.06.9.29.99.35.63,1.01Zm-1.64-1.61c.7.17.75.56.43,1.05-.28.42-.54.86-.9,1.22-.9.93-1.85,1.82-2.79,2.73-.1-.02-.2-.04-.3-.06.09-.37.06-.81.28-1.08,1.05-1.31,2.17-2.58,3.27-3.86Zm-1.19-.88c.32.22.56.39.93.64-1.23,1.45-2.41,2.86-3.6,4.27-.07,0-.14-.02-.21-.03,0-.29-.12-.64.02-.85.91-1.34,1.88-2.65,2.87-4.03Zm-.98-.63c.22.14.45.29.7.45-1.05,1.45-2.04,2.81-3.03,4.18-.08-.01-.16-.03-.24-.04-.02-.25-.16-.56-.04-.74.83-1.28,1.72-2.54,2.62-3.84Zm-1.03.8c-.18.53-.53,1.02-.86,1.5-.3.44-.66.83-.99,1.25-.1-.04-.2-.08-.3-.13.1-.35.11-.74.31-1.03.65-.96,1.36-1.88,2.1-2.89.77.55-.14.9-.27,1.3Zm-.3-1.69c.07.08.13.16.2.24-.69,1.01-1.39,2.02-2.08,3.03-.11-.06-.23-.11-.34-.17.05-1.2,1.41-1.85,1.75-2.94.03-.09.31-.11.48-.16Zm-.56-.24c-.64.9-1.18,1.66-1.82,2.56-.7-.71-1.29-1.3-1.79-1.8.88-1.88,2.23-.77,3.61-.77Zm-9.2-8.65c.66-.5,2.45-.28,3.31.55-1.09-.18-2.18-.36-3.31-.55Zm-.53,5.3c.84.13,1.68.25,2.51.38-.03.11-.05.22-.08.33-.83-.13-1.67-.26-2.5-.4.02-.11.04-.21.07-.32Zm-.36,1.03c.72-.41,2.72-.13,3.39.42-1.18-.15-2.19-.27-3.39-.42Zm5.91-4.64c.12.01.24.03.36.04-.13.45-.25.9-.42,1.33-.03.08-.28.1-.57.2.25-.63.44-1.1.63-1.57Zm-.69-.42c.4.62.11,1.42-.76,1.83.3-.71.52-1.24.76-1.83Zm-.48,0c-.82.23-.61,1.31-1.85,1.47.6-.68,1.06-1.21,1.53-1.74.11.09.22.18.32.27Zm-.34-1.38c-.79-.19-1.55-.37-2.39-.57.66-.47,2.05-.12,2.39.57Z" style="fill:#fff;"/><path d="m106.58,56.88s0,.01,0,.01c0,0,.01-.02.02-.02,0,0-.02,0-.03,0Z" style="fill:#fff;"/><path d="m104.39,66.69c.15-.05.27-.08.52,0,.57.18,1.16.28,1.74.41,2.18.51,4.37.94,6.62.51.55-.11,1.36-.35,1.5-.7.32-.79.9-.79,1.55-.74,1.4.11,2.78.24,4.17.41v-.34c-.29-.03-.56-.09-.86-.11-1.37-.1-2.74-.19-4.12-.2-.28,0-.58.34-.85.55-.31.23-.57.62-.91.7-.8.18-1.66.36-2.45.28-2.18-.24-4.34-.62-6.66-.96.66-.86.66-.86,1.39-.7,1.14.24,2.28.53,3.43.69,1.34.18,2.73.25,3.91-.5.94-.6,1.93-.89,3.06-.82.86.05,1.72.07,2.57.17.5.05.98.11,1.48.16v-.28c-.99-.12-1.97-.26-2.97-.34-1.59-.13-3.12-.03-4.5.92-.48.33-1.25.49-1.86.44-1.81-.14-3.62-.41-5.56-.65.34-.78.68-.94,1.36-.76,1.9.5,3.76.39,5.65-.24.97-.33,2.07-.49,3.1-.48,1.6.02,3.19.18,4.79.3v-.34c-.34-.02-.66-.07-1-.1-2.66-.25-5.3-.39-7.88.56-1.62.6-3.3.37-5.01-.14.22-.28.4-.51.59-.74.33.08.63.22.93.21.79-.01,1.58-.02,2.35-.15.56-.09,1.08-.47,1.64-.53,1.22-.13,2.46-.21,3.69-.18,1.57.04,3.12.14,4.69.23v-.21c-2.21-.13-4.41-.26-6.63-.3-1.07-.02-2.29.04-3.17.5-1.2.61-2.19.38-3.3.13.26-.76.7-1.1,1.55-.96.41.06.85-.07,1.28-.11,1.53-.17,3.07-.5,4.6-.49,1.9,0,3.78.22,5.68.33v-.28c-1.04-.12-2.06-.32-3.1-.35-2.02-.07-4.05.2-6.07.35-.97.07-1.94.2-3.07.32.36-.57.6-.94.75-1.16,2.27-.22,4.43-.45,6.59-.64.67-.06,1.36-.07,2.02.02.98.14,1.92.39,2.89.55v-.29c-.56-.07-1.12-.12-1.64-.28-1.56-.47-3-.46-4.53-.15-.59.12-1.18.24-1.78.26-1.09.04-2.19.01-3.43.01.22-.42.32-.63.42-.81,2.55.23,4.99-.25,7.1-1.4.43-.23.78-.24,1.02.15.65,1.04,1.69,1.27,2.84,1.41v-.31c-1.05-.11-1.97-.36-2.56-1.29-.33-.51-.89-.65-1.39-.26-1.51,1.16-3.38,1.19-5.18,1.43-.52.07-1.06-.03-1.59-.05,0-.09,0-.17,0-.26.38-.09.76-.18,1.15-.27-.01-.05-.03-.11-.04-.16-.24-.02-.48-.04-.78-.06.61-1,1.85-.25,2.72-.91h-2c-.02-.07-.04-.14-.06-.21.51-.17,1.03-.33,1.71-.55-.42-.08-.65-.13-.89-.18,0-.06-.02-.13-.03-.19.42-.12.83-.29,1.26-.36,1.86-.29,3.72-.53,5.57-.85.65-.11,1.02.03,1.34.53.21.34.49.56.77.8v-.67c-.12-.14-.34-.1-.44-.26-.4-.68-.94-.88-1.77-.69-1.02.23-2.07.41-3.11.54-.6.08-1.22.01-1.84.01,0-.08-.01-.17-.02-.25.51-.08,1.02-.17,1.52-.25,0-.07,0-.15,0-.22-.54.03-1.09.06-1.67.09.99-.8,2.27-.59,3.41-.8,0-.08-.01-.16-.02-.24-.75.04-1.5.08-2.28.13.95-.78,2.22-.62,3.36-.84-.02-.09-.04-.17-.06-.26-.9.09-1.81.19-2.72.29,1.05-.81,2.42-.79,3.69-1.04-1.68-.29-3.13.26-4.55.94,1.57-1.26,3.43-1.84,5.72-1.79-.87-.43-1.44-.36-4.24.39-.03-.07-.07-.14-.1-.21,1.14-.43,2.27-.86,3.63-1.37-.75.06-1.31.11-1.86.16-.02-.07-.04-.13-.06-.2,1.14-.25,2.26-.49,3.4-.73v-.18c-.78.07-1.54.14-2.3.2.45-.62,1.46-.76,2.3-.57v-1.24c-1.49.02-2.75.81-4.18,1.09.67-.33,1.34-.67,2.19-1.09-.37.02-.57.02-.76.05-.27.04-.55.44-.78-.05-.22.13-.5.23-.67.41-1.27,1.42-2.55,2.83-3.77,4.29-.5.59-.85,1.28-1.28,1.92-.6.9-1.55,1.36-2.63,1.63-.81.2-1.48.55-2,1.08,1.18-.42,2.35-.85,3.53-1.27.05.11.1.21.15.32-1.18.44-2.36.87-3.54,1.31-.05-.11-.1-.22-.15-.33-.24.24-.52.43-.64.82-.11.34-.52.59-.77.89-.16.2-.35.41-.42.64-.14.42-.25.81-.37,1.24v6.2Zm13.84-18.27c.05.09.09.18.14.27-.88.35-1.76.7-2.64,1.05-.04-.07-.07-.14-.11-.21.87-.37,1.74-.74,2.61-1.11Zm-11.51,9.76c.78-.19,1.44-.35,2.22-.54-.68.85-1.51,1.06-2.22.54Zm.27-.71c.86-.31,1.73-.61,2.6-.91-.66,1.07-1.92.91-2.96,1.24.09-.16.21-.27.36-.33Z" style="fill:#fff;"/></g></g></g></svg>