<?xml version="1.0" encoding="utf-8"?>
<!-- Generator: Adobe Illustrator 27.6.1, SVG Export Plug-In . SVG Version: 6.00 Build 0)  -->
<svg version="1.1" id="Layer_1" xmlns="http://www.w3.org/2000/svg" xmlns:xlink="http://www.w3.org/1999/xlink" x="0px" y="0px"
	 viewBox="0 0 200 141" style="enable-background:new 0 0 200 141;" xml:space="preserve">
<style type="text/css">
	.st0{opacity:0.202;fill:#FFFFFF;stroke:#242A2D;enable-background:new    ;}
	.st1{fill:#633169;}
	.st2{fill:#F2D1C3;}
	.st3{fill:#95BA29;}
	.st4{fill:#FFFFFF;}
	.st5{fill:#D50065;}
	.st6{fill:#22B7E9;}
	.st7{fill:#F1901D;}
	.st8{fill:#FAB600;}
	.st9{fill:#004688;}
</style>
<g id="enabler2" transform="translate(-612.5 -969.5)">
	<g id="Group_12513" transform="translate(613 970)">
		<path id="Path_18050" class="st0" d="M169.5,70c0,38.7-31.3,70-70,70s-70-31.3-70-70s31.3-70,70-70S169.5,31.3,169.5,70"/>
		<path id="Path_18051" class="st1" d="M74.3,97.9c-0.7,0-1.3-0.6-1.3-1.3c0-0.4,0.2-0.7,0.4-1l14.3-12.8c0.5-0.5,1.4-0.5,1.9,0.1
			c0.5,0.5,0.5,1.4-0.1,1.9l0,0L75.2,97.5C75,97.7,74.7,97.9,74.3,97.9"/>
		<path id="Path_18052" class="st1" d="M82.8,63.8c-0.1,0-0.1,0-0.2,0l-15.5-2.5c-0.7-0.1-1.2-0.8-1.1-1.5c0.1-0.7,0.8-1.2,1.5-1.1
			L83,61.2c0.7,0.1,1.2,0.8,1.1,1.5S83.5,63.8,82.8,63.8"/>
		<path id="Path_18053" class="st1" d="M137.4,75.9c-0.1,0-0.1,0-0.2,0l-18.6-2.8c-0.7-0.1-1.2-0.8-1.1-1.5s0.8-1.2,1.5-1.1
			l18.6,2.8c0.7,0.1,1.2,0.8,1.1,1.5C138.6,75.5,138.1,75.9,137.4,75.9"/>
		<path id="Path_18054" class="st1" d="M118.2,63c-0.7,0-1.3-0.6-1.3-1.3c0-0.5,0.3-0.9,0.7-1.1L137.9,49c0.6-0.3,1.4-0.1,1.8,0.5
			c0.3,0.6,0.1,1.4-0.5,1.8l-20.3,11.6C118.7,63,118.5,63,118.2,63"/>
		<path id="Path_18055" class="st1" d="M96.1,51.7c-0.6,0-1.1-0.4-1.3-1l-4.2-16c-0.2-0.7,0.2-1.4,0.9-1.6c0.7-0.2,1.4,0.2,1.6,0.9
			l0,0l4.2,16c0.2,0.7-0.2,1.4-0.9,1.6C96.3,51.7,96.2,51.7,96.1,51.7"/>
		<path id="Path_18056" class="st1" d="M114.3,102.6c-0.5,0-1-0.3-1.2-0.8l-9.2-23.9c-0.3-0.7,0.1-1.4,0.8-1.7s1.4,0.1,1.7,0.8
			l9.2,23.9c0.3,0.7-0.1,1.4-0.8,1.7C114.7,102.5,114.5,102.6,114.3,102.6"/>
		<path id="Path_18057" class="st1" d="M100.2,88.9c-10.9,0-19.8-8.8-19.8-19.8c0-10.9,8.8-19.8,19.8-19.8
			c10.9,0,19.8,8.8,19.8,19.8l0,0C119.9,80,111.1,88.8,100.2,88.9 M100.2,52c-9.5,0-17.1,7.7-17.1,17.1c0,9.5,7.7,17.1,17.1,17.1
			s17.1-7.7,17.1-17.1l0,0C117.3,59.6,109.7,52,100.2,52"/>
		<path id="Path_18058" class="st2" d="M107.1,62.3c0,3.8-3.1,6.9-6.9,6.9s-6.9-3.1-6.9-6.9c0-3.8,3.1-6.9,6.9-6.9
			C104,55.4,107.1,58.5,107.1,62.3L107.1,62.3"/>
		<path id="Path_18059" class="st1" d="M112.3,82.5c0-6.7-5.4-12.1-12.1-12.1s-12.1,5.4-12.1,12.1c6.6,6.7,17.4,6.7,24,0.1
			C112.2,82.6,112.2,82.5,112.3,82.5"/>
		<path id="Path_18060" class="st3" d="M89.6,14.5c5.6,0,10.1,4.5,10.1,10.1s-4.5,10.1-10.1,10.1s-10.1-4.5-10.1-10.1
			S84,14.5,89.6,14.5L89.6,14.5"/>
		<path id="Path_18061" class="st4" d="M89.6,14.5c5.6,0,10.1,4.5,10.1,10.1s-4.5,10.1-10.1,10.1s-10.1-4.5-10.1-10.1
			S84,14.5,89.6,14.5 M89.6,11.8c-7,0-12.7,5.7-12.7,12.7s5.7,12.7,12.7,12.7s12.7-5.7,12.7-12.7C102.2,17.5,96.6,11.9,89.6,11.8"/>
		<path id="Path_18062" class="st5" d="M59.7,52c4.1,0,7.4,3.3,7.4,7.4s-3.3,7.4-7.4,7.4s-7.4-3.3-7.4-7.4S55.6,52,59.7,52L59.7,52"
			/>
		<path id="Path_18063" class="st4" d="M59.7,52c4.1,0,7.4,3.3,7.4,7.4s-3.3,7.4-7.4,7.4s-7.4-3.3-7.4-7.4S55.6,52,59.7,52L59.7,52
			 M59.7,49.4c-5.5,0-10,4.5-10,10s4.5,10,10,10s10-4.5,10-10l0,0C69.7,53.9,65.2,49.4,59.7,49.4"/>
		<path id="Path_18064" class="st6" d="M147.1,66.8c5.4,0,9.7,4.3,9.7,9.7s-4.3,9.7-9.7,9.7s-9.7-4.3-9.7-9.7l0,0
			C137.4,71.1,141.8,66.8,147.1,66.8"/>
		<path id="Path_18065" class="st4" d="M147.1,66.8c5.4,0,9.7,4.3,9.7,9.7s-4.3,9.7-9.7,9.7s-9.7-4.3-9.7-9.7l0,0
			C137.4,71.1,141.8,66.8,147.1,66.8 M147.1,64.1c-6.8,0-12.3,5.5-12.3,12.3s5.5,12.3,12.3,12.3c6.8,0,12.3-5.5,12.3-12.3l0,0
			C159.4,69.7,153.9,64.1,147.1,64.1"/>
		<path id="Path_18066" class="st7" d="M145.4,38.9c4.1,0,7.4,3.3,7.4,7.4s-3.3,7.4-7.4,7.4c-4.1,0-7.4-3.3-7.4-7.4l0,0
			C138,42.2,141.3,38.9,145.4,38.9"/>
		<path id="Path_18067" class="st4" d="M145.4,38.9c4.1,0,7.4,3.3,7.4,7.4s-3.3,7.4-7.4,7.4c-4.1,0-7.4-3.3-7.4-7.4l0,0
			C138,42.2,141.3,38.9,145.4,38.9 M145.4,36.3c-5.5,0-10,4.5-10,10s4.5,10,10,10s10-4.5,10-10l0,0
			C155.4,40.8,150.9,36.3,145.4,36.3"/>
		<path id="Path_18068" class="st8" d="M116.8,100.9c4.1,0,7.4,3.3,7.4,7.4s-3.3,7.4-7.4,7.4s-7.4-3.3-7.4-7.4l0,0
			C109.4,104.2,112.8,100.9,116.8,100.9"/>
		<path id="Path_18069" class="st4" d="M116.8,100.9c4.1,0,7.4,3.3,7.4,7.4s-3.3,7.4-7.4,7.4s-7.4-3.3-7.4-7.4l0,0
			C109.4,104.2,112.8,100.9,116.8,100.9 M116.8,98.3c-5.5,0-10,4.5-10,10s4.5,10,10,10s10-4.5,10-10l0,0
			C126.9,102.8,122.4,98.3,116.8,98.3"/>
		<path id="Path_18070" class="st9" d="M66.6,94.2c6,0,10.8,4.8,10.8,10.8s-4.8,10.8-10.8,10.8S55.8,111,55.8,105l0,0
			C55.8,99,60.7,94.2,66.6,94.2"/>
		<path id="Path_18071" class="st4" d="M66.6,94.1c6,0,10.8,4.8,10.8,10.8s-4.8,10.8-10.8,10.8s-10.8-4.8-10.8-10.8l0,0
			C55.8,99,60.7,94.1,66.6,94.1 M66.6,91.5c-7.4,0-13.4,6-13.4,13.4s6,13.4,13.4,13.4s13.4-6,13.4-13.4
			C80.1,97.5,74.1,91.5,66.6,91.5"/>
	</g>
</g>
</svg>
