<?xml version="1.0" encoding="utf-8"?>
<!-- Generator: Adobe Illustrator 27.6.1, SVG Export Plug-In . SVG Version: 6.00 Build 0)  -->
<svg version="1.1" id="Layer_1" xmlns="http://www.w3.org/2000/svg" xmlns:xlink="http://www.w3.org/1999/xlink" x="0px" y="0px"
	 viewBox="0 0 200 141" style="enable-background:new 0 0 200 141;" xml:space="preserve">
<style type="text/css">
	.st0{opacity:0.2;fill:#FFFFFF;stroke:#242A2D;enable-background:new    ;}
	.st1{fill:#D50065;}
	.st2{fill:#F0B473;}
	.st3{fill:#F2D1C3;}
	.st4{fill:#95BA29;}
	.st5{fill:#967465;}
	.st6{fill:#009EE4;}
	.st7{fill:#633169;}
</style>
<g id="enabler">
	<g id="_3">
		<g id="Group_12512">
			<path id="Path_18072" class="st0" d="M170.1,70.5c0,38.7-31.3,70-70,70s-70-31.3-70-70s31.3-70,70-70S170.1,31.8,170.1,70.5"/>
			<g>
				<g>
					<path class="st1" d="M82.1,97c0.7,0,1.3,0.6,1.3,1.3l0.1,8.4h5.1l-0.1-7.1c-0.1-6.5-5.4-11.7-11.9-11.6l-4.3,0
						c-6.5,0.1-11.7,5.4-11.6,11.9l0.1,6.8h5.1l-0.1-8.4c0-0.7,0.6-1.3,1.3-1.3s1.3,0.6,1.3,1.3l0.1,8.4H81l-0.1-8.3
						C80.8,97.6,81.4,97,82.1,97L82.1,97L82.1,97z"/>
					<circle class="st2" cx="74.5" cy="77.4" r="8.4"/>
					<circle class="st3" cx="124.7" cy="77.4" r="8.4"/>
					<path class="st4" d="M132.4,97c0.7,0,1.3,0.6,1.3,1.3l0.1,8.4h5.1l-0.1-7.1c-0.1-6.5-5.4-11.7-11.9-11.6l-4.3,0
						c-6.5,0.1-11.7,5.4-11.6,11.9l0.1,6.8h5.1l-0.1-8.4c0-0.7,0.6-1.3,1.3-1.3c0.7,0,1.3,0.6,1.3,1.3l0.1,8.4h12.5l-0.1-8.3
						C131.1,97.6,131.7,97,132.4,97L132.4,97L132.4,97z"/>
				</g>
				<g>
					<circle class="st5" cx="99.8" cy="98.3" r="8.4"/>
					<path class="st6" d="M106.2,119.6c0-0.7,0.6-1.3,1.3-1.3l0,0c0.7,0,1.3,0.6,1.3,1.3l0.1,8.2v0.1h5.1l-0.1-7.1
						c-0.1-6.5-5.4-11.7-11.9-11.6l-4.4,0.1c-6.5,0.1-11.7,5.4-11.6,11.9l0.1,6.8h5.1l-0.1-8.1c0-0.7,0.6-1.3,1.3-1.3
						c0.7,0,1.3,0.6,1.3,1.3l0.1,8.1h12.5l0,0L106.2,119.6L106.2,119.6L106.2,119.6z"/>
				</g>
				<g>
					<path class="st7" d="M77.7,59.8l13.9,2.7l-2.4,5.2c-0.2,0.5-0.1,1.1,0.3,1.5c0.4,0.4,1,0.5,1.5,0.3l5.2-2.4L98.9,81
						c0.1,0.7,0.7,1.1,1.3,1.1s1.2-0.5,1.3-1.1l2.7-13.9l5.2,2.4c0.5,0.2,1.1,0.1,1.5-0.3s0.5-1,0.3-1.5l-2.4-5.2l13.9-2.7
						c0.7-0.1,1.1-0.7,1.1-1.3s-0.5-1.2-1.1-1.3l-13.9-2.7l2.4-5.2c0.2-0.5,0.1-1.1-0.3-1.5c-0.3-0.3-0.6-0.4-1-0.4
						c-0.2,0-0.4,0-0.6,0.1l-5.2,2.4L101.4,36c-0.1-0.7-0.7-1.1-1.3-1.1s-1.2,0.5-1.3,1.1l-2.7,13.9l-5.2-2.4
						c-0.2-0.1-0.4-0.1-0.6-0.1c-0.4,0-0.7,0.1-1,0.4c-0.4,0.4-0.5,1-0.3,1.5l2.4,5.2l-13.9,2.7c-0.7,0.1-1.1,0.7-1.1,1.3
						S77,59.7,77.7,59.8L77.7,59.8z"/>
					<path class="st7" d="M100.1,27.5c1,0,1.8-0.8,1.8-1.8V14.9c0-1-0.8-1.8-1.8-1.8s-1.8,0.8-1.8,1.8v10.8
						C98.2,26.7,99,27.5,100.1,27.5z"/>
					<path class="st7" d="M133.2,60.6H144c1,0,1.8-0.8,1.8-1.8S145,57,144,57h-10.8c-1,0-1.8,0.8-1.8,1.8S132.1,60.6,133.2,60.6z"/>
					<path class="st7" d="M56.2,60.6H67c1,0,1.8-0.8,1.8-1.8S68,57,67,57H56.2c-1,0-1.8,0.8-1.8,1.8S55.2,60.6,56.2,60.6z"/>
					<path class="st7" d="M79.1,39.6c0.5,0,0.9-0.2,1.3-0.5c0.7-0.7,0.7-1.9,0-2.6l-4.2-4.2c-0.7-0.7-1.9-0.7-2.6,0s-0.7,1.9,0,2.6
						l4.2,4.2C78.2,39.4,78.6,39.6,79.1,39.6L79.1,39.6z"/>
					<path class="st7" d="M121,39.6c0.5,0,0.9-0.2,1.3-0.5l4.2-4.2c0.7-0.7,0.7-1.9,0-2.6s-1.9-0.7-2.6,0l-4.2,4.2
						c-0.7,0.7-0.7,1.9,0,2.6C120.1,39.4,120.6,39.6,121,39.6L121,39.6L121,39.6z"/>
				</g>
			</g>
		</g>
	</g>
</g>
</svg>
