<?xml version="1.0" encoding="utf-8"?>
<!-- Generator: Adobe Illustrator 27.6.1, SVG Export Plug-In . SVG Version: 6.00 Build 0)  -->
<svg version="1.1" id="Layer_1" xmlns="http://www.w3.org/2000/svg" xmlns:xlink="http://www.w3.org/1999/xlink" x="0px" y="0px"
	 viewBox="0 0 200 141" style="enable-background:new 0 0 200 141;" xml:space="preserve">
<style type="text/css">
	.st0{opacity:0.2;fill:#FFFFFF;stroke:#242A2D;enable-background:new    ;}
	.st1{fill:#633169;}
	.st2{fill:#004688;}
	.st3{fill:#FFFFFF;}
	.st4{fill:#D50065;}
	.st5{fill:#95BA29;}
	.st6{fill:#F1901D;}
</style>
<g id="enabler1" transform="translate(-382.5 -969.5)">
	<g id="Group_12514" transform="translate(383 970)">
		<path id="Path_18035" class="st0" d="M169.5,70c0,38.7-31.3,70-70,70s-70-31.3-70-70s31.3-70,70-70S169.5,31.3,169.5,70"/>
		<path id="Path_18036" class="st1" d="M80.3,112c-6.9,0-13-2.1-17.3-6.4c-12.5-12.5-6.2-39,13.9-59.1C86.6,36.8,98,30,109,27.3
			c11.3-2.7,20.9-0.9,27,5.3c12.5,12.5,6.2,39-13.9,59.1C109,104.8,93.2,112,80.3,112 M118.7,28.7c-3,0-6.1,0.4-9,1.2
			c-10.6,2.5-21.6,9.1-31,18.4c-19.1,19.1-25.4,44-13.9,55.4s36.3,5.2,55.4-13.9s25.4-44,13.9-55.4
			C130.4,30.6,125.1,28.7,118.7,28.7"/>
		<path id="Path_18037" class="st1" d="M118.7,112c-12.9,0-28.7-7.2-41.8-20.3C56.7,71.5,50.5,45,63,32.5c6.1-6.1,15.7-8,27-5.3
			c11.1,2.7,22.5,9.5,32.1,19.2c20.1,20.1,26.4,46.7,13.9,59.1C131.7,110,125.6,112,118.7,112 M80.3,28.7c-6.4,0-11.7,1.9-15.5,5.7
			c-11.4,11.4-5.2,36.3,13.9,55.4c12.6,12.6,27.8,19.6,39.9,19.6c6.2,0,11.6-1.8,15.5-5.7c11.4-11.4,5.2-36.3-13.9-55.4
			c-9.3-9.3-20.3-15.9-30.8-18.5C86.4,29.1,83.4,28.7,80.3,28.7"/>
		<path id="Path_18038" class="st2" d="M140.3,31.7c0,3.4-2.7,6.1-6.1,6.1c-3.4,0-6.1-2.7-6.1-6.1s2.7-6.1,6.1-6.1l0,0
			C137.6,25.6,140.3,28.4,140.3,31.7"/>
		<path id="Path_18039" class="st3" d="M134.2,25.6c3.4,0,6.1,2.7,6.1,6.1s-2.7,6.1-6.1,6.1s-6.1-2.7-6.1-6.1l0,0
			C128.1,28.4,130.8,25.6,134.2,25.6 M134.2,23c-4.8,0-8.8,3.9-8.8,8.8s3.9,8.8,8.8,8.8c4.8,0,8.8-3.9,8.8-8.8l0,0
			C142.9,26.9,139,23,134.2,23"/>
		<path id="Path_18040" class="st4" d="M71.7,31.7c0,3.4-2.7,6.1-6.1,6.1c-3.4,0-6.1-2.7-6.1-6.1s2.7-6.1,6.1-6.1
			C68.9,25.6,71.7,28.4,71.7,31.7L71.7,31.7"/>
		<path id="Path_18041" class="st3" d="M65.6,25.6c3.4,0,6.1,2.7,6.1,6.1s-2.7,6.1-6.1,6.1c-3.4,0-6.1-2.7-6.1-6.1l0,0
			C59.4,28.4,62.2,25.6,65.6,25.6L65.6,25.6 M65.6,23c-4.8,0-8.8,3.9-8.8,8.8c0,4.8,3.9,8.8,8.8,8.8s8.8-3.9,8.8-8.8
			C74.3,26.9,70.4,23,65.6,23"/>
		<path id="Path_18042" class="st5" d="M140.3,108.3c0,3.4-2.7,6.1-6.1,6.1c-3.4,0-6.1-2.7-6.1-6.1s2.7-6.1,6.1-6.1l0,0
			C137.6,102.1,140.3,104.9,140.3,108.3"/>
		<path id="Path_18043" class="st3" d="M134.2,102.1c3.4,0,6.1,2.7,6.1,6.1s-2.7,6.1-6.1,6.1s-6.1-2.7-6.1-6.1l0,0
			C128.1,104.9,130.8,102.1,134.2,102.1 M134.2,99.5c-4.8,0-8.8,3.9-8.8,8.8s3.9,8.8,8.8,8.8c4.8,0,8.8-3.9,8.8-8.8l0,0
			C142.9,103.4,139,99.5,134.2,99.5"/>
		<path id="Path_18044" class="st6" d="M71.7,108.3c0,3.4-2.7,6.1-6.1,6.1c-3.4,0-6.1-2.7-6.1-6.1s2.7-6.1,6.1-6.1l0,0
			C68.9,102.1,71.7,104.9,71.7,108.3"/>
		<path id="Path_18045" class="st3" d="M65.6,102.1c3.4,0,6.1,2.7,6.1,6.1s-2.7,6.1-6.1,6.1s-6.1-2.7-6.1-6.1l0,0
			C59.4,104.9,62.2,102.1,65.6,102.1 M65.6,99.5c-4.8,0-8.8,3.9-8.8,8.8s3.9,8.8,8.8,8.8s8.8-3.9,8.8-8.8l0,0
			C74.3,103.4,70.4,99.5,65.6,99.5"/>
		<path id="Path_18046" class="st1" d="M118.2,70c0,10.3-8.4,18.7-18.7,18.7S80.8,80.3,80.8,70s8.4-18.7,18.7-18.7l0,0
			C109.8,51.3,118.2,59.7,118.2,70L118.2,70"/>
		<path id="Path_18047" class="st3" d="M99.5,82c-3.7,0-6.6-3-6.7-6.7c0-0.7,0.6-1.3,1.3-1.3c0.7,0,1.3,0.6,1.3,1.3c0,2.2,1.8,4,4,4
			s4-1.8,4-4c0-2-0.7-3.4-4.2-4c-4.3-0.8-6.4-2.9-6.4-6.6c0-3.7,3-6.7,6.7-6.7s6.7,3,6.7,6.7c0,0.7-0.6,1.3-1.3,1.3
			s-1.4-0.6-1.4-1.3l0,0c0-2.2-1.8-4-4-4s-4,1.8-4,4c0,2,0.7,3.4,4.2,4c4.3,0.8,6.4,2.9,6.4,6.6C106.1,79,103.2,82,99.5,82"/>
		<path id="Path_18048" class="st3" d="M99.5,60.7c-0.7,0-1.3-0.6-1.3-1.3V56c0-0.7,0.6-1.3,1.3-1.3s1.3,0.6,1.3,1.3v3.3
			C100.8,60.1,100.2,60.7,99.5,60.7"/>
		<path id="Path_18049" class="st3" d="M99.5,85.3c-0.7,0-1.3-0.6-1.3-1.3v-3.3c0-0.7,0.6-1.3,1.3-1.3s1.3,0.6,1.3,1.3V84
			C100.8,84.7,100.2,85.3,99.5,85.3"/>
	</g>
</g>
</svg>
