<?xml version="1.0" encoding="UTF-8"?><svg id="Layer_2" xmlns="http://www.w3.org/2000/svg" width="649.24" height="165.88" viewBox="0 0 649.24 165.88"><g id="Layer_1-2"><g><path d="m79.82,108.5H.43s0-107.03,0-107.03h79.39s0,21.47,0,21.47h-47.11s0,19.61,0,19.61h44.94s0,21.55,0,21.55h-44.94s0,22.86,0,22.86h47.11s0,21.54,0,21.54Z" style="fill:#135eab;"/><path d="m649.24,108.5h-28.73s-55.52-59.62-55.52-59.62v59.62s-31.97,0-31.97,0V1.47s28.65,0,28.65,0l55.37,59.31V1.47s32.2,0,32.2,0v107.03Z" style="fill:#135eab;"/><path d="m329.25,77.38c0,6.69-1.71,12.48-5.14,17.37-3.42,4.89-8.2,8.64-14.32,11.24-6.13,2.6-13.15,3.9-21.08,3.9-2.21,0-4.93-.14-8.15-.42-3.22-.28-7.49-1.07-12.82-2.36-5.33-1.29-10.88-3.19-16.64-5.72v-26.25c5.41,3.35,10.72,6.13,15.95,8.34,5.22,2.21,10.82,3.32,16.8,3.32,5.51,0,9.07-.91,10.7-2.74,1.62-1.83,2.43-3.54,2.43-5.14,0-2.88-1.39-5.32-4.17-7.3-2.78-1.98-6.82-4.03-12.12-6.14-5.87-2.47-11.02-5.16-15.44-8.07-4.43-2.91-8.05-6.55-10.85-10.93-2.81-4.37-4.21-9.55-4.21-15.52,0-5.77,1.41-10.98,4.25-15.64,2.83-4.66,7.16-8.38,12.97-11.16C273.21,1.39,280.31,0,288.7,0c5.97,0,11.49.58,16.56,1.74,5.07,1.16,9.25,2.46,12.55,3.9,3.29,1.44,5.56,2.57,6.8,3.4v25.1c-4.38-3.14-9.25-5.95-14.63-8.42-5.38-2.47-11.13-3.71-17.26-3.71-4.02,0-6.92.77-8.73,2.32-1.8,1.54-2.7,3.45-2.7,5.72,0,2.11.9,3.94,2.7,5.48,1.8,1.54,5.02,3.42,9.65,5.64,8.24,3.86,14.83,7.34,19.77,10.42,4.94,3.09,8.82,6.66,11.62,10.7,2.81,4.04,4.21,9.07,4.21,15.1Z" style="fill:#135eab;"/><path d="m382.57,108.5h-32.28s0-107.03,0-107.03h32.28s0,107.03,0,107.03Z" style="fill:#135eab;"/><path d="m511.56,100.93c-2.32.88-4.3,1.6-5.95,2.16-1.65.57-3.23,1.08-4.75,1.54-1.52.46-3.72,1.05-6.6,1.78-4.89,1.13-9.77,2-14.63,2.59-4.87.59-10,.89-15.41.89-10.86,0-20.9-1.98-30.12-5.95-9.22-3.96-16.59-10.12-22.12-18.46-5.53-8.34-8.3-18.59-8.3-30.73,0-7.83,1.43-15.51,4.28-23.05,2.86-7.54,7.22-13.58,13.09-18.11,4.84-3.76,9.74-6.63,14.71-8.61,4.97-1.98,9.82-3.31,14.56-3.98C455.06.34,460.28,0,466,0c9.42,0,17.2.71,23.32,2.12,6.13,1.42,12.84,3.28,20.16,5.6v25.33c-4.84-2.83-9.96-5.2-15.37-7.1-5.41-1.9-12.15-2.86-20.23-2.86-9.32,0-16.77,1.76-22.36,5.29-5.59,3.53-9.47,7.74-11.66,12.63-2.19,4.89-3.28,9.63-3.28,14.21,0,5.41,1.26,10.39,3.78,14.94,2.52,4.56,6.33,8.21,11.43,10.97,5.1,2.75,11.25,4.13,18.46,4.13,4.12,0,8.5-.54,13.13-1.62v-12.59s-14.52,0-14.52,0v-21.55s42.7,0,42.7,0v51.43Z" style="fill:#135eab;"/><g><g><polygon points="128.75 1.47 100.1 1.47 100.1 108.5 132.07 108.5 132.07 48.88 187.59 108.5 229.06 108.5 128.75 1.47" style="fill:#135eab;"/><polygon points="141.4 1.47 228.5 95.55 228.5 60.28 173.53 1.47 141.4 1.47" style="fill:#ffb600;"/></g><polygon points="188.19 1.47 228.5 43.68 228.5 1.47 188.19 1.47" style="fill:#ffb600;"/></g><g><path d="m0,131.07h4.63s0,33.82,0,33.82H0s0-33.82,0-33.82Z" style="fill:#9c182f;"/><path d="m39.89,131.07h5.4s16.87,27.33,16.87,27.33v-27.33s4.37,0,4.37,0v33.82s-5.15,0-5.15,0l-17.12-27.29v27.29s-4.37,0-4.37,0v-33.82Z" style="fill:#9c182f;"/><path d="m102.21,131.07h23.46s0,4.14,0,4.14h-18.88s0,10.27,0,10.27h16.6s0,4.03,0,4.03h-16.6s0,15.38,0,15.38h-4.58s0-33.82,0-33.82Z" style="fill:#9c182f;"/><path d="m186.27,135.9c2.24,2.99,3.36,6.82,3.36,11.49,0,5.05-1.28,9.25-3.84,12.59-3.01,3.93-7.3,5.89-12.87,5.89-5.2,0-9.29-1.72-12.27-5.16-2.66-3.32-3.98-7.51-3.98-12.57,0-4.57,1.14-8.49,3.41-11.74,2.92-4.18,7.23-6.26,12.94-6.26,5.97,0,10.39,1.92,13.26,5.76Zm-4.04,21.56c1.8-2.9,2.71-6.23,2.71-9.99,0-3.98-1.04-7.18-3.12-9.61-2.08-2.43-4.92-3.64-8.53-3.64-3.5,0-6.35,1.2-8.56,3.61-2.21,2.4-3.32,5.95-3.32,10.63,0,3.75.95,6.91,2.84,9.48,1.9,2.57,4.97,3.86,9.22,3.86,4.04,0,6.96-1.45,8.76-4.34Z" style="fill:#9c182f;"/><path d="m225.91,153.97c.1,1.92.54,3.48,1.31,4.67,1.46,2.24,4.04,3.36,7.74,3.36,1.66,0,3.16-.25,4.52-.74,2.63-.95,3.95-2.66,3.95-5.11,0-1.84-.56-3.15-1.67-3.94-1.13-.77-2.9-1.44-5.31-2l-4.44-1.04c-2.9-.68-4.95-1.42-6.16-2.23-2.08-1.41-3.12-3.52-3.12-6.33,0-3.04,1.02-5.53,3.07-7.48,2.05-1.95,4.94-2.92,8.69-2.92,3.45,0,6.38.86,8.79,2.57,2.41,1.71,3.62,4.45,3.62,8.21h-4.31c-.22-1.81-.69-3.2-1.41-4.17-1.34-1.76-3.61-2.65-6.82-2.65-2.59,0-4.45.57-5.58,1.7-1.13,1.14-1.7,2.46-1.7,3.96,0,1.66.67,2.87,2.01,3.64.88.49,2.86,1.11,5.96,1.84l4.59,1.08c2.22.52,3.93,1.23,5.13,2.14,2.08,1.58,3.12,3.88,3.12,6.88,0,3.74-1.33,6.42-3.99,8.03-2.66,1.61-5.74,2.42-9.26,2.42-4.1,0-7.31-1.07-9.63-3.22-2.32-2.13-3.46-5.03-3.41-8.68h4.31Z" style="fill:#9c182f;"/><path d="m282.63,131.07h24.54s0,4.14,0,4.14h-20.08s0,10.27,0,10.27h18.56s0,3.91,0,3.91h-18.56s0,11.47,0,11.47h20.42s0,4.03,0,4.03h-24.89s0-33.82,0-33.82Z" style="fill:#9c182f;"/><path d="m365.4,133.53c2.34,2.26,3.63,4.82,3.89,7.69h-4.47c-.5-2.18-1.49-3.91-2.97-5.18-1.48-1.27-3.57-1.91-6.25-1.91-3.27,0-5.91,1.17-7.92,3.51-2.01,2.34-3.02,5.93-3.02,10.77,0,3.96.91,7.18,2.72,9.64,1.82,2.47,4.53,3.7,8.13,3.7,3.32,0,5.84-1.3,7.58-3.89.92-1.37,1.61-3.16,2.06-5.39h4.47c-.39,3.56-1.7,6.55-3.91,8.96-2.66,2.9-6.24,4.35-10.74,4.35-3.88,0-7.15-1.19-9.79-3.57-3.47-3.15-5.21-8.01-5.21-14.58,0-4.99,1.3-9.08,3.91-12.28,2.82-3.47,6.71-5.21,11.67-5.21,4.23,0,7.52,1.13,9.85,3.38Z" style="fill:#9c182f;"/><path d="m408.31,131.07v20.9c0,2.46.46,4.5,1.39,6.12,1.38,2.46,3.7,3.68,6.96,3.68,3.91,0,6.57-1.33,7.98-3.98.76-1.44,1.14-3.38,1.14-5.82v-20.9s4.63,0,4.63,0v18.99c0,4.16-.56,7.36-1.69,9.6-2.06,4.08-5.96,6.12-11.69,6.12-5.73,0-9.62-2.04-11.67-6.12-1.12-2.24-1.69-5.44-1.69-9.6v-18.99s4.63,0,4.63,0Z" style="fill:#9c182f;"/><path d="m465.79,131.07h15.37c2.53,0,4.62.38,6.26,1.13,3.12,1.44,4.68,4.11,4.68,7.99,0,2.03-.42,3.68-1.25,4.97-.84,1.29-2.01,2.33-3.51,3.11,1.32.54,2.31,1.24,2.98,2.12.67.87,1.04,2.29,1.12,4.26l.16,4.54c.05,1.29.15,2.25.32,2.88.28,1.07.77,1.76,1.47,2.07v.76h-5.62c-.15-.29-.28-.67-.37-1.13s-.17-1.35-.23-2.67l-.28-5.64c-.1-2.21-.9-3.69-2.39-4.44-.85-.41-2.19-.62-4-.62h-10.13s0,14.5,0,14.5h-4.58s0-33.82,0-33.82Zm14.88,15.49c2.09,0,3.74-.43,4.96-1.29,1.22-.86,1.83-2.41,1.83-4.65,0-2.41-.85-4.05-2.55-4.93-.91-.46-2.13-.69-3.65-.69h-10.88s0,11.56,0,11.56h10.3Z" style="fill:#9c182f;"/><path d="m528.16,131.07h4.63s0,33.82,0,33.82h-4.63s0-33.82,0-33.82Z" style="fill:#9c182f;"/><path d="m592.64,131.07v4.03h-11.4s0,29.79,0,29.79h-4.63s0-29.79,0-29.79h-11.4s0-4.03,0-4.03h27.42Z" style="fill:#9c182f;"/><path d="m619.07,131.07h5.34s9.72,16.25,9.72,16.25l9.72-16.25h5.39s-12.81,20.19-12.81,20.19v13.63s-4.58,0-4.58,0v-13.63s-12.79-20.19-12.79-20.19Z" style="fill:#9c182f;"/></g></g></g></svg>