<?xml version="1.0" encoding="UTF-8"?>
<svg id="Istari_logo" data-name="Istari logo" xmlns="http://www.w3.org/2000/svg" viewBox="0 0 869.21 227.23">
  <defs>
    <style>
      .cls-1 {
        fill: #000;
        stroke-width: 0px;
      }
    </style>
  </defs>
  <path class="cls-1" d="M121.91,34.73v158.38h28.8V34.73h-28.8ZM228.25,195.17c30.85,0,55.95-18.1,55.95-48.75,0-26.53-22.63-38.46-44.63-46.28-16.87-5.97-29.62-10.08-29.62-23.24s11.52-19.95,23.86-19.95c8.23,0,18.31,1.85,28.39,12.14l17.48-16.66c-12.34-14.6-30.03-19.95-45.66-19.95-30.44,0-51.42,20.77-51.42,47.51s19.13,36.61,39.49,43.81c27.56,9.67,33.32,15.84,33.32,27.36,0,12.34-13.99,19.54-25.71,19.54s-23.45-3.91-33.12-15.22l-18.31,17.9c14.4,17.9,34.56,21.8,49.98,21.8h0ZM404.52,193.12h29.41l15.02-34.76h57.8l14.81,34.76h30.85l-71.79-161.06h-.82l-75.28,161.06h0ZM478.57,90.48l17.9,43.19h-36.82l18.92-43.19h0ZM575.03,193.12h28.59v-61.71h20.77l31.06,61.71h30.65l-34.56-67.06c18.72-9.05,28.39-25.09,28.39-44.02,0-32.91-25.3-47.31-55.74-47.31h-49.16v158.38h0ZM603.62,59.83h21.39c17.07,0,26.74,8.64,26.74,23.24,0,12.34-9.05,23.65-27.56,23.65h-20.57v-46.9h0ZM718.5,34.73v158.38h28.8V34.73h-28.8ZM418.61,34.73v25.09h-45.25v133.29h-28.8V59.83h-45.25v-25.09h119.3Z"/>
</svg>