<?xml version="1.0" encoding="UTF-8"?>
<svg id="Layer_1" data-name="Layer 1" xmlns="http://www.w3.org/2000/svg" viewBox="0 0 594.61 136.95">
  <defs>
    <style>
      .cls-1 {
        fill: #6be9eb;
      }

      .cls-1, .cls-2, .cls-3 {
        stroke-width: 0px;
      }

      .cls-2 {
        fill: #01015b;
      }

      .cls-3 {
        fill: #a73ed6;
      }
    </style>
  </defs>
  <g>
    <rect class="cls-2" x="163.23" y="57.53" width="24.98" height="24.98" rx="10.32" ry="10.32"/>
    <path class="cls-1" d="M106.01,62.98c-.48-1.58-1.37-3.02-2.57-4.15-1.63-1.52-4.11-1.84-5.45-3.58-.23-.3-.43-.61-.61-.94-.7-1.28-1.03-2.76-1.04-4.21,0-.05,0-.16,0-.32h0s0-4.67,0-9.4c0-4.73,0-9.41,0-9.41h0c0-.15,0-.26,0-.32,0-1.45.34-2.93,1.04-4.21.18-.33.38-.64.61-.94,1.34-1.75,3.82-2.06,5.45-3.58,1.2-1.13,2.09-2.57,2.57-4.15.31-1.03.51-2.02.54-3.08.16-4.7.2-9.83-4.01-12.89-1.1-.8-2.36-1.33-3.69-1.59-.44-.11-.93-.17-1.46-.19-.08,0-5.2-.01-5.2-.01,0,0-2.04.06-2.06.06-1.62.18-3.18.78-4.5,1.74-4.21,3.06-4.17,8.19-4.01,12.89.04,1.06.23,2.05.54,3.08.48,1.58,1.37,3.02,2.57,4.15,1.63,1.52,4.11,1.84,5.45,3.58.23.3.43.61.61.94.7,1.28,1.03,2.76,1.04,4.21,0,.05,0,.16,0,.32h0s0,4.67,0,9.41c0,4.73,0,9.4,0,9.4h0c0,.15,0,.26,0,.32,0,1.45-.34,2.93-1.04,4.21-.18.33-.38.64-.61.94-1.34,1.75-3.82,2.06-5.45,3.58-1.2,1.13-2.03,2.58-2.51,4.15-.31,1.03-.57,2.02-.6,3.08-.16,4.7-.2,9.83,4.01,12.89,1.32.96,2.88,1.56,4.5,1.74.02,0,2.06.06,2.06.06,0,0,5.12,0,5.2-.01.53-.02,1.02-.08,1.46-.19,1.33-.26,2.59-.8,3.69-1.59,4.21-3.06,4.17-8.19,4.01-12.89-.04-1.06-.23-2.05-.54-3.08Z"/>
    <path class="cls-1" d="M106.01,119.18c-.48-1.58-1.37-3.02-2.57-4.15-1.63-1.52-4.11-1.84-5.45-3.58-.23-.3-.43-.61-.61-.94-.7-1.28-1.03-2.76-1.04-4.21,0-.05,0-.16,0-.32h0s0-4.67,0-9.4c0-4.73,0-9.41,0-9.41h0c0-.15,0-.26,0-.32,0-1.45.34-2.93,1.04-4.21.18-.33.38-.64.61-.94,1.34-1.75,3.82-2.06,5.45-3.58,1.2-1.13,2.09-2.57,2.57-4.15.31-1.03.51-2.02.54-3.08.16-4.7.14-9.82-4.07-12.88-1.1-.8-2.31-1.34-3.64-1.61-.44-.11-.93-.17-1.46-.19-.08,0-5.2-.01-5.2-.01,0,0-2.04.06-2.06.06-1.62.18-3.02.78-4.33,1.74-4.21,3.06-4.33,8.19-4.18,12.89.04,1.06.23,2.05.54,3.08.48,1.58,1.37,3.02,2.57,4.15,1.63,1.52,4.11,1.84,5.45,3.58.23.3.43.61.61.94.7,1.28,1.03,2.76,1.04,4.21,0,.05,0,.16,0,.32h0s0,4.67,0,9.41c0,4.73,0,9.4,0,9.4h0c0,.15,0,.26,0,.32,0,1.45-.34,2.93-1.04,4.21-.18.33-.38.64-.61.94-1.34,1.75-3.82,2.06-5.45,3.58-1.2,1.13-2.09,2.57-2.57,4.15-.31,1.03-.51,2.02-.54,3.08-.16,4.7-.2,9.83,4.01,12.89,1.32.96,2.88,1.56,4.5,1.74.02,0,2.06.06,2.06.06,0,0,5.12,0,5.2-.01.53-.02,1.02-.08,1.46-.19,1.33-.26,2.59-.8,3.69-1.59,4.21-3.06,4.17-8.19,4.01-12.89-.04-1.06-.23-2.05-.54-3.08Z"/>
    <rect class="cls-2" x="0" y="57.53" width="24.98" height="24.98" rx="10.32" ry="10.32"/>
    <path class="cls-2" d="M150.22,90.22c-.48-1.58-1.37-3.02-2.57-4.15-1.63-1.52-4.11-1.84-5.45-3.58-.23-.3-.43-.61-.61-.94-.7-1.28-1.03-2.76-1.04-4.21,0-.05,0-.16,0-.32h0s0-4.67,0-9.4c0-4.73,0-9.41,0-9.41h0c0-.15,0-.26,0-.32,0-1.45.34-2.93,1.04-4.21.18-.33.38-.64.61-.94,1.34-1.75,3.82-2.06,5.45-3.58,1.2-1.13,2.09-2.57,2.57-4.15.31-1.03.51-2.02.54-3.08.16-4.7.2-9.83-4.01-12.89-1.32-.96-2.88-1.56-4.5-1.74-.02,0-2.06-.06-2.06-.06,0,0-5.12,0-5.2.01-.53.02-1.02.08-1.46.19-1.33.26-2.59.8-3.69,1.59-4.21,3.06-4.17,8.19-4.01,12.89.03.83.18,1.62.38,2.41.34,2.06-1.39,2.89-1.39,2.89-.18.08-.35.15-.53.23-3.71,1.61-7.41,3.21-11.12,4.82-1.9.82-3.8,1.65-5.7,2.47-2.66,1.16-5.13,2.42-8.13,1.7-.62-.19-1.33-.25-1.99-.32-.28-.04-.59-.06-.91-.07-.06,0-.12-.01-.19-.01h-4.41c-.06,0-.12.01-.19.01-.32,0-.62.03-.91.07-.67.07-1.17.14-1.89.32-3.01.72-5.47-.55-8.13-1.7l-5.7-2.47c-3.71-1.61-7.41-3.21-11.12-4.82-.18-.08-.35-.15-.53-.23,0,0-1.73-.82-1.39-2.89.2-.79.35-1.58.38-2.41.16-4.7.2-9.83-4.01-12.89-1.1-.8-2.36-1.33-3.69-1.59-.44-.11-.93-.17-1.46-.19-.08,0-5.2-.01-5.2-.01,0,0-2.04.06-2.06.06-1.62.18-3.18.78-4.5,1.74-4.21,3.06-4.17,8.19-4.01,12.89.04,1.06.23,2.05.54,3.08.48,1.58,1.37,3.02,2.57,4.15,1.63,1.52,4.11,1.84,5.45,3.58.23.3.43.61.61.94.7,1.28,1.03,2.76,1.04,4.21,0,.05,0,.16,0,.32h0s0,4.67,0,9.41c0,4.73,0,9.4,0,9.4h0c0,.15,0,.26,0,.32,0,1.45-.34,2.93-1.04,4.21-.18.33-.38.64-.61.94-1.34,1.75-3.82,2.06-5.45,3.58-1.2,1.13-2.09,2.57-2.57,4.15-.31,1.03-.51,2.02-.54,3.08-.16,4.7-.2,9.83,4.01,12.89,1.32.96,2.88,1.56,4.5,1.74.02,0,2.06.06,2.06.06,0,0,5.12,0,5.2-.01.53-.02,1.02-.08,1.46-.19,1.33-.26,2.59-.8,3.69-1.59,4.21-3.06,4.17-8.19,4.01-12.89-.04-1.06-.23-2.05-.54-3.08-.48-1.58-1.37-3.02-2.57-4.15-1.63-1.52-4.11-1.84-5.45-3.58-.23-.3-.43-.61-.61-.94-.7-1.28-1.03-2.76-1.04-4.21,0-.05,0-.16,0-.32h0s0-4.67,0-9.4c0-4.73,0-9.41,0-9.41h0c0-.15,0-.26,0-.32,0-1.45.34-2.93,1.04-4.21.18-.33.38-.64.61-.94.53-.7,1.25-1.16,2.03-1.57,2.61-.76,5.52.74,5.52.74l22.32,9.68c-.24-.09-1.42-.42-1.92,3.29-.07.47.01.95.01,1.43l.03,4.38c0,5.68,4.42,10.27,10.1,10.27h4.41c5.68,0,10.11-4.69,10.11-10.37v-4.29c0-.48.06-.96,0-1.43-.51-3.7-1.64-3.38-1.88-3.29l22.32-9.68s2.91-1.5,5.52-.74c.77.41,1.49.88,2.03,1.57.23.3.43.61.61.94.7,1.28,1.03,2.76,1.04,4.21,0,.05,0,.16,0,.32h0s0,4.67,0,9.41c0,4.73,0,9.4,0,9.4h0c0,.15,0,.26,0,.32,0,1.45-.34,2.93-1.04,4.21-.18.33-.38.64-.61.94-1.34,1.75-3.82,2.06-5.45,3.58-1.2,1.13-2.09,2.57-2.57,4.15-.31,1.03-.51,2.02-.54,3.08-.16,4.7-.2,9.83,4.01,12.89,1.1.8,2.36,1.33,3.69,1.59.44.11.93.17,1.46.19.08,0,5.2.01,5.2.01,0,0,2.04-.06,2.06-.06,1.62-.18,3.18-.78,4.5-1.74,4.21-3.06,4.17-8.19,4.01-12.89-.04-1.06-.23-2.05-.54-3.08Z"/>
    <path class="cls-3" d="M96.31,81.06h-4.44c-5.67,0-10.32-4.64-10.32-10.32v-4.44c0-5.67,4.64-10.31,10.31-10.32,1.47,0,2.98,0,4.44,0,5.68,0,10.32,4.64,10.32,10.32v4.44c0,5.67-4.64,10.32-10.32,10.32Z"/>
  </g>
  <g>
    <path class="cls-2" d="M222.34,52.57c0-1.06.91-1.97,1.98-1.97h.46c.86,0,1.47.46,1.87,1.06l12.66,19.04,12.66-19.04c.4-.66,1.06-1.06,1.87-1.06h.46c1.06,0,1.98.91,1.98,1.97v31.85c0,1.11-.91,2.02-1.98,2.02s-2.02-.96-2.02-2.02v-26.43l-11.34,16.66c-.46.66-.96,1.01-1.67,1.01s-1.27-.35-1.72-1.01l-11.29-16.61v26.43c0,1.11-.86,1.98-1.98,1.98s-1.92-.86-1.92-1.98v-31.9Z"/>
    <path class="cls-2" d="M264.11,83.56l14.38-31.44c.51-1.11,1.27-1.77,2.53-1.77h.2c1.22,0,2.03.66,2.48,1.77l14.38,31.39c.15.35.25.71.25,1.01,0,1.06-.86,1.92-1.92,1.92-.96,0-1.62-.66-1.98-1.47l-3.7-8.15h-19.44l-3.7,8.25c-.35.86-1.01,1.37-1.92,1.37-1.01,0-1.82-.81-1.82-1.82,0-.3.05-.66.25-1.06ZM289.17,73.18l-8.15-18.13-8.15,18.13h16.3Z"/>
    <path class="cls-2" d="M305.97,52.78c0-1.11.91-2.03,1.98-2.03h13.27c4.35,0,7.85,1.32,10.08,3.54,1.72,1.72,2.73,4.2,2.73,6.99v.1c0,5.82-3.95,9.22-9.47,10.28l8.81,11.34c.41.46.66.91.66,1.47,0,1.06-1.01,1.98-2.03,1.98-.81,0-1.42-.46-1.87-1.06l-9.97-12.96h-10.18v12c0,1.11-.91,2.02-2.03,2.02s-1.98-.91-1.98-2.02v-31.65ZM320.86,68.83c5.32,0,9.12-2.73,9.12-7.29v-.1c0-4.35-3.34-6.99-9.06-6.99h-10.94v14.38h10.89Z"/>
    <path class="cls-2" d="M342.58,52.53c0-1.11.91-2.03,1.98-2.03s2.03.91,2.03,2.03v19.39l20.2-20.71c.46-.41.91-.71,1.57-.71,1.06,0,1.92.96,1.92,1.98,0,.56-.25,1.01-.66,1.42l-12.56,12.46,13.47,16.61c.35.46.56.86.56,1.47,0,1.06-.91,2.02-2.03,2.02-.76,0-1.27-.4-1.62-.91l-13.22-16.46-7.64,7.65v7.7c0,1.11-.91,2.02-2.03,2.02s-1.98-.91-1.98-2.02v-31.9Z"/>
    <path class="cls-2" d="M378.73,84.17v-31.39c0-1.11.91-2.03,1.98-2.03h22.03c1.01,0,1.82.81,1.82,1.82s-.81,1.82-1.82,1.82h-20v12.1h17.72c1.01,0,1.82.86,1.82,1.82,0,1.01-.81,1.82-1.82,1.82h-17.72v12.41h20.25c1.01,0,1.82.81,1.82,1.82s-.81,1.82-1.82,1.82h-22.28c-1.06,0-1.98-.91-1.98-2.02Z"/>
    <path class="cls-2" d="M422.01,54.45h-10.28c-1.01,0-1.87-.81-1.87-1.82s.86-1.87,1.87-1.87h24.61c1.01,0,1.87.86,1.87,1.87s-.86,1.82-1.87,1.82h-10.28v29.98c0,1.11-.91,2.02-2.03,2.02s-2.02-.91-2.02-2.02v-29.98Z"/>
    <path class="cls-2" d="M444.69,54.45c0-2.18,1.72-3.9,3.9-3.9h.81c1.87,0,2.99.91,4.05,2.28l15.04,19.75v-18.28c0-2.13,1.72-3.85,3.85-3.85s3.85,1.72,3.85,3.85v28.2c0,2.18-1.72,3.9-3.9,3.9h-.25c-1.87,0-2.99-.91-4.05-2.28l-15.6-20.46v18.99c0,2.13-1.72,3.85-3.85,3.85s-3.85-1.72-3.85-3.85v-28.2Z"/>
    <path class="cls-2" d="M483.12,68.58v-.1c0-10.08,7.95-18.33,18.89-18.33s18.79,8.15,18.79,18.23v.1c0,10.08-7.95,18.33-18.89,18.33s-18.78-8.15-18.78-18.23ZM512.64,68.58v-.1c0-6.08-4.46-11.14-10.74-11.14s-10.63,4.96-10.63,11.04v.1c0,6.08,4.46,11.14,10.73,11.14s10.63-4.96,10.63-11.04Z"/>
    <path class="cls-2" d="M527.72,54.65c0-2.18,1.72-3.9,3.9-3.9h9.92c11.14,0,18.84,7.65,18.84,17.62v.1c0,9.97-7.7,17.72-18.84,17.72h-9.92c-2.18,0-3.9-1.72-3.9-3.9v-27.65ZM541.55,79.16c6.38,0,10.68-4.3,10.68-10.58v-.1c0-6.28-4.31-10.68-10.68-10.68h-6.03v21.37h6.03Z"/>
    <path class="cls-2" d="M567.31,82.3v-27.65c0-2.18,1.72-3.9,3.9-3.9h19.65c1.92,0,3.49,1.57,3.49,3.49s-1.57,3.44-3.49,3.44h-15.8v7.19h13.52c1.92,0,3.5,1.57,3.5,3.49s-1.57,3.44-3.5,3.44h-13.52v7.44h16.05c1.92,0,3.49,1.57,3.49,3.49s-1.57,3.44-3.49,3.44h-19.9c-2.18,0-3.9-1.72-3.9-3.9Z"/>
  </g>
</svg>