<?xml version="1.0" encoding="UTF-8"?>
<svg id="Layer_1" data-name="Layer 1" xmlns="http://www.w3.org/2000/svg" version="1.1" viewBox="0 0 992.13 243.78">
  <defs>
    <style>
      .cls-1 {
        fill: #231f20;
      }

      .cls-1, .cls-2 {
        stroke-width: 0px;
      }

      .cls-2 {
        fill: #ad9b73;
      }
    </style>
  </defs>
  <path class="cls-1" d="M334.25,115.04c-20.17-4.1-23.86-8.42-23.86-15.45v-.25c0-7.37,7.43-12.51,18.07-12.51,9.46,0,17.66,2.93,25.79,9.22l1.36,1.05,8.28-10.43-1.41-1.07c-10.31-7.85-20.4-11.2-33.76-11.2-18.73,0-32.32,10.86-32.32,25.83v.25c0,16.97,13.05,23.14,32.64,27.18,19.27,3.86,22.8,8.1,22.8,15.07v.25c0,7.81-7.81,13.27-19,13.27-11.86,0-20.78-3.5-30.77-12.07l-1.3-1.12-8.84,9.92,1.36,1.15c11.71,9.92,24.15,14.54,39.15,14.54,19.73,0,33.52-10.98,33.52-26.71v-.25c0-14.11-9.48-22.08-31.71-26.68"/>
  <polygon class="cls-1" points="450.3 118.56 420.12 76.04 403.22 76.04 443.18 131.22 443.18 167.03 457.15 167.03 457.15 131.1 497.12 76.04 480.74 76.04 450.3 118.56"/>
  <path class="cls-1" d="M577.45,129.16h28.13v19.24c-6.78,4.97-16.03,7.91-24.95,7.91-20.84,0-34.85-13.97-34.85-34.77v-.25c0-19.22,14.67-34.27,33.39-34.27,13.5,0,20.97,4.63,27.02,9.64l1.29,1.06,9.06-10.13-1.43-1.14c-10.68-8.56-20.98-12.04-35.54-12.04-26.96,0-48.08,20.71-48.08,47.14v.25c0,27.61,20.04,46.89,48.74,46.89,19.06,0,32.13-8.67,38.22-13.83l.61-.52v-37.53h-41.62v12.37Z"/>
  <polygon class="cls-1" points="740.44 137.23 672.48 74.2 672.48 167.14 686.1 167.14 686.1 105.77 754.06 168.87 754.06 75.93 740.44 75.93 740.44 137.23"/>
  <rect class="cls-1" x="814.63" y="76.04" width="13.85" height="90.99"/>
  <path class="cls-1" d="M934.62,76.04h-11.84l-43.34,91h14.39l10.85-22.98h47.64l10.72,22.98h14.91l-43.34-91ZM946.66,131.68h-36.3l18.21-38.49,18.09,38.49Z"/>
  <polygon class="cls-2" points="101.45 114.3 147.1 68.65 147.15 68.59 156.28 77.72 156.28 35.05 77.03 114.3 101.45 114.3"/>
  <polygon class="cls-2" points="163.59 114.27 178.11 99.75 178.18 99.69 187.3 108.81 187.3 66.15 139.17 114.27 163.59 114.27"/>
  <polygon class="cls-2" points="31.68 155.56 186.48 155.56 186.57 155.56 186.57 168.74 217.27 138.05 14.17 138.05 31.68 155.56"/>
  <polygon class="cls-2" points="39.74 114.24 116.15 37.83 116.22 37.77 125.54 47.09 125.54 3.68 14.98 114.24 39.74 114.24"/>
  <polygon class="cls-2" points="115.88 239.38 140.27 215 91.16 215 115.88 239.38"/>
  <polygon class="cls-2" points="69.75 193.54 148.28 193.54 148.37 193.54 148.37 206.72 179.07 176.03 52.24 176.03 69.75 193.54"/>
</svg>