<?xml version="1.0" encoding="UTF-8"?>
<svg id="Layer_1" data-name="Layer 1" xmlns="http://www.w3.org/2000/svg" viewBox="0 0 398.59 385.34">
  <defs>
    <style>
      .cls-1 {
        fill: #fab600;
      }

      .cls-2 {
        fill: #006ba6;
      }

      .cls-3 {
        fill: #009690;
      }

      .cls-4 {
        fill: #fff;
      }

      .cls-5 {
        fill: #ee7203;
      }

      .cls-6 {
        fill: #ee7003;
      }

      .cls-7 {
        fill: #009ee4;
      }

      .cls-8 {
        fill: #cce1ed;
      }

      .cls-9 {
        fill: #cadfea;
      }

      .cls-10 {
        fill: #12a639;
      }

      .cls-11 {
        fill: #633169;
      }

      .cls-12 {
        fill: none;
        stroke: #006ba6;
        stroke-width: 1.5px;
      }
    </style>
  </defs>
  <circle class="cls-12" cx="199.29" cy="206.29" r="141.89"/>
  <g>
    <path class="cls-8" d="m334.77,98.48c-6.51,0-13.13,1.01-19.65,3.13-16.19,5.26-29.37,16.52-37.1,31.69-7.73,15.17-9.09,32.45-3.83,48.65,5.26,16.2,16.51,29.38,31.68,37.11,9.1,4.64,18.95,6.98,28.88,6.98,6.63,0,13.28-1.04,19.77-3.15,16.19-5.26,29.37-16.52,37.1-31.69,7.73-15.17,9.09-32.45,3.83-48.65-8.74-26.92-33.8-44.06-60.67-44.06"/>
    <g>
      <path class="cls-4" d="m334.77,105.56c-5.79,0-11.67.9-17.47,2.78-14.39,4.68-26.11,14.68-32.98,28.17-6.87,13.49-8.08,28.85-3.4,43.24,4.68,14.4,14.68,26.11,28.16,32.99,8.09,4.12,16.85,6.21,25.67,6.21,5.89,0,11.81-.93,17.57-2.8,14.39-4.68,26.11-14.68,32.98-28.17,6.87-13.49,8.08-28.85,3.4-43.24-7.77-23.92-30.04-39.17-53.93-39.17"/>
      <g>
        <path class="cls-2" d="m329.14,191.15v.71h-8.48v-8.29h8.23v.71h-7.5v6.87h7.75Zm-1.78-.7c-.5-.62-1.27-1.43-2.14-2.25-.84.87-1.76,1.65-2.69,2.25-.13-.14-.41-.43-.59-.55.97-.58,1.92-1.34,2.76-2.2-.81-.75-1.66-1.5-2.44-2.14l.52-.44c.76.61,1.61,1.34,2.41,2.06.68-.75,1.28-1.58,1.76-2.42l.69.28c-.55.93-1.2,1.81-1.92,2.62.89.82,1.7,1.62,2.23,2.26l-.59.53Z"/>
        <path class="cls-2" d="m333.51,189.13c-1.04.49-2.17.99-3.03,1.38l-.29-.74c.37-.14.84-.33,1.36-.54v-3.1h-1.2v-.71h1.2v-2.27h.7v2.27h1.1v.71h-1.1v2.81l1.1-.46.16.65Zm3.24-.81c.47,1.5,1.36,2.67,2.7,3.21-.17.16-.4.46-.52.66-1.36-.66-2.26-1.91-2.78-3.57-.3,1.38-1.07,2.63-2.94,3.57-.1-.18-.33-.44-.5-.57,1.79-.87,2.5-2.04,2.77-3.3h-1.96v-.71h2.06c.04-.36.05-.72.05-1.09v-1.1h-1.81v-.7h1.81v-1.58h.71v1.58h2.24v2.89h.7v.71h-2.53Zm-.41-1.8c0,.37,0,.73-.04,1.09h1.58v-2.19h-1.54v1.1Z"/>
        <path class="cls-2" d="m341.43,184.83c-.21.49-.47.93-.74,1.29-.06-.15-.26-.5-.38-.65.47-.6.83-1.5,1.03-2.41l.64.17c-.08.31-.17.64-.29.95h1.47v.65h-1.73Zm1.66,5.25c.05.17.15.43.22.56-1.5,1.04-1.74,1.23-1.88,1.41-.08-.15-.27-.4-.39-.51.18-.14.48-.47.48-.95v-1.98h-1.04v-.65h1.04v-1.38h-.62v-.64h2.02v.64h-.73v1.38h1.03v.65h-1.03v2.06l.9-.59Zm1.61.34c.19.08.38.25.66.43.5.31,1.1.4,1.88.4.65,0,1.69-.04,2.35-.13-.07.21-.16.57-.17.78-.53.03-1.58.06-2.2.06-.84,0-1.45-.14-1.98-.47-.34-.24-.62-.48-.82-.48-.27,0-.67.52-1.04,1.06l-.48-.67c.38-.42.77-.77,1.12-.94v-3.32h-.72v-.68h1.4v3.96Zm-.56-5.01c-.15-.48-.48-1.23-.79-1.77l.61-.22c.32.55.66,1.27.82,1.74l-.64.25Zm2.91,3.76h-2.06v-.66h2.06v-1.35h-.91c-.38,0-.67.06-.76.14-.04-.15-.14-.48-.23-.67.15-.04.29-.3.46-.65.08-.18.27-.65.46-1.23h-1.08v-.67h1.3c.1-.35.18-.72.25-1.07l.74.14c-.08.31-.18.62-.28.93h2.36v.67h-2.58c-.24.65-.5,1.26-.76,1.78h1.03v-1.19h.71v1.19h1.42v.63h-1.42v1.35h1.67v.66h-1.67v1.67h-.71v-1.67Z"/>
      </g>
    </g>
    <polygon class="cls-11" points="340.86 172.3 328.61 172.3 331.32 170.54 338.15 170.54 340.86 172.3"/>
    <rect class="cls-11" x="323.75" y="149.9" width="6.12" height="1.77" transform="translate(29.26 353.27) rotate(-59)"/>
    <rect class="cls-11" x="341.73" y="147.72" width="1.77" height="6.12" transform="translate(-28.72 198) rotate(-31)"/>
    <polygon class="cls-7" points="358.91 158.49 350.04 163.82 350.04 174.59 358.91 169.59 358.91 158.49"/>
    <polygon class="cls-7" points="339.65 158.56 339.65 169.6 348.27 174.57 348.27 163.74 339.65 158.56"/>
    <polygon class="cls-7" points="357.92 157.02 349.16 151.83 340.56 157.05 349.21 162.25 357.92 157.02"/>
    <polygon class="cls-7" points="329.98 158.49 321.11 163.82 321.11 174.59 329.98 169.59 329.98 158.49"/>
    <polygon class="cls-7" points="310.72 158.56 310.72 169.6 319.34 174.57 319.34 163.74 310.72 158.56"/>
    <polygon class="cls-7" points="328.99 157.02 320.23 151.83 311.63 157.05 320.29 162.25 328.99 157.02"/>
    <polygon class="cls-11" points="344.41 133.89 335.54 139.22 335.54 149.99 344.41 144.99 344.41 133.89"/>
    <polygon class="cls-11" points="325.15 133.96 325.15 144.99 333.77 149.97 333.77 139.14 325.15 133.96"/>
    <polygon class="cls-11" points="343.42 132.42 334.66 127.23 326.06 132.45 334.72 137.65 343.42 132.42"/>
  </g>
  <g>
    <path class="cls-8" d="m282.98,257.78c-6.51,0-13.13,1.01-19.65,3.13-16.2,5.26-29.37,16.52-37.1,31.69-7.73,15.17-9.09,32.45-3.83,48.65,5.26,16.2,16.51,29.38,31.68,37.11,9.1,4.64,18.95,6.98,28.88,6.98,6.63,0,13.28-1.04,19.77-3.15,16.19-5.26,29.37-16.52,37.1-31.69,7.73-15.17,9.09-32.45,3.83-48.65-8.74-26.91-33.8-44.06-60.67-44.06"/>
    <g>
      <path class="cls-4" d="m282.99,264.87c-5.79,0-11.67.9-17.47,2.78-14.4,4.68-26.11,14.68-32.98,28.17-6.87,13.49-8.08,28.85-3.4,43.24,4.68,14.4,14.68,26.11,28.16,32.99,8.09,4.12,16.85,6.21,25.67,6.21,5.89,0,11.81-.93,17.57-2.8,14.39-4.68,26.11-14.68,32.98-28.17,6.87-13.49,8.08-28.85,3.4-43.24-7.77-23.92-30.04-39.17-53.93-39.17"/>
      <g>
        <path class="cls-2" d="m271.91,354.83c0,.47-.13.7-.45.83-.32.12-.86.14-1.76.13-.04-.21-.18-.53-.28-.74.66.03,1.31.02,1.5.02.18,0,.26-.07.26-.24v-6.84h-6.72v7.81h-.74v-8.51h8.19v7.54Zm-4.54-1.37c-.19-.36-.46-.8-.76-1.27-.4.94-.89,1.73-1.49,2.37-.11-.1-.42-.31-.58-.41.69-.67,1.22-1.56,1.6-2.62-.44-.63-.93-1.28-1.38-1.83l.46-.41c.39.45.79.97,1.17,1.48.19-.66.33-1.35.45-2.09l.68.07c-.16.97-.37,1.88-.64,2.7.39.56.74,1.1.98,1.53l-.49.48Zm2.88.3c-.2-.43-.48-.96-.82-1.52-.4.95-.89,1.75-1.52,2.4-.13-.11-.42-.32-.59-.41.74-.67,1.27-1.59,1.67-2.69-.43-.63-.91-1.28-1.36-1.84l.48-.37c.38.44.76.94,1.12,1.44.19-.65.32-1.34.43-2.07l.67.07c-.15.98-.35,1.88-.62,2.7.44.67.82,1.33,1.06,1.86l-.52.43Z"/>
        <path class="cls-2" d="m282.13,347.9c-.42.99-1.09,1.82-1.88,2.51.66.45,1.45.81,2.3,1.03-.13.18-.25.48-.3.68-.93-.3-1.81-.74-2.54-1.3-.82.59-1.76,1.04-2.7,1.36-.06-.2-.21-.53-.32-.69.87-.25,1.72-.63,2.47-1.12-.44-.4-.81-.86-1.11-1.34-.28.39-.59.73-.9,1.02-.1-.13-.31-.42-.45-.56-.58.95-1.25,1.88-1.92,2.65l1.83-.4c-.02.19,0,.49.02.65-2.46.6-2.79.7-3,.83-.04-.15-.16-.51-.24-.71.21-.04.45-.28.75-.65.19-.18.59-.69,1.03-1.32-1.23.17-1.47.23-1.61.3-.04-.16-.15-.52-.24-.72.17-.05.35-.27.57-.61.22-.33.96-1.59,1.37-2.78l.7.34c-.44,1.02-1.03,2.09-1.61,2.92l1.26-.13c.22-.34.42-.69.6-1.03l.65.39-.11.19c.77-.7,1.47-1.75,1.89-2.85l.67.2c-.12.29-.26.6-.4.88h2.65l.14-.02.43.28Zm-8.74,6.64c.83-.2,2.1-.57,3.35-.93l.12.65c-1.17.35-2.39.72-3.31,1.02l-.16-.74Zm4.21-2.45h4.23v3.63h-.72v-.48h-2.82v.49h-.69v-3.64Zm.69.67v1.82h2.82v-1.82h-2.82Zm.17-4.32c.29.58.71,1.09,1.23,1.53.59-.47,1.1-1.01,1.46-1.65h-2.62l-.07.12Z"/>
        <path class="cls-2" d="m290.49,351.28c-.35.93-.83,1.68-1.43,2.28,1.23.52,2.36,1.07,3.12,1.56l-.61.64c-.73-.5-1.88-1.09-3.14-1.64-1.06.82-2.4,1.32-4.03,1.68-.08-.19-.31-.51-.47-.68,1.51-.26,2.76-.67,3.73-1.33-.9-.36-1.81-.7-2.64-.96h0c.33-.43.7-.97,1.06-1.55h-2.3v-.71h2.72c.3-.55.59-1.11.79-1.61l.8.17c-.2.45-.45.95-.72,1.44h5.01v.71h-1.9Zm-5.71-1.43h-.74v-2h3.66c-.14-.31-.32-.69-.47-.99l.76-.18c.2.37.43.83.58,1.17h3.55v2h-.77v-1.31h-6.57v1.31Zm2.19,1.43c-.27.44-.54.86-.79,1.22.69.22,1.43.49,2.15.77.56-.53,1.01-1.19,1.31-1.99h-2.67Z"/>
        <path class="cls-2" d="m298.6,351.03v1.55h2.69v.66h-2.69v1.63h3.87v.68h-8.45v-.68h3.82v-1.63h-2.57v-.66h2.57v-1.55h-2.63v-.65c-.38.26-.78.48-1.17.68-.11-.2-.33-.44-.52-.61,1.81-.83,3.63-2.29,4.63-3.86l.66.3c-.06.09-.12.18-.18.27,1.23,1.43,2.7,2.46,4.32,3.31-.19.16-.41.41-.52.63-.39-.24-.77-.47-1.14-.72v.65h-2.69Zm2.66-.67c-1.1-.74-2.1-1.58-3.04-2.66-.81,1.01-1.86,1.93-2.98,2.66h6.02Z"/>
      </g>
    </g>
    <g>
      <path class="cls-3" d="m265.08,317.44h-4.54c-.52,0-.94-.42-.94-.94s.42-.94.94-.94h4.54c.52,0,.94.42.94.94s-.42.94-.94.94"/>
      <path class="cls-3" d="m256.29,313.94c-1.41,0-2.56,1.15-2.56,2.56s1.15,2.56,2.56,2.56,2.56-1.15,2.56-2.56-1.15-2.56-2.56-2.56m0,7c-2.45,0-4.44-1.99-4.44-4.44s1.99-4.44,4.44-4.44,4.44,1.99,4.44,4.44-1.99,4.44-4.44,4.44"/>
      <path class="cls-3" d="m265.24,288.45c-1.41,0-2.56,1.15-2.56,2.56s1.15,2.56,2.56,2.56,2.56-1.15,2.56-2.56-1.15-2.56-2.56-2.56m0,7c-2.45,0-4.44-1.99-4.44-4.44s1.99-4.44,4.44-4.44,4.44,1.99,4.44,4.44-1.99,4.44-4.44,4.44"/>
      <path class="cls-3" d="m305.52,317.44h-4.54c-.52,0-.94-.42-.94-.94s.42-.94.94-.94h4.54c.52,0,.94.42.94.94s-.42.94-.94.94"/>
      <path class="cls-3" d="m309.77,313.94c-1.41,0-2.56,1.15-2.56,2.56s1.15,2.56,2.56,2.56,2.56-1.15,2.56-2.56-1.15-2.56-2.56-2.56m0,7c-2.45,0-4.44-1.99-4.44-4.44s1.99-4.44,4.44-4.44,4.44,1.99,4.44,4.44-1.99,4.44-4.44,4.44"/>
      <path class="cls-3" d="m300.82,288.45c-1.41,0-2.56,1.15-2.56,2.56s1.15,2.56,2.56,2.56,2.56-1.15,2.56-2.56-1.15-2.56-2.56-2.56m0,7c-2.45,0-4.44-1.99-4.44-4.44s1.99-4.44,4.44-4.44,4.44,1.99,4.44,4.44-1.99,4.44-4.44,4.44"/>
      <path class="cls-6" d="m272.79,327.76h-3.52c-.52,0-.94-.42-.94-.94s.42-.94.94-.94h3.52c.52,0,.94.42.94.94s-.42.94-.94.94"/>
      <path class="cls-6" d="m277.6,327.76h-1.11c-.52,0-.94-.42-.94-.94s.42-.94.94-.94h1.11c.52,0,.94.42.94.94s-.42.94-.94.94"/>
      <path class="cls-5" d="m284.94,327.76h-3.82c-.52,0-.94-.42-.94-.94s.42-.94.94-.94h3.82c.52,0,.94.42.94.94s-.42.94-.94.94"/>
      <path class="cls-6" d="m265.08,302.56h-4.54c-.52,0-.94-.42-.94-.94s.42-.94.94-.94h4.54c.52,0,.94.42.94.94s-.42.94-.94.94"/>
      <path class="cls-6" d="m264.91,310h-4.38c-.52,0-.94-.42-.94-.94s.42-.94.94-.94h4.38c.52,0,.94.42.94.94s-.42.94-.94.94"/>
      <path class="cls-6" d="m256.33,310h-1.11c-.52,0-.94-.42-.94-.94s.42-.94.94-.94h1.11c.52,0,.94.42.94.94s-.42.94-.94.94"/>
      <path class="cls-6" d="m256.29,299.06c-1.41,0-2.56,1.15-2.56,2.56s1.15,2.56,2.56,2.56,2.56-1.15,2.56-2.56-1.15-2.56-2.56-2.56m0,7c-2.45,0-4.44-1.99-4.44-4.44s1.99-4.44,4.44-4.44,4.44,1.99,4.44,4.44-1.99,4.44-4.44,4.44"/>
      <path class="cls-6" d="m265.24,324.26c-1.41,0-2.56,1.15-2.56,2.56s1.15,2.56,2.56,2.56,2.56-1.15,2.56-2.56-1.15-2.56-2.56-2.56m0,7c-2.45,0-4.44-1.99-4.44-4.44s1.99-4.44,4.44-4.44,4.44,1.99,4.44,4.44-1.99,4.44-4.44,4.44"/>
      <path class="cls-6" d="m305.52,302.56h-4.54c-.52,0-.94-.42-.94-.94s.42-.94.94-.94h4.54c.52,0,.94.42.94.94s-.42.94-.94.94"/>
      <path class="cls-6" d="m305.52,310h-4.38c-.52,0-.94-.42-.94-.94s.42-.94.94-.94h4.38c.52,0,.94.42.94.94s-.42.94-.94.94"/>
      <path class="cls-6" d="m296.78,327.76h-3.52c-.52,0-.94-.42-.94-.94s.42-.94.94-.94h3.52c.52,0,.94.42.94.94s-.42.94-.94.94"/>
      <path class="cls-6" d="m310.84,310h-1.11c-.52,0-.94-.42-.94-.94s.42-.94.94-.94h1.11c.52,0,.94.42.94.94s-.42.94-.94.94"/>
      <path class="cls-6" d="m289.57,327.76h-1.11c-.52,0-.94-.42-.94-.94s.42-.94.94-.94h1.11c.52,0,.94.42.94.94s-.42.94-.94.94"/>
      <path class="cls-6" d="m284.94,327.76h-3.82c-.52,0-.94-.42-.94-.94s.42-.94.94-.94h3.82c.52,0,.94.42.94.94s-.42.94-.94.94"/>
      <path class="cls-6" d="m309.77,299.06c-1.41,0-2.56,1.15-2.56,2.56s1.15,2.56,2.56,2.56,2.56-1.15,2.56-2.56-1.15-2.56-2.56-2.56m0,7c-2.45,0-4.44-1.99-4.44-4.44s1.99-4.44,4.44-4.44,4.44,1.99,4.44,4.44-1.99,4.44-4.44,4.44"/>
      <path class="cls-6" d="m300.82,324.26c-1.41,0-2.56,1.15-2.56,2.56s1.15,2.56,2.56,2.56,2.56-1.15,2.56-2.56-1.15-2.56-2.56-2.56m0,7c-2.45,0-4.44-1.99-4.44-4.44s1.99-4.44,4.44-4.44,4.44,1.99,4.44,4.44-1.99,4.44-4.44,4.44"/>
      <path class="cls-11" d="m283.03,290.65c3.06,0,5.55,2.49,5.55,5.55v3.56c0,.22.17.39.39.39h2.38c.21,0,.39-.17.39-.39v-3.56c0-4.8-3.9-8.7-8.7-8.7s-8.7,3.9-8.7,8.7v3.56c0,.22.17.39.39.39h2.37c.22,0,.39-.17.39-.39v-3.56c0-3.06,2.49-5.55,5.55-5.55"/>
      <path class="cls-11" d="m283.03,306.82c-1.41,0-2.56,1.15-2.56,2.56s1.15,2.56,2.56,2.56,2.56-1.15,2.56-2.56-1.15-2.56-2.56-2.56"/>
      <path class="cls-11" d="m283.97,313.72v2.48c0,.52-.42.94-.94.94s-.94-.42-.94-.94v-2.48c-2-.43-3.5-2.21-3.5-4.34,0-2.45,1.99-4.44,4.44-4.44s4.44,1.99,4.44,4.44c0,2.13-1.5,3.91-3.5,4.34m10.93-11.98h-23.74c-.21,0-.39.17-.39.39v8.45c0,6.26,6.47,10.93,12.26,10.93s12.26-4.68,12.26-10.93v-8.45c0-.22-.18-.39-.39-.39"/>
    </g>
  </g>
  <g>
    <path class="cls-9" d="m115.49,257.78c-6.51,0-13.13,1.01-19.65,3.13-16.19,5.26-29.37,16.52-37.1,31.69-7.73,15.18-9.09,32.45-3.83,48.65,5.26,16.2,16.51,29.38,31.69,37.11,9.1,4.64,18.95,6.98,28.88,6.98,6.63,0,13.28-1.04,19.77-3.15,16.19-5.26,29.37-16.52,37.1-31.69,7.73-15.17,9.09-32.45,3.83-48.65-8.74-26.91-33.8-44.06-60.67-44.06"/>
    <g>
      <path class="cls-4" d="m115.49,264.87c-5.79,0-11.67.9-17.47,2.78-14.4,4.68-26.11,14.68-32.98,28.17-6.87,13.49-8.08,28.85-3.4,43.24,4.68,14.4,14.68,26.11,28.17,32.99,8.09,4.12,16.85,6.21,25.67,6.21,5.89,0,11.81-.93,17.57-2.8,14.39-4.68,26.11-14.68,32.98-28.17,6.87-13.49,8.08-28.85,3.4-43.24-7.77-23.92-30.04-39.17-53.93-39.17"/>
      <g>
        <path class="cls-2" d="m87.74,349.82c-.5.59-1.15,1.14-1.76,1.46-.08-.17-.26-.42-.4-.56.7-.3,1.44-.91,1.93-1.56h-1.83v-.62h2.06v-1.85h.69v1.85h2.04v.62h-1.88c.5.29,1.36.85,1.59,1.02l-.41.54c-.24-.23-.86-.72-1.34-1.06v1.37h-.69v-1.21Zm1.55,5.28c-.23-.17-.53-.37-.87-.56-.71.57-1.56.96-2.47,1.2-.07-.16-.22-.43-.35-.57.81-.18,1.57-.5,2.22-.96-.5-.26-1.04-.51-1.53-.69.21-.3.43-.67.64-1.06h-1.04v-.63h1.35c.1-.22.19-.43.26-.64l.66.12c-.07.17-.13.34-.21.52h1.63l.11-.03.42.17c-.26.86-.67,1.56-1.2,2.12.32.18.62.36.84.52l-.46.49Zm-2.61-6.63c-.09-.35-.35-.9-.62-1.31l.54-.22c.28.39.55.92.65,1.29l-.57.24Zm.96,3.99c-.15.28-.3.56-.44.79.37.16.77.35,1.13.53.39-.36.71-.8.93-1.32h-1.62Zm2.57-5.3c-.29.45-.61.95-.89,1.28l-.48-.23c.25-.36.58-.93.75-1.33l.62.28Zm3.72,2.15c-.23,1.49-.56,2.73-1.09,3.76.51.91,1.16,1.65,1.99,2.09-.17.14-.38.39-.49.58-.77-.47-1.4-1.15-1.89-2-.59.87-1.35,1.57-2.37,2.12-.07-.16-.28-.46-.41-.6,1.08-.53,1.86-1.26,2.42-2.21-.38-.78-.66-1.68-.88-2.67-.2.49-.43.93-.68,1.31-.12-.12-.4-.35-.56-.45.76-1.05,1.21-2.72,1.46-4.45l.68.1c-.08.59-.2,1.17-.34,1.73h2.82v.69h-.66Zm-2.31,0c.19,1.08.47,2.1.85,2.99.36-.84.6-1.84.75-2.99h-1.6Z"/>
        <path class="cls-2" d="m97.69,352.09v2.81c0,.41-.09.6-.34.72-.23.12-.61.15-1.24.14-.03-.18-.12-.48-.22-.69.43,0,.83,0,.94,0,.12,0,.17-.04.17-.19v-2.57c-.42.14-.82.26-1.18.37l-.18-.71c.37-.11.84-.25,1.36-.4v-2.19h-1.24v-.69h1.24v-2h.69v2h1.13v.69h-1.13v1.98l1.04-.33.1.68-1.14.37Zm4.93-.65v1.23h1.92v3.13h-.68v-.37h-3.07v.41h-.65v-3.17h1.77v-1.23h-1.97c-.09,1.48-.36,3.16-1.2,4.39-.12-.14-.43-.35-.6-.42,1.03-1.53,1.12-3.7,1.12-5.28v-3h5.24v2.57h-1.88v1.1h2.22v.64h-2.22Zm-.71-.64v-1.1h-1.93v.43c0,.22,0,.43,0,.67h1.94Zm-1.93-3.02v1.27h3.81v-1.27h-3.81Zm3.88,5.52h-3.07v1.51h3.07v-1.51Z"/>
        <path class="cls-2" d="m112.22,353.39h-6.18v-.72h6.18v.72Zm2.08-2.82s-.01.26-.03.36c-.28,2.85-.56,3.99-1.01,4.42-.25.26-.51.33-.93.35-.36.02-1.08,0-1.78-.04-.02-.22-.13-.53-.28-.73.78.07,1.55.07,1.84.07.25,0,.4-.01.51-.12.38-.29.63-1.32.86-3.61h-6.38c.31-1.11.71-2.99.95-4.36l.75.08c-.07.34-.13.71-.21,1.08h5.56v.71h-5.7c-.14.63-.27,1.25-.4,1.79h6.25Z"/>
        <path class="cls-2" d="m118.16,349.82c-.5.59-1.15,1.14-1.76,1.46-.08-.17-.26-.42-.4-.56.7-.3,1.44-.91,1.93-1.56h-1.83v-.62h2.06v-1.85h.69v1.85h2.04v.62h-1.88c.5.29,1.36.85,1.59,1.02l-.41.54c-.24-.23-.86-.72-1.34-1.06v1.37h-.69v-1.21Zm1.55,5.28c-.23-.17-.53-.37-.87-.56-.71.57-1.56.96-2.47,1.2-.07-.16-.22-.43-.35-.57.81-.18,1.57-.5,2.22-.96-.5-.26-1.04-.51-1.53-.69.21-.3.43-.67.64-1.06h-1.04v-.63h1.35c.1-.22.19-.43.26-.64l.66.12c-.07.17-.13.34-.21.52h1.63l.11-.03.42.17c-.26.86-.67,1.56-1.2,2.12.32.18.62.36.84.52l-.46.49Zm-2.61-6.63c-.09-.35-.35-.9-.62-1.31l.54-.22c.28.39.55.92.65,1.29l-.57.24Zm.96,3.99c-.15.28-.3.56-.44.79.37.16.77.35,1.13.53.39-.36.71-.8.93-1.32h-1.62Zm2.57-5.3c-.29.45-.61.95-.89,1.28l-.48-.23c.25-.36.58-.93.75-1.33l.62.28Zm3.72,2.15c-.23,1.49-.56,2.73-1.09,3.76.51.91,1.16,1.65,1.99,2.09-.17.14-.38.39-.49.58-.77-.47-1.4-1.15-1.89-2-.59.87-1.35,1.57-2.37,2.12-.07-.16-.28-.46-.41-.6,1.08-.53,1.86-1.26,2.42-2.21-.38-.78-.66-1.68-.88-2.67-.2.49-.43.93-.68,1.31-.12-.12-.4-.35-.56-.45.76-1.05,1.21-2.72,1.46-4.45l.68.1c-.08.59-.2,1.17-.34,1.73h2.82v.69h-.66Zm-2.31,0c.19,1.08.47,2.1.85,2.99.36-.84.6-1.84.75-2.99h-1.6Z"/>
        <path class="cls-2" d="m134.97,352.76h-3.88v2.15c0,.44-.11.66-.46.77-.35.12-.87.13-1.7.13-.06-.21-.21-.54-.34-.73.68.02,1.32.02,1.49.01.19-.01.24-.05.24-.19v-2.14h-3.9v-.71h3.9v-.62c.58-.28,1.24-.73,1.74-1.17h-4v-.7h4.75l.16-.04.51.39c-.63.64-1.52,1.31-2.39,1.77v.37h3.88v.71Zm-7.7-2.98h-.73v-2.04h3.94c-.14-.29-.33-.62-.52-.88l.71-.24c.26.34.53.78.67,1.12h3.53v2.04h-.76v-1.33h-6.84v1.33Z"/>
        <path class="cls-2" d="m139.73,346.93c-.28.68-.63,1.35-1.01,1.97v6.93h-.77v-5.77c-.37.49-.75.94-1.15,1.31-.09-.16-.34-.55-.49-.71,1.06-.95,2.08-2.43,2.69-3.96l.73.23Zm4.29,7.98c.53,0,.6-.43.68-2.13.2.15.51.31.73.36-.1,1.86-.32,2.5-1.37,2.5h-1.76c-1,0-1.28-.3-1.28-1.41v-1.72c-.46.3-.93.57-1.39.8-.12-.15-.36-.41-.55-.56.64-.31,1.3-.7,1.94-1.14v-4.73h.78v4.14c1.04-.83,1.99-1.81,2.68-2.88l.73.48c-.91,1.27-2.13,2.42-3.41,3.35v2.28c0,.55.1.66.58.66h1.64Z"/>
      </g>
    </g>
    <g>
      <path class="cls-11" d="m126.31,303.66h-3.27v-3.12c0-.27.22-.49.49-.49h2.29c.27,0,.49.22.49.49v3.12Zm-6.1,0h-3.27v-5.92c0-.27.22-.49.49-.49h2.29c.27,0,.49.22.49.49v5.92Zm-6.1,0h-3.27v-12.33c0-.27.22-.49.49-.49h2.29c.27,0,.49.22.49.49v12.33Zm-6.1,0h-3.27v-7.4c0-.27.22-.49.49-.49h2.29c.27,0,.49.22.49.49v7.4Zm22.56-6.79c-.47,0-.93.07-1.37.19-1.14-2.5-3.66-4.24-6.59-4.24h-1.69c-1.44-3.66-5.01-6.25-9.18-6.25-4.73,0-8.68,3.34-9.64,7.78-3.82.2-6.85,3.35-6.85,7.22,0,2.25,1.03,4.26,2.64,5.59l32.68.14c2.88,0,5.22-2.34,5.22-5.22s-2.34-5.22-5.22-5.22"/>
      <path class="cls-1" d="m117.27,325.42c-.99,0-1.8.81-1.8,1.8s.81,1.8,1.8,1.8,1.8-.81,1.8-1.8-.81-1.8-1.8-1.8m0,5.28c-1.92,0-3.49-1.56-3.49-3.49s1.56-3.49,3.49-3.49,3.49,1.56,3.49,3.49-1.56,3.49-3.49,3.49"/>
      <path class="cls-1" d="m125.8,326.01c-1.92,0-3.49,1.56-3.49,3.49s1.56,3.49,3.49,3.49,3.49-1.56,3.49-3.49-1.56-3.49-3.49-3.49"/>
      <path class="cls-1" d="m108.26,329.41c-1.92,0-3.49,1.56-3.49,3.49s1.56,3.49,3.49,3.49,3.49-1.56,3.49-3.49-1.56-3.49-3.49-3.49"/>
      <path class="cls-1" d="m132.39,318.34c-.99,0-1.8.81-1.8,1.8s.81,1.8,1.8,1.8,1.8-.81,1.8-1.8-.81-1.8-1.8-1.8m0,5.28c-1.92,0-3.49-1.56-3.49-3.49s1.56-3.49,3.49-3.49,3.49,1.56,3.49,3.49-1.56,3.49-3.49,3.49"/>
      <path class="cls-1" d="m98.68,320.98c-.99,0-1.8.81-1.8,1.8s.81,1.8,1.8,1.8,1.8-.81,1.8-1.8-.81-1.8-1.8-1.8m0,5.28c-1.92,0-3.49-1.56-3.49-3.49s1.56-3.49,3.49-3.49,3.49,1.56,3.49,3.49-1.56,3.49-3.49,3.49"/>
      <path class="cls-1" d="m108.48,331.1c-.47,0-.85-.38-.85-.85v-21.05c0-.47.38-.85.85-.85s.85.38.85.85v21.05c0,.47-.38.85-.85.85"/>
      <path class="cls-1" d="m108.26,323.62h-6.65c-.47,0-.85-.38-.85-.85s.38-.85.85-.85h6.65c.47,0,.85.38.85.85s-.38.85-.85.85"/>
      <path class="cls-1" d="m117.33,325.06c-.47,0-.85-.38-.85-.85v-7.32h-8.01c-.47,0-.85-.38-.85-.85s.38-.85.85-.85h8.86c.47,0,.85.38.85.85v8.16c0,.47-.38.85-.85.85"/>
      <path class="cls-1" d="m129.74,320.98h-12.41c-.47,0-.85-.38-.85-.85s.38-.85.85-.85h12.41c.47,0,.85.38.85.85s-.38.85-.85.85"/>
      <path class="cls-1" d="m125.8,327.7c-.47,0-.85-.38-.85-.85v-6.72c0-.47.38-.85.85-.85s.85.38.85.85v6.72c0,.47-.38.85-.85.85"/>
    </g>
  </g>
  <g>
    <path class="cls-8" d="m63.73,98.46c-6.51,0-13.13,1.01-19.65,3.13-16.19,5.26-29.37,16.52-37.1,31.69-7.73,15.17-9.09,32.45-3.83,48.65,5.26,16.2,16.51,29.38,31.68,37.11,9.1,4.64,18.95,6.98,28.88,6.98,6.63,0,13.28-1.04,19.77-3.15,16.19-5.26,29.37-16.52,37.1-31.69,7.73-15.17,9.09-32.45,3.83-48.65-8.74-26.92-33.8-44.06-60.67-44.06"/>
    <g>
      <path class="cls-4" d="m63.74,105.55c-5.79,0-11.67.9-17.47,2.78-14.4,4.68-26.11,14.68-32.98,28.17-6.87,13.49-8.08,28.85-3.4,43.24,4.68,14.4,14.68,26.11,28.17,32.99,8.09,4.12,16.85,6.21,25.67,6.21,5.89,0,11.81-.93,17.57-2.8,14.39-4.68,26.11-14.68,32.98-28.17,6.87-13.49,8.08-28.85,3.4-43.24-7.77-23.92-30.04-39.17-53.93-39.17"/>
      <g>
        <path class="cls-2" d="m58.06,180.11h-1.23v6.62c0,.54-.13.8-.51.91-.4.14-1.09.14-2.07.14-.05-.21-.2-.58-.32-.79.8.04,1.62.03,1.85.02.22-.01.29-.08.29-.29v-6.61h-6.86v-.74h8.85v.74Zm-7.11,5.17v.8h-.72v-4.51h4.06v3.71h-3.34Zm0-2.99v2.28h2.61v-2.28h-2.61Z"/>
        <path class="cls-2" d="m62.28,183.69l-1.09.35v2.86c0,.41-.09.61-.34.73-.23.12-.61.15-1.24.14-.03-.19-.12-.49-.22-.7.43.02.82.02.93,0,.13,0,.18-.04.18-.18v-2.63c-.44.15-.86.28-1.23.39l-.19-.71c.39-.11.88-.26,1.42-.43v-2.16h-1.28v-.69h1.28v-2h.69v2h1.06v.69h-1.06v1.96l.99-.31.1.68Zm4.76-1.1v1.1h1.23v.68h-1.23v2.52c0,.46-.09.66-.38.77-.3.12-.78.13-1.52.13-.03-.22-.13-.51-.23-.72.56.02,1.09.02,1.24,0,.14,0,.19-.05.19-.19v-2.52h-3.83v-.68h3.83v-1.1h-3.95v-.69h2.63v-1.27h-2.12v-.68h2.12v-1.24h.71v1.24h2.13v.68h-2.13v1.27h2.61v.69h-1.3Zm-3.22,2.06c.44.52.93,1.24,1.14,1.72l-.62.37c-.19-.48-.66-1.23-1.09-1.75l.57-.34Z"/>
        <path class="cls-2" d="m72.41,183.7c0,.18.02.47.04.61-2.32.63-2.64.75-2.84.88-.03-.14-.14-.45-.21-.63.2-.04.42-.29.71-.67.18-.2.55-.72.96-1.37-1.14.16-1.38.22-1.52.29-.04-.15-.14-.48-.23-.67.17-.04.35-.27.57-.61.22-.33.95-1.64,1.35-2.85l.65.31c-.45,1.05-1.02,2.15-1.61,3.02l1.18-.12c.21-.37.43-.74.6-1.12l.58.34c-.58,1.07-1.26,2.14-1.96,3.01l1.73-.42Zm.11,2.27c-1.04.42-2.13.83-2.98,1.15l-.17-.7c.76-.23,1.91-.65,3.03-1.05l.12.6Zm3.27-.8c-.35.96-1.13,1.91-2.82,2.65-.09-.17-.29-.43-.44-.55,1.42-.6,2.13-1.35,2.5-2.1h-2.31v-.66h2.54c.1-.4.12-.8.12-1.18v-1.18h.69v1.19c0,.38-.02.77-.1,1.17h2.29v.66h-2.47Zm1.17-2.24c.13-.31.3-.74.44-1.17h-4.49v-.65h2.18v-.89h-1.8v-.63h1.8v-.92h.73v.92h1.91v.63h-1.91v.89h1.84l.12-.03.48.13c-.22.66-.47,1.41-.72,1.88l-.58-.16Zm-3.67.1c.45.26,1,.64,1.27.92l-.37.43c-.26-.29-.81-.7-1.27-.97l.37-.38Zm1.57.41c-.25-.29-.77-.67-1.21-.93l.34-.36c.44.24.98.6,1.24.87l-.37.42Zm1.38,2.11c.77.52,1.74,1.29,2.2,1.8l-.47.47c-.45-.52-1.4-1.32-2.19-1.87l.46-.4Z"/>
      </g>
      <g>
        <path class="cls-2" d="m48.26,201.45c0,.32-.06.51-.28.63-.2.12-.51.13-1.01.13-.03-.18-.1-.46-.2-.64.35,0,.63,0,.72,0,.11,0,.14-.03.14-.14v-1.5h-.9v1.83h-.54v-1.83h-.97c-.1.85-.31,1.72-.75,2.39-.1-.11-.39-.29-.54-.35.67-1.05.74-2.53.74-3.65v-1.84c-.07.09-.15.18-.22.27-.1-.11-.39-.33-.54-.43.7-.77,1.25-1.95,1.56-3.17l.67.14c-.07.25-.15.5-.23.75h1.38l.11-.03.45.29c-.17.44-.4.95-.63,1.37h1.04v5.77Zm-2.57-6.81c-.16.36-.32.72-.5,1.04h1.34c.16-.3.33-.69.45-1.04h-1.29Zm.5,4.71v-1.32h-.88v.31c0,.31-.01.66-.03,1.01h.91Zm-.88-1.88h.88v-1.2h-.88v1.2Zm1.42,0h.9v-1.2h-.9v1.2Zm.9,1.88v-1.32h-.9v1.32h.9Zm3.05-5.05c-.2,1.17-.65,2.14-1.83,2.71-.08-.16-.27-.4-.41-.52,1.01-.45,1.4-1.25,1.57-2.19h-1.36v-.63h4.19s0,.19,0,.29c-.08,1.64-.17,2.28-.38,2.52-.13.16-.3.23-.54.25-.21.02-.62.01-1.03,0-.02-.19-.08-.45-.18-.62.39.04.77.04.9.04.14,0,.22,0,.29-.09.1-.13.18-.59.25-1.75h-1.46Zm2.43,6.08h-1.74v1.91h-.7v-1.91h-2.01v-.65h2.01v-1.22h-1.09c-.16.37-.32.7-.52.97-.13-.09-.41-.24-.57-.31.43-.56.74-1.39.9-2.23l.64.12c-.06.28-.14.54-.22.81h.86v-.95h.7v.95h1.49v.64h-1.49v1.22h1.74v.65Z"/>
        <path class="cls-2" d="m56.38,198.57c-.46,1.07-1.1,2.33-1.64,3.28l-.63-.45c.49-.79,1.2-2.13,1.72-3.29l.55.46Zm-.62-2.62c-.28-.55-.96-1.42-1.53-2.03l.59-.36c.57.59,1.27,1.43,1.58,1.97l-.64.42Zm4.68,2.51c.48,1.53,1.43,2.68,2.89,3.18-.17.15-.38.45-.49.64-1.53-.62-2.5-1.84-3.03-3.54-.34,1.33-1.16,2.62-3.08,3.58-.11-.16-.35-.45-.53-.59,1.9-.86,2.63-2.06,2.91-3.27h-2.34v-.72h2.46c.04-.43.05-.85.05-1.25v-1.04h-2v-.71h2v-1.56h.76v1.56h2.24v3h.99v.72h-2.83Zm-.4-1.97c0,.4-.01.82-.06,1.25h1.58v-2.29h-1.52v1.04Z"/>
        <path class="cls-2" d="m68.07,195.62c-.03.52-.07,1.05-.14,1.58h4.25s0,.25-.03.36c-.19,2.81-.39,3.89-.78,4.28-.24.25-.47.32-.86.35-.35.02-1,.01-1.67-.04-.02-.22-.12-.52-.26-.72.71.06,1.41.07,1.67.07.23,0,.36-.02.47-.11.3-.26.49-1.22.66-3.47h-3.56c-.32,1.76-1.07,3.41-2.95,4.41-.12-.2-.35-.46-.54-.6,2.55-1.27,2.81-3.83,2.92-6.11h-2.7v-.73h4.37c-.13-.4-.42-1.04-.68-1.5l.71-.28c.27.47.58,1.07.72,1.48l-.69.3h4.17v.73h-5.08Z"/>
        <path class="cls-2" d="m79.94,199.85c.91.77,2.37,1.42,3.72,1.71-.17.15-.37.43-.48.61-1.39-.37-2.92-1.16-3.87-2.11v2.23h-.73v-2.19c-.93.92-2.4,1.7-3.77,2.06-.11-.17-.31-.46-.47-.59,1.34-.3,2.78-.96,3.66-1.72h-3.47v-.63h4.05v-.82h.73v.82h4.13v.63h-3.5Zm2.55-1.07c-.81-.3-1.9-.6-3.17-.88-1.12.47-2.59.71-4.44.84-.05-.2-.16-.44-.28-.6,1.43-.07,2.61-.22,3.57-.49-.73-.14-1.49-.27-2.28-.39.34-.3.71-.67,1.08-1.07h-2.34v-.61h2.87c.26-.31.49-.62.68-.91l.66.21c-.15.22-.35.47-.54.7h5.04v.61h-1.93c-.3.52-.73.94-1.27,1.28,1.15.26,2.18.53,2.97.8l-.62.51Zm-6.99-3.43h-.7v-1.43h3.85c-.12-.2-.25-.41-.36-.59l.62-.22c.18.25.38.56.52.81h3.76v1.43h-.72v-.8h-6.97v.8Zm2.26.84c-.25.25-.48.49-.71.7.73.11,1.46.24,2.15.39.59-.29,1.05-.64,1.39-1.09h-2.83Z"/>
      </g>
    </g>
    <g>
      <path class="cls-10" d="m45.13,134.68c.58-.13,1.67-.33,3.02-.33,1.48,0,3.27.24,5.02,1.07,1.05.5,2.04,1.05,3,1.58l.03.02c2.81,1.57,5.47,3.05,8.94,2.82,2.73-.19,5.47-1.33,7.93-3.3.53-.42,1.04-.88,1.52-1.36-1.09-.79-2.16-1.45-3.18-1.96-.6.57-1.53,1.26-3,2.19-1.68,1.07-3.4,2.05-3.42,2.05-.25.14-.53.21-.81.21-.6,0-1.15-.32-1.45-.85-.45-.8-.16-1.81.63-2.26,2.2-1.24,3.65-2.19,4.45-2.74-.96-.27-1.94-.47-2.92-.59h-.01c-.22.27-.51.56-.89.88-.53.45-1.27.98-2.18,1.59-1.53,1.01-3.07,1.9-3.09,1.91-.25.15-.54.22-.83.22-.59,0-1.14-.32-1.44-.83-.22-.38-.28-.83-.16-1.26.11-.43.39-.79.77-1.01.13-.08,1.18-.69,2.34-1.43-3.01.44-5.03,1.42-5.05,1.43-.23.11-.49.18-.74.18-.63,0-1.2-.35-1.48-.91-.41-.82-.08-1.82.74-2.23.08-.04,1.81-.9,4.55-1.48-.15-.04-.24-.06-.26-.06-.9-.2-1.46-1.08-1.27-1.98.17-.76.85-1.3,1.62-1.3.12,0,.24.01.36.04.07.01,1.62.36,3.24.95,1.09.4,1.94.8,2.6,1.23-.02-.06-.05-.11-.07-.17-.14-.42-.1-.87.1-1.27.29-.56.85-.9,1.48-.9.26,0,.52.06.76.18.06.03,1.4.72,2.82,1.71,1.56,1.09,2.58,2.09,3.14,3.08.31.14.6.27.87.4.69.34,1.4.74,2.12,1.2-.76-1.43-1.97-3.26-3.71-4.86-2.56-2.35-5.57-3.55-8.97-3.58h-.09c-2.26,0-4.56.62-6.84,1.85-1.86,1-3.71,2.4-5.5,4.16-2.46,2.43-4.09,4.81-4.67,5.71"/>
      <path class="cls-10" d="m81.17,137.7c-.16-.18-3.99-4.39-8.76-6.75-.33-.16-.69-.33-1.1-.51-.44-.94-1.42-1.93-3.01-3.04-1.37-.96-2.67-1.62-2.72-1.65-.12-.06-.25-.09-.37-.09-.31,0-.59.17-.73.45-.1.19-.12.42-.05.63.07.21.21.38.41.48,1.15.59,2.4,1.4,3.34,2.14-1.32-.35-2.67-.58-4.03-.68-.56-.7-1.65-1.34-3.33-1.95-1.57-.57-3.07-.9-3.14-.92-.06-.01-.12-.02-.18-.02-.38,0-.72.27-.8.64-.1.44.18.88.63.98.06.01,1.49.33,2.93.86.34.12.65.25.93.37-.72.04-1.43.11-2.13.21-3.49.51-5.73,1.62-5.82,1.67-.4.2-.57.7-.36,1.1.14.28.42.45.73.45.13,0,.25-.03.37-.09.02-.01,2.15-1.06,5.37-1.52.99-.14,2-.21,3.01-.22-.4.33-1.07.84-2.18,1.56-1.36.89-2.67,1.64-2.69,1.65-.19.11-.33.29-.38.5-.06.21-.03.43.08.62.15.25.42.41.71.41.14,0,.28-.04.41-.11.06-.04,1.56-.9,3.04-1.88.89-.59,1.6-1.1,2.11-1.53.52-.44.85-.8,1.01-1.13.2.02.37.04.53.06,1.55.19,3.1.57,4.6,1.12-.81.71-2.88,2.12-5.82,3.78-.39.22-.53.72-.31,1.12.15.26.42.42.72.42.14,0,.28-.04.4-.11.02,0,1.72-.97,3.38-2.03,1.77-1.13,2.79-1.91,3.25-2.5.16.07.32.15.48.22,4.48,2.22,8.23,6.34,8.27,6.38.16.17.38.27.61.27.2,0,.4-.07.55-.21.34-.3.36-.82.06-1.16"/>
      <path class="cls-10" d="m58.37,160.33c.29-.28.84-.77,1.61-1.24.85-.52,1.95-1,3.24-1.14.77-.08,1.53-.11,2.27-.14h.03c2.15-.09,4.19-.17,6.09-1.51,1.49-1.06,2.66-2.67,3.38-4.65.15-.42.28-.86.39-1.31-.9-.07-1.74-.08-2.5-.01-.14.54-.44,1.25-.95,2.3-.58,1.2-1.23,2.36-1.24,2.37-.09.17-.23.31-.39.4-.34.21-.77.22-1.12.02-.54-.3-.73-.98-.43-1.51.83-1.48,1.32-2.52,1.58-3.12-.65.18-1.28.41-1.88.68h0c-.03.24-.1.5-.2.82-.15.44-.38,1-.69,1.67-.52,1.11-1.09,2.16-1.1,2.17-.09.17-.23.31-.4.42-.34.21-.76.22-1.11.03-.26-.14-.45-.38-.53-.66-.08-.28-.05-.59.09-.85.05-.09.44-.81.84-1.63-1.57,1.3-2.38,2.57-2.39,2.58-.09.15-.22.27-.36.36-.36.22-.81.22-1.17,0-.52-.32-.68-1.01-.36-1.53.03-.05.72-1.14,2.08-2.43-.1.03-.15.05-.17.06-.58.2-1.21-.11-1.41-.69-.17-.49.03-1.04.47-1.31.07-.04.14-.08.22-.1.04-.01,1.05-.36,2.18-.59.76-.15,1.39-.22,1.91-.2-.03-.02-.07-.05-.1-.08-.23-.19-.36-.46-.38-.76-.03-.42.17-.81.53-1.03.15-.09.32-.15.5-.16.04,0,1.05-.08,2.21,0,1.27.08,2.21.3,2.86.66.23-.03.44-.05.64-.07.51-.05,1.06-.07,1.63-.06-.93-.55-2.26-1.18-3.81-1.48-2.28-.45-4.42-.09-6.37,1.08-.02.01-.03.02-.05.03-1.29.79-2.39,1.95-3.26,3.45-.71,1.22-1.28,2.66-1.69,4.29-.56,2.24-.66,4.18-.68,4.89"/>
      <path class="cls-10" d="m80.01,149.48c-.15-.05-3.81-1.12-7.36-.8-.25.02-.51.05-.81.09-.58-.38-1.49-.61-2.78-.69-1.11-.07-2.09,0-2.13,0-.09,0-.17.03-.25.08-.18.11-.28.3-.26.51.01.15.08.28.19.38s.25.14.4.13c.86-.06,1.86-.04,2.66.06-.88.26-1.73.6-2.54,1.01-.56-.21-1.41-.19-2.59.05-1.1.22-2.07.56-2.11.57-.04.01-.07.03-.11.05-.22.13-.32.4-.23.65.1.29.41.44.7.34.04-.01.97-.33,1.97-.53.24-.05.46-.09.67-.11-.4.27-.78.56-1.15.86-1.82,1.51-2.71,2.93-2.74,2.99-.16.26-.08.6.18.76.18.11.4.11.58,0,.07-.05.13-.11.18-.18,0-.01.86-1.35,2.54-2.74.52-.43,1.07-.82,1.64-1.17-.11.33-.32.85-.7,1.65-.47.98-.95,1.87-.96,1.88-.07.13-.09.28-.04.42.04.14.13.26.26.33.17.09.38.09.55-.01.08-.05.15-.12.19-.2.02-.04.58-1.06,1.08-2.14.3-.65.53-1.19.67-1.61.14-.43.21-.75.19-1,.12-.06.23-.11.33-.15.95-.43,1.97-.76,3.02-.96-.21.68-.9,2.22-2.01,4.19-.15.26-.05.6.21.75.17.1.39.09.56,0,.08-.05.15-.12.19-.2,0-.01.64-1.15,1.22-2.34.62-1.27.93-2.07.99-2.57.12-.01.23-.03.35-.04,3.33-.29,6.91.75,6.95.76.15.04.31.02.44-.06.12-.07.2-.18.24-.31.09-.29-.08-.6-.37-.68"/>
      <path class="cls-11" d="m83.13,141.35c-.21-.42-.71-.59-1.13-.38-.42.21-.59.72-.38,1.13,1.21,2.44,1.83,5.07,1.83,7.81,0,9.7-7.89,17.59-17.59,17.59-3.07,0-6.09-.8-8.73-2.32-2.3-1.32-4.29-3.16-5.79-5.35h-2s.04.08.06.12c1.69,2.77,4.07,5.08,6.89,6.7,2.9,1.66,6.21,2.54,9.57,2.54,10.63,0,19.28-8.65,19.28-19.28,0-3.01-.67-5.89-2-8.56"/>
      <path class="cls-11" d="m46.25,144.34v-5.49c0-.47-.38-.85-.85-.85s-.85.38-.85.85v5.49h1.69Z"/>
      <path class="cls-11" d="m54.64,154.54l1.57-6h1.12c.06,0,.11-.05.11-.11v-2.85c0-.06-.05-.11-.11-.11h-14.79c-.06,0-.11.05-.11.11v2.85c0,.06.05.11.11.11h1.12l1.57,5.98c.07.28.3.47.58.47.95,0,1.72.77,1.72,1.72v1.88c0,.2.16.36.36.36h4.1c.2,0,.36-.16.36-.36v-1.88c0-.95.77-1.72,1.72-1.72.27,0,.51-.19.57-.45"/>
      <path class="cls-11" d="m55.31,144.34v-5.49c0-.47-.38-.85-.85-.85s-.85.38-.85.85v5.49h1.69Z"/>
    </g>
  </g>
  <g>
    <path class="cls-8" d="m199.24,0c-6.51,0-13.13,1.01-19.65,3.13-16.19,5.26-29.37,16.52-37.1,31.69-7.73,15.17-9.09,32.45-3.83,48.65,5.26,16.2,16.51,29.38,31.68,37.11,9.1,4.64,18.95,6.98,28.88,6.98,6.63,0,13.28-1.04,19.77-3.15,16.19-5.26,29.37-16.52,37.1-31.69,7.73-15.17,9.09-32.45,3.83-48.65C251.17,17.15,226.12,0,199.24,0"/>
    <g>
      <g>
        <path class="cls-4" d="m199.25,7.09c-5.79,0-11.67.9-17.47,2.78-14.4,4.68-26.11,14.68-32.98,28.17-6.87,13.49-8.08,28.85-3.4,43.24,4.68,14.4,14.68,26.11,28.17,32.99,8.09,4.12,16.85,6.21,25.67,6.21,5.89,0,11.81-.93,17.57-2.8,14.39-4.68,26.11-14.68,32.98-28.17,6.87-13.49,8.08-28.85,3.4-43.24-7.77-23.92-30.04-39.17-53.93-39.17"/>
        <path class="cls-6" d="m218.7,45.42c-.39-.39-.68-.86-.85-1.38-.18-.52-.24-1.07-.17-1.61,0-.03,0-.06,0-.09,0-1.63-.61-3.21-1.7-4.42-1.09-1.22-2.59-1.99-4.21-2.17-.2-1.61-.97-3.09-2.16-4.2-.66-.61-1.45-1.08-2.3-1.37-.85-.29-1.76-.41-2.66-.33-.9.08-1.78.34-2.57.77s-1.49,1.02-2.04,1.73v10.64h3.27c.57,0,1.11-.22,1.51-.63.4-.4.63-.94.63-1.51v-1.86c-.5-.2-.91-.56-1.18-1.02-.29-.49-.39-1.07-.3-1.62.1-.56.39-1.07.82-1.43.43-.36.98-.57,1.55-.57s1.12.2,1.55.57c.43.37.72.87.82,1.43.1.56,0,1.13-.3,1.62-.27.46-.69.82-1.18,1.02v1.86c0,1.05-.41,2.03-1.15,2.77-.74.74-1.72,1.15-2.77,1.15h-3.27v2.3h8.56c.57,0,1.11-.22,1.51-.63s.63-.94.63-1.51v-1.86c-.49-.2-.91-.56-1.18-1.02-.29-.49-.39-1.07-.3-1.62.1-.56.39-1.07.82-1.43.43-.36.98-.57,1.55-.57s1.12.2,1.55.57c.43.37.72.87.82,1.43.1.56,0,1.14-.3,1.62-.27.46-.69.82-1.18,1.02v1.86c0,1.05-.41,2.03-1.15,2.77-.74.74-1.72,1.15-2.77,1.15h-8.56v2.16h8.56c1.05,0,2.03.41,2.77,1.15.74.74,1.15,1.72,1.15,2.77v1.86c.49.2.91.56,1.18,1.02.29.49.39,1.07.3,1.62-.1.56-.39,1.07-.82,1.43-.43.36-.98.57-1.55.57s-1.12-.2-1.55-.57c-.43-.37-.72-.87-.82-1.43-.1-.56,0-1.14.3-1.62.27-.46.69-.82,1.18-1.02v-1.86c0-.57-.22-1.11-.63-1.51s-.94-.63-1.51-.63h-8.56v2.3h3.27c1.05,0,2.03.41,2.77,1.15.74.74,1.15,1.72,1.15,2.77v1.86c.49.2.91.56,1.18,1.02.29.49.39,1.07.3,1.62-.1.56-.39,1.07-.82,1.43-.43.36-.98.57-1.55.57s-1.12-.2-1.55-.57c-.43-.37-.72-.87-.82-1.43-.1-.56,0-1.13.3-1.62.27-.46.69-.82,1.18-1.02v-1.86c0-.57-.22-1.11-.63-1.51-.4-.4-.94-.63-1.51-.63h-3.27v10.63c.56.73,1.27,1.33,2.09,1.76.81.43,1.71.69,2.63.75.14,0,.28.01.41.01,1.68,0,3.3-.64,4.53-1.79,1.15-1.08,1.88-2.54,2.06-4.11,1.63-.18,3.13-.96,4.22-2.18,1.09-1.22,1.7-2.8,1.7-4.44,0-.03,0-.06,0-.09-.07-.55,0-1.1.17-1.62.18-.52.47-.99.86-1.38,1.14-1.22,1.77-2.83,1.76-4.5,0-1.67-.63-3.28-1.77-4.51"/>
        <path class="cls-11" d="m196.64,48.25c-.69,0-1.38-.08-2.05-.25-.56-.01-3.19.01-4.1,1.58-.06.1-.13.19-.23.27-.09.07-.2.13-.31.16-.08.02-.16.03-.24.03-.04,0-.08,0-.11,0-.12-.01-.23-.05-.33-.11-.1-.06-.19-.14-.26-.24-.07-.1-.12-.2-.15-.32-.03-.12-.03-.24-.02-.35.02-.12.06-.23.12-.33.37-.58.85-1.06,1.42-1.44.5-.33,1.04-.57,1.61-.71-.62-.63-1.09-1.41-1.36-2.26-.08-.22-.06-.47.05-.68.11-.21.29-.37.51-.45.23-.08.47-.06.68.05.21.11.37.29.45.51.37,1.11,1.72,3.57,6.19,2.54h.03v-13.89c-.56-.73-1.27-1.33-2.09-1.76-.81-.43-1.71-.69-2.62-.75-.89-.06-1.77.06-2.61.36-.84.29-1.61.76-2.26,1.36-.71.66-1.27,1.46-1.65,2.35l.05.16c.33,1.09.94,2.08,1.77,2.85.62.5,1.33.85,2.11,1.05.78.2,1.57.22,2.36.08.13-.02.24,0,.36.03.11.03.22.09.31.16.09.07.17.16.23.26.06.1.09.21.11.33.01.12,0,.23-.03.35-.03.11-.09.22-.16.31-.07.09-.16.17-.26.23-.1.06-.21.09-.33.11-.4.05-.81.07-1.21.07-.07,0-.15,0-.22,0-1.62,0-3.19-.58-4.43-1.64h0c-.74-.67-1.34-1.46-1.77-2.36v-.03c-1.47.31-2.79,1.11-3.75,2.26-.99,1.19-1.53,2.68-1.53,4.23.08.56.02,1.13-.15,1.66-.18.54-.48,1.02-.87,1.42-1.14,1.22-1.77,2.83-1.76,4.5,0,1.67.63,3.28,1.77,4.5.39.4.69.89.87,1.42.18.53.23,1.1.15,1.66,0,1.53.52,3.01,1.49,4.2.93,1.15,2.22,1.95,3.67,2.28l.02-.04c.34-.59.78-1.12,1.29-1.57,1.55-1.35,3.68-1.84,6.35-1.47.23.04.44.16.58.35.14.19.2.42.16.65-.03.23-.15.44-.34.58-.19.14-.42.21-.65.18-2.13-.3-3.78.06-4.92,1.04-.56.5-1.01,1.14-1.29,1.83l-.06.14c.36.96.93,1.83,1.67,2.54,1.23,1.16,2.85,1.8,4.53,1.79.99,0,1.97-.23,2.85-.67.89-.44,1.66-1.07,2.27-1.85v-19.45c-.62.12-1.26.19-1.9.19"/>
      </g>
      <g>
        <path class="cls-2" d="m184.46,88.65c0,.36-.02.86-.07,1.45.15,1.19.75,5.37,4.28,6.94-.21.17-.43.42-.54.63-2.5-1.17-3.57-3.64-4.05-5.5-.46,2-1.52,4.24-3.96,5.54-.13-.2-.37-.42-.6-.58,4.15-2.1,4.09-6.96,4.12-8.48h.82Z"/>
        <path class="cls-2" d="m198.67,96.24v.74h-8.92v-.74h4.02v-5.74h-3.5v-.76h7.9v.76h-3.59v5.74h4.09Z"/>
        <path class="cls-2" d="m203.77,93.39c-.29-.25-1.03-.78-1.53-1.12-.34.57-.94,1.13-1.99,1.61-.09-.16-.3-.4-.47-.51,1.27-.5,1.8-1.16,2.01-1.77h-1.92v-.61h2.05c.02-.13.02-.24.02-.36v-.58h-.84c-.19.34-.41.65-.63.89-.14-.1-.43-.28-.6-.36.51-.49.9-1.24,1.13-1.99l.67.13c-.07.25-.17.49-.27.73h2.72v.6h-1.47v.58c0,.12,0,.23-.02.36h1.74v.61h-1.85c0,.06-.03.11-.05.17.39.21,1.54.91,1.82,1.11l-.52.51Zm-2.45.26h6.1v4.08h-.75v-.35h-4.62v.37h-.73v-4.1Zm.73.61v.94h4.62v-.94h-4.62Zm4.62,2.51v-.99h-4.62v.99h4.62Zm1.6-7.35v3.47h-3.49v-3.47h3.49Zm-.73.67h-2.06v2.12h2.06v-2.12Z"/>
        <path class="cls-2" d="m213.22,89.21c.51.67,1.07,1.57,1.28,2.16l-.65.29c-.06-.16-.13-.33-.22-.53-2.73.2-3.07.25-3.29.33-.04-.15-.15-.52-.24-.7.15-.04.29-.18.46-.39s.72-1,1.04-1.78l.76.24c-.34.66-.79,1.34-1.22,1.87l2.19-.13c-.22-.39-.48-.78-.72-1.11l.61-.25Zm.83,7.68c0,.38-.07.58-.35.7-.27.12-.7.13-1.33.13-.04-.2-.14-.49-.24-.68.47.02.89.01,1.02,0,.14,0,.17-.03.17-.16v-1.17h-2.11v2.03h-.69v-5.59h3.53v4.74Zm-2.84-4.11v.85h2.11v-.85h-2.11Zm2.11,2.35v-.91h-2.11v.91h2.11Zm2.85-2.15c-.94,0-1.18-.23-1.18-1.04v-3.3h.72v1.67c.85-.28,1.75-.65,2.32-.94l.5.54c-.79.37-1.86.72-2.82,1.01v1.01c0,.31.08.38.53.38h1.59c.38,0,.45-.17.5-1.16.15.13.45.24.66.29-.09,1.2-.31,1.54-1.1,1.54h-1.72Zm1.71,4.02c.41,0,.49-.2.54-1.31.16.11.45.23.66.27-.09,1.35-.31,1.7-1.14,1.7h-1.74c-.96,0-1.21-.23-1.21-1.05v-3.35h.73v1.57c.9-.29,1.87-.67,2.43-1.04l.49.55c-.76.45-1.91.83-2.92,1.11v1.16c0,.33.09.39.55.39h1.61Z"/>
      </g>
    </g>
  </g>
  <g>
    <path class="cls-11" d="m203.23,210.21h-27.4c-.7-4.6-4.68-8.13-9.47-8.13-5.28,0-9.58,4.3-9.58,9.58s4.3,9.58,9.58,9.58c4.79,0,8.77-3.53,9.47-8.13h27.4c.8,0,1.45-.65,1.45-1.45s-.65-1.45-1.45-1.45Zm-30.47,3.33c-.02.08-.05.16-.08.24-.04.11-.08.22-.12.32-.04.11-.09.23-.14.34-.03.07-.06.14-.1.21-.07.14-.15.28-.23.41-.02.03-.04.07-.06.1-.1.16-.21.32-.32.47,0,0-.01.02-.02.03-1.02,1.36-2.55,2.32-4.3,2.59-.01,0-.03,0-.04,0-.2.03-.41.05-.62.06-.02,0-.05,0-.07,0-.1,0-.2,0-.31,0s-.21,0-.31,0c-.02,0-.04,0-.07,0-.21-.01-.42-.03-.62-.06,0,0-.02,0-.03,0-1.97-.31-3.66-1.48-4.66-3.11-.01-.02-.02-.04-.03-.06-.09-.15-.18-.31-.25-.46-.03-.05-.05-.1-.07-.15-.06-.13-.12-.26-.17-.39-.03-.09-.07-.18-.1-.27-.03-.1-.07-.2-.1-.3-.04-.13-.07-.25-.1-.38-.02-.07-.03-.14-.04-.21-.03-.17-.06-.33-.08-.5,0-.04,0-.08-.01-.12-.02-.2-.03-.4-.03-.6,0-.01,0-.02,0-.04,0,0,0,0,0,0,0-.22.01-.45.03-.66,0,0,0,0,0,0,.34-3.37,3.18-5.99,6.64-5.99,3.18,0,5.84,2.23,6.51,5.21.11.47.17.96.17,1.46,0,.22-.01.45-.03.66,0,.02,0,.04,0,.06-.02.19-.05.38-.09.56,0,.05-.02.1-.03.15,0,0,0,.01,0,.02-.03.14-.07.29-.11.43Z"/>
    <g>
      <path class="cls-1" d="m260.22,195.29h-7.55c-1.09-4.53-2.71-8.42-5.14-12.39l5.34-5.34c.56-.56.56-1.47,0-2.03l-11.19-11.19c-.56-.56-1.46-.57-2.03,0l-5.34,5.34c-4-2.44-7.84-4.04-12.39-5.14v-7.55c0-.79-.64-1.43-1.43-1.43h-15.83c-.79,0-1.43.64-1.43,1.43v23.53c3.75-1.87,7.97-2.92,12.43-2.92,15.43,0,27.98,12.55,27.98,27.98s-12.55,27.98-27.98,27.98c-4.46,0-8.68-1.05-12.43-2.92v21.65c0,.78.63,1.43,1.43,1.43h15.83c.8,0,1.43-.64,1.43-1.43v-7.55c4.56-1.1,8.4-2.7,12.39-5.14l5.34,5.34c.56.56,1.47.56,2.03,0l11.19-11.2c.55-.66.6-1.42,0-2.02l-5.34-5.34c2.43-3.98,4.04-7.86,5.14-12.39h7.55c.79,0,1.43-.63,1.43-1.44v-15.83c0-.79-.64-1.43-1.43-1.43Z"/>
      <path class="cls-11" d="m215.65,180.51c-4.52,0-8.76,1.21-12.43,3.31-7.55,4.33-12.65,12.46-12.65,21.76s5.1,17.44,12.65,21.76c3.67,2.1,7.91,3.31,12.43,3.31,13.83,0,25.08-11.25,25.08-25.08s-11.25-25.08-25.08-25.08Z"/>
    </g>
    <path class="cls-11" d="m184.17,248.93c-.19,0-.39-.04-.58-.12-.74-.32-1.07-1.18-.75-1.91l10.37-23.72c.23-.53.75-.87,1.33-.87h8.69c.8,0,1.45.65,1.45,1.45s-.65,1.45-1.45,1.45h-7.74l-9.99,22.85c-.24.55-.77.87-1.33.87Z"/>
    <circle class="cls-11" cx="184.17" cy="247.48" r="8.13"/>
    <path class="cls-11" d="m180.02,202.01c-.58,0-1.1-.34-1.33-.87l-7.38-16.89h-26.25c-.8,0-1.45-.65-1.45-1.45,0-.8.65-1.45,1.45-1.45h27.2c.58,0,1.1.34,1.33.87l7.38,16.89,22.25-.06h0c.8,0,1.45.65,1.45,1.45,0,.8-.65,1.46-1.45,1.46l-23.2.06h0Z"/>
    <circle class="cls-11" cx="145.06" cy="182.79" r="8.13"/>
    <g>
      <path class="cls-4" d="m202.6,214.53h-2.79v-13.21h-4.47v-2.35h11.73v2.35h-4.47v13.21Z"/>
      <path class="cls-4" d="m204.3,209.84v-2.31h4.15v2.31h-4.15Z"/>
      <path class="cls-4" d="m224.13,206.73c0,1.61-.27,3.02-.8,4.22-.53,1.2-1.34,2.13-2.43,2.8-1.09.67-2.46,1-4.1,1s-3.04-.33-4.12-1c-1.08-.67-1.88-1.61-2.41-2.81-.53-1.21-.8-2.62-.8-4.23s.26-3,.8-4.2c.53-1.2,1.34-2.13,2.42-2.79,1.08-.66,2.46-.99,4.13-.99s3,.33,4.09.99c1.08.66,1.89,1.59,2.42,2.79.53,1.2.8,2.61.8,4.22Zm-11.71,0c0,1.76.35,3.14,1.06,4.14s1.81,1.5,3.32,1.5,2.67-.5,3.36-1.5c.68-1,1.02-2.38,1.02-4.14s-.34-3.14-1.02-4.14c-.68-1-1.8-1.5-3.34-1.5s-2.64.5-3.35,1.5-1.06,2.38-1.06,4.14Z"/>
      <path class="cls-4" d="m235.4,210.28c0,1.38-.5,2.47-1.5,3.27-1,.8-2.39,1.2-4.16,1.2s-3.17-.29-4.36-.87v-2.62c.65.29,1.38.56,2.17.8.79.24,1.59.36,2.39.36.94,0,1.63-.19,2.06-.56s.64-.85.64-1.43c0-.64-.28-1.15-.83-1.54-.55-.38-1.36-.8-2.42-1.25-.64-.26-1.25-.58-1.84-.97-.59-.39-1.07-.87-1.44-1.46-.37-.59-.56-1.33-.56-2.21,0-1.32.47-2.36,1.41-3.12.94-.76,2.19-1.13,3.76-1.13.81,0,1.59.09,2.32.26s1.46.42,2.17.74l-.89,2.25c-.65-.28-1.28-.49-1.86-.65-.59-.16-1.2-.24-1.82-.24-.76,0-1.33.17-1.72.5-.39.33-.59.78-.59,1.33,0,.42.11.78.33,1.08.22.3.56.57,1.01.82.46.25,1.05.53,1.78.85.84.36,1.56.74,2.15,1.14.59.4,1.04.87,1.35,1.42.31.55.47,1.22.47,2.04Z"/>
    </g>
    <path class="cls-11" d="m203.21,187.47h-7.73l-6.2-14.18c2.68-1.7,4.46-4.69,4.46-8.09,0-5.28-4.3-9.58-9.58-9.58s-9.58,4.3-9.58,9.58,4.3,9.58,9.58,9.58c.85,0,1.68-.11,2.46-.32l6.57,15.04c.23.53.75.87,1.33.87h8.68c.8,0,1.45-.65,1.45-1.45s-.65-1.45-1.45-1.45Zm-16.99-15.92s-.08.03-.12.04c-.18.05-.36.1-.54.14-.02,0-.05.01-.07.01-.01,0-.03,0-.04,0-.19.04-.38.07-.58.09,0,0-.02,0-.03,0-.22.02-.44.03-.67.03,0,0,0,0,0,0,0,0,0,0,0,0,0,0,0,0,0,0-.23,0-.46-.01-.68-.03,0,0,0,0,0,0-.22-.02-.44-.06-.65-.1,0,0-.01,0-.02,0-.21-.04-.41-.09-.61-.16-.02,0-.03-.01-.05-.02-.19-.06-.37-.13-.55-.2-.03-.01-.05-.02-.08-.03-.17-.07-.33-.15-.49-.23-.04-.02-.07-.04-.11-.06-.15-.08-.29-.17-.43-.26-.04-.03-.08-.06-.13-.09-.13-.09-.26-.19-.39-.29-.04-.03-.09-.07-.13-.11-.12-.1-.24-.21-.35-.32-.04-.04-.08-.08-.12-.12-.11-.11-.22-.23-.32-.36-.03-.04-.06-.08-.1-.11-.11-.13-.21-.27-.3-.41-.02-.03-.05-.07-.07-.1-.1-.15-.19-.31-.28-.47-.01-.02-.03-.05-.04-.07-.09-.17-.18-.35-.26-.54,0,0,0-.02-.01-.02-.34-.8-.52-1.67-.52-2.59s.19-1.79.52-2.59c0,0,0-.02.01-.02.08-.18.16-.36.26-.54.01-.02.02-.05.04-.07.09-.16.18-.31.28-.47.02-.03.04-.07.07-.1.1-.14.2-.27.3-.41.03-.04.06-.08.1-.11.1-.12.21-.24.32-.36.04-.04.08-.08.12-.12.11-.11.23-.22.35-.32.04-.04.08-.07.13-.11.12-.1.25-.2.39-.29.04-.03.08-.06.13-.09.14-.09.28-.18.43-.26.04-.02.07-.04.11-.06.16-.08.32-.16.49-.23.03-.01.05-.02.08-.03.18-.07.36-.14.55-.2.02,0,.03-.01.05-.02.2-.06.4-.11.61-.16,0,0,.01,0,.02,0,.21-.04.43-.08.65-.1,0,0,0,0,0,0,.22-.02.45-.03.68-.03,0,0,0,0,0,0,0,0,0,0,0,0,0,0,0,0,0,0,.23,0,.45.01.67.03,0,0,.02,0,.03,0,.21.02.41.05.61.09.02,0,.05,0,.07.01.18.04.36.09.54.14.04.01.08.03.12.04.16.05.31.11.46.17.06.02.12.05.18.08.13.06.26.12.38.18.08.04.15.08.22.12.11.06.21.12.31.19.09.06.17.11.25.17.09.06.17.12.25.19.09.07.18.14.26.22.07.06.14.13.21.19.09.08.17.17.25.25.06.07.13.14.19.21.08.09.16.18.23.28.06.08.12.15.17.23.07.09.13.19.19.29.06.09.11.18.16.27.05.09.1.18.15.28.05.1.1.21.15.32.04.08.07.17.11.25.05.12.1.25.14.38.02.07.05.14.07.22.04.15.08.29.11.44.01.06.03.12.04.18.03.16.06.33.08.5,0,.05.01.1.02.15.02.18.03.36.03.54,0,.02,0,.05,0,.07s0,.05,0,.07c0,.18-.01.36-.03.54,0,.05-.01.1-.02.15-.02.17-.04.33-.08.5-.01.06-.02.12-.04.18-.03.15-.07.3-.11.44-.02.07-.04.14-.07.22-.04.13-.09.25-.14.38-.03.08-.07.17-.11.25-.05.11-.1.21-.15.32-.05.09-.1.19-.15.28-.05.09-.11.18-.16.27-.06.1-.13.19-.19.29-.06.08-.11.15-.17.23-.07.09-.15.19-.23.28-.06.07-.12.14-.19.21-.08.09-.17.17-.25.25-.07.07-.14.13-.21.19-.09.07-.17.15-.26.22-.06.05-.12.09-.17.13-.03.02-.05.04-.08.06-.08.06-.17.12-.25.17-.1.07-.21.13-.31.19-.07.04-.15.08-.22.12-.13.07-.25.13-.38.18-.06.03-.12.05-.18.08-.15.06-.31.12-.46.17Z"/>
  </g>
</svg>