<?xml version="1.0" encoding="UTF-8"?>
<svg id="Layer_1" data-name="Layer 1" xmlns="http://www.w3.org/2000/svg" viewBox="0 0 398.59 385.34">
  <defs>
    <style>
      .cls-1 {
        fill: #009690;
      }

      .cls-1, .cls-2, .cls-3, .cls-4, .cls-5, .cls-6, .cls-7, .cls-8, .cls-9, .cls-10, .cls-11, .cls-12, .cls-13 {
        stroke-width: 0px;
      }

      .cls-2 {
        fill: #fab600;
      }

      .cls-3 {
        fill: #633169;
      }

      .cls-4 {
        fill: #fab600;
      }

      .cls-5 {
        fill: #009ee4;
      }

      .cls-14 {
        fill: none;
        stroke: #006ba6;
        stroke-width: 1.5px;
      }

      .cls-6 {
        fill: #006ba6;
      }

      .cls-7 {
        fill: #0074a3;
      }

      .cls-8 {
        fill: #ee7203;
      }

      .cls-9 {
        fill: #cce1ed;
      }

      .cls-10 {
        fill: #ee7003;
      }

      .cls-11 {
        fill: #fff;
      }

      .cls-12 {
        fill: #12a639;
      }

      .cls-13 {
        fill: #cadfea;
      }
    </style>
  </defs>
  <circle class="cls-14" cx="199.29" cy="206.29" r="141.89"/>
  <g>
    <path class="cls-3" d="M203.23,210.21h-27.4c-.7-4.6-4.68-8.13-9.47-8.13-5.28,0-9.58,4.3-9.58,9.58s4.3,9.58,9.58,9.58c4.79,0,8.77-3.53,9.47-8.13h27.4c.8,0,1.45-.65,1.45-1.45s-.65-1.45-1.45-1.45ZM172.76,213.55c-.02.08-.05.16-.08.24-.04.11-.08.22-.12.32-.04.11-.09.23-.14.34-.03.07-.06.14-.1.21-.07.14-.15.28-.23.41-.02.03-.04.07-.06.1-.1.16-.21.32-.32.47,0,0-.01.02-.02.03-1.02,1.36-2.55,2.32-4.3,2.59-.01,0-.03,0-.04,0-.2.03-.41.05-.62.06-.02,0-.05,0-.07,0-.1,0-.2,0-.31,0s-.21,0-.31,0c-.02,0-.04,0-.07,0-.21-.01-.42-.03-.62-.06,0,0-.02,0-.03,0-1.97-.31-3.66-1.48-4.66-3.11-.01-.02-.02-.04-.03-.06-.09-.15-.18-.31-.25-.46-.03-.05-.05-.1-.07-.15-.06-.13-.12-.26-.17-.39-.03-.09-.07-.18-.1-.27-.03-.1-.07-.2-.1-.3-.04-.13-.07-.25-.1-.38-.02-.07-.03-.14-.04-.21-.03-.17-.06-.33-.08-.5,0-.04,0-.08-.01-.12-.02-.2-.03-.4-.03-.6,0-.01,0-.02,0-.04,0,0,0,0,0,0,0-.22.01-.45.03-.66,0,0,0,0,0,0,.34-3.37,3.18-5.99,6.64-5.99,3.18,0,5.84,2.23,6.51,5.21.11.47.17.96.17,1.46,0,.22-.01.45-.03.66,0,.02,0,.04,0,.06-.02.19-.05.38-.09.56,0,.05-.02.1-.03.15,0,0,0,.01,0,.02-.03.14-.07.29-.11.43Z"/>
    <g>
      <path class="cls-4" d="M260.22,195.29h-7.55c-1.09-4.53-2.71-8.42-5.14-12.39l5.34-5.34c.56-.56.56-1.47,0-2.03l-11.19-11.19c-.56-.56-1.46-.57-2.03,0l-5.34,5.34c-4-2.44-7.84-4.04-12.39-5.14v-7.55c0-.79-.64-1.43-1.43-1.43h-15.83c-.79,0-1.43.64-1.43,1.43v23.53c3.75-1.87,7.97-2.92,12.43-2.92,15.43,0,27.98,12.55,27.98,27.98s-12.55,27.98-27.98,27.98c-4.46,0-8.68-1.05-12.43-2.92v21.65c0,.78.63,1.43,1.43,1.43h15.83c.8,0,1.43-.64,1.43-1.43v-7.55c4.56-1.1,8.4-2.7,12.39-5.14l5.34,5.34c.56.56,1.47.56,2.03,0l11.19-11.2c.55-.66.6-1.42,0-2.02l-5.34-5.34c2.43-3.98,4.04-7.86,5.14-12.39h7.55c.79,0,1.43-.63,1.43-1.44v-15.83c0-.79-.64-1.43-1.43-1.43Z"/>
      <path class="cls-3" d="M215.65,180.51c-4.52,0-8.76,1.21-12.43,3.31-7.55,4.33-12.65,12.46-12.65,21.76s5.1,17.44,12.65,21.76c3.67,2.1,7.91,3.31,12.43,3.31,13.83,0,25.08-11.25,25.08-25.08s-11.25-25.08-25.08-25.08Z"/>
    </g>
    <path class="cls-3" d="M184.17,248.93c-.19,0-.39-.04-.58-.12-.74-.32-1.07-1.18-.75-1.91l10.37-23.72c.23-.53.75-.87,1.33-.87h8.69c.8,0,1.45.65,1.45,1.45s-.65,1.45-1.45,1.45h-7.74l-9.99,22.85c-.24.55-.77.87-1.33.87Z"/>
    <circle class="cls-3" cx="184.17" cy="247.48" r="8.13"/>
    <path class="cls-3" d="M180.02,202.01c-.58,0-1.1-.34-1.33-.87l-7.38-16.89h-26.25c-.8,0-1.45-.65-1.45-1.45,0-.8.65-1.45,1.45-1.45h27.2c.58,0,1.1.34,1.33.87l7.38,16.89,22.25-.06h0c.8,0,1.45.65,1.45,1.45,0,.8-.65,1.46-1.45,1.46l-23.2.06h0Z"/>
    <circle class="cls-3" cx="145.06" cy="182.79" r="8.13"/>
    <g>
      <path class="cls-11" d="M202.6,214.53h-2.79v-13.21h-4.47v-2.35h11.73v2.35h-4.47v13.21Z"/>
      <path class="cls-11" d="M204.3,209.84v-2.31h4.15v2.31h-4.15Z"/>
      <path class="cls-11" d="M224.13,206.73c0,1.61-.27,3.02-.8,4.22-.53,1.2-1.34,2.13-2.43,2.8-1.09.67-2.46,1-4.1,1s-3.04-.33-4.12-1c-1.08-.67-1.88-1.61-2.41-2.81-.53-1.21-.8-2.62-.8-4.23s.26-3,.8-4.2c.53-1.2,1.34-2.13,2.42-2.79,1.08-.66,2.46-.99,4.13-.99s3,.33,4.09.99c1.08.66,1.89,1.59,2.42,2.79.53,1.2.8,2.61.8,4.22ZM212.42,206.73c0,1.76.35,3.14,1.06,4.14s1.81,1.5,3.32,1.5,2.67-.5,3.36-1.5c.68-1,1.02-2.38,1.02-4.14s-.34-3.14-1.02-4.14c-.68-1-1.8-1.5-3.34-1.5s-2.64.5-3.35,1.5-1.06,2.38-1.06,4.14Z"/>
      <path class="cls-11" d="M235.4,210.28c0,1.38-.5,2.47-1.5,3.27-1,.8-2.39,1.2-4.16,1.2s-3.17-.29-4.36-.87v-2.62c.65.29,1.38.56,2.17.8.79.24,1.59.36,2.39.36.94,0,1.63-.19,2.06-.56s.64-.85.64-1.43c0-.64-.28-1.15-.83-1.54-.55-.38-1.36-.8-2.42-1.25-.64-.26-1.25-.58-1.84-.97-.59-.39-1.07-.87-1.44-1.46-.37-.59-.56-1.33-.56-2.21,0-1.32.47-2.36,1.41-3.12.94-.76,2.19-1.13,3.76-1.13.81,0,1.59.09,2.32.26s1.46.42,2.17.74l-.89,2.25c-.65-.28-1.28-.49-1.86-.65-.59-.16-1.2-.24-1.82-.24-.76,0-1.33.17-1.72.5-.39.33-.59.78-.59,1.33,0,.42.11.78.33,1.08.22.3.56.57,1.01.82.46.25,1.05.53,1.78.85.84.36,1.56.74,2.15,1.14.59.4,1.04.87,1.35,1.42.31.55.47,1.22.47,2.04Z"/>
    </g>
    <path class="cls-3" d="M203.21,187.47h-7.73l-6.2-14.18c2.68-1.7,4.46-4.69,4.46-8.09,0-5.28-4.3-9.58-9.58-9.58s-9.58,4.3-9.58,9.58,4.3,9.58,9.58,9.58c.85,0,1.68-.11,2.46-.32l6.57,15.04c.23.53.75.87,1.33.87h8.68c.8,0,1.45-.65,1.45-1.45s-.65-1.45-1.45-1.45ZM186.22,171.55s-.08.03-.12.04c-.18.05-.36.1-.54.14-.02,0-.05.01-.07.01-.01,0-.03,0-.04,0-.19.04-.38.07-.58.09,0,0-.02,0-.03,0-.22.02-.44.03-.67.03,0,0,0,0,0,0,0,0,0,0,0,0,0,0,0,0,0,0-.23,0-.46-.01-.68-.03,0,0,0,0,0,0-.22-.02-.44-.06-.65-.1,0,0-.01,0-.02,0-.21-.04-.41-.09-.61-.16-.02,0-.03-.01-.05-.02-.19-.06-.37-.13-.55-.2-.03-.01-.05-.02-.08-.03-.17-.07-.33-.15-.49-.23-.04-.02-.07-.04-.11-.06-.15-.08-.29-.17-.43-.26-.04-.03-.08-.06-.13-.09-.13-.09-.26-.19-.39-.29-.04-.03-.09-.07-.13-.11-.12-.1-.24-.21-.35-.32-.04-.04-.08-.08-.12-.12-.11-.11-.22-.23-.32-.36-.03-.04-.06-.08-.1-.11-.11-.13-.21-.27-.3-.41-.02-.03-.05-.07-.07-.1-.1-.15-.19-.31-.28-.47-.01-.02-.03-.05-.04-.07-.09-.17-.18-.35-.26-.54,0,0,0-.02-.01-.02-.34-.8-.52-1.67-.52-2.59s.19-1.79.52-2.59c0,0,0-.02.01-.02.08-.18.16-.36.26-.54.01-.02.02-.05.04-.07.09-.16.18-.31.28-.47.02-.03.04-.07.07-.1.1-.14.2-.27.3-.41.03-.04.06-.08.1-.11.1-.12.21-.24.32-.36.04-.04.08-.08.12-.12.11-.11.23-.22.35-.32.04-.04.08-.07.13-.11.12-.1.25-.2.39-.29.04-.03.08-.06.13-.09.14-.09.28-.18.43-.26.04-.02.07-.04.11-.06.16-.08.32-.16.49-.23.03-.01.05-.02.08-.03.18-.07.36-.14.55-.2.02,0,.03-.01.05-.02.2-.06.4-.11.61-.16,0,0,.01,0,.02,0,.21-.04.43-.08.65-.1,0,0,0,0,0,0,.22-.02.45-.03.68-.03,0,0,0,0,0,0,0,0,0,0,0,0,0,0,0,0,0,0,.23,0,.45.01.67.03,0,0,.02,0,.03,0,.21.02.41.05.61.09.02,0,.05,0,.07.01.18.04.36.09.54.14.04.01.08.03.12.04.16.05.31.11.46.17.06.02.12.05.18.08.13.06.26.12.38.18.08.04.15.08.22.12.11.06.21.12.31.19.09.06.17.11.25.17.09.06.17.12.25.19.09.07.18.14.26.22.07.06.14.13.21.19.09.08.17.17.25.25.06.07.13.14.19.21.08.09.16.18.23.28.06.08.12.15.17.23.07.09.13.19.19.29.06.09.11.18.16.27.05.09.1.18.15.28.05.1.1.21.15.32.04.08.07.17.11.25.05.12.1.25.14.38.02.07.05.14.07.22.04.15.08.29.11.44.01.06.03.12.04.18.03.16.06.33.08.5,0,.05.01.1.02.15.02.18.03.36.03.54,0,.02,0,.05,0,.07s0,.05,0,.07c0,.18-.01.36-.03.54,0,.05-.01.1-.02.15-.02.17-.04.33-.08.5-.01.06-.02.12-.04.18-.03.15-.07.3-.11.44-.02.07-.04.14-.07.22-.04.13-.09.25-.14.38-.03.08-.07.17-.11.25-.05.11-.1.21-.15.32-.05.09-.1.19-.15.28-.05.09-.11.18-.16.27-.06.1-.13.19-.19.29-.06.08-.11.15-.17.23-.07.09-.15.19-.23.28-.06.07-.12.14-.19.21-.08.09-.17.17-.25.25-.07.07-.14.13-.21.19-.09.07-.17.15-.26.22-.06.05-.12.09-.17.13-.03.02-.05.04-.08.06-.08.06-.17.12-.25.17-.1.07-.21.13-.31.19-.07.04-.15.08-.22.12-.13.07-.25.13-.38.18-.06.03-.12.05-.18.08-.15.06-.31.12-.46.17Z"/>
  </g>
  <g>
    <path class="cls-9" d="M63.73,98.46c-6.51,0-13.13,1.01-19.65,3.13-16.19,5.26-29.37,16.52-37.1,31.69-7.73,15.17-9.09,32.45-3.83,48.65,5.26,16.2,16.51,29.38,31.68,37.11,9.1,4.64,18.95,6.98,28.88,6.98,6.63,0,13.28-1.04,19.77-3.15,16.19-5.26,29.37-16.52,37.1-31.69,7.73-15.17,9.09-32.45,3.83-48.65-8.74-26.92-33.8-44.06-60.67-44.06"/>
    <path class="cls-11" d="M63.74,105.55c-5.79,0-11.67.89-17.47,2.78-14.39,4.68-26.11,14.68-32.98,28.17-6.87,13.49-8.08,28.85-3.4,43.24,4.68,14.4,14.68,26.11,28.17,32.98,8.09,4.12,16.85,6.21,25.67,6.21,5.89,0,11.81-.93,17.57-2.8,14.39-4.68,26.11-14.68,32.98-28.17,6.87-13.49,8.08-28.85,3.4-43.24-7.77-23.92-30.04-39.17-53.93-39.17"/>
    <path class="cls-12" d="M45.13,134.68c.58-.13,1.67-.33,3.02-.33,1.48,0,3.27.24,5.02,1.07,1.05.5,2.04,1.05,3,1.58l.03.02c2.81,1.57,5.47,3.05,8.94,2.82,2.73-.19,5.47-1.33,7.93-3.3.53-.42,1.04-.88,1.52-1.36-1.09-.79-2.16-1.45-3.18-1.96-.6.57-1.53,1.26-3,2.19-1.68,1.07-3.4,2.05-3.42,2.05-.25.14-.53.21-.81.21-.6,0-1.15-.32-1.45-.85-.45-.8-.16-1.81.63-2.26,2.2-1.24,3.65-2.19,4.45-2.74-.96-.27-1.94-.47-2.92-.59h-.01c-.22.27-.51.56-.89.88-.53.45-1.27.98-2.18,1.59-1.53,1.01-3.07,1.9-3.09,1.91-.25.15-.54.22-.83.22-.59,0-1.14-.32-1.44-.83-.22-.38-.28-.83-.16-1.26.11-.43.39-.79.77-1.01.13-.08,1.18-.69,2.34-1.43-3.01.44-5.03,1.42-5.05,1.43-.23.11-.49.18-.74.18-.63,0-1.2-.35-1.48-.91-.41-.82-.08-1.82.74-2.23.08-.04,1.81-.9,4.55-1.48-.15-.04-.24-.06-.26-.06-.9-.2-1.46-1.08-1.27-1.98.17-.76.85-1.3,1.62-1.3.12,0,.24.01.36.04.07.01,1.62.36,3.24.95,1.09.4,1.94.8,2.6,1.23-.02-.06-.05-.11-.07-.17-.14-.42-.1-.87.1-1.27.29-.56.85-.9,1.48-.9.26,0,.52.06.76.18.06.03,1.4.72,2.82,1.71,1.56,1.09,2.58,2.09,3.14,3.08.31.14.6.27.87.4.69.34,1.4.74,2.12,1.2-.76-1.43-1.97-3.26-3.71-4.86-2.56-2.35-5.57-3.55-8.97-3.58h-.09c-2.26,0-4.56.62-6.84,1.85-1.86,1-3.71,2.4-5.5,4.16-2.46,2.43-4.09,4.81-4.67,5.71"/>
    <path class="cls-12" d="M81.17,137.7c-.16-.18-3.99-4.39-8.76-6.75-.33-.16-.69-.33-1.1-.51-.44-.94-1.42-1.93-3.01-3.04-1.37-.96-2.67-1.62-2.72-1.65-.12-.06-.25-.09-.37-.09-.31,0-.59.17-.73.45-.1.19-.12.42-.05.63.07.21.21.38.41.48,1.15.59,2.4,1.4,3.34,2.14-1.32-.35-2.67-.58-4.03-.68-.56-.7-1.65-1.34-3.33-1.95-1.57-.57-3.07-.9-3.14-.92-.06-.01-.12-.02-.18-.02-.38,0-.72.27-.8.64-.1.44.18.88.63.98.06.01,1.49.33,2.93.86.34.12.65.25.93.37-.72.04-1.43.11-2.13.21-3.49.51-5.73,1.62-5.82,1.67-.4.2-.57.7-.36,1.1.14.28.42.45.73.45.13,0,.25-.03.37-.09.02-.01,2.15-1.06,5.37-1.52.99-.14,2-.21,3.01-.22-.4.33-1.07.84-2.18,1.56-1.36.89-2.67,1.64-2.69,1.65-.19.11-.33.29-.38.5-.06.21-.03.43.08.62.15.25.42.41.71.41.14,0,.28-.04.41-.11.06-.04,1.56-.9,3.04-1.88.89-.59,1.6-1.1,2.11-1.53.52-.44.85-.8,1.01-1.13.2.02.37.04.53.06,1.55.19,3.1.57,4.6,1.12-.81.71-2.88,2.12-5.82,3.78-.39.22-.53.72-.31,1.12.15.26.42.42.72.42.14,0,.28-.04.4-.11.02,0,1.72-.97,3.38-2.03,1.77-1.13,2.79-1.91,3.25-2.5.16.07.32.15.48.22,4.48,2.22,8.23,6.34,8.27,6.38.16.17.38.27.61.27.2,0,.4-.07.55-.21.34-.3.36-.82.06-1.16"/>
    <path class="cls-12" d="M58.37,160.33c.29-.28.84-.77,1.61-1.24.85-.52,1.95-1,3.24-1.14.77-.08,1.53-.11,2.27-.14h.03c2.15-.09,4.19-.17,6.09-1.51,1.49-1.06,2.66-2.67,3.38-4.65.15-.42.28-.86.39-1.31-.9-.07-1.74-.08-2.5-.01-.14.54-.44,1.25-.95,2.3-.58,1.2-1.23,2.36-1.24,2.37-.09.17-.23.31-.39.4-.34.21-.77.22-1.12.02-.54-.3-.73-.98-.43-1.51.83-1.48,1.32-2.52,1.58-3.12-.65.18-1.28.41-1.88.68h0c-.03.24-.1.5-.2.82-.15.44-.38,1-.69,1.67-.52,1.11-1.09,2.16-1.1,2.17-.09.17-.23.31-.4.42-.34.21-.76.22-1.11.03-.26-.14-.45-.38-.53-.66-.08-.28-.05-.59.09-.85.05-.09.44-.81.84-1.63-1.57,1.3-2.38,2.57-2.39,2.58-.09.15-.22.27-.36.36-.36.22-.81.22-1.17,0-.52-.32-.68-1.01-.36-1.53.03-.05.72-1.14,2.08-2.43-.1.03-.15.05-.17.06-.58.2-1.21-.11-1.41-.69-.17-.49.03-1.04.47-1.31.07-.04.14-.08.22-.1.04-.01,1.05-.36,2.18-.59.76-.15,1.39-.22,1.91-.2-.03-.02-.07-.05-.1-.08-.23-.19-.36-.46-.38-.76-.03-.42.17-.81.53-1.03.15-.09.32-.15.5-.16.04,0,1.05-.08,2.21,0,1.27.08,2.21.3,2.86.66.23-.03.44-.05.64-.07.51-.05,1.06-.07,1.63-.06-.93-.55-2.26-1.18-3.81-1.48-2.28-.45-4.42-.09-6.37,1.08-.02.01-.03.02-.05.03-1.29.79-2.39,1.95-3.26,3.45-.71,1.22-1.28,2.66-1.69,4.29-.56,2.24-.66,4.18-.68,4.89"/>
    <path class="cls-12" d="M80.01,149.48c-.15-.05-3.81-1.12-7.36-.8-.25.02-.51.05-.81.09-.58-.38-1.49-.61-2.78-.69-1.11-.07-2.09,0-2.13,0-.09,0-.17.03-.25.08-.18.11-.28.3-.26.51.01.15.08.28.19.38s.25.14.4.13c.86-.06,1.86-.04,2.66.06-.88.26-1.73.6-2.54,1.01-.56-.21-1.41-.19-2.59.05-1.1.22-2.07.56-2.11.57-.04.01-.07.03-.11.05-.22.13-.32.4-.23.65.1.29.41.44.7.34.04-.01.97-.33,1.97-.53.24-.05.46-.09.67-.11-.4.27-.78.56-1.15.86-1.82,1.51-2.71,2.93-2.74,2.99-.16.26-.08.6.18.76.18.11.4.11.58,0,.07-.05.13-.11.18-.18,0-.01.86-1.35,2.54-2.74.52-.43,1.07-.82,1.64-1.17-.11.33-.32.85-.7,1.65-.47.98-.95,1.87-.96,1.88-.07.13-.09.28-.04.42.04.14.13.26.26.33.17.09.38.09.55-.01.08-.05.15-.12.19-.2.02-.04.58-1.06,1.08-2.14.3-.65.53-1.19.67-1.61.14-.43.21-.75.19-1,.12-.06.23-.11.33-.15.95-.43,1.97-.76,3.02-.96-.21.68-.9,2.22-2.01,4.19-.15.26-.05.6.21.75.17.1.39.09.56,0,.08-.05.15-.12.19-.2,0-.01.64-1.15,1.22-2.34.62-1.27.93-2.07.99-2.57.12-.01.23-.03.35-.04,3.33-.29,6.91.75,6.95.76.15.04.31.02.44-.06.12-.07.2-.18.24-.31.09-.29-.08-.6-.37-.68"/>
    <path class="cls-3" d="M83.13,141.35c-.21-.42-.71-.59-1.13-.38-.42.21-.59.72-.38,1.13,1.21,2.44,1.83,5.07,1.83,7.81,0,9.7-7.89,17.59-17.59,17.59-3.07,0-6.09-.8-8.73-2.32-2.3-1.32-4.29-3.16-5.79-5.35h-2s.04.08.06.12c1.69,2.77,4.07,5.08,6.89,6.7,2.9,1.66,6.21,2.54,9.57,2.54,10.63,0,19.28-8.65,19.28-19.28,0-3.01-.67-5.89-2-8.56"/>
    <path class="cls-3" d="M46.25,144.34v-5.49c0-.47-.38-.85-.85-.85s-.85.38-.85.85v5.49h1.69Z"/>
    <path class="cls-3" d="M54.64,154.54l1.57-6h1.12c.06,0,.11-.05.11-.11v-2.85c0-.06-.05-.11-.11-.11h-14.79c-.06,0-.11.05-.11.11v2.85c0,.06.05.11.11.11h1.12l1.57,5.98c.07.28.3.47.58.47.95,0,1.72.77,1.72,1.72v1.88c0,.2.16.36.36.36h4.1c.2,0,.36-.16.36-.36v-1.88c0-.95.77-1.72,1.72-1.72.27,0,.51-.19.57-.45"/>
    <path class="cls-3" d="M55.31,144.34v-5.49c0-.47-.38-.85-.85-.85s-.85.38-.85.85v5.49h1.69Z"/>
    <g>
      <path class="cls-6" d="M41.99,184.9c0,.6-.22,1.07-.66,1.41s-1.03.5-1.77.5c-.38,0-.73-.03-1.05-.08-.32-.06-.59-.14-.81-.24v-.82c.23.1.51.19.85.28.34.08.69.12,1.05.12.5,0,.88-.1,1.14-.29s.39-.46.39-.8c0-.22-.05-.41-.14-.56-.1-.15-.26-.29-.49-.42s-.55-.27-.96-.42c-.58-.21-1.02-.47-1.31-.77-.29-.3-.44-.72-.44-1.25,0-.35.09-.66.28-.92.18-.26.44-.46.76-.6.32-.14.7-.21,1.13-.21.37,0,.71.04,1.02.1.31.07.6.16.85.28l-.27.73c-.23-.1-.49-.19-.77-.26-.28-.07-.56-.1-.85-.1-.42,0-.74.09-.96.27s-.32.42-.32.72c0,.23.05.42.14.57.09.15.25.29.47.41s.51.25.87.38c.4.15.74.3,1.01.47.28.17.48.37.63.6s.21.53.21.88Z"/>
      <path class="cls-6" d="M47.64,181.63v5.09h-.68l-.12-.67h-.04c-.16.27-.39.46-.68.58-.29.12-.6.18-.93.18-.61,0-1.08-.15-1.39-.44-.31-.29-.47-.76-.47-1.41v-3.33h.85v3.28c0,.81.38,1.22,1.13,1.22.56,0,.95-.16,1.17-.47.22-.32.33-.77.33-1.37v-2.65h.84Z"/>
      <path class="cls-6" d="M52.7,185.31c0,.49-.18.87-.55,1.12-.37.25-.86.38-1.48.38-.35,0-.66-.03-.92-.08-.26-.06-.48-.14-.68-.24v-.76c.2.1.45.2.74.28.29.09.58.13.88.13.42,0,.73-.07.92-.21.19-.14.29-.32.29-.55,0-.13-.03-.24-.1-.34s-.19-.2-.38-.3c-.18-.1-.44-.22-.77-.34-.33-.13-.61-.25-.85-.38-.23-.13-.41-.28-.54-.46-.13-.18-.19-.41-.19-.68,0-.43.18-.76.53-1,.35-.23.81-.35,1.38-.35.31,0,.6.03.87.09s.52.15.76.25l-.29.67c-.22-.09-.44-.17-.67-.23s-.48-.09-.72-.09c-.34,0-.6.06-.78.17-.18.11-.27.26-.27.45,0,.15.04.27.12.36.08.09.22.19.41.29.19.09.45.2.77.32.32.12.6.24.83.37s.4.28.52.46.18.41.18.68Z"/>
      <path class="cls-6" d="M55.78,186.13c.13,0,.26,0,.39-.03.13-.02.24-.04.32-.08v.64c-.09.04-.22.08-.38.11-.16.03-.32.04-.47.04-.27,0-.51-.05-.74-.14-.23-.09-.41-.25-.55-.48-.14-.23-.21-.55-.21-.96v-2.96h-.72v-.4l.73-.33.33-1.08h.49v1.17h1.47v.65h-1.47v2.95c0,.31.07.54.22.69.15.15.34.22.57.22Z"/>
      <path class="cls-6" d="M59.58,181.54c.62,0,1.08.14,1.38.41.3.27.45.71.45,1.3v3.47h-.61l-.16-.72h-.04c-.22.28-.46.48-.7.62-.25.13-.58.2-1.01.2-.46,0-.85-.12-1.15-.37-.3-.24-.46-.63-.46-1.14s.2-.9.6-1.17,1.01-.43,1.84-.45l.86-.03v-.3c0-.42-.09-.72-.28-.88s-.44-.25-.78-.25c-.27,0-.52.04-.76.12-.24.08-.47.17-.67.27l-.26-.63c.22-.12.48-.22.79-.31.3-.09.62-.13.95-.13ZM60.58,184.23l-.75.03c-.63.03-1.07.13-1.32.3-.24.18-.37.43-.37.75,0,.29.09.49.26.63.17.13.4.2.67.2.42,0,.78-.12,1.07-.36s.43-.6.43-1.1v-.46Z"/>
      <path class="cls-6" d="M63.55,179.72c.13,0,.24.04.34.13.1.08.15.22.15.4s-.05.32-.15.4c-.1.08-.21.13-.34.13-.14,0-.26-.04-.35-.13-.09-.09-.14-.22-.14-.4s.05-.32.14-.4c.1-.09.21-.13.35-.13ZM63.96,181.63v5.09h-.84v-5.09h.84Z"/>
      <path class="cls-6" d="M68.16,181.53c.61,0,1.07.15,1.38.45.31.3.47.77.47,1.42v3.32h-.83v-3.26c0-.82-.38-1.23-1.14-1.23-.56,0-.95.16-1.17.48s-.32.77-.32,1.37v2.64h-.84v-5.09h.67l.12.69h.05c.16-.27.39-.46.68-.59s.6-.19.92-.19Z"/>
      <path class="cls-6" d="M73.65,181.54c.62,0,1.08.14,1.38.41.3.27.45.71.45,1.3v3.47h-.61l-.16-.72h-.04c-.22.28-.46.48-.7.62-.25.13-.58.2-1.01.2-.46,0-.85-.12-1.15-.37-.3-.24-.46-.63-.46-1.14s.2-.9.6-1.17,1.01-.43,1.84-.45l.86-.03v-.3c0-.42-.09-.72-.28-.88s-.44-.25-.78-.25c-.27,0-.52.04-.76.12-.24.08-.47.17-.67.27l-.26-.63c.22-.12.48-.22.79-.31.3-.09.62-.13.95-.13ZM74.65,184.23l-.75.03c-.63.03-1.07.13-1.32.3-.24.18-.37.43-.37.75,0,.29.09.49.26.63.17.13.4.2.67.2.42,0,.78-.12,1.07-.36s.43-.6.43-1.1v-.46Z"/>
      <path class="cls-6" d="M78.03,179.5v1.76c0,.22,0,.42-.01.6,0,.19-.02.33-.03.44h.05c.15-.21.35-.4.6-.54.25-.15.58-.22.98-.22.63,0,1.14.22,1.52.66.38.44.57,1.1.57,1.97s-.19,1.53-.58,1.98c-.39.44-.89.67-1.52.67-.4,0-.73-.07-.98-.22-.25-.15-.45-.32-.6-.52h-.07l-.17.65h-.6v-7.22h.84ZM79.46,182.23c-.54,0-.92.16-1.13.47-.21.31-.31.79-.31,1.44v.04c0,.63.1,1.11.31,1.44.21.33.59.5,1.15.5.46,0,.8-.17,1.02-.5.22-.34.34-.82.34-1.45,0-1.29-.46-1.93-1.38-1.93Z"/>
      <path class="cls-6" d="M84.01,186.72h-.84v-7.22h.84v7.22Z"/>
      <path class="cls-6" d="M87.74,181.53c.43,0,.8.09,1.12.28.32.19.56.46.73.8.17.35.25.75.25,1.21v.5h-3.49c.01.58.16,1.02.44,1.32s.68.45,1.18.45c.32,0,.61-.03.86-.09.25-.06.51-.15.77-.26v.73c-.26.11-.52.2-.77.25s-.55.08-.9.08c-.49,0-.92-.1-1.28-.29s-.65-.49-.86-.87c-.21-.39-.31-.87-.31-1.43s.09-1.04.28-1.43c.19-.4.45-.71.79-.92.34-.21.73-.32,1.18-.32ZM87.73,182.21c-.4,0-.71.13-.95.38-.23.26-.37.61-.41,1.07h2.59c0-.43-.11-.78-.3-1.05-.2-.27-.51-.4-.93-.4Z"/>
    </g>
    <g>
      <path class="cls-6" d="M47.31,197.4c0,.6-.22,1.07-.66,1.41s-1.03.5-1.77.5c-.38,0-.73-.03-1.05-.08-.32-.06-.59-.14-.81-.24v-.82c.23.1.51.19.85.28.34.08.69.12,1.05.12.5,0,.88-.1,1.14-.29s.39-.46.39-.8c0-.22-.05-.41-.14-.56-.1-.15-.26-.29-.49-.42s-.55-.27-.96-.42c-.58-.21-1.02-.47-1.31-.77-.29-.3-.44-.72-.44-1.25,0-.35.09-.66.28-.92.18-.26.44-.46.76-.6.32-.14.7-.21,1.13-.21.37,0,.71.04,1.02.1.31.07.6.16.85.28l-.27.73c-.23-.1-.49-.19-.77-.26-.28-.07-.56-.1-.85-.1-.42,0-.74.09-.96.27s-.32.42-.32.72c0,.23.05.42.14.57.09.15.25.29.47.41s.51.25.87.38c.4.15.74.3,1.01.47.28.17.48.37.63.6s.21.53.21.88Z"/>
      <path class="cls-6" d="M53.13,196.66c0,.84-.21,1.5-.64,1.96-.43.46-1.01.69-1.73.69-.45,0-.85-.1-1.2-.31s-.63-.51-.83-.9c-.2-.4-.3-.88-.3-1.44,0-.84.21-1.49.63-1.95.42-.46,1-.68,1.73-.68.46,0,.86.1,1.22.31.35.21.63.5.83.89.2.39.3.87.3,1.43ZM49.29,196.66c0,.6.12,1.08.36,1.43.24.35.62.53,1.14.53s.89-.18,1.13-.53.36-.83.36-1.43-.12-1.07-.36-1.42c-.24-.34-.62-.51-1.14-.51s-.9.17-1.13.51c-.23.34-.35.81-.35,1.42Z"/>
      <path class="cls-6" d="M55.42,199.22h-.84v-7.22h.84v7.22Z"/>
      <path class="cls-6" d="M61.44,194.13v5.09h-.68l-.12-.67h-.04c-.16.27-.39.46-.68.58-.29.12-.6.18-.93.18-.61,0-1.08-.15-1.39-.44-.31-.29-.47-.76-.47-1.41v-3.33h.85v3.28c0,.81.38,1.22,1.13,1.22.56,0,.95-.16,1.17-.47.22-.32.33-.77.33-1.37v-2.65h.84Z"/>
      <path class="cls-6" d="M64.9,198.63c.13,0,.26,0,.39-.03.13-.02.24-.04.32-.08v.64c-.09.04-.22.08-.38.11-.16.03-.32.04-.47.04-.27,0-.51-.05-.74-.14-.23-.09-.41-.25-.55-.48-.14-.23-.21-.55-.21-.96v-2.96h-.72v-.4l.73-.33.33-1.08h.49v1.17h1.47v.65h-1.47v2.95c0,.31.07.54.22.69.15.15.34.22.57.22Z"/>
      <path class="cls-6" d="M67.19,192.22c.13,0,.24.04.34.13.1.08.15.22.15.4s-.05.32-.15.4c-.1.08-.21.13-.34.13-.14,0-.26-.04-.35-.13-.09-.09-.14-.22-.14-.4s.05-.32.14-.4c.1-.09.21-.13.35-.13ZM67.59,194.13v5.09h-.84v-5.09h.84Z"/>
      <path class="cls-6" d="M73.78,196.66c0,.84-.21,1.5-.64,1.96-.43.46-1.01.69-1.73.69-.45,0-.85-.1-1.2-.31s-.63-.51-.83-.9c-.2-.4-.3-.88-.3-1.44,0-.84.21-1.49.63-1.95.42-.46,1-.68,1.73-.68.46,0,.86.1,1.22.31.35.21.63.5.83.89.2.39.3.87.3,1.43ZM69.93,196.66c0,.6.12,1.08.36,1.43.24.35.62.53,1.14.53s.89-.18,1.13-.53.36-.83.36-1.43-.12-1.07-.36-1.42c-.24-.34-.62-.51-1.14-.51s-.9.17-1.13.51c-.23.34-.35.81-.35,1.42Z"/>
      <path class="cls-6" d="M77.69,194.03c.61,0,1.07.15,1.38.45.31.3.47.77.47,1.42v3.32h-.83v-3.26c0-.82-.38-1.23-1.14-1.23-.56,0-.95.16-1.17.48s-.32.77-.32,1.37v2.64h-.84v-5.09h.67l.12.69h.05c.16-.27.39-.46.68-.59s.6-.19.92-.19Z"/>
      <path class="cls-6" d="M84.57,197.81c0,.49-.18.87-.55,1.12-.37.25-.86.38-1.48.38-.35,0-.66-.03-.92-.08-.26-.06-.48-.14-.68-.24v-.76c.2.1.45.2.74.28.29.09.58.13.88.13.42,0,.73-.07.92-.21.19-.14.29-.32.29-.55,0-.13-.03-.24-.1-.34s-.19-.2-.38-.3c-.18-.1-.44-.22-.77-.34-.33-.13-.61-.25-.85-.38-.23-.13-.41-.28-.54-.46-.13-.18-.19-.41-.19-.68,0-.43.18-.76.53-1,.35-.23.81-.35,1.38-.35.31,0,.6.03.87.09s.52.15.76.25l-.29.67c-.22-.09-.44-.17-.67-.23s-.48-.09-.72-.09c-.34,0-.6.06-.78.17-.18.11-.27.26-.27.45,0,.15.04.27.12.36.08.09.22.19.41.29.19.09.45.2.77.32.32.12.6.24.83.37s.4.28.52.46.18.41.18.68Z"/>
    </g>
  </g>
  <g>
    <path class="cls-9" d="M334.77,98.48c-6.51,0-13.13,1.01-19.65,3.13-16.19,5.26-29.37,16.52-37.1,31.69-7.73,15.17-9.09,32.45-3.83,48.65,5.26,16.2,16.51,29.38,31.68,37.11,9.1,4.64,18.95,6.98,28.88,6.98,6.63,0,13.28-1.04,19.77-3.15,16.19-5.26,29.37-16.52,37.1-31.69,7.73-15.17,9.09-32.45,3.83-48.65-8.74-26.92-33.8-44.06-60.67-44.06"/>
    <path class="cls-11" d="M334.77,105.56c-5.79,0-11.67.89-17.47,2.78-14.39,4.68-26.11,14.68-32.98,28.17-6.87,13.49-8.08,28.85-3.4,43.24s14.68,26.11,28.17,32.98c8.09,4.12,16.85,6.21,25.67,6.21,5.89,0,11.81-.93,17.57-2.8,14.39-4.68,26.11-14.68,32.98-28.17,6.87-13.49,8.08-28.85,3.4-43.24-7.77-23.92-30.04-39.17-53.93-39.17"/>
    <polygon class="cls-3" points="340.86 172.3 328.61 172.3 331.32 170.54 338.15 170.54 340.86 172.3"/>
    <rect class="cls-3" x="323.75" y="149.9" width="6.12" height="1.77" transform="translate(29.26 353.27) rotate(-59)"/>
    <rect class="cls-3" x="341.73" y="147.72" width="1.77" height="6.12" transform="translate(-28.72 198) rotate(-31)"/>
    <polygon class="cls-5" points="358.91 158.49 350.04 163.82 350.04 174.59 358.91 169.59 358.91 158.49"/>
    <polygon class="cls-5" points="339.65 158.56 339.65 169.6 348.27 174.57 348.27 163.74 339.65 158.56"/>
    <polygon class="cls-5" points="357.92 157.02 349.16 151.83 340.56 157.05 349.21 162.25 357.92 157.02"/>
    <polygon class="cls-5" points="329.98 158.49 321.11 163.82 321.11 174.59 329.98 169.59 329.98 158.49"/>
    <polygon class="cls-5" points="310.72 158.56 310.72 169.6 319.34 174.57 319.34 163.74 310.72 158.56"/>
    <polygon class="cls-5" points="328.99 157.02 320.23 151.83 311.63 157.05 320.29 162.25 328.99 157.02"/>
    <polygon class="cls-3" points="344.41 133.89 335.54 139.22 335.54 149.99 344.41 144.99 344.41 133.89"/>
    <polygon class="cls-3" points="325.15 133.96 325.15 144.99 333.77 149.97 333.77 139.14 325.15 133.96"/>
    <polygon class="cls-3" points="343.42 132.42 334.66 127.23 326.06 132.45 334.72 137.65 343.42 132.42"/>
    <g>
      <path class="cls-6" d="M310.97,189.42h1.94c.84,0,1.48.13,1.92.38.44.25.66.69.66,1.3,0,.4-.11.73-.33.99s-.54.43-.96.51v.05c.29.05.54.14.77.26.23.12.41.29.55.51.13.22.2.51.2.85,0,.61-.21,1.09-.63,1.42-.42.34-1,.5-1.72.5h-2.38v-6.78ZM311.82,192.31h1.25c.58,0,.97-.09,1.19-.28.22-.19.33-.46.33-.83s-.13-.64-.39-.8c-.26-.16-.68-.24-1.26-.24h-1.12v2.16ZM311.82,193.02v2.46h1.37c.6,0,1.02-.12,1.25-.35s.35-.54.35-.92c0-.35-.12-.64-.37-.86-.24-.22-.68-.33-1.31-.33h-1.3Z"/>
      <path class="cls-6" d="M318.01,196.21h-.84v-7.22h.84v7.22Z"/>
      <path class="cls-6" d="M324.18,193.65c0,.84-.21,1.5-.64,1.96-.43.46-1,.69-1.73.69-.45,0-.85-.1-1.2-.31-.35-.21-.63-.51-.83-.9-.2-.4-.3-.88-.3-1.44,0-.84.21-1.49.63-1.95s1-.68,1.73-.68c.46,0,.86.1,1.22.31.36.21.63.5.83.89.2.39.3.87.3,1.43ZM320.33,193.65c0,.6.12,1.08.36,1.43s.62.53,1.14.53.89-.18,1.13-.53c.24-.35.36-.83.36-1.43s-.12-1.07-.36-1.42c-.24-.34-.62-.51-1.14-.51s-.9.17-1.13.51c-.23.34-.35.81-.35,1.42Z"/>
      <path class="cls-6" d="M327.69,196.3c-.46,0-.86-.09-1.21-.28s-.62-.47-.82-.85c-.2-.39-.3-.88-.3-1.48s.1-1.14.31-1.53.49-.68.85-.86.77-.28,1.23-.28c.25,0,.5.03.75.08.24.05.44.12.59.2l-.26.69c-.15-.06-.33-.11-.53-.16-.2-.05-.39-.08-.57-.08-1,0-1.5.64-1.5,1.93,0,.61.12,1.08.37,1.41.24.33.61.49,1.09.49.27,0,.52-.03.73-.09.21-.06.41-.13.59-.21v.74c-.17.09-.36.16-.57.2-.21.05-.45.07-.75.07Z"/>
      <path class="cls-6" d="M331.16,188.99v3.77c0,.1,0,.23-.01.4,0,.17-.02.31-.02.43h.04c.04-.05.09-.12.17-.22.08-.09.15-.19.23-.29.08-.1.15-.18.2-.24l1.62-1.72h.98l-2.06,2.18,2.2,2.92h-1.01l-1.77-2.38-.58.5v1.87h-.83v-7.22h.83Z"/>
      <path class="cls-6" d="M337.58,196.3c-.46,0-.86-.09-1.21-.28s-.62-.47-.82-.85c-.2-.39-.3-.88-.3-1.48s.1-1.14.31-1.53.49-.68.85-.86.77-.28,1.23-.28c.25,0,.5.03.75.08.24.05.44.12.59.2l-.26.69c-.15-.06-.33-.11-.53-.16-.2-.05-.39-.08-.57-.08-1,0-1.5.64-1.5,1.93,0,.61.12,1.08.37,1.41.24.33.61.49,1.09.49.27,0,.52-.03.73-.09.21-.06.41-.13.59-.21v.74c-.17.09-.36.16-.57.2-.21.05-.45.07-.75.07Z"/>
      <path class="cls-6" d="M341.07,188.99v2.12c0,.25-.02.49-.05.71h.06c.16-.26.39-.46.67-.59.28-.13.59-.2.92-.2.61,0,1.08.15,1.39.44.31.29.47.77.47,1.42v3.32h-.83v-3.26c0-.82-.38-1.23-1.14-1.23-.57,0-.96.16-1.17.48-.21.32-.32.78-.32,1.37v2.63h-.84v-7.22h.84Z"/>
      <path class="cls-6" d="M348.17,191.03c.62,0,1.08.14,1.38.41.3.27.45.71.45,1.3v3.47h-.61l-.16-.72h-.04c-.22.28-.46.48-.7.62s-.58.2-1.01.2c-.46,0-.85-.12-1.15-.37-.3-.24-.46-.63-.46-1.14s.2-.9.6-1.17c.4-.28,1.01-.43,1.84-.45l.86-.03v-.3c0-.42-.09-.72-.28-.88s-.44-.25-.78-.25c-.27,0-.52.04-.76.12-.24.08-.47.17-.67.27l-.26-.63c.22-.12.49-.22.79-.31.3-.09.62-.13.95-.13ZM349.17,193.72l-.75.03c-.63.03-1.07.13-1.32.3-.24.18-.37.43-.37.75,0,.29.09.49.26.63.17.13.4.2.67.2.42,0,.78-.12,1.07-.36.29-.24.43-.6.43-1.1v-.46Z"/>
      <path class="cls-6" d="M352.14,189.2c.13,0,.24.04.34.13.1.08.15.22.15.4s-.05.32-.15.4c-.1.08-.21.13-.34.13-.14,0-.26-.04-.35-.13-.1-.09-.14-.22-.14-.4s.05-.32.14-.4c.09-.09.21-.13.35-.13ZM352.55,191.11v5.09h-.84v-5.09h.84Z"/>
      <path class="cls-6" d="M356.76,191.02c.61,0,1.07.15,1.38.45s.47.77.47,1.42v3.32h-.83v-3.26c0-.82-.38-1.23-1.14-1.23-.56,0-.95.16-1.17.48-.22.32-.32.77-.32,1.37v2.64h-.84v-5.09h.67l.12.69h.05c.16-.27.39-.46.68-.59s.6-.19.92-.19Z"/>
    </g>
  </g>
  <g>
    <path class="cls-9" d="M199.24,0c-6.51,0-13.13,1.01-19.65,3.13-16.19,5.26-29.37,16.52-37.1,31.69-7.73,15.17-9.09,32.45-3.83,48.65,5.26,16.2,16.51,29.38,31.68,37.11,9.1,4.64,18.95,6.98,28.88,6.98,6.63,0,13.28-1.04,19.77-3.15,16.19-5.26,29.37-16.52,37.1-31.69,7.73-15.17,9.09-32.45,3.83-48.65C251.17,17.15,226.12,0,199.24,0"/>
    <path class="cls-11" d="M199.25,7.09c-5.79,0-11.67.89-17.47,2.78-14.4,4.68-26.11,14.68-32.98,28.17-6.87,13.49-8.08,28.85-3.4,43.24s14.68,26.11,28.17,32.98c8.09,4.12,16.85,6.21,25.67,6.21,5.89,0,11.81-.93,17.57-2.8,14.39-4.68,26.11-14.68,32.98-28.17,6.87-13.49,8.08-28.85,3.4-43.24-7.77-23.92-30.04-39.17-53.93-39.17"/>
    <path class="cls-10" d="M218.7,45.31c-.39-.39-.68-.86-.85-1.38-.18-.52-.24-1.07-.17-1.61,0-.03,0-.06,0-.09,0-1.63-.61-3.21-1.69-4.42-1.09-1.22-2.59-1.99-4.21-2.17-.2-1.61-.97-3.09-2.16-4.2-.66-.61-1.45-1.08-2.3-1.37-.85-.29-1.76-.41-2.66-.33s-1.77.33-2.57.77c-.79.43-1.49,1.02-2.04,1.73v10.64h3.27c.57,0,1.1-.22,1.51-.63.4-.4.62-.94.63-1.51v-1.86c-.49-.2-.91-.56-1.18-1.02-.29-.49-.39-1.07-.3-1.62.1-.56.39-1.07.82-1.43s.98-.57,1.55-.57,1.12.2,1.55.57.72.87.82,1.43c.1.56,0,1.13-.3,1.62-.27.46-.69.82-1.18,1.02v1.86c0,1.05-.41,2.03-1.15,2.77-.74.74-1.72,1.15-2.77,1.15h-3.27v2.3h8.56c.57,0,1.11-.22,1.51-.63.4-.4.62-.94.62-1.51v-1.86c-.49-.2-.91-.55-1.18-1.02-.29-.49-.39-1.07-.3-1.62.1-.56.39-1.07.82-1.43s.98-.57,1.55-.57,1.12.2,1.55.57.72.87.82,1.43c.1.56,0,1.13-.3,1.62-.27.46-.69.82-1.18,1.02v1.86c0,1.05-.41,2.03-1.15,2.77-.74.74-1.72,1.15-2.77,1.15h-8.56v2.16h8.56c1.05,0,2.03.41,2.77,1.15.74.74,1.15,1.72,1.15,2.77v1.86c.49.2.91.56,1.18,1.02.29.49.39,1.07.3,1.62-.1.56-.39,1.07-.82,1.43-.43.37-.98.57-1.55.57s-1.12-.2-1.55-.57c-.43-.36-.72-.87-.82-1.43-.1-.56,0-1.14.3-1.62.27-.46.69-.82,1.18-1.02v-1.86c0-.57-.22-1.11-.62-1.51-.4-.4-.94-.62-1.51-.63h-8.56v2.3h3.27c1.05,0,2.03.41,2.77,1.15.74.74,1.15,1.72,1.15,2.77v1.86c.49.2.91.56,1.18,1.02.29.49.39,1.07.3,1.62-.1.56-.39,1.07-.82,1.43-.43.37-.98.57-1.55.57s-1.12-.2-1.55-.57c-.43-.36-.72-.87-.82-1.43-.1-.56,0-1.13.3-1.62.27-.46.69-.82,1.18-1.02v-1.86c0-.57-.22-1.11-.63-1.51-.4-.4-.94-.62-1.51-.63h-3.27v10.63c.56.73,1.28,1.33,2.09,1.76.81.43,1.71.69,2.62.75.14,0,.28.01.41.01,1.68,0,3.3-.64,4.53-1.79,1.15-1.08,1.88-2.54,2.06-4.11,1.63-.18,3.13-.96,4.22-2.18,1.09-1.22,1.7-2.8,1.7-4.44,0-.03,0-.06,0-.09-.07-.55,0-1.1.17-1.62.18-.52.47-.99.86-1.38,1.13-1.22,1.76-2.83,1.76-4.5,0-1.67-.63-3.28-1.77-4.51"/>
    <path class="cls-3" d="M196.64,48.14c-.69,0-1.38-.08-2.05-.25-.56-.01-3.19.01-4.1,1.58-.06.1-.13.19-.23.27-.09.07-.2.13-.31.16-.08.02-.16.03-.24.03-.04,0-.08,0-.11,0-.12-.02-.23-.05-.33-.11s-.19-.14-.26-.24c-.07-.1-.12-.2-.15-.32-.03-.12-.03-.24-.02-.35.02-.12.06-.23.12-.33.37-.58.85-1.06,1.42-1.44.5-.33,1.04-.57,1.62-.71-.62-.63-1.09-1.41-1.36-2.26-.07-.22-.06-.47.05-.68.11-.21.29-.37.51-.45s.47-.06.68.05c.21.11.37.29.45.52.37,1.11,1.72,3.57,6.19,2.54h.03v-13.89c-.56-.73-1.27-1.33-2.09-1.76s-1.71-.69-2.62-.75c-.89-.06-1.77.06-2.61.36-.84.29-1.6.76-2.26,1.36-.71.66-1.27,1.46-1.65,2.35l.05.16c.33,1.09.94,2.08,1.77,2.85.62.5,1.33.85,2.1,1.05.78.2,1.57.22,2.36.08.13-.01.24,0,.36.03.11.03.22.09.31.16.09.07.17.16.23.27.06.1.09.21.11.33.01.12,0,.23-.03.35-.03.11-.09.22-.16.31-.07.09-.16.17-.26.23-.1.06-.21.09-.33.11-.4.05-.81.07-1.21.07-.07,0-.15,0-.22,0-1.62,0-3.19-.58-4.43-1.64h0c-.74-.67-1.34-1.46-1.77-2.37v-.03c-1.48.31-2.79,1.11-3.74,2.26-.99,1.19-1.53,2.68-1.53,4.23.08.56.02,1.13-.15,1.66-.18.54-.48,1.02-.87,1.42-1.13,1.23-1.76,2.83-1.76,4.51,0,1.67.64,3.28,1.77,4.5.39.4.69.89.87,1.42.18.53.23,1.1.15,1.66,0,1.53.52,3.01,1.49,4.2.93,1.15,2.22,1.95,3.66,2.28l.02-.04c.34-.59.78-1.11,1.29-1.57,1.55-1.35,3.68-1.84,6.35-1.47.23.04.44.16.58.35.14.19.2.42.16.65-.03.23-.15.44-.34.58-.18.14-.42.21-.65.18-2.13-.3-3.78.05-4.92,1.04-.56.5-1.01,1.14-1.29,1.83l-.06.14c.36.96.93,1.83,1.67,2.54,1.22,1.16,2.85,1.8,4.53,1.79.99,0,1.97-.23,2.85-.67s1.66-1.07,2.27-1.85v-19.45c-.62.12-1.26.19-1.9.19"/>
    <g>
      <path class="cls-7" d="M185.69,85.2l-.82-2.1h-2.69l-.81,2.1h-.86l2.65-6.81h.77l2.64,6.81h-.88ZM184.62,82.34l-.76-2.05c-.02-.05-.05-.14-.1-.28s-.09-.27-.13-.41c-.04-.14-.07-.25-.1-.33-.05.2-.1.39-.16.58-.05.19-.1.33-.14.44l-.77,2.05h2.15Z"/>
      <path class="cls-7" d="M189.91,80.02c.09,0,.2,0,.3.01.11,0,.21.02.29.04l-.1.77c-.08-.02-.17-.03-.28-.05-.1-.01-.19-.02-.28-.02-.26,0-.5.07-.73.21s-.41.34-.55.6-.2.56-.2.9v2.72h-.84v-5.09h.68l.09.93h.04c.16-.28.37-.52.63-.72.26-.2.57-.3.93-.3Z"/>
      <path class="cls-7" d="M193.3,84.61c.13,0,.26,0,.39-.03s.24-.04.32-.08v.64c-.09.04-.22.08-.38.11s-.32.04-.47.04c-.27,0-.51-.05-.74-.14-.23-.09-.41-.25-.55-.48s-.21-.55-.21-.96v-2.96h-.72v-.4l.73-.33.33-1.08h.49v1.17h1.47v.65h-1.47v2.94c0,.31.07.54.22.69.15.15.34.22.57.22Z"/>
      <path class="cls-7" d="M195.6,78.2c.13,0,.24.04.34.13.1.09.15.22.15.4s-.05.32-.15.4-.21.13-.34.13c-.14,0-.26-.04-.35-.13-.09-.09-.14-.22-.14-.4s.05-.32.14-.4c.1-.09.21-.13.35-.13ZM196.01,80.11v5.09h-.84v-5.09h.84Z"/>
      <path class="cls-7" d="M200.1,80.76h-1.28v4.45h-.84v-4.45h-.89v-.39l.89-.29v-.29c0-.66.14-1.13.43-1.42.29-.29.69-.43,1.22-.43.2,0,.38.02.55.05.17.04.32.07.44.12l-.22.66c-.1-.03-.22-.06-.35-.1-.13-.03-.27-.05-.41-.05-.28,0-.49.09-.62.28-.14.19-.2.48-.2.88v.33h1.28v.65Z"/>
      <path class="cls-7" d="M201.59,78.2c.13,0,.24.04.34.13.1.09.15.22.15.4s-.05.32-.15.4c-.1.09-.21.13-.34.13-.14,0-.26-.04-.35-.13-.1-.09-.14-.22-.14-.4s.05-.32.14-.4c.09-.09.21-.13.35-.13ZM202,80.11v5.09h-.84v-5.09h.84Z"/>
      <path class="cls-7" d="M205.8,85.3c-.46,0-.86-.09-1.21-.28s-.62-.47-.82-.85c-.2-.39-.3-.88-.3-1.48s.1-1.14.31-1.53.49-.68.85-.86c.36-.18.77-.28,1.23-.28.25,0,.5.03.75.08.24.05.44.12.59.19l-.26.69c-.15-.06-.33-.11-.53-.16-.2-.05-.39-.08-.57-.08-1,0-1.5.64-1.5,1.93,0,.61.12,1.08.37,1.41.24.33.61.49,1.09.49.27,0,.52-.03.73-.09.21-.06.41-.13.59-.21v.74c-.17.09-.36.16-.57.2-.21.05-.45.07-.75.07Z"/>
      <path class="cls-7" d="M208.88,78.2c.13,0,.24.04.34.13.1.09.15.22.15.4s-.05.32-.15.4c-.1.09-.21.13-.34.13-.14,0-.26-.04-.35-.13-.1-.09-.14-.22-.14-.4s.05-.32.14-.4c.09-.09.21-.13.35-.13ZM209.29,80.11v5.09h-.84v-5.09h.84Z"/>
      <path class="cls-7" d="M212.97,80.02c.62,0,1.08.14,1.38.41.3.27.45.71.45,1.3v3.47h-.61l-.16-.72h-.04c-.22.28-.46.48-.7.62s-.58.2-1.01.2c-.46,0-.85-.12-1.15-.37-.3-.24-.46-.63-.46-1.15s.2-.9.6-1.17c.4-.28,1.01-.43,1.84-.45l.86-.03v-.3c0-.42-.09-.72-.28-.88s-.44-.25-.78-.25c-.27,0-.52.04-.76.12-.24.08-.47.17-.67.27l-.26-.63c.22-.12.49-.22.79-.31s.62-.13.95-.13ZM213.97,82.71l-.75.03c-.63.03-1.07.13-1.32.3-.24.18-.37.43-.37.75,0,.28.09.49.26.63.17.13.4.2.67.2.42,0,.78-.12,1.07-.36.29-.24.43-.6.43-1.1v-.46Z"/>
      <path class="cls-7" d="M217.35,85.2h-.84v-7.22h.84v7.22Z"/>
    </g>
    <g>
      <path class="cls-7" d="M175.28,97.7h-2.45v-.49l.8-.18v-5.42l-.8-.19v-.49h2.45v.49l-.8.19v5.42l.8.18v.49Z"/>
      <path class="cls-7" d="M179.07,92.52c.61,0,1.07.15,1.38.45.31.3.47.77.47,1.43v3.32h-.83v-3.26c0-.82-.38-1.23-1.14-1.23-.56,0-.95.16-1.17.48-.22.32-.32.77-.32,1.37v2.64h-.84v-5.09h.67l.12.69h.05c.16-.27.39-.46.68-.59s.6-.19.92-.19Z"/>
      <path class="cls-7" d="M184.33,97.11c.13,0,.26,0,.39-.03s.24-.04.32-.08v.64c-.09.04-.22.08-.38.11s-.32.04-.47.04c-.27,0-.51-.05-.74-.14-.23-.09-.41-.25-.55-.48s-.21-.55-.21-.96v-2.96h-.72v-.4l.73-.33.33-1.08h.49v1.17h1.47v.65h-1.47v2.94c0,.31.07.54.22.69.15.15.34.22.57.22Z"/>
      <path class="cls-7" d="M188.17,92.52c.43,0,.8.1,1.12.29.32.19.56.46.73.8.17.35.25.75.25,1.21v.5h-3.49c.01.58.16,1.01.44,1.32s.68.45,1.18.45c.32,0,.61-.03.86-.09.25-.06.51-.15.77-.26v.73c-.26.11-.52.2-.77.25s-.55.08-.9.08c-.49,0-.92-.1-1.28-.29-.37-.2-.65-.49-.86-.87-.21-.39-.31-.86-.31-1.43s.09-1.04.28-1.43c.19-.4.45-.71.79-.92s.73-.32,1.18-.32ZM188.16,93.2c-.4,0-.71.13-.95.38-.23.26-.37.61-.41,1.07h2.59c0-.43-.11-.78-.3-1.05s-.51-.4-.93-.4Z"/>
      <path class="cls-7" d="M192.53,97.7h-.84v-7.22h.84v7.22Z"/>
      <path class="cls-7" d="M195.13,97.7h-.84v-7.22h.84v7.22Z"/>
      <path class="cls-7" d="M197.31,90.7c.13,0,.24.04.34.13.1.09.15.22.15.4s-.05.32-.15.4-.21.13-.34.13c-.14,0-.26-.04-.35-.13-.09-.09-.14-.22-.14-.4s.05-.32.14-.4c.1-.09.21-.13.35-.13ZM197.72,92.61v5.09h-.84v-5.09h.84Z"/>
      <path class="cls-7" d="M201.28,92.52c.34,0,.64.06.91.19.27.13.5.32.69.58h.05l.12-.67h.66v5.18c0,.73-.19,1.28-.55,1.64-.37.37-.95.55-1.72.55s-1.36-.11-1.83-.32v-.77c.5.27,1.13.4,1.88.4.44,0,.78-.13,1.03-.38s.38-.61.38-1.05v-.2c0-.08,0-.19,0-.33,0-.14.01-.24.02-.3h-.04c-.34.51-.87.77-1.58.77-.66,0-1.17-.23-1.54-.69-.37-.46-.55-1.11-.55-1.94s.18-1.46.55-1.93c.37-.48.88-.72,1.54-.72ZM201.4,93.22c-.42,0-.75.17-.99.51s-.35.82-.35,1.45.12,1.11.34,1.44c.23.33.57.5,1.02.5.51,0,.89-.14,1.12-.41.23-.28.35-.72.35-1.33v-.2c0-.69-.12-1.19-.36-1.49-.24-.3-.62-.46-1.13-.46Z"/>
      <path class="cls-7" d="M207.43,92.52c.43,0,.8.1,1.12.29.32.19.56.46.73.8.17.35.25.75.25,1.21v.5h-3.49c.01.58.16,1.01.44,1.32.28.3.68.45,1.18.45.32,0,.61-.03.86-.09.25-.06.51-.15.77-.26v.73c-.26.11-.52.2-.77.25s-.55.08-.9.08c-.49,0-.92-.1-1.28-.29-.37-.2-.65-.49-.86-.87-.21-.39-.31-.86-.31-1.43s.09-1.04.28-1.43.45-.71.79-.92.73-.32,1.18-.32ZM207.42,93.2c-.4,0-.71.13-.95.38s-.37.61-.41,1.07h2.59c0-.43-.11-.78-.3-1.05s-.51-.4-.93-.4Z"/>
      <path class="cls-7" d="M213.42,92.52c.61,0,1.07.15,1.38.45.31.3.47.77.47,1.43v3.32h-.83v-3.26c0-.82-.38-1.23-1.14-1.23-.56,0-.95.16-1.17.48-.22.32-.32.77-.32,1.37v2.64h-.84v-5.09h.67l.12.69h.05c.16-.27.39-.46.68-.59s.6-.19.92-.19Z"/>
      <path class="cls-7" d="M219.02,97.8c-.46,0-.86-.09-1.21-.28s-.62-.47-.82-.85c-.2-.39-.3-.88-.3-1.48s.1-1.14.31-1.53.49-.68.85-.86c.36-.18.77-.28,1.23-.28.25,0,.5.03.75.08.24.05.44.12.59.19l-.26.69c-.15-.06-.33-.11-.53-.16-.2-.05-.39-.08-.57-.08-1,0-1.5.64-1.5,1.93,0,.61.12,1.08.37,1.41.24.33.61.49,1.09.49.27,0,.52-.03.73-.09.21-.06.41-.13.59-.21v.74c-.17.09-.36.16-.57.2-.21.05-.45.07-.75.07Z"/>
      <path class="cls-7" d="M223.64,92.52c.43,0,.8.1,1.12.29.32.19.56.46.73.8.17.35.25.75.25,1.21v.5h-3.49c.01.58.16,1.01.44,1.32.28.3.68.45,1.18.45.32,0,.61-.03.86-.09.25-.06.51-.15.77-.26v.73c-.26.11-.52.2-.77.25s-.55.08-.9.08c-.49,0-.92-.1-1.28-.29-.37-.2-.65-.49-.86-.87-.21-.39-.31-.86-.31-1.43s.09-1.04.28-1.43.45-.71.79-.92.73-.32,1.18-.32ZM223.63,93.2c-.4,0-.71.13-.95.38s-.37.61-.41,1.07h2.59c0-.43-.11-.78-.3-1.05s-.51-.4-.93-.4Z"/>
    </g>
  </g>
  <g>
    <path class="cls-9" d="M282.98,257.78c-6.51,0-13.13,1.01-19.65,3.13-16.2,5.26-29.37,16.52-37.1,31.69-7.73,15.17-9.09,32.45-3.83,48.65,5.26,16.2,16.51,29.38,31.68,37.11,9.1,4.64,18.95,6.98,28.88,6.98,6.63,0,13.28-1.04,19.77-3.15,16.19-5.26,29.37-16.52,37.1-31.69,7.73-15.17,9.09-32.45,3.83-48.65-8.74-26.91-33.8-44.06-60.67-44.06"/>
    <path class="cls-11" d="M282.99,264.87c-5.79,0-11.67.9-17.47,2.78-14.39,4.68-26.11,14.68-32.98,28.17-6.87,13.49-8.08,28.85-3.4,43.24s14.68,26.11,28.17,32.98c8.09,4.12,16.85,6.21,25.67,6.21,5.89,0,11.81-.93,17.57-2.8,14.39-4.68,26.11-14.68,32.98-28.17,6.87-13.49,8.08-28.85,3.4-43.24-7.77-23.92-30.04-39.17-53.93-39.17"/>
    <g>
      <path class="cls-1" d="M265.08,317.44h-4.54c-.52,0-.94-.42-.94-.94s.42-.94.94-.94h4.54c.52,0,.94.42.94.94s-.42.94-.94.94"/>
      <path class="cls-1" d="M256.29,313.94c-1.41,0-2.56,1.15-2.56,2.56s1.15,2.56,2.56,2.56,2.56-1.15,2.56-2.56-1.15-2.56-2.56-2.56M256.29,320.94c-2.45,0-4.44-1.99-4.44-4.44s1.99-4.44,4.44-4.44,4.44,1.99,4.44,4.44-1.99,4.44-4.44,4.44"/>
      <path class="cls-1" d="M265.24,288.45c-1.41,0-2.56,1.15-2.56,2.56s1.15,2.56,2.56,2.56,2.56-1.15,2.56-2.56-1.15-2.56-2.56-2.56M265.24,295.45c-2.45,0-4.44-1.99-4.44-4.44s1.99-4.44,4.44-4.44,4.44,1.99,4.44,4.44-1.99,4.44-4.44,4.44"/>
      <path class="cls-1" d="M305.52,317.44h-4.54c-.52,0-.94-.42-.94-.94s.42-.94.94-.94h4.54c.52,0,.94.42.94.94s-.42.94-.94.94"/>
      <path class="cls-1" d="M309.77,313.94c-1.41,0-2.56,1.15-2.56,2.56s1.15,2.56,2.56,2.56,2.56-1.15,2.56-2.56-1.15-2.56-2.56-2.56M309.77,320.94c-2.45,0-4.44-1.99-4.44-4.44s1.99-4.44,4.44-4.44,4.44,1.99,4.44,4.44-1.99,4.44-4.44,4.44"/>
      <path class="cls-1" d="M300.82,288.45c-1.41,0-2.56,1.15-2.56,2.56s1.15,2.56,2.56,2.56,2.56-1.15,2.56-2.56-1.15-2.56-2.56-2.56M300.82,295.45c-2.45,0-4.44-1.99-4.44-4.44s1.99-4.44,4.44-4.44,4.44,1.99,4.44,4.44-1.99,4.44-4.44,4.44"/>
      <path class="cls-10" d="M272.79,327.76h-3.52c-.52,0-.94-.42-.94-.94s.42-.94.94-.94h3.52c.52,0,.94.42.94.94s-.42.94-.94.94"/>
      <path class="cls-10" d="M277.6,327.76h-1.11c-.52,0-.94-.42-.94-.94s.42-.94.94-.94h1.11c.52,0,.94.42.94.94s-.42.94-.94.94"/>
      <path class="cls-8" d="M284.94,327.76h-3.82c-.52,0-.94-.42-.94-.94s.42-.94.94-.94h3.82c.52,0,.94.42.94.94s-.42.94-.94.94"/>
      <path class="cls-10" d="M265.08,302.56h-4.54c-.52,0-.94-.42-.94-.94s.42-.94.94-.94h4.54c.52,0,.94.42.94.94s-.42.94-.94.94"/>
      <path class="cls-10" d="M264.91,310h-4.38c-.52,0-.94-.42-.94-.94s.42-.94.94-.94h4.38c.52,0,.94.42.94.94s-.42.94-.94.94"/>
      <path class="cls-10" d="M256.33,310h-1.11c-.52,0-.94-.42-.94-.94s.42-.94.94-.94h1.11c.52,0,.94.42.94.94s-.42.94-.94.94"/>
      <path class="cls-10" d="M256.29,299.06c-1.41,0-2.56,1.15-2.56,2.56s1.15,2.56,2.56,2.56,2.56-1.15,2.56-2.56-1.15-2.56-2.56-2.56M256.29,306.06c-2.45,0-4.44-1.99-4.44-4.44s1.99-4.44,4.44-4.44,4.44,1.99,4.44,4.44-1.99,4.44-4.44,4.44"/>
      <path class="cls-10" d="M265.24,324.26c-1.41,0-2.56,1.15-2.56,2.56s1.15,2.56,2.56,2.56,2.56-1.15,2.56-2.56-1.15-2.56-2.56-2.56M265.24,331.26c-2.45,0-4.44-1.99-4.44-4.44s1.99-4.44,4.44-4.44,4.44,1.99,4.44,4.44-1.99,4.44-4.44,4.44"/>
      <path class="cls-10" d="M305.52,302.56h-4.54c-.52,0-.94-.42-.94-.94s.42-.94.94-.94h4.54c.52,0,.94.42.94.94s-.42.94-.94.94"/>
      <path class="cls-10" d="M305.52,310h-4.38c-.52,0-.94-.42-.94-.94s.42-.94.94-.94h4.38c.52,0,.94.42.94.94s-.42.94-.94.94"/>
      <path class="cls-10" d="M296.78,327.76h-3.52c-.52,0-.94-.42-.94-.94s.42-.94.94-.94h3.52c.52,0,.94.42.94.94s-.42.94-.94.94"/>
      <path class="cls-10" d="M310.84,310h-1.11c-.52,0-.94-.42-.94-.94s.42-.94.94-.94h1.11c.52,0,.94.42.94.94s-.42.94-.94.94"/>
      <path class="cls-10" d="M289.57,327.76h-1.11c-.52,0-.94-.42-.94-.94s.42-.94.94-.94h1.11c.52,0,.94.42.94.94s-.42.94-.94.94"/>
      <path class="cls-10" d="M284.94,327.76h-3.82c-.52,0-.94-.42-.94-.94s.42-.94.94-.94h3.82c.52,0,.94.42.94.94s-.42.94-.94.94"/>
      <path class="cls-10" d="M309.77,299.06c-1.41,0-2.56,1.15-2.56,2.56s1.15,2.56,2.56,2.56,2.56-1.15,2.56-2.56-1.15-2.56-2.56-2.56M309.77,306.06c-2.45,0-4.44-1.99-4.44-4.44s1.99-4.44,4.44-4.44,4.44,1.99,4.44,4.44-1.99,4.44-4.44,4.44"/>
      <path class="cls-10" d="M300.82,324.26c-1.41,0-2.56,1.15-2.56,2.56s1.15,2.56,2.56,2.56,2.56-1.15,2.56-2.56-1.15-2.56-2.56-2.56M300.82,331.26c-2.45,0-4.44-1.99-4.44-4.44s1.99-4.44,4.44-4.44,4.44,1.99,4.44,4.44-1.99,4.44-4.44,4.44"/>
      <path class="cls-3" d="M283.03,290.65c3.06,0,5.55,2.49,5.55,5.55v3.56c0,.22.17.39.39.39h2.38c.21,0,.39-.17.39-.39v-3.56c0-4.8-3.9-8.7-8.7-8.7s-8.7,3.9-8.7,8.7v3.56c0,.22.17.39.39.39h2.37c.22,0,.39-.17.39-.39v-3.56c0-3.06,2.49-5.55,5.55-5.55"/>
      <path class="cls-3" d="M283.03,306.82c-1.41,0-2.56,1.15-2.56,2.56s1.15,2.56,2.56,2.56,2.56-1.15,2.56-2.56-1.15-2.56-2.56-2.56"/>
      <path class="cls-3" d="M283.97,313.72v2.48c0,.52-.42.94-.94.94s-.94-.42-.94-.94v-2.48c-2-.43-3.5-2.21-3.5-4.34,0-2.45,1.99-4.44,4.44-4.44s4.44,1.99,4.44,4.44c0,2.13-1.5,3.91-3.5,4.34M294.9,301.75h-23.74c-.21,0-.39.17-.39.39v8.45c0,6.26,6.47,10.93,12.26,10.93s12.26-4.68,12.26-10.93v-8.45c0-.22-.18-.39-.39-.39"/>
    </g>
    <g>
      <path class="cls-6" d="M255.24,349.37c-.73,0-1.3.24-1.72.73-.42.49-.63,1.16-.63,2s.19,1.51.58,2,.97.74,1.75.74c.29,0,.57-.03.84-.08.27-.05.53-.11.79-.19v.74c-.25.09-.51.17-.78.21-.27.04-.59.07-.96.07-.69,0-1.27-.14-1.73-.43-.46-.29-.81-.69-1.04-1.22-.23-.53-.35-1.14-.35-1.85s.12-1.29.38-1.81c.25-.52.62-.93,1.11-1.23.49-.29,1.08-.44,1.78-.44s1.34.13,1.87.4l-.34.72c-.21-.09-.44-.18-.7-.26-.26-.08-.54-.11-.84-.11Z"/>
      <path class="cls-6" d="M257.57,350.41h.89l1.1,2.9c.09.26.18.5.26.73.08.23.13.45.17.66h.04c.04-.16.1-.37.18-.62s.17-.51.26-.77l1.04-2.89h.9l-2.19,5.79c-.18.48-.42.86-.69,1.15s-.67.43-1.16.43c-.15,0-.29,0-.4-.02-.11-.02-.21-.03-.29-.05v-.67c.07.01.15.03.25.04.1.01.2.02.31.02.29,0,.53-.08.7-.25.18-.16.32-.38.43-.66l.27-.67-2.05-5.11Z"/>
      <path class="cls-6" d="M264.18,348.28v1.76c0,.22,0,.42-.01.6,0,.19-.02.33-.03.44h.05c.15-.21.34-.4.6-.54.25-.15.58-.22.98-.22.63,0,1.14.22,1.52.66.38.44.58,1.1.58,1.97s-.19,1.53-.58,1.98c-.39.44-.89.67-1.52.67-.4,0-.73-.07-.98-.22-.25-.15-.45-.32-.6-.52h-.07l-.17.65h-.6v-7.22h.84ZM265.62,351.02c-.54,0-.92.16-1.13.47s-.31.79-.31,1.44v.04c0,.63.1,1.11.31,1.44.21.33.59.5,1.14.5.46,0,.8-.17,1.02-.5.22-.34.34-.82.34-1.45,0-1.29-.46-1.93-1.38-1.93Z"/>
      <path class="cls-6" d="M271.3,350.31c.43,0,.8.09,1.12.28.32.19.56.46.73.8.17.35.25.75.25,1.21v.5h-3.49c.01.58.16,1.02.44,1.32.28.3.68.45,1.18.45.32,0,.61-.03.86-.09.25-.06.51-.15.77-.26v.73c-.26.11-.52.2-.77.25s-.55.08-.9.08c-.49,0-.92-.1-1.28-.29-.37-.2-.65-.49-.86-.87-.21-.39-.31-.87-.31-1.43s.09-1.04.28-1.43c.19-.4.45-.71.79-.92.34-.21.73-.32,1.18-.32ZM271.29,351c-.4,0-.71.13-.95.38s-.37.61-.41,1.07h2.59c0-.43-.11-.78-.3-1.05-.2-.27-.51-.4-.93-.4Z"/>
      <path class="cls-6" d="M277.2,350.31c.09,0,.2,0,.3.01s.21.02.29.04l-.1.77c-.08-.02-.17-.04-.28-.05-.1-.01-.19-.02-.28-.02-.26,0-.5.07-.73.21-.23.14-.41.34-.55.6-.14.26-.2.56-.2.9v2.72h-.84v-5.09h.68l.1.93h.04c.16-.28.37-.52.63-.72.26-.2.57-.3.93-.3Z"/>
      <path class="cls-6" d="M282.2,354.09c0,.49-.18.87-.55,1.12-.37.25-.86.38-1.48.38-.35,0-.66-.03-.92-.08-.26-.06-.48-.14-.68-.24v-.76c.2.1.45.2.74.28.29.09.58.13.88.13.42,0,.73-.07.92-.21.19-.14.29-.32.29-.55,0-.13-.04-.24-.1-.34s-.19-.2-.38-.3c-.18-.1-.44-.22-.77-.34-.33-.13-.61-.25-.85-.38-.23-.13-.42-.28-.54-.46-.13-.18-.19-.41-.19-.68,0-.43.18-.76.53-1,.35-.23.81-.35,1.38-.35.31,0,.6.03.87.09.27.06.52.15.75.25l-.29.67c-.21-.09-.44-.17-.67-.23s-.47-.09-.72-.09c-.34,0-.6.06-.78.17-.18.11-.27.26-.27.45,0,.15.04.27.12.36.08.09.22.19.41.29.19.09.45.2.77.32.32.12.6.24.83.37.23.13.4.28.52.46s.18.41.18.68Z"/>
      <path class="cls-6" d="M285.55,350.31c.43,0,.8.09,1.12.28.32.19.56.46.73.8.17.35.25.75.25,1.21v.5h-3.49c.01.58.16,1.02.44,1.32.28.3.68.45,1.18.45.32,0,.61-.03.86-.09.25-.06.51-.15.77-.26v.73c-.26.11-.52.2-.77.25s-.55.08-.9.08c-.49,0-.92-.1-1.28-.29-.37-.2-.65-.49-.86-.87-.21-.39-.31-.87-.31-1.43s.09-1.04.28-1.43c.19-.4.45-.71.79-.92.34-.21.73-.32,1.18-.32ZM285.54,351c-.4,0-.71.13-.95.38s-.37.61-.41,1.07h2.59c0-.43-.11-.78-.3-1.05-.2-.27-.51-.4-.93-.4Z"/>
      <path class="cls-6" d="M291.12,355.59c-.46,0-.86-.09-1.21-.28s-.62-.47-.82-.85c-.2-.39-.3-.88-.3-1.48s.1-1.14.31-1.53.49-.68.85-.86.77-.28,1.23-.28c.25,0,.5.03.75.08.24.05.44.12.59.2l-.26.69c-.15-.06-.33-.11-.53-.16-.2-.05-.39-.08-.57-.08-1,0-1.5.64-1.5,1.93,0,.61.12,1.08.37,1.41.24.33.61.49,1.09.49.27,0,.52-.03.73-.09.21-.06.41-.13.59-.21v.74c-.17.09-.36.16-.57.2-.21.05-.45.07-.75.07Z"/>
      <path class="cls-6" d="M298.03,350.41v5.09h-.68l-.12-.67h-.04c-.16.27-.39.46-.68.58-.29.12-.6.18-.93.18-.61,0-1.08-.15-1.39-.44-.31-.29-.46-.76-.46-1.41v-3.33h.84v3.28c0,.81.38,1.22,1.13,1.22.56,0,.96-.16,1.17-.47.22-.32.33-.77.33-1.37v-2.65h.84Z"/>
      <path class="cls-6" d="M302.15,350.31c.09,0,.2,0,.3.01s.21.02.29.04l-.1.77c-.08-.02-.17-.04-.28-.05-.1-.01-.19-.02-.28-.02-.26,0-.5.07-.73.21-.23.14-.41.34-.55.6-.14.26-.2.56-.2.9v2.72h-.84v-5.09h.68l.1.93h.04c.16-.28.37-.52.63-.72.26-.2.57-.3.93-.3Z"/>
      <path class="cls-6" d="M304.27,348.5c.13,0,.24.04.34.13.1.08.15.22.15.4s-.05.32-.15.4c-.1.08-.21.13-.34.13-.14,0-.26-.04-.35-.13-.1-.09-.14-.22-.14-.4s.05-.32.14-.4c.09-.09.21-.13.35-.13ZM304.68,350.41v5.09h-.84v-5.09h.84Z"/>
      <path class="cls-6" d="M308.13,354.91c.13,0,.26,0,.39-.03.13-.02.24-.04.32-.08v.64c-.09.04-.22.08-.38.11-.17.03-.32.04-.48.04-.27,0-.51-.05-.74-.14s-.41-.25-.55-.48c-.14-.23-.21-.55-.21-.96v-2.96h-.72v-.4l.73-.33.33-1.08h.49v1.17h1.47v.65h-1.47v2.95c0,.31.07.54.22.69.15.15.34.22.57.22Z"/>
      <path class="cls-6" d="M309.2,350.41h.89l1.1,2.9c.09.26.18.5.26.73.08.23.13.45.17.66h.04c.04-.16.1-.37.18-.62s.17-.51.26-.77l1.04-2.89h.9l-2.19,5.79c-.18.48-.42.86-.69,1.15s-.67.43-1.16.43c-.15,0-.29,0-.4-.02-.11-.02-.21-.03-.29-.05v-.67c.07.01.15.03.25.04.1.01.2.02.31.02.29,0,.53-.08.7-.25.18-.16.32-.38.43-.66l.27-.67-2.05-5.11Z"/>
    </g>
  </g>
  <g>
    <path class="cls-13" d="M115.49,257.78c-6.51,0-13.13,1.01-19.65,3.13-16.19,5.26-29.37,16.52-37.1,31.69-7.73,15.18-9.09,32.45-3.83,48.65,5.26,16.2,16.51,29.38,31.69,37.11,9.1,4.64,18.95,6.98,28.88,6.98,6.63,0,13.28-1.04,19.77-3.15,16.19-5.26,29.37-16.52,37.1-31.69,7.73-15.17,9.09-32.45,3.83-48.65-8.74-26.91-33.8-44.06-60.67-44.06"/>
    <path class="cls-11" d="M115.49,264.87c-5.79,0-11.67.9-17.47,2.78-14.39,4.68-26.11,14.68-32.98,28.17-6.87,13.49-8.08,28.85-3.4,43.24,4.68,14.4,14.68,26.11,28.17,32.99,8.09,4.12,16.85,6.21,25.67,6.21,5.89,0,11.81-.93,17.57-2.8,14.39-4.68,26.11-14.68,32.98-28.17,6.87-13.49,8.08-28.85,3.4-43.24-7.77-23.92-30.04-39.17-53.93-39.17"/>
    <g>
      <path class="cls-3" d="M126.31,303.66h-3.27v-3.12c0-.27.22-.49.49-.49h2.29c.27,0,.49.22.49.49v3.12ZM120.22,303.66h-3.27v-5.92c0-.27.22-.49.49-.49h2.29c.27,0,.49.22.49.49v5.92ZM114.12,303.66h-3.27v-12.33c0-.27.22-.49.49-.49h2.29c.27,0,.49.22.49.49v12.33ZM108.03,303.66h-3.27v-7.4c0-.27.22-.49.49-.49h2.29c.27,0,.49.22.49.49v7.4ZM130.58,296.86c-.47,0-.93.07-1.37.19-1.14-2.5-3.66-4.24-6.59-4.24h-1.69c-1.44-3.66-5.01-6.25-9.18-6.25-4.73,0-8.68,3.34-9.64,7.78-3.82.2-6.85,3.35-6.85,7.22,0,2.25,1.03,4.26,2.64,5.59l32.68.14c2.88,0,5.22-2.34,5.22-5.22s-2.34-5.22-5.22-5.22"/>
      <path class="cls-2" d="M117.27,325.42c-.99,0-1.8.81-1.8,1.8s.81,1.8,1.8,1.8,1.8-.81,1.8-1.8-.81-1.8-1.8-1.8M117.27,330.7c-1.92,0-3.49-1.56-3.49-3.49s1.56-3.49,3.49-3.49,3.49,1.56,3.49,3.49-1.56,3.49-3.49,3.49"/>
      <path class="cls-2" d="M125.8,326.01c-1.92,0-3.49,1.56-3.49,3.49s1.56,3.49,3.49,3.49,3.49-1.56,3.49-3.49-1.56-3.49-3.49-3.49"/>
      <path class="cls-2" d="M108.26,329.41c-1.92,0-3.49,1.56-3.49,3.49s1.56,3.49,3.49,3.49,3.49-1.56,3.49-3.49-1.56-3.49-3.49-3.49"/>
      <path class="cls-2" d="M132.39,318.34c-.99,0-1.8.81-1.8,1.8s.81,1.8,1.8,1.8,1.8-.81,1.8-1.8-.81-1.8-1.8-1.8M132.39,323.62c-1.92,0-3.49-1.56-3.49-3.49s1.56-3.49,3.49-3.49,3.49,1.56,3.49,3.49-1.56,3.49-3.49,3.49"/>
      <path class="cls-2" d="M98.68,320.98c-.99,0-1.8.81-1.8,1.8s.81,1.8,1.8,1.8,1.8-.81,1.8-1.8-.81-1.8-1.8-1.8M98.68,326.26c-1.92,0-3.49-1.56-3.49-3.49s1.56-3.49,3.49-3.49,3.49,1.56,3.49,3.49-1.56,3.49-3.49,3.49"/>
      <path class="cls-2" d="M108.48,331.1c-.47,0-.85-.38-.85-.85v-21.05c0-.47.38-.85.85-.85s.85.38.85.85v21.05c0,.47-.38.85-.85.85"/>
      <path class="cls-2" d="M108.26,323.62h-6.65c-.47,0-.85-.38-.85-.85s.38-.85.85-.85h6.65c.47,0,.85.38.85.85s-.38.85-.85.85"/>
      <path class="cls-2" d="M117.33,325.06c-.47,0-.85-.38-.85-.85v-7.32h-8.01c-.47,0-.85-.38-.85-.85s.38-.85.85-.85h8.86c.47,0,.85.38.85.85v8.16c0,.47-.38.85-.85.85"/>
      <path class="cls-2" d="M129.74,320.98h-12.41c-.47,0-.85-.38-.85-.85s.38-.85.85-.85h12.41c.47,0,.85.38.85.85s-.38.85-.85.85"/>
      <path class="cls-2" d="M125.8,327.7c-.47,0-.85-.38-.85-.85v-6.72c0-.47.38-.85.85-.85s.85.38.85.85v6.72c0,.47-.38.85-.85.85"/>
    </g>
    <g>
      <path class="cls-7" d="M90,352.04c0,1.15-.31,2.01-.94,2.59-.62.58-1.49.87-2.61.87h-1.89v-6.78h2.09c.68,0,1.27.13,1.77.38.5.25.89.63,1.16,1.12.27.49.41,1.1.41,1.82ZM89.1,352.07c0-.91-.22-1.57-.67-1.99-.45-.42-1.08-.63-1.9-.63h-1.11v5.32h.92c1.84,0,2.75-.9,2.75-2.7Z"/>
      <path class="cls-7" d="M93.46,350.32c.62,0,1.08.14,1.38.41.3.27.45.71.45,1.3v3.47h-.61l-.16-.72h-.04c-.22.28-.46.48-.7.62-.25.13-.58.2-1.01.2-.46,0-.85-.12-1.15-.37-.3-.24-.46-.63-.46-1.14s.2-.9.6-1.17,1.01-.43,1.84-.45l.86-.03v-.3c0-.42-.09-.72-.28-.88s-.44-.25-.78-.25c-.27,0-.52.04-.76.12-.24.08-.47.17-.67.27l-.26-.63c.22-.12.48-.22.79-.31.3-.09.62-.13.95-.13ZM94.46,353.01l-.75.03c-.63.03-1.07.13-1.32.3-.24.18-.37.43-.37.75,0,.29.09.49.26.63.17.13.4.2.67.2.42,0,.78-.12,1.07-.36s.43-.6.43-1.1v-.46Z"/>
      <path class="cls-7" d="M98.7,354.91c.13,0,.26,0,.39-.03.13-.02.24-.04.32-.08v.64c-.09.04-.22.08-.38.11-.16.03-.32.04-.47.04-.27,0-.51-.05-.74-.14-.23-.09-.41-.25-.55-.48-.14-.23-.21-.55-.21-.96v-2.96h-.72v-.4l.73-.33.33-1.08h.49v1.17h1.47v.65h-1.47v2.95c0,.31.07.54.22.69.15.15.34.22.57.22Z"/>
      <path class="cls-7" d="M102.5,350.32c.62,0,1.08.14,1.38.41.3.27.45.71.45,1.3v3.47h-.61l-.16-.72h-.04c-.22.28-.46.48-.7.62-.25.13-.58.2-1.01.2-.46,0-.85-.12-1.15-.37-.3-.24-.46-.63-.46-1.14s.2-.9.6-1.17,1.01-.43,1.84-.45l.86-.03v-.3c0-.42-.09-.72-.28-.88s-.44-.25-.78-.25c-.27,0-.52.04-.76.12-.24.08-.47.17-.67.27l-.26-.63c.22-.12.48-.22.79-.31.3-.09.62-.13.95-.13ZM103.5,353.01l-.75.03c-.63.03-1.07.13-1.32.3-.24.18-.37.43-.37.75,0,.29.09.49.26.63.17.13.4.2.67.2.42,0,.78-.12,1.07-.36s.43-.6.43-1.1v-.46Z"/>
      <path class="cls-7" d="M110.73,348.61c.51,0,.91.13,1.2.38.29.26.44.62.44,1.08,0,.4-.13.74-.38,1.02-.26.28-.58.53-.97.76l1.83,1.77c.16-.2.3-.42.4-.68.1-.26.19-.53.26-.83h.85c-.1.41-.23.79-.38,1.14-.15.34-.35.65-.59.91l1.39,1.35h-1.13l-.83-.8c-.3.27-.63.48-1,.65-.37.17-.81.25-1.34.25-.66,0-1.18-.16-1.56-.48s-.57-.78-.57-1.38c0-.48.13-.87.39-1.17.26-.3.62-.57,1.07-.83-.2-.23-.39-.47-.56-.73-.17-.26-.26-.56-.26-.91,0-.46.15-.83.47-1.09.31-.26.74-.39,1.28-.39ZM110.31,352.26c-.34.2-.61.41-.8.62-.19.21-.29.48-.29.83s.12.63.35.84.55.31.94.31.75-.07,1.04-.2c.29-.13.53-.29.74-.47l-1.98-1.92ZM110.7,349.3c-.27,0-.48.07-.65.21-.17.14-.25.33-.25.58,0,.23.06.44.18.63.12.19.29.41.52.64.37-.22.64-.42.8-.61.16-.19.24-.42.24-.67,0-.23-.08-.41-.23-.56-.15-.15-.36-.22-.62-.22Z"/>
      <path class="cls-7" d="M123.9,352.04c0,1.15-.31,2.01-.94,2.59-.62.58-1.49.87-2.61.87h-1.89v-6.78h2.09c.68,0,1.27.13,1.77.38.5.25.89.63,1.16,1.12.27.49.41,1.1.41,1.82ZM123,352.07c0-.91-.22-1.57-.67-1.99-.45-.42-1.08-.63-1.9-.63h-1.11v5.32h.92c1.84,0,2.75-.9,2.75-2.7Z"/>
      <path class="cls-7" d="M125.84,348.5c.13,0,.24.04.34.13.1.08.15.22.15.4s-.05.32-.15.4c-.1.08-.21.13-.34.13-.14,0-.26-.04-.35-.13-.09-.09-.14-.22-.14-.4s.05-.32.14-.4c.1-.09.21-.13.35-.13ZM126.25,350.41v5.09h-.84v-5.09h.84Z"/>
      <path class="cls-7" d="M129.82,350.31c.34,0,.64.06.91.19.27.13.5.32.69.58h.05l.11-.67h.67v5.18c0,.73-.19,1.28-.56,1.64-.37.37-.95.55-1.72.55s-1.36-.11-1.83-.32v-.77c.5.27,1.13.4,1.88.4.44,0,.78-.13,1.03-.38.25-.26.38-.61.38-1.05v-.2c0-.08,0-.18,0-.33s.01-.24.02-.3h-.04c-.34.51-.87.77-1.58.77-.66,0-1.17-.23-1.54-.69-.37-.46-.56-1.11-.56-1.94s.19-1.46.56-1.93.88-.72,1.53-.72ZM129.93,351.02c-.42,0-.75.17-.99.51s-.35.82-.35,1.45.11,1.11.34,1.44c.23.33.57.5,1.02.5.51,0,.89-.14,1.12-.41.23-.28.35-.72.35-1.33v-.2c0-.69-.12-1.19-.36-1.49-.24-.3-.62-.46-1.13-.46Z"/>
      <path class="cls-7" d="M134.42,348.5c.13,0,.24.04.34.13.1.08.15.22.15.4s-.05.32-.15.4c-.1.08-.21.13-.34.13-.14,0-.26-.04-.35-.13-.09-.09-.14-.22-.14-.4s.05-.32.14-.4c.1-.09.21-.13.35-.13ZM134.83,350.41v5.09h-.84v-5.09h.84Z"/>
      <path class="cls-7" d="M138.29,354.91c.13,0,.26,0,.39-.03.13-.02.24-.04.32-.08v.64c-.09.04-.22.08-.38.11-.16.03-.32.04-.47.04-.27,0-.51-.05-.74-.14-.23-.09-.41-.25-.55-.48-.14-.23-.21-.55-.21-.96v-2.96h-.72v-.4l.73-.33.33-1.08h.49v1.17h1.47v.65h-1.47v2.95c0,.31.07.54.22.69.15.15.34.22.57.22Z"/>
      <path class="cls-7" d="M142.09,350.32c.62,0,1.08.14,1.38.41.3.27.45.71.45,1.3v3.47h-.61l-.16-.72h-.04c-.22.28-.46.48-.7.62-.25.13-.58.2-1.01.2-.46,0-.85-.12-1.15-.37-.3-.24-.46-.63-.46-1.14s.2-.9.6-1.17,1.01-.43,1.84-.45l.86-.03v-.3c0-.42-.09-.72-.28-.88s-.44-.25-.78-.25c-.27,0-.52.04-.76.12-.24.08-.47.17-.67.27l-.26-.63c.22-.12.48-.22.79-.31.3-.09.62-.13.95-.13ZM143.09,353.01l-.75.03c-.63.03-1.07.13-1.32.3-.24.18-.37.43-.37.75,0,.29.09.49.26.63.17.13.4.2.67.2.42,0,.78-.12,1.07-.36s.43-.6.43-1.1v-.46Z"/>
      <path class="cls-7" d="M146.47,355.5h-.84v-7.22h.84v7.22Z"/>
    </g>
  </g>
</svg>