<?xml version="1.0" encoding="UTF-8"?>
<svg id="Layer_1" xmlns="http://www.w3.org/2000/svg" version="1.1" viewBox="0 0 185.44 68.14">
  <!-- Generator: Adobe Illustrator 29.6.0, SVG Export Plug-In . SVG Version: 2.1.1 Build 207)  -->
  <defs>
    <style>
      .st0 {
        fill: #ba0051;
      }

      .st1 {
        fill: none;
        stroke: #000;
        stroke-miterlimit: 10;
        stroke-width: .25px;
      }

      .st2 {
        fill: #22b7e9;
      }

      .st3 {
        fill: #f1901d;
      }
    </style>
  </defs>
  <g id="Graph">
    <g>
      <rect class="st0" x="151.67" y="7.93" width="11.9" height="51.01"/>
      <rect class="st3" x="130.04" y="48.24" width="11.9" height="10.7"/>
      <rect class="st3" x="108.4" y="55.33" width="11.9" height="3.61"/>
      <rect class="st3" x="86.77" y="57.68" width="11.9" height="1.27"/>
      <rect class="st2" x="65.14" y="58.56" width="11.9" height=".38"/>
      <rect class="st2" x="43.51" y="58.75" width="11.9" height=".19"/>
    </g>
  </g>
  <g id="Text">
    <g>
      <path d="M25.74,68.06l-.6-1.55h-1.98l-.6,1.55h-.64l1.95-5.02h.57l1.95,5.02h-.65ZM24.95,65.96l-.56-1.51s-.04-.1-.07-.2c-.03-.1-.06-.2-.09-.3-.03-.11-.06-.19-.07-.24-.04.14-.08.29-.12.42s-.07.25-.1.33l-.57,1.51h1.58Z"/>
      <path d="M28.52,64.25c.46,0,.8.1,1.02.3.22.2.33.52.33.96v2.55h-.45l-.12-.53h-.03c-.16.21-.34.36-.52.46s-.43.15-.74.15c-.34,0-.62-.09-.85-.27-.22-.18-.34-.46-.34-.84s.15-.66.44-.86.75-.31,1.36-.33l.64-.02v-.22c0-.31-.07-.53-.2-.65-.13-.12-.33-.18-.57-.18-.2,0-.38.03-.56.09s-.34.12-.5.2l-.19-.46c.16-.09.36-.16.58-.23.22-.06.46-.09.7-.09v-.03ZM29.26,66.23l-.55.02c-.47.02-.79.09-.97.22s-.27.31-.27.55c0,.21.06.36.19.46.13.1.29.15.49.15.31,0,.58-.09.79-.26.21-.17.32-.44.32-.81v-.34h0Z"/>
      <path d="M32.39,64.25c.46,0,.8.1,1.02.3.22.2.33.52.33.96v2.55h-.45l-.12-.53h-.03c-.16.21-.34.36-.52.46s-.43.15-.74.15c-.34,0-.62-.09-.85-.27-.22-.18-.34-.46-.34-.84s.15-.66.44-.86.75-.31,1.36-.33l.64-.02v-.22c0-.31-.07-.53-.2-.65s-.33-.18-.57-.18c-.2,0-.38.03-.56.09s-.34.12-.5.2l-.19-.46c.16-.09.36-.16.58-.23.22-.06.46-.09.7-.09v-.03ZM33.12,66.23l-.55.02c-.47.02-.79.09-.97.22s-.27.31-.27.55c0,.21.06.36.19.46.13.1.29.15.49.15.31,0,.58-.09.79-.26.21-.17.32-.44.32-.81v-.34h0Z"/>
    </g>
    <g>
      <path d="M49.22,68.06l-.6-1.55h-1.98l-.6,1.55h-.64l1.95-5.02h.57l1.95,5.02h-.65ZM48.43,65.96l-.56-1.51s-.04-.1-.07-.2-.06-.2-.09-.3c-.03-.11-.06-.19-.07-.24-.04.14-.08.29-.12.42s-.07.25-.1.33l-.57,1.51h1.58,0Z"/>
      <path d="M52,64.25c.46,0,.8.1,1.02.3.22.2.33.52.33.96v2.55h-.45l-.12-.53h-.03c-.16.21-.34.36-.52.46s-.43.15-.74.15c-.34,0-.62-.09-.85-.27-.22-.18-.34-.46-.34-.84s.15-.66.44-.86.75-.31,1.36-.33l.64-.02v-.22c0-.31-.07-.53-.2-.65s-.33-.18-.57-.18c-.2,0-.38.03-.56.09s-.34.12-.5.2l-.19-.46c.16-.09.36-.16.58-.23.22-.06.46-.09.7-.09v-.03ZM52.73,66.23l-.55.02c-.47.02-.79.09-.97.22s-.27.31-.27.55c0,.21.06.36.19.46.13.1.29.15.49.15.31,0,.58-.09.79-.26.21-.17.32-.44.32-.81v-.34h0Z"/>
    </g>
    <path d="M72.68,68.06l-.6-1.55h-1.98l-.6,1.55h-.64l1.95-5.02h.57l1.95,5.02s-.65,0-.65,0ZM71.88,65.96l-.56-1.51s-.04-.1-.07-.2-.06-.2-.09-.3c-.03-.11-.06-.19-.07-.24-.04.14-.08.29-.12.42s-.07.25-.1.33l-.57,1.51h1.58,0Z"/>
    <g>
      <path d="M87.15,63.07h1.43c.62,0,1.09.09,1.41.28.32.19.48.51.48.96,0,.29-.08.54-.25.73s-.4.32-.71.37v.04c.21.04.4.1.57.19.17.09.3.21.4.38.1.16.15.37.15.63,0,.45-.16.8-.47,1.05s-.73.37-1.27.37h-1.76v-5h.02ZM87.78,65.19h.92c.42,0,.72-.07.88-.21s.24-.34.24-.61-.1-.47-.29-.59-.5-.18-.93-.18h-.83v1.59h.01ZM87.78,65.72v1.81h1.01c.44,0,.75-.09.92-.26s.26-.4.26-.68c0-.26-.09-.47-.27-.63s-.5-.24-.96-.24h-.96Z"/>
      <path d="M93.08,64.25c.46,0,.8.1,1.02.3.22.2.33.52.33.96v2.55h-.45l-.12-.53h-.03c-.16.21-.34.36-.52.46s-.43.15-.74.15c-.34,0-.62-.09-.85-.27-.22-.18-.34-.46-.34-.84s.15-.66.44-.86.75-.31,1.36-.33l.64-.02v-.22c0-.31-.07-.53-.2-.65s-.33-.18-.57-.18c-.2,0-.38.03-.56.09s-.34.12-.5.2l-.19-.46c.16-.09.36-.16.58-.23.22-.06.46-.09.7-.09v-.03ZM93.82,66.23l-.55.02c-.47.02-.79.09-.97.22s-.27.31-.27.55c0,.21.06.36.19.46.13.1.29.15.49.15.31,0,.58-.09.79-.26.21-.17.32-.44.32-.81v-.34h0Z"/>
      <path d="M96.95,64.25c.46,0,.8.1,1.02.3.22.2.33.52.33.96v2.55h-.45l-.12-.53h-.03c-.16.21-.34.36-.52.46s-.43.15-.74.15c-.34,0-.62-.09-.85-.27-.22-.18-.34-.46-.34-.84s.15-.66.44-.86.75-.31,1.36-.33l.64-.02v-.22c0-.31-.07-.53-.2-.65s-.33-.18-.57-.18c-.2,0-.38.03-.56.09s-.34.12-.5.2l-.19-.46c.16-.09.36-.16.58-.23.22-.06.46-.09.7-.09v-.03ZM97.68,66.23l-.55.02c-.47.02-.79.09-.97.22s-.27.31-.27.55c0,.21.06.36.19.46.13.1.29.15.49.15.31,0,.58-.09.79-.26.21-.17.32-.44.32-.81v-.34h0Z"/>
    </g>
    <g>
      <path d="M110.71,63.07h1.43c.62,0,1.09.09,1.41.28.32.19.48.51.48.96,0,.29-.08.54-.25.73s-.4.32-.71.37v.04c.21.04.4.1.57.19.17.09.3.21.4.38.1.16.15.37.15.63,0,.45-.16.8-.47,1.05s-.73.37-1.27.37h-1.76v-5h.02ZM111.34,65.19h.92c.42,0,.72-.07.88-.21s.24-.34.24-.61-.1-.47-.29-.59-.5-.18-.93-.18h-.83v1.59h.01ZM111.34,65.72v1.81h1.01c.44,0,.75-.09.92-.26s.26-.4.26-.68c0-.26-.09-.47-.27-.63s-.5-.24-.96-.24h-.96Z"/>
      <path d="M116.64,64.25c.46,0,.8.1,1.02.3.22.2.33.52.33.96v2.55h-.45l-.12-.53h-.03c-.16.21-.34.36-.52.46s-.43.15-.74.15c-.34,0-.62-.09-.85-.27-.22-.18-.34-.46-.34-.84s.15-.66.44-.86.75-.31,1.36-.33l.64-.02v-.22c0-.31-.07-.53-.2-.65s-.33-.18-.57-.18c-.2,0-.38.03-.56.09s-.34.12-.5.2l-.19-.46c.16-.09.36-.16.58-.23.22-.06.46-.09.7-.09v-.03ZM117.38,66.23l-.55.02c-.47.02-.79.09-.97.22s-.27.31-.27.55c0,.21.06.36.19.46.13.1.29.15.49.15.31,0,.58-.09.79-.26.21-.17.32-.44.32-.81v-.34h0Z"/>
    </g>
    <path d="M134.24,63.07h1.43c.62,0,1.09.09,1.41.28s.48.51.48.96c0,.29-.08.54-.25.73s-.4.32-.71.37v.04c.21.04.4.1.57.19.17.09.3.21.4.38.1.16.15.37.15.63,0,.45-.16.8-.47,1.05s-.73.37-1.27.37h-1.76v-5h.02ZM134.87,65.19h.92c.42,0,.72-.07.88-.21s.24-.34.24-.61-.1-.47-.29-.59-.5-.18-.93-.18h-.83v1.59h0ZM134.87,65.72v1.81h1.01c.44,0,.75-.09.92-.26s.26-.4.26-.68c0-.26-.09-.47-.27-.63s-.5-.24-.96-.24h-.96,0Z"/>
    <g>
      <path d="M150.73,63.55c-.54,0-.96.18-1.27.54s-.46.85-.46,1.48.14,1.11.43,1.47.72.54,1.29.54c.21,0,.42-.02.62-.06s.39-.08.58-.14v.55c-.19.07-.38.12-.58.15s-.44.05-.71.05c-.51,0-.93-.11-1.27-.32s-.6-.51-.77-.9-.26-.84-.26-1.37.09-.95.28-1.33c.18-.38.46-.69.82-.9.36-.22.8-.33,1.31-.33s.99.1,1.38.29l-.25.53c-.15-.07-.33-.13-.51-.19-.19-.06-.4-.08-.62-.08v.02Z"/>
      <path d="M154.37,64.25c.46,0,.8.1,1.02.3.22.2.33.52.33.96v2.55h-.45l-.12-.53h-.03c-.16.21-.34.36-.52.46-.18.1-.43.15-.74.15-.34,0-.62-.09-.85-.27-.22-.18-.34-.46-.34-.84s.15-.66.44-.86.75-.31,1.36-.33l.64-.02v-.22c0-.31-.07-.53-.2-.65-.13-.12-.33-.18-.57-.18-.2,0-.38.03-.56.09s-.34.12-.5.2l-.19-.46c.16-.09.36-.16.58-.23.22-.06.46-.09.7-.09v-.03ZM155.1,66.23l-.55.02c-.47.02-.79.09-.97.22s-.27.31-.27.55c0,.21.06.36.19.46s.29.15.49.15c.31,0,.58-.09.79-.26.21-.17.32-.44.32-.81v-.34h0Z"/>
      <path d="M158.23,64.25c.46,0,.8.1,1.02.3.22.2.33.52.33.96v2.55h-.45l-.12-.53h-.03c-.16.21-.34.36-.52.46-.18.1-.43.15-.74.15-.34,0-.62-.09-.85-.27-.22-.18-.34-.46-.34-.84s.15-.66.44-.86.75-.31,1.36-.33l.64-.02v-.22c0-.31-.07-.53-.2-.65-.13-.12-.33-.18-.57-.18-.2,0-.38.03-.56.09s-.34.12-.5.2l-.19-.46c.16-.09.36-.16.58-.23.22-.06.46-.09.7-.09v-.03ZM158.97,66.23l-.55.02c-.47.02-.79.09-.97.22s-.27.31-.27.55c0,.21.06.36.19.46s.29.15.49.15c.31,0,.58-.09.79-.26.21-.17.32-.44.32-.81v-.34h0Z"/>
      <path d="M160.53,66.46v-.55h1.69v.55h-1.69Z"/>
      <path d="M165.53,63.55c-.54,0-.96.18-1.27.54s-.46.85-.46,1.48.14,1.11.43,1.47.72.54,1.29.54c.21,0,.42-.02.62-.06s.39-.08.58-.14v.55c-.19.07-.38.12-.58.15s-.44.05-.71.05c-.51,0-.93-.11-1.27-.32s-.6-.51-.77-.9-.26-.84-.26-1.37.09-.95.28-1.33c.18-.38.46-.69.82-.9.36-.22.8-.33,1.31-.33s.99.1,1.38.29l-.25.53c-.15-.07-.33-.13-.51-.19-.19-.06-.4-.08-.62-.08v.02Z"/>
    </g>
    <line class="st1" y1="59.06" x2="185.44" y2="59.06"/>
  </g>
  <g id="Figure">
    <g>
      <path class="st2" d="M24.53,53.43c0,.54-.06,1-.17,1.39-.11.38-.29.68-.54.88-.24.21-.57.31-.96.31-.56,0-.98-.23-1.25-.68-.27-.46-.4-1.09-.4-1.89,0-.54.05-1,.17-1.39.11-.38.29-.68.53-.88s.56-.3.96-.3c.56,0,.98.23,1.25.68s.41,1.08.41,1.89h0ZM21.83,53.43c0,.69.08,1.2.23,1.54s.42.51.8.51.64-.17.8-.51c.16-.34.24-.85.24-1.54s-.08-1.19-.24-1.53-.43-.51-.8-.51-.65.17-.8.51c-.16.34-.23.85-.23,1.53Z"/>
      <path class="st2" d="M25.33,55.55c0-.17.04-.29.13-.36.08-.07.18-.1.3-.1s.22.04.31.1c.09.07.13.19.13.36s-.04.29-.13.36c-.09.07-.19.11-.31.11s-.22-.04-.3-.11-.13-.2-.13-.36Z"/>
      <path class="st2" d="M30.3,53.43c0,.54-.06,1-.17,1.39-.11.38-.29.68-.54.88-.24.21-.57.31-.96.31-.56,0-.98-.23-1.25-.68-.27-.46-.4-1.09-.4-1.89,0-.54.05-1,.17-1.39.11-.38.29-.68.53-.88s.56-.3.96-.3c.56,0,.98.23,1.25.68s.41,1.08.41,1.89h0ZM27.6,53.43c0,.69.08,1.2.23,1.54s.42.51.8.51.64-.17.8-.51c.16-.34.24-.85.24-1.54s-.08-1.19-.24-1.53-.43-.51-.8-.51-.65.17-.8.51c-.16.34-.23.85-.23,1.53Z"/>
      <path class="st2" d="M34.45,53.43c0,.54-.06,1-.17,1.39-.11.38-.29.68-.54.88-.24.21-.57.31-.96.31-.56,0-.98-.23-1.25-.68-.27-.46-.4-1.09-.4-1.89,0-.54.05-1,.17-1.39.11-.38.29-.68.53-.88s.56-.3.96-.3c.56,0,.98.23,1.25.68s.41,1.08.41,1.89h0ZM31.75,53.43c0,.69.08,1.2.23,1.54.15.34.42.51.8.51s.64-.17.8-.51c.16-.34.24-.85.24-1.54s-.08-1.19-.24-1.53-.43-.51-.8-.51-.65.17-.8.51c-.16.34-.23.85-.23,1.53Z"/>
    </g>
    <g>
      <path class="st2" d="M46.28,53.23c0,.54-.06,1-.17,1.39-.11.38-.29.68-.54.88-.24.21-.57.31-.96.31-.56,0-.98-.23-1.25-.68-.27-.46-.4-1.09-.4-1.89,0-.54.05-1,.17-1.39.11-.38.29-.68.53-.88.24-.2.56-.3.96-.3.56,0,.98.23,1.25.68s.41,1.08.41,1.89h0ZM43.58,53.23c0,.69.08,1.2.23,1.54s.42.51.8.51.64-.17.8-.51c.16-.34.24-.85.24-1.54s-.08-1.19-.24-1.53-.43-.51-.8-.51-.65.17-.8.51c-.16.34-.23.85-.23,1.53Z"/>
      <path class="st2" d="M47.08,55.36c0-.17.04-.29.13-.36.08-.07.18-.1.3-.1s.22.04.31.1c.09.07.13.19.13.36s-.04.29-.13.36-.19.11-.31.11-.22-.04-.3-.11-.13-.2-.13-.36Z"/>
      <path class="st2" d="M52.05,53.23c0,.54-.06,1-.17,1.39-.11.38-.29.68-.54.88-.24.21-.57.31-.96.31-.56,0-.98-.23-1.25-.68-.27-.46-.4-1.09-.4-1.89,0-.54.05-1,.17-1.39.11-.38.29-.68.53-.88.24-.2.56-.3.96-.3.56,0,.98.23,1.25.68s.41,1.08.41,1.89h0ZM49.35,53.23c0,.69.08,1.2.23,1.54s.42.51.8.51.64-.17.8-.51c.16-.34.24-.85.24-1.54s-.08-1.19-.24-1.53-.43-.51-.8-.51-.65.17-.8.51c-.16.34-.23.85-.23,1.53Z"/>
      <path class="st2" d="M55.83,51.91c0,.34-.09.6-.28.8-.19.2-.44.33-.75.4v.03c.4.05.69.17.89.38s.3.47.3.8c0,.29-.07.55-.2.78-.14.22-.34.4-.63.52s-.65.19-1.09.19c-.26,0-.5-.02-.73-.06s-.44-.11-.64-.21v-.57c.21.11.44.19.68.24.24.06.48.08.7.08.45,0,.77-.09.97-.26.2-.18.3-.42.3-.72s-.12-.54-.37-.68-.59-.21-1.03-.21h-.48v-.53h.49c.41,0,.72-.09.93-.26.21-.17.32-.4.32-.69,0-.24-.08-.43-.25-.56-.16-.13-.38-.2-.67-.2s-.5.04-.69.12-.38.18-.57.3l-.31-.42c.18-.14.4-.26.66-.36s.56-.15.9-.15c.52,0,.91.12,1.17.35.25.23.38.53.38.89Z"/>
    </g>
    <g>
      <path class="st3" d="M111.08,49.89c0,.54-.06,1-.17,1.39s-.29.68-.54.88c-.24.21-.57.31-.96.31-.56,0-.98-.23-1.25-.68-.27-.46-.4-1.09-.4-1.89,0-.54.05-1,.17-1.39.11-.38.29-.67.53-.88.24-.2.56-.3.96-.3.56,0,.98.23,1.25.68s.41,1.08.41,1.89h0ZM108.38,49.89c0,.69.08,1.2.23,1.54.16.34.42.51.8.51s.64-.17.8-.51c.16-.34.24-.85.24-1.54s-.08-1.19-.24-1.53c-.16-.34-.43-.51-.8-.51s-.65.17-.8.51-.23.85-.23,1.53Z"/>
      <path class="st3" d="M111.88,52.02c0-.17.04-.29.13-.36s.18-.11.3-.11.22.04.31.11.13.19.13.36-.04.29-.13.36c-.09.08-.19.11-.31.11s-.22-.04-.3-.11-.13-.2-.13-.36Z"/>
      <path class="st3" d="M115.29,49.33c.51,0,.92.13,1.22.38.31.26.46.62.46,1.08,0,.52-.17.93-.49,1.22-.33.3-.79.44-1.38.44-.26,0-.5-.02-.73-.07-.22-.05-.41-.11-.57-.2v-.58c.17.1.37.18.61.24s.47.09.69.09c.37,0,.67-.09.89-.26.23-.17.34-.45.34-.82,0-.33-.1-.58-.3-.75-.2-.17-.52-.26-.95-.26-.13,0-.28.01-.45.03s-.3.05-.41.07l-.31-.2.19-2.36h2.51v.56h-1.98l-.12,1.45c.08-.01.19-.03.32-.05.14-.02.29-.03.45-.03v.02Z"/>
      <path class="st3" d="M118.23,52.39l2.05-4.44h-2.7v-.56h3.35v.48l-2.03,4.52h-.68,0Z"/>
    </g>
    <g>
      <path class="st3" d="M89.43,52.23c0,.54-.06,1-.17,1.39-.11.38-.29.68-.54.88-.24.21-.57.31-.96.31-.56,0-.98-.23-1.25-.68-.27-.46-.4-1.09-.4-1.89,0-.54.05-1,.17-1.39.11-.38.29-.68.53-.88s.56-.3.96-.3c.56,0,.98.23,1.25.68s.41,1.08.41,1.89h0ZM86.73,52.23c0,.69.08,1.2.23,1.54s.42.51.8.51.64-.17.8-.51c.16-.34.24-.85.24-1.54s-.08-1.19-.24-1.53c-.16-.34-.43-.51-.8-.51s-.65.17-.8.51c-.16.34-.23.85-.23,1.53Z"/>
      <path class="st3" d="M90.23,54.36c0-.17.04-.29.13-.36.08-.07.18-.1.3-.1s.22.04.31.1c.09.07.13.19.13.36s-.04.29-.13.36-.19.11-.31.11-.22-.04-.3-.11-.13-.2-.13-.36Z"/>
      <path class="st3" d="M95.37,54.73h-3.3v-.51l1.31-1.32c.25-.25.46-.48.63-.67s.31-.39.4-.57c.09-.19.13-.39.13-.62,0-.28-.08-.48-.25-.63-.16-.14-.38-.21-.64-.21s-.46.04-.64.13c-.18.08-.37.2-.56.35l-.33-.41c.2-.16.42-.3.68-.42.25-.11.54-.17.86-.17.47,0,.84.12,1.11.36s.41.56.41.97c0,.26-.05.51-.16.73-.11.23-.26.46-.45.68-.19.22-.42.46-.67.71l-1.04,1.03v.03h2.53v.56l-.02-.02Z"/>
      <path class="st3" d="M99.34,52.23c0,.54-.06,1-.17,1.39-.11.38-.29.68-.54.88-.24.21-.57.31-.96.31-.56,0-.98-.23-1.25-.68-.27-.46-.4-1.09-.4-1.89,0-.54.05-1,.17-1.39.11-.38.29-.68.53-.88s.56-.3.96-.3c.56,0,.98.23,1.25.68s.41,1.08.41,1.89h0ZM96.64,52.23c0,.69.08,1.2.23,1.54s.42.51.8.51.64-.17.8-.51c.16-.34.24-.85.24-1.54s-.08-1.19-.24-1.53c-.16-.34-.43-.51-.8-.51s-.65.17-.8.51c-.16.34-.23.85-.23,1.53Z"/>
    </g>
    <g>
      <path class="st0" d="M152.7.02c.43,0,.78.1,1.06.3.27.2.41.49.41.87,0,.2-.04.37-.13.52-.08.15-.2.28-.34.39s-.3.21-.47.3c.2.1.38.21.55.33.16.12.3.26.39.42s.15.35.15.58c0,.41-.15.74-.44.98s-.68.36-1.17.36c-.53,0-.94-.12-1.22-.35s-.42-.56-.42-.97c0-.22.05-.41.14-.58s.22-.31.38-.43.32-.22.5-.3c-.24-.14-.45-.3-.61-.5-.17-.19-.25-.44-.25-.74,0-.25.06-.46.19-.63s.3-.31.52-.4.47-.14.75-.14h0ZM151.67,3.75c0,.24.08.44.25.59.17.16.43.24.78.24.33,0,.59-.08.77-.24.18-.16.26-.36.26-.61s-.09-.44-.28-.59c-.19-.16-.44-.3-.75-.42l-.11-.04c-.3.13-.53.28-.69.45-.16.17-.24.37-.24.62h.01ZM152.7.51c-.26,0-.46.06-.62.18-.16.12-.24.3-.24.52,0,.17.04.31.12.43.08.11.19.21.33.29s.29.16.45.23c.24-.1.44-.22.6-.36s.24-.34.24-.58-.08-.4-.24-.52-.37-.18-.64-.18h0Z"/>
      <path class="st0" d="M155.22,4.62c0-.17.04-.29.12-.36s.18-.1.29-.1.21.03.3.1.13.19.13.36-.04.28-.13.36-.19.11-.3.11-.21-.04-.29-.11c-.08-.07-.12-.19-.12-.36Z"/>
      <path class="st0" d="M160.1,2.53c0,.53-.05.98-.17,1.36-.11.38-.28.66-.52.86s-.56.3-.94.3c-.55,0-.96-.22-1.22-.67-.26-.45-.4-1.06-.4-1.86,0-.53.05-.98.16-1.36s.28-.66.52-.86.55-.3.94-.3c.55,0,.96.22,1.23.66.27.44.41,1.06.41,1.86h-.01ZM157.45,2.53c0,.67.08,1.18.23,1.51s.42.5.79.5.63-.17.79-.5c.16-.33.24-.84.24-1.51s-.08-1.17-.24-1.5-.42-.5-.79-.5-.63.17-.79.5-.23.83-.23,1.5Z"/>
      <path class="st0" d="M160.93,2.9c0-.35.03-.7.09-1.04s.17-.65.34-.93c.16-.28.39-.5.68-.66.29-.17.67-.25,1.13-.25.1,0,.2,0,.32,0,.12,0,.21.02.28.05v.51c-.08-.03-.18-.05-.28-.06s-.21-.02-.31-.02c-.32,0-.58.05-.79.16-.21.11-.38.25-.5.43s-.21.39-.26.63c-.06.24-.09.49-.1.76h.04c.11-.16.25-.3.44-.41s.43-.17.72-.17c.43,0,.77.13,1.03.39s.39.63.39,1.1c0,.51-.14.92-.42,1.21s-.66.44-1.14.44c-.31,0-.59-.08-.84-.23-.25-.16-.45-.39-.6-.71s-.22-.73-.22-1.21ZM162.59,4.55c.29,0,.52-.09.7-.28s.27-.47.27-.86c0-.31-.08-.56-.24-.74s-.39-.27-.71-.27c-.22,0-.4.04-.56.13s-.28.2-.37.34-.13.28-.13.42c0,.2.04.39.12.59.08.19.19.35.35.48s.35.19.58.19h0Z"/>
    </g>
    <g>
      <path class="st3" d="M131.65,45.3h-.6v-3.97c0-.12,0-.25.02-.38-.08.08-.14.14-.21.19-.06.05-.14.12-.23.2l-.53.43-.32-.41,1.35-1.05h.51v5h.01Z"/>
      <path class="st3" d="M133.31,44.92c0-.17.04-.29.13-.36s.18-.11.3-.11.22.04.31.11.13.19.13.36-.04.29-.13.36c-.09.08-.19.11-.31.11s-.22-.04-.3-.11-.13-.2-.13-.36Z"/>
      <path class="st3" d="M135,43.17c0-.36.03-.71.09-1.06s.18-.66.34-.95c.17-.28.4-.51.7-.68s.68-.25,1.16-.25c.1,0,.21,0,.33.01.12,0,.22.03.29.05v.52c-.08-.03-.18-.05-.29-.06-.11-.01-.21-.02-.31-.02-.32,0-.59.05-.81.16s-.38.25-.51.44c-.12.19-.21.4-.27.64s-.09.5-.11.78h.04c.11-.16.26-.3.45-.42s.44-.17.73-.17c.43,0,.78.13,1.05.4.27.26.4.64.4,1.12,0,.52-.14.93-.43,1.23s-.67.45-1.16.45c-.32,0-.6-.08-.86-.24-.26-.16-.46-.4-.61-.73s-.23-.74-.23-1.24v.02ZM136.7,44.85c.29,0,.53-.09.71-.28.18-.19.27-.48.27-.88,0-.32-.08-.57-.24-.76s-.4-.28-.72-.28c-.22,0-.41.05-.57.14s-.29.21-.38.35c-.09.14-.14.29-.14.43,0,.2.04.4.12.6s.2.36.36.49.36.19.59.19h0Z"/>
      <path class="st3" d="M142.19,42.44c0,.36-.03.71-.09,1.06s-.18.66-.34.95c-.17.28-.4.51-.7.67-.3.17-.69.25-1.16.25-.09,0-.2,0-.33-.02-.13-.01-.23-.03-.3-.05v-.53c.18.06.39.09.62.09.33,0,.6-.05.81-.16.21-.11.38-.25.51-.44.13-.18.22-.4.27-.64s.09-.5.1-.77h-.04c-.11.16-.26.29-.45.41s-.44.17-.74.17c-.43,0-.78-.13-1.04-.4s-.4-.64-.4-1.12c0-.35.07-.65.2-.9s.32-.45.56-.58.52-.2.84-.2.6.08.86.24c.26.16.46.4.61.73s.22.74.22,1.24h-.01ZM140.49,40.75c-.29,0-.53.1-.71.29-.18.19-.28.48-.28.88,0,.32.08.58.23.76s.4.28.72.28c.22,0,.42-.04.58-.14.16-.09.29-.21.38-.35.09-.14.14-.29.14-.43,0-.2-.04-.4-.12-.59-.08-.2-.2-.36-.36-.49s-.36-.2-.59-.2h0Z"/>
    </g>
    <g>
      <path class="st2" d="M67.8,53.05c0,.54-.06,1-.17,1.39-.11.38-.29.68-.54.88-.24.21-.57.31-.96.31-.56,0-.98-.23-1.25-.68-.27-.46-.4-1.09-.4-1.89,0-.54.05-1,.17-1.39.11-.38.29-.68.53-.88s.56-.3.96-.3c.56,0,.98.23,1.25.68s.41,1.08.41,1.89h0ZM65.1,53.05c0,.69.08,1.2.23,1.54s.42.51.8.51.64-.17.8-.51c.16-.34.24-.85.24-1.54s-.08-1.19-.24-1.53c-.16-.34-.43-.51-.8-.51s-.65.17-.8.51c-.16.34-.23.85-.23,1.53Z"/>
      <path class="st2" d="M68.6,55.18c0-.17.04-.29.13-.36.08-.07.18-.1.3-.1s.22.04.31.1c.09.07.13.19.13.36s-.04.29-.13.36-.19.11-.31.11-.22-.04-.3-.11-.13-.2-.13-.36Z"/>
      <path class="st2" d="M73.57,53.05c0,.54-.06,1-.17,1.39-.11.38-.29.68-.54.88-.24.21-.57.31-.96.31-.56,0-.98-.23-1.25-.68-.27-.46-.4-1.09-.4-1.89,0-.54.05-1,.17-1.39.11-.38.29-.68.53-.88s.56-.3.96-.3c.56,0,.98.23,1.25.68s.41,1.08.41,1.89h0ZM70.87,53.05c0,.69.08,1.2.23,1.54s.42.51.8.51.64-.17.8-.51c.16-.34.24-.85.24-1.54s-.08-1.19-.24-1.53c-.16-.34-.43-.51-.8-.51s-.65.17-.8.51c-.16.34-.23.85-.23,1.53Z"/>
      <path class="st2" d="M74.42,53.42c0-.36.03-.71.09-1.06s.18-.66.34-.95c.17-.28.4-.51.7-.67.3-.17.68-.25,1.16-.25.1,0,.21,0,.33.01.12,0,.22.03.29.05v.53c-.08-.03-.18-.05-.29-.06-.11-.01-.21-.02-.31-.02-.32,0-.59.05-.81.16s-.38.25-.51.44c-.12.19-.21.4-.27.64s-.09.5-.11.78h.04c.11-.16.26-.3.45-.42s.44-.17.73-.17c.43,0,.78.13,1.05.4.27.26.4.64.4,1.12,0,.52-.14.93-.43,1.23s-.67.45-1.16.45c-.32,0-.6-.08-.86-.24-.26-.16-.46-.4-.61-.73s-.23-.74-.23-1.24h.01ZM76.11,55.11c.29,0,.53-.09.71-.28s.27-.48.27-.88c0-.32-.08-.57-.24-.76-.16-.19-.4-.28-.72-.28-.22,0-.41.04-.57.14-.16.09-.29.21-.38.35s-.14.29-.14.43c0,.2.04.4.12.6s.2.36.36.49.36.19.59.19Z"/>
    </g>
  </g>
</svg>