<?xml version="1.0" encoding="UTF-8"?>
<svg id="Layer_1" xmlns="http://www.w3.org/2000/svg" version="1.1" viewBox="0 0 376 549.28">
  <!-- Generator: Adobe Illustrator 29.6.0, SVG Export Plug-In . SVG Version: 2.1.1 Build 207)  -->
  <defs>
    <style>
      .st0 {
        fill: #ee7003;
      }

      .st1 {
        fill: #009ee4;
      }

      .st2 {
        fill: #49176d;
      }

      .st3 {
        fill: #f0b073;
      }

      .st4 {
        fill: #fff;
      }

      .st5 {
        fill: #0055a4;
      }

      .st6 {
        fill: #f1901d;
      }

      .st7 {
        fill: #006ba6;
      }

      .st8 {
        fill: #fab600;
      }
    </style>
  </defs>
  <g>
    <path class="st1" d="M100.11,279.43c-2.68,20.65-21.59,35.21-42.24,32.53-20.65-2.68-35.21-21.6-32.53-42.24,2.68-20.65,21.59-35.21,42.24-32.53,20.65,2.68,35.21,21.6,32.53,42.24"/>
    <path class="st5" d="M76.17,292.58c2,0,3.42-1.3,3.42-6.9,0-2.42-.24-6.25-3.24-6.25-3.48,0-3.48,4.72-3.48,6.54,0,4.48.77,6.6,3.3,6.6M76.41,274.84c8.14,0,9.61,5.25,9.61,10.73,0,3.01,0,11.85-10.08,11.85-6.96,0-9.37-4.89-9.37-11.26,0-3.01,0-11.32,9.85-11.32M75.88,251.55l-22.4,46.04h-4.42l22.4-46.04h4.42ZM49.05,269.71c2,0,3.42-1.3,3.42-6.9,0-2.42-.18-6.25-3.18-6.25-3.48,0-3.48,4.77-3.48,6.54,0,4.54.77,6.6,3.24,6.6M49.29,251.97c8.19,0,9.61,5.25,9.61,10.79,0,2.95,0,11.79-10.02,11.79-6.96,0-9.43-4.83-9.43-11.2,0-3.07.06-11.38,9.84-11.38"/>
    <path class="st4" d="M25.03,322.84c-10.93,0-19.49-4.18-19.49-9.51v-4.99h.01c0-.12.02-.24.03-.36-.03-.22-.04-.42-.04-.61v-4.99h.01c0-.13.02-.26.03-.39-.03-.23-.05-.44-.05-.64v-4.99h.01c0-.13.02-.26.04-.4-.03-.23-.05-.45-.05-.65v-4.99h.01c0-.13.02-.26.04-.39-.03-.23-.05-.44-.05-.65v-4.99h.01c.26-5.28,8.62-9.26,19.48-9.26s19.22,3.98,19.48,9.26h.01v4.99c0,.2-.02.42-.05.65.02.13.03.26.03.39h.01v4.99c0,.21-.02.42-.05.65.02.13.03.27.04.4h.01v4.99c0,.2-.02.42-.05.64.02.13.03.26.03.39h.01v4.99c0,.2-.01.39-.04.61.02.12.03.24.03.36h.01v4.99c0,5.33-8.56,9.51-19.49,9.51"/>
    <path class="st6" d="M42.39,310.84c-2.34,3.33-9.22,5.74-17.36,5.74s-15.02-2.41-17.36-5.74c-.55-.79-.86-1.62-.86-2.49v4.99c0,4.55,8.16,8.23,18.22,8.23s18.22-3.69,18.22-8.23v-4.99c0,.87-.3,1.71-.86,2.49"/>
    <path class="st4" d="M25.03,300.36c-10.06,0-18.22,3.69-18.22,8.23,0,.87.3,1.71.86,2.5,2.34,3.33,9.22,5.74,17.36,5.74s15.02-2.41,17.36-5.74c.55-.79.86-1.62.86-2.5,0-4.55-8.16-8.23-18.22-8.23"/>
    <path class="st3" d="M25.03,301.22c-9.18,0-16.63,3.2-16.63,7.14,0,.76.28,1.48.78,2.17,2.14,2.89,8.42,4.98,15.85,4.98s13.71-2.09,15.85-4.98c.51-.68.78-1.41.78-2.17,0-3.95-7.45-7.14-16.63-7.14"/>
    <path class="st6" d="M42.39,304.88c-2.34,3.33-9.22,5.74-17.36,5.74s-15.02-2.41-17.36-5.74c-.55-.79-.86-1.62-.86-2.5v4.99c0,4.55,8.16,8.24,18.22,8.24s18.22-3.69,18.22-8.24v-4.99c0,.87-.3,1.71-.86,2.5"/>
    <path class="st4" d="M25.03,294.4c-10.06,0-18.22,3.69-18.22,8.23,0,.87.3,1.71.86,2.5,2.34,3.33,9.22,5.74,17.36,5.74s15.02-2.41,17.36-5.74c.55-.79.86-1.62.86-2.5,0-4.55-8.16-8.23-18.22-8.23"/>
    <path class="st3" d="M25.03,295.26c-9.18,0-16.63,3.2-16.63,7.14,0,.76.28,1.48.78,2.17,2.14,2.89,8.42,4.98,15.85,4.98s13.71-2.09,15.85-4.98c.51-.68.78-1.41.78-2.17,0-3.95-7.45-7.14-16.63-7.14"/>
    <path class="st6" d="M42.39,298.86c-2.34,3.33-9.22,5.74-17.36,5.74s-15.02-2.41-17.36-5.74c-.55-.79-.86-1.62-.86-2.49v4.99c0,4.55,8.16,8.23,18.22,8.23s18.22-3.69,18.22-8.23v-4.99c0,.87-.3,1.71-.86,2.49"/>
    <path class="st4" d="M25.03,288.38c-10.06,0-18.22,3.69-18.22,8.23,0,.87.3,1.71.86,2.5,2.34,3.33,9.22,5.74,17.36,5.74s15.02-2.41,17.36-5.74c.55-.79.86-1.63.86-2.5,0-4.55-8.16-8.23-18.22-8.23"/>
    <path class="st3" d="M25.03,289.24c-9.18,0-16.63,3.2-16.63,7.14,0,.76.28,1.48.78,2.17,2.14,2.89,8.42,4.98,15.85,4.98s13.71-2.09,15.85-4.98c.51-.68.78-1.41.78-2.17,0-3.95-7.45-7.14-16.63-7.14"/>
    <path class="st6" d="M42.39,292.82c-2.34,3.33-9.22,5.74-17.36,5.74s-15.02-2.41-17.36-5.74c-.55-.79-.86-1.62-.86-2.5v4.99c0,4.55,8.16,8.24,18.22,8.24s18.22-3.69,18.22-8.24v-4.99c0,.87-.3,1.71-.86,2.5"/>
    <path class="st4" d="M25.03,282.33c-10.06,0-18.22,3.69-18.22,8.23,0,.87.3,1.71.86,2.5,2.34,3.33,9.22,5.74,17.36,5.74s15.02-2.41,17.36-5.74c.55-.79.86-1.62.86-2.5,0-4.55-8.16-8.23-18.22-8.23"/>
    <path class="st3" d="M25.03,283.2c-9.18,0-16.63,3.2-16.63,7.14,0,.76.28,1.48.78,2.17,2.14,2.89,8.42,4.98,15.85,4.98s13.71-2.09,15.85-4.98c.51-.68.78-1.41.78-2.17,0-3.95-7.45-7.14-16.63-7.14"/>
    <path class="st6" d="M42.39,286.79c-2.34,3.33-9.22,5.74-17.36,5.74s-15.02-2.41-17.36-5.74c-.55-.79-.86-1.62-.86-2.49v4.99c0,4.55,8.16,8.23,18.22,8.23s18.22-3.69,18.22-8.23v-4.99c0,.87-.3,1.71-.86,2.49"/>
    <path class="st6" d="M25.03,276.31c-10.06,0-18.22,3.69-18.22,8.23,0,.87.3,1.71.86,2.5,2.34,3.33,9.22,5.74,17.36,5.74s15.02-2.41,17.36-5.74c.55-.79.86-1.62.86-2.5,0-4.55-8.16-8.23-18.22-8.23"/>
    <path class="st8" d="M25.03,277.17c-9.18,0-16.63,3.2-16.63,7.14,0,.76.28,1.48.78,2.17,2.14,2.89,8.42,4.98,15.85,4.98s13.71-2.09,15.85-4.98c.51-.68.78-1.41.78-2.17,0-3.95-7.45-7.14-16.63-7.14"/>
    <path class="st0" d="M30.84,286.58c0-2.81-8.4-2.6-8.4-4.18,0-.51.87-.95,2.66-.95,1.44,0,2.59.15,3.54.37.51.12,1.08-.09,1.08-.38v-.79c0-.17-.19-.32-.49-.38-.65-.14-1.49-.23-2.52-.28-.4-.02-.7-.2-.7-.41v-.44c0-.23-.35-.41-.78-.41h-.38c-.43,0-.78.18-.78.41v.5c0,.19-.26.36-.62.4-1.16.12-2.13.37-2.88.76-.89.47-1.34,1.04-1.34,1.7,0,2.64,8.4,2.72,8.4,4.16,0,.51-1.22.91-2.59.91-2.16,0-3.73-.25-4.71-.48-.52-.12-1.1.07-1.1.37v.8c0,.16.18.31.46.38,1.1.25,2.41.4,3.65.45.41.02.73.19.73.41v.54c0,.23.35.41.78.41h.38c.43,0,.78-.18.78-.41v-.64c0-.2.27-.36.64-.4,1.23-.12,2.21-.36,2.92-.72.85-.43,1.28-1,1.28-1.7"/>
    <path class="st5" d="M314.53,295.65h-69.54c-.62,0-1.12-.5-1.12-1.12v-40.24c0-.62.5-1.12,1.12-1.12h69.54c.62,0,1.12.5,1.12,1.12v40.24c0,.62-.5,1.12-1.12,1.12"/>
    <path class="st1" d="M312.45,261.88c-3.01,0-5.46-2.44-5.46-5.46,0-.06,0-.12,0-.17h-54.46c0,.06,0,.12,0,.17,0,3.01-2.44,5.46-5.46,5.46-.05,0-.09,0-.14,0v25.61s.09,0,.14,0c2.89,0,5.25,2.24,5.44,5.08h54.48c.19-2.84,2.55-5.08,5.44-5.08.04,0,.08,0,.13,0v-25.61s-.08,0-.13,0"/>
    <path class="st4" d="M279.77,281.59c-5.96,0-10.81-4.85-10.81-10.81s4.85-10.81,10.81-10.81,10.81,4.85,10.81,10.81-4.85,10.81-10.81,10.81"/>
    <path class="st2" d="M289.61,270.78c0,5.44-4.41,9.85-9.85,9.85s-9.85-4.41-9.85-9.85,4.41-9.85,9.85-9.85,9.85,4.41,9.85,9.85"/>
    <path class="st4" d="M280.9,275.1c0,.66.09.89.77.95l1.11.07v.62h-6.02v-.62l1.05-.07c.64-.05.75-.29.75-.95v-9.52h-.85c-1.68,0-1.91.66-2.43,2.44h-.64v-3.19h10.25v3.19h-.64c-.51-1.79-.75-2.44-2.43-2.44h-.93v9.52Z"/>
  </g>
  <rect class="st7" x="261.26" y="284.13" width="37" height="1.88"/>
  <rect class="st7" x="265.2" y="287.71" width="29.13" height="1.88"/>
  <g>
    <path class="st4" d="M305.03,310.93c-6.1,0-10.69-2.3-10.69-5.36v-2.67h0c0-.06,0-.13.02-.19-.01-.12-.02-.22-.02-.33v-2.67h0c0-.07,0-.14.02-.2-.01-.12-.02-.23-.02-.34v-2.67h0c0-.07,0-.14.02-.21-.02-.12-.02-.24-.02-.35v-2.66h0c0-.07,0-.14.02-.21-.02-.12-.02-.24-.02-.35v-2.67h0c.13-2.98,4.72-5.23,10.69-5.23s10.55,2.25,10.69,5.23h0v2.67c0,.11,0,.23-.02.35,0,.07.01.14.02.21h0v2.66c0,.11,0,.23-.02.35,0,.07.01.14.02.21h0v2.67c0,.11,0,.22-.02.34,0,.07.01.14.02.2h0v2.67c0,.11,0,.21-.02.33,0,.06.01.13.01.19h0v2.67c0,3.06-4.6,5.36-10.69,5.36"/>
    <path class="st6" d="M314.3,304.23c-1.25,1.78-4.93,3.07-9.27,3.07s-8.02-1.29-9.27-3.07c-.3-.42-.46-.87-.46-1.33v2.67c0,2.43,4.36,4.4,9.73,4.4s9.73-1.97,9.73-4.4v-2.67c0,.46-.16.91-.46,1.33"/>
    <path class="st4" d="M305.03,298.64c-5.37,0-9.73,1.97-9.73,4.4,0,.46.16.91.46,1.33,1.25,1.78,4.93,3.07,9.27,3.07s8.02-1.29,9.27-3.07c.3-.42.46-.87.46-1.33,0-2.43-4.35-4.4-9.73-4.4"/>
    <path class="st3" d="M305.02,299.1c-4.91,0-8.88,1.71-8.88,3.82,0,.4.15.79.42,1.16,1.14,1.54,4.5,2.66,8.46,2.66s7.32-1.12,8.46-2.66c.27-.36.42-.75.42-1.16,0-2.11-3.98-3.82-8.88-3.82"/>
    <path class="st6" d="M314.3,301.05c-1.25,1.78-4.93,3.07-9.27,3.07s-8.02-1.29-9.27-3.07c-.3-.42-.46-.87-.46-1.33v2.67c0,2.43,4.36,4.4,9.73,4.4s9.73-1.97,9.73-4.4v-2.67c0,.46-.16.91-.46,1.33"/>
    <path class="st4" d="M305.03,295.45c-5.37,0-9.73,1.97-9.73,4.4,0,.46.16.91.46,1.33,1.25,1.78,4.93,3.07,9.27,3.07s8.02-1.29,9.27-3.07c.3-.42.46-.87.46-1.33,0-2.43-4.35-4.4-9.73-4.4"/>
    <path class="st3" d="M305.02,295.91c-4.91,0-8.88,1.71-8.88,3.82,0,.4.15.79.42,1.16,1.14,1.54,4.5,2.66,8.46,2.66s7.32-1.12,8.46-2.66c.27-.36.42-.75.42-1.16,0-2.11-3.98-3.82-8.88-3.82"/>
    <path class="st6" d="M314.3,297.84c-1.25,1.78-4.93,3.07-9.27,3.07s-8.02-1.29-9.27-3.07c-.3-.42-.46-.87-.46-1.33v2.67c0,2.43,4.36,4.4,9.73,4.4s9.73-1.97,9.73-4.4v-2.67c0,.46-.16.91-.46,1.33"/>
    <path class="st4" d="M305.03,292.24c-5.37,0-9.73,1.97-9.73,4.4,0,.46.16.91.46,1.33,1.25,1.78,4.93,3.07,9.27,3.07s8.02-1.29,9.27-3.07c.3-.42.46-.87.46-1.33,0-2.43-4.35-4.4-9.73-4.4"/>
    <path class="st3" d="M305.02,292.7c-4.91,0-8.88,1.71-8.88,3.82,0,.4.15.79.42,1.16,1.14,1.54,4.5,2.66,8.46,2.66s7.32-1.12,8.46-2.66c.27-.37.42-.75.42-1.16,0-2.11-3.98-3.82-8.88-3.82"/>
    <path class="st6" d="M314.3,294.61c-1.25,1.78-4.93,3.07-9.27,3.07s-8.02-1.29-9.27-3.07c-.3-.42-.46-.87-.46-1.33v2.67c0,2.43,4.36,4.4,9.73,4.4s9.73-1.97,9.73-4.4v-2.67c0,.46-.16.91-.46,1.33"/>
    <path class="st4" d="M305.03,289.01c-5.37,0-9.73,1.97-9.73,4.4,0,.46.16.91.46,1.33,1.25,1.78,4.93,3.07,9.27,3.07s8.02-1.29,9.27-3.07c.3-.42.46-.87.46-1.33,0-2.43-4.35-4.4-9.73-4.4"/>
    <path class="st3" d="M305.02,289.47c-4.91,0-8.88,1.71-8.88,3.82,0,.4.15.79.42,1.16,1.14,1.54,4.5,2.66,8.46,2.66s7.32-1.12,8.46-2.66c.27-.37.42-.75.42-1.16,0-2.11-3.98-3.82-8.88-3.82"/>
    <path class="st6" d="M314.3,291.39c-1.25,1.78-4.93,3.07-9.27,3.07s-8.02-1.29-9.27-3.07c-.3-.42-.46-.87-.46-1.33v2.67c0,2.43,4.36,4.4,9.73,4.4s9.73-1.97,9.73-4.4v-2.67c0,.46-.16.91-.46,1.33"/>
    <path class="st6" d="M305.03,285.79c-5.37,0-9.73,1.97-9.73,4.4,0,.46.16.91.46,1.33,1.25,1.78,4.93,3.07,9.27,3.07s8.02-1.29,9.27-3.07c.3-.42.46-.87.46-1.33,0-2.43-4.35-4.4-9.73-4.4"/>
    <path class="st8" d="M305.02,286.25c-4.91,0-8.88,1.71-8.88,3.82,0,.4.15.79.42,1.16,1.14,1.54,4.5,2.66,8.46,2.66s7.32-1.12,8.46-2.66c.27-.36.42-.75.42-1.16,0-2.11-3.98-3.82-8.88-3.82"/>
    <path class="st0" d="M308.13,291.28c0-1.5-4.49-1.39-4.49-2.23,0-.27.46-.51,1.42-.51.77,0,1.38.08,1.89.2.27.06.58-.05.58-.2v-.42c0-.09-.1-.17-.26-.2-.35-.07-.8-.12-1.35-.15-.21-.01-.37-.11-.37-.22v-.24c0-.12-.19-.22-.41-.22h-.2c-.23,0-.42.1-.42.22v.27c0,.1-.14.2-.33.21-.62.06-1.14.2-1.54.41-.48.25-.72.55-.72.91,0,1.41,4.49,1.45,4.49,2.22,0,.27-.65.49-1.38.49-1.15,0-1.99-.13-2.52-.26-.28-.07-.59.04-.59.2v.42c0,.09.1.17.25.2.59.13,1.28.22,1.95.24.22,0,.39.1.39.22v.29c0,.12.19.22.42.22h.2c.23,0,.41-.1.41-.22v-.34c0-.11.14-.19.34-.21.66-.07,1.18-.2,1.56-.39.46-.23.68-.53.68-.91"/>
  </g>
  <g>
    <path class="st7" d="M14.15,12.24h-4.13v-.83l1.34-.3V1.97l-1.34-.32v-.83h4.13v.83l-1.34.32v9.14l1.34.3v.83Z"/>
    <path class="st7" d="M20.36,4.75h-2.16v7.49h-1.41v-7.49h-1.5v-.66l1.5-.48v-.5c0-1.11.24-1.91.73-2.39s1.17-.73,2.06-.73c.33,0,.64.03.93.09s.53.13.74.2l-.37,1.1c-.17-.05-.37-.11-.59-.16s-.45-.08-.69-.08c-.47,0-.82.16-1.05.47-.23.31-.34.81-.34,1.48v.56h2.16v1.09Z"/>
    <path class="st7" d="M27.24.45c.21,0,.4.07.57.22s.25.37.25.68-.08.54-.25.68-.35.22-.57.22c-.23,0-.43-.07-.59-.22-.16-.14-.24-.37-.24-.68s.08-.54.24-.68c.16-.14.36-.22.59-.22ZM27.92,3.66v8.58h-1.41V3.66h1.41Z"/>
    <path class="st7" d="M35.01,3.5c1.02,0,1.8.25,2.32.75.52.5.78,1.3.78,2.4v5.58h-1.39v-5.49c0-1.38-.64-2.06-1.92-2.06-.95,0-1.61.27-1.97.8-.36.53-.54,1.3-.54,2.3v4.45h-1.41V3.66h1.14l.21,1.17h.08c.28-.45.66-.78,1.15-1,.49-.22,1.01-.33,1.55-.33Z"/>
    <path class="st7" d="M43.86,11.25c.21,0,.43-.02.66-.05.22-.03.41-.07.54-.13v1.07c-.15.07-.36.14-.64.18-.28.05-.54.07-.8.07-.45,0-.86-.08-1.24-.23-.38-.15-.69-.42-.92-.81-.23-.38-.35-.92-.35-1.62v-4.99h-1.22v-.67l1.23-.56.56-1.82h.83v1.97h2.48v1.09h-2.48v4.96c0,.52.13.91.38,1.16.25.25.57.38.97.38Z"/>
    <path class="st7" d="M50.31,3.5c.73,0,1.35.16,1.89.48.53.32.94.77,1.22,1.35.28.58.42,1.26.42,2.04v.85h-5.87c.02.97.27,1.71.74,2.22.47.51,1.14.76,1.99.76.54,0,1.03-.05,1.45-.15s.86-.25,1.3-.44v1.23c-.44.19-.87.33-1.3.42s-.93.14-1.52.14c-.82,0-1.54-.17-2.16-.5-.62-.33-1.1-.82-1.45-1.47-.35-.65-.52-1.46-.52-2.42s.16-1.74.47-2.42c.31-.67.76-1.19,1.33-1.55.57-.36,1.23-.54,1.99-.54ZM50.29,4.66c-.67,0-1.2.22-1.59.65-.39.43-.62,1.03-.7,1.8h4.37c-.01-.73-.18-1.31-.51-1.77-.33-.45-.85-.68-1.57-.68Z"/>
    <path class="st7" d="M60.24,3.5c.16,0,.33,0,.51.02.18.02.35.04.5.07l-.18,1.3c-.14-.03-.29-.06-.46-.08-.17-.02-.33-.03-.46-.03-.44,0-.85.12-1.23.36-.38.24-.69.58-.92,1.01s-.34.94-.34,1.51v4.58h-1.41V3.66h1.15l.16,1.57h.06c.27-.47.62-.87,1.06-1.22.44-.34.96-.51,1.56-.51Z"/>
    <path class="st7" d="M66.39,3.5c.73,0,1.35.16,1.89.48.53.32.94.77,1.22,1.35.28.58.42,1.26.42,2.04v.85h-5.87c.02.97.27,1.71.74,2.22.47.51,1.14.76,1.99.76.54,0,1.03-.05,1.45-.15s.86-.25,1.3-.44v1.23c-.44.19-.87.33-1.3.42s-.93.14-1.52.14c-.82,0-1.54-.17-2.16-.5-.62-.33-1.1-.82-1.45-1.47-.35-.65-.52-1.46-.52-2.42s.16-1.74.47-2.42c.31-.67.76-1.19,1.33-1.55.57-.36,1.23-.54,1.99-.54ZM66.37,4.66c-.67,0-1.2.22-1.59.65-.39.43-.62,1.03-.7,1.8h4.37c-.01-.73-.18-1.31-.51-1.77-.33-.45-.85-.68-1.57-.68Z"/>
    <path class="st7" d="M77.91,9.87c0,.83-.31,1.46-.93,1.89-.62.43-1.45.64-2.5.64-.6,0-1.11-.05-1.54-.14-.43-.1-.81-.23-1.14-.4v-1.28c.34.17.75.33,1.24.47s.98.22,1.48.22c.71,0,1.23-.11,1.55-.34s.48-.54.48-.92c0-.21-.06-.4-.18-.58-.12-.17-.33-.34-.63-.51-.3-.17-.74-.36-1.3-.58-.55-.21-1.03-.43-1.42-.64s-.7-.47-.91-.77c-.21-.3-.32-.68-.32-1.15,0-.73.3-1.29.89-1.68.59-.39,1.37-.59,2.33-.59.52,0,1.01.05,1.46.16.45.11.88.25,1.27.42l-.48,1.12c-.36-.15-.74-.28-1.14-.38s-.8-.16-1.22-.16c-.58,0-1.02.09-1.32.28-.3.19-.46.44-.46.76,0,.25.07.45.21.61.14.16.37.32.7.48.33.16.76.34,1.3.54.54.2,1.01.41,1.39.62.38.21.68.47.88.78.2.3.3.69.3,1.14Z"/>
    <path class="st7" d="M83.09,11.25c.21,0,.43-.02.66-.05.22-.03.41-.07.54-.13v1.07c-.15.07-.36.14-.64.18-.28.05-.54.07-.8.07-.45,0-.86-.08-1.24-.23-.38-.15-.69-.42-.92-.81-.23-.38-.35-.92-.35-1.62v-4.99h-1.22v-.67l1.23-.56.56-1.82h.83v1.97h2.48v1.09h-2.48v4.96c0,.52.13.91.38,1.16.25.25.57.38.97.38Z"/>
  </g>
  <g>
    <path class="st7" d="M16.53,23.5c.16,0,.33,0,.51.02.18.02.35.04.5.07l-.18,1.3c-.14-.03-.29-.06-.46-.08-.17-.02-.33-.03-.46-.03-.44,0-.85.12-1.23.36-.38.24-.69.58-.92,1.01s-.34.94-.34,1.51v4.58h-1.41v-8.58h1.15l.16,1.57h.06c.27-.47.62-.87,1.06-1.22.44-.34.96-.51,1.56-.51Z"/>
    <path class="st7" d="M22.61,23.52c1.05,0,1.82.23,2.32.69.5.46.75,1.19.75,2.19v5.84h-1.02l-.27-1.22h-.06c-.37.47-.77.82-1.18,1.04-.42.22-.98.34-1.7.34-.78,0-1.42-.21-1.94-.62-.51-.41-.77-1.05-.77-1.93s.34-1.51,1.01-1.98c.67-.46,1.71-.72,3.1-.76l1.46-.05v-.51c0-.71-.15-1.21-.46-1.49s-.75-.42-1.31-.42c-.45,0-.87.07-1.28.2-.41.13-.78.29-1.14.46l-.43-1.06c.37-.2.82-.38,1.33-.52.51-.14,1.05-.22,1.6-.22ZM24.29,28.05l-1.26.05c-1.07.04-1.81.21-2.22.51-.41.3-.62.72-.62,1.26,0,.48.15.83.44,1.06s.67.34,1.13.34c.71,0,1.31-.2,1.8-.6.49-.4.73-1.02.73-1.85v-.77Z"/>
    <path class="st7" d="M31.44,31.25c.21,0,.43-.02.66-.05.22-.03.41-.07.54-.13v1.07c-.15.07-.36.14-.64.18-.28.05-.54.07-.8.07-.45,0-.86-.08-1.24-.23-.38-.15-.69-.42-.92-.81-.23-.38-.35-.92-.35-1.62v-4.99h-1.22v-.67l1.23-.56.56-1.82h.83v1.97h2.48v1.09h-2.48v4.96c0,.52.13.91.38,1.16.25.25.57.38.97.38Z"/>
    <path class="st7" d="M37.89,23.5c.73,0,1.35.16,1.89.48.53.32.94.77,1.22,1.35.28.58.42,1.26.42,2.04v.85h-5.87c.02.97.27,1.71.74,2.22.47.51,1.14.76,1.99.76.54,0,1.03-.05,1.45-.15s.86-.25,1.3-.44v1.23c-.44.19-.87.33-1.3.42s-.93.14-1.52.14c-.82,0-1.54-.17-2.16-.5-.62-.33-1.1-.82-1.45-1.47-.35-.65-.52-1.46-.52-2.42s.16-1.74.47-2.42c.31-.67.76-1.19,1.33-1.55.57-.36,1.23-.54,1.99-.54ZM37.88,24.66c-.67,0-1.2.22-1.59.65-.39.43-.62,1.03-.7,1.8h4.37c-.01-.73-.18-1.31-.51-1.77-.33-.45-.85-.68-1.57-.68Z"/>
    <path class="st7" d="M49.43,29.87c0,.83-.31,1.46-.93,1.89-.62.43-1.45.64-2.5.64-.6,0-1.11-.05-1.54-.14-.43-.1-.81-.23-1.14-.4v-1.28c.34.17.75.33,1.24.47s.98.22,1.48.22c.71,0,1.23-.11,1.55-.34s.48-.54.48-.92c0-.21-.06-.4-.18-.58-.12-.17-.33-.34-.63-.51-.3-.17-.74-.36-1.3-.58-.55-.21-1.03-.43-1.42-.64s-.7-.47-.91-.77c-.21-.3-.32-.68-.32-1.15,0-.73.3-1.29.89-1.68.59-.39,1.37-.59,2.33-.59.52,0,1.01.05,1.46.16.45.11.88.25,1.27.42l-.48,1.12c-.36-.15-.74-.28-1.14-.38s-.8-.16-1.22-.16c-.58,0-1.02.09-1.32.28-.3.19-.46.44-.46.76,0,.25.07.45.21.61.14.16.37.32.7.48.33.16.76.34,1.3.54.54.2,1.01.41,1.39.62.38.21.68.47.88.78.2.3.3.69.3,1.14Z"/>
    <path class="st7" d="M60.13,23.5c.16,0,.33,0,.51.02.18.02.35.04.5.07l-.18,1.3c-.14-.03-.29-.06-.46-.08-.17-.02-.33-.03-.46-.03-.44,0-.85.12-1.23.36-.38.24-.69.58-.92,1.01s-.34.94-.34,1.51v4.58h-1.41v-8.58h1.15l.16,1.57h.06c.27-.47.62-.87,1.06-1.22.44-.34.96-.51,1.56-.51Z"/>
    <path class="st7" d="M63.68,20.45c.21,0,.4.07.57.22s.25.37.25.68-.08.54-.25.68-.35.22-.57.22c-.23,0-.43-.07-.59-.22-.16-.14-.24-.37-.24-.68s.08-.54.24-.68c.16-.14.36-.22.59-.22ZM64.37,23.66v8.58h-1.41v-8.58h1.41Z"/>
    <path class="st7" d="M72.9,29.87c0,.83-.31,1.46-.93,1.89-.62.43-1.45.64-2.5.64-.6,0-1.11-.05-1.54-.14-.43-.1-.81-.23-1.14-.4v-1.28c.34.17.75.33,1.24.47s.98.22,1.48.22c.71,0,1.23-.11,1.55-.34s.48-.54.48-.92c0-.21-.06-.4-.18-.58-.12-.17-.33-.34-.63-.51-.3-.17-.74-.36-1.3-.58-.55-.21-1.03-.43-1.42-.64s-.7-.47-.91-.77c-.21-.3-.32-.68-.32-1.15,0-.73.3-1.29.89-1.68.59-.39,1.37-.59,2.33-.59.52,0,1.01.05,1.46.16.45.11.88.25,1.27.42l-.48,1.12c-.36-.15-.74-.28-1.14-.38s-.8-.16-1.22-.16c-.58,0-1.02.09-1.32.28-.3.19-.46.44-.46.76,0,.25.07.45.21.61.14.16.37.32.7.48.33.16.76.34,1.3.54.54.2,1.01.41,1.39.62.38.21.68.47.88.78.2.3.3.69.3,1.14Z"/>
    <path class="st7" d="M78.53,23.5c.73,0,1.35.16,1.89.48.53.32.94.77,1.22,1.35.28.58.42,1.26.42,2.04v.85h-5.87c.02.97.27,1.71.74,2.22.47.51,1.14.76,1.99.76.54,0,1.03-.05,1.45-.15s.86-.25,1.3-.44v1.23c-.44.19-.87.33-1.3.42s-.93.14-1.52.14c-.82,0-1.54-.17-2.16-.5-.62-.33-1.1-.82-1.45-1.47-.35-.65-.52-1.46-.52-2.42s.16-1.74.47-2.42c.31-.67.76-1.19,1.33-1.55.57-.36,1.23-.54,1.99-.54ZM78.51,24.66c-.67,0-1.2.22-1.59.65-.39.43-.62,1.03-.7,1.8h4.37c-.01-.73-.18-1.31-.51-1.77-.33-.45-.85-.68-1.57-.68Z"/>
  </g>
  <g>
    <path class="st7" d="M13.94,529.12h-4.13v-.83l1.34-.3v-9.14l-1.34-.32v-.83h4.13v.83l-1.34.32v9.14l1.34.3v.83Z"/>
    <path class="st7" d="M20.15,521.63h-2.16v7.49h-1.41v-7.49h-1.5v-.66l1.5-.48v-.5c0-1.11.24-1.91.73-2.39.48-.49,1.17-.73,2.06-.73.33,0,.64.03.93.09.29.06.53.13.74.2l-.37,1.1c-.17-.05-.37-.11-.59-.16s-.45-.08-.69-.08c-.47,0-.82.16-1.05.47-.23.32-.34.81-.34,1.48v.56h2.16v1.09Z"/>
    <path class="st7" d="M27.03,517.33c.21,0,.4.07.57.22.17.14.25.37.25.68s-.08.54-.25.68c-.17.14-.35.22-.57.22-.23,0-.43-.07-.59-.22-.16-.14-.24-.37-.24-.68s.08-.54.24-.68c.16-.14.36-.22.59-.22ZM27.72,520.54v8.58h-1.41v-8.58h1.41Z"/>
    <path class="st7" d="M34.8,520.38c1.02,0,1.8.25,2.32.75.52.5.78,1.3.78,2.4v5.58h-1.39v-5.49c0-1.38-.64-2.06-1.92-2.06-.95,0-1.61.27-1.97.8-.36.53-.54,1.3-.54,2.3v4.45h-1.41v-8.58h1.14l.21,1.17h.08c.28-.45.66-.78,1.15-1,.49-.22,1.01-.33,1.55-.33Z"/>
    <path class="st7" d="M43.65,528.13c.21,0,.43-.02.66-.05s.41-.07.54-.13v1.07c-.15.07-.36.14-.64.18-.28.05-.54.07-.8.07-.45,0-.86-.08-1.24-.23-.38-.15-.69-.42-.92-.81-.23-.38-.35-.92-.35-1.62v-4.99h-1.22v-.67l1.23-.56.56-1.82h.83v1.97h2.48v1.09h-2.48v4.96c0,.52.13.91.38,1.16.25.25.57.38.97.38Z"/>
    <path class="st7" d="M50.1,520.38c.73,0,1.35.16,1.89.48.53.32.94.77,1.22,1.35.28.58.42,1.26.42,2.04v.85h-5.87c.02.97.27,1.71.74,2.22s1.14.76,1.99.76c.54,0,1.03-.05,1.45-.15.42-.1.86-.25,1.3-.44v1.23c-.44.19-.87.33-1.3.42-.43.09-.93.14-1.52.14-.82,0-1.54-.17-2.16-.5-.62-.33-1.1-.82-1.45-1.47-.35-.65-.52-1.46-.52-2.42s.16-1.74.47-2.42c.31-.67.76-1.19,1.33-1.55.57-.36,1.23-.54,1.99-.54ZM50.08,521.54c-.67,0-1.2.22-1.59.65-.39.43-.62,1.03-.7,1.8h4.37c-.01-.73-.18-1.31-.51-1.77-.33-.45-.85-.68-1.57-.68Z"/>
    <path class="st7" d="M60.04,520.38c.16,0,.33,0,.51.02.18.02.35.04.5.07l-.18,1.3c-.14-.03-.29-.06-.46-.08-.17-.02-.33-.03-.46-.03-.44,0-.85.12-1.23.36-.38.24-.69.58-.92,1.01s-.34.94-.34,1.51v4.58h-1.41v-8.58h1.15l.16,1.57h.06c.27-.47.62-.88,1.06-1.22.44-.34.96-.51,1.56-.51Z"/>
    <path class="st7" d="M66.18,520.38c.73,0,1.35.16,1.89.48.53.32.94.77,1.22,1.35.28.58.42,1.26.42,2.04v.85h-5.87c.02.97.27,1.71.74,2.22s1.14.76,1.99.76c.54,0,1.03-.05,1.45-.15.42-.1.86-.25,1.3-.44v1.23c-.44.19-.87.33-1.3.42-.43.09-.93.14-1.52.14-.82,0-1.54-.17-2.16-.5-.62-.33-1.1-.82-1.45-1.47-.35-.65-.52-1.46-.52-2.42s.16-1.74.47-2.42c.31-.67.76-1.19,1.33-1.55.57-.36,1.23-.54,1.99-.54ZM66.16,521.54c-.67,0-1.2.22-1.59.65-.39.43-.62,1.03-.7,1.8h4.37c-.01-.73-.18-1.31-.51-1.77-.33-.45-.85-.68-1.57-.68Z"/>
    <path class="st7" d="M77.7,526.75c0,.83-.31,1.46-.93,1.89-.62.43-1.45.64-2.5.64-.6,0-1.11-.05-1.54-.14-.43-.1-.81-.23-1.14-.4v-1.28c.34.17.75.33,1.24.47.49.14.98.22,1.48.22.71,0,1.23-.12,1.55-.34.32-.23.48-.54.48-.92,0-.21-.06-.41-.18-.58-.12-.17-.33-.34-.63-.51-.3-.17-.74-.36-1.3-.58-.55-.21-1.03-.43-1.42-.64-.39-.21-.7-.47-.91-.77-.21-.3-.32-.68-.32-1.15,0-.73.3-1.29.89-1.68.59-.39,1.37-.59,2.33-.59.52,0,1.01.05,1.46.16.45.11.88.25,1.27.42l-.48,1.12c-.36-.15-.74-.28-1.14-.38s-.8-.16-1.22-.16c-.58,0-1.02.09-1.32.28-.3.19-.46.44-.46.76,0,.25.07.45.21.61.14.16.37.32.7.48.33.16.76.34,1.3.54.54.2,1.01.41,1.39.62.38.21.68.47.88.78.2.3.3.69.3,1.14Z"/>
    <path class="st7" d="M82.88,528.13c.21,0,.43-.02.66-.05s.41-.07.54-.13v1.07c-.15.07-.36.14-.64.18-.28.05-.54.07-.8.07-.45,0-.86-.08-1.24-.23-.38-.15-.69-.42-.92-.81-.23-.38-.35-.92-.35-1.62v-4.99h-1.22v-.67l1.23-.56.56-1.82h.83v1.97h2.48v1.09h-2.48v4.96c0,.52.13.91.38,1.16.25.25.57.38.97.38Z"/>
  </g>
  <g>
    <path class="st7" d="M18.68,540.38c.16,0,.33,0,.51.02.18.02.35.04.5.07l-.18,1.3c-.14-.03-.29-.06-.46-.08-.17-.02-.33-.03-.46-.03-.44,0-.85.12-1.23.36-.38.24-.69.58-.92,1.01s-.34.94-.34,1.51v4.58h-1.41v-8.58h1.15l.16,1.57h.06c.27-.47.62-.88,1.06-1.22.44-.34.96-.51,1.56-.51Z"/>
    <path class="st7" d="M24.76,540.4c1.05,0,1.82.23,2.32.69.5.46.75,1.19.75,2.19v5.84h-1.02l-.27-1.22h-.06c-.37.47-.77.82-1.18,1.04-.42.22-.98.34-1.7.34-.78,0-1.42-.21-1.94-.62-.51-.41-.77-1.05-.77-1.93s.34-1.51,1.01-1.98c.67-.46,1.71-.72,3.1-.76l1.46-.05v-.51c0-.71-.15-1.21-.46-1.49s-.75-.42-1.31-.42c-.45,0-.87.07-1.28.2-.41.13-.78.29-1.14.46l-.43-1.06c.37-.2.82-.38,1.33-.52.51-.14,1.05-.22,1.6-.22ZM26.44,544.93l-1.26.05c-1.07.04-1.81.21-2.22.51-.41.3-.62.72-.62,1.26,0,.48.15.83.44,1.06.29.22.67.34,1.13.34.71,0,1.31-.2,1.8-.6.49-.4.73-1.02.73-1.85v-.77Z"/>
    <path class="st7" d="M33.59,548.13c.21,0,.43-.02.66-.05s.41-.07.54-.13v1.07c-.15.07-.36.14-.64.18-.28.05-.54.07-.8.07-.45,0-.86-.08-1.24-.23-.38-.15-.69-.42-.92-.81-.23-.38-.35-.92-.35-1.62v-4.99h-1.22v-.67l1.23-.56.56-1.82h.83v1.97h2.48v1.09h-2.48v4.96c0,.52.13.91.38,1.16.25.25.57.38.97.38Z"/>
    <path class="st7" d="M40.04,540.38c.73,0,1.35.16,1.89.48.53.32.94.77,1.22,1.35.28.58.42,1.26.42,2.04v.85h-5.87c.02.97.27,1.71.74,2.22s1.14.76,1.99.76c.54,0,1.03-.05,1.45-.15.42-.1.86-.25,1.3-.44v1.23c-.44.19-.87.33-1.3.42-.43.09-.93.14-1.52.14-.82,0-1.54-.17-2.16-.5-.62-.33-1.1-.82-1.45-1.47-.35-.65-.52-1.46-.52-2.42s.16-1.74.47-2.42c.31-.67.76-1.19,1.33-1.55.57-.36,1.23-.54,1.99-.54ZM40.02,541.54c-.67,0-1.2.22-1.59.65-.39.43-.62,1.03-.7,1.8h4.37c-.01-.73-.18-1.31-.51-1.77-.33-.45-.85-.68-1.57-.68Z"/>
    <path class="st7" d="M51.57,546.75c0,.83-.31,1.46-.93,1.89-.62.43-1.45.64-2.5.64-.6,0-1.11-.05-1.54-.14-.43-.1-.81-.23-1.14-.4v-1.28c.34.17.75.33,1.24.47.49.14.98.22,1.48.22.71,0,1.23-.12,1.55-.34.32-.23.48-.54.48-.92,0-.21-.06-.41-.18-.58-.12-.17-.33-.34-.63-.51-.3-.17-.74-.36-1.3-.58-.55-.21-1.03-.43-1.42-.64-.39-.21-.7-.47-.91-.77-.21-.3-.32-.68-.32-1.15,0-.73.3-1.29.89-1.68.59-.39,1.37-.59,2.33-.59.52,0,1.01.05,1.46.16.45.11.88.25,1.27.42l-.48,1.12c-.36-.15-.74-.28-1.14-.38s-.8-.16-1.22-.16c-.58,0-1.02.09-1.32.28-.3.19-.46.44-.46.76,0,.25.07.45.21.61.14.16.37.32.7.48.33.16.76.34,1.3.54.54.2,1.01.41,1.39.62.38.21.68.47.88.78.2.3.3.69.3,1.14Z"/>
    <path class="st7" d="M62.23,541.63h-2.16v7.49h-1.41v-7.49h-1.5v-.66l1.5-.48v-.5c0-1.11.24-1.91.73-2.39.48-.49,1.17-.73,2.06-.73.33,0,.64.03.93.09.29.06.53.13.74.2l-.37,1.1c-.17-.05-.37-.11-.59-.16s-.45-.08-.69-.08c-.47,0-.82.16-1.05.47-.23.32-.34.81-.34,1.48v.56h2.16v1.09Z"/>
    <path class="st7" d="M67.25,540.4c1.05,0,1.82.23,2.32.69.5.46.75,1.19.75,2.19v5.84h-1.02l-.27-1.22h-.06c-.37.47-.77.82-1.18,1.04-.42.22-.98.34-1.7.34-.78,0-1.42-.21-1.94-.62-.51-.41-.77-1.05-.77-1.93s.34-1.51,1.01-1.98c.67-.46,1.71-.72,3.1-.76l1.46-.05v-.51c0-.71-.15-1.21-.46-1.49s-.75-.42-1.31-.42c-.45,0-.87.07-1.28.2-.41.13-.78.29-1.14.46l-.43-1.06c.37-.2.82-.38,1.33-.52.51-.14,1.05-.22,1.6-.22ZM68.93,544.93l-1.26.05c-1.07.04-1.81.21-2.22.51-.41.3-.62.72-.62,1.26,0,.48.15.83.44,1.06.29.22.67.34,1.13.34.71,0,1.31-.2,1.8-.6.49-.4.73-1.02.73-1.85v-.77Z"/>
    <path class="st7" d="M74.63,549.12h-1.41v-12.16h1.41v12.16Z"/>
    <path class="st7" d="M78.98,549.12h-1.41v-12.16h1.41v12.16Z"/>
  </g>
  <g>
    <path class="st7" d="M331.99,300.22h3.26c1.42,0,2.5.21,3.23.64s1.1,1.16,1.1,2.19c0,.67-.19,1.23-.56,1.67s-.91.73-1.62.86v.08c.48.09.92.23,1.3.43.39.2.7.49.92.86.22.37.34.85.34,1.44,0,1.04-.35,1.83-1.06,2.4-.71.57-1.68.85-2.9.85h-4.02v-11.42ZM333.43,305.09h2.11c.97,0,1.64-.16,2.01-.47.37-.31.55-.78.55-1.4s-.22-1.08-.66-1.35c-.44-.27-1.15-.41-2.12-.41h-1.89v3.63ZM333.43,306.29v4.14h2.3c1.01,0,1.72-.2,2.11-.59s.59-.91.59-1.55c0-.6-.21-1.08-.62-1.45-.41-.37-1.14-.55-2.2-.55h-2.19Z"/>
    <path class="st7" d="M349.88,307.34c0,1.42-.36,2.52-1.08,3.3-.72.78-1.69,1.17-2.92,1.17-.76,0-1.43-.17-2.02-.52-.59-.35-1.06-.85-1.4-1.52-.34-.67-.51-1.47-.51-2.42,0-1.42.35-2.51,1.06-3.28.71-.77,1.68-1.15,2.92-1.15.77,0,1.45.17,2.05.52.6.35,1.06.85,1.4,1.5.34.66.5,1.46.5,2.41ZM343.4,307.34c0,1.01.2,1.82.6,2.41.4.59,1.04.89,1.91.89s1.5-.3,1.9-.89c.41-.59.61-1.39.61-2.41s-.2-1.81-.61-2.38c-.41-.58-1.05-.86-1.92-.86s-1.51.29-1.9.86c-.39.58-.59,1.37-.59,2.38Z"/>
    <path class="st7" d="M356.45,302.91c1.02,0,1.8.25,2.32.75.52.5.78,1.3.78,2.4v5.58h-1.39v-5.49c0-1.38-.64-2.06-1.92-2.06-.95,0-1.61.27-1.97.8-.36.53-.54,1.3-.54,2.3v4.45h-1.41v-8.58h1.14l.21,1.17h.08c.28-.45.66-.78,1.15-1,.49-.22,1.01-.33,1.55-.33Z"/>
    <path class="st7" d="M365.48,311.81c-1.07,0-1.92-.37-2.56-1.11-.64-.74-.96-1.85-.96-3.32s.32-2.58.97-3.34,1.5-1.13,2.57-1.13c.66,0,1.2.12,1.62.37.42.25.77.54,1.03.9h.1c-.02-.14-.04-.34-.06-.62-.02-.27-.03-.49-.03-.65v-3.42h1.41v12.16h-1.14l-.21-1.15h-.06c-.26.36-.6.67-1.02.93-.43.26-.98.38-1.65.38ZM365.7,310.64c.91,0,1.54-.25,1.91-.74s.55-1.25.55-2.25v-.26c0-1.07-.18-1.89-.53-2.46-.35-.57-1-.86-1.95-.86-.76,0-1.33.3-1.7.9-.38.6-.57,1.41-.57,2.42s.19,1.82.57,2.38c.38.57.95.85,1.72.85Z"/>
  </g>
  <g>
    <path class="st7" d="M336.07,322.91c1.06,0,1.91.37,2.55,1.1.65.74.97,1.85.97,3.33s-.32,2.57-.97,3.33c-.65.76-1.5,1.14-2.57,1.14-.66,0-1.21-.12-1.64-.37-.43-.25-.77-.54-1.02-.88h-.1c.01.18.03.41.06.69.03.28.04.52.04.72v3.52h-1.41v-12.42h1.15l.19,1.17h.06c.26-.37.59-.69,1.01-.94.42-.26.97-.38,1.66-.38ZM335.81,324.1c-.87,0-1.49.25-1.86.74-.36.49-.55,1.24-.56,2.24v.27c0,1.06.17,1.87.52,2.44.35.57.99.86,1.93.86.51,0,.94-.14,1.28-.42.34-.28.59-.67.76-1.18.17-.5.25-1.07.25-1.71,0-.98-.19-1.76-.57-2.35-.38-.59-.96-.88-1.75-.88Z"/>
    <path class="st7" d="M346.07,322.91c.16,0,.33,0,.51.02s.35.04.5.07l-.18,1.3c-.14-.03-.29-.06-.46-.08-.17-.02-.33-.03-.46-.03-.44,0-.85.12-1.23.36-.38.24-.69.58-.92,1.01-.23.43-.34.94-.34,1.51v4.58h-1.41v-8.58h1.15l.16,1.57h.06c.27-.47.62-.88,1.06-1.22.44-.34.96-.51,1.56-.51Z"/>
    <path class="st7" d="M349.62,319.86c.21,0,.4.07.57.22.17.14.25.37.25.68s-.08.54-.25.68c-.17.14-.36.22-.57.22-.23,0-.43-.07-.59-.22-.16-.14-.24-.37-.24-.68s.08-.54.24-.68c.16-.14.36-.22.59-.22ZM350.31,323.07v8.58h-1.41v-8.58h1.41Z"/>
    <path class="st7" d="M356.69,331.81c-.77,0-1.45-.16-2.03-.46-.59-.31-1.05-.79-1.38-1.44-.34-.65-.5-1.48-.5-2.5s.17-1.91.52-2.58c.35-.66.82-1.15,1.43-1.46.61-.31,1.3-.46,2.06-.46.43,0,.84.05,1.26.14.41.09.74.2,1,.33l-.43,1.17c-.26-.1-.55-.19-.9-.27-.34-.08-.66-.13-.96-.13-1.69,0-2.53,1.08-2.53,3.25,0,1.03.21,1.83.62,2.38.41.55,1.02.82,1.83.82.46,0,.87-.05,1.23-.14.36-.1.69-.21.99-.35v1.25c-.29.15-.61.26-.95.34s-.77.12-1.26.12Z"/>
    <path class="st7" d="M364.47,322.91c.73,0,1.35.16,1.89.48s.94.77,1.22,1.35c.28.58.42,1.26.42,2.04v.85h-5.87c.02.97.27,1.71.74,2.22s1.14.76,1.99.76c.54,0,1.03-.05,1.45-.15.42-.1.86-.25,1.3-.44v1.23c-.44.19-.87.33-1.3.42-.43.09-.93.14-1.52.14-.82,0-1.54-.17-2.16-.5-.62-.33-1.1-.82-1.45-1.47-.35-.65-.52-1.46-.52-2.42s.16-1.74.47-2.42.76-1.19,1.33-1.55c.57-.36,1.23-.54,1.99-.54ZM364.45,324.06c-.67,0-1.2.22-1.59.65-.39.43-.62,1.03-.7,1.8h4.37c-.01-.73-.18-1.31-.51-1.77-.33-.45-.85-.68-1.57-.68Z"/>
    <path class="st7" d="M376,329.28c0,.83-.31,1.46-.93,1.89-.62.43-1.45.64-2.5.64-.6,0-1.11-.05-1.54-.14-.43-.1-.81-.23-1.14-.4v-1.28c.34.17.75.33,1.24.47.49.14.98.22,1.48.22.71,0,1.23-.12,1.55-.34.32-.23.48-.54.48-.92,0-.21-.06-.41-.18-.58-.12-.17-.33-.34-.63-.51-.3-.17-.74-.36-1.3-.58-.55-.21-1.03-.43-1.42-.64-.39-.21-.7-.47-.91-.77-.21-.3-.32-.68-.32-1.15,0-.73.3-1.29.89-1.68s1.37-.59,2.33-.59c.52,0,1.01.05,1.46.16s.88.25,1.27.42l-.48,1.12c-.36-.15-.74-.28-1.14-.38-.4-.11-.8-.16-1.22-.16-.58,0-1.02.09-1.32.28-.3.19-.46.44-.46.76,0,.25.07.45.21.61.14.16.37.32.7.48.33.16.76.34,1.3.54.54.2,1.01.41,1.39.62.38.21.68.47.88.78.2.3.3.69.3,1.14Z"/>
  </g>
  <g>
    <path class="st7" d="M335.99,342.91c.16,0,.33,0,.51.02s.35.04.5.07l-.18,1.3c-.14-.03-.29-.06-.46-.08-.17-.02-.33-.03-.46-.03-.44,0-.85.12-1.23.36-.38.24-.69.58-.92,1.01-.23.43-.34.94-.34,1.51v4.58h-1.41v-8.58h1.15l.16,1.57h.06c.27-.47.62-.88,1.06-1.22.44-.34.96-.51,1.56-.51Z"/>
    <path class="st7" d="M339.54,339.86c.21,0,.4.07.57.22.17.14.25.37.25.68s-.08.54-.25.68c-.17.14-.36.22-.57.22-.23,0-.43-.07-.59-.22-.16-.14-.24-.37-.24-.68s.08-.54.24-.68c.16-.14.36-.22.59-.22ZM340.23,343.07v8.58h-1.41v-8.58h1.41Z"/>
    <path class="st7" d="M348.76,349.28c0,.83-.31,1.46-.93,1.89-.62.43-1.45.64-2.5.64-.6,0-1.11-.05-1.54-.14-.43-.1-.81-.23-1.14-.4v-1.28c.34.17.75.33,1.24.47.49.14.98.22,1.48.22.71,0,1.23-.12,1.55-.34.32-.23.48-.54.48-.92,0-.21-.06-.41-.18-.58-.12-.17-.33-.34-.63-.51-.3-.17-.74-.36-1.3-.58-.55-.21-1.03-.43-1.42-.64-.39-.21-.7-.47-.91-.77-.21-.3-.32-.68-.32-1.15,0-.73.3-1.29.89-1.68s1.37-.59,2.33-.59c.52,0,1.01.05,1.46.16s.88.25,1.27.42l-.48,1.12c-.36-.15-.74-.28-1.14-.38-.4-.11-.8-.16-1.22-.16-.58,0-1.02.09-1.32.28-.3.19-.46.44-.46.76,0,.25.07.45.21.61.14.16.37.32.7.48.33.16.76.34,1.3.54.54.2,1.01.41,1.39.62.38.21.68.47.88.78.2.3.3.69.3,1.14Z"/>
    <path class="st7" d="M354.39,342.91c.73,0,1.35.16,1.89.48s.94.77,1.22,1.35c.28.58.42,1.26.42,2.04v.85h-5.87c.02.97.27,1.71.74,2.22s1.14.76,1.99.76c.54,0,1.03-.05,1.45-.15.42-.1.86-.25,1.3-.44v1.23c-.44.19-.87.33-1.3.42-.43.09-.93.14-1.52.14-.82,0-1.54-.17-2.16-.5-.62-.33-1.1-.82-1.45-1.47-.35-.65-.52-1.46-.52-2.42s.16-1.74.47-2.42.76-1.19,1.33-1.55c.57-.36,1.23-.54,1.99-.54ZM354.37,344.06c-.67,0-1.2.22-1.59.65-.39.43-.62,1.03-.7,1.8h4.37c-.01-.73-.18-1.31-.51-1.77-.33-.45-.85-.68-1.57-.68Z"/>
  </g>
  <g>
    <path class="st7" d="M331.99,197.49h3.26c1.42,0,2.5.21,3.23.64.74.43,1.1,1.16,1.1,2.19,0,.67-.19,1.23-.56,1.67-.37.44-.91.73-1.62.86v.08c.48.09.92.23,1.3.43.39.2.7.49.92.86.22.37.34.85.34,1.44,0,1.03-.35,1.83-1.06,2.4-.71.57-1.68.85-2.9.85h-4.02v-11.42ZM333.43,202.35h2.11c.97,0,1.64-.16,2.01-.47.37-.31.55-.78.55-1.4s-.22-1.08-.66-1.35-1.15-.41-2.12-.41h-1.89v3.63ZM333.43,203.55v4.14h2.3c1.01,0,1.72-.2,2.11-.59.39-.39.59-.91.59-1.55,0-.6-.21-1.08-.62-1.45-.41-.37-1.14-.55-2.2-.55h-2.19Z"/>
    <path class="st7" d="M349.88,204.61c0,1.42-.36,2.52-1.08,3.3-.72.78-1.69,1.17-2.92,1.17-.76,0-1.43-.17-2.02-.52s-1.06-.85-1.4-1.52c-.34-.67-.51-1.47-.51-2.42,0-1.42.35-2.51,1.06-3.28.71-.77,1.68-1.15,2.92-1.15.77,0,1.45.17,2.05.52.6.35,1.06.85,1.4,1.5.34.66.5,1.46.5,2.41ZM343.4,204.61c0,1.01.2,1.82.6,2.41.4.59,1.04.89,1.91.89s1.5-.3,1.9-.89.61-1.39.61-2.41-.2-1.81-.61-2.38-1.05-.86-1.92-.86-1.51.29-1.9.86-.59,1.37-.59,2.38Z"/>
    <path class="st7" d="M356.45,200.18c1.02,0,1.8.25,2.32.75s.78,1.3.78,2.4v5.58h-1.39v-5.49c0-1.38-.64-2.06-1.92-2.06-.95,0-1.61.27-1.97.8-.36.53-.54,1.3-.54,2.3v4.45h-1.41v-8.58h1.14l.21,1.17h.08c.28-.45.66-.78,1.15-1,.49-.22,1.01-.33,1.55-.33Z"/>
    <path class="st7" d="M365.48,209.07c-1.07,0-1.92-.37-2.56-1.11-.64-.74-.96-1.85-.96-3.32s.32-2.58.97-3.34,1.5-1.13,2.57-1.13c.66,0,1.2.12,1.62.37.42.25.77.54,1.03.9h.1c-.02-.14-.04-.34-.06-.62s-.03-.49-.03-.65v-3.42h1.41v12.16h-1.14l-.21-1.15h-.06c-.26.36-.6.67-1.02.93-.43.26-.98.38-1.65.38ZM365.7,207.9c.91,0,1.54-.25,1.91-.74s.55-1.25.55-2.25v-.26c0-1.07-.18-1.89-.53-2.46-.35-.57-1-.86-1.95-.86-.76,0-1.33.3-1.7.9-.38.6-.57,1.41-.57,2.42s.19,1.82.57,2.38c.38.57.95.85,1.72.85Z"/>
  </g>
  <g>
    <path class="st7" d="M336.07,220.18c1.06,0,1.91.37,2.55,1.1.65.74.97,1.85.97,3.33s-.32,2.57-.97,3.33c-.65.76-1.5,1.14-2.57,1.14-.66,0-1.21-.12-1.64-.37-.43-.25-.77-.54-1.02-.88h-.1c.01.18.03.41.06.69.03.28.04.52.04.72v3.52h-1.41v-12.42h1.15l.19,1.17h.06c.26-.37.59-.69,1.01-.94s.97-.38,1.66-.38ZM335.81,221.36c-.87,0-1.49.25-1.86.74-.36.49-.55,1.24-.56,2.24v.27c0,1.06.17,1.87.52,2.44.35.57.99.86,1.93.86.51,0,.94-.14,1.28-.42.34-.28.59-.67.76-1.18s.25-1.07.25-1.71c0-.98-.19-1.77-.57-2.35-.38-.59-.96-.88-1.75-.88Z"/>
    <path class="st7" d="M346.07,220.18c.16,0,.33,0,.51.02s.35.04.5.07l-.18,1.3c-.14-.03-.29-.06-.46-.08-.17-.02-.33-.03-.46-.03-.44,0-.85.12-1.23.36-.38.24-.69.58-.92,1.01-.23.43-.34.94-.34,1.51v4.58h-1.41v-8.58h1.15l.16,1.57h.06c.27-.47.62-.87,1.06-1.22.44-.34.96-.51,1.56-.51Z"/>
    <path class="st7" d="M349.62,217.12c.21,0,.4.07.57.22.17.14.25.37.25.68s-.08.54-.25.68c-.17.14-.36.22-.57.22-.23,0-.43-.07-.59-.22s-.24-.37-.24-.68.08-.54.24-.68.36-.22.59-.22ZM350.31,220.34v8.58h-1.41v-8.58h1.41Z"/>
    <path class="st7" d="M356.69,229.07c-.77,0-1.45-.15-2.03-.46-.59-.31-1.05-.79-1.38-1.44-.34-.65-.5-1.48-.5-2.5s.17-1.91.52-2.58c.35-.66.82-1.15,1.43-1.46.61-.31,1.3-.46,2.06-.46.43,0,.84.05,1.26.14.41.09.74.2,1,.33l-.43,1.17c-.26-.1-.55-.19-.9-.27-.34-.09-.66-.13-.96-.13-1.69,0-2.53,1.08-2.53,3.25,0,1.03.21,1.83.62,2.38.41.55,1.02.82,1.83.82.46,0,.87-.05,1.23-.14.36-.1.69-.21.99-.35v1.25c-.29.15-.61.26-.95.34s-.77.12-1.26.12Z"/>
    <path class="st7" d="M364.47,220.18c.73,0,1.35.16,1.89.48.53.32.94.77,1.22,1.35.28.58.42,1.26.42,2.04v.85h-5.87c.02.97.27,1.71.74,2.22.47.51,1.14.76,1.99.76.54,0,1.03-.05,1.45-.15.42-.1.86-.25,1.3-.44v1.23c-.44.19-.87.33-1.3.42-.43.09-.93.14-1.52.14-.82,0-1.54-.17-2.16-.5-.62-.33-1.1-.82-1.45-1.47-.35-.65-.52-1.46-.52-2.42s.16-1.74.47-2.42c.31-.67.76-1.19,1.33-1.55.57-.36,1.23-.54,1.99-.54ZM364.45,221.33c-.67,0-1.2.22-1.59.65-.39.43-.62,1.03-.7,1.8h4.37c-.01-.73-.18-1.31-.51-1.77-.33-.45-.85-.68-1.57-.68Z"/>
    <path class="st7" d="M376,226.54c0,.83-.31,1.46-.93,1.89-.62.43-1.45.64-2.5.64-.6,0-1.11-.05-1.54-.14-.43-.1-.81-.23-1.14-.4v-1.28c.34.17.75.33,1.24.47s.98.22,1.48.22c.71,0,1.23-.11,1.55-.34.32-.23.48-.54.48-.92,0-.21-.06-.4-.18-.58-.12-.17-.33-.34-.63-.51-.3-.17-.74-.36-1.3-.58-.55-.21-1.03-.43-1.42-.64s-.7-.47-.91-.77c-.21-.3-.32-.68-.32-1.15,0-.73.3-1.29.89-1.68.59-.39,1.37-.59,2.33-.59.52,0,1.01.05,1.46.16.45.11.88.25,1.27.42l-.48,1.12c-.36-.15-.74-.28-1.14-.38-.4-.11-.8-.16-1.22-.16-.58,0-1.02.09-1.32.28-.3.19-.46.44-.46.76,0,.25.07.45.21.61s.37.32.7.48c.33.16.76.34,1.3.54.54.2,1.01.41,1.39.62s.68.47.88.78c.2.3.3.69.3,1.14Z"/>
  </g>
  <g>
    <path class="st7" d="M337.06,241.42h-2.16v7.49h-1.41v-7.49h-1.5v-.66l1.5-.48v-.5c0-1.11.24-1.91.73-2.39.49-.48,1.17-.73,2.06-.73.33,0,.64.03.93.09s.53.13.74.2l-.37,1.1c-.17-.05-.37-.11-.59-.16-.22-.05-.45-.08-.69-.08-.47,0-.82.16-1.05.47-.23.31-.34.81-.34,1.48v.56h2.16v1.09Z"/>
    <path class="st7" d="M342.08,240.19c1.04,0,1.82.23,2.32.69.5.46.75,1.19.75,2.19v5.84h-1.02l-.27-1.22h-.06c-.37.47-.77.82-1.18,1.04-.42.22-.98.34-1.7.34-.78,0-1.42-.21-1.94-.62s-.77-1.05-.77-1.93.34-1.51,1.01-1.98c.67-.46,1.71-.72,3.1-.76l1.46-.05v-.51c0-.71-.15-1.21-.46-1.49s-.75-.42-1.31-.42c-.45,0-.88.07-1.28.2s-.78.29-1.14.46l-.43-1.06c.37-.2.82-.38,1.33-.52s1.05-.22,1.6-.22ZM343.76,244.72l-1.26.05c-1.07.04-1.81.21-2.22.51-.41.3-.62.72-.62,1.26,0,.48.15.83.44,1.06s.67.34,1.13.34c.71,0,1.31-.2,1.8-.6.49-.4.73-1.02.73-1.85v-.77Z"/>
    <path class="st7" d="M349.46,248.91h-1.41v-12.16h1.41v12.16Z"/>
    <path class="st7" d="M353.81,248.91h-1.41v-12.16h1.41v12.16Z"/>
  </g>
  <g>
    <path class="st1" d="M21.48,108.02L0,113.94l47.18-61.88,42.41,66.48-21.36-9.44s6.75,66.16,77.72,80.43c0,0-98.92,29.29-124.47-81.51"/>
    <path class="st1" d="M302.88,192.93l21.07-5.62-46.77,61.58-42.41-66.48,21.36,9.44s-6.75-66.16-77.72-80.43c0,0,98.92-29.29,124.47,81.51"/>
    <path class="st5" d="M209.6,122.77c-8.69-4.92-18.99-8.9-31.18-11.35-24.5,5.63-30.29,28.21-33.84,35.44-6.1,12.44-16.33,25.46-29.82,31.32,8.69,4.92,18.99,8.9,31.18,11.35,24.5-5.63,33.18-30.91,35.61-37.29,4.69-13.75,14.56-23.62,28.05-29.48"/>
    <path class="st1" d="M21.48,441.09l-21.48-6.05,47.18,62.01,42.41-66.48-21.36,9.44s6.75-66.16,77.72-80.43c0,0-98.92-29.29-124.47,81.51"/>
    <path class="st1" d="M302.88,356.18l21.07,5.62-46.77-61.58-42.41,66.48,21.36-9.44s-6.75,66.16-77.72,80.43c0,0,98.92,29.29,124.47-81.51"/>
    <path class="st5" d="M209.6,426.34c-8.69,4.92-18.99,8.9-31.18,11.35-24.5-5.63-30.29-28.21-33.84-35.44-6.1-12.44-16.33-25.46-29.82-31.32,8.69-4.92,18.99-8.9,31.18-11.35,24.5,5.63,33.18,30.91,35.61,37.29,4.69,13.75,14.56,23.62,28.05,29.48"/>
  </g>
</svg>