<?xml version="1.0" encoding="utf-8"?>
<!-- Generator: Adobe Illustrator 17.1.0, SVG Export Plug-In . SVG Version: 6.00 Build 0)  -->
<!DOCTYPE svg PUBLIC "-//W3C//DTD SVG 1.1//EN" "http://www.w3.org/Graphics/SVG/1.1/DTD/svg11.dtd">
<svg version="1.1" id="Layer_1" xmlns="http://www.w3.org/2000/svg" xmlns:xlink="http://www.w3.org/1999/xlink" x="0px" y="0px" width="22px" height="22px"
	 viewBox="0 0 22 22" enable-background="new 0 0 22 22" xml:space="preserve">
<path fill="#a7a8a8" d="M20.1,2.9H1.9C0.9,2.9,0,3.8,0,4.9v11.7v0.3l0,0c0.2,0.9,0.9,1.6,1.9,1.6h9.4h2.7h6c0.9,0,1.7-0.7,1.9-1.6
	l0,0v-0.3V4.9C22,3.8,21.1,2.9,20.1,2.9z M20,4.7l-9,7l-9-7H20z M1.7,6.7l9.3,7.2l0,0l0,0l9.3-7.2v9.8c0,0.1,0,0.1-0.1,0.2l-7.7,0
	l-10.6,0c-0.1,0-0.1-0.1-0.1-0.2V6.7z"/>
</svg>
