<svg xmlns="http://www.w3.org/2000/svg" xmlns:xlink="http://www.w3.org/1999/xlink" viewBox="0 0 88.48 87.97"><defs><style>.cls-1{fill:none;}.cls-2{clip-path:url(#clip-path);}.cls-3{fill:#8f8f8f;}</style><clipPath id="clip-path"><rect class="cls-1" width="88.48" height="87.97"/></clipPath></defs><title>FB_G2</title><g id="Layer_2" data-name="Layer 2"><g id="Layer_1-2" data-name="Layer 1"><g id="Layer_2-2" data-name="Layer 2"><g id="Layer_1-2-2" data-name="Layer 1-2"><g class="cls-2"><path class="cls-3" d="M83.6,0H4.85A4.87,4.87,0,0,0,0,4.86V83.14A4.86,4.86,0,0,0,4.88,88H47.27V54H35.77V40.59h11.5V30.84c0-11.36,7-17.59,17.18-17.59a90.87,90.87,0,0,1,10.3.53V25.69H67.66c-5.52,0-6.6,2.64-6.6,6.46v8.44H74.33L72.56,54H61.05V88H83.6a4.86,4.86,0,0,0,4.88-4.86h0V4.82A4.86,4.86,0,0,0,83.6,0"/></g></g></g></g></g></svg>