<?xml version="1.0" encoding="utf-8"?>
<!-- Generator: Adobe Illustrator 17.1.0, SVG Export Plug-In . SVG Version: 6.00 Build 0)  -->
<!DOCTYPE svg PUBLIC "-//W3C//DTD SVG 1.1//EN" "http://www.w3.org/Graphics/SVG/1.1/DTD/svg11.dtd">
<svg version="1.1" id="Layer_1" xmlns="http://www.w3.org/2000/svg" xmlns:xlink="http://www.w3.org/1999/xlink" x="0px" y="0px" width="44px" height="44px"
	 viewBox="0 0 44 44" enable-background="new 0 0 44 44" xml:space="preserve">
<g id="Layer_1_2_">
	<g id="Layer_1_1_">
		<circle fill="#14B09C" stroke="#14B09C" stroke-width="2" stroke-miterlimit="10" cx="22" cy="22" r="21"/>
	</g>
	<g id="Layer_2">
	</g>
</g>
<path fill="#FFFFFF" d="M16.4,21.9c0.5,0.5,1.2,0.5,1.7,0l2.7-2.7v8.3c0,0.7,0.5,1.2,1.2,1.2s1.2-0.5,1.2-1.2v-8.3l2.7,2.7
	c0.5,0.5,1.2,0.5,1.7,0s0.5-1.2,0-1.7l-4.7-4.7c0,0,0,0,0,0c-0.1-0.1-0.1-0.1-0.2-0.2c0,0,0,0,0,0c-0.2-0.1-0.4-0.2-0.7-0.2
	c-0.2,0-0.5,0.1-0.6,0.2c0,0,0,0,0,0c-0.1,0-0.1,0.1-0.2,0.2c0,0,0,0,0,0l-4.7,4.7C15.9,20.7,15.9,21.5,16.4,21.9z"/>
</svg>
