<svg id="icon_alert" data-name="icon alert" xmlns="http://www.w3.org/2000/svg" width="29.997" height="26.567" viewBox="0 0 29.997 26.567">
  <g id="Path_18706" data-name="Path 18706" transform="translate(-0.5 -0.5)" fill="#fff" stroke-miterlimit="10">
    <path d="M 28.27383804321289 26.56738662719727 L 2.722497463226318 26.56738662719727 C 2.100857496261597 26.56738662719727 1.544157385826111 26.24598503112793 1.23333740234375 25.7076358795166 C 0.9225174188613892 25.16927528381348 0.9225174188613892 24.52644538879395 1.233347415924072 23.98806571960449 L 14.00891780853271 1.860005974769592 C 14.31975746154785 1.321655988693237 14.87647724151611 1.000245928764343 15.49814701080322 1.000245928764343 C 16.11980819702148 1.000245928764343 16.67647743225098 1.321645975112915 16.98726654052734 1.859985947608948 L 29.76294708251953 23.98806571960449 C 30.07375717163086 24.52647590637207 30.07373809814453 25.16934585571289 29.76287651062012 25.70772552490234 C 29.45207786560059 26.24601554870605 28.89542770385742 26.56738662719727 28.27383804321289 26.56738662719727 Z" stroke="none"/>
    <path d="M 15.49814701080322 1.500246047973633 C 15.28642749786377 1.500246047973633 14.75968742370605 1.559665679931641 14.44193649291992 2.110006332397461 L 1.666357040405273 24.23805618286133 C 1.348596572875977 24.7884464263916 1.560497283935547 25.2742862701416 1.666347503662109 25.45762634277344 C 1.772197723388672 25.64096641540527 2.086997985839844 26.06737518310547 2.72248649597168 26.06737518310547 L 28.27383804321289 26.06737518310547 C 28.90925788879395 26.06737518310547 29.22403717041016 25.64101600646973 29.32987785339355 25.45770645141602 C 29.43573760986328 25.27435684204102 29.64766693115234 24.78846549987793 29.32993698120117 24.23806571960449 L 16.55424880981445 2.109975814819336 C 16.23654747009277 1.559656143188477 15.70984745025635 1.500246047973633 15.49814701080322 1.500246047973633 M 15.49814987182617 0.5002460479736328 C 16.24567413330078 0.5002460479736328 16.99318313598633 0.8701667785644531 17.4202880859375 1.610006332397461 L 30.19595718383789 23.73806571960449 C 31.05016708374023 25.21779632568359 29.98243713378906 27.06737518310547 28.27383804321289 27.06737518310547 L 2.72248649597168 27.06737518310547 C 1.013887405395508 27.06737518310547 -0.05397224426269531 25.21779632568359 0.8003273010253906 23.73806571960449 L 13.57590675354004 1.610006332397461 C 14.00308227539062 0.8701667785644531 14.75062561035156 0.5002460479736328 15.49814987182617 0.5002460479736328 Z" stroke="none" fill="#49176d"/>
  </g>
  <path id="Path_18707" data-name="Path 18707" d="M306.518,420.576A1.477,1.477,0,1,0,308,422.053a1.477,1.477,0,0,0-1.477-1.477" transform="translate(-291.52 -401.925)" fill="#49176d"/>
  <path id="Path_18708" data-name="Path 18708" d="M306.518,187.243a1.477,1.477,0,0,0-1.467,1.3l-.01.172v5.909a1.477,1.477,0,0,0,2.944.172l.01-.172V188.72a1.477,1.477,0,0,0-1.477-1.477" transform="translate(-291.52 -178.946)" fill="#49176d"/>
</svg>
