<?xml version="1.0" encoding="utf-8"?>
<!-- Generator: Adobe Illustrator 17.1.0, SVG Export Plug-In . SVG Version: 6.00 Build 0)  -->
<!DOCTYPE svg PUBLIC "-//W3C//DTD SVG 1.1//EN" "http://www.w3.org/Graphics/SVG/1.1/DTD/svg11.dtd">
<svg version="1.1" xmlns="http://www.w3.org/2000/svg" xmlns:xlink="http://www.w3.org/1999/xlink" x="0px" y="0px"  width="44px" height="44px"
	 viewBox="0 0 44 44" enable-background="new 0 0 44 44" xml:space="preserve">
<g id="Layer_1">
	<g id="Layer_1_1_">
		<circle fill="#FFFFFF" stroke="#14B09C" stroke-width="2" stroke-miterlimit="10" cx="22" cy="22" r="21"/>
	</g>
	<g id="Layer_2">
	</g>
</g>
<g id="Layer_2_1_">
	<path fill="#A7A8A8" d="M24.8,25.4c-0.6,0-1.1,0.2-1.5,0.5l-3.4-2.7c0.1-0.3,0.2-0.6,0.2-0.9c0-0.3-0.1-0.7-0.2-1l3.4-2.7
		c0.4,0.3,1,0.5,1.5,0.5c1.5,0,2.6-1.2,2.6-2.6c0-1.5-1.2-2.6-2.6-2.6c-1.5,0-2.6,1.2-2.6,2.6c0,0.3,0,0.6,0.1,0.9L18.9,20
		c-0.4-0.3-0.9-0.4-1.5-0.4c-1.5,0-2.6,1.2-2.6,2.6s1.2,2.6,2.6,2.6c0.5,0,1.1-0.2,1.5-0.5l3.4,2.7c-0.1,0.3-0.2,0.6-0.2,0.9
		c0,1.5,1.2,2.6,2.6,2.6c1.5,0,2.6-1.2,2.6-2.6S26.3,25.4,24.8,25.4z"/>
</g>
</svg>
