<?xml version="1.0" encoding="UTF-8"?>
<svg id="Layer_1" data-name="Layer 1" xmlns="http://www.w3.org/2000/svg" viewBox="0 0 545 172">
  <defs>
    <style>
      .cls-1, .cls-2 {
        fill: none;
      }

      .cls-3, .cls-4, .cls-5, .cls-2, .cls-6, .cls-7, .cls-8 {
        stroke-miterlimit: 10;
      }

      .cls-3, .cls-4, .cls-5, .cls-6, .cls-7, .cls-8 {
        stroke: #fff;
      }

      .cls-3, .cls-9 {
        fill: #ee7003;
      }

      .cls-4, .cls-5, .cls-7, .cls-8 {
        fill-rule: evenodd;
      }

      .cls-4, .cls-10 {
        fill: #633169;
      }

      .cls-5, .cls-11 {
        fill: #006ba6;
      }

      .cls-2 {
        stroke: #d3d3d2;
        stroke-dasharray: 1.5 1;
        stroke-width: 2px;
      }

      .cls-12 {
        fill: #fff;
      }

      .cls-6, .cls-13 {
        fill: #22b7e9;
      }

      .cls-7, .cls-14 {
        fill: #fab600;
      }

      .cls-15, .cls-8 {
        fill: #12a639;
      }
    </style>
  </defs>
  <g>
    <path class="cls-3" d="M272.91,70.53L263.16,1.18c3.37-.47,6.35-.68,9.76-.68v70.03Z"/>
    <path class="cls-6" d="M272.91,70.53l-58.79-38.14c11.47-17.65,28.18-28.28,49.03-31.21l9.76,69.35Z"/>
    <path class="cls-7" d="M272.91,70.53l-66.66,21.64c-6.68-20.53-3.89-41.68,7.88-59.78l58.79,38.14Z"/>
    <path class="cls-4" d="M272.91,70.53l-25.12,65.38c-20.67-7.93-34.7-22.7-41.54-43.74l66.66-21.64Z"/>
    <path class="cls-8" d="M272.91,70.53l58.11,39.16c-18.57,27.51-52.22,38.11-83.23,26.22l25.12-65.38Z"/>
    <path class="cls-5" d="M272.91,70.53V.5c38.71,0,70.1,31.35,70.1,70.03,0,14.62-3.8,27.04-11.98,39.16l-58.11-39.16Z"/>
  </g>
  <path class="cls-12" d="M327.61,70.58c0,30.53-24.75,55.27-55.27,55.27s-55.28-24.75-55.28-55.27,24.75-55.28,55.28-55.28,55.27,24.75,55.27,55.28Z"/>
  <path class="cls-2" d="M322.08,70.58c0,27.47-22.27,49.75-49.75,49.75s-49.75-22.27-49.75-49.75,22.27-49.75,49.75-49.75,49.75,22.27,49.75,49.75Z"/>
  <g>
    <path class="cls-11" d="M87.76,152.27c0,.43-.08.83-.24,1.22-.16.38-.39.73-.7,1.04-.3.3-.65.53-1.03.69-.39.16-.79.24-1.22.24s-.84-.08-1.23-.24c-.39-.16-.73-.39-1.03-.69-.3-.31-.54-.65-.7-1.04-.16-.38-.24-.79-.24-1.22s.08-.83.24-1.22.39-.73.7-1.04c.3-.3.65-.53,1.03-.69.39-.16.79-.24,1.22-.24s.83.08,1.22.24c.38.16.73.39,1.04.7.3.31.54.65.7,1.04s.24.79.24,1.22Z"/>
    <g>
      <path d="M91.11,155.13h-.46v-5.71h3.14v.42h-2.67v2.35h2.53v.42h-2.53v2.53Z"/>
      <path d="M94.91,149.3c.21,0,.32.12.32.34s-.11.35-.32.35-.3-.12-.3-.35.1-.34.3-.34ZM95.13,150.88v4.26h-.45v-4.26h.45Z"/>
      <path d="M98.54,150.8c.49,0,.86.12,1.11.38.26.25.38.64.38,1.18v2.78h-.46v-2.75c0-.41-.09-.7-.28-.9-.18-.19-.45-.29-.81-.29-.94,0-1.41.54-1.41,1.62v2.32h-.45v-4.26h.37l.06.74h.03c.11-.24.29-.43.53-.58.24-.16.54-.23.91-.23Z"/>
      <path d="M102.99,150.8c.48,0,.84.12,1.07.35.23.23.35.6.35,1.11v2.86h-.34l-.09-.72h-.02c-.15.24-.34.43-.56.58-.22.15-.53.22-.93.22s-.73-.1-.96-.3c-.24-.2-.36-.5-.36-.89,0-.42.17-.74.52-.97.34-.22.85-.35,1.52-.38l.78-.04v-.3c0-.42-.08-.72-.25-.89-.17-.17-.42-.26-.74-.26-.22,0-.43.03-.63.08-.2.06-.41.14-.61.24l-.14-.37c.2-.1.42-.18.66-.25.24-.06.49-.1.74-.1ZM103.97,152.99l-.72.03c-.54.02-.95.11-1.22.28s-.4.41-.4.73c0,.26.08.46.25.6.17.14.39.2.68.2.44,0,.79-.13,1.03-.38.24-.25.37-.6.38-1.06v-.41Z"/>
      <path d="M107.77,150.8c.49,0,.86.12,1.11.38.26.25.38.64.38,1.18v2.78h-.46v-2.75c0-.41-.09-.7-.28-.9-.18-.19-.45-.29-.81-.29-.94,0-1.41.54-1.41,1.62v2.32h-.45v-4.26h.37l.06.74h.03c.11-.24.29-.43.53-.58.24-.16.54-.23.91-.23Z"/>
      <path d="M112.42,155.21c-.62,0-1.11-.19-1.44-.57-.34-.38-.51-.92-.51-1.61,0-.48.08-.88.26-1.21.17-.33.41-.59.72-.76.31-.17.66-.26,1.07-.26.21,0,.4.02.58.06.18.04.34.09.48.15l-.13.4c-.3-.13-.61-.2-.93-.2-.5,0-.89.16-1.16.49-.27.33-.41.77-.41,1.33s.12.97.36,1.3c.24.33.61.5,1.11.5.21,0,.41-.02.6-.06s.35-.1.5-.17v.41c-.14.07-.3.12-.48.16-.18.04-.39.06-.62.06Z"/>
      <path d="M114.84,149.3c.21,0,.32.12.32.34s-.11.35-.32.35-.3-.12-.3-.35.1-.34.3-.34ZM115.06,150.88v4.26h-.45v-4.26h.45Z"/>
      <path d="M118.06,150.8c.48,0,.84.12,1.07.35.23.23.35.6.35,1.11v2.86h-.34l-.09-.72h-.02c-.15.24-.34.43-.56.58-.22.15-.53.22-.93.22s-.73-.1-.96-.3c-.24-.2-.36-.5-.36-.89,0-.42.17-.74.52-.97.34-.22.85-.35,1.52-.38l.78-.04v-.3c0-.42-.08-.72-.25-.89-.17-.17-.42-.26-.74-.26-.22,0-.43.03-.63.08-.2.06-.41.14-.61.24l-.14-.37c.2-.1.42-.18.66-.25.24-.06.49-.1.74-.1ZM119.04,152.99l-.72.03c-.54.02-.95.11-1.22.28s-.4.41-.4.73c0,.26.08.46.25.6.17.14.39.2.68.2.44,0,.79-.13,1.03-.38.24-.25.37-.6.38-1.06v-.41Z"/>
      <path d="M121.39,155.13h-.46v-6.08h.46v6.08Z"/>
      <path d="M128.31,153.64c0,.34-.08.63-.26.86-.17.23-.41.41-.7.53-.3.12-.64.18-1.02.18-.34,0-.64-.02-.9-.07-.26-.05-.47-.11-.66-.18v-.46c.2.08.44.15.71.21.27.06.56.09.88.09.44,0,.79-.09,1.07-.28.27-.19.41-.47.41-.84,0-.22-.05-.41-.16-.56s-.26-.28-.48-.38c-.22-.11-.49-.22-.83-.33-.32-.11-.6-.23-.82-.36-.23-.13-.41-.3-.53-.5-.12-.2-.18-.45-.18-.76s.08-.58.24-.79c.16-.21.37-.38.65-.49.27-.11.59-.17.94-.17.28,0,.54.03.79.08.25.05.49.13.71.22l-.16.4c-.45-.19-.9-.29-1.36-.29-.4,0-.72.09-.96.26-.25.17-.37.43-.37.76,0,.25.05.44.16.59.11.15.26.27.46.37.2.1.45.2.74.3.34.12.63.24.87.37s.43.29.56.48c.13.19.2.44.2.74Z"/>
      <path d="M131.12,150.8c.36,0,.67.08.91.25s.43.4.55.69c.12.29.18.63.18,1.01v.32h-3.04c0,.56.13.99.39,1.29.26.3.64.45,1.13.45.27,0,.5-.02.7-.06s.41-.12.65-.22v.42c-.21.1-.42.17-.63.21-.21.04-.45.06-.73.06-.63,0-1.12-.19-1.46-.58s-.51-.92-.51-1.59c0-.43.07-.82.22-1.16.15-.34.36-.6.64-.8.28-.19.61-.29,1.01-.29ZM131.11,151.18c-.39,0-.71.13-.95.39-.24.26-.39.63-.43,1.11h2.55c0-.45-.09-.81-.28-1.09-.19-.28-.49-.42-.89-.42Z"/>
      <path d="M135.75,150.8c.22,0,.42.02.58.07l-.06.42c-.09-.02-.17-.04-.26-.05-.09-.01-.18-.02-.27-.02-.4,0-.71.14-.93.43-.23.29-.34.67-.34,1.14v2.34h-.46v-4.26h.38l.05.8h.02c.11-.24.27-.45.48-.62.22-.17.48-.26.8-.26Z"/>
      <path d="M138.17,155.13l-1.63-4.26h.48l1.06,2.82c.07.18.13.35.19.52.06.17.1.32.13.46h.03c.04-.13.08-.29.14-.46.06-.17.12-.35.18-.52l1.06-2.82h.49l-1.63,4.26h-.49Z"/>
      <path d="M141.31,149.3c.21,0,.32.12.32.34s-.11.35-.32.35-.3-.12-.3-.35.1-.34.3-.34ZM141.53,150.88v4.26h-.45v-4.26h.45Z"/>
      <path d="M144.73,155.21c-.62,0-1.11-.19-1.44-.57-.34-.38-.51-.92-.51-1.61,0-.48.08-.88.26-1.21.17-.33.41-.59.72-.76.31-.17.66-.26,1.07-.26.21,0,.4.02.58.06.18.04.34.09.48.15l-.13.4c-.3-.13-.61-.2-.93-.2-.5,0-.89.16-1.16.49-.27.33-.41.77-.41,1.33s.12.97.36,1.3c.24.33.61.5,1.11.5.21,0,.41-.02.6-.06s.35-.1.5-.17v.41c-.14.07-.3.12-.48.16-.18.04-.39.06-.62.06Z"/>
      <path d="M148.54,150.8c.36,0,.67.08.91.25s.43.4.55.69c.12.29.18.63.18,1.01v.32h-3.04c0,.56.13.99.39,1.29.26.3.64.45,1.13.45.27,0,.5-.02.7-.06s.41-.12.65-.22v.42c-.21.1-.42.17-.63.21-.21.04-.45.06-.73.06-.63,0-1.12-.19-1.46-.58s-.51-.92-.51-1.59c0-.43.07-.82.22-1.16.15-.34.36-.6.64-.8.28-.19.61-.29,1.01-.29ZM148.53,151.18c-.39,0-.71.13-.95.39-.24.26-.39.63-.43,1.11h2.55c0-.45-.09-.81-.28-1.09-.19-.28-.49-.42-.89-.42Z"/>
      <path d="M154.1,154c0,.39-.14.69-.43.9-.29.21-.69.31-1.22.31-.3,0-.56-.03-.79-.08s-.42-.12-.57-.19v-.44c.19.1.4.17.64.24.24.06.49.09.74.09.42,0,.72-.07.9-.21.19-.14.28-.33.28-.58s-.1-.42-.29-.54c-.19-.13-.49-.25-.88-.39-.26-.09-.49-.18-.69-.27-.2-.09-.36-.21-.47-.36-.11-.15-.17-.34-.17-.6,0-.34.14-.61.42-.8.28-.19.65-.29,1.11-.29.26,0,.49.03.72.08.22.05.42.11.6.19l-.16.38c-.17-.07-.35-.14-.56-.18s-.42-.07-.62-.07c-.34,0-.6.06-.78.18-.19.12-.28.29-.28.51,0,.17.05.3.14.4.09.1.22.18.39.26.17.07.38.15.62.24.25.09.48.18.68.27.21.1.37.22.49.37.12.15.18.35.18.6Z"/>
    </g>
  </g>
  <g>
    <path class="cls-10" d="M354.34,152.27c0,.43-.08.83-.24,1.22-.16.38-.39.73-.7,1.04-.3.3-.65.53-1.03.69-.39.16-.79.24-1.22.24s-.84-.08-1.23-.24c-.39-.16-.73-.39-1.03-.69-.3-.31-.54-.65-.7-1.04-.16-.38-.24-.79-.24-1.22s.08-.83.24-1.22.39-.73.7-1.04c.3-.3.65-.53,1.03-.69.39-.16.79-.24,1.22-.24s.83.08,1.22.24c.38.16.73.39,1.04.7.3.31.54.65.7,1.04s.24.79.24,1.22Z"/>
    <g>
      <path d="M359.52,155.13h-.46v-5.3h-1.84v-.42h4.14v.42h-1.84v5.3Z"/>
      <path d="M363.95,150.8c.22,0,.42.02.58.07l-.06.42c-.09-.02-.17-.04-.26-.05-.09-.01-.18-.02-.27-.02-.4,0-.71.14-.93.43-.23.29-.34.67-.34,1.14v2.34h-.46v-4.26h.38l.05.8h.02c.11-.24.27-.45.48-.62.22-.17.48-.26.8-.26Z"/>
      <path d="M366.95,150.8c.48,0,.84.12,1.07.35.23.23.35.6.35,1.11v2.86h-.34l-.09-.72h-.02c-.15.24-.34.43-.56.58-.22.15-.53.22-.93.22s-.73-.1-.96-.3c-.24-.2-.36-.5-.36-.89,0-.42.17-.74.52-.97.34-.22.85-.35,1.52-.38l.78-.04v-.3c0-.42-.08-.72-.25-.89-.17-.17-.42-.26-.74-.26-.22,0-.43.03-.63.08-.2.06-.41.14-.61.24l-.14-.37c.2-.1.42-.18.66-.25.24-.06.49-.1.74-.1ZM367.92,152.99l-.72.03c-.54.02-.95.11-1.22.28s-.4.41-.4.73c0,.26.08.46.25.6.17.14.39.2.68.2.44,0,.79-.13,1.03-.38.24-.25.37-.6.38-1.06v-.41Z"/>
      <path d="M371.72,150.8c.49,0,.86.12,1.11.38.26.25.38.64.38,1.18v2.78h-.46v-2.75c0-.41-.09-.7-.28-.9-.18-.19-.45-.29-.81-.29-.94,0-1.41.54-1.41,1.62v2.32h-.45v-4.26h.37l.06.74h.03c.11-.24.29-.43.53-.58.24-.16.54-.23.91-.23Z"/>
      <path d="M377.35,154c0,.39-.14.69-.43.9-.29.21-.69.31-1.22.31-.3,0-.56-.03-.79-.08s-.42-.12-.57-.19v-.44c.19.1.4.17.64.24.24.06.49.09.74.09.42,0,.72-.07.9-.21.19-.14.28-.33.28-.58s-.1-.42-.29-.54c-.19-.13-.49-.25-.88-.39-.26-.09-.49-.18-.69-.27-.2-.09-.36-.21-.47-.36-.11-.15-.17-.34-.17-.6,0-.34.14-.61.42-.8.28-.19.65-.29,1.11-.29.26,0,.49.03.72.08.22.05.42.11.6.19l-.16.38c-.17-.07-.35-.14-.56-.18s-.42-.07-.62-.07c-.34,0-.6.06-.78.18-.19.12-.28.29-.28.51,0,.17.05.3.14.4.09.1.22.18.39.26.17.07.38.15.62.24.25.09.48.18.68.27.21.1.37.22.49.37.12.15.18.35.18.6Z"/>
      <path d="M380.41,150.8c.54,0,.97.18,1.28.55s.46.91.46,1.64-.16,1.28-.48,1.66c-.32.38-.75.57-1.3.57-.38,0-.68-.08-.91-.24-.23-.16-.39-.35-.5-.58h-.03c0,.14.01.29.02.44s.01.3.01.44v1.74h-.46v-6.14h.38l.06.8h.02c.11-.23.28-.44.51-.62s.55-.26.94-.26ZM380.35,151.2c-.47,0-.82.15-1.04.44s-.34.72-.34,1.28v.08c0,.61.11,1.06.33,1.36.22.3.56.45,1.02.45s.77-.16,1.01-.49c.23-.33.35-.78.35-1.36s-.11-1.01-.33-1.32-.55-.46-1-.46Z"/>
      <path d="M386.95,153c0,.44-.07.83-.22,1.16-.15.33-.36.59-.65.77-.29.18-.63.28-1.04.28s-.73-.09-1.02-.27c-.28-.18-.5-.44-.65-.77s-.23-.72-.23-1.17c0-.69.17-1.23.52-1.62.34-.39.81-.58,1.41-.58.41,0,.75.09,1.03.28.28.18.49.44.64.77.14.33.22.72.22,1.16ZM383.61,153c0,.54.11.98.34,1.32.23.33.59.5,1.08.5s.86-.17,1.09-.5c.23-.33.35-.77.35-1.32,0-.35-.05-.66-.14-.94-.1-.27-.25-.48-.46-.64-.21-.15-.48-.23-.82-.23-.49,0-.85.16-1.09.48-.24.32-.36.76-.36,1.33Z"/>
      <path d="M389.94,150.8c.22,0,.42.02.58.07l-.06.42c-.09-.02-.17-.04-.26-.05-.09-.01-.18-.02-.27-.02-.4,0-.71.14-.93.43-.23.29-.34.67-.34,1.14v2.34h-.46v-4.26h.38l.05.8h.02c.11-.24.27-.45.48-.62.22-.17.48-.26.8-.26Z"/>
      <path d="M392.63,154.83c.12,0,.23,0,.34-.03.11-.02.2-.04.28-.07v.37c-.09.03-.19.06-.3.08-.11.02-.24.03-.38.03-.35,0-.62-.1-.82-.3s-.29-.52-.29-.96v-2.7h-.63v-.26l.63-.14.16-.98h.29v1.02h1.31v.37h-1.31v2.69c0,.6.24.9.72.9Z"/>
      <path d="M395.75,150.8c.48,0,.84.12,1.07.35.23.23.35.6.35,1.11v2.86h-.34l-.09-.72h-.02c-.15.24-.34.43-.56.58-.22.15-.53.22-.93.22s-.73-.1-.96-.3c-.24-.2-.36-.5-.36-.89,0-.42.17-.74.52-.97.34-.22.85-.35,1.52-.38l.78-.04v-.3c0-.42-.08-.72-.25-.89-.17-.17-.42-.26-.74-.26-.22,0-.43.03-.63.08-.2.06-.41.14-.61.24l-.14-.37c.2-.1.42-.18.66-.25.24-.06.49-.1.74-.1ZM396.72,152.99l-.72.03c-.54.02-.95.11-1.22.28s-.4.41-.4.73c0,.26.08.46.25.6.17.14.39.2.68.2.44,0,.79-.13,1.03-.38.24-.25.37-.6.38-1.06v-.41Z"/>
      <path d="M399.82,154.83c.12,0,.23,0,.34-.03.11-.02.2-.04.28-.07v.37c-.09.03-.19.06-.3.08-.11.02-.24.03-.38.03-.35,0-.62-.1-.82-.3s-.29-.52-.29-.96v-2.7h-.63v-.26l.63-.14.16-.98h.29v1.02h1.31v.37h-1.31v2.69c0,.6.24.9.72.9Z"/>
      <path d="M401.65,149.3c.21,0,.32.12.32.34s-.11.35-.32.35-.3-.12-.3-.35.1-.34.3-.34ZM401.87,150.88v4.26h-.45v-4.26h.45Z"/>
      <path d="M406.93,153c0,.44-.07.83-.22,1.16-.15.33-.36.59-.65.77-.29.18-.63.28-1.04.28s-.73-.09-1.02-.27c-.28-.18-.5-.44-.65-.77s-.23-.72-.23-1.17c0-.69.17-1.23.52-1.62.34-.39.81-.58,1.41-.58.41,0,.75.09,1.03.28.28.18.49.44.64.77.14.33.22.72.22,1.16ZM403.59,153c0,.54.11.98.34,1.32.23.33.59.5,1.08.5s.86-.17,1.09-.5c.23-.33.35-.77.35-1.32,0-.35-.05-.66-.14-.94-.1-.27-.25-.48-.46-.64-.21-.15-.48-.23-.82-.23-.49,0-.85.16-1.09.48-.24.32-.36.76-.36,1.33Z"/>
      <path d="M410.08,150.8c.49,0,.86.12,1.11.38.26.25.38.64.38,1.18v2.78h-.46v-2.75c0-.41-.09-.7-.28-.9-.18-.19-.45-.29-.81-.29-.94,0-1.41.54-1.41,1.62v2.32h-.45v-4.26h.37l.06.74h.03c.11-.24.29-.43.53-.58.24-.16.54-.23.91-.23Z"/>
      <path d="M416.93,149.33c.39,0,.71.11.95.32.24.21.36.5.36.88,0,.35-.12.64-.35.88-.23.23-.53.45-.9.64l1.74,1.73c.15-.18.28-.38.38-.62.11-.24.19-.49.26-.76h.46c-.16.67-.43,1.23-.82,1.68l1.06,1.06h-.61l-.75-.75c-.25.25-.52.45-.83.6-.31.16-.69.23-1.15.23-.53,0-.96-.13-1.29-.4-.33-.26-.49-.64-.49-1.14,0-.29.05-.53.16-.73.11-.2.26-.38.46-.53.2-.15.44-.3.72-.45-.22-.23-.41-.46-.55-.67-.14-.21-.22-.46-.22-.74,0-.37.12-.67.38-.89.25-.22.59-.33,1.02-.33ZM416.59,152.26c-.25.13-.46.25-.63.38-.17.13-.31.27-.4.43-.09.16-.14.36-.14.59,0,.36.12.64.36.84.24.2.56.3.95.3s.72-.07.98-.2c.26-.13.5-.3.71-.51l-1.84-1.83ZM416.91,149.72c-.28,0-.5.07-.67.22-.17.15-.26.35-.26.6,0,.22.06.42.18.6.12.18.3.39.52.62.36-.18.64-.37.82-.55.19-.19.28-.42.28-.69,0-.25-.08-.44-.24-.58-.16-.14-.37-.22-.64-.22Z"/>
      <path d="M424.57,155.13h-1.68v-.29l.61-.09v-4.95l-.61-.1v-.29h1.68v.29l-.61.1v4.95l.61.09v.29Z"/>
      <path d="M427.67,150.8c.49,0,.86.12,1.11.38.26.25.38.64.38,1.18v2.78h-.46v-2.75c0-.41-.09-.7-.28-.9-.18-.19-.45-.29-.81-.29-.94,0-1.41.54-1.41,1.62v2.32h-.45v-4.26h.37l.06.74h.03c.11-.24.29-.43.53-.58.24-.16.54-.23.91-.23Z"/>
      <path d="M432.15,155.21c-.57,0-1.01-.18-1.32-.55s-.46-.9-.46-1.61.16-1.3.48-1.68.77-.58,1.33-.58c.36,0,.65.08.87.23.22.15.39.35.5.58h.03c0-.13-.01-.27-.02-.42,0-.15-.01-.29-.01-.41v-1.73h.46v6.08h-.37l-.06-.74h-.02c-.11.22-.28.42-.5.58-.22.16-.53.24-.9.24ZM432.21,154.82c.49,0,.84-.15,1.05-.45s.31-.73.31-1.29v-.08c0-.59-.1-1.04-.31-1.35-.21-.31-.55-.47-1.02-.47s-.81.16-1.04.48c-.23.32-.35.78-.35,1.38s.11,1.02.34,1.32c.22.3.56.45,1.02.45Z"/>
      <path d="M438.86,150.88v4.26h-.38l-.06-.73h-.02c-.12.23-.3.42-.54.58-.24.16-.54.23-.91.23-1,0-1.5-.52-1.5-1.55v-2.78h.46v2.75c0,.41.09.71.27.9.18.19.45.29.82.29.94,0,1.41-.54,1.41-1.62v-2.32h.46Z"/>
      <path d="M443.03,154c0,.39-.14.69-.43.9-.29.21-.69.31-1.22.31-.3,0-.56-.03-.79-.08s-.42-.12-.57-.19v-.44c.19.1.4.17.64.24.24.06.49.09.74.09.42,0,.72-.07.9-.21.19-.14.28-.33.28-.58s-.1-.42-.29-.54c-.19-.13-.49-.25-.88-.39-.26-.09-.49-.18-.69-.27-.2-.09-.36-.21-.47-.36-.11-.15-.17-.34-.17-.6,0-.34.14-.61.42-.8.28-.19.65-.29,1.11-.29.26,0,.49.03.72.08.22.05.42.11.6.19l-.16.38c-.17-.07-.35-.14-.56-.18s-.42-.07-.62-.07c-.34,0-.6.06-.78.18-.19.12-.28.29-.28.51,0,.17.05.3.14.4.09.1.22.18.39.26.17.07.38.15.62.24.25.09.48.18.68.27.21.1.37.22.49.37.12.15.18.35.18.6Z"/>
      <path d="M445.39,154.83c.12,0,.23,0,.34-.03.11-.02.2-.04.28-.07v.37c-.09.03-.19.06-.3.08-.11.02-.24.03-.38.03-.35,0-.62-.1-.82-.3s-.29-.52-.29-.96v-2.7h-.63v-.26l.63-.14.16-.98h.29v1.02h1.31v.37h-1.31v2.69c0,.6.24.9.72.9Z"/>
      <path d="M448.75,150.8c.22,0,.42.02.58.07l-.06.42c-.09-.02-.17-.04-.26-.05-.09-.01-.18-.02-.27-.02-.4,0-.71.14-.93.43-.23.29-.34.67-.34,1.14v2.34h-.46v-4.26h.38l.05.8h.02c.11-.24.27-.45.48-.62.22-.17.48-.26.8-.26Z"/>
      <path d="M450.47,149.3c.21,0,.32.12.32.34s-.11.35-.32.35-.3-.12-.3-.35.1-.34.3-.34ZM450.69,150.88v4.26h-.45v-4.26h.45Z"/>
      <path d="M453.69,150.8c.48,0,.84.12,1.07.35.23.23.35.6.35,1.11v2.86h-.34l-.09-.72h-.02c-.15.24-.34.43-.56.58-.22.15-.53.22-.93.22s-.73-.1-.96-.3c-.24-.2-.36-.5-.36-.89,0-.42.17-.74.52-.97.34-.22.85-.35,1.52-.38l.78-.04v-.3c0-.42-.08-.72-.25-.89-.17-.17-.42-.26-.74-.26-.22,0-.43.03-.63.08-.2.06-.41.14-.61.24l-.14-.37c.2-.1.42-.18.66-.25.24-.06.49-.1.74-.1ZM454.67,152.99l-.72.03c-.54.02-.95.11-1.22.28s-.4.41-.4.73c0,.26.08.46.25.6.17.14.39.2.68.2.44,0,.79-.13,1.03-.38.24-.25.37-.6.38-1.06v-.41Z"/>
      <path d="M457.02,155.13h-.46v-6.08h.46v6.08Z"/>
      <path d="M461.18,154c0,.39-.14.69-.43.9-.29.21-.69.31-1.22.31-.3,0-.56-.03-.79-.08s-.42-.12-.57-.19v-.44c.19.1.4.17.64.24.24.06.49.09.74.09.42,0,.72-.07.9-.21.19-.14.28-.33.28-.58s-.1-.42-.29-.54c-.19-.13-.49-.25-.88-.39-.26-.09-.49-.18-.69-.27-.2-.09-.36-.21-.47-.36-.11-.15-.17-.34-.17-.6,0-.34.14-.61.42-.8.28-.19.65-.29,1.11-.29.26,0,.49.03.72.08.22.05.42.11.6.19l-.16.38c-.17-.07-.35-.14-.56-.18s-.42-.07-.62-.07c-.34,0-.6.06-.78.18-.19.12-.28.29-.28.51,0,.17.05.3.14.4.09.1.22.18.39.26.17.07.38.15.62.24.25.09.48.18.68.27.21.1.37.22.49.37.12.15.18.35.18.6Z"/>
      <path d="M463.99,152.47h-2.11v-.22l.96-.99c.16-.16.29-.31.4-.44.11-.13.19-.26.25-.39.06-.13.08-.28.08-.44,0-.21-.06-.37-.18-.48-.12-.11-.28-.17-.49-.17-.15,0-.29.03-.42.08-.13.05-.26.13-.39.23l-.14-.19c.14-.11.29-.2.45-.26.16-.06.33-.09.5-.09.29,0,.51.08.69.24.17.16.26.37.26.64,0,.18-.03.35-.1.49-.06.15-.15.3-.27.44-.12.14-.26.3-.42.46l-.83.85h0s1.77.01,1.77.01v.24Z"/>
    </g>
  </g>
  <g>
    <path class="cls-14" d="M87.76,165.44c0,.43-.08.83-.24,1.22-.16.38-.39.73-.7,1.04-.3.3-.65.53-1.03.69-.39.16-.79.24-1.22.24s-.84-.08-1.23-.24c-.39-.16-.73-.39-1.03-.69-.3-.31-.54-.65-.7-1.04-.16-.38-.24-.79-.24-1.22s.08-.83.24-1.22.39-.73.7-1.04c.3-.3.65-.53,1.03-.69.39-.16.79-.24,1.22-.24s.83.08,1.22.24c.38.16.73.39,1.04.7.3.31.54.65.7,1.04s.24.79.24,1.22Z"/>
    <g>
      <path d="M93.37,162.92c-.47,0-.87.11-1.21.32-.34.21-.59.5-.77.88s-.27.81-.27,1.32.08.96.24,1.34c.16.38.4.67.72.88.32.21.72.31,1.2.31.28,0,.53-.02.76-.06.23-.04.45-.1.66-.16v.4c-.2.08-.42.13-.65.18-.24.04-.51.06-.82.06-.58,0-1.06-.12-1.44-.37-.39-.25-.68-.59-.87-1.03-.19-.44-.29-.96-.29-1.55s.11-1.07.32-1.51c.22-.44.53-.79.94-1.04.41-.25.9-.38,1.48-.38s1.06.11,1.5.32l-.18.4c-.42-.2-.86-.3-1.32-.3Z"/>
      <path d="M99.48,166.17c0,.44-.07.83-.22,1.16-.15.33-.36.59-.65.77-.29.18-.63.28-1.04.28s-.73-.09-1.02-.27c-.28-.18-.5-.44-.65-.77s-.23-.72-.23-1.17c0-.69.17-1.23.52-1.62.34-.39.81-.58,1.41-.58.41,0,.75.09,1.03.28.28.18.49.44.64.77.14.33.22.72.22,1.16ZM96.14,166.17c0,.54.11.98.34,1.32.23.33.59.5,1.08.5s.86-.17,1.09-.5c.23-.33.35-.77.35-1.32,0-.35-.05-.66-.14-.94-.1-.27-.25-.48-.46-.64-.21-.15-.48-.23-.82-.23-.49,0-.85.16-1.09.48-.24.32-.36.76-.36,1.33Z"/>
      <path d="M102.63,163.96c.49,0,.86.12,1.11.38.26.25.38.64.38,1.18v2.78h-.46v-2.75c0-.41-.09-.7-.28-.9-.18-.19-.45-.29-.81-.29-.94,0-1.41.54-1.41,1.62v2.32h-.45v-4.26h.37l.06.74h.03c.11-.24.29-.43.53-.58.24-.16.54-.23.91-.23Z"/>
      <path d="M108.25,167.17c0,.39-.14.69-.43.9-.29.21-.69.31-1.22.31-.3,0-.56-.03-.79-.08s-.42-.12-.57-.19v-.44c.19.1.4.17.64.24.24.06.49.09.74.09.42,0,.72-.07.9-.21.19-.14.28-.33.28-.58s-.1-.42-.29-.54c-.19-.13-.49-.25-.88-.39-.26-.09-.49-.18-.69-.27-.2-.09-.36-.21-.47-.36-.11-.15-.17-.34-.17-.6,0-.34.14-.61.42-.8.28-.19.65-.29,1.11-.29.26,0,.49.03.72.08.22.05.42.11.6.19l-.16.38c-.17-.07-.35-.14-.56-.18s-.42-.07-.62-.07c-.34,0-.6.06-.78.18-.19.12-.28.29-.28.51,0,.17.05.3.14.4.09.1.22.18.39.26.17.07.38.15.62.24.25.09.48.18.68.27.21.1.37.22.49.37.12.15.18.35.18.6Z"/>
      <path d="M112.77,164.04v4.26h-.38l-.06-.73h-.02c-.12.23-.3.42-.54.58-.24.16-.54.23-.91.23-1,0-1.5-.52-1.5-1.55v-2.78h.46v2.75c0,.41.09.71.27.9.18.19.45.29.82.29.94,0,1.41-.54,1.41-1.62v-2.32h.46Z"/>
      <path d="M118.72,163.96c.42,0,.75.12.99.36.24.24.36.62.36,1.14v2.84h-.45v-2.82c0-.38-.09-.67-.26-.85-.17-.18-.41-.27-.7-.27-.41,0-.72.12-.94.36s-.33.6-.33,1.1v2.48h-.45v-2.82c0-.38-.09-.67-.26-.85-.17-.18-.41-.27-.7-.27-.41,0-.72.12-.94.37-.22.25-.33.63-.33,1.15v2.42h-.45v-4.26h.37l.06.67h.03c.11-.21.27-.39.48-.53.22-.15.49-.22.83-.22.31,0,.57.07.78.2.21.13.36.33.45.6h.03c.12-.26.3-.45.54-.59.25-.14.53-.21.86-.21Z"/>
      <path d="M123.13,163.96c.36,0,.67.08.91.25s.43.4.55.69c.12.29.18.63.18,1.01v.32h-3.04c0,.56.13.99.39,1.29.26.3.64.45,1.13.45.27,0,.5-.02.7-.06s.41-.12.65-.22v.42c-.21.1-.42.17-.63.21-.21.04-.45.06-.73.06-.63,0-1.12-.19-1.46-.58s-.51-.92-.51-1.59c0-.43.07-.82.22-1.16.15-.34.36-.6.64-.8.28-.19.61-.29,1.01-.29ZM123.12,164.35c-.39,0-.71.13-.95.39-.24.26-.39.63-.43,1.11h2.55c0-.45-.09-.81-.28-1.09-.19-.28-.49-.42-.89-.42Z"/>
      <path d="M127.76,163.97c.22,0,.42.02.58.07l-.06.42c-.09-.02-.17-.04-.26-.05-.09-.01-.18-.02-.27-.02-.4,0-.71.14-.93.43-.23.29-.34.67-.34,1.14v2.34h-.46v-4.26h.38l.05.8h.02c.11-.24.27-.45.48-.62.22-.17.48-.26.8-.26Z"/>
      <path d="M133.15,162.5c.39,0,.71.11.95.32.24.21.36.5.36.88,0,.35-.12.64-.35.88-.23.23-.53.45-.9.64l1.74,1.73c.15-.18.28-.38.38-.62.11-.24.19-.49.26-.76h.46c-.16.67-.43,1.23-.82,1.68l1.06,1.06h-.61l-.75-.75c-.25.25-.52.45-.83.6-.31.16-.69.23-1.15.23-.53,0-.96-.13-1.29-.4-.33-.26-.49-.64-.49-1.14,0-.29.05-.53.16-.73.11-.2.26-.38.46-.53.2-.15.44-.3.72-.45-.22-.23-.41-.46-.55-.67-.14-.21-.22-.46-.22-.74,0-.37.12-.67.38-.89.25-.22.59-.33,1.02-.33ZM132.81,165.43c-.25.13-.46.25-.63.38-.17.13-.31.27-.4.43-.09.16-.14.36-.14.59,0,.36.12.64.36.84.24.2.56.3.95.3s.72-.07.98-.2c.26-.13.5-.3.71-.51l-1.84-1.83ZM133.13,162.89c-.28,0-.5.07-.67.22-.17.15-.26.35-.26.6,0,.22.06.42.18.6.12.18.3.39.52.62.36-.18.64-.37.82-.55.19-.19.28-.42.28-.69,0-.25-.08-.44-.24-.58-.16-.14-.37-.22-.64-.22Z"/>
      <path d="M140.93,162.59c.68,0,1.2.12,1.54.36.34.24.52.64.52,1.21,0,.44-.12.78-.35,1.02s-.52.42-.87.53l1.57,2.59h-.55l-1.46-2.46h-1.36v2.46h-.46v-5.71h1.42ZM140.89,163h-.92v2.43h1.08c.46,0,.82-.11,1.08-.33.25-.22.38-.53.38-.94,0-.44-.13-.74-.4-.91-.26-.17-.67-.26-1.22-.26Z"/>
      <path d="M145.92,163.96c.36,0,.67.08.91.25s.43.4.55.69c.12.29.18.63.18,1.01v.32h-3.04c0,.56.13.99.39,1.29.26.3.64.45,1.13.45.27,0,.5-.02.7-.06s.41-.12.65-.22v.42c-.21.1-.42.17-.63.21-.21.04-.45.06-.73.06-.63,0-1.12-.19-1.46-.58s-.51-.92-.51-1.59c0-.43.07-.82.22-1.16.15-.34.36-.6.64-.8.28-.19.61-.29,1.01-.29ZM145.91,164.35c-.39,0-.71.13-.95.39-.24.26-.39.63-.43,1.11h2.55c0-.45-.09-.81-.28-1.09-.19-.28-.49-.42-.89-.42Z"/>
      <path d="M150.31,163.97c.48,0,.84.12,1.07.35.23.23.35.6.35,1.11v2.86h-.34l-.09-.72h-.02c-.15.24-.34.43-.56.58-.22.15-.53.22-.93.22s-.73-.1-.96-.3c-.24-.2-.36-.5-.36-.89,0-.42.17-.74.52-.97.34-.22.85-.35,1.52-.38l.78-.04v-.3c0-.42-.08-.72-.25-.89-.17-.17-.42-.26-.74-.26-.22,0-.43.03-.63.08-.2.06-.41.14-.61.24l-.14-.37c.2-.1.42-.18.66-.25.24-.06.49-.1.74-.1ZM151.29,166.15l-.72.03c-.54.02-.95.11-1.22.28s-.4.41-.4.73c0,.26.08.46.25.6.17.14.39.2.68.2.44,0,.79-.13,1.03-.38.24-.25.37-.6.38-1.06v-.41Z"/>
      <path d="M153.64,168.3h-.46v-6.08h.46v6.08Z"/>
      <path d="M160.53,168.3h-3.14v-5.71h3.14v.42h-2.67v2.1h2.52v.41h-2.52v2.38h2.67v.42Z"/>
      <path d="M164.48,167.17c0,.39-.14.69-.43.9-.29.21-.69.31-1.22.31-.3,0-.56-.03-.79-.08s-.42-.12-.57-.19v-.44c.19.1.4.17.64.24.24.06.49.09.74.09.42,0,.72-.07.9-.21.19-.14.28-.33.28-.58s-.1-.42-.29-.54c-.19-.13-.49-.25-.88-.39-.26-.09-.49-.18-.69-.27-.2-.09-.36-.21-.47-.36-.11-.15-.17-.34-.17-.6,0-.34.14-.61.42-.8.28-.19.65-.29,1.11-.29.26,0,.49.03.72.08.22.05.42.11.6.19l-.16.38c-.17-.07-.35-.14-.56-.18s-.42-.07-.62-.07c-.34,0-.6.06-.78.18-.19.12-.28.29-.28.51,0,.17.05.3.14.4.09.1.22.18.39.26.17.07.38.15.62.24.25.09.48.18.68.27.21.1.37.22.49.37.12.15.18.35.18.6Z"/>
      <path d="M166.84,167.99c.12,0,.23,0,.34-.03.11-.02.2-.04.28-.07v.37c-.09.03-.19.06-.3.08-.11.02-.24.03-.38.03-.35,0-.62-.1-.82-.3s-.29-.52-.29-.96v-2.7h-.63v-.26l.63-.14.16-.98h.29v1.02h1.31v.37h-1.31v2.69c0,.6.24.9.72.9Z"/>
      <path d="M169.95,163.97c.48,0,.84.12,1.07.35.23.23.35.6.35,1.11v2.86h-.34l-.09-.72h-.02c-.15.24-.34.43-.56.58-.22.15-.53.22-.93.22s-.73-.1-.96-.3c-.24-.2-.36-.5-.36-.89,0-.42.17-.74.52-.97.34-.22.85-.35,1.52-.38l.78-.04v-.3c0-.42-.08-.72-.25-.89-.17-.17-.42-.26-.74-.26-.22,0-.43.03-.63.08-.2.06-.41.14-.61.24l-.14-.37c.2-.1.42-.18.66-.25.24-.06.49-.1.74-.1ZM170.93,166.15l-.72.03c-.54.02-.95.11-1.22.28s-.4.41-.4.73c0,.26.08.46.25.6.17.14.39.2.68.2.44,0,.79-.13,1.03-.38.24-.25.37-.6.38-1.06v-.41Z"/>
      <path d="M174.02,167.99c.12,0,.23,0,.34-.03.11-.02.2-.04.28-.07v.37c-.09.03-.19.06-.3.08-.11.02-.24.03-.38.03-.35,0-.62-.1-.82-.3s-.29-.52-.29-.96v-2.7h-.63v-.26l.63-.14.16-.98h.29v1.02h1.31v.37h-1.31v2.69c0,.6.24.9.72.9Z"/>
      <path d="M177.25,163.96c.36,0,.67.08.91.25s.43.4.55.69c.12.29.18.63.18,1.01v.32h-3.04c0,.56.13.99.39,1.29.26.3.64.45,1.13.45.27,0,.5-.02.7-.06s.41-.12.65-.22v.42c-.21.1-.42.17-.63.21-.21.04-.45.06-.73.06-.63,0-1.12-.19-1.46-.58s-.51-.92-.51-1.59c0-.43.07-.82.22-1.16.15-.34.36-.6.64-.8.28-.19.61-.29,1.01-.29ZM177.24,164.35c-.39,0-.71.13-.95.39-.24.26-.39.63-.43,1.11h2.55c0-.45-.09-.81-.28-1.09-.19-.28-.49-.42-.89-.42Z"/>
    </g>
  </g>
  <g>
    <g>
      <path d="M179.83,155.13h-.46v-5.3h-1.84v-.42h4.14v.42h-1.84v5.3Z"/>
      <path d="M184.13,150.8c.36,0,.67.08.91.25s.43.4.55.69c.12.29.18.63.18,1.01v.32h-3.04c0,.56.13.99.39,1.29.26.3.64.45,1.13.45.27,0,.5-.02.7-.06s.41-.12.65-.22v.42c-.21.1-.42.17-.63.21-.21.04-.45.06-.73.06-.63,0-1.12-.19-1.46-.58s-.51-.92-.51-1.59c0-.43.07-.82.22-1.16.15-.34.36-.6.64-.8.28-.19.61-.29,1.01-.29ZM184.12,151.18c-.39,0-.71.13-.95.39-.24.26-.39.63-.43,1.11h2.55c0-.45-.09-.81-.28-1.09-.19-.28-.49-.42-.89-.42Z"/>
      <path d="M187.47,155.13h-.46v-6.08h.46v6.08Z"/>
      <path d="M190.58,150.8c.36,0,.67.08.91.25s.43.4.55.69c.12.29.18.63.18,1.01v.32h-3.04c0,.56.13.99.39,1.29.26.3.64.45,1.13.45.27,0,.5-.02.7-.06s.41-.12.65-.22v.42c-.21.1-.42.17-.63.21-.21.04-.45.06-.73.06-.63,0-1.12-.19-1.46-.58s-.51-.92-.51-1.59c0-.43.07-.82.22-1.16.15-.34.36-.6.64-.8.28-.19.61-.29,1.01-.29ZM190.57,151.18c-.39,0-.71.13-.95.39-.24.26-.39.63-.43,1.11h2.55c0-.45-.09-.81-.28-1.09-.19-.28-.49-.42-.89-.42Z"/>
      <path d="M195.17,155.21c-.62,0-1.11-.19-1.44-.57-.34-.38-.51-.92-.51-1.61,0-.48.08-.88.26-1.21.17-.33.41-.59.72-.76.31-.17.66-.26,1.07-.26.21,0,.4.02.58.06.18.04.34.09.48.15l-.13.4c-.3-.13-.61-.2-.93-.2-.5,0-.89.16-1.16.49-.27.33-.41.77-.41,1.33s.12.97.36,1.3c.24.33.61.5,1.11.5.21,0,.41-.02.6-.06s.35-.1.5-.17v.41c-.14.07-.3.12-.48.16-.18.04-.39.06-.62.06Z"/>
      <path d="M200.92,153c0,.44-.07.83-.22,1.16-.15.33-.36.59-.65.77-.29.18-.63.28-1.04.28s-.73-.09-1.02-.27c-.28-.18-.5-.44-.65-.77s-.23-.72-.23-1.17c0-.69.17-1.23.52-1.62.34-.39.81-.58,1.41-.58.41,0,.75.09,1.03.28.28.18.49.44.64.77.14.33.22.72.22,1.16ZM197.59,153c0,.54.11.98.34,1.32.23.33.59.5,1.08.5s.86-.17,1.09-.5c.23-.33.35-.77.35-1.32,0-.35-.05-.66-.14-.94-.1-.27-.25-.48-.46-.64-.21-.15-.48-.23-.82-.23-.49,0-.85.16-1.09.48-.24.32-.36.76-.36,1.33Z"/>
      <path d="M206.62,150.8c.42,0,.75.12.99.36.24.24.36.62.36,1.14v2.84h-.45v-2.82c0-.38-.09-.67-.26-.85-.17-.18-.41-.27-.7-.27-.41,0-.72.12-.94.36s-.33.6-.33,1.1v2.48h-.45v-2.82c0-.38-.09-.67-.26-.85-.17-.18-.41-.27-.7-.27-.41,0-.72.12-.94.37-.22.25-.33.63-.33,1.15v2.42h-.45v-4.26h.37l.06.67h.03c.11-.21.27-.39.48-.53.22-.15.49-.22.83-.22.31,0,.57.07.78.2.21.13.36.33.45.6h.03c.12-.26.3-.45.54-.59.25-.14.53-.21.86-.21Z"/>
      <path d="M213.86,150.8c.42,0,.75.12.99.36.24.24.36.62.36,1.14v2.84h-.45v-2.82c0-.38-.09-.67-.26-.85-.17-.18-.41-.27-.7-.27-.41,0-.72.12-.94.36s-.33.6-.33,1.1v2.48h-.45v-2.82c0-.38-.09-.67-.26-.85-.17-.18-.41-.27-.7-.27-.41,0-.72.12-.94.37-.22.25-.33.63-.33,1.15v2.42h-.45v-4.26h.37l.06.67h.03c.11-.21.27-.39.48-.53.22-.15.49-.22.83-.22.31,0,.57.07.78.2.21.13.36.33.45.6h.03c.12-.26.3-.45.54-.59.25-.14.53-.21.86-.21Z"/>
      <path d="M220,150.88v4.26h-.38l-.06-.73h-.02c-.12.23-.3.42-.54.58-.24.16-.54.23-.91.23-1,0-1.5-.52-1.5-1.55v-2.78h.46v2.75c0,.41.09.71.27.9.18.19.45.29.82.29.94,0,1.41-.54,1.41-1.62v-2.32h.46Z"/>
      <path d="M223.41,150.8c.49,0,.86.12,1.11.38.26.25.38.64.38,1.18v2.78h-.46v-2.75c0-.41-.09-.7-.28-.9-.18-.19-.45-.29-.81-.29-.94,0-1.41.54-1.41,1.62v2.32h-.45v-4.26h.37l.06.74h.03c.11-.24.29-.43.53-.58.24-.16.54-.23.91-.23Z"/>
      <path d="M226.58,149.3c.21,0,.32.12.32.34s-.11.35-.32.35-.3-.12-.3-.35.1-.34.3-.34ZM226.81,150.88v4.26h-.45v-4.26h.45Z"/>
      <path d="M230.01,155.21c-.62,0-1.11-.19-1.44-.57-.34-.38-.51-.92-.51-1.61,0-.48.08-.88.26-1.21.17-.33.41-.59.72-.76.31-.17.66-.26,1.07-.26.21,0,.4.02.58.06.18.04.34.09.48.15l-.13.4c-.3-.13-.61-.2-.93-.2-.5,0-.89.16-1.16.49-.27.33-.41.77-.41,1.33s.12.97.36,1.3c.24.33.61.5,1.11.5.21,0,.41-.02.6-.06s.35-.1.5-.17v.41c-.14.07-.3.12-.48.16-.18.04-.39.06-.62.06Z"/>
      <path d="M233.71,150.8c.48,0,.84.12,1.07.35.23.23.35.6.35,1.11v2.86h-.34l-.09-.72h-.02c-.15.24-.34.43-.56.58-.22.15-.53.22-.93.22s-.73-.1-.96-.3c-.24-.2-.36-.5-.36-.89,0-.42.17-.74.52-.97.34-.22.85-.35,1.52-.38l.78-.04v-.3c0-.42-.08-.72-.25-.89-.17-.17-.42-.26-.74-.26-.22,0-.43.03-.63.08-.2.06-.41.14-.61.24l-.14-.37c.2-.1.42-.18.66-.25.24-.06.49-.1.74-.1ZM234.68,152.99l-.72.03c-.54.02-.95.11-1.22.28s-.4.41-.4.73c0,.26.08.46.25.6.17.14.39.2.68.2.44,0,.79-.13,1.03-.38.24-.25.37-.6.38-1.06v-.41Z"/>
      <path d="M237.78,154.83c.12,0,.23,0,.34-.03.11-.02.2-.04.28-.07v.37c-.09.03-.19.06-.3.08-.11.02-.24.03-.38.03-.35,0-.62-.1-.82-.3s-.29-.52-.29-.96v-2.7h-.63v-.26l.63-.14.16-.98h.29v1.02h1.31v.37h-1.31v2.69c0,.6.24.9.72.9Z"/>
      <path d="M239.61,149.3c.21,0,.32.12.32.34s-.11.35-.32.35-.3-.12-.3-.35.1-.34.3-.34ZM239.83,150.88v4.26h-.45v-4.26h.45Z"/>
      <path d="M244.89,153c0,.44-.07.83-.22,1.16-.15.33-.36.59-.65.77-.29.18-.63.28-1.04.28s-.73-.09-1.02-.27c-.28-.18-.5-.44-.65-.77s-.23-.72-.23-1.17c0-.69.17-1.23.52-1.62.34-.39.81-.58,1.41-.58.41,0,.75.09,1.03.28.28.18.49.44.64.77.14.33.22.72.22,1.16ZM241.55,153c0,.54.11.98.34,1.32.23.33.59.5,1.08.5s.86-.17,1.09-.5c.23-.33.35-.77.35-1.32,0-.35-.05-.66-.14-.94-.1-.27-.25-.48-.46-.64-.21-.15-.48-.23-.82-.23-.49,0-.85.16-1.09.48-.24.32-.36.76-.36,1.33Z"/>
      <path d="M248.04,150.8c.49,0,.86.12,1.11.38.26.25.38.64.38,1.18v2.78h-.46v-2.75c0-.41-.09-.7-.28-.9-.18-.19-.45-.29-.81-.29-.94,0-1.41.54-1.41,1.62v2.32h-.45v-4.26h.37l.06.74h.03c.11-.24.29-.43.53-.58.24-.16.54-.23.91-.23Z"/>
      <path d="M253.66,154c0,.39-.14.69-.43.9-.29.21-.69.31-1.22.31-.3,0-.56-.03-.79-.08s-.42-.12-.57-.19v-.44c.19.1.4.17.64.24.24.06.49.09.74.09.42,0,.72-.07.9-.21.19-.14.28-.33.28-.58s-.1-.42-.29-.54c-.19-.13-.49-.25-.88-.39-.26-.09-.49-.18-.69-.27-.2-.09-.36-.21-.47-.36-.11-.15-.17-.34-.17-.6,0-.34.14-.61.42-.8.28-.19.65-.29,1.11-.29.26,0,.49.03.72.08.22.05.42.11.6.19l-.16.38c-.17-.07-.35-.14-.56-.18s-.42-.07-.62-.07c-.34,0-.6.06-.78.18-.19.12-.28.29-.28.51,0,.17.05.3.14.4.09.1.22.18.39.26.17.07.38.15.62.24.25.09.48.18.68.27.21.1.37.22.49.37.12.15.18.35.18.6Z"/>
      <path d="M255.35,154.2l.03.1c-.06.29-.15.6-.26.94-.11.34-.22.65-.34.93h-.34c.2-.71.34-1.36.42-1.96h.5Z"/>
      <path d="M261.46,155.13l-2.05-5.22h-.03c.01.14.02.31.02.5s0,.39,0,.6v4.11h-.43v-5.71h.7l1.97,5.01h.02l1.99-5.01h.69v5.71h-.46v-4.16c0-.18,0-.37,0-.55,0-.19.01-.35.02-.5h-.02l-2.06,5.22h-.38Z"/>
      <path d="M267.57,150.8c.36,0,.67.08.91.25s.43.4.55.69c.12.29.18.63.18,1.01v.32h-3.04c0,.56.13.99.39,1.29.26.3.64.45,1.13.45.27,0,.5-.02.7-.06s.41-.12.65-.22v.42c-.21.1-.42.17-.63.21-.21.04-.45.06-.73.06-.63,0-1.12-.19-1.46-.58s-.51-.92-.51-1.59c0-.43.07-.82.22-1.16.15-.34.36-.6.64-.8.28-.19.61-.29,1.01-.29ZM267.56,151.18c-.39,0-.71.13-.95.39-.24.26-.39.63-.43,1.11h2.55c0-.45-.09-.81-.28-1.09-.19-.28-.49-.42-.89-.42Z"/>
      <path d="M271.98,155.21c-.57,0-1.01-.18-1.32-.55s-.46-.9-.46-1.61.16-1.3.48-1.68.77-.58,1.33-.58c.36,0,.65.08.87.23.22.15.39.35.5.58h.03c0-.13-.01-.27-.02-.42,0-.15-.01-.29-.01-.41v-1.73h.46v6.08h-.37l-.06-.74h-.02c-.11.22-.28.42-.5.58-.22.16-.53.24-.9.24ZM272.04,154.82c.49,0,.84-.15,1.05-.45s.31-.73.31-1.29v-.08c0-.59-.1-1.04-.31-1.35-.21-.31-.55-.47-1.02-.47s-.81.16-1.04.48c-.23.32-.35.78-.35,1.38s.11,1.02.34,1.32c.22.3.56.45,1.02.45Z"/>
      <path d="M275.56,149.3c.21,0,.32.12.32.34s-.11.35-.32.35-.3-.12-.3-.35.1-.34.3-.34ZM275.78,150.88v4.26h-.45v-4.26h.45Z"/>
      <path d="M278.78,150.8c.48,0,.84.12,1.07.35.23.23.35.6.35,1.11v2.86h-.34l-.09-.72h-.02c-.15.24-.34.43-.56.58-.22.15-.53.22-.93.22s-.73-.1-.96-.3c-.24-.2-.36-.5-.36-.89,0-.42.17-.74.52-.97.34-.22.85-.35,1.52-.38l.78-.04v-.3c0-.42-.08-.72-.25-.89-.17-.17-.42-.26-.74-.26-.22,0-.43.03-.63.08-.2.06-.41.14-.61.24l-.14-.37c.2-.1.42-.18.66-.25.24-.06.49-.1.74-.1ZM279.76,152.99l-.72.03c-.54.02-.95.11-1.22.28s-.4.41-.4.73c0,.26.08.46.25.6.17.14.39.2.68.2.44,0,.79-.13,1.03-.38.24-.25.37-.6.38-1.06v-.41Z"/>
      <path d="M285.55,149.33c.39,0,.71.11.95.32.24.21.36.5.36.88,0,.35-.12.64-.35.88-.23.23-.53.45-.9.64l1.74,1.73c.15-.18.28-.38.38-.62.11-.24.19-.49.26-.76h.46c-.16.67-.43,1.23-.82,1.68l1.06,1.06h-.61l-.75-.75c-.25.25-.52.45-.83.6-.31.16-.69.23-1.15.23-.53,0-.96-.13-1.29-.4-.33-.26-.49-.64-.49-1.14,0-.29.05-.53.16-.73.11-.2.26-.38.46-.53.2-.15.44-.3.72-.45-.22-.23-.41-.46-.55-.67-.14-.21-.22-.46-.22-.74,0-.37.12-.67.38-.89.25-.22.59-.33,1.02-.33ZM285.22,152.26c-.25.13-.46.25-.63.38-.17.13-.31.27-.4.43-.09.16-.14.36-.14.59,0,.36.12.64.36.84.24.2.56.3.95.3s.72-.07.98-.2c.26-.13.5-.3.71-.51l-1.84-1.83ZM285.54,149.72c-.28,0-.5.07-.67.22-.17.15-.26.35-.26.6,0,.22.06.42.18.6.12.18.3.39.52.62.36-.18.64-.37.82-.55.19-.19.28-.42.28-.69,0-.25-.08-.44-.24-.58-.16-.14-.37-.22-.64-.22Z"/>
      <path d="M293.46,155.13h-.46v-5.3h-1.84v-.42h4.14v.42h-1.84v5.3Z"/>
      <path d="M297.76,150.8c.36,0,.67.08.91.25.25.17.43.4.55.69.12.29.18.63.18,1.01v.32h-3.04c0,.56.13.99.39,1.29.26.3.64.45,1.13.45.27,0,.5-.02.7-.06s.41-.12.65-.22v.42c-.21.1-.42.17-.63.21-.21.04-.45.06-.73.06-.63,0-1.12-.19-1.46-.58-.34-.39-.51-.92-.51-1.59,0-.43.07-.82.22-1.16s.36-.6.64-.8c.28-.19.61-.29,1.01-.29ZM297.75,151.18c-.39,0-.71.13-.95.39-.24.26-.39.63-.43,1.11h2.55c0-.45-.09-.81-.28-1.09s-.49-.42-.89-.42Z"/>
      <path d="M302.35,155.21c-.62,0-1.11-.19-1.44-.57-.34-.38-.51-.92-.51-1.61,0-.48.08-.88.26-1.21.17-.33.41-.59.72-.76.31-.17.66-.26,1.07-.26.21,0,.4.02.58.06.18.04.34.09.48.15l-.13.4c-.3-.13-.61-.2-.93-.2-.5,0-.89.16-1.16.49-.27.33-.41.77-.41,1.33s.12.97.36,1.3c.24.33.61.5,1.11.5.21,0,.41-.02.6-.06s.35-.1.5-.17v.41c-.14.07-.3.12-.48.16-.18.04-.39.06-.62.06Z"/>
      <path d="M304.99,149.05v1.95c0,.21,0,.42-.02.61h.03c.11-.24.28-.43.53-.58.25-.16.55-.23.91-.23.49,0,.86.12,1.12.38s.39.64.39,1.18v2.78h-.46v-2.75c0-.41-.09-.7-.28-.9-.18-.19-.46-.29-.81-.29-.94,0-1.41.54-1.41,1.62v2.32h-.45v-6.08h.45Z"/>
      <path d="M311.3,150.8c.48,0,.86.12,1.11.38s.38.64.38,1.18v2.78h-.46v-2.75c0-.41-.09-.7-.28-.9-.18-.19-.46-.29-.81-.29-.94,0-1.41.54-1.41,1.62v2.32h-.45v-4.26h.37l.06.74h.03c.11-.24.29-.43.53-.58.24-.16.54-.23.91-.23Z"/>
      <path d="M317.82,153c0,.44-.07.83-.22,1.16-.15.33-.36.59-.65.77-.29.18-.63.28-1.04.28s-.73-.09-1.02-.27c-.28-.18-.5-.44-.65-.77-.15-.33-.23-.72-.23-1.17,0-.69.17-1.23.52-1.62.34-.39.82-.58,1.41-.58.41,0,.75.09,1.03.28.28.18.49.44.64.77.14.33.22.72.22,1.16ZM314.48,153c0,.54.12.98.34,1.32.23.33.59.5,1.08.5s.86-.17,1.09-.5c.23-.33.35-.77.35-1.32,0-.35-.05-.66-.14-.94-.1-.27-.25-.48-.46-.64-.21-.15-.48-.23-.82-.23-.49,0-.85.16-1.09.48s-.36.76-.36,1.33Z"/>
      <path d="M319.52,155.13h-.46v-6.08h.46v6.08Z"/>
      <path d="M324.57,153c0,.44-.07.83-.22,1.16-.15.33-.36.59-.65.77-.29.18-.63.28-1.04.28s-.73-.09-1.02-.27c-.28-.18-.5-.44-.65-.77-.15-.33-.23-.72-.23-1.17,0-.69.17-1.23.52-1.62.34-.39.82-.58,1.41-.58.41,0,.75.09,1.03.28.28.18.49.44.64.77.14.33.22.72.22,1.16ZM321.23,153c0,.54.12.98.34,1.32.23.33.59.5,1.08.5s.86-.17,1.09-.5c.23-.33.35-.77.35-1.32,0-.35-.05-.66-.14-.94-.1-.27-.25-.48-.46-.64-.21-.15-.48-.23-.82-.23-.49,0-.85.16-1.09.48s-.36.76-.36,1.33Z"/>
      <path d="M327.37,150.8c.34,0,.62.06.84.19.22.13.4.31.53.54h.02l.07-.65h.37v4.39c0,.56-.14,1-.43,1.31-.29.31-.75.47-1.4.47-.32,0-.6-.03-.85-.08-.25-.05-.47-.12-.67-.21v-.44c.2.1.43.18.69.24.26.06.54.09.84.09.46,0,.81-.12,1.03-.37.22-.25.33-.58.33-1v-.25c0-.11,0-.22,0-.34,0-.11.01-.22.02-.33h-.02c-.12.28-.3.49-.54.62s-.54.21-.88.21c-.55,0-.99-.19-1.29-.56-.31-.37-.46-.91-.46-1.62s.15-1.23.46-1.64c.31-.4.75-.6,1.34-.6ZM327.42,151.2c-.46,0-.8.16-1.03.48-.23.32-.34.78-.34,1.36s.11,1.02.34,1.33c.23.3.56.46.99.46.35,0,.63-.07.83-.22.2-.14.34-.34.43-.59.09-.25.13-.54.13-.86v-.27c0-.54-.1-.96-.3-1.26-.2-.29-.54-.44-1.04-.44Z"/>
      <path d="M329.99,150.88h.49l1.02,2.65c.08.24.16.44.22.63.06.18.12.35.15.49h.02c.04-.12.09-.28.15-.47.06-.19.14-.41.22-.64l.99-2.66h.49l-1.92,5.02c-.14.37-.31.66-.51.87s-.46.31-.8.31c-.11,0-.2,0-.28-.02s-.16-.04-.23-.06v-.38c.14.05.29.07.46.07.22,0,.41-.07.55-.21.14-.14.27-.35.37-.63l.28-.72-1.67-4.24Z"/>
    </g>
    <path class="cls-15" d="M174.64,152.27c0,.43-.08.83-.24,1.22-.16.38-.39.73-.7,1.04-.3.3-.64.53-1.03.69-.39.16-.79.24-1.22.24s-.84-.08-1.23-.24c-.39-.16-.73-.39-1.03-.69-.3-.31-.54-.65-.7-1.04-.16-.38-.24-.79-.24-1.22s.08-.83.24-1.22c.16-.39.39-.73.7-1.04.3-.3.64-.53,1.03-.69.39-.16.79-.24,1.22-.24s.84.08,1.22.24c.38.16.73.39,1.04.7.31.31.54.65.7,1.04s.24.79.24,1.22Z"/>
  </g>
  <g>
    <path class="cls-13" d="M199.45,165.44c0,.43-.08.83-.24,1.22-.16.38-.39.73-.7,1.04-.3.3-.64.53-1.03.69-.39.16-.79.24-1.22.24s-.84-.08-1.23-.24c-.39-.16-.73-.39-1.03-.69-.31-.31-.54-.65-.7-1.04-.16-.38-.24-.79-.24-1.22s.08-.83.24-1.22.39-.73.7-1.04c.3-.3.64-.53,1.03-.69.39-.16.79-.24,1.22-.24s.83.08,1.22.24c.38.16.73.39,1.04.7.31.31.53.65.7,1.04.16.39.24.79.24,1.22Z"/>
    <g>
      <path d="M202.36,168.31v-5.71h.46v5.3h2.67v.42h-3.14Z"/>
      <path d="M206.7,162.47c.21,0,.32.11.32.34s-.11.35-.32.35-.3-.12-.3-.35.1-.34.3-.34ZM206.92,164.05v4.26h-.45v-4.26h.45Z"/>
      <path d="M210.07,164.42h-1.02v3.89h-.46v-3.89h-.78v-.25l.78-.14v-.42c0-.49.1-.85.32-1.08.21-.23.53-.35.96-.35.15,0,.29.01.41.04s.23.05.34.08l-.1.38c-.1-.03-.2-.06-.31-.08-.11-.02-.22-.03-.33-.03-.29,0-.5.08-.62.24s-.19.43-.19.79v.44h1.02v.37Z"/>
      <path d="M212.59,163.97c.36,0,.67.08.91.25s.43.4.55.69c.12.29.18.63.18,1.01v.32h-3.04c0,.56.13.99.39,1.29s.64.45,1.13.45c.27,0,.5-.02.7-.06.2-.04.41-.12.65-.22v.42c-.21.1-.42.17-.63.21-.21.04-.45.06-.73.06-.63,0-1.12-.19-1.46-.58s-.51-.92-.51-1.59c0-.43.07-.82.22-1.16.15-.34.36-.6.64-.8.28-.19.61-.29,1.01-.29ZM212.59,164.35c-.39,0-.71.13-.95.39s-.39.63-.43,1.11h2.55c0-.45-.09-.81-.28-1.09-.19-.28-.49-.42-.89-.42Z"/>
      <path d="M220.91,166.82c0,.34-.08.63-.26.86s-.41.41-.7.53c-.3.12-.64.18-1.02.18-.34,0-.64-.02-.9-.07-.26-.05-.47-.11-.66-.18v-.46c.2.08.44.15.71.21.27.06.56.09.88.09.44,0,.79-.09,1.07-.28.27-.19.41-.47.41-.84,0-.22-.05-.41-.16-.56-.1-.15-.26-.27-.48-.38-.22-.11-.49-.22-.83-.33-.32-.11-.6-.23-.82-.36-.23-.13-.41-.3-.53-.5-.12-.2-.18-.45-.18-.76s.08-.58.24-.79c.16-.21.37-.38.65-.49.27-.11.59-.17.94-.17.28,0,.54.03.79.08.25.05.49.13.71.22l-.16.4c-.45-.19-.9-.29-1.36-.29-.4,0-.72.09-.96.26-.25.17-.37.43-.37.76,0,.25.05.44.16.59.11.15.26.27.46.37.2.1.45.2.74.3.34.12.63.24.87.37.24.13.43.29.56.48s.2.44.2.74Z"/>
      <path d="M223.81,168.39c-.62,0-1.11-.19-1.44-.57-.34-.38-.51-.92-.51-1.61,0-.47.08-.88.26-1.21s.41-.59.72-.76c.31-.17.66-.26,1.07-.26.21,0,.4.02.58.06.18.04.34.09.48.15l-.13.4c-.3-.13-.61-.2-.93-.2-.5,0-.89.16-1.16.49s-.41.77-.41,1.33.12.97.36,1.3c.24.33.61.5,1.11.5.21,0,.41-.02.6-.06.19-.04.35-.1.5-.17v.41c-.14.07-.3.12-.48.16s-.39.06-.62.06Z"/>
      <path d="M226.23,162.47c.21,0,.32.11.32.34s-.11.35-.32.35-.3-.12-.3-.35.1-.34.3-.34ZM226.45,164.05v4.26h-.45v-4.26h.45Z"/>
      <path d="M229.56,163.97c.36,0,.67.08.91.25s.43.4.55.69c.12.29.18.63.18,1.01v.32h-3.04c0,.56.13.99.39,1.29s.64.45,1.13.45c.27,0,.5-.02.7-.06.2-.04.41-.12.65-.22v.42c-.21.1-.42.17-.63.21-.21.04-.45.06-.73.06-.63,0-1.12-.19-1.46-.58s-.51-.92-.51-1.59c0-.43.07-.82.22-1.16.15-.34.36-.6.64-.8.28-.19.61-.29,1.01-.29ZM229.55,164.35c-.39,0-.71.13-.95.39s-.39.63-.43,1.11h2.55c0-.45-.09-.81-.28-1.09-.19-.28-.49-.42-.89-.42Z"/>
      <path d="M234.35,163.97c.49,0,.86.13,1.11.38.26.25.38.64.38,1.18v2.78h-.46v-2.75c0-.41-.09-.7-.28-.9s-.45-.29-.81-.29c-.94,0-1.41.54-1.41,1.62v2.32h-.45v-4.26h.37l.06.74h.03c.11-.23.29-.43.53-.58.24-.15.54-.23.91-.23Z"/>
      <path d="M239.01,168.39c-.62,0-1.11-.19-1.44-.57-.34-.38-.51-.92-.51-1.61,0-.47.08-.88.26-1.21s.41-.59.72-.76c.31-.17.66-.26,1.07-.26.21,0,.4.02.58.06.18.04.34.09.48.15l-.13.4c-.3-.13-.61-.2-.93-.2-.5,0-.89.16-1.16.49s-.41.77-.41,1.33.12.97.36,1.3c.24.33.61.5,1.11.5.21,0,.41-.02.6-.06.19-.04.35-.1.5-.17v.41c-.14.07-.3.12-.48.16s-.39.06-.62.06Z"/>
      <path d="M242.82,163.97c.36,0,.67.08.91.25s.43.4.55.69c.12.29.18.63.18,1.01v.32h-3.04c0,.56.13.99.39,1.29s.64.45,1.13.45c.27,0,.5-.02.7-.06.2-.04.41-.12.65-.22v.42c-.21.1-.42.17-.63.21-.21.04-.45.06-.73.06-.63,0-1.12-.19-1.46-.58s-.51-.92-.51-1.59c0-.43.07-.82.22-1.16.15-.34.36-.6.64-.8.28-.19.61-.29,1.01-.29ZM242.81,164.35c-.39,0-.71.13-.95.39s-.39.63-.43,1.11h2.55c0-.45-.09-.81-.28-1.09-.19-.28-.49-.42-.89-.42Z"/>
      <path d="M248.38,167.18c0,.39-.14.69-.43.9-.29.21-.69.31-1.22.31-.3,0-.56-.03-.79-.08s-.42-.12-.57-.19v-.44c.19.1.4.17.64.24.24.06.49.09.74.09.42,0,.72-.07.9-.21.19-.14.28-.33.28-.58s-.1-.41-.29-.54c-.19-.12-.49-.25-.88-.39-.26-.09-.49-.18-.69-.27-.2-.09-.36-.21-.47-.36-.11-.15-.17-.35-.17-.6,0-.34.14-.61.42-.8.28-.19.65-.29,1.11-.29.26,0,.49.03.72.08.22.05.42.11.6.19l-.16.38c-.17-.07-.35-.14-.56-.18-.21-.05-.42-.07-.62-.07-.34,0-.6.06-.78.18-.19.12-.28.29-.28.51,0,.17.05.31.14.4.09.1.22.18.39.26.17.07.38.15.62.24.25.09.48.18.68.27.21.1.37.22.49.37.12.15.18.35.18.6Z"/>
      <path d="M253.43,162.51c.39,0,.71.1.95.32.24.21.36.5.36.88,0,.35-.12.64-.35.88s-.53.45-.9.64l1.74,1.73c.15-.18.28-.38.38-.62.11-.23.19-.49.26-.76h.46c-.16.67-.43,1.23-.82,1.68l1.06,1.06h-.61l-.75-.75c-.25.25-.52.45-.83.6-.31.15-.69.23-1.15.23-.53,0-.96-.13-1.29-.4-.33-.26-.49-.64-.49-1.14,0-.29.05-.53.16-.73.11-.2.26-.38.46-.53.2-.15.44-.3.72-.45-.22-.23-.41-.46-.55-.67s-.22-.46-.22-.74c0-.37.12-.67.38-.89.25-.22.59-.33,1.02-.33ZM253.1,165.43c-.25.13-.46.25-.63.38-.17.13-.31.27-.4.43-.09.16-.14.36-.14.59,0,.36.12.64.36.84.24.2.56.3.95.3s.72-.07.98-.2.5-.3.71-.51l-1.84-1.83ZM253.42,162.9c-.28,0-.5.07-.67.22-.17.15-.26.35-.26.6,0,.22.06.42.18.6s.3.39.52.62c.36-.18.64-.37.82-.55.19-.19.28-.42.28-.69,0-.25-.08-.44-.24-.58-.16-.14-.37-.22-.64-.22Z"/>
      <path d="M263.37,168.31l-.76-1.97h-2.37l-.78,1.97h-.47l2.24-5.73h.43l2.19,5.73h-.49ZM262.47,165.92l-.77-2.06c-.02-.07-.06-.19-.11-.35-.05-.16-.1-.3-.14-.42-.04.14-.09.28-.14.42-.05.14-.09.26-.12.36l-.79,2.06h2.07Z"/>
      <path d="M266.2,163.97c.34,0,.61.06.84.19.22.13.4.31.53.54h.02l.07-.65h.37v4.39c0,.56-.14,1-.43,1.31-.29.31-.75.47-1.4.47-.32,0-.6-.03-.85-.08-.25-.05-.47-.12-.67-.21v-.44c.2.1.43.18.69.24.26.06.54.09.84.09.46,0,.81-.12,1.03-.37.22-.25.33-.58.33-1v-.25c0-.11,0-.22,0-.34,0-.11.01-.22.02-.33h-.02c-.12.28-.3.49-.54.62s-.54.21-.88.21c-.55,0-.99-.19-1.29-.56-.31-.37-.46-.91-.46-1.62s.15-1.23.46-1.64.75-.6,1.34-.6ZM266.25,164.37c-.46,0-.8.16-1.03.48-.23.32-.34.78-.34,1.36s.11,1.02.34,1.33c.23.3.56.46.99.46.35,0,.63-.07.83-.22s.34-.34.43-.59c.08-.25.13-.54.13-.86v-.27c0-.54-.1-.96-.3-1.26-.2-.29-.55-.44-1.04-.44Z"/>
      <path d="M271.27,163.98c.22,0,.42.02.58.07l-.06.42c-.09-.02-.17-.04-.26-.05-.09-.01-.18-.02-.27-.02-.4,0-.71.14-.93.43-.23.29-.34.67-.34,1.14v2.34h-.46v-4.26h.38l.05.8h.02c.11-.24.27-.45.48-.62.22-.17.48-.26.8-.26Z"/>
      <path d="M272.99,162.47c.21,0,.32.11.32.34s-.11.35-.32.35-.3-.12-.3-.35.1-.34.3-.34ZM273.22,164.05v4.26h-.45v-4.26h.45Z"/>
      <path d="M274.33,166.35v-.42h1.94v.42h-1.94Z"/>
      <path d="M277.94,168.31h-.46v-5.71h3.14v.42h-2.67v2.35h2.53v.42h-2.53v2.53Z"/>
      <path d="M285.07,166.18c0,.44-.07.83-.22,1.16-.15.33-.36.59-.65.77-.29.18-.63.28-1.04.28s-.73-.09-1.02-.27-.5-.44-.65-.77-.23-.72-.23-1.17c0-.69.17-1.23.52-1.62.34-.39.81-.58,1.41-.58.41,0,.75.09,1.03.28.28.18.49.44.64.77.14.33.22.72.22,1.16ZM281.74,166.18c0,.54.11.98.34,1.32.23.33.59.5,1.08.5s.86-.17,1.09-.5c.23-.33.35-.77.35-1.32,0-.35-.05-.66-.14-.94s-.25-.49-.46-.64c-.21-.15-.48-.23-.82-.23-.49,0-.85.16-1.09.48-.24.32-.36.76-.36,1.33Z"/>
      <path d="M289.88,166.18c0,.44-.07.83-.22,1.16-.15.33-.36.59-.65.77-.29.18-.63.28-1.04.28s-.73-.09-1.02-.27-.5-.44-.65-.77-.23-.72-.23-1.17c0-.69.17-1.23.52-1.62.34-.39.81-.58,1.41-.58.41,0,.75.09,1.03.28.28.18.49.44.64.77.14.33.22.72.22,1.16ZM286.54,166.18c0,.54.11.98.34,1.32.23.33.59.5,1.08.5s.86-.17,1.09-.5c.23-.33.35-.77.35-1.32,0-.35-.05-.66-.14-.94s-.25-.49-.46-.64c-.21-.15-.48-.23-.82-.23-.49,0-.85.16-1.09.48-.24.32-.36.76-.36,1.33Z"/>
      <path d="M292.66,168.39c-.57,0-1.01-.18-1.32-.55s-.46-.9-.46-1.61.16-1.3.48-1.68c.32-.38.77-.58,1.33-.58.36,0,.65.08.87.23s.39.35.5.58h.03c0-.13-.01-.27-.02-.42,0-.15-.01-.29-.01-.41v-1.73h.46v6.08h-.37l-.06-.74h-.02c-.11.22-.28.42-.5.58-.22.16-.53.24-.9.24ZM292.71,167.99c.49,0,.84-.15,1.05-.45.21-.3.31-.73.31-1.29v-.08c0-.59-.1-1.04-.31-1.35s-.55-.47-1.02-.47-.81.16-1.04.48c-.23.32-.35.78-.35,1.38s.11,1.02.34,1.32c.22.3.56.45,1.02.45Z"/>
    </g>
  </g>
  <g>
    <path class="cls-9" d="M315.09,165.44c0,.43-.08.83-.24,1.22-.16.38-.39.73-.7,1.04-.3.3-.64.53-1.03.69-.39.16-.79.24-1.22.24s-.84-.08-1.23-.24c-.39-.16-.73-.39-1.03-.69-.31-.31-.54-.65-.7-1.04-.16-.38-.24-.79-.24-1.22s.08-.83.24-1.22.39-.73.7-1.04c.3-.3.64-.53,1.03-.69.39-.16.79-.24,1.22-.24s.83.08,1.22.24c.38.16.73.39,1.04.7.31.31.53.65.7,1.04.16.39.24.79.24,1.22Z"/>
    <g>
      <path d="M323.11,165.44c0,.58-.1,1.09-.29,1.54-.19.44-.48.79-.86,1.04-.38.25-.85.37-1.42.37s-1.05-.12-1.44-.37c-.38-.25-.67-.59-.86-1.04-.19-.45-.28-.96-.28-1.54s.1-1.09.29-1.53c.19-.44.49-.78.87-1.03.39-.25.87-.37,1.44-.37s1.01.12,1.39.36.66.57.86,1.01c.2.44.3.96.3,1.57ZM318.45,165.44c0,.51.07.95.22,1.33.15.38.38.68.69.89.31.21.7.32,1.18.32s.87-.1,1.18-.32c.31-.21.53-.51.68-.88.15-.38.22-.82.22-1.34,0-.79-.17-1.41-.52-1.85-.34-.45-.86-.67-1.54-.67-.48,0-.87.1-1.18.32-.31.21-.55.51-.7.88-.15.38-.23.82-.23,1.32Z"/>
      <path d="M325.6,168c.12,0,.23,0,.34-.03.11-.02.2-.04.28-.07v.37c-.09.03-.19.06-.3.08-.11.02-.24.03-.38.03-.35,0-.62-.1-.82-.3-.19-.2-.29-.52-.29-.96v-2.7h-.63v-.26l.63-.14.16-.98h.29v1.02h1.31v.37h-1.31v2.69c0,.6.24.9.72.9Z"/>
      <path d="M327.66,162.23v1.95c0,.21,0,.42-.02.61h.03c.11-.23.28-.43.53-.58.25-.15.55-.23.91-.23.49,0,.86.13,1.12.38s.39.64.39,1.18v2.78h-.46v-2.75c0-.41-.09-.7-.28-.9s-.45-.29-.81-.29c-.94,0-1.41.54-1.41,1.62v2.32h-.45v-6.08h.45Z"/>
      <path d="M333.68,163.97c.36,0,.67.08.91.25s.43.4.55.69c.12.29.18.63.18,1.01v.32h-3.04c0,.56.13.99.39,1.29s.64.45,1.13.45c.27,0,.5-.02.7-.06.2-.04.41-.12.65-.22v.42c-.21.1-.42.17-.63.21-.21.04-.45.06-.73.06-.63,0-1.12-.19-1.46-.58s-.51-.92-.51-1.59c0-.43.07-.82.22-1.16.15-.34.36-.6.64-.8.28-.19.61-.29,1.01-.29ZM333.68,164.35c-.39,0-.71.13-.95.39s-.39.63-.43,1.11h2.55c0-.45-.09-.81-.28-1.09-.19-.28-.49-.42-.89-.42Z"/>
      <path d="M338.32,163.98c.22,0,.42.02.58.07l-.06.42c-.09-.02-.17-.04-.26-.05-.09-.01-.18-.02-.27-.02-.4,0-.71.14-.93.43-.23.29-.34.67-.34,1.14v2.34h-.46v-4.26h.38l.05.8h.02c.11-.24.27-.45.48-.62.22-.17.48-.26.8-.26Z"/>
      <path d="M342.48,167.18c0,.39-.14.69-.43.9-.29.21-.69.31-1.22.31-.3,0-.56-.03-.79-.08s-.42-.12-.57-.19v-.44c.19.1.4.17.64.24.24.06.49.09.74.09.42,0,.72-.07.9-.21.19-.14.28-.33.28-.58s-.1-.41-.29-.54c-.19-.12-.49-.25-.88-.39-.26-.09-.49-.18-.69-.27-.2-.09-.36-.21-.47-.36-.11-.15-.17-.35-.17-.6,0-.34.14-.61.42-.8.28-.19.65-.29,1.11-.29.26,0,.49.03.72.08.22.05.42.11.6.19l-.16.38c-.17-.07-.35-.14-.56-.18-.21-.05-.42-.07-.62-.07-.34,0-.6.06-.78.18-.19.12-.28.29-.28.51,0,.17.05.31.14.4.09.1.22.18.39.26.17.07.38.15.62.24.25.09.48.18.68.27.21.1.37.22.49.37.12.15.18.35.18.6Z"/>
      <path d="M345.43,166.11c0-.68.1-1.33.3-1.93.2-.6.49-1.13.87-1.59h.46c-.39.49-.68,1.04-.88,1.64-.19.6-.29,1.23-.29,1.88s.1,1.26.29,1.85c.19.59.48,1.13.87,1.62h-.46c-.38-.46-.67-.98-.87-1.57-.2-.59-.3-1.22-.3-1.89Z"/>
      <path d="M348.35,162.47c.21,0,.32.11.32.34s-.11.35-.32.35-.3-.12-.3-.35.1-.34.3-.34ZM348.57,164.05v4.26h-.45v-4.26h.45Z"/>
      <path d="M351.97,163.97c.49,0,.86.13,1.11.38.26.25.38.64.38,1.18v2.78h-.46v-2.75c0-.41-.09-.7-.28-.9s-.45-.29-.81-.29c-.94,0-1.41.54-1.41,1.62v2.32h-.45v-4.26h.37l.06.74h.03c.11-.23.29-.43.53-.58.24-.15.54-.23.91-.23Z"/>
      <path d="M356.63,168.39c-.62,0-1.11-.19-1.44-.57-.34-.38-.51-.92-.51-1.61,0-.47.08-.88.26-1.21s.41-.59.72-.76c.31-.17.66-.26,1.07-.26.21,0,.4.02.58.06.18.04.34.09.48.15l-.13.4c-.3-.13-.61-.2-.93-.2-.5,0-.89.16-1.16.49s-.41.77-.41,1.33.12.97.36,1.3c.24.33.61.5,1.11.5.21,0,.41-.02.6-.06.19-.04.35-.1.5-.17v.41c-.14.07-.3.12-.48.16s-.39.06-.62.06Z"/>
      <path d="M359.27,168.31h-.46v-6.08h.46v6.08Z"/>
      <path d="M364.11,164.05v4.26h-.38l-.06-.73h-.02c-.12.23-.3.42-.54.58-.24.15-.54.23-.91.23-1,0-1.5-.52-1.5-1.55v-2.78h.46v2.75c0,.41.09.71.27.9s.45.29.82.29c.94,0,1.41-.54,1.41-1.62v-2.32h.46Z"/>
      <path d="M367.15,168.39c-.57,0-1.01-.18-1.32-.55s-.46-.9-.46-1.61.16-1.3.48-1.68c.32-.38.77-.58,1.33-.58.36,0,.65.08.87.23s.39.35.5.58h.03c0-.13-.01-.27-.02-.42,0-.15-.01-.29-.01-.41v-1.73h.46v6.08h-.37l-.06-.74h-.02c-.11.22-.28.42-.5.58-.22.16-.53.24-.9.24ZM367.2,167.99c.49,0,.84-.15,1.05-.45.21-.3.31-.73.31-1.29v-.08c0-.59-.1-1.04-.31-1.35s-.55-.47-1.02-.47-.81.16-1.04.48c-.23.32-.35.78-.35,1.38s.11,1.02.34,1.32c.22.3.56.45,1.02.45Z"/>
      <path d="M370.72,162.47c.21,0,.32.11.32.34s-.11.35-.32.35-.3-.12-.3-.35.1-.34.3-.34ZM370.95,164.05v4.26h-.45v-4.26h.45Z"/>
      <path d="M374.35,163.97c.49,0,.86.13,1.11.38.26.25.38.64.38,1.18v2.78h-.46v-2.75c0-.41-.09-.7-.28-.9s-.45-.29-.81-.29c-.94,0-1.41.54-1.41,1.62v2.32h-.45v-4.26h.37l.06.74h.03c.11-.23.29-.43.53-.58.24-.15.54-.23.91-.23Z"/>
      <path d="M378.85,163.97c.34,0,.61.06.84.19.22.13.4.31.53.54h.02l.07-.65h.37v4.39c0,.56-.14,1-.43,1.31-.29.31-.75.47-1.4.47-.32,0-.6-.03-.85-.08-.25-.05-.47-.12-.67-.21v-.44c.2.1.43.18.69.24.26.06.54.09.84.09.46,0,.81-.12,1.03-.37.22-.25.33-.58.33-1v-.25c0-.11,0-.22,0-.34,0-.11.01-.22.02-.33h-.02c-.12.28-.3.49-.54.62s-.54.21-.88.21c-.55,0-.99-.19-1.29-.56-.31-.37-.46-.91-.46-1.62s.15-1.23.46-1.64.75-.6,1.34-.6ZM378.9,164.37c-.46,0-.8.16-1.03.48-.23.32-.34.78-.34,1.36s.11,1.02.34,1.33c.23.3.56.46.99.46.35,0,.63-.07.83-.22s.34-.34.43-.59c.08-.25.13-.54.13-.86v-.27c0-.54-.1-.96-.3-1.26-.2-.29-.55-.44-1.04-.44Z"/>
      <path d="M386.87,162.93c-.47,0-.87.11-1.21.32-.34.21-.59.5-.77.88s-.27.81-.27,1.32.08.96.24,1.34c.16.38.4.67.72.88.32.21.72.31,1.2.31.28,0,.53-.02.76-.06s.45-.1.66-.16v.4c-.2.07-.42.13-.65.18-.24.04-.51.06-.82.06-.58,0-1.06-.12-1.44-.37-.39-.25-.68-.59-.87-1.03-.19-.44-.29-.96-.29-1.55s.11-1.07.32-1.51c.22-.44.53-.79.94-1.04.41-.25.9-.38,1.48-.38s1.06.11,1.5.32l-.18.4c-.42-.2-.86-.3-1.32-.3Z"/>
      <path d="M391.16,163.98c.22,0,.42.02.58.07l-.06.42c-.09-.02-.17-.04-.26-.05-.09-.01-.18-.02-.27-.02-.4,0-.71.14-.93.43-.23.29-.34.67-.34,1.14v2.34h-.46v-4.26h.38l.05.8h.02c.11-.24.27-.45.48-.62.22-.17.48-.26.8-.26Z"/>
      <path d="M394.27,163.97c.36,0,.67.08.91.25s.43.4.55.69c.12.29.18.63.18,1.01v.32h-3.04c0,.56.13.99.39,1.29s.64.45,1.13.45c.27,0,.5-.02.7-.06.2-.04.41-.12.65-.22v.42c-.21.1-.42.17-.63.21-.21.04-.45.06-.73.06-.63,0-1.12-.19-1.46-.58s-.51-.92-.51-1.59c0-.43.07-.82.22-1.16.15-.34.36-.6.64-.8.28-.19.61-.29,1.01-.29ZM394.27,164.35c-.39,0-.71.13-.95.39s-.39.63-.43,1.11h2.55c0-.45-.09-.81-.28-1.09-.19-.28-.49-.42-.89-.42Z"/>
      <path d="M398.69,168.39c-.57,0-1.01-.18-1.32-.55s-.46-.9-.46-1.61.16-1.3.48-1.68c.32-.38.77-.58,1.33-.58.36,0,.65.08.87.23s.39.35.5.58h.03c0-.13-.01-.27-.02-.42,0-.15-.01-.29-.01-.41v-1.73h.46v6.08h-.37l-.06-.74h-.02c-.11.22-.28.42-.5.58-.22.16-.53.24-.9.24ZM398.75,167.99c.49,0,.84-.15,1.05-.45.21-.3.31-.73.31-1.29v-.08c0-.59-.1-1.04-.31-1.35s-.55-.47-1.02-.47-.81.16-1.04.48c-.23.32-.35.78-.35,1.38s.11,1.02.34,1.32c.22.3.56.45,1.02.45Z"/>
      <path d="M402.27,162.47c.21,0,.32.11.32.34s-.11.35-.32.35-.3-.12-.3-.35.1-.34.3-.34ZM402.49,164.05v4.26h-.45v-4.26h.45Z"/>
      <path d="M405.19,168c.12,0,.23,0,.34-.03.11-.02.2-.04.28-.07v.37c-.09.03-.19.06-.3.08-.11.02-.24.03-.38.03-.35,0-.62-.1-.82-.3-.19-.2-.29-.52-.29-.96v-2.7h-.63v-.26l.63-.14.16-.98h.29v1.02h1.31v.37h-1.31v2.69c0,.6.24.9.72.9Z"/>
      <path d="M407.99,166.08c0,.68-.1,1.32-.3,1.92s-.49,1.12-.87,1.57h-.46c.39-.49.68-1.03.87-1.62.19-.59.29-1.21.29-1.86s-.1-1.27-.29-1.86c-.19-.59-.49-1.13-.88-1.62h.46c.38.46.67.99.87,1.58.2.59.3,1.23.3,1.9Z"/>
    </g>
  </g>
  <rect class="cls-1" x="81.37" y="145.03" width="264.75" height="12.64"/>
  <rect class="cls-1" x="79.01" y="155.47" width="19.64" height="6.77"/>
  <g>
    <path class="cls-10" d="M250.33,63.98c0,1.14-.41,2.03-1.24,2.66-.83.64-1.94.95-3.35.95-.72,0-1.39-.05-2-.16-.61-.11-1.12-.26-1.53-.45v-1.55c.43.19.97.37,1.61.52.64.16,1.31.23,1.99.23.95,0,1.67-.19,2.16-.56.49-.37.74-.88.74-1.51,0-.42-.09-.77-.27-1.06s-.49-.55-.94-.79c-.44-.24-1.05-.5-1.82-.79-1.1-.4-1.93-.88-2.48-1.46-.55-.58-.83-1.36-.83-2.36,0-.67.17-1.25.52-1.75.35-.49.83-.87,1.44-1.13.61-.26,1.33-.4,2.14-.4.7,0,1.34.07,1.93.2.59.13,1.13.31,1.62.52l-.5,1.39c-.44-.19-.93-.35-1.46-.49-.53-.13-1.07-.2-1.62-.2-.8,0-1.41.17-1.82.51-.41.34-.61.8-.61,1.36,0,.43.09.79.27,1.08.18.29.47.55.88.78.41.23.96.48,1.66.73.76.28,1.4.57,1.92.89s.92.7,1.19,1.14.41,1,.41,1.67Z"/>
    <path class="cls-10" d="M255.73,68.46v-1.93c-.66-.01-1.3-.07-1.93-.17-.62-.1-1.13-.24-1.51-.42v-1.53c.41.19.93.36,1.57.5.64.14,1.26.22,1.87.23v-3.64c-1.19-.32-2.06-.73-2.61-1.22s-.83-1.16-.83-2.02.31-1.58.93-2.09,1.46-.79,2.51-.85v-1.58h1.15v1.57c.64.02,1.21.1,1.74.22s1,.27,1.43.45l-.49,1.33c-.38-.16-.81-.29-1.27-.4-.46-.11-.93-.19-1.41-.23v3.62c.79.23,1.45.47,1.98.73.53.26.93.58,1.2.95.27.38.41.87.41,1.47,0,.84-.31,1.52-.94,2.04-.62.52-1.51.84-2.65.96v2h-1.15ZM255.73,59.92v-3.19c-.65.05-1.12.2-1.43.45s-.46.58-.46.97c0,.48.13.85.4,1.11.27.26.77.48,1.49.66ZM256.88,65.06c.71-.07,1.22-.24,1.55-.5.32-.26.49-.59.49-1,0-.46-.14-.8-.43-1.03s-.82-.44-1.6-.65v3.17Z"/>
    <path class="cls-10" d="M267.86,67.42h-1.55v-8.98c0-.52,0-.93.02-1.24.01-.31.03-.64.05-.97-.19.19-.37.35-.53.49-.16.13-.36.3-.58.5l-1.37,1.12-.83-1.06,3.47-2.7h1.31v12.85Z"/>
    <path class="cls-10" d="M276.72,59.54c1.31,0,2.35.33,3.14.99.79.66,1.18,1.59,1.18,2.79,0,1.33-.42,2.38-1.27,3.14s-2.02,1.14-3.54,1.14c-.67,0-1.3-.06-1.87-.18-.58-.12-1.06-.29-1.46-.52v-1.49c.43.26.96.47,1.58.62.62.15,1.21.23,1.77.23.95,0,1.71-.23,2.29-.68.58-.45.87-1.15.87-2.1,0-.84-.26-1.48-.77-1.94-.52-.45-1.33-.67-2.45-.67-.34,0-.72.03-1.15.09-.43.06-.78.12-1.04.18l-.79-.5.49-6.07h6.44v1.44h-5.09l-.31,3.73c.2-.04.48-.08.83-.13.35-.05.73-.07,1.15-.07Z"/>
    <path class="cls-10" d="M287.01,59.54c1.31,0,2.35.33,3.14.99.79.66,1.18,1.59,1.18,2.79,0,1.33-.42,2.38-1.27,3.14s-2.02,1.14-3.54,1.14c-.67,0-1.3-.06-1.87-.18-.58-.12-1.06-.29-1.46-.52v-1.49c.43.26.96.47,1.58.62.62.15,1.21.23,1.77.23.95,0,1.71-.23,2.29-.68.58-.45.87-1.15.87-2.1,0-.84-.26-1.48-.77-1.94-.52-.45-1.33-.67-2.45-.67-.34,0-.72.03-1.15.09-.43.06-.78.12-1.04.18l-.79-.5.49-6.07h6.44v1.44h-5.09l-.31,3.73c.2-.04.48-.08.83-.13.35-.05.73-.07,1.15-.07Z"/>
    <path class="cls-10" d="M295.47,53.74v3.33c0,.41,0,.79-.03,1.14s-.04.63-.06.84h.09c.28-.41.65-.75,1.13-1.03.48-.28,1.1-.41,1.85-.41,1.2,0,2.16.42,2.89,1.25.73.83,1.09,2.08,1.09,3.73s-.37,2.9-1.1,3.74c-.73.84-1.69,1.26-2.88,1.26-.76,0-1.37-.14-1.85-.41s-.86-.61-1.13-.99h-.13l-.32,1.22h-1.13v-13.68h1.58ZM298.19,58.92c-1.03,0-1.74.29-2.13.88-.39.59-.59,1.5-.59,2.74v.07c0,1.19.2,2.1.59,2.73.39.63,1.11.95,2.17.95.86,0,1.51-.32,1.94-.95.43-.64.64-1.55.64-2.75,0-2.44-.87-3.65-2.61-3.65Z"/>
    <path class="cls-10" d="M251.25,74.4h1.98v2.8c-.31.1-.62.18-.94.22-.31.05-.67.07-1.07.07-.59,0-1.09-.12-1.5-.36s-.71-.58-.92-1.02c-.21-.44-.32-.96-.32-1.56s.12-1.11.35-1.55c.23-.44.57-.78,1.01-1.02.44-.24.98-.36,1.6-.36.32,0,.62.03.91.09.29.06.55.14.8.25l-.27.62c-.2-.09-.43-.16-.68-.23-.25-.07-.52-.1-.79-.1-.68,0-1.21.21-1.6.62-.38.41-.57.97-.57,1.68,0,.45.07.85.22,1.2.15.35.38.62.69.82.31.19.73.29,1.24.29.25,0,.46-.01.64-.04.18-.03.34-.06.48-.1v-1.7h-1.26v-.64Z"/>
    <path class="cls-10" d="M255.2,77.42h-.7v-6.08h.7v6.08Z"/>
    <path class="cls-10" d="M260.29,75.27c0,.71-.18,1.26-.54,1.65-.36.39-.85.58-1.46.58-.38,0-.72-.09-1.01-.26-.3-.17-.53-.43-.7-.76-.17-.33-.26-.74-.26-1.21,0-.71.18-1.26.53-1.64.35-.38.84-.58,1.46-.58.38,0,.73.09,1.02.26.3.17.53.42.7.75.17.33.25.73.25,1.2ZM257.05,75.27c0,.51.1.91.3,1.2.2.3.52.44.96.44s.75-.15.95-.44c.2-.3.3-.7.3-1.2s-.1-.9-.3-1.19c-.2-.29-.52-.43-.96-.43s-.75.14-.95.43c-.2.29-.3.69-.3,1.19Z"/>
    <path class="cls-10" d="M262.11,71.34v1.48c0,.18,0,.35-.01.51,0,.16-.02.28-.03.37h.04c.12-.18.29-.33.5-.46.21-.12.49-.18.82-.18.53,0,.96.19,1.28.56.32.37.48.92.48,1.66s-.16,1.29-.49,1.66c-.33.37-.75.56-1.28.56-.34,0-.61-.06-.82-.18-.21-.12-.38-.27-.5-.44h-.06l-.14.54h-.5v-6.08h.7ZM263.32,73.65c-.46,0-.77.13-.95.39s-.26.67-.26,1.22v.03c0,.53.09.93.26,1.21.17.28.49.42.96.42.38,0,.67-.14.86-.42.19-.28.28-.69.28-1.22,0-1.08-.39-1.62-1.16-1.62Z"/>
    <path class="cls-10" d="M267.95,73.06c.52,0,.91.11,1.16.34.25.23.38.59.38,1.1v2.92h-.51l-.14-.61h-.03c-.19.23-.38.41-.59.52-.21.11-.49.17-.85.17-.39,0-.71-.1-.97-.31-.26-.21-.38-.53-.38-.96s.17-.76.5-.99.85-.36,1.55-.38l.73-.02v-.26c0-.36-.08-.61-.23-.74s-.37-.21-.66-.21c-.22,0-.44.03-.64.1-.2.07-.39.14-.57.23l-.22-.53c.19-.1.41-.19.66-.26.26-.07.52-.11.8-.11ZM268.79,75.32l-.63.02c-.53.02-.9.11-1.11.26-.21.15-.31.36-.31.63,0,.24.07.42.22.53.15.11.33.17.56.17.36,0,.66-.1.9-.3.24-.2.36-.51.36-.92v-.38Z"/>
    <path class="cls-10" d="M271.52,77.42h-.7v-6.08h.7v6.08Z"/>
    <path class="cls-10" d="M279.63,74.51c0,.97-.26,1.69-.79,2.18-.53.49-1.26.73-2.2.73h-1.59v-5.71h1.76c.57,0,1.07.11,1.49.32.42.21.75.53.98.94.23.42.34.93.34,1.54ZM278.87,74.53c0-.76-.19-1.32-.56-1.68s-.91-.53-1.6-.53h-.94v4.48h.78c1.55,0,2.32-.76,2.32-2.27Z"/>
    <path class="cls-10" d="M281.16,71.52c.11,0,.2.04.28.11.08.07.12.19.12.34s-.04.27-.12.34c-.08.07-.18.11-.28.11-.12,0-.22-.04-.3-.11-.08-.07-.12-.19-.12-.34s.04-.27.12-.34c.08-.07.18-.11.3-.11ZM281.5,73.13v4.29h-.7v-4.29h.7Z"/>
    <path class="cls-10" d="M284.86,73.05c.08,0,.17,0,.26.01s.17.02.25.04l-.09.65c-.07-.02-.15-.03-.23-.04-.08-.01-.16-.02-.23-.02-.22,0-.42.06-.62.18-.19.12-.35.29-.46.5-.11.22-.17.47-.17.76v2.29h-.7v-4.29h.58l.08.78h.03c.13-.23.31-.44.53-.61.22-.17.48-.26.78-.26Z"/>
    <path class="cls-10" d="M287.82,73.05c.36,0,.68.08.94.24s.47.39.61.68c.14.29.21.63.21,1.02v.42h-2.94c.01.49.13.85.37,1.11s.57.38,1,.38c.27,0,.51-.03.72-.08.21-.05.43-.12.65-.22v.62c-.22.1-.44.17-.65.21-.21.04-.47.07-.76.07-.41,0-.77-.08-1.08-.25-.31-.17-.55-.41-.72-.74-.17-.33-.26-.73-.26-1.21s.08-.87.24-1.21.38-.59.66-.78c.29-.18.62-.27,1-.27ZM287.81,73.63c-.34,0-.6.11-.8.32-.19.22-.31.52-.35.9h2.18c0-.36-.09-.66-.26-.88-.17-.23-.43-.34-.78-.34Z"/>
    <path class="cls-10" d="M292.4,77.5c-.38,0-.72-.08-1.02-.23-.29-.15-.52-.39-.69-.72-.17-.33-.25-.74-.25-1.25s.09-.96.26-1.29c.17-.33.41-.57.72-.73.3-.15.65-.23,1.03-.23.21,0,.42.02.63.07.21.05.37.1.5.16l-.22.58c-.13-.05-.28-.09-.45-.14-.17-.04-.33-.06-.48-.06-.84,0-1.26.54-1.26,1.62,0,.52.1.91.31,1.19.21.27.51.41.92.41.23,0,.43-.02.62-.07.18-.05.35-.11.5-.18v.62c-.14.07-.3.13-.48.17s-.38.06-.63.06Z"/>
    <path class="cls-10" d="M295.95,76.92c.11,0,.22,0,.33-.02s.2-.04.27-.06v.54c-.07.04-.18.07-.32.09s-.27.04-.4.04c-.22,0-.43-.04-.62-.12-.19-.08-.34-.21-.46-.4-.12-.19-.18-.46-.18-.81v-2.5h-.61v-.34l.62-.28.28-.91h.42v.98h1.24v.54h-1.24v2.48c0,.26.06.46.19.58.13.13.29.19.48.19Z"/>
    <path class="cls-10" d="M251.44,87.42h-2.06v-.42l.67-.15v-4.57l-.67-.16v-.42h2.06v.42l-.67.16v4.57l.67.15v.42Z"/>
    <path class="cls-10" d="M254.51,83.05c.51,0,.9.13,1.16.38.26.25.39.65.39,1.2v2.79h-.7v-2.74c0-.69-.32-1.03-.96-1.03-.48,0-.8.13-.98.4-.18.27-.27.65-.27,1.15v2.22h-.7v-4.29h.57l.1.58h.04c.14-.22.33-.39.58-.5.25-.11.5-.16.78-.16Z"/>
    <path class="cls-10" d="M258.34,87.42l-1.62-4.29h.75l.91,2.53c.04.12.09.25.14.39.05.14.09.28.13.42.04.13.06.24.08.33h.03c.02-.09.05-.2.09-.33.04-.14.09-.27.14-.42.05-.14.09-.27.14-.39l.91-2.53h.75l-1.63,4.29h-.81Z"/>
    <path class="cls-10" d="M263.11,83.05c.36,0,.68.08.94.24s.47.39.61.68c.14.29.21.63.21,1.02v.42h-2.94c.01.49.13.85.37,1.11s.57.38,1,.38c.27,0,.51-.03.72-.08.21-.05.43-.12.65-.22v.62c-.22.1-.44.17-.65.21-.21.04-.47.07-.76.07-.41,0-.77-.08-1.08-.25-.31-.17-.55-.41-.72-.74-.17-.33-.26-.73-.26-1.21s.08-.87.24-1.21.38-.59.66-.78c.29-.18.62-.27,1-.27ZM263.1,83.63c-.34,0-.6.11-.8.32-.19.22-.31.52-.35.9h2.18c0-.36-.09-.66-.26-.88-.17-.23-.43-.34-.78-.34Z"/>
    <path class="cls-10" d="M268.76,86.24c0,.42-.15.73-.46.94-.31.21-.73.32-1.25.32-.3,0-.56-.02-.77-.07-.22-.05-.41-.11-.57-.2v-.64c.17.09.38.16.62.24.24.07.49.11.74.11.36,0,.62-.06.78-.17.16-.11.24-.27.24-.46,0-.11-.03-.2-.09-.29-.06-.08-.16-.17-.32-.26-.15-.08-.37-.18-.65-.29-.28-.11-.51-.21-.71-.32-.2-.11-.35-.23-.46-.38-.11-.15-.16-.34-.16-.58,0-.36.15-.64.44-.84s.68-.3,1.16-.3c.26,0,.51.03.73.08s.44.12.64.21l-.24.56c-.18-.07-.37-.14-.57-.19-.2-.05-.4-.08-.61-.08-.29,0-.51.05-.66.14-.15.09-.23.22-.23.38,0,.12.03.22.1.3.07.08.19.16.35.24.16.08.38.17.65.27.27.1.5.21.7.31.19.11.34.24.44.39.1.15.15.34.15.57Z"/>
    <path class="cls-10" d="M271.23,86.92c.11,0,.22,0,.33-.02s.2-.04.27-.06v.54c-.07.04-.18.07-.32.09s-.27.04-.4.04c-.22,0-.43-.04-.62-.12-.19-.08-.34-.21-.46-.4-.12-.19-.18-.46-.18-.81v-2.5h-.61v-.34l.62-.28.28-.91h.42v.98h1.24v.54h-1.24v2.48c0,.26.06.46.19.58.13.13.29.19.48.19Z"/>
    <path class="cls-10" d="M277.39,83.05c.49,0,.85.13,1.09.38.24.25.36.65.36,1.2v2.79h-.7v-2.76c0-.68-.29-1.02-.87-1.02-.42,0-.71.12-.89.36-.18.24-.27.59-.27,1.05v2.37h-.7v-2.76c0-.68-.29-1.02-.88-1.02-.43,0-.73.13-.9.4-.17.27-.25.65-.25,1.15v2.22h-.7v-4.29h.57l.1.58h.04c.13-.22.31-.39.54-.5.23-.11.47-.16.72-.16.67,0,1.11.24,1.31.72h.04c.14-.25.34-.43.58-.54.25-.12.51-.18.79-.18Z"/>
    <path class="cls-10" d="M281.82,83.05c.36,0,.68.08.94.24s.47.39.61.68c.14.29.21.63.21,1.02v.42h-2.94c.01.49.13.85.37,1.11s.57.38,1,.38c.27,0,.51-.03.72-.08.21-.05.43-.12.65-.22v.62c-.22.1-.44.17-.65.21-.21.04-.47.07-.76.07-.41,0-.77-.08-1.08-.25-.31-.17-.55-.41-.72-.74-.17-.33-.26-.73-.26-1.21s.08-.87.24-1.21.38-.59.66-.78c.29-.18.62-.27,1-.27ZM281.82,83.63c-.34,0-.6.11-.8.32-.19.22-.31.52-.35.9h2.18c0-.36-.09-.66-.26-.88-.17-.23-.43-.34-.78-.34Z"/>
    <path class="cls-10" d="M286.74,83.05c.51,0,.9.13,1.16.38.26.25.39.65.39,1.2v2.79h-.7v-2.74c0-.69-.32-1.03-.96-1.03-.48,0-.8.13-.98.4-.18.27-.27.65-.27,1.15v2.22h-.7v-4.29h.57l.1.58h.04c.14-.22.33-.39.58-.5.25-.11.5-.16.78-.16Z"/>
    <path class="cls-10" d="M291.06,86.92c.11,0,.22,0,.33-.02s.2-.04.27-.06v.54c-.07.04-.18.07-.32.09s-.27.04-.4.04c-.22,0-.43-.04-.62-.12-.19-.08-.34-.21-.46-.4-.12-.19-.18-.46-.18-.81v-2.5h-.61v-.34l.62-.28.28-.91h.42v.98h1.24v.54h-1.24v2.48c0,.26.06.46.19.58.13.13.29.19.48.19Z"/>
    <path class="cls-10" d="M295.3,86.24c0,.42-.15.73-.46.94-.31.21-.73.32-1.25.32-.3,0-.56-.02-.77-.07-.22-.05-.41-.11-.57-.2v-.64c.17.09.38.16.62.24.24.07.49.11.74.11.36,0,.62-.06.78-.17.16-.11.24-.27.24-.46,0-.11-.03-.2-.09-.29-.06-.08-.16-.17-.32-.26-.15-.08-.37-.18-.65-.29-.28-.11-.51-.21-.71-.32-.2-.11-.35-.23-.46-.38-.11-.15-.16-.34-.16-.58,0-.36.15-.64.44-.84s.68-.3,1.16-.3c.26,0,.51.03.73.08s.44.12.64.21l-.24.56c-.18-.07-.37-.14-.57-.19-.2-.05-.4-.08-.61-.08-.29,0-.51.05-.66.14-.15.09-.23.22-.23.38,0,.12.03.22.1.3.07.08.19.16.35.24.16.08.38.17.65.27.27.1.5.21.7.31.19.11.34.24.44.39.1.15.15.34.15.57Z"/>
  </g>
  <rect class="cls-1" x="222.58" y="62.61" width="19.67" height="18.71"/>
  <rect class="cls-1" x="263.63" y="20.83" width="19.67" height="32.91"/>
  <rect class="cls-1" x="263.63" y="87.42" width="19.67" height="32.91"/>
  <rect class="cls-1" x="302.41" y="62.61" width="19.67" height="18.71"/>
  <g>
    <path class="cls-12" d="M327.47,39.76c0,.35-.1.62-.31.83-.21.21-.46.35-.77.42v.02c.4.05.7.17.91.37s.31.46.31.78c0,.29-.07.55-.21.78-.14.23-.36.41-.66.55-.3.13-.68.2-1.14.2-.54,0-1.02-.09-1.44-.27v-.9c.21.11.44.19.67.25.23.06.45.08.66.08.38,0,.64-.07.79-.2s.23-.32.23-.55c0-.14-.04-.25-.11-.35-.07-.1-.19-.17-.37-.22-.17-.05-.42-.07-.73-.07h-.38v-.81h.38c.31,0,.54-.03.7-.09.16-.06.27-.14.33-.24.06-.1.09-.22.09-.35,0-.18-.05-.32-.16-.42-.11-.1-.29-.15-.55-.15-.24,0-.45.04-.62.13-.18.08-.32.16-.44.24l-.49-.73c.2-.14.43-.26.69-.35.26-.09.58-.14.94-.14.51,0,.92.1,1.22.31.3.21.45.5.45.88Z"/>
    <path class="cls-12" d="M330.27,40.45c.3,0,.57.06.81.17s.43.29.56.51.21.5.21.83c0,.54-.17.97-.5,1.28s-.83.47-1.49.47c-.26,0-.51-.02-.74-.07-.23-.05-.43-.11-.61-.2v-.91c.17.09.38.17.62.23.24.06.47.09.69.09.31,0,.55-.06.72-.19.17-.13.25-.33.25-.6,0-.5-.33-.76-1-.76-.13,0-.27.01-.41.04s-.26.05-.35.07l-.42-.22.19-2.55h2.71v.9h-1.79l-.09.98c.08-.01.17-.03.26-.05.09-.02.22-.02.38-.02Z"/>
  </g>
  <g>
    <path class="cls-12" d="M291.86,132.89h-3.49v-.74l1.25-1.27c.25-.26.46-.48.61-.66.15-.17.27-.33.34-.48.07-.14.11-.3.11-.46,0-.2-.05-.35-.16-.45-.11-.1-.26-.15-.45-.15s-.38.04-.56.13c-.18.09-.37.21-.57.38l-.57-.68c.14-.12.29-.24.46-.35.16-.11.35-.2.56-.27.21-.07.47-.1.77-.1.33,0,.61.06.84.18.24.12.42.28.55.48.13.2.19.43.19.69,0,.28-.05.53-.16.76-.11.23-.27.46-.48.68-.21.22-.46.47-.75.74l-.64.6v.05h2.18v.89Z"/>
    <path class="cls-12" d="M295.17,132.89h-1.06v-2.89c0-.12,0-.27,0-.47,0-.2.01-.37.02-.52-.02.03-.07.08-.15.15-.08.07-.15.14-.21.19l-.57.46-.51-.64,1.61-1.28h.87v5Z"/>
  </g>
  <g>
    <path class="cls-12" d="M225.88,116.39h-1.06v-2.89c0-.12,0-.27,0-.47,0-.2.01-.37.02-.52-.02.03-.07.08-.15.15-.08.07-.15.14-.21.19l-.57.46-.51-.64,1.61-1.28h.87v5Z"/>
    <path class="cls-12" d="M230.86,115.36h-.6v1.04h-1.03v-1.04h-2.13v-.74l2.19-3.23h.97v3.14h.6v.82ZM229.23,114.54v-.85c0-.11,0-.24,0-.39s.01-.3.02-.43c0-.13.01-.22.02-.26h-.03c-.04.09-.09.18-.14.27-.05.09-.1.18-.17.27l-.92,1.39h1.2Z"/>
  </g>
  <g>
    <path class="cls-12" d="M209.14,64.79h-1.06v-2.89c0-.12,0-.27,0-.47,0-.2.01-.37.02-.52-.02.03-.07.08-.15.15-.08.07-.15.14-.21.19l-.57.46-.51-.64,1.61-1.28h.87v5Z"/>
    <path class="cls-12" d="M214.11,63.75h-.6v1.04h-1.03v-1.04h-2.13v-.74l2.19-3.23h.97v3.14h.6v.82ZM212.48,62.93v-.85c0-.11,0-.24,0-.39s.01-.3.02-.43c0-.13.01-.22.02-.26h-.03c-.04.09-.09.18-.14.27-.05.09-.1.18-.17.27l-.92,1.39h1.2Z"/>
  </g>
  <g>
    <path class="cls-12" d="M237.83,19.97h-1.06v-2.89c0-.12,0-.27,0-.47,0-.2.01-.37.02-.52-.02.03-.07.08-.15.15-.08.07-.15.14-.21.19l-.57.46-.51-.64,1.61-1.28h.87v5Z"/>
    <path class="cls-12" d="M242.81,18.93h-.6v1.04h-1.03v-1.04h-2.13v-.74l2.19-3.23h.97v3.14h.6v.82ZM241.18,18.11v-.85c0-.11,0-.24,0-.39s.01-.3.02-.43c0-.13.01-.22.02-.26h-.03c-.04.09-.09.18-.14.27-.05.09-.1.18-.17.27l-.92,1.39h1.2Z"/>
  </g>
  <path class="cls-12" d="M270.28,10.57h-3.49v-.74l1.25-1.27c.25-.26.46-.48.61-.66.15-.17.27-.33.34-.48.07-.14.11-.3.11-.46,0-.2-.05-.35-.16-.45-.11-.1-.26-.15-.45-.15s-.38.04-.56.13c-.18.09-.37.21-.57.38l-.57-.68c.14-.12.29-.24.46-.35.16-.11.35-.2.56-.27.21-.07.47-.1.77-.1.33,0,.61.06.84.18.24.12.42.28.55.48.13.2.19.43.19.69,0,.28-.05.53-.16.76-.11.23-.27.46-.48.68-.21.22-.46.47-.75.74l-.64.6v.05h2.18v.89Z"/>
  <line class="cls-1" x1="334.75" y1="37.56" x2="321.26" y2="44.73"/>
  <line class="cls-1" x1="294.03" y1="137.6" x2="289.48" y2="123.14"/>
  <line class="cls-1" x1="221.81" y1="118.93" x2="232.45" y2="108.84"/>
  <line class="cls-1" x1="203.26" y1="61.36" x2="217.53" y2="63.23"/>
  <line class="cls-1" x1="235.14" y1="11.24" x2="243.04" y2="23.67"/>
  <line class="cls-1" x1="268.03" y1=".66" x2="269.04" y2="15.4"/>
</svg>