<?xml version="1.0" encoding="UTF-8"?>
<svg id="Layer_1" xmlns="http://www.w3.org/2000/svg" xmlns:xlink="http://www.w3.org/1999/xlink" version="1.1" viewBox="0 0 682.8 592.2">
  <!-- Generator: Adobe Illustrator 29.6.0, SVG Export Plug-In . SVG Version: 2.1.1 Build 207)  -->
  <defs>
    <style>
      .st0, .st1, .st2, .st3, .st4, .st5, .st6, .st7 {
        fill: none;
      }

      .st1, .st2, .st4, .st6 {
        stroke-width: .9px;
      }

      .st1, .st3 {
        stroke: #12a639;
      }

      .st8 {
        fill: #c1adc3;
      }

      .st2, .st5 {
        stroke: #009ee4;
      }

      .st9 {
        fill: #fae0c7;
      }

      .st10 {
        fill: #0656a3;
      }

      .st11 {
        fill: #8b7099;
      }

      .st12 {
        fill: #009ee4;
      }

      .st13 {
        fill: #d50265;
      }

      .st4, .st7 {
        stroke: #633169;
      }

      .st14 {
        fill: #20b7e9;
      }

      .st15 {
        fill: #633169;
      }

      .st16 {
        clip-path: url(#clippath-1);
      }

      .st17 {
        clip-path: url(#clippath-3);
      }

      .st18 {
        clip-path: url(#clippath-4);
      }

      .st19 {
        clip-path: url(#clippath-2);
      }

      .st20 {
        fill: #1e9bd7;
      }

      .st21 {
        fill: #fff;
      }

      .st22 {
        fill: #fab60a;
      }

      .st23 {
        fill: #f0b072;
      }

      .st24 {
        fill: #12a639;
      }

      .st25 {
        fill: #f1901d;
      }

      .st6 {
        stroke: #fff;
      }

      .st26 {
        fill: #392152;
      }

      .st27 {
        fill: #006ba6;
      }

      .st28 {
        clip-path: url(#clippath);
      }

      .st29 {
        fill: #95ba28;
      }

      .st30 {
        fill: #ed710c;
      }
    </style>
    <clipPath id="clippath">
      <rect class="st0" x="32.4" y="89.9" width="82.3" height="49.8"/>
    </clipPath>
    <clipPath id="clippath-1">
      <rect class="st0" x="33.8" y="90.6" width="79.5" height="48.1"/>
    </clipPath>
    <clipPath id="clippath-2">
      <rect class="st0" x="32.4" y="89.9" width="82.3" height="49.8"/>
    </clipPath>
    <clipPath id="clippath-3">
      <rect class="st0" x="40.9" y="281.2" width="65.4" height="62.6"/>
    </clipPath>
    <clipPath id="clippath-4">
      <rect class="st0" x="39.2" y="473.7" width="68.7" height="65.6"/>
    </clipPath>
  </defs>
  <g>
    <path class="st7" d="M432.2,114.7h88.5c3.1,0,5.7,2.5,5.7,5.7v18.9c0,3.1,2.5,5.7,5.7,5.7h89.1"/>
    <path class="st5" d="M432.2,311.5h88.5c3.1,0,5.7,2.5,5.7,5.7v38.7c0,3.1,2.5,5.7,5.7,5.7h89.1"/>
    <path class="st3" d="M432.2,508.3h88.5c3.1,0,5.7,2.5,5.7,5.7v8.5c0,3.1,2.5,5.7,5.7,5.7h89.1"/>
  </g>
  <polygon class="st15" points="621.2 30.8 621.2 30.8 682.8 30.8 682.8 259 621.2 259 621.2 30.8"/>
  <polygon class="st12" points="621.2 261.4 621.2 261.4 682.8 261.4 682.8 461.6 621.2 461.6 621.2 261.4"/>
  <path class="st27" d="M647.8,0c.9,0,1.6.4,2.1,1.1s.7,1.8.7,3.1-.2,2.4-.7,3.1c-.5.8-1.2,1.1-2.2,1.1s-1.6-.4-2.1-1.1c-.5-.8-.7-1.8-.7-3.1s.2-2.4.7-3.1,1.1-1.1,2.1-1.1ZM647.8,1.2c-.5,0-.8.3-1.1.8-.2.5-.3,1.3-.3,2.3s.1,1.8.3,2.3c.2.5.6.8,1.1.8,1,0,1.5-1,1.5-3.1s-.5-3.1-1.5-3.1ZM656.5.2l-7.5,13.6h-1.5l7.5-13.6h1.5ZM656.1,5.4c.9,0,1.6.4,2.1,1.1.5.7.7,1.8.7,3.1s-.2,2.4-.7,3.1c-.5.8-1.2,1.1-2.2,1.1s-1.6-.4-2.1-1.1c-.5-.8-.7-1.8-.7-3.1s.2-2.4.7-3.1c.4-.7,1.1-1.1,2.1-1.1ZM656.1,6.6c-.5,0-.8.3-1.1.8-.2.5-.3,1.3-.3,2.3s.1,1.8.3,2.3c.2.5.6.8,1.1.8,1,0,1.5-1,1.5-3.1s-.5-3-1.5-3Z"/>
  <polygon class="st15" points="0 30.8 0 30.8 0 198.6 419.5 198.6 419.5 30.8 0 30.8"/>
  <g>
    <path class="st21" d="M156.6,96.1c0,1.2-.4,2.1-1.3,2.8-.8.7-2,1-3.6,1s-2.6-.3-3.7-.8v-2.6c.6.3,1.3.5,2,.7.7.2,1.3.3,2,.3s1.2-.1,1.5-.4c.3-.3.4-.6.4-1s-.1-.6-.3-.9c-.2-.2-.5-.5-.9-.7-.4-.2-.8-.4-1.3-.7-.3-.1-.6-.3-1-.5-.4-.2-.7-.5-1-.8-.3-.3-.6-.7-.8-1.1-.2-.4-.3-.9-.3-1.6,0-1.2.4-2.1,1.2-2.8.8-.7,1.9-1,3.3-1s1.3,0,2,.2,1.3.4,2,.7l-.9,2.2c-.6-.2-1.1-.4-1.6-.6-.5-.1-1-.2-1.5-.2s-.9.1-1.2.4c-.3.2-.4.6-.4,1s.2.8.6,1.1c.4.3,1,.6,1.9,1,.7.3,1.3.7,1.7,1,.5.3.8.8,1.1,1.2.3.5.4,1,.4,1.7Z"/>
    <path class="st21" d="M160.4,85.7c.4,0,.8,0,1.1.3.3.2.4.5.4,1.1s-.1.9-.4,1.1c-.3.2-.6.3-1.1.3s-.8,0-1.1-.3-.4-.5-.4-1.1.1-.9.4-1.1c.3-.2.6-.3,1.1-.3ZM161.8,89.6v10.1h-2.8v-10.1h2.8Z"/>
    <path class="st21" d="M170.6,89.5c1.1,0,2,.3,2.6.9.7.6,1,1.5,1,2.8v6.6h-2.8v-5.9c0-.7-.1-1.3-.4-1.6-.3-.4-.7-.5-1.2-.5-.8,0-1.4.3-1.7.9-.3.6-.5,1.4-.5,2.5v4.8h-2.8v-10.1h2.1l.4,1.3h.1c.3-.5.8-.9,1.3-1.1.6-.2,1.2-.4,1.8-.4Z"/>
    <path class="st21" d="M180.6,89.5c1.2,0,2.2.5,2.9,1.5h0l.2-1.3h2.3v10.1c0,1.4-.4,2.5-1.3,3.3-.9.8-2.1,1.1-3.8,1.1s-1.4,0-2-.1c-.6,0-1.2-.2-1.8-.5v-2.2c1.2.5,2.5.8,3.9.8s2.1-.8,2.1-2.3v-.2c0-.2,0-.4,0-.6,0-.2,0-.4,0-.6h0c-.3.5-.8.9-1.2,1.1s-1,.4-1.6.4c-1.2,0-2.1-.5-2.8-1.4-.7-.9-1-2.2-1-3.8s.3-2.9,1-3.9c.7-.9,1.6-1.4,2.8-1.4ZM181.5,91.7c-1.3,0-1.9,1-1.9,3.1s.7,3,2,3,1.2-.2,1.6-.6.5-1.1.5-2.1v-.3c0-1.1-.2-1.9-.5-2.3-.3-.5-.9-.7-1.6-.7Z"/>
    <path class="st21" d="M193.4,89.4c1.4,0,2.4.3,3.1.9.7.6,1.1,1.5,1.1,2.7v6.7h-1.9l-.5-1.4h0c-.4.5-.9.9-1.4,1.2s-1.1.4-2,.4-1.6-.3-2.2-.8c-.6-.5-.9-1.3-.9-2.4s.4-1.9,1.1-2.4,1.9-.8,3.4-.9h1.8v-.5c0-.5-.1-.9-.4-1.2s-.7-.4-1.2-.4-1,0-1.4.2c-.5.1-.9.3-1.4.5l-.9-1.9c.5-.3,1.1-.5,1.8-.7s1.4-.2,2.1-.2ZM194.9,95.1h-1.1c-.9,0-1.5.2-1.9.5s-.5.7-.5,1.2.1.7.4.9c.2.2.6.3,1,.3.6,0,1.1-.2,1.5-.5s.6-.8.6-1.5v-.8Z"/>
    <path class="st21" d="M206.4,89.5c1.1,0,2.1.4,2.8,1.3.7.9,1.1,2.2,1.1,3.9s-.4,3-1.1,3.9c-.7.9-1.7,1.3-2.8,1.3s-1.3-.1-1.7-.4-.8-.6-1.1-.9h-.1c0,.5.1,1,.1,1.5v4.1h-2.8v-14.5h2.2l.4,1.3h.1c.3-.4.6-.8,1.1-1.1.5-.3,1-.4,1.8-.4ZM205.5,91.7c-.7,0-1.2.2-1.5.7s-.5,1.1-.5,2v.3c0,1,.1,1.7.4,2.2.3.5.8.8,1.6.8s1.1-.3,1.4-.8c.3-.5.5-1.3.5-2.3,0-2-.6-3-1.9-3Z"/>
    <path class="st21" d="M221.9,94.7c0,1.7-.4,3-1.3,3.9-.9.9-2.1,1.4-3.6,1.4s-1.8-.2-2.5-.6c-.7-.4-1.3-1-1.7-1.8-.4-.8-.6-1.7-.6-2.9,0-1.7.4-3,1.3-3.9.9-.9,2.1-1.4,3.6-1.4s1.8.2,2.5.6c.7.4,1.3,1,1.7,1.8.4.8.6,1.7.6,2.8ZM214.9,94.7c0,1,.2,1.8.5,2.3.3.5.9.8,1.6.8s1.3-.3,1.6-.8c.3-.5.5-1.3.5-2.3s-.2-1.7-.5-2.2c-.3-.5-.9-.7-1.6-.7s-1.3.2-1.6.7c-.3.5-.5,1.2-.5,2.2Z"/>
    <path class="st21" d="M230.1,89.5c.1,0,.3,0,.5,0,.2,0,.3,0,.4,0l-.2,2.6c0,0-.2,0-.4,0-.2,0-.3,0-.4,0-.5,0-.9,0-1.4.2-.4.2-.8.4-1,.8-.3.4-.4.9-.4,1.5v5.1h-2.8v-10.1h2.1l.4,1.7h.1c.3-.5.7-1,1.2-1.3s1.1-.6,1.8-.6Z"/>
    <path class="st21" d="M237.3,89.5c1.4,0,2.5.4,3.3,1.2s1.2,1.9,1.2,3.4v1.3h-6.5c0,.8.3,1.4.7,1.8.4.4,1,.7,1.8.7s1.2,0,1.8-.2c.5-.1,1.1-.3,1.7-.6v2.1c-.5.2-1,.4-1.6.5-.5.1-1.2.2-2,.2s-1.9-.2-2.7-.6c-.8-.4-1.4-.9-1.8-1.7-.4-.8-.7-1.7-.7-2.9s.2-2.2.6-2.9c.4-.8,1-1.4,1.7-1.8s1.5-.6,2.5-.6ZM237.3,91.4c-.5,0-1,.2-1.3.5-.3.3-.5.9-.6,1.6h3.9c0-.6-.2-1.1-.5-1.5-.3-.4-.8-.6-1.4-.6Z"/>
    <path class="st21" d="M243.4,95.9v-2.3h4.8v2.3h-4.8Z"/>
    <path class="st21" d="M253.3,85.7v3.3c0,.4,0,.8,0,1.1,0,.4,0,.7,0,.9h.1c.3-.4.6-.8,1.1-1.1.5-.3,1-.4,1.8-.4,1.1,0,2.1.4,2.8,1.3.7.9,1.1,2.2,1.1,3.9s-.4,3-1.1,3.9c-.7.9-1.7,1.3-2.8,1.3s-1.3-.1-1.7-.4c-.4-.3-.8-.6-1-.9h-.2l-.5,1.1h-2.1v-14.1h2.8ZM255.3,91.7c-.7,0-1.2.2-1.5.7s-.5,1.1-.5,2v.3c0,1,.1,1.7.4,2.2.3.5.8.8,1.6.8s1-.3,1.4-.8c.3-.5.5-1.3.5-2.3s-.2-1.7-.5-2.2-.8-.7-1.4-.7Z"/>
    <path class="st21" d="M266.7,89.4c1.4,0,2.4.3,3.1.9.7.6,1.1,1.5,1.1,2.7v6.7h-1.9l-.5-1.4h0c-.4.5-.9.9-1.4,1.2s-1.1.4-2,.4-1.6-.3-2.2-.8c-.6-.5-.9-1.3-.9-2.4s.4-1.9,1.1-2.4,1.9-.8,3.4-.9h1.8v-.5c0-.5-.1-.9-.4-1.2s-.7-.4-1.2-.4-1,0-1.4.2c-.5.1-.9.3-1.4.5l-.9-1.9c.5-.3,1.1-.5,1.8-.7s1.4-.2,2.1-.2ZM268.1,95.1h-1.1c-.9,0-1.5.2-1.9.5s-.5.7-.5,1.2.1.7.4.9c.2.2.6.3,1,.3.6,0,1.1-.2,1.5-.5s.6-.8.6-1.5v-.8Z"/>
    <path class="st21" d="M281,96.7c0,1-.4,1.8-1.1,2.4-.7.5-1.8.8-3.2.8s-1.3,0-1.8-.1c-.5,0-1-.2-1.5-.5v-2.3c.5.2,1.1.5,1.8.6s1.2.2,1.7.2.9,0,1.1-.2.4-.4.4-.6,0-.3-.1-.5c0-.1-.3-.3-.6-.5-.3-.2-.8-.4-1.4-.7-.6-.3-1.2-.5-1.6-.8-.4-.3-.7-.6-.9-1-.2-.4-.3-.8-.3-1.4,0-.9.4-1.6,1.1-2.1s1.7-.7,2.9-.7,1.2,0,1.8.2c.6.1,1.2.3,1.8.6l-.8,2c-.5-.2-1-.4-1.4-.5s-.9-.2-1.4-.2c-.8,0-1.2.2-1.2.7s0,.3.2.4c.1.1.3.3.6.4.3.1.7.3,1.3.6.6.2,1.1.5,1.5.7.4.3.7.6,1,1,.2.4.3.9.3,1.5Z"/>
    <path class="st21" d="M287.6,89.5c1.4,0,2.5.4,3.3,1.2s1.2,1.9,1.2,3.4v1.3h-6.5c0,.8.3,1.4.7,1.8.4.4,1,.7,1.8.7s1.2,0,1.8-.2c.5-.1,1.1-.3,1.7-.6v2.1c-.5.2-1,.4-1.6.5-.5.1-1.2.2-2,.2s-1.9-.2-2.7-.6c-.8-.4-1.4-.9-1.8-1.7-.4-.8-.7-1.7-.7-2.9s.2-2.2.6-2.9c.4-.8,1-1.4,1.7-1.8s1.5-.6,2.5-.6ZM287.6,91.4c-.5,0-1,.2-1.3.5-.3.3-.5.9-.6,1.6h3.9c0-.6-.2-1.1-.5-1.5-.3-.4-.8-.6-1.4-.6Z"/>
    <path class="st21" d="M297.9,99.9c-1.1,0-2-.4-2.7-1.3-.7-.9-1.1-2.2-1.1-3.9s.4-3,1.1-3.9c.7-.9,1.7-1.3,2.8-1.3s1.3.1,1.8.4c.5.3.8.6,1.1,1.1h0c0-.2,0-.5-.1-.9,0-.4,0-.8,0-1.2v-3.2h2.8v14.1h-2.1l-.5-1.3h-.1c-.3.4-.6.8-1.1,1.1-.5.3-1,.4-1.8.4ZM298.8,97.7c.8,0,1.3-.2,1.6-.7.3-.4.5-1.1.5-2v-.3c0-1-.2-1.7-.5-2.2-.3-.5-.9-.8-1.7-.8s-1.1.3-1.4.8c-.3.5-.5,1.3-.5,2.3s.2,1.7.5,2.2c.3.5.8.7,1.5.7Z"/>
  </g>
  <g>
    <path class="st21" d="M154.3,121.7h-2.8v-10.9h-3.6v-2.3h10v2.3h-3.6v10.9Z"/>
    <path class="st21" d="M164.2,111.5c1.4,0,2.5.4,3.3,1.2s1.2,1.9,1.2,3.4v1.3h-6.5c0,.8.3,1.4.7,1.8.4.4,1,.7,1.8.7s1.2,0,1.8-.2c.5-.1,1.1-.3,1.7-.6v2.1c-.5.2-1,.4-1.6.5-.5.1-1.2.2-2,.2s-1.9-.2-2.7-.6c-.8-.4-1.4-.9-1.8-1.7-.4-.8-.7-1.7-.7-2.9s.2-2.2.6-2.9c.4-.8,1-1.4,1.7-1.8s1.5-.6,2.5-.6ZM164.2,113.4c-.5,0-1,.2-1.3.5-.3.3-.5.9-.6,1.6h3.9c0-.6-.2-1.1-.5-1.5-.3-.4-.8-.6-1.4-.6Z"/>
    <path class="st21" d="M183.1,111.5c1.1,0,2,.3,2.6.9.6.6.9,1.5.9,2.8v6.6h-2.8v-5.9c0-1.5-.5-2.2-1.5-2.2s-1.2.3-1.6.8c-.3.5-.5,1.3-.5,2.2v5.1h-2.8v-5.9c0-1.5-.5-2.2-1.5-2.2s-1.3.3-1.6.9c-.3.6-.4,1.4-.4,2.5v4.8h-2.8v-10.1h2.1l.4,1.3h.1c.3-.5.7-.9,1.3-1.1.5-.2,1.1-.4,1.7-.4s1.4.1,1.9.4c.5.2.9.6,1.2,1.1h.2c.3-.5.7-.9,1.3-1.1.5-.2,1.1-.4,1.7-.4Z"/>
    <path class="st21" d="M193.8,111.4c1.4,0,2.4.3,3.1.9.7.6,1.1,1.5,1.1,2.7v6.7h-1.9l-.5-1.4h0c-.4.5-.9.9-1.4,1.2s-1.1.4-2,.4-1.6-.3-2.2-.8c-.6-.5-.9-1.3-.9-2.4s.4-1.9,1.1-2.4,1.9-.8,3.4-.9h1.8v-.5c0-.5-.1-.9-.4-1.2s-.7-.4-1.2-.4-1,0-1.4.2c-.5.1-.9.3-1.4.5l-.9-1.9c.5-.3,1.1-.5,1.8-.7s1.4-.2,2.1-.2ZM195.3,117.1h-1.1c-.9,0-1.5.2-1.9.5s-.5.7-.5,1.2.1.7.4.9c.2.2.6.3,1,.3.6,0,1.1-.2,1.5-.5s.6-.8.6-1.5v-.8Z"/>
    <path class="st21" d="M208.1,118.7c0,1-.4,1.8-1.1,2.4-.7.5-1.8.8-3.2.8s-1.3,0-1.8-.1c-.5,0-1-.2-1.5-.5v-2.3c.5.2,1.1.5,1.8.6s1.2.2,1.7.2.9,0,1.1-.2.4-.4.4-.6,0-.3-.1-.5c0-.1-.3-.3-.6-.5-.3-.2-.8-.4-1.4-.7-.6-.3-1.2-.5-1.6-.8-.4-.3-.7-.6-.9-1-.2-.4-.3-.8-.3-1.4,0-.9.4-1.6,1.1-2.1s1.7-.7,2.9-.7,1.2,0,1.8.2c.6.1,1.2.3,1.8.6l-.8,2c-.5-.2-1-.4-1.4-.5s-.9-.2-1.4-.2c-.8,0-1.2.2-1.2.7s0,.3.2.4c.1.1.3.3.6.4.3.1.7.3,1.3.6.6.2,1.1.5,1.5.7.4.3.7.6,1,1,.2.4.3.9.3,1.5Z"/>
    <path class="st21" d="M214.7,111.5c1.4,0,2.5.4,3.3,1.2s1.2,1.9,1.2,3.4v1.3h-6.5c0,.8.3,1.4.7,1.8.4.4,1,.7,1.8.7s1.2,0,1.8-.2c.5-.1,1.1-.3,1.7-.6v2.1c-.5.2-1,.4-1.6.5-.5.1-1.2.2-2,.2s-1.9-.2-2.7-.6c-.8-.4-1.4-.9-1.8-1.7-.4-.8-.7-1.7-.7-2.9s.2-2.2.6-2.9c.4-.8,1-1.4,1.7-1.8s1.5-.6,2.5-.6ZM214.8,113.4c-.5,0-1,.2-1.3.5-.3.3-.5.9-.6,1.6h3.9c0-.6-.2-1.1-.5-1.5-.3-.4-.8-.6-1.4-.6Z"/>
    <path class="st21" d="M224.5,107.7v6.3c0,.4,0,.8,0,1.1,0,.4,0,.8-.1,1.1h0c.2-.3.4-.5.6-.8.2-.3.4-.5.6-.8l2.8-3.1h3.1l-4,4.4,4.3,5.7h-3.2l-2.9-4.1-1.2.9v3.1h-2.8v-14.1h2.8Z"/>
  </g>
  <g>
    <path class="st21" d="M243.1,108.5c1.7,0,2.9.4,3.7,1.1.8.7,1.2,1.7,1.2,3s-.2,1.5-.5,2.2c-.3.7-.9,1.2-1.6,1.6-.7.4-1.8.6-3,.6h-1.2v4.7h-2.8v-13.2h4.2ZM242.9,110.8h-1.3v3.9h.9c.8,0,1.4-.2,1.9-.5s.7-.8.7-1.5c0-1.3-.7-1.9-2.2-1.9Z"/>
    <path class="st21" d="M259.7,116.7c0,1.7-.4,3-1.3,3.9-.9.9-2.1,1.4-3.6,1.4s-1.8-.2-2.5-.6c-.7-.4-1.3-1-1.7-1.8-.4-.8-.6-1.7-.6-2.9,0-1.7.4-3,1.3-3.9.9-.9,2.1-1.4,3.6-1.4s1.8.2,2.5.6c.7.4,1.3,1,1.7,1.8.4.8.6,1.7.6,2.8ZM252.7,116.7c0,1,.2,1.8.5,2.3.3.5.9.8,1.6.8s1.3-.3,1.6-.8c.3-.5.5-1.3.5-2.3s-.2-1.7-.5-2.2c-.3-.5-.9-.7-1.6-.7s-1.3.2-1.6.7c-.3.5-.5,1.2-.5,2.2Z"/>
    <path class="st21" d="M267.9,111.5c.1,0,.3,0,.5,0,.2,0,.3,0,.4,0l-.2,2.6c0,0-.2,0-.4,0-.2,0-.3,0-.4,0-.5,0-.9,0-1.4.2-.4.2-.8.4-1,.8-.3.4-.4.9-.4,1.5v5.1h-2.8v-10.1h2.1l.4,1.7h.1c.3-.5.7-1,1.2-1.3s1.1-.6,1.8-.6Z"/>
    <path class="st21" d="M275.2,119.7c.3,0,.6,0,.9,0,.3,0,.6-.1.9-.2v2.1c-.3.1-.7.2-1.1.3-.4,0-.9.1-1.4.1s-1.1,0-1.6-.3c-.5-.2-.9-.5-1.1-1s-.4-1.2-.4-2v-4.9h-1.3v-1.2l1.5-.9.8-2.1h1.8v2.1h2.8v2.1h-2.8v4.9c0,.4.1.7.3.9.2.2.5.3.9.3Z"/>
    <path class="st21" d="M284.8,113.7h-2.4v8h-2.8v-8h-1.5v-1.3l1.5-.7v-.7c0-.9.1-1.5.4-2,.3-.5.7-.8,1.2-1,.5-.2,1.2-.3,1.9-.3s1,0,1.5.1.8.2,1.1.3l-.7,2c-.2,0-.4-.1-.7-.2-.3,0-.5,0-.8,0s-.7.1-.8.4c-.2.2-.3.5-.3.9v.6h2.4v2.1Z"/>
    <path class="st21" d="M295.8,116.7c0,1.7-.4,3-1.3,3.9-.9.9-2.1,1.4-3.6,1.4s-1.8-.2-2.5-.6c-.7-.4-1.3-1-1.7-1.8-.4-.8-.6-1.7-.6-2.9,0-1.7.4-3,1.3-3.9.9-.9,2.1-1.4,3.6-1.4s1.8.2,2.5.6c.7.4,1.3,1,1.7,1.8.4.8.6,1.7.6,2.8ZM288.8,116.7c0,1,.2,1.8.5,2.3.3.5.9.8,1.6.8s1.3-.3,1.6-.8c.3-.5.5-1.3.5-2.3s-.2-1.7-.5-2.2c-.3-.5-.9-.7-1.6-.7s-1.3.2-1.6.7c-.3.5-.5,1.2-.5,2.2Z"/>
    <path class="st21" d="M301.1,121.7h-2.8v-14.1h2.8v14.1Z"/>
    <path class="st21" d="M305.7,107.7c.4,0,.8,0,1.1.3.3.2.4.5.4,1.1s-.1.9-.4,1.1c-.3.2-.6.3-1.1.3s-.8,0-1.1-.3-.4-.5-.4-1.1.1-.9.4-1.1c.3-.2.6-.3,1.1-.3ZM307,111.6v10.1h-2.8v-10.1h2.8Z"/>
    <path class="st21" d="M319.4,116.7c0,1.7-.4,3-1.3,3.9-.9.9-2.1,1.4-3.6,1.4s-1.8-.2-2.5-.6c-.7-.4-1.3-1-1.7-1.8-.4-.8-.6-1.7-.6-2.9,0-1.7.4-3,1.3-3.9.9-.9,2.1-1.4,3.6-1.4s1.8.2,2.5.6c.7.4,1.3,1,1.7,1.8.4.8.6,1.7.6,2.8ZM312.4,116.7c0,1,.2,1.8.5,2.3.3.5.9.8,1.6.8s1.3-.3,1.6-.8c.3-.5.5-1.3.5-2.3s-.2-1.7-.5-2.2c-.3-.5-.9-.7-1.6-.7s-1.3.2-1.6.7c-.3.5-.5,1.2-.5,2.2Z"/>
  </g>
  <g>
    <path class="st21" d="M250.6,140.7c0,1-.4,1.8-1.1,2.4-.7.5-1.8.8-3.2.8s-1.3,0-1.8-.1c-.5,0-1-.2-1.5-.5v-2.3c.5.2,1.1.5,1.8.6s1.2.2,1.7.2.9,0,1.1-.2.4-.4.4-.6,0-.3-.1-.5c0-.1-.3-.3-.6-.5-.3-.2-.8-.4-1.4-.7-.6-.3-1.2-.5-1.6-.8-.4-.3-.7-.6-.9-1-.2-.4-.3-.8-.3-1.4,0-.9.4-1.6,1.1-2.1s1.7-.7,2.9-.7,1.2,0,1.8.2c.6.1,1.2.3,1.8.6l-.8,2c-.5-.2-1-.4-1.4-.5s-.9-.2-1.4-.2c-.8,0-1.2.2-1.2.7s0,.3.2.4c.1.1.3.3.6.4.3.1.7.3,1.3.6.6.2,1.1.5,1.5.7.4.3.7.6,1,1,.2.4.3.9.3,1.5Z"/>
    <path class="st21" d="M236.5,133.4c1.4,0,2.5.4,3.3,1.2s1.2,1.9,1.2,3.4v1.3h-6.5c0,.8.3,1.4.7,1.8.4.4,1,.7,1.8.7s1.2,0,1.8-.2c.5-.1,1.1-.3,1.7-.6v2.1c-.5.2-1,.4-1.6.5-.5.1-1.2.2-2,.2s-1.9-.2-2.7-.6c-.8-.4-1.4-.9-1.8-1.7-.4-.8-.7-1.7-.7-2.9s.2-2.2.6-2.9c.4-.8,1-1.4,1.7-1.8s1.5-.6,2.5-.6ZM236.5,135.4c-.5,0-1,.2-1.3.5-.3.3-.5.9-.6,1.6h3.9c0-.6-.2-1.1-.5-1.5-.3-.4-.8-.6-1.4-.6Z"/>
    <path class="st21" d="M227.8,129.6c.4,0,.8,0,1.1.3.3.2.4.5.4,1.1s-.1.9-.4,1.1c-.3.2-.6.3-1.1.3s-.8,0-1.1-.3-.4-.5-.4-1.1.1-.9.4-1.1c.3-.2.6-.3,1.1-.3ZM229.2,133.6v10.1h-2.8v-10.1h2.8Z"/>
    <path class="st21" d="M219.7,133.4c1.1,0,2,.3,2.6.9.7.6,1,1.5,1,2.8v6.6h-2.8v-5.9c0-.7-.1-1.3-.4-1.6-.3-.4-.7-.5-1.2-.5-.8,0-1.4.3-1.7.9-.3.6-.5,1.4-.5,2.5v4.8h-2.8v-10.1h2.1l.4,1.3h.1c.3-.5.8-.9,1.3-1.1.6-.2,1.2-.4,1.8-.4Z"/>
    <path class="st21" d="M206.7,133.4c1.4,0,2.4.3,3.1.9.7.6,1.1,1.5,1.1,2.7v6.7h-1.9l-.5-1.4h0c-.4.5-.9.9-1.4,1.2s-1.1.4-2,.4-1.6-.3-2.2-.8c-.6-.5-.9-1.3-.9-2.4s.4-1.9,1.1-2.4,1.9-.8,3.4-.9h1.8v-.5c0-.5-.1-.9-.4-1.2s-.7-.4-1.2-.4-1,0-1.4.2c-.5.1-.9.3-1.4.5l-.9-1.9c.5-.3,1.1-.5,1.8-.7s1.4-.2,2.1-.2ZM208.1,139h-1.1c-.9,0-1.5.2-1.9.5s-.5.7-.5,1.2.1.7.4.9c.2.2.6.3,1,.3.6,0,1.1-.2,1.5-.5s.6-.8.6-1.5v-.8Z"/>
    <path class="st21" d="M196.2,133.4c1.1,0,2.1.4,2.8,1.3.7.9,1.1,2.2,1.1,3.9s-.4,3-1.1,3.9c-.7.9-1.7,1.3-2.8,1.3s-1.3-.1-1.7-.4-.8-.6-1.1-.9h-.1c0,.5.1,1,.1,1.5v4.1h-2.8v-14.5h2.2l.4,1.3h.1c.3-.4.6-.8,1.1-1.1.5-.3,1-.4,1.8-.4ZM195.3,135.6c-.7,0-1.2.2-1.5.7s-.5,1.1-.5,2v.3c0,1,.1,1.7.4,2.2.3.5.8.8,1.6.8s1.1-.3,1.4-.8c.3-.5.5-1.3.5-2.3,0-2-.6-3-1.9-3Z"/>
    <path class="st21" d="M184,133.4c1.1,0,2,.3,2.6.9.6.6.9,1.5.9,2.8v6.6h-2.8v-5.9c0-1.5-.5-2.2-1.5-2.2s-1.2.3-1.6.8c-.3.5-.5,1.3-.5,2.2v5.1h-2.8v-5.9c0-1.5-.5-2.2-1.5-2.2s-1.3.3-1.6.9c-.3.6-.4,1.4-.4,2.5v4.8h-2.8v-10.1h2.1l.4,1.3h.1c.3-.5.7-.9,1.3-1.1.5-.2,1.1-.4,1.7-.4s1.4.1,1.9.4c.5.2.9.6,1.2,1.1h.2c.3-.5.7-.9,1.3-1.1.5-.2,1.1-.4,1.7-.4Z"/>
    <path class="st21" d="M169.5,138.6c0,1.7-.4,3-1.3,3.9-.9.9-2.1,1.4-3.6,1.4s-1.8-.2-2.5-.6c-.7-.4-1.3-1-1.7-1.8-.4-.8-.6-1.7-.6-2.9,0-1.7.4-3,1.3-3.9.9-.9,2.1-1.4,3.6-1.4s1.8.2,2.5.6c.7.4,1.3,1,1.7,1.8.4.8.6,1.7.6,2.8ZM162.6,138.6c0,1,.2,1.8.5,2.3.3.5.9.8,1.6.8s1.3-.3,1.6-.8c.3-.5.5-1.3.5-2.3s-.2-1.7-.5-2.2c-.3-.5-.9-.7-1.6-.7s-1.3.2-1.6.7c-.3.5-.5,1.2-.5,2.2Z"/>
    <path class="st21" d="M154.1,132.6c-1.1,0-1.9.4-2.5,1.2-.6.8-.9,1.9-.9,3.3s.3,2.5.8,3.3c.5.8,1.4,1.2,2.5,1.2s1.1,0,1.6-.2c.5-.1,1.1-.3,1.8-.5v2.3c-.6.2-1.2.4-1.7.5s-1.2.2-1.9.2c-1.4,0-2.5-.3-3.4-.8-.9-.6-1.5-1.4-1.9-2.4-.4-1-.6-2.2-.6-3.6s.2-2.5.7-3.5c.5-1,1.2-1.8,2.1-2.4s2-.9,3.4-.9,1.3,0,2,.2,1.3.4,1.9.7l-.9,2.3c-.5-.2-1-.4-1.5-.6-.5-.2-1-.3-1.5-.3Z"/>
  </g>
  <polygon class="st12" points="0 227.6 0 227.6 0 395.4 419.5 395.4 419.5 227.6 0 227.6"/>
  <g>
    <path class="st21" d="M153.6,300.1h5.2v6.8c-.7.2-1.4.4-2.2.6-.8.1-1.6.2-2.5.2-2,0-3.5-.6-4.6-1.7-1.1-1.2-1.6-2.8-1.6-5.1s.3-2.6.8-3.6c.5-1,1.3-1.8,2.3-2.3,1-.6,2.3-.8,3.8-.8s1.4,0,2.1.2,1.3.3,1.9.6l-.9,2.2c-.4-.2-.9-.4-1.4-.5s-1.1-.2-1.6-.2c-.8,0-1.5.2-2.1.6-.6.4-1.1.9-1.4,1.6-.3.7-.5,1.5-.5,2.4s.1,1.6.4,2.3c.2.7.6,1.2,1.1,1.6.5.4,1.2.6,2,.6s.7,0,1,0c.3,0,.5,0,.8-.1v-2.8h-2.5v-2.3Z"/>
    <path class="st21" d="M164.7,307.5h-2.8v-14.1h2.8v14.1Z"/>
    <path class="st21" d="M177,302.4c0,1.7-.4,3-1.3,3.9-.9.9-2.1,1.4-3.6,1.4s-1.8-.2-2.5-.6c-.7-.4-1.3-1-1.7-1.8-.4-.8-.6-1.7-.6-2.9,0-1.7.4-3,1.3-3.9.9-.9,2.1-1.4,3.6-1.4s1.8.2,2.5.6c.7.4,1.3,1,1.7,1.8.4.8.6,1.7.6,2.8ZM170.1,302.4c0,1,.2,1.8.5,2.3.3.5.9.8,1.6.8s1.3-.3,1.6-.8c.3-.5.5-1.3.5-2.3s-.2-1.7-.5-2.2c-.3-.5-.9-.7-1.6-.7s-1.3.2-1.6.7c-.3.5-.5,1.2-.5,2.2Z"/>
    <path class="st21" d="M182.4,293.4v3.3c0,.4,0,.8,0,1.1,0,.4,0,.7,0,.9h.1c.3-.4.6-.8,1.1-1.1.5-.3,1-.4,1.8-.4,1.1,0,2.1.4,2.8,1.3.7.9,1.1,2.2,1.1,3.9s-.4,3-1.1,3.9c-.7.9-1.7,1.3-2.8,1.3s-1.3-.1-1.7-.4c-.4-.3-.8-.6-1-.9h-.2l-.5,1.1h-2.1v-14.1h2.8ZM184.3,299.4c-.7,0-1.2.2-1.5.7s-.5,1.1-.5,2v.3c0,1,.1,1.7.4,2.2.3.5.8.8,1.6.8s1-.3,1.4-.8c.3-.5.5-1.3.5-2.3s-.2-1.7-.5-2.2-.8-.7-1.4-.7Z"/>
    <path class="st21" d="M195.7,297.2c1.4,0,2.4.3,3.1.9.7.6,1.1,1.5,1.1,2.7v6.7h-1.9l-.5-1.4h0c-.4.5-.9.9-1.4,1.2s-1.1.4-2,.4-1.6-.3-2.2-.8c-.6-.5-.9-1.3-.9-2.4s.4-1.9,1.1-2.4,1.9-.8,3.4-.9h1.8v-.5c0-.5-.1-.9-.4-1.2s-.7-.4-1.2-.4-1,0-1.4.2c-.5.1-.9.3-1.4.5l-.9-1.9c.5-.3,1.1-.5,1.8-.7s1.4-.2,2.1-.2ZM197.2,302.8h-1.1c-.9,0-1.5.2-1.9.5s-.5.7-.5,1.2.1.7.4.9c.2.2.6.3,1,.3.6,0,1.1-.2,1.5-.5s.6-.8.6-1.5v-.8Z"/>
    <path class="st21" d="M205.8,307.5h-2.8v-14.1h2.8v14.1Z"/>
    <path class="st21" d="M225.2,300.8c0,2.2-.6,3.9-1.9,5-1.3,1.1-3,1.7-5.3,1.7h-3.7v-13.2h4.1c1.4,0,2.6.2,3.6.7,1,.5,1.8,1.2,2.4,2.2.6,1,.8,2.1.8,3.6ZM222.3,300.8c0-1.5-.3-2.5-1-3.2-.6-.7-1.6-1-2.8-1h-1.5v8.6h1.2c2.7,0,4.1-1.4,4.1-4.3Z"/>
    <path class="st21" d="M229.4,293.4c.4,0,.8,0,1.1.3.3.2.4.5.4,1.1s-.1.9-.4,1.1c-.3.2-.6.3-1.1.3s-.8,0-1.1-.3-.4-.5-.4-1.1.1-.9.4-1.1c.3-.2.6-.3,1.1-.3ZM230.7,297.4v10.1h-2.8v-10.1h2.8Z"/>
    <path class="st21" d="M239.5,297.2c.1,0,.3,0,.5,0,.2,0,.3,0,.4,0l-.2,2.6c0,0-.2,0-.4,0-.2,0-.3,0-.4,0-.5,0-.9,0-1.4.2-.4.2-.8.4-1,.8-.3.4-.4.9-.4,1.5v5.1h-2.8v-10.1h2.1l.4,1.7h.1c.3-.5.7-1,1.2-1.3s1.1-.6,1.8-.6Z"/>
    <path class="st21" d="M246.7,297.2c1.4,0,2.5.4,3.3,1.2s1.2,1.9,1.2,3.4v1.3h-6.5c0,.8.3,1.4.7,1.8.4.4,1,.7,1.8.7s1.2,0,1.8-.2c.5-.1,1.1-.3,1.7-.6v2.1c-.5.2-1,.4-1.6.5-.5.1-1.2.2-2,.2s-1.9-.2-2.7-.6c-.8-.4-1.4-.9-1.8-1.7-.4-.8-.7-1.7-.7-2.9s.2-2.2.6-2.9c.4-.8,1-1.4,1.7-1.8s1.5-.6,2.5-.6ZM246.7,299.2c-.5,0-1,.2-1.3.5-.3.3-.5.9-.6,1.6h3.9c0-.6-.2-1.1-.5-1.5-.3-.4-.8-.6-1.4-.6Z"/>
    <path class="st21" d="M257.9,307.7c-1.5,0-2.7-.4-3.5-1.2-.8-.8-1.2-2.1-1.2-3.9s.2-2.2.6-3c.4-.8,1-1.4,1.7-1.7.7-.4,1.6-.6,2.6-.6s1.3,0,1.8.2,1,.3,1.3.5l-.8,2.1c-.4-.2-.8-.3-1.2-.4-.4-.1-.7-.2-1.1-.2-1.4,0-2.1,1-2.1,3.1s.2,1.8.6,2.2c.4.5.9.7,1.6.7s1.1,0,1.5-.2c.4-.2.9-.4,1.3-.6v2.3c-.4.3-.9.5-1.3.6s-1,.2-1.7.2Z"/>
    <path class="st21" d="M267.8,305.5c.3,0,.6,0,.9,0,.3,0,.6-.1.9-.2v2.1c-.3.1-.7.2-1.1.3-.4,0-.9.1-1.4.1s-1.1,0-1.6-.3c-.5-.2-.9-.5-1.1-1s-.4-1.2-.4-2v-4.9h-1.3v-1.2l1.5-.9.8-2.1h1.8v2.1h2.8v2.1h-2.8v4.9c0,.4.1.7.3.9.2.2.5.3.9.3Z"/>
  </g>
  <g>
    <path class="st21" d="M154,329.5h-6v-1.6l1.6-.7v-8.5l-1.6-.7v-1.6h6v1.6l-1.6.7v8.5l1.6.7v1.6Z"/>
    <path class="st21" d="M162,319.2c1.1,0,2,.3,2.6.9.7.6,1,1.5,1,2.8v6.6h-2.8v-5.9c0-.7-.1-1.3-.4-1.6-.3-.4-.7-.5-1.2-.5-.8,0-1.4.3-1.7.9-.3.6-.5,1.4-.5,2.5v4.8h-2.8v-10.1h2.1l.4,1.3h.1c.3-.5.8-.9,1.3-1.1s1.2-.4,1.8-.4Z"/>
    <path class="st21" d="M171.1,329.5l-3.8-10.1h2.9l1.9,5.8c.1.3.2.7.3,1.1s.1.7.1,1h0c0-.7.2-1.4.4-2.1l1.9-5.8h2.9l-3.8,10.1h-2.8Z"/>
    <path class="st21" d="M183.6,319.2c1.4,0,2.5.4,3.3,1.2s1.2,1.9,1.2,3.4v1.3h-6.5c0,.8.3,1.4.7,1.8.4.4,1,.7,1.8.7s1.2,0,1.8-.2c.5-.1,1.1-.3,1.7-.6v2.1c-.5.2-1,.4-1.6.5-.5.1-1.2.2-2,.2s-1.9-.2-2.7-.6-1.4-.9-1.8-1.7-.7-1.7-.7-2.9.2-2.2.6-2.9,1-1.4,1.7-1.8c.7-.4,1.5-.6,2.5-.6ZM183.7,321.2c-.5,0-1,.2-1.3.5-.3.3-.5.9-.6,1.6h3.9c0-.6-.2-1.1-.5-1.5-.3-.4-.8-.6-1.4-.6Z"/>
    <path class="st21" d="M197.7,326.5c0,1-.4,1.8-1.1,2.4-.7.5-1.8.8-3.2.8s-1.3,0-1.8-.1c-.5,0-1-.2-1.5-.5v-2.3c.5.2,1.1.5,1.8.6.6.2,1.2.2,1.7.2s.9,0,1.1-.2c.2-.2.4-.4.4-.6s0-.3-.1-.5c0-.1-.3-.3-.6-.5-.3-.2-.8-.4-1.4-.7-.6-.3-1.2-.5-1.6-.8-.4-.3-.7-.6-.9-1s-.3-.8-.3-1.4c0-.9.4-1.6,1.1-2.1s1.7-.7,2.9-.7,1.2,0,1.8.2c.6.1,1.2.3,1.8.6l-.8,2c-.5-.2-1-.4-1.4-.5s-.9-.2-1.4-.2c-.8,0-1.2.2-1.2.7s0,.3.2.4c.1.1.3.3.6.4.3.1.7.3,1.3.6.6.2,1.1.5,1.5.7.4.3.7.6,1,1,.2.4.3.9.3,1.5Z"/>
    <path class="st21" d="M204.4,327.5c.3,0,.6,0,.9,0s.6-.1.9-.2v2.1c-.3.1-.7.2-1.1.3-.4,0-.9.1-1.4.1s-1.1,0-1.6-.3c-.5-.2-.9-.5-1.1-1-.3-.5-.4-1.2-.4-2v-4.9h-1.3v-1.2l1.5-.9.8-2.1h1.8v2.1h2.8v2.1h-2.8v4.9c0,.4.1.7.3.9.2.2.5.3.9.3Z"/>
    <path class="st21" d="M220.3,319.2c1.1,0,2,.3,2.6.9.6.6.9,1.5.9,2.8v6.6h-2.8v-5.9c0-1.5-.5-2.2-1.5-2.2s-1.2.3-1.6.8c-.3.5-.5,1.3-.5,2.2v5.1h-2.8v-5.9c0-1.5-.5-2.2-1.5-2.2s-1.3.3-1.6.9c-.3.6-.4,1.4-.4,2.5v4.8h-2.8v-10.1h2.1l.4,1.3h.1c.3-.5.7-.9,1.3-1.1.5-.2,1.1-.4,1.7-.4s1.4.1,1.9.4c.5.2.9.6,1.2,1.1h.2c.3-.5.7-.9,1.3-1.1.5-.2,1.1-.4,1.7-.4Z"/>
    <path class="st21" d="M231.1,319.2c1.4,0,2.5.4,3.3,1.2s1.2,1.9,1.2,3.4v1.3h-6.5c0,.8.3,1.4.7,1.8.4.4,1,.7,1.8.7s1.2,0,1.8-.2c.5-.1,1.1-.3,1.7-.6v2.1c-.5.2-1,.4-1.6.5-.5.1-1.2.2-2,.2s-1.9-.2-2.7-.6-1.4-.9-1.8-1.7-.7-1.7-.7-2.9.2-2.2.6-2.9,1-1.4,1.7-1.8c.7-.4,1.5-.6,2.5-.6ZM231.1,321.2c-.5,0-1,.2-1.3.5-.3.3-.5.9-.6,1.6h3.9c0-.6-.2-1.1-.5-1.5-.3-.4-.8-.6-1.4-.6Z"/>
    <path class="st21" d="M243.8,319.2c1.1,0,2,.3,2.6.9.7.6,1,1.5,1,2.8v6.6h-2.8v-5.9c0-.7-.1-1.3-.4-1.6-.3-.4-.7-.5-1.2-.5-.8,0-1.4.3-1.7.9-.3.6-.5,1.4-.5,2.5v4.8h-2.8v-10.1h2.1l.4,1.3h.1c.3-.5.8-.9,1.3-1.1s1.2-.4,1.8-.4Z"/>
    <path class="st21" d="M254.8,327.5c.3,0,.6,0,.9,0s.6-.1.9-.2v2.1c-.3.1-.7.2-1.1.3-.4,0-.9.1-1.4.1s-1.1,0-1.6-.3c-.5-.2-.9-.5-1.1-1-.3-.5-.4-1.2-.4-2v-4.9h-1.3v-1.2l1.5-.9.8-2.1h1.8v2.1h2.8v2.1h-2.8v4.9c0,.4.1.7.3.9.2.2.5.3.9.3Z"/>
    <path class="st21" d="M265.9,326.5c0,1-.4,1.8-1.1,2.4-.7.5-1.8.8-3.2.8s-1.3,0-1.8-.1c-.5,0-1-.2-1.5-.5v-2.3c.5.2,1.1.5,1.8.6.6.2,1.2.2,1.7.2s.9,0,1.1-.2c.2-.2.4-.4.4-.6s0-.3-.1-.5c0-.1-.3-.3-.6-.5-.3-.2-.8-.4-1.4-.7-.6-.3-1.2-.5-1.6-.8-.4-.3-.7-.6-.9-1s-.3-.8-.3-1.4c0-.9.4-1.6,1.1-2.1s1.7-.7,2.9-.7,1.2,0,1.8.2c.6.1,1.2.3,1.8.6l-.8,2c-.5-.2-1-.4-1.4-.5s-.9-.2-1.4-.2c-.8,0-1.2.2-1.2.7s0,.3.2.4c.1.1.3.3.6.4.3.1.7.3,1.3.6.6.2,1.1.5,1.5.7.4.3.7.6,1,1,.2.4.3.9.3,1.5Z"/>
  </g>
  <polygon class="st24" points="0 424.4 0 424.4 0 592.2 419.5 592.2 419.5 424.4 0 424.4"/>
  <g>
    <path class="st21" d="M339.6,491.2v.2c0,.7-.3,1.4-.6,2.1-.3.8-.6,1.5-.9,2.2h-2c.2-.7.3-1.5.5-2.3s.3-1.6.4-2.2h2.5Z"/>
    <path class="st21" d="M334.6,490.3c0,1-.4,1.8-1.1,2.4-.7.5-1.8.8-3.2.8s-1.3,0-1.8-.1c-.5,0-1-.2-1.5-.5v-2.3c.5.2,1.1.5,1.8.6.6.2,1.2.2,1.7.2s.9,0,1.1-.2c.2-.2.4-.4.4-.6s0-.3-.1-.5c0-.1-.3-.3-.6-.5-.3-.2-.8-.4-1.4-.7-.6-.3-1.2-.5-1.6-.8-.4-.3-.7-.6-.9-1s-.3-.8-.3-1.4c0-.9.4-1.6,1.1-2.1s1.7-.7,2.9-.7,1.2,0,1.8.2c.6.1,1.2.3,1.8.6l-.8,2c-.5-.2-1-.4-1.4-.5s-.9-.2-1.4-.2c-.8,0-1.2.2-1.2.7s0,.3.2.4c.1.1.3.3.6.4.3.1.7.3,1.3.6.6.2,1.1.5,1.5.7.4.3.7.6,1,1,.2.4.3.9.3,1.5Z"/>
    <path class="st21" d="M318.8,493.5c-1.1,0-2-.4-2.7-1.3-.7-.9-1.1-2.2-1.1-3.9s.4-3,1.1-3.9,1.7-1.3,2.8-1.3,1.3.1,1.8.4c.5.3.8.6,1.1,1.1h0c0-.2,0-.5-.1-.9s0-.8,0-1.2v-3.2h2.8v14.1h-2.1l-.5-1.3h-.1c-.3.4-.6.8-1.1,1.1-.5.3-1,.4-1.8.4ZM319.7,491.3c.8,0,1.3-.2,1.6-.7.3-.5.5-1.1.5-2v-.3c0-1-.2-1.7-.5-2.2-.3-.5-.9-.8-1.7-.8s-1.1.3-1.4.8c-.3.5-.5,1.3-.5,2.3s.2,1.7.5,2.2c.3.5.8.7,1.5.7Z"/>
    <path class="st21" d="M308.9,483c1.1,0,2,.3,2.6.9.7.6,1,1.5,1,2.8v6.6h-2.8v-5.9c0-.7-.1-1.3-.4-1.6-.3-.4-.7-.5-1.2-.5-.8,0-1.4.3-1.7.9-.3.6-.5,1.4-.5,2.5v4.8h-2.8v-10.1h2.1l.4,1.3h.1c.3-.5.8-.9,1.3-1.1s1.2-.4,1.8-.4Z"/>
    <path class="st21" d="M300,483.2v10.1h-2.1l-.4-1.3h-.1c-.3.5-.8.9-1.3,1.1-.6.2-1.2.4-1.8.4-1.1,0-2-.3-2.6-.9-.7-.6-1-1.5-1-2.8v-6.6h2.8v5.9c0,.7.1,1.3.4,1.6.3.4.7.5,1.2.5.8,0,1.4-.3,1.7-.9.3-.6.5-1.4.5-2.5v-4.8h2.8Z"/>
    <path class="st21" d="M283.3,493.3h-2.8v-13.2h7.6v2.3h-4.8v3.4h4.5v2.3h-4.5v5.2Z"/>
    <path class="st21" d="M272.2,491.2v.2c0,.7-.3,1.4-.6,2.1-.3.8-.6,1.5-.9,2.2h-2c.2-.7.3-1.5.5-2.3s.3-1.6.4-2.2h2.5Z"/>
    <path class="st21" d="M267.2,490.3c0,1-.4,1.8-1.1,2.4-.7.5-1.8.8-3.2.8s-1.3,0-1.8-.1c-.5,0-1-.2-1.5-.5v-2.3c.5.2,1.1.5,1.8.6.6.2,1.2.2,1.7.2s.9,0,1.1-.2c.2-.2.4-.4.4-.6s0-.3-.1-.5c0-.1-.3-.3-.6-.5-.3-.2-.8-.4-1.4-.7-.6-.3-1.2-.5-1.6-.8-.4-.3-.7-.6-.9-1s-.3-.8-.3-1.4c0-.9.4-1.6,1.1-2.1s1.7-.7,2.9-.7,1.2,0,1.8.2c.6.1,1.2.3,1.8.6l-.8,2c-.5-.2-1-.4-1.4-.5s-.9-.2-1.4-.2c-.8,0-1.2.2-1.2.7s0,.3.2.4c.1.1.3.3.6.4.3.1.7.3,1.3.6.6.2,1.1.5,1.5.7.4.3.7.6,1,1,.2.4.3.9.3,1.5Z"/>
    <path class="st21" d="M253.8,483c1.1,0,2.1.4,2.8,1.3.7.9,1.1,2.2,1.1,3.9s-.4,3-1.1,3.9c-.7.9-1.7,1.3-2.8,1.3s-1.3-.1-1.7-.4c-.4-.3-.8-.6-1.1-.9h-.1c0,.5.1,1,.1,1.5v4.1h-2.8v-14.5h2.2l.4,1.3h.1c.3-.4.6-.8,1.1-1.1.5-.3,1-.4,1.8-.4ZM252.9,485.2c-.7,0-1.2.2-1.5.7s-.5,1.1-.5,2v.3c0,1,.1,1.7.4,2.2.3.5.8.8,1.6.8s1.1-.3,1.4-.8.5-1.3.5-2.3c0-2-.6-3-1.9-3Z"/>
    <path class="st21" d="M243.6,479.3c.4,0,.8,0,1.1.3.3.2.4.5.4,1.1s-.1.9-.4,1.1c-.3.2-.6.3-1.1.3s-.8,0-1.1-.3-.4-.5-.4-1.1.1-.9.4-1.1c.3-.2.6-.3,1.1-.3ZM245,483.2v10.1h-2.8v-10.1h2.8Z"/>
    <path class="st21" d="M232.6,479.3v2.9c0,.5,0,1,0,1.4s0,.8,0,1h.1c.3-.5.7-.9,1.2-1.1.5-.2,1.1-.4,1.7-.4,1.1,0,2,.3,2.6.9s1,1.5,1,2.8v6.6h-2.8v-5.9c0-1.5-.5-2.2-1.6-2.2s-1.4.3-1.7.9c-.3.6-.5,1.4-.5,2.5v4.8h-2.8v-14.1h2.8Z"/>
    <path class="st21" d="M227.4,490.3c0,1-.4,1.8-1.1,2.4-.7.5-1.8.8-3.2.8s-1.3,0-1.8-.1c-.5,0-1-.2-1.5-.5v-2.3c.5.2,1.1.5,1.8.6.6.2,1.2.2,1.7.2s.9,0,1.1-.2c.2-.2.4-.4.4-.6s0-.3-.1-.5c0-.1-.3-.3-.6-.5-.3-.2-.8-.4-1.4-.7-.6-.3-1.2-.5-1.6-.8-.4-.3-.7-.6-.9-1s-.3-.8-.3-1.4c0-.9.4-1.6,1.1-2.1s1.7-.7,2.9-.7,1.2,0,1.8.2c.6.1,1.2.3,1.8.6l-.8,2c-.5-.2-1-.4-1.4-.5s-.9-.2-1.4-.2c-.8,0-1.2.2-1.2.7s0,.3.2.4c.1.1.3.3.6.4.3.1.7.3,1.3.6.6.2,1.1.5,1.5.7.4.3.7.6,1,1,.2.4.3.9.3,1.5Z"/>
    <path class="st21" d="M217.3,483c.1,0,.3,0,.5,0,.2,0,.3,0,.4,0l-.2,2.6c0,0-.2,0-.4,0s-.3,0-.4,0c-.5,0-.9,0-1.4.2-.4.2-.8.4-1,.8s-.4.9-.4,1.5v5.1h-2.8v-10.1h2.1l.4,1.7h.1c.3-.5.7-1,1.2-1.3.5-.4,1.1-.6,1.8-.6Z"/>
    <path class="st21" d="M204.6,483c1.4,0,2.5.4,3.3,1.2s1.2,1.9,1.2,3.4v1.3h-6.5c0,.8.3,1.4.7,1.8.4.4,1,.7,1.8.7s1.2,0,1.8-.2c.5-.1,1.1-.3,1.7-.6v2.1c-.5.2-1,.4-1.6.5-.5.1-1.2.2-2,.2s-1.9-.2-2.7-.6-1.4-.9-1.8-1.7-.7-1.7-.7-2.9.2-2.2.6-2.9,1-1.4,1.7-1.8c.7-.4,1.5-.6,2.5-.6ZM204.7,485c-.5,0-1,.2-1.3.5-.3.3-.5.9-.6,1.6h3.9c0-.6-.2-1.1-.5-1.5-.3-.4-.8-.6-1.4-.6Z"/>
    <path class="st21" d="M193.8,483c1.1,0,2,.3,2.6.9.7.6,1,1.5,1,2.8v6.6h-2.8v-5.9c0-.7-.1-1.3-.4-1.6-.3-.4-.7-.5-1.2-.5-.8,0-1.4.3-1.7.9-.3.6-.5,1.4-.5,2.5v4.8h-2.8v-10.1h2.1l.4,1.3h.1c.3-.5.8-.9,1.3-1.1s1.2-.4,1.8-.4Z"/>
    <path class="st21" d="M184,491.3c.3,0,.6,0,.9,0s.6-.1.9-.2v2.1c-.3.1-.7.2-1.1.3-.4,0-.9.1-1.4.1s-1.1,0-1.6-.3c-.5-.2-.9-.5-1.1-1-.3-.5-.4-1.2-.4-2v-4.9h-1.3v-1.2l1.5-.9.8-2.1h1.8v2.1h2.8v2.1h-2.8v4.9c0,.4.1.7.3.9.2.2.5.3.9.3Z"/>
    <path class="st21" d="M176.7,483c.1,0,.3,0,.5,0,.2,0,.3,0,.4,0l-.2,2.6c0,0-.2,0-.4,0s-.3,0-.4,0c-.5,0-.9,0-1.4.2-.4.2-.8.4-1,.8s-.4.9-.4,1.5v5.1h-2.8v-10.1h2.1l.4,1.7h.1c.3-.5.7-1,1.2-1.3.5-.4,1.1-.6,1.8-.6Z"/>
    <path class="st21" d="M163.7,483c1.4,0,2.4.3,3.1.9.7.6,1.1,1.5,1.1,2.7v6.7h-1.9l-.5-1.4h0c-.4.5-.9.9-1.4,1.2-.5.2-1.1.4-2,.4s-1.6-.3-2.2-.8c-.6-.5-.9-1.3-.9-2.4s.4-1.9,1.1-2.4c.8-.5,1.9-.8,3.4-.9h1.8v-.5c0-.5-.1-.9-.4-1.2s-.7-.4-1.2-.4-1,0-1.4.2c-.5.1-.9.3-1.4.5l-.9-1.9c.5-.3,1.1-.5,1.8-.7.7-.2,1.4-.2,2.1-.2ZM165.2,488.7h-1.1c-.9,0-1.5.2-1.9.5-.3.3-.5.7-.5,1.2s.1.7.4.9c.2.2.6.3,1,.3.6,0,1.1-.2,1.5-.5s.6-.8.6-1.5v-.8Z"/>
    <path class="st21" d="M152.1,480.1c1.7,0,2.9.4,3.7,1.1.8.7,1.2,1.7,1.2,3s-.2,1.5-.5,2.2c-.3.7-.9,1.2-1.6,1.6s-1.8.6-3,.6h-1.2v4.7h-2.8v-13.2h4.2ZM152,482.4h-1.3v3.9h.9c.8,0,1.4-.2,1.9-.5s.7-.8.7-1.5c0-1.3-.7-1.9-2.2-1.9Z"/>
  </g>
  <g>
    <path class="st21" d="M152.7,505c1.4,0,2.4.3,3.1.9.7.6,1.1,1.5,1.1,2.7v6.7h-1.9l-.5-1.4h0c-.4.5-.9.9-1.4,1.2-.5.2-1.1.4-2,.4s-1.6-.3-2.2-.8c-.6-.5-.9-1.3-.9-2.4s.4-1.9,1.1-2.4c.8-.5,1.9-.8,3.4-.9h1.8v-.5c0-.5-.1-.9-.4-1.2s-.7-.4-1.2-.4-1,0-1.4.2c-.5.1-.9.3-1.4.5l-.9-1.9c.5-.3,1.1-.5,1.8-.7.7-.2,1.4-.2,2.1-.2ZM154.1,510.6h-1.1c-.9,0-1.5.2-1.9.5-.3.3-.5.7-.5,1.2s.1.7.4.9c.2.2.6.3,1,.3.6,0,1.1-.2,1.5-.5s.6-.8.6-1.5v-.8Z"/>
    <path class="st21" d="M165.7,505c1.1,0,2,.3,2.6.9.7.6,1,1.5,1,2.8v6.6h-2.8v-5.9c0-.7-.1-1.3-.4-1.6-.3-.4-.7-.5-1.2-.5-.8,0-1.4.3-1.7.9-.3.6-.5,1.4-.5,2.5v4.8h-2.8v-10.1h2.1l.4,1.3h.1c.3-.5.8-.9,1.3-1.1s1.2-.4,1.8-.4Z"/>
    <path class="st21" d="M175.6,515.5c-1.1,0-2-.4-2.7-1.3-.7-.9-1.1-2.2-1.1-3.9s.4-3,1.1-3.9,1.7-1.3,2.8-1.3,1.3.1,1.8.4c.5.3.8.6,1.1,1.1h0c0-.2,0-.5-.1-.9s0-.8,0-1.2v-3.2h2.8v14.1h-2.1l-.5-1.3h-.1c-.3.4-.6.8-1.1,1.1-.5.3-1,.4-1.8.4ZM176.6,513.3c.8,0,1.3-.2,1.6-.7.3-.5.5-1.1.5-2v-.3c0-1-.2-1.7-.5-2.2-.3-.5-.9-.8-1.7-.8s-1.1.3-1.4.8c-.3.5-.5,1.3-.5,2.3s.2,1.7.5,2.2c.3.5.8.7,1.5.7Z"/>
  </g>
  <g>
    <path class="st21" d="M197.8,515.3l-1-3.1h-4.8l-1,3.1h-3l4.7-13.3h3.4l4.7,13.3h-3ZM196.2,509.8l-1-3.1c0-.2-.1-.5-.2-.8,0-.3-.2-.6-.3-1,0-.3-.2-.6-.2-.9,0,.2-.1.6-.2.9-.1.4-.2.7-.3,1,0,.3-.2.6-.2.7l-.9,3.1h3.4Z"/>
    <path class="st21" d="M209.6,512.3c0,1-.4,1.8-1.1,2.4-.7.5-1.8.8-3.2.8s-1.3,0-1.8-.1c-.5,0-1-.2-1.5-.5v-2.3c.5.2,1.1.5,1.8.6.6.2,1.2.2,1.7.2s.9,0,1.1-.2c.2-.2.4-.4.4-.6s0-.3-.1-.5c0-.1-.3-.3-.6-.5-.3-.2-.8-.4-1.4-.7-.6-.3-1.2-.5-1.6-.8-.4-.3-.7-.6-.9-1s-.3-.8-.3-1.4c0-.9.4-1.6,1.1-2.1s1.7-.7,2.9-.7,1.2,0,1.8.2c.6.1,1.2.3,1.8.6l-.8,2c-.5-.2-1-.4-1.4-.5s-.9-.2-1.4-.2c-.8,0-1.2.2-1.2.7s0,.3.2.4c.1.1.3.3.6.4.3.1.7.3,1.3.6.6.2,1.1.5,1.5.7.4.3.7.6,1,1,.2.4.3.9.3,1.5Z"/>
    <path class="st21" d="M219,512.3c0,1-.4,1.8-1.1,2.4-.7.5-1.8.8-3.2.8s-1.3,0-1.8-.1c-.5,0-1-.2-1.5-.5v-2.3c.5.2,1.1.5,1.8.6.6.2,1.2.2,1.7.2s.9,0,1.1-.2c.2-.2.4-.4.4-.6s0-.3-.1-.5c0-.1-.3-.3-.6-.5-.3-.2-.8-.4-1.4-.7-.6-.3-1.2-.5-1.6-.8-.4-.3-.7-.6-.9-1s-.3-.8-.3-1.4c0-.9.4-1.6,1.1-2.1s1.7-.7,2.9-.7,1.2,0,1.8.2c.6.1,1.2.3,1.8.6l-.8,2c-.5-.2-1-.4-1.4-.5s-.9-.2-1.4-.2c-.8,0-1.2.2-1.2.7s0,.3.2.4c.1.1.3.3.6.4.3.1.7.3,1.3.6.6.2,1.1.5,1.5.7.4.3.7.6,1,1,.2.4.3.9.3,1.5Z"/>
    <path class="st21" d="M225.6,505c1.4,0,2.5.4,3.3,1.2s1.2,1.9,1.2,3.4v1.3h-6.5c0,.8.3,1.4.7,1.8.4.4,1,.7,1.8.7s1.2,0,1.8-.2c.5-.1,1.1-.3,1.7-.6v2.1c-.5.2-1,.4-1.6.5-.5.1-1.2.2-2,.2s-1.9-.2-2.7-.6-1.4-.9-1.8-1.7-.7-1.7-.7-2.9.2-2.2.6-2.9,1-1.4,1.7-1.8c.7-.4,1.5-.6,2.5-.6ZM225.6,507c-.5,0-1,.2-1.3.5-.3.3-.5.9-.6,1.6h3.9c0-.6-.2-1.1-.5-1.5-.3-.4-.8-.6-1.4-.6Z"/>
    <path class="st21" d="M236.9,513.3c.3,0,.6,0,.9,0s.6-.1.9-.2v2.1c-.3.1-.7.2-1.1.3-.4,0-.9.1-1.4.1s-1.1,0-1.6-.3c-.5-.2-.9-.5-1.1-1-.3-.5-.4-1.2-.4-2v-4.9h-1.3v-1.2l1.5-.9.8-2.1h1.8v2.1h2.8v2.1h-2.8v4.9c0,.4.1.7.3.9.2.2.5.3.9.3Z"/>
    <path class="st21" d="M251.9,515.3l-3.2-10.4h0c0,.2,0,.6,0,1.1,0,.5,0,1,0,1.6,0,.6,0,1.1,0,1.5v6.1h-2.5v-13.2h3.8l3.1,10.1h0l3.3-10.1h3.8v13.2h-2.6v-6.3c0-.4,0-.9,0-1.4,0-.5,0-1.1,0-1.5,0-.5,0-.9,0-1.1h0l-3.4,10.3h-2.6Z"/>
    <path class="st21" d="M267.9,505c1.4,0,2.4.3,3.1.9.7.6,1.1,1.5,1.1,2.7v6.7h-1.9l-.5-1.4h0c-.4.5-.9.9-1.4,1.2-.5.2-1.1.4-2,.4s-1.6-.3-2.2-.8c-.6-.5-.9-1.3-.9-2.4s.4-1.9,1.1-2.4c.8-.5,1.9-.8,3.4-.9h1.8v-.5c0-.5-.1-.9-.4-1.2s-.7-.4-1.2-.4-1,0-1.4.2c-.5.1-.9.3-1.4.5l-.9-1.9c.5-.3,1.1-.5,1.8-.7.7-.2,1.4-.2,2.1-.2ZM269.4,510.6h-1.1c-.9,0-1.5.2-1.9.5-.3.3-.5.7-.5,1.2s.1.7.4.9c.2.2.6.3,1,.3.6,0,1.1-.2,1.5-.5s.6-.8.6-1.5v-.8Z"/>
    <path class="st21" d="M281,505c1.1,0,2,.3,2.6.9.7.6,1,1.5,1,2.8v6.6h-2.8v-5.9c0-.7-.1-1.3-.4-1.6-.3-.4-.7-.5-1.2-.5-.8,0-1.4.3-1.7.9-.3.6-.5,1.4-.5,2.5v4.8h-2.8v-10.1h2.1l.4,1.3h.1c.3-.5.8-.9,1.3-1.1s1.2-.4,1.8-.4Z"/>
    <path class="st21" d="M291.8,505c1.4,0,2.4.3,3.1.9.7.6,1.1,1.5,1.1,2.7v6.7h-1.9l-.5-1.4h0c-.4.5-.9.9-1.4,1.2-.5.2-1.1.4-2,.4s-1.6-.3-2.2-.8c-.6-.5-.9-1.3-.9-2.4s.4-1.9,1.1-2.4c.8-.5,1.9-.8,3.4-.9h1.8v-.5c0-.5-.1-.9-.4-1.2s-.7-.4-1.2-.4-1,0-1.4.2c-.5.1-.9.3-1.4.5l-.9-1.9c.5-.3,1.1-.5,1.8-.7.7-.2,1.4-.2,2.1-.2ZM293.3,510.6h-1.1c-.9,0-1.5.2-1.9.5-.3.3-.5.7-.5,1.2s.1.7.4.9c.2.2.6.3,1,.3.6,0,1.1-.2,1.5-.5s.6-.8.6-1.5v-.8Z"/>
    <path class="st21" d="M302.4,505c1.2,0,2.2.5,2.9,1.5h0l.2-1.3h2.3v10.1c0,1.4-.4,2.5-1.3,3.3-.9.8-2.1,1.1-3.8,1.1s-1.4,0-2-.1c-.6,0-1.2-.2-1.8-.5v-2.2c1.2.5,2.5.8,3.9.8s2.1-.8,2.1-2.3v-.2c0-.2,0-.4,0-.6,0-.2,0-.4,0-.6h0c-.3.5-.8.9-1.2,1.1-.5.2-1,.4-1.6.4-1.2,0-2.1-.5-2.8-1.4-.7-.9-1-2.2-1-3.8s.3-2.9,1-3.9c.7-.9,1.6-1.4,2.8-1.4ZM303.3,507.3c-1.3,0-1.9,1-1.9,3.1s.7,3,2,3,1.2-.2,1.6-.6c.3-.4.5-1.1.5-2.1v-.3c0-1.1-.2-1.9-.5-2.3s-.9-.7-1.6-.7Z"/>
    <path class="st21" d="M315.2,505c1.4,0,2.5.4,3.3,1.2s1.2,1.9,1.2,3.4v1.3h-6.5c0,.8.3,1.4.7,1.8.4.4,1,.7,1.8.7s1.2,0,1.8-.2c.5-.1,1.1-.3,1.7-.6v2.1c-.5.2-1,.4-1.6.5-.5.1-1.2.2-2,.2s-1.9-.2-2.7-.6-1.4-.9-1.8-1.7-.7-1.7-.7-2.9.2-2.2.6-2.9,1-1.4,1.7-1.8c.7-.4,1.5-.6,2.5-.6ZM315.3,507c-.5,0-1,.2-1.3.5-.3.3-.5.9-.6,1.6h3.9c0-.6-.2-1.1-.5-1.5-.3-.4-.8-.6-1.4-.6Z"/>
    <path class="st21" d="M334.1,505c1.1,0,2,.3,2.6.9.6.6.9,1.5.9,2.8v6.6h-2.8v-5.9c0-1.5-.5-2.2-1.5-2.2s-1.2.3-1.6.8c-.3.5-.5,1.3-.5,2.2v5.1h-2.8v-5.9c0-1.5-.5-2.2-1.5-2.2s-1.3.3-1.6.9c-.3.6-.4,1.4-.4,2.5v4.8h-2.8v-10.1h2.1l.4,1.3h.1c.3-.5.7-.9,1.3-1.1.5-.2,1.1-.4,1.7-.4s1.4.1,1.9.4c.5.2.9.6,1.2,1.1h.2c.3-.5.7-.9,1.3-1.1.5-.2,1.1-.4,1.7-.4Z"/>
    <path class="st21" d="M344.9,505c1.4,0,2.5.4,3.3,1.2s1.2,1.9,1.2,3.4v1.3h-6.5c0,.8.3,1.4.7,1.8.4.4,1,.7,1.8.7s1.2,0,1.8-.2c.5-.1,1.1-.3,1.7-.6v2.1c-.5.2-1,.4-1.6.5-.5.1-1.2.2-2,.2s-1.9-.2-2.7-.6-1.4-.9-1.8-1.7-.7-1.7-.7-2.9.2-2.2.6-2.9,1-1.4,1.7-1.8c.7-.4,1.5-.6,2.5-.6ZM344.9,507c-.5,0-1,.2-1.3.5-.3.3-.5.9-.6,1.6h3.9c0-.6-.2-1.1-.5-1.5-.3-.4-.8-.6-1.4-.6Z"/>
    <path class="st21" d="M357.7,505c1.1,0,2,.3,2.6.9.7.6,1,1.5,1,2.8v6.6h-2.8v-5.9c0-.7-.1-1.3-.4-1.6-.3-.4-.7-.5-1.2-.5-.8,0-1.4.3-1.7.9-.3.6-.5,1.4-.5,2.5v4.8h-2.8v-10.1h2.1l.4,1.3h.1c.3-.5.8-.9,1.3-1.1s1.2-.4,1.8-.4Z"/>
    <path class="st21" d="M368.6,513.3c.3,0,.6,0,.9,0,.3,0,.6-.1.9-.2v2.1c-.3.1-.7.2-1.1.3s-.9.1-1.4.1-1.1,0-1.6-.3c-.5-.2-.9-.5-1.1-1-.3-.5-.4-1.2-.4-2v-4.9h-1.3v-1.2l1.5-.9.8-2.1h1.8v2.1h2.8v2.1h-2.8v4.9c0,.4.1.7.3.9.2.2.5.3.9.3Z"/>
  </g>
  <g>
    <path class="st21" d="M250.6,534.3c0,1-.4,1.8-1.1,2.4-.7.5-1.8.8-3.2.8s-1.3,0-1.8-.1c-.5,0-1-.2-1.5-.5v-2.3c.5.2,1.1.5,1.8.6.6.2,1.2.2,1.7.2s.9,0,1.1-.2c.2-.2.4-.4.4-.6s0-.3-.1-.5c0-.1-.3-.3-.6-.5-.3-.2-.8-.4-1.4-.7-.6-.3-1.2-.5-1.6-.8-.4-.3-.7-.6-.9-1s-.3-.8-.3-1.4c0-.9.4-1.6,1.1-2.1s1.7-.7,2.9-.7,1.2,0,1.8.2c.6.1,1.2.3,1.8.6l-.8,2c-.5-.2-1-.4-1.4-.5s-.9-.2-1.4-.2c-.8,0-1.2.2-1.2.7s0,.3.2.4c.1.1.3.3.6.4.3.1.7.3,1.3.6.6.2,1.1.5,1.5.7.4.3.7.6,1,1,.2.4.3.9.3,1.5Z"/>
    <path class="st21" d="M236.5,527c1.4,0,2.5.4,3.3,1.2s1.2,1.9,1.2,3.4v1.3h-6.5c0,.8.3,1.4.7,1.8.4.4,1,.7,1.8.7s1.2,0,1.8-.2c.5-.1,1.1-.3,1.7-.6v2.1c-.5.2-1,.4-1.6.5-.5.1-1.2.2-2,.2s-1.9-.2-2.7-.6-1.4-.9-1.8-1.7-.7-1.7-.7-2.9.2-2.2.6-2.9,1-1.4,1.7-1.8c.7-.4,1.5-.6,2.5-.6ZM236.5,529c-.5,0-1,.2-1.3.5-.3.3-.5.9-.6,1.6h3.9c0-.6-.2-1.1-.5-1.5-.3-.4-.8-.6-1.4-.6Z"/>
    <path class="st21" d="M227.8,523.2c.4,0,.8,0,1.1.3.3.2.4.5.4,1.1s-.1.9-.4,1.1c-.3.2-.6.3-1.1.3s-.8,0-1.1-.3-.4-.5-.4-1.1.1-.9.4-1.1c.3-.2.6-.3,1.1-.3ZM229.2,527.2v10.1h-2.8v-10.1h2.8Z"/>
    <path class="st21" d="M219.7,527c1.1,0,2,.3,2.6.9.7.6,1,1.5,1,2.8v6.6h-2.8v-5.9c0-.7-.1-1.3-.4-1.6-.3-.4-.7-.5-1.2-.5-.8,0-1.4.3-1.7.9-.3.6-.5,1.4-.5,2.5v4.8h-2.8v-10.1h2.1l.4,1.3h.1c.3-.5.8-.9,1.3-1.1s1.2-.4,1.8-.4Z"/>
    <path class="st21" d="M206.7,527c1.4,0,2.4.3,3.1.9.7.6,1.1,1.5,1.1,2.7v6.7h-1.9l-.5-1.4h0c-.4.5-.9.9-1.4,1.2-.5.2-1.1.4-2,.4s-1.6-.3-2.2-.8c-.6-.5-.9-1.3-.9-2.4s.4-1.9,1.1-2.4c.8-.5,1.9-.8,3.4-.9h1.8v-.5c0-.5-.1-.9-.4-1.2s-.7-.4-1.2-.4-1,0-1.4.2c-.5.1-.9.3-1.4.5l-.9-1.9c.5-.3,1.1-.5,1.8-.7.7-.2,1.4-.2,2.1-.2ZM208.1,532.6h-1.1c-.9,0-1.5.2-1.9.5-.3.3-.5.7-.5,1.2s.1.7.4.9c.2.2.6.3,1,.3.6,0,1.1-.2,1.5-.5s.6-.8.6-1.5v-.8Z"/>
    <path class="st21" d="M196.2,527c1.1,0,2.1.4,2.8,1.3.7.9,1.1,2.2,1.1,3.9s-.4,3-1.1,3.9c-.7.9-1.7,1.3-2.8,1.3s-1.3-.1-1.7-.4c-.4-.3-.8-.6-1.1-.9h-.1c0,.5.1,1,.1,1.5v4.1h-2.8v-14.5h2.2l.4,1.3h.1c.3-.4.6-.8,1.1-1.1.5-.3,1-.4,1.8-.4ZM195.3,529.2c-.7,0-1.2.2-1.5.7s-.5,1.1-.5,2v.3c0,1,.1,1.7.4,2.2.3.5.8.8,1.6.8s1.1-.3,1.4-.8.5-1.3.5-2.3c0-2-.6-3-1.9-3Z"/>
    <path class="st21" d="M184,527c1.1,0,2,.3,2.6.9.6.6.9,1.5.9,2.8v6.6h-2.8v-5.9c0-1.5-.5-2.2-1.5-2.2s-1.2.3-1.6.8c-.3.5-.5,1.3-.5,2.2v5.1h-2.8v-5.9c0-1.5-.5-2.2-1.5-2.2s-1.3.3-1.6.9c-.3.6-.4,1.4-.4,2.5v4.8h-2.8v-10.1h2.1l.4,1.3h.1c.3-.5.7-.9,1.3-1.1.5-.2,1.1-.4,1.7-.4s1.4.1,1.9.4c.5.2.9.6,1.2,1.1h.2c.3-.5.7-.9,1.3-1.1.5-.2,1.1-.4,1.7-.4Z"/>
    <path class="st21" d="M169.5,532.2c0,1.7-.4,3-1.3,3.9-.9.9-2.1,1.4-3.6,1.4s-1.8-.2-2.5-.6c-.7-.4-1.3-1-1.7-1.8s-.6-1.7-.6-2.9c0-1.7.4-3,1.3-3.9.9-.9,2.1-1.4,3.6-1.4s1.8.2,2.5.6c.7.4,1.3,1,1.7,1.8.4.8.6,1.7.6,2.8ZM162.6,532.2c0,1,.2,1.8.5,2.3.3.5.9.8,1.6.8s1.3-.3,1.6-.8c.3-.5.5-1.3.5-2.3s-.2-1.7-.5-2.2c-.3-.5-.9-.8-1.6-.8s-1.3.2-1.6.8c-.3.5-.5,1.2-.5,2.2Z"/>
    <path class="st21" d="M154.1,526.2c-1.1,0-1.9.4-2.5,1.2-.6.8-.9,1.9-.9,3.3s.3,2.5.8,3.3c.5.8,1.4,1.2,2.5,1.2s1.1,0,1.6-.2c.5-.1,1.1-.3,1.8-.5v2.3c-.6.2-1.2.4-1.7.5s-1.2.2-1.9.2c-1.4,0-2.5-.3-3.4-.8-.9-.6-1.5-1.3-1.9-2.4-.4-1-.6-2.2-.6-3.6s.2-2.5.7-3.5c.5-1,1.2-1.8,2.1-2.4s2-.9,3.4-.9,1.3,0,2,.2c.7.2,1.3.4,1.9.7l-.9,2.3c-.5-.2-1-.4-1.5-.6s-1-.3-1.5-.3Z"/>
  </g>
  <g>
    <path class="st21" d="M653.7,148.5h-1.9v3h-1.6v-3h-6.3v-1.4l6.2-8.9h1.7v8.8h1.9v1.5ZM650.2,147v-4.2c0-.6,0-1.2,0-1.6s0-.9,0-1.3h0c0,.2-.2.5-.4.8-.1.3-.3.5-.4.7l-4,5.6h4.7Z"/>
    <path class="st21" d="M660.2,151.5h-1.6v-9.2c0-.5,0-1,0-1.3,0-.3,0-.7,0-1-.2.2-.4.4-.5.5-.2.1-.4.3-.6.5l-1.4,1.1-.9-1.1,3.6-2.8h1.4v13.2Z"/>
  </g>
  <g>
    <path class="st21" d="M650.8,358c0,.9-.2,1.6-.7,2.1-.5.5-1.2.9-2,1h0c1,.2,1.8.5,2.4,1.1s.8,1.3.8,2.1-.2,1.5-.5,2.1c-.4.6-.9,1.1-1.7,1.4s-1.7.5-2.9.5-1.3,0-1.9-.2c-.6-.1-1.2-.3-1.7-.6v-1.5c.6.3,1.2.5,1.8.6.6.1,1.3.2,1.8.2,1.2,0,2-.2,2.6-.7.5-.5.8-1.1.8-1.9s-.3-1.4-1-1.8c-.6-.4-1.6-.5-2.7-.5h-1.3v-1.4h1.3c1.1,0,1.9-.2,2.5-.7.6-.5.8-1.1.8-1.8s-.2-1.1-.6-1.5-1-.5-1.8-.5-1.3.1-1.8.3c-.5.2-1,.5-1.5.8l-.8-1.1c.5-.4,1.1-.7,1.7-1,.7-.3,1.5-.4,2.4-.4,1.4,0,2.4.3,3.1.9.7.6,1,1.4,1,2.3Z"/>
    <path class="st21" d="M652.9,362.5c0-.9,0-1.9.2-2.8.2-.9.5-1.8.9-2.5.4-.7,1.1-1.3,1.8-1.8.8-.4,1.8-.7,3.1-.7s.5,0,.9,0c.3,0,.6,0,.8.1v1.4c-.2,0-.5-.1-.8-.2-.3,0-.6,0-.8,0-.9,0-1.6.1-2.1.4-.6.3-1,.7-1.3,1.2-.3.5-.6,1.1-.7,1.7-.1.6-.2,1.3-.3,2.1h.1c.3-.4.7-.8,1.2-1.1.5-.3,1.2-.5,1.9-.5,1.1,0,2.1.3,2.8,1,.7.7,1.1,1.7,1.1,3s-.4,2.5-1.1,3.3c-.8.8-1.8,1.2-3.1,1.2s-1.6-.2-2.3-.6c-.7-.4-1.2-1.1-1.6-1.9-.4-.9-.6-2-.6-3.3ZM657.3,367c.8,0,1.4-.2,1.9-.8.5-.5.7-1.3.7-2.3s-.2-1.5-.6-2-1.1-.7-1.9-.7-1.1.1-1.5.4c-.4.2-.8.5-1,.9-.2.4-.4.8-.4,1.1s.1,1.1.3,1.6c.2.5.5,1,.9,1.3.4.3.9.5,1.6.5Z"/>
  </g>
  <polygon class="st24" points="621.2 464.1 621.2 464.1 682.8 464.1 682.8 592.2 621.2 592.2 621.2 464.1"/>
  <g>
    <path class="st21" d="M651.4,534.7h-8.7v-1.4l3.5-3.5c.7-.7,1.2-1.3,1.7-1.8.5-.5.8-1,1-1.5.2-.5.4-1,.4-1.6s-.2-1.3-.6-1.7c-.4-.4-1-.6-1.7-.6s-1.2.1-1.7.3c-.5.2-1,.5-1.5.9l-.9-1.1c.5-.4,1.1-.8,1.8-1.1.7-.3,1.4-.5,2.3-.5,1.2,0,2.2.3,2.9.9.7.6,1.1,1.5,1.1,2.6s-.1,1.3-.4,1.9c-.3.6-.7,1.2-1.2,1.8-.5.6-1.1,1.2-1.8,1.9l-2.8,2.7h0c0,0,6.7,0,6.7,0v1.5Z"/>
    <path class="st21" d="M661,524.6c0,.9-.2,1.6-.7,2.1-.5.5-1.2.9-2,1h0c1,.2,1.8.5,2.4,1.1s.8,1.3.8,2.1-.2,1.5-.5,2.1c-.4.6-.9,1.1-1.7,1.4s-1.7.5-2.9.5-1.3,0-1.9-.2c-.6-.1-1.2-.3-1.7-.6v-1.5c.6.3,1.2.5,1.8.6.6.1,1.3.2,1.8.2,1.2,0,2-.2,2.6-.7.5-.5.8-1.1.8-1.9s-.3-1.4-1-1.8c-.6-.4-1.6-.5-2.7-.5h-1.3v-1.4h1.3c1.1,0,1.9-.2,2.5-.7.6-.5.8-1.1.8-1.8s-.2-1.1-.6-1.5-1-.5-1.8-.5-1.3.1-1.8.3c-.5.2-1,.5-1.5.8l-.8-1.1c.5-.4,1.1-.7,1.7-1,.7-.3,1.5-.4,2.4-.4,1.4,0,2.4.3,3.1.9.7.6,1,1.4,1,2.3Z"/>
  </g>
  <path class="st21" d="M73.5,167c28.9,0,52.3-23.4,52.3-52.3s-23.4-52.3-52.3-52.3-52.3,23.4-52.3,52.3,23.4,52.3,52.3,52.3"/>
  <g class="st28">
    <path class="st22" d="M51.8,127c-.7,0-4.2.5-4.1,3.9,0,.4.2.5,1.6.3,1.2-.1,2.7-.7,3.2-2.1.6-1.2.7-1.1-.7-2.1"/>
  </g>
  <g class="st16">
    <path class="st22" d="M99.4,102.6c4,1.9,2.9,3.2,8.7.9,1.5,0,2-.4,1.8-1.2-.2-.7-2.6-1-5.3-.7-4.8.5-2.7-4.1-6.9-1.4-.3.4.2,1.7,1.8,2.4"/>
    <path class="st22" d="M78.1,135.5l-1.2-1.1c-.9.4-2,0-2.8,1.3,1.1.9,2,1.7,3.1,2.7,1.3,1.2,3-1.4.9-2.9"/>
    <path class="st22" d="M53.9,130.5c-1.1,1.1-1.1,1.5.1,2.2,3,1.8,5.2-.5,3.6-2.7-1-.9-2.5-.7-3.8.5"/>
    <path class="st22" d="M112.2,108.9c-.6-1.5-2.2-2-3.7-1.9-1.5-.5-2.4,3-4.3,2.5-1.2.1-1.8,0-3.6-1-2.8-1.4-3.9-1.6-4.9-.8-1.1.9-2.6.2-2.5,2.2.2,1-.2,1.1-.9.3-.6-.7.2-2.1,1.3-2.5,1.5,0,2-2.5.9-4.5-.3-.7-.3-2.5-1.1-2.1-.3.2-.7.8-.9,1.3-.8,1.4-2.6,1.5-3.4,3-.3.6-.8,1.1-1.1,1.1-1,.2.7-2.8,2-3.4,1.3-.6-.6-.8-1.6-1.1-.2,0-.8-.5-1.5-1.1-1.1-1-1.3-1.1-2.5-.9-1.6.2-1.8,0-1.3-1.3.4-1.2,0-2-.9-1.9-.7.1-.8-.2-.3-.8.9-1-1.7-.3-1.9-1.4-.2-.9.5-1.2-.7-1.9-.7-.5-1.2-.6-1.2-.4-.7,1.7-.6-1.8-1.8-.8-2.3,1.8-.4-1.2-2.6-1-1.2,0-1.9.3-3.9,1.5-1.1.7-2.3,1.7-3.6,2.4-1.1.4-1.8,1.9-2.7,2.7l-1.8-.3c-1.9-.4-3.9-1.4-5.8-2.1-1.6-.6-1.7-.6-2.4,0-.4.3-2.1,1.3-3.8,2.2-3.6,1.9-4.7,2.8-4.7,4s-.4,1.2-.9,1.8c-.6.7-.9,1.5-1.1,2.8-.2,1.6-.6,2.2-2.5,5-2.7,3.8-3,4.3-3.5,6-.2.7-1,3.2-1.7,5.4-.8,2.2-1.4,4.4-1.4,4.8,0,0,0,0,0,0s0,0,0,0c0,1.3.8,1.7,3.6,1.8,2.5,0,2.6,0,2.7-.6,0,0,0-.2,0-.2,0-.4-.2-.7-1-1-.9-.4-1.1-1.4-1.5-2.5-.2-.4-.4-.7-.4-.9,0-.3.3-.5,1.1-.6.6,0,1.4-.2,1.7-.4.2-.1.4-.2.4,0,0,0,0,.2-.2.4-.1.3-.2.4-.1.6,0,.7,1.3.3,1.4,1-.2.2-.3.4-.3.5,0,.3.3.6,1.3,1.4,1,.8,1.5,1.1,2,.9.4-.1.6-.4.6-.8,0-.3-.1-.7-.4-1-.3-.2-.4-.6-.4-.9,0-.3.2-.5.5-.5.9,0,2,2.5,2.1.8,0-.1,0-.2,0-.4,0-.3,0-.5,0-.7,0-.3.2-.3.5-.3,1,0,0,1.7,1.4,1.8.5,0,.8-.2.8-.7.1-.9,1.2-1,2-.2.3.4.7.6.7.5,0,0,.2-.4.4-.7.3-.6,1.4-.7,2.5-.4.8.3,1.7.2,2.2.8,0,0,0,0,0,0-.1.5,2.4.3,3,.5.2.2.7.4,1.2.5.6.1.8,0,.8-.2,0-.2-.3-.6-.9-1.2-.6-.6-.9-1-.8-1.5.1-.7.7-.8.7-.1.3.8,1.3,1.4,1.7,2.3.4.8,1.2,1.4,2,2,1,1,2.4,1.6,2.9,2.9.3,1,2.3,1.3,3.1,2.1.7.6.8-.1,1.7.1.3.2,1.2.6,1.9.9,1.5.7,2.1.6,3.1-.4.8-.9,1.3-.9,1.7-.2.2.3.7.5,1.2.6,2,.2,2.5,0,4.4-1.7l1.1-1-.6-.6c-.8-.8-1.2-.8-1.2-.2-.4.9-1.9,1.7-2.4.9.2-.9,3-2.9,4.5-1.6.5.6.8.8,1,.6.2-.2,1.2-.8,2.3-1.4,2.3-1.3,4.6-2.1,10.1-3.5,4.6-1.2,6-1.8,7.1-2.8.7-.6.8-.7.8-.5,0,.2,0,.4,0,.6,0,.3,0,.6.5.6.8-.1,2-1.8,3.1-4.6h0s0,0,0,0c.5-1.2,1.2-2.9,1.7-4,1.4-2.7.4-2.2-.4-4.7"/>
  </g>
  <g class="st19">
    <path class="st26" d="M81,106.5h-1.2v-1.6h1.5c.7,0,1.2.6,1.2,1.2"/>
    <path class="st13" d="M82.6,105.9c.3,0,.6.3.5.7v.2h-3.4v-1h2.8Z"/>
    <polygon class="st13" points="73.3 105.5 73.3 106.3 77.8 106.2 77.8 105.7 73.3 105.5"/>
    <path class="st13" d="M67.6,105.3c-.3,0-.6.3-.6.6v.5s4.4-.1,4.4-.1v-.9l-3.7-.2Z"/>
    <path class="st26" d="M65.5,113v-5.8c0-.4.3-.7.6-.7h.9s0-.6,0-.6c0-.4.3-.6.6-.6l3.7.2h0c0-.2,0-.4,0-.6h-.4v-1.4c0-.4.4-.8.8-.8h3.5c.3,0,.5.1.7.4h1.3s0,0,.1,0c-.2-1-1.1-1.7-2.1-1.7h-3.5c-1.2,0-2.1,1-2.1,2.1v1.4h-3.9c-.7,0-1.2.6-1.2,1.2v12.4"/>
    <path class="st20" d="M66.5,107.8h0c.2-.6.7-.9,1.2-.9h3.6v-.5h-5.2c-.3.1-.6.4-.6.8v5.8l1-5.2Z"/>
    <path class="st26" d="M77.3,104.9h-3.5c-.3,0-.5.2-.5.5h0c0,.1,4.4.3,4.4.3v-.3c0-.3-.2-.5-.5-.5"/>
    <polygon class="st20" points="77.8 106.2 73.3 106.3 73.3 106.8 77.8 106.8 77.8 106.2"/>
    <path class="st20" d="M79.8,106.8v-.7h1.9c.3,0,.6.2.6.6h0"/>
    <path class="st21" d="M77.7,106.8h-5.1M71.2,106.8h-4c-.4,0-.8.3-.9.7l-2.3,12.7,17.9-.2,2.2-11.8c.2-.7-.2-1.4-.9-1.4h-4.2"/>
    <path class="st11" d="M73,105.4c0-.4.4-.8.8-.8h3.5c.4,0,.8.4.8.8v1.7h-5.1v-1.7ZM82.4,120.2l2.1-11.6c.2-.7-.2-1.4-.9-1.4h-4.2v-1.7c0-1.2-1-2.1-2.1-2.1h-3.5c-1.2,0-2.1,1-2.1,2.1v1.7h-4c-.4,0-.8.3-.9.7l-2.3,12.4h17.9Z"/>
    <path class="st21" d="M75.9,115.3c0,.4,0,.5.4.5h.6v.4h-3.5v-.4h.6c.4,0,.4-.2.4-.6v-5.5h-.5c-1,0-1.1.4-1.4,1.4h-.4v-1.8h5.9v1.8h-.4c-.3-1-.4-1.4-1.4-1.4h-.5v5.5Z"/>
  </g>
  <path class="st21" d="M73.5,363.8c28.9,0,52.3-23.4,52.3-52.3s-23.4-52.3-52.3-52.3-52.3,23.4-52.3,52.3,23.4,52.3,52.3,52.3"/>
  <g class="st17">
    <path class="st10" d="M87.1,337.4v-1.5M87.1,335.5h0v-1.3c0,0-.1,0-.2,0-.2,0-.4,0-.5,0-.1,0-.3,0-.4,0-.3,0-.7,0-.9,0-.2,0-.4,0-.6-.1-.1,0-.2,0-.3,0h0c-.1,0-.3,0-.4,0,0,0-.2,0-.3,0,0,0,0,0-.1,0h0s0,0,0,0c0,0-.2,0-.3,0-.2,0-.3.1-.4.2h0c-.1.1-.3.2-.5.3-.1,0-.3.2-.4.3-.2.1-.3.2-.5.3-.3.2-.6.3-1,.5-.3.1-.6.3-1,.4-.2,0-.3,0-.5,0h0c-.1,0-.2,0-.3,0s-.1,0-.2,0c-.2,0-.3-.1-.4-.3,0-.1,0-.3,0-.5,0,0,0-.2,0-.2,0,0,0-.2,0-.3,0-.2,0-.3,0-.5,0-.2-.2-.4-.3-.5,0-.1-.2-.2-.2-.3,0-.1-.1-.3-.2-.5h0c0-.2-.1-.4-.2-.6,0-.2,0-.3-.2-.5,0-.2-.1-.3-.1-.5h0c0-.2,0-.5.2-.7,0,0,.1-.2.2-.2,0,0,0,0,.1,0,0,0,0,0,0,0,0,0,0,0,0,0,0-.1.2-.2.3-.3.1-.1.2-.2.3-.2,0,0,.2,0,.3,0,0,0,0,0,.1,0,.1,0,.3,0,.4-.1h0s0,0,.1,0c0,0,.2,0,.2,0,0,0,0,0,.1,0,0,0,.2,0,.2,0,.2,0,.5-.2.7-.3,0,0,0,0,.1,0,0,0,.1,0,.2-.1.1,0,.2-.1.3-.2.2-.2.4-.3.6-.4.2-.2.4-.3.6-.4.2-.2.4-.3.6-.5,0-.1.2-.2.3-.4,0,0,.1-.2.2-.2,0,0,.2-.2.2-.3,0,0,.2-.2.2-.3h0c.1-.2.2-.3.4-.4.1-.1.3-.2.5-.3.2-.1.4-.1.5-.1.2,0,.3,0,.5.2h0c0,0,.1,0,.2.1h0c0,0,.2,0,.3,0,.2,0,.3-.1.5-.2.1-.1.2-.3.3-.4,0-.1.1-.2.1-.4,0,0,0-.1,0-.2,0-.2.2-.3.3-.5.1-.1.3-.2.4-.3.2,0,.3-.1.5-.2.1,0,.2,0,.4,0,0,0,.1,0,.2,0,.1,0,.3,0,.4,0,0,0,.1,0,.2,0,0,0,.1,0,.2,0,.3,0,.6,0,.9,0,.2,0,.3.2.3.4,0,.1,0,.3,0,.4,0,0,0,0,0,.1h0c0,.2-.1.4-.1.6,0,.2,0,.4.2.5,0,0,0,.1,0,.2,0,.1.1.2.2.3,0,.2.2.3.3.5.1.2.3.3.4.2.1,0,.2-.2.3-.3,0,0,0,0,0,0,0-.2.1-.3.2-.5,0,0,0,0,0,0,0,0,0-.1,0-.2,0-.1,0-.3.1-.4,0-.2,0-.4.1-.5,0-.2,0-.4.1-.6,0-.2,0-.3.1-.5,0,0,0,0,0-.1,0,0,0,0,0-.1,0-.1,0-.3.1-.4.1-.3.3-.7.7-.8.2,0,.3,0,.4.2,0,.1.1.3.2.5,0,.4,0,.8.1,1.2,0,.1,0,.2,0,.3,0,0,0,.2,0,.2,0,.1,0,.2,0,.3,0,0,0,.2,0,.2,0,.2,0,.4.2.5,0,0,.1.2.2.3.6-1.2,2.8-2,5.6-2s.6,0,.9,0c1.7-3.7,2.6-7.9,2.6-12.2,0-11-5.9-20.7-14.7-26,0,0,0,0,0,.1h0c0,.1.1.3.2.4h0c0,.1,0,.3,0,.4,0,0,0,.1,0,.2,0,0,0,0,0,0s0,0,0,0c-.1,0-.2-.1-.3-.2,0,0,0,0,0,0,0-.1-.2-.2-.2-.3,0-.1-.2-.3-.3-.4h0c-.2-.3-.4-.5-.5-.7,0-.1-.2-.2-.3-.3-.7-.4-1.4-.7-2.1-1,0,0-.1,0-.2,0-.1,0-.2,0-.3,0h0s0,0,0,0c0,0-.2,0-.3,0,0,0,0,0-.1,0,0,0-.1,0-.2,0,0,0,0,0,0,0,0,0-.1,0-.2,0,0,0-.1,0-.2,0,0,0,0,0,0,0,0,0-.2,0-.3.1h0c0,0-.2,0-.3,0-.1,0-.2,0-.3.1,0,0-.2,0-.2.2,0,0,0,.2-.1.3h0c0,0,0,.2,0,.2,0,0,.1.2.2.2.1,0,.3.1.4.2h0c.1,0,.2,0,.4.1h.2c.2.1.5.2.7.3,0,0,0,0,0,0,0,0,0,0,.1,0,0,0,.1,0,.2,0,0,0,0,0,0,0,0,0,.2,0,.3,0,.1,0,.2.1.2.2,0,.1.1.2.2.3,0,.1.1.2.2.3,0,.1.2.2.3.2,0,0,0,0,.1,0,.2,0,.4.2.5.3,0,0,.1.2.1.3,0,.1,0,.2-.1.3,0,0-.2.1-.3.2,0,0,0,0,0,0-.1,0-.2.1-.3.2-.1,0-.3,0-.4,0-.1,0-.2-.1-.3-.2-.2-.2-.3-.4-.4-.6,0,.1,0,.2,0,.3,0,.1,0,.2,0,.3,0,.2,0,.3,0,.5,0,.2,0,.5,0,.7,0,.1,0,.3,0,.4,0,.1-.1.2-.2.3,0,0,0,0,0,0,0,0-.1.2-.2.3,0,0-.1.1-.2.2,0,0,0,0,0,0,0,0-.2.2-.3.2-.1,0-.3,0-.4,0-.1,0-.2,0-.3,0h0c-.1,0-.2,0-.3,0,0,0,0,0,0,0h0s0,0,0,0h0c0,0-.2.1-.2.2,0,0,0,.1,0,.2,0,0,0,0,0,0,0,0,0,.1,0,.2,0,.3.2.5.3.7,0,0,0,0,0,0,.1.2.3.3.4.5.1.2.2.5.3.7,0,.1,0,.3,0,.4,0,0,0,0,0,0,0,.1,0,.2,0,.3,0,.2-.2.5-.4.6-.1,0-.2,0-.4,0-.1,0-.3,0-.4,0-.2,0-.5,0-.7-.2,0,0-.2-.2-.2-.3,0-.1-.1-.2-.1-.3,0-.2,0-.3-.1-.5,0,0,0-.2,0-.2h0c0-.1,0-.3-.1-.4,0,0,0-.1-.1-.2,0,0,0,0-.1-.1,0,0,0,0,0,0,0,0,0,0,0-.1h0s0,0,0,0h0s0,0,0,0c0,0,0,0-.1-.1,0,0-.1,0-.2,0,0,0-.1,0-.2,0,0,0-.1,0-.2,0,0,0,0,0,0,0-.1,0-.2,0-.3,0-.1,0-.2,0-.3-.2,0,0,0-.1-.1-.2,0,0,0,0,0-.1,0,0,0,0-.1,0h0s0,0,0,0c0,0,0,0-.1,0,0,0-.1,0-.2,0-.1,0-.2,0-.3.2-.1.1-.2.2-.3.3h0s0,0,0,0h0s0,0,0,0h0s0,0,0,0c0,0,.1,0,.2.1,0,0,.1,0,.2,0,0,0,.2,0,.3.1,0,0,.1,0,.2,0,0,0,.2,0,.2.1.1,0,.2,0,.3.1,0,0,0,0,0,0,.1,0,.3,0,.4.1.2,0,.3.1.3.2,0,0,0,.2,0,.3,0,.2-.2.3-.3.4-.2.1-.4.2-.6.2,0,0-.2,0-.3,0h0s0,0,0,0h0s0,0,0,0c0,0,0,0,0,0,0,0,0,0,0,0h0c.1.2.3.3.5.4.1,0,.2.1.3.2.3.2.5.5.5.8,0,.2.1.5.2.7,0,0,0,.2,0,.2,0,.2,0,.3,0,.4,0,.1,0,.3,0,.4h0c0,.3,0,.7-.1,1,0,.1-.2.3-.3.3,0,0-.1,0-.2,0,0,0-.1,0-.2,0-.2.1-.4.4-.6.7,0,.1-.1.3-.2.4h0c0,.2-.1.3-.2.4,0,.1-.2.2-.3.3-.1.1-.2.2-.3.3-.1,0-.2.1-.4.2,0,0-.1,0-.2,0,0,0-.1,0-.2,0-.1,0-.2.1-.3.2h0c-.1,0-.2.2-.3.2,0,0-.2.1-.2.2h0c0,.1-.1.2-.2.3,0,0,0,0-.1.1-.1.1-.2.3-.4.3-.2,0-.4.1-.7.2,0,0,0,0-.1,0-.2,0-.4,0-.5.1h0c0,0-.2.1-.2.2,0,0,0,0,0,0,0,0,0,0,0,0,0,0,0,0,0,.1h0c0,0,0,.2,0,.3,0,.1,0,.2,0,.3,0,0,0,.2,0,.3,0,0,0,.2,0,.3,0,0,0,0,0,0,0,.1,0,.3-.1.4,0,.1-.2.2-.4.2-.2,0-.3,0-.5-.1-.1-.1-.2-.3-.2-.4,0-.2,0-.4,0-.6,0,0,0-.1,0-.2,0-.1,0-.2,0-.3,0,0,0,0,0,0,0,0,0-.2,0-.2h0s0,0,0,0h0c0,0,0-.1,0-.2h0s0,0,0,0c0,0,0,0,0,0,0,0,0,0,0,0,0,0,0,0,0,0,0,0,0,0,0,0-.1,0-.2,0-.3.2,0,0,0,.1-.1.2-.1.1-.2.3-.4.4,0,0,0,0,0,0,0,0-.2,0-.2.1-.1,0-.2.1-.3.2h0c0,0,0,.1-.1.2,0,0,0,.2,0,.3,0,0,0,.2.2.3.1.1.3.3.4.4,0,0,0,0,.1.1.2.2.5.5.7.8.2.3.4.7.5,1.1,0,.2,0,.4,0,.6h0c0,.2,0,.4,0,.6,0,.2-.2.4-.3.5-.1.2-.2.3-.4.5,0,0-.1.1-.2.2,0,0,0,0,0,0,0,0,0,0,0,0,0,0,0,0-.1.1-.1,0-.3.1-.4.2,0,0,0,0-.1,0,0,0-.2,0-.2.1,0,0-.2.1-.3.2-.2,0-.4,0-.6,0-.2,0-.3-.2-.5-.4-.1-.1-.3-.3-.5-.5,0,0-.1-.1-.2-.2,0,0-.2-.1-.2-.2-.2,0-.3-.2-.6-.3,0,0,0,0-.1,0-.1,0-.2-.2-.4-.2h0s0,0-.1,0c0,0,0,0-.1,0,0,0,0,0-.1,0,0,0-.1,0-.2,0-.2,0-.2.2-.3.4,0,.2,0,.3,0,.5,0,.2,0,.3,0,.5,0,.2,0,.3.1.5h0c0,.2,0,.3.1.5,0,.1.1.2.2.3,0,.1.1.2.2.4,0,.1.2.2.3.3.2.2.4.4.6.6.2.2.3.4.5.7,0,.1.1.2.2.3,0,.1.2.3.3.4,0,.1.1.3.2.4,0,.1.1.2.2.3h0c0,.1.1.2.2.4,0,.1,0,.3,0,.4,0,.1-.2.2-.3.2s-.3,0-.4-.1c-.2-.1-.4-.3-.7-.5-.1-.1-.3-.3-.4-.4,0,0-.1-.1-.2-.2-.2-.2-.4-.4-.5-.6,0-.1-.2-.3-.3-.4,0,0-.1-.2-.2-.3,0,0,0-.1-.1-.2-.1-.2-.2-.4-.3-.6,0-.1-.1-.3-.1-.4,0-.1,0-.3-.1-.4,0,0,0-.2-.1-.3,0-.2-.2-.3-.2-.5,0-.2,0-.3-.1-.5,0,0,0-.2,0-.3,0-.1,0-.2,0-.3,0-.2-.1-.3-.1-.5,0-.2,0-.5,0-.8,0-.3,0-.5.1-.7,0,0,0,0,0,0,0-.3.1-.5.1-.8,0-.1,0-.3,0-.4,0,0,0-.1,0-.2,0,0,0,0,0-.1,0,0,0,0,0,0,0,0,0,0,0,0,0,0,0,0-.1,0,0,0-.2,0-.3,0,0,0-.1,0-.2,0,0,0,0,0,0,0,0,0-.2,0-.2.1-.1,0-.3.1-.5,0-.1,0-.2-.2-.3-.4,0-.2-.1-.3-.2-.5,0-.2,0-.3,0-.5h0c0-.2,0-.4,0-.5,0-.1,0-.3-.1-.4,0,0,0,0,0,0,0-.2-.1-.3-.2-.4,0,0-.1-.2-.2-.2,0,0,0-.1-.1-.2h0s0,0,0,0c0,0,0,0,0,0,0,0,0,0,0,0,0,0,0,0,0,0,0,0,0,0-.1,0,0,0-.1-.1-.2-.2h0c0,0-.2-.1-.2-.1,0,0-.2,0-.3,0-.1,0-.3,0-.4,0,0,0-.1,0-.2,0,0,0-.2,0-.3,0,0,0-.2,0-.3,0-.1,0-.3.1-.4.2,0,0,0,0-.1,0h0c-.2.1-.3.2-.4.4,0,0-.1.1-.2.2,0,0-.2.1-.2.2,0,0-.2.2-.3.3-.2.2-.4.4-.6.6-.1,0-.2.2-.4.2,0,0-.1,0-.2,0-.2.1-.3.2-.5.4-.3.3-.5.6-.8.9h0c-.1.2-.3.4-.3.6,0,.2-.1.4-.2.6,0,.1,0,.2,0,.3,0,0,0,.1,0,.2,0,0,0,0,0,0,0,.2,0,.4-.1.6,0,0,0,.2-.1.3,0,0,0,0,0,.1,0,0,0,.1,0,.2,0,0,0,.2,0,.2,0,0,0,0,0,0,0,0,0,.1,0,.2,0,0,0,0,0,.1,0,0,0,.1,0,.2,0,.1,0,.2-.1.4,0,.2-.2.4-.3.5,0,0-.1.1-.2.2,0,0,0,0,0,0,0,0,0,0-.2.1,0,0-.2,0-.3,0,0,0-.1,0-.2-.2,0,0,0-.2-.1-.2h0c0-.1,0-.2,0-.3,0-.2,0-.3,0-.5,0,0,0,0,0-.1,0-.1,0-.3,0-.4,0-.3,0-.6-.1-.9,0-.1,0-.2,0-.3,0-.3,0-.6-.1-.9,0-.2,0-.4-.1-.6,0-.2,0-.4-.1-.6,0-.2,0-.3,0-.5,0,0,0,0,0-.1,0-.2,0-.3,0-.5,0,0,0,0,0-.1,0-.1,0-.2,0-.3,0-.1,0-.2,0-.3,0-.2,0-.4,0-.6,0,0,0-.2,0-.3,0,0,0,0,0,0,0,0,0,0,0,0,0,0,0,0,0,0,0,0,0,0,0-.1,0,0,0,0-.1-.1,0,0,0,0,0,0,0,0-.1-.1-.2-.2-.1-.1-.3-.2-.4-.4-.1-.2-.2-.3-.3-.5,0-.2-.1-.4-.1-.6,0,0,0,0,0-.1,0-.1,0-.3,0-.4,0,0,0-.2-.2-.2,0,0-.1,0-.2-.1-.2,0-.4,0-.6,0-.2,0-.3,0-.5,0-.1,0-.3-.1-.4-.2-.1,0-.3-.2-.4-.3h0c-.1-.1-.2-.3-.3-.4,0-.1-.2-.2-.3-.4,0-.2-.1-.3-.2-.5,0,0,0-.2,0-.3,0-.2,0-.5-.1-.7,0,0,0,.1,0,.2,0,0,0,.1,0,.2,0,0,0,.1-.1.2,0,0,0,0-.1.1h0c0,.1-.1.3-.2.4,0,0,0,0,0,0,0,0,0,0,0,.1,0,0,0,0,0,0,0,0,0,0,0,0,0,0,0,0,0,0h0s0,0,0,0c0,0,0,0,0,0,0,0,0,0,0,0h0s0,0,0,0c0,0,0,0,0,0,0,0,0,0,0,.1,0,0,0,.1,0,.2,0,.3,0,.6,0,.9,0,.1,0,.3,0,.4,0,0,0,.1,0,.2,0,0,.1,0,.2,0,.1,0,.2-.1.3-.2,0,0,.1,0,.2-.2,0,0,0,0,0,0,0,0,0,0,0,0,0,0,.1,0,.2,0,0,0,.1,0,.1,0,0,0,0,.2,0,.3,0,0,0,0,0,0,0,0,0,0,0,.1,0,.1,0,.2,0,.3,0,.1,0,.2,0,.3,0,0,0,0,0,0,0,.1,0,.3,0,.4,0,0,0,0,0,0,0,.1,0,.2,0,.4,0,.2-.1.5-.3.8-.1.2-.3.4-.4.6,0,0,0,0,0,0-.2.3-.5.5-.8.7-.2.2-.4.3-.5.5,0,0-.1.1-.2.2-.1.1-.3.3-.4.4,0,0-.1.1-.2.2,0,0,0,0-.1.1h0c-.1,0-.2.2-.3.2-.1,0-.3.1-.4.2-.1,0-.3,0-.4,0-.3-.1-.3-.5-.3-.7,0-.3,0-.6,0-.8,0,0,0,0,0,0,0,0,0-.1,0-.2,0,0,0,0,0,0,0,0,0,0,0-.1h0c0-.2,0-.3,0-.4,0-.5.1-1,.2-1.5,0,0,0-.2,0-.3,0,0,0,.2-.1.3,0,.1,0,.2,0,.3,0,0,0,.2,0,.2,0,0,0,0,0,.1,0,.3,0,.5-.1.7,0,0,0,.2,0,.3,0,.1,0,.3-.1.4,0,.3-.1.5-.1.7,0,.2,0,.4,0,.5s0,.1,0,.2c0,0,0,.2,0,.3,0,.2,0,.3,0,.5,0,.1,0,.2,0,.3,0,0,.1.2.2.2,0,0,.2.1.3.1h0c.1,0,.2,0,.3,0h0s0,0,0,0c0,0,0,0,0,0,0,0,0,0,.1,0,0,0,0,0,.1,0,0,0,0,0,0,0,0,0,0,0,0,0,0,0,0,0,0,0,0,0,0,0,0,0,0,0,0,0,0,.1,0,0,0,0,0,0,0,0,0,0,0,.1,0,0,0,0,0,0,0,0,0,.2,0,.3,0,0,0,0,0,.1,0,.5,0,1-.2,1.5,0,.5-.2.9-.4,1.4,0,0,0,.1,0,.2-.1.4-.3.8-.4,1.2,0,.2-.2.4-.3.7,0,0,0,0,0,0,0,.2-.2.4-.3.5,0,.1-.2.2-.2.2h0s0,0-.1,0c0,0,0,0-.1,0s0,0,0,0c0,0,0,0,0,0,0,0,0,0,0,0,0,0,0,0,0,0,1.2,15.7,14.3,28,30.2,28s9.4-1.1,13.5-3.2v-.8M57.1,312.3c0,0,0,.2,0,.3,0,0,0,0,0,0,0,.1,0,.2-.1.3-.1.2-.2.4-.4.6-.1,0-.2.1-.3.1,0,0,0,0,0,0,0,0-.2,0-.2-.1,0,0,0-.2,0-.3h0c0-.1,0-.2,0-.4,0,0,0-.2,0-.3,0-.1,0-.3,0-.4,0-.3,0-.5.1-.7,0,0,0,0,0,0,0,0,0,0,0,0,0,0,0,0,0,0,0,0,0,0,0,0,0,0,0-.1,0-.2,0,0,0-.2.2-.3,0,0,.2,0,.3,0,0,0,.1.2.2.3,0,0,0,0,0,.1,0,0,0,.1,0,.2,0,.1,0,.2.1.3.1.2.2.4.2.6M71.9,320.2c0,.2,0,.4,0,.5,0,.2,0,.4-.1.5,0,.1-.1.3-.3.4,0,0,0,0-.1,0-.1,0-.2,0-.3-.2,0,0-.2-.2-.3-.3,0,0,0,0-.1-.1,0,0-.2-.2-.3-.3-.1-.2-.3-.3-.5-.5,0,0-.2-.2-.3-.2-.2-.1-.4-.3-.5-.5-.2-.2-.5-.5-.8-.8,0-.1-.2-.3-.3-.4,0-.1-.2-.3-.2-.4h0c-.1-.3-.3-.6-.6-1h0c0-.2-.2-.3-.3-.4,0-.1-.2-.2-.3-.3,0,0,0,0,0,0-.1-.1-.3-.3-.4-.5-.1-.1-.2-.3-.3-.4-.2-.3-.5-.5-.7-.8-.1-.1-.3-.2-.4-.4,0,0,0,0,0,0h0s0,0,0,0c0,0,0,0,0,0,0,0,0,0,0,0,0,0,0,0,0,0,0,0,0,0,0,0,0,0,0,0,0,0,0,0,0,0,0,0,0,0,0,0,0,0,0,0,0,0,0-.1,0,0,.1-.1.2-.1.1,0,.3,0,.4,0,0,0,0,0,0,0,0,0,.1,0,.2,0h0c.2,0,.3,0,.4.2.1,0,.3.2.4.3h0c.2.1.3.3.4.4.3.3.6.5.9.7,0,0,.2.1.2.2,0,0,.1.1.2.2,0,0,.2.1.2.2,0,0,.1,0,.2.1,0,0,.1.1.2.2.2.2.4.3.6.5,0,.1.2.2.2.3.1.2.3.4.4.5.3.3.5.5.8.7,0,0,.2,0,.2.1,0,0,.1,0,.2.1.1,0,.3.2.4.3.3.3.5.6.6.9,0,.2,0,.3,0,.5M83.1,317.8c0,0-.2.1-.2.2h0c0,0-.2.1-.2.2h0c0,0-.2.1-.2.2,0,0,0,.2,0,.3,0,0,0,.1.1.2,0,0,0,0,0,0,.1.2.3.3.3.5,0,0,0,.4-.1.6-.2.2-.5,0-.5,0-.2-.1-.3-.3-.4-.5,0,0,0-.1,0-.2,0,0,0,0,0-.1,0,0,0-.2-.1-.3,0,0,0,0,0,0,0,0,0,0,0,0,0,0,0,.2,0,.2,0,0,0,0,0,0,0,.4,0,.9-.2,1.2,0,0-.2.2-.3.3h0c0,0-.1,0-.1,0,0,0,0-.2,0-.3h0c0,0,0-.1,0-.2,0,0,0-.1,0-.2,0-.2,0-.4,0-.7,0,0,0,0,0-.1,0-.2,0-.4,0-.5s0-.2,0-.3c0-.2.1-.4.3-.6,0,0,0,0,0,0,0,0,0,0,0,0,0,0,0,0,.1,0,0,0,.2,0,.3-.1.1,0,.3,0,.4,0,0,0,.2,0,.3,0,0,0,.2,0,.3,0,.1,0,.3,0,.4,0,0,0,.3,0,.4.1,0,0,0,0,0,.2,0,.1,0,.2-.2.2M85.7,316.1s0,0,0,0c0,0,0,0,0,0,0,0,0,0,0-.2,0,0,0-.1,0-.2,0,0,0,0,0,0,0,0,0,0,0,0h0c0,0,0-.2.1-.2,0,0,.1,0,.2,0,0,0,0,0,.1.1,0,0,.1,0,.2,0,.1,0,.2.1.3.2,0,0,.2.1.2.2.1.2,0,.4,0,.6,0,0-.2.2-.3.3,0,0,0,0,0,0,0,0-.1,0-.2,0,0,0,0,0-.1,0,0,0,0,0-.1-.1,0,0-.2-.2-.2-.2M87.6,318.9c-.2.1-.4.2-.6.2s-.2,0-.3,0c-.1,0-.2,0-.4-.2h0s0,0,0,0c-.1,0-.2,0-.3-.2,0,0,0-.1,0-.2,0,0,0,0,.1,0,0,0,0,0,0,0,0,0,.1,0,.2,0,0,0,0,0,0,0,0,0,0,0,0,0,0,0,0,0,0,0h0s0,0,.1,0h0s0,0,.1,0c.1,0,.2,0,.4,0,.1,0,.3,0,.4,0,0,0,.2,0,.2.2,0,.2,0,.3-.2.3M90.1,320.5c0,0-.1.1-.3.1s0,0,0,0c-.1,0-.2,0-.3,0,0,0,0-.3,0-.3,0,0,0,0,0-.1,0,0,0-.2,0-.3,0,0,0-.1,0-.2,0,0,0,0,0,0,0,0,0,0,0,0,0,0,0,0,.1,0,0,0,0,0,0,0h0s0,0,0,0c0,0,0,0,0,0,0,0,0,0,0,0,.1,0,.2,0,.2.1,0,0,.1.2.1.3,0,.2,0,.5-.2.6M89.7,317c.1.1.2.3.3.5h0c0,.3.1.4.2.6,0,0,.1-.1.2-.2,0,0,0,0,.1,0,0,0,0,0,.1-.1,0,0,.1-.1.2-.2.1-.1.2-.2.4-.3,0,0,.1,0,.2-.1,0,0,0,0,0,0,0,0,0,0,0,0h0s0,0,0,0c0,0,.2,0,.4-.1,0,0,.1,0,.2,0,0,0,0,0,.1,0,0,0,0,0,0,0h0s0,0,0,0c0,0,0,0,0,0,0,0,0,0,0,0,0,0,0,0,0,0h0s0,0,0,0h0s0,0,0,0c0,0,0,0,0,0,0,0,0,0,0,0h0c.1,0,.3,0,.4,0,0,0,0,0,.1,0,.1,0,.3,0,.4,0,0,0,0,0,0,0,0,0,0,0,.1,0,.1,0,.2,0,.4,0,.1,0,.3.1.4.2,0,0,.1,0,.2.1,0,0,0,0,.1,0,0,0,0,0,0,0,0,0,0,0,0,0,0,0,0,0,0,0h0s0,0,0,0h0s0,0,0,0c0,0,0,0,0,0,0,0,0,0,0,0,0,0,0,0,0,0h0c0,0,.1.1.2.2h0c0,0,.2.2.3.2.1.1.2.2.3.3,0,0,.2.2.2.2,0,0,.2.2.3.2.1,0,.2.2.3.3,0,0,.2.2.3.3h0c0,.1.2.2.2.3.1.2.2.5,0,.8-.1.2-.4.3-.6.2-.1,0-.2-.1-.3-.2,0,0-.1,0-.2-.1,0,0,0,0-.1-.1-.2-.2-.5-.3-.7-.4-.1,0-.3-.1-.4,0-.1,0-.2.1-.3.2,0,.1-.1.2-.1.3,0,.1-.1.3-.2.4-.1.2-.4.4-.6.5,0,0-.2,0-.2,0-.2,0-.4,0-.6,0-.3,0-.5-.2-.8-.3-.2-.1-.5-.2-.5-.5,0-.1,0-.3.2-.4h0s0,0,0,0c0,0,0,0,0-.1,0,0,0,0,0,0,0,0,0,0,0-.1,0,0,0,0-.1-.1,0,0,0,0,0,0,0,0,0,0-.1-.1-.1,0-.2-.2-.4-.2-.2,0-.4-.1-.5-.2,0,0-.2,0-.3,0-.6-.2-1.1-.4-1.3-.8-.1-.1-.2-.3-.3-.4,0,0-.1-.2-.2-.3,0,0,0,0-.1-.1-.1-.2-.2-.3-.3-.5,0-.2,0-.4.3-.5.4-.1.8,0,1.1.4M87.1,288.9s0,0,.1,0c0,0,0,0,0,0h0s0,0,0,0h0c0,0,.2,0,.3.1,0,0,.1,0,.2,0,.2,0,.3.1.4.2.1,0,.2.1.3.3,0,0,0,0,0,0,0,0,0,0,0,0,0,0,0,0,0,0,0,0,0,0,0,0,0,0,0,.2,0,.3,0,.1-.2.3-.3.3,0,0,0,0,0,0-.1,0-.2,0-.3,0-.1,0-.3,0-.4,0,0,0,0,0,0,0-.1,0-.2,0-.3-.1,0,0,0-.2,0-.3,0,0,0,0,0,0,0-.1,0-.3,0-.4,0,0,0-.1,0-.2,0,0,0,0,0,0,0,0,0,0,0,0,0,0,0,0,0,0,0,0,0,0,0,0,0,0,0,0,0,0,0,0,0,0,0-.1M84.6,295c0,0,.2-.1.2-.2,0,0,.2-.1.2-.2,0,0,.1-.1.1-.2,0,0,.1-.2.2-.3.1-.2.3-.3.4-.3.2,0,.4-.1.6-.2.2,0,.3-.1.5-.2.2-.1.3-.2.5-.3h0c.1-.1.3-.2.4-.4,0-.2,0-.4,0-.6,0,0,0-.2,0-.3,0,0,0-.1,0-.2,0,0,0,0,0,0,0,0,0,0,0,0,0-.2,0-.4-.1-.5,0,0,0,0,0,0,0,0,0,0,0,0,0,0,0,0,0,0,0,0,0,0,0,0,0,0,0,0,0-.1,0,0,0-.1,0-.1,0,0,0,0,0,0,0,0,0,0,0,0,0,0,.2,0,.2,0,.1,0,.2.2.3.3,0,0,0,.2,0,.3,0,0,.1.2.1.3,0,.1,0,.2.1.3,0,0,0,.1,0,.2,0,.2.1.3.2.5,0,.2,0,.3,0,.4,0,.1,0,.3,0,.5,0,.3,0,.6-.2.9-.1.3-.4.4-.7.5-.1,0-.2,0-.3.1-.2,0-.4.2-.5.2-.2,0-.3,0-.5.1,0,0,0,0,0,0-.1,0-.2,0-.4.1,0,0-.1.2-.2.3,0,0,0,0,0,.1,0,0-.1.2-.3.3-.1,0-.2.1-.4.1h0c-.2,0-.3,0-.4,0-.1,0-.3-.1-.3-.2,0-.1-.1-.2-.1-.4,0-.2,0-.4.2-.6M83.7,310.8s0,0,0,0c0,0,0,0,0,0h0s0,0,0,0c0,0,0,0,0,0h0s0,0,0,0c0,0,0,0,0,0,0,0,0,0,0,0,0,0,0,0,0-.1,0,0,0,0,0,0,0,0,0,0,0,0h0s0,0,0,0c0,0,0,0,0,0h0c0,0,.1-.2.2-.3.1,0,.2-.2.3-.2.1,0,.3,0,.3.1,0,0,0,.2.1.3,0,0,0,0,0,.1,0,0,0,.1,0,.2,0,.1.1.3.2.4,0,.2,0,.5,0,.7,0,.2-.1.5-.2.6-.1.2-.3.3-.5.4-.2,0-.4.1-.6.1s0,0,0,0c-.3,0-.5,0-.6-.2-.2-.2-.2-.4-.3-.6h0c0-.3-.1-.5-.2-.7,0,0,0,0,0,0,0,0,0-.2,0-.2,0,0,.1,0,.2,0,0,0,0,0,0,0,0,0,0,0,0,0,0,0,0,0,.1,0,0,0,.1,0,.2-.2,0,0,0,0,0,0,0,0,0,0,0,0,.1-.1.2-.2.3-.3M82.4,307.6s0,0,0,0c0,0,0,0,0-.1.1,0,.3,0,.3,0,.1,0,.2.1.3.2,0,0,0,0,.1,0,.1.1.3.2.3.4s0,.2-.1.2c0,0-.2.2-.4.2s0,0,0,0c-.1,0-.2,0-.3-.2,0,0-.1-.1-.2-.2,0,0,0,0,0,0,0-.1-.1-.2-.1-.3,0,0,0-.1,0-.2M82.2,309.8s0,0,0-.1c0,0,0,0,0,0,0,0,0,0,0,0,0,0,0,0,0,0,0,0,0,0,0,0,0,0,0-.1,0-.2,0,0,.2,0,.3,0,0,0,.2.1.3.2,0,0,0,0,0,0h0c.1.1.2.2.3.3,0,.1,0,.2,0,.4,0,.3-.2.4-.3.5,0,0,0,0,0,0,0,0,0,0-.1,0,0,0-.1,0-.2,0,0,0-.1,0-.2,0-.1,0-.2-.2-.2-.4,0-.1,0-.3,0-.4M82.3,316s0,0,0,0c0,0,0,0,0,0,0,0,.2,0,.3,0,.1,0,.2,0,.4,0,.2,0,.4,0,.6,0,0,0,0,0,.1,0,.1,0,.3,0,.4,0,0,0,.2.1.1.2,0,.2-.2.4-.4.5-.1,0-.2.1-.3.2-.1,0-.2.1-.4.1,0,0-.1,0-.2,0-.2,0-.3,0-.5,0,0,0,0,0,0,0-.2,0-.4,0-.5,0,0,0-.1,0-.2,0-.2,0-.5,0-.6-.3,0-.2.1-.5.4-.6,0,0,.3-.1.4,0,0,0,0,0,0,0,0,0,0,0,0,0,0,0,0,0,0,0h0s0,0,.1,0c0,0,0,0,.1,0M81.9,304.7c.2.2.3.4.3.6,0,.2,0,.3-.1.4,0,.1,0,.2,0,.3,0,.2,0,.3,0,.5,0,.1,0,.2,0,.3,0,.3,0,.5-.3.7,0,0-.3.2-.5.2s-.1,0-.2,0c0,0-.2-.2-.2-.3,0-.1,0-.2,0-.4h0c0-.3,0-.6,0-1,0-.3,0-.6.1-.9,0,0,0-.1,0-.2,0,0,0,0,0,0,0,0,0,0,0-.1,0,0,0,0,0,0,0,0,0,0,0,0,0,0,0,0,0,0,0,0,0,0,.1-.1.1,0,.2-.1.3-.1.1,0,.3,0,.3.2M80.3,301.6c0-.2,0-.4.1-.6,0-.2.3-.3.4-.4h0s0,0,0,0h0s0,0,0,0h0s0,0,0,0c0,0,0,0,0,0,0,0,0,0,0,0,0,0,0,0,0,0,0,0,.2,0,.2,0,.1,0,.2.2.2.3,0,0,0,0,0,0,0,0,0,0,0,0,0,.1,0,.2.1.3,0,.1,0,.3,0,.4,0,.1,0,.3-.2.4,0,.1-.1.2-.2.3-.1,0-.3.2-.4.2s0,0,0,0c0,0-.2,0-.2-.1,0-.1,0-.2,0-.3,0,0,0,0,0,0,0,0,0-.1,0-.2,0,0,0-.2,0-.3ZM73.9,316c.1,0,.2,0,.4,0,0,0,0,0,0,0,.1,0,.3,0,.4.1,0,0,0-.1,0-.1,0,0,0-.1,0-.2,0-.1.1-.2.2-.3,0,0,.2-.1.4-.1,0,0,0,0,0,0,0,0,0,0,.1,0,0,0,.1,0,.2,0,.2,0,.4-.2.6-.4,0,0,.1-.2.2-.2,0-.1.2-.2.3-.3.2-.2.3-.4.5-.6h0c.2-.2.3-.4.5-.6.1-.2.3-.4.5-.6.2-.2.4-.3.6-.4.2,0,.5-.1.7,0,0,0,.1.1.2.2,0,0,0,0,0,0l.2.2s0,0,0,0c0,0,0,0,0,0,0,0,0,0,0,0,0,0,0,0,0,0h0c0,0,.1.2.2.3,0,0,0,0,.1.1.1.1.3.3.4.5,0,.1,0,.2,0,.3,0,0-.2,0-.3,0h0c-.1,0-.2,0-.3,0-.1,0-.1.2-.2.3,0,.1,0,.3,0,.4,0,.1,0,.2.1.3,0,0,0,0,0,0,0,0,.1.1.2.2,0,0,.1.2.2.3,0,0,0,.2,0,.3,0,.1-.1.2-.2.2,0,0-.1,0-.2,0,0,0,0,0,0,0,0,0-.1,0-.1,0,0,0,0,.1,0,.2h0s0,0,0,0c0,0,0,0,0,.1,0,.1,0,.2,0,.4,0,0-.1.2-.2.2,0,0,0,0,0,0,0,0,0,0,0,0,0,0-.1.2-.2.3,0,0,0,.2,0,.4,0,0,0,.1,0,.2,0,0,0,.2,0,.2,0,.1,0,.3,0,.4,0,.3-.1.5-.3.6-.2.2-.4.3-.6.3,0,0-.1,0-.2,0-.2,0-.4,0-.6,0,0,0-.2,0-.3,0-.2,0-.3,0-.5-.1-.2,0-.5-.2-.7-.3-.2-.1-.4-.3-.7-.4,0,0-.1,0-.2,0-.2,0-.3-.1-.5-.2-.2,0-.4-.2-.6-.4-.4-.4-.5-1-.5-1.4h0c0-.3,0-.7.3-.8M75.8,322.8s0,0-.1,0c0,0,0,0-.1,0-.2,0-.4,0-.6,0-.2,0-.5-.1-.7-.2-.2,0-.4-.1-.6-.2h0c-.2-.1-.5-.2-.7-.3,0,0,0,0,0,0-.1,0-.2,0-.3,0,0,0-.2,0-.3-.2,0,0,0-.2,0-.3,0,0,0,0,0-.1h0s0,0,0,0c0,0,0,0,0,0,0,0,0,0,0,0,0,0,0,0,.1,0,0,0,0,0,0,0,0,0,.1,0,.2,0,.2,0,.5,0,.7,0,.2,0,.3,0,.5.1,0,0,.2,0,.3,0,.2,0,.5,0,.7,0h.1c.2,0,.5,0,.7,0,0,0,0,0,.1,0,0,0,.2,0,.3,0,0,0,.2,0,.2,0,0,0,0,0,.1,0,0,0,.1,0,.2,0,0,0,.1,0,.2,0,.1,0,.2,0,.4,0,.2,0,.4,0,.6.1,0,0,.1,0,.2,0,.2,0,.5.2.7.3,0,0,0,0,.1,0,.2,0,.4.1.5.3,0,0,.4.4.2.6,0,0-.1.1-.2.1s0,0,0,0c-.1,0-.2,0-.4,0,0,0,0,0-.1,0,0,0-.2,0-.3,0-.1,0-.3,0-.4,0-.2,0-.4,0-.5,0,0,0-.2,0-.3,0,0,0,0,0-.1,0,0,0-.2,0-.2,0-.1,0-.3,0-.4,0-.2,0-.4,0-.6,0"/>
    <path class="st10" d="M89.1,285.4s0,0,.1,0h0s0,0-.1,0"/>
    <path class="st10" d="M89.1,285.4c-.2-.1-.4-.2-.6-.4.2.1.4.2.6.4"/>
    <path class="st29" d="M52.8,291.1c0-.1.1-.3.2-.4.2-.3.4-.5.6-.7.2-.2.4-.4.6-.7-.1,0-.2,0-.3,0-.2,0-.4.2-.7.3-.1,0-.2.1-.3.2,0,0-.1.1-.2.2,0,0,0,0,0,0,0,0-.2.1-.3.2-.1,0-.2.1-.3,0,0,0-.1,0-.1-.1-.2.2-.3.3-.5.5.2-.2.3-.3.5-.5-.2.2-.4.4-.5.6,0,0,0,0,0,.1,0,0,0,0,0,0,0,0,.2.2.2.4,0,.3,0,.6,0,1,0,0,0,0,0,.1,0,.3,0,.6,0,.9,0,0,0,0,0,0,0,0,0,.1,0,.2,0,0,0,0,0,0,0,0,0,0,0,0h0s0,0,0,0h0c0,0,.1,0,.1,0,.1,0,.2-.2.3-.3.2-.2.4-.5.5-.8,0,0,0-.1.1-.2,0,0,0-.1,0-.2,0-.1,0-.3,0-.5,0-.2.1-.3.2-.4"/>
    <path class="st29" d="M87.7,284.6c.3.1.5.3.8.4-.3-.1-.5-.3-.8-.4"/>
    <path class="st29" d="M81.9,304.7c0,0-.2-.1-.3-.2-.1,0-.2,0-.3.1,0,0,0,0-.1.1,0,0,0,0,0,0,0,0,0,0,0,0,0,0,0,0,0,0,0,0,0,0,0,.1,0,0,0,0,0,0,0,0,0,.1,0,.2,0,.2-.1.5-.1.9,0,.4,0,.7,0,1h0c0,.2,0,.3,0,.4,0,.1.1.2.2.3,0,0,.1,0,.2,0,.2,0,.4-.2.5-.2.2-.2.3-.4.3-.7,0-.1,0-.2,0-.3,0-.2,0-.3,0-.5,0-.1,0-.2,0-.3,0-.1.1-.3.1-.4,0-.2,0-.5-.3-.7"/>
    <path class="st29" d="M97,319.8h0c0-.1-.2-.2-.3-.3-.1-.1-.2-.2-.3-.3,0,0-.2-.2-.3-.2,0,0-.2-.2-.2-.2-.1-.1-.2-.2-.3-.3,0,0-.2-.2-.3-.2t0,0c0,0-.1-.1-.2-.2h0s0,0,0,0c0,0,0,0,0,0,0,0,0,0,0,0,0,0,0,0,0,0h0c0,0,0,0,0-.1h0s0,0,0,0c0,0,0,0,0,0,0,0,0,0,0,0,0,0,0,0-.1,0,0,0-.1,0-.2-.1-.2,0-.3-.1-.4-.2-.1,0-.2,0-.4,0,0,0,0,0-.1,0,0,0,0,0,0,0-.1,0-.3,0-.4,0,0,0,0,0-.1,0-.1,0-.2,0-.4,0h0s0,0,0,0c0,0,0,0,0,0,0,0,0,0,0,0h0s0,0,0,0h0s0,0,0,0,0,0,0,0h0s0,0,0,0c0,0,0,0,0,0,0,0,0,0,0,0,0,0,0,0,0,0,0,0,0,0,0,0,0,0,0,0-.1,0,0,0-.1,0-.2,0-.1,0-.3,0-.4.1h0s0,0,0,0h0s0,0,0,0c0,0,0,0,0,0,0,0-.1,0-.2.1-.1,0-.2.2-.4.3,0,0-.1.1-.2.2,0,0,0,0-.1.1,0,0,0,0-.1,0,0,0-.2.1-.2.2,0-.1-.1-.3-.2-.4,0,0,0,0,0-.1,0-.2-.2-.4-.3-.5-.3-.3-.7-.5-1.1-.4-.2,0-.3.2-.3.5,0,.2.2.4.3.5,0,0,0,0,.1.1,0,0,.1.2.2.3,0,.1.2.3.3.4.3.4.7.7,1.3.8,0,0,.2,0,.3,0,.2,0,.4,0,.5.2.1,0,.2.1.4.2,0,0,.1,0,.1.1,0,0,0,0,0,0,0,0,0,0,.1.1,0,0,0,0,0,.1,0,0,0,0,0,0,0,0,0,0,0,.1,0,0,0,0,0,0h0c0,.1-.1.2-.2.4,0,.3.2.4.5.5.2,0,.5.2.8.3.2,0,.4,0,.6,0s.2,0,.2,0c.2,0,.4-.2.6-.5,0-.1.1-.3.2-.4,0-.1,0-.2.1-.3,0,0,.1-.2.3-.2.1,0,.3,0,.4,0,.2,0,.5.2.7.4,0,0,.1,0,.1.1,0,0,.1,0,.2.1,0,0,.2.2.3.2.3,0,.5,0,.6-.2.1-.2,0-.6,0-.8,0-.1-.1-.2-.2-.3"/>
    <path class="st29" d="M89.8,320.6h0c.1,0,.2,0,.3-.1.1-.2.2-.4.2-.6,0,0,0-.2-.1-.3,0,0-.1-.2-.2-.1,0,0,0,0,0,0,0,0,0,0,0,0,0,0,0,0,0,0h0s0,0,0,0c0,0,0,0-.1,0,0,0,0,0,0,0,0,0,0,0,0,0,0,0,0,.1,0,.2,0,0,0,.2,0,.3,0,0,0,0,0,.1,0,0,0,.2,0,.3,0,0,.1,0,.3,0"/>
    <path class="st29" d="M86.2,318.8s0,0,0,0h0c.1,0,.2.1.4.2,0,0,.2,0,.3,0,.2,0,.4,0,.6-.2.1,0,.2-.2.2-.3,0-.1-.2-.2-.2-.2-.1,0-.3,0-.4,0-.1,0-.2,0-.4,0,0,0,0,0-.1,0h0s0,0-.1,0h0s0,0,0,0c0,0,0,0,0,0,0,0,0,0,0,0,0,0-.1,0-.2,0,0,0,0,0,0,0,0,0-.1,0-.1,0,0,0,0,.1,0,.2,0,.1.2.2.3.2"/>
    <path class="st29" d="M82.1,315.9h0s0,0,0,0c0,0,0,0,0,0,0,0,0,0,0,0,0,0-.3,0-.4,0-.2.1-.5.3-.4.6,0,.2.3.3.6.3,0,0,.2,0,.2,0,.2,0,.4,0,.5,0,0,0,0,0,0,0,.2,0,.3,0,.5,0s.1,0,.2,0c.1,0,.2,0,.4-.1.1,0,.2-.1.3-.2.2,0,.4-.3.4-.5,0-.1,0-.2-.1-.2-.1,0-.2,0-.4,0,0,0,0,0-.1,0-.2,0-.4,0-.6,0-.1,0-.3,0-.4,0,0,0-.2,0-.3,0,0,0,0,0,0,0,0,0,0,0,0,0,0,0,0,0-.1,0,0,0,0,0-.1,0"/>
    <path class="st29" d="M82.5,318.2h0c0,0,.1-.1.2-.2h0c0-.1.2-.2.2-.2,0,0,.1-.1.1-.2,0,0,0-.1,0-.2-.1-.1-.3-.1-.4-.1-.1,0-.3,0-.4,0,0,0-.2,0-.3,0,0,0-.2,0-.3,0-.1,0-.3,0-.4,0,0,0-.2,0-.3.1,0,0,0,0-.1,0,0,0,0,0,0,0,0,0,0,0,0,0-.1.2-.2.4-.3.6,0,0,0,.2,0,.3,0,.2,0,.4,0,.5,0,0,0,0,0,.1,0,.3,0,.5,0,.7,0,0,0,.1,0,.2,0,0,0,.1,0,.1h0c0,.1,0,.2,0,.3,0,0,0,0,.1,0h0c.2,0,.3-.2.3-.3.3-.4.3-.8.2-1.2,0,0,0,0,0,0,0,0,0-.2,0-.2,0,0,0,0,0,0,0,0,0,0,0,0,0,0,.1.2.1.3,0,0,0,0,0,.1,0,0,0,.1,0,.2,0,.2.2.4.4.5,0,0,.3.2.5,0,.2-.2.1-.5.1-.6,0-.2-.2-.4-.3-.5,0,0,0,0,0,0,0,0-.1-.1-.1-.2,0,0-.1-.2,0-.3,0,0,.1-.1.2-.2"/>
    <path class="st29" d="M86.2,316.5c0,0,.1,0,.2,0s0,0,0,0c.1,0,.3-.2.3-.3.1-.2.2-.4,0-.6,0,0-.1-.2-.2-.2-.1,0-.2-.1-.3-.2,0,0-.1,0-.2,0,0,0,0,0-.1-.1,0,0-.2,0-.2,0,0,0-.1.1-.1.2,0,0,0,0,0,0,0,0,0,0,0,0,0,0,0,.1,0,.2,0,0,0,.1,0,.2,0,0,0,0,0,0,0,0,0,0,0,0,0,0,0,.2.2.2,0,0,.1,0,.1.1,0,0,0,0,.1,0"/>
    <path class="st29" d="M83.3,307.7s0,0-.1,0c0,0-.2-.2-.3-.2,0,0-.2,0-.3,0,0,0,0,0,0,.1,0,0,0,0,0,0,0,0,0,.1,0,.2,0,.1,0,.2.1.3,0,0,0,0,0,0,0,0,.1.1.2.2,0,0,.2.2.3.2h0c.1,0,.3,0,.4-.2,0,0,.1-.2.1-.2,0-.2-.2-.3-.3-.4"/>
    <path class="st29" d="M65.2,313.6h0s0,0,0,0c0,0-.1,0-.2,0,0,0,0,0,0,0-.1,0-.3,0-.4,0,0,0-.2,0-.2.1,0,0,0,0,0,.1,0,0,0,0,0,0,0,0,0,0,0,0,0,0,0,0,0,0,0,0,0,0,0,0,0,0,0,0,0,0,0,0,0,0,0,0,0,0,0,0,0,0,0,0,0,0,0,0h0s0,0,0,.1c.1.1.2.3.4.4.3.3.5.5.7.8.1.1.2.3.3.4.1.2.2.3.4.5,0,0,0,0,0,0,0,.1.2.2.3.3.1.1.2.3.3.4h0c.2.4.4.7.6,1h0c0,.2.2.3.2.5,0,.2.2.3.3.4.2.3.5.6.8.8.2.2.4.3.5.5,0,0,.2.2.3.2.2.1.3.3.5.5,0,0,.2.2.3.3,0,0,0,0,.1.1,0,0,.2.2.3.3,0,0,.2.2.3.2s0,0,.1,0c.2,0,.2-.2.3-.4,0-.2.1-.4.1-.5,0-.2,0-.4,0-.5,0-.2,0-.4,0-.5,0-.3-.3-.6-.6-.9-.1-.1-.3-.2-.4-.3,0,0-.1,0-.2-.1,0,0-.2,0-.2-.1-.3-.2-.5-.4-.8-.7-.2-.2-.3-.4-.4-.5,0-.1-.2-.2-.2-.3-.2-.2-.4-.4-.6-.5,0,0-.1-.1-.2-.2,0,0-.1,0-.2-.1,0,0-.2-.2-.2-.2,0,0-.1-.1-.2-.2,0,0-.2-.1-.2-.2-.3-.2-.5-.4-.9-.7-.1,0-.3-.2-.4-.3h0c-.1-.1-.3-.2-.4-.3-.1,0-.3-.1-.4-.2Z"/>
    <path class="st29" d="M55.9,313.1c0,0,0,.2,0,.3,0,0,.1.1.2.1h0c0,0,.2,0,.3-.1.2-.1.3-.3.4-.6,0,0,0-.2.1-.3,0,0,0,0,0,0,0,0,0-.2,0-.3,0-.2,0-.4-.2-.6,0-.1-.1-.2-.1-.3,0,0,0-.1,0-.2,0,0,0,0,0-.1,0,0,0-.2-.2-.3,0,0-.2,0-.3,0-.1,0-.2.2-.2.3,0,0,0,.1,0,.2,0,0,0,0,0,0,0,0,0,0,0,0,0,0,0,0,0,0,0,0,0,0,0,0-.1.2-.2.5-.1.7,0,.1,0,.3,0,.4,0,0,0,.2,0,.3,0,.1,0,.2,0,.3h0Z"/>
    <path class="st29" d="M87.1,289s0,0,0,0c0,0,0,0,0,0,0,0,0,0,0,0,0,0,0,0,0,0,0,0,0,0,0,0,0,0,0,.2,0,.2,0,.2,0,.3,0,.4,0,0,0,0,0,0,0,0,0,.2,0,.3,0,.1.2.1.3.1,0,0,0,0,0,0,.1,0,.3,0,.4,0,0,0,.2,0,.3,0s0,0,0,0c.1,0,.3-.2.3-.3,0-.1,0-.2,0-.3,0,0,0,0,0,0,0,0,0,0,0,0,0,0,0,0,0,0,0,0,0,0,0,0,0-.1-.2-.2-.3-.3-.1,0-.3-.1-.4-.2,0,0,0,0-.1,0,0,0-.2,0-.3-.1h0s0,0,0,0c0,0,0,0,0,0,0,0,0,0-.1,0,0,0,0,0,0,.1"/>
    <path class="st29" d="M86.4,293.6c-.2,0-.4,0-.6.2-.1,0-.3.2-.4.3,0,0-.1.2-.2.3,0,0,0,.1-.1.2,0,0-.2.1-.2.2,0,0-.2.1-.2.2-.1.2-.2.4-.2.6,0,.2,0,.3.1.4,0,.1.2.2.3.2.1,0,.3,0,.4,0,0,0,0,0,0,0,.2,0,.3,0,.4-.1.1-.1.2-.2.3-.3,0,0,0,0,0-.1,0,0,0-.2.2-.3.1,0,.2,0,.4-.1,0,0,0,0,0,0,.1,0,.3,0,.5-.1.2,0,.4-.2.5-.2,0,0,.2-.1.3-.1.3-.1.5-.3.7-.5.1-.3.2-.6.2-.9,0-.2,0-.3,0-.5,0-.1,0-.3,0-.4,0-.2-.1-.4-.2-.5,0,0,0-.1,0-.2,0-.1,0-.2-.1-.3,0,0,0-.2-.1-.3,0,0,0-.2,0-.3,0,0-.1-.2-.3-.3,0,0-.2,0-.2,0,0,0,0,0,0,0,0,0,0,0,0,0,0,0,0,0,0,.1,0,0,0,0,0,.1,0,0,0,0,0,0,0,0,0,0,0,0,0,0,0,0,0,0,0,0,0,0,0,0,0,.1,0,.3.1.5,0,0,0,0,0,0,0,0,0,0,0,0,0,0,0,.1,0,.2,0,.1,0,.2,0,.3,0,.2,0,.4,0,.6,0,.2-.2.3-.4.4h0c-.1.1-.3.2-.5.4-.2.1-.3.2-.5.2"/>
    <path class="st29" d="M88,284.9c.2.2.4.4.5.7h0c.1.2.2.3.3.4,0,.1.2.2.2.3,0,0,0,0,0,0,0,0,.2.2.3.2,0,0,0,0,0,0,0,0,0,0,0,0,0,0,0,0,0-.2,0-.1,0-.3,0-.4h0c0-.2-.1-.3-.2-.4h0s0,0,0-.1c-.5-.3-1-.6-1.6-.9,0,0,.2.2.3.3"/>
    <path class="st29" d="M72.7,322.1s0,0,0,0c.3,0,.5.1.7.2h0c.2.1.4.2.6.2.2,0,.5.1.7.2.2,0,.4,0,.6,0,0,0,0,0,.1,0,0,0,0,0,.1,0,.2,0,.4,0,.6,0,.1,0,.3,0,.4,0,0,0,.2,0,.2,0,0,0,0,0,.1,0,0,0,.2,0,.3,0,.2,0,.3,0,.5,0,.1,0,.2,0,.4,0,0,0,.2,0,.3,0,0,0,0,0,.1,0,.1,0,.2,0,.4,0,0,0,0,0,0,0,0,0,.2,0,.2-.1.1-.2-.1-.5-.2-.6-.2-.1-.4-.2-.5-.3,0,0,0,0-.1,0-.2-.1-.5-.2-.7-.3,0,0-.1,0-.2,0-.2,0-.4-.1-.6-.1-.1,0-.3,0-.4,0,0,0-.1,0-.2,0,0,0-.1,0-.2,0,0,0-.1,0-.1,0,0,0-.2,0-.2,0,0,0-.2,0-.3,0,0,0,0,0-.1,0-.2,0-.5,0-.7,0h-.1c-.2,0-.5,0-.7,0,0,0-.2,0-.3,0-.2,0-.3,0-.5-.1-.3,0-.5,0-.7,0,0,0-.1,0-.2,0,0,0,0,0,0,0,0,0,0,0-.1,0,0,0,0,0,0,0,0,0,0,0,0,0,0,0,0,0,0,0h0s0,0,0,.1c0,.1,0,.2,0,.3,0,.1.2.2.3.2,0,0,.2,0,.3,0"/>
    <path class="st29" d="M82.3,309.6s0,0,0,.1c0,.1,0,.3,0,.4,0,.1,0,.3.2.4,0,0,.1,0,.2,0,0,0,.1,0,.2,0,0,0,.1,0,.1,0s0,0,0,0c.1,0,.2-.2.3-.5,0-.2,0-.3,0-.4,0-.1-.2-.2-.3-.3h0s0,0,0,0c0,0-.2-.2-.3-.2,0,0-.2,0-.3,0,0,0,0,.1,0,.2,0,0,0,0,0,0,0,0,0,0,0,0,0,0,0,0,0,0,0,0,0,0,0,0"/>
    <path class="st29" d="M74.3,316.1c-.1,0-.2,0-.4,0-.3,0-.3.5-.3.7h0c0,.4.1,1,.5,1.4.2.2.4.3.6.4.2,0,.3.1.5.2,0,0,.1,0,.2,0,.2,0,.4.2.7.4.2.2.4.3.7.3.2,0,.3,0,.5.1,0,0,.2,0,.3,0,.2,0,.4,0,.6,0s.1,0,.2,0c.2,0,.4-.1.6-.3.1-.2.2-.4.3-.7,0-.1,0-.3,0-.4,0,0,0-.2,0-.2,0,0,0-.1,0-.2,0-.1,0-.3,0-.4,0,0,.1-.2.2-.3,0,0,0,0,0,0,0,0,0,0,0,0,0,0,.1-.1.2-.2,0-.1,0-.3,0-.4,0,0,0,0,0-.1s0,0,0,0h0c0,0,0-.1,0-.2,0,0,0,0,.1,0,0,0,0,0,0,0,0,0,.1,0,.2,0,.1,0,.2-.1.2-.2,0-.1,0-.3,0-.3,0-.1,0-.2-.2-.3,0,0-.1-.1-.2-.2,0,0,0,0,0,0,0,0-.1-.2-.1-.3,0-.1,0-.3,0-.4,0,0,0-.2.2-.3,0,0,.2,0,.3,0h0c.1,0,.2,0,.3,0,0,0,0-.2,0-.3,0-.2-.2-.3-.4-.5,0,0,0,0-.1-.1,0,0-.1-.2-.2-.2h0s0,0,0,0c0,0,0,0,0,0,0,0,0,0,0,0l-.2-.2s0,0,0,0c0,0-.1-.2-.2-.2-.2-.2-.5-.1-.7,0-.2,0-.4.2-.6.4-.2.2-.3.4-.5.6-.1.2-.3.4-.5.6h0c-.1.2-.3.4-.5.6-.1.1-.2.2-.3.3,0,0-.1.2-.2.2-.2.2-.3.3-.6.4,0,0-.1,0-.2,0,0,0,0,0-.1,0,0,0,0,0,0,0-.1,0-.3,0-.4.1-.1,0-.2.2-.2.3,0,0,0,.1,0,.2,0,0,0,0,0,.1-.1,0-.3,0-.4-.1,0,0,0,0,0,0"/>
    <path class="st29" d="M80.9,300.6s0,0,0,0h0s0,0,0,0c-.2.1-.3.3-.4.4,0,.2-.1.4-.1.6,0,0,0,.2,0,.3,0,0,0,.1,0,.2,0,0,0,0,0,0,0,.1,0,.2,0,.3,0,0,.1.1.2.1,0,0,0,0,0,0,.2,0,.3,0,.4-.2.1,0,.2-.2.2-.3,0-.1.1-.3.2-.4,0-.1,0-.3,0-.4,0-.1,0-.2-.1-.3,0,0,0,0,0,0,0,0,0,0,0,0,0-.1,0-.2-.2-.3,0,0-.1,0-.2,0,0,0,0,0,0,0,0,0,0,0,0,0,0,0,0,0,0,0h0s0,0,0,0c0,0,0,0,0,0h0Z"/>
    <path class="st29" d="M83.8,310.8h0s0,0,0,0c0,0,0,0,0,0-.1,0-.2.2-.3.3,0,0,0,0,0,0,0,0,0,0,0,0,0,0,0,.1-.2.2,0,0,0,0-.1,0,0,0,0,0,0,0,0,0,0,0,0,0,0,0-.2,0-.2,0,0,0,0,.1,0,.2,0,0,0,0,0,0,0,.2,0,.4.2.7h0c0,.2.2.4.3.6.1.1.3.2.6.2,0,0,0,0,0,0,.2,0,.4,0,.6-.1.2-.1.4-.3.5-.4.1-.2.2-.4.2-.6,0-.3,0-.5,0-.7,0-.2,0-.3-.2-.4,0,0,0-.1,0-.2,0,0,0,0,0-.1,0,0,0-.2-.1-.3,0,0-.2-.1-.3,0-.1,0-.2,0-.3.2,0,0-.2.2-.2.3h0s0,0,0,0c0,0,0,0,0,0h0s0,0,0,0c0,0,0,0,0,0,0,0,0,0,0,.1,0,0,0,0,0,0,0,0,0,0,0,0,0,0,0,0,0,0h0s0,0,0,0c0,0,0,0,0,0,0,0,0,0,0,0h0Z"/>
    <path class="st29" d="M86.8,287.4c-.1-.2-.3-.2-.5-.3,0,0,0,0-.1,0,0,0-.2-.1-.3-.2,0,0-.1-.2-.2-.3,0-.1-.1-.2-.2-.4,0,0-.1-.2-.2-.2,0,0-.2,0-.3,0,0,0,0,0,0,0,0,0-.1,0-.2,0,0,0,0,0-.1,0,0,0,0,0,0,0-.2-.1-.5-.2-.7-.3,0,0-.1,0-.2,0-.1,0-.2,0-.4-.1h0c-.1,0-.3-.1-.4-.2h0c0,0-.2-.2-.2-.2,0,0,0-.2,0-.2,0-.1,0-.2.1-.3,0,0,.2-.1.2-.2,0,0,.2,0,.3-.1,0,0,.2,0,.3,0h0c.1,0,.2,0,.3-.1,0,0,0,0,.1,0,0,0,.1,0,.2,0,0,0,.1,0,.2,0,0,0,0,0,0,0,0,0,.1,0,.2,0,0,0,0,0,.1,0,0,0,.2,0,.3,0,0,0,0,0,0,0h0c0,0,.2,0,.3,0,0,0,.1,0,.2,0-3.7-1.6-7.7-2.4-11.9-2.4-8.5,0-16.2,3.5-21.7,9.2,0,0,0,0,0,0,0,0,0,0,.1.1,0,0,.2,0,.3,0,0,0,.2-.1.3-.2,0,0,0,0,0,0,0,0,.1-.1.2-.2,0,0,.2-.1.3-.2.2-.1.4-.3.7-.3.1,0,.2,0,.3,0-.2.2-.4.5-.6.7-.2.2-.4.4-.6.7,0,.1-.2.3-.2.4,0,.1-.1.3-.2.4,0,.2,0,.3,0,.5,0,0,0,.1,0,.2,0,0,0,.1-.1.2-.1.3-.3.5-.5.8,0,.1-.2.2-.3.3,0,0,0,0-.1,0,0,0,0,0,0,0,0,0,0,0,0,0,0,0,0,0,0,0,0,0,0,0,0,0,0,0,0-.1,0-.2,0,0,0,0,0,0,0-.3,0-.6,0-.9,0,0,0,0,0-.1,0-.3,0-.6,0-1,0-.2,0-.3-.2-.4,0,0,0,0,0,0-4.9,5.4-7.9,12.6-7.9,20.4s0,1.5,0,2.3c0,0,0,0,0,0,0,0,0,0,0,0,0,0,0,0,0,0,0,0,0,0,0,0,0,0,0,0,.1,0,0,0,0,0,.1,0,0,0,0,0,0,0,0,0,.2,0,.2-.2.1-.2.2-.3.3-.5,0,0,0,0,0,0,0-.2.2-.4.3-.7.2-.4.3-.8.4-1.2,0,0,0-.1,0-.2.2-.5.3-.9.4-1.4,0-.5.1-.9.2-1.5,0,0,0,0,0-.1,0,0,0-.2,0-.3,0,0,0,0,0,0,0,0,0,0,0-.1,0,0,0,0,0,0,0,0,0,0,0-.1,0,0,0,0,0,0,0,0,0,0,0,0,0,0,0,0,0,0,0,0,0,0,0,0,0,0,0,0-.1,0,0,0,0,0-.1,0,0,0,0,0,0,0,0,0,0,0,0,0h0c-.1,0-.2,0-.3,0h0c-.1,0-.2,0-.3-.1,0,0-.2-.1-.2-.2,0,0,0-.2,0-.3,0-.2,0-.3,0-.5,0,0,0-.2,0-.3,0,0,0-.1,0-.2,0-.2,0-.4,0-.5,0-.2,0-.4.1-.7,0-.1,0-.3.1-.4,0,0,0-.2,0-.3,0-.2,0-.4.1-.7,0,0,0,0,0-.1,0,0,0-.2,0-.2,0-.1,0-.2,0-.3,0-.1,0-.2.1-.3,0,0,0,.2,0,.3,0,.5-.2,1-.2,1.5,0,.1,0,.2,0,.3h0c0,.1,0,.2,0,.2,0,0,0,0,0,0,0,0,0,.1,0,.2,0,0,0,0,0,0,0,.3,0,.6,0,.8,0,.2,0,.6.3.7.1,0,.3,0,.4,0,.1,0,.3-.1.4-.2.1,0,.2-.2.3-.2h0c0,0,0,0,.1-.1,0,0,.1-.1.2-.2.1-.1.3-.3.4-.4,0,0,.1-.1.2-.2.2-.2.4-.3.5-.5.3-.2.5-.5.8-.7,0,0,0,0,0,0,.2-.2.3-.4.4-.6.1-.3.2-.6.3-.8,0-.1,0-.2,0-.4,0,0,0,0,0,0,0-.2,0-.3,0-.4,0,0,0,0,0,0,0-.1,0-.2,0-.3,0-.1,0-.2,0-.3h0c0-.2,0-.2,0-.2,0-.1,0-.2,0-.3,0,0,0,0-.1,0,0,0-.1,0-.2,0,0,0,0,0,0,0,0,0,0,0,0,0,0,0-.1.1-.2.2,0,0-.2.2-.3.2,0,0-.1,0-.2,0,0,0,0,0,0-.2,0-.1,0-.3,0-.4,0-.3,0-.6,0-.9,0,0,0-.1,0-.2,0,0,0,0,0-.1,0,0,0,0,0,0h0s0,0,0,0,0,0,0,0h0s0,0,0,0c0,0,0,0,0,0,0,0,0,0,0,0,0,0,0,0,0,0,0,0,0,0,0-.1,0,0,0,0,0,0,0-.1.1-.2.2-.3h0c0,0,0-.1.1-.2,0,0,0-.1.1-.2,0,0,0-.1,0-.2,0,0,0-.1,0-.2,0,.2,0,.5.1.7,0,0,0,.2,0,.3,0,.2,0,.3.2.5,0,.2.2.3.3.4.1.1.2.2.3.4h0c.1.1.2.3.4.4.1,0,.3.2.4.2.2,0,.3,0,.5,0,.2,0,.4,0,.6,0,.1,0,.2,0,.2.1,0,0,.1.1.2.2,0,.1,0,.3,0,.4,0,0,0,0,0,.1,0,.2,0,.4.1.6,0,.2.2.4.3.5.1.2.3.3.4.4,0,0,.2.1.2.2,0,0,0,0,0,0,0,0,.1,0,.1.1,0,0,0,0,0,.1h0s0,0,0,0c0,0,0,0,0,0,0,0,0,0,0,0,0,.1,0,.2,0,.3,0,.2,0,.4,0,.6,0,.1,0,.2,0,.3,0,0,0,.2,0,.3,0,0,0,0,0,.1,0,.2,0,.3,0,.5,0,0,0,.1,0,.1,0,.2,0,.3,0,.5,0,.2,0,.4.1.6,0,.2,0,.4.1.6,0,.3,0,.6.1.9,0,.1,0,.2,0,.3,0,.3,0,.6.1.9,0,.1,0,.3,0,.4,0,0,0,0,0,.1,0,.2,0,.3,0,.5,0,0,0,.2,0,.3h0c0,.1,0,.2.1.3,0,0,.1.1.2.2,0,0,.2,0,.3,0,0,0,.1,0,.2-.1,0,0,0,0,0,0,0,0,.2-.1.2-.2.1-.1.2-.3.3-.5,0-.1,0-.2.1-.4,0,0,0-.1,0-.2,0,0,0,0,0-.1,0,0,0-.1,0-.2,0,0,0,0,0,0,0,0,0-.2,0-.2,0,0,0-.1,0-.2,0,0,0,0,0-.1,0-.1,0-.2.1-.3,0-.2.1-.4.1-.6,0,0,0,0,0,0,0,0,0-.1,0-.2,0-.1,0-.2,0-.3,0-.2,0-.4.2-.6,0-.2.2-.3.3-.5h0c.2-.4.5-.7.8-.9.1-.1.3-.3.5-.4,0,0,.1,0,.2,0,.1,0,.2-.1.4-.2.2-.2.4-.4.6-.6,0,0,.2-.2.3-.3,0,0,.2-.1.2-.2,0,0,.1-.1.2-.2.1-.1.3-.2.5-.3h0s0,0,.1-.1c.1,0,.3-.2.4-.2,0,0,.2,0,.3,0,.1,0,.2,0,.3,0,0,0,.1,0,.2,0,.1,0,.3,0,.4,0,.1,0,.2,0,.3,0,0,0,.2,0,.2.1h0c0,0,.2.1.2.2,0,0,0,0,.1,0,0,0,0,0,0,0,0,0,0,0,0,0,0,0,0,0,0,0h0s0,0,0,0c0,0,0,.1.1.2,0,0,.1.2.2.2,0,.1.2.3.2.4,0,0,0,0,0,0,0,.1,0,.3.1.4,0,.1,0,.3,0,.5h0c0,.2,0,.3,0,.5,0,.1,0,.3.2.5,0,.1.1.3.3.4.2,0,.3,0,.5,0,0,0,.2,0,.2-.1,0,0,0,0,0,0,0,0,.1,0,.2,0,0,0,.2,0,.3,0,0,0,0,0,.1,0,0,0,0,0,0,0,0,0,0,0,0,0,0,0,0,0,0,.1,0,0,0,.1,0,.2,0,.1,0,.3,0,.4,0,.3,0,.6-.1.8,0,0,0,0,0,0,0,.2-.1.5-.1.7,0,.3,0,.6,0,.8,0,.2,0,.3.1.5,0,.1,0,.2,0,.3,0,.1,0,.2,0,.3,0,.2,0,.3.1.5,0,.2.1.4.2.5,0,0,0,.2.1.3,0,.1,0,.3.1.4,0,.1,0,.3.1.4,0,.2.2.4.3.6,0,0,0,.1.1.2,0,0,.1.2.2.3,0,.1.2.3.3.4.1.2.3.4.5.6,0,0,.1.1.2.2.1.1.3.3.4.4.2.2.4.3.7.5.2,0,.3.1.4.1s.2,0,.3-.2c0-.1,0-.3,0-.4,0-.1,0-.2-.2-.4h0c0-.1-.1-.2-.2-.3,0-.1-.1-.3-.2-.4,0-.1-.2-.3-.3-.4,0,0-.1-.2-.2-.3-.1-.2-.3-.5-.5-.7-.2-.2-.3-.4-.6-.6-.1,0-.2-.2-.3-.3,0-.1-.2-.3-.2-.4,0,0-.1-.2-.2-.3h0c0-.1-.1-.3-.1-.4h0c0-.2,0-.3-.1-.5,0-.2,0-.3,0-.5,0-.2,0-.3,0-.5,0-.1.1-.3.3-.4,0,0,.1,0,.2,0,0,0,0,0,.1,0,0,0,0,0,.1,0,0,0,0,0,.1,0h0c.1,0,.3.1.4.2,0,0,0,0,.1,0,.2.1.4.2.6.3,0,0,.2,0,.2.2,0,0,.2.1.2.2.2.2.3.3.5.5.1.1.3.3.5.4.2,0,.4.1.6,0,.1,0,.2,0,.3-.2,0,0,.1-.1.2-.1,0,0,0,0,.1,0,.1,0,.3-.1.4-.2,0,0,.1,0,.1-.1,0,0,0,0,0,0,0,0,0,0,0,0,0,0,.1,0,.2-.2.1-.1.3-.3.4-.5.1-.2.2-.3.3-.5,0-.2,0-.4,0-.6h0c0-.2,0-.5,0-.7,0-.4-.3-.8-.5-1.1-.2-.3-.5-.5-.7-.8,0,0,0,0-.1-.1-.1-.1-.3-.3-.4-.4,0,0-.1-.2-.2-.3,0-.1,0-.2,0-.3,0-.1,0-.2.1-.2h0c0,0,.2-.2.3-.2,0,0,.2,0,.2-.1,0,0,0,0,0,0,.2,0,.3-.2.4-.4,0,0,0-.1.1-.2h0c0,0,.2-.1.3-.2,0,0,0,0,0,0,0,0,0,0,0,0,0,0,0,0,0,0,0,0,0,0,0,0h0s0,0,0,0c0,0,0,.1,0,.2h0s0,0,0,0h0c0,0,0,.2,0,.2,0,0,0,0,0,0,0,.1,0,.2,0,.3,0,0,0,.1,0,.2,0,.2,0,.4,0,.5,0,.1,0,.3.2.4.1.1.3.2.5.1.2,0,.3-.1.4-.2,0-.1.1-.3.1-.4,0,0,0,0,0,0,0,0,0-.2,0-.3,0,0,0-.2,0-.3,0-.1,0-.2,0-.3,0-.1,0-.2,0-.3h0s0,0,0-.1c0,0,0,0,0,0,0,0,0,0,0,0,0,0,.2-.1.2-.2h0c.1,0,.3-.1.5-.1,0,0,0,0,.1,0,.3,0,.5,0,.7-.2.2,0,.3-.2.4-.3,0,0,0,0,.1-.1,0,0,.1-.1.2-.2h0c0-.1.1-.2.2-.3,0,0,.2-.1.3-.2h0c.1,0,.2-.1.3-.2,0,0,.1,0,.2,0,0,0,.1,0,.2,0,.2,0,.3-.1.4-.2.1,0,.2-.1.3-.3.1-.1.2-.2.3-.3,0-.1.1-.2.2-.4h0c0-.2.1-.3.2-.5.1-.3.3-.5.6-.7,0,0,.1,0,.2,0,0,0,.1,0,.2,0,.1,0,.2-.2.3-.3.2-.3.2-.6.1-.9h0c0-.2,0-.3,0-.5,0-.1,0-.3,0-.4,0,0,0-.2,0-.2,0-.2,0-.5-.2-.7,0-.3-.3-.6-.5-.8-.1,0-.2-.2-.3-.2-.2-.1-.3-.2-.5-.4h0s0,0,0,0c0,0,0,0,0,0h0s0,0,0,0c0,0,0,0,0,0h0c0,0,.2,0,.3,0,.2,0,.4-.1.6-.2.1,0,.3-.2.3-.4,0,0,0-.2,0-.3,0-.1-.2-.2-.3-.2-.1,0-.3-.1-.4-.1,0,0,0,0,0,0-.1,0-.2,0-.3-.1,0,0-.2,0-.2-.1,0,0-.1,0-.2,0,0,0-.2,0-.3-.1,0,0-.1,0-.2,0,0,0-.2,0-.2-.1,0,0,0,0,0,0h0s0,0,0,0h0s0,0,0,0h0c.1-.1.2-.2.3-.3,0,0,.2-.1.3-.2,0,0,.1,0,.2,0,0,0,0,0,.1,0h0s0,0,0,0c0,0,.1,0,.1,0,0,0,0,0,0,.1,0,0,0,.1.1.2,0,0,.2.1.3.2.1,0,.2,0,.3,0,0,0,0,0,0,0,0,0,.1,0,.2,0,0,0,.1,0,.2,0,0,0,.1,0,.2,0,0,0,0,0,.1.1,0,0,0,0,0,0,0,0,0,0,0,0h0s0,0,0,.1c0,0,0,0,0,0,0,0,0,0,0,.1,0,0,0,.1.1.2,0,0,.1.2.1.3h0c0,0,0,.2,0,.2,0,.2,0,.3.1.5,0,.1,0,.2.1.3,0,.1.1.2.2.3.2.2.4.2.7.2.1,0,.3,0,.4,0,.2,0,.3,0,.4,0,.2,0,.4-.3.4-.6,0-.1,0-.2,0-.3,0,0,0,0,0,0,0-.1,0-.3,0-.4,0-.3-.2-.5-.3-.7-.1-.2-.3-.4-.4-.5,0,0,0,0,0,0-.1-.2-.3-.4-.3-.7,0,0,0-.1,0-.2,0,0,0,0,0,0,0,0,0-.1,0-.2,0,0,.1-.2.2-.2h0s0,0,0,0h0s0,0,0,0c0,0,.2,0,.3,0h0c.1,0,.2,0,.3,0,.1,0,.3,0,.4,0,.1,0,.2-.1.3-.2,0,0,0,0,0,0,0,0,.1-.1.2-.2,0,0,.1-.2.2-.3,0,0,0,0,0,0,0,0,.1-.2.2-.3,0-.1,0-.2,0-.4,0-.3,0-.5,0-.7,0-.2,0-.3,0-.5,0,0,0-.2,0-.3,0-.1,0-.2,0-.3.1.2.2.4.4.6,0,0,.2.2.3.2.1,0,.2,0,.4,0,.1,0,.2-.1.3-.2,0,0,0,0,0,0,0,0,.2-.1.3-.2,0,0,.1-.2.1-.3,0-.1,0-.2-.1-.3"/>
    <path class="st30" d="M105.5,294.1c-1.7-3.1-5.5-4.3-10.5-4.1,0,0,.1.1.2.2,1.1,1.1,2.1,2.3,3,3.5,2.1.3,3.5,1,4.1,2.1.6,1.1.4,2.7-.5,4.6-1.1,2.3-3.4,5.2-6.5,8.2l2.3,2.8c2.2-2.1,4.1-4.2,5.6-6.2,2.3-3.3,4.2-7.5,2.3-11"/>
    <path class="st29" d="M94.8,327.7v-1.6s0,0,0,0c0-.2,0-.4.1-.5,0,0-.1-.2-.2-.3,0-.1-.1-.3-.2-.5,0,0,0-.2,0-.2,0-.1,0-.2,0-.3,0,0,0-.2,0-.2,0,0,0-.2,0-.3,0-.4-.1-.8-.1-1.2,0-.2,0-.4-.1-.5-.1-.2-.3-.3-.4-.2-.4,0-.6.5-.7.8,0,.1,0,.3-.1.4,0,0,0,0,0,.1,0,0,0,0,0,.1,0,.2,0,.3-.1.5,0,.2,0,.4-.1.6,0,.2,0,.4-.1.5,0,.1,0,.3-.1.4,0,0,0,.1,0,.2,0,0,0,0,0,0,0,.2,0,.3-.2.5,0,0,0,0,0,0,0,.1-.1.3-.3.3-.2,0-.3,0-.4-.2-.1-.1-.2-.3-.3-.5,0-.1-.1-.2-.2-.3,0,0,0-.1,0-.2,0-.2-.2-.3-.2-.5,0-.2,0-.4.1-.5h0c0,0,0-.1,0-.2,0-.1,0-.3,0-.4,0-.2-.2-.3-.3-.4-.3-.1-.6,0-.9,0,0,0-.1,0-.2,0,0,0-.1,0-.2,0-.1,0-.3,0-.4,0,0,0-.1,0-.2,0-.1,0-.2,0-.4,0-.2,0-.4,0-.5.2-.2,0-.3.2-.4.3-.1.1-.2.3-.3.5,0,0,0,.1,0,.2,0,.1,0,.2-.1.4,0,.2-.2.3-.3.4-.1.1-.3.2-.5.2-.1,0-.2,0-.3,0h0c0,0-.1,0-.2-.1h0c-.2,0-.3-.2-.5-.2-.2,0-.3,0-.5.1-.2,0-.3.2-.5.3-.1.1-.3.3-.4.4h0c0,.1-.2.2-.2.3,0,0-.2.2-.2.3,0,0-.1.2-.2.2,0,.1-.2.2-.3.4-.2.2-.4.4-.6.5-.2.2-.4.3-.6.4-.2.1-.4.3-.6.4,0,0-.2.1-.3.2,0,0-.1,0-.2.1,0,0,0,0-.1,0-.2.1-.4.3-.7.3,0,0-.2,0-.2,0,0,0,0,0-.1,0,0,0-.2,0-.2,0,0,0,0,0-.1,0h0c-.1,0-.3,0-.4.1,0,0,0,0-.1,0,0,0-.2,0-.3,0-.1,0-.2.1-.3.2-.1,0-.2.2-.3.3,0,0,0,0,0,0,0,0,0,0,0,0,0,0,0,0-.1.1,0,0-.2.2-.2.2-.1.2-.2.4-.2.7h0c0,.2,0,.4.1.5,0,.2.1.4.2.5,0,.2,0,.3.2.5h0c0,.2.1.3.2.5,0,.1.2.2.2.3.1.2.3.3.3.5,0,.2,0,.3,0,.5,0,0,0,.2,0,.3,0,0,0,.2,0,.2,0,.2,0,.3,0,.5,0,.1.2.2.4.3,0,0,.1,0,.2,0,.1,0,.2,0,.3,0h0c.2,0,.4,0,.5-.1.4,0,.7-.2,1-.4.4-.2.7-.3,1-.5.2,0,.3-.2.5-.3.1,0,.3-.2.4-.3.2-.1.3-.2.5-.3h0c.1-.1.3-.2.4-.2,0,0,.2,0,.3,0,0,0,0,0,0,0h0s0,0,.1,0c0,0,.2,0,.3,0,.1,0,.3,0,.4,0h0c.1,0,.2,0,.3,0,.2,0,.4,0,.6.1.2,0,.6,0,.9,0,.1,0,.3,0,.4,0,.2,0,.4,0,.5,0,0,0,.1,0,.1,0v-.2h0v-.4s0,.2,0,0v-1.6s0,0,0,0c0-1.4,2.6-2.6,5.7-2.6s1.4,0,2,.2c0,0,0,0,0,0h0v-1.5h0"/>
    <path class="st25" d="M100.5,330.3c3.2,0,5.7-1.2,5.7-2.6v-1.6s0,0,0,0c0-1.4-2.6-2.5-5.7-2.5s-5.7,1.1-5.7,2.6c0,0,0,0,0,0v1.6c0,1.4,2.6,2.6,5.7,2.6"/>
    <path class="st25" d="M100.5,336.4c-.7,0-1.4,0-2-.2,0,0,0,.3-.3.5-.7,1-2.9,1.8-5.4,1.8s-4.7-.8-5.4-1.8c-.2-.2-.3-.5-.3-.8v1.5c0,1.4,2.6,2.6,5.7,2.6s5.4-1,5.7-2.3c.6.1,1.3.2,2,.2,3.2,0,5.7-1.2,5.7-2.6v-1.5c0,.3,0,.5-.3.8-.7,1-2.9,1.8-5.4,1.8"/>
    <path class="st25" d="M98.5,334.3s0,.2-.3.5c-.7,1-2.9,1.8-5.4,1.8s-4.7-.8-5.4-1.8c-.2-.2-.3-.5-.3-.8h0v1.5h0c0,1.5,2.6,2.6,5.7,2.6s5.4-1,5.7-2.3c.6.1,1.3.2,2,.2,3.2,0,5.7-1.2,5.7-2.6v-1.5c0,.3,0,.5-.3.8-.7,1-2.9,1.8-5.4,1.8s-1.4,0-2-.2"/>
    <path class="st25" d="M106,328.9c-.7,1-2.9,1.8-5.4,1.8s-4.7-.8-5.4-1.8c-.2-.2-.3-.5-.3-.8h0v1.5h0c0,0,0,0,0,0-.6-.1-1.3-.2-2-.2-3.1,0-5.7,1.1-5.7,2.5,0,0,0,0,0,0v1.6c0,1.4,2.6,2.6,5.7,2.6s5.3-1,5.7-2.3c.6.1,1.3.2,2,.2,3.2,0,5.7-1.2,5.7-2.6v-1.5c0,.3,0,.5-.3.8-.7,1-2.9,1.8-5.4,1.8s-1.4,0-2-.2v-.4c.6.1,1.3.2,2,.2,3.2,0,5.7-1.2,5.7-2.6h0v-1.5h0c0,.2,0,.5-.3.7"/>
    <path class="st25" d="M100.5,340.1c-.7,0-1.4,0-2-.2v-.2c0,.3,0,.5-.3.8-.7,1-2.9,1.8-5.4,1.8s-4.7-.8-5.4-1.8c-.2-.2-.3-.5-.3-.8v1.5c0,1.4,2.6,2.6,5.7,2.6s5.4-1,5.7-2.4c.6.1,1.3.2,2,.2,3.2,0,5.7-1.2,5.7-2.6v-1.5c0,.3,0,.5-.3.8-.7,1-2.9,1.8-5.4,1.8"/>
    <path class="st25" d="M100.5,338.2c-.7,0-1.4,0-2-.2,0,0,0,.3-.3.6-.7,1-2.9,1.8-5.4,1.8s-4.7-.8-5.4-1.8c-.2-.2-.3-.5-.3-.8v1.5c0,1.4,2.6,2.6,5.7,2.6s5.4-1,5.7-2.4c.6.1,1.3.2,2,.2,3.2,0,5.7-1.2,5.7-2.6v-1.5c0,.3,0,.5-.3.8-.7,1-2.9,1.8-5.4,1.8"/>
    <path class="st22" d="M100.5,323.9c-2.9,0-5.2,1-5.2,2.2s0,.5.2.7c.7.9,2.6,1.6,5,1.6s4.3-.7,5-1.6c.2-.2.2-.4.2-.7,0-1.2-2.3-2.2-5.2-2.2"/>
    <path class="st30" d="M102.3,326.9c0-.9-2.6-.8-2.6-1.3s.3-.3.8-.3.8,0,1.1.1c.2,0,.3,0,.3-.1v-.2c0,0,0-.1-.2-.1-.2,0-.5,0-.8,0-.1,0-.2,0-.2-.1h0c0-.2-.1-.3-.2-.3h-.1c-.1,0-.2,0-.2.1v.2c0,0,0,.1-.2.1-.4,0-.7.1-.9.2-.3.1-.4.3-.4.5,0,.8,2.6.9,2.6,1.3s-.4.3-.8.3c-.7,0-1.2,0-1.5-.2-.2,0-.3,0-.3.1v.2c0,0,0,0,.1.1.3,0,.8.1,1.1.1.1,0,.2,0,.2.1v.2c0,0,.1.1.2.1h.1c.1,0,.2,0,.2-.1v-.2c0,0,0-.1.2-.1.4,0,.7-.1.9-.2.3-.1.4-.3.4-.5"/>
    <path class="st22" d="M92.8,329.8c-2.9,0-5.2,1-5.2,2.2s0,.5.2.7c.7.9,2.6,1.6,5,1.6s4.3-.7,5-1.6c.2-.2.2-.4.2-.7,0-1.2-2.3-2.2-5.2-2.2"/>
    <path class="st30" d="M94.6,332.8c0-.9-2.6-.8-2.6-1.3s.3-.3.8-.3.8,0,1.1.1c.2,0,.3,0,.3-.1v-.2c0,0,0-.1-.2-.1-.2,0-.5,0-.8,0-.1,0-.2,0-.2-.1h0c0-.2-.1-.3-.2-.3h-.1c-.1,0-.2,0-.2.1v.2c0,0,0,.1-.2.1-.4,0-.7.1-.9.2-.3.1-.4.3-.4.5,0,.8,2.6.9,2.6,1.3s-.4.3-.8.3c-.7,0-1.2,0-1.5-.2-.2,0-.3,0-.3.1v.2c0,0,0,0,.1.1.3,0,.8.1,1.1.1.1,0,.2,0,.2.1v.2c0,0,.1.1.2.1h.1c.1,0,.2,0,.2-.1v-.2c0,0,0-.1.2-.1.4,0,.7-.1.9-.2.3-.1.4-.3.4-.5"/>
    <path class="st30" d="M84.6,316.7c-9.5,6.4-26.1,13.5-35.7,12.2-2.1-.3-3.5-1-4.1-2.1-.6-1.1-.4-2.7.5-4.6-.6-1.5-1.1-3.1-1.4-4.7-2.9,4.1-4,7.9-2.3,11,1.9,3.5,6.5,4.3,10.5,4.1,7.2-.2,19.7-3.6,34.6-12.9l2.9,4.2,4.9-12-12.7.4,3,4.3Z"/>
  </g>
  <path class="st21" d="M73.5,560.6c28.9,0,52.3-23.4,52.3-52.3s-23.4-52.3-52.3-52.3-52.3,23.4-52.3,52.3,23.4,52.3,52.3,52.3"/>
  <g class="st18">
    <path class="st23" d="M76.7,477.7s0,0,0,0l-3.9-1.9c0,0-.2-.1-.3-.1-.5-.2-1-.2-1.5.1l-6.9,3.3c-.7.5-2,2.3-1.6,3l-2.5,3.5c.5.7,2.5,1.3,3.2.9l8.8-6,1.1.6-.4,1.6c-.3,1,.3,2,1.3,2.3h.1c1,.3,2-.3,2.3-1.3l1.1-4.2c.2-.7-.2-1.5-.9-1.8"/>
    <polygon class="st26" points="67.7 476.7 61.7 488.1 56.5 485.4 62.5 474 67.7 476.7"/>
    <polygon class="st14" points="85.7 473.7 80.5 476.4 86.5 487.8 91.7 485.1 85.7 473.7"/>
    <path class="st9" d="M73.6,493.5c-.2-.4-.3-.8-.2-1.3.1-.4.4-.8.8-1l.4-.2c.3-.1.5-.2.8-.2s.1,0,.2,0c0-.5.3-1,.8-1.3h.1c.3-.3.7-.4,1-.4s.2,0,.3,0c0-.6.3-1.2.9-1.6h.1c.3-.3.7-.4,1.1-.4.1-.5.4-.8.8-1.1h.1c.3-.3.7-.4,1.1-.4.7,0,1.3.3,1.7.9l.9,1.3,1.4-.8-5.1-9.7s-5.7-1.7-6.6-1.7c0,0-.2.1-.4.2l2.9,1.4c.9.4,1.4,1.4,1.1,2.3l-1.1,4.2c-.3,1-1.2,1.7-2.2,1.7s-.4,0-.6,0h-.1c-1.2-.4-2-1.6-1.6-2.9l.3-1.3-.5-.3-8.6,5.9c-.2.1-.4.2-.6.2-.2.5-.1,1.1.2,1.6h0c.6.9,1.7,1.2,2.5.6h.2c-.4.3-.4,1,0,1.6h0c.5.8,1.4.9,2,.5l.5-.3c-.3.5-.3,1.1,0,1.7h0c.5.8,1.4,1,2.2.5l.3-.2c0,.3,0,.7.2.9h0c.5.8,1.4.9,2,.5l.5-.4-.3-.6Z"/>
    <path class="st23" d="M84.3,488.1l-1-1.5c-.5-.7-1.5-.9-2.2-.4h-.1c-.4.4-.7.8-.7,1.3-.4,0-.8,0-1.2.2h-.1c-.7.5-.9,1.5-.5,2.2-.5-.5-1.2-.6-1.7-.2h0c-.5.4-.7,1.1-.5,1.7-.4-.3-.9-.4-1.4,0l-.3.2c-.6.3-.8,1.1-.5,1.7l.5.9c.4.7,1.2.9,1.9.5h0c.6-.4.8-1.2.6-1.8l.3.4c.4.6,1.3.8,1.9.4h0c.6-.5.8-1.3.4-1.9.5.5,1.4.6,2,.2h.1c.4-.4.7-.8.7-1.3.4,0,.8,0,1.2-.2h.1c.7-.6.9-1.5.4-2.3"/>
    <path class="st15" d="M49.1,534.5c-3.5-.7-5.7-4.1-5-7.6.7-3.5,4.1-5.7,7.6-5,3.5.7,5.7,4.1,5,7.6-.7,3.5-4.1,5.7-7.6,5M60.1,532.4l-1-.9c-.2-.2-.3-.5-.2-.7l.3-1.4c0-.3.3-.5.5-.6l1.3-.4c.3-.1.5-.4.5-.8,0-.5,0-1-.2-1.5,0-.4-.2-.9-.3-1.3-.1-.3-.4-.6-.8-.5h-1.3c-.3,0-.5,0-.7-.3l-.8-1.2c-.1-.2-.2-.5,0-.8l.6-1.2c.2-.3,0-.7-.2-.9-.3-.3-.7-.6-1.1-.8-.4-.3-.8-.5-1.3-.8-.3-.2-.7,0-.9.2l-.9,1c-.2.2-.5.3-.7.2l-1.4-.3c-.3,0-.5-.3-.6-.5l-.4-1.3c-.1-.3-.4-.5-.8-.5-.5,0-1,0-1.5.2-.4,0-.9.2-1.3.3-.3.1-.6.4-.5.8v1.3c0,.3,0,.5-.3.7l-1.2.8c-.2.2-.5.2-.8,0l-1.2-.6c-.3-.2-.7,0-.9.2-.3.3-.6.7-.8,1.1-.3.4-.5.8-.8,1.3-.2.3,0,.7.2.9l1,.9c.2.2.3.5.2.7l-.3,1.4c0,.3-.3.5-.5.6l-1.3.4c-.3.1-.5.4-.5.8,0,.5,0,1,.2,1.5,0,.4.2.9.3,1.3.1.3.4.6.8.5h1.3c.3,0,.5,0,.7.3l.8,1.2c.1.2.2.5,0,.8l-.6,1.2c-.2.3,0,.7.2.9.3.3.7.6,1.1.8.4.3.8.5,1.3.8.3.2.7,0,.9-.2l.9-1c.2-.2.5-.3.7-.2l1.4.3c.3,0,.5.3.6.5l.4,1.3c.1.3.4.5.8.5.5,0,1,0,1.5-.2.4,0,.9-.2,1.3-.3.3-.1.6-.4.5-.8v-1.3c0-.3,0-.5.3-.7l1.2-.8c.2-.1.5-.2.8,0l1.2.6c.3.2.7,0,.9-.2.3-.3.6-.7.8-1.1.3-.4.5-.8.8-1.3.2-.3,0-.7-.2-.9"/>
    <path class="st20" d="M64.5,522.5c-2.2-.4-3.5-2.6-3.1-4.7.4-2.2,2.6-3.5,4.7-3.1,2.2.4,3.5,2.6,3.1,4.7-.4,2.2-2.6,3.5-4.7,3.1M72.7,519.3c0-.2-.1-.4-.3-.5l-.8-.3c-.2,0-.3-.2-.3-.4l-.2-1c0-.2,0-.4.2-.5l.7-.6c.2-.1.2-.4.1-.6-.1-.3-.3-.6-.5-.9-.2-.2-.3-.5-.5-.7-.1-.2-.4-.2-.6-.1l-.8.4c-.2,0-.4,0-.5,0l-.8-.6c-.1-.1-.2-.3-.2-.5v-.9c0-.2,0-.4-.3-.5-.3,0-.6-.2-.8-.2-.3,0-.6-.1-1-.2-.2,0-.4.1-.5.3l-.3.8c0,.2-.2.3-.4.3l-1,.2c-.2,0-.4,0-.5-.2l-.6-.7c-.1-.2-.4-.2-.6-.1-.3.1-.6.3-.9.5-.2.2-.5.3-.7.5-.2.1-.2.4-.1.6l.4.8c0,.2,0,.4,0,.5l-.6.8c-.1.1-.3.2-.5.2h-.9c-.2,0-.4,0-.5.3-.1.3-.2.6-.2.8,0,.3-.1.6-.2,1,0,.2.1.4.3.5l.8.3c.2,0,.3.2.3.4l.2,1c0,.2,0,.4-.2.5l-.7.6c-.2.1-.2.4-.1.6.1.3.3.6.5.9.2.2.3.5.5.7.1.2.4.2.6.1l.8-.4c.2,0,.4,0,.5,0l.8.6c.1.1.2.3.2.5v.9c0,.2,0,.4.3.5.3,0,.6.2.8.2.3,0,.6.1,1,.2.2,0,.4-.1.5-.3l.3-.8c0-.2.2-.3.4-.3l1-.2c.2,0,.4,0,.5.2l.6.7c.1.2.4.2.6.1.3-.1.6-.3.9-.5.2-.2.5-.3.7-.5.2-.1.2-.4.1-.6l-.4-.8c0-.2,0-.4,0-.5l.6-.8c.1-.1.3-.2.5-.2h.9c.2,0,.4,0,.5-.3,0-.3.2-.6.2-.8,0-.3.1-.6.2-1"/>
    <path class="st8" d="M66.4,537.2c0,.5.4.8.8.8h14.6c.5,0,.8-.4.8-.8s-.4-.8-.8-.8h-14.6c-.5,0-.8.4-.8.8"/>
    <path class="st8" d="M62.6,497.3c-.4-.2-.9,0-1.1.3l-7.3,12.6c-.2.4,0,.9.3,1.1.4.2.9,0,1.1-.3l7.3-12.6c.2-.4,0-.9-.3-1.1"/>
    <path class="st8" d="M86.4,497.3c.4-.2.9,0,1.1.3l7.3,12.6c.2.4,0,.9-.3,1.1-.4.2-.9,0-1.1-.3l-7.3-12.6c-.2-.4,0-.9.3-1.1"/>
    <path class="st22" d="M107.8,528.7c-.9,6.7-7,11.4-13.7,10.5-6.7-.9-11.4-7-10.5-13.7.9-6.7,7-11.4,13.7-10.5,6.7.9,11.4,7,10.5,13.7"/>
    <path class="st30" d="M100,530c0-4-6.3-3.7-6.3-6s.7-1.4,2-1.4,1.9.2,2.7.5c.4.2.8-.1.8-.5v-1.1c0-.2-.1-.5-.4-.5-.5-.2-1.1-.3-1.9-.4-.3,0-.5-.3-.5-.6v-.6c0-.3-.3-.6-.6-.6h-.3c-.3,0-.6.3-.6.6v.7c0,.3-.2.5-.5.6-.9.2-1.6.5-2.2,1.1-.7.7-1,1.5-1,2.4,0,3.8,6.3,3.9,6.3,5.9s-.9,1.3-1.9,1.3c-1.6,0-2.8-.4-3.5-.7-.4-.2-.8.1-.8.5v1.1c0,.2.1.4.3.5.8.4,1.8.6,2.7.6.3,0,.5.3.5.6v.8c0,.3.3.6.6.6h.3c.3,0,.6-.3.6-.6v-.9c0-.3.2-.5.5-.6.9-.2,1.7-.5,2.2-1,.6-.6,1-1.4,1-2.4"/>
  </g>
  <g>
    <path class="st4" d="M419.5,126.9c6.7,0,12.2-5.5,12.2-12.2s-5.5-12.2-12.2-12.2"/>
    <path class="st6" d="M419.5,102.5c-6.7,0-12.2,5.5-12.2,12.2s5.5,12.2,12.2,12.2"/>
    <path class="st2" d="M419.5,323.6c6.7,0,12.2-5.5,12.2-12.2s-5.5-12.2-12.2-12.2"/>
    <path class="st6" d="M419.5,299.3c-6.7,0-12.2,5.5-12.2,12.2s5.5,12.2,12.2,12.2"/>
    <path class="st1" d="M419.5,520.4c6.7,0,12.2-5.5,12.2-12.2s-5.5-12.2-12.2-12.2"/>
    <path class="st6" d="M419.5,496.1c-6.7,0-12.2,5.5-12.2,12.2s5.5,12.2,12.2,12.2"/>
  </g>
</svg>