<?xml version="1.0" encoding="UTF-8"?>
<svg id="Layer_1" data-name="Layer 1" xmlns="http://www.w3.org/2000/svg" viewBox="0 0 500 120">
  <defs>
    <style>
      .cls-1, .cls-2, .cls-3 {
        fill: none;
      }

      .cls-4 {
        fill: #f2b2d1;
      }

      .cls-5 {
        fill: #80b5d2;
      }

      .cls-6 {
        fill: #b2d3e4;
      }

      .cls-7 {
        fill: #f6b781;
      }

      .cls-2 {
        font-family: MyriadPro-Regular, 'Myriad Pro';
        font-size: 4.4px;
      }

      .cls-8 {
        fill: #ea80b2;
      }

      .cls-3 {
        stroke: #000;
        stroke-miterlimit: 10;
        stroke-width: .25px;
      }

      .cls-9 {
        fill: #fad4b3;
      }

      .cls-10 {
        fill: #006ba6;
      }
    </style>
  </defs>
  <g>
    <g>
      <text class="cls-2" transform="translate(191.65 81.79) scale(2.18 1)"><tspan x="0" y="0">0.0000</tspan></text>
      <text class="cls-2" transform="translate(242.66 81.79) scale(2.18 1)"><tspan x="0" y="0">5.3825</tspan></text>
      <text class="cls-2" transform="translate(291.22 81.79) scale(2.18 1)"><tspan x="0" y="0">10.7650</tspan></text>
      <text class="cls-2" transform="translate(342.24 81.79) scale(2.18 1)"><tspan x="0" y="0">16.1475</tspan></text>
      <text class="cls-2" transform="translate(393.25 81.79) scale(2.18 1)"><tspan x="0" y="0">21.5300</tspan></text>
    </g>
    <g>
      <g>
        <rect class="cls-9" x="204.91" y="29.27" width="61.94" height="8.26"/>
        <rect class="cls-9" x="204.91" y="66.81" width="81.67" height="8.26"/>
      </g>
      <g>
        <rect class="cls-6" x="204.91" y="21.01" width="55.7" height="8.26"/>
        <rect class="cls-6" x="204.91" y="58.55" width="38.12" height="8.26"/>
      </g>
      <g>
        <rect class="cls-4" x="204.91" y="12.76" width="67.86" height="8.26"/>
        <rect class="cls-4" x="204.91" y="50.29" width="53.32" height="8.26"/>
      </g>
      <g>
        <rect class="cls-10" x="204.91" y="4.5" width="66.4" height="8.26"/>
        <rect class="cls-10" x="204.91" y="42.03" width="47.48" height="8.26"/>
      </g>
    </g>
    <g>
      <text class="cls-2" transform="translate(191.9 60.2) scale(2.18 1)"><tspan x="0" y="0">10</tspan></text>
      <text class="cls-2" transform="translate(191.9 22.66) scale(2.18 1)"><tspan x="0" y="0">20</tspan></text>
    </g>
  </g>
  <g>
    <path d="M192.94,61.11h-.6v-3.49c0-.2,0-.36,0-.48,0-.12.01-.25.02-.38-.07.08-.14.14-.21.19-.06.05-.14.12-.23.2l-.53.43-.32-.41,1.35-1.05h.51v5Z"/>
    <path d="M197.98,58.6c0,.54-.06,1-.17,1.39-.11.38-.29.68-.54.88s-.57.31-.96.31c-.56,0-.98-.23-1.25-.68-.27-.46-.4-1.09-.4-1.89,0-.54.06-1,.16-1.39.11-.38.29-.67.53-.88s.56-.3.96-.3c.56,0,.98.23,1.25.68s.41,1.08.41,1.89ZM195.27,58.6c0,.69.08,1.2.23,1.54.16.34.42.51.8.51s.64-.17.8-.51c.16-.34.24-.85.24-1.54s-.08-1.19-.24-1.53c-.16-.34-.43-.51-.8-.51s-.65.17-.8.51-.23.85-.23,1.53Z"/>
  </g>
  <g>
    <path d="M193.83,23.53h-3.3v-.51l1.31-1.32c.25-.25.46-.48.63-.67.18-.2.31-.39.4-.57.09-.19.13-.39.13-.62,0-.28-.08-.48-.25-.63-.16-.14-.38-.21-.64-.21-.25,0-.46.04-.64.13-.18.08-.37.2-.56.35l-.33-.41c.2-.16.42-.3.68-.42s.54-.17.86-.17c.47,0,.84.12,1.11.36.27.24.41.56.41.97,0,.26-.05.51-.16.73s-.26.46-.45.68c-.19.22-.42.46-.67.71l-1.04,1.03v.03h2.53v.56Z"/>
    <path d="M197.98,21.02c0,.54-.06,1-.17,1.39-.11.38-.29.68-.54.88-.25.21-.57.31-.96.31-.56,0-.98-.23-1.25-.68-.27-.46-.4-1.09-.4-1.89,0-.54.06-1,.16-1.39.11-.38.29-.68.53-.88s.56-.3.96-.3c.56,0,.98.23,1.25.68s.41,1.08.41,1.89ZM195.27,21.02c0,.69.08,1.2.23,1.54.16.34.42.51.8.51s.64-.17.8-.51c.16-.34.24-.85.24-1.54s-.08-1.19-.24-1.53c-.16-.34-.43-.51-.8-.51s-.65.17-.8.51c-.16.34-.23.85-.23,1.53Z"/>
  </g>
  <line class="cls-3" x1="204.91" y1="79.58" x2="204.91"/>
  <g>
    <path d="M151.42,82.56c.65,0,1.13.13,1.43.39.3.26.45.62.45,1.08,0,.28-.06.53-.19.77-.12.24-.33.43-.62.58s-.69.22-1.19.22h-.57v1.95h-.63v-5h1.32ZM151.36,83.1h-.64v1.97h.5c.48,0,.83-.08,1.06-.23s.35-.42.35-.78c0-.32-.1-.56-.31-.72-.21-.16-.53-.24-.97-.24Z"/>
    <path d="M155.69,83.74c.32,0,.59.07.83.21.23.14.41.34.54.59.12.25.19.55.19.89v.37h-2.57c0,.42.12.75.33.97s.5.33.87.33c.24,0,.45-.02.63-.07.18-.04.38-.11.57-.19v.54c-.19.08-.38.15-.57.19s-.41.06-.67.06c-.36,0-.67-.07-.95-.22s-.48-.36-.63-.64c-.15-.28-.23-.64-.23-1.06s.07-.76.21-1.06c.14-.29.33-.52.58-.68.25-.16.54-.24.87-.24ZM155.69,84.25c-.29,0-.53.09-.7.28-.17.19-.27.45-.3.79h1.91c0-.32-.08-.58-.22-.77-.15-.2-.37-.3-.69-.3Z"/>
    <path d="M159.94,83.74c.07,0,.14,0,.22,0s.15.02.22.03l-.08.57c-.06-.01-.13-.03-.2-.04-.07,0-.14-.01-.2-.01-.19,0-.37.05-.54.16-.17.11-.3.25-.4.44-.1.19-.15.41-.15.66v2h-.62v-3.75h.5l.07.69h.03c.12-.21.27-.38.47-.53.19-.15.42-.22.68-.22Z"/>
    <path d="M161.4,82.4c.09,0,.18.03.25.09.07.06.11.16.11.3s-.04.23-.11.3c-.07.06-.16.09-.25.09-.1,0-.19-.03-.26-.09-.07-.06-.11-.16-.11-.3s.04-.23.11-.3c.07-.06.16-.09.26-.09ZM161.7,83.81v3.75h-.62v-3.75h.62Z"/>
    <path d="M166.15,85.68c0,.62-.16,1.1-.47,1.44-.31.34-.74.51-1.28.51-.33,0-.63-.08-.88-.23-.26-.15-.46-.37-.61-.67s-.22-.65-.22-1.06c0-.62.16-1.1.47-1.43.31-.34.74-.5,1.28-.5.34,0,.63.08.9.23.26.15.47.37.61.66.15.29.22.64.22,1.05ZM163.32,85.68c0,.44.09.79.26,1.05s.45.39.84.39.66-.13.83-.39c.18-.26.27-.61.27-1.05s-.09-.79-.27-1.04c-.18-.25-.46-.38-.84-.38s-.66.13-.83.38c-.17.25-.26.6-.26,1.04Z"/>
    <path d="M168.45,87.63c-.47,0-.84-.16-1.12-.49-.28-.32-.42-.81-.42-1.45s.14-1.13.42-1.46.66-.49,1.12-.49c.29,0,.53.05.71.16.18.11.33.24.45.39h.04c0-.06-.02-.15-.03-.27,0-.12-.01-.21-.01-.28v-1.5h.62v5.32h-.5l-.09-.5h-.03c-.11.16-.26.29-.45.41s-.43.17-.72.17ZM168.55,87.12c.4,0,.68-.11.84-.33.16-.22.24-.54.24-.98v-.11c0-.47-.08-.83-.23-1.08-.15-.25-.44-.37-.85-.37-.33,0-.58.13-.75.4-.17.26-.25.62-.25,1.06s.08.8.25,1.04c.17.25.42.37.75.37Z"/>
    <path d="M173.56,82.4c.09,0,.18.03.25.09.07.06.11.16.11.3s-.04.23-.11.3c-.07.06-.16.09-.25.09-.1,0-.19-.03-.26-.09-.07-.06-.11-.16-.11-.3s.04-.23.11-.3c.07-.06.16-.09.26-.09ZM173.86,83.81v3.75h-.62v-3.75h.62Z"/>
    <path d="M176.86,83.74c.45,0,.79.11,1.02.33.23.22.34.57.34,1.05v2.44h-.61v-2.4c0-.6-.28-.9-.84-.9-.42,0-.7.12-.86.35-.16.23-.24.57-.24,1.01v1.95h-.62v-3.75h.5l.09.51h.04c.12-.2.29-.34.5-.44.21-.09.44-.14.68-.14Z"/>
    <path d="M180.61,83.81h.66l.81,2.13c.07.19.13.37.19.54.06.17.1.33.13.48h.03c.03-.12.07-.27.13-.46.06-.19.12-.38.19-.57l.76-2.13h.67l-1.62,4.27c-.14.35-.31.64-.51.85-.21.21-.49.32-.85.32-.11,0-.21,0-.29-.02s-.16-.02-.22-.04v-.49c.05,0,.11.02.19.03.07,0,.15.01.23.01.21,0,.39-.06.52-.18s.24-.28.32-.48l.2-.5-1.51-3.77Z"/>
    <path d="M186.22,83.74c.32,0,.59.07.83.21.23.14.41.34.54.59.12.25.19.55.19.89v.37h-2.57c0,.42.12.75.33.97.21.22.5.33.87.33.24,0,.45-.02.63-.07.18-.04.37-.11.57-.19v.54c-.19.08-.38.15-.57.19s-.41.06-.67.06c-.36,0-.67-.07-.94-.22-.27-.14-.48-.36-.63-.64-.15-.28-.23-.64-.23-1.06s.07-.76.21-1.06c.14-.29.33-.52.58-.68.25-.16.54-.24.87-.24ZM186.21,84.25c-.29,0-.53.09-.7.28-.17.19-.27.45-.3.79h1.91c0-.32-.08-.58-.22-.77s-.37-.3-.69-.3Z"/>
    <path d="M190.14,83.75c.46,0,.79.1,1.01.3s.33.52.33.96v2.55h-.45l-.12-.53h-.03c-.16.21-.34.36-.52.46-.18.1-.43.15-.74.15-.34,0-.62-.09-.85-.27s-.34-.46-.34-.84.15-.66.44-.86.75-.31,1.36-.33l.64-.02v-.22c0-.31-.07-.53-.2-.65-.14-.12-.33-.18-.57-.18-.2,0-.38.03-.56.09-.18.06-.34.12-.5.2l-.19-.46c.16-.09.36-.16.58-.23.22-.06.46-.09.7-.09ZM190.87,85.73l-.55.02c-.47.02-.79.09-.97.22s-.27.32-.27.55c0,.21.06.36.19.46.13.1.29.15.49.15.31,0,.58-.09.79-.26.21-.17.32-.44.32-.81v-.34Z"/>
    <path d="M194.4,83.74c.07,0,.14,0,.22,0,.08,0,.15.02.22.03l-.08.57c-.06-.01-.13-.03-.2-.04-.08,0-.14-.01-.2-.01-.19,0-.37.05-.54.16-.17.11-.3.25-.4.44-.1.19-.15.41-.15.66v2h-.62v-3.75h.5l.07.69h.03c.12-.21.27-.38.47-.53s.42-.22.68-.22Z"/>
    <path d="M197.98,86.53c0,.36-.14.64-.41.83s-.63.28-1.09.28c-.26,0-.49-.02-.68-.06s-.36-.1-.5-.17v-.56c.15.07.33.14.54.21.21.06.43.09.65.09.31,0,.54-.05.68-.15.14-.1.21-.23.21-.4,0-.09-.03-.18-.08-.25-.05-.08-.14-.15-.28-.22-.13-.07-.32-.16-.57-.25-.24-.09-.45-.19-.62-.28-.17-.09-.31-.21-.4-.34-.09-.13-.14-.3-.14-.5,0-.32.13-.56.39-.73s.6-.26,1.02-.26c.23,0,.44.02.64.07s.38.11.56.18l-.21.49c-.16-.07-.32-.12-.5-.17-.17-.05-.35-.07-.53-.07-.25,0-.44.04-.58.12-.13.08-.2.19-.2.33,0,.11.03.2.09.27.06.07.16.14.3.21.14.07.33.15.57.24.24.09.44.18.61.27.17.09.3.21.38.34.09.13.13.3.13.5Z"/>
  </g>
  <g>
    <path class="cls-10" d="M274.77,11.08l2.05-4.44h-2.7v-.56h3.35v.48l-2.03,4.52h-.68Z"/>
    <rect class="cls-1" x="271.31" y="4.5" width="2.82" height="8.26"/>
  </g>
  <g>
    <path class="cls-8" d="M276.23,19.34l2.05-4.44h-2.7v-.56h3.35v.48l-2.03,4.52h-.68Z"/>
    <rect class="cls-1" x="272.77" y="12.76" width="2.82" height="8.26"/>
  </g>
  <g>
    <path class="cls-5" d="M263.42,25.46c0-.36.03-.71.09-1.06.06-.35.18-.66.34-.95.17-.28.4-.51.7-.67.3-.17.68-.25,1.16-.25.1,0,.21,0,.33.01.12,0,.22.03.29.05v.53c-.08-.03-.18-.05-.29-.06-.11-.01-.21-.02-.32-.02-.32,0-.59.05-.8.16s-.38.25-.51.44c-.12.19-.21.4-.27.64-.06.24-.09.5-.1.78h.04c.11-.16.26-.3.45-.42s.44-.17.73-.17c.43,0,.78.13,1.05.4.27.26.4.64.4,1.12,0,.52-.14.93-.43,1.23s-.67.45-1.16.45c-.32,0-.6-.08-.86-.24-.26-.16-.46-.4-.61-.73-.15-.33-.23-.74-.23-1.24ZM265.12,27.15c.29,0,.53-.09.71-.28.18-.19.27-.48.27-.88,0-.32-.08-.57-.24-.76-.16-.19-.4-.28-.72-.28-.22,0-.41.04-.57.14-.16.09-.29.21-.38.35s-.14.29-.14.43c0,.2.04.4.12.6s.2.36.36.49c.16.13.36.19.59.19Z"/>
    <rect class="cls-1" x="260.61" y="21.01" width="2.82" height="8.26"/>
  </g>
  <g>
    <path class="cls-7" d="M270.31,35.86l2.05-4.44h-2.7v-.56h3.35v.48l-2.03,4.52h-.68Z"/>
    <rect class="cls-1" x="266.85" y="29.27" width="2.82" height="8.26"/>
  </g>
  <g>
    <path class="cls-10" d="M256.69,45.55c.51,0,.92.13,1.22.38.31.26.46.62.46,1.08,0,.52-.16.93-.49,1.22s-.79.44-1.38.44c-.26,0-.5-.02-.73-.07-.22-.05-.41-.11-.57-.2v-.58c.17.1.37.18.61.24.24.06.47.09.69.09.37,0,.67-.09.89-.26.23-.18.34-.45.34-.82,0-.33-.1-.58-.3-.75-.2-.17-.52-.26-.95-.26-.13,0-.28.01-.45.03-.17.02-.3.05-.41.07l-.31-.2.19-2.36h2.51v.56h-1.98l-.12,1.45c.08-.01.19-.03.32-.05.14-.02.29-.03.45-.03Z"/>
    <rect class="cls-1" x="252.39" y="42.03" width="2.82" height="8.26"/>
  </g>
  <g>
    <path class="cls-8" d="M261.05,54.74c0-.36.03-.71.09-1.06.06-.35.18-.66.34-.95.17-.28.4-.51.7-.68.3-.17.68-.25,1.16-.25.1,0,.21,0,.33.01.12,0,.22.03.29.05v.52c-.08-.03-.18-.05-.29-.06s-.21-.02-.32-.02c-.32,0-.59.05-.8.16s-.38.25-.51.44c-.12.19-.21.4-.27.64-.06.24-.09.5-.1.78h.04c.11-.16.26-.3.45-.42s.44-.17.73-.17c.43,0,.78.13,1.05.4.27.26.4.64.4,1.12,0,.52-.14.93-.43,1.23s-.67.45-1.16.45c-.32,0-.6-.08-.86-.24s-.46-.4-.61-.73-.23-.74-.23-1.24ZM262.75,56.43c.29,0,.53-.09.71-.28s.27-.48.27-.88c0-.32-.08-.57-.24-.76-.16-.19-.4-.28-.72-.28-.22,0-.41.05-.57.14-.16.09-.29.21-.38.35-.09.14-.14.29-.14.43,0,.2.04.4.12.6s.2.36.36.49c.16.13.36.19.59.19Z"/>
    <rect class="cls-1" x="258.23" y="50.29" width="2.82" height="8.26"/>
  </g>
  <g>
    <path class="cls-5" d="M249.55,64h-.73v1.13h-.59v-1.13h-2.39v-.53l2.35-3.37h.64v3.34h.73v.55ZM248.23,63.45v-1.58c0-.24,0-.45.01-.62,0-.17.01-.33.02-.49h-.03c-.04.09-.08.18-.14.29-.06.1-.11.19-.16.26l-1.5,2.13h1.79Z"/>
    <rect class="cls-1" x="243.02" y="58.55" width="2.82" height="8.26"/>
  </g>
  <g>
    <path class="cls-7" d="M292.67,70.53c0,.36-.03.71-.09,1.06-.06.35-.18.66-.34.95-.17.28-.4.51-.7.68-.3.17-.69.25-1.16.25-.09,0-.2,0-.33-.02s-.23-.03-.3-.05v-.52c.18.06.39.09.62.09.33,0,.6-.05.81-.16.21-.11.38-.25.51-.44s.22-.4.27-.64c.06-.25.09-.5.1-.77h-.04c-.11.16-.26.3-.45.41-.19.11-.44.17-.74.17-.43,0-.78-.13-1.04-.4s-.4-.64-.4-1.12c0-.35.07-.65.2-.9s.32-.45.56-.58c.24-.13.52-.2.84-.2s.6.08.86.24.46.4.61.73c.15.33.22.74.22,1.24ZM290.98,68.84c-.29,0-.53.1-.71.29s-.28.48-.28.88c0,.32.08.58.23.76.16.18.4.28.72.28.22,0,.42-.05.58-.14s.29-.21.38-.35c.09-.14.14-.28.14-.43,0-.2-.04-.4-.12-.59-.08-.2-.2-.36-.36-.49-.16-.13-.36-.2-.59-.2Z"/>
    <rect class="cls-1" x="286.57" y="66.81" width="2.82" height="8.26"/>
  </g>
  <path class="cls-10" d="M145.99,100.86c0,.43-.08.83-.24,1.22-.16.38-.39.73-.7,1.04-.3.3-.65.53-1.03.69-.39.16-.79.24-1.22.24s-.84-.08-1.23-.24c-.39-.16-.73-.39-1.03-.69-.3-.31-.54-.65-.7-1.04-.16-.38-.24-.79-.24-1.22s.08-.83.24-1.22.39-.73.7-1.04c.3-.3.65-.53,1.03-.69.39-.16.79-.24,1.22-.24s.83.08,1.22.24c.38.16.73.39,1.04.7.3.31.54.65.7,1.04s.24.79.24,1.22Z"/>
  <g>
    <path d="M152.44,102.24c0,.34-.08.63-.26.86-.17.23-.41.41-.7.53-.3.12-.64.18-1.02.18-.34,0-.64-.02-.9-.07-.26-.05-.47-.11-.66-.18v-.46c.2.08.44.15.71.21.27.06.56.09.88.09.44,0,.79-.09,1.07-.28.27-.19.41-.47.41-.84,0-.22-.05-.41-.16-.56-.1-.15-.26-.28-.48-.38-.22-.11-.49-.22-.83-.33-.32-.11-.59-.23-.82-.36s-.41-.3-.53-.5c-.12-.2-.18-.45-.18-.76s.08-.58.24-.79c.16-.21.37-.38.65-.49.28-.11.59-.17.94-.17.28,0,.54.03.79.08s.49.13.71.22l-.16.4c-.45-.19-.9-.29-1.36-.29-.4,0-.72.09-.96.26-.25.17-.37.43-.37.76,0,.25.05.44.16.59.11.15.26.27.46.37.2.1.45.2.74.3.34.12.63.24.87.37.24.13.43.29.56.48.13.19.2.44.2.74Z"/>
    <path d="M154.95,104.19v-.7c-.31,0-.6-.03-.86-.08-.26-.05-.48-.1-.65-.17v-.46c.18.07.41.14.68.2.27.06.55.09.83.1v-2.08c-.31-.1-.59-.21-.81-.33s-.4-.27-.52-.45c-.12-.18-.18-.4-.18-.68,0-.41.14-.72.42-.95.28-.23.65-.35,1.1-.38v-.57h.35v.57c.5.02.95.11,1.35.3l-.15.39c-.2-.08-.4-.15-.6-.2-.21-.05-.4-.08-.6-.09v2.05c.33.11.6.22.84.33.23.11.41.26.54.43.12.17.19.4.19.67,0,.41-.14.73-.42.97-.28.24-.66.37-1.14.41v.71h-.35ZM154.95,100.54v-1.9c-.33.02-.59.1-.78.25s-.29.36-.29.63c0,.29.1.5.29.65.19.14.45.27.78.38ZM155.3,103.06c.35-.03.62-.12.82-.27.2-.16.3-.38.3-.66,0-.27-.09-.48-.27-.61-.18-.14-.46-.27-.84-.39v1.94Z"/>
    <path d="M162.1,103.72h-.46v-5.3h-1.84v-.42h4.14v.42h-1.84v5.3Z"/>
    <path d="M168.34,101.6c0,.44-.07.83-.22,1.16-.15.33-.36.59-.65.77-.29.18-.63.28-1.04.28s-.73-.09-1.02-.27c-.28-.18-.5-.44-.65-.77-.15-.33-.23-.72-.23-1.17,0-.69.17-1.23.52-1.62s.81-.58,1.41-.58c.41,0,.75.09,1.03.28.28.18.49.44.64.77.14.33.22.72.22,1.16ZM165.01,101.6c0,.54.11.98.34,1.32.23.33.59.5,1.08.5s.86-.17,1.09-.5c.23-.33.35-.77.35-1.32,0-.35-.05-.66-.14-.94-.1-.27-.25-.48-.46-.64-.21-.15-.48-.23-.82-.23-.49,0-.85.16-1.09.48-.24.32-.36.76-.36,1.33Z"/>
    <path d="M170.79,103.42c.12,0,.23,0,.34-.03s.2-.04.28-.07v.37c-.09.03-.19.06-.3.08-.12.02-.24.03-.38.03-.35,0-.62-.1-.82-.3-.19-.2-.29-.52-.29-.96v-2.7h-.63v-.26l.63-.14.16-.98h.29v1.02h1.31v.37h-1.31v2.69c0,.6.24.9.72.9Z"/>
    <path d="M173.9,99.4c.48,0,.84.12,1.07.35.23.23.35.6.35,1.11v2.86h-.34l-.09-.72h-.02c-.15.24-.34.43-.56.58-.22.15-.53.22-.93.22s-.73-.1-.96-.3c-.24-.2-.36-.5-.36-.89,0-.42.17-.74.52-.97.34-.22.85-.35,1.52-.38l.78-.04v-.3c0-.42-.08-.72-.25-.89-.17-.17-.42-.26-.74-.26-.22,0-.43.03-.63.08-.2.06-.41.14-.61.24l-.14-.37c.2-.1.42-.18.66-.25.24-.06.49-.1.74-.1ZM174.88,101.58l-.72.03c-.54.02-.95.11-1.22.28s-.4.41-.4.73c0,.26.08.46.25.6.17.14.39.2.68.2.44,0,.79-.13,1.03-.38.24-.25.37-.6.38-1.06v-.41Z"/>
    <path d="M177.23,103.72h-.46v-6.08h.46v6.08Z"/>
    <path d="M184.15,102.24c0,.34-.08.63-.26.86-.17.23-.41.41-.7.53-.3.12-.64.18-1.02.18-.34,0-.64-.02-.9-.07-.26-.05-.47-.11-.66-.18v-.46c.2.08.44.15.71.21.27.06.56.09.88.09.44,0,.79-.09,1.07-.28.27-.19.41-.47.41-.84,0-.22-.05-.41-.16-.56-.1-.15-.26-.28-.48-.38-.22-.11-.49-.22-.83-.33-.32-.11-.59-.23-.82-.36s-.41-.3-.53-.5c-.12-.2-.18-.45-.18-.76s.08-.58.24-.79c.16-.21.37-.38.65-.49.28-.11.59-.17.94-.17.28,0,.54.03.79.08s.49.13.71.22l-.16.4c-.45-.19-.9-.29-1.36-.29-.4,0-.72.09-.96.26-.25.17-.37.43-.37.76,0,.25.05.44.16.59.11.15.26.27.46.37.2.1.45.2.74.3.34.12.63.24.87.37.24.13.43.29.56.48.13.19.2.44.2.74Z"/>
    <path d="M185.79,97.64v1.95c0,.21,0,.42-.02.61h.03c.11-.24.28-.43.53-.58.25-.16.55-.23.91-.23.49,0,.86.12,1.12.38s.39.64.39,1.18v2.78h-.46v-2.75c0-.41-.09-.7-.28-.9-.18-.19-.46-.29-.81-.29-.94,0-1.41.54-1.41,1.62v2.32h-.45v-6.08h.45Z"/>
    <path d="M191.7,99.4c.48,0,.84.12,1.07.35.23.23.35.6.35,1.11v2.86h-.34l-.09-.72h-.02c-.15.24-.34.43-.56.58-.22.15-.53.22-.93.22s-.73-.1-.96-.3c-.24-.2-.36-.5-.36-.89,0-.42.17-.74.52-.97.34-.22.85-.35,1.52-.38l.78-.04v-.3c0-.42-.08-.72-.25-.89-.17-.17-.42-.26-.74-.26-.22,0-.43.03-.63.08-.2.06-.41.14-.61.24l-.14-.37c.2-.1.42-.18.66-.25.24-.06.49-.1.74-.1ZM192.68,101.58l-.72.03c-.54.02-.95.11-1.22.28s-.4.41-.4.73c0,.26.08.46.25.6.17.14.39.2.68.2.44,0,.79-.13,1.03-.38.24-.25.37-.6.38-1.06v-.41Z"/>
    <path d="M196.32,99.4c.22,0,.42.02.58.07l-.06.42c-.08-.02-.17-.04-.26-.05s-.18-.02-.27-.02c-.4,0-.71.14-.93.43-.23.29-.34.67-.34,1.14v2.34h-.46v-4.26h.38l.05.8h.02c.11-.24.27-.45.48-.62.22-.17.48-.26.8-.26Z"/>
    <path d="M199.43,99.39c.36,0,.67.08.91.25s.43.4.55.69c.12.29.18.63.18,1.01v.32h-3.04c0,.56.13.99.39,1.29.26.3.64.45,1.13.45.27,0,.5-.02.7-.06s.41-.12.65-.22v.42c-.21.1-.42.17-.63.21-.21.04-.45.06-.73.06-.63,0-1.12-.19-1.46-.58-.34-.39-.51-.92-.51-1.59,0-.43.07-.82.22-1.16.15-.34.36-.6.64-.8.28-.19.61-.29,1.01-.29ZM199.42,99.77c-.39,0-.71.13-.95.39-.24.26-.39.63-.43,1.11h2.55c0-.45-.09-.81-.28-1.09s-.49-.42-.89-.42Z"/>
    <path d="M202.77,97.64v1.95c0,.21,0,.42-.02.61h.03c.11-.24.28-.43.53-.58.25-.16.55-.23.91-.23.49,0,.86.12,1.12.38s.39.64.39,1.18v2.78h-.46v-2.75c0-.41-.09-.7-.28-.9-.18-.19-.45-.29-.81-.29-.94,0-1.41.54-1.41,1.62v2.32h-.45v-6.08h.45Z"/>
    <path d="M210.73,101.6c0,.44-.07.83-.22,1.16-.15.33-.36.59-.65.77-.29.18-.63.28-1.04.28s-.73-.09-1.02-.27c-.28-.18-.5-.44-.65-.77-.15-.33-.23-.72-.23-1.17,0-.69.17-1.23.52-1.62s.81-.58,1.41-.58c.41,0,.75.09,1.03.28.28.18.49.44.64.77.14.33.22.72.22,1.16ZM207.4,101.6c0,.54.11.98.34,1.32.23.33.59.5,1.08.5s.86-.17,1.09-.5c.23-.33.35-.77.35-1.32,0-.35-.05-.66-.14-.94-.1-.27-.25-.48-.46-.64-.21-.15-.48-.23-.82-.23-.49,0-.85.16-1.09.48-.24.32-.36.76-.36,1.33Z"/>
    <path d="M212.44,103.72h-.46v-6.08h.46v6.08Z"/>
    <path d="M215.45,103.8c-.57,0-1.01-.18-1.32-.55s-.46-.9-.46-1.61.16-1.3.48-1.68c.32-.38.77-.58,1.33-.58.36,0,.65.08.87.23.22.15.39.35.5.58h.03c0-.13-.01-.27-.02-.42,0-.15-.01-.29-.01-.41v-1.73h.46v6.08h-.37l-.06-.74h-.02c-.11.22-.28.42-.5.58s-.53.24-.9.24ZM215.51,103.41c.49,0,.84-.15,1.05-.45s.31-.73.31-1.29v-.08c0-.59-.1-1.04-.31-1.35-.21-.31-.55-.47-1.02-.47s-.8.16-1.04.48c-.23.32-.35.78-.35,1.38s.11,1.02.34,1.32.57.45,1.02.45Z"/>
    <path d="M220.42,99.39c.36,0,.67.08.91.25s.43.4.55.69c.12.29.18.63.18,1.01v.32h-3.04c0,.56.13.99.39,1.29.26.3.64.45,1.13.45.27,0,.5-.02.7-.06s.41-.12.65-.22v.42c-.21.1-.42.17-.63.21-.21.04-.45.06-.73.06-.63,0-1.12-.19-1.46-.58-.34-.39-.51-.92-.51-1.59,0-.43.07-.82.22-1.16s.36-.6.64-.8c.28-.19.61-.29,1.01-.29ZM220.41,99.77c-.39,0-.71.13-.95.39-.24.26-.38.63-.43,1.11h2.55c0-.45-.09-.81-.28-1.09-.19-.28-.49-.42-.89-.42Z"/>
    <path d="M225.05,99.4c.22,0,.42.02.58.07l-.06.42c-.09-.02-.17-.04-.26-.05-.09-.01-.18-.02-.27-.02-.39,0-.71.14-.93.43-.23.29-.34.67-.34,1.14v2.34h-.46v-4.26h.38l.05.8h.02c.11-.24.27-.45.48-.62.22-.17.48-.26.8-.26Z"/>
    <path d="M230.24,98.01c.68,0,1.2.12,1.54.36.34.24.52.64.52,1.21,0,.44-.12.78-.35,1.02-.23.25-.52.42-.87.53l1.57,2.59h-.55l-1.46-2.46h-1.36v2.46h-.46v-5.71h1.42ZM230.2,98.43h-.92v2.43h1.08c.46,0,.82-.11,1.08-.33.25-.22.38-.53.38-.94,0-.44-.13-.74-.4-.91s-.67-.26-1.22-.26Z"/>
    <path d="M235.22,99.39c.36,0,.67.08.91.25s.43.4.55.69c.12.29.18.63.18,1.01v.32h-3.04c0,.56.13.99.39,1.29.26.3.64.45,1.13.45.27,0,.5-.02.7-.06s.41-.12.65-.22v.42c-.21.1-.42.17-.63.21-.21.04-.45.06-.73.06-.63,0-1.12-.19-1.46-.58-.34-.39-.51-.92-.51-1.59,0-.43.07-.82.22-1.16s.36-.6.64-.8c.28-.19.61-.29,1.01-.29ZM235.21,99.77c-.39,0-.71.13-.95.39-.24.26-.38.63-.43,1.11h2.55c0-.45-.09-.81-.28-1.09-.19-.28-.49-.42-.89-.42Z"/>
    <path d="M239.31,103.42c.12,0,.23,0,.34-.03.11-.02.2-.04.28-.07v.37c-.08.03-.19.06-.3.08s-.24.03-.38.03c-.35,0-.62-.1-.82-.3-.19-.2-.29-.52-.29-.96v-2.7h-.63v-.26l.63-.14.16-.98h.29v1.02h1.31v.37h-1.31v2.69c0,.6.24.9.72.9Z"/>
    <path d="M244.27,99.47v4.26h-.38l-.06-.73h-.02c-.12.23-.3.42-.54.58-.24.16-.54.23-.91.23-1,0-1.5-.52-1.5-1.55v-2.78h.46v2.75c0,.41.09.71.27.9.18.19.45.29.82.29.94,0,1.41-.54,1.41-1.62v-2.32h.46Z"/>
    <path d="M247.52,99.4c.22,0,.42.02.58.07l-.06.42c-.08-.02-.17-.04-.26-.05s-.18-.02-.27-.02c-.4,0-.71.14-.93.43-.23.29-.34.67-.34,1.14v2.34h-.46v-4.26h.38l.05.8h.02c.11-.24.27-.45.48-.62.22-.17.48-.26.8-.26Z"/>
    <path d="M250.92,99.39c.49,0,.86.12,1.11.38.26.25.38.64.38,1.18v2.78h-.46v-2.75c0-.41-.09-.7-.28-.9-.18-.19-.45-.29-.81-.29-.94,0-1.41.54-1.41,1.62v2.32h-.45v-4.26h.37l.06.74h.03c.11-.24.29-.43.53-.58.24-.16.54-.23.91-.23Z"/>
    <path d="M256.48,97.64v1.68c0,.15,0,.31,0,.49,0,.18-.01.32-.02.42h.03c.11-.24.28-.44.52-.6.24-.16.55-.24.92-.24.55,0,.98.19,1.28.56.3.37.46.92.46,1.64,0,.67-.15,1.21-.46,1.61-.31.4-.75.6-1.34.6-.36,0-.65-.08-.88-.22-.23-.15-.39-.33-.5-.54h-.04l-.08.69h-.34v-6.08h.46ZM257.88,99.78c-.5,0-.85.16-1.07.46-.22.31-.32.76-.32,1.34v.06c0,.58.1,1.01.31,1.32.21.3.54.45,1.02.45s.8-.16,1.04-.48c.23-.32.35-.77.35-1.36,0-1.2-.44-1.8-1.32-1.8Z"/>
    <path d="M260.21,99.47h.49l1.02,2.65c.08.24.16.44.22.63.06.18.12.35.15.49h.02c.04-.12.09-.28.15-.47.06-.19.14-.41.22-.64l.99-2.66h.49l-1.92,5.02c-.14.37-.31.66-.51.87s-.46.31-.8.31c-.11,0-.2,0-.28-.02s-.16-.04-.23-.06v-.38c.14.05.29.07.46.07.22,0,.41-.07.55-.21.14-.14.27-.35.37-.63l.28-.72-1.67-4.24Z"/>
    <path d="M269.5,103.72l-2.05-5.22h-.03c.01.14.02.31.02.5,0,.19,0,.39,0,.6v4.11h-.43v-5.71h.7l1.97,5.01h.02l1.99-5.01h.69v5.71h-.46v-4.16c0-.18,0-.37,0-.55,0-.19.01-.35.02-.5h-.02l-2.06,5.22h-.38Z"/>
    <path d="M275.49,99.4c.48,0,.84.12,1.07.35s.35.6.35,1.11v2.86h-.34l-.09-.72h-.02c-.15.24-.34.43-.56.58-.22.15-.53.22-.93.22s-.73-.1-.96-.3c-.24-.2-.36-.5-.36-.89,0-.42.17-.74.52-.97.34-.22.85-.35,1.52-.38l.78-.04v-.3c0-.42-.08-.72-.25-.89-.17-.17-.41-.26-.74-.26-.22,0-.43.03-.63.08-.2.06-.41.14-.61.24l-.14-.37c.2-.1.42-.18.66-.25.24-.06.49-.1.74-.1ZM276.47,101.58l-.72.03c-.54.02-.95.11-1.22.28s-.4.41-.4.73c0,.26.08.46.25.6.17.14.39.2.68.2.44,0,.79-.13,1.03-.38.24-.25.37-.6.38-1.06v-.41Z"/>
    <path d="M280.11,99.4c.22,0,.42.02.58.07l-.06.42c-.08-.02-.17-.04-.26-.05-.09-.01-.18-.02-.27-.02-.39,0-.71.14-.93.43-.23.29-.34.67-.34,1.14v2.34h-.46v-4.26h.38l.05.8h.02c.11-.24.27-.45.48-.62.22-.17.48-.26.8-.26Z"/>
    <path d="M282.05,97.64v3.09c0,.17,0,.35,0,.53,0,.18,0,.37,0,.55h0c.07-.08.15-.18.24-.29s.17-.21.25-.29l1.62-1.76h.54l-1.68,1.82,1.82,2.43h-.54l-1.6-2.13-.64.66v1.47h-.45v-6.08h.45Z"/>
    <path d="M287.26,99.39c.36,0,.67.08.91.25.25.17.43.4.55.69.12.29.18.63.18,1.01v.32h-3.04c0,.56.13.99.39,1.29.26.3.64.45,1.13.45.27,0,.5-.02.7-.06s.41-.12.65-.22v.42c-.21.1-.42.17-.63.21-.21.04-.45.06-.73.06-.63,0-1.12-.19-1.46-.58-.34-.39-.51-.92-.51-1.59,0-.43.07-.82.22-1.16s.36-.6.64-.8c.28-.19.61-.29,1.01-.29ZM287.25,99.77c-.39,0-.71.13-.95.39-.24.26-.39.63-.43,1.11h2.55c0-.45-.09-.81-.28-1.09s-.49-.42-.89-.42Z"/>
    <path d="M291.35,103.42c.12,0,.23,0,.34-.03s.2-.04.28-.07v.37c-.08.03-.18.06-.3.08-.11.02-.24.03-.38.03-.35,0-.62-.1-.82-.3-.19-.2-.29-.52-.29-.96v-2.7h-.63v-.26l.63-.14.16-.98h.29v1.02h1.31v.37h-1.31v2.69c0,.6.24.9.72.9Z"/>
    <path d="M299.08,98.01l-2.1,5.71h-.46l-2.1-5.71h.49l1.51,4.12c.07.19.13.38.19.55.06.18.1.34.14.5.04-.15.08-.32.14-.49.05-.17.12-.36.19-.57l1.5-4.11h.5Z"/>
    <path d="M301.37,99.4c.48,0,.84.12,1.07.35s.35.6.35,1.11v2.86h-.34l-.09-.72h-.02c-.15.24-.34.43-.56.58-.22.15-.53.22-.93.22s-.73-.1-.96-.3c-.24-.2-.36-.5-.36-.89,0-.42.17-.74.52-.97.34-.22.85-.35,1.52-.38l.78-.04v-.3c0-.42-.08-.72-.25-.89-.17-.17-.41-.26-.74-.26-.22,0-.43.03-.63.08-.2.06-.41.14-.61.24l-.14-.37c.2-.1.42-.18.66-.25.24-.06.49-.1.74-.1ZM302.35,101.58l-.72.03c-.54.02-.95.11-1.22.28s-.4.41-.4.73c0,.26.08.46.25.6.17.14.39.2.68.2.44,0,.79-.13,1.03-.38.24-.25.37-.6.38-1.06v-.41Z"/>
    <path d="M304.7,103.72h-.46v-6.08h.46v6.08Z"/>
    <path d="M309.54,99.47v4.26h-.38l-.06-.73h-.02c-.12.23-.3.42-.54.58-.24.16-.54.23-.91.23-1,0-1.5-.52-1.5-1.55v-2.78h.46v2.75c0,.41.09.71.27.9.18.19.45.29.82.29.94,0,1.41-.54,1.41-1.62v-2.32h.46Z"/>
    <path d="M312.66,99.39c.36,0,.67.08.91.25.25.17.43.4.55.69.12.29.18.63.18,1.01v.32h-3.04c0,.56.13.99.39,1.29.26.3.64.45,1.13.45.27,0,.5-.02.7-.06s.41-.12.65-.22v.42c-.21.1-.42.17-.63.21-.21.04-.45.06-.73.06-.63,0-1.12-.19-1.46-.58-.34-.39-.51-.92-.51-1.59,0-.43.07-.82.22-1.16s.36-.6.64-.8c.28-.19.61-.29,1.01-.29ZM312.65,99.77c-.39,0-.71.13-.95.39-.24.26-.39.63-.43,1.11h2.55c0-.45-.09-.81-.28-1.09s-.49-.42-.89-.42Z"/>
  </g>
  <g>
    <path class="cls-4" d="M334.88,100.86c0,.43-.08.83-.24,1.22-.16.38-.39.73-.7,1.04-.3.3-.65.53-1.03.69-.39.16-.79.24-1.22.24s-.84-.08-1.23-.24c-.39-.16-.73-.39-1.03-.69-.3-.31-.54-.65-.7-1.04-.16-.38-.24-.79-.24-1.22s.08-.83.24-1.22.39-.73.7-1.04c.3-.3.65-.53,1.03-.69.39-.16.79-.24,1.22-.24s.83.08,1.22.24c.38.16.73.39,1.04.7.3.31.54.65.7,1.04s.24.79.24,1.22Z"/>
    <g>
      <path d="M338.26,103.72h-.46v-5.71h3.14v.42h-2.67v2.35h2.53v.42h-2.53v2.53Z"/>
      <path d="M343.48,103.72h-.46v-5.3h-1.84v-.42h4.14v.42h-1.84v5.3Z"/>
      <path d="M349.43,102.24c0,.34-.08.63-.26.86-.17.23-.41.41-.7.53-.3.12-.64.18-1.02.18-.34,0-.64-.02-.9-.07s-.47-.11-.66-.18v-.46c.2.08.44.15.71.21s.56.09.88.09c.44,0,.79-.09,1.07-.28.27-.19.41-.47.41-.84,0-.22-.05-.41-.16-.56-.1-.15-.26-.28-.48-.38-.22-.11-.49-.22-.83-.33-.32-.11-.6-.23-.82-.36-.23-.13-.41-.3-.53-.5s-.18-.45-.18-.76.08-.58.24-.79c.16-.21.37-.38.65-.49s.59-.17.94-.17c.28,0,.54.03.79.08.25.05.49.13.71.22l-.16.4c-.45-.19-.9-.29-1.36-.29-.39,0-.72.09-.96.26-.25.17-.37.43-.37.76,0,.25.05.44.16.59s.26.27.46.37c.2.1.45.2.74.3.34.12.62.24.87.37.24.13.43.29.56.48.13.19.2.44.2.74Z"/>
      <path d="M353.85,103.72h-3.14v-5.71h3.14v.42h-2.67v2.1h2.52v.41h-2.52v2.38h2.67v.42Z"/>
      <path d="M360.56,102.24c0,.34-.08.63-.26.86-.17.23-.41.41-.7.53-.3.12-.64.18-1.02.18-.34,0-.64-.02-.9-.07s-.47-.11-.66-.18v-.46c.2.08.44.15.71.21s.56.09.88.09c.44,0,.79-.09,1.07-.28.27-.19.41-.47.41-.84,0-.22-.05-.41-.16-.56-.1-.15-.26-.28-.48-.38-.22-.11-.49-.22-.83-.33-.32-.11-.6-.23-.82-.36-.23-.13-.41-.3-.53-.5s-.18-.45-.18-.76.08-.58.24-.79c.16-.21.37-.38.65-.49s.59-.17.94-.17c.28,0,.54.03.79.08.25.05.49.13.71.22l-.16.4c-.45-.19-.9-.29-1.36-.29-.39,0-.72.09-.96.26-.25.17-.37.43-.37.76,0,.25.05.44.16.59s.26.27.46.37c.2.1.45.2.74.3.34.12.62.24.87.37.24.13.43.29.56.48.13.19.2.44.2.74Z"/>
      <path d="M363.4,103.72h-.46v-5.3h-1.84v-.42h4.14v.42h-1.84v5.3Z"/>
      <path d="M367.46,103.72h-1.68v-.29l.61-.09v-4.95l-.61-.1v-.29h1.68v.29l-.61.1v4.95l.61.09v.29Z"/>
      <path d="M370.32,101.06h-2.11v-.22l.96-.99c.16-.16.29-.31.4-.44.11-.13.19-.26.25-.39.06-.13.08-.28.08-.44,0-.21-.06-.37-.18-.48-.12-.11-.29-.17-.49-.17-.15,0-.29.03-.42.08-.13.05-.26.13-.39.23l-.14-.19c.14-.11.29-.2.45-.26.16-.06.33-.09.5-.09.29,0,.51.08.69.24.17.16.26.37.26.64,0,.18-.03.35-.1.49-.06.15-.15.3-.27.44-.12.14-.26.3-.42.46l-.83.85h0s1.77.01,1.77.01v.24Z"/>
    </g>
  </g>
  <g>
    <path class="cls-6" d="M145.99,114.03c0,.43-.08.83-.24,1.22-.16.38-.39.73-.7,1.04-.3.3-.65.53-1.03.69-.39.16-.79.24-1.22.24s-.84-.08-1.23-.24c-.39-.16-.73-.39-1.03-.69-.3-.31-.54-.65-.7-1.04-.16-.38-.24-.79-.24-1.22s.08-.83.24-1.22.39-.73.7-1.04c.3-.3.65-.53,1.03-.69.39-.16.79-.24,1.22-.24s.83.08,1.22.24c.38.16.73.39,1.04.7.3.31.54.65.7,1.04s.24.79.24,1.22Z"/>
    <g>
      <path d="M151.38,116.89l-2.05-5.22h-.03c.01.14.02.31.02.5s0,.39,0,.6v4.11h-.43v-5.71h.7l1.97,5.01h.02l1.99-5.01h.69v5.71h-.46v-4.16c0-.18,0-.37,0-.55,0-.19.01-.35.02-.5h-.02l-2.06,5.22h-.38Z"/>
      <path d="M159.14,115.4c0,.34-.08.63-.26.86-.17.23-.41.41-.7.53-.3.12-.64.18-1.02.18-.34,0-.64-.02-.9-.07-.26-.05-.47-.11-.66-.18v-.46c.2.08.44.15.71.21.27.06.56.09.88.09.44,0,.79-.09,1.07-.28.27-.19.41-.47.41-.84,0-.22-.05-.41-.16-.56s-.26-.28-.48-.38c-.22-.11-.49-.22-.83-.33-.32-.11-.6-.23-.82-.36-.23-.13-.41-.3-.53-.5-.12-.2-.18-.45-.18-.76s.08-.58.24-.79c.16-.21.37-.38.65-.49.27-.11.59-.17.94-.17.28,0,.54.03.79.08.25.05.49.13.71.22l-.16.4c-.45-.19-.9-.29-1.36-.29-.4,0-.72.09-.96.26-.25.17-.37.43-.37.76,0,.25.05.44.16.59.11.15.26.27.46.37.2.1.45.2.74.3.34.12.63.24.87.37s.43.29.56.48c.13.19.2.44.2.74Z"/>
      <path d="M162.86,111.51c-.47,0-.87.11-1.21.32-.34.21-.59.5-.77.88s-.27.81-.27,1.32.08.96.24,1.34c.16.38.4.67.72.88.32.21.72.31,1.2.31.28,0,.53-.02.76-.06.23-.04.45-.1.66-.16v.4c-.2.08-.42.13-.65.18-.24.04-.51.06-.82.06-.58,0-1.06-.12-1.44-.37-.39-.25-.68-.59-.87-1.03-.19-.44-.29-.96-.29-1.55s.11-1.07.32-1.51c.22-.44.53-.79.94-1.04.41-.25.9-.38,1.48-.38s1.06.11,1.5.32l-.18.4c-.42-.2-.86-.3-1.32-.3Z"/>
      <path d="M166.78,116.89h-1.68v-.29l.61-.09v-4.95l-.61-.1v-.29h1.68v.29l-.61.1v4.95l.61.09v.29Z"/>
      <path d="M173.81,116.89l-.76-1.97h-2.37l-.78,1.97h-.47l2.24-5.73h.43l2.19,5.73h-.49ZM172.91,114.51l-.77-2.06c-.02-.07-.06-.19-.11-.35s-.1-.3-.14-.42c-.04.14-.09.28-.14.42-.05.14-.09.26-.12.36l-.79,2.06h2.07Z"/>
      <path d="M177.62,111.51c-.47,0-.87.11-1.21.32-.34.21-.59.5-.77.88s-.27.81-.27,1.32.08.96.24,1.34c.16.38.4.67.72.88.32.21.72.31,1.2.31.28,0,.53-.02.76-.06.23-.04.45-.1.66-.16v.4c-.2.08-.42.13-.65.18-.24.04-.51.06-.82.06-.58,0-1.06-.12-1.44-.37-.39-.25-.68-.59-.87-1.03-.19-.44-.29-.96-.29-1.55s.11-1.07.32-1.51c.22-.44.53-.79.94-1.04.41-.25.9-.38,1.48-.38s1.06.11,1.5.32l-.18.4c-.42-.2-.86-.3-1.32-.3Z"/>
      <path d="M186.01,116.89l-.76-1.97h-2.37l-.78,1.97h-.47l2.24-5.73h.43l2.19,5.73h-.49ZM185.1,114.51l-.77-2.06c-.02-.07-.06-.19-.11-.35s-.1-.3-.14-.42c-.04.14-.09.28-.14.42-.05.14-.09.26-.12.36l-.79,2.06h2.07Z"/>
      <path d="M189.96,115.76c0,.39-.14.69-.43.9-.29.21-.69.31-1.22.31-.3,0-.56-.03-.79-.08s-.42-.12-.57-.19v-.44c.19.1.4.17.64.24.24.06.49.09.74.09.42,0,.72-.07.9-.21.19-.14.28-.33.28-.58s-.1-.42-.29-.54c-.19-.13-.49-.25-.88-.39-.26-.09-.49-.18-.69-.27-.2-.09-.36-.21-.47-.36-.11-.15-.17-.34-.17-.6,0-.34.14-.61.42-.8.28-.19.65-.29,1.11-.29.26,0,.49.03.72.08.22.05.42.11.6.19l-.16.38c-.17-.07-.35-.14-.56-.18s-.42-.07-.62-.07c-.34,0-.6.06-.78.18-.19.12-.28.29-.28.51,0,.17.05.3.14.4.09.1.22.18.39.26.17.07.38.15.62.24.25.09.48.18.68.27.21.1.37.22.49.37.12.15.18.35.18.6Z"/>
      <path d="M191.34,111.06c.21,0,.32.12.32.34s-.11.35-.32.35-.3-.12-.3-.35.1-.34.3-.34ZM191.57,112.63v4.26h-.45v-4.26h.45Z"/>
      <path d="M194.57,112.56c.48,0,.84.12,1.07.35.23.23.35.6.35,1.11v2.86h-.34l-.09-.72h-.02c-.15.24-.34.43-.56.58-.22.15-.53.22-.93.22s-.73-.1-.96-.3c-.24-.2-.36-.5-.36-.89,0-.42.17-.74.52-.97.34-.22.85-.35,1.52-.38l.78-.04v-.3c0-.42-.08-.72-.25-.89-.17-.17-.42-.26-.74-.26-.22,0-.43.03-.63.08-.2.06-.41.14-.61.24l-.14-.37c.2-.1.42-.18.66-.25.24-.06.49-.1.74-.1ZM195.54,114.75l-.72.03c-.54.02-.95.11-1.22.28s-.4.41-.4.73c0,.26.08.46.25.6.17.14.39.2.68.2.44,0,.79-.13,1.03-.38.24-.25.37-.6.38-1.06v-.41Z"/>
      <path d="M201.22,112.55c.36,0,.67.08.91.25s.43.4.55.69c.12.29.18.63.18,1.01v.32h-3.04c0,.56.13.99.39,1.29.26.3.64.45,1.13.45.27,0,.5-.02.7-.06s.41-.12.65-.22v.42c-.21.1-.42.17-.63.21-.21.04-.45.06-.73.06-.63,0-1.12-.19-1.46-.58s-.51-.92-.51-1.59c0-.43.07-.82.22-1.16.15-.34.36-.6.64-.8.28-.19.61-.29,1.01-.29ZM201.21,112.94c-.39,0-.71.13-.95.39-.24.26-.39.63-.43,1.11h2.55c0-.45-.09-.81-.28-1.09-.19-.28-.49-.42-.89-.42Z"/>
      <path d="M205.13,114.71l-1.49-2.07h.54l1.22,1.76,1.23-1.76h.52l-1.47,2.07,1.56,2.18h-.53l-1.31-1.87-1.3,1.87h-.52l1.55-2.18Z"/>
      <path d="M207.85,114.94v-.42h1.94v.42h-1.94Z"/>
      <path d="M210.09,118.35c-.14,0-.26-.01-.35-.03-.1-.02-.18-.04-.26-.06v-.42c.08.02.17.04.27.06.1.02.21.03.33.03.6,0,.9-.36.9-1.07v-5.68h.46v5.66c0,.47-.11.84-.34,1.1s-.56.4-1.01.4Z"/>
      <path d="M214.5,112.56c.48,0,.84.12,1.07.35.23.23.35.6.35,1.11v2.86h-.34l-.09-.72h-.02c-.15.24-.34.43-.56.58-.22.15-.53.22-.93.22s-.73-.1-.96-.3c-.24-.2-.36-.5-.36-.89,0-.42.17-.74.52-.97.34-.22.85-.35,1.52-.38l.78-.04v-.3c0-.42-.08-.72-.25-.89-.17-.17-.42-.26-.74-.26-.22,0-.43.03-.63.08-.2.06-.41.14-.61.24l-.14-.37c.2-.1.42-.18.66-.25.24-.06.49-.1.74-.1ZM215.48,114.75l-.72.03c-.54.02-.95.11-1.22.28s-.4.41-.4.73c0,.26.08.46.25.6.17.14.39.2.68.2.44,0,.79-.13,1.03-.38.24-.25.37-.6.38-1.06v-.41Z"/>
      <path d="M219.28,112.55c.54,0,.97.18,1.28.55s.46.91.46,1.64-.16,1.28-.48,1.66c-.32.38-.75.57-1.3.57-.38,0-.68-.08-.91-.24-.23-.16-.39-.35-.5-.58h-.03c0,.14.01.29.02.44s.01.3.01.44v1.74h-.46v-6.14h.38l.06.8h.02c.11-.23.28-.44.51-.62s.55-.26.94-.26ZM219.21,112.95c-.47,0-.82.15-1.04.44s-.34.72-.34,1.28v.08c0,.61.11,1.06.33,1.36.22.3.56.45,1.02.45s.77-.16,1.01-.49c.23-.33.35-.78.35-1.36s-.11-1.01-.33-1.32-.55-.46-1-.46Z"/>
      <path d="M223.76,112.56c.48,0,.84.12,1.07.35.23.23.35.6.35,1.11v2.86h-.34l-.09-.72h-.02c-.15.24-.34.43-.56.58-.22.15-.53.22-.93.22s-.73-.1-.96-.3c-.24-.2-.36-.5-.36-.89,0-.42.17-.74.52-.97.34-.22.85-.35,1.52-.38l.78-.04v-.3c0-.42-.08-.72-.25-.89-.17-.17-.42-.26-.74-.26-.22,0-.43.03-.63.08-.2.06-.41.14-.61.24l-.14-.37c.2-.1.42-.18.66-.25.24-.06.49-.1.74-.1ZM224.73,114.75l-.72.03c-.54.02-.95.11-1.22.28s-.4.41-.4.73c0,.26.08.46.25.6.17.14.39.2.68.2.44,0,.79-.13,1.03-.38.24-.25.37-.6.38-1.06v-.41Z"/>
      <path d="M228.53,112.55c.49,0,.86.12,1.11.38.26.25.38.64.38,1.18v2.78h-.46v-2.75c0-.41-.09-.7-.28-.9-.18-.19-.45-.29-.81-.29-.94,0-1.41.54-1.41,1.62v2.32h-.45v-4.26h.37l.06.74h.03c.11-.24.29-.43.53-.58.24-.16.54-.23.91-.23Z"/>
      <path d="M233.03,111.67c0,.22-.07.4-.2.54-.13.14-.3.23-.5.27v.02c.26.03.46.12.6.25.14.14.21.32.21.56,0,.29-.1.52-.3.7-.2.18-.51.27-.91.27-.18,0-.35-.02-.5-.05s-.29-.08-.42-.14v-.26c.13.06.27.11.44.15.17.04.33.06.49.06.32,0,.55-.07.7-.2.15-.14.23-.32.23-.55,0-.24-.09-.42-.27-.52-.18-.1-.42-.16-.72-.16h-.35v-.23h.36c.26,0,.47-.06.64-.18.17-.12.25-.29.25-.53,0-.2-.06-.34-.19-.45-.13-.1-.3-.15-.51-.15-.18,0-.34.03-.48.08-.14.05-.28.13-.42.22l-.14-.19c.13-.1.28-.18.45-.25.17-.07.36-.1.58-.1.31,0,.55.07.72.22.17.15.26.35.26.59Z"/>
    </g>
  </g>
  <g>
    <path class="cls-9" d="M250.58,114.03c0,.43-.08.83-.24,1.22-.16.38-.39.73-.7,1.04-.3.3-.65.53-1.03.69-.39.16-.79.24-1.22.24s-.84-.08-1.23-.24c-.39-.16-.73-.39-1.03-.69-.3-.31-.54-.65-.7-1.04-.16-.38-.24-.79-.24-1.22s.08-.83.24-1.22.39-.73.7-1.04c.3-.3.65-.53,1.03-.69.39-.16.79-.24,1.22-.24s.83.08,1.22.24c.38.16.73.39,1.04.7.3.31.54.65.7,1.04s.24.79.24,1.22Z"/>
    <g>
      <path d="M255.97,116.89l-2.05-5.22h-.03c.01.14.02.31.02.5s0,.39,0,.6v4.11h-.43v-5.71h.7l1.97,5.01h.02l1.99-5.01h.69v5.71h-.46v-4.16c0-.18,0-.37,0-.55,0-.19.01-.35.02-.5h-.02l-2.06,5.22h-.38Z"/>
      <path d="M263.72,115.4c0,.34-.08.63-.26.86-.17.23-.41.41-.7.53-.3.12-.64.18-1.02.18-.34,0-.64-.02-.9-.07-.26-.05-.47-.11-.66-.18v-.46c.2.08.44.15.71.21.27.06.56.09.88.09.44,0,.79-.09,1.07-.28.27-.19.41-.47.41-.84,0-.22-.05-.41-.16-.56s-.26-.28-.48-.38c-.22-.11-.49-.22-.83-.33-.32-.11-.6-.23-.82-.36-.23-.13-.41-.3-.53-.5-.12-.2-.18-.45-.18-.76s.08-.58.24-.79c.16-.21.37-.38.65-.49.27-.11.59-.17.94-.17.28,0,.54.03.79.08.25.05.49.13.71.22l-.16.4c-.45-.19-.9-.29-1.36-.29-.4,0-.72.09-.96.26-.25.17-.37.43-.37.76,0,.25.05.44.16.59.11.15.26.27.46.37.2.1.45.2.74.3.34.12.63.24.87.37s.43.29.56.48c.13.19.2.44.2.74Z"/>
      <path d="M267.44,111.51c-.47,0-.87.11-1.21.32-.34.21-.59.5-.77.88s-.27.81-.27,1.32.08.96.24,1.34c.16.38.4.67.72.88.32.21.72.31,1.2.31.28,0,.53-.02.76-.06.23-.04.45-.1.66-.16v.4c-.2.08-.42.13-.65.18-.24.04-.51.06-.82.06-.58,0-1.06-.12-1.44-.37-.39-.25-.68-.59-.87-1.03-.19-.44-.29-.96-.29-1.55s.11-1.07.32-1.51c.22-.44.53-.79.94-1.04.41-.25.9-.38,1.48-.38s1.06.11,1.5.32l-.18.4c-.42-.2-.86-.3-1.32-.3Z"/>
      <path d="M271.36,116.89h-1.68v-.29l.61-.09v-4.95l-.61-.1v-.29h1.68v.29l-.61.1v4.95l.61.09v.29Z"/>
      <path d="M278.4,116.89l-.76-1.97h-2.37l-.78,1.97h-.47l2.24-5.73h.43l2.19,5.73h-.49ZM277.5,114.51l-.77-2.06c-.02-.07-.06-.19-.11-.35s-.1-.3-.14-.42c-.04.14-.09.28-.14.42-.05.14-.09.26-.12.36l-.79,2.06h2.07Z"/>
      <path d="M282.21,111.51c-.47,0-.87.11-1.21.32-.34.21-.59.5-.77.88s-.27.81-.27,1.32.08.96.24,1.34c.16.38.4.67.72.88.32.21.72.31,1.2.31.28,0,.53-.02.76-.06.23-.04.45-.1.66-.16v.4c-.2.08-.42.13-.65.18-.24.04-.51.06-.82.06-.58,0-1.06-.12-1.44-.37-.39-.25-.68-.59-.87-1.03-.19-.44-.29-.96-.29-1.55s.11-1.07.32-1.51c.22-.44.53-.79.94-1.04.41-.25.9-.38,1.48-.38s1.06.11,1.5.32l-.18.4c-.42-.2-.86-.3-1.32-.3Z"/>
      <path d="M291.07,111.18l-1.55,5.71h-.46l-1.2-4.2c-.11-.39-.19-.71-.24-.94-.02.11-.04.23-.08.38-.04.15-.08.31-.12.48l-1.19,4.27h-.46l-1.53-5.71h.48l1.03,3.92c.06.22.11.43.16.61.05.18.08.36.12.54.03-.18.07-.37.11-.56.04-.19.1-.4.16-.62l1.1-3.9h.46l1.14,3.92c.07.23.13.44.18.63.04.19.08.37.11.54.02-.18.05-.36.1-.54.04-.18.1-.39.16-.62l1.06-3.93h.48Z"/>
      <path d="M293.42,116.89h-1.68v-.29l.61-.09v-4.95l-.61-.1v-.29h1.68v.29l-.61.1v4.95l.61.09v.29Z"/>
      <path d="M296.51,113.4h-.56v.83h-.26v-.83h-1.67v-.21l1.66-2.3h.27v2.28h.56v.24ZM295.69,113.15v-1.24c0-.18,0-.32,0-.43,0-.1,0-.21,0-.32h0c-.04.07-.08.14-.12.2-.04.06-.08.13-.13.2l-1.14,1.58h1.39Z"/>
    </g>
  </g>
</svg>