<?xml version="1.0" encoding="UTF-8"?>
<svg id="Layer_1" data-name="Layer 1" xmlns="http://www.w3.org/2000/svg" viewBox="0 0 545 172">
  <defs>
    <style>
      .cls-1, .cls-2 {
        fill: none;
      }

      .cls-3, .cls-4 {
        fill: #c5d58a;
      }

      .cls-5, .cls-6 {
        fill: #33aba6;
      }

      .cls-2 {
        stroke: #d3d3d2;
        stroke-dasharray: 1.5 1;
        stroke-width: 2px;
      }

      .cls-2, .cls-6, .cls-4 {
        stroke-miterlimit: 10;
      }

      .cls-7 {
        fill: #633169;
      }

      .cls-8 {
        fill: #fff;
      }

      .cls-6, .cls-4 {
        fill-rule: evenodd;
        stroke: #fff;
      }
    </style>
  </defs>
  <g>
    <path class="cls-4" d="M273.07,70.69l-64.99,26.23c-14.5-35.86,2.84-76.68,38.73-91.17,8.69-3.51,16.89-5.1,26.26-5.1v70.03Z"/>
    <path class="cls-6" d="M273.07,70.69V.66c38.71,0,70.1,31.35,70.1,70.03s-31.38,70.03-70.1,70.03c-29.34,0-54-16.61-64.99-43.8l64.99-26.23Z"/>
  </g>
  <g>
    <path class="cls-5" d="M141.81,152.45c0,.43-.08.83-.24,1.22-.16.38-.39.73-.7,1.04-.3.3-.65.53-1.03.69-.39.16-.79.24-1.22.24s-.84-.08-1.23-.24c-.39-.16-.73-.39-1.03-.69-.3-.31-.54-.65-.7-1.04-.16-.38-.24-.79-.24-1.22s.08-.83.24-1.22.39-.73.7-1.04c.3-.3.65-.53,1.03-.69.39-.16.79-.24,1.22-.24s.83.08,1.22.24c.38.16.73.39,1.04.7.3.31.54.65.7,1.04s.24.79.24,1.22Z"/>
    <g>
      <path d="M146.51,149.6c1.37,0,2.06.54,2.06,1.62,0,.55-.18.98-.53,1.29-.36.31-.91.47-1.65.47h-.83v2.34h-.46v-5.71h1.42ZM146.46,150.01h-.91v2.57h.78c.55,0,.99-.1,1.29-.29.31-.19.46-.54.46-1.04,0-.43-.13-.74-.4-.94-.26-.2-.67-.3-1.23-.3Z"/>
      <path d="M151.3,150.99c.48,0,.84.12,1.07.35.24.23.35.6.35,1.11v2.86h-.34l-.09-.72h-.02c-.15.24-.34.43-.56.58-.22.15-.53.22-.93.22s-.73-.1-.96-.3c-.24-.2-.36-.5-.36-.89,0-.42.17-.74.52-.97s.85-.35,1.52-.38l.78-.04v-.3c0-.42-.08-.72-.25-.89-.17-.17-.42-.26-.74-.26-.22,0-.43.03-.63.08-.2.06-.41.14-.61.24l-.14-.37c.2-.1.42-.18.66-.25.24-.06.49-.1.74-.1ZM152.27,153.17l-.72.03c-.54.02-.95.11-1.22.28s-.4.41-.4.73c0,.26.08.46.25.6s.39.2.68.2c.44,0,.79-.13,1.03-.38.24-.25.37-.6.38-1.06v-.41Z"/>
      <path d="M155.91,150.99c.22,0,.42.02.58.07l-.06.42c-.09-.02-.17-.04-.26-.05-.09-.01-.18-.02-.27-.02-.39,0-.71.14-.93.43-.23.29-.34.67-.34,1.14v2.34h-.46v-4.26h.38l.05.8h.02c.11-.24.27-.45.48-.62.22-.17.48-.26.8-.26Z"/>
      <path d="M158.61,155.01c.12,0,.23,0,.34-.03.11-.02.2-.04.28-.07v.37c-.08.03-.19.06-.3.08s-.24.03-.38.03c-.35,0-.62-.1-.82-.3-.19-.2-.29-.52-.29-.96v-2.7h-.63v-.26l.63-.14.16-.98h.29v1.02h1.31v.37h-1.31v2.69c0,.6.24.9.72.9Z"/>
      <path d="M162.12,150.98c.49,0,.86.12,1.11.38s.38.64.38,1.18v2.78h-.46v-2.75c0-.41-.09-.7-.28-.9-.18-.19-.46-.29-.81-.29-.94,0-1.41.54-1.41,1.62v2.32h-.45v-4.26h.37l.06.74h.03c.11-.24.29-.43.53-.58.24-.16.54-.23.91-.23Z"/>
      <path d="M166.69,150.98c.36,0,.67.08.91.25s.43.4.55.69c.12.29.18.63.18,1.01v.32h-3.04c0,.56.13.99.39,1.29.26.3.64.45,1.13.45.27,0,.5-.02.7-.06s.41-.12.65-.22v.42c-.21.1-.42.17-.63.21-.21.04-.45.06-.73.06-.63,0-1.12-.19-1.46-.58-.34-.39-.51-.92-.51-1.59,0-.43.07-.82.22-1.16.15-.34.36-.6.64-.8.28-.19.61-.29,1.01-.29ZM166.68,151.36c-.39,0-.71.13-.95.39-.24.26-.39.63-.43,1.11h2.55c0-.45-.09-.81-.28-1.09s-.49-.42-.89-.42Z"/>
      <path d="M171.32,150.99c.22,0,.42.02.58.07l-.06.42c-.08-.02-.17-.04-.26-.05s-.18-.02-.27-.02c-.4,0-.71.14-.93.43-.23.29-.34.67-.34,1.14v2.34h-.46v-4.26h.38l.05.8h.02c.11-.24.27-.45.48-.62.22-.17.48-.26.8-.26Z"/>
      <path d="M175.49,154.19c0,.39-.14.69-.43.9s-.69.31-1.22.31c-.3,0-.56-.03-.79-.08s-.42-.12-.57-.19v-.44c.19.1.4.17.64.24.24.06.49.09.74.09.42,0,.72-.07.9-.21.19-.14.28-.33.28-.58s-.1-.42-.29-.54c-.2-.13-.49-.25-.88-.39-.26-.09-.49-.18-.69-.27s-.36-.21-.47-.36c-.11-.15-.17-.34-.17-.6,0-.34.14-.61.42-.8.28-.19.65-.29,1.11-.29.26,0,.5.03.72.08.22.05.42.11.6.19l-.16.38c-.17-.07-.35-.14-.56-.18s-.42-.07-.62-.07c-.34,0-.6.06-.78.18-.19.12-.28.29-.28.51,0,.17.05.3.14.4.09.1.22.18.39.26.17.07.38.15.62.24.25.09.48.18.68.27.21.1.37.22.49.37.12.15.18.35.18.6Z"/>
      <path d="M177.1,149.23v1.95c0,.21,0,.42-.02.61h.03c.11-.24.28-.43.53-.58.25-.16.55-.23.91-.23.49,0,.86.12,1.12.38s.39.64.39,1.18v2.78h-.46v-2.75c0-.41-.09-.7-.28-.9-.18-.19-.45-.29-.81-.29-.94,0-1.41.54-1.41,1.62v2.32h-.45v-6.08h.45Z"/>
      <path d="M181.73,149.48c.21,0,.32.12.32.34s-.11.35-.32.35-.3-.12-.3-.35.1-.34.3-.34ZM181.95,151.06v4.26h-.45v-4.26h.45Z"/>
      <path d="M185.35,150.98c.54,0,.97.18,1.28.55s.46.91.46,1.64-.16,1.28-.48,1.66c-.32.38-.75.57-1.3.57-.38,0-.68-.08-.91-.24s-.39-.35-.5-.58h-.03c0,.14.01.29.02.44s.01.3.01.44v1.74h-.46v-6.14h.38l.06.8h.02c.11-.23.28-.44.51-.62.23-.18.55-.26.94-.26ZM185.29,151.38c-.47,0-.82.15-1.04.44-.22.3-.34.72-.34,1.28v.08c0,.61.11,1.06.33,1.36.22.3.56.45,1.02.45s.77-.16,1.01-.49c.23-.33.35-.78.35-1.36s-.11-1.01-.33-1.32c-.22-.31-.55-.46-1-.46Z"/>
      <path d="M191,154.19c0,.39-.14.69-.43.9s-.69.31-1.22.31c-.3,0-.56-.03-.79-.08s-.42-.12-.57-.19v-.44c.19.1.4.17.64.24.24.06.49.09.74.09.42,0,.72-.07.9-.21.19-.14.28-.33.28-.58s-.1-.42-.29-.54c-.2-.13-.49-.25-.88-.39-.26-.09-.49-.18-.69-.27s-.36-.21-.47-.36c-.11-.15-.17-.34-.17-.6,0-.34.14-.61.42-.8.28-.19.65-.29,1.11-.29.26,0,.5.03.72.08.22.05.42.11.6.19l-.16.38c-.17-.07-.35-.14-.56-.18s-.42-.07-.62-.07c-.34,0-.6.06-.78.18-.19.12-.28.29-.28.51,0,.17.05.3.14.4.09.1.22.18.39.26.17.07.38.15.62.24.25.09.48.18.68.27.21.1.37.22.49.37.12.15.18.35.18.6Z"/>
      <path d="M195.83,150.99c.48,0,.84.12,1.07.35.23.23.35.6.35,1.11v2.86h-.34l-.09-.72h-.02c-.15.24-.34.43-.56.58-.22.15-.53.22-.93.22s-.73-.1-.96-.3c-.24-.2-.36-.5-.36-.89,0-.42.17-.74.52-.97.34-.22.85-.35,1.52-.38l.78-.04v-.3c0-.42-.08-.72-.25-.89-.17-.17-.42-.26-.74-.26-.22,0-.43.03-.63.08-.2.06-.41.14-.61.24l-.14-.37c.2-.1.42-.18.66-.25.24-.06.49-.1.74-.1ZM196.81,153.17l-.72.03c-.54.02-.95.11-1.22.28s-.4.41-.4.73c0,.26.08.46.25.6.17.14.39.2.68.2.44,0,.79-.13,1.03-.38.24-.25.37-.6.38-1.06v-.41Z"/>
      <path d="M200.61,150.98c.49,0,.86.12,1.11.38.26.25.38.64.38,1.18v2.78h-.46v-2.75c0-.41-.09-.7-.28-.9-.18-.19-.45-.29-.81-.29-.94,0-1.41.54-1.41,1.62v2.32h-.45v-4.26h.37l.06.74h.03c.11-.24.29-.43.53-.58.24-.16.54-.23.91-.23Z"/>
      <path d="M205.09,155.39c-.57,0-1.01-.18-1.32-.55s-.46-.9-.46-1.61.16-1.3.48-1.68c.32-.38.77-.58,1.33-.58.36,0,.65.08.87.23.22.15.39.35.5.58h.03c0-.13-.01-.27-.02-.42,0-.15-.01-.29-.01-.41v-1.73h.46v6.08h-.37l-.06-.74h-.02c-.11.22-.28.42-.5.58s-.53.24-.9.24ZM205.14,155c.49,0,.84-.15,1.05-.45s.31-.73.31-1.29v-.08c0-.59-.1-1.04-.31-1.35-.21-.31-.55-.47-1.02-.47s-.8.16-1.04.48c-.23.32-.35.78-.35,1.38s.11,1.02.34,1.32.57.45,1.02.45Z"/>
      <path d="M211.17,155.31h-.46v-5.71h3.14v.42h-2.67v2.35h2.53v.42h-2.53v2.53Z"/>
      <path d="M218.1,151.06v4.26h-.38l-.06-.73h-.02c-.12.23-.3.42-.54.58-.24.16-.54.23-.91.23-1,0-1.5-.52-1.5-1.55v-2.78h.46v2.75c0,.41.09.71.27.9.18.19.45.29.82.29.94,0,1.41-.54,1.41-1.62v-2.32h.46Z"/>
      <path d="M221.5,150.98c.49,0,.86.12,1.11.38.26.25.38.64.38,1.18v2.78h-.46v-2.75c0-.41-.09-.7-.28-.9-.18-.19-.45-.29-.81-.29-.94,0-1.41.54-1.41,1.62v2.32h-.45v-4.26h.37l.06.74h.03c.11-.24.29-.43.53-.58.24-.16.54-.23.91-.23Z"/>
      <path d="M225.98,155.39c-.57,0-1.01-.18-1.32-.55s-.46-.9-.46-1.61.16-1.3.48-1.68c.32-.38.77-.58,1.33-.58.36,0,.65.08.87.23.22.15.39.35.5.58h.03c0-.13-.01-.27-.02-.42,0-.15-.01-.29-.01-.41v-1.73h.46v6.08h-.37l-.06-.74h-.02c-.11.22-.28.42-.5.58s-.53.24-.9.24ZM226.04,155c.49,0,.84-.15,1.05-.45s.31-.73.31-1.29v-.08c0-.59-.1-1.04-.31-1.35-.21-.31-.55-.47-1.02-.47s-.8.16-1.04.48c-.23.32-.35.78-.35,1.38s.11,1.02.34,1.32.57.45,1.02.45Z"/>
      <path d="M232.01,154.19c0,.39-.14.69-.43.9-.29.21-.69.31-1.22.31-.3,0-.56-.03-.79-.08s-.42-.12-.57-.19v-.44c.19.1.4.17.64.24.24.06.49.09.74.09.42,0,.72-.07.9-.21.19-.14.28-.33.28-.58s-.1-.42-.29-.54c-.19-.13-.49-.25-.88-.39-.26-.09-.49-.18-.69-.27-.2-.09-.36-.21-.47-.36-.11-.15-.17-.34-.17-.6,0-.34.14-.61.42-.8.28-.19.65-.29,1.11-.29.26,0,.49.03.72.08s.42.11.6.19l-.16.38c-.17-.07-.35-.14-.56-.18s-.42-.07-.62-.07c-.34,0-.6.06-.78.18-.19.12-.28.29-.28.51,0,.17.04.3.14.4s.22.18.39.26c.17.07.38.15.62.24.25.09.48.18.68.27.21.1.37.22.49.37.12.15.18.35.18.6Z"/>
    </g>
  </g>
  <path class="cls-8" d="M328.25,70.74c0,30.53-24.75,55.27-55.27,55.27s-55.28-24.75-55.28-55.27,24.75-55.28,55.28-55.28,55.27,24.75,55.27,55.28Z"/>
  <path class="cls-2" d="M322.72,70.74c0,27.47-22.27,49.75-49.75,49.75s-49.75-22.27-49.75-49.75,22.27-49.75,49.75-49.75,49.75,22.27,49.75,49.75Z"/>
  <g>
    <path class="cls-7" d="M255.99,59.13c0,1.14-.41,2.03-1.24,2.66-.83.64-1.94.95-3.35.95-.72,0-1.39-.05-2-.16s-1.12-.26-1.53-.45v-1.55c.43.19.97.37,1.61.52.64.16,1.3.23,1.99.23.95,0,1.67-.19,2.16-.56.49-.37.74-.88.74-1.51,0-.42-.09-.77-.27-1.06-.18-.29-.49-.55-.94-.79-.44-.24-1.05-.5-1.82-.79-1.1-.4-1.93-.88-2.48-1.46s-.83-1.36-.83-2.36c0-.67.17-1.25.52-1.75.35-.49.83-.87,1.44-1.13.61-.26,1.33-.4,2.14-.4.7,0,1.34.07,1.93.2.59.13,1.13.31,1.62.52l-.5,1.39c-.44-.19-.93-.35-1.46-.49-.53-.13-1.07-.2-1.62-.2-.8,0-1.41.17-1.82.51-.41.34-.61.8-.61,1.36,0,.43.09.79.27,1.08.18.29.47.55.88.78s.96.48,1.66.73c.76.28,1.39.57,1.92.89.52.32.92.7,1.19,1.14.27.44.41,1,.41,1.67Z"/>
    <path class="cls-7" d="M261.39,63.61v-1.93c-.66-.01-1.3-.07-1.93-.17-.62-.1-1.13-.24-1.51-.42v-1.53c.41.19.93.36,1.57.5.64.14,1.26.22,1.87.23v-3.64c-1.19-.32-2.06-.73-2.61-1.22s-.83-1.16-.83-2.02.31-1.58.93-2.09,1.46-.79,2.51-.85v-1.58h1.15v1.57c.64.02,1.21.1,1.74.22.52.12,1,.27,1.43.45l-.49,1.33c-.38-.16-.81-.29-1.27-.4-.46-.11-.93-.19-1.41-.23v3.62c.79.23,1.45.47,1.98.73.53.26.93.58,1.2.95.27.38.41.87.41,1.47,0,.84-.31,1.52-.94,2.04-.62.52-1.51.84-2.65.96v2h-1.15ZM261.39,55.06v-3.19c-.65.05-1.12.2-1.43.45-.31.25-.46.58-.46.97,0,.48.13.85.41,1.11.27.26.76.48,1.49.66ZM262.55,60.21c.71-.07,1.22-.24,1.55-.5.32-.26.49-.59.49-1,0-.46-.14-.8-.43-1.03s-.82-.44-1.6-.65v3.17Z"/>
    <path class="cls-7" d="M276.5,55.21c0,.92-.08,1.83-.24,2.73s-.46,1.7-.88,2.43c-.43.73-1.03,1.31-1.8,1.74-.77.43-1.77.65-2.98.65-.24,0-.52-.02-.85-.05-.32-.03-.58-.07-.77-.13v-1.35c.47.16,1,.23,1.58.23.84,0,1.53-.14,2.08-.41s.98-.65,1.31-1.12c.32-.47.56-1.03.7-1.66.14-.63.23-1.29.25-1.99h-.11c-.28.41-.66.76-1.15,1.05-.49.29-1.13.44-1.91.44-1.1,0-2-.34-2.67-1.02-.68-.68-1.02-1.63-1.02-2.87,0-.9.17-1.67.5-2.32s.81-1.15,1.43-1.49,1.34-.52,2.17-.52,1.55.21,2.21.62c.66.41,1.18,1.04,1.57,1.87.38.83.58,1.89.58,3.18ZM272.14,50.87c-.74,0-1.35.25-1.83.74-.47.49-.71,1.24-.71,2.25,0,.83.2,1.48.6,1.95.4.47,1.02.71,1.86.71.58,0,1.07-.12,1.49-.35s.75-.53.98-.89.35-.73.35-1.12c0-.52-.1-1.03-.31-1.53s-.51-.92-.92-1.26-.92-.5-1.53-.5Z"/>
    <path class="cls-7" d="M286.79,55.21c0,.92-.08,1.83-.24,2.73s-.46,1.7-.88,2.43c-.43.73-1.03,1.31-1.8,1.74-.77.43-1.77.65-2.98.65-.24,0-.52-.02-.85-.05-.32-.03-.58-.07-.77-.13v-1.35c.47.16,1,.23,1.58.23.84,0,1.53-.14,2.08-.41s.98-.65,1.31-1.12c.32-.47.56-1.03.7-1.66.14-.63.23-1.29.25-1.99h-.11c-.28.41-.66.76-1.15,1.05-.49.29-1.13.44-1.91.44-1.1,0-2-.34-2.67-1.02-.68-.68-1.02-1.63-1.02-2.87,0-.9.17-1.67.5-2.32s.81-1.15,1.43-1.49,1.34-.52,2.17-.52,1.55.21,2.21.62c.66.41,1.18,1.04,1.57,1.87.38.83.58,1.89.58,3.18ZM282.43,50.87c-.74,0-1.35.25-1.83.74-.47.49-.71,1.24-.71,2.25,0,.83.2,1.48.6,1.95.4.47,1.02.71,1.86.71.58,0,1.07-.12,1.49-.35s.75-.53.98-.89.35-.73.35-1.12c0-.52-.1-1.03-.31-1.53s-.51-.92-.92-1.26-.92-.5-1.53-.5Z"/>
    <path class="cls-7" d="M290.84,48.89v3.33c0,.41,0,.79-.03,1.14-.02.35-.04.63-.06.84h.09c.28-.41.65-.75,1.13-1.03.48-.28,1.1-.41,1.85-.41,1.2,0,2.16.42,2.89,1.25.73.83,1.09,2.08,1.09,3.73s-.37,2.9-1.1,3.74c-.73.84-1.69,1.26-2.88,1.26-.76,0-1.37-.14-1.85-.41-.48-.28-.86-.61-1.13-.99h-.13l-.32,1.22h-1.13v-13.68h1.58ZM293.56,54.07c-1.03,0-1.74.29-2.13.88s-.58,1.5-.58,2.74v.07c0,1.19.2,2.1.58,2.73s1.11.95,2.17.95c.86,0,1.51-.32,1.94-.95.43-.64.64-1.55.64-2.75,0-2.44-.87-3.65-2.61-3.65Z"/>
    <path class="cls-7" d="M236.65,66.86c.75,0,1.29.15,1.63.44.34.29.51.71.51,1.24,0,.31-.07.61-.21.88s-.38.5-.71.67c-.33.17-.79.26-1.36.26h-.66v2.22h-.72v-5.71h1.51ZM236.59,67.47h-.73v2.26h.58c.54,0,.95-.09,1.22-.26s.4-.47.4-.9c0-.37-.12-.64-.36-.82-.24-.18-.61-.27-1.11-.27Z"/>
    <path class="cls-7" d="M241.51,68.21c.52,0,.91.11,1.16.34.25.23.38.59.38,1.1v2.92h-.51l-.14-.61h-.03c-.19.23-.38.41-.59.52-.21.11-.49.17-.85.17-.39,0-.71-.1-.97-.31-.26-.21-.38-.53-.38-.96s.17-.76.5-.99.85-.36,1.55-.38l.73-.02v-.26c0-.36-.08-.61-.23-.74-.16-.14-.37-.21-.66-.21-.22,0-.44.03-.64.1-.2.07-.39.14-.57.23l-.22-.53c.19-.1.41-.19.66-.26.26-.07.52-.11.8-.11ZM242.35,70.47l-.63.02c-.53.02-.9.11-1.11.26-.21.15-.31.36-.31.63,0,.24.07.42.22.53.15.11.33.17.56.17.36,0,.66-.1.9-.3.24-.2.36-.51.36-.92v-.38Z"/>
    <path class="cls-7" d="M246.37,68.2c.08,0,.17,0,.26.01s.17.02.25.04l-.09.65c-.07-.02-.15-.03-.23-.04s-.16-.02-.23-.02c-.22,0-.42.06-.62.18-.19.12-.35.29-.46.5-.12.22-.17.47-.17.76v2.29h-.7v-4.29h.58l.08.78h.03c.13-.23.31-.44.53-.61.22-.17.48-.26.78-.26Z"/>
    <path class="cls-7" d="M249.1,72.07c.11,0,.22,0,.33-.02.11-.02.2-.04.27-.06v.54c-.07.04-.18.07-.32.09s-.27.04-.4.04c-.22,0-.43-.04-.62-.12s-.34-.21-.46-.4-.18-.46-.18-.81v-2.5h-.61v-.34l.62-.28.28-.91h.42v.98h1.24v.54h-1.24v2.48c0,.26.06.46.19.58.13.13.29.19.48.19Z"/>
    <path class="cls-7" d="M252.62,68.2c.51,0,.9.13,1.16.38.26.25.39.65.39,1.2v2.79h-.7v-2.74c0-.69-.32-1.03-.96-1.03-.48,0-.8.13-.98.4s-.27.65-.27,1.15v2.22h-.7v-4.29h.57l.1.58h.04c.14-.22.33-.39.58-.5.25-.11.5-.16.78-.16Z"/>
    <path class="cls-7" d="M257.16,68.2c.36,0,.68.08.94.24s.47.39.61.68c.14.29.21.63.21,1.02v.42h-2.94c.01.49.13.85.37,1.11s.57.38,1,.38c.27,0,.51-.03.72-.08.21-.05.43-.12.65-.22v.62c-.22.1-.44.17-.65.21-.21.04-.47.07-.76.07-.41,0-.77-.08-1.08-.25-.31-.17-.55-.41-.72-.74-.17-.33-.26-.73-.26-1.21s.08-.87.24-1.21.38-.59.66-.78c.29-.18.62-.27,1-.27ZM257.15,68.78c-.34,0-.6.11-.8.32-.2.22-.31.52-.35.9h2.18c0-.36-.09-.66-.26-.88-.17-.23-.43-.34-.78-.34Z"/>
    <path class="cls-7" d="M262.02,68.2c.08,0,.17,0,.26.01s.17.02.25.04l-.09.65c-.07-.02-.15-.03-.23-.04s-.16-.02-.23-.02c-.22,0-.42.06-.62.18-.19.12-.35.29-.46.5-.12.22-.17.47-.17.76v2.29h-.7v-4.29h.58l.08.78h.03c.13-.23.31-.44.53-.61.22-.17.48-.26.78-.26Z"/>
    <path class="cls-7" d="M266.11,71.38c0,.42-.16.73-.46.94-.31.21-.72.32-1.25.32-.3,0-.56-.02-.77-.07-.22-.05-.41-.11-.57-.2v-.64c.17.09.38.16.62.24.24.07.49.11.74.11.36,0,.62-.06.78-.17.16-.11.24-.27.24-.46,0-.11-.03-.2-.09-.29-.06-.08-.16-.17-.32-.26-.15-.08-.37-.18-.65-.29-.28-.11-.51-.21-.71-.32-.2-.11-.35-.23-.46-.38-.11-.15-.16-.34-.16-.58,0-.36.15-.64.44-.84s.68-.3,1.16-.3c.26,0,.5.03.73.08s.44.12.64.21l-.24.56c-.18-.07-.37-.14-.57-.19s-.4-.08-.61-.08c-.29,0-.51.05-.66.14-.15.09-.23.22-.23.38,0,.12.04.22.1.3.07.08.18.16.35.24s.38.17.65.27c.27.1.5.21.7.31.19.11.34.24.44.39.1.15.15.34.15.57Z"/>
    <path class="cls-7" d="M267.86,66.49v1.78c0,.21-.01.41-.04.6h.05c.14-.22.33-.38.56-.5.24-.11.5-.17.77-.17.52,0,.91.12,1.17.37.26.25.4.65.4,1.2v2.79h-.7v-2.74c0-.69-.32-1.03-.96-1.03-.48,0-.81.13-.99.4-.18.27-.27.65-.27,1.16v2.22h-.7v-6.08h.7Z"/>
    <path class="cls-7" d="M272.46,66.67c.11,0,.2.04.28.11.08.07.12.19.12.34s-.04.27-.12.34c-.08.07-.18.11-.28.11-.12,0-.22-.04-.3-.11-.08-.07-.12-.19-.12-.34s.04-.27.12-.34c.08-.07.18-.11.3-.11ZM272.8,68.28v4.29h-.7v-4.29h.7Z"/>
    <path class="cls-7" d="M276.2,68.2c.53,0,.95.18,1.28.55.32.37.48.92.48,1.66s-.16,1.29-.48,1.66c-.32.38-.75.57-1.28.57-.33,0-.6-.06-.82-.18-.22-.12-.39-.27-.51-.44h-.05c0,.09.01.21.03.34.01.14.02.26.02.36v1.76h-.7v-6.21h.58l.1.58h.03c.13-.19.3-.34.5-.47.21-.13.48-.19.83-.19ZM276.07,68.79c-.44,0-.75.12-.93.37-.18.25-.27.62-.28,1.12v.14c0,.53.09.93.26,1.22.17.29.49.43.96.43.26,0,.47-.07.64-.21.17-.14.3-.34.38-.59.08-.25.12-.54.12-.86,0-.49-.09-.88-.28-1.18-.19-.29-.48-.44-.88-.44Z"/>
    <path class="cls-7" d="M281.87,71.38c0,.42-.16.73-.46.94-.31.21-.72.32-1.25.32-.3,0-.56-.02-.77-.07-.22-.05-.41-.11-.57-.2v-.64c.17.09.38.16.62.24.24.07.49.11.74.11.36,0,.62-.06.78-.17.16-.11.24-.27.24-.46,0-.11-.03-.2-.09-.29-.06-.08-.16-.17-.32-.26-.15-.08-.37-.18-.65-.29-.28-.11-.51-.21-.71-.32-.2-.11-.35-.23-.46-.38-.11-.15-.16-.34-.16-.58,0-.36.15-.64.44-.84s.68-.3,1.16-.3c.26,0,.5.03.73.08s.44.12.64.21l-.24.56c-.18-.07-.37-.14-.57-.19s-.4-.08-.61-.08c-.29,0-.51.05-.66.14-.15.09-.23.22-.23.38,0,.12.04.22.1.3.07.08.18.16.35.24s.38.17.65.27c.27.1.5.21.7.31.19.11.34.24.44.39.1.15.15.34.15.57Z"/>
    <path class="cls-7" d="M283.71,71.64l.06.09c-.07.28-.18.59-.3.93-.13.34-.26.65-.38.94h-.52c.08-.3.15-.64.23-1,.08-.36.13-.68.17-.96h.75Z"/>
    <path class="cls-7" d="M287.95,72.57h-.72v-5.71h3.19v.63h-2.47v2.02h2.32v.63h-2.32v2.42Z"/>
    <path class="cls-7" d="M294.87,68.28v4.29h-.58l-.1-.57h-.03c-.14.22-.33.39-.58.49-.25.1-.51.16-.78.16-.52,0-.91-.12-1.17-.37-.26-.25-.39-.64-.39-1.19v-2.81h.71v2.76c0,.68.32,1.02.95,1.02.47,0,.8-.13.99-.4s.28-.65.28-1.15v-2.23h.7Z"/>
    <path class="cls-7" d="M298.3,68.2c.51,0,.9.13,1.16.38.26.25.39.65.39,1.2v2.79h-.7v-2.74c0-.69-.32-1.03-.96-1.03-.47,0-.8.13-.98.4-.18.27-.27.65-.27,1.15v2.22h-.7v-4.29h.57l.1.58h.04c.14-.22.33-.39.58-.5s.5-.16.78-.16Z"/>
    <path class="cls-7" d="M302.7,72.65c-.53,0-.96-.19-1.28-.56-.32-.37-.48-.92-.48-1.66s.16-1.29.48-1.67c.32-.38.75-.56,1.28-.56.33,0,.6.06.81.18.21.12.38.27.52.45h.05c-.01-.07-.02-.17-.03-.31-.01-.14-.02-.24-.02-.32v-1.71h.7v6.08h-.57l-.1-.58h-.03c-.13.18-.3.34-.51.46-.21.13-.49.19-.82.19ZM302.81,72.06c.45,0,.77-.12.96-.37.18-.25.28-.62.28-1.12v-.13c0-.53-.09-.94-.26-1.23s-.5-.43-.98-.43c-.38,0-.66.15-.85.45s-.28.71-.28,1.21.09.91.28,1.19c.19.28.48.42.86.42Z"/>
    <path class="cls-7" d="M308.89,71.38c0,.42-.16.73-.46.94-.31.21-.72.32-1.25.32-.3,0-.56-.02-.77-.07-.22-.05-.41-.11-.57-.2v-.64c.17.09.38.16.62.24.24.07.49.11.74.11.36,0,.62-.06.78-.17.16-.11.24-.27.24-.46,0-.11-.03-.2-.09-.29-.06-.08-.16-.17-.32-.26-.15-.08-.37-.18-.65-.29-.28-.11-.51-.21-.71-.32-.2-.11-.35-.23-.46-.38-.11-.15-.16-.34-.16-.58,0-.36.15-.64.44-.84s.68-.3,1.16-.3c.26,0,.5.03.73.08s.44.12.64.21l-.24.56c-.18-.07-.37-.14-.57-.19s-.4-.08-.61-.08c-.29,0-.51.05-.66.14-.15.09-.23.22-.23.38,0,.12.04.22.1.3.07.08.18.16.35.24s.38.17.65.27c.27.1.5.21.7.31.19.11.34.24.44.39.1.15.15.34.15.57Z"/>
    <path class="cls-7" d="M310.73,71.64l.06.09c-.07.28-.18.59-.3.93-.13.34-.26.65-.38.94h-.52c.08-.3.15-.64.23-1,.08-.36.13-.68.17-.96h.75Z"/>
    <path class="cls-7" d="M230.62,78.21c.52,0,.91.11,1.16.34.25.23.38.59.38,1.1v2.92h-.51l-.14-.61h-.03c-.19.23-.38.41-.59.52-.21.11-.49.17-.85.17-.39,0-.71-.1-.97-.31-.26-.21-.38-.53-.38-.96s.17-.76.5-.99.85-.36,1.55-.38l.73-.02v-.26c0-.36-.08-.61-.23-.74-.16-.14-.37-.21-.66-.21-.22,0-.44.03-.64.1-.2.07-.39.14-.57.23l-.22-.53c.19-.1.41-.19.66-.26.26-.07.52-.11.8-.11ZM231.46,80.47l-.63.02c-.53.02-.9.11-1.11.26-.21.15-.31.36-.31.63,0,.24.07.42.22.53.15.11.33.17.56.17.36,0,.66-.1.9-.3.24-.2.36-.51.36-.92v-.38Z"/>
    <path class="cls-7" d="M235.55,78.2c.51,0,.9.13,1.16.38.26.25.39.65.39,1.2v2.79h-.7v-2.74c0-.69-.32-1.03-.96-1.03-.48,0-.8.13-.98.4s-.27.65-.27,1.15v2.22h-.7v-4.29h.57l.1.58h.04c.14-.22.33-.39.58-.5.25-.11.5-.16.78-.16Z"/>
    <path class="cls-7" d="M239.95,82.65c-.53,0-.96-.19-1.28-.56s-.48-.92-.48-1.66.16-1.29.48-1.67c.32-.38.75-.56,1.28-.56.33,0,.6.06.81.18.21.12.38.27.52.45h.05c-.01-.07-.02-.17-.03-.31-.01-.14-.02-.24-.02-.32v-1.71h.7v6.08h-.57l-.1-.58h-.03c-.13.18-.3.34-.51.46-.21.13-.49.19-.82.19ZM240.06,82.06c.45,0,.77-.12.96-.37.18-.25.28-.62.28-1.12v-.13c0-.53-.09-.94-.26-1.23-.18-.29-.5-.43-.98-.43-.38,0-.66.15-.85.45-.19.3-.28.71-.28,1.21s.09.91.28,1.19c.19.28.48.42.86.42Z"/>
    <path class="cls-7" d="M249.11,82.57l-.69-1.77h-2.26l-.68,1.77h-.73l2.23-5.74h.65l2.22,5.74h-.74ZM248.21,80.16l-.64-1.73s-.04-.12-.08-.23c-.04-.11-.07-.23-.11-.35-.04-.12-.06-.21-.08-.28-.04.17-.09.33-.13.48-.05.16-.08.28-.12.37l-.65,1.73h1.81Z"/>
    <path class="cls-7" d="M253.33,81.38c0,.42-.16.73-.46.94-.31.21-.72.32-1.25.32-.3,0-.56-.02-.77-.07-.22-.05-.41-.11-.57-.2v-.64c.17.09.38.16.62.24.24.07.49.11.74.11.36,0,.62-.06.78-.17.16-.11.24-.27.24-.46,0-.11-.03-.2-.09-.29-.06-.08-.16-.17-.32-.26-.15-.08-.37-.18-.65-.29-.28-.11-.51-.21-.71-.32-.2-.11-.35-.23-.46-.38-.11-.15-.16-.34-.16-.58,0-.36.15-.64.44-.84s.68-.3,1.16-.3c.26,0,.5.03.73.08s.44.12.64.21l-.24.56c-.18-.07-.37-.14-.57-.19s-.4-.08-.61-.08c-.29,0-.51.05-.66.14-.15.09-.23.22-.23.38,0,.12.04.22.1.3.07.08.18.16.35.24s.38.17.65.27c.27.1.5.21.7.31.19.11.34.24.44.39.1.15.15.34.15.57Z"/>
    <path class="cls-7" d="M257.17,81.38c0,.42-.16.73-.46.94-.31.21-.72.32-1.25.32-.3,0-.56-.02-.77-.07-.22-.05-.41-.11-.57-.2v-.64c.17.09.38.16.62.24.24.07.49.11.74.11.36,0,.62-.06.78-.17.16-.11.24-.27.24-.46,0-.11-.03-.2-.09-.29-.06-.08-.16-.17-.32-.26-.15-.08-.37-.18-.65-.29-.28-.11-.51-.21-.71-.32-.2-.11-.35-.23-.46-.38-.11-.15-.16-.34-.16-.58,0-.36.15-.64.44-.84s.68-.3,1.16-.3c.26,0,.5.03.73.08s.44.12.64.21l-.24.56c-.18-.07-.37-.14-.57-.19s-.4-.08-.61-.08c-.29,0-.51.05-.66.14-.15.09-.23.22-.23.38,0,.12.04.22.1.3.07.08.18.16.35.24s.38.17.65.27c.27.1.5.21.7.31.19.11.34.24.44.39.1.15.15.34.15.57Z"/>
    <path class="cls-7" d="M259.86,78.2c.36,0,.68.08.94.24s.47.39.61.68c.14.29.21.63.21,1.02v.42h-2.94c.01.49.13.85.37,1.11s.57.38,1,.38c.27,0,.51-.03.72-.08.21-.05.43-.12.65-.22v.62c-.22.1-.43.17-.65.21-.21.04-.47.07-.76.07-.41,0-.77-.08-1.08-.25-.31-.17-.55-.41-.72-.74-.17-.33-.26-.73-.26-1.21s.08-.87.24-1.21.38-.59.66-.78c.29-.18.62-.27,1-.27ZM259.85,78.78c-.34,0-.6.11-.8.32-.19.22-.31.52-.35.9h2.18c0-.36-.09-.66-.26-.88-.17-.23-.43-.34-.78-.34Z"/>
    <path class="cls-7" d="M264.15,82.07c.11,0,.22,0,.33-.02.11-.02.2-.04.27-.06v.54c-.07.04-.18.07-.32.09s-.27.04-.4.04c-.22,0-.43-.04-.62-.12s-.34-.21-.46-.4-.18-.46-.18-.81v-2.5h-.61v-.34l.62-.28.28-.91h.42v.98h1.24v.54h-1.24v2.48c0,.26.06.46.19.58.13.13.29.19.48.19Z"/>
    <path class="cls-7" d="M270.3,82.57l-1.88-5.01h-.03c.02.17.03.39.04.67.01.28.02.57.02.88v3.46h-.66v-5.71h1.06l1.76,4.68h.03l1.79-4.68h1.06v5.71h-.71v-3.51c0-.28,0-.55.02-.82s.03-.49.04-.66h-.03l-1.9,5h-.59Z"/>
    <path class="cls-7" d="M276.56,78.21c.52,0,.91.11,1.16.34.25.23.38.59.38,1.1v2.92h-.51l-.14-.61h-.03c-.19.23-.38.41-.59.52-.21.11-.49.17-.85.17-.39,0-.71-.1-.97-.31-.26-.21-.38-.53-.38-.96s.17-.76.5-.99.85-.36,1.55-.38l.73-.02v-.26c0-.36-.08-.61-.23-.74-.15-.14-.37-.21-.66-.21-.22,0-.44.03-.64.1-.2.07-.39.14-.57.23l-.22-.53c.19-.1.41-.19.66-.26.26-.07.52-.11.8-.11ZM277.4,80.47l-.63.02c-.53.02-.9.11-1.11.26s-.31.36-.31.63c0,.24.07.42.22.53.15.11.33.17.56.17.36,0,.66-.1.9-.3.24-.2.36-.51.36-.92v-.38Z"/>
    <path class="cls-7" d="M281.49,78.2c.51,0,.9.13,1.16.38.26.25.39.65.39,1.2v2.79h-.7v-2.74c0-.69-.32-1.03-.96-1.03-.47,0-.8.13-.98.4-.18.27-.27.65-.27,1.15v2.22h-.7v-4.29h.57l.1.58h.04c.14-.22.33-.39.58-.5s.5-.16.78-.16Z"/>
    <path class="cls-7" d="M286,78.21c.52,0,.91.11,1.16.34.25.23.38.59.38,1.1v2.92h-.51l-.14-.61h-.03c-.19.23-.38.41-.59.52-.21.11-.49.17-.85.17-.39,0-.71-.1-.97-.31-.26-.21-.38-.53-.38-.96s.17-.76.5-.99.85-.36,1.55-.38l.73-.02v-.26c0-.36-.08-.61-.23-.74-.15-.14-.37-.21-.66-.21-.22,0-.44.03-.64.1-.2.07-.39.14-.57.23l-.22-.53c.19-.1.41-.19.66-.26.26-.07.52-.11.8-.11ZM286.84,80.47l-.63.02c-.53.02-.9.11-1.11.26s-.31.36-.31.63c0,.24.07.42.22.53.15.11.33.17.56.17.36,0,.66-.1.9-.3.24-.2.36-.51.36-.92v-.38Z"/>
    <path class="cls-7" d="M290.38,78.2c.28,0,.54.05.76.16.23.11.42.27.58.49h.04l.1-.57h.56v4.36c0,.61-.16,1.07-.47,1.38-.31.31-.8.46-1.45.46s-1.14-.09-1.54-.27v-.65c.42.22.95.34,1.58.34.37,0,.66-.11.87-.32.21-.22.32-.51.32-.88v-.17c0-.06,0-.16,0-.28,0-.12.01-.2.02-.25h-.03c-.29.43-.73.65-1.33.65-.55,0-.99-.19-1.3-.58-.31-.39-.47-.93-.47-1.63s.16-1.23.47-1.63c.31-.4.74-.6,1.29-.6ZM290.48,78.79c-.36,0-.63.14-.83.43-.2.29-.3.69-.3,1.22s.1.93.29,1.21c.19.28.48.42.86.42.43,0,.75-.12.94-.35.2-.23.3-.61.3-1.12v-.17c0-.58-.1-1-.3-1.26-.2-.26-.52-.38-.95-.38Z"/>
    <path class="cls-7" d="M295.44,78.2c.36,0,.68.08.94.24s.47.39.61.68c.14.29.21.63.21,1.02v.42h-2.94c.01.49.13.85.37,1.11s.57.38,1,.38c.27,0,.51-.03.72-.08.21-.05.43-.12.65-.22v.62c-.22.1-.44.17-.65.21-.21.04-.47.07-.76.07-.41,0-.77-.08-1.08-.25-.31-.17-.55-.41-.72-.74-.17-.33-.26-.73-.26-1.21s.08-.87.24-1.21.38-.59.66-.78c.29-.18.62-.27,1-.27ZM295.43,78.78c-.34,0-.6.11-.8.32-.2.22-.31.52-.35.9h2.18c0-.36-.09-.66-.26-.88-.17-.23-.43-.34-.78-.34Z"/>
    <path class="cls-7" d="M303,78.2c.49,0,.85.13,1.09.38.24.25.36.65.36,1.2v2.79h-.7v-2.76c0-.68-.29-1.02-.87-1.02-.42,0-.71.12-.89.36-.18.24-.27.59-.27,1.05v2.37h-.7v-2.76c0-.68-.29-1.02-.88-1.02-.43,0-.73.13-.9.4-.17.27-.25.65-.25,1.15v2.22h-.7v-4.29h.57l.1.58h.04c.13-.22.31-.39.54-.5.23-.11.47-.16.72-.16.67,0,1.11.24,1.31.72h.04c.14-.25.34-.43.58-.54.25-.12.51-.18.79-.18Z"/>
    <path class="cls-7" d="M307.43,78.2c.36,0,.68.08.94.24s.47.39.61.68c.14.29.21.63.21,1.02v.42h-2.94c.01.49.13.85.37,1.11s.57.38,1,.38c.27,0,.51-.03.72-.08.21-.05.43-.12.65-.22v.62c-.22.1-.44.17-.65.21-.21.04-.47.07-.76.07-.41,0-.77-.08-1.08-.25-.31-.17-.55-.41-.72-.74-.17-.33-.26-.73-.26-1.21s.08-.87.24-1.21.38-.59.66-.78c.29-.18.62-.27,1-.27ZM307.42,78.78c-.34,0-.6.11-.8.32-.2.22-.31.52-.35.9h2.18c0-.36-.09-.66-.26-.88-.17-.23-.43-.34-.78-.34Z"/>
    <path class="cls-7" d="M312.35,78.2c.51,0,.9.13,1.16.38.26.25.39.65.39,1.2v2.79h-.7v-2.74c0-.69-.32-1.03-.96-1.03-.48,0-.8.13-.98.4s-.27.65-.27,1.15v2.22h-.7v-4.29h.57l.1.58h.04c.14-.22.33-.39.58-.5.25-.11.5-.16.78-.16Z"/>
    <path class="cls-7" d="M316.66,82.07c.11,0,.22,0,.33-.02.11-.02.2-.04.27-.06v.54c-.08.04-.18.07-.32.09s-.27.04-.4.04c-.22,0-.43-.04-.62-.12-.19-.08-.34-.21-.46-.4-.12-.19-.18-.46-.18-.81v-2.5h-.61v-.34l.62-.28.28-.91h.42v.98h1.24v.54h-1.24v2.48c0,.26.06.46.19.58.12.13.29.19.48.19Z"/>
    <path class="cls-7" d="M255.03,87.41c-.61,0-1.1.21-1.45.62-.35.41-.53.97-.53,1.69s.16,1.27.49,1.68c.33.41.82.62,1.48.62.25,0,.48-.02.7-.06.22-.04.45-.1.66-.16v.62c-.21.08-.43.14-.66.18s-.5.06-.81.06c-.58,0-1.07-.12-1.46-.36-.39-.24-.68-.58-.88-1.02-.19-.44-.29-.96-.29-1.56s.11-1.08.32-1.52c.21-.44.52-.78.93-1.03.41-.25.91-.37,1.5-.37s1.13.11,1.58.34l-.29.61c-.18-.08-.37-.15-.59-.22-.22-.06-.45-.1-.71-.1Z"/>
    <path class="cls-7" d="M261.27,90.42c0,.71-.18,1.26-.54,1.65s-.85.58-1.46.58c-.38,0-.72-.09-1.01-.26-.3-.17-.53-.43-.7-.76s-.26-.74-.26-1.21c0-.71.18-1.26.53-1.64.35-.38.84-.58,1.46-.58.38,0,.72.09,1.02.26s.53.42.7.75.25.73.25,1.2ZM258.03,90.42c0,.51.1.91.3,1.2.2.3.52.44.96.44s.75-.15.95-.44c.2-.3.3-.7.3-1.2s-.1-.9-.3-1.19c-.2-.29-.52-.43-.96-.43s-.75.14-.95.43c-.2.29-.3.69-.3,1.19Z"/>
    <path class="cls-7" d="M267.09,88.2c.49,0,.85.13,1.09.38.24.25.36.65.36,1.2v2.79h-.7v-2.76c0-.68-.29-1.02-.87-1.02-.42,0-.71.12-.89.36-.18.24-.27.59-.27,1.05v2.37h-.7v-2.76c0-.68-.29-1.02-.88-1.02-.43,0-.73.13-.9.4-.17.27-.25.65-.25,1.15v2.22h-.7v-4.29h.57l.1.58h.04c.13-.22.31-.39.54-.5.23-.11.47-.16.72-.16.67,0,1.11.24,1.31.72h.04c.14-.25.34-.43.58-.54.25-.12.51-.18.79-.18Z"/>
    <path class="cls-7" d="M271.9,88.2c.53,0,.95.18,1.28.55.32.37.48.92.48,1.66s-.16,1.29-.48,1.66c-.32.38-.75.57-1.28.57-.33,0-.6-.06-.82-.18s-.38-.27-.51-.44h-.05c0,.09.01.21.03.34.01.14.02.26.02.36v1.76h-.7v-6.21h.58l.1.58h.03c.13-.19.3-.34.5-.47.21-.13.49-.19.83-.19ZM271.78,88.79c-.44,0-.75.12-.93.37-.18.25-.28.62-.28,1.12v.14c0,.53.09.93.26,1.22.17.29.5.43.96.43.26,0,.47-.07.64-.21.17-.14.3-.34.38-.59.08-.25.12-.54.12-.86,0-.49-.09-.88-.28-1.18s-.48-.44-.88-.44Z"/>
    <path class="cls-7" d="M276.41,88.21c.52,0,.91.11,1.16.34.25.23.38.59.38,1.1v2.92h-.51l-.14-.61h-.03c-.19.23-.38.41-.59.52-.21.11-.49.17-.85.17-.39,0-.71-.1-.97-.31-.26-.21-.38-.53-.38-.96s.17-.76.5-.99.85-.36,1.55-.38l.73-.02v-.26c0-.36-.08-.61-.23-.74-.16-.14-.37-.21-.66-.21-.22,0-.44.03-.64.1-.2.07-.39.14-.57.23l-.22-.53c.19-.1.41-.19.66-.26.26-.07.52-.11.8-.11ZM277.25,90.47l-.63.02c-.53.02-.9.11-1.11.26-.21.15-.31.36-.31.63,0,.24.07.42.22.53.15.11.33.17.56.17.36,0,.66-.1.9-.3.24-.2.36-.51.36-.92v-.38Z"/>
    <path class="cls-7" d="M281.34,88.2c.51,0,.9.13,1.16.38.26.25.39.65.39,1.2v2.79h-.7v-2.74c0-.69-.32-1.03-.96-1.03-.48,0-.8.13-.98.4s-.27.65-.27,1.15v2.22h-.7v-4.29h.57l.1.58h.04c.14-.22.33-.39.58-.5.25-.11.5-.16.78-.16Z"/>
    <path class="cls-7" d="M284.58,86.67c.11,0,.2.04.28.11.08.07.12.19.12.34s-.04.27-.12.34c-.08.07-.18.11-.28.11-.12,0-.22-.04-.3-.11-.08-.07-.12-.19-.12-.34s.04-.27.12-.34c.08-.07.18-.11.3-.11ZM284.92,88.28v4.29h-.7v-4.29h.7Z"/>
    <path class="cls-7" d="M287.94,88.2c.36,0,.68.08.94.24s.47.39.61.68c.14.29.21.63.21,1.02v.42h-2.94c.01.49.13.85.37,1.11s.57.38,1,.38c.27,0,.51-.03.72-.08.21-.05.43-.12.65-.22v.62c-.22.1-.43.17-.65.21-.21.04-.47.07-.76.07-.41,0-.77-.08-1.08-.25-.31-.17-.55-.41-.72-.74-.17-.33-.26-.73-.26-1.21s.08-.87.24-1.21.38-.59.66-.78c.29-.18.62-.27,1-.27ZM287.93,88.78c-.34,0-.6.11-.8.32-.19.22-.31.52-.35.9h2.18c0-.36-.09-.66-.26-.88-.17-.23-.43-.34-.78-.34Z"/>
    <path class="cls-7" d="M293.58,91.38c0,.42-.16.73-.46.94-.31.21-.72.32-1.25.32-.3,0-.56-.02-.77-.07-.22-.05-.41-.11-.57-.2v-.64c.17.09.38.16.62.24.24.07.49.11.74.11.36,0,.62-.06.78-.17.16-.11.24-.27.24-.46,0-.11-.03-.2-.09-.29-.06-.08-.16-.17-.32-.26-.15-.08-.37-.18-.65-.29-.28-.11-.51-.21-.71-.32-.2-.11-.35-.23-.46-.38-.11-.15-.16-.34-.16-.58,0-.36.15-.64.44-.84s.68-.3,1.16-.3c.26,0,.5.03.73.08s.44.12.64.21l-.24.56c-.18-.07-.37-.14-.57-.19s-.4-.08-.61-.08c-.29,0-.51.05-.66.14-.15.09-.23.22-.23.38,0,.12.04.22.1.3.07.08.18.16.35.24s.38.17.65.27c.27.1.5.21.7.31.19.11.34.24.44.39.1.15.15.34.15.57Z"/>
  </g>
  <rect class="cls-1" x="135.42" y="145.21" width="264.75" height="12.64"/>
  <rect class="cls-1" x="223.22" y="60.7" width="5.46" height="21.29"/>
  <rect class="cls-1" x="317.25" y="60.7" width="5.46" height="21.29"/>
  <rect class="cls-1" x="261.12" y="20.99" width="20.8" height="27.92"/>
  <rect class="cls-1" x="261.12" y="92.57" width="20.8" height="27.92"/>
  <g>
    <g>
      <path d="M260.2,155.31l-.76-1.97h-2.37l-.78,1.97h-.47l2.24-5.73h.43l2.19,5.73h-.49ZM259.3,152.93l-.77-2.06c-.02-.07-.06-.19-.11-.35-.05-.16-.1-.3-.14-.42-.04.14-.09.28-.14.42-.05.14-.09.26-.12.36l-.79,2.06h2.07Z"/>
      <path d="M264.15,154.19c0,.39-.14.69-.43.9s-.69.31-1.22.31c-.3,0-.56-.03-.79-.08s-.42-.12-.57-.19v-.44c.19.1.4.17.64.24.24.06.49.09.74.09.42,0,.72-.07.9-.21.19-.14.28-.33.28-.58s-.1-.42-.29-.54c-.2-.13-.49-.25-.88-.39-.26-.09-.49-.18-.69-.27s-.36-.21-.47-.36c-.11-.15-.17-.34-.17-.6,0-.34.14-.61.42-.8.28-.19.65-.29,1.11-.29.26,0,.5.03.72.08.22.05.42.11.6.19l-.16.38c-.17-.07-.35-.14-.56-.18s-.42-.07-.62-.07c-.34,0-.6.06-.78.18-.19.12-.28.29-.28.51,0,.17.05.3.14.4.09.1.22.18.39.26.17.07.38.15.62.24.25.09.48.18.68.27.21.1.37.22.49.37.12.15.18.35.18.6Z"/>
      <path d="M267.99,154.19c0,.39-.14.69-.43.9s-.69.31-1.22.31c-.3,0-.56-.03-.79-.08s-.42-.12-.57-.19v-.44c.19.1.4.17.64.24.24.06.49.09.74.09.42,0,.72-.07.9-.21.19-.14.28-.33.28-.58s-.1-.42-.29-.54c-.2-.13-.49-.25-.88-.39-.26-.09-.49-.18-.69-.27s-.36-.21-.47-.36c-.11-.15-.17-.34-.17-.6,0-.34.14-.61.42-.8.28-.19.65-.29,1.11-.29.26,0,.5.03.72.08.22.05.42.11.6.19l-.16.38c-.17-.07-.35-.14-.56-.18s-.42-.07-.62-.07c-.34,0-.6.06-.78.18-.19.12-.28.29-.28.51,0,.17.05.3.14.4.09.1.22.18.39.26.17.07.38.15.62.24.25.09.48.18.68.27.21.1.37.22.49.37.12.15.18.35.18.6Z"/>
      <path d="M270.76,150.98c.36,0,.67.08.91.25s.43.4.55.69c.12.29.18.63.18,1.01v.32h-3.04c0,.56.13.99.39,1.29.26.3.64.45,1.13.45.27,0,.5-.02.7-.06s.41-.12.65-.22v.42c-.21.1-.42.17-.63.21-.21.04-.45.06-.73.06-.63,0-1.12-.19-1.46-.58-.34-.39-.51-.92-.51-1.59,0-.43.07-.82.22-1.16.15-.34.36-.6.64-.8.28-.19.61-.29,1.01-.29ZM270.75,151.36c-.39,0-.71.13-.95.39-.24.26-.39.63-.43,1.11h2.55c0-.45-.09-.81-.28-1.09s-.49-.42-.89-.42Z"/>
      <path d="M274.85,155.01c.12,0,.23,0,.34-.03s.2-.04.28-.07v.37c-.09.03-.19.06-.3.08-.12.02-.24.03-.38.03-.35,0-.62-.1-.82-.3-.19-.2-.29-.52-.29-.96v-2.7h-.63v-.26l.63-.14.16-.98h.29v1.02h1.31v.37h-1.31v2.69c0,.6.24.9.72.9Z"/>
      <path d="M281.2,155.31l-2.05-5.22h-.03c0,.14.02.31.02.5,0,.19,0,.39,0,.6v4.11h-.43v-5.71h.7l1.97,5.01h.02l1.99-5.01h.69v5.71h-.46v-4.16c0-.18,0-.37,0-.55s.01-.35.02-.5h-.02l-2.06,5.22h-.38Z"/>
      <path d="M287.19,150.99c.48,0,.84.12,1.07.35.23.23.35.6.35,1.11v2.86h-.34l-.09-.72h-.02c-.15.24-.34.43-.56.58-.22.15-.53.22-.93.22s-.73-.1-.96-.3c-.24-.2-.36-.5-.36-.89,0-.42.17-.74.52-.97.34-.22.85-.35,1.52-.38l.78-.04v-.3c0-.42-.08-.72-.25-.89-.17-.17-.42-.26-.74-.26-.22,0-.43.03-.63.08-.2.06-.41.14-.61.24l-.14-.37c.2-.1.42-.18.66-.25.24-.06.49-.1.74-.1ZM288.17,153.17l-.72.03c-.54.02-.95.11-1.22.28s-.4.41-.4.73c0,.26.08.46.25.6.17.14.39.2.68.2.44,0,.79-.13,1.03-.38.24-.25.37-.6.38-1.06v-.41Z"/>
      <path d="M291.97,150.98c.49,0,.86.12,1.11.38.26.25.38.64.38,1.18v2.78h-.46v-2.75c0-.41-.09-.7-.28-.9-.18-.19-.45-.29-.81-.29-.94,0-1.41.54-1.41,1.62v2.32h-.45v-4.26h.37l.06.74h.03c.11-.24.29-.43.53-.58.24-.16.54-.23.91-.23Z"/>
      <path d="M296.43,150.99c.48,0,.84.12,1.07.35.24.23.35.6.35,1.11v2.86h-.34l-.09-.72h-.02c-.15.24-.34.43-.56.58-.22.15-.53.22-.93.22s-.73-.1-.96-.3c-.24-.2-.36-.5-.36-.89,0-.42.17-.74.52-.97s.85-.35,1.52-.38l.78-.04v-.3c0-.42-.08-.72-.25-.89-.17-.17-.42-.26-.74-.26-.22,0-.43.03-.63.08-.2.06-.41.14-.61.24l-.14-.37c.2-.1.42-.18.66-.25.24-.06.49-.1.74-.1ZM297.4,153.17l-.72.03c-.54.02-.95.11-1.22.28s-.4.41-.4.73c0,.26.08.46.25.6s.39.2.68.2c.44,0,.79-.13,1.03-.38.24-.25.37-.6.38-1.06v-.41Z"/>
      <path d="M300.85,150.98c.34,0,.62.06.84.19.22.13.4.31.53.54h.02l.07-.65h.37v4.39c0,.56-.14,1-.43,1.31-.29.31-.75.47-1.4.47-.32,0-.6-.03-.85-.08-.25-.05-.47-.12-.67-.21v-.44c.2.1.43.18.69.24.26.06.54.09.84.09.46,0,.81-.12,1.03-.37.22-.25.33-.58.33-1v-.25c0-.11,0-.22,0-.34,0-.11,0-.22.02-.33h-.02c-.12.28-.3.49-.54.62s-.54.21-.88.21c-.55,0-.99-.19-1.29-.56-.31-.37-.46-.91-.46-1.62s.15-1.23.46-1.64c.31-.4.75-.6,1.34-.6ZM300.9,151.38c-.46,0-.8.16-1.03.48-.23.32-.34.78-.34,1.36s.11,1.02.34,1.33c.23.3.56.46.99.46.35,0,.63-.07.83-.22.2-.14.34-.34.43-.59.08-.25.13-.54.13-.86v-.27c0-.54-.1-.96-.3-1.26-.2-.29-.54-.44-1.04-.44Z"/>
      <path d="M305.79,150.98c.36,0,.67.08.91.25s.43.4.55.69c.12.29.18.63.18,1.01v.32h-3.04c0,.56.13.99.39,1.29.26.3.64.45,1.13.45.27,0,.5-.02.7-.06s.41-.12.65-.22v.42c-.21.1-.42.17-.63.21-.21.04-.45.06-.73.06-.63,0-1.12-.19-1.46-.58-.34-.39-.51-.92-.51-1.59,0-.43.07-.82.22-1.16s.36-.6.64-.8c.28-.19.61-.29,1.01-.29ZM305.79,151.36c-.39,0-.71.13-.95.39-.24.26-.38.63-.43,1.11h2.55c0-.45-.09-.81-.28-1.09-.19-.28-.49-.42-.89-.42Z"/>
      <path d="M313.13,150.98c.42,0,.75.12.99.36.24.24.36.62.36,1.14v2.84h-.45v-2.82c0-.38-.09-.67-.26-.85-.17-.18-.41-.27-.7-.27-.41,0-.72.12-.94.36s-.33.6-.33,1.1v2.48h-.45v-2.82c0-.38-.09-.67-.26-.85-.17-.18-.41-.27-.7-.27-.41,0-.72.12-.94.37-.22.25-.33.63-.33,1.15v2.42h-.45v-4.26h.37l.06.67h.03c.11-.21.27-.39.48-.53.22-.15.49-.22.83-.22.31,0,.57.07.78.2.21.13.36.33.45.6h.03c.12-.26.3-.45.54-.59.25-.14.53-.21.86-.21Z"/>
      <path d="M317.54,150.98c.36,0,.67.08.91.25s.43.4.55.69c.12.29.18.63.18,1.01v.32h-3.04c0,.56.13.99.39,1.29.26.3.64.45,1.13.45.27,0,.5-.02.7-.06s.41-.12.65-.22v.42c-.21.1-.42.17-.63.21-.21.04-.45.06-.73.06-.63,0-1.12-.19-1.46-.58-.34-.39-.51-.92-.51-1.59,0-.43.07-.82.22-1.16.15-.34.36-.6.64-.8.28-.19.61-.29,1.01-.29ZM317.53,151.36c-.39,0-.71.13-.95.39-.24.26-.39.63-.43,1.11h2.55c0-.45-.09-.81-.28-1.09s-.49-.42-.89-.42Z"/>
      <path d="M322.33,150.98c.49,0,.86.12,1.11.38.26.25.38.64.38,1.18v2.78h-.46v-2.75c0-.41-.09-.7-.28-.9-.18-.19-.45-.29-.81-.29-.94,0-1.41.54-1.41,1.62v2.32h-.45v-4.26h.37l.06.74h.03c.11-.24.29-.43.53-.58.24-.16.54-.23.91-.23Z"/>
      <path d="M326.48,155.01c.12,0,.23,0,.34-.03.11-.02.2-.04.28-.07v.37c-.08.03-.19.06-.3.08s-.24.03-.38.03c-.35,0-.62-.1-.82-.3-.19-.2-.29-.52-.29-.96v-2.7h-.63v-.26l.63-.14.16-.98h.29v1.02h1.31v.37h-1.31v2.69c0,.6.24.9.72.9Z"/>
      <path d="M332.79,149.94c-.47,0-.87.11-1.21.32-.34.21-.59.5-.77.88s-.27.81-.27,1.32.08.96.24,1.34c.16.38.4.67.72.88s.72.31,1.2.31c.28,0,.53-.02.76-.06.23-.04.45-.1.66-.16v.4c-.2.08-.42.13-.65.18-.24.04-.51.06-.82.06-.58,0-1.06-.12-1.44-.37s-.68-.59-.87-1.03c-.19-.44-.29-.96-.29-1.55s.11-1.07.32-1.51c.22-.44.53-.79.94-1.04.41-.25.9-.38,1.48-.38s1.06.11,1.5.32l-.18.4c-.42-.2-.86-.3-1.32-.3Z"/>
      <path d="M338.89,153.19c0,.44-.07.83-.22,1.16-.15.33-.36.59-.65.77-.29.18-.63.28-1.04.28s-.73-.09-1.02-.27c-.28-.18-.5-.44-.65-.77-.15-.33-.23-.72-.23-1.17,0-.69.17-1.23.52-1.62s.81-.58,1.41-.58c.41,0,.75.09,1.03.28.28.18.49.44.64.77.14.33.22.72.22,1.16ZM335.55,153.19c0,.54.11.98.34,1.32.23.33.59.5,1.08.5s.86-.17,1.09-.5c.23-.33.35-.77.35-1.32,0-.35-.05-.66-.14-.94-.1-.27-.25-.48-.46-.64-.21-.15-.48-.23-.82-.23-.49,0-.85.16-1.09.48-.24.32-.36.76-.36,1.33Z"/>
      <path d="M344.59,150.98c.42,0,.75.12.99.36.24.24.36.62.36,1.14v2.84h-.45v-2.82c0-.38-.08-.67-.26-.85s-.41-.27-.7-.27c-.41,0-.72.12-.94.36s-.33.6-.33,1.1v2.48h-.45v-2.82c0-.38-.08-.67-.26-.85s-.41-.27-.7-.27c-.41,0-.72.12-.94.37-.22.25-.33.63-.33,1.15v2.42h-.45v-4.26h.37l.06.67h.03c.11-.21.27-.39.48-.53s.49-.22.83-.22c.31,0,.57.07.78.2.21.13.36.33.45.6h.03c.12-.26.3-.45.54-.59s.53-.21.86-.21Z"/>
      <path d="M349.28,150.98c.54,0,.97.18,1.28.55s.46.91.46,1.64-.16,1.28-.48,1.66c-.32.38-.75.57-1.3.57-.38,0-.68-.08-.91-.24-.23-.16-.39-.35-.5-.58h-.03c0,.14.01.29.02.44s.01.3.01.44v1.74h-.46v-6.14h.38l.06.8h.02c.11-.23.28-.44.51-.62.23-.18.54-.26.94-.26ZM349.22,151.38c-.47,0-.82.15-1.04.44-.22.3-.34.72-.34,1.28v.08c0,.61.11,1.06.33,1.36.22.3.56.45,1.02.45s.77-.16,1.01-.49.35-.78.35-1.36-.11-1.01-.33-1.32c-.22-.31-.55-.46-1-.46Z"/>
      <path d="M353.76,150.99c.48,0,.84.12,1.07.35.24.23.35.6.35,1.11v2.86h-.34l-.09-.72h-.02c-.15.24-.34.43-.56.58-.22.15-.53.22-.93.22s-.73-.1-.96-.3c-.24-.2-.36-.5-.36-.89,0-.42.17-.74.52-.97s.85-.35,1.52-.38l.78-.04v-.3c0-.42-.08-.72-.25-.89-.17-.17-.42-.26-.74-.26-.22,0-.43.03-.63.08-.2.06-.41.14-.61.24l-.14-.37c.2-.1.42-.18.66-.25.24-.06.49-.1.74-.1ZM354.74,153.17l-.72.03c-.54.02-.95.11-1.22.28s-.4.41-.4.73c0,.26.08.46.25.6s.39.2.68.2c.44,0,.79-.13,1.03-.38.24-.25.37-.6.38-1.06v-.41Z"/>
      <path d="M358.54,150.98c.49,0,.86.12,1.11.38s.38.64.38,1.18v2.78h-.46v-2.75c0-.41-.09-.7-.28-.9-.18-.19-.46-.29-.81-.29-.94,0-1.41.54-1.41,1.62v2.32h-.45v-4.26h.37l.06.74h.03c.11-.24.29-.43.53-.58.24-.16.54-.23.91-.23Z"/>
      <path d="M361.71,149.48c.21,0,.32.12.32.34s-.11.35-.32.35-.3-.12-.3-.35.1-.34.3-.34ZM361.94,151.06v4.26h-.45v-4.26h.45Z"/>
      <path d="M365.05,150.98c.36,0,.67.08.91.25s.43.4.55.69c.12.29.18.63.18,1.01v.32h-3.04c0,.56.13.99.39,1.29.26.3.64.45,1.13.45.27,0,.5-.02.7-.06s.41-.12.65-.22v.42c-.21.1-.42.17-.63.21-.21.04-.45.06-.73.06-.63,0-1.12-.19-1.46-.58-.34-.39-.51-.92-.51-1.59,0-.43.07-.82.22-1.16.15-.34.36-.6.64-.8.28-.19.61-.29,1.01-.29ZM365.04,151.36c-.39,0-.71.13-.95.39-.24.26-.39.63-.43,1.11h2.55c0-.45-.09-.81-.28-1.09s-.49-.42-.89-.42Z"/>
      <path d="M370.61,154.19c0,.39-.14.69-.43.9s-.69.31-1.22.31c-.3,0-.56-.03-.79-.08-.23-.05-.42-.12-.57-.19v-.44c.19.1.4.17.64.24.24.06.49.09.74.09.42,0,.72-.07.9-.21.19-.14.28-.33.28-.58s-.1-.42-.29-.54c-.19-.13-.49-.25-.88-.39-.26-.09-.49-.18-.69-.27-.2-.09-.36-.21-.47-.36-.11-.15-.17-.34-.17-.6,0-.34.14-.61.42-.8.28-.19.65-.29,1.11-.29.26,0,.5.03.72.08.22.05.42.11.6.19l-.16.38c-.17-.07-.35-.14-.56-.18s-.42-.07-.62-.07c-.34,0-.6.06-.78.18-.19.12-.28.29-.28.51,0,.17.04.3.14.4s.22.18.39.26c.17.07.38.15.62.24.25.09.48.18.68.27.21.1.37.22.49.37.12.15.18.35.18.6Z"/>
    </g>
    <path class="cls-3" d="M252.56,152.45c0,.43-.08.83-.24,1.22-.16.38-.39.73-.7,1.04-.3.3-.64.53-1.03.69-.39.16-.79.24-1.22.24s-.84-.08-1.23-.24c-.39-.16-.73-.39-1.03-.69-.3-.31-.54-.65-.7-1.04-.16-.38-.24-.79-.24-1.22s.08-.83.24-1.22c.16-.39.39-.73.7-1.04.3-.3.64-.53,1.03-.69.39-.16.79-.24,1.22-.24s.84.08,1.22.24c.38.16.73.39,1.04.7.31.31.54.65.7,1.04s.24.79.24,1.22Z"/>
  </g>
  <g>
    <path class="cls-8" d="M321.13,106.15c0-.28.02-.57.06-.85.04-.28.12-.55.22-.8.11-.25.25-.47.44-.67.19-.19.43-.35.72-.46.29-.11.65-.16,1.06-.16.1,0,.21,0,.34.01s.24.02.33.04v.85c-.09-.02-.19-.03-.29-.05-.11-.01-.21-.02-.31-.02-.42,0-.74.07-.96.2-.23.13-.39.31-.48.55s-.15.51-.16.82h.04c.09-.16.23-.3.4-.41.18-.11.4-.17.68-.17.44,0,.79.14,1.04.41s.39.67.39,1.17c0,.54-.15.97-.46,1.27-.31.31-.72.46-1.24.46-.34,0-.65-.08-.92-.23-.28-.16-.5-.4-.66-.72-.16-.32-.25-.74-.25-1.24ZM322.93,107.5c.21,0,.37-.07.5-.21s.2-.36.2-.66c0-.24-.06-.43-.17-.57-.11-.14-.28-.21-.51-.21-.16,0-.3.04-.41.11s-.2.16-.27.26-.1.21-.1.33c0,.15.03.31.08.46s.14.27.26.37c.11.1.25.14.42.14Z"/>
    <path class="cls-8" d="M328.86,105.41c0,.28-.02.57-.06.85s-.12.55-.22.8c-.11.25-.25.47-.44.67-.19.19-.43.35-.72.46-.29.11-.65.17-1.06.17-.1,0-.21,0-.34-.01-.13,0-.24-.02-.33-.04v-.85c.09.02.19.04.29.05.1.01.21.02.31.02.42,0,.74-.07.96-.2s.39-.31.48-.55c.09-.24.15-.51.16-.82h-.04c-.1.16-.23.3-.39.41s-.4.17-.72.17c-.42,0-.77-.14-1.02-.41-.26-.28-.39-.66-.39-1.17,0-.54.15-.97.46-1.27.31-.31.72-.46,1.24-.46.34,0,.65.08.92.23s.5.4.66.72c.16.32.25.74.25,1.24ZM327.06,104.07c-.21,0-.37.07-.5.21-.13.14-.2.36-.2.66,0,.24.06.43.17.57s.28.21.51.21c.15,0,.29-.04.41-.11.12-.07.21-.16.27-.26.07-.11.1-.21.1-.33,0-.15-.03-.31-.08-.45-.06-.15-.14-.27-.25-.37-.11-.1-.25-.14-.42-.14Z"/>
  </g>
  <g>
    <path class="cls-8" d="M220.98,34.25c0,.35-.1.62-.31.83-.21.21-.46.35-.77.42v.02c.4.05.7.17.91.37s.31.46.31.78c0,.29-.07.55-.21.78-.14.23-.36.41-.66.55-.3.13-.68.2-1.14.2-.54,0-1.02-.09-1.44-.27v-.9c.21.11.44.19.67.25.23.06.45.08.66.08.38,0,.64-.07.79-.2s.23-.32.23-.55c0-.14-.04-.25-.11-.35-.07-.1-.19-.17-.37-.22-.17-.05-.42-.07-.73-.07h-.38v-.81h.38c.31,0,.54-.03.7-.09.16-.06.27-.14.33-.24.06-.1.09-.22.09-.35,0-.18-.05-.32-.16-.42-.11-.1-.29-.15-.55-.15-.24,0-.45.04-.62.13-.18.08-.32.16-.44.24l-.49-.73c.2-.14.43-.26.69-.35.26-.09.58-.14.94-.14.51,0,.92.1,1.22.31.3.21.45.5.45.88Z"/>
    <path class="cls-8" d="M224.45,38.13h-1.06v-2.89c0-.12,0-.27,0-.47,0-.2.01-.37.02-.52-.02.03-.07.08-.15.15-.08.07-.15.14-.21.19l-.57.46-.51-.64,1.61-1.28h.87v5Z"/>
  </g>
  <line class="cls-1" x1="214.97" y1="31.53" x2="227.15" y2="39.75"/>
  <line class="cls-1" x1="331.14" y1="109.92" x2="318.83" y2="101.63"/>
</svg>