<?xml version="1.0" encoding="UTF-8"?>
<svg id="Layer_1" data-name="Layer 1" xmlns="http://www.w3.org/2000/svg" viewBox="0 0 545 172">
  <defs>
    <style>
      .cls-1, .cls-2 {
        fill: none;
      }

      .cls-3, .cls-4, .cls-5, .cls-2, .cls-6, .cls-7, .cls-8 {
        stroke-miterlimit: 10;
      }

      .cls-3, .cls-4, .cls-5, .cls-6, .cls-7, .cls-8 {
        stroke: #fff;
      }

      .cls-3, .cls-9 {
        fill: #d0c1d2;
      }

      .cls-4, .cls-10 {
        fill: #633169;
      }

      .cls-5, .cls-11 {
        fill: #006ba6;
      }

      .cls-5, .cls-6, .cls-7, .cls-8 {
        fill-rule: evenodd;
      }

      .cls-2 {
        stroke: #d3d3d2;
        stroke-dasharray: 1.5 1;
        stroke-width: 2px;
      }

      .cls-12 {
        fill: #fff;
      }

      .cls-13, .cls-8 {
        fill: #22b7e9;
      }

      .cls-14, .cls-7 {
        fill: #12a639;
      }

      .cls-15, .cls-6 {
        fill: #d50065;
      }
    </style>
  </defs>
  <g>
    <path class="cls-4" d="M273.13,70.33L252.64,3.36c6.59-2.01,13.6-3.06,20.49-3.06v70.03Z"/>
    <path class="cls-3" d="M273.13,70.33l-44.11-54.42c7.58-6.13,14.29-9.7,23.62-12.55l20.49,66.97Z"/>
    <path class="cls-7" d="M273.13,70.33l-62.46-31.79c4.53-8.89,10.58-16.35,18.34-22.63l44.11,54.42Z"/>
    <path class="cls-5" d="M273.13,70.33l-65.44,25.1c-7.49-19.5-6.51-38.28,2.98-56.89l62.46,31.79Z"/>
    <path class="cls-8" d="M273.13,70.33l-15.77,68.24c-23.27-5.37-41.11-20.86-49.67-43.14l65.44-25.1Z"/>
    <path class="cls-6" d="M273.13,70.33V.3c38.71,0,70.1,31.35,70.1,70.03s-31.38,70.03-70.1,70.03c-5.88,0-10.03-.47-15.77-1.79l15.77-68.24Z"/>
  </g>
  <g>
    <path class="cls-15" d="M147.7,152.07c0,.43-.08.83-.24,1.22-.16.38-.39.73-.7,1.04-.3.3-.65.53-1.03.69-.39.16-.79.24-1.22.24s-.84-.08-1.23-.24c-.39-.16-.73-.39-1.03-.69-.3-.31-.54-.65-.7-1.04-.16-.38-.24-.79-.24-1.22s.08-.83.24-1.22.39-.73.7-1.04c.3-.3.65-.53,1.03-.69.39-.16.79-.24,1.22-.24s.83.08,1.22.24c.38.16.73.39,1.04.7.3.31.54.65.7,1.04s.24.79.24,1.22Z"/>
    <g>
      <path d="M154.14,153.44c0,.34-.08.63-.26.86-.17.23-.41.41-.7.53-.3.12-.64.18-1.02.18-.34,0-.64-.02-.9-.07-.26-.05-.47-.11-.66-.18v-.46c.2.08.44.15.71.21.27.06.56.09.88.09.44,0,.79-.09,1.07-.28.27-.19.41-.47.41-.84,0-.22-.05-.41-.16-.56s-.26-.28-.48-.38c-.22-.11-.49-.22-.83-.33-.32-.11-.6-.23-.82-.36-.23-.13-.41-.3-.53-.5-.12-.2-.18-.45-.18-.76s.08-.58.24-.79c.16-.21.37-.38.65-.49.27-.11.59-.17.94-.17.28,0,.54.03.79.08.25.05.49.13.71.22l-.16.4c-.45-.19-.9-.29-1.36-.29-.4,0-.72.09-.96.26-.25.17-.37.43-.37.76,0,.25.05.44.16.59.11.15.26.27.46.37.2.1.45.2.74.3.34.12.63.24.87.37s.43.29.56.48c.13.19.2.44.2.74Z"/>
      <path d="M155.56,149.1c.21,0,.32.12.32.34s-.11.35-.32.35-.3-.12-.3-.35.1-.34.3-.34ZM155.78,150.68v4.26h-.45v-4.26h.45Z"/>
      <path d="M159.18,150.6c.49,0,.86.12,1.11.38.26.25.38.64.38,1.18v2.78h-.46v-2.75c0-.41-.09-.7-.28-.9-.18-.19-.45-.29-.81-.29-.94,0-1.41.54-1.41,1.62v2.32h-.45v-4.26h.37l.06.74h.03c.11-.24.29-.43.53-.58.24-.16.54-.23.91-.23Z"/>
      <path d="M163.69,150.6c.34,0,.61.06.84.19.22.13.4.31.53.54h.02l.07-.65h.37v4.39c0,.56-.14,1-.43,1.31-.29.31-.75.47-1.4.47-.32,0-.6-.03-.85-.08-.25-.05-.47-.12-.67-.21v-.44c.2.1.43.18.69.24.26.06.54.09.84.09.46,0,.81-.12,1.03-.37.22-.25.33-.58.33-1v-.25c0-.11,0-.22,0-.34,0-.11.01-.22.02-.33h-.02c-.12.28-.3.49-.54.62s-.54.21-.88.21c-.55,0-.99-.19-1.29-.56-.31-.37-.46-.91-.46-1.62s.15-1.23.46-1.64c.31-.4.75-.6,1.34-.6ZM163.73,151c-.46,0-.8.16-1.03.48-.23.32-.34.78-.34,1.36s.11,1.02.34,1.33c.23.3.56.46.99.46.35,0,.63-.07.83-.22.2-.14.34-.34.43-.59.08-.25.13-.54.13-.86v-.27c0-.54-.1-.96-.3-1.26-.2-.29-.55-.44-1.04-.44Z"/>
      <path d="M168.52,150.6c.48,0,.84.12,1.07.35.23.23.35.6.35,1.11v2.86h-.34l-.09-.72h-.02c-.15.24-.34.43-.56.58-.22.15-.53.22-.93.22s-.73-.1-.96-.3c-.24-.2-.36-.5-.36-.89,0-.42.17-.74.52-.97.34-.22.85-.35,1.52-.38l.78-.04v-.3c0-.42-.08-.72-.25-.89-.17-.17-.42-.26-.74-.26-.22,0-.43.03-.63.08-.2.06-.41.14-.61.24l-.14-.37c.2-.1.42-.18.66-.25.24-.06.49-.1.74-.1ZM169.49,152.79l-.72.03c-.54.02-.95.11-1.22.28s-.4.41-.4.73c0,.26.08.46.25.6.17.14.39.2.68.2.44,0,.79-.13,1.03-.38.24-.25.37-.6.38-1.06v-.41Z"/>
      <path d="M173.29,150.6c.54,0,.97.18,1.28.55s.46.91.46,1.64-.16,1.28-.48,1.66c-.32.38-.75.57-1.3.57-.38,0-.68-.08-.91-.24-.23-.16-.39-.35-.5-.58h-.03c0,.14.01.29.02.44s.01.3.01.44v1.74h-.46v-6.14h.38l.06.8h.02c.11-.23.28-.44.51-.62s.55-.26.94-.26ZM173.23,151c-.47,0-.82.15-1.04.44s-.34.72-.34,1.28v.08c0,.61.11,1.06.33,1.36.22.3.56.45,1.02.45s.77-.16,1.01-.49c.23-.33.35-.78.35-1.36s-.11-1.01-.33-1.32-.55-.46-1-.46Z"/>
      <path d="M179.83,152.8c0,.44-.07.83-.22,1.16-.15.33-.36.59-.65.77-.29.18-.63.28-1.04.28s-.73-.09-1.02-.27c-.28-.18-.5-.44-.65-.77s-.23-.72-.23-1.17c0-.69.17-1.23.52-1.62.34-.39.81-.58,1.41-.58.41,0,.75.09,1.03.28.28.18.49.44.64.77.14.33.22.72.22,1.16ZM176.49,152.8c0,.54.11.98.34,1.32.23.33.59.5,1.08.5s.86-.17,1.09-.5c.23-.33.35-.77.35-1.32,0-.35-.05-.66-.14-.94-.1-.27-.25-.48-.46-.64-.21-.15-.48-.23-.82-.23-.49,0-.85.16-1.09.48-.24.32-.36.76-.36,1.33Z"/>
      <path d="M182.82,150.6c.22,0,.42.02.58.07l-.06.42c-.09-.02-.17-.04-.26-.05-.09-.01-.18-.02-.27-.02-.4,0-.71.14-.93.43-.23.29-.34.67-.34,1.14v2.34h-.46v-4.26h.38l.05.8h.02c.11-.24.27-.45.48-.62.22-.17.48-.26.8-.26Z"/>
      <path d="M185.93,150.6c.36,0,.67.08.91.25s.43.4.55.69c.12.29.18.63.18,1.01v.32h-3.04c0,.56.13.99.39,1.29.26.3.64.45,1.13.45.27,0,.5-.02.7-.06s.41-.12.65-.22v.42c-.21.1-.42.17-.63.21-.21.04-.45.06-.73.06-.63,0-1.12-.19-1.46-.58s-.51-.92-.51-1.59c0-.43.07-.82.22-1.16.15-.34.36-.6.64-.8.28-.19.61-.29,1.01-.29ZM185.93,150.98c-.39,0-.71.13-.95.39-.24.26-.39.63-.43,1.11h2.55c0-.45-.09-.81-.28-1.09-.19-.28-.49-.42-.89-.42Z"/>
    </g>
  </g>
  <g>
    <path class="cls-11" d="M381.59,152.07c0,.43-.08.83-.24,1.22-.16.38-.39.73-.7,1.04-.3.3-.65.53-1.03.69-.39.16-.79.24-1.22.24s-.84-.08-1.23-.24c-.39-.16-.73-.39-1.03-.69-.3-.31-.54-.65-.7-1.04-.16-.38-.24-.79-.24-1.22s.08-.83.24-1.22.39-.73.7-1.04c.3-.3.65-.53,1.03-.69.39-.16.79-.24,1.22-.24s.83.08,1.22.24c.38.16.73.39,1.04.7.3.31.54.65.7,1.04s.24.79.24,1.22Z"/>
    <g>
      <path d="M387.22,149.56c-.47,0-.87.11-1.21.32-.34.21-.59.5-.77.88s-.27.81-.27,1.32.08.96.24,1.34c.16.38.4.67.72.88.32.21.72.31,1.2.31.28,0,.53-.02.76-.06.23-.04.45-.1.66-.16v.4c-.2.08-.42.13-.65.18-.24.04-.51.06-.82.06-.58,0-1.06-.12-1.44-.37-.39-.25-.68-.59-.87-1.03-.19-.44-.29-.96-.29-1.55s.11-1.07.32-1.51c.22-.44.53-.79.94-1.04.41-.25.9-.38,1.48-.38s1.06.11,1.5.32l-.18.4c-.42-.2-.86-.3-1.32-.3Z"/>
      <path d="M390.22,148.85v1.95c0,.21,0,.42-.02.61h.03c.11-.24.28-.43.53-.58.25-.16.55-.23.91-.23.49,0,.86.12,1.12.38s.39.64.39,1.18v2.78h-.46v-2.75c0-.41-.09-.7-.28-.9-.18-.19-.45-.29-.81-.29-.94,0-1.41.54-1.41,1.62v2.32h-.45v-6.08h.45Z"/>
      <path d="M394.85,149.1c.21,0,.32.12.32.34s-.11.35-.32.35-.3-.12-.3-.35.1-.34.3-.34ZM395.07,150.68v4.26h-.45v-4.26h.45Z"/>
      <path d="M398.47,150.6c.49,0,.86.12,1.11.38.26.25.38.64.38,1.18v2.78h-.46v-2.75c0-.41-.09-.7-.28-.9-.18-.19-.45-.29-.81-.29-.94,0-1.41.54-1.41,1.62v2.32h-.45v-4.26h.37l.06.74h.03c.11-.24.29-.43.53-.58.24-.16.54-.23.91-.23Z"/>
      <path d="M402.93,150.6c.48,0,.84.12,1.07.35.23.23.35.6.35,1.11v2.86h-.34l-.09-.72h-.02c-.15.24-.34.43-.56.58-.22.15-.53.22-.93.22s-.73-.1-.96-.3c-.24-.2-.36-.5-.36-.89,0-.42.17-.74.52-.97.34-.22.85-.35,1.52-.38l.78-.04v-.3c0-.42-.08-.72-.25-.89-.17-.17-.42-.26-.74-.26-.22,0-.43.03-.63.08-.2.06-.41.14-.61.24l-.14-.37c.2-.1.42-.18.66-.25.24-.06.49-.1.74-.1ZM403.9,152.79l-.72.03c-.54.02-.95.11-1.22.28s-.4.41-.4.73c0,.26.08.46.25.6.17.14.39.2.68.2.44,0,.79-.13,1.03-.38.24-.25.37-.6.38-1.06v-.41Z"/>
    </g>
  </g>
  <g>
    <g>
      <path d="M215.43,154.93l-.76-1.97h-2.37l-.78,1.97h-.47l2.24-5.73h.43l2.19,5.73h-.49ZM214.52,152.55l-.77-2.06c-.02-.07-.06-.19-.11-.35s-.1-.3-.14-.42c-.04.14-.09.28-.14.42-.05.14-.09.26-.12.36l-.79,2.06h2.07Z"/>
      <path d="M219.38,153.8c0,.39-.14.69-.43.9-.29.21-.69.31-1.22.31-.3,0-.56-.03-.79-.08s-.42-.12-.57-.19v-.44c.19.1.4.17.64.24.24.06.49.09.74.09.42,0,.72-.07.9-.21.19-.14.28-.33.28-.58s-.1-.42-.29-.54c-.19-.13-.49-.25-.88-.39-.26-.09-.49-.18-.69-.27-.2-.09-.36-.21-.47-.36-.11-.15-.17-.34-.17-.6,0-.34.14-.61.42-.8.28-.19.65-.29,1.11-.29.26,0,.49.03.72.08.22.05.42.11.6.19l-.16.38c-.17-.07-.35-.14-.56-.18s-.42-.07-.62-.07c-.34,0-.6.06-.78.18-.19.12-.28.29-.28.51,0,.17.05.3.14.4.09.1.22.18.39.26.17.07.38.15.62.24.25.09.48.18.68.27.21.1.37.22.49.37.12.15.18.35.18.6Z"/>
      <path d="M220.76,149.1c.21,0,.32.12.32.34s-.11.35-.32.35-.3-.12-.3-.35.1-.34.3-.34ZM220.99,150.68v4.26h-.45v-4.26h.45Z"/>
      <path d="M223.99,150.6c.48,0,.84.12,1.07.35.23.23.35.6.35,1.11v2.86h-.34l-.09-.72h-.02c-.15.24-.34.43-.56.58-.22.15-.53.22-.93.22s-.73-.1-.96-.3c-.24-.2-.36-.5-.36-.89,0-.42.17-.74.52-.97.34-.22.85-.35,1.52-.38l.78-.04v-.3c0-.42-.08-.72-.25-.89-.17-.17-.42-.26-.74-.26-.22,0-.43.03-.63.08-.2.06-.41.14-.61.24l-.14-.37c.2-.1.42-.18.66-.25.24-.06.49-.1.74-.1ZM224.96,152.79l-.72.03c-.54.02-.95.11-1.22.28s-.4.41-.4.73c0,.26.08.46.25.6.17.14.39.2.68.2.44,0,.79-.13,1.03-.38.24-.25.37-.6.38-1.06v-.41Z"/>
      <path d="M230.55,149.22c1.37,0,2.06.54,2.06,1.62,0,.55-.18.98-.53,1.29-.35.31-.91.47-1.65.47h-.83v2.34h-.46v-5.71h1.42ZM230.5,149.63h-.91v2.57h.78c.55,0,.99-.1,1.29-.29.31-.19.46-.54.46-1.04,0-.43-.13-.74-.4-.94-.26-.2-.67-.3-1.23-.3Z"/>
      <path d="M235.33,150.6c.48,0,.84.12,1.07.35.23.23.35.6.35,1.11v2.86h-.34l-.09-.72h-.02c-.15.24-.34.43-.56.58-.22.15-.53.22-.93.22s-.73-.1-.96-.3c-.24-.2-.36-.5-.36-.89,0-.42.17-.74.52-.97.34-.22.85-.35,1.52-.38l.78-.04v-.3c0-.42-.08-.72-.25-.89-.17-.17-.42-.26-.74-.26-.22,0-.43.03-.63.08-.2.06-.41.14-.61.24l-.14-.37c.2-.1.42-.18.66-.25.24-.06.49-.1.74-.1ZM236.31,152.79l-.72.03c-.54.02-.95.11-1.22.28s-.4.41-.4.73c0,.26.08.46.25.6.17.14.39.2.68.2.44,0,.79-.13,1.03-.38.24-.25.37-.6.38-1.06v-.41Z"/>
      <path d="M239.91,155.01c-.62,0-1.11-.19-1.44-.57-.34-.38-.51-.92-.51-1.61,0-.48.08-.88.26-1.21.17-.33.41-.59.72-.76.31-.17.66-.26,1.07-.26.21,0,.4.02.58.06.18.04.34.09.48.15l-.13.4c-.3-.13-.61-.2-.93-.2-.5,0-.89.16-1.16.49-.27.33-.41.77-.41,1.33s.12.97.36,1.3c.24.33.61.5,1.11.5.21,0,.41-.02.6-.06s.35-.1.5-.17v.41c-.14.07-.3.12-.48.16-.18.04-.39.06-.62.06Z"/>
      <path d="M242.32,149.1c.21,0,.32.12.32.34s-.11.35-.32.35-.3-.12-.3-.35.1-.34.3-.34ZM242.55,150.68v4.26h-.45v-4.26h.45Z"/>
      <path d="M245.7,151.05h-1.02v3.89h-.46v-3.89h-.78v-.25l.78-.14v-.42c0-.49.1-.85.32-1.08.21-.23.53-.35.96-.35.15,0,.29.01.41.04s.23.05.34.08l-.1.38c-.1-.03-.2-.06-.31-.08-.11-.02-.22-.03-.33-.03-.29,0-.5.08-.62.24-.13.16-.19.43-.19.79v.44h1.02v.37Z"/>
      <path d="M246.83,149.1c.21,0,.32.12.32.34s-.11.35-.32.35-.3-.12-.3-.35.1-.34.3-.34ZM247.05,150.68v4.26h-.45v-4.26h.45Z"/>
      <path d="M250.25,155.01c-.62,0-1.11-.19-1.44-.57-.34-.38-.51-.92-.51-1.61,0-.48.08-.88.26-1.21.17-.33.41-.59.72-.76.31-.17.66-.26,1.07-.26.21,0,.4.02.58.06.18.04.34.09.48.15l-.13.4c-.3-.13-.61-.2-.93-.2-.5,0-.89.16-1.16.49-.27.33-.41.77-.41,1.33s.12.97.36,1.3c.24.33.61.5,1.11.5.21,0,.41-.02.6-.06s.35-.1.5-.17v.41c-.14.07-.3.12-.48.16-.18.04-.39.06-.62.06Z"/>
      <path d="M254.23,152.74c0-.68.1-1.33.3-1.93s.49-1.13.87-1.59h.46c-.39.49-.68,1.04-.88,1.64-.19.6-.29,1.23-.29,1.88s.1,1.26.29,1.85c.19.59.48,1.12.87,1.62h-.46c-.38-.46-.67-.98-.87-1.57-.2-.59-.3-1.22-.3-1.89Z"/>
      <path d="M258.54,150.6c.36,0,.67.08.91.25s.43.4.55.69c.12.29.18.63.18,1.01v.32h-3.04c0,.56.13.99.39,1.29.26.3.64.45,1.13.45.27,0,.5-.02.7-.06s.41-.12.65-.22v.42c-.21.1-.42.17-.63.21-.21.04-.45.06-.73.06-.63,0-1.12-.19-1.46-.58s-.51-.92-.51-1.59c0-.43.07-.82.22-1.16.15-.34.36-.6.64-.8.28-.19.61-.29,1.01-.29ZM258.53,150.98c-.39,0-.71.13-.95.39-.24.26-.39.63-.43,1.11h2.55c0-.45-.09-.81-.28-1.09-.19-.28-.49-.42-.89-.42Z"/>
      <path d="M262.45,152.75l-1.49-2.07h.54l1.22,1.76,1.23-1.76h.52l-1.47,2.07,1.56,2.18h-.53l-1.31-1.87-1.3,1.87h-.52l1.55-2.18Z"/>
      <path d="M270.98,153.44c0,.34-.08.63-.26.86-.17.23-.41.41-.7.53-.3.12-.64.18-1.02.18-.34,0-.64-.02-.9-.07-.26-.05-.47-.11-.66-.18v-.46c.2.08.44.15.71.21.27.06.56.09.88.09.44,0,.79-.09,1.07-.28.27-.19.41-.47.41-.84,0-.22-.05-.41-.16-.56s-.26-.28-.48-.38c-.22-.11-.49-.22-.83-.33-.32-.11-.6-.23-.82-.36-.23-.13-.41-.3-.53-.5-.12-.2-.18-.45-.18-.76s.08-.58.24-.79c.16-.21.37-.38.65-.49.27-.11.59-.17.94-.17.28,0,.54.03.79.08.25.05.49.13.71.22l-.16.4c-.45-.19-.9-.29-1.36-.29-.4,0-.72.09-.96.26-.25.17-.37.43-.37.76,0,.25.05.44.16.59.11.15.26.27.46.37.2.1.45.2.74.3.34.12.63.24.87.37s.43.29.56.48c.13.19.2.44.2.74Z"/>
      <path d="M272.39,149.1c.21,0,.32.12.32.34s-.11.35-.32.35-.3-.12-.3-.35.1-.34.3-.34ZM272.62,150.68v4.26h-.45v-4.26h.45Z"/>
      <path d="M276.02,150.6c.49,0,.86.12,1.11.38.26.25.38.64.38,1.18v2.78h-.46v-2.75c0-.41-.09-.7-.28-.9-.18-.19-.45-.29-.81-.29-.94,0-1.41.54-1.41,1.62v2.32h-.45v-4.26h.37l.06.74h.03c.11-.24.29-.43.53-.58.24-.16.54-.23.91-.23Z"/>
      <path d="M280.52,150.6c.34,0,.61.06.84.19.22.13.4.31.53.54h.02l.07-.65h.37v4.39c0,.56-.14,1-.43,1.31-.29.31-.75.47-1.4.47-.32,0-.6-.03-.85-.08-.25-.05-.47-.12-.67-.21v-.44c.2.1.43.18.69.24.26.06.54.09.84.09.46,0,.81-.12,1.03-.37.22-.25.33-.58.33-1v-.25c0-.11,0-.22,0-.34,0-.11.01-.22.02-.33h-.02c-.12.28-.3.49-.54.62s-.54.21-.88.21c-.55,0-.99-.19-1.29-.56-.31-.37-.46-.91-.46-1.62s.15-1.23.46-1.64c.31-.4.75-.6,1.34-.6ZM280.57,151c-.46,0-.8.16-1.03.48-.23.32-.34.78-.34,1.36s.11,1.02.34,1.33c.23.3.56.46.99.46.35,0,.63-.07.83-.22.2-.14.34-.34.43-.59.08-.25.13-.54.13-.86v-.27c0-.54-.1-.96-.3-1.26-.2-.29-.55-.44-1.04-.44Z"/>
      <path d="M285.35,150.6c.48,0,.84.12,1.07.35.23.23.35.6.35,1.11v2.86h-.34l-.09-.72h-.02c-.15.24-.34.43-.56.58-.22.15-.53.22-.93.22s-.73-.1-.96-.3c-.24-.2-.36-.5-.36-.89,0-.42.17-.74.52-.97.34-.22.85-.35,1.52-.38l.78-.04v-.3c0-.42-.08-.72-.25-.89-.17-.17-.42-.26-.74-.26-.22,0-.43.03-.63.08-.2.06-.41.14-.61.24l-.14-.37c.2-.1.42-.18.66-.25.24-.06.49-.1.74-.1ZM286.33,152.79l-.72.03c-.54.02-.95.11-1.22.28s-.4.41-.4.73c0,.26.08.46.25.6.17.14.39.2.68.2.44,0,.79-.13,1.03-.38.24-.25.37-.6.38-1.06v-.41Z"/>
      <path d="M290.13,150.6c.54,0,.97.18,1.28.55s.46.91.46,1.64-.16,1.28-.48,1.66c-.32.38-.75.57-1.3.57-.38,0-.68-.08-.91-.24-.23-.16-.39-.35-.5-.58h-.03c0,.14.01.29.02.44s.01.3.01.44v1.74h-.46v-6.14h.38l.06.8h.02c.11-.23.28-.44.51-.62s.55-.26.94-.26ZM290.06,151c-.47,0-.82.15-1.04.44s-.34.72-.34,1.28v.08c0,.61.11,1.06.33,1.36.22.3.56.45,1.02.45s.77-.16,1.01-.49c.23-.33.35-.78.35-1.36s-.11-1.01-.33-1.32-.55-.46-1-.46Z"/>
      <path d="M296.67,152.8c0,.44-.07.83-.22,1.16-.15.33-.36.59-.65.77-.29.18-.63.28-1.04.28s-.73-.09-1.02-.27c-.28-.18-.5-.44-.65-.77s-.23-.72-.23-1.17c0-.69.17-1.23.52-1.62.34-.39.81-.58,1.41-.58.41,0,.75.09,1.03.28.28.18.49.44.64.77.14.33.22.72.22,1.16ZM293.33,152.8c0,.54.11.98.34,1.32.23.33.59.5,1.08.5s.86-.17,1.09-.5c.23-.33.35-.77.35-1.32,0-.35-.05-.66-.14-.94-.1-.27-.25-.48-.46-.64-.21-.15-.48-.23-.82-.23-.49,0-.85.16-1.09.48-.24.32-.36.76-.36,1.33Z"/>
      <path d="M299.66,150.6c.22,0,.42.02.58.07l-.06.42c-.09-.02-.17-.04-.26-.05-.09-.01-.18-.02-.27-.02-.4,0-.71.14-.93.43-.23.29-.34.67-.34,1.14v2.34h-.46v-4.26h.38l.05.8h.02c.11-.24.27-.45.48-.62.22-.17.48-.26.8-.26Z"/>
      <path d="M302.77,150.6c.36,0,.67.08.91.25s.43.4.55.69c.12.29.18.63.18,1.01v.32h-3.04c0,.56.13.99.39,1.29.26.3.64.45,1.13.45.27,0,.5-.02.7-.06s.41-.12.65-.22v.42c-.21.1-.42.17-.63.21-.21.04-.45.06-.73.06-.63,0-1.12-.19-1.46-.58s-.51-.92-.51-1.59c0-.43.07-.82.22-1.16.15-.34.36-.6.64-.8.28-.19.61-.29,1.01-.29ZM302.76,150.98c-.39,0-.71.13-.95.39-.24.26-.39.63-.43,1.11h2.55c0-.45-.09-.81-.28-1.09-.19-.28-.49-.42-.89-.42Z"/>
      <path d="M306.18,154.01l.03.1c-.06.29-.15.6-.26.94-.11.34-.22.65-.34.93h-.34c.2-.71.34-1.36.42-1.96h.5Z"/>
      <path d="M312.25,149.56c-.47,0-.87.11-1.21.32-.34.21-.59.5-.77.88s-.27.81-.27,1.32.08.96.24,1.34c.16.38.4.67.72.88.32.21.72.31,1.2.31.28,0,.53-.02.76-.06.23-.04.45-.1.66-.16v.4c-.2.08-.42.13-.65.18-.24.04-.51.06-.82.06-.58,0-1.06-.12-1.44-.37-.39-.25-.68-.59-.87-1.03-.19-.44-.29-.96-.29-1.55s.11-1.07.32-1.51c.22-.44.53-.79.94-1.04.41-.25.9-.38,1.48-.38s1.06.11,1.5.32l-.18.4c-.42-.2-.86-.3-1.32-.3Z"/>
      <path d="M315.24,148.85v1.95c0,.21,0,.42-.02.61h.03c.11-.24.28-.43.53-.58.25-.16.55-.23.91-.23.49,0,.86.12,1.12.38s.39.64.39,1.18v2.78h-.46v-2.75c0-.41-.09-.7-.28-.9-.18-.19-.45-.29-.81-.29-.94,0-1.41.54-1.41,1.62v2.32h-.45v-6.08h.45Z"/>
      <path d="M319.87,149.1c.21,0,.32.12.32.34s-.11.35-.32.35-.3-.12-.3-.35.1-.34.3-.34ZM320.1,150.68v4.26h-.45v-4.26h.45Z"/>
      <path d="M323.5,150.6c.48,0,.86.12,1.11.38s.38.64.38,1.18v2.78h-.46v-2.75c0-.41-.09-.7-.28-.9-.18-.19-.46-.29-.81-.29-.94,0-1.41.54-1.41,1.62v2.32h-.45v-4.26h.37l.06.74h.03c.11-.24.29-.43.53-.58.24-.16.54-.23.91-.23Z"/>
      <path d="M327.95,150.6c.48,0,.84.12,1.07.35s.35.6.35,1.11v2.86h-.34l-.09-.72h-.02c-.15.24-.34.43-.56.58-.22.15-.53.22-.93.22s-.73-.1-.96-.3c-.24-.2-.36-.5-.36-.89,0-.42.17-.74.52-.97.34-.22.85-.35,1.52-.38l.78-.04v-.3c0-.42-.08-.72-.25-.89-.17-.17-.41-.26-.74-.26-.22,0-.43.03-.63.08-.2.06-.41.14-.61.24l-.14-.37c.2-.1.42-.18.66-.25.24-.06.49-.1.74-.1ZM328.93,152.79l-.72.03c-.54.02-.95.11-1.22.28s-.4.41-.4.73c0,.26.08.46.25.6.17.14.39.2.68.2.44,0,.79-.13,1.03-.38.24-.25.37-.6.38-1.06v-.41Z"/>
      <path d="M334.74,149.13c.39,0,.71.11.95.32.24.21.36.5.36.88,0,.35-.12.64-.35.88s-.53.45-.9.64l1.74,1.73c.15-.18.28-.38.38-.62.11-.24.19-.49.26-.76h.46c-.16.67-.43,1.23-.82,1.68l1.06,1.06h-.61l-.75-.75c-.25.25-.52.45-.83.6-.31.16-.69.23-1.15.23-.53,0-.96-.13-1.29-.4-.33-.26-.49-.64-.49-1.14,0-.29.05-.53.16-.73.11-.2.26-.38.46-.53.2-.15.44-.3.72-.45-.22-.23-.41-.46-.55-.67-.14-.21-.22-.46-.22-.74,0-.37.12-.67.38-.89.25-.22.59-.33,1.02-.33ZM334.41,152.06c-.25.13-.45.25-.63.38-.17.13-.3.27-.4.43-.09.16-.14.36-.14.59,0,.36.12.64.36.84.24.2.56.3.95.3s.72-.07.98-.2c.26-.13.5-.3.71-.51l-1.84-1.83ZM334.73,149.52c-.28,0-.5.07-.67.22-.17.15-.26.35-.26.6,0,.22.06.42.18.6.12.18.3.39.52.62.36-.18.64-.37.82-.55s.28-.42.28-.69c0-.25-.08-.44-.24-.58-.16-.14-.37-.22-.64-.22Z"/>
      <path d="M342.43,154.93h-1.68v-.29l.61-.09v-4.95l-.61-.1v-.29h1.68v.29l-.61.1v4.95l.61.09v.29Z"/>
      <path d="M345.56,150.6c.48,0,.86.12,1.11.38s.38.64.38,1.18v2.78h-.46v-2.75c0-.41-.09-.7-.28-.9-.18-.19-.46-.29-.81-.29-.94,0-1.41.54-1.41,1.62v2.32h-.45v-4.26h.37l.06.74h.03c.11-.24.29-.43.53-.58.24-.16.54-.23.91-.23Z"/>
      <path d="M350.06,155.01c-.57,0-1.01-.18-1.32-.55s-.46-.9-.46-1.61.16-1.3.48-1.68c.32-.38.77-.58,1.33-.58.36,0,.65.08.87.23.22.15.39.35.5.58h.03c0-.13-.01-.27-.02-.42,0-.15-.01-.29-.01-.41v-1.73h.46v6.08h-.37l-.06-.74h-.02c-.11.22-.28.42-.5.58-.22.16-.53.24-.9.24ZM350.12,154.62c.49,0,.84-.15,1.05-.45s.31-.73.31-1.29v-.08c0-.59-.1-1.04-.31-1.35-.21-.31-.55-.47-1.02-.47s-.81.16-1.04.48c-.24.32-.35.78-.35,1.38s.11,1.02.34,1.32c.22.3.57.45,1.02.45Z"/>
      <path d="M353.66,149.1c.21,0,.32.12.32.34s-.11.35-.32.35c-.2,0-.3-.12-.3-.35s.1-.34.3-.34ZM353.89,150.68v4.26h-.45v-4.26h.45Z"/>
      <path d="M356.91,150.6c.48,0,.84.12,1.07.35s.35.6.35,1.11v2.86h-.34l-.09-.72h-.02c-.15.24-.34.43-.56.58-.22.15-.53.22-.93.22s-.73-.1-.96-.3c-.24-.2-.36-.5-.36-.89,0-.42.17-.74.52-.97.34-.22.85-.35,1.52-.38l.78-.04v-.3c0-.42-.08-.72-.25-.89-.17-.17-.41-.26-.74-.26-.22,0-.43.03-.63.08-.2.06-.41.14-.61.24l-.14-.37c.2-.1.42-.18.66-.25.24-.06.49-.1.74-.1ZM357.89,152.79l-.72.03c-.54.02-.95.11-1.22.28s-.4.41-.4.73c0,.26.08.46.25.6.17.14.39.2.68.2.44,0,.79-.13,1.03-.38.24-.25.37-.6.38-1.06v-.41Z"/>
      <path d="M361,152.71c0,.68-.1,1.32-.3,1.92-.2.6-.49,1.12-.87,1.57h-.46c.39-.49.68-1.03.87-1.62.19-.59.29-1.21.29-1.86s-.1-1.27-.29-1.86c-.19-.59-.49-1.13-.88-1.62h.46c.38.46.67.99.87,1.58s.3,1.23.3,1.9Z"/>
    </g>
    <path class="cls-13" d="M208.14,152.07c0,.43-.08.83-.24,1.22-.16.38-.39.73-.7,1.04-.3.3-.64.53-1.03.69-.39.16-.79.24-1.22.24s-.84-.08-1.23-.24c-.39-.16-.73-.39-1.03-.69-.3-.31-.54-.65-.7-1.04-.16-.38-.24-.79-.24-1.22s.08-.83.24-1.22c.16-.39.39-.73.7-1.04.3-.3.64-.53,1.03-.69.39-.16.79-.24,1.22-.24s.84.08,1.22.24c.38.16.73.39,1.04.7.31.31.54.65.7,1.04s.24.79.24,1.22Z"/>
  </g>
  <g>
    <path class="cls-14" d="M147.7,165.24c0,.43-.08.83-.24,1.22-.16.38-.39.73-.7,1.04-.3.3-.64.53-1.03.69-.39.16-.79.24-1.22.24s-.84-.08-1.23-.24c-.39-.16-.73-.39-1.03-.69-.31-.31-.54-.65-.7-1.04-.16-.38-.24-.79-.24-1.22s.08-.83.24-1.22.39-.73.7-1.04c.3-.3.64-.53,1.03-.69.39-.16.79-.24,1.22-.24s.83.08,1.22.24c.38.16.73.39,1.04.7.31.31.53.65.7,1.04.16.39.24.79.24,1.22Z"/>
    <g>
      <path d="M153.73,168.11h-3.14v-5.71h3.14v.42h-2.67v2.1h2.52v.41h-2.52v2.38h2.67v.42Z"/>
      <path d="M158.36,163.85v4.26h-.38l-.06-.73h-.02c-.12.23-.3.42-.54.58s-.54.23-.91.23c-1,0-1.5-.52-1.5-1.55v-2.78h.46v2.75c0,.41.09.71.27.9.18.2.45.29.82.29.94,0,1.41-.54,1.41-1.62v-2.32h.46Z"/>
      <path d="M161.61,163.78c.22,0,.42.02.58.07l-.06.42c-.09-.02-.17-.04-.26-.05-.09,0-.18-.02-.27-.02-.4,0-.71.14-.93.43-.23.29-.34.67-.34,1.14v2.34h-.46v-4.26h.38l.05.8h.02c.11-.24.27-.45.48-.62s.48-.26.8-.26Z"/>
      <path d="M166.67,165.98c0,.44-.07.83-.22,1.16-.15.33-.36.59-.65.77s-.63.28-1.04.28-.73-.09-1.02-.27c-.28-.18-.5-.44-.65-.77-.15-.33-.23-.72-.23-1.17,0-.69.17-1.24.52-1.62.34-.39.81-.58,1.41-.58.41,0,.75.09,1.03.28.28.18.49.44.64.77s.22.72.22,1.16ZM163.33,165.98c0,.54.11.98.34,1.32.23.33.59.5,1.08.5s.86-.17,1.09-.5c.23-.33.35-.77.35-1.32,0-.35-.05-.66-.14-.94-.1-.27-.25-.49-.46-.64s-.48-.23-.82-.23c-.49,0-.85.16-1.09.48-.24.32-.36.76-.36,1.33Z"/>
      <path d="M169.82,163.77c.54,0,.97.18,1.28.55s.46.91.46,1.64-.16,1.28-.48,1.66c-.32.38-.75.57-1.3.57-.38,0-.68-.08-.91-.24-.23-.16-.39-.35-.5-.58h-.03c0,.14.01.29.02.44,0,.15.01.3.01.44v1.74h-.46v-6.14h.38l.06.8h.02c.11-.23.28-.44.51-.62s.55-.26.94-.26ZM169.76,164.17c-.47,0-.82.15-1.04.44s-.34.72-.34,1.28v.08c0,.61.11,1.06.33,1.36.22.3.56.45,1.02.45s.77-.16,1.01-.49c.23-.33.35-.78.35-1.36s-.11-1.01-.33-1.32-.55-.46-1-.46Z"/>
      <path d="M174.41,163.77c.36,0,.67.08.91.25s.43.4.55.69c.12.29.18.63.18,1.01v.32h-3.04c0,.56.13.99.39,1.29.26.3.64.45,1.13.45.27,0,.5-.02.7-.06.2-.04.41-.12.65-.22v.42c-.21.1-.42.17-.63.21s-.45.06-.73.06c-.63,0-1.12-.2-1.46-.58-.34-.39-.51-.92-.51-1.59,0-.43.07-.82.22-1.16.15-.34.36-.6.64-.8.28-.19.61-.29,1.01-.29ZM174.4,164.15c-.39,0-.71.13-.95.39-.24.26-.39.63-.43,1.11h2.55c0-.45-.09-.81-.28-1.09-.19-.28-.49-.42-.89-.42Z"/>
      <path d="M177.83,167.18l.03.1c-.06.29-.15.6-.26.94-.11.34-.22.65-.34.93h-.34c.2-.71.34-1.36.42-1.96h.5Z"/>
      <path d="M183.94,168.11l-2.05-5.22h-.03c.01.14.02.31.02.5,0,.19,0,.39,0,.6v4.11h-.43v-5.71h.7l1.97,5.01h.02l1.99-5.01h.69v5.71h-.46v-4.16c0-.18,0-.37,0-.55,0-.19.01-.35.02-.5h-.02l-2.06,5.22h-.38Z"/>
      <path d="M188.65,162.27c.21,0,.32.11.32.34s-.11.35-.32.35-.3-.12-.3-.35.1-.34.3-.34ZM188.88,163.85v4.26h-.45v-4.26h.45Z"/>
      <path d="M191.9,168.19c-.57,0-1.01-.18-1.32-.55s-.46-.9-.46-1.61.16-1.3.48-1.68c.32-.38.77-.58,1.33-.58.36,0,.65.08.87.23.22.16.39.35.5.58h.03c0-.13-.01-.27-.02-.42,0-.15-.01-.29-.01-.41v-1.73h.46v6.08h-.37l-.06-.74h-.02c-.11.22-.28.42-.5.58-.22.16-.53.24-.9.24ZM191.96,167.79c.49,0,.84-.15,1.05-.45.21-.3.31-.73.31-1.29v-.08c0-.59-.1-1.04-.31-1.35-.21-.31-.55-.47-1.02-.47s-.81.16-1.04.48c-.23.32-.35.78-.35,1.38s.11,1.02.34,1.32c.22.3.56.45,1.02.45Z"/>
      <path d="M196.78,168.19c-.57,0-1.01-.18-1.32-.55s-.46-.9-.46-1.61.16-1.3.48-1.68c.32-.38.77-.58,1.33-.58.36,0,.65.08.87.23.22.16.39.35.5.58h.03c0-.13-.01-.27-.02-.42,0-.15-.01-.29-.01-.41v-1.73h.46v6.08h-.37l-.06-.74h-.02c-.11.22-.28.42-.5.58-.22.16-.53.24-.9.24ZM196.84,167.79c.49,0,.84-.15,1.05-.45.21-.3.31-.73.31-1.29v-.08c0-.59-.1-1.04-.31-1.35-.21-.31-.55-.47-1.02-.47s-.81.16-1.04.48c-.23.32-.35.78-.35,1.38s.11,1.02.34,1.32c.22.3.56.45,1.02.45Z"/>
      <path d="M200.59,168.11h-.46v-6.08h.46v6.08Z"/>
      <path d="M203.69,163.77c.36,0,.67.08.91.25s.43.4.55.69c.12.29.18.63.18,1.01v.32h-3.04c0,.56.13.99.39,1.29.26.3.64.45,1.13.45.27,0,.5-.02.7-.06.2-.04.41-.12.65-.22v.42c-.21.1-.42.17-.63.21s-.45.06-.73.06c-.63,0-1.12-.2-1.46-.58-.34-.39-.51-.92-.51-1.59,0-.43.07-.82.22-1.16.15-.34.36-.6.64-.8.28-.19.61-.29,1.01-.29ZM203.68,164.15c-.39,0-.71.13-.95.39-.24.26-.39.63-.43,1.11h2.55c0-.45-.09-.81-.28-1.09-.19-.28-.49-.42-.89-.42Z"/>
      <path d="M211.98,168.11h-3.14v-5.71h3.14v.42h-2.67v2.1h2.52v.41h-2.52v2.38h2.67v.42Z"/>
      <path d="M214.76,163.78c.48,0,.84.12,1.07.35.23.24.35.61.35,1.11v2.86h-.34l-.09-.72h-.02c-.15.24-.34.43-.56.58-.22.15-.53.22-.93.22s-.73-.1-.96-.3c-.24-.2-.36-.5-.36-.89,0-.42.17-.74.52-.97.34-.22.85-.35,1.52-.38l.78-.04v-.3c0-.42-.08-.72-.25-.89-.17-.17-.42-.26-.74-.26-.22,0-.43.03-.63.08s-.41.14-.61.24l-.14-.37c.2-.1.42-.18.66-.25.24-.06.49-.1.74-.1ZM215.74,165.96l-.72.03c-.54.02-.95.11-1.22.28-.27.16-.4.41-.4.73,0,.26.08.46.25.6.17.14.39.2.68.2.44,0,.79-.12,1.03-.38.24-.25.37-.6.38-1.06v-.41Z"/>
      <path d="M220.31,166.98c0,.39-.14.69-.43.9-.29.21-.69.31-1.22.31-.3,0-.56-.03-.79-.08-.23-.05-.42-.12-.57-.19v-.44c.19.1.4.17.64.24.24.06.49.09.74.09.42,0,.72-.07.9-.21.19-.14.28-.33.28-.58s-.1-.41-.29-.54c-.19-.12-.49-.25-.88-.39-.26-.09-.49-.18-.69-.27-.2-.09-.36-.21-.47-.36-.11-.15-.17-.34-.17-.6,0-.34.14-.61.42-.8.28-.19.65-.29,1.11-.29.26,0,.49.03.72.08.22.05.42.11.6.19l-.16.38c-.17-.07-.35-.14-.56-.18-.21-.05-.42-.07-.62-.07-.34,0-.6.06-.78.18-.19.12-.28.29-.28.51,0,.17.05.31.14.4.09.1.22.18.39.26.17.07.38.15.62.24.25.08.48.18.68.27.21.1.37.22.49.37.12.15.18.35.18.6Z"/>
      <path d="M222.67,167.8c.12,0,.23,0,.34-.03.11-.02.2-.04.28-.07v.37c-.09.03-.19.06-.3.08-.11.02-.24.03-.38.03-.35,0-.62-.1-.82-.3-.19-.2-.29-.52-.29-.96v-2.7h-.63v-.26l.63-.14.16-.98h.29v1.02h1.31v.37h-1.31v2.69c0,.6.24.9.72.9Z"/>
      <path d="M228.17,162.31c.39,0,.71.1.95.32.24.21.36.5.36.88,0,.35-.12.64-.35.88-.23.23-.53.45-.9.64l1.74,1.73c.15-.18.28-.38.38-.62.11-.23.19-.49.26-.76h.46c-.16.67-.43,1.23-.82,1.68l1.06,1.06h-.61l-.75-.75c-.25.25-.52.45-.83.6-.31.15-.69.23-1.15.23-.53,0-.96-.13-1.29-.4-.33-.26-.49-.64-.49-1.14,0-.29.05-.53.16-.73.11-.2.26-.38.46-.53.2-.15.44-.3.72-.45-.22-.24-.41-.46-.55-.67-.14-.21-.22-.46-.22-.74,0-.37.12-.67.38-.89.25-.22.59-.33,1.02-.33ZM227.84,165.23c-.25.13-.46.25-.63.38s-.31.27-.4.43c-.09.16-.14.36-.14.59,0,.36.12.64.36.84.24.2.56.3.95.3s.72-.07.98-.2c.26-.13.5-.3.71-.51l-1.84-1.83ZM228.16,162.7c-.28,0-.5.07-.67.22-.17.15-.26.35-.26.6,0,.22.06.42.18.6.12.18.3.39.52.62.36-.18.64-.37.82-.55.19-.19.28-.42.28-.69,0-.25-.08-.44-.24-.58-.16-.14-.37-.22-.64-.22Z"/>
      <path d="M238.11,168.11l-.76-1.97h-2.37l-.78,1.97h-.47l2.24-5.73h.43l2.19,5.73h-.49ZM237.2,165.72l-.77-2.06c-.02-.07-.06-.19-.11-.35-.05-.16-.1-.3-.14-.42-.04.14-.09.28-.14.42-.05.14-.09.26-.12.36l-.79,2.06h2.07Z"/>
      <path d="M241.04,164.22h-1.02v3.89h-.46v-3.89h-.78v-.25l.78-.14v-.42c0-.49.1-.85.32-1.08.21-.23.53-.35.96-.35.15,0,.29.01.41.04.12.02.23.05.34.08l-.1.38c-.1-.03-.2-.06-.31-.08-.11-.02-.22-.03-.33-.03-.29,0-.5.08-.62.24-.13.16-.19.43-.19.79v.44h1.02v.37Z"/>
      <path d="M243.69,163.78c.22,0,.42.02.58.07l-.06.42c-.09-.02-.17-.04-.26-.05-.09,0-.18-.02-.27-.02-.4,0-.71.14-.93.43-.23.29-.34.67-.34,1.14v2.34h-.46v-4.26h.38l.05.8h.02c.11-.24.27-.45.48-.62s.48-.26.8-.26Z"/>
      <path d="M245.41,162.27c.21,0,.32.11.32.34s-.11.35-.32.35-.3-.12-.3-.35.1-.34.3-.34ZM245.64,163.85v4.26h-.45v-4.26h.45Z"/>
      <path d="M248.84,168.19c-.62,0-1.11-.19-1.44-.57-.34-.38-.51-.92-.51-1.61,0-.47.08-.88.26-1.21.17-.33.41-.59.72-.76.31-.17.66-.26,1.07-.26.21,0,.4.02.58.06.18.04.34.09.48.15l-.13.4c-.3-.13-.61-.2-.93-.2-.5,0-.89.16-1.16.49s-.41.77-.41,1.33.12.97.36,1.3c.24.33.61.5,1.11.5.21,0,.41-.02.6-.06.19-.04.35-.1.5-.17v.41c-.14.07-.3.12-.48.16s-.39.06-.62.06Z"/>
      <path d="M252.53,163.78c.48,0,.84.12,1.07.35.23.24.35.61.35,1.11v2.86h-.34l-.09-.72h-.02c-.15.24-.34.43-.56.58-.22.15-.53.22-.93.22s-.73-.1-.96-.3c-.24-.2-.36-.5-.36-.89,0-.42.17-.74.52-.97.34-.22.85-.35,1.52-.38l.78-.04v-.3c0-.42-.08-.72-.25-.89-.17-.17-.42-.26-.74-.26-.22,0-.43.03-.63.08s-.41.14-.61.24l-.14-.37c.2-.1.42-.18.66-.25.24-.06.49-.1.74-.1ZM253.51,165.96l-.72.03c-.54.02-.95.11-1.22.28-.27.16-.4.41-.4.73,0,.26.08.46.25.6.17.14.39.2.68.2.44,0,.79-.12,1.03-.38.24-.25.37-.6.38-1.06v-.41Z"/>
    </g>
  </g>
  <g>
    <path class="cls-10" d="M331.48,165.24c0,.43-.08.83-.24,1.22-.16.38-.39.73-.7,1.04-.3.3-.64.53-1.03.69-.39.16-.79.24-1.22.24s-.84-.08-1.23-.24c-.39-.16-.73-.39-1.03-.69-.31-.31-.54-.65-.7-1.04-.16-.38-.24-.79-.24-1.22s.08-.83.24-1.22.39-.73.7-1.04c.3-.3.64-.53,1.03-.69.39-.16.79-.24,1.22-.24s.83.08,1.22.24c.38.16.73.39,1.04.7.31.31.53.65.7,1.04.16.39.24.79.24,1.22Z"/>
    <g>
      <path d="M336.06,168.11h-1.68v-.29l.61-.09v-4.95l-.61-.1v-.29h1.68v.29l-.61.1v4.95l.61.09v.29Z"/>
      <path d="M339.16,163.77c.49,0,.86.12,1.11.38.26.25.38.64.38,1.18v2.78h-.46v-2.75c0-.41-.09-.7-.28-.9-.18-.19-.45-.29-.81-.29-.94,0-1.41.54-1.41,1.62v2.32h-.45v-4.26h.37l.06.74h.03c.11-.23.29-.43.53-.58.24-.15.54-.23.91-.23Z"/>
      <path d="M343.64,168.19c-.57,0-1.01-.18-1.32-.55s-.46-.9-.46-1.61.16-1.3.48-1.68c.32-.38.77-.58,1.33-.58.36,0,.65.08.87.23.22.16.39.35.5.58h.03c0-.13-.01-.27-.02-.42,0-.15-.01-.29-.01-.41v-1.73h.46v6.08h-.37l-.06-.74h-.02c-.11.22-.28.42-.5.58-.22.16-.53.24-.9.24ZM343.7,167.79c.49,0,.84-.15,1.05-.45.21-.3.31-.73.31-1.29v-.08c0-.59-.1-1.04-.31-1.35-.21-.31-.55-.47-1.02-.47s-.81.16-1.04.48c-.23.32-.35.78-.35,1.38s.11,1.02.34,1.32c.22.3.56.45,1.02.45Z"/>
      <path d="M347.22,162.27c.21,0,.32.11.32.34s-.11.35-.32.35-.3-.12-.3-.35.1-.34.3-.34ZM347.44,163.85v4.26h-.45v-4.26h.45Z"/>
      <path d="M350.44,163.78c.48,0,.84.12,1.07.35.23.24.35.61.35,1.11v2.86h-.34l-.09-.72h-.02c-.15.24-.34.43-.56.58-.22.15-.53.22-.93.22s-.73-.1-.96-.3c-.24-.2-.36-.5-.36-.89,0-.42.17-.74.52-.97.34-.22.85-.35,1.52-.38l.78-.04v-.3c0-.42-.08-.72-.25-.89-.17-.17-.42-.26-.74-.26-.22,0-.43.03-.63.08s-.41.14-.61.24l-.14-.37c.2-.1.42-.18.66-.25.24-.06.49-.1.74-.1ZM351.42,165.96l-.72.03c-.54.02-.95.11-1.22.28-.27.16-.4.41-.4.73,0,.26.08.46.25.6.17.14.39.2.68.2.44,0,.79-.12,1.03-.38.24-.25.37-.6.38-1.06v-.41Z"/>
    </g>
  </g>
  <path class="cls-12" d="M327.82,70.38c0,30.53-24.75,55.27-55.27,55.27s-55.28-24.75-55.28-55.27,24.75-55.28,55.28-55.28,55.27,24.75,55.27,55.28Z"/>
  <path class="cls-2" d="M322.3,70.38c0,27.47-22.27,49.75-49.75,49.75s-49.75-22.27-49.75-49.75,22.27-49.75,49.75-49.75,49.75,22.27,49.75,49.75Z"/>
  <rect class="cls-1" x="141.31" y="144.83" width="264.75" height="12.64"/>
  <rect class="cls-1" x="138.94" y="155.27" width="19.64" height="6.77"/>
  <rect class="cls-1" x="260.13" y="15.08" width="26.22" height="33.45"/>
  <rect class="cls-1" x="258.92" y="92.21" width="26.22" height="33.45"/>
  <rect class="cls-1" x="208.17" y="147.89" width="2.89" height="8.39"/>
  <g>
    <path class="cls-10" d="M250.7,58.78c0,1.14-.41,2.03-1.24,2.66-.83.64-1.94.95-3.35.95-.72,0-1.39-.05-2-.16-.61-.11-1.12-.26-1.53-.45v-1.55c.43.19.97.37,1.61.52.64.16,1.31.23,1.99.23.95,0,1.67-.19,2.16-.56.49-.37.74-.88.74-1.51,0-.42-.09-.77-.27-1.06s-.49-.55-.94-.79c-.44-.24-1.05-.5-1.82-.79-1.1-.4-1.93-.88-2.48-1.46-.55-.58-.83-1.36-.83-2.36,0-.67.17-1.25.52-1.75.35-.49.83-.87,1.44-1.13.61-.26,1.33-.4,2.14-.4.7,0,1.34.07,1.93.2.59.13,1.13.31,1.62.52l-.5,1.39c-.44-.19-.93-.35-1.46-.49-.53-.13-1.07-.2-1.62-.2-.8,0-1.41.17-1.82.51-.41.34-.61.8-.61,1.36,0,.43.09.79.27,1.08.18.29.47.55.88.78.41.23.96.48,1.66.73.76.28,1.4.57,1.92.89s.92.7,1.19,1.14.41,1,.41,1.67Z"/>
    <path class="cls-10" d="M256.1,63.26v-1.93c-.66-.01-1.3-.07-1.93-.17-.62-.1-1.13-.24-1.51-.42v-1.53c.41.19.93.36,1.57.5.64.14,1.26.22,1.87.23v-3.64c-1.19-.32-2.06-.73-2.61-1.22s-.83-1.16-.83-2.02.31-1.58.93-2.09,1.46-.79,2.51-.85v-1.58h1.15v1.57c.64.02,1.21.1,1.74.22s1,.27,1.43.45l-.49,1.33c-.38-.16-.81-.29-1.27-.4-.46-.11-.93-.19-1.41-.23v3.62c.79.23,1.45.47,1.98.73.53.26.93.58,1.2.95.27.38.41.87.41,1.47,0,.84-.31,1.52-.94,2.04-.62.52-1.51.84-2.65.96v2h-1.15ZM256.1,54.71v-3.19c-.65.05-1.12.2-1.43.45s-.46.58-.46.97c0,.48.13.85.4,1.11.27.26.77.48,1.49.66ZM257.25,59.86c.71-.07,1.22-.24,1.55-.5.32-.26.49-.59.49-1,0-.46-.14-.8-.43-1.03s-.82-.44-1.6-.65v3.17Z"/>
    <path class="cls-10" d="M268.23,62.22h-1.55v-8.98c0-.52,0-.93.02-1.24.01-.31.03-.64.05-.97-.19.19-.37.35-.53.49-.16.13-.36.3-.58.5l-1.37,1.12-.83-1.06,3.47-2.7h1.31v12.85Z"/>
    <path class="cls-10" d="M277.26,49.19c1.13,0,2.05.26,2.77.79.72.53,1.08,1.29,1.08,2.29,0,.52-.11.97-.33,1.35-.22.38-.52.72-.89,1.02s-.78.56-1.22.78c.53.26,1.01.55,1.44.86.43.31.78.68,1.03,1.1.26.42.39.92.39,1.51,0,1.08-.38,1.94-1.15,2.56-.77.63-1.79.95-3.06.95-1.39,0-2.46-.3-3.2-.91-.74-.61-1.11-1.46-1.11-2.55,0-.58.12-1.08.37-1.52.25-.44.57-.81.98-1.12.41-.31.85-.58,1.31-.79-.64-.36-1.17-.79-1.6-1.31-.43-.51-.65-1.16-.65-1.95,0-.65.17-1.2.5-1.66s.79-.8,1.37-1.04,1.23-.36,1.96-.36ZM274.56,58.96c0,.62.22,1.14.67,1.56.44.41,1.13.62,2.05.62.88,0,1.54-.21,2.01-.62s.69-.95.69-1.61c0-.62-.25-1.14-.74-1.56s-1.15-.78-1.96-1.09l-.29-.11c-.79.35-1.4.74-1.81,1.17-.41.43-.62.98-.62,1.64ZM277.25,50.46c-.67,0-1.22.16-1.64.48-.42.32-.63.78-.63,1.38,0,.44.1.82.31,1.12.21.3.49.56.85.77.36.21.76.41,1.19.6.62-.26,1.15-.58,1.57-.95.43-.37.64-.88.64-1.53,0-.6-.21-1.06-.63-1.38-.42-.32-.98-.48-1.67-.48Z"/>
    <path class="cls-10" d="M291.84,55.77c0,1.39-.14,2.58-.43,3.56s-.75,1.74-1.38,2.27c-.63.53-1.46.79-2.48.79-1.45,0-2.52-.58-3.21-1.76-.69-1.17-1.04-2.79-1.04-4.87,0-1.39.14-2.58.42-3.56.28-.98.73-1.74,1.36-2.26.62-.52,1.45-.78,2.47-.78,1.44,0,2.51.58,3.22,1.74.71,1.16,1.06,2.78,1.06,4.87ZM284.9,55.77c0,1.76.2,3.08.6,3.96s1.09,1.31,2.06,1.31,1.65-.44,2.06-1.31c.41-.87.62-2.19.62-3.97s-.21-3.07-.62-3.94c-.41-.88-1.1-1.31-2.06-1.31s-1.66.44-2.06,1.31c-.4.88-.6,2.19-.6,3.94Z"/>
    <path class="cls-10" d="M295.84,48.54v3.33c0,.41,0,.79-.03,1.14s-.04.63-.06.84h.09c.28-.41.65-.75,1.13-1.03.48-.28,1.1-.41,1.85-.41,1.2,0,2.16.42,2.89,1.25.73.83,1.09,2.08,1.09,3.73s-.37,2.9-1.1,3.74c-.73.84-1.69,1.26-2.88,1.26-.76,0-1.37-.14-1.85-.41s-.86-.61-1.13-.99h-.13l-.32,1.22h-1.13v-13.68h1.58ZM298.56,53.72c-1.03,0-1.74.29-2.13.88-.39.59-.59,1.5-.59,2.74v.07c0,1.19.2,2.1.59,2.73.39.63,1.11.95,2.17.95.86,0,1.51-.32,1.94-.95.43-.64.64-1.55.64-2.75,0-2.44-.87-3.65-2.61-3.65Z"/>
    <path class="cls-10" d="M244.93,70.69c0,.51-.18.9-.55,1.18-.37.28-.86.42-1.49.42-.32,0-.62-.02-.89-.07-.27-.05-.5-.11-.68-.2v-.69c.19.09.43.16.72.23s.58.1.88.1c.42,0,.74-.08.96-.25.22-.17.33-.39.33-.67,0-.19-.04-.34-.12-.47-.08-.13-.22-.25-.42-.35-.2-.11-.47-.22-.81-.35-.49-.18-.86-.39-1.1-.65-.25-.26-.37-.6-.37-1.05,0-.3.08-.56.23-.78s.37-.39.64-.5c.27-.12.59-.18.95-.18.31,0,.59.03.86.09.26.06.5.14.72.23l-.22.62c-.2-.09-.41-.16-.65-.22-.23-.06-.47-.09-.72-.09-.36,0-.63.08-.81.23-.18.15-.27.35-.27.6,0,.19.04.35.12.48s.21.24.39.35c.18.1.43.21.74.32.34.12.62.25.85.4.23.14.41.31.53.51s.18.45.18.74Z"/>
    <path class="cls-10" d="M246.34,66.32c.11,0,.2.04.28.11.08.07.12.19.12.34s-.04.27-.12.34c-.08.07-.18.11-.28.11-.12,0-.22-.04-.3-.11-.08-.07-.12-.19-.12-.34s.04-.27.12-.34c.08-.07.18-.11.3-.11ZM246.69,67.93v4.29h-.7v-4.29h.7Z"/>
    <path class="cls-10" d="M250.11,67.85c.51,0,.9.13,1.16.38.26.25.39.65.39,1.2v2.79h-.7v-2.74c0-.69-.32-1.03-.96-1.03-.48,0-.8.13-.98.4-.18.27-.27.65-.27,1.15v2.22h-.7v-4.29h.57l.1.58h.04c.14-.22.33-.39.58-.5.25-.11.5-.16.78-.16Z"/>
    <path class="cls-10" d="M254.51,67.85c.28,0,.54.05.76.16.23.11.42.27.58.49h.04l.1-.57h.56v4.36c0,.61-.16,1.07-.47,1.38-.31.31-.8.46-1.45.46s-1.14-.09-1.54-.27v-.65c.42.22.95.34,1.58.34.37,0,.66-.11.87-.32.21-.22.32-.51.32-.88v-.17c0-.06,0-.16,0-.28s.01-.2.02-.25h-.03c-.29.43-.73.65-1.33.65-.55,0-.99-.19-1.3-.58s-.47-.93-.47-1.63.16-1.23.47-1.63c.31-.4.74-.6,1.29-.6ZM254.61,68.44c-.36,0-.63.14-.83.43-.2.29-.3.69-.3,1.22s.1.93.29,1.21.48.42.86.42c.43,0,.75-.12.94-.35.2-.23.3-.61.3-1.12v-.17c0-.58-.1-1-.3-1.26s-.52-.38-.95-.38Z"/>
    <path class="cls-10" d="M259.54,67.86c.52,0,.91.11,1.16.34.25.23.38.59.38,1.1v2.92h-.51l-.14-.61h-.03c-.19.23-.38.41-.59.52-.21.11-.49.17-.85.17-.39,0-.71-.1-.97-.31-.26-.21-.38-.53-.38-.96s.17-.76.5-.99.85-.36,1.55-.38l.73-.02v-.26c0-.36-.08-.61-.23-.74s-.37-.21-.66-.21c-.22,0-.44.03-.64.1-.2.07-.39.14-.57.23l-.22-.53c.19-.1.41-.19.66-.26.26-.07.52-.11.8-.11ZM260.38,70.12l-.63.02c-.53.02-.9.11-1.11.26-.21.15-.31.36-.31.63,0,.24.07.42.22.53.15.11.33.17.56.17.36,0,.66-.1.9-.3.24-.2.36-.51.36-.92v-.38Z"/>
    <path class="cls-10" d="M264.44,67.85c.53,0,.95.18,1.28.55.32.37.48.92.48,1.66s-.16,1.29-.48,1.66c-.32.38-.75.57-1.28.57-.33,0-.6-.06-.82-.18-.22-.12-.39-.27-.51-.44h-.05c0,.09.01.21.03.34.01.14.02.26.02.36v1.76h-.7v-6.21h.58l.1.58h.03c.13-.19.3-.34.5-.47.21-.13.48-.19.83-.19ZM264.31,68.44c-.44,0-.75.12-.93.37-.18.25-.27.62-.28,1.12v.14c0,.53.09.93.26,1.22.17.29.49.43.96.43.26,0,.47-.07.64-.21.17-.14.3-.34.38-.59.08-.25.12-.54.12-.86,0-.49-.09-.88-.28-1.18-.19-.29-.48-.44-.88-.44Z"/>
    <path class="cls-10" d="M271.05,70.07c0,.71-.18,1.26-.54,1.65-.36.39-.85.58-1.46.58-.38,0-.72-.09-1.01-.26-.3-.17-.53-.43-.7-.76-.17-.33-.26-.74-.26-1.21,0-.71.18-1.26.53-1.64.35-.38.84-.58,1.46-.58.38,0,.73.09,1.02.26.3.17.53.42.7.75.17.33.25.73.25,1.2ZM267.81,70.07c0,.51.1.91.3,1.2.2.3.52.44.96.44s.75-.15.95-.44c.2-.3.3-.7.3-1.2s-.1-.9-.3-1.19c-.2-.29-.52-.43-.96-.43s-.75.14-.95.43c-.2.29-.3.69-.3,1.19Z"/>
    <path class="cls-10" d="M274.16,67.85c.08,0,.17,0,.26.01s.17.02.25.04l-.09.65c-.07-.02-.15-.03-.23-.04-.08-.01-.16-.02-.23-.02-.22,0-.42.06-.62.18-.19.12-.35.29-.46.5-.11.22-.17.47-.17.76v2.29h-.7v-4.29h.58l.08.78h.03c.13-.23.31-.44.53-.61.22-.17.48-.26.78-.26Z"/>
    <path class="cls-10" d="M277.12,67.85c.36,0,.68.08.94.24s.47.39.61.68c.14.29.21.63.21,1.02v.42h-2.94c.01.49.13.85.37,1.11s.57.38,1,.38c.27,0,.51-.03.72-.08.21-.05.43-.12.65-.22v.62c-.22.1-.44.17-.65.21-.21.04-.47.07-.76.07-.41,0-.77-.08-1.08-.25-.31-.17-.55-.41-.72-.74-.17-.33-.26-.73-.26-1.21s.08-.87.24-1.21.38-.59.66-.78c.29-.18.62-.27,1-.27ZM277.11,68.43c-.34,0-.6.11-.8.32-.19.22-.31.52-.35.9h2.18c0-.36-.09-.66-.26-.88-.17-.23-.43-.34-.78-.34Z"/>
    <path class="cls-10" d="M279.61,70.39v-.62h1.94v.62h-1.94Z"/>
    <path class="cls-10" d="M283.25,66.14v1.48c0,.18,0,.35-.01.51,0,.16-.02.28-.03.37h.04c.12-.18.29-.33.5-.46.21-.12.49-.18.82-.18.53,0,.96.19,1.28.56.32.37.48.92.48,1.66s-.16,1.29-.49,1.66c-.33.37-.75.56-1.28.56-.34,0-.61-.06-.82-.18-.21-.12-.38-.27-.5-.44h-.06l-.14.54h-.5v-6.08h.7ZM284.46,68.44c-.46,0-.77.13-.95.39s-.26.67-.26,1.22v.03c0,.53.09.93.26,1.21.17.28.49.42.96.42.38,0,.67-.14.86-.42.19-.28.28-.69.28-1.22,0-1.08-.39-1.62-1.16-1.62Z"/>
    <path class="cls-10" d="M289.09,67.86c.52,0,.91.11,1.16.34.25.23.38.59.38,1.1v2.92h-.51l-.14-.61h-.03c-.19.23-.38.41-.59.52-.21.11-.49.17-.85.17-.39,0-.71-.1-.97-.31-.26-.21-.38-.53-.38-.96s.17-.76.5-.99.85-.36,1.55-.38l.73-.02v-.26c0-.36-.08-.61-.23-.74s-.37-.21-.66-.21c-.22,0-.44.03-.64.1-.2.07-.39.14-.57.23l-.22-.53c.19-.1.41-.19.66-.26.26-.07.52-.11.8-.11ZM289.93,70.12l-.63.02c-.53.02-.9.11-1.11.26-.21.15-.31.36-.31.63,0,.24.07.42.22.53.15.11.33.17.56.17.36,0,.66-.1.9-.3.24-.2.36-.51.36-.92v-.38Z"/>
    <path class="cls-10" d="M294.75,71.03c0,.42-.15.73-.46.94-.31.21-.73.32-1.25.32-.3,0-.56-.02-.77-.07-.22-.05-.41-.11-.57-.2v-.64c.17.09.38.16.62.24.24.07.49.11.74.11.36,0,.62-.06.78-.17.16-.11.24-.27.24-.46,0-.11-.03-.2-.09-.29-.06-.08-.16-.17-.32-.26-.15-.08-.37-.18-.65-.29-.28-.11-.51-.21-.71-.32-.2-.11-.35-.23-.46-.38-.11-.15-.16-.34-.16-.58,0-.36.15-.64.44-.84s.68-.3,1.16-.3c.26,0,.51.03.73.08s.44.12.64.21l-.24.56c-.18-.07-.37-.14-.57-.19-.2-.05-.4-.08-.61-.08-.29,0-.51.05-.66.14-.15.09-.23.22-.23.38,0,.12.03.22.1.3.07.08.19.16.35.24.16.08.38.17.65.27.27.1.5.21.7.31.19.11.34.24.44.39.1.15.15.34.15.57Z"/>
    <path class="cls-10" d="M297.45,67.85c.36,0,.68.08.94.24s.47.39.61.68c.14.29.21.63.21,1.02v.42h-2.94c.01.49.13.85.37,1.11s.57.38,1,.38c.27,0,.51-.03.72-.08.21-.05.43-.12.65-.22v.62c-.22.1-.44.17-.65.21-.21.04-.47.07-.76.07-.41,0-.77-.08-1.08-.25-.31-.17-.55-.41-.72-.74-.17-.33-.26-.73-.26-1.21s.08-.87.24-1.21.38-.59.66-.78c.29-.18.62-.27,1-.27ZM297.44,68.43c-.34,0-.6.11-.8.32-.19.22-.31.52-.35.9h2.18c0-.36-.09-.66-.26-.88-.17-.23-.43-.34-.78-.34Z"/>
    <path class="cls-10" d="M301.82,72.3c-.53,0-.96-.19-1.28-.56-.32-.37-.48-.92-.48-1.66s.16-1.29.48-1.67.75-.56,1.28-.56c.33,0,.6.06.81.18.21.12.38.27.52.45h.05c-.01-.07-.02-.17-.03-.31-.01-.14-.02-.24-.02-.32v-1.71h.7v6.08h-.57l-.1-.58h-.03c-.13.18-.3.34-.51.46-.21.13-.49.19-.82.19ZM301.93,71.71c.45,0,.77-.12.96-.37s.28-.62.28-1.12v-.13c0-.53-.09-.94-.26-1.23-.18-.29-.5-.43-.98-.43-.38,0-.66.15-.85.45-.19.3-.28.71-.28,1.21s.09.91.28,1.19c.19.28.48.42.86.42Z"/>
    <path class="cls-10" d="M241.28,82.22h-.72v-5.08h-1.78v-.63h4.28v.63h-1.78v5.08Z"/>
    <path class="cls-10" d="M245.48,77.85c.36,0,.68.08.94.24s.47.39.61.68c.14.29.21.63.21,1.02v.42h-2.94c.01.49.13.85.37,1.11s.57.38,1,.38c.27,0,.51-.03.72-.08.21-.05.43-.12.65-.22v.62c-.22.1-.44.17-.65.21-.21.04-.47.07-.76.07-.41,0-.77-.08-1.08-.25-.31-.17-.55-.41-.72-.74-.17-.33-.26-.73-.26-1.21s.08-.87.24-1.21.38-.59.66-.78c.29-.18.62-.27,1-.27ZM245.48,78.43c-.34,0-.6.11-.8.32-.19.22-.31.52-.35.9h2.18c0-.36-.09-.66-.26-.88-.17-.23-.43-.34-.78-.34Z"/>
    <path class="cls-10" d="M253.04,77.85c.49,0,.85.13,1.09.38.24.25.36.65.36,1.2v2.79h-.7v-2.76c0-.68-.29-1.02-.87-1.02-.42,0-.71.12-.89.36-.18.24-.27.59-.27,1.05v2.37h-.7v-2.76c0-.68-.29-1.02-.88-1.02-.43,0-.73.13-.9.4-.17.27-.25.65-.25,1.15v2.22h-.7v-4.29h.57l.1.58h.04c.13-.22.31-.39.54-.5.23-.11.47-.16.72-.16.67,0,1.11.24,1.31.72h.04c.14-.25.34-.43.58-.54.25-.12.51-.18.79-.18Z"/>
    <path class="cls-10" d="M257.44,77.86c.52,0,.91.11,1.16.34.25.23.38.59.38,1.1v2.92h-.51l-.14-.61h-.03c-.19.23-.38.41-.59.52-.21.11-.49.17-.85.17-.39,0-.71-.1-.97-.31-.26-.21-.38-.53-.38-.96s.17-.76.5-.99.85-.36,1.55-.38l.73-.02v-.26c0-.36-.08-.61-.23-.74s-.37-.21-.66-.21c-.22,0-.44.03-.64.1-.2.07-.39.14-.57.23l-.22-.53c.19-.1.41-.19.66-.26.26-.07.52-.11.8-.11ZM258.28,80.12l-.63.02c-.53.02-.9.11-1.11.26-.21.15-.31.36-.31.63,0,.24.07.42.22.53.15.11.33.17.56.17.36,0,.66-.1.9-.3.24-.2.36-.51.36-.92v-.38Z"/>
    <path class="cls-10" d="M263.1,81.03c0,.42-.15.73-.46.94-.31.21-.73.32-1.25.32-.3,0-.56-.02-.77-.07-.22-.05-.41-.11-.57-.2v-.64c.17.09.38.16.62.24.24.07.49.11.74.11.36,0,.62-.06.78-.17.16-.11.24-.27.24-.46,0-.11-.03-.2-.09-.29-.06-.08-.16-.17-.32-.26-.15-.08-.37-.18-.65-.29-.28-.11-.51-.21-.71-.32-.2-.11-.35-.23-.46-.38-.11-.15-.16-.34-.16-.58,0-.36.15-.64.44-.84s.68-.3,1.16-.3c.26,0,.51.03.73.08s.44.12.64.21l-.24.56c-.18-.07-.37-.14-.57-.19-.2-.05-.4-.08-.61-.08-.29,0-.51.05-.66.14-.15.09-.23.22-.23.38,0,.12.03.22.1.3.07.08.19.16.35.24.16.08.38.17.65.27.27.1.5.21.7.31.19.11.34.24.44.39.1.15.15.34.15.57Z"/>
    <path class="cls-10" d="M265.8,77.85c.36,0,.68.08.94.24s.47.39.61.68c.14.29.21.63.21,1.02v.42h-2.94c.01.49.13.85.37,1.11s.57.38,1,.38c.27,0,.51-.03.72-.08.21-.05.43-.12.65-.22v.62c-.22.1-.44.17-.65.21-.21.04-.47.07-.76.07-.41,0-.77-.08-1.08-.25-.31-.17-.55-.41-.72-.74-.17-.33-.26-.73-.26-1.21s.08-.87.24-1.21.38-.59.66-.78c.29-.18.62-.27,1-.27ZM265.79,78.43c-.34,0-.6.11-.8.32-.19.22-.31.52-.35.9h2.18c0-.36-.09-.66-.26-.88-.17-.23-.43-.34-.78-.34Z"/>
    <path class="cls-10" d="M269.35,76.14v3.18c0,.08,0,.2-.01.34,0,.14-.01.26-.02.36h.03s.08-.1.14-.18.13-.16.2-.24c.07-.08.12-.15.17-.2l1.37-1.45h.82l-1.74,1.83,1.86,2.46h-.85l-1.49-2-.49.42v1.58h-.7v-6.08h.7Z"/>
    <path class="cls-10" d="M276.61,76.51c.75,0,1.29.15,1.63.44s.51.71.51,1.24c0,.31-.07.61-.21.88-.14.27-.38.5-.71.67-.33.17-.79.26-1.36.26h-.66v2.22h-.72v-5.71h1.51ZM276.55,77.12h-.73v2.26h.58c.54,0,.95-.09,1.22-.26s.4-.47.4-.9c0-.37-.12-.64-.36-.82-.24-.18-.61-.27-1.11-.27Z"/>
    <path class="cls-10" d="M283.57,80.07c0,.71-.18,1.26-.54,1.65-.36.39-.85.58-1.46.58-.38,0-.72-.09-1.01-.26-.3-.17-.53-.43-.7-.76-.17-.33-.26-.74-.26-1.21,0-.71.18-1.26.53-1.64.35-.38.84-.58,1.46-.58.38,0,.73.09,1.02.26.3.17.53.42.7.75.17.33.25.73.25,1.2ZM280.33,80.07c0,.51.1.91.3,1.2.2.3.52.44.96.44s.75-.15.95-.44c.2-.3.3-.7.3-1.2s-.1-.9-.3-1.19c-.2-.29-.52-.43-.96-.43s-.75.14-.95.43c-.2.29-.3.69-.3,1.19Z"/>
    <path class="cls-10" d="M286.68,77.85c.08,0,.17,0,.26.01s.17.02.25.04l-.09.65c-.07-.02-.15-.03-.23-.04-.08-.01-.16-.02-.23-.02-.22,0-.42.06-.62.18-.19.12-.35.29-.46.5-.11.22-.17.47-.17.76v2.29h-.7v-4.29h.58l.08.78h.03c.13-.23.31-.44.53-.61.22-.17.48-.26.78-.26Z"/>
    <path class="cls-10" d="M289.42,81.72c.11,0,.22,0,.33-.02s.2-.04.27-.06v.54c-.07.04-.18.07-.32.09s-.27.04-.4.04c-.22,0-.43-.04-.62-.12-.19-.08-.34-.21-.46-.4-.12-.19-.18-.46-.18-.81v-2.5h-.61v-.34l.62-.28.28-.91h.42v.98h1.24v.54h-1.24v2.48c0,.26.06.46.19.58.13.13.29.19.48.19Z"/>
    <path class="cls-10" d="M292.85,78.47h-1.08v3.74h-.7v-3.74h-.75v-.33l.75-.24v-.25c0-.55.12-.95.36-1.2s.59-.36,1.03-.36c.17,0,.32.01.46.04.14.03.27.06.37.1l-.18.55c-.09-.03-.18-.05-.3-.08-.11-.03-.23-.04-.34-.04-.23,0-.41.08-.52.24-.11.16-.17.4-.17.74v.28h1.08v.54Z"/>
    <path class="cls-10" d="M297.36,80.07c0,.71-.18,1.26-.54,1.65-.36.39-.85.58-1.46.58-.38,0-.72-.09-1.01-.26-.3-.17-.53-.43-.7-.76-.17-.33-.26-.74-.26-1.21,0-.71.18-1.26.53-1.64.35-.38.84-.58,1.46-.58.38,0,.73.09,1.02.26.3.17.53.42.7.75.17.33.25.73.25,1.2ZM294.11,80.07c0,.51.1.91.3,1.2.2.3.52.44.96.44s.75-.15.95-.44c.2-.3.3-.7.3-1.2s-.1-.9-.3-1.19c-.2-.29-.52-.43-.96-.43s-.75.14-.95.43c-.2.29-.3.69-.3,1.19Z"/>
    <path class="cls-10" d="M299.17,82.22h-.7v-6.08h.7v6.08Z"/>
    <path class="cls-10" d="M300.89,76.32c.11,0,.2.04.28.11.08.07.12.19.12.34s-.04.27-.12.34c-.08.07-.18.11-.28.11-.12,0-.22-.04-.3-.11-.08-.07-.12-.19-.12-.34s.04-.27.12-.34c.08-.07.18-.11.3-.11ZM301.23,77.93v4.29h-.7v-4.29h.7Z"/>
    <path class="cls-10" d="M306.32,80.07c0,.71-.18,1.26-.54,1.65-.36.39-.85.58-1.46.58-.38,0-.72-.09-1.01-.26-.3-.17-.53-.43-.7-.76-.17-.33-.26-.74-.26-1.21,0-.71.18-1.26.53-1.64.35-.38.84-.58,1.46-.58.38,0,.73.09,1.02.26.3.17.53.42.7.75.17.33.25.73.25,1.2ZM303.08,80.07c0,.51.1.91.3,1.2.2.3.52.44.96.44s.75-.15.95-.44c.2-.3.3-.7.3-1.2s-.1-.9-.3-1.19c-.2-.29-.52-.43-.96-.43s-.75.14-.95.43c-.2.29-.3.69-.3,1.19Z"/>
    <path class="cls-10" d="M254.88,87.06c-.61,0-1.1.21-1.45.62s-.53.97-.53,1.69.16,1.27.49,1.68c.33.41.82.62,1.48.62.25,0,.48-.02.7-.06.22-.04.45-.1.66-.16v.62c-.21.08-.43.14-.66.18s-.5.06-.81.06c-.58,0-1.07-.12-1.46-.36-.39-.24-.68-.58-.88-1.02-.19-.44-.29-.96-.29-1.56s.11-1.08.32-1.52c.21-.44.52-.78.93-1.03s.91-.37,1.5-.37,1.13.11,1.58.34l-.29.61c-.18-.08-.37-.15-.59-.22-.22-.06-.45-.1-.71-.1Z"/>
    <path class="cls-10" d="M261.12,90.07c0,.71-.18,1.26-.54,1.65-.36.39-.85.58-1.46.58-.38,0-.72-.09-1.01-.26-.3-.17-.53-.43-.7-.76-.17-.33-.26-.74-.26-1.21,0-.71.18-1.26.53-1.64.35-.38.84-.58,1.46-.58.38,0,.73.09,1.02.26.3.17.53.42.7.75.17.33.25.73.25,1.2ZM257.88,90.07c0,.51.1.91.3,1.2.2.3.52.44.96.44s.75-.15.95-.44c.2-.3.3-.7.3-1.2s-.1-.9-.3-1.19c-.2-.29-.52-.43-.96-.43s-.75.14-.95.43c-.2.29-.3.69-.3,1.19Z"/>
    <path class="cls-10" d="M266.94,87.85c.49,0,.85.13,1.09.38.24.25.36.65.36,1.2v2.79h-.7v-2.76c0-.68-.29-1.02-.87-1.02-.42,0-.71.12-.89.36-.18.24-.27.59-.27,1.05v2.37h-.7v-2.76c0-.68-.29-1.02-.88-1.02-.43,0-.73.13-.9.4-.17.27-.25.65-.25,1.15v2.22h-.7v-4.29h.57l.1.58h.04c.13-.22.31-.39.54-.5.23-.11.47-.16.72-.16.67,0,1.11.24,1.31.72h.04c.14-.25.34-.43.58-.54.25-.12.51-.18.79-.18Z"/>
    <path class="cls-10" d="M271.76,87.85c.53,0,.95.18,1.28.55.32.37.48.92.48,1.66s-.16,1.29-.48,1.66c-.32.38-.75.57-1.28.57-.33,0-.6-.06-.82-.18-.22-.12-.39-.27-.51-.44h-.05c0,.09.01.21.03.34.01.14.02.26.02.36v1.76h-.7v-6.21h.58l.1.58h.03c.13-.19.3-.34.5-.47.21-.13.48-.19.83-.19ZM271.63,88.44c-.44,0-.75.12-.93.37-.18.25-.27.62-.28,1.12v.14c0,.53.09.93.26,1.22.17.29.49.43.96.43.26,0,.47-.07.64-.21.17-.14.3-.34.38-.59.08-.25.12-.54.12-.86,0-.49-.09-.88-.28-1.18-.19-.29-.48-.44-.88-.44Z"/>
    <path class="cls-10" d="M276.26,87.86c.52,0,.91.11,1.16.34.25.23.38.59.38,1.1v2.92h-.51l-.14-.61h-.03c-.19.23-.38.41-.59.52-.21.11-.49.17-.85.17-.39,0-.71-.1-.97-.31-.26-.21-.38-.53-.38-.96s.17-.76.5-.99.85-.36,1.55-.38l.73-.02v-.26c0-.36-.08-.61-.23-.74s-.37-.21-.66-.21c-.22,0-.44.03-.64.1-.2.07-.39.14-.57.23l-.22-.53c.19-.1.41-.19.66-.26.26-.07.52-.11.8-.11ZM277.1,90.12l-.63.02c-.53.02-.9.11-1.11.26-.21.15-.31.36-.31.63,0,.24.07.42.22.53.15.11.33.17.56.17.36,0,.66-.1.9-.3.24-.2.36-.51.36-.92v-.38Z"/>
    <path class="cls-10" d="M281.19,87.85c.51,0,.9.13,1.16.38.26.25.39.65.39,1.2v2.79h-.7v-2.74c0-.69-.32-1.03-.96-1.03-.48,0-.8.13-.98.4-.18.27-.27.65-.27,1.15v2.22h-.7v-4.29h.57l.1.58h.04c.14-.22.33-.39.58-.5.25-.11.5-.16.78-.16Z"/>
    <path class="cls-10" d="M284.43,86.32c.11,0,.2.04.28.11.08.07.12.19.12.34s-.04.27-.12.34c-.08.07-.18.11-.28.11-.12,0-.22-.04-.3-.11-.08-.07-.12-.19-.12-.34s.04-.27.12-.34c.08-.07.18-.11.3-.11ZM284.77,87.93v4.29h-.7v-4.29h.7Z"/>
    <path class="cls-10" d="M287.79,87.85c.36,0,.68.08.94.24s.47.39.61.68c.14.29.21.63.21,1.02v.42h-2.94c.01.49.13.85.37,1.11s.57.38,1,.38c.27,0,.51-.03.72-.08.21-.05.43-.12.65-.22v.62c-.22.1-.44.17-.65.21-.21.04-.47.07-.76.07-.41,0-.77-.08-1.08-.25-.31-.17-.55-.41-.72-.74-.17-.33-.26-.73-.26-1.21s.08-.87.24-1.21.38-.59.66-.78c.29-.18.62-.27,1-.27ZM287.78,88.43c-.34,0-.6.11-.8.32-.19.22-.31.52-.35.9h2.18c0-.36-.09-.66-.26-.88-.17-.23-.43-.34-.78-.34Z"/>
    <path class="cls-10" d="M293.43,91.03c0,.42-.15.73-.46.94-.31.21-.73.32-1.25.32-.3,0-.56-.02-.77-.07-.22-.05-.41-.11-.57-.2v-.64c.17.09.38.16.62.24.24.07.49.11.74.11.36,0,.62-.06.78-.17.16-.11.24-.27.24-.46,0-.11-.03-.2-.09-.29-.06-.08-.16-.17-.32-.26-.15-.08-.37-.18-.65-.29-.28-.11-.51-.21-.71-.32-.2-.11-.35-.23-.46-.38-.11-.15-.16-.34-.16-.58,0-.36.15-.64.44-.84s.68-.3,1.16-.3c.26,0,.51.03.73.08s.44.12.64.21l-.24.56c-.18-.07-.37-.14-.57-.19-.2-.05-.4-.08-.61-.08-.29,0-.51.05-.66.14-.15.09-.23.22-.23.38,0,.12.03.22.1.3.07.08.19.16.35.24.16.08.38.17.65.27.27.1.5.21.7.31.19.11.34.24.44.39.1.15.15.34.15.57Z"/>
  </g>
  <rect class="cls-1" x="222.8" y="58.14" width="15.95" height="23.91"/>
  <rect class="cls-1" x="306.34" y="58.14" width="15.95" height="23.91"/>
  <g>
    <path class="cls-9" d="M274.51,165.24c0,.43-.08.83-.24,1.22-.16.38-.39.73-.7,1.04-.3.3-.65.53-1.03.69-.39.16-.79.24-1.22.24s-.84-.08-1.23-.24c-.39-.16-.73-.39-1.03-.69-.3-.31-.54-.65-.7-1.04-.16-.38-.24-.79-.24-1.22s.08-.83.24-1.22.39-.73.7-1.04c.3-.3.65-.53,1.03-.69.39-.16.79-.24,1.22-.24s.83.08,1.22.24c.38.16.73.39,1.04.7.3.31.54.65.7,1.04s.24.79.24,1.22Z"/>
    <g>
      <path d="M281.78,168.1l-.76-1.97h-2.37l-.78,1.97h-.47l2.24-5.73h.43l2.19,5.73h-.49ZM280.88,165.71l-.77-2.06c-.02-.07-.06-.19-.11-.35s-.1-.3-.14-.42c-.04.14-.09.28-.14.42-.05.14-.09.26-.12.36l-.79,2.06h2.07Z"/>
      <path d="M287.51,163.76c.42,0,.75.12.99.36.24.24.36.62.36,1.14v2.84h-.45v-2.82c0-.38-.09-.67-.26-.85-.17-.18-.41-.27-.7-.27-.41,0-.72.12-.94.36s-.33.6-.33,1.1v2.48h-.45v-2.82c0-.38-.09-.67-.26-.85-.17-.18-.41-.27-.7-.27-.41,0-.72.12-.94.37-.22.25-.33.63-.33,1.15v2.42h-.45v-4.26h.37l.06.67h.03c.11-.21.27-.39.48-.53.22-.15.49-.22.83-.22.31,0,.57.07.78.2.21.13.36.33.45.6h.03c.12-.26.3-.45.54-.59.25-.14.53-.21.86-.21Z"/>
      <path d="M291.92,163.76c.36,0,.67.08.91.25s.43.4.55.69c.12.29.18.63.18,1.01v.32h-3.04c0,.56.13.99.39,1.29.26.3.64.45,1.13.45.27,0,.5-.02.7-.06s.41-.12.65-.22v.42c-.21.1-.42.17-.63.21-.21.04-.45.06-.73.06-.63,0-1.12-.19-1.46-.58s-.51-.92-.51-1.59c0-.43.07-.82.22-1.16.15-.34.36-.6.64-.8.28-.19.61-.29,1.01-.29ZM291.91,164.15c-.39,0-.71.13-.95.39-.24.26-.39.63-.43,1.11h2.55c0-.45-.09-.81-.28-1.09-.19-.28-.49-.42-.89-.42Z"/>
      <path d="M296.55,163.77c.22,0,.42.02.58.07l-.06.42c-.09-.02-.17-.04-.26-.05-.09-.01-.18-.02-.27-.02-.4,0-.71.14-.93.43-.23.29-.34.67-.34,1.14v2.34h-.46v-4.26h.38l.05.8h.02c.11-.24.27-.45.48-.62.22-.17.48-.26.8-.26Z"/>
      <path d="M298.27,162.27c.21,0,.32.12.32.34s-.11.35-.32.35-.3-.12-.3-.35.1-.34.3-.34ZM298.49,163.84v4.26h-.45v-4.26h.45Z"/>
      <path d="M301.69,168.18c-.62,0-1.11-.19-1.44-.57-.34-.38-.51-.92-.51-1.61,0-.48.08-.88.26-1.21.17-.33.41-.59.72-.76.31-.17.66-.26,1.07-.26.21,0,.4.02.58.06.18.04.34.09.48.15l-.13.4c-.3-.13-.61-.2-.93-.2-.5,0-.89.16-1.16.49-.27.33-.41.77-.41,1.33s.12.97.36,1.3c.24.33.61.5,1.11.5.21,0,.41-.02.6-.06s.35-.1.5-.17v.41c-.14.07-.3.12-.48.16-.18.04-.39.06-.62.06Z"/>
      <path d="M305.39,163.77c.48,0,.84.12,1.07.35.23.23.35.6.35,1.11v2.86h-.34l-.09-.72h-.02c-.15.24-.34.43-.56.58-.22.15-.53.22-.93.22s-.73-.1-.96-.3c-.24-.2-.36-.5-.36-.89,0-.42.17-.74.52-.97.34-.22.85-.35,1.52-.38l.78-.04v-.3c0-.42-.08-.72-.25-.89-.17-.17-.42-.26-.74-.26-.22,0-.43.03-.63.08-.2.06-.41.14-.61.24l-.14-.37c.2-.1.42-.18.66-.25.24-.06.49-.1.74-.1ZM306.36,165.95l-.72.03c-.54.02-.95.11-1.22.28s-.4.41-.4.73c0,.26.08.46.25.6.17.14.39.2.68.2.44,0,.79-.13,1.03-.38.24-.25.37-.6.38-1.06v-.41Z"/>
      <path d="M310.93,166.97c0,.39-.14.69-.43.9-.29.21-.69.31-1.22.31-.3,0-.56-.03-.79-.08s-.42-.12-.57-.19v-.44c.19.1.4.17.64.24.24.06.49.09.74.09.42,0,.72-.07.9-.21.19-.14.28-.33.28-.58s-.1-.42-.29-.54c-.19-.13-.49-.25-.88-.39-.26-.09-.49-.18-.69-.27-.2-.09-.36-.21-.47-.36-.11-.15-.17-.34-.17-.6,0-.34.14-.61.42-.8.28-.19.65-.29,1.11-.29.26,0,.49.03.72.08.22.05.42.11.6.19l-.16.38c-.17-.07-.35-.14-.56-.18s-.42-.07-.62-.07c-.34,0-.6.06-.78.18-.19.12-.28.29-.28.51,0,.17.05.3.14.4.09.1.22.18.39.26.17.07.38.15.62.24.25.09.48.18.68.27.21.1.37.22.49.37.12.15.18.35.18.6Z"/>
    </g>
  </g>
  <g>
    <path class="cls-12" d="M332.53,76.63c.3,0,.57.06.81.17s.43.29.56.51.21.5.21.83c0,.54-.17.97-.5,1.28s-.83.47-1.49.47c-.26,0-.51-.02-.74-.07-.23-.05-.43-.11-.61-.2v-.91c.17.09.38.17.62.23.24.06.47.09.69.09.31,0,.55-.06.72-.19.17-.13.25-.33.25-.6,0-.5-.33-.76-1-.76-.13,0-.27.01-.41.04s-.26.05-.35.07l-.42-.22.19-2.55h2.71v.9h-1.79l-.09.98c.08-.01.17-.03.26-.05.09-.02.22-.02.38-.02Z"/>
    <path class="cls-12" d="M338.66,78.78h-.6v1.04h-1.03v-1.04h-2.13v-.74l2.19-3.23h.97v3.14h.6v.82ZM337.03,77.96v-.85c0-.11,0-.24,0-.39s.01-.3.02-.43c0-.13.01-.22.02-.26h-.03c-.04.09-.09.18-.14.27-.05.09-.1.18-.17.27l-.92,1.39h1.2Z"/>
  </g>
  <g>
    <path class="cls-12" d="M230.59,120.33h-1.06v-2.89c0-.12,0-.27,0-.47,0-.2.01-.37.02-.52-.02.03-.07.08-.15.15-.08.07-.15.14-.21.19l-.57.46-.51-.64,1.61-1.28h.87v5Z"/>
    <path class="cls-12" d="M233.81,117.13c.3,0,.57.06.81.17.24.12.43.29.56.51s.21.5.21.83c0,.54-.17.97-.5,1.28s-.83.47-1.49.47c-.26,0-.51-.02-.74-.07-.23-.05-.43-.11-.61-.2v-.91c.17.09.38.17.62.23.24.06.47.09.69.09.31,0,.55-.06.72-.19.17-.13.25-.33.25-.6,0-.5-.33-.76-1-.76-.13,0-.27.01-.41.04s-.26.05-.35.07l-.42-.22.19-2.55h2.71v.9h-1.79l-.09.98c.08-.01.17-.03.26-.05.09-.02.22-.02.38-.02Z"/>
  </g>
  <g>
    <path class="cls-12" d="M208.9,69.52h-1.06v-2.89c0-.12,0-.27,0-.47,0-.2.01-.37.02-.52-.02.03-.07.08-.15.15-.08.07-.15.14-.21.19l-.57.46-.51-.64,1.61-1.28h.87v5Z"/>
    <path class="cls-12" d="M213.88,68.49h-.6v1.04h-1.03v-1.04h-2.13v-.74l2.19-3.23h.97v3.14h.6v.82ZM212.25,67.67v-.85c0-.11,0-.24,0-.39s.01-.3.02-.43c0-.13.01-.22.02-.26h-.03c-.04.09-.09.18-.14.27-.05.09-.1.18-.17.27l-.92,1.39h1.2Z"/>
  </g>
  <path class="cls-12" d="M223.02,33.27l1.88-4.11h-2.46v-.89h3.58v.67l-1.89,4.33h-1.11Z"/>
  <path class="cls-12" d="M241.84,15.23c0-.28.02-.57.06-.85.04-.28.12-.55.22-.8.11-.25.25-.47.44-.67.19-.19.43-.35.72-.46.29-.11.65-.16,1.06-.16.1,0,.21,0,.34.01s.24.02.33.04v.85c-.09-.02-.19-.03-.29-.05-.11-.01-.21-.02-.31-.02-.42,0-.74.07-.96.2-.23.13-.39.31-.48.55s-.15.51-.16.82h.04c.09-.16.23-.3.4-.41.18-.11.4-.17.68-.17.44,0,.79.14,1.04.41s.39.67.39,1.17c0,.54-.15.97-.46,1.27-.31.31-.72.46-1.24.46-.34,0-.65-.08-.92-.23-.28-.16-.5-.4-.66-.72-.16-.32-.25-.74-.25-1.24ZM243.64,16.58c.21,0,.37-.07.5-.21s.2-.36.2-.66c0-.24-.06-.43-.17-.57-.11-.14-.28-.21-.51-.21-.16,0-.3.04-.41.11s-.2.16-.27.26-.1.21-.1.33c0,.15.03.31.08.46s.14.27.26.37c.11.1.25.14.42.14Z"/>
  <path class="cls-12" d="M265.84,9.86h-.6v1.04h-1.03v-1.04h-2.13v-.74l2.19-3.23h.97v3.14h.6v.82ZM264.21,9.04v-.85c0-.11,0-.24,0-.39s.01-.3.02-.43c0-.13.01-.22.02-.26h-.03c-.04.09-.09.18-.14.27-.05.09-.1.18-.17.27l-.92,1.39h1.2Z"/>
  <line class="cls-1" x1="262.86" y1="1.13" x2="265.04" y2="15.67"/>
  <line class="cls-1" x1="240.17" y1="8.4" x2="247.03" y2="21.33"/>
  <line class="cls-1" x1="218.63" y1="26.23" x2="229.81" y2="35.31"/>
  <line class="cls-1" x1="327.49" y1="76.49" x2="342.77" y2="78.23"/>
  <line class="cls-1" x1="236.56" y1="112.34" x2="227.01" y2="123.34"/>
  <line class="cls-1" x1="217.35" y1="67.4" x2="202.81" y2="66.64"/>
</svg>