<?xml version="1.0" encoding="UTF-8"?>
<svg id="Layer_1" data-name="Layer 1" xmlns="http://www.w3.org/2000/svg" viewBox="0 0 545 172">
  <defs>
    <style>
      .cls-1, .cls-2 {
        fill: none;
      }

      .cls-3, .cls-2, .cls-4, .cls-5, .cls-6 {
        stroke-miterlimit: 10;
      }

      .cls-3, .cls-7 {
        fill: #633169;
      }

      .cls-3, .cls-4, .cls-5, .cls-6 {
        fill-rule: evenodd;
        stroke: #fff;
      }

      .cls-8, .cls-5 {
        fill: #c5d58a;
      }

      .cls-9, .cls-4 {
        fill: #33aba6;
      }

      .cls-2 {
        stroke: #d3d3d2;
        stroke-dasharray: 1.5 1;
        stroke-width: 2px;
      }

      .cls-10 {
        fill: #fff;
      }

      .cls-11, .cls-6 {
        fill: #22b7e9;
      }
    </style>
  </defs>
  <g>
    <path class="cls-6" d="M273.18,70.79l-65.87,23.95c-13.24-36.34,5.52-76.53,41.89-89.76,7.75-2.82,15.73-4.22,23.97-4.22v70.03Z"/>
    <path class="cls-5" d="M273.18,70.79l-29.62,63.47c-17.58-8.19-29.61-21.31-36.24-39.52l65.87-23.95Z"/>
    <path class="cls-4" d="M273.18,70.79l67.71,18.13c-10.02,37.36-48.46,59.53-85.85,49.52-4.19-1.12-7.55-2.34-11.48-4.18l29.62-63.47Z"/>
    <path class="cls-3" d="M273.18,70.79V.76c38.71,0,70.1,31.35,70.1,70.03,0,6.65-.67,11.7-2.39,18.13l-67.71-18.13Z"/>
  </g>
  <g>
    <g>
      <g>
        <path class="cls-7" d="M117.7,152.53c0,.43-.08.83-.24,1.22-.16.38-.39.73-.7,1.04-.3.3-.65.53-1.03.69-.39.16-.79.24-1.22.24s-.84-.08-1.23-.24c-.39-.16-.73-.39-1.03-.69-.3-.31-.54-.65-.7-1.04-.16-.38-.24-.79-.24-1.22s.08-.83.24-1.22.39-.73.7-1.04c.3-.3.65-.53,1.03-.69.39-.16.79-.24,1.22-.24s.83.08,1.22.24c.38.16.73.39,1.04.7.3.31.54.65.7,1.04s.24.79.24,1.22Z"/>
        <g>
          <path d="M124.14,153.9c0,.34-.08.63-.26.86-.17.23-.41.41-.7.53-.3.12-.64.18-1.02.18-.34,0-.64-.02-.9-.07s-.47-.11-.66-.18v-.46c.2.08.44.15.71.21s.56.09.88.09c.44,0,.79-.09,1.07-.28.27-.19.41-.47.41-.84,0-.22-.05-.41-.16-.56-.1-.15-.26-.28-.48-.38-.22-.11-.49-.22-.83-.33-.32-.11-.6-.23-.82-.36-.23-.13-.41-.3-.53-.5s-.18-.45-.18-.76.08-.58.24-.79c.16-.21.37-.38.65-.49s.59-.17.94-.17c.28,0,.54.03.79.08.25.05.49.13.71.22l-.16.4c-.45-.19-.9-.29-1.36-.29-.39,0-.72.09-.96.26-.25.17-.37.43-.37.76,0,.25.05.44.16.59s.26.27.46.37c.2.1.45.2.74.3.34.12.62.24.87.37.24.13.43.29.56.48.13.19.2.44.2.74Z"/>
          <path d="M125.56,149.56c.21,0,.32.12.32.34s-.11.35-.32.35-.3-.12-.3-.35.1-.34.3-.34ZM125.78,151.13v4.26h-.45v-4.26h.45Z"/>
          <path d="M129.18,151.05c.49,0,.86.12,1.11.38.26.25.38.64.38,1.18v2.78h-.46v-2.75c0-.41-.09-.7-.28-.9-.18-.19-.45-.29-.81-.29-.94,0-1.41.54-1.41,1.62v2.32h-.45v-4.26h.37l.06.74h.03c.11-.24.29-.43.53-.58.24-.16.54-.23.91-.23Z"/>
          <path d="M133.69,151.05c.34,0,.61.06.84.19.22.13.4.31.53.54h.02l.07-.65h.37v4.39c0,.56-.14,1-.43,1.31-.29.31-.75.47-1.4.47-.32,0-.6-.03-.85-.08-.25-.05-.47-.12-.67-.21v-.44c.2.1.43.18.69.24.26.06.54.09.84.09.46,0,.81-.12,1.03-.37s.33-.58.33-1v-.25c0-.11,0-.22,0-.34s.01-.22.02-.33h-.02c-.12.28-.3.49-.54.62s-.54.21-.88.21c-.55,0-.99-.19-1.29-.56-.31-.37-.46-.91-.46-1.62s.15-1.23.46-1.64c.31-.4.75-.6,1.34-.6ZM133.74,151.45c-.46,0-.8.16-1.03.48-.23.32-.34.78-.34,1.36s.11,1.02.34,1.33c.23.3.56.46.99.46.35,0,.63-.07.83-.22.2-.14.34-.34.43-.59.08-.25.13-.54.13-.86v-.27c0-.54-.1-.96-.3-1.26-.2-.29-.55-.44-1.04-.44Z"/>
          <path d="M138.52,151.06c.48,0,.84.12,1.07.35.24.23.35.6.35,1.11v2.86h-.34l-.09-.72h-.02c-.15.24-.34.43-.56.58-.22.15-.53.22-.93.22s-.73-.1-.96-.3c-.24-.2-.36-.5-.36-.89,0-.42.17-.74.52-.97s.85-.35,1.52-.38l.78-.04v-.3c0-.42-.08-.72-.25-.89-.17-.17-.42-.26-.74-.26-.22,0-.43.03-.63.08-.2.06-.41.14-.61.24l-.14-.37c.2-.1.42-.18.66-.25.24-.06.49-.1.74-.1ZM139.5,153.25l-.72.03c-.54.02-.95.11-1.22.28s-.4.41-.4.73c0,.26.08.46.25.6s.39.2.68.2c.44,0,.79-.13,1.03-.38.24-.25.37-.6.38-1.06v-.41Z"/>
          <path d="M143.3,151.05c.54,0,.97.18,1.28.55s.46.91.46,1.64-.16,1.28-.48,1.66c-.32.38-.75.57-1.3.57-.38,0-.68-.08-.91-.24-.23-.16-.39-.35-.5-.58h-.03c0,.14.01.29.02.44s.01.3.01.44v1.74h-.46v-6.14h.38l.06.8h.02c.11-.23.28-.44.51-.62.23-.18.54-.26.94-.26ZM143.23,151.45c-.47,0-.82.15-1.04.44-.22.3-.34.72-.34,1.28v.08c0,.61.11,1.06.33,1.36.22.3.56.45,1.02.45s.77-.16,1.01-.49.35-.78.35-1.36-.11-1.01-.33-1.32c-.22-.31-.55-.46-1-.46Z"/>
          <path d="M149.83,153.26c0,.44-.07.83-.22,1.16-.15.33-.36.59-.65.77-.29.18-.63.28-1.04.28s-.73-.09-1.02-.27c-.28-.18-.5-.44-.65-.77-.15-.33-.23-.72-.23-1.17,0-.69.17-1.23.52-1.62s.81-.58,1.41-.58c.41,0,.75.09,1.03.28.28.18.49.44.64.77.14.33.22.72.22,1.16ZM146.5,153.26c0,.54.11.98.34,1.32.23.33.59.5,1.08.5s.86-.17,1.09-.5c.23-.33.35-.77.35-1.32,0-.35-.05-.66-.14-.94-.1-.27-.25-.48-.46-.64-.21-.15-.48-.23-.82-.23-.49,0-.85.16-1.09.48-.24.32-.36.76-.36,1.33Z"/>
          <path d="M152.82,151.06c.22,0,.42.02.58.07l-.06.42c-.08-.02-.17-.04-.26-.05s-.18-.02-.27-.02c-.4,0-.71.14-.93.43-.23.29-.34.67-.34,1.14v2.34h-.46v-4.26h.38l.05.8h.02c.11-.24.27-.45.48-.62.22-.17.48-.26.8-.26Z"/>
          <path d="M155.94,151.05c.36,0,.67.08.91.25s.43.4.55.69c.12.29.18.63.18,1.01v.32h-3.04c0,.56.13.99.39,1.29.26.3.64.45,1.13.45.27,0,.5-.02.7-.06s.41-.12.65-.22v.42c-.21.1-.42.17-.63.21-.21.04-.45.06-.73.06-.63,0-1.12-.19-1.46-.58-.34-.39-.51-.92-.51-1.59,0-.43.07-.82.22-1.16.15-.34.36-.6.64-.8.28-.19.61-.29,1.01-.29ZM155.93,151.44c-.39,0-.71.13-.95.39-.24.26-.39.63-.43,1.11h2.55c0-.45-.09-.81-.28-1.09s-.49-.42-.89-.42Z"/>
          <path d="M158.44,153.44v-.42h1.94v.42h-1.94Z"/>
          <path d="M161.93,149.31v1.68c0,.15,0,.31,0,.49,0,.18-.01.32-.02.42h.03c.11-.24.28-.44.52-.6.24-.16.55-.24.92-.24.55,0,.98.19,1.28.56.3.37.46.92.46,1.64,0,.67-.15,1.21-.46,1.61-.31.4-.75.6-1.34.6-.36,0-.65-.08-.88-.22-.23-.15-.39-.33-.5-.54h-.04l-.08.69h-.34v-6.08h.46ZM163.33,151.44c-.5,0-.85.16-1.07.46-.22.31-.32.76-.32,1.34v.06c0,.58.1,1.01.31,1.32.21.3.54.45,1.02.45s.8-.16,1.04-.48c.23-.32.35-.77.35-1.36,0-1.2-.44-1.8-1.32-1.8Z"/>
          <path d="M167.87,151.06c.48,0,.84.12,1.07.35.24.23.35.6.35,1.11v2.86h-.34l-.09-.72h-.02c-.15.24-.34.43-.56.58-.22.15-.53.22-.93.22s-.73-.1-.96-.3c-.24-.2-.36-.5-.36-.89,0-.42.17-.74.52-.97s.85-.35,1.52-.38l.78-.04v-.3c0-.42-.08-.72-.25-.89-.17-.17-.42-.26-.74-.26-.22,0-.43.03-.63.08-.2.06-.41.14-.61.24l-.14-.37c.2-.1.42-.18.66-.25.24-.06.49-.1.74-.1ZM168.85,153.25l-.72.03c-.54.02-.95.11-1.22.28s-.4.41-.4.73c0,.26.08.46.25.6s.39.2.68.2c.44,0,.79-.13,1.03-.38.24-.25.37-.6.38-1.06v-.41Z"/>
          <path d="M173.42,154.26c0,.39-.14.69-.43.9-.29.21-.69.31-1.22.31-.3,0-.56-.03-.79-.08s-.42-.12-.57-.19v-.44c.19.1.4.17.64.24.24.06.49.09.74.09.42,0,.72-.07.9-.21.19-.14.28-.33.28-.58s-.1-.42-.29-.54c-.19-.13-.49-.25-.88-.39-.26-.09-.49-.18-.69-.27-.2-.09-.36-.21-.47-.36-.11-.15-.17-.34-.17-.6,0-.34.14-.61.42-.8.28-.19.65-.29,1.11-.29.26,0,.49.03.72.08s.42.11.6.19l-.16.38c-.17-.07-.35-.14-.56-.18s-.42-.07-.62-.07c-.34,0-.6.06-.78.18-.19.12-.28.29-.28.51,0,.17.04.3.14.4s.22.18.39.26c.17.07.38.15.62.24.25.09.48.18.68.27.21.1.37.22.49.37.12.15.18.35.18.6Z"/>
          <path d="M176.19,151.05c.36,0,.67.08.91.25s.43.4.55.69c.12.29.18.63.18,1.01v.32h-3.04c0,.56.13.99.39,1.29.26.3.64.45,1.13.45.27,0,.5-.02.7-.06s.41-.12.65-.22v.42c-.21.1-.42.17-.63.21-.21.04-.45.06-.73.06-.63,0-1.12-.19-1.46-.58-.34-.39-.51-.92-.51-1.59,0-.43.07-.82.22-1.16s.36-.6.64-.8c.28-.19.61-.29,1.01-.29ZM176.18,151.44c-.39,0-.71.13-.95.39-.24.26-.38.63-.43,1.11h2.55c0-.45-.09-.81-.28-1.09-.19-.28-.49-.42-.89-.42Z"/>
          <path d="M180.61,155.47c-.57,0-1.01-.18-1.32-.55s-.46-.9-.46-1.61.16-1.3.48-1.68c.32-.38.77-.58,1.33-.58.36,0,.65.08.87.23.22.15.39.35.5.58h.03c0-.13-.01-.27-.02-.42,0-.15-.01-.29-.01-.41v-1.73h.46v6.08h-.37l-.06-.74h-.02c-.11.22-.28.42-.5.58s-.53.24-.9.24ZM180.66,155.08c.49,0,.84-.15,1.05-.45s.31-.73.31-1.29v-.08c0-.59-.1-1.04-.31-1.35-.21-.31-.55-.47-1.02-.47s-.8.16-1.04.48c-.23.32-.35.78-.35,1.38s.11,1.02.34,1.32.57.45,1.02.45Z"/>
          <path d="M187.77,155.39h-.46v-5.3h-1.84v-.42h4.14v.42h-1.84v5.3Z"/>
          <path d="M192.07,151.05c.36,0,.67.08.91.25s.43.4.55.69c.12.29.18.63.18,1.01v.32h-3.04c0,.56.13.99.39,1.29.26.3.64.45,1.13.45.27,0,.5-.02.7-.06s.41-.12.65-.22v.42c-.21.1-.42.17-.63.21-.21.04-.45.06-.73.06-.63,0-1.12-.19-1.46-.58-.34-.39-.51-.92-.51-1.59,0-.43.07-.82.22-1.16s.36-.6.64-.8c.28-.19.61-.29,1.01-.29ZM192.06,151.44c-.39,0-.71.13-.95.39-.24.26-.38.63-.43,1.11h2.55c0-.45-.09-.81-.28-1.09-.19-.28-.49-.42-.89-.42Z"/>
          <path d="M199.41,151.05c.42,0,.75.12.99.36.24.24.36.62.36,1.14v2.84h-.45v-2.82c0-.38-.09-.67-.26-.85-.17-.18-.41-.27-.7-.27-.41,0-.72.12-.94.36s-.33.6-.33,1.1v2.48h-.45v-2.82c0-.38-.09-.67-.26-.85-.17-.18-.41-.27-.7-.27-.41,0-.72.12-.94.37-.22.25-.33.63-.33,1.15v2.42h-.45v-4.26h.37l.06.67h.03c.11-.21.27-.39.48-.53.22-.15.49-.22.83-.22.31,0,.57.07.78.2.21.13.36.33.45.6h.03c.12-.26.3-.45.54-.59.25-.14.53-.21.86-.21Z"/>
          <path d="M203.7,151.06c.48,0,.84.12,1.07.35.24.23.35.6.35,1.11v2.86h-.34l-.09-.72h-.02c-.15.24-.34.43-.56.58-.22.15-.53.22-.93.22s-.73-.1-.96-.3c-.24-.2-.36-.5-.36-.89,0-.42.17-.74.52-.97s.85-.35,1.52-.38l.78-.04v-.3c0-.42-.08-.72-.25-.89-.17-.17-.42-.26-.74-.26-.22,0-.43.03-.63.08-.2.06-.41.14-.61.24l-.14-.37c.2-.1.42-.18.66-.25.24-.06.49-.1.74-.1ZM204.68,153.25l-.72.03c-.54.02-.95.11-1.22.28s-.4.41-.4.73c0,.26.08.46.25.6s.39.2.68.2c.44,0,.79-.13,1.03-.38.24-.25.37-.6.38-1.06v-.41Z"/>
          <path d="M209.25,154.26c0,.39-.14.69-.43.9s-.69.31-1.22.31c-.3,0-.56-.03-.79-.08s-.42-.12-.57-.19v-.44c.19.1.4.17.64.24.24.06.49.09.74.09.42,0,.72-.07.9-.21.19-.14.28-.33.28-.58s-.1-.42-.29-.54c-.2-.13-.49-.25-.88-.39-.26-.09-.49-.18-.69-.27s-.36-.21-.47-.36c-.11-.15-.17-.34-.17-.6,0-.34.14-.61.42-.8.28-.19.65-.29,1.11-.29.26,0,.5.03.72.08.22.05.42.11.6.19l-.16.38c-.17-.07-.35-.14-.56-.18s-.42-.07-.62-.07c-.34,0-.6.06-.78.18-.19.12-.28.29-.28.51,0,.17.05.3.14.4.09.1.22.18.39.26.17.07.38.15.62.24.25.09.48.18.68.27.21.1.37.22.49.37.12.15.18.35.18.6Z"/>
          <path d="M212.02,151.05c.36,0,.67.08.91.25s.43.4.55.69c.12.29.18.63.18,1.01v.32h-3.04c0,.56.13.99.39,1.29.26.3.64.45,1.13.45.27,0,.5-.02.7-.06s.41-.12.65-.22v.42c-.21.1-.42.17-.63.21-.21.04-.45.06-.73.06-.63,0-1.12-.19-1.46-.58-.34-.39-.51-.92-.51-1.59,0-.43.07-.82.22-1.16.15-.34.36-.6.64-.8.28-.19.61-.29,1.01-.29ZM212.02,151.44c-.39,0-.71.13-.95.39-.24.26-.39.63-.43,1.11h2.55c0-.45-.09-.81-.28-1.09s-.49-.42-.89-.42Z"/>
          <path d="M215.36,149.31v3.09c0,.17,0,.35,0,.53,0,.18,0,.37,0,.55h0c.07-.08.15-.18.24-.29s.17-.21.25-.29l1.62-1.76h.54l-1.68,1.82,1.82,2.43h-.54l-1.6-2.13-.64.66v1.47h-.45v-6.08h.45Z"/>
          <path d="M222.64,149.68c1.37,0,2.06.54,2.06,1.62,0,.55-.18.98-.53,1.29-.35.31-.91.47-1.65.47h-.83v2.34h-.46v-5.71h1.42ZM222.59,150.08h-.91v2.57h.78c.55,0,.99-.1,1.29-.29.31-.19.46-.54.46-1.04,0-.43-.13-.74-.4-.94s-.67-.3-1.23-.3Z"/>
          <path d="M229.48,153.26c0,.44-.07.83-.22,1.16-.15.33-.36.59-.65.77-.29.18-.63.28-1.04.28s-.73-.09-1.02-.27c-.28-.18-.5-.44-.65-.77-.15-.33-.23-.72-.23-1.17,0-.69.17-1.23.52-1.62.34-.39.81-.58,1.41-.58.41,0,.75.09,1.03.28.28.18.49.44.64.77.14.33.22.72.22,1.16ZM226.14,153.26c0,.54.11.98.34,1.32.23.33.59.5,1.08.5s.86-.17,1.09-.5c.23-.33.35-.77.35-1.32,0-.35-.05-.66-.14-.94-.1-.27-.25-.48-.46-.64-.21-.15-.48-.23-.82-.23-.49,0-.85.16-1.09.48s-.36.76-.36,1.33Z"/>
          <path d="M232.47,151.06c.22,0,.42.02.58.07l-.06.42c-.08-.02-.17-.04-.26-.05-.09-.01-.18-.02-.27-.02-.39,0-.71.14-.93.43-.23.29-.34.67-.34,1.14v2.34h-.46v-4.26h.38l.05.8h.02c.11-.24.27-.45.48-.62.22-.17.48-.26.8-.26Z"/>
          <path d="M235.17,155.08c.12,0,.23,0,.34-.03s.2-.04.28-.07v.37c-.08.03-.18.06-.3.08-.11.02-.24.03-.38.03-.35,0-.62-.1-.82-.3-.19-.2-.29-.52-.29-.96v-2.7h-.63v-.26l.63-.14.16-.98h.29v1.02h1.31v.37h-1.31v2.69c0,.6.24.9.72.9Z"/>
          <path d="M238.43,151.5h-1.02v3.89h-.46v-3.89h-.78v-.25l.78-.14v-.42c0-.49.11-.85.32-1.08.21-.23.53-.35.96-.35.15,0,.29.01.41.04.12.02.23.05.34.08l-.1.38c-.1-.03-.2-.06-.31-.08-.11-.02-.22-.03-.33-.03-.29,0-.5.08-.62.24-.13.16-.19.43-.19.79v.44h1.02v.37Z"/>
          <path d="M242.89,153.26c0,.44-.07.83-.22,1.16-.15.33-.36.59-.65.77-.29.18-.63.28-1.04.28s-.73-.09-1.02-.27c-.28-.18-.5-.44-.65-.77-.15-.33-.23-.72-.23-1.17,0-.69.17-1.23.52-1.62.34-.39.82-.58,1.41-.58.41,0,.75.09,1.03.28.28.18.49.44.64.77.14.33.22.72.22,1.16ZM239.56,153.26c0,.54.12.98.34,1.32.23.33.59.5,1.08.5s.86-.17,1.09-.5c.23-.33.35-.77.35-1.32,0-.35-.05-.66-.14-.94-.1-.27-.25-.48-.46-.64-.21-.15-.48-.23-.82-.23-.49,0-.85.16-1.09.48s-.36.76-.36,1.33Z"/>
          <path d="M244.6,155.39h-.46v-6.08h.46v6.08Z"/>
          <path d="M246.31,149.56c.21,0,.32.12.32.34s-.11.35-.32.35c-.2,0-.3-.12-.3-.35s.1-.34.3-.34ZM246.53,151.13v4.26h-.45v-4.26h.45Z"/>
          <path d="M251.59,153.26c0,.44-.07.83-.22,1.16-.15.33-.36.59-.65.77-.29.18-.63.28-1.04.28s-.73-.09-1.02-.27c-.28-.18-.5-.44-.65-.77-.15-.33-.23-.72-.23-1.17,0-.69.17-1.23.52-1.62.34-.39.82-.58,1.41-.58.41,0,.75.09,1.03.28.28.18.49.44.64.77.14.33.22.72.22,1.16ZM248.25,153.26c0,.54.12.98.34,1.32.23.33.59.5,1.08.5s.86-.17,1.09-.5c.23-.33.35-.77.35-1.32,0-.35-.05-.66-.14-.94-.1-.27-.25-.48-.46-.64-.21-.15-.48-.23-.82-.23-.49,0-.85.16-1.09.48s-.36.76-.36,1.33Z"/>
          <path d="M257.53,150.01c-.47,0-.87.11-1.21.32-.34.21-.59.5-.77.88s-.27.81-.27,1.32.08.96.24,1.34c.16.38.4.67.72.88s.72.31,1.2.31c.28,0,.53-.02.76-.06.23-.04.45-.1.66-.16v.4c-.2.08-.42.13-.65.18-.24.04-.51.06-.82.06-.58,0-1.06-.12-1.44-.37s-.68-.59-.87-1.03c-.2-.44-.29-.96-.29-1.55s.11-1.07.32-1.51c.22-.44.53-.79.94-1.04s.9-.38,1.48-.38,1.06.11,1.5.32l-.18.4c-.42-.2-.86-.3-1.32-.3Z"/>
          <path d="M263.64,153.26c0,.44-.07.83-.22,1.16-.15.33-.36.59-.65.77-.29.18-.63.28-1.04.28s-.73-.09-1.02-.27c-.28-.18-.5-.44-.65-.77-.15-.33-.23-.72-.23-1.17,0-.69.17-1.23.52-1.62.34-.39.82-.58,1.41-.58.41,0,.75.09,1.03.28.28.18.49.44.64.77.14.33.22.72.22,1.16ZM260.3,153.26c0,.54.12.98.34,1.32.23.33.59.5,1.08.5s.86-.17,1.09-.5c.23-.33.35-.77.35-1.32,0-.35-.05-.66-.14-.94-.1-.27-.25-.48-.46-.64-.21-.15-.48-.23-.82-.23-.49,0-.85.16-1.09.48s-.36.76-.36,1.33Z"/>
          <path d="M269.33,151.05c.42,0,.75.12.99.36.24.24.36.62.36,1.14v2.84h-.45v-2.82c0-.38-.08-.67-.26-.85s-.41-.27-.7-.27c-.41,0-.72.12-.94.36s-.33.6-.33,1.1v2.48h-.45v-2.82c0-.38-.08-.67-.26-.85s-.41-.27-.7-.27c-.41,0-.72.12-.94.37-.22.25-.33.63-.33,1.15v2.42h-.45v-4.26h.37l.06.67h.03c.11-.21.27-.39.48-.53.22-.15.49-.22.83-.22.31,0,.57.07.78.2.21.13.36.33.45.6h.03c.12-.26.3-.45.54-.59s.53-.21.86-.21Z"/>
          <path d="M274.03,151.05c.54,0,.97.18,1.28.55s.46.91.46,1.64-.16,1.28-.48,1.66c-.32.38-.75.57-1.3.57-.38,0-.68-.08-.91-.24s-.39-.35-.5-.58h-.03c0,.14.01.29.02.44,0,.15.01.3.01.44v1.74h-.46v-6.14h.38l.06.8h.02c.11-.23.28-.44.51-.62s.54-.26.94-.26ZM273.97,151.45c-.47,0-.82.15-1.04.44s-.34.72-.34,1.28v.08c0,.61.11,1.06.33,1.36.22.3.56.45,1.02.45s.77-.16,1.01-.49c.24-.33.35-.78.35-1.36s-.11-1.01-.33-1.32-.55-.46-1-.46Z"/>
          <path d="M278.51,151.06c.48,0,.84.12,1.07.35s.35.6.35,1.11v2.86h-.34l-.09-.72h-.02c-.15.24-.34.43-.56.58-.22.15-.53.22-.93.22s-.73-.1-.96-.3c-.24-.2-.36-.5-.36-.89,0-.42.17-.74.52-.97.34-.22.85-.35,1.52-.38l.78-.04v-.3c0-.42-.08-.72-.25-.89-.17-.17-.41-.26-.74-.26-.22,0-.43.03-.63.08-.2.06-.41.14-.61.24l-.14-.37c.2-.1.42-.18.66-.25.24-.06.49-.1.74-.1ZM279.49,153.25l-.72.03c-.54.02-.95.11-1.22.28s-.4.41-.4.73c0,.26.08.46.25.6.17.14.39.2.68.2.44,0,.79-.13,1.03-.38.24-.25.37-.6.38-1.06v-.41Z"/>
          <path d="M283.29,151.05c.48,0,.86.12,1.11.38s.38.64.38,1.18v2.78h-.46v-2.75c0-.41-.09-.7-.28-.9-.18-.19-.46-.29-.81-.29-.94,0-1.41.54-1.41,1.62v2.32h-.45v-4.26h.37l.06.74h.03c.11-.24.29-.43.53-.58.24-.16.54-.23.91-.23Z"/>
          <path d="M286.46,149.56c.21,0,.32.12.32.34s-.11.35-.32.35c-.2,0-.3-.12-.3-.35s.1-.34.3-.34ZM286.69,151.13v4.26h-.45v-4.26h.45Z"/>
          <path d="M289.8,151.05c.36,0,.67.08.91.25.25.17.43.4.55.69.12.29.18.63.18,1.01v.32h-3.04c0,.56.13.99.39,1.29.26.3.64.45,1.13.45.27,0,.5-.02.7-.06s.41-.12.65-.22v.42c-.21.1-.42.17-.63.21-.21.04-.45.06-.73.06-.63,0-1.12-.19-1.46-.58-.34-.39-.51-.92-.51-1.59,0-.43.07-.82.22-1.16s.36-.6.64-.8c.28-.19.61-.29,1.01-.29ZM289.79,151.44c-.39,0-.71.13-.95.39-.24.26-.39.63-.43,1.11h2.55c0-.45-.09-.81-.28-1.09s-.49-.42-.89-.42Z"/>
          <path d="M295.36,154.26c0,.39-.14.69-.43.9s-.69.31-1.22.31c-.3,0-.56-.03-.79-.08-.23-.05-.42-.12-.57-.19v-.44c.19.1.4.17.64.24.24.06.49.09.74.09.42,0,.72-.07.9-.21.19-.14.28-.33.28-.58s-.1-.42-.29-.54c-.19-.13-.49-.25-.88-.39-.26-.09-.49-.18-.69-.27-.2-.09-.36-.21-.47-.36-.11-.15-.17-.34-.17-.6,0-.34.14-.61.42-.8.28-.19.65-.29,1.11-.29.26,0,.5.03.72.08.22.05.42.11.6.19l-.16.38c-.17-.07-.35-.14-.56-.18s-.42-.07-.62-.07c-.34,0-.6.06-.78.18-.19.12-.28.29-.28.51,0,.17.04.3.14.4s.22.18.39.26c.17.07.38.15.62.24.25.09.48.18.68.27.21.1.37.22.49.37.12.15.18.35.18.6Z"/>
        </g>
      </g>
      <g>
        <path class="cls-8" d="M117.7,165.69c0,.43-.08.83-.24,1.22-.16.38-.39.73-.7,1.04-.3.3-.65.53-1.03.69-.39.16-.79.24-1.22.24s-.84-.08-1.23-.24c-.39-.16-.73-.39-1.03-.69-.3-.31-.54-.65-.7-1.04-.16-.38-.24-.79-.24-1.22s.08-.83.24-1.22.39-.73.7-1.04c.3-.3.65-.53,1.03-.69.39-.16.79-.24,1.22-.24s.83.08,1.22.24c.38.16.73.39,1.04.7.3.31.54.65.7,1.04s.24.79.24,1.22Z"/>
        <g>
          <path d="M124.95,168.55l-.76-1.97h-2.37l-.78,1.97h-.47l2.24-5.73h.43l2.19,5.73h-.49ZM124.04,166.17l-.77-2.06c-.02-.07-.06-.19-.11-.35s-.1-.3-.14-.42c-.04.14-.09.28-.14.42-.05.14-.09.26-.12.36l-.79,2.06h2.07Z"/>
          <path d="M128.9,167.43c0,.39-.14.69-.43.9-.29.21-.69.31-1.22.31-.3,0-.56-.03-.79-.08s-.42-.12-.57-.19v-.44c.19.1.4.17.64.24.24.06.49.09.74.09.42,0,.72-.07.9-.21.19-.14.28-.33.28-.58s-.1-.42-.29-.54c-.19-.13-.49-.25-.88-.39-.26-.09-.49-.18-.69-.27-.2-.09-.36-.21-.47-.36-.11-.15-.17-.34-.17-.6,0-.34.14-.61.42-.8.28-.19.65-.29,1.11-.29.26,0,.49.03.72.08.22.05.42.11.6.19l-.16.38c-.17-.07-.35-.14-.56-.18s-.42-.07-.62-.07c-.34,0-.6.06-.78.18-.19.12-.28.29-.28.51,0,.17.05.3.14.4.09.1.22.18.39.26.17.07.38.15.62.24.25.09.48.18.68.27.21.1.37.22.49.37.12.15.18.35.18.6Z"/>
          <path d="M132.73,167.43c0,.39-.14.69-.43.9-.29.21-.69.31-1.22.31-.3,0-.56-.03-.79-.08s-.42-.12-.57-.19v-.44c.19.1.4.17.64.24.24.06.49.09.74.09.42,0,.72-.07.9-.21.19-.14.28-.33.28-.58s-.1-.42-.29-.54c-.19-.13-.49-.25-.88-.39-.26-.09-.49-.18-.69-.27-.2-.09-.36-.21-.47-.36-.11-.15-.17-.34-.17-.6,0-.34.14-.61.42-.8.28-.19.65-.29,1.11-.29.26,0,.49.03.72.08.22.05.42.11.6.19l-.16.38c-.17-.07-.35-.14-.56-.18s-.42-.07-.62-.07c-.34,0-.6.06-.78.18-.19.12-.28.29-.28.51,0,.17.05.3.14.4.09.1.22.18.39.26.17.07.38.15.62.24.25.09.48.18.68.27.21.1.37.22.49.37.12.15.18.35.18.6Z"/>
          <path d="M135.51,164.22c.36,0,.67.08.91.25s.43.4.55.69c.12.29.18.63.18,1.01v.32h-3.04c0,.56.13.99.39,1.29.26.3.64.45,1.13.45.27,0,.5-.02.7-.06s.41-.12.65-.22v.42c-.21.1-.42.17-.63.21-.21.04-.45.06-.73.06-.63,0-1.12-.19-1.46-.58s-.51-.92-.51-1.59c0-.43.07-.82.22-1.16.15-.34.36-.6.64-.8.28-.19.61-.29,1.01-.29ZM135.5,164.6c-.39,0-.71.13-.95.39-.24.26-.39.63-.43,1.11h2.55c0-.45-.09-.81-.28-1.09-.19-.28-.49-.42-.89-.42Z"/>
          <path d="M139.6,168.25c.12,0,.23,0,.34-.03.11-.02.2-.04.28-.07v.37c-.09.03-.19.06-.3.08-.11.02-.24.03-.38.03-.35,0-.62-.1-.82-.3s-.29-.52-.29-.96v-2.7h-.63v-.26l.63-.14.16-.98h.29v1.02h1.31v.37h-1.31v2.69c0,.6.24.9.72.9Z"/>
          <path d="M145.95,168.55l-2.05-5.22h-.03c.01.14.02.31.02.5s0,.39,0,.6v4.11h-.43v-5.71h.7l1.97,5.01h.02l1.99-5.01h.69v5.71h-.46v-4.16c0-.18,0-.37,0-.55,0-.19.01-.35.02-.5h-.02l-2.06,5.22h-.38Z"/>
          <path d="M151.94,164.23c.48,0,.84.12,1.07.35.23.23.35.6.35,1.11v2.86h-.34l-.09-.72h-.02c-.15.24-.34.43-.56.58-.22.15-.53.22-.93.22s-.73-.1-.96-.3c-.24-.2-.36-.5-.36-.89,0-.42.17-.74.52-.97.34-.22.85-.35,1.52-.38l.78-.04v-.3c0-.42-.08-.72-.25-.89-.17-.17-.42-.26-.74-.26-.22,0-.43.03-.63.08-.2.06-.41.14-.61.24l-.14-.37c.2-.1.42-.18.66-.25.24-.06.49-.1.74-.1ZM152.92,166.41l-.72.03c-.54.02-.95.11-1.22.28s-.4.41-.4.73c0,.26.08.46.25.6.17.14.39.2.68.2.44,0,.79-.13,1.03-.38.24-.25.37-.6.38-1.06v-.41Z"/>
          <path d="M156.72,164.22c.49,0,.86.12,1.11.38.26.25.38.64.38,1.18v2.78h-.46v-2.75c0-.41-.09-.7-.28-.9-.18-.19-.45-.29-.81-.29-.94,0-1.41.54-1.41,1.62v2.32h-.45v-4.26h.37l.06.74h.03c.11-.24.29-.43.53-.58.24-.16.54-.23.91-.23Z"/>
          <path d="M161.17,164.23c.48,0,.84.12,1.07.35.23.23.35.6.35,1.11v2.86h-.34l-.09-.72h-.02c-.15.24-.34.43-.56.58-.22.15-.53.22-.93.22s-.73-.1-.96-.3c-.24-.2-.36-.5-.36-.89,0-.42.17-.74.52-.97.34-.22.85-.35,1.52-.38l.78-.04v-.3c0-.42-.08-.72-.25-.89-.17-.17-.42-.26-.74-.26-.22,0-.43.03-.63.08-.2.06-.41.14-.61.24l-.14-.37c.2-.1.42-.18.66-.25.24-.06.49-.1.74-.1ZM162.15,166.41l-.72.03c-.54.02-.95.11-1.22.28s-.4.41-.4.73c0,.26.08.46.25.6.17.14.39.2.68.2.44,0,.79-.13,1.03-.38.24-.25.37-.6.38-1.06v-.41Z"/>
          <path d="M165.6,164.22c.34,0,.61.06.84.19.22.13.4.31.53.54h.02l.07-.65h.37v4.39c0,.56-.14,1-.43,1.31-.29.31-.75.47-1.4.47-.32,0-.6-.03-.85-.08-.25-.05-.47-.12-.67-.21v-.44c.2.1.43.18.69.24.26.06.54.09.84.09.46,0,.81-.12,1.03-.37.22-.25.33-.58.33-1v-.25c0-.11,0-.22,0-.34,0-.11.01-.22.02-.33h-.02c-.12.28-.3.49-.54.62s-.54.21-.88.21c-.55,0-.99-.19-1.29-.56-.31-.37-.46-.91-.46-1.62s.15-1.23.46-1.64c.31-.4.75-.6,1.34-.6ZM165.64,164.62c-.46,0-.8.16-1.03.48-.23.32-.34.78-.34,1.36s.11,1.02.34,1.33c.23.3.56.46.99.46.35,0,.63-.07.83-.22.2-.14.34-.34.43-.59.08-.25.13-.54.13-.86v-.27c0-.54-.1-.96-.3-1.26-.2-.29-.55-.44-1.04-.44Z"/>
          <path d="M170.54,164.22c.36,0,.67.08.91.25s.43.4.55.69c.12.29.18.63.18,1.01v.32h-3.04c0,.56.13.99.39,1.29.26.3.64.45,1.13.45.27,0,.5-.02.7-.06s.41-.12.65-.22v.42c-.21.1-.42.17-.63.21-.21.04-.45.06-.73.06-.63,0-1.12-.19-1.46-.58s-.51-.92-.51-1.59c0-.43.07-.82.22-1.16.15-.34.36-.6.64-.8.28-.19.61-.29,1.01-.29ZM170.53,164.6c-.39,0-.71.13-.95.39-.24.26-.39.63-.43,1.11h2.55c0-.45-.09-.81-.28-1.09-.19-.28-.49-.42-.89-.42Z"/>
          <path d="M177.88,164.22c.42,0,.75.12.99.36.24.24.36.62.36,1.14v2.84h-.45v-2.82c0-.38-.09-.67-.26-.85-.17-.18-.41-.27-.7-.27-.41,0-.72.12-.94.36s-.33.6-.33,1.1v2.48h-.45v-2.82c0-.38-.09-.67-.26-.85-.17-.18-.41-.27-.7-.27-.41,0-.72.12-.94.37-.22.25-.33.63-.33,1.15v2.42h-.45v-4.26h.37l.06.67h.03c.11-.21.27-.39.48-.53.22-.15.49-.22.83-.22.31,0,.57.07.78.2.21.13.36.33.45.6h.03c.12-.26.3-.45.54-.59.25-.14.53-.21.86-.21Z"/>
          <path d="M182.28,164.22c.36,0,.67.08.91.25s.43.4.55.69c.12.29.18.63.18,1.01v.32h-3.04c0,.56.13.99.39,1.29.26.3.64.45,1.13.45.27,0,.5-.02.7-.06s.41-.12.65-.22v.42c-.21.1-.42.17-.63.21-.21.04-.45.06-.73.06-.63,0-1.12-.19-1.46-.58s-.51-.92-.51-1.59c0-.43.07-.82.22-1.16.15-.34.36-.6.64-.8.28-.19.61-.29,1.01-.29ZM182.28,164.6c-.39,0-.71.13-.95.39-.24.26-.39.63-.43,1.11h2.55c0-.45-.09-.81-.28-1.09-.19-.28-.49-.42-.89-.42Z"/>
          <path d="M187.08,164.22c.49,0,.86.12,1.11.38.26.25.38.64.38,1.18v2.78h-.46v-2.75c0-.41-.09-.7-.28-.9-.18-.19-.45-.29-.81-.29-.94,0-1.41.54-1.41,1.62v2.32h-.45v-4.26h.37l.06.74h.03c.11-.24.29-.43.53-.58.24-.16.54-.23.91-.23Z"/>
          <path d="M191.23,168.25c.12,0,.23,0,.34-.03.11-.02.2-.04.28-.07v.37c-.09.03-.19.06-.3.08-.11.02-.24.03-.38.03-.35,0-.62-.1-.82-.3s-.29-.52-.29-.96v-2.7h-.63v-.26l.63-.14.16-.98h.29v1.02h1.31v.37h-1.31v2.69c0,.6.24.9.72.9Z"/>
          <path d="M197.53,163.18c-.47,0-.87.11-1.21.32-.34.21-.59.5-.77.88s-.27.81-.27,1.32.08.96.24,1.34c.16.38.4.67.72.88.32.21.72.31,1.2.31.28,0,.53-.02.76-.06.23-.04.45-.1.66-.16v.4c-.2.08-.42.13-.65.18-.24.04-.51.06-.82.06-.58,0-1.06-.12-1.44-.37-.39-.25-.68-.59-.87-1.03-.19-.44-.29-.96-.29-1.55s.11-1.07.32-1.51c.22-.44.53-.79.94-1.04.41-.25.9-.38,1.48-.38s1.06.11,1.5.32l-.18.4c-.42-.2-.86-.3-1.32-.3Z"/>
          <path d="M203.64,166.43c0,.44-.07.83-.22,1.16-.15.33-.36.59-.65.77-.29.18-.63.28-1.04.28s-.73-.09-1.02-.27c-.28-.18-.5-.44-.65-.77s-.23-.72-.23-1.17c0-.69.17-1.23.52-1.62.34-.39.81-.58,1.41-.58.41,0,.75.09,1.03.28.28.18.49.44.64.77.14.33.22.72.22,1.16ZM200.3,166.43c0,.54.11.98.34,1.32.23.33.59.5,1.08.5s.86-.17,1.09-.5c.23-.33.35-.77.35-1.32,0-.35-.05-.66-.14-.94-.1-.27-.25-.48-.46-.64-.21-.15-.48-.23-.82-.23-.49,0-.85.16-1.09.48-.24.32-.36.76-.36,1.33Z"/>
          <path d="M209.33,164.22c.42,0,.75.12.99.36.24.24.36.62.36,1.14v2.84h-.45v-2.82c0-.38-.09-.67-.26-.85-.17-.18-.41-.27-.7-.27-.41,0-.72.12-.94.36s-.33.6-.33,1.1v2.48h-.45v-2.82c0-.38-.09-.67-.26-.85-.17-.18-.41-.27-.7-.27-.41,0-.72.12-.94.37-.22.25-.33.63-.33,1.15v2.42h-.45v-4.26h.37l.06.67h.03c.11-.21.27-.39.48-.53.22-.15.49-.22.83-.22.31,0,.57.07.78.2.21.13.36.33.45.6h.03c.12-.26.3-.45.54-.59.25-.14.53-.21.86-.21Z"/>
          <path d="M214.03,164.22c.54,0,.97.18,1.28.55s.46.91.46,1.64-.16,1.28-.48,1.66c-.32.38-.75.57-1.3.57-.38,0-.68-.08-.91-.24-.23-.16-.39-.35-.5-.58h-.03c0,.14.01.29.02.44s.01.3.01.44v1.74h-.46v-6.14h.38l.06.8h.02c.11-.23.28-.44.51-.62s.55-.26.94-.26ZM213.96,164.62c-.47,0-.82.15-1.04.44s-.34.72-.34,1.28v.08c0,.61.11,1.06.33,1.36.22.3.56.45,1.02.45s.77-.16,1.01-.49c.23-.33.35-.78.35-1.36s-.11-1.01-.33-1.32-.55-.46-1-.46Z"/>
          <path d="M218.51,164.23c.48,0,.84.12,1.07.35.23.23.35.6.35,1.11v2.86h-.34l-.09-.72h-.02c-.15.24-.34.43-.56.58-.22.15-.53.22-.93.22s-.73-.1-.96-.3c-.24-.2-.36-.5-.36-.89,0-.42.17-.74.52-.97.34-.22.85-.35,1.52-.38l.78-.04v-.3c0-.42-.08-.72-.25-.89-.17-.17-.42-.26-.74-.26-.22,0-.43.03-.63.08-.2.06-.41.14-.61.24l-.14-.37c.2-.1.42-.18.66-.25.24-.06.49-.1.74-.1ZM219.48,166.41l-.72.03c-.54.02-.95.11-1.22.28s-.4.41-.4.73c0,.26.08.46.25.6.17.14.39.2.68.2.44,0,.79-.13,1.03-.38.24-.25.37-.6.38-1.06v-.41Z"/>
          <path d="M223.28,164.22c.49,0,.86.12,1.11.38.26.25.38.64.38,1.18v2.78h-.46v-2.75c0-.41-.09-.7-.28-.9-.18-.19-.45-.29-.81-.29-.94,0-1.41.54-1.41,1.62v2.32h-.45v-4.26h.37l.06.74h.03c.11-.24.29-.43.53-.58.24-.16.54-.23.91-.23Z"/>
          <path d="M226.46,162.72c.21,0,.32.12.32.34s-.11.35-.32.35-.3-.12-.3-.35.1-.34.3-.34ZM226.68,164.3v4.26h-.45v-4.26h.45Z"/>
          <path d="M229.8,164.22c.36,0,.67.08.91.25s.43.4.55.69c.12.29.18.63.18,1.01v.32h-3.04c0,.56.13.99.39,1.29.26.3.64.45,1.13.45.27,0,.5-.02.7-.06s.41-.12.65-.22v.42c-.21.1-.42.17-.63.21-.21.04-.45.06-.73.06-.63,0-1.12-.19-1.46-.58s-.51-.92-.51-1.59c0-.43.07-.82.22-1.16.15-.34.36-.6.64-.8.28-.19.61-.29,1.01-.29ZM229.79,164.6c-.39,0-.71.13-.95.39-.24.26-.39.63-.43,1.11h2.55c0-.45-.09-.81-.28-1.09-.19-.28-.49-.42-.89-.42Z"/>
          <path d="M235.35,167.43c0,.39-.14.69-.43.9s-.69.31-1.22.31c-.3,0-.56-.03-.79-.08-.23-.05-.42-.12-.57-.19v-.44c.19.1.4.17.64.24.24.06.49.09.74.09.42,0,.72-.07.9-.21.19-.14.28-.33.28-.58s-.1-.42-.29-.54c-.19-.13-.49-.25-.88-.39-.26-.09-.49-.18-.69-.27-.2-.09-.36-.21-.47-.36-.11-.15-.17-.34-.17-.6,0-.34.14-.61.42-.8.28-.19.65-.29,1.11-.29.26,0,.5.03.72.08.22.05.42.11.6.19l-.16.38c-.17-.07-.35-.14-.56-.18s-.42-.07-.62-.07c-.34,0-.6.06-.78.18-.19.12-.28.29-.28.51,0,.17.04.3.14.4s.22.18.39.26c.17.07.38.15.62.24.25.09.48.18.68.27.21.1.37.22.49.37.12.15.18.35.18.6Z"/>
        </g>
      </g>
    </g>
    <g>
      <g>
        <g>
          <path d="M320.25,149.68c1.37,0,2.06.54,2.06,1.62,0,.55-.18.98-.53,1.29-.36.31-.91.47-1.65.47h-.83v2.34h-.46v-5.71h1.42ZM320.2,150.08h-.91v2.57h.78c.55,0,.99-.1,1.29-.29.31-.19.46-.54.46-1.04,0-.43-.13-.74-.4-.94-.26-.2-.67-.3-1.23-.3Z"/>
          <path d="M325.03,151.06c.48,0,.84.12,1.07.35.24.23.35.6.35,1.11v2.86h-.34l-.09-.72h-.02c-.15.24-.34.43-.56.58-.22.15-.53.22-.93.22s-.73-.1-.96-.3c-.24-.2-.36-.5-.36-.89,0-.42.17-.74.52-.97s.85-.35,1.52-.38l.78-.04v-.3c0-.42-.08-.72-.25-.89-.17-.17-.42-.26-.74-.26-.22,0-.43.03-.63.08-.2.06-.41.14-.61.24l-.14-.37c.2-.1.42-.18.66-.25.24-.06.49-.1.74-.1ZM326.01,153.25l-.72.03c-.54.02-.95.11-1.22.28s-.4.41-.4.73c0,.26.08.46.25.6s.39.2.68.2c.44,0,.79-.13,1.03-.38.24-.25.37-.6.38-1.06v-.41Z"/>
          <path d="M329.65,151.06c.22,0,.42.02.58.07l-.06.42c-.09-.02-.17-.04-.26-.05-.09-.01-.18-.02-.27-.02-.39,0-.71.14-.93.43-.23.29-.34.67-.34,1.14v2.34h-.46v-4.26h.38l.05.8h.02c.11-.24.27-.45.48-.62.22-.17.48-.26.8-.26Z"/>
          <path d="M332.34,155.08c.12,0,.23,0,.34-.03.11-.02.2-.04.28-.07v.37c-.08.03-.19.06-.3.08s-.24.03-.38.03c-.35,0-.62-.1-.82-.3-.19-.2-.29-.52-.29-.96v-2.7h-.63v-.26l.63-.14.16-.98h.29v1.02h1.31v.37h-1.31v2.69c0,.6.24.9.72.9Z"/>
          <path d="M335.85,151.05c.49,0,.86.12,1.11.38s.38.64.38,1.18v2.78h-.46v-2.75c0-.41-.09-.7-.28-.9-.18-.19-.46-.29-.81-.29-.94,0-1.41.54-1.41,1.62v2.32h-.45v-4.26h.37l.06.74h.03c.11-.24.29-.43.53-.58.24-.16.54-.23.91-.23Z"/>
          <path d="M340.42,151.05c.36,0,.67.08.91.25s.43.4.55.69c.12.29.18.63.18,1.01v.32h-3.04c0,.56.13.99.39,1.29.26.3.64.45,1.13.45.27,0,.5-.02.7-.06s.41-.12.65-.22v.42c-.21.1-.42.17-.63.21-.21.04-.45.06-.73.06-.63,0-1.12-.19-1.46-.58-.34-.39-.51-.92-.51-1.59,0-.43.07-.82.22-1.16.15-.34.36-.6.64-.8.28-.19.61-.29,1.01-.29ZM340.42,151.44c-.39,0-.71.13-.95.39-.24.26-.39.63-.43,1.11h2.55c0-.45-.09-.81-.28-1.09s-.49-.42-.89-.42Z"/>
          <path d="M345.06,151.06c.22,0,.42.02.58.07l-.06.42c-.08-.02-.17-.04-.26-.05s-.18-.02-.27-.02c-.4,0-.71.14-.93.43-.23.29-.34.67-.34,1.14v2.34h-.46v-4.26h.38l.05.8h.02c.11-.24.27-.45.48-.62.22-.17.48-.26.8-.26Z"/>
          <path d="M349.22,154.26c0,.39-.14.69-.43.9s-.69.31-1.22.31c-.3,0-.56-.03-.79-.08s-.42-.12-.57-.19v-.44c.19.1.4.17.64.24.24.06.49.09.74.09.42,0,.72-.07.9-.21.19-.14.28-.33.28-.58s-.1-.42-.29-.54c-.2-.13-.49-.25-.88-.39-.26-.09-.49-.18-.69-.27s-.36-.21-.47-.36c-.11-.15-.17-.34-.17-.6,0-.34.14-.61.42-.8.28-.19.65-.29,1.11-.29.26,0,.5.03.72.08.22.05.42.11.6.19l-.16.38c-.17-.07-.35-.14-.56-.18s-.42-.07-.62-.07c-.34,0-.6.06-.78.18-.19.12-.28.29-.28.51,0,.17.05.3.14.4.09.1.22.18.39.26.17.07.38.15.62.24.25.09.48.18.68.27.21.1.37.22.49.37.12.15.18.35.18.6Z"/>
          <path d="M350.83,149.31v1.95c0,.21,0,.42-.02.61h.03c.11-.24.28-.43.53-.58.25-.16.55-.23.91-.23.49,0,.86.12,1.12.38s.39.64.39,1.18v2.78h-.46v-2.75c0-.41-.09-.7-.28-.9-.18-.19-.45-.29-.81-.29-.94,0-1.41.54-1.41,1.62v2.32h-.45v-6.08h.45Z"/>
          <path d="M355.46,149.56c.21,0,.32.12.32.34s-.11.35-.32.35-.3-.12-.3-.35.1-.34.3-.34ZM355.69,151.13v4.26h-.45v-4.26h.45Z"/>
          <path d="M359.09,151.05c.54,0,.97.18,1.28.55s.46.91.46,1.64-.16,1.28-.48,1.66c-.32.38-.75.57-1.3.57-.38,0-.68-.08-.91-.24s-.39-.35-.5-.58h-.03c0,.14.01.29.02.44s.01.3.01.44v1.74h-.46v-6.14h.38l.06.8h.02c.11-.23.28-.44.51-.62.23-.18.55-.26.94-.26ZM359.02,151.45c-.47,0-.82.15-1.04.44-.22.3-.34.72-.34,1.28v.08c0,.61.11,1.06.33,1.36.22.3.56.45,1.02.45s.77-.16,1.01-.49c.23-.33.35-.78.35-1.36s-.11-1.01-.33-1.32c-.22-.31-.55-.46-1-.46Z"/>
          <path d="M364.73,154.26c0,.39-.14.69-.43.9s-.69.31-1.22.31c-.3,0-.56-.03-.79-.08s-.42-.12-.57-.19v-.44c.19.1.4.17.64.24.24.06.49.09.74.09.42,0,.72-.07.9-.21.19-.14.28-.33.28-.58s-.1-.42-.29-.54c-.2-.13-.49-.25-.88-.39-.26-.09-.49-.18-.69-.27s-.36-.21-.47-.36c-.11-.15-.17-.34-.17-.6,0-.34.14-.61.42-.8.28-.19.65-.29,1.11-.29.26,0,.5.03.72.08.22.05.42.11.6.19l-.16.38c-.17-.07-.35-.14-.56-.18s-.42-.07-.62-.07c-.34,0-.6.06-.78.18-.19.12-.28.29-.28.51,0,.17.05.3.14.4.09.1.22.18.39.26.17.07.38.15.62.24.25.09.48.18.68.27.21.1.37.22.49.37.12.15.18.35.18.6Z"/>
          <path d="M369.57,151.06c.48,0,.84.12,1.07.35.23.23.35.6.35,1.11v2.86h-.34l-.09-.72h-.02c-.15.24-.34.43-.56.58-.22.15-.53.22-.93.22s-.73-.1-.96-.3c-.24-.2-.36-.5-.36-.89,0-.42.17-.74.52-.97.34-.22.85-.35,1.52-.38l.78-.04v-.3c0-.42-.08-.72-.25-.89-.17-.17-.42-.26-.74-.26-.22,0-.43.03-.63.08-.2.06-.41.14-.61.24l-.14-.37c.2-.1.42-.18.66-.25.24-.06.49-.1.74-.1ZM370.54,153.25l-.72.03c-.54.02-.95.11-1.22.28s-.4.41-.4.73c0,.26.08.46.25.6.17.14.39.2.68.2.44,0,.79-.13,1.03-.38.24-.25.37-.6.38-1.06v-.41Z"/>
          <path d="M374.34,151.05c.49,0,.86.12,1.11.38.26.25.38.64.38,1.18v2.78h-.46v-2.75c0-.41-.09-.7-.28-.9-.18-.19-.45-.29-.81-.29-.94,0-1.41.54-1.41,1.62v2.32h-.45v-4.26h.37l.06.74h.03c.11-.24.29-.43.53-.58.24-.16.54-.23.91-.23Z"/>
          <path d="M378.82,155.47c-.57,0-1.01-.18-1.32-.55s-.46-.9-.46-1.61.16-1.3.48-1.68c.32-.38.77-.58,1.33-.58.36,0,.65.08.87.23.22.15.39.35.5.58h.03c0-.13-.01-.27-.02-.42,0-.15-.01-.29-.01-.41v-1.73h.46v6.08h-.37l-.06-.74h-.02c-.11.22-.28.42-.5.58s-.53.24-.9.24ZM378.88,155.08c.49,0,.84-.15,1.05-.45s.31-.73.31-1.29v-.08c0-.59-.1-1.04-.31-1.35-.21-.31-.55-.47-1.02-.47s-.8.16-1.04.48c-.23.32-.35.78-.35,1.38s.11,1.02.34,1.32.57.45,1.02.45Z"/>
          <path d="M384.9,155.39h-.46v-5.71h3.14v.42h-2.67v2.35h2.53v.42h-2.53v2.53Z"/>
          <path d="M391.83,151.13v4.26h-.38l-.06-.73h-.02c-.12.23-.3.42-.54.58-.24.16-.54.23-.91.23-1,0-1.5-.52-1.5-1.55v-2.78h.46v2.75c0,.41.09.71.27.9.18.19.45.29.82.29.94,0,1.41-.54,1.41-1.62v-2.32h.46Z"/>
          <path d="M395.24,151.05c.49,0,.86.12,1.11.38.26.25.38.64.38,1.18v2.78h-.46v-2.75c0-.41-.09-.7-.28-.9-.18-.19-.45-.29-.81-.29-.94,0-1.41.54-1.41,1.62v2.32h-.45v-4.26h.37l.06.74h.03c.11-.24.29-.43.53-.58.24-.16.54-.23.91-.23Z"/>
          <path d="M399.72,155.47c-.57,0-1.01-.18-1.32-.55s-.46-.9-.46-1.61.16-1.3.48-1.68c.32-.38.77-.58,1.33-.58.36,0,.65.08.87.23.22.15.39.35.5.58h.03c0-.13-.01-.27-.02-.42,0-.15-.01-.29-.01-.41v-1.73h.46v6.08h-.37l-.06-.74h-.02c-.11.22-.28.42-.5.58s-.53.24-.9.24ZM399.77,155.08c.49,0,.84-.15,1.05-.45s.31-.73.31-1.29v-.08c0-.59-.1-1.04-.31-1.35-.21-.31-.55-.47-1.02-.47s-.8.16-1.04.48c-.23.32-.35.78-.35,1.38s.11,1.02.34,1.32.57.45,1.02.45Z"/>
          <path d="M405.74,154.26c0,.39-.14.69-.43.9-.29.21-.69.31-1.22.31-.3,0-.56-.03-.79-.08s-.42-.12-.57-.19v-.44c.19.1.4.17.64.24.24.06.49.09.74.09.42,0,.72-.07.9-.21.19-.14.28-.33.28-.58s-.1-.42-.29-.54c-.19-.13-.49-.25-.88-.39-.26-.09-.49-.18-.69-.27-.2-.09-.36-.21-.47-.36-.11-.15-.17-.34-.17-.6,0-.34.14-.61.42-.8.28-.19.65-.29,1.11-.29.26,0,.49.03.72.08s.42.11.6.19l-.16.38c-.17-.07-.35-.14-.56-.18s-.42-.07-.62-.07c-.34,0-.6.06-.78.18-.19.12-.28.29-.28.51,0,.17.04.3.14.4s.22.18.39.26c.17.07.38.15.62.24.25.09.48.18.68.27.21.1.37.22.49.37.12.15.18.35.18.6Z"/>
        </g>
        <path class="cls-9" d="M315.9,152.53c0,.43-.08.83-.24,1.22-.16.38-.39.73-.7,1.04-.3.3-.64.53-1.03.69-.39.16-.79.24-1.22.24s-.84-.08-1.23-.24c-.39-.16-.73-.39-1.03-.69-.3-.31-.54-.65-.7-1.04-.16-.38-.24-.79-.24-1.22s.08-.83.24-1.22c.16-.39.39-.73.7-1.04.3-.3.64-.53,1.03-.69.39-.16.79-.24,1.22-.24s.84.08,1.22.24c.38.16.73.39,1.04.7.31.31.54.65.7,1.04s.24.79.24,1.22Z"/>
      </g>
      <path class="cls-11" d="M255.93,165.69c0,.43-.08.83-.24,1.22-.16.38-.39.73-.7,1.04-.3.3-.64.53-1.03.69-.39.16-.79.24-1.22.24s-.84-.08-1.23-.24c-.39-.16-.73-.39-1.03-.69-.31-.31-.54-.65-.7-1.04-.16-.38-.24-.79-.24-1.22s.08-.83.24-1.22.39-.73.7-1.04c.3-.3.64-.53,1.03-.69.39-.16.79-.24,1.22-.24s.83.08,1.22.24c.38.16.73.39,1.04.7.31.31.53.65.7,1.04.16.39.24.79.24,1.22Z"/>
      <g>
        <path d="M263.99,165.7c0,.58-.1,1.09-.29,1.54-.19.44-.48.79-.86,1.04-.38.25-.86.37-1.42.37s-1.05-.12-1.44-.37c-.38-.25-.67-.59-.86-1.04-.19-.45-.28-.96-.28-1.54s.1-1.09.29-1.53c.19-.44.49-.78.87-1.03.39-.25.87-.37,1.44-.37s1.01.12,1.39.36.66.57.86,1.01c.2.44.3.96.3,1.57ZM259.33,165.7c0,.51.08.95.22,1.33.15.38.38.68.69.89.31.21.7.32,1.18.32s.87-.1,1.18-.32c.31-.21.53-.51.68-.88.15-.38.22-.82.22-1.34,0-.79-.17-1.41-.52-1.85s-.86-.67-1.54-.67c-.47,0-.87.1-1.18.32-.32.21-.55.51-.7.88-.15.38-.23.82-.23,1.32Z"/>
        <path d="M266.48,168.26c.12,0,.23,0,.34-.03s.2-.04.28-.07v.37c-.09.03-.19.06-.3.08-.12.02-.24.03-.38.03-.35,0-.62-.1-.82-.3-.19-.2-.29-.52-.29-.96v-2.7h-.63v-.26l.63-.14.16-.98h.29v1.02h1.31v.37h-1.31v2.69c0,.6.24.9.72.9Z"/>
        <path d="M268.54,162.48v1.95c0,.21,0,.42-.02.61h.03c.11-.23.28-.43.53-.58s.55-.23.91-.23c.49,0,.86.13,1.12.38s.39.64.39,1.18v2.78h-.46v-2.75c0-.41-.09-.7-.28-.9-.18-.19-.46-.29-.81-.29-.94,0-1.41.54-1.41,1.62v2.32h-.45v-6.08h.45Z"/>
        <path d="M274.56,164.23c.36,0,.67.08.91.25s.43.4.55.69c.12.29.18.63.18,1.01v.32h-3.04c0,.56.13.99.39,1.29.26.3.64.45,1.13.45.27,0,.5-.02.7-.06.2-.04.41-.12.65-.22v.42c-.21.1-.42.17-.63.21-.21.04-.45.06-.73.06-.63,0-1.12-.19-1.46-.58-.34-.39-.51-.92-.51-1.59,0-.43.07-.82.22-1.16.15-.34.36-.6.64-.8.28-.19.61-.29,1.01-.29ZM274.56,164.61c-.39,0-.71.13-.95.39-.24.26-.39.63-.43,1.11h2.55c0-.45-.09-.81-.28-1.09s-.49-.42-.89-.42Z"/>
        <path d="M279.19,164.23c.22,0,.42.02.58.07l-.06.42c-.08-.02-.17-.04-.26-.05-.08-.01-.18-.02-.27-.02-.4,0-.71.14-.93.43-.23.29-.34.67-.34,1.14v2.34h-.46v-4.26h.38l.05.8h.02c.11-.24.27-.45.48-.62.22-.17.48-.26.8-.26Z"/>
        <path d="M284.38,162.85c1.37,0,2.06.54,2.06,1.62,0,.55-.18.98-.53,1.29-.36.31-.91.47-1.65.47h-.83v2.34h-.46v-5.71h1.42ZM284.33,163.26h-.91v2.57h.78c.55,0,.99-.1,1.29-.29s.46-.54.46-1.04c0-.43-.13-.74-.4-.94-.26-.2-.67-.3-1.23-.3Z"/>
        <path d="M289.4,164.23c.22,0,.42.02.58.07l-.06.42c-.09-.02-.17-.04-.26-.05-.09-.01-.18-.02-.27-.02-.39,0-.71.14-.93.43-.23.29-.34.67-.34,1.14v2.34h-.46v-4.26h.38l.05.8h.02c.11-.24.27-.45.48-.62.22-.17.48-.26.8-.26Z"/>
        <path d="M291.12,162.73c.21,0,.32.11.32.34s-.11.35-.32.35-.3-.12-.3-.35.1-.34.3-.34ZM291.35,164.31v4.26h-.45v-4.26h.45Z"/>
        <path d="M293.77,168.56l-1.63-4.26h.48l1.06,2.82c.07.18.13.35.19.52.06.17.1.32.13.46h.03c.04-.13.08-.29.14-.46s.12-.35.18-.52l1.06-2.82h.49l-1.63,4.26h-.49Z"/>
        <path d="M298.19,164.23c.48,0,.84.12,1.07.35.23.23.35.61.35,1.11v2.86h-.34l-.09-.72h-.02c-.15.24-.34.43-.56.58-.22.15-.53.22-.93.22s-.73-.1-.96-.3-.36-.5-.36-.89c0-.42.17-.74.52-.97.34-.22.85-.35,1.52-.38l.78-.04v-.3c0-.42-.08-.72-.25-.89s-.42-.26-.74-.26c-.22,0-.43.03-.63.08-.2.06-.41.14-.61.24l-.14-.37c.2-.1.42-.18.66-.25.24-.06.49-.1.74-.1ZM299.16,166.42l-.72.03c-.54.02-.95.11-1.22.28s-.4.41-.4.73c0,.26.08.46.25.6.17.14.39.2.68.2.44,0,.79-.12,1.03-.38.24-.25.37-.6.38-1.06v-.41Z"/>
        <path d="M302.26,168.26c.12,0,.23,0,.34-.03s.2-.04.28-.07v.37c-.09.03-.19.06-.3.08-.12.02-.24.03-.38.03-.35,0-.62-.1-.82-.3-.19-.2-.29-.52-.29-.96v-2.7h-.63v-.26l.63-.14.16-.98h.29v1.02h1.31v.37h-1.31v2.69c0,.6.24.9.72.9Z"/>
        <path d="M305.48,164.23c.36,0,.67.08.91.25s.43.4.55.69c.12.29.18.63.18,1.01v.32h-3.04c0,.56.13.99.39,1.29.26.3.64.45,1.13.45.27,0,.5-.02.7-.06.2-.04.41-.12.65-.22v.42c-.21.1-.42.17-.63.21-.21.04-.45.06-.73.06-.63,0-1.12-.19-1.46-.58-.34-.39-.51-.92-.51-1.59,0-.43.07-.82.22-1.16s.36-.6.64-.8c.28-.19.61-.29,1.01-.29ZM305.47,164.61c-.39,0-.71.13-.95.39-.24.26-.38.63-.43,1.11h2.55c0-.45-.09-.81-.28-1.09-.19-.28-.49-.42-.89-.42Z"/>
        <path d="M313.07,163.19c-.47,0-.87.11-1.21.32-.34.21-.59.5-.77.88s-.27.81-.27,1.32.08.96.24,1.34c.16.38.4.67.72.88.32.21.72.31,1.2.31.28,0,.53-.02.76-.06.23-.04.45-.1.66-.16v.4c-.2.07-.42.13-.65.18-.24.04-.51.06-.82.06-.58,0-1.06-.12-1.44-.37-.39-.25-.68-.59-.87-1.03-.2-.44-.29-.96-.29-1.55s.11-1.07.32-1.51c.22-.44.53-.79.94-1.04.41-.25.9-.38,1.48-.38s1.06.11,1.5.32l-.18.4c-.42-.2-.86-.3-1.32-.3Z"/>
        <path d="M319.17,166.43c0,.44-.07.83-.22,1.16-.15.33-.36.59-.65.77-.29.18-.63.28-1.04.28s-.73-.09-1.02-.27c-.28-.18-.5-.44-.65-.77-.15-.33-.23-.72-.23-1.17,0-.69.17-1.23.52-1.62.34-.39.81-.58,1.41-.58.41,0,.75.09,1.03.28s.49.44.64.77c.14.33.22.72.22,1.16ZM315.83,166.43c0,.54.11.98.34,1.32.23.33.59.5,1.08.5s.86-.17,1.09-.5c.23-.33.35-.77.35-1.32,0-.35-.05-.66-.14-.94-.1-.27-.25-.49-.46-.64-.21-.15-.48-.23-.82-.23-.49,0-.85.16-1.09.48s-.36.76-.36,1.33Z"/>
        <path d="M324.87,164.23c.42,0,.75.12.99.36.24.24.36.62.36,1.14v2.84h-.45v-2.82c0-.38-.09-.67-.26-.85-.17-.18-.41-.27-.7-.27-.41,0-.72.12-.94.36s-.33.6-.33,1.1v2.48h-.45v-2.82c0-.38-.09-.67-.26-.85-.17-.18-.41-.27-.7-.27-.41,0-.72.12-.94.37s-.33.63-.33,1.15v2.42h-.45v-4.26h.37l.06.67h.03c.11-.21.27-.39.48-.53.22-.15.49-.22.83-.22.31,0,.57.07.78.2.21.13.36.33.45.6h.03c.12-.26.3-.45.54-.59.25-.14.53-.21.86-.21Z"/>
        <path d="M329.56,164.23c.54,0,.97.18,1.28.55s.46.91.46,1.64-.16,1.28-.48,1.66c-.32.38-.75.57-1.3.57-.38,0-.68-.08-.91-.24-.23-.16-.39-.35-.5-.58h-.03c0,.14.01.29.02.44s.01.3.01.44v1.74h-.46v-6.14h.38l.06.8h.02c.11-.23.28-.44.51-.62.23-.18.55-.26.94-.26ZM329.5,164.63c-.47,0-.82.15-1.04.44-.22.3-.34.72-.34,1.28v.08c0,.61.11,1.06.33,1.36.22.3.56.45,1.02.45s.77-.16,1.01-.49c.23-.33.35-.78.35-1.36s-.11-1.01-.33-1.32c-.22-.31-.55-.46-1-.46Z"/>
        <path d="M334.04,164.23c.48,0,.84.12,1.07.35.24.23.35.61.35,1.11v2.86h-.34l-.09-.72h-.02c-.15.24-.34.43-.56.58-.22.15-.53.22-.93.22s-.73-.1-.96-.3-.36-.5-.36-.89c0-.42.17-.74.52-.97s.85-.35,1.52-.38l.78-.04v-.3c0-.42-.08-.72-.25-.89s-.42-.26-.74-.26c-.22,0-.43.03-.63.08-.2.06-.41.14-.61.24l-.14-.37c.2-.1.42-.18.66-.25s.49-.1.74-.1ZM335.02,166.42l-.72.03c-.54.02-.95.11-1.22.28s-.4.41-.4.73c0,.26.08.46.25.6.17.14.39.2.68.2.44,0,.79-.12,1.03-.38.24-.25.37-.6.38-1.06v-.41Z"/>
        <path d="M338.82,164.23c.49,0,.86.13,1.11.38s.38.64.38,1.18v2.78h-.46v-2.75c0-.41-.09-.7-.28-.9-.18-.19-.46-.29-.81-.29-.94,0-1.41.54-1.41,1.62v2.32h-.45v-4.26h.37l.06.74h.03c.11-.23.29-.43.53-.58.24-.15.54-.23.91-.23Z"/>
        <path d="M341.99,162.73c.21,0,.32.11.32.34s-.11.35-.32.35-.3-.12-.3-.35.1-.34.3-.34ZM342.22,164.31v4.26h-.45v-4.26h.45Z"/>
        <path d="M345.33,164.23c.36,0,.67.08.91.25s.43.4.55.69c.12.29.18.63.18,1.01v.32h-3.04c0,.56.13.99.39,1.29.26.3.64.45,1.13.45.27,0,.5-.02.7-.06.2-.04.41-.12.65-.22v.42c-.21.1-.42.17-.63.21-.21.04-.45.06-.73.06-.63,0-1.12-.19-1.46-.58-.34-.39-.51-.92-.51-1.59,0-.43.07-.82.22-1.16s.36-.6.64-.8c.28-.19.61-.29,1.01-.29ZM345.32,164.61c-.39,0-.71.13-.95.39-.24.26-.38.63-.43,1.11h2.55c0-.45-.09-.81-.28-1.09-.19-.28-.49-.42-.89-.42Z"/>
        <path d="M350.89,167.43c0,.39-.14.69-.43.9-.29.21-.69.31-1.22.31-.3,0-.56-.03-.79-.08s-.42-.12-.57-.19v-.44c.19.1.4.17.64.24.24.06.49.09.74.09.42,0,.72-.07.9-.21.19-.14.28-.33.28-.58s-.1-.41-.29-.54c-.19-.12-.49-.25-.88-.39-.26-.09-.49-.18-.69-.27-.2-.09-.36-.21-.47-.36-.11-.15-.17-.35-.17-.6,0-.34.14-.61.42-.8.28-.19.65-.29,1.11-.29.26,0,.49.03.72.08.22.05.42.11.6.19l-.16.38c-.17-.07-.35-.14-.56-.18-.21-.05-.42-.07-.62-.07-.34,0-.6.06-.78.18-.19.12-.28.29-.28.51,0,.17.04.31.14.4s.22.18.39.26c.17.07.38.15.62.24.25.09.48.18.68.27.21.1.37.22.49.37.12.15.18.35.18.6Z"/>
        <path d="M353.84,166.37c0-.68.1-1.33.3-1.93.2-.6.49-1.13.87-1.59h.46c-.39.49-.68,1.04-.88,1.64-.19.6-.29,1.23-.29,1.88s.1,1.26.29,1.85c.2.59.48,1.13.87,1.62h-.46c-.38-.46-.67-.98-.87-1.57-.2-.59-.3-1.22-.3-1.89Z"/>
        <path d="M356.75,162.73c.21,0,.32.11.32.34s-.11.35-.32.35-.3-.12-.3-.35.1-.34.3-.34ZM356.98,164.31v4.26h-.45v-4.26h.45Z"/>
        <path d="M360.38,164.23c.49,0,.86.13,1.11.38s.38.64.38,1.18v2.78h-.46v-2.75c0-.41-.09-.7-.28-.9-.18-.19-.46-.29-.81-.29-.94,0-1.41.54-1.41,1.62v2.32h-.45v-4.26h.37l.06.74h.03c.11-.23.29-.43.53-.58.24-.15.54-.23.91-.23Z"/>
        <path d="M365.03,168.64c-.62,0-1.11-.19-1.44-.57-.34-.38-.51-.92-.51-1.61,0-.47.08-.88.26-1.21s.41-.59.72-.76c.31-.17.66-.26,1.07-.26.21,0,.4.02.58.06.18.04.34.09.48.15l-.13.4c-.3-.13-.61-.2-.93-.2-.5,0-.89.16-1.16.49-.27.33-.41.77-.41,1.33s.12.97.36,1.3.61.5,1.11.5c.21,0,.41-.02.6-.06.19-.04.35-.1.5-.17v.41c-.14.07-.3.12-.48.16-.18.04-.39.06-.62.06Z"/>
        <path d="M367.68,168.56h-.46v-6.08h.46v6.08Z"/>
        <path d="M372.52,164.31v4.26h-.38l-.06-.73h-.02c-.12.23-.3.42-.54.58-.24.15-.54.23-.91.23-1,0-1.5-.52-1.5-1.55v-2.78h.46v2.75c0,.41.09.71.27.9.18.19.45.29.82.29.94,0,1.41-.54,1.41-1.62v-2.32h.46Z"/>
        <path d="M375.55,168.64c-.57,0-1.01-.18-1.32-.55s-.46-.9-.46-1.61.16-1.3.48-1.68c.32-.38.77-.58,1.33-.58.36,0,.65.08.87.23.22.15.39.35.5.58h.03c0-.13-.01-.27-.02-.42,0-.15-.01-.29-.01-.41v-1.73h.46v6.08h-.37l-.06-.74h-.02c-.11.22-.28.42-.5.58-.22.16-.53.24-.9.24ZM375.61,168.25c.49,0,.84-.15,1.05-.45.21-.3.31-.73.31-1.29v-.08c0-.59-.1-1.04-.31-1.35s-.55-.47-1.02-.47-.8.16-1.04.48c-.23.32-.35.78-.35,1.38s.11,1.02.34,1.32c.22.3.57.45,1.02.45Z"/>
        <path d="M379.13,162.73c.21,0,.32.11.32.34s-.11.35-.32.35-.3-.12-.3-.35.1-.34.3-.34ZM379.35,164.31v4.26h-.45v-4.26h.45Z"/>
        <path d="M382.75,164.23c.49,0,.86.13,1.11.38.26.25.38.64.38,1.18v2.78h-.46v-2.75c0-.41-.09-.7-.28-.9-.18-.19-.45-.29-.81-.29-.94,0-1.41.54-1.41,1.62v2.32h-.45v-4.26h.37l.06.74h.03c.11-.23.29-.43.53-.58.24-.15.54-.23.91-.23Z"/>
        <path d="M387.26,164.23c.34,0,.61.06.84.19s.4.31.53.54h.02l.07-.65h.37v4.39c0,.56-.14,1-.43,1.31-.29.31-.75.47-1.4.47-.32,0-.6-.03-.85-.08-.25-.05-.47-.12-.67-.21v-.44c.2.1.43.18.69.24.26.06.54.09.84.09.46,0,.81-.12,1.03-.37.22-.25.33-.58.33-1v-.25c0-.11,0-.22,0-.34,0-.11.01-.22.02-.33h-.02c-.12.28-.3.49-.54.62s-.54.21-.88.21c-.55,0-.99-.19-1.29-.56-.31-.37-.46-.91-.46-1.62s.15-1.23.46-1.64.75-.6,1.34-.6ZM387.31,164.63c-.46,0-.8.16-1.03.48-.23.32-.34.78-.34,1.36s.11,1.02.34,1.33c.23.3.56.46.99.46.35,0,.63-.07.83-.22s.34-.34.43-.59c.08-.25.13-.54.13-.86v-.27c0-.54-.1-.96-.3-1.26-.2-.29-.55-.44-1.04-.44Z"/>
        <path d="M395.98,168.56h-3.14v-5.71h3.14v.42h-2.67v2.1h2.52v.41h-2.52v2.38h2.67v.42Z"/>
        <path d="M398.77,164.23c.48,0,.84.12,1.07.35.23.23.35.61.35,1.11v2.86h-.34l-.09-.72h-.02c-.15.24-.34.43-.56.58-.22.15-.53.22-.93.22s-.73-.1-.96-.3-.36-.5-.36-.89c0-.42.17-.74.52-.97.34-.22.85-.35,1.52-.38l.78-.04v-.3c0-.42-.08-.72-.25-.89s-.42-.26-.74-.26c-.22,0-.43.03-.63.08-.2.06-.41.14-.61.24l-.14-.37c.2-.1.42-.18.66-.25.24-.06.49-.1.74-.1ZM399.75,166.42l-.72.03c-.54.02-.95.11-1.22.28s-.4.41-.4.73c0,.26.08.46.25.6.17.14.39.2.68.2.44,0,.79-.12,1.03-.38.24-.25.37-.6.38-1.06v-.41Z"/>
        <path d="M403.39,164.23c.22,0,.42.02.58.07l-.06.42c-.08-.02-.17-.04-.26-.05-.08-.01-.18-.02-.27-.02-.4,0-.71.14-.93.43-.23.29-.34.67-.34,1.14v2.34h-.46v-4.26h.38l.05.8h.02c.11-.24.27-.45.48-.62.22-.17.48-.26.8-.26Z"/>
        <path d="M405.34,168.56h-.46v-6.08h.46v6.08Z"/>
        <path d="M406.12,164.31h.49l1.02,2.65c.08.23.16.44.22.63.06.18.12.35.15.49h.02c.04-.12.09-.28.15-.47.06-.19.14-.41.22-.64l.99-2.66h.49l-1.92,5.02c-.14.37-.31.66-.51.87s-.46.31-.8.31c-.11,0-.2,0-.28-.02s-.16-.03-.23-.06v-.38c.14.05.29.07.46.07.22,0,.41-.07.55-.21s.27-.35.37-.63l.28-.72-1.67-4.24Z"/>
        <path d="M416.1,167.07c0,.34-.08.63-.26.86s-.41.41-.7.53-.64.18-1.02.18c-.34,0-.64-.02-.9-.07-.26-.05-.47-.11-.66-.18v-.46c.2.08.44.15.71.21s.56.09.88.09c.44,0,.79-.09,1.07-.28.27-.19.41-.47.41-.84,0-.22-.05-.41-.16-.56-.1-.15-.26-.27-.48-.38-.22-.11-.49-.22-.83-.33-.32-.11-.6-.23-.82-.36-.23-.13-.41-.3-.53-.5-.12-.2-.18-.45-.18-.76s.08-.58.24-.79c.16-.21.37-.38.65-.49s.59-.17.94-.17c.28,0,.54.03.79.08.25.05.49.13.71.22l-.16.4c-.45-.19-.9-.29-1.36-.29-.39,0-.72.09-.96.26-.25.17-.37.43-.37.76,0,.25.05.44.16.59.11.15.26.27.46.37.2.1.45.2.74.3.34.12.62.24.87.37.24.13.43.29.56.48.13.19.2.44.2.74Z"/>
        <path d="M418.49,168.26c.12,0,.23,0,.34-.03s.2-.04.28-.07v.37c-.09.03-.19.06-.3.08-.12.02-.24.03-.38.03-.35,0-.62-.1-.82-.3-.19-.2-.29-.52-.29-.96v-2.7h-.63v-.26l.63-.14.16-.98h.29v1.02h1.31v.37h-1.31v2.69c0,.6.24.9.72.9Z"/>
        <path d="M421.6,164.23c.48,0,.84.12,1.07.35.24.23.35.61.35,1.11v2.86h-.34l-.09-.72h-.02c-.15.24-.34.43-.56.58-.22.15-.53.22-.93.22s-.73-.1-.96-.3-.36-.5-.36-.89c0-.42.17-.74.52-.97s.85-.35,1.52-.38l.78-.04v-.3c0-.42-.08-.72-.25-.89s-.42-.26-.74-.26c-.22,0-.43.03-.63.08-.2.06-.41.14-.61.24l-.14-.37c.2-.1.42-.18.66-.25s.49-.1.74-.1ZM422.58,166.42l-.72.03c-.54.02-.95.11-1.22.28s-.4.41-.4.73c0,.26.08.46.25.6.17.14.39.2.68.2.44,0,.79-.12,1.03-.38.24-.25.37-.6.38-1.06v-.41Z"/>
        <path d="M426.02,164.23c.34,0,.61.06.84.19s.4.31.53.54h.02l.07-.65h.37v4.39c0,.56-.14,1-.43,1.31-.29.31-.75.47-1.4.47-.32,0-.6-.03-.85-.08-.25-.05-.47-.12-.67-.21v-.44c.2.1.43.18.69.24.26.06.54.09.84.09.46,0,.81-.12,1.03-.37.22-.25.33-.58.33-1v-.25c0-.11,0-.22,0-.34,0-.11.01-.22.02-.33h-.02c-.12.28-.3.49-.54.62s-.54.21-.88.21c-.55,0-.99-.19-1.29-.56-.31-.37-.46-.91-.46-1.62s.15-1.23.46-1.64.75-.6,1.34-.6ZM426.07,164.63c-.46,0-.8.16-1.03.48-.23.32-.34.78-.34,1.36s.11,1.02.34,1.33c.23.3.56.46.99.46.35,0,.63-.07.83-.22s.34-.34.43-.59c.08-.25.13-.54.13-.86v-.27c0-.54-.1-.96-.3-1.26-.2-.29-.55-.44-1.04-.44Z"/>
        <path d="M430.97,164.23c.36,0,.67.08.91.25s.43.4.55.69c.12.29.18.63.18,1.01v.32h-3.04c0,.56.13.99.39,1.29.26.3.64.45,1.13.45.27,0,.5-.02.7-.06.2-.04.41-.12.65-.22v.42c-.21.1-.42.17-.63.21-.21.04-.45.06-.73.06-.63,0-1.12-.19-1.46-.58-.34-.39-.51-.92-.51-1.59,0-.43.07-.82.22-1.16s.36-.6.64-.8c.28-.19.61-.29,1.01-.29ZM430.96,164.61c-.39,0-.71.13-.95.39-.24.26-.38.63-.43,1.11h2.55c0-.45-.09-.81-.28-1.09-.19-.28-.49-.42-.89-.42Z"/>
        <path d="M435.05,166.34c0,.68-.1,1.32-.3,1.92s-.49,1.12-.87,1.57h-.46c.39-.49.68-1.03.87-1.62.19-.59.29-1.21.29-1.86s-.1-1.27-.29-1.86c-.19-.59-.49-1.13-.88-1.62h.46c.38.46.67.99.87,1.58.2.59.3,1.23.3,1.9Z"/>
      </g>
    </g>
  </g>
  <path class="cls-10" d="M328.32,70.84c0,30.53-24.75,55.27-55.27,55.27s-55.28-24.75-55.28-55.27,24.75-55.28,55.28-55.28,55.27,24.75,55.27,55.28Z"/>
  <path class="cls-2" d="M322.8,70.84c0,27.47-22.27,49.75-49.75,49.75s-49.75-22.27-49.75-49.75,22.27-49.75,49.75-49.75,49.75,22.27,49.75,49.75Z"/>
  <g>
    <path class="cls-7" d="M250.99,69.23c0,1.14-.41,2.03-1.24,2.66-.83.64-1.94.95-3.35.95-.72,0-1.39-.05-2-.16s-1.12-.26-1.53-.45v-1.55c.43.19.97.37,1.61.52.64.16,1.3.23,1.99.23.95,0,1.67-.19,2.16-.56.49-.37.74-.88.74-1.51,0-.42-.09-.77-.27-1.06-.18-.29-.49-.55-.94-.79-.44-.24-1.05-.5-1.82-.79-1.1-.4-1.93-.88-2.48-1.46s-.83-1.36-.83-2.36c0-.67.17-1.25.52-1.75.35-.49.83-.87,1.44-1.13.61-.26,1.33-.4,2.14-.4.7,0,1.34.07,1.93.2.59.13,1.13.31,1.62.52l-.5,1.39c-.44-.19-.93-.35-1.46-.49-.53-.13-1.07-.2-1.62-.2-.8,0-1.41.17-1.82.51-.41.34-.61.8-.61,1.36,0,.43.09.79.27,1.08.18.29.47.55.88.78s.96.48,1.66.73c.76.28,1.39.57,1.92.89.52.32.92.7,1.19,1.14.27.44.41,1,.41,1.67Z"/>
    <path class="cls-7" d="M256.39,73.71v-1.93c-.66-.01-1.3-.07-1.93-.17-.62-.1-1.13-.24-1.51-.42v-1.53c.41.19.93.36,1.57.5.64.14,1.26.22,1.87.23v-3.64c-1.19-.32-2.06-.73-2.61-1.22s-.83-1.16-.83-2.02.31-1.58.93-2.09,1.46-.79,2.51-.85v-1.58h1.15v1.57c.64.02,1.21.1,1.74.22.52.12,1,.27,1.43.45l-.49,1.33c-.38-.16-.81-.29-1.27-.4-.46-.11-.93-.19-1.41-.23v3.62c.79.23,1.45.47,1.98.73.53.26.93.58,1.2.95.27.38.41.87.41,1.47,0,.84-.31,1.52-.94,2.04-.62.52-1.51.84-2.65.96v2h-1.15ZM256.39,65.16v-3.19c-.65.05-1.12.2-1.43.45-.31.25-.46.58-.46.97,0,.48.13.85.41,1.11.27.26.76.48,1.49.66ZM257.55,70.31c.71-.07,1.22-.24,1.55-.5.32-.26.49-.59.49-1,0-.46-.14-.8-.43-1.03s-.82-.44-1.6-.65v3.17Z"/>
    <path class="cls-7" d="M271.5,72.66h-8.5v-1.31l3.37-3.4c.64-.65,1.18-1.22,1.63-1.73.45-.5.79-1,1.02-1.48.23-.48.34-1.01.34-1.6,0-.71-.21-1.24-.63-1.61s-.97-.55-1.64-.55c-.64,0-1.19.11-1.66.32-.47.22-.95.52-1.44.9l-.85-1.06c.5-.42,1.08-.78,1.74-1.07s1.39-.44,2.21-.44c1.2,0,2.15.31,2.84.92.7.61,1.04,1.45,1.04,2.5,0,.67-.14,1.3-.41,1.89-.28.59-.66,1.17-1.15,1.75-.49.58-1.07,1.18-1.73,1.82l-2.68,2.65v.07h6.5v1.44Z"/>
    <path class="cls-7" d="M278.82,72.66h-1.55v-8.98c0-.52,0-.93.02-1.24.01-.31.03-.64.05-.97-.19.19-.37.35-.53.49-.16.13-.36.3-.58.5l-1.37,1.12-.83-1.06,3.47-2.7h1.31v12.85Z"/>
    <path class="cls-7" d="M291.6,62.82c0,.86-.24,1.55-.73,2.06-.49.51-1.13.85-1.94,1.02v.07c1.02.12,1.79.44,2.29.97.51.53.77,1.22.77,2.07,0,.76-.17,1.42-.52,2-.35.58-.88,1.03-1.61,1.35-.73.32-1.66.49-2.8.49-.67,0-1.3-.05-1.87-.15-.58-.1-1.13-.28-1.66-.55v-1.48c.54.28,1.12.49,1.75.63.62.14,1.22.22,1.8.22,1.15,0,1.98-.23,2.49-.68.51-.45.76-1.07.76-1.86s-.32-1.38-.95-1.74-1.51-.53-2.65-.53h-1.24v-1.35h1.26c1.06,0,1.86-.22,2.4-.67.55-.44.82-1.03.82-1.76,0-.62-.21-1.11-.63-1.45s-.99-.51-1.71-.51-1.29.1-1.78.31-.98.46-1.46.77l-.79-1.08c.46-.36,1.02-.67,1.7-.94.68-.26,1.45-.4,2.31-.4,1.34,0,2.34.3,3,.9.65.6.98,1.36.98,2.29Z"/>
    <path class="cls-7" d="M296.14,58.98v3.33c0,.41,0,.79-.03,1.14-.02.35-.04.63-.06.84h.09c.28-.41.65-.75,1.13-1.03.48-.28,1.1-.41,1.85-.41,1.2,0,2.16.42,2.89,1.25.73.83,1.09,2.08,1.09,3.73s-.37,2.9-1.1,3.74c-.73.84-1.69,1.26-2.88,1.26-.76,0-1.37-.14-1.85-.41-.48-.28-.86-.61-1.13-.99h-.13l-.32,1.22h-1.13v-13.68h1.58ZM298.86,64.17c-1.03,0-1.74.29-2.13.88s-.58,1.5-.58,2.74v.07c0,1.19.2,2.1.58,2.73s1.11.95,2.17.95c.86,0,1.51-.32,1.94-.95.43-.64.64-1.55.64-2.75,0-2.44-.87-3.65-2.61-3.65Z"/>
    <path class="cls-7" d="M245.48,76.95v3.7c0,.4-.08.75-.24,1.07-.16.32-.41.57-.74.75-.33.18-.75.28-1.25.28-.71,0-1.26-.19-1.62-.58s-.55-.9-.55-1.53v-3.68h.72v3.7c0,.46.12.82.37,1.08.25.26.62.38,1.12.38s.89-.14,1.12-.41c.23-.27.35-.63.35-1.06v-3.7h.71Z"/>
    <path class="cls-7" d="M248.95,78.3c.51,0,.9.13,1.16.38.26.25.39.65.39,1.2v2.79h-.7v-2.74c0-.69-.32-1.03-.96-1.03-.48,0-.8.13-.98.4s-.27.65-.27,1.15v2.22h-.7v-4.29h.57l.1.58h.04c.14-.22.33-.39.58-.5.25-.11.5-.16.78-.16Z"/>
    <path class="cls-7" d="M252.53,82.66h-.7v-6.08h.7v6.08Z"/>
    <path class="cls-7" d="M254.25,76.77c.11,0,.2.04.28.11.08.07.12.19.12.34s-.04.27-.12.34c-.08.07-.18.11-.28.11-.12,0-.22-.04-.3-.11-.08-.07-.12-.19-.12-.34s.04-.27.12-.34c.08-.07.18-.11.3-.11ZM254.6,78.38v4.29h-.7v-4.29h.7Z"/>
    <path class="cls-7" d="M258.75,81.48c0,.42-.15.73-.46.94-.31.21-.73.32-1.25.32-.3,0-.56-.02-.77-.07-.22-.05-.41-.11-.57-.2v-.64c.17.09.38.16.62.24.24.07.49.11.74.11.36,0,.62-.06.78-.17.16-.11.24-.27.24-.46,0-.11-.03-.2-.09-.29-.06-.08-.16-.17-.32-.26-.15-.08-.37-.18-.65-.29-.28-.11-.51-.21-.71-.32-.2-.11-.35-.23-.46-.38-.11-.15-.16-.34-.16-.58,0-.36.15-.64.44-.84s.68-.3,1.16-.3c.26,0,.51.03.73.08s.44.12.64.21l-.24.56c-.18-.07-.37-.14-.57-.19-.2-.05-.4-.08-.61-.08-.29,0-.51.05-.66.14s-.23.22-.23.38c0,.12.03.22.1.3.07.08.19.16.35.24.16.08.38.17.65.27.27.1.5.21.7.31.19.11.34.24.44.39.1.15.15.34.15.57Z"/>
    <path class="cls-7" d="M261.22,82.17c.11,0,.22,0,.33-.02.11-.02.2-.04.27-.06v.54c-.08.04-.18.07-.32.09s-.27.04-.4.04c-.22,0-.43-.04-.62-.12-.19-.08-.34-.21-.46-.4-.12-.19-.18-.46-.18-.81v-2.5h-.61v-.34l.62-.28.28-.91h.42v.98h1.24v.54h-1.24v2.48c0,.26.06.46.19.58.12.13.29.19.48.19Z"/>
    <path class="cls-7" d="M264.33,78.3c.36,0,.68.08.94.24s.47.39.61.68c.14.29.21.63.21,1.02v.42h-2.94c.01.49.13.85.37,1.11s.57.38,1,.38c.27,0,.51-.03.72-.08.21-.05.43-.12.65-.22v.62c-.22.1-.43.17-.65.21-.21.04-.47.07-.76.07-.41,0-.77-.08-1.08-.25-.31-.17-.55-.41-.72-.74-.17-.33-.26-.73-.26-1.21s.08-.87.24-1.21.38-.59.66-.78c.29-.18.62-.27,1-.27ZM264.33,78.87c-.34,0-.6.11-.8.32-.19.22-.31.52-.35.9h2.18c0-.36-.09-.66-.26-.88-.17-.23-.43-.34-.78-.34Z"/>
    <path class="cls-7" d="M268.71,82.74c-.53,0-.96-.19-1.28-.56-.32-.37-.48-.92-.48-1.66s.16-1.29.48-1.67c.32-.38.75-.56,1.28-.56.33,0,.6.06.81.18.21.12.38.27.52.45h.05c-.01-.07-.02-.17-.03-.31-.01-.14-.02-.24-.02-.32v-1.71h.7v6.08h-.57l-.1-.58h-.03c-.13.18-.3.34-.51.46-.21.13-.49.19-.82.19ZM268.82,82.16c.45,0,.77-.12.96-.37.18-.25.28-.62.28-1.12v-.13c0-.53-.09-.94-.26-1.23s-.5-.43-.98-.43c-.38,0-.66.15-.85.45s-.28.71-.28,1.21.09.91.28,1.19c.19.28.48.42.86.42Z"/>
    <path class="cls-7" d="M275.33,76.95c.75,0,1.29.15,1.63.44.34.29.51.71.51,1.24,0,.31-.07.61-.21.88-.14.27-.38.5-.71.67-.33.17-.79.26-1.36.26h-.66v2.22h-.72v-5.71h1.51ZM275.26,77.57h-.73v2.26h.58c.54,0,.95-.09,1.22-.26s.4-.47.4-.9c0-.37-.12-.64-.36-.82-.24-.18-.61-.27-1.11-.27Z"/>
    <path class="cls-7" d="M282.29,80.51c0,.71-.18,1.26-.54,1.65s-.85.58-1.46.58c-.38,0-.72-.09-1.01-.26-.3-.17-.53-.43-.7-.76s-.26-.74-.26-1.21c0-.71.18-1.26.53-1.64.35-.38.84-.58,1.46-.58.38,0,.72.09,1.02.26s.53.42.7.75.25.73.25,1.2ZM279.05,80.51c0,.51.1.91.3,1.2.2.3.52.44.96.44s.75-.15.95-.44c.2-.3.3-.7.3-1.2s-.1-.9-.3-1.19c-.2-.29-.52-.43-.96-.43s-.75.14-.95.43c-.2.29-.3.69-.3,1.19Z"/>
    <path class="cls-7" d="M285.4,78.3c.08,0,.17,0,.26.01s.17.02.25.04l-.09.65c-.07-.02-.15-.03-.23-.04s-.16-.02-.23-.02c-.22,0-.42.06-.62.18-.19.12-.35.29-.46.5-.12.22-.17.47-.17.76v2.29h-.7v-4.29h.58l.08.78h.03c.13-.23.31-.44.53-.61.22-.17.48-.26.78-.26Z"/>
    <path class="cls-7" d="M288.13,82.17c.11,0,.22,0,.33-.02.11-.02.2-.04.27-.06v.54c-.07.04-.18.07-.32.09s-.27.04-.4.04c-.22,0-.43-.04-.62-.12s-.34-.21-.46-.4-.18-.46-.18-.81v-2.5h-.61v-.34l.62-.28.28-.91h.42v.98h1.24v.54h-1.24v2.48c0,.26.06.46.19.58.13.13.29.19.48.19Z"/>
    <path class="cls-7" d="M291.57,78.92h-1.08v3.74h-.7v-3.74h-.75v-.33l.75-.24v-.25c0-.55.12-.95.36-1.2.24-.24.58-.36,1.03-.36.17,0,.32.01.46.04.14.03.27.06.37.1l-.18.55c-.08-.03-.18-.05-.3-.08s-.23-.04-.34-.04c-.24,0-.41.08-.52.24-.11.16-.17.4-.17.74v.28h1.08v.54Z"/>
    <path class="cls-7" d="M296.07,80.51c0,.71-.18,1.26-.54,1.65s-.85.58-1.46.58c-.38,0-.72-.09-1.01-.26-.3-.17-.53-.43-.7-.76s-.26-.74-.26-1.21c0-.71.18-1.26.53-1.64.35-.38.84-.58,1.46-.58.38,0,.72.09,1.02.26s.53.42.7.75.25.73.25,1.2ZM292.83,80.51c0,.51.1.91.3,1.2.2.3.52.44.96.44s.75-.15.95-.44c.2-.3.3-.7.3-1.2s-.1-.9-.3-1.19c-.2-.29-.52-.43-.96-.43s-.75.14-.95.43c-.2.29-.3.69-.3,1.19Z"/>
    <path class="cls-7" d="M297.89,82.66h-.7v-6.08h.7v6.08Z"/>
    <path class="cls-7" d="M299.61,76.77c.11,0,.2.04.28.11.08.07.12.19.12.34s-.04.27-.12.34c-.08.07-.18.11-.28.11-.12,0-.22-.04-.3-.11-.08-.07-.12-.19-.12-.34s.04-.27.12-.34c.08-.07.18-.11.3-.11ZM299.95,78.38v4.29h-.7v-4.29h.7Z"/>
    <path class="cls-7" d="M305.04,80.51c0,.71-.18,1.26-.54,1.65s-.85.58-1.46.58c-.38,0-.72-.09-1.01-.26-.3-.17-.53-.43-.7-.76s-.26-.74-.26-1.21c0-.71.18-1.26.53-1.64.35-.38.84-.58,1.46-.58.38,0,.72.09,1.02.26s.53.42.7.75.25.73.25,1.2ZM301.8,80.51c0,.51.1.91.3,1.2.2.3.52.44.96.44s.75-.15.95-.44c.2-.3.3-.7.3-1.2s-.1-.9-.3-1.19c-.2-.29-.52-.43-.96-.43s-.75.14-.95.43c-.2.29-.3.69-.3,1.19Z"/>
  </g>
  <rect class="cls-1" x="111.31" y="145.28" width="264.75" height="12.64"/>
  <rect class="cls-1" x="257.97" y="21.08" width="30.76" height="37.91"/>
  <rect class="cls-1" x="257.97" y="82.67" width="30.76" height="37.91"/>
  <rect class="cls-1" x="223.3" y="51.84" width="17.76" height="32.91"/>
  <rect class="cls-1" x="305.06" y="51.84" width="17.76" height="32.91"/>
  <g>
    <path class="cls-10" d="M225.69,115.68h-1.06v-2.89c0-.12,0-.27,0-.47,0-.2.01-.37.02-.52-.02.03-.07.08-.15.15-.08.07-.15.14-.21.19l-.57.46-.51-.64,1.61-1.28h.87v5Z"/>
    <path class="cls-10" d="M230.36,111.81c0,.35-.1.62-.31.83-.21.21-.46.35-.77.42v.02c.4.05.7.17.91.37s.31.46.31.78c0,.29-.07.55-.21.78-.14.23-.36.41-.66.55-.3.13-.68.2-1.14.2-.54,0-1.02-.09-1.44-.27v-.9c.21.11.44.19.67.25.23.06.45.08.66.08.38,0,.64-.07.79-.2s.23-.32.23-.55c0-.14-.04-.25-.11-.35-.07-.1-.19-.17-.37-.22-.17-.05-.42-.07-.73-.07h-.38v-.81h.38c.31,0,.54-.03.7-.09.16-.06.27-.14.33-.24.06-.1.09-.22.09-.35,0-.18-.05-.32-.16-.42-.11-.1-.29-.15-.55-.15-.24,0-.45.04-.62.13-.18.08-.32.16-.44.24l-.49-.73c.2-.14.43-.26.69-.35.26-.09.58-.14.94-.14.51,0,.92.1,1.22.31.3.21.45.5.45.88Z"/>
  </g>
  <g>
    <path class="cls-10" d="M299.28,130.08h-3.49v-.74l1.25-1.27c.25-.26.46-.48.61-.66.15-.17.27-.33.34-.48.07-.14.11-.3.11-.46,0-.2-.05-.35-.16-.45-.11-.1-.26-.15-.45-.15s-.38.04-.56.13c-.18.09-.37.21-.57.38l-.57-.68c.14-.12.29-.24.46-.35.16-.11.35-.2.56-.27.21-.07.47-.1.77-.1.33,0,.61.06.84.18.24.12.42.28.55.48.13.2.19.43.19.69,0,.28-.05.53-.16.76-.11.23-.27.46-.48.68-.21.22-.46.47-.75.74l-.64.6v.05h2.18v.89Z"/>
    <path class="cls-10" d="M301.83,125.02c.29,0,.55.04.79.13.24.09.43.22.58.4.15.18.22.4.22.67,0,.3-.08.55-.25.74-.17.19-.38.35-.64.48.18.09.35.2.51.33.16.12.29.27.39.44s.15.36.15.58c0,.28-.07.52-.22.72-.15.21-.35.36-.62.48-.26.11-.57.17-.91.17-.56,0-.99-.12-1.3-.36s-.46-.56-.46-.98c0-.34.09-.62.28-.83.19-.21.41-.38.68-.51-.22-.14-.41-.31-.57-.51-.16-.2-.23-.45-.23-.75,0-.26.07-.48.22-.66s.35-.31.59-.4c.25-.09.51-.13.79-.13ZM301.05,128.75c0,.18.06.33.19.45.13.12.32.17.57.17s.46-.06.59-.17.2-.26.2-.45c0-.13-.04-.24-.11-.33-.08-.1-.17-.18-.28-.26-.11-.08-.22-.15-.34-.21l-.09-.05c-.22.1-.4.22-.53.36-.13.14-.2.3-.2.49ZM301.82,125.79c-.17,0-.32.05-.43.14-.11.09-.17.22-.17.37,0,.17.06.31.18.42.12.11.26.2.43.28.16-.07.3-.16.42-.27s.18-.25.18-.43c0-.16-.06-.28-.17-.37-.12-.09-.26-.14-.43-.14Z"/>
  </g>
  <g>
    <path class="cls-10" d="M221.52,33.45c0,.35-.1.62-.31.83-.21.21-.46.35-.77.42v.02c.4.05.7.17.91.37s.31.46.31.78c0,.29-.07.55-.21.78-.14.23-.36.41-.66.55-.3.13-.68.2-1.14.2-.54,0-1.02-.09-1.44-.27v-.9c.21.11.44.19.67.25.23.06.45.08.66.08.38,0,.64-.07.79-.2s.23-.32.23-.55c0-.14-.04-.25-.11-.35-.07-.1-.19-.17-.37-.22-.17-.05-.42-.07-.73-.07h-.38v-.81h.38c.31,0,.54-.03.7-.09.16-.06.27-.14.33-.24.06-.1.09-.22.09-.35,0-.18-.05-.32-.16-.42-.11-.1-.29-.15-.55-.15-.24,0-.45.04-.62.13-.18.08-.32.16-.44.24l-.49-.73c.2-.14.43-.26.69-.35.26-.09.58-.14.94-.14.51,0,.92.1,1.22.31.3.21.45.5.45.88Z"/>
    <path class="cls-10" d="M226.01,34.83c0,.54-.06,1-.17,1.38s-.3.68-.56.88c-.26.21-.6.31-1.02.31-.6,0-1.04-.23-1.32-.68-.28-.45-.42-1.08-.42-1.89,0-.54.06-1,.17-1.38.11-.39.3-.68.55-.89.26-.21.6-.31,1.02-.31.6,0,1.04.23,1.32.68.28.45.43,1.08.43,1.9ZM223.57,34.83c0,.57.05,1,.15,1.28.1.29.28.43.55.43s.44-.14.55-.43.15-.71.15-1.29-.05-1-.15-1.29c-.1-.29-.29-.43-.55-.43s-.45.15-.55.43c-.1.29-.15.72-.15,1.29Z"/>
  </g>
  <g>
    <path class="cls-10" d="M322.5,35.17h-3.49v-.74l1.25-1.27c.25-.26.46-.48.61-.66.15-.17.27-.33.34-.48.07-.14.11-.3.11-.46,0-.2-.05-.35-.16-.45-.11-.1-.26-.15-.45-.15s-.38.04-.56.13c-.18.09-.37.21-.57.38l-.57-.68c.14-.12.29-.24.46-.35.16-.11.35-.2.56-.27.21-.07.47-.1.77-.1.33,0,.61.06.84.18.24.12.42.28.55.48.13.2.19.43.19.69,0,.28-.05.53-.16.76-.11.23-.27.46-.48.68-.21.22-.46.47-.75.74l-.64.6v.05h2.18v.89Z"/>
    <path class="cls-10" d="M326.77,32.3c0,.28-.02.57-.06.85s-.12.55-.22.8c-.11.25-.25.47-.44.67-.19.19-.43.35-.72.46-.29.11-.65.17-1.06.17-.1,0-.21,0-.34-.01-.13,0-.24-.02-.33-.04v-.85c.09.02.19.04.29.05.1.01.21.02.31.02.42,0,.74-.07.96-.2s.39-.31.48-.55c.09-.24.15-.51.16-.82h-.04c-.1.16-.23.3-.39.41s-.4.17-.72.17c-.42,0-.77-.14-1.02-.41-.26-.28-.39-.66-.39-1.17,0-.54.15-.97.46-1.27.31-.31.72-.46,1.24-.46.34,0,.65.08.92.23s.5.4.66.72c.16.32.25.74.25,1.24ZM324.97,30.96c-.21,0-.37.07-.5.21-.13.14-.2.36-.2.66,0,.24.06.43.17.57s.28.21.51.21c.15,0,.29-.04.41-.11.12-.07.21-.16.27-.26.07-.11.1-.21.1-.33,0-.15-.03-.31-.08-.45-.06-.15-.14-.27-.25-.37-.11-.1-.25-.14-.42-.14Z"/>
  </g>
</svg>