<svg xmlns="http://www.w3.org/2000/svg" width="418.071" height="479.828" viewBox="0 0 418.071 479.828">
  <g id="T-0" transform="translate(-750.961 -300)">
    <g id="t50-rgb" transform="translate(683.961 -2172)">
      <g id="words" transform="translate(117 2847)">
        <g id="temasek" transform="translate(0 30)" opacity="0">
          <path id="Path_18986" data-name="Path 18986" d="M76.694,358.646c0,.908.128,1.234,1.062,1.311l1.533.1v.863H70.957v-.863l1.456-.1c.884-.077,1.034-.4,1.034-1.311V345.467H72.27c-2.32,0-2.648.907-3.356,3.382h-.882v-4.418H82.219v4.418h-.884c-.7-2.474-1.034-3.382-3.358-3.382H76.694Z" transform="translate(27.391 -286.492)" fill="#49176d"/>
          <path id="Path_18987" data-name="Path 18987" d="M82.744,346.728c0-1.26-.178-1.363-1.972-1.438v-.86H93.338v4.27h-.825c-.631-2.373-1.006-3.229-3.532-3.229H86.845c-.68,0-.835.147-.835.856v5.455h2.718c1.616,0,1.894-.506,2.219-2.171h.886v5.413h-.886c-.325-1.69-.6-2.108-2.219-2.108H86.011v5.152c0,1.539.177,1.818,2.878,1.818,2.856,0,3.664-.969,4.445-3.57h.742l-.121,4.609H80.8v-.891c1.791-.073,1.943-.174,1.943-1.411Z" transform="translate(32.521 -286.492)" fill="#49176d"/>
          <path id="Path_18988" data-name="Path 18988" d="M93.022,360.92v-.888c1.262-.126,1.65-.025,1.8-1.338a30.926,30.926,0,0,0,.123-3.56v-8.407c0-1.236-.15-1.337-1.944-1.435v-.863h5.957c1.267,3.209,3.436,8.81,4.5,11.462h.074c1.361-3.509,3.313-8.027,4.6-11.462h5.654v.863c-1.767.073-2.08.08-2.08,1.317v11.866c0,1.265.227,1.459,1.99,1.557v.888H106.67v-.888c1.767-.074,1.945-.174,1.945-1.439V346.727h-.074c-1.393,3.739-4.486,11.346-5.421,13.92h-1.2c-1.518-4.139-4.34-10.684-5.627-13.92l.017.072v8.4a29.77,29.77,0,0,0,.126,3.56c.15,1.393.947,1.142,2.283,1.268v.888Z" transform="translate(37.445 -286.494)" fill="#49176d"/>
          <path id="Path_18989" data-name="Path 18989" d="M117.014,347.338h-.077c-.527,1.666-1.419,4.5-2.052,6.539h4.079c-.533-1.614-1.445-4.948-1.95-6.539M119,360.949v-.888h1.338c.554-.049.654-.328.453-.857-.4-1.311-1.168-3.355-1.467-4.237h-4.787c-.475,1.459-.922,3.011-1.265,4.114-.154.492-.109.875.445.948l1.441.035v.888h-5.5v-.888c1.39-.07,1.5-.125,2-1.338,1.39-3.394,3.63-9.87,5.118-14.364h2.556c1.334,4.066,3.752,11.21,4.824,14.526.33,1.028.694,1.128,1.955,1.177v.888Z" transform="translate(44.146 -286.521)" fill="#49176d"/>
          <path id="Path_18990" data-name="Path 18990" d="M133.142,349.023c-.607-2.7-1.971-3.836-3.636-3.836a2.473,2.473,0,0,0-2.6,2.626c0,1.842,1.746,2.574,3.537,3.382,2.4,1.01,4.573,1.993,4.573,5.15,0,2.5-1.516,5.1-6.163,5.1-1.617,0-3.788-.33-4.975-1.391l-.3-4.239h.857c.857,2.927,2.473,4.592,4.42,4.592a2.714,2.714,0,0,0,3.028-2.769c0-1.592-1.125-2.635-3.194-3.5-2.7-1.136-4.9-2.411-4.934-5.073-.032-2.951,1.968-4.947,5.807-4.947A9.229,9.229,0,0,1,134,345.187v3.836Z" transform="translate(49.754 -286.617)" fill="#49176d"/>
          <path id="Path_18991" data-name="Path 18991" d="M136.95,346.728c0-1.26-.154-1.363-1.944-1.438v-.86h12.671v4.291H146.8c-.631-2.37-1.088-3.253-3.612-3.253H141.37c-.682,0-.832.147-.832.856v5.455h2.4c1.614,0,1.9-.506,2.222-2.171h.884v5.58h-.884c-.327-1.693-.607-2.275-2.222-2.275h-2.4v5.152c0,1.539.174,1.818,2.875,1.818,2.853,0,3.486-1.163,4.267-3.76h.885l-.4,4.8H135.006v-.891c1.79-.073,1.944-.174,1.944-1.411Z" transform="translate(54.357 -286.492)" fill="#49176d"/>
          <path id="Path_18992" data-name="Path 18992" d="M158.113,345.39l-1.066-.125v-.835h6.258v.835a5.1,5.1,0,0,0-3.24,1.185,42.369,42.369,0,0,0-4.7,4.519,61,61,0,0,0,5.679,7.724,4.905,4.905,0,0,0,2.171,1.515l-.049.86-1.616-.052c-2.652-.073-3.745-.812-5.284-2.93-1.34-1.742-3.822-5.716-3.822-5.716,1.894-1.917,4.443-4.634,5.706-6.25.349-.428.309-.672-.035-.731m-8.768,1.338c0-1.236-.15-1.363-1.944-1.438v-.86h7.254v.86c-1.791.074-1.945.178-1.945,1.438v11.866c0,1.262.158,1.338,1.952,1.436v.891H147.4v-.891c1.794-.1,1.944-.2,1.944-1.436Z" transform="translate(59.348 -286.492)" fill="#49176d"/>
        </g>
        <g id="for_gen" data-name="for gen" transform="translate(50)" opacity="0">
          <path id="Path_18993" data-name="Path 18993" d="M122.715,330.361a2.393,2.393,0,0,0-.274-1.309c-.062-.143-.153-.2-.275-.181a28.928,28.928,0,0,0-1,4.627l.076.046.076.015.184-.184a6.254,6.254,0,0,0,1.217-3.016m-2.223-4.354a3.03,3.03,0,0,0,.122-.518,1.05,1.05,0,0,0-.366.029c-.02,0-.163.042-.425.123a1.076,1.076,0,0,0,.669.365m8.284-3.838.259.031.182.091.136.153.153.241-.107.138-.136.077-.184.046-.151.045-1.281.365c-.567.164-1,.288-1.309.366q-.64.185-2.225.7-.027,0-.638.245-.185.545-.487,1.505t-.426,1.265a3.07,3.07,0,0,1,.366.426q.821.884.882.975a3.259,3.259,0,0,1,.638,2.526,6.668,6.668,0,0,1-1.248,2.863,7.4,7.4,0,0,1-.822.916,2.106,2.106,0,0,1-3.289-.976,4.2,4.2,0,0,1-.091-1.339,33.818,33.818,0,0,1,1.066-5.359,2.822,2.822,0,0,0,.122-.551l-.289-.226c-.112-.072-.25-.147-.411-.229a3.165,3.165,0,0,1-.335-.184c-.506-.264-.945-.5-1.31-.731q-.425-.271-.366-.609c.062-.163.276-.314.64-.456q.428-.121,1.432-.429c.06-.018.649-.192,1.766-.516a5.856,5.856,0,0,1,.275-.64,97.169,97.169,0,0,1,4.508-10.323c.222-.467.619-1.188,1.185-2.163a2.169,2.169,0,0,1,.825-.915.971.971,0,0,1,1,.548c-.224.649-.335,1-.335,1.037q-.581,1.431-1.659,4.142t-1.539,3.868q-.549,1.368-1.248,3.227a1.575,1.575,0,0,0-.122.487c.63-.123.964-.182,1-.182q2.07-.393,2.62-.488a3.065,3.065,0,0,1,.944.031" transform="translate(47.295 -300.559)" fill="#49176d"/>
          <path id="Path_18994" data-name="Path 18994" d="M131.775,316.87a1.853,1.853,0,0,0,.031-.518,2.986,2.986,0,0,0-1.219,1.034,1.319,1.319,0,0,1-1.006.7c-.1.224-.288.614-.562,1.174s-.481.983-.624,1.278-.3.675-.471,1.14a11.167,11.167,0,0,0-.411,1.341,2.355,2.355,0,0,1,.366-.215,17.017,17.017,0,0,0,2.8-3.288,8.925,8.925,0,0,0,1.1-2.65m-.7-2.1a2.231,2.231,0,0,1,2.041.807,2.5,2.5,0,0,1,.7,2.056,8.731,8.731,0,0,1-.426,1.888,12.6,12.6,0,0,1-4.394,5.82,4.622,4.622,0,0,1-.516.332,1.482,1.482,0,0,1-.49.184c-.039,0-.149-.011-.32-.031s-.283-.035-.335-.046-.146-.025-.288-.045a1.356,1.356,0,0,1-.321-.076l-.258-.1-.289-.17-.259-.229a3.054,3.054,0,0,1-.822-2.619,10.172,10.172,0,0,1,.609-2.407,17.811,17.811,0,0,1,2.8-4.721,8.032,8.032,0,0,1,.7-.729,1.417,1.417,0,0,1,.714-.411,1.357,1.357,0,0,1,.809.227c.018.021.13.114.335.275" transform="translate(50.355 -298.641)" fill="#49176d"/>
          <path id="Path_18995" data-name="Path 18995" d="M140.351,317.822a1.291,1.291,0,0,1,.366.459.662.662,0,0,1-.7.09c-.223-.081-.506-.2-.851-.365-.062-.039-.346-.215-.854-.519a2.364,2.364,0,0,0-.882.7,20.752,20.752,0,0,0-2.192,3.257q-.642,1.126-1.25,2.072a4.619,4.619,0,0,1-.518.731h-.943a1.329,1.329,0,0,1-.885-1.948q.151-.61.67-2.469.608-2.224,1-3.592a6.336,6.336,0,0,1,.4-1.1.75.75,0,0,1,.959-.411,1.028,1.028,0,0,1,.839.715c-.062.283-.163.69-.3,1.217s-.244.914-.306,1.157l.093.06.121-.107.123-.135.091-.123q.608-.64.638-.669a2.047,2.047,0,0,1,1.157-.654,2.2,2.2,0,0,1,1.311.317l.576.4c.672.466,1.116.77,1.341.912" transform="translate(52.957 -298.465)" fill="#49176d"/>
          <path id="Path_18996" data-name="Path 18996" d="M160.638,330.062l.06-.363-.4.184q-4.143,2.464-7.158,4.688a35.786,35.786,0,0,0-5.086,4.418,14.033,14.033,0,0,0-1.523,1.978,6.144,6.144,0,0,0-.609,1.341c-.041.2-.07.4-.091.609a.609.609,0,0,0,.426.579,2.171,2.171,0,0,0,1.309.09,11.437,11.437,0,0,0,1.4-.425,13.75,13.75,0,0,0,3.016-1.736,33.089,33.089,0,0,0,4.508-4.143,19.532,19.532,0,0,0,4.142-7.218m-15.9-.578c0,.022.011.275.031.762a5.286,5.286,0,0,0,1.645-.487,26.472,26.472,0,0,0,5.267-3.107q5.3-4.021,9.107-7.4a3.64,3.64,0,0,0,.289-.229c.132-.112.229-.2.29-.258a1.373,1.373,0,0,1,1.673-.093,1.87,1.87,0,0,1,1.037,1.92q-.063.791-.3,5.511l.062.091c.222-.08.516-.2.882-.348s.679-.279.944-.383.558-.208.884-.318a8.683,8.683,0,0,1,.958-.275c.316-.072.634-.126.959-.167h.428l-.093.335a4.288,4.288,0,0,1-.609.609c-.264.163-.62.363-1.066.609-.365.184-.884.442-1.553.776s-1.108.544-1.31.626c-.02.02-.254.153-.7.394-.1.387-.153.59-.153.61a22.981,22.981,0,0,1-1.95,5.633,13.8,13.8,0,0,1-2.131,3.2,27.042,27.042,0,0,1-6.061,5.207,13.548,13.548,0,0,1-3.838,1.676,6.475,6.475,0,0,1-2.679.093,3.9,3.9,0,0,1-2.132-1.188,1.629,1.629,0,0,1-.426-1.37,4.387,4.387,0,0,1,.426-1.4,13.785,13.785,0,0,1,2.253-3.138,30.77,30.77,0,0,1,5.423-4.658,78.671,78.671,0,0,1,8.069-4.812l.275-.138.334-.168.3-.153a2.061,2.061,0,0,0,.153-.425,2.825,2.825,0,0,0,.076-.4c.01-.1.025-.247.046-.442s.031-.328.031-.408q.09-.581.363-3.871v-.547a4,4,0,0,0-.516.425q-3.137,2.8-7.431,6.153a27.289,27.289,0,0,1-5.817,3.532,5.565,5.565,0,0,1-1.492.459,6.631,6.631,0,0,1-1.98-.153,2.256,2.256,0,0,1-.851-.4,4.12,4.12,0,0,1-.7-.579,3.44,3.44,0,0,1-1.037-2.922,8.375,8.375,0,0,1,.487-2.347q.943-2.59,1.31-3.473a59.528,59.528,0,0,1,5.239-9.684,32.035,32.035,0,0,1,5.39-6.09,13.957,13.957,0,0,1,4.263-2.651,8.739,8.739,0,0,1,2.041-.488,5.4,5.4,0,0,1,1.4.093,6.438,6.438,0,0,1,3.487,1.9,6.68,6.68,0,0,1,1.874,3.519,7.252,7.252,0,0,1-.031,2.376,12.03,12.03,0,0,1-.578,2.4c-.122.264-.275.4-.457.4a.974.974,0,0,1-.519-.853,14.4,14.4,0,0,1-.181-1.767,21.909,21.909,0,0,0-.306-3.1,7.214,7.214,0,0,0-.76-1.951,1.868,1.868,0,0,0-2.163-.944,10.318,10.318,0,0,0-1.858.61,12.957,12.957,0,0,0-3.716,2.467,36.058,36.058,0,0,0-7.187,9.015,68.411,68.411,0,0,0-4.2,8.647,15.969,15.969,0,0,0-.823,2.741c-.039.246-.07.508-.091.793" transform="translate(57.217 -303.125)" fill="#49176d"/>
          <path id="Path_18997" data-name="Path 18997" d="M166.628,315.947a8,8,0,0,0-1.767,3.38,5.267,5.267,0,0,0,.731-.943,8.268,8.268,0,0,0,.642-1.233,7.342,7.342,0,0,0,.394-1.2m7.4,1.067a.64.64,0,0,1,.031.912,5.429,5.429,0,0,1-.762.884c-.872.872-1.564,1.534-2.07,1.979q-1.279,1.132-3.989,3.473l-.335.259c-.122.091-.25.188-.382.289l-.318.243a3.546,3.546,0,0,1-2.5.641,2.075,2.075,0,0,1-1.54-.794,2.222,2.222,0,0,1-.592-1.642q.029-.276.122-.792a5.221,5.221,0,0,0,.091-.67,10.2,10.2,0,0,1,.518-1.736,17.855,17.855,0,0,1,1.706-3.563,10.862,10.862,0,0,1,1.4-1.675,1.849,1.849,0,0,1,1.494-.532,2.038,2.038,0,0,1,1.431.777,1.253,1.253,0,0,1,.273,1,10,10,0,0,1-.3,1.125,7.4,7.4,0,0,1-2.5,3.108c-.042.041-.457.337-1.25.884a9.317,9.317,0,0,0-.516,2.923c.485-.244.741-.374.762-.4.952-.591,1.6-1,1.948-1.25a66.016,66.016,0,0,0,6.121-4.9,1.751,1.751,0,0,1,1.157-.547" transform="translate(65.051 -298.633)" fill="#49176d"/>
          <path id="Path_18998" data-name="Path 18998" d="M179.693,324.05a.765.765,0,0,1,.488.7c-.3.1-.467.153-.488.153a3.39,3.39,0,0,1-1.979-.578,7.423,7.423,0,0,1-2.467-2.5,4.625,4.625,0,0,1-.487-1.067c-.02-.06-.112-.485-.275-1.279q-1,1.1-1.066,1.157-.3.367-.9,1.083t-.9,1.08q-.3.337-.791.822a1.412,1.412,0,0,1-2.223.031,2.157,2.157,0,0,0-.3-.335,3.1,3.1,0,0,1,.243-1.157q.244-.76.548-1.661t.656-1.9c.23-.669.429-1.217.592-1.643.041-.164.093-.331.153-.5l.2-.562c.072-.2.128-.366.168-.488a1.589,1.589,0,0,1,.334-.669,1.724,1.724,0,0,1,.715.122.782.782,0,0,1,.38.365,1.865,1.865,0,0,1,.154.7c0,.306.008.69.029,1.157l-.029.184-.2.105-.2.137c-.041.123-.1.3-.166.534s-.137.461-.2.684-.132.456-.213.7c.283-.244.436-.375.454-.394q.215-.246.52-.551t.547-.578q.244-.274.519-.548t.547-.562q.274-.29.519-.562a1.5,1.5,0,0,1,1.826-.4,1.757,1.757,0,0,1,1.188,1.736q-.154,1.919-.244,2.773a4.69,4.69,0,0,0,.031,1.612,2.356,2.356,0,0,0,1.736,1.92,2.12,2.12,0,0,1,.578.181" transform="translate(67.762 -298.451)" fill="#49176d"/>
          <path id="Path_18999" data-name="Path 18999" d="M182.108,315.947a8.011,8.011,0,0,0-1.766,3.38,5.268,5.268,0,0,0,.731-.943,8.134,8.134,0,0,0,.641-1.233,7.087,7.087,0,0,0,.394-1.2m7.4,1.067a.64.64,0,0,1,.031.912,5.434,5.434,0,0,1-.762.884c-.872.872-1.564,1.534-2.07,1.979q-1.279,1.132-3.989,3.473l-.335.259c-.122.091-.25.188-.382.289l-.318.243a3.546,3.546,0,0,1-2.5.641,2.075,2.075,0,0,1-1.54-.794,2.222,2.222,0,0,1-.592-1.642q.029-.276.122-.792a5.22,5.22,0,0,0,.091-.67,10.191,10.191,0,0,1,.518-1.736,17.778,17.778,0,0,1,1.706-3.563,10.86,10.86,0,0,1,1.4-1.675,1.85,1.85,0,0,1,1.494-.532,2.037,2.037,0,0,1,1.431.777,1.258,1.258,0,0,1,.273,1,10,10,0,0,1-.3,1.125,7.4,7.4,0,0,1-2.5,3.108c-.042.041-.457.337-1.25.884a9.276,9.276,0,0,0-.516,2.923c.485-.244.741-.374.762-.4.952-.591,1.6-1,1.948-1.25a66.189,66.189,0,0,0,6.121-4.9,1.751,1.751,0,0,1,1.157-.547" transform="translate(71.283 -298.633)" fill="#49176d"/>
          <path id="Path_19000" data-name="Path 19000" d="M192.7,317.822a1.291,1.291,0,0,1,.366.459.662.662,0,0,1-.7.09c-.223-.081-.506-.2-.853-.365-.06-.039-.345-.215-.853-.519a2.364,2.364,0,0,0-.882.7,20.751,20.751,0,0,0-2.192,3.257q-.642,1.126-1.25,2.072a4.663,4.663,0,0,1-.516.731h-.944a1.329,1.329,0,0,1-.885-1.948q.152-.61.67-2.469.608-2.224,1-3.592a6.332,6.332,0,0,1,.4-1.1.751.751,0,0,1,.959-.411,1.028,1.028,0,0,1,.839.715c-.06.283-.163.69-.3,1.217s-.244.914-.306,1.157l.093.06.121-.107.123-.135.091-.123q.608-.64.64-.669a2.039,2.039,0,0,1,1.156-.654,2.2,2.2,0,0,1,1.311.317l.576.4c.672.466,1.116.77,1.341.912" transform="translate(74.033 -298.465)" fill="#49176d"/>
          <path id="Path_19001" data-name="Path 19001" d="M199.1,325.823c.021,0,.062.091.122.275a.9.9,0,0,1-.882-.122,3.12,3.12,0,0,1-1.37-1.647,11.969,11.969,0,0,1-.548-2.434c0-.081-.021-.276-.062-.579l-.167-.015-.091.062-.062.091-.076.074q-1.706,2.165-1.736,2.194a5.727,5.727,0,0,1-1.309,1.189,1.981,1.981,0,0,1-1.478.3,2.048,2.048,0,0,1-1.262-.854,1.051,1.051,0,0,1-.182-.881,8.7,8.7,0,0,1,.3-1.279,20.259,20.259,0,0,1,3.138-5.848,22.838,22.838,0,0,1,1.706-1.826,2.374,2.374,0,0,1,.762-.52.959.959,0,0,1,1.035.062,1.1,1.1,0,0,1,.426,1.006l-.06.334H197l-.229-.2-.2-.168a18.2,18.2,0,0,0-2.5,3.776,10.585,10.585,0,0,0-1.432,3.594,16.839,16.839,0,0,0,2.1-2.772q.122-.183,1.584-2.954a1.925,1.925,0,0,1,1.2.091,1.525,1.525,0,0,1,.867.762,1.182,1.182,0,0,1,.122.669,8.564,8.564,0,0,1-.076.961,8.532,8.532,0,0,0-.076.9,17.028,17.028,0,0,0,.152,4.26,3.414,3.414,0,0,0,.578,1.494" transform="translate(76.488 -298.791)" fill="#49176d"/>
          <path id="Path_19002" data-name="Path 19002" d="M212.729,312.059a1.128,1.128,0,0,1,.578.578,7.139,7.139,0,0,1-1.355.077,8.555,8.555,0,0,0-1.293.045c-.286.039-.715.105-1.3.2s-1.02.159-1.324.2c-.121.02-.975.2-2.558.516a3.047,3.047,0,0,0-.182.4q-3.046,8.374-3.685,10.14a27.986,27.986,0,0,0-1.25,4.479,8.606,8.606,0,0,0-.091,2.558q0,.029.122.7a1.023,1.023,0,0,0,.822.031,7.583,7.583,0,0,0,2.682-1.341c.607-.446,1-.742,1.187-.884a3.483,3.483,0,0,1,1-.487.558.558,0,0,1,.062.7,4.16,4.16,0,0,1-.67,1.034,6.632,6.632,0,0,1-4.2,2.1A3.765,3.765,0,0,1,198.2,331.8a2.782,2.782,0,0,1-.609-1.735,9.953,9.953,0,0,1,.4-3.839q.7-2.434,1.248-3.836.212-.579,2.77-7a6.522,6.522,0,0,0,.276-.7l-.184-.091-.137-.031-.151.046-.137.046c-.3.079-.721.2-1.248.348s-1.016.29-1.463.412-.863.234-1.248.334a2.808,2.808,0,0,1-1.98-.031,5.3,5.3,0,0,1-.334-.547,1.008,1.008,0,0,1,.7-.7c1.342-.568,2.213-.914,2.62-1.034q.334-.093,4.051-.945a4.045,4.045,0,0,0,.456-.091q.3-.732.306-.763.3-.791.807-2.087t.944-2.4q.442-1.115.837-2.087,0-.031.366-.7a1.379,1.379,0,0,1,.929.273,1.075,1.075,0,0,1,.167.853c-.06.387-.142.794-.244,1.217q-.061.215-1.126,4.448-.03.063-.182.67a3.3,3.3,0,0,0,1.126,0,22.373,22.373,0,0,1,3.624-.245,4.339,4.339,0,0,1,1.95.49" transform="translate(78.672 -302.629)" fill="#49176d"/>
          <path id="Path_19003" data-name="Path 19003" d="M210.606,309.832a.523.523,0,0,1,.382.272.394.394,0,0,1-.046.428,2.763,2.763,0,0,1-.365.365c-.182.142-.432.344-.746.609s-.541.459-.684.578a4.245,4.245,0,0,0-.579.52c-.062.06-.314.365-.762.912.06.264.093.408.093.428l-.032.093a1.793,1.793,0,0,1-1.065-.139,1.5,1.5,0,0,1-.729-.717.557.557,0,0,1,.028-.638,3.412,3.412,0,0,1,.4-.49,13.329,13.329,0,0,1,2.923-2.01,1.849,1.849,0,0,1,1.188-.21m-2.8,15.2a1.4,1.4,0,0,1,.762-.215l.029.337-.091.3a3.708,3.708,0,0,1-1.4,1.384,2.84,2.84,0,0,1-2.041.443,2.8,2.8,0,0,1-2.316-1.95,4.121,4.121,0,0,1-.123-2.01,18.146,18.146,0,0,1,1.006-3.32,20.451,20.451,0,0,1,1.645-3.411c.181-.264.3-.435.365-.516a.965.965,0,0,1,1.31-.213.81.81,0,0,1,.351.439.556.556,0,0,1-.107.5,3.042,3.042,0,0,0-.229.411c-.07.151-.128.282-.167.394l-.154.428c-.06.173-.112.309-.151.41a45.838,45.838,0,0,0-1.584,5.027,6.264,6.264,0,0,0-.272,2.069,1,1,0,0,0,.335.825,2.589,2.589,0,0,0,1.431-.519q.884-.547,1.4-.822" transform="translate(81.555 -300.432)" fill="#49176d"/>
          <path id="Path_19004" data-name="Path 19004" d="M212.2,316.87a1.924,1.924,0,0,0,.031-.518,2.986,2.986,0,0,0-1.219,1.034,1.319,1.319,0,0,1-1.006.7c-.1.224-.288.614-.562,1.174s-.484.983-.623,1.278-.3.675-.471,1.14a11.469,11.469,0,0,0-.414,1.341,2.52,2.52,0,0,1,.366-.215,16.983,16.983,0,0,0,2.8-3.288,8.925,8.925,0,0,0,1.1-2.65m-.7-2.1a2.232,2.232,0,0,1,2.042.807,2.5,2.5,0,0,1,.7,2.056,8.812,8.812,0,0,1-.426,1.888,12.593,12.593,0,0,1-4.386,5.818,4.364,4.364,0,0,1-.516.332,1.451,1.451,0,0,1-.49.184c-.039,0-.146-.011-.318-.031s-.283-.035-.335-.046-.147-.025-.288-.045a1.373,1.373,0,0,1-.323-.076l-.258-.1-.289-.17-.258-.229a3.063,3.063,0,0,1-.822-2.619,10.17,10.17,0,0,1,.607-2.407,17.889,17.889,0,0,1,2.8-4.721,7.842,7.842,0,0,1,.7-.729,1.412,1.412,0,0,1,.717-.411,1.356,1.356,0,0,1,.806.227c.018.021.13.114.334.275" transform="translate(82.736 -298.641)" fill="#49176d"/>
          <path id="Path_19005" data-name="Path 19005" d="M223.248,324.05a.765.765,0,0,1,.488.7c-.3.1-.467.153-.488.153a3.39,3.39,0,0,1-1.979-.578,7.424,7.424,0,0,1-2.467-2.5,4.623,4.623,0,0,1-.487-1.067c-.02-.06-.112-.485-.275-1.279q-1,1.1-1.066,1.157-.3.367-.9,1.083t-.9,1.08q-.3.337-.791.822a1.412,1.412,0,0,1-2.223.031,2.155,2.155,0,0,0-.3-.335,3.1,3.1,0,0,1,.243-1.157q.244-.76.548-1.661t.656-1.9c.23-.669.429-1.217.592-1.643.041-.164.093-.331.153-.5l.2-.562c.072-.2.128-.366.168-.488a1.589,1.589,0,0,1,.334-.669,1.735,1.735,0,0,1,.717.122.785.785,0,0,1,.379.365,1.865,1.865,0,0,1,.154.7c0,.306.01.69.029,1.157l-.029.184-.2.105-.2.137c-.041.123-.1.3-.166.534s-.137.461-.2.684-.132.456-.213.7c.283-.244.438-.375.456-.394.142-.164.316-.348.519-.551s.386-.394.547-.578.335-.365.519-.548.365-.369.547-.562.355-.381.519-.562a1.5,1.5,0,0,1,1.826-.4,1.757,1.757,0,0,1,1.188,1.736q-.154,1.919-.244,2.773a4.692,4.692,0,0,0,.031,1.612,2.356,2.356,0,0,0,1.736,1.92,2.1,2.1,0,0,1,.578.181" transform="translate(85.299 -298.451)" fill="#49176d"/>
          <path id="Path_19006" data-name="Path 19006" d="M225.92,323.345a2.434,2.434,0,0,0,.731-1.035,6.243,6.243,0,0,0-1.919-.638,8.893,8.893,0,0,0-1.476,1.8,5.62,5.62,0,0,0-.808,1.767,9.575,9.575,0,0,0,3.471-1.889m3.107-.851a2.028,2.028,0,0,1,.32,1.3,2.141,2.141,0,0,1-.777,1.264,8.119,8.119,0,0,1-2.375,1.431,9.831,9.831,0,0,1-2.467.7,6.592,6.592,0,0,1-1.006-.029l-.243-.062-.274-.091a1.462,1.462,0,0,1-.945-.365,4.979,4.979,0,0,1-.76-.945,1.04,1.04,0,0,1-.062-.975,11.457,11.457,0,0,1,.7-1.31c.081-.122.628-.83,1.644-2.132l.091-.107.091-.121.091-.107c-.691-.609-1.055-.934-1.1-.976q-.215-.24-.488-.578a5.952,5.952,0,0,1-.578-.882,4.3,4.3,0,0,1-.426-1.035,2.236,2.236,0,0,1,.457-1.676,6.361,6.361,0,0,1,.76-.884,6.907,6.907,0,0,1,3.868-1.8,2.685,2.685,0,0,1,2.62,1.065,1.23,1.23,0,0,1,.09,1.523c-.02.022-.163.224-.426.609a1.081,1.081,0,0,1-.578-.3,2.192,2.192,0,0,1-.062-.882,2.253,2.253,0,0,0-1.309.609,7.189,7.189,0,0,0-2.438,3.077,3.2,3.2,0,0,0,1.189.638c.711-.548,1.1-.842,1.156-.884a3.666,3.666,0,0,1,1.432-.76l.426-.031v.457a2.017,2.017,0,0,1-.547.912c-.021.022-.286.294-.792.822l.121.2.244.153.182.107a5.379,5.379,0,0,1,2.041,1.857l.031.093Z" transform="translate(88.717 -299.115)" fill="#49176d"/>
        </g>
        <g id="by_gen" data-name="by gen" transform="translate(-50)" opacity="0">
          <path id="Path_19007" data-name="Path 19007" d="M6.535,313.359c2.766,0,4.12.844,4.12,2.964,0,1.648-1.08,2.55-2.923,2.884v.118c1.766.236,3.453.863,3.453,3.1a3.313,3.313,0,0,1-1.159,2.708c-.8.647-2.1,1.039-4.336,1.039H0v-.687c1.373-.079,1.511-.157,1.511-1.1v-9.242c0-.961-.137-1.039-1.511-1.1v-.687ZM4.3,318.951h.961c1.825,0,2.63-.922,2.63-2.414a2.211,2.211,0,0,0-2.512-2.373c-.884.02-1.079.078-1.079.745Zm0,5.141c0,.982.314,1.275,1.354,1.275,1.334,0,2.55-.725,2.55-2.786,0-1.766-.882-2.8-2.9-2.8h-1Z" transform="translate(0 -299.004)" fill="#881798"/>
          <path id="Path_19008" data-name="Path 19008" d="M11.111,326.172v-.687c1.687-.059,1.825-.157,1.825-1.1V321.56a2.68,2.68,0,0,0-.373-1.236c-.764-1.452-2.177-4.061-2.864-5.258-.471-.8-.609-.961-1.589-1.02v-.687h5.709v.687l-1.039.118c-.372.02-.353.294-.216.589.707,1.471,1.9,3.746,2.63,5.082h.039c.9-1.766,1.786-3.728,2.275-4.985.178-.45.079-.666-.255-.706l-.98-.1v-.687H20.49v.687c-1.06.1-1.314.236-1.786,1.041-.825,1.353-1.786,3.3-2.669,5.1a2.591,2.591,0,0,0-.313,1.257v2.943c0,.941.116,1.039,1.825,1.1v.687Z" transform="translate(3.266 -299.004)" fill="#881798"/>
          <path id="Path_19009" data-name="Path 19009" d="M31.16,325.719a14.085,14.085,0,0,1-4.493.863,8.285,8.285,0,0,1-4.533-1.039c-1.393-.941-2.393-2.689-2.393-5.553,0-3,1.354-6.867,6.985-6.867a10.066,10.066,0,0,1,4.237.844v3.3h-.687c-.47-1.766-1.491-3.316-3.589-3.316-3.335,0-3.866,3.669-3.866,5.787,0,1.57.373,6.044,3.944,6.044a2.932,2.932,0,0,0,1.157-.2c.314-.118.432-.334.432-.766v-2.727c0-.923-.137-1-1.687-1.119v-.67h5.571v.666c-.961.118-1.079.2-1.079,1.08Z" transform="translate(7.947 -299.1)" fill="#881798"/>
          <path id="Path_19010" data-name="Path 19010" d="M30.759,315.145c0-.962-.137-1.041-1.511-1.1v-.686h9.83V316.7H38.39c-.49-1.844-.863-2.532-2.805-2.532H34.192c-.55,0-.668.118-.668.668v4.218h1.864c1.255,0,1.452-.372,1.727-1.687H37.8V321.7h-.687c-.254-1.3-.471-1.746-1.727-1.746H33.525v4c0,1.177.137,1.412,2.237,1.412,2.218,0,2.707-.9,3.316-2.943h.687l-.314,3.746h-10.2v-.686c1.373-.059,1.511-.137,1.511-1.1Z" transform="translate(11.775 -299.004)" fill="#881798"/>
          <path id="Path_19011" data-name="Path 19011" d="M47.085,326.172c-2.3-3.512-4.63-7-6.985-10.517h-.059v6.024a23.377,23.377,0,0,0,.1,2.766c.118,1.1.746.961,1.825,1.039v.687H37.413v-.687c.98-.1,1.393-.02,1.511-1.039a21.829,21.829,0,0,0,.118-2.766v-6.515c0-.98-.137-1.059-1.512-1.118v-.687h4.2c1.943,2.944,4.061,6.044,6.141,9.085h.059v-4.61a27.394,27.394,0,0,0-.1-2.746c-.118-1.1-.766-.962-1.846-1.041v-.687H50.5v.687c-.961.1-1.334.02-1.471,1.041-.059.647-.1,1.353-.1,2.746v8.339Z" transform="translate(15.063 -299.004)" fill="#881798"/>
          <path id="Path_19012" data-name="Path 19012" d="M48.822,315.145c0-.962-.137-1.041-1.511-1.1v-.686h9.83V316.7h-.687c-.49-1.844-.863-2.532-2.805-2.532H52.255c-.55,0-.668.118-.668.668v4.218h1.864c1.255,0,1.452-.372,1.727-1.687h.687V321.7h-.687c-.254-1.3-.471-1.746-1.727-1.746H51.588v4c0,1.177.137,1.412,2.237,1.412,2.218,0,2.707-.9,3.316-2.943h.687l-.314,3.746h-10.2v-.686c1.373-.059,1.511-.137,1.511-1.1Z" transform="translate(19.049 -299.004)" fill="#881798"/>
          <path id="Path_19013" data-name="Path 19013" d="M59.862,324.386c0,.962.137,1.041,1.511,1.1v.686H55.545v-.686c1.393-.059,1.53-.137,1.53-1.1v-9.24c0-.962-.137-1.041-1.53-1.1v-.686h6.221c2.55,0,4.3.647,4.3,3.159,0,1.825-1.275,2.864-3.08,3.119v.078a3.543,3.543,0,0,1,2.9,3.3c.236,1.373.55,2.393,1.864,2.473v.686H66.239c-1.746,0-2.609-.47-3.021-1.786-.255-.922-.393-2.06-.53-2.687a1.722,1.722,0,0,0-1.962-1.512h-.863Zm0-5h.922c1.923,0,2.394-1.1,2.394-2.65,0-1.981-1.079-2.57-2.3-2.57-1,0-1.02.157-1.02.766Z" transform="translate(22.363 -299.004)" fill="#881798"/>
          <path id="Path_19014" data-name="Path 19014" d="M71.121,326.2v-.666l1.02-.119c.431-.039.509-.273.353-.686-.314-1-.825-2.492-1.06-3.178H67.627c-.352,1.157-.706,2.216-.961,3.2-.118.412-.1.627.353.686l1.079.079v.687h-4.18v-.687c1.041-.059,1.217-.216,1.551-1.039,1.059-2.63,2.727-7.653,3.885-11.165h2.177c1.039,3.16,2.9,8.731,3.846,11.283.295.784.55.884,1.511.943v.666ZM69.55,315.638h-.059c-.411,1.275-1.1,3.473-1.589,5.082h3.257c-.412-1.275-1.216-3.866-1.609-5.082" transform="translate(25.734 -299.027)" fill="#881798"/>
          <path id="Path_19015" data-name="Path 19015" d="M79.312,324.406c0,.707.118.962.825,1.021l1.02.057v.687H74.682v-.687l1.039-.057c.687-.059.8-.314.8-1.021V314.164H75.7c-1.786,0-2.06.707-2.609,2.648H72.4v-3.453H83.432v3.453h-.686c-.55-1.941-.805-2.648-2.609-2.648h-.825Z" transform="translate(29.152 -299.004)" fill="#881798"/>
          <path id="Path_19016" data-name="Path 19016" d="M85.135,324.386c0,.941.118,1.041,1.511,1.1v.686H80.837v-.686c1.373-.059,1.511-.137,1.511-1.1v-9.24c0-.962-.137-1.041-1.511-1.1v-.686h5.808v.686c-1.393.059-1.511.137-1.511,1.1Z" transform="translate(32.547 -299.004)" fill="#881798"/>
          <path id="Path_19017" data-name="Path 19017" d="M98.457,319.871c0,4.141-2.059,6.71-6.317,6.71-4.239,0-6.3-2.57-6.3-6.71,0-4.16,2.059-6.749,6.317-6.749,4.239,0,6.3,2.589,6.3,6.749m-9.535,0c0,2.55.412,5.906,3.218,5.906,2.826,0,3.219-3.356,3.219-5.906,0-2.453-.393-5.926-3.239-5.926-2.786,0-3.2,3.473-3.2,5.926" transform="translate(34.563 -299.1)" fill="#881798"/>
          <path id="Path_19018" data-name="Path 19018" d="M105.3,326.172c-2.3-3.512-4.63-7-6.985-10.517h-.059v6.024a23.378,23.378,0,0,0,.1,2.766c.118,1.1.746.961,1.825,1.039v.687H95.629v-.687c.98-.1,1.393-.02,1.511-1.039a21.828,21.828,0,0,0,.118-2.766v-6.515c0-.98-.137-1.059-1.512-1.118v-.687h4.2c1.943,2.944,4.061,6.044,6.141,9.085h.059v-4.61a27.394,27.394,0,0,0-.1-2.746c-.116-1.1-.764-.962-1.844-1.041v-.687h4.514v.687c-.961.1-1.334.02-1.471,1.041-.059.647-.1,1.353-.1,2.746v8.339Z" transform="translate(38.502 -299.004)" fill="#881798"/>
          <path id="Path_19019" data-name="Path 19019" d="M113.1,316.923c-.47-2.1-1.53-2.983-2.825-2.983a1.926,1.926,0,0,0-2.021,2.06c0,1.414,1.354,1.982,2.746,2.61,1.846.784,3.533,1.55,3.533,3.982,0,1.944-1.159,3.983-4.769,3.983a6.208,6.208,0,0,1-3.866-1.1l-.215-3.276h.666c.648,2.257,1.9,3.571,3.414,3.571a1.977,1.977,0,0,0,2.2-2.139c0-1.255-.9-1.962-2.492-2.629-2.118-.884-3.65-1.746-3.65-4.042s1.511-3.826,4.494-3.826a7.188,7.188,0,0,1,3.453.8v2.983Z" transform="translate(42.551 -299.094)" fill="#881798"/>
        </g>
      </g>
      <g id="_50" data-name="50" transform="translate(314.207 2824.57)" opacity="0">
        <path id="Path_19071" data-name="Path 19071" d="M157.663,232.708c-3.389,0-3.765-.5-4.268,3.515l-2.257,17.691.123.125c4.769-3.011,12.548-7.152,20.578-7.152,22.082,0,25.47,13.677,25.47,23.463,0,14.3-8.281,26.852-29.988,26.852-22.206,0-26.723-11.168-26.723-15.183,0-5.394,5.521-8.908,9.41-8.908,3.637,0,5.142,2.007,6.146,4.767,3.512,10.79,6.274,13.8,11.043,13.8,6.773,0,9.158-7.275,9.158-19.071,0-11.417-4.769-16.812-12.922-16.812-4.518,0-9.663,1.756-14.429,6.9l-4.894-3.638,3.766-41.03.752-1h25.219c12.546,0,17.064.251,20.073-1.131l1.633,1.131L190.16,232.71Z" transform="translate(-140.599 -215.645)" fill="#881798"/>
        <path id="Path_19072" data-name="Path 19072" d="M244.059,256.494c0,21.456-7.277,40.778-30.112,40.778-22.71,0-30.116-19.7-30.116-40.778,0-21.579,7.278-40.777,30.239-40.777,22.334,0,29.988,19.447,29.988,40.777m-39.774,0c0,12.673.5,35.258,9.786,35.258,9.034,0,9.412-22.585,9.412-35.258s-.125-35.258-9.788-35.258c-9.41,0-9.41,22.586-9.41,35.258" transform="translate(-123.192 -215.717)" fill="#881798"/>
        <path id="Path_19073" data-name="Path 19073" d="M157.329,296.59v-1c2.229-.083,2.478-.223,2.478-1.56v-4.07a4.194,4.194,0,0,0-.585-1.867c-.975-1.839-3.121-5.906-3.845-7.16-.668-1.17-.836-1.393-2.2-1.5V278.4h8.636v1.031l-1.421.167c-.612.055-.5.446-.306.864.892,1.95,2.647,5.432,3.455,6.936h.084c1.17-2.312,2.255-4.9,2.981-6.742.251-.7.084-1-.418-1.058l-1.365-.167V278.4h6.129v1.031c-1.394.139-1.839.362-2.424,1.365-1.338,2.2-2.453,4.568-3.651,7.048a4.034,4.034,0,0,0-.5,1.923v4.262c0,1.337.222,1.477,2.48,1.56v1Z" transform="translate(-135.535 -190.48)" fill="#881798"/>
        <path id="Path_19074" data-name="Path 19074" d="M168.063,280.933c0-1.31-.223-1.449-2.034-1.532v-1h14.29v4.93h-1c-.892-2.591-1.366-3.706-4.012-3.706h-1.783c-.725,0-.922.2-.922.976v5.85h2.23c1.589,0,1.978-.474,2.394-2.424h1v6.3h-1c-.417-1.95-.8-2.536-2.394-2.536H172.6v5.683c0,1.644.139,1.895,3.094,1.895,3.093,0,3.537-1.588,4.54-4.319h1l-.387,5.545H166.029v-1c1.811-.084,2.034-.223,2.034-1.561Z" transform="translate(-130.36 -190.48)" fill="#881798"/>
        <path id="Path_19075" data-name="Path 19075" d="M187.513,296.623v-1l1.588-.168c.5-.055.558-.418.391-.919-.474-1.5-1.059-3.288-1.394-4.319h-5.181c-.446,1.533-.947,3.037-1.254,4.319-.167.585-.111.891.446.947l1.588.14v1h-5.991v-1c1.366-.084,1.644-.279,2.062-1.338,1.338-3.119,3.929-11.032,5.488-15.963h3.6c1.449,4.542,4.1,12.593,5.4,16.074.39,1,.78,1.2,2.118,1.227v1Zm-1.978-14.711h-.083c-.5,1.616-1.477,4.932-2.118,7.048h4.345c-.585-1.755-1.643-5.292-2.145-7.048" transform="translate(-125.659 -190.512)" fill="#881798"/>
        <path id="Path_19076" data-name="Path 19076" d="M198.1,294.027c0,1.338.222,1.477,2.032,1.561v1h-8.636v-1c1.809-.084,2.034-.223,2.034-1.561V280.933c0-1.31-.224-1.449-2.034-1.532v-1h9.165c3.15,0,6.242.362,6.242,4.486,0,2.645-1.84,4.066-4.431,4.4v.139a5.169,5.169,0,0,1,4.263,4.54c.39,2.062.837,3.539,2.62,3.623v1H207.2c-2.9,0-4.208-.7-4.876-2.675a36.208,36.208,0,0,1-.78-3.706,2.143,2.143,0,0,0-2.478-2.006h-.975Zm0-7.048h1c2.787,0,3.149-1.811,3.149-3.76,0-2.48-1.2-3.6-2.842-3.6-1.254,0-1.309.251-1.309.976Z" transform="translate(-120.109 -190.48)" fill="#881798"/>
        <path id="Path_19077" data-name="Path 19077" d="M215.807,283.624c-.78-3.121-2.4-4.319-4.068-4.319a2.538,2.538,0,0,0-2.619,2.7c0,1.978,1.839,2.7,3.955,3.7,2.368,1.087,4.819,2.2,4.819,5.685,0,2.729-1.588,5.766-6.936,5.766-1.728,0-4.206-.306-5.6-1.56L205,290.757h.975c1.059,3.342,2.926,5.153,4.932,5.153a2.535,2.535,0,0,0,2.786-2.786c0-1.56-.808-2.508-3.26-3.594-3.121-1.393-5.293-2.647-5.293-5.906,0-3.093,1.867-5.545,6.6-5.545a10.3,10.3,0,0,1,5.014,1.17v4.375Z" transform="translate(-114.671 -190.608)" fill="#881798"/>
      </g>
      <g id="trunk" transform="translate(0 169.166)">
        <path id="trunk_base" data-name="trunk base" d="M150.345,125.459c0-1.642-2.566-11.438-8.33-11.506s-8.639,9.864-8.639,11.506c-3.267,20.333-1.31,8.673-10.446,68.494a58.083,58.083,0,0,0,12.1-2.493,25.647,25.647,0,0,1,13.96,0,58.1,58.1,0,0,0,12.1,2.493" transform="translate(132.207 2467.881)" fill="#49176d"/>
        <path id="trunk_R" data-name="trunk R" d="M87.4,171.383l-.485-.171-.663-.2-.834-.289s-4.669-1.772-4.511-2.208c.186-.514,4.675.125,4.675.125l.768.163.679.179.485.123a1.3,1.3,0,0,1,.87,1.329.95.95,0,0,1-.984.949Z" transform="translate(182.861 2458.616)" fill="#49176d" opacity="0.999"/>
        <path id="trunk_L" data-name="trunk L" d="M188.447,150.224c-.823-2.948-16.934-1.062-16.934-1.062l-7.545.867-6.412.916s-6.824,1.07-6.863,1.058c-2.424,1.624-7.642,3.249-6.861,11.139a8.769,8.769,0,0,0,7.823,8.335c18.1-6.273,38.52-15.062,36.792-21.253" transform="translate(132.207 2457.881)" fill="#49176d" opacity="0"/>
      </g>
      <g id="leaves">
        <g id="top3" transform="translate(117 2472)" opacity="0.005">
          <path id="Path_19030" data-name="Path 19030" d="M96.167,53.791c9.663-18.45.571-38.977-13.5-47.984-15.808,29.071,13.5,47.984,13.5,47.984" transform="translate(31.401 2.338)" fill="#ee7003"/>
          <path id="Path_19032" data-name="Path 19032" d="M135.137,0c-17.693,12.457-17.5,26.766-11.448,41.857C151.652,23.515,135.137,0,135.137,0" transform="translate(48.309)" fill="#d50065"/>
          <path id="Path_19052" data-name="Path 19052" d="M187.086,33.832C174.656,37.532,170.057,47.4,171.1,57.4c18.2-4.215,15.991-23.567,15.991-23.567" transform="translate(68.83 13.621)" fill="#12a639"/>
          <path id="Path_19065" data-name="Path 19065" d="M60.432,101.8C55.832,63.336,19.3,54.9,19.3,54.9,22.374,86,34.33,92.248,60.432,101.8" transform="translate(7.77 22.102)" fill="#80c342"/>
          <path id="Path_19056" data-name="Path 19056" d="M206.362,66.945c-21.208-.39-29.6,6.665-39.359,21.093,27.365,5.834,39.359-21.093,39.359-21.093" transform="translate(67.239 26.947)" fill="#009690"/>
          <path id="Path_19046" data-name="Path 19046" d="M159.925,71.238s27.139,10.689,46.141-16.993c-35-9.579-46.141,16.993-46.141,16.993" transform="translate(64.39 21.002)" fill="#ee7003"/>
        </g>
        <g id="top2" transform="translate(117 2452)" opacity="0">
          <path id="Path_19029" data-name="Path 19029" d="M43.883,33.045c-4.523,29.393,6.131,49.661,32.008,61.29,9.12-44.422-32.008-61.29-32.008-61.29" transform="translate(17.261 13.305)" fill="#881798"/>
          <path id="Path_19033" data-name="Path 19033" d="M150.627,81.451C171.84,65.27,177.7,54.949,170.9,34.056c-32.893,17.816-20.273,47.4-20.273,47.4" transform="translate(59.688 13.712)" fill="#d50065"/>
          <path id="Path_19049" data-name="Path 19049" d="M100.8,77.785c3.009-38.152-33.04-41.664-33.04-41.664,3.254,27.571,13.4,35.279,33.04,41.664" transform="translate(27.282 14.543)" fill="#633169"/>
          <path id="Path_19054" data-name="Path 19054" d="M148.242,53.647c-15.239,8.738-17.314,16.6-16.334,29.6,22.636-7.87,16.334-29.6,16.334-29.6" transform="translate(53.027 21.6)" fill="#881798"/>
          <path id="Path_19067" data-name="Path 19067" d="M115.238,107.938c23.111-35.684,19.889-60.84.691-90.392-41.231,44.178-.691,90.392-.691,90.392" transform="translate(39.225 7.064)" fill="#009690"/>
          <path id="Path_19068" data-name="Path 19068" d="M127.157,72.259C170.8,56.02,164.6,17.547,164.6,17.547c-32.05,10.774-35.761,28.7-37.442,54.712" transform="translate(51.196 7.065)" fill="#21b7e9"/>
          <path id="Path_19070" data-name="Path 19070" d="M150.131,84.97c.33.079.668.164,1,.244-.332-.083-.665-.163-1-.244" transform="translate(60.446 34.211)" fill="#881798"/>
        </g>
        <g id="L2" transform="translate(147 2422)" opacity="0">
          <path id="Path_19023" data-name="Path 19023" d="M13.547,207.53C52.084,217.692,65.7,190.986,65.7,190.986c-29.628-4.932-36.4.121-52.158,16.544" transform="translate(5.455 76.168)" fill="#009690"/>
          <path id="Path_19037" data-name="Path 19037" d="M53.317,219.015c19.29-8.333,23.1-17.39,24.329-33.12-28.123,6.193-24.329,33.12-24.329,33.12" transform="translate(21.398 74.846)" fill="#d50065"/>
          <path id="Path_19038" data-name="Path 19038" d="M4.285,144.34C20.085,161.026,41.654,148,41.654,148c-14.061-10.046-23.321-9.093-37.369-3.665" transform="translate(1.725 56.498)" fill="#009ee4"/>
          <path id="Path_19044" data-name="Path 19044" d="M106.8,178.91c-20.836,1.243-27.026,9.782-32.483,26.9,29,4.142,32.483-26.9,32.483-26.9" transform="translate(29.924 72.033)" fill="#80c342"/>
          <path id="Path_19045" data-name="Path 19045" d="M39.047,175.442C15.4,162.819.4,177.09.4,177.09c17.955,10.179,26.956,5.04,38.645-1.648" transform="translate(0.162 68.539)" fill="#21b7e9"/>
          <path id="Path_19050" data-name="Path 19050" d="M87.017,220.919c19.913-9.559,13.258-27.013,13.258-27.013-13.217,9.254-14.721,16.148-13.258,27.013" transform="translate(34.854 78.07)" fill="#21b7e9"/>
          <path id="Path_19062" data-name="Path 19062" d="M33.021,108.189C23.292,89.786,0,93.9,0,93.9c8.329,14.224,20.551,17.568,33.021,14.286" transform="translate(0 37.648)" fill="#d50065"/>
        </g>
        <g id="R2" transform="translate(87 2422)" opacity="0">
          <path id="Path_19022" data-name="Path 19022" d="M187.191,154.039c18.344,33.119,49.121,22.619,49.121,22.619-13.014-21.525-25.4-25.49-49.121-22.619" transform="translate(75.367 61.688)" fill="#633169"/>
          <path id="Path_19025" data-name="Path 19025" d="M146.155,182.344c-2.1,22.066,21.823,29.89,21.823,29.89-1.8-17.061-7.783-24.911-21.823-29.89" transform="translate(58.793 73.416)" fill="#881798"/>
          <path id="Path_19026" data-name="Path 19026" d="M173.034,177.654c15.256,22.616,48.759,12.632,48.759,12.632-12.7-18.7-31.992-16.564-48.759-12.632" transform="translate(69.668 70.455)" fill="#009690"/>
          <path id="Path_19031" data-name="Path 19031" d="M128.85,190.2c-2.791,14.4,2.45,20.833,12.87,25.995,6.336-17.018-12.87-25.995-12.87-25.995" transform="translate(51.578 76.58)" fill="#d50065"/>
          <path id="Path_19039" data-name="Path 19039" d="M207.8,152.225c11.281,6.7,17.572,5.721,26.615,1.379-13.427-11.587-26.615-1.379-26.615-1.379" transform="translate(83.664 59.617)" fill="#ee7003"/>
          <path id="Path_19040" data-name="Path 19040" d="M160.652,185.939c9.8,12.875,18.457,14.368,32.849,13.019-8.966-19.6-32.849-13.019-32.849-13.019" transform="translate(64.682 74.436)" fill="#ee7003"/>
          <path id="Path_19047" data-name="Path 19047" d="M191.173,131.5c15.158,5.31,22.609,2.435,32.7-5.317-18.759-10.8-32.7,5.317-32.7,5.317" transform="translate(76.971 49.305)" fill="#80c342"/>
          <path id="Path_19051" data-name="Path 19051" d="M198.634,170.782c-12.925-13.347-29.713-2.5-29.713-2.5,11.511,7.848,18.77,6.981,29.713,2.5" transform="translate(68.012 66.08)" fill="#80c342"/>
          <path id="Path_19057" data-name="Path 19057" d="M181.825,108.364c25.452-2.6,23.7-22.16,23.7-22.16-17.841,4.623-21.783,10.921-23.7,22.16" transform="translate(73.207 34.707)" fill="#d50065"/>
        </g>
        <g id="top" transform="translate(117 2452)" opacity="0">
          <path id="Path_19020" data-name="Path 19020" d="M172.961,70.6c-43.95,5.826-42.88,50.064-42.88,50.064,33.812-9.73,40.93-25.031,42.88-50.064" transform="translate(52.373 28.424)" fill="#633169"/>
          <path id="Path_19035" data-name="Path 19035" d="M78.009,69.616s.084,38.6,38,46.615c3.239-40.08-38-46.615-38-46.615" transform="translate(31.408 28.029)" fill="#009ee4"/>
          <path id="Path_19043" data-name="Path 19043" d="M49.666,79.865C61.489,99.881,85.241,96.188,85.241,96.188c-9.283-16.35-21.356-19.2-35.575-16.322" transform="translate(19.996 31.758)" fill="#009690"/>
          <path id="Path_19055" data-name="Path 19055" d="M133.394,72.639c-20.931,19.073-24.023,32.44-18.043,53.573,28.828-18.4,18.043-53.573,18.043-53.573" transform="translate(45.355 29.246)" fill="#12a639"/>
          <path id="Path_19066" data-name="Path 19066" d="M74.766,96.412c4.859,39.805,38.8,40.457,38.8,40.457-2.979-24.455-16.439-34.792-38.8-40.457" transform="translate(30.102 38.818)" fill="#12a639"/>
          <path id="Path_19027" data-name="Path 19027" d="M59.025,116.024C57.013,83.1,20.045,85.133,20.045,85.133c6.986,23.516,18.327,27.146,38.98,30.891" transform="translate(8.07 34.266)" fill="#009690"/>
        </g>
        <g id="L" transform="translate(147 2422)" opacity="0">
          <path id="Path_19028" data-name="Path 19028" d="M50.12,143.5c-9.935-18.621-29.665-23.079-47.44-21.208C16.907,149.275,50.12,143.5,50.12,143.5" transform="translate(1.078 49.078)" fill="#881798"/>
          <path id="Path_19036" data-name="Path 19036" d="M24.427,186.834c18.6,7.925,48.713,7.313,60.944-8.727-35.071-19.617-60.944,8.727-60.944,8.727" transform="translate(9.834 68.926)" fill="#881798"/>
          <path id="Path_19059" data-name="Path 19059" d="M74.257,182.23c13.321,2.417,21.5-3.261,23.142-12.347-10.353-1.543-18.718-.313-23.142,12.347" transform="translate(29.898 68.188)" fill="#ee7003"/>
          <path id="Path_19060" data-name="Path 19060" d="M47.367,131.17c7.958,22.094,33.074,18.86,33.074,18.86-10.127-18.3-16.266-18.955-33.074-18.86" transform="translate(19.07 52.809)" fill="#d50065"/>
          <path id="Path_19061" data-name="Path 19061" d="M69.4,164.705c-30.806-24.068-57.625-1.1-57.625-1.1,22.344,12.959,40.109,12.632,57.625,1.1" transform="translate(4.742 61.891)" fill="#633169"/>
          <path id="Path_19063" data-name="Path 19063" d="M54.322,94.426c-7.2,38.252,18.832,52.6,34.938,59.763,5.315-26.242-10.823-53.683-34.938-59.763" transform="translate(21.375 38.018)" fill="#009ee4"/>
          <path id="Path_19069" data-name="Path 19069" d="M70.1,133.714c-11.068-22.257-31-25.641-52.21-24.866,13.175,28.4,52.21,24.866,52.21,24.866" transform="translate(7.203 43.785)" fill="#ee7003"/>
        </g>
        <g id="R" transform="translate(87 2422)" opacity="0">
          <path id="Path_19021" data-name="Path 19021" d="M128.512,157.043c7.424,22.048,25.2,29.7,52.541,32.65-10.518-39.283-52.541-32.65-52.541-32.65" transform="translate(51.742 63.059)" fill="#21b7e9"/>
          <path id="Path_19024" data-name="Path 19024" d="M197,163.206c-15.018-17.585-32.49-19.776-50.459-12.95C163.617,180.912,197,163.206,197,163.206" transform="translate(59 59.053)" fill="#881798"/>
          <path id="Path_19053" data-name="Path 19053" d="M232.043,143.167c-18.6-12.242-33.8-10.478-61.09,1.889,36.822,19.815,61.09-1.889,61.09-1.889" transform="translate(68.83 54.287)" fill="#d50065"/>
          <path id="Path_19058" data-name="Path 19058" d="M220.915,96.13c-37.411,5.128-38.686,40.757-38.686,40.757,26.991-8.7,38.661-22.752,38.686-40.757" transform="translate(73.369 38.703)" fill="#009ee4"/>
          <path id="Path_19064" data-name="Path 19064" d="M149.541,135.585c27.2-.4,33.725-5.054,42.039-22.759-37.1-6.1-42.039,22.759-42.039,22.759" transform="translate(60.209 45.086)" fill="#633169"/>
          <path id="Path_19034" data-name="Path 19034" d="M146.776,123.4c41.219.714,48.05-37.722,48.05-37.722-26.894.2-39.757,16.32-48.05,37.722" transform="translate(59.096 34.496)" fill="#ee7003"/>
          <path id="Path_19041" data-name="Path 19041" d="M149.772,197.517c.041-16.637-12.584-24.793-25.716-26.909,2.425,24.794,25.716,26.909,25.716,26.909" transform="translate(49.947 68.691)" fill="#009690"/>
        </g>
        <path id="Path_19048" data-name="Path 19048" d="M89.774,129.79c-4.134,18.221,1.153,25.034,13.309,32.713,10.8-23.748-13.309-32.713-13.309-32.713" transform="translate(152.586 2474.256)" fill="#881798" opacity="0"/>
        <path id="Path_19042" data-name="Path 19042" d="M124.358,144.325c17.676-7.879,20.952-22.087,17.867-35.646-24.481,10.778-17.867,35.646-17.867,35.646" transform="translate(166.741 2625.496)" fill="#009690" opacity="0"/>
      </g>
    </g>
    <g id="words-2" data-name="words" transform="translate(800.961 675)">
      <g id="for_gen-2" data-name="for gen">
        <path id="Path_18993-2" data-name="Path 18993" d="M122.715,330.361a2.393,2.393,0,0,0-.274-1.309c-.062-.143-.153-.2-.275-.181a28.928,28.928,0,0,0-1,4.627l.076.046.076.015.184-.184a6.254,6.254,0,0,0,1.217-3.016m-2.223-4.354a3.03,3.03,0,0,0,.122-.518,1.05,1.05,0,0,0-.366.029c-.02,0-.163.042-.425.123a1.076,1.076,0,0,0,.669.365m8.284-3.838.259.031.182.091.136.153.153.241-.107.138-.136.077-.184.046-.151.045-1.281.365c-.567.164-1,.288-1.309.366q-.64.185-2.225.7-.027,0-.638.245-.185.545-.487,1.505t-.426,1.265a3.07,3.07,0,0,1,.366.426q.821.884.882.975a3.259,3.259,0,0,1,.638,2.526,6.668,6.668,0,0,1-1.248,2.863,7.4,7.4,0,0,1-.822.916,2.106,2.106,0,0,1-3.289-.976,4.2,4.2,0,0,1-.091-1.339,33.818,33.818,0,0,1,1.066-5.359,2.822,2.822,0,0,0,.122-.551l-.289-.226c-.112-.072-.25-.147-.411-.229a3.165,3.165,0,0,1-.335-.184c-.506-.264-.945-.5-1.31-.731q-.425-.271-.366-.609c.062-.163.276-.314.64-.456q.428-.121,1.432-.429c.06-.018.649-.192,1.766-.516a5.856,5.856,0,0,1,.275-.64,97.169,97.169,0,0,1,4.508-10.323c.222-.467.619-1.188,1.185-2.163a2.169,2.169,0,0,1,.825-.915.971.971,0,0,1,1,.548c-.224.649-.335,1-.335,1.037q-.581,1.431-1.659,4.142t-1.539,3.868q-.549,1.368-1.248,3.227a1.575,1.575,0,0,0-.122.487c.63-.123.964-.182,1-.182q2.07-.393,2.62-.488a3.065,3.065,0,0,1,.944.031" transform="translate(47.295 -300.559)" fill="#49176d"/>
        <path id="Path_18994-2" data-name="Path 18994" d="M131.775,316.87a1.853,1.853,0,0,0,.031-.518,2.986,2.986,0,0,0-1.219,1.034,1.319,1.319,0,0,1-1.006.7c-.1.224-.288.614-.562,1.174s-.481.983-.624,1.278-.3.675-.471,1.14a11.167,11.167,0,0,0-.411,1.341,2.355,2.355,0,0,1,.366-.215,17.017,17.017,0,0,0,2.8-3.288,8.925,8.925,0,0,0,1.1-2.65m-.7-2.1a2.231,2.231,0,0,1,2.041.807,2.5,2.5,0,0,1,.7,2.056,8.731,8.731,0,0,1-.426,1.888,12.6,12.6,0,0,1-4.394,5.82,4.622,4.622,0,0,1-.516.332,1.482,1.482,0,0,1-.49.184c-.039,0-.149-.011-.32-.031s-.283-.035-.335-.046-.146-.025-.288-.045a1.356,1.356,0,0,1-.321-.076l-.258-.1-.289-.17-.259-.229a3.054,3.054,0,0,1-.822-2.619,10.172,10.172,0,0,1,.609-2.407,17.811,17.811,0,0,1,2.8-4.721,8.032,8.032,0,0,1,.7-.729,1.417,1.417,0,0,1,.714-.411,1.357,1.357,0,0,1,.809.227c.018.021.13.114.335.275" transform="translate(50.355 -298.641)" fill="#49176d"/>
        <path id="Path_18995-2" data-name="Path 18995" d="M140.351,317.822a1.291,1.291,0,0,1,.366.459.662.662,0,0,1-.7.09c-.223-.081-.506-.2-.851-.365-.062-.039-.346-.215-.854-.519a2.364,2.364,0,0,0-.882.7,20.752,20.752,0,0,0-2.192,3.257q-.642,1.126-1.25,2.072a4.619,4.619,0,0,1-.518.731h-.943a1.329,1.329,0,0,1-.885-1.948q.151-.61.67-2.469.608-2.224,1-3.592a6.336,6.336,0,0,1,.4-1.1.75.75,0,0,1,.959-.411,1.028,1.028,0,0,1,.839.715c-.062.283-.163.69-.3,1.217s-.244.914-.306,1.157l.093.06.121-.107.123-.135.091-.123q.608-.64.638-.669a2.047,2.047,0,0,1,1.157-.654,2.2,2.2,0,0,1,1.311.317l.576.4c.672.466,1.116.77,1.341.912" transform="translate(52.957 -298.465)" fill="#49176d"/>
        <path id="Path_18996-2" data-name="Path 18996" d="M160.638,330.062l.06-.363-.4.184q-4.143,2.464-7.158,4.688a35.786,35.786,0,0,0-5.086,4.418,14.033,14.033,0,0,0-1.523,1.978,6.144,6.144,0,0,0-.609,1.341c-.041.2-.07.4-.091.609a.609.609,0,0,0,.426.579,2.171,2.171,0,0,0,1.309.09,11.437,11.437,0,0,0,1.4-.425,13.75,13.75,0,0,0,3.016-1.736,33.089,33.089,0,0,0,4.508-4.143,19.532,19.532,0,0,0,4.142-7.218m-15.9-.578c0,.022.011.275.031.762a5.286,5.286,0,0,0,1.645-.487,26.472,26.472,0,0,0,5.267-3.107q5.3-4.021,9.107-7.4a3.64,3.64,0,0,0,.289-.229c.132-.112.229-.2.29-.258a1.373,1.373,0,0,1,1.673-.093,1.87,1.87,0,0,1,1.037,1.92q-.063.791-.3,5.511l.062.091c.222-.08.516-.2.882-.348s.679-.279.944-.383.558-.208.884-.318a8.683,8.683,0,0,1,.958-.275c.316-.072.634-.126.959-.167h.428l-.093.335a4.288,4.288,0,0,1-.609.609c-.264.163-.62.363-1.066.609-.365.184-.884.442-1.553.776s-1.108.544-1.31.626c-.02.02-.254.153-.7.394-.1.387-.153.59-.153.61a22.981,22.981,0,0,1-1.95,5.633,13.8,13.8,0,0,1-2.131,3.2,27.042,27.042,0,0,1-6.061,5.207,13.548,13.548,0,0,1-3.838,1.676,6.475,6.475,0,0,1-2.679.093,3.9,3.9,0,0,1-2.132-1.188,1.629,1.629,0,0,1-.426-1.37,4.387,4.387,0,0,1,.426-1.4,13.785,13.785,0,0,1,2.253-3.138,30.77,30.77,0,0,1,5.423-4.658,78.671,78.671,0,0,1,8.069-4.812l.275-.138.334-.168.3-.153a2.061,2.061,0,0,0,.153-.425,2.825,2.825,0,0,0,.076-.4c.01-.1.025-.247.046-.442s.031-.328.031-.408q.09-.581.363-3.871v-.547a4,4,0,0,0-.516.425q-3.137,2.8-7.431,6.153a27.289,27.289,0,0,1-5.817,3.532,5.565,5.565,0,0,1-1.492.459,6.631,6.631,0,0,1-1.98-.153,2.256,2.256,0,0,1-.851-.4,4.12,4.12,0,0,1-.7-.579,3.44,3.44,0,0,1-1.037-2.922,8.375,8.375,0,0,1,.487-2.347q.943-2.59,1.31-3.473a59.528,59.528,0,0,1,5.239-9.684,32.035,32.035,0,0,1,5.39-6.09,13.957,13.957,0,0,1,4.263-2.651,8.739,8.739,0,0,1,2.041-.488,5.4,5.4,0,0,1,1.4.093,6.438,6.438,0,0,1,3.487,1.9,6.68,6.68,0,0,1,1.874,3.519,7.252,7.252,0,0,1-.031,2.376,12.03,12.03,0,0,1-.578,2.4c-.122.264-.275.4-.457.4a.974.974,0,0,1-.519-.853,14.4,14.4,0,0,1-.181-1.767,21.909,21.909,0,0,0-.306-3.1,7.214,7.214,0,0,0-.76-1.951,1.868,1.868,0,0,0-2.163-.944,10.318,10.318,0,0,0-1.858.61,12.957,12.957,0,0,0-3.716,2.467,36.058,36.058,0,0,0-7.187,9.015,68.411,68.411,0,0,0-4.2,8.647,15.969,15.969,0,0,0-.823,2.741c-.039.246-.07.508-.091.793" transform="translate(57.217 -303.125)" fill="#49176d"/>
        <path id="Path_18997-2" data-name="Path 18997" d="M166.628,315.947a8,8,0,0,0-1.767,3.38,5.267,5.267,0,0,0,.731-.943,8.268,8.268,0,0,0,.642-1.233,7.342,7.342,0,0,0,.394-1.2m7.4,1.067a.64.64,0,0,1,.031.912,5.429,5.429,0,0,1-.762.884c-.872.872-1.564,1.534-2.07,1.979q-1.279,1.132-3.989,3.473l-.335.259c-.122.091-.25.188-.382.289l-.318.243a3.546,3.546,0,0,1-2.5.641,2.075,2.075,0,0,1-1.54-.794,2.222,2.222,0,0,1-.592-1.642q.029-.276.122-.792a5.221,5.221,0,0,0,.091-.67,10.2,10.2,0,0,1,.518-1.736,17.855,17.855,0,0,1,1.706-3.563,10.862,10.862,0,0,1,1.4-1.675,1.849,1.849,0,0,1,1.494-.532,2.038,2.038,0,0,1,1.431.777,1.253,1.253,0,0,1,.273,1,10,10,0,0,1-.3,1.125,7.4,7.4,0,0,1-2.5,3.108c-.042.041-.457.337-1.25.884a9.317,9.317,0,0,0-.516,2.923c.485-.244.741-.374.762-.4.952-.591,1.6-1,1.948-1.25a66.016,66.016,0,0,0,6.121-4.9,1.751,1.751,0,0,1,1.157-.547" transform="translate(65.051 -298.633)" fill="#49176d"/>
        <path id="Path_18998-2" data-name="Path 18998" d="M179.693,324.05a.765.765,0,0,1,.488.7c-.3.1-.467.153-.488.153a3.39,3.39,0,0,1-1.979-.578,7.423,7.423,0,0,1-2.467-2.5,4.625,4.625,0,0,1-.487-1.067c-.02-.06-.112-.485-.275-1.279q-1,1.1-1.066,1.157-.3.367-.9,1.083t-.9,1.08q-.3.337-.791.822a1.412,1.412,0,0,1-2.223.031,2.157,2.157,0,0,0-.3-.335,3.1,3.1,0,0,1,.243-1.157q.244-.76.548-1.661t.656-1.9c.23-.669.429-1.217.592-1.643.041-.164.093-.331.153-.5l.2-.562c.072-.2.128-.366.168-.488a1.589,1.589,0,0,1,.334-.669,1.724,1.724,0,0,1,.715.122.782.782,0,0,1,.38.365,1.865,1.865,0,0,1,.154.7c0,.306.008.69.029,1.157l-.029.184-.2.105-.2.137c-.041.123-.1.3-.166.534s-.137.461-.2.684-.132.456-.213.7c.283-.244.436-.375.454-.394q.215-.246.52-.551t.547-.578q.244-.274.519-.548t.547-.562q.274-.29.519-.562a1.5,1.5,0,0,1,1.826-.4,1.757,1.757,0,0,1,1.188,1.736q-.154,1.919-.244,2.773a4.69,4.69,0,0,0,.031,1.612,2.356,2.356,0,0,0,1.736,1.92,2.12,2.12,0,0,1,.578.181" transform="translate(67.762 -298.451)" fill="#49176d"/>
        <path id="Path_18999-2" data-name="Path 18999" d="M182.108,315.947a8.011,8.011,0,0,0-1.766,3.38,5.268,5.268,0,0,0,.731-.943,8.134,8.134,0,0,0,.641-1.233,7.087,7.087,0,0,0,.394-1.2m7.4,1.067a.64.64,0,0,1,.031.912,5.434,5.434,0,0,1-.762.884c-.872.872-1.564,1.534-2.07,1.979q-1.279,1.132-3.989,3.473l-.335.259c-.122.091-.25.188-.382.289l-.318.243a3.546,3.546,0,0,1-2.5.641,2.075,2.075,0,0,1-1.54-.794,2.222,2.222,0,0,1-.592-1.642q.029-.276.122-.792a5.22,5.22,0,0,0,.091-.67,10.191,10.191,0,0,1,.518-1.736,17.778,17.778,0,0,1,1.706-3.563,10.86,10.86,0,0,1,1.4-1.675,1.85,1.85,0,0,1,1.494-.532,2.037,2.037,0,0,1,1.431.777,1.258,1.258,0,0,1,.273,1,10,10,0,0,1-.3,1.125,7.4,7.4,0,0,1-2.5,3.108c-.042.041-.457.337-1.25.884a9.276,9.276,0,0,0-.516,2.923c.485-.244.741-.374.762-.4.952-.591,1.6-1,1.948-1.25a66.189,66.189,0,0,0,6.121-4.9,1.751,1.751,0,0,1,1.157-.547" transform="translate(71.283 -298.633)" fill="#49176d"/>
        <path id="Path_19000-2" data-name="Path 19000" d="M192.7,317.822a1.291,1.291,0,0,1,.366.459.662.662,0,0,1-.7.09c-.223-.081-.506-.2-.853-.365-.06-.039-.345-.215-.853-.519a2.364,2.364,0,0,0-.882.7,20.751,20.751,0,0,0-2.192,3.257q-.642,1.126-1.25,2.072a4.663,4.663,0,0,1-.516.731h-.944a1.329,1.329,0,0,1-.885-1.948q.152-.61.67-2.469.608-2.224,1-3.592a6.332,6.332,0,0,1,.4-1.1.751.751,0,0,1,.959-.411,1.028,1.028,0,0,1,.839.715c-.06.283-.163.69-.3,1.217s-.244.914-.306,1.157l.093.06.121-.107.123-.135.091-.123q.608-.64.64-.669a2.039,2.039,0,0,1,1.156-.654,2.2,2.2,0,0,1,1.311.317l.576.4c.672.466,1.116.77,1.341.912" transform="translate(74.033 -298.465)" fill="#49176d"/>
        <path id="Path_19001-2" data-name="Path 19001" d="M199.1,325.823c.021,0,.062.091.122.275a.9.9,0,0,1-.882-.122,3.12,3.12,0,0,1-1.37-1.647,11.969,11.969,0,0,1-.548-2.434c0-.081-.021-.276-.062-.579l-.167-.015-.091.062-.062.091-.076.074q-1.706,2.165-1.736,2.194a5.727,5.727,0,0,1-1.309,1.189,1.981,1.981,0,0,1-1.478.3,2.048,2.048,0,0,1-1.262-.854,1.051,1.051,0,0,1-.182-.881,8.7,8.7,0,0,1,.3-1.279,20.259,20.259,0,0,1,3.138-5.848,22.838,22.838,0,0,1,1.706-1.826,2.374,2.374,0,0,1,.762-.52.959.959,0,0,1,1.035.062,1.1,1.1,0,0,1,.426,1.006l-.06.334H197l-.229-.2-.2-.168a18.2,18.2,0,0,0-2.5,3.776,10.585,10.585,0,0,0-1.432,3.594,16.839,16.839,0,0,0,2.1-2.772q.122-.183,1.584-2.954a1.925,1.925,0,0,1,1.2.091,1.525,1.525,0,0,1,.867.762,1.182,1.182,0,0,1,.122.669,8.564,8.564,0,0,1-.076.961,8.532,8.532,0,0,0-.076.9,17.028,17.028,0,0,0,.152,4.26,3.414,3.414,0,0,0,.578,1.494" transform="translate(76.488 -298.791)" fill="#49176d"/>
        <path id="Path_19002-2" data-name="Path 19002" d="M212.729,312.059a1.128,1.128,0,0,1,.578.578,7.139,7.139,0,0,1-1.355.077,8.555,8.555,0,0,0-1.293.045c-.286.039-.715.105-1.3.2s-1.02.159-1.324.2c-.121.02-.975.2-2.558.516a3.047,3.047,0,0,0-.182.4q-3.046,8.374-3.685,10.14a27.986,27.986,0,0,0-1.25,4.479,8.606,8.606,0,0,0-.091,2.558q0,.029.122.7a1.023,1.023,0,0,0,.822.031,7.583,7.583,0,0,0,2.682-1.341c.607-.446,1-.742,1.187-.884a3.483,3.483,0,0,1,1-.487.558.558,0,0,1,.062.7,4.16,4.16,0,0,1-.67,1.034,6.632,6.632,0,0,1-4.2,2.1A3.765,3.765,0,0,1,198.2,331.8a2.782,2.782,0,0,1-.609-1.735,9.953,9.953,0,0,1,.4-3.839q.7-2.434,1.248-3.836.212-.579,2.77-7a6.522,6.522,0,0,0,.276-.7l-.184-.091-.137-.031-.151.046-.137.046c-.3.079-.721.2-1.248.348s-1.016.29-1.463.412-.863.234-1.248.334a2.808,2.808,0,0,1-1.98-.031,5.3,5.3,0,0,1-.334-.547,1.008,1.008,0,0,1,.7-.7c1.342-.568,2.213-.914,2.62-1.034q.334-.093,4.051-.945a4.045,4.045,0,0,0,.456-.091q.3-.732.306-.763.3-.791.807-2.087t.944-2.4q.442-1.115.837-2.087,0-.031.366-.7a1.379,1.379,0,0,1,.929.273,1.075,1.075,0,0,1,.167.853c-.06.387-.142.794-.244,1.217q-.061.215-1.126,4.448-.03.063-.182.67a3.3,3.3,0,0,0,1.126,0,22.373,22.373,0,0,1,3.624-.245,4.339,4.339,0,0,1,1.95.49" transform="translate(78.672 -302.629)" fill="#49176d"/>
        <path id="Path_19003-2" data-name="Path 19003" d="M210.606,309.832a.523.523,0,0,1,.382.272.394.394,0,0,1-.046.428,2.763,2.763,0,0,1-.365.365c-.182.142-.432.344-.746.609s-.541.459-.684.578a4.245,4.245,0,0,0-.579.52c-.062.06-.314.365-.762.912.06.264.093.408.093.428l-.032.093a1.793,1.793,0,0,1-1.065-.139,1.5,1.5,0,0,1-.729-.717.557.557,0,0,1,.028-.638,3.412,3.412,0,0,1,.4-.49,13.329,13.329,0,0,1,2.923-2.01,1.849,1.849,0,0,1,1.188-.21m-2.8,15.2a1.4,1.4,0,0,1,.762-.215l.029.337-.091.3a3.708,3.708,0,0,1-1.4,1.384,2.84,2.84,0,0,1-2.041.443,2.8,2.8,0,0,1-2.316-1.95,4.121,4.121,0,0,1-.123-2.01,18.146,18.146,0,0,1,1.006-3.32,20.451,20.451,0,0,1,1.645-3.411c.181-.264.3-.435.365-.516a.965.965,0,0,1,1.31-.213.81.81,0,0,1,.351.439.556.556,0,0,1-.107.5,3.042,3.042,0,0,0-.229.411c-.07.151-.128.282-.167.394l-.154.428c-.06.173-.112.309-.151.41a45.838,45.838,0,0,0-1.584,5.027,6.264,6.264,0,0,0-.272,2.069,1,1,0,0,0,.335.825,2.589,2.589,0,0,0,1.431-.519q.884-.547,1.4-.822" transform="translate(81.555 -300.432)" fill="#49176d"/>
        <path id="Path_19004-2" data-name="Path 19004" d="M212.2,316.87a1.924,1.924,0,0,0,.031-.518,2.986,2.986,0,0,0-1.219,1.034,1.319,1.319,0,0,1-1.006.7c-.1.224-.288.614-.562,1.174s-.484.983-.623,1.278-.3.675-.471,1.14a11.469,11.469,0,0,0-.414,1.341,2.52,2.52,0,0,1,.366-.215,16.983,16.983,0,0,0,2.8-3.288,8.925,8.925,0,0,0,1.1-2.65m-.7-2.1a2.232,2.232,0,0,1,2.042.807,2.5,2.5,0,0,1,.7,2.056,8.812,8.812,0,0,1-.426,1.888,12.593,12.593,0,0,1-4.386,5.818,4.364,4.364,0,0,1-.516.332,1.451,1.451,0,0,1-.49.184c-.039,0-.146-.011-.318-.031s-.283-.035-.335-.046-.147-.025-.288-.045a1.373,1.373,0,0,1-.323-.076l-.258-.1-.289-.17-.258-.229a3.063,3.063,0,0,1-.822-2.619,10.17,10.17,0,0,1,.607-2.407,17.889,17.889,0,0,1,2.8-4.721,7.842,7.842,0,0,1,.7-.729,1.412,1.412,0,0,1,.717-.411,1.356,1.356,0,0,1,.806.227c.018.021.13.114.334.275" transform="translate(82.736 -298.641)" fill="#49176d"/>
        <path id="Path_19005-2" data-name="Path 19005" d="M223.248,324.05a.765.765,0,0,1,.488.7c-.3.1-.467.153-.488.153a3.39,3.39,0,0,1-1.979-.578,7.424,7.424,0,0,1-2.467-2.5,4.623,4.623,0,0,1-.487-1.067c-.02-.06-.112-.485-.275-1.279q-1,1.1-1.066,1.157-.3.367-.9,1.083t-.9,1.08q-.3.337-.791.822a1.412,1.412,0,0,1-2.223.031,2.155,2.155,0,0,0-.3-.335,3.1,3.1,0,0,1,.243-1.157q.244-.76.548-1.661t.656-1.9c.23-.669.429-1.217.592-1.643.041-.164.093-.331.153-.5l.2-.562c.072-.2.128-.366.168-.488a1.589,1.589,0,0,1,.334-.669,1.735,1.735,0,0,1,.717.122.785.785,0,0,1,.379.365,1.865,1.865,0,0,1,.154.7c0,.306.01.69.029,1.157l-.029.184-.2.105-.2.137c-.041.123-.1.3-.166.534s-.137.461-.2.684-.132.456-.213.7c.283-.244.438-.375.456-.394.142-.164.316-.348.519-.551s.386-.394.547-.578.335-.365.519-.548.365-.369.547-.562.355-.381.519-.562a1.5,1.5,0,0,1,1.826-.4,1.757,1.757,0,0,1,1.188,1.736q-.154,1.919-.244,2.773a4.692,4.692,0,0,0,.031,1.612,2.356,2.356,0,0,0,1.736,1.92,2.1,2.1,0,0,1,.578.181" transform="translate(85.299 -298.451)" fill="#49176d"/>
        <path id="Path_19006-2" data-name="Path 19006" d="M225.92,323.345a2.434,2.434,0,0,0,.731-1.035,6.243,6.243,0,0,0-1.919-.638,8.893,8.893,0,0,0-1.476,1.8,5.62,5.62,0,0,0-.808,1.767,9.575,9.575,0,0,0,3.471-1.889m3.107-.851a2.028,2.028,0,0,1,.32,1.3,2.141,2.141,0,0,1-.777,1.264,8.119,8.119,0,0,1-2.375,1.431,9.831,9.831,0,0,1-2.467.7,6.592,6.592,0,0,1-1.006-.029l-.243-.062-.274-.091a1.462,1.462,0,0,1-.945-.365,4.979,4.979,0,0,1-.76-.945,1.04,1.04,0,0,1-.062-.975,11.457,11.457,0,0,1,.7-1.31c.081-.122.628-.83,1.644-2.132l.091-.107.091-.121.091-.107c-.691-.609-1.055-.934-1.1-.976q-.215-.24-.488-.578a5.952,5.952,0,0,1-.578-.882,4.3,4.3,0,0,1-.426-1.035,2.236,2.236,0,0,1,.457-1.676,6.361,6.361,0,0,1,.76-.884,6.907,6.907,0,0,1,3.868-1.8,2.685,2.685,0,0,1,2.62,1.065,1.23,1.23,0,0,1,.09,1.523c-.02.022-.163.224-.426.609a1.081,1.081,0,0,1-.578-.3,2.192,2.192,0,0,1-.062-.882,2.253,2.253,0,0,0-1.309.609,7.189,7.189,0,0,0-2.438,3.077,3.2,3.2,0,0,0,1.189.638c.711-.548,1.1-.842,1.156-.884a3.666,3.666,0,0,1,1.432-.76l.426-.031v.457a2.017,2.017,0,0,1-.547.912c-.021.022-.286.294-.792.822l.121.2.244.153.182.107a5.379,5.379,0,0,1,2.041,1.857l.031.093Z" transform="translate(88.717 -299.115)" fill="#49176d"/>
      </g>
      <g id="by_gen-2" data-name="by gen">
        <path id="Path_19007-2" data-name="Path 19007" d="M6.535,313.359c2.766,0,4.12.844,4.12,2.964,0,1.648-1.08,2.55-2.923,2.884v.118c1.766.236,3.453.863,3.453,3.1a3.313,3.313,0,0,1-1.159,2.708c-.8.647-2.1,1.039-4.336,1.039H0v-.687c1.373-.079,1.511-.157,1.511-1.1v-9.242c0-.961-.137-1.039-1.511-1.1v-.687ZM4.3,318.951h.961c1.825,0,2.63-.922,2.63-2.414a2.211,2.211,0,0,0-2.512-2.373c-.884.02-1.079.078-1.079.745Zm0,5.141c0,.982.314,1.275,1.354,1.275,1.334,0,2.55-.725,2.55-2.786,0-1.766-.882-2.8-2.9-2.8h-1Z" transform="translate(0 -299.004)" fill="#881798"/>
        <path id="Path_19008-2" data-name="Path 19008" d="M11.111,326.172v-.687c1.687-.059,1.825-.157,1.825-1.1V321.56a2.68,2.68,0,0,0-.373-1.236c-.764-1.452-2.177-4.061-2.864-5.258-.471-.8-.609-.961-1.589-1.02v-.687h5.709v.687l-1.039.118c-.372.02-.353.294-.216.589.707,1.471,1.9,3.746,2.63,5.082h.039c.9-1.766,1.786-3.728,2.275-4.985.178-.45.079-.666-.255-.706l-.98-.1v-.687H20.49v.687c-1.06.1-1.314.236-1.786,1.041-.825,1.353-1.786,3.3-2.669,5.1a2.591,2.591,0,0,0-.313,1.257v2.943c0,.941.116,1.039,1.825,1.1v.687Z" transform="translate(3.266 -299.004)" fill="#881798"/>
        <path id="Path_19009-2" data-name="Path 19009" d="M31.16,325.719a14.085,14.085,0,0,1-4.493.863,8.285,8.285,0,0,1-4.533-1.039c-1.393-.941-2.393-2.689-2.393-5.553,0-3,1.354-6.867,6.985-6.867a10.066,10.066,0,0,1,4.237.844v3.3h-.687c-.47-1.766-1.491-3.316-3.589-3.316-3.335,0-3.866,3.669-3.866,5.787,0,1.57.373,6.044,3.944,6.044a2.932,2.932,0,0,0,1.157-.2c.314-.118.432-.334.432-.766v-2.727c0-.923-.137-1-1.687-1.119v-.67h5.571v.666c-.961.118-1.079.2-1.079,1.08Z" transform="translate(7.947 -299.1)" fill="#881798"/>
        <path id="Path_19010-2" data-name="Path 19010" d="M30.759,315.145c0-.962-.137-1.041-1.511-1.1v-.686h9.83V316.7H38.39c-.49-1.844-.863-2.532-2.805-2.532H34.192c-.55,0-.668.118-.668.668v4.218h1.864c1.255,0,1.452-.372,1.727-1.687H37.8V321.7h-.687c-.254-1.3-.471-1.746-1.727-1.746H33.525v4c0,1.177.137,1.412,2.237,1.412,2.218,0,2.707-.9,3.316-2.943h.687l-.314,3.746h-10.2v-.686c1.373-.059,1.511-.137,1.511-1.1Z" transform="translate(11.775 -299.004)" fill="#881798"/>
        <path id="Path_19011-2" data-name="Path 19011" d="M47.085,326.172c-2.3-3.512-4.63-7-6.985-10.517h-.059v6.024a23.377,23.377,0,0,0,.1,2.766c.118,1.1.746.961,1.825,1.039v.687H37.413v-.687c.98-.1,1.393-.02,1.511-1.039a21.829,21.829,0,0,0,.118-2.766v-6.515c0-.98-.137-1.059-1.512-1.118v-.687h4.2c1.943,2.944,4.061,6.044,6.141,9.085h.059v-4.61a27.394,27.394,0,0,0-.1-2.746c-.118-1.1-.766-.962-1.846-1.041v-.687H50.5v.687c-.961.1-1.334.02-1.471,1.041-.059.647-.1,1.353-.1,2.746v8.339Z" transform="translate(15.063 -299.004)" fill="#881798"/>
        <path id="Path_19012-2" data-name="Path 19012" d="M48.822,315.145c0-.962-.137-1.041-1.511-1.1v-.686h9.83V316.7h-.687c-.49-1.844-.863-2.532-2.805-2.532H52.255c-.55,0-.668.118-.668.668v4.218h1.864c1.255,0,1.452-.372,1.727-1.687h.687V321.7h-.687c-.254-1.3-.471-1.746-1.727-1.746H51.588v4c0,1.177.137,1.412,2.237,1.412,2.218,0,2.707-.9,3.316-2.943h.687l-.314,3.746h-10.2v-.686c1.373-.059,1.511-.137,1.511-1.1Z" transform="translate(19.049 -299.004)" fill="#881798"/>
        <path id="Path_19013-2" data-name="Path 19013" d="M59.862,324.386c0,.962.137,1.041,1.511,1.1v.686H55.545v-.686c1.393-.059,1.53-.137,1.53-1.1v-9.24c0-.962-.137-1.041-1.53-1.1v-.686h6.221c2.55,0,4.3.647,4.3,3.159,0,1.825-1.275,2.864-3.08,3.119v.078a3.543,3.543,0,0,1,2.9,3.3c.236,1.373.55,2.393,1.864,2.473v.686H66.239c-1.746,0-2.609-.47-3.021-1.786-.255-.922-.393-2.06-.53-2.687a1.722,1.722,0,0,0-1.962-1.512h-.863Zm0-5h.922c1.923,0,2.394-1.1,2.394-2.65,0-1.981-1.079-2.57-2.3-2.57-1,0-1.02.157-1.02.766Z" transform="translate(22.363 -299.004)" fill="#881798"/>
        <path id="Path_19014-2" data-name="Path 19014" d="M71.121,326.2v-.666l1.02-.119c.431-.039.509-.273.353-.686-.314-1-.825-2.492-1.06-3.178H67.627c-.352,1.157-.706,2.216-.961,3.2-.118.412-.1.627.353.686l1.079.079v.687h-4.18v-.687c1.041-.059,1.217-.216,1.551-1.039,1.059-2.63,2.727-7.653,3.885-11.165h2.177c1.039,3.16,2.9,8.731,3.846,11.283.295.784.55.884,1.511.943v.666ZM69.55,315.638h-.059c-.411,1.275-1.1,3.473-1.589,5.082h3.257c-.412-1.275-1.216-3.866-1.609-5.082" transform="translate(25.734 -299.027)" fill="#881798"/>
        <path id="Path_19015-2" data-name="Path 19015" d="M79.312,324.406c0,.707.118.962.825,1.021l1.02.057v.687H74.682v-.687l1.039-.057c.687-.059.8-.314.8-1.021V314.164H75.7c-1.786,0-2.06.707-2.609,2.648H72.4v-3.453H83.432v3.453h-.686c-.55-1.941-.805-2.648-2.609-2.648h-.825Z" transform="translate(29.152 -299.004)" fill="#881798"/>
        <path id="Path_19016-2" data-name="Path 19016" d="M85.135,324.386c0,.941.118,1.041,1.511,1.1v.686H80.837v-.686c1.373-.059,1.511-.137,1.511-1.1v-9.24c0-.962-.137-1.041-1.511-1.1v-.686h5.808v.686c-1.393.059-1.511.137-1.511,1.1Z" transform="translate(32.547 -299.004)" fill="#881798"/>
        <path id="Path_19017-2" data-name="Path 19017" d="M98.457,319.871c0,4.141-2.059,6.71-6.317,6.71-4.239,0-6.3-2.57-6.3-6.71,0-4.16,2.059-6.749,6.317-6.749,4.239,0,6.3,2.589,6.3,6.749m-9.535,0c0,2.55.412,5.906,3.218,5.906,2.826,0,3.219-3.356,3.219-5.906,0-2.453-.393-5.926-3.239-5.926-2.786,0-3.2,3.473-3.2,5.926" transform="translate(34.563 -299.1)" fill="#881798"/>
        <path id="Path_19018-2" data-name="Path 19018" d="M105.3,326.172c-2.3-3.512-4.63-7-6.985-10.517h-.059v6.024a23.378,23.378,0,0,0,.1,2.766c.118,1.1.746.961,1.825,1.039v.687H95.629v-.687c.98-.1,1.393-.02,1.511-1.039a21.828,21.828,0,0,0,.118-2.766v-6.515c0-.98-.137-1.059-1.512-1.118v-.687h4.2c1.943,2.944,4.061,6.044,6.141,9.085h.059v-4.61a27.394,27.394,0,0,0-.1-2.746c-.116-1.1-.764-.962-1.844-1.041v-.687h4.514v.687c-.961.1-1.334.02-1.471,1.041-.059.647-.1,1.353-.1,2.746v8.339Z" transform="translate(38.502 -299.004)" fill="#881798"/>
        <path id="Path_19019-2" data-name="Path 19019" d="M113.1,316.923c-.47-2.1-1.53-2.983-2.825-2.983a1.926,1.926,0,0,0-2.021,2.06c0,1.414,1.354,1.982,2.746,2.61,1.846.784,3.533,1.55,3.533,3.982,0,1.944-1.159,3.983-4.769,3.983a6.208,6.208,0,0,1-3.866-1.1l-.215-3.276h.666c.648,2.257,1.9,3.571,3.414,3.571a1.977,1.977,0,0,0,2.2-2.139c0-1.255-.9-1.962-2.492-2.629-2.118-.884-3.65-1.746-3.65-4.042s1.511-3.826,4.494-3.826a7.188,7.188,0,0,1,3.453.8v2.983Z" transform="translate(42.551 -299.094)" fill="#881798"/>
      </g>
    </g>
    <g id="_50-2" data-name="50" transform="translate(998.168 552.57)">
      <path id="Path_19071-2" data-name="Path 19071" d="M157.663,232.708c-3.389,0-3.765-.5-4.268,3.515l-2.257,17.691.123.125c4.769-3.011,12.548-7.152,20.578-7.152,22.082,0,25.47,13.677,25.47,23.463,0,14.3-8.281,26.852-29.988,26.852-22.206,0-26.723-11.168-26.723-15.183,0-5.394,5.521-8.908,9.41-8.908,3.637,0,5.142,2.007,6.146,4.767,3.512,10.79,6.274,13.8,11.043,13.8,6.773,0,9.158-7.275,9.158-19.071,0-11.417-4.769-16.812-12.922-16.812-4.518,0-9.663,1.756-14.429,6.9l-4.894-3.638,3.766-41.03.752-1h25.219c12.546,0,17.064.251,20.073-1.131l1.633,1.131L190.16,232.71Z" transform="translate(-140.599 -215.645)" fill="#881798"/>
      <path id="Path_19072-2" data-name="Path 19072" d="M244.059,256.494c0,21.456-7.277,40.778-30.112,40.778-22.71,0-30.116-19.7-30.116-40.778,0-21.579,7.278-40.777,30.239-40.777,22.334,0,29.988,19.447,29.988,40.777m-39.774,0c0,12.673.5,35.258,9.786,35.258,9.034,0,9.412-22.585,9.412-35.258s-.125-35.258-9.788-35.258c-9.41,0-9.41,22.586-9.41,35.258" transform="translate(-123.192 -215.717)" fill="#881798"/>
      <path id="Path_19073-2" data-name="Path 19073" d="M157.329,296.59v-1c2.229-.083,2.478-.223,2.478-1.56v-4.07a4.194,4.194,0,0,0-.585-1.867c-.975-1.839-3.121-5.906-3.845-7.16-.668-1.17-.836-1.393-2.2-1.5V278.4h8.636v1.031l-1.421.167c-.612.055-.5.446-.306.864.892,1.95,2.647,5.432,3.455,6.936h.084c1.17-2.312,2.255-4.9,2.981-6.742.251-.7.084-1-.418-1.058l-1.365-.167V278.4h6.129v1.031c-1.394.139-1.839.362-2.424,1.365-1.338,2.2-2.453,4.568-3.651,7.048a4.034,4.034,0,0,0-.5,1.923v4.262c0,1.337.222,1.477,2.48,1.56v1Z" transform="translate(-135.535 -190.48)" fill="#881798"/>
      <path id="Path_19074-2" data-name="Path 19074" d="M168.063,280.933c0-1.31-.223-1.449-2.034-1.532v-1h14.29v4.93h-1c-.892-2.591-1.366-3.706-4.012-3.706h-1.783c-.725,0-.922.2-.922.976v5.85h2.23c1.589,0,1.978-.474,2.394-2.424h1v6.3h-1c-.417-1.95-.8-2.536-2.394-2.536H172.6v5.683c0,1.644.139,1.895,3.094,1.895,3.093,0,3.537-1.588,4.54-4.319h1l-.387,5.545H166.029v-1c1.811-.084,2.034-.223,2.034-1.561Z" transform="translate(-130.36 -190.48)" fill="#881798"/>
      <path id="Path_19075-2" data-name="Path 19075" d="M187.513,296.623v-1l1.588-.168c.5-.055.558-.418.391-.919-.474-1.5-1.059-3.288-1.394-4.319h-5.181c-.446,1.533-.947,3.037-1.254,4.319-.167.585-.111.891.446.947l1.588.14v1h-5.991v-1c1.366-.084,1.644-.279,2.062-1.338,1.338-3.119,3.929-11.032,5.488-15.963h3.6c1.449,4.542,4.1,12.593,5.4,16.074.39,1,.78,1.2,2.118,1.227v1Zm-1.978-14.711h-.083c-.5,1.616-1.477,4.932-2.118,7.048h4.345c-.585-1.755-1.643-5.292-2.145-7.048" transform="translate(-125.659 -190.512)" fill="#881798"/>
      <path id="Path_19076-2" data-name="Path 19076" d="M198.1,294.027c0,1.338.222,1.477,2.032,1.561v1h-8.636v-1c1.809-.084,2.034-.223,2.034-1.561V280.933c0-1.31-.224-1.449-2.034-1.532v-1h9.165c3.15,0,6.242.362,6.242,4.486,0,2.645-1.84,4.066-4.431,4.4v.139a5.169,5.169,0,0,1,4.263,4.54c.39,2.062.837,3.539,2.62,3.623v1H207.2c-2.9,0-4.208-.7-4.876-2.675a36.208,36.208,0,0,1-.78-3.706,2.143,2.143,0,0,0-2.478-2.006h-.975Zm0-7.048h1c2.787,0,3.149-1.811,3.149-3.76,0-2.48-1.2-3.6-2.842-3.6-1.254,0-1.309.251-1.309.976Z" transform="translate(-120.109 -190.48)" fill="#881798"/>
      <path id="Path_19077-2" data-name="Path 19077" d="M215.807,283.624c-.78-3.121-2.4-4.319-4.068-4.319a2.538,2.538,0,0,0-2.619,2.7c0,1.978,1.839,2.7,3.955,3.7,2.368,1.087,4.819,2.2,4.819,5.685,0,2.729-1.588,5.766-6.936,5.766-1.728,0-4.206-.306-5.6-1.56L205,290.757h.975c1.059,3.342,2.926,5.153,4.932,5.153a2.535,2.535,0,0,0,2.786-2.786c0-1.56-.808-2.508-3.26-3.594-3.121-1.393-5.293-2.647-5.293-5.906,0-3.093,1.867-5.545,6.6-5.545a10.3,10.3,0,0,1,5.014,1.17v4.375Z" transform="translate(-114.671 -190.608)" fill="#881798"/>
    </g>
  </g>
</svg>
