<svg xmlns="http://www.w3.org/2000/svg" width="251.907" height="56.572" viewBox="0 0 251.907 56.572">
  <g id="t50-logo-h" transform="translate(-294.99 -269.36)">
    <g id="Group_14431" data-name="Group 14431">
      <g id="Group_14429" data-name="Group 14429">
        <path id="Path_19417" data-name="Path 19417" d="M455.72,313.19l.17.02.12.06.09.1.1.15-.06.09-.09.05-.12.03-.1.02c-.18.06-.46.13-.82.23s-.64.18-.84.24c-.27.08-.75.23-1.42.45a3.389,3.389,0,0,0-.41.16c-.08.23-.18.55-.31.97s-.22.68-.27.82a1.8,1.8,0,0,1,.23.27c.35.38.54.58.57.62a2.086,2.086,0,0,1,.41,1.62,4.319,4.319,0,0,1-.8,1.84,5,5,0,0,1-.53.58,1.2,1.2,0,0,1-1.14.26,1.171,1.171,0,0,1-.98-.88,2.713,2.713,0,0,1-.06-.86,21.09,21.09,0,0,1,.69-3.44,1.423,1.423,0,0,0,.08-.35l-.18-.14a1.264,1.264,0,0,0-.26-.14c-.1-.06-.18-.09-.22-.12-.33-.17-.61-.32-.84-.47-.18-.12-.26-.25-.23-.39.04-.1.18-.2.41-.3.18-.05.49-.14.92-.27.04-.02.42-.12,1.14-.33a1.993,1.993,0,0,1,.18-.41,61.212,61.212,0,0,1,2.9-6.62c.14-.3.4-.76.76-1.39a1.267,1.267,0,0,1,.53-.58.639.639,0,0,1,.65.35c-.14.42-.22.64-.22.66-.25.62-.6,1.5-1.06,2.66s-.79,1.98-.98,2.48c-.24.58-.5,1.28-.8,2.07-.02,0-.04.1-.08.31.4-.08.62-.12.64-.12.89-.17,1.45-.27,1.68-.31a1.7,1.7,0,0,1,.55.01m-5.32,2.46a1.47,1.47,0,0,0,.08-.33.7.7,0,0,0-.23.02,1.45,1.45,0,0,0-.27.08.623.623,0,0,0,.42.23m1.43,2.8a1.545,1.545,0,0,0-.18-.84.167.167,0,0,0-.18-.12,18.207,18.207,0,0,0-.64,2.97l.05.03.05.01.12-.12a4,4,0,0,0,.78-1.93" fill="#49176d"/>
        <path id="Path_19418" data-name="Path 19418" d="M459.16,309.67a1.423,1.423,0,0,1,1.31.52,1.631,1.631,0,0,1,.45,1.32,5.636,5.636,0,0,1-.27,1.21,8.138,8.138,0,0,1-2.82,3.74c-.1.08-.22.14-.33.22a.971.971,0,0,1-.31.12c-.02,0-.1-.01-.21-.02a1.64,1.64,0,0,1-.22-.03.681.681,0,0,0-.18-.02,1.3,1.3,0,0,1-.21-.05l-.17-.06-.18-.11-.17-.14a1.972,1.972,0,0,1-.53-1.68,6.536,6.536,0,0,1,.39-1.54,11.291,11.291,0,0,1,1.8-3.03,4.884,4.884,0,0,1,.45-.47.874.874,0,0,1,.46-.26.832.832,0,0,1,.52.14c.02-.02.09.04.22.14m.46,1.35a.955.955,0,0,0,.02-.33,1.837,1.837,0,0,0-.78.66.841.841,0,0,1-.65.45q-.09.21-.36.75c-.18.36-.31.63-.4.82a7.908,7.908,0,0,0-.3.74,6.4,6.4,0,0,0-.26.86,2.1,2.1,0,0,1,.23-.14,11.053,11.053,0,0,0,1.8-2.11,6.178,6.178,0,0,0,.7-1.7" fill="#49176d"/>
        <path id="Path_19419" data-name="Path 19419" d="M466.79,311.74a.759.759,0,0,1,.23.3.418.418,0,0,1-.45.06c-.14-.06-.33-.13-.54-.23-.04-.02-.22-.14-.55-.34a1.725,1.725,0,0,0-.57.45,13.594,13.594,0,0,0-1.41,2.09c-.27.48-.54.93-.8,1.33a3.166,3.166,0,0,1-.34.47h-.61a1.71,1.71,0,0,1-.61-.5,1.417,1.417,0,0,1,.04-.75c.06-.26.21-.79.43-1.58.26-.95.48-1.72.65-2.3a3.238,3.238,0,0,1,.26-.7.473.473,0,0,1,.62-.26.652.652,0,0,1,.54.46c-.04.18-.1.44-.2.78s-.16.58-.2.74l.06.04.08-.06.08-.09.06-.08c.26-.27.4-.42.41-.43a1.317,1.317,0,0,1,.74-.42,1.345,1.345,0,0,1,.84.21l.37.26c.44.27.73.46.87.55" fill="#49176d"/>
        <path id="Path_19420" data-name="Path 19420" d="M472.34,316.24c0,.02.01.18.02.49a3.234,3.234,0,0,0,1.06-.31,17.491,17.491,0,0,0,3.38-1.99c2.26-1.72,4.22-3.3,5.85-4.75a1.115,1.115,0,0,0,.18-.14,1.584,1.584,0,0,0,.18-.17.878.878,0,0,1,1.07-.06,1.2,1.2,0,0,1,.66,1.23c-.02.34-.09,1.52-.19,3.54l.04.06c.14-.05.34-.13.57-.22s.43-.18.61-.25.36-.14.57-.21.42-.13.62-.18a6.172,6.172,0,0,1,.62-.11h.27l-.06.22a3.458,3.458,0,0,1-.39.39q-.255.15-.69.39c-.23.12-.57.28-1,.5s-.71.35-.84.4c-.02.02-.16.1-.45.26-.06.25-.1.38-.1.39a14.71,14.71,0,0,1-1.25,3.62,9.237,9.237,0,0,1-1.37,2.06,17.034,17.034,0,0,1-3.89,3.34,8.515,8.515,0,0,1-2.46,1.07,4.243,4.243,0,0,1-1.72.06,2.455,2.455,0,0,1-1.37-.76,1.048,1.048,0,0,1-.27-.88,2.894,2.894,0,0,1,.27-.9,9.024,9.024,0,0,1,1.45-2.02,20.148,20.148,0,0,1,3.48-2.99,48.866,48.866,0,0,1,5.18-3.09l.18-.09.22-.1.19-.1a1.693,1.693,0,0,0,.1-.27c.02-.1.04-.18.05-.26.01-.06.02-.16.03-.29a1.494,1.494,0,0,0,.02-.26c.04-.25.12-1.08.23-2.49v-.35a3.031,3.031,0,0,0-.33.27c-1.34,1.2-2.94,2.52-4.77,3.95a16.873,16.873,0,0,1-3.74,2.26,3.49,3.49,0,0,1-.96.3,4.039,4.039,0,0,1-1.27-.1,1.2,1.2,0,0,1-.54-.26,2.711,2.711,0,0,1-.45-.38,2.17,2.17,0,0,1-.66-1.87,5.322,5.322,0,0,1,.31-1.5c.4-1.1.69-1.85.84-2.22a39.032,39.032,0,0,1,3.36-6.22,21.018,21.018,0,0,1,3.46-3.91,9.119,9.119,0,0,1,2.74-1.7,5.483,5.483,0,0,1,1.31-.31,3.477,3.477,0,0,1,.9.06,4.154,4.154,0,0,1,2.24,1.22,4.211,4.211,0,0,1,1.2,2.26,4.64,4.64,0,0,1-.02,1.53,7.559,7.559,0,0,1-.37,1.54c-.08.17-.18.26-.3.26a.617.617,0,0,1-.33-.55q-.09-.6-.12-1.14a12.818,12.818,0,0,0-.2-1.99,4.8,4.8,0,0,0-.49-1.26,1.186,1.186,0,0,0-1.38-.61,6.37,6.37,0,0,0-1.19.39,8.208,8.208,0,0,0-2.38,1.58,23.153,23.153,0,0,0-4.62,5.78,44.545,44.545,0,0,0-2.7,5.55,10.094,10.094,0,0,0-.53,1.76c-.02.18-.05.35-.06.53m10.21.37.04-.23-.26.12c-1.78,1.06-3.3,2.06-4.59,3.01a22.309,22.309,0,0,0-3.26,2.83,10.359,10.359,0,0,0-.98,1.27,3.821,3.821,0,0,0-.39.86c-.02.13-.05.26-.06.39a.38.38,0,0,0,.27.37,1.39,1.39,0,0,0,.84.06,8.779,8.779,0,0,0,.9-.27,8.69,8.69,0,0,0,1.94-1.11,22.052,22.052,0,0,0,2.9-2.66,12.625,12.625,0,0,0,2.65-4.64" fill="#49176d"/>
        <path id="Path_19421" data-name="Path 19421" d="M496.18,311.12a.4.4,0,0,1,.02.58,4.037,4.037,0,0,1-.49.57c-.56.56-1.01.98-1.33,1.27-.54.49-1.4,1.22-2.56,2.23l-.22.17-.24.18c-.09.06-.15.12-.21.16a2.3,2.3,0,0,1-1.61.41,1.362,1.362,0,0,1-.99-.51,1.4,1.4,0,0,1-.38-1.06c.02-.12.04-.29.08-.51a3.3,3.3,0,0,0,.06-.43,5.761,5.761,0,0,1,.33-1.11,11.44,11.44,0,0,1,1.1-2.29,6.119,6.119,0,0,1,.9-1.07,1.153,1.153,0,0,1,.96-.34,1.3,1.3,0,0,1,.92.5.789.789,0,0,1,.18.64,4.408,4.408,0,0,1-.2.72,4.832,4.832,0,0,1-1.6,2c-.02.02-.3.22-.8.57a5.781,5.781,0,0,0-.33,1.88c.31-.16.47-.24.49-.26.61-.38,1.03-.65,1.25-.8a40.081,40.081,0,0,0,3.93-3.15,1.1,1.1,0,0,1,.74-.35m-4.75-.68a5.094,5.094,0,0,0-1.14,2.17,3.592,3.592,0,0,0,.47-.61,4.549,4.549,0,0,0,.41-.79,5.822,5.822,0,0,0,.26-.77" fill="#49176d"/>
        <path id="Path_19422" data-name="Path 19422" d="M501.55,315.75a.485.485,0,0,1,.31.45c-.19.06-.3.1-.31.1a2.154,2.154,0,0,1-1.27-.37,4.645,4.645,0,0,1-1.58-1.6,3.086,3.086,0,0,1-.31-.69c-.02-.04-.07-.31-.18-.82-.43.47-.66.72-.69.74-.13.16-.32.39-.58.7s-.45.54-.58.7c-.13.14-.3.32-.51.53a.9.9,0,0,1-1.42.02c0-.02-.06-.09-.19-.22a1.783,1.783,0,0,1,.16-.74c.1-.33.22-.68.35-1.06s.27-.79.42-1.22.28-.78.38-1.06a1.964,1.964,0,0,1,.1-.32c.04-.11.08-.23.13-.36a2.643,2.643,0,0,0,.1-.31c.08-.23.14-.38.22-.43a.974.974,0,0,1,.46.08.536.536,0,0,1,.24.23,1.034,1.034,0,0,1,.1.45c0,.19.01.44.02.74l-.02.12-.13.07-.13.09c-.02.08-.06.19-.1.34s-.09.3-.13.44-.09.29-.14.45c.18-.16.28-.24.29-.26.1-.1.21-.22.34-.35s.25-.26.35-.37.22-.23.33-.35.23-.24.35-.36.23-.25.34-.36a.973.973,0,0,1,1.17-.26,1.132,1.132,0,0,1,.76,1.11c-.06.82-.12,1.42-.16,1.78a2.712,2.712,0,0,0,.02,1.03,1.491,1.491,0,0,0,1.11,1.23,1.368,1.368,0,0,1,.38.11" fill="#49176d"/>
        <path id="Path_19423" data-name="Path 19423" d="M510.11,311.12a.4.4,0,0,1,.02.58,4.037,4.037,0,0,1-.49.57c-.56.56-1,.98-1.33,1.27-.55.49-1.4,1.22-2.56,2.23l-.22.17c-.08.06-.16.12-.25.18s-.15.12-.21.16a2.288,2.288,0,0,1-1.6.41,1.345,1.345,0,0,1-.99-.51,1.4,1.4,0,0,1-.38-1.06c.02-.12.04-.29.08-.51a3.3,3.3,0,0,0,.06-.43,5.966,5.966,0,0,1,.34-1.11,10.918,10.918,0,0,1,1.1-2.29,6.119,6.119,0,0,1,.9-1.07,1.153,1.153,0,0,1,.96-.34,1.315,1.315,0,0,1,.92.5.789.789,0,0,1,.18.64,5.96,5.96,0,0,1-.19.72,4.778,4.778,0,0,1-1.61,2c-.02.02-.29.22-.8.57a6.153,6.153,0,0,0-.34,1.88,4.839,4.839,0,0,0,.49-.26c.62-.38,1.03-.65,1.25-.8a40.081,40.081,0,0,0,3.93-3.15,1.14,1.14,0,0,1,.74-.35m-4.75-.68a5.206,5.206,0,0,0-1.14,2.17,3.592,3.592,0,0,0,.47-.61,4.549,4.549,0,0,0,.41-.79,3.875,3.875,0,0,0,.26-.77" fill="#49176d"/>
        <path id="Path_19424" data-name="Path 19424" d="M513.93,311.74a.759.759,0,0,1,.23.3.418.418,0,0,1-.45.06c-.14-.06-.33-.13-.54-.23-.04-.02-.22-.14-.55-.34a1.724,1.724,0,0,0-.57.45,13.594,13.594,0,0,0-1.41,2.09c-.27.48-.54.93-.8,1.33a3.514,3.514,0,0,1-.33.47h-.61a1.71,1.71,0,0,1-.61-.5,1.534,1.534,0,0,1,.04-.75c.06-.26.21-.79.43-1.58.26-.95.48-1.72.65-2.3a3.238,3.238,0,0,1,.26-.7.473.473,0,0,1,.62-.26.667.667,0,0,1,.54.46c-.04.18-.1.44-.2.78s-.16.58-.2.74l.06.04.08-.06.08-.09.06-.08c.26-.27.4-.42.41-.43a1.317,1.317,0,0,1,.74-.42,1.36,1.36,0,0,1,.84.21l.37.26c.43.27.72.46.86.55" fill="#49176d"/>
        <path id="Path_19425" data-name="Path 19425" d="M519.62,316.67c.02,0,.04.06.08.18a.562.562,0,0,1-.57-.08,2,2,0,0,1-.88-1.06,7.973,7.973,0,0,1-.35-1.56c0-.05-.02-.18-.04-.37l-.1-.01-.06.04-.04.06-.05.05c-.73.93-1.1,1.39-1.11,1.41a3.791,3.791,0,0,1-.84.76,1.265,1.265,0,0,1-.95.19,1.325,1.325,0,0,1-.81-.54.668.668,0,0,1-.12-.57,5.365,5.365,0,0,1,.19-.82,12.788,12.788,0,0,1,2.02-3.75,13.975,13.975,0,0,1,1.1-1.17,1.658,1.658,0,0,1,.49-.34.6.6,0,0,1,.66.04.7.7,0,0,1,.27.65l-.04.22h-.2l-.14-.13-.13-.1a11.744,11.744,0,0,0-1.61,2.42,6.98,6.98,0,0,0-.92,2.3,11.453,11.453,0,0,0,1.35-1.78c.06-.08.39-.71,1.02-1.9a1.25,1.25,0,0,1,.78.06.978.978,0,0,1,.56.49.829.829,0,0,1,.08.43c0,.14-.02.35-.05.62s-.05.46-.05.58a10.64,10.64,0,0,0,.1,2.74,1.972,1.972,0,0,0,.36.94" fill="#49176d"/>
        <path id="Path_19426" data-name="Path 19426" d="M529.77,305.37a.7.7,0,0,1,.37.37,4.216,4.216,0,0,1-.87.05,4.776,4.776,0,0,0-.83.03c-.18.02-.46.06-.83.13s-.66.1-.85.13c-.08.02-.62.13-1.64.33a1.611,1.611,0,0,0-.12.26c-1.3,3.58-2.1,5.75-2.37,6.51a18.051,18.051,0,0,0-.8,2.87,5.844,5.844,0,0,0-.06,1.64c0,.02.02.16.08.45a.673.673,0,0,0,.53.02,4.86,4.86,0,0,0,1.72-.86c.39-.29.64-.47.76-.57a2.066,2.066,0,0,1,.64-.31.354.354,0,0,1,.04.45,2.573,2.573,0,0,1-.43.66,4.25,4.25,0,0,1-2.7,1.35,2.4,2.4,0,0,1-1.98-.84,1.778,1.778,0,0,1-.39-1.11,6.276,6.276,0,0,1,.26-2.46c.3-1.04.57-1.86.8-2.46.09-.25.69-1.74,1.78-4.5a3.777,3.777,0,0,0,.18-.45l-.12-.06-.09-.02-.1.03-.09.03c-.19.05-.46.13-.8.22s-.66.18-.94.26-.55.15-.8.22a1.8,1.8,0,0,1-1.27-.02c-.14-.22-.22-.34-.22-.35a.669.669,0,0,1,.45-.45q1.29-.54,1.68-.66c.14-.04,1.01-.24,2.6-.61a2.721,2.721,0,0,0,.3-.06c.13-.31.19-.48.19-.49.13-.34.3-.78.52-1.34s.42-1.07.61-1.54.37-.93.54-1.34c0-.02.08-.16.23-.45a.852.852,0,0,1,.59.18.639.639,0,0,1,.1.55c-.04.25-.09.51-.16.78-.02.09-.26,1.04-.73,2.86a3.379,3.379,0,0,0-.12.43,2.041,2.041,0,0,0,.72,0,15.066,15.066,0,0,1,2.33-.16,2.617,2.617,0,0,1,1.29.3" fill="#49176d"/>
        <path id="Path_19427" data-name="Path 19427" d="M528.46,315.11a1,1,0,0,1,.49-.14l.02.22-.06.19a2.394,2.394,0,0,1-.9.89,1.846,1.846,0,0,1-1.31.29,1.822,1.822,0,0,1-1.49-1.26,2.615,2.615,0,0,1-.08-1.29,11.523,11.523,0,0,1,.64-2.14,12.84,12.84,0,0,1,1.06-2.19q.18-.255.24-.33a.569.569,0,0,1,.39-.23.667.667,0,0,1,.45.1.488.488,0,0,1,.22.28.4.4,0,0,1-.06.33,1.307,1.307,0,0,0-.14.26,1.236,1.236,0,0,0-.1.26c-.02.07-.06.17-.1.27s-.07.2-.1.26a31.219,31.219,0,0,0-1.02,3.22,4.36,4.36,0,0,0-.18,1.33.676.676,0,0,0,.22.53,1.635,1.635,0,0,0,.92-.33c.36-.23.66-.4.89-.52m1.8-9.76a.307.307,0,0,1,.24.18.264.264,0,0,1-.02.27,1.613,1.613,0,0,1-.23.23q-.18.135-.48.39c-.2.17-.35.3-.44.37a2.228,2.228,0,0,0-.37.34c-.04.04-.2.23-.49.58q.06.255.06.27l-.02.06a1.147,1.147,0,0,1-.69-.09.9.9,0,0,1-.46-.46.357.357,0,0,1,.02-.41,2.028,2.028,0,0,1,.26-.31,8.117,8.117,0,0,1,1.88-1.29,1.139,1.139,0,0,1,.74-.13" fill="#49176d"/>
        <path id="Path_19428" data-name="Path 19428" d="M531.59,309.67a1.423,1.423,0,0,1,1.31.52,1.631,1.631,0,0,1,.45,1.32,5.632,5.632,0,0,1-.27,1.21,8.138,8.138,0,0,1-2.82,3.74c-.1.08-.22.14-.33.22a.971.971,0,0,1-.31.12c-.02,0-.1-.01-.21-.02s-.18-.02-.22-.03a.681.681,0,0,0-.18-.02,1.308,1.308,0,0,1-.21-.05l-.17-.06-.18-.11-.17-.14a1.973,1.973,0,0,1-.53-1.68,6.539,6.539,0,0,1,.39-1.54,11.292,11.292,0,0,1,1.8-3.03,4.888,4.888,0,0,1,.45-.47.874.874,0,0,1,.46-.26.832.832,0,0,1,.52.14c.01-.02.08.04.22.14m.44,1.35a.954.954,0,0,0,.02-.33,1.837,1.837,0,0,0-.78.66.841.841,0,0,1-.65.45q-.09.21-.36.75c-.18.36-.31.63-.4.82a7.9,7.9,0,0,0-.3.74,6.4,6.4,0,0,0-.26.86,2.106,2.106,0,0,1,.23-.14,11.052,11.052,0,0,0,1.8-2.11,5.375,5.375,0,0,0,.7-1.7" fill="#49176d"/>
        <path id="Path_19429" data-name="Path 19429" d="M540.77,315.75a.485.485,0,0,1,.31.45c-.19.06-.3.1-.31.1a2.155,2.155,0,0,1-1.27-.37,4.645,4.645,0,0,1-1.58-1.6,3.088,3.088,0,0,1-.31-.69c-.02-.04-.07-.31-.18-.82-.43.47-.66.72-.69.74-.13.16-.32.39-.58.7s-.45.54-.58.7c-.13.14-.3.32-.51.53a.9.9,0,0,1-1.42.02c0-.02-.06-.09-.19-.22a1.782,1.782,0,0,1,.16-.74c.1-.33.22-.68.35-1.06s.27-.79.42-1.22.28-.78.38-1.06a1.97,1.97,0,0,1,.1-.32c.04-.11.08-.23.13-.36a2.63,2.63,0,0,0,.1-.31c.08-.23.14-.38.22-.43a.974.974,0,0,1,.46.08.619.619,0,0,1,.25.23,1.033,1.033,0,0,1,.1.45c0,.19.01.44.02.74l-.02.12-.13.07-.13.09c-.02.08-.06.19-.1.34s-.09.3-.13.44-.09.29-.14.45c.18-.16.28-.24.3-.26.09-.1.2-.22.33-.35s.25-.26.35-.37.22-.23.33-.35.23-.24.35-.36.23-.25.34-.36a.973.973,0,0,1,1.17-.26,1.132,1.132,0,0,1,.76,1.11c-.06.82-.12,1.42-.16,1.78a2.712,2.712,0,0,0,.02,1.03,1.491,1.491,0,0,0,1.11,1.23,1.268,1.268,0,0,1,.37.11" fill="#49176d"/>
        <path id="Path_19430" data-name="Path 19430" d="M546.68,314.32a1.324,1.324,0,0,1,.21.83,1.37,1.37,0,0,1-.5.81,5.283,5.283,0,0,1-1.53.92,6.249,6.249,0,0,1-1.58.45,2.957,2.957,0,0,1-.64-.02l-.16-.04-.18-.06a1.008,1.008,0,0,1-.61-.23,2.757,2.757,0,0,1-.49-.61.655.655,0,0,1-.04-.62,7.9,7.9,0,0,1,.45-.84c.06-.08.41-.54,1.06-1.37l.06-.06.06-.08.06-.06c-.44-.39-.67-.6-.7-.62-.09-.1-.19-.22-.31-.37a3.319,3.319,0,0,1-.37-.57,2.708,2.708,0,0,1-.27-.66,1.377,1.377,0,0,1,.3-1.07,3.366,3.366,0,0,1,.49-.57,4.356,4.356,0,0,1,2.48-1.15,1.707,1.707,0,0,1,1.68.68.8.8,0,0,1,.06.98c-.02.02-.1.14-.27.39a.633.633,0,0,1-.37-.2,1.279,1.279,0,0,1-.04-.57,1.475,1.475,0,0,0-.84.39,4.638,4.638,0,0,0-1.57,1.98,2.141,2.141,0,0,0,.77.41c.46-.35.7-.54.74-.57a2.518,2.518,0,0,1,.92-.49l.27-.02v.3a1.3,1.3,0,0,1-.35.58c-.02.02-.18.18-.51.53l.08.13.16.1.12.06a3.482,3.482,0,0,1,1.31,1.19l.02.06Zm-2,.56a1.654,1.654,0,0,0,.47-.66,4.034,4.034,0,0,0-1.23-.41,6.4,6.4,0,0,0-.95,1.15,3.459,3.459,0,0,0-.52,1.14,6.363,6.363,0,0,0,2.23-1.22" fill="#49176d"/>
      </g>
      <g id="Group_14430" data-name="Group 14430">
        <path id="Path_19431" data-name="Path 19431" d="M345.44,315.42c0,.63.2.82.87.82a1.557,1.557,0,0,0,1.64-1.79,1.622,1.622,0,0,0-1.86-1.8h-.64l-.01,2.77Zm0-3.3h.62c1.17,0,1.69-.59,1.69-1.55a1.416,1.416,0,0,0-1.62-1.52c-.57.02-.7.05-.7.48l.01,2.59Zm1.44-3.59c1.78,0,2.65.54,2.65,1.9,0,1.06-.7,1.64-1.88,1.85v.08c1.14.15,2.22.55,2.22,1.99a2.122,2.122,0,0,1-.74,1.74,4.316,4.316,0,0,1-2.78.66h-3.66v-.44c.88-.05.97-.1.97-.7v-5.94c0-.62-.09-.66-.97-.7v-.44h4.19Z" fill="#881798"/>
        <path id="Path_19432" data-name="Path 19432" d="M351.91,316.76v-.44c1.08-.04,1.17-.1,1.17-.7V313.8a1.662,1.662,0,0,0-.24-.79c-.49-.93-1.4-2.61-1.84-3.38-.3-.51-.39-.62-1.02-.66v-.44h3.66v.44l-.66.08c-.24.02-.22.18-.14.38.46.94,1.22,2.41,1.69,3.26h.02c.58-1.14,1.14-2.39,1.46-3.2.11-.29.05-.43-.17-.46l-.63-.06v-.44h2.71v.44c-.68.06-.85.15-1.14.66-.53.87-1.14,2.12-1.71,3.27a1.648,1.648,0,0,0-.2.81v1.89c0,.6.08.66,1.17.7v.44l-4.13.02Z" fill="#881798"/>
        <path id="Path_19433" data-name="Path 19433" d="M367.79,316.4a9.1,9.1,0,0,1-2.89.55,5.317,5.317,0,0,1-2.91-.66,4,4,0,0,1-1.54-3.57c0-1.93.87-4.41,4.49-4.41a6.377,6.377,0,0,1,2.72.54v2.12h-.44c-.3-1.14-.96-2.13-2.3-2.13-2.14,0-2.48,2.36-2.48,3.72,0,1.01.24,3.88,2.53,3.88a1.751,1.751,0,0,0,.74-.13c.2-.08.28-.22.28-.49v-1.75c0-.59-.09-.64-1.08-.72v-.43h3.58v.43c-.62.08-.7.13-.7.7v2.35Z" fill="#881798"/>
        <path id="Path_19434" data-name="Path 19434" d="M369.99,309.68c0-.62-.09-.66-.97-.7v-.44h6.31v2.14h-.44c-.31-1.18-.55-1.62-1.8-1.62h-.9c-.35,0-.43.07-.43.43v2.7h1.2c.81,0,.93-.24,1.11-1.08h.44v2.78h-.44c-.17-.83-.3-1.12-1.11-1.12h-1.2v2.57c0,.76.09.9,1.43.9,1.42,0,1.74-.58,2.13-1.89h.44l-.2,2.41h-6.55v-.44c.88-.04.97-.09.97-.7l.01-5.94Z" fill="#881798"/>
        <path id="Path_19435" data-name="Path 19435" d="M382.59,316.76c-1.47-2.26-2.98-4.5-4.49-6.75h-.04v3.87c0,.9.02,1.34.06,1.78.08.7.48.62,1.17.66v.44h-2.92v-.44c.63-.06.9-.02.97-.66a13.883,13.883,0,0,0,.08-1.78V309.7c0-.63-.09-.68-.97-.72v-.44h2.7c1.25,1.89,2.61,3.88,3.94,5.83h.03v-2.96c0-.9-.02-1.35-.06-1.77-.08-.7-.49-.62-1.18-.66v-.44h2.9v.44c-.62.06-.86.02-.94.66-.04.42-.06.87-.06,1.77v5.35Z" fill="#881798"/>
        <path id="Path_19436" data-name="Path 19436" d="M386.26,309.68c0-.62-.09-.66-.97-.7v-.44h6.31v2.14h-.44c-.31-1.18-.55-1.62-1.8-1.62h-.9c-.35,0-.43.07-.43.43v2.7h1.2c.81,0,.93-.24,1.11-1.08h.44v2.78h-.44c-.17-.83-.3-1.12-1.11-1.12h-1.2v2.57c0,.76.09.9,1.43.9,1.42,0,1.74-.58,2.13-1.89h.44l-.2,2.41h-6.55v-.44c.88-.04.97-.09.97-.7l.01-5.94Z" fill="#881798"/>
        <path id="Path_19437" data-name="Path 19437" d="M395.47,312.4h.59c1.23,0,1.54-.7,1.54-1.7,0-1.27-.7-1.65-1.47-1.65-.64,0-.66.1-.66.49Zm0,3.21c0,.62.09.66.97.7v.44H392.7v-.44c.9-.04.98-.09.98-.7v-5.94c0-.62-.09-.66-.98-.7v-.44h3.99c1.64,0,2.76.42,2.76,2.03a2.007,2.007,0,0,1-1.98,2v.05a2.268,2.268,0,0,1,1.86,2.11c.15.88.35,1.54,1.19,1.58v.44h-.97c-1.12,0-1.68-.3-1.94-1.14-.17-.59-.25-1.32-.34-1.73a1.11,1.11,0,0,0-1.26-.97h-.55l.01,2.71Z" fill="#881798"/>
        <path id="Path_19438" data-name="Path 19438" d="M403.86,309.98h-.04c-.26.82-.7,2.23-1.02,3.26h2.09c-.26-.81-.78-2.48-1.03-3.26m1.01,6.78v-.43l.66-.08c.28-.02.33-.18.23-.44-.2-.64-.53-1.6-.68-2.04h-2.44c-.22.74-.46,1.42-.62,2.06-.08.26-.06.4.22.44l.7.05v.44h-2.7v-.44c.67-.04.78-.14,1-.66.68-1.69,1.75-4.91,2.5-7.17h1.4c.66,2.03,1.86,5.61,2.47,7.25.18.5.35.57.97.6v.43l-3.71-.01Z" fill="#881798"/>
        <path id="Path_19439" data-name="Path 19439" d="M412.32,315.63c0,.46.08.62.53.66l.66.04v.44h-4.16v-.44l.66-.04c.44-.04.52-.2.52-.66v-6.58H410c-1.14,0-1.32.46-1.67,1.7h-.44v-2.22h7.08v2.22h-.44c-.35-1.25-.52-1.7-1.67-1.7h-.53l-.01,6.58Z" fill="#881798"/>
        <path id="Path_19440" data-name="Path 19440" d="M418.23,315.61c0,.6.08.66.97.7v.44h-3.73v-.44c.88-.04.97-.09.97-.7v-5.94c0-.62-.09-.66-.97-.7v-.44h3.73v.44c-.9.04-.97.09-.97.7Z" fill="#881798"/>
        <path id="Path_19441" data-name="Path 19441" d="M421.96,312.65c0,1.64.26,3.79,2.06,3.79,1.82,0,2.06-2.15,2.06-3.79,0-1.58-.26-3.81-2.08-3.81-1.77.01-2.04,2.24-2.04,3.81m6.12,0c0,2.66-1.32,4.3-4.06,4.3-2.72,0-4.04-1.65-4.04-4.3,0-2.67,1.32-4.34,4.06-4.34,2.72.01,4.04,1.67,4.04,4.34" fill="#881798"/>
        <path id="Path_19442" data-name="Path 19442" d="M435.01,316.76c-1.47-2.26-2.98-4.5-4.49-6.75h-.04v3.87c0,.9.02,1.34.06,1.78.08.7.48.62,1.17.66v.44h-2.92v-.44c.63-.06.9-.02.97-.66a13.883,13.883,0,0,0,.08-1.78V309.7c0-.63-.09-.68-.97-.72v-.44h2.7c1.25,1.89,2.61,3.88,3.94,5.83h.03v-2.96c0-.9-.02-1.35-.06-1.77-.08-.7-.49-.62-1.18-.66v-.44h2.9v.44c-.62.06-.86.02-.94.66-.04.42-.06.87-.06,1.77v5.35Z" fill="#881798"/>
        <path id="Path_19443" data-name="Path 19443" d="M442.61,310.76c-.3-1.34-.98-1.91-1.82-1.91a1.238,1.238,0,0,0-1.3,1.32c0,.9.86,1.27,1.76,1.68,1.18.5,2.26.99,2.26,2.56,0,1.25-.74,2.56-3.06,2.56a3.981,3.981,0,0,1-2.48-.7l-.14-2.1h.43c.42,1.45,1.22,2.3,2.19,2.3a1.271,1.271,0,0,0,1.41-1.38c0-.81-.58-1.26-1.6-1.69-1.36-.57-2.34-1.12-2.34-2.59s.97-2.46,2.89-2.46a4.656,4.656,0,0,1,2.22.51v1.91l-.42-.01Z" fill="#881798"/>
      </g>
    </g>
    <g id="Group_14437" data-name="Group 14437">
      <g id="Group_14433" data-name="Group 14433">
        <g id="Group_14432" data-name="Group 14432">
          <path id="Path_19444" data-name="Path 19444" d="M323.4,281.85c-5.54.73-5.41,6.31-5.41,6.31C322.25,286.93,323.15,285,323.4,281.85Z" fill="#633169"/>
          <path id="Path_19445" data-name="Path 19445" d="M317.71,297.11c.94,2.78,3.18,3.74,6.62,4.12C323.01,296.28,317.71,297.11,317.71,297.11Z" fill="#21b7e9"/>
          <path id="Path_19446" data-name="Path 19446" d="M328.09,296.56a5.222,5.222,0,0,0,6.19,2.85C332.64,296.7,331.08,296.2,328.09,296.56Z" fill="#633169"/>
          <path id="Path_19447" data-name="Path 19447" d="M297.38,305.13c4.86,1.28,6.58-2.09,6.58-2.09C300.22,302.43,299.37,303.06,297.38,305.13Z" fill="#009690"/>
          <path id="Path_19448" data-name="Path 19448" d="M327.26,297.39a5.241,5.241,0,0,0-6.36-1.63C323.06,299.62,327.26,297.39,327.26,297.39Z" fill="#881798"/>
          <path id="Path_19449" data-name="Path 19449" d="M320.83,301.61c-.26,2.78,2.75,3.77,2.75,3.77C323.35,303.23,322.6,302.24,320.83,301.61Z" fill="#881798"/>
          <path id="Path_19450" data-name="Path 19450" d="M325.59,300.65c1.92,2.85,6.15,1.59,6.15,1.59C330.13,299.88,327.7,300.15,325.59,300.65Z" fill="#009690"/>
          <path id="Path_19451" data-name="Path 19451" d="M303.45,288.31c-.25-4.15-4.91-3.89-4.91-3.89C299.41,287.38,300.84,287.84,303.45,288.31Z" fill="#009690"/>
          <path id="Path_19452" data-name="Path 19452" d="M301.44,293.64c-1.25-2.35-3.74-2.91-5.98-2.67C297.25,294.37,301.44,293.64,301.44,293.64Z" fill="#881798"/>
          <path id="Path_19453" data-name="Path 19453" d="M302.7,275.21c-.57,3.71.77,6.26,4.04,7.73C307.88,277.33,302.7,275.21,302.7,275.21Z" fill="#881798"/>
          <path id="Path_19454" data-name="Path 19454" d="M311.07,276.44a4.708,4.708,0,0,0-1.7-6.05C307.38,274.05,311.07,276.44,311.07,276.44Z" fill="#ee7003"/>
          <path id="Path_19455" data-name="Path 19455" d="M317.74,303a2.593,2.593,0,0,0,1.62,3.28C320.16,304.13,317.74,303,317.74,303Z" fill="#d50065"/>
          <path id="Path_19456" data-name="Path 19456" d="M318.12,269.36c-2.23,1.57-2.21,3.37-1.44,5.28C320.2,272.33,318.12,269.36,318.12,269.36Z" fill="#d50065"/>
          <path id="Path_19457" data-name="Path 19457" d="M321.5,281.36c2.67-2.04,3.41-3.34,2.56-5.98C319.91,277.63,321.5,281.36,321.5,281.36Z" fill="#d50065"/>
          <path id="Path_19458" data-name="Path 19458" d="M320.94,289.27a5.912,5.912,0,0,0,6.06-4.76C323.61,284.54,321.99,286.57,320.94,289.27Z" fill="#ee7003"/>
          <path id="Path_19459" data-name="Path 19459" d="M308.78,281.67s.01,4.87,4.79,5.88C313.98,282.5,308.78,281.67,308.78,281.67Z" fill="#009ee4"/>
          <path id="Path_19460" data-name="Path 19460" d="M299.31,301.61c2.34,1,6.14.92,7.68-1.1A6.3,6.3,0,0,0,299.31,301.61Z" fill="#881798"/>
          <path id="Path_19461" data-name="Path 19461" d="M304.41,306.41c2.43-1.05,2.91-2.19,3.07-4.18A3.751,3.751,0,0,0,304.41,306.41Z" fill="#d50065"/>
          <path id="Path_19462" data-name="Path 19462" d="M295.74,294.69c1.99,2.1,4.71.46,4.71.46C298.68,293.88,297.51,294,295.74,294.69Z" fill="#009ee4"/>
          <path id="Path_19463" data-name="Path 19463" d="M331.74,296.07a2.972,2.972,0,0,0,3.36.17A2.677,2.677,0,0,0,331.74,296.07Z" fill="#ee7003"/>
          <path id="Path_19464" data-name="Path 19464" d="M323.4,302.19c1.24,1.62,2.33,1.81,4.14,1.64C326.41,301.36,323.4,302.19,323.4,302.19Z" fill="#ee7003"/>
          <path id="Path_19465" data-name="Path 19465" d="M320.17,302.93c.01-2.1-1.59-3.13-3.24-3.39A3.675,3.675,0,0,0,320.17,302.93Z" fill="#009690"/>
          <path id="Path_19466" data-name="Path 19466" d="M316.94,293.08a3.64,3.64,0,0,0,2.25-4.49A3.842,3.842,0,0,0,316.94,293.08Z" fill="#009690"/>
          <path id="Path_19467" data-name="Path 19467" d="M303.77,283.44a4.626,4.626,0,0,0,4.49,2.06A3.742,3.742,0,0,0,303.77,283.44Z" fill="#009690"/>
          <path id="Path_19468" data-name="Path 19468" d="M312.23,301c-2.63.16-3.41,1.23-4.1,3.39C311.79,304.92,312.23,301,312.23,301Z" fill="#80c342"/>
          <path id="Path_19469" data-name="Path 19469" d="M299.93,300.13c-2.98-1.59-4.87.21-4.87.21C297.32,301.62,298.46,300.97,299.93,300.13Z" fill="#21b7e9"/>
          <path id="Path_19470" data-name="Path 19470" d="M323.27,280.99a4.953,4.953,0,0,0,5.82-2.14C324.67,277.64,323.27,280.99,323.27,280.99Z" fill="#ee7003"/>
          <path id="Path_19471" data-name="Path 19471" d="M328.8,292.16a3.667,3.667,0,0,0,4.12-.67A3.3,3.3,0,0,0,328.8,292.16Z" fill="#80c342"/>
          <path id="Path_19472" data-name="Path 19472" d="M310.79,292.32c-.52,2.3.15,3.16,1.68,4.12A2.936,2.936,0,0,0,310.79,292.32Z" fill="#881798"/>
          <path id="Path_19473" data-name="Path 19473" d="M311.14,281a4.654,4.654,0,0,0-4.17-5.25C307.38,279.23,308.66,280.2,311.14,281Z" fill="#633169"/>
          <path id="Path_19474" data-name="Path 19474" d="M310.35,307.06a2.718,2.718,0,0,0,1.67-3.41C310.36,304.82,310.17,305.69,310.35,307.06Z" fill="#21b7e9"/>
          <path id="Path_19475" data-name="Path 19475" d="M328.61,299.23a3.048,3.048,0,0,0-3.75-.31A3.369,3.369,0,0,0,328.61,299.23Z" fill="#80c342"/>
          <path id="Path_19476" data-name="Path 19476" d="M327.25,275.35a2.665,2.665,0,0,0-2.02,2.97A2.711,2.711,0,0,0,327.25,275.35Z" fill="#12a639"/>
          <path id="Path_19477" data-name="Path 19477" d="M332.92,294.26c-2.34-1.54-4.26-1.32-7.7.24C329.86,297,332.92,294.26,332.92,294.26Z" fill="#d50065"/>
          <path id="Path_19478" data-name="Path 19478" d="M320.36,278.85c-1.92,1.1-2.18,2.09-2.06,3.73A3.02,3.02,0,0,0,320.36,278.85Z" fill="#881798"/>
          <path id="Path_19479" data-name="Path 19479" d="M317.52,282.21c-2.64,2.4-3.03,4.09-2.28,6.75C318.88,286.64,317.52,282.21,317.52,282.21Z" fill="#12a639"/>
          <path id="Path_19480" data-name="Path 19480" d="M329.48,281.2c-2.67-.05-3.73.84-4.96,2.66C327.97,284.6,329.48,281.2,329.48,281.2Z" fill="#009690"/>
          <path id="Path_19481" data-name="Path 19481" d="M327.14,287.4c3.21-.33,2.99-2.79,2.99-2.79C327.88,285.19,327.38,285.98,327.14,287.4Z" fill="#d50065"/>
          <path id="Path_19482" data-name="Path 19482" d="M332.09,286.36a5.493,5.493,0,0,0-4.88,5.14C330.62,290.41,332.09,288.63,332.09,286.36Z" fill="#009ee4"/>
          <path id="Path_19483" data-name="Path 19483" d="M308.12,300.94c1.68.3,2.71-.41,2.92-1.56C309.73,299.19,308.68,299.34,308.12,300.94Z" fill="#ee7003"/>
          <path id="Path_19484" data-name="Path 19484" d="M303.36,292.56c1,2.79,4.17,2.38,4.17,2.38C306.26,292.63,305.48,292.55,303.36,292.56Z" fill="#d50065"/>
          <path id="Path_19485" data-name="Path 19485" d="M304.33,297.93a5.728,5.728,0,0,0-7.27-.14C299.89,299.43,302.13,299.39,304.33,297.93Z" fill="#633169"/>
          <path id="Path_19486" data-name="Path 19486" d="M299.15,287.75c-1.23-2.32-4.16-1.8-4.16-1.8A3.484,3.484,0,0,0,299.15,287.75Z" fill="#d50065"/>
          <path id="Path_19487" data-name="Path 19487" d="M304.53,286.06c-.91,4.82,2.37,6.63,4.41,7.54A6.509,6.509,0,0,0,304.53,286.06Z" fill="#009ee4"/>
          <path id="Path_19488" data-name="Path 19488" d="M321.43,292.14c3.43-.05,4.25-.64,5.3-2.87C322.06,288.5,321.43,292.14,321.43,292.14Z" fill="#633169"/>
          <path id="Path_19489" data-name="Path 19489" d="M303.59,284.98a7.042,7.042,0,0,0-5.19-5.91C298.79,282.99,300.29,283.78,303.59,284.98Z" fill="#80c342"/>
          <path id="Path_19490" data-name="Path 19490" d="M308.21,286.41c.61,5.02,4.89,5.1,4.89,5.1C312.73,288.43,311.03,287.13,308.21,286.41Z" fill="#12a639"/>
          <path id="Path_19491" data-name="Path 19491" d="M314.46,283.86c2.91-4.5,2.51-7.67.09-11.4C309.35,278.04,314.46,283.86,314.46,283.86Z" fill="#009690"/>
          <path id="Path_19492" data-name="Path 19492" d="M317.47,279.36c5.5-2.05,4.72-6.9,4.72-6.9C318.15,273.82,317.69,276.08,317.47,279.36Z" fill="#21b7e9"/>
          <path id="Path_19493" data-name="Path 19493" d="M304.73,291.74c-1.4-2.81-3.91-3.23-6.58-3.14C299.81,292.19,304.73,291.74,304.73,291.74Z" fill="#ee7003"/>
        </g>
        <path id="Path_19494" data-name="Path 19494" d="M321.54,284.39c.04.01.08.02.13.03C321.62,284.41,321.58,284.4,321.54,284.39Z" fill="#881798"/>
      </g>
      <g id="Group_14436" data-name="Group 14436">
        <g id="Group_14434" data-name="Group 14434">
          <path id="Path_19495" data-name="Path 19495" d="M322,309.66c-.43,0-.47-.06-.54.44l-.28,2.23.02.02a5.145,5.145,0,0,1,2.59-.9c2.78,0,3.21,1.72,3.21,2.96,0,1.8-1.04,3.39-3.78,3.39-2.8,0-3.37-1.41-3.37-1.91a1.225,1.225,0,0,1,1.19-1.12.745.745,0,0,1,.77.6c.44,1.36.79,1.74,1.39,1.74.85,0,1.15-.92,1.15-2.4,0-1.44-.6-2.12-1.63-2.12a2.445,2.445,0,0,0-1.82.87l-.62-.46.47-5.17.09-.13h3.18a8,8,0,0,0,2.53-.14l.21.14-.68,1.98H322Z" fill="#881798"/>
          <path id="Path_19496" data-name="Path 19496" d="M335.09,312.65c0,2.71-.92,5.14-3.8,5.14-2.86,0-3.8-2.48-3.8-5.14,0-2.72.92-5.14,3.81-5.14C334.13,307.51,335.09,309.96,335.09,312.65Zm-5.01,0c0,1.6.06,4.45,1.23,4.45,1.14,0,1.19-2.85,1.19-4.45s-.02-4.45-1.23-4.45C330.08,308.21,330.08,311.06,330.08,312.65Z" fill="#881798"/>
        </g>
        <g id="Group_14435" data-name="Group 14435">
          <path id="Path_19497" data-name="Path 19497" d="M322.6,320.89v-.13c.28-.01.31-.03.31-.2v-.51a.665.665,0,0,0-.07-.24c-.12-.23-.39-.74-.48-.9s-.11-.18-.28-.19v-.13h1.09v.13l-.18.02c-.08.01-.06.06-.04.11.11.25.33.68.44.87h.01c.15-.29.28-.62.38-.85.03-.09.01-.13-.05-.13l-.17-.02v-.13h.77v.13a.33.33,0,0,0-.31.17c-.17.28-.31.58-.46.89a.5.5,0,0,0-.06.24v.54c0,.17.03.19.31.2v.13Z" fill="#881798"/>
          <path id="Path_19498" data-name="Path 19498" d="M324.6,318.92c0-.17-.03-.18-.26-.19v-.13h1.8v.62h-.13c-.11-.33-.17-.47-.51-.47h-.22c-.09,0-.12.02-.12.12v.74h.28c.2,0,.25-.06.3-.31h.13v.79h-.13c-.05-.25-.1-.32-.3-.32h-.28v.72c0,.21.02.24.39.24.39,0,.45-.2.57-.54h.13l-.05.7h-1.87v-.13c.23-.01.26-.03.26-.2l.01-1.64Z" fill="#881798"/>
          <path id="Path_19499" data-name="Path 19499" d="M327.65,320.89v-.13l.2-.02c.06-.01.07-.05.05-.12-.06-.19-.13-.41-.18-.54h-.65c-.06.19-.12.38-.16.54-.02.07-.01.11.06.12l.2.02v.13h-.76v-.13c.17-.01.21-.04.26-.17.17-.39.5-1.39.69-2.01h.45c.18.57.52,1.59.68,2.03.05.13.1.15.27.15v.13Zm-.25-1.85h-.01c-.06.2-.19.62-.27.89h.55C327.6,319.7,327.46,319.26,327.4,319.04Z" fill="#881798"/>
          <path id="Path_19500" data-name="Path 19500" d="M329.68,320.57c0,.17.03.19.26.2v.13h-1.09v-.13c.23-.01.26-.03.26-.2v-1.65c0-.17-.03-.18-.26-.19v-.13h1.16c.4,0,.79.05.79.57,0,.33-.23.51-.56.55v.02a.65.65,0,0,1,.54.57c.05.26.11.45.33.46v.13h-.27c-.37,0-.53-.09-.61-.34a4.039,4.039,0,0,1-.1-.47c-.05-.2-.13-.25-.31-.25h-.12v.73Zm0-.89h.13c.35,0,.4-.23.4-.47,0-.31-.15-.45-.36-.45-.16,0-.17.03-.17.12Z" fill="#881798"/>
          <path id="Path_19501" data-name="Path 19501" d="M332.6,319.24c-.1-.39-.3-.54-.51-.54a.323.323,0,0,0-.33.34c0,.25.23.34.5.47.3.14.61.28.61.72,0,.34-.2.73-.87.73a1.131,1.131,0,0,1-.71-.2l-.05-.61h.12c.13.42.37.65.62.65a.321.321,0,0,0,.35-.35c0-.2-.1-.32-.41-.45-.39-.18-.67-.33-.67-.74,0-.39.24-.7.83-.7a1.273,1.273,0,0,1,.63.15v.55h-.11Z" fill="#881798"/>
        </g>
      </g>
      <path id="Path_19502" data-name="Path 19502" d="M326.72,292.13c-.1-.37-4.23.54-7.43,1.32.28-.46,1.42-2.36,1.12-2.56s-2.36,2.36-2.86,2.99c-.73.18-1.31.34-1.65.43l-.16-3.18c0-.64-.15-1.53-.94-1.62-.79.09-.94.98-.94,1.62l-.3,6.01c-.58-.14-1.43-.34-2.41-.58a12.257,12.257,0,0,0-2.3-2.23c-.53-.22.36,1.17.88,1.9-3.56-.83-7.9-1.76-8.08-1.25-.15.43,3.13,1.62,6.37,2.69-.75.41-2.25,1.01-1.91,1.2s2.26-.35,3.38-.73c1.65.53,3.14.98,3.96,1.23l-1.06,21.52a3.784,3.784,0,0,0,1.53-.98,1.209,1.209,0,0,1,1.76,0,3.891,3.891,0,0,0,1.53.98l-1.19-24.12C318.31,295.98,326.93,292.91,326.72,292.13Z" fill="#49176d"/>
    </g>
  </g>
</svg>
