<?xml version="1.0" encoding="UTF-8"?>
<svg id="Layer_1" xmlns="http://www.w3.org/2000/svg" version="1.1" viewBox="0 0 665.6 620">
  <!-- Generator: Adobe Illustrator 29.6.0, SVG Export Plug-In . SVG Version: 2.1.1 Build 207)  -->
  <defs>
    <style>
      .st0 {
        fill: #fac29e;
      }

      .st1 {
        fill: #f2d1c2;
      }

      .st2 {
        fill: #ee7003;
      }

      .st3 {
        fill: #009ee4;
      }

      .st4 {
        fill: #633169;
      }

      .st5 {
        fill: #ba0051;
      }

      .st6 {
        fill: #fff;
      }

      .st7 {
        fill: #33988e;
      }

      .st8 {
        fill: #95ba29;
      }

      .st9 {
        fill: #0055a4;
      }

      .st10 {
        fill: #f0b573;
      }

      .st11 {
        fill: #d50065;
      }

      .st12 {
        fill: #12a639;
      }

      .st13 {
        fill: #fad9c9;
      }

      .st14 {
        fill: #22b7e9;
      }

      .st15 {
        fill: #f1901d;
      }

      .st16 {
        fill: #967366;
      }

      .st17 {
        fill: #fab600;
      }
    </style>
  </defs>
  <g>
    <path class="st7" d="M22.8,164.1h620.1c12.6,0,22.8,10.2,22.8,22.8v410.3c0,12.6-10.2,22.8-22.8,22.8H22.8c-12.6,0-22.8-10.2-22.8-22.8V186.9c0-12.6,10.2-22.8,22.8-22.8Z"/>
    <path class="st14" d="M43.3,0h100.3c12.6,0,22.8,10.2,22.8,22.8v282.7c0,12.6-10.2,22.8-22.8,22.8H43.3c-12.6,0-22.8-10.2-22.8-22.8V22.8C20.5,10.2,30.7,0,43.3,0Z"/>
    <path class="st8" d="M202.9,0h100.3c12.6,0,22.8,10.2,22.8,22.8v282.7c0,12.6-10.2,22.8-22.8,22.8h-100.3c-12.6,0-22.8-10.2-22.8-22.8V22.8c0-12.6,10.2-22.8,22.8-22.8Z"/>
    <path class="st5" d="M362.5,0h100.3c12.6,0,22.8,10.2,22.8,22.8v282.7c0,12.6-10.2,22.8-22.8,22.8h-100.3c-12.6,0-22.8-10.2-22.8-22.8V22.8c0-12.6,10.2-22.8,22.8-22.8Z"/>
    <path class="st2" d="M522,0h100.3c12.6,0,22.8,10.2,22.8,22.8v282.7c0,12.6-10.2,22.8-22.8,22.8h-100.3c-12.6,0-22.8-10.2-22.8-22.8V22.8c0-12.6,10.2-22.8,22.8-22.8Z"/>
  </g>
  <g>
    <path class="st6" d="M211.3,198.7c0,.6.3,1.4.5,1.8-4.6,2.4-5.3,2.9-5.8,3.3-.2-.4-.7-1.2-1-1.5.4-.3,1.2-1,1.2-1.8v-9.2h2.1v8.9l3-1.5ZM217.8,205.1c-.6-.9-1.6-2.2-2.7-3.4-1,1.5-2.3,2.6-4.2,3.5-.3-.4-1-1.3-1.5-1.7,4.8-2,5.9-5.9,6.2-12.7h2c-.2,3.8-.6,6.8-1.6,9.1,1.2,1.3,2.7,2.8,3.4,3.9l-1.7,1.3ZM211.9,196.5c-.4-1-1.4-2.6-2.3-3.8l1.6-.9c.9,1.1,1.9,2.6,2.4,3.6l-1.7,1.1Z"/>
    <path class="st6" d="M235.3,193.2h-1.8v9.5c0,1.2-.3,1.7-1,2-.8.3-2,.4-3.6.4-.1-.6-.5-1.5-.8-2,1.1,0,2.5,0,2.9,0s.5-.1.5-.4v-9.5h-10.6v-1.9h14.4v1.9ZM224.2,201.2v1.2h-1.9v-7.4h6.8v6.2h-4.9ZM224.2,196.8v2.6h3v-2.6h-3Z"/>
    <path class="st6" d="M242,198.7c-.5.1-1,.3-1.5.4v3.9c0,.9-.2,1.3-.7,1.6-.5.3-1.2.4-2.2.4,0-.5-.3-1.2-.5-1.8.6,0,1.1,0,1.3,0,.2,0,.3,0,.3-.3v-3.4l-1.6.5-.4-1.8c.6-.1,1.3-.3,2.1-.5v-2.8h-1.8v-1.8h1.8v-3h1.7v3h1.4v1.8h-1.4v2.4l1.3-.4.2,1.7ZM249.9,196.9v1.3h1.8v1.7h-1.8v3.3c0,1-.2,1.4-.8,1.7-.6.3-1.4.3-2.6.3,0-.5-.3-1.3-.5-1.8.7,0,1.6,0,1.8,0,.2,0,.3,0,.3-.3v-3.2h-5.9v-1.7h5.9v-1.3h-6v-1.7h4v-1.4h-3.3v-1.7h3.3v-1.7h1.8v1.7h3.2v1.7h-3.2v1.4h3.9v1.7h-1.9ZM244.6,199.9c.7.8,1.5,1.9,1.8,2.7l-1.6.9c-.3-.8-1-2-1.7-2.8l1.5-.8Z"/>
    <path class="st6" d="M258.2,197.9c0,.5,0,1.2,0,1.6-3.6,1-4.3,1.2-4.6,1.5,0-.3-.4-1.1-.5-1.5.4,0,.7-.5,1.2-1.1.2-.3.7-.9,1.2-1.7-1.4.2-1.7.3-2,.4,0-.3-.4-1.2-.6-1.6.3,0,.6-.4.9-1,.4-.5,1.4-2.5,2-4.4l1.6.8c-.6,1.5-1.4,3.1-2.3,4.3h1.3c.3-.7.6-1.2.8-1.8l1.4.9c-.7,1.4-1.6,2.8-2.6,4.1l2-.5ZM258.5,202.2c-1.7.7-3.5,1.4-4.9,2l-.4-1.8c1.3-.4,3.2-1.1,5-1.8l.3,1.5ZM263.8,201c-.6,1.5-1.9,3-4.4,4.1-.2-.4-.7-1.1-1.1-1.4,1.8-.8,2.9-1.7,3.5-2.7h-3.2v-1.6h2c-.4-.4-1.2-1-1.8-1.3l.8-.9c.7.4,1.6,1,2,1.4l-.7.8h1.5c.1-.6.2-1.2.2-1.7v-.6l-.7.9c-.4-.4-1.2-1-1.9-1.3l.8-.9c.7.3,1.4.8,1.9,1.2v-.9h1.7v1.7c0,.5,0,1.1-.1,1.6h3.3v1.6h-3.8ZM265.2,197.3c.2-.4.3-1,.5-1.7h-6.8v-1.6h3.3v-1h-2.7v-1.6h2.7v-1.2h1.9v1.2h2.8v1.6h-2.8v1h2.5s1.2.2,1.2.2c-.3,1.2-.7,2.5-1.1,3.4l-1.5-.3ZM264.6,201.3c1.2.8,2.6,1.9,3.4,2.7l-1.2,1.2c-.7-.8-2.1-2-3.3-2.9l1.1-1Z"/>
    <path class="st6" d="M282.9,197.3c-.6,2-1.7,3.5-3,4.7,1.3.7,2.8,1.2,4.5,1.5-.4.4-.9,1.2-1.2,1.7-2-.4-3.6-1.1-4.9-2-1.4.9-3,1.5-4.7,2-.2-.5-.6-1.2-1-1.7,1.5-.3,2.9-.8,4.1-1.5-.7-.6-1.2-1.4-1.7-2.2-1.1,1.7-2.5,3.1-4.5,4.1-.3-.4-.9-1.2-1.4-1.5,2.8-1.5,4.5-3.9,5.6-7h-2.1c-.9,0-1.5.1-1.7.4-.1-.4-.4-1.3-.6-1.7.2,0,.5-.3.7-.7.2-.3.8-1.6,1.1-2.8l2,.3c-.3.9-.7,1.9-1.1,2.7h2.2c.3-1.1.5-2.3.6-3.5l2.1.4c-.1,1.1-.3,2.1-.5,3.1h6.4v1.8h-6.9c-.1.5-.3.9-.4,1.3h5c0,0,1.3.5,1.3.5ZM276.2,198.6c.5.9,1.2,1.7,2,2.3.8-.7,1.4-1.5,1.9-2.3h-3.9ZM281.3,193.4c-.4-.6-1.2-1.6-1.9-2.3l1.5-.9c.6.7,1.5,1.6,1.9,2.2l-1.5,1Z"/>
    <path class="st6" d="M299.7,201.3c-.6.4-1.4.9-2.1,1.2.8.4,1.7.8,2.8,1-.4.4-.9,1.1-1.1,1.6-2.8-.7-4.5-2.2-5.6-4.6h-1.6v2.5l2.7-.5c0,.5-.2,1.2-.2,1.6-3.5.8-4.1.9-4.4,1.1h0c0-.4-.5-1.2-.7-1.5.3-.2.8-.7.8-1.5v-1.7h-1.3v-1.6h2.3v-1.1h-2v-1.6h2v-1.1h-2.3v.5c0,2.8-.3,6.9-1.9,9.6-.4-.3-1.2-.8-1.7-1,1.6-2.5,1.7-6.1,1.7-8.6v-4.7h12.3v4.3h-2.2v1.1h2.3v1.6h-2.3v1.1h3v1.6h-1.7l1.2.8ZM289,193.5h8.5v-1.1h-8.5v1.1ZM293.1,196.3h2.4v-1.1h-2.4v1.1ZM293.1,199h2.4v-1.1h-2.4v1.1ZM295.5,200.6c.2.4.5.8.9,1.1.5-.3,1.1-.7,1.6-1.1h-2.5Z"/>
  </g>
  <g>
    <path class="st6" d="M229,216.7s0,.7,0,.9c-.2,6.1-.4,8.5-1,9.2-.4.6-.9.8-1.6.9-.6,0-1.6,0-2.6,0,0-.6-.3-1.4-.7-2,1,0,1.9,0,2.3,0s.5,0,.7-.3c.4-.4.6-2.4.8-7h-4.6c-.4,3.1-1.8,6.5-5.6,9-.3-.4-1-1.1-1.5-1.4,3.3-2.1,4.6-5,5.1-7.6h-4.7v-1.9h4.9c0-.5,0-1.1,0-1.5v-2.2h1.9v2.2c0,.5,0,1,0,1.5h6.5ZM218.1,216.5c-.3-.6-.9-1.7-1.5-2.4l1.7-.7c.6.7,1.3,1.7,1.6,2.4l-1.8.7ZM223.9,223.9c-.3-.8-1.1-2.1-1.8-3l1.6-.7c.7.9,1.6,2.1,2,2.9l-1.7.8Z"/>
    <path class="st6" d="M235.8,222.4c-.2-.4-.4-1.1-.8-1.7v7.3h-1.8v-5.9c-.4,1.2-.9,2.3-1.4,3-.2-.5-.6-1.4-.9-1.9,1-1.2,1.8-3.5,2.3-5.4h-1.9v-1.8h1.9v-3h1.8v3h1.6v1.8h-1.6v.5c.4.6,1.6,2.4,1.9,2.8l-1.1,1.3ZM246,221.3c-.6,1.1-1.5,2.1-2.4,3,1,.8,2,1.7,2.6,2.3l-1.5,1.2c-.5-.7-1.6-1.6-2.5-2.4-1.5,1.1-3.2,2-5.2,2.6-.2-.4-.8-1.2-1.1-1.6,3.8-1,6.8-3.2,8.1-5.8l2,.7ZM244.9,218.1c-1.5,2.6-4,4.9-7.1,6.3-.2-.4-.7-1.1-1.1-1.5,1.5-.6,2.8-1.5,3.9-2.4-2.4.2-2.9.3-3.3.4,0-.4-.3-1.3-.5-1.7.4,0,1-.2,1.3-.5.3-.3.9-1.2,1.4-2h-2.7v-1.7h3.7c-.1-.5-.3-1-.6-1.5l1.8-.5c.4.6.7,1.4.8,2h3.2v1.7h-4.4c-.5.8-1,1.6-1.5,2.4h2.1c.3-.5.6-1,.8-1.5l1.8.6Z"/>
    <path class="st6" d="M250.5,218.9c-.2,2.1-.6,4.8-1.2,6.6l-1.9-.8c.6-1.7,1-4.1,1.2-6.2l1.9.4ZM253.5,217.6v7.4c0,.8.1.9.9.9h2.3c.8,0,.9-.5,1.1-3,.4.3,1.3.7,1.8.8-.2,3-.7,4-2.7,4h-2.7c-2.1,0-2.7-.6-2.7-2.7v-7.4h2ZM253.4,213.3c1.4.9,3.5,2.3,4.4,3.3l-1.4,1.5c-.9-1-2.8-2.5-4.3-3.5l1.3-1.3ZM260.4,218c.9,1.9,1.7,4.3,2.1,6l-1.9.8c-.2-1.6-1.1-4.2-1.9-6l1.8-.7Z"/>
    <path class="st6" d="M269.1,224.7c-1.8.6-3.7,1.2-5.2,1.7l-.4-1.9c.6-.1,1.2-.3,2-.5v-3.8h-1.6v-1.7h1.6v-2.8h-1.8v-1.8h5.3v1.8h-1.7v2.8h1.4v1.7h-1.4v3.2c.5-.2,1.1-.3,1.6-.5l.3,1.8ZM278.6,225.7v1.7h-10.3v-1.7h4.4v-1.5h-3.3v-1.7h3.3v-1.4h-3.2v-7.4h8.4v7.4h-3.2v1.4h3.4v1.7h-3.4v1.5h3.9ZM271.3,216.6h1.6v-1.3h-1.6v1.3ZM271.3,219.5h1.6v-1.4h-1.6v1.4ZM276.1,215.3h-1.6v1.3h1.6v-1.3ZM276.1,218.1h-1.6v1.4h1.6v-1.4Z"/>
    <path class="st6" d="M288.4,213.4c0,.1-.2.3-.3.4,1.6,1.3,4.3,2.6,6.7,3.2-.4.4-1,1.1-1.3,1.6-2.2-.8-4.7-2.1-6.5-3.6-1.7,1.7-4,2.9-6.3,3.8-.2-.4-.7-1.3-1.1-1.7,2.9-.8,5.6-2.3,7-4.3l1.8.7ZM279.7,226.3c.7-1,1.2-2.6,1.5-4l1.7.6c-.3,1.4-.8,3.2-1.5,4.3l-1.7-.9ZM292.3,219.3c-.7,1.1-2,2.5-3.1,3.4-.4-.3-1-.7-1.4-1,.5-.4,1.1-1,1.6-1.5h-7.4v-1.6h5.5c-.5-.5-1.3-1.1-1.9-1.5l1.1-1c.8.4,1.8,1.1,2.2,1.6l-1,.9h3.1c0,0,1.3.7,1.3.7ZM288.9,225.8c.7,0,.8-.3.9-1.9.4.3,1.2.6,1.7.7-.2,2.3-.8,2.8-2.5,2.8h-3c-2.2,0-2.7-.5-2.7-2.3v-3h1.9v3c0,.5.1.6,1,.6h2.7ZM286.2,220.8c1,.8,2.4,2,2.9,2.8l-1.5,1.1c-.5-.8-1.8-2.1-2.8-2.9l1.4-1ZM292.5,222.2c.9,1.3,1.9,2.9,2.3,4l-1.7.7c-.4-1.1-1.3-2.8-2.2-4.1l1.6-.7Z"/>
  </g>
  <g>
    <path class="st6" d="M391.8,197.9c-.6-.5-1.9-1.3-2.9-1.8l1.2-1.3c.9.4,2.3,1.2,2.9,1.7l-1.2,1.4ZM393.5,199.9c-.7,1.7-1.6,3.4-2.5,5l-1.7-1.2c.8-1.2,1.8-3.1,2.7-5l1.5,1.2ZM392.6,193.7c-.6-.6-1.9-1.4-2.8-1.9l1.2-1.3c.9.5,2.3,1.2,2.9,1.8l-1.2,1.5ZM400.3,201.1c.8,1.2,2,2,3.9,2.3-.4.4-.9,1.1-1.1,1.6-2.1-.5-3.4-1.6-4.3-3.1-.7,1.5-2.1,2.5-4.7,3.2-.2-.5-.7-1.2-1-1.6,4.4-1,4.6-2.7,4.7-6.6h1.9c0,.8,0,1.6-.1,2.3.2.7.4,1.3.8,1.8.5-.8,1.1-2.1,1.5-3l2,.6c-.6,1.1-1.3,2.3-1.9,3l-1.5-.5ZM393.5,201.1c.6-.7,1.1-1.9,1.3-2.9l1.7.4c-.3,1.2-.8,2.5-1.4,3.4l-1.7-.8ZM402.3,197.9c-.8-.7-2.3-1.6-3.7-2.4-.7,1.1-1.9,1.9-4,2.5-.2-.5-.7-1.2-1-1.6,3.8-.9,4.1-2.6,4.2-6.2h1.9c0,1.5-.1,2.7-.4,3.8,1.5.7,3.3,1.7,4.2,2.4l-1.2,1.5ZM393.8,193.9c.5-.7,1.1-1.8,1.3-2.8l1.6.4c-.3,1.1-.8,2.3-1.3,3.1l-1.6-.6ZM403.5,191.7c-.7,1-1.4,2.1-2,2.7l-1.5-.5c.5-.8,1.2-2,1.5-2.8l1.9.6Z"/>
    <path class="st6" d="M416.2,202.2h-10.5v-1.8h10.5v1.8ZM419.7,197.1s0,.6,0,.8c-.4,4.1-.8,5.8-1.4,6.5-.4.5-.9.6-1.6.7-.6,0-1.5,0-2.5,0,0-.6-.3-1.3-.6-1.8,1,0,1.9,0,2.3,0s.5,0,.7-.2c.4-.4.7-1.6,1-4.3h-10.1c.2-1.4.4-3.6.6-5.3h1.9c0,1.2-.2,2.4-.3,3.5h5.3c.2-1.4.3-3,.4-4.2h-8.7v-1.8h9.3c0,0,1.4,0,1.4,0-.1,1.8-.4,4-.6,6h2.8Z"/>
    <path class="st6" d="M436.1,197.9s0,.5,0,.7c-.1,3.8-.3,5.4-.7,5.9-.3.4-.6.5-1,.6-.4,0-.9,0-1.5,0,0-.5-.2-1.1-.4-1.6.5,0,.9,0,1.1,0s.3,0,.4-.2c.2-.3.4-1.3.5-4h-.5c-.7,2.4-1.8,4.4-3.2,5.7-.3-.3-.8-.7-1.1-.9,1.3-1.1,2.3-2.8,2.9-4.8h-.7c-.7,1.8-2,3.4-3.2,4.5-.2-.2-.7-.7-1-.9-2.9,1.4-3.4,1.7-3.7,2h0c-.1-.4-.6-.9-.8-1.2.4-.3,1-.9,1-1.7v-2.4h-2.1v-1.7h2.1v-1.6h-1.2v-1.2c-.2.2-.4.4-.5.5-.1-.4-.6-1.4-.9-1.9.9-.9,1.8-2.2,2.3-3.6l1.7.5c-.1.3-.3.7-.4,1h2.8v1.7h-3.7c-.3.4-.5.8-.8,1.2h4.1v1.7h-1.7v1.6h1.9v1.5c.8-.7,1.5-1.6,1.9-2.6h-1.1v-6.1h7.2v6.1h-4.5c-.1.3-.3.7-.5,1h5.6ZM427.3,201.3c0,.5.1,1.1.2,1.6,1.1-.8,2.1-2.1,2.7-3.5h-.7c-.4.6-.9,1-1.3,1.4-.3-.3-.9-.8-1.2-1l.2-.2h-1.6v2.4l1.7-.8ZM429.9,193.2h3.8v-.9h-3.8v.9ZM429.9,195.4h3.8v-.9h-3.8v.9Z"/>
  </g>
  <g>
    <path class="st6" d="M384.8,224.6c.3.2.6.4,1,.7,1.1.6,2.5.7,4.2.7s4.3-.1,6-.4c-.2.5-.6,1.5-.6,2.1-1.2,0-3.7.2-5.5.2s-3.3-.2-4.4-.8c-.6-.4-1.2-.8-1.5-.8-.5,0-1.3,1-1.9,2l-1.3-1.9c.7-.7,1.4-1.2,2.1-1.6v-4.5h-2v-1.8h3.8v6.1ZM384.1,217c-.6-.6-1.9-1.6-2.8-2.2l1.2-1.2c.9.6,2.2,1.5,2.8,2.1l-1.3,1.4ZM386.5,224.6s0,0,0,.1c0-.4-.4-1.4-.7-1.9.3,0,.6-.4.9-.8.3-.4,1-1.6,1.5-2.9h-2.8v-1.8h10.3v1.8h-5.2c-.5,1.2-1.3,2.4-2,3.4l3.9-.3c-.4-.7-.8-1.4-1.2-2l1.6-.7c.9,1.5,2.1,3.5,2.7,4.7l-1.7.9c-.1-.3-.3-.7-.5-1.2-5.3.5-6.2.6-6.8.9h0ZM394.7,215.6h-8.2v-1.8h8.2v1.8Z"/>
    <path class="st6" d="M411.7,214.1v1.7h-3.2v.8h-1.9v-.8h-4v.8h-1.9v-.8h-3.2v-1.7h3.2v-1.1h1.9v1.1h4v-1.1h1.9v1.1h3.2ZM397.9,216.9h13.6v3.3h-1.8v-1.9h-10v1.9h-1.7v-3.3ZM399.1,223h11.2v5h-1.9v-.4h-7.4v.4h-1.8v-5ZM408.9,219v3.5h-8.4v-3.5h8.4ZM400.9,224.7v1.3h7.4v-1.3h-7.4ZM407,220.2h-4.7v1h4.7v-1Z"/>
    <path class="st6" d="M418.7,223.8c-.9,1.2-2.4,2.5-3.5,3.3-.4-.4-1.2-1-1.7-1.3,1.2-.7,2.5-1.7,3.3-2.8l1.9.7ZM421.9,222.1v3.7c0,.9-.2,1.4-.9,1.7-.7.3-1.6.3-2.8.3,0-.6-.4-1.4-.7-1.9.8,0,1.8,0,2.1,0,.3,0,.4,0,.4-.3v-3.5c-3.7.3-4.4.4-4.9.6,0-.3-.4-1.2-.5-1.7.6,0,1.2-.4,2.3-.9.5-.2,1.3-.7,2.4-1.3-2.5.2-3,.3-3.4.4,0-.4-.4-1.2-.5-1.6.4,0,.8-.3,1.2-.6.4-.2,1.2-.8,2-1.6-1.2,0-2.4.1-3.6.2,0-.5-.3-1.2-.4-1.7,3.9-.1,8.4-.6,11.1-1.2l1.3,1.6c-1.6.4-3.6.7-5.7.9-.8.8-1.7,1.6-2.7,2.2l3.2-.2c.8-.5,1.6-1.1,2.3-1.7l1.4,1.2c-1.9,1.5-4,2.8-6,3.8l4.8-.3c-.3-.3-.6-.7-.9-.9l1.4-.8c1.2,1.1,2.5,2.6,3.1,3.6l-1.5.9c-.2-.4-.6-.9-1-1.4l-3.3.3ZM424.3,223c1.2.9,2.8,2.1,3.6,3l-1.7,1.1c-.7-.8-2.3-2.2-3.5-3.1l1.6-1Z"/>
    <path class="st6" d="M435.1,220.8c0,.5,0,1.3,0,1.7-3.8.9-4.5,1.1-4.9,1.4,0-.4-.4-1.3-.6-1.8.4,0,.8-.4,1.3-1,.2-.2.6-.8,1.1-1.5-1.2.1-1.6.2-1.9.4-.1-.4-.4-1.4-.7-1.9.4,0,.6-.4,1-.9.3-.5,1.4-2.4,1.9-4.3l1.9.9c-.6,1.4-1.4,3-2.3,4.2h1.2c.3-.6.6-1.2.9-1.8l1.6,1c-.8,1.4-1.7,2.8-2.7,4l2.2-.5ZM435.4,225.2c-1.8.8-3.7,1.5-5.3,2.1l-.4-1.9c1.3-.4,3.4-1.1,5.4-1.8l.4,1.6ZM438.8,221c-.1,3.4-.5,5.7-3.5,7-.2-.5-.7-1.2-1.2-1.6,2.4-1,2.6-2.7,2.7-5.4h1.9ZM442.9,221.5c-.1-.3-.3-.7-.5-1.1-5.5.6-6.3.7-6.8.9,0-.5-.4-1.4-.6-1.8.3,0,.8-.2,1.2-.5.3-.3,1.1-1.3,1.7-2.2h-2.5v-1.7h3.6c-.2-.5-.4-1.2-.6-1.7l1.8-.4c.3.6.7,1.4.8,1.9l-1,.3h4.4v1.7h-4.2c-.6.8-1.2,1.7-1.8,2.4l3.2-.3c-.3-.4-.5-.8-.8-1.1l1.5-.7c.9,1.1,1.9,2.6,2.3,3.6l-1.6.8ZM442.6,226.1c.3,0,.3-.4.4-2.4.4.3,1.2.6,1.6.7-.1,2.5-.6,3.2-1.8,3.2h-1.1c-1.4,0-1.8-.5-1.8-2.1v-4.5h1.9v4.5c0,.5,0,.6.3.6h.5Z"/>
  </g>
  <g>
    <path class="st6" d="M64.5,201.7c1.6.7,3.2,1.5,4.2,2.1l-1.5,1.3c-1.1-.7-2.9-1.7-4.7-2.4l.9-1h-4.8l1.3.9c-1.2.9-3.2,1.9-4.8,2.4-.3-.4-.9-1-1.4-1.4,1.4-.5,3.2-1.3,4.2-2h-4v-1.7h2.3v-9.1h10.2v9.1h2.1v1.7h-4.1ZM58.2,192.4v.9h6.3v-.9h-6.3ZM64.5,194.7h-6.3v.8h6.3v-.8ZM58.2,196.9v.9h6.3v-.9h-6.3ZM58.2,200h6.3v-.9h-6.3v.9Z"/>
    <path class="st6" d="M76.1,193.9c-.2.4-.4.8-.6,1.3h7.4v7.9c0,.9-.2,1.5-.8,1.7-.6.3-1.5.3-2.8.3,0-.5-.3-1.3-.6-1.8.8,0,1.7,0,2,0,.3,0,.4,0,.4-.3v-1h-5.8v3.1h-1.9v-7c-.6.7-1.3,1.3-2.1,1.9-.3-.4-.9-1.1-1.2-1.5,1.7-1.1,3-2.8,4-4.7h-3.5v-1.8h4.3c.3-.7.5-1.3.6-1.9l2,.4c-.2.5-.3,1-.5,1.5h7.8v1.8h-8.6ZM81,196.8h-5.8v1h5.8v-1ZM81,200.5v-1h-5.8v1h5.8Z"/>
    <path class="st6" d="M93,198.1s0,.4,0,.6c0,2.5-.1,3.6-.4,3.9-.2.3-.4.4-.7.5-.3,0-.7,0-1.1,0,0-.5-.2-1.1-.4-1.4.2,0,.4,0,.5,0s.2,0,.3-.2c0-.2.1-.7.2-1.9h-1v5.5h-1.8v-5.5h-2.3v-1.6h2.3v-1.4h-1.9v-1.6h1.9v-1.3h-2.2v-1.6h2.2v-1.8h1.8v1.8h2.5v1.6h-2.5v1.3h2.2v1.6h-2.2v1.4h2.6ZM100.9,192c-.1,8.4-.3,11.2-.8,12.1-.4.6-.7.8-1.3.9-.5.1-1.3,0-2,0,0-.5-.3-1.3-.6-1.9.7,0,1.3,0,1.7,0s.4,0,.6-.3c.4-.5.6-3.1.7-10h-1c0,4.7-.6,9.9-4.3,12.4-.3-.4-.9-1.1-1.3-1.4,3.4-2.1,3.8-6.7,3.7-11h-2.7v-1.8h7.3v.9ZM95.5,194.2c0,1.8-.3,3.9-1,5.2l-1.5-.7c.6-1.1.9-3.1,1-4.8l1.5.2Z"/>
    <path class="st6" d="M117.4,202.8v1.8h-10v-1.8h4.3v-3.2h-3.1v-1.8h3.1v-2.6h-1.8c-.2.8-.6,1.6-.9,2.2-.4-.2-1.2-.7-1.7-.9.2-.3.3-.6.5-.9l-.9.4c0-.5-.3-1.2-.6-1.8v10.9h-1.9v-11.4c0,1.3-.4,3.1-.7,4.2l-1.4-.5c.4-1.1.7-2.8.8-4.2l1.3.2v-3.3h1.9v3l.9-.4c.3.6.7,1.4.9,2,.4-1.2.7-2.5.8-3.9l1.9.3c-.1.8-.2,1.5-.4,2.2h1.3v-3.1h1.9v3.1h3.3v1.8h-3.3v2.6h2.9v1.8h-2.9v3.2h3.8Z"/>
    <path class="st6" d="M123.7,197c.6.6,2.1,2.3,2.4,2.8l-1.1,1.6c-.3-.5-.8-1.3-1.3-2.1v5.9h-1.9v-5.7c-.6,1.5-1.4,2.9-2.2,3.8-.2-.6-.6-1.3-1-1.8,1.1-1.2,2.1-3,2.7-4.8h-2.4v-1.8h2.8v-2.1c-.8.1-1.6.2-2.3.3,0-.4-.3-1.1-.5-1.5,2.1-.3,4.4-.8,5.9-1.4l1.2,1.5c-.7.3-1.5.5-2.4.7v2.4h2.3v1.8h-2.3v.3ZM132.8,191.7v12.6h-2v-1.2h-2.6v1.3h-1.9v-12.7h6.4ZM130.9,201.3v-7.8h-2.6v7.8h2.6Z"/>
  </g>
  <g>
    <path class="st6" d="M76.2,215.4v1.7h-14.5v-1.7h3.4c-.3-.5-.8-1.2-1.2-1.8l1.8-.6c.6.6,1.2,1.5,1.5,2.1l-.9.3h4.5c.5-.7,1-1.7,1.3-2.4l2.1.6c-.4.6-.8,1.2-1.2,1.8h3.2ZM69,226.1c0,.8-.2,1.3-.7,1.5-.5.3-1.2.3-2.2.3,0-.5-.4-1.2-.6-1.6.6,0,1.2,0,1.4,0,.2,0,.3,0,.3-.3v-1.4h-2.7v3.2h-1.8v-9.7h6.3v7.9ZM64.5,219.8v1h2.7v-1h-2.7ZM67.1,223.2v-1h-2.7v1h2.7ZM72.1,224.9h-1.7v-6.5h1.7v6.5ZM73.5,217.9h1.9v8c0,.9-.2,1.4-.8,1.7-.6.3-1.5.3-2.6.3,0-.5-.4-1.3-.7-1.8.8,0,1.6,0,1.9,0,.3,0,.3,0,.3-.3v-7.9Z"/>
    <path class="st6" d="M92.7,217h-2.7c.9.4,1.8,1,2.4,1.4l-.8,1c-.6-.4-1.6-1.1-2.5-1.6l.6-.8h-2.2l.9.8c-.8.6-1.7,1.2-2.5,1.6l-.9-.9c.7-.4,1.5-1,2.1-1.5h-2.1v2.6h3.1c-.1-.3-.3-.6-.4-.8l1.3-.5c.3.4.5.9.7,1.4h2.9v1.1h-7.7c0,2.3-.2,5.2-1,7.2-.4-.2-1.1-.5-1.6-.6.9-2.1,1-5.2,1-7.4v-1.9c-.2-.3-.5-.8-.8-1.1v8.5h-2.7v1.3h-1.6v-12.8h4.3v2.5c1.4-1,2.3-2.4,2.8-3.5l1.8.3c0,.2-.2.3-.2.5h2.5c0,0,1.2.7,1.2.7-.2.4-.5.8-.8,1.2h3v1.4ZM79.8,215.6v1.6h1.2v-1.6h-1.2ZM79.8,220.4h1.2v-1.7h-1.2v1.7ZM81,223.7v-1.7h-1.2v1.7h1.2ZM85.5,224.3h6.6v3.5h-1.8v-.5h-3.1v.5h-1.7v-3.6ZM85.6,222.7h6.3v1h-6.3v-1ZM91.9,222.2h-6.3v-1h6.3v1ZM86.2,214.9c-.2.3-.3.5-.5.7h2.1c.2-.2.3-.5.5-.7h-2ZM87.2,225.4v.9h3.1v-.9h-3.1Z"/>
    <path class="st6" d="M108.9,225.6v1.8h-10v-1.8h4.3v-3.2h-3.1v-1.8h3.1v-2.6h-1.8c-.2.8-.6,1.6-.9,2.2-.4-.2-1.2-.7-1.7-.9.2-.3.3-.6.5-.9l-.9.4c0-.5-.3-1.2-.6-1.8v10.9h-1.9v-11.4c0,1.3-.4,3.1-.7,4.2l-1.4-.5c.4-1.1.7-2.8.8-4.2l1.3.2v-3.3h1.9v3l.9-.4c.3.6.7,1.4.9,2,.4-1.2.7-2.5.8-3.9l1.9.3c-.1.8-.2,1.5-.4,2.2h1.3v-3.1h1.9v3.1h3.3v1.8h-3.3v2.6h2.9v1.8h-2.9v3.2h3.8Z"/>
    <path class="st6" d="M124.8,215.5s0,.6,0,.9c-.2,7.2-.4,9.7-1,10.5-.4.6-.9.8-1.5.9-.6,0-1.6,0-2.5,0,0-.5-.3-1.3-.6-1.9,1,0,2,0,2.4,0s.5,0,.7-.3c.5-.5.7-2.9.8-8.6h-3.4c-.4,1-.9,1.8-1.4,2.5-.3-.2-.8-.6-1.2-.9v7.5h-4.3v1.2h-1.7v-11.9h1.8c.2-.8.4-1.8.5-2.6l2.1.3c-.3.8-.6,1.6-.8,2.3h2.5v2.6c.9-1.3,1.7-3.3,2.2-5.2l1.8.4c-.2.7-.4,1.4-.6,2h4.5ZM115.2,217.2h-2.5v2.6h2.5v-2.6ZM115.2,224.6v-3.1h-2.5v3.1h2.5ZM120.5,223.8c-.4-1-1.4-2.5-2.2-3.7l1.5-.8c.8,1.1,1.9,2.6,2.4,3.6l-1.6,1Z"/>
  </g>
  <g>
    <path class="st6" d="M65.4,244.8v3.8c0,.9-.2,1.4-.7,1.7-.5.3-1.3.4-2.4.4,0-.5-.3-1.2-.5-1.7.6,0,1.3,0,1.5,0s.3,0,.3-.3v-3.3l-1.6.4-.5-1.8c.6-.1,1.3-.3,2.1-.5v-2.8h-1.9v-1.8h1.9v-3h1.9v3h1.7v1.8h-1.7v2.4l1.2-.3.2,1.7-1.4.4ZM75.6,243.2c-.6,2-1.5,3.5-2.7,4.6,1.1.5,2.3,1,3.7,1.2-.4.4-.9,1.2-1.2,1.8-1.6-.4-3-1-4.1-1.7-1.3.8-2.7,1.3-4.4,1.7-.2-.5-.6-1.3-.9-1.7,1.4-.2,2.6-.7,3.7-1.2-.9-.9-1.6-1.9-2.2-3.1l.6-.2h-.9v-1.8h7.3c0,0,1.2.4,1.2.4ZM67.6,242.5c-.2-.4-.9-1.1-1.3-1.4,1.9-.9,2.1-2,2.1-3.1v-1.7h5.7v3.5c0,.5,0,.7.3.7h.9c.3,0,.7,0,.9-.1,0,.5,0,1.1.1,1.6-.2,0-.6.1-1,.1h-1.1c-1.6,0-1.9-.7-1.9-2.3v-1.7h-2.1c0,1.6-.5,3.4-2.6,4.4ZM69.2,244.5c.5.8,1.2,1.6,2,2.2.8-.6,1.4-1.4,1.9-2.2h-3.8Z"/>
    <path class="st6" d="M86.2,245.5c-.6,2.8-2,4.5-7.6,5.3-.1-.4-.5-1.2-.8-1.6,5.1-.5,6.1-1.7,6.6-3.7h1.9ZM83,241.3c-1.5.6-3.1,1.1-4.4,1.6l-.6-1.7c1.2-.3,3-.9,4.7-1.5l.3,1.6ZM81.6,239.3c-.7-.5-2.1-1.3-3.2-1.8l.9-1.3c1.1.4,2.5,1.1,3.3,1.6l-1,1.4ZM88.8,247.6v-2.5h-7.1v2.7h-1.9v-4.4h10.9v4.2h-2ZM88.4,238.6c0,.2,0,.3-.1.5.8,1.3,2.3,2.3,4.3,2.7-.4.3-.9,1-1.1,1.5-1.6-.5-2.9-1.4-3.8-2.6-.7,1.2-2,2.1-4.1,2.8-.2-.4-.6-1.1-1-1.4,2.7-.7,3.6-2,4-3.4h-1.2c-.4.7-1,1.3-1.7,1.9-.3-.4-.9-1-1.3-1.2,1.2-.9,2-2.2,2.4-3.3l1.8.3c-.1.3-.3.7-.4,1h4.9c0,0,1.4.3,1.4.3-.3.9-.8,2-1.1,2.7l-1.7-.4c.1-.3.3-.7.4-1.2h-1.5ZM86.4,247.2c1.8.5,4.5,1.3,5.9,2l-1.2,1.5c-1.3-.6-3.9-1.6-5.8-2.1l1.1-1.3Z"/>
    <path class="st6" d="M100,243.9c0,.5,0,1.2,0,1.5-4.2.8-4.8,1-5.2,1.2,0-.4-.4-1.1-.5-1.6.4,0,.8-.5,1.3-1,.2-.3.8-.9,1.3-1.7-1.6.2-2,.3-2.2.4,0-.4-.4-1.2-.6-1.7.3,0,.6-.4,1-1,.4-.5,1.5-2.5,2.1-4.4l1.7.8c-.6,1.5-1.5,3.1-2.4,4.4h1.6c.3-.7.7-1.2,1-1.8l1.4.9c-.9,1.5-2,3-3.1,4.3l2.8-.5ZM99.9,248.4c-1.9.5-3.8,1.1-5.4,1.5l-.3-1.8c1.4-.3,3.5-.7,5.5-1.2l.2,1.6ZM108.9,248.7v1.7h-9.2v-1.7h1.4v-12.2h6.5v12.2h1.3ZM102.9,238.3v2.3h2.8v-2.3h-2.8ZM102.9,244.6h2.8v-2.3h-2.8v2.3ZM102.9,248.7h2.8v-2.4h-2.8v2.4Z"/>
    <path class="st6" d="M119.5,236.6c-.2.2-.4.5-.5.7,2,1.9,4.2,3,6.3,3.8-.5.4-1.1,1.2-1.3,1.7-.8-.4-1.6-.8-2.3-1.2v1h-8v-.8c-.7.4-1.4.8-2.1,1.2-.3-.5-.9-1.3-1.4-1.7,2.9-1.2,6-3.1,7.7-5.6l1.7.9ZM112.7,244.1h10.3v6.6h-2v-.6h-6.3v.7h-2v-6.7ZM114.6,245.7v2.5h6.3v-2.5h-6.3ZM120.6,240.9c-.9-.6-1.8-1.4-2.8-2.3-.8.8-1.7,1.6-2.6,2.3h5.4Z"/>
  </g>
  <g>
    <path class="st6" d="M543.2,198.3c0,.5,0,1.2,0,1.5-4.2.8-4.8,1-5.2,1.2,0-.4-.4-1.1-.5-1.6.4,0,.8-.5,1.3-1,.2-.3.8-.9,1.3-1.7-1.6.2-2,.3-2.2.4,0-.4-.4-1.2-.6-1.7.3,0,.6-.4,1-1,.4-.5,1.5-2.5,2.1-4.4l1.7.8c-.6,1.5-1.5,3.1-2.4,4.4h1.6c.3-.7.7-1.2,1-1.8l1.4.9c-.9,1.5-2,3-3.1,4.3l2.8-.5ZM543,202.8c-1.9.5-3.8,1.1-5.4,1.5l-.3-1.8c1.4-.3,3.5-.7,5.5-1.2l.2,1.6ZM552,203.1v1.7h-9.2v-1.7h1.4v-12.2h6.5v12.2h1.3ZM546,192.7v2.3h2.8v-2.3h-2.8ZM546,199h2.8v-2.3h-2.8v2.3ZM546,203.1h2.8v-2.4h-2.8v2.4Z"/>
    <path class="st6" d="M559.2,198.4c0,.5,0,1.2,0,1.6-4.1.8-4.8,1-5.2,1.2,0-.3-.4-1.2-.6-1.6.4,0,.8-.4,1.3-1,.3-.3.7-.8,1.3-1.6-1.5.2-1.9.3-2.1.4,0-.4-.4-1.3-.6-1.8.4,0,.6-.4,1-1,.4-.5,1.5-2.5,2.1-4.4l1.8.8c-.7,1.5-1.6,3.1-2.5,4.4h1.4c.3-.7.7-1.2,1-1.8l1.5,1c-.8,1.5-1.9,2.9-3,4.2l2.7-.4ZM559.2,203.1c-1.9.5-3.9,1-5.5,1.4l-.4-1.9c1.4-.3,3.6-.7,5.6-1.2l.2,1.6ZM562.7,200.5c-.5,1.8-1.5,3.5-2.5,4.6-.4-.3-1.2-.8-1.7-1.1,1-.9,1.8-2.4,2.2-3.9l2,.4ZM567.3,198.8h-7.6v-7.6h7.6v7.6ZM565.3,193h-3.7v4h3.7v-4ZM566.1,200c.9,1.3,1.8,3.1,2.1,4.3l-1.9.7c-.3-1.2-1.2-3-2-4.4l1.8-.6Z"/>
    <path class="st6" d="M575.3,199.8c-.3-.5-.8-1.4-1.3-2.1v7.4h-1.9v-6.1c-.5,1.3-1.1,2.4-1.7,3.3-.2-.6-.7-1.3-.9-1.8,1-1.4,2-3.6,2.5-5.6h-2.2v-1.8h2.4v-3h1.9v3h1.8v1.8h-1.8v.4c.5.6,1.9,2.2,2.2,2.6l-1,1.8ZM582.9,203.2c0,0,.2,0,.2,0,0,0,0-.2.1-.6,0-.3,0-1.1,0-2,.4.3.9.6,1.4.8,0,.9,0,2-.2,2.5,0,.5-.2.8-.5,1s-.6.3-1,.3h-.9c-.4,0-.8-.1-1.1-.4-.3-.3-.4-.7-.4-2.1v-9.5h-2.1v3.4c0,2.7-.4,6.6-2.7,8.9-.3-.4-1.1-1-1.5-1.3,2.1-2.1,2.3-5.2,2.3-7.6v-5.2h5.9v11.3c0,.4,0,.6,0,.7,0,0,0,0,.2,0h.2Z"/>
    <path class="st6" d="M600.4,192.7s0,.7,0,.9c-.2,7.2-.4,9.7-1,10.6-.4.6-.8.8-1.4.9-.5.1-1.4,0-2.2,0,0-.5-.3-1.3-.6-1.9.8,0,1.5,0,1.9,0s.4,0,.6-.3c.4-.5.7-2.8.8-8.5h-4.8c-.5.9-1,1.8-1.5,2.4-.3-.3-1.1-.9-1.6-1.2.2-.2.4-.5.6-.8h-1.4v.6c.5.6,1.7,2.4,2,2.9l-1.2,1.3c-.2-.5-.5-1.2-.8-1.9v7.3h-1.9v-6.2c-.4,1.3-.9,2.5-1.5,3.3-.2-.5-.6-1.4-.9-1.9,1-1.2,1.8-3.5,2.3-5.4h-2v-1.8h2.1v-3h1.9v3h1.5v1.6c.8-1.3,1.5-2.9,1.9-4.6l1.9.4c-.2.7-.4,1.4-.7,2.1h5.9ZM596.3,201.9c0-.3-.2-.6-.3-1-3.1.6-3.7.8-4,1,0-.3-.4-1.2-.6-1.6.3,0,.5-.4.8-.9.3-.5,1.1-2.4,1.5-4.1l1.8.5c-.4,1.4-1.1,2.8-1.7,4l1.7-.3c-.2-.5-.4-1-.5-1.4l1.4-.5c.5,1.2,1.2,2.7,1.4,3.7l-1.5.6Z"/>
    <path class="st6" d="M605.6,204.9c-1-1.2-2.3-2.6-3.4-3.5l1.7-1.4c1.1.9,2.7,2.5,3.5,3.5l-1.7,1.5Z"/>
  </g>
  <g>
    <path class="st6" d="M559.1,213c0,.7,0,1.5-.1,2.5.2,2.2,1.2,8.2,6.8,10.7-.6.5-1.1,1.1-1.4,1.6-3.6-1.7-5.3-4.8-6.3-7.6-.9,2.8-2.6,5.7-5.9,7.7-.3-.5-.9-1.1-1.6-1.6,6.5-3.5,6.2-10.6,6.3-13.3h2.2Z"/>
    <path class="st6" d="M581.5,218.1h-3.6v7.3c0,1.2-.3,1.7-1,2-.7.3-1.8.4-3.4.4,0-.6-.4-1.5-.7-2,1,0,2.1,0,2.5,0,.3,0,.5-.1.5-.4v-6.7c-1.8,2.9-4.5,5.9-7.3,7.5-.4-.6-1-1.3-1.5-1.7,2.7-1.3,5.2-3.8,6.9-6.4h-6.3v-2h8.3v-3.1h2.1v3.1h3.6v2Z"/>
    <path class="st6" d="M593.4,224.2h-9.9v-1.8h9.9v1.8ZM597.2,218.9s0,.6,0,.8c-.4,4.5-.8,6.4-1.6,7.2-.5.6-1.1.7-1.9.8-.7,0-1.8,0-3,0,0-.6-.3-1.4-.7-1.9,1.3.1,2.6.1,3.1.1s.6,0,.9-.2c.5-.4.9-2,1.2-5h-10c.5-1.9,1.1-5,1.5-7.4l2,.2c0,.5-.2,1-.3,1.5h8.5v1.8h-8.8c-.1.8-.3,1.5-.4,2.2h9.7Z"/>
  </g>
  <g>
    <path class="st6" d="M594.1,245.6c.2.5.5,1.2.7,1.6-3,2.5-3.5,3-3.8,3.3-.1-.5-.6-1.2-1-1.6.4-.3.8-.8.8-1.6v-4.8h-1.9v-1.8h3.7v6.1l1.4-1.2ZM592.5,239.7c-.5-.7-1.6-1.8-2.5-2.6l1.2-1.2c.8.7,2,1.7,2.6,2.4l-1.3,1.3ZM603,243.1c-.6,2-1.5,3.5-2.8,4.7,1.1.6,2.3,1,3.7,1.3-.4.4-.9,1.2-1.2,1.7-1.6-.4-3-1-4.1-1.8-1.3.8-2.8,1.3-4.4,1.7-.2-.5-.6-1.2-.9-1.6,1.4-.3,2.7-.7,3.8-1.3-.9-.9-1.6-1.9-2.2-3.1l.7-.2h-1.2v-1.8h7.4c0,0,1.2.4,1.2.4ZM597.7,238.1c0,1.6-.5,3.4-2.8,4.4-.2-.4-.9-1.1-1.3-1.4,2-.9,2.3-2,2.3-3.1v-1.7h5.7v3.5c0,.5,0,.7.3.7h.8c.3,0,.7,0,.9-.1,0,.5,0,1.1.1,1.6-.3.1-.7.1-1,.1h-1c-1.6,0-1.9-.7-1.9-2.3v-1.7h-2.1ZM596.8,244.5c.5.9,1.1,1.6,2,2.3.8-.6,1.4-1.4,1.9-2.3h-3.8Z"/>
    <path class="st6" d="M577.7,241.4c-.2,2.4-.6,4.3-1.2,5.8,1.5,1.3,3.5,1.5,5.8,1.6.9,0,4.2,0,5.3,0-.3.4-.6,1.2-.7,1.7h-4.7c-2.7,0-4.9-.4-6.5-1.7-.5.8-1.1,1.5-1.8,2-.3-.4-1-1-1.4-1.2.8-.5,1.4-1.2,1.9-2.1-.5-.8-1-1.8-1.4-3.1l1.4-.5c.2.7.5,1.3.8,1.9.3-.8.5-1.8.6-2.8h-2.6c.6-1.2,1.5-2.9,2.1-4.5h-2.4v-1.6h4.9c-.6,1.4-1.4,3.1-2,4.5h.7s1.1.2,1.1.2ZM581.1,238.5h-2.7v-1.4h2.7v-1.2h1.8v1.2h3.5v2.1h.9v1.5h-.9v2.1h-3.5v.8h3.7v1.4h-3.7v.8h4.2v1.5h-4.2v1.1h-1.8v-1.1h-3.5v-1.5h3.5v-.8h-2.9v-1.4h2.9v-.8h-2.8v-1.4h2.8v-.7h-3.6v-1.5h3.6v-.7ZM582.9,238.5v.7h1.8v-.7h-1.8ZM584.7,240.6h-1.8v.7h1.8v-.7Z"/>
    <path class="st6" d="M570.6,239.1s0,.7,0,.9c-.3,6.4-.6,8.8-1.3,9.6-.5.6-.9.8-1.6.9-.6,0-1.6,0-2.6,0,0-.6-.3-1.4-.7-2,1,0,2,0,2.4,0s.5,0,.8-.3c.5-.5.8-2.6,1.1-7.3h-4.5c-.3,3.3-1.4,7.2-5.9,9.7-.3-.5-1-1.2-1.5-1.6,4-2.2,5-5.4,5.3-8.2h-4.8v-2h4.9v-3.3h2v3.3h6.5Z"/>
    <path class="st6" d="M546.2,236.8c.7,1.1,1.6,2.5,1.8,3.5l-1.7.7c0-.2-.1-.5-.3-.8-3.9.3-4.5.4-4.9.6,0-.4-.4-1.3-.6-1.8.3,0,.5-.3.8-.6.2-.3,1-1.4,1.4-2.6l2,.5c-.4.9-1.1,1.9-1.7,2.6h2.3c-.2-.6-.5-1.1-.8-1.5l1.6-.6ZM547.2,248.8c0,.8-.2,1.3-.7,1.6-.5.3-1.3.3-2.2.3,0-.5-.4-1.2-.6-1.7.6,0,1.2,0,1.4,0,.2,0,.3,0,.3-.2v-1.1h-2.4v3h-1.8v-9.2h6v7.3ZM542.9,243.1v.8h2.4v-.8h-2.4ZM545.3,246.3v-.9h-2.4v.9h2.4ZM550.7,243c-1.9,0-2.3-.5-2.3-2.3v-4.8h1.9v2.3c1.1-.4,2.2-.9,2.9-1.3l1.2,1.4c-1.2.6-2.7,1.1-4.1,1.5v.9c0,.6,0,.6.7.6h1.7c.5,0,.6-.2.7-1.6.4.3,1.1.6,1.7.7-.2,2-.7,2.6-2.2,2.6h-2.2ZM552.9,249c.6,0,.7-.3.7-1.9.4.3,1.2.6,1.7.7-.2,2.2-.7,2.9-2.2,2.9h-2.2c-1.9,0-2.4-.6-2.4-2.3v-5h1.9v2.2c1.1-.4,2.2-1,3-1.5l1.2,1.4c-1.2.7-2.8,1.2-4.3,1.7v1.3c0,.6.1.6.7.6h1.8Z"/>
  </g>
  <g>
    <path class="st6" d="M298.6,383.2v2.1h-15.2v-2.1h15.2ZM297.7,371.7v2.1h-13.3v-2.1h13.3ZM296.3,377.3v2.1h-10.7v-2.1h10.7Z"/>
    <path class="st6" d="M310.4,376.9c1.2,3.4,3.3,6.2,6.5,7.5-.5.4-1.2,1.4-1.5,2-3.2-1.5-5.2-4-6.6-7.4-.9,2.9-2.8,5.7-6.5,7.4-.3-.6-.9-1.3-1.6-1.8,4-1.8,5.7-4.7,6.4-7.7h-6v-2.2h6.4c.2-1.6.2-3.2.2-4.7h2.3c0,1.4,0,3-.2,4.7h6.9v2.2h-6.2Z"/>
    <path class="st6" d="M331.5,380c.9.8,2.2,1.6,3.4,2-.5.4-1.1,1.1-1.4,1.6-.9-.4-1.9-1.1-2.7-1.8v1.3h-3.2v1.1h5.7v1.7h-13.3v-1.7h5.5v-1.1h-3.1v-1.1c-.9.7-1.8,1.3-2.8,1.8-.3-.5-.9-1.2-1.3-1.6,1.3-.5,2.6-1.3,3.5-2.2h-3.4v-1.7h3.3v-5.2h-2.4v-1.7h2.4v-1.3h2.1v1.3h5.5v-1.3h2.1v1.3h2.4v1.7h-2.4v5.2h3.2v1.7h-3.2ZM330.4,381.4c-.5-.5-.9-.9-1.3-1.5h-4.9c-.4.5-.8,1-1.2,1.5h2.5v-1.1h2.1v1.1h2.8ZM323.8,373v.8h5.5v-.8h-5.5ZM323.8,376h5.5v-.8h-5.5v.8ZM323.8,378.3h5.5v-.8h-5.5v.8Z"/>
    <path class="st6" d="M347.6,375.5c1.1,2.6,2.9,5,4.9,6.3-.5.4-1.3,1.2-1.6,1.8-.7-.5-1.3-1.1-1.9-1.8v1.5h-3.6v3h-2.2v-3h-3.7v-1.6c-.6.7-1.3,1.4-2,1.9-.4-.5-1-1.3-1.5-1.7,2-1.4,3.8-3.9,4.9-6.5h-4.3v-2.1h6.6v-3.4h2.2v3.4h6.6v2.1h-4.4ZM343.2,381.3v-5.8h-.1c-.8,2.1-1.8,4.1-3.1,5.8h3.2ZM348.5,381.3c-1.2-1.6-2.3-3.6-3-5.8h0v5.8h3.1Z"/>
    <path class="st6" d="M369.9,373.8s0,.7,0,.9c-.2,7.1-.4,9.6-.9,10.4-.4.6-.8.8-1.5.9-.5,0-1.4,0-2.3,0,0-.6-.3-1.5-.6-2,.8,0,1.6,0,1.9,0s.5,0,.6-.3c.4-.5.6-2.6.7-8.1h-1.8c-.2,4.4-1,8.1-3.4,10.6-.3-.5-1-1.3-1.5-1.6.5-.5.9-1.1,1.3-1.7l-1.7.5c0-.2-.1-.5-.2-.8-4.3,1.1-5.1,1.4-5.6,1.7-.1-.4-.4-1.3-.7-1.9.3-.1.6-.5.9-1.2.2-.5.8-2.3,1.2-4.1h-2.2v-1.9h7.7v1.9h-3.4c-.4,1.5-.9,3.1-1.5,4.4l3-.7c-.3-.8-.5-1.5-.8-2.2l1.7-.5c.6,1.4,1.3,3.3,1.6,4.5,1-1.9,1.4-4.3,1.5-7.1h-1.9v-2h2c0-1.1,0-2.3,0-3.5h2.1c0,1.2,0,2.3,0,3.5h3.8ZM361.6,373.2h-6.8v-1.8h6.8v1.8Z"/>
    <path class="st6" d="M387.1,373.7s0,.7,0,1c-.4,7-.7,9.6-1.5,10.5-.5.7-1,.9-1.8,1-.6,0-1.7,0-2.8,0,0-.6-.3-1.6-.7-2.2,1.1,0,2.1,0,2.6,0s.6,0,.8-.3c.5-.5.9-2.8,1.2-8h-4.9c-.3,3.6-1.5,7.9-6.4,10.7-.3-.5-1.1-1.3-1.6-1.7,4.3-2.4,5.5-5.9,5.8-9h-5.3v-2.1h5.4v-3.6h2.2v3.6h7.1Z"/>
  </g>
  <g>
    <path class="st6" d="M469,524.9c-.4,1.1-1,2.3-1.6,3.3v11h-1.1v-9.3c-.6.8-1.2,1.5-1.8,2.1-.1-.3-.4-.9-.7-1.2,1.6-1.5,3.2-3.9,4.1-6.3l1.1.4ZM474.1,533.4c-.1,1.1-.4,2.1-1.1,3.1,1.6.9,3.6,1.4,5.9,1.7-.3.3-.5.7-.7,1.1-2.3-.3-4.3-1-5.9-1.9-.8.8-2,1.5-3.6,2-.1-.3-.5-.8-.7-1,1.6-.4,2.6-1,3.4-1.6-.9-.7-1.7-1.6-2.3-2.6l1-.3c.5.8,1.2,1.5,2,2.1.5-.8.8-1.6.9-2.5h-3.9v-4.4h4v-1.6h-4.4v-1.1h4.4v-1.7h1.2v1.7h4.6v1.1h-4.6v1.6h4.1v4.4h-4.2ZM473,532.4c0-.2,0-.5,0-.7v-1.6h-2.8v2.4h2.8ZM474.1,530v1.6c0,.2,0,.5,0,.7h3v-2.4h-2.9Z"/>
    <path class="st6" d="M488.6,525.1c0,.1-.2.2-.3.4,1.5,1.6,4.1,3.2,6.7,3.8-.3.3-.7.8-.9,1.1-1.2-.4-2.3-.9-3.4-1.6v1.1h-6.4v-1c-1.1.7-2.3,1.2-3.5,1.6-.1-.3-.4-.8-.7-1.2,2.9-.8,6-2.8,7.5-4.9l.9.7ZM486.6,536.6h-3.8v1.3h-1.1v-6.8h4.9v5.4ZM482.8,532.2v3.3h2.6v-3.3h-2.6ZM490.7,528.8c-1.2-.7-2.2-1.6-3-2.5-.9.9-2,1.8-3.2,2.5h6.2ZM493.6,535.7c0,.6-.1,1-.6,1.2-.4.2-1.2.2-2.4.2,0-.3-.2-.8-.4-1.1.9,0,1.7,0,1.9,0,.2,0,.3,0,.3-.3v-3.4h-3.1v7h-1.2v-8.1h5.4v4.5Z"/>
    <path class="st6" d="M500.2,538.9c-1-1.3-2.4-2.6-3.5-3.6l1-.9c1.2.9,2.6,2.4,3.6,3.6l-1.1.9Z"/>
    <path class="st6" d="M519.1,528.6c-.9,2.5-2.1,4.5-3.7,6.2,1.8,1.5,3.9,2.6,6.5,3.2-.3.3-.6.8-.8,1.1-2.6-.7-4.8-1.9-6.6-3.5-1.8,1.6-4,2.7-6.7,3.6-.1-.3-.5-.8-.7-1.1,2.6-.8,4.8-1.8,6.5-3.3-1.6-1.7-2.9-3.8-3.8-6.2h-2.5v-1.2h14.3v1.2h-2.5ZM511,528.6c.8,2,2,3.9,3.5,5.4,1.4-1.4,2.5-3.2,3.3-5.4h-6.8ZM514.4,527.4c-.2-.7-.7-1.7-1.2-2.5l1.2-.4c.5.8,1,1.8,1.2,2.4l-1.3.4Z"/>
    <path class="st6" d="M528.9,525c-.4,1.1-1,2.2-1.6,3.2v11.1h-1.2v-9.2c-.6.8-1.2,1.5-1.8,2.1-.1-.3-.5-.9-.8-1.1,1.7-1.5,3.3-3.9,4.3-6.3l1.2.4ZM535.7,537.7c.8,0,1-.7,1.1-3.4.3.2.8.5,1.2.6-.2,3-.5,4-2.2,4h-2.8c-1.6,0-2-.5-2-2.3v-2.8c-.7.5-1.5.9-2.2,1.3-.2-.2-.6-.7-.9-.9,1-.5,2.1-1.1,3.1-1.8v-7.6h1.2v6.6c1.7-1.3,3.2-2.9,4.3-4.6l1.2.8c-1.5,2-3.4,3.9-5.5,5.4v3.6c0,.9.2,1.1.9,1.1h2.6Z"/>
    <path class="st6" d="M543.2,538.9c-1-1.3-2.4-2.6-3.5-3.6l1-.9c1.2.9,2.6,2.4,3.6,3.6l-1.1.9Z"/>
    <path class="st6" d="M554.9,524.9c-.4,1.2-1,2.4-1.6,3.5v10.8h-1.2v-8.9c-.4.7-.9,1.2-1.4,1.8-.1-.3-.5-.9-.7-1.2,1.5-1.6,2.8-3.9,3.6-6.4l1.1.3ZM560.3,524.8c-.1.2-.2.5-.3.7,1.1,1.9,3.2,3.9,5,4.8-.3.2-.7.6-.8.9-1.7-1-3.5-2.8-4.8-4.7-1.1,1.8-2.7,3.6-5,4.9-.1-.3-.5-.7-.7-.9,2.8-1.6,4.6-4,5.4-6l1.3.2ZM556.5,530.8h1.2v2.2c0,1.8-.3,4.5-2.8,6.4-.2-.3-.6-.6-.9-.8,2.3-1.6,2.5-4,2.5-5.5v-2.2ZM561,530.8h1.2v8.4h-1.2v-8.4Z"/>
    <path class="st6" d="M571,524.9c-.4,1.2-1,2.5-1.6,3.6v10.6h-1.1v-8.8c-.4.6-.9,1.2-1.4,1.7-.1-.3-.5-.9-.7-1.2,1.5-1.6,2.8-3.9,3.7-6.3l1.1.3ZM581,537.7v1h-10.7v-1h1.5v-8.9h2.8c0-.4.2-1,.3-1.5h-3.9v-1h4.1c0-.6.2-1.2.2-1.6h1.3c0,.6-.2,1.1-.3,1.6h4.3v1h-4.5c-.1.5-.2,1.1-.4,1.5h3.9v8.9h1.4ZM572.9,529.7v1.3h5.6v-1.3h-5.6ZM578.4,531.9h-5.6v1.4h5.6v-1.4ZM572.9,535.5h5.6v-1.4h-5.6v1.4ZM572.9,537.7h5.6v-1.3h-5.6v1.3Z"/>
    <path class="st6" d="M587.4,536.9c-.2-.7-.6-1.6-1.1-2.5-.8,1.7-1.8,3.1-2.8,4.1-.2-.3-.6-.7-.9-.9,1.2-1,2.2-2.6,3-4.5-.8-1.4-1.7-2.8-2.7-4l.9-.6c.8,1,1.6,2.1,2.3,3.3.5-1.5.9-3.1,1.1-4.8h-4.4v-1.1h4.9s.8.2.8.2c-.3,2.7-.9,5-1.6,7,.7,1.2,1.2,2.3,1.6,3.2l-1,.7ZM595.7,538c.5,0,.6-.4.7-2.7.3.2.7.4,1,.4-.1,2.5-.3,3.2-1.7,3.2h-1.3c-1.1,0-1.5-.3-1.5-1.3v-3.6c-.5,1.9-1.8,3.9-4.5,5.3-.1-.2-.5-.7-.7-.9,4-2,4.5-5,4.5-7.5v-3.1h1.1v3.1c0,.9,0,1.8-.3,2.8h1v3.9c0,.4.1.5.6.5h1.2ZM590.4,533.8h-1.1v-8.4h7v8.4h-1.2v-7.4h-4.7v7.4Z"/>
  </g>
  <g>
    <path class="st6" d="M412.6,164.1c29,0,52.4-23.5,52.4-52.4s-23.5-52.4-52.4-52.4-52.4,23.5-52.4,52.4,23.5,52.4,52.4,52.4"/>
    <path class="st6" d="M253,164.1c29,0,52.4-23.5,52.4-52.4s-23.5-52.4-52.4-52.4-52.4,23.5-52.4,52.4,23.5,52.4,52.4,52.4"/>
    <path class="st6" d="M572.2,164.1c29,0,52.4-23.5,52.4-52.4s-23.5-52.4-52.4-52.4-52.4,23.5-52.4,52.4,23.5,52.4,52.4,52.4"/>
  </g>
  <g>
    <path class="st6" d="M299.3,524.9c-.3,1-.8,2.1-1.2,3.1v11.2h-1.2v-9c-.5.8-1,1.5-1.5,2.1-.1-.3-.4-.9-.6-1.2,1.4-1.6,2.7-4,3.4-6.5l1.1.3ZM305.2,537.6c.6.1,1.2.1,1.8.1.4,0,2.3,0,2.8,0-.1.3-.3.8-.4,1.1h-2.5c-2.5,0-4.4-.5-5.7-2.8-.4,1.3-1,2.4-1.8,3.2-.2-.2-.7-.6-1-.7,1.4-1.4,2.1-3.6,2.4-6.2h1.1c0,.8-.2,1.5-.3,2.2.5,1.5,1.3,2.3,2.3,2.8v-6.5h-3.5v-5.4h8.1v5.4h-3.5v2.4h3.7v1.1h-3.7v3.3ZM301.7,529.7h5.8v-3.3h-5.8v3.3Z"/>
    <path class="st6" d="M314.9,536.1c.3.2.6.5,1.2.8,1,.7,2.4.8,4.2.8s4.3-.1,5.8-.3c-.1.3-.3.9-.4,1.2-1.1,0-4,.2-5.5.2s-3.3-.2-4.4-.9c-.6-.4-1.2-1-1.5-1-.5,0-1.3.9-2.1,2l-.8-1.1c.8-.9,1.7-1.6,2.4-1.9v-4.5h-2.2v-1.1h3.4v5.7ZM314.5,528.2c-.5-.7-1.6-1.9-2.4-2.7l.8-.6c.9.8,2,1.9,2.5,2.6l-.9.8ZM319.4,532.6c-.2,1.5-.8,3.1-2.3,4.1-.2-.2-.6-.7-.9-.8,1.2-.9,1.7-2.1,2-3.3h-2.2v-1.2h2.3c0-.3,0-.7,0-1v-1.9h-2.3v-1.2h2.3v-2.5h1.2v2.5h2.6v-2.5h1.2v2.5h2v1.2h-2v2.8h2.4v1.2h-2.4v4h-1.2v-4h-2.8ZM319.6,530.5c0,.3,0,.6,0,1h2.7v-2.8h-2.6v1.9Z"/>
    <path class="st6" d="M342.1,537.5v1.1h-14.4v-1.1h6.7v-2h-5v-1.1h5v-1.8h1.2v1.8h4.8v1.1h-4.8v2h6.5ZM331.1,529.5c-.2,1.4-.8,2.8-2.4,3.8-.2-.2-.6-.7-.8-.8,1.4-.8,1.9-1.9,2.1-3h-1.9v-1.1h2v-2.2h-1.5v-1.1h7.2v1.1h-1.5v2.2h1.8v1.1h-1.8v3.4h-1.1v-3.4h-2ZM331.2,528.5h2v-2.2h-2v2.1h0ZM338.2,530.8h-1.1v-5.3h1.1v5.3ZM341.2,531.8c0,.7-.1,1-.6,1.2-.5.2-1.2.2-2.4.2,0-.3-.2-.8-.4-1.1.9,0,1.7,0,2,0,.2,0,.3,0,.3-.3v-7.1h1.1v7.1Z"/>
    <path class="st6" d="M348.8,529.7c-1.5.5-3.2,1.1-4.5,1.5l-.3-1.1c1.2-.3,2.9-.9,4.6-1.4l.2,1ZM351.9,533.6c-.5,3.2-2,4.9-7.4,5.7,0-.3-.3-.7-.5-1,5.1-.6,6.3-2,6.7-4.7h1.2ZM347.9,527.7c-.7-.6-2.2-1.3-3.3-1.7l.6-.8c1.2.4,2.6,1.1,3.4,1.6l-.6.9ZM355.2,536.4v-3.2h-7.9v3.3h-1.2v-4.4h10.3v4.3h-1.2ZM354,527c0,.3-.2.5-.3.8.9,1.4,2.6,2.4,4.6,2.9-.3.2-.6.6-.7.9-1.8-.5-3.3-1.5-4.3-2.9-.8,1.3-2,2.3-4.2,3-.1-.3-.4-.7-.6-.9,2.8-.8,3.9-2.2,4.4-3.9h-1.9c-.4.6-1,1.3-1.7,1.8-.2-.3-.6-.6-.8-.7,1.3-1,2.1-2.3,2.5-3.4l1.1.2c-.2.4-.4.8-.6,1.2h5.6s.9.2.9.2c-.4.9-.9,1.8-1.3,2.5l-1-.3c.2-.4.5-.9.7-1.4h-2.4ZM352.1,535.9c2,.6,4.6,1.6,6,2.3l-.7,1c-1.3-.7-4-1.7-6-2.4l.7-.9Z"/>
    <path class="st6" d="M369.4,529.1c1.2,2.7,3.2,5.2,5.4,6.5-.3.3-.7.7-.9,1-2.4-1.5-4.4-4.4-5.6-7.5h-.2v5.9h3.7v1.2h-3.7v3h-1.2v-3h-3.7v-1.2h3.7v-5.9h-.3c-1.2,3.1-3.3,6-5.6,7.5-.2-.3-.6-.7-.8-.9,2.1-1.3,4.1-3.9,5.3-6.6h-4.8v-1.2h6.3v-3.3h1.2v3.3h6.3v1.2h-4.9Z"/>
  </g>
  <g>
    <path class="st6" d="M136.8,512.5c29,0,52.4-23.5,52.4-52.4s-23.5-52.4-52.4-52.4-52.4,23.5-52.4,52.4,23.5,52.4,52.4,52.4"/>
    <path class="st8" d="M132.6,421.2c-.7-.5-1.4-.9-2.3-1.2-.7-.2-1.5-.3-2.2-.3-1.6,0-3,.5-4.2,1.3-.7.5-1.3,1.1-1.8,1.7-.2.3-.4.6-.6.9-.1.2-.2.4-.3.7-.4.9-.6,1.9-.6,2.9s.2,2,.6,2.9c0,.2.2.4.3.7.2.3.4.6.6.9.5.7,1.1,1.3,1.8,1.7,1.2.8,2.7,1.3,4.2,1.3s.5,0,.8,0c.5,0,1-.2,1.4-.3.2,0,.3-.1.5-.2.7-.3,1.3-.6,1.8-1,1.8-1.4,3-3.6,3-6.1s-1.2-4.7-3-6.1"/>
    <path class="st11" d="M111.1,452.9c-.1-1.2-.6-2.4-1.4-3.2-.1-.1-.2-.3-.4-.4-.3-.3-.7-.6-1.1-.8-.2,0-.3-.2-.5-.2-.2-.1-.5-.2-.8-.3-.2,0-.4,0-.5-.1-.3,0-.6,0-.8,0s-.8,0-1.1.1c-1,.2-1.9.7-2.6,1.3-.3.2-.5.5-.7.8-.7.9-1.1,2.1-1.1,3.3s.4,2.4,1.1,3.3c.2.2.3.4.5.6s.3.2.4.4c0,0,.1.1.2.2.1.1.3.2.4.3.2,0,.3.2.5.3.7.4,1.5.5,2.4.5s1.6-.2,2.3-.5c0,0,.1,0,.2,0,.1,0,.3-.1.4-.2.2,0,.3-.2.4-.3,0,0,.1-.1.2-.2.1-.1.3-.2.4-.4,0,0,.1-.1.2-.2.1-.1.2-.3.3-.4.1-.1.2-.3.3-.4.2-.3.3-.6.5-1,0-.2.1-.3.2-.5.1-.4.2-.9.2-1.4s0-.3,0-.5"/>
    <path class="st14" d="M178,463.2c0-.1-.1-.3-.2-.4-.1-.2-.2-.4-.4-.6,0,0-.1-.2-.2-.3-.3-.4-.6-.7-.9-1,0,0-.2-.2-.3-.2-.5-.4-1.1-.8-1.8-1.1-.9-.4-1.8-.6-2.8-.6s-2,.2-2.8.6c-.4.2-.9.4-1.2.7-.2.1-.4.3-.6.4,0,0-.2.2-.3.2-.1.1-.3.2-.4.4-.2.2-.4.4-.6.7-.2.3-.4.6-.6.9-.2.4-.4.8-.5,1.2-.2.6-.3,1.2-.4,1.9,0,.1,0,.3,0,.4,0,1.3.3,2.4.9,3.5.2.3.4.6.6.9.1.2.3.4.4.5.2.2.3.3.5.5.4.4.9.7,1.4,1,.2.1.4.2.6.3.9.4,1.8.6,2.8.6s.7,0,1.1,0c.5,0,1-.2,1.4-.4.1,0,.2,0,.3-.1.7-.3,1.3-.6,1.8-1.1,0,0,.2-.2.3-.2.3-.2.5-.5.7-.8.1-.2.3-.4.4-.6.1-.2.3-.4.4-.6,0-.1.1-.2.2-.3.5-1,.7-2,.7-3.2s-.2-2.1-.7-3.1"/>
    <path class="st15" d="M174.4,440c-.1-.1-.2-.3-.4-.4-.4-.4-1-.8-1.5-1.1-.3-.2-.7-.3-1-.4-.2,0-.4,0-.5-.1-.3,0-.6,0-.8,0-1.2,0-2.2.4-3.1,1-.3.2-.6.4-.8.7-.1.1-.2.3-.4.4,0,0-.1.1-.2.2-.7.9-1.1,2.1-1.1,3.3s.1,1.3.3,1.9c.2.5.4,1,.8,1.4,0,0,0,.1.1.2,0,0,0,0,0,0,.1.1.2.3.4.4.3.3.5.5.8.7.9.6,2,1,3.1,1s.6,0,.8,0c.2,0,.4,0,.5-.1.4,0,.7-.2,1-.4.6-.3,1.1-.6,1.5-1.1.1-.1.2-.3.4-.4.8-1,1.3-2.2,1.3-3.5s-.5-2.6-1.3-3.5"/>
    <path class="st17" d="M153,486.9c-.2-.3-.5-.6-.7-.8-.7-.7-1.6-1.1-2.6-1.3-.4,0-.7-.1-1.1-.1s-.6,0-.8,0c0,0,0,0,0,0-.2,0-.3,0-.5.1-.3,0-.5.2-.8.3-.2,0-.3.1-.5.2,0,0,0,0,0,0-1.7,1-2.8,2.8-2.8,4.8s0,1.1.2,1.7c0,.2.1.3.2.5.1.3.3.6.5.9s.4.6.7.8c.1.1.3.2.4.4.1.1.3.2.4.3.1.1.3.2.5.3.2,0,.3.2.5.2.2.1.5.2.8.3.2,0,.4,0,.5.1.3,0,.6,0,.8,0s.8,0,1.1-.1c.4,0,.7-.2,1-.3.2,0,.3-.1.5-.2.2,0,.3-.2.5-.3.1,0,.3-.2.4-.3,0,0,.1-.1.2-.2.2-.2.4-.4.6-.6,0,0,.1-.2.2-.3.7-.9,1-2,1-3.2s-.4-2.4-1.1-3.3"/>
    <path class="st9" d="M116.9,482.3c-.1-.1-.2-.2-.3-.4-.2-.2-.4-.4-.6-.5-.1,0-.2-.2-.4-.3-.2-.1-.4-.3-.6-.4-.4-.3-.9-.5-1.4-.7-.1,0-.3,0-.4-.1-.4-.1-.8-.2-1.2-.3-.4,0-.8,0-1.2,0s-.8,0-1.2,0c-.4,0-.8.2-1.2.3-.9.3-1.7.7-2.4,1.2-.3.2-.6.5-.9.8-1.5,1.5-2.4,3.5-2.4,5.8s.9,4.3,2.4,5.8c.3.3.6.5.9.8.7.5,1.6,1,2.4,1.2.4.1.8.2,1.2.3.4,0,.8,0,1.2,0s.8,0,1.2,0c.4,0,.8-.2,1.2-.3.1,0,.3,0,.4-.1.5-.2,1-.4,1.4-.7.3-.2.7-.4,1-.7.2-.2.4-.3.6-.5s.2-.2.3-.3c1.3-1.4,2.1-3.4,2.1-5.5s-.8-4-2-5.4"/>
    <path class="st1" d="M141,455.6c0,2.9-2.3,5.2-5.2,5.2s-5.2-2.3-5.2-5.2,2.3-5.2,5.2-5.2,5.2,2.3,5.2,5.2"/>
    <path class="st4" d="M144.9,469.9c-.5-4.6-4.3-8.2-9-8.2s-8.6,3.6-9,8.2c-2.4-2.3-3.8-5.6-3.8-9.2,0-7.1,5.8-12.9,12.9-12.9s12.9,5.8,12.9,12.9-1.5,6.9-3.9,9.2M150.7,460.7c0-1.6-.3-3.2-.8-4.7l13.9-7.9c-.4-.5-.7-1.1-1-1.7l-13.7,7.8c-2.4-4.9-7.5-8.3-13.3-8.3s-1.5,0-2.2.2l-2.6-9.8c-.6.2-1.3.4-1.9.5l2.5,9.8c-4.2,1.2-7.7,4.3-9.5,8.3l-9.3-1.6c0,0,0,.2,0,.2,0,.6,0,1.2-.2,1.7l8.8,1.5c-.4,1.3-.6,2.7-.6,4.1,0,4.3,1.8,8.2,4.8,10.9l-9,8c.5.4,1,.9,1.4,1.4l9.1-8.2c2.4,1.7,5.3,2.7,8.5,2.7s3.8-.4,5.6-1.1l3.5,9c.6-.3,1.2-.5,1.9-.7l-3.6-9.2c3.7-2.1,6.4-5.8,7.3-10.2l11.4,2.1c0-.7.2-1.3.4-1.9l-11.6-2.1c0-.3,0-.5,0-.8"/>
  </g>
  <g>
    <path class="st6" d="M95.4,537.5v1.2h-14.3v-1.2h9.2c.1-.8.3-1.7.4-2.6h-7.3c.6-2.1,1.3-5.6,1.7-8.2h-3.4v-1.2h13.3v1.2h-8.6c-.1.8-.3,1.7-.5,2.6h5.8c0,0,.9,0,.9,0-.2,2.2-.7,5.6-1.1,8.2h3.9ZM90.8,533.8c.2-1.2.3-2.4.4-3.4h-5.5c-.2,1.2-.5,2.4-.7,3.4h5.8Z"/>
    <path class="st6" d="M97.3,525.3h7.5v1h-7.5v-1ZM104.6,537.9c0,.5,0,.8-.4,1-.3.1-.9.2-1.7.2,0-.3-.2-.7-.3-.9.6,0,1.1,0,1.3,0,.2,0,.2,0,.2-.2v-5.6h-5.1v6.9h-1v-7.8h7v6.5ZM104.1,530.5h-6v-3.2h6v3.2ZM101.6,535.7v3.1h-.9v-3.1h-1.6v-.8h2.2c.4-.7.8-1.6,1.1-2.3l.8.3c-.3.6-.7,1.4-1.1,2h1.1v.8h-1.6ZM103,528.1h-3.9v1.5h3.9v-1.5ZM99.9,532.6c.4.6.8,1.4.9,1.9l-.7.3c-.1-.5-.5-1.3-.9-1.9l.7-.2ZM110.9,539.2c0-.4-.1-.8-.3-1.3-1.9.4-3.8.7-5.2,1l-.3-1.1c.7,0,1.6-.2,2.6-.4v-3.6h-2.4v-6h2.4v-3h1.1v3h2.3v6h-2.3v3.4l1.5-.3c-.2-.7-.5-1.4-.7-2l.9-.2c.6,1.4,1.2,3.2,1.3,4.3l-.9.3ZM106.3,532.7h1.6v-4h-1.6v4ZM110.2,528.8h-1.5v4h1.5v-4Z"/>
    <path class="st6" d="M127.8,537.5v1.2h-14.3v-1.2h9.2c.1-.8.3-1.7.4-2.6h-7.3c.6-2.1,1.3-5.6,1.7-8.2h-3.4v-1.2h13.3v1.2h-8.6c-.1.8-.3,1.7-.5,2.6h5.8c0,0,.9,0,.9,0-.2,2.2-.7,5.6-1.1,8.2h3.9ZM123.2,533.8c.2-1.2.3-2.4.4-3.4h-5.5c-.2,1.2-.5,2.4-.7,3.4h5.8Z"/>
    <path class="st6" d="M133,536.2c.3.2.7.5,1.2.8,1.1.7,2.4.8,4.2.8s4.3-.1,5.9-.3c-.1.3-.3.8-.3,1.2-1.1,0-3.9.2-5.6.2s-3.3-.2-4.4-.9c-.6-.4-1.2-.9-1.6-.9-.5,0-1.3.9-2.1,2l-.8-1c.8-.9,1.6-1.6,2.3-1.9v-4.5h-2.2v-1.1h3.4v5.7ZM132.7,528.6c-.6-.7-1.8-1.9-2.7-2.7l.8-.7c.9.8,2.2,1.9,2.8,2.6l-.9.8ZM135.8,536.8h-1.1v-8.2h4.5c-1-.5-2.1-1-3.1-1.4l.7-.7c.7.3,1.5.6,2.3.9.8-.4,1.6-.9,2.3-1.4h-6.7v-.9h8.1c0,0,.7.5.7.5-.9.8-2.1,1.7-3.3,2.3.4.2.9.4,1.2.6h2.1v7c0,.6-.1.9-.5,1-.4.2-1.1.2-2.2.2,0-.3-.2-.7-.3-1,.8,0,1.4,0,1.6,0s.3,0,.3-.3v-1.5h-2.8v2.6h-1.1v-2.6h-2.7v2.7ZM135.8,529.5v1.4h2.7v-1.4h-2.7ZM138.5,533.2v-1.5h-2.7v1.5h2.7ZM139.6,529.5v1.4h2.8v-1.4h-2.8ZM142.4,533.2v-1.5h-2.8v1.5h2.8Z"/>
    <path class="st6" d="M150.3,524.8c-.3.8-.6,1.7-.8,2.4h2.7v10.4h-4.5v1.3h-1.1v-11.7h1.8c.2-.8.5-1.8.6-2.6l1.3.2ZM151,528.2h-3.4v3.3h3.4v-3.3ZM151,536.5v-3.8h-3.4v3.8h3.4ZM159.9,527.7c-.3,7.3-.5,9.8-1.1,10.5-.4.4-.7.6-1.3.6-.6,0-1.5,0-2.4,0,0-.4-.2-.8-.4-1.2,1,0,2,0,2.4,0s.5,0,.7-.2c.5-.6.8-3,1-9.4h-4.1c-.4,1.1-.9,2-1.5,2.8-.2-.2-.7-.5-1-.7,1.1-1.4,1.9-3.6,2.4-5.8l1.1.3c-.2.8-.4,1.6-.7,2.3h4.8v.6ZM156.4,534.9c-.5-1-1.6-2.5-2.4-3.7l.9-.5c.9,1.1,2,2.7,2.5,3.6l-1,.6Z"/>
    <path class="st6" d="M167.7,533.5c-.3-.6-1.1-1.7-1.7-2.6v8.3h-1.2v-7.8c-.6,1.8-1.4,3.5-2.3,4.6-.1-.3-.4-.8-.6-1,1.1-1.4,2.2-4,2.8-6.2h-2.5v-1.1h2.7v-3.1h1.2v3.1h2.2v1.1h-2.2v.5c.5.6,2,2.5,2.4,3l-.7,1.1ZM175.3,537.9c.1,0,.2,0,.3-.1,0,0,.1-.2.2-.6,0-.4,0-1.2,0-2.3.2.2.6.4.9.5,0,.9,0,2.1-.1,2.5,0,.5-.2.7-.4.9-.2.2-.5.2-.8.2h-.8c-.3,0-.6,0-.9-.3-.3-.2-.3-.5-.3-1.9v-10.2h-2.9v4c0,2.6-.3,6.3-2.6,8.6-.2-.2-.7-.7-.9-.8,2.2-2.2,2.4-5.4,2.4-7.8v-5.1h5.3v11.4c0,.5,0,.8,0,.9,0,0,.2,0,.3,0h.4Z"/>
    <path class="st6" d="M181.9,529.5c.4.5,1.7,2.4,2,2.9l-.8.9c-.2-.5-.8-1.5-1.2-2.3v8.2h-1.2v-7.8c-.5,1.8-1.3,3.5-2,4.6-.1-.4-.4-.9-.7-1.2,1-1.3,2-3.9,2.5-6h-2.2v-1.1h2.4v-3.1h1.2v3.1h1.9v1.1h-1.9v.7ZM192.5,527.8c-.3,7.5-.5,9.9-1.1,10.7-.3.4-.7.6-1.2.6-.5,0-1.3,0-2,0,0-.4-.2-.8-.4-1.2.9,0,1.6,0,2,0,.3,0,.4,0,.6-.3.5-.5.7-3,.9-9.5h-5.5c-.4,1-1,1.9-1.5,2.6-.2-.2-.7-.6-1-.7,1.2-1.3,2-3.5,2.5-5.6l1.2.3c-.2.8-.5,1.6-.8,2.4h6.3v.6ZM189.1,535.9c0-.3-.2-.7-.3-1.1-3.5.7-4,.8-4.3,1,0-.2-.2-.8-.4-1.1.3,0,.5-.4.8-.9.3-.5,1.2-2.5,1.6-4.4l1.2.3c-.5,1.6-1.2,3.3-1.9,4.6l2.8-.5c-.3-.6-.6-1.3-.8-1.9l.9-.3c.6,1.2,1.3,2.9,1.5,3.8l-.9.4Z"/>
  </g>
  <g>
    <path class="st6" d="M332.8,512.5c29,0,52.4-23.5,52.4-52.4s-23.5-52.4-52.4-52.4-52.4,23.5-52.4,52.4,23.5,52.4,52.4,52.4"/>
    <path class="st4" d="M332.8,432.6c-.8-.4-1.6-.7-2.4-1-5.1,2.6-10.1,6.3-14.6,10.8-4.5,4.5-8.2,9.5-10.8,14.6.3.8.7,1.6,1,2.4,2.5-5.3,6.3-10.7,11.2-15.6,4.9-4.9,10.3-8.7,15.6-11.2"/>
    <path class="st4" d="M347.2,429c1.9,0,3.7.2,5.3.7.2-.7.4-1.3.8-1.8-3.8-1.1-8.3-1.1-13.3.1-2.4.6-4.8,1.4-7.2,2.5.8.4,1.6.7,2.4,1.1,4.2-1.7,8.3-2.6,12-2.6"/>
    <path class="st4" d="M360.6,461.7c-.3-.8-.7-1.6-1-2.4-2.5,5.3-6.3,10.7-11.2,15.6-4.9,4.9-10.3,8.7-15.6,11.2.8.4,1.6.7,2.4,1,5.1-2.6,10.1-6.3,14.6-10.8,4.5-4.5,8.2-9.5,10.8-14.6"/>
    <path class="st4" d="M360.6,457c.4.8.8,1.6,1.1,2.4,1.1-2.4,1.9-4.8,2.5-7.2,1.5-6.2,1.2-11.7-.9-16-.5.4-1.1.8-1.7,1.1,2.4,5.2,1.9,12.3-1,19.7"/>
    <path class="st4" d="M305,461.7c-.4-.8-.8-1.6-1.1-2.4-1.1,2.4-1.9,4.8-2.5,7.2-1.7,6.8-1.1,12.8,1.6,17.3.5-.4,1.1-.8,1.7-1.1-3.2-5.3-2.9-13,.3-21"/>
    <path class="st4" d="M313.9,489.2c0,.7-.2,1.3-.4,1.9,1.5.4,3.2.5,4.9.5s4.7-.3,7.3-.9c2.4-.6,4.8-1.4,7.2-2.5-.8-.4-1.6-.7-2.4-1.1-6,2.4-11.8,3.2-16.6,2.1"/>
    <path class="st4" d="M359.6,459.3c.4-.8.7-1.6,1-2.4-2.6-5.1-6.3-10.1-10.8-14.6-4.5-4.5-9.5-8.2-14.6-10.8-.8.3-1.6.7-2.4,1,5.3,2.5,10.7,6.3,15.6,11.2,4.9,4.9,8.7,10.3,11.2,15.6"/>
    <path class="st4" d="M335.2,487.1c-.8.4-1.6.8-2.4,1.1,2.4,1.1,4.8,1.9,7.2,2.5,2.6.6,5,.9,7.3.9s3.8-.2,5.4-.7c-.2-.6-.4-1.3-.4-1.9-4.9,1.3-10.9.6-17.1-1.9"/>
    <path class="st4" d="M361,482.5c.6.2,1.2.5,1.8.9,2.5-4.4,3.1-10.3,1.4-17-.6-2.4-1.4-4.8-2.5-7.2-.4.8-.7,1.6-1.1,2.4,3.2,7.9,3.5,15.5.4,20.8"/>
    <path class="st4" d="M306.1,459.3c-.4.8-.7,1.6-1,2.4,2.6,5.1,6.3,10.1,10.8,14.6,4.5,4.5,9.5,8.2,14.6,10.8.8-.3,1.6-.7,2.4-1-5.3-2.5-10.7-6.3-15.6-11.2-4.9-4.9-8.7-10.3-11.2-15.6"/>
    <path class="st4" d="M304.1,437c-.6-.3-1.1-.8-1.6-1.2-2.2,4.4-2.7,10-1.1,16.4.6,2.4,1.4,4.8,2.5,7.2.4-.8.7-1.6,1.1-2.4-3-7.5-3.4-14.7-.9-19.9"/>
    <path class="st4" d="M330.5,431.5c.8-.4,1.6-.8,2.4-1.1-2.4-1.1-4.8-1.9-7.2-2.5-4.8-1.2-9.1-1.2-12.8-.2.4.6.6,1.2.8,1.8,4.8-1.2,10.7-.4,16.8,2"/>
    <path class="st4" d="M332.8,432.6c.8-.4,1.6-.7,2.4-1-.8-.4-1.6-.8-2.4-1.1-.8.4-1.6.7-2.4,1.1.8.3,1.6.7,2.4,1"/>
    <path class="st4" d="M306.1,459.3c-.4-.8-.7-1.6-1-2.4-.4.8-.8,1.6-1.1,2.4.4.8.7,1.6,1.1,2.4.3-.8.7-1.6,1-2.4"/>
    <path class="st4" d="M359.6,459.3c.4.8.7,1.6,1,2.4.4-.8.8-1.6,1.1-2.4-.4-.8-.7-1.6-1.1-2.4-.3.8-.7,1.6-1,2.4"/>
    <path class="st4" d="M332.8,486.1c-.8.4-1.6.7-2.4,1,.8.4,1.6.8,2.4,1.1.8-.4,1.6-.7,2.4-1.1-.8-.3-1.6-.7-2.4-1"/>
    <path class="st9" d="M362.9,429.1c0-.1-.1-.3-.2-.4-.2-.2-.4-.5-.6-.7s-.3-.3-.5-.4c-.2-.1-.4-.3-.6-.4-.7-.4-1.4-.6-2.2-.6s-1.1,0-1.6.3c-.3.1-.6.2-.8.4-.1,0-.2.2-.4.2-.1,0-.2.2-.3.3-.2.2-.4.4-.6.6-.4.5-.7,1.1-.8,1.8,0,.3-.1.6-.1,1,0,1.3.6,2.6,1.5,3.4.1,0,.2.2.3.3.1,0,.2.2.4.2.3.2.5.3.8.4.5.2,1,.3,1.6.3s1.2-.1,1.8-.4c.1,0,.3-.1.4-.2.2-.1.4-.2.6-.4.2-.1.3-.3.5-.4,0,0,0-.1.1-.2.2-.2.3-.3.4-.5,0-.1.2-.2.2-.4.4-.7.6-1.4.6-2.2s-.2-1.5-.6-2.2"/>
    <path class="st11" d="M309.3,427.1c-.4-.2-.8-.3-1.3-.4-.2,0-.5,0-.7,0s-.3,0-.5,0c-.3,0-.6,0-.9.2-1.9.6-3.2,2.3-3.2,4.4s.3,2,.9,2.7c.4.5.9,1,1.5,1.3.3.1.5.3.8.4.3,0,.6.2.9.2.2,0,.3,0,.5,0,.2,0,.5,0,.7,0,.5,0,.9-.2,1.3-.4.1,0,.3-.1.4-.2,0,0,.1,0,.2-.1.1,0,.2-.2.4-.3,0,0,.1,0,.2-.1.3-.3.6-.6.8-1,.4-.7.7-1.5.7-2.4s0-.8-.2-1.2c-.1-.4-.3-.8-.5-1.2-.1-.2-.3-.4-.4-.6-.1-.2-.3-.3-.4-.5,0,0-.1,0-.2-.1-.1,0-.2-.2-.4-.3,0,0-.1,0-.2-.1-.1,0-.3-.1-.4-.2"/>
    <path class="st8" d="M363.4,489.7c0-.1,0-.3,0-.5,0-.2,0-.3,0-.5,0-.8-.2-1.5-.6-2.2,0-.1-.1-.3-.2-.4-.2-.2-.4-.5-.6-.7-.1-.1-.3-.3-.4-.4,0,0,0,0,0,0-.2-.1-.4-.3-.6-.4-.4-.2-.8-.4-1.2-.5-.3,0-.6-.1-1-.1-.6,0-1.1,0-1.6.3-.3.1-.6.2-.8.4-.1,0-.2.2-.4.2-.1,0-.2.2-.3.3-.8.8-1.4,1.8-1.5,3,0,.1,0,.3,0,.4,0,.6.1,1.1.3,1.6.3.7.7,1.3,1.2,1.8.1,0,.2.2.3.3,0,0,.2.1.3.2.2.1.3.2.5.3.1,0,.3.1.4.2.5.2,1,.3,1.6.3s1.4-.2,2.1-.5c.1,0,.3-.1.4-.2.1,0,.2-.1.3-.2.2-.1.3-.3.5-.4,0,0,.1-.1.2-.2,0-.1.2-.2.3-.3,0,0,.1-.2.2-.3,0-.1.1-.2.2-.3,0-.1.1-.3.2-.4,0-.1.1-.3.2-.4,0-.1,0-.3.1-.4"/>
    <path class="st15" d="M309.3,484.6c-.4-.2-.8-.3-1.3-.4-.2,0-.5,0-.7,0s-.3,0-.5,0c-.3,0-.6,0-.9.2,0,0,0,0,0,0-.6.2-1.2.6-1.7,1-.9.8-1.4,2-1.4,3.3s.9,3.1,2.2,3.9c.1,0,.2.1.3.2.2.1.5.2.7.3.3,0,.6.2.9.2.2,0,.3,0,.5,0,.2,0,.5,0,.7,0,.5,0,.9-.2,1.3-.4s.4-.2.6-.3c.1,0,.2-.2.4-.3,0,0,.1,0,.2-.1.3-.3.6-.6.8-1,.1-.2.2-.4.3-.6.2-.6.4-1.2.4-1.8s0-.1,0-.2c0-.8-.3-1.6-.7-2.2-.2-.4-.5-.7-.8-1,0,0-.1,0-.2-.1-.1,0-.2-.2-.4-.3,0,0-.1,0-.2-.1-.1,0-.3-.1-.4-.2"/>
    <path class="st4" d="M346.8,460c0,7.7-6.3,14-14,14s-14-6.3-14-14,6.3-14,14-14,14,6.3,14,14"/>
    <path class="st6" d="M332.8,469c-2.8,0-5-2.2-5-5s.4-1,1-1,1,.4,1,1c0,1.7,1.4,3,3,3s3-1.4,3-3-.5-2.6-3.2-3c-3.2-.6-4.8-2.2-4.8-5s2.2-5,5-5,5,2.2,5,5-.4,1-1,1-1-.4-1-1c0-1.7-1.4-3-3-3s-3,1.4-3,3,.5,2.6,3.2,3c3.2.6,4.8,2.2,4.8,5s-2.2,5-5,5"/>
    <path class="st6" d="M332.8,453c-.5,0-1-.4-1-1v-2.5c0-.5.4-1,1-1s1,.4,1,1v2.5c0,.5-.4,1-1,1"/>
    <path class="st6" d="M332.8,471.5c-.5,0-1-.4-1-1v-2.5c0-.5.4-1,1-1s1,.4,1,1v2.5c0,.5-.4,1-1,1"/>
    <path class="st4" d="M394.5,117.8c0,0,0,.1,0,.2,0,0,0,.1,0,.2,0,0,0,.2,0,.2,0,0,0,0,0,.1,0,0,0,.2-.2.3,0,0,0,0,0,0,0,.1-.1.2-.2.3,0,0,0,0,0,0-.7.9-1.7,1.6-2.9,1.8,0,0,0,0,0,0-.1,0-.3,0-.4,0,0,0,0,0,0,0,0,0-.1,0-.2,0s-.1,0-.2,0c0,0,0,0,0,0-.1,0-.3,0-.4,0,0,0,0,0,0,0-1.3-.2-2.5-1-3.2-2.1,0,0,0,0,0,0,0-.1-.1-.2-.2-.3,0,0,0,0,0-.1,0,0,0-.2-.1-.3,0,0,0-.1,0-.2,0,0,0-.1,0-.2,0,0,0-.2,0-.3,0,0,0,0,0-.1,0-.1,0-.2,0-.3,0,0,0,0,0,0,0-.1,0-.3,0-.4,0,0,0,0,0,0s0,0,0,0c0-.2,0-.3,0-.5,0,0,0,0,0,0,.2-2.3,2.2-4.1,4.5-4.1s4,1.5,4.4,3.5c0,.3.1.7.1,1,0,.2,0,.3,0,.5,0,0,0,0,0,0,0,.1,0,.3,0,.4,0,0,0,0,0,.1,0,0,0,0,0,0,0,0,0,.2,0,.3M415.3,115.5h-18.7c-.5-3.1-3.2-5.5-6.4-5.5s-6.5,2.9-6.5,6.5,2.9,6.5,6.5,6.5,6-2.4,6.4-5.5h18.7c.5,0,1-.4,1-1s-.4-1-1-1"/>
    <path class="st17" d="M454.1,105.3h-5.1c-.7-3.1-1.8-5.7-3.5-8.4l3.6-3.6c.4-.4.4-1,0-1.4l-7.6-7.6c-.4-.4-1-.4-1.4,0l-3.6,3.6c-2.7-1.7-5.3-2.7-8.4-3.5v-5.1c0-.5-.4-1-1-1h-10.8c-.5,0-1,.4-1,1v16c2.6-1.3,5.4-2,8.5-2,10.5,0,19.1,8.5,19.1,19.1s-8.5,19.1-19.1,19.1-5.9-.7-8.5-2v14.7c0,.5.4,1,1,1h10.8c.5,0,1-.4,1-1v-5.1c3.1-.7,5.7-1.8,8.4-3.5l3.6,3.6c.4.4,1,.4,1.4,0l7.6-7.6c.4-.5.4-1,0-1.4l-3.6-3.6c1.7-2.7,2.8-5.4,3.5-8.4h5.1c.5,0,1-.4,1-1v-10.8c0-.5-.4-1-1-1"/>
    <path class="st4" d="M423.7,95.3c-3.1,0-6,.8-8.5,2.3-5.1,2.9-8.6,8.5-8.6,14.8s3.5,11.9,8.6,14.8c2.5,1.4,5.4,2.3,8.5,2.3,9.4,0,17.1-7.7,17.1-17.1s-7.7-17.1-17.1-17.1"/>
    <path class="st4" d="M402.3,141.9c-.1,0-.3,0-.4,0-.5-.2-.7-.8-.5-1.3l7.1-16.2c.2-.4.5-.6.9-.6h5.9c.5,0,1,.4,1,1s-.4,1-1,1h-5.3l-6.8,15.6c-.2.4-.5.6-.9.6"/>
    <path class="st4" d="M402.3,146.4c3.1,0,5.5-2.5,5.5-5.5s-2.5-5.5-5.5-5.5-5.5,2.5-5.5,5.5,2.5,5.5,5.5,5.5"/>
    <path class="st4" d="M399.5,109.9c-.4,0-.7-.2-.9-.6l-5-11.5h-17.9c-.5,0-1-.4-1-1s.4-1,1-1h18.5c.4,0,.7.2.9.6l5,11.5h15.1s0,0,0,0c.5,0,1,.4,1,1,0,.5-.4,1-1,1h-15.8s0,0,0,0Z"/>
    <path class="st4" d="M375.7,91.3c3.1,0,5.5,2.5,5.5,5.5s-2.5,5.5-5.5,5.5-5.5-2.5-5.5-5.5,2.5-5.5,5.5-5.5"/>
  </g>
  <polygon class="st6" points="414.8 118.4 412.9 118.4 412.9 109.4 409.9 109.4 409.9 107.8 417.9 107.8 417.9 109.4 414.8 109.4 414.8 118.4"/>
  <rect class="st6" x="416" y="113.7" width="2.8" height="1.6"/>
  <g>
    <path class="st6" d="M421.5,113.1c0,1.2.2,2.1.7,2.8.5.7,1.2,1,2.3,1s1.8-.3,2.3-1c.5-.7.7-1.6.7-2.8s-.2-2.1-.7-2.8c-.5-.7-1.2-1-2.3-1s-1.8.3-2.3,1c-.5.7-.7,1.6-.7,2.8M429.5,113.1c0,1.1-.2,2.1-.5,2.9-.4.8-.9,1.5-1.7,1.9-.7.5-1.7.7-2.8.7s-2.1-.2-2.8-.7c-.7-.5-1.3-1.1-1.6-1.9-.4-.8-.5-1.8-.5-2.9s.2-2,.5-2.9c.4-.8.9-1.5,1.6-1.9.7-.5,1.7-.7,2.8-.7s2,.2,2.8.7c.7.4,1.3,1.1,1.6,1.9.4.8.5,1.8.5,2.9"/>
    <path class="st6" d="M437.2,115.6c0,.9-.3,1.7-1,2.2-.7.5-1.6.8-2.8.8s-2.2-.2-3-.6v-1.8c.4.2.9.4,1.5.5.5.2,1.1.2,1.6.2s1.1-.1,1.4-.4.4-.6.4-1-.2-.8-.6-1c-.4-.3-.9-.5-1.6-.9-.4-.2-.9-.4-1.3-.7-.4-.3-.7-.6-1-1-.3-.4-.4-.9-.4-1.5,0-.9.3-1.6,1-2.1.6-.5,1.5-.8,2.6-.8s1.1,0,1.6.2c.5.1,1,.3,1.5.5l-.6,1.5c-.4-.2-.9-.3-1.3-.4-.4-.1-.8-.2-1.2-.2s-.9.1-1.2.3c-.3.2-.4.5-.4.9s0,.5.2.7c.1.2.4.4.7.6.3.2.7.4,1.2.6.6.2,1.1.5,1.5.8.4.3.7.6.9,1,.2.4.3.8.3,1.4"/>
    <path class="st4" d="M403.7,89.2s0,0,0,0c-.1,0-.2,0-.4,0,0,0,0,0,0,0,0,0,0,0,0,0-.1,0-.3,0-.4,0,0,0,0,0,0,0-.1,0-.3,0-.5,0h0c-.2,0-.3,0-.5,0h0c-.2,0-.3,0-.4,0,0,0,0,0,0,0-.1,0-.3,0-.4-.1,0,0,0,0,0,0-.1,0-.3,0-.4-.1,0,0,0,0,0,0-.1,0-.2-.1-.3-.2,0,0,0,0,0,0,0,0-.2-.1-.3-.2,0,0,0,0,0,0,0,0-.2-.1-.3-.2,0,0,0,0,0,0,0,0-.2-.1-.2-.2,0,0,0,0,0,0,0,0-.1-.2-.2-.2,0,0,0,0,0,0,0,0-.1-.2-.2-.3,0,0,0,0,0,0,0-.1-.1-.2-.2-.3,0,0,0,0,0,0,0-.1-.1-.2-.2-.4,0,0,0,0,0,0-.2-.5-.4-1.1-.4-1.8s.1-1.2.4-1.8c0,0,0,0,0,0,0-.1.1-.2.2-.4,0,0,0,0,0,0,0-.1.1-.2.2-.3,0,0,0,0,0,0,0,0,.1-.2.2-.3,0,0,0,0,0,0,0,0,.1-.2.2-.2,0,0,0,0,0,0,0,0,.2-.1.2-.2,0,0,0,0,0,0,0,0,.2-.1.3-.2,0,0,0,0,0,0,0,0,.2-.1.3-.2,0,0,0,0,0,0,.1,0,.2-.1.3-.2,0,0,0,0,0,0,.1,0,.2,0,.4-.1,0,0,0,0,0,0,.1,0,.3,0,.4-.1,0,0,0,0,0,0,.1,0,.3,0,.4,0h0c.2,0,.3,0,.5,0h0c.2,0,.3,0,.5,0,0,0,0,0,0,0,.1,0,.3,0,.4,0,0,0,0,0,0,0,.1,0,.2,0,.4,0,0,0,0,0,0,0,.1,0,.2,0,.3.1,0,0,0,0,.1,0,0,0,.2,0,.3.1,0,0,.1,0,.2,0,0,0,.1,0,.2.1,0,0,.1,0,.2.1,0,0,.1,0,.2.1,0,0,.1,0,.2.1,0,0,0,0,.1.1,0,0,.1.1.2.2,0,0,0,0,.1.1,0,0,.1.1.2.2,0,0,0,.1.1.2,0,0,0,.1.1.2,0,0,0,.1.1.2,0,0,0,.1.1.2,0,0,0,.1.1.2,0,0,0,.1,0,.2,0,0,0,.2,0,.3,0,0,0,0,0,.1,0,0,0,.2,0,.3,0,0,0,0,0,.1,0,.1,0,.2,0,.3,0,0,0,0,0,.1,0,.1,0,.2,0,.4,0,0,0,0,0,0s0,0,0,0c0,.1,0,.2,0,.4,0,0,0,0,0,.1,0,.1,0,.2,0,.3,0,0,0,0,0,.1,0,.1,0,.2,0,.3,0,0,0,0,0,.1,0,0,0,.2,0,.3,0,0,0,.1,0,.2,0,0,0,.1-.1.2,0,0,0,.1-.1.2,0,0,0,.1-.1.2,0,0,0,.1-.1.2,0,0,0,.1-.1.2,0,0-.1.1-.2.2,0,0,0,0-.1.1,0,0-.1.1-.2.2,0,0,0,0-.1.1,0,0-.1,0-.2.1,0,0,0,0-.1,0,0,0,0,0,0,0,0,0-.1,0-.2.1,0,0-.1,0-.2.1,0,0,0,0-.2,0,0,0-.2,0-.3.1,0,0,0,0-.1,0-.1,0-.2,0-.3.1M415.3,100h-5.3l-4.2-9.7c1.8-1.2,3-3.2,3-5.5,0-3.6-2.9-6.5-6.5-6.5s-6.5,2.9-6.5,6.5,2.9,6.5,6.5,6.5,1.1,0,1.7-.2l4.5,10.2c.2.4.5.6.9.6h5.9c.5,0,1-.4,1-1s-.4-1-1-1"/>
    <path class="st6" d="M93.5,164.1c29,0,52.4-23.5,52.4-52.4s-23.5-52.4-52.4-52.4-52.4,23.5-52.4,52.4,23.5,52.4,52.4,52.4"/>
    <path class="st4" d="M128.2,98c0,6.5-5.3,11.8-11.8,11.8s-11.8-5.3-11.8-11.8,5.3-11.8,11.8-11.8,11.8,5.3,11.8,11.8"/>
    <path class="st6" d="M116.4,105.7c-2.4,0-4.4-2-4.4-4.4s.4-1,1-1,1,.4,1,1c0,1.3,1.1,2.4,2.4,2.4s2.4-1.1,2.4-2.4-.4-2-2.6-2.4c-2.8-.5-4.2-1.9-4.2-4.3s2-4.4,4.4-4.4,4.4,2,4.4,4.4-.4,1-1,1-1-.4-1-1c0-1.3-1.1-2.4-2.4-2.4s-2.4,1.1-2.4,2.4.4,2,2.6,2.4c2.8.5,4.2,1.9,4.2,4.3s-2,4.4-4.4,4.4"/>
    <path class="st6" d="M116.4,92.2c-.5,0-1-.4-1-1v-2.2c0-.5.4-1,1-1s1,.4,1,1v2.2c0,.5-.4,1-1,1"/>
    <path class="st6" d="M116.4,107.9c-.5,0-1-.4-1-1v-2.2c0-.5.4-1,1-1s1,.4,1,1v2.2c0,.5-.4,1-1,1"/>
    <path class="st4" d="M116.7,84.1c-.5,0-1-.4-1-1v-2.7c0-.5.4-1,1-1s1,.4,1,1v2.7c0,.5-.4,1-1,1"/>
    <path class="st4" d="M106.4,88.3c-.2,0-.4,0-.6-.2l-2.1-1.6c-.4-.3-.5-1-.2-1.4.3-.4,1-.5,1.4-.2l2.1,1.6c.4.3.5,1,.2,1.4-.2.3-.5.4-.8.4"/>
    <path class="st4" d="M102.1,98.7h-2.7c-.5,0-1-.4-1-1s.4-1,1-1h2.7c.5,0,1,.4,1,1s-.4,1-1,1"/>
    <path class="st4" d="M129.1,110.6c-.2,0-.4,0-.6-.2l-2.1-1.6c-.4-.3-.5-1-.2-1.4.3-.4,1-.5,1.4-.2l2.1,1.6c.4.3.5,1,.2,1.4-.2.3-.5.4-.8.4"/>
    <path class="st4" d="M134,98.7h-2.7c-.5,0-1-.4-1-1s.4-1,1-1h2.7c.5,0,1,.4,1,1s-.4,1-1,1"/>
    <path class="st4" d="M127,88.3c-.3,0-.6-.1-.8-.4-.3-.4-.2-1.1.2-1.4l2.1-1.6c.4-.3,1.1-.2,1.4.2.3.4.2,1.1-.2,1.4l-2.1,1.6c-.2.1-.4.2-.6.2"/>
    <path class="st14" d="M131.9,130.9v-4.3l-4.7-.7c-.2-.9-.6-1.7-1-2.5l2.9-3.8-3.1-3.1-3.8,2.9c-.8-.5-1.6-.8-2.5-1l-.7-4.7h-4.3l-.7,4.7c-.9.2-1.7.6-2.5,1l-3.8-2.9-3.1,3.1,2.9,3.8c-.5.8-.8,1.6-1,2.5l-4.7.7v4.3l4.7.7c.2.9.6,1.7,1,2.5l-2.9,3.8,3.1,3.1,3.8-2.9h1.2v-.5c-.3-1.3-.7-1.8-1.3-2.5-.2-.2-.4-.5-.7-.9-1.3-1.7-2.1-3.3-2-5.5,0-4.3,3.7-7.6,8.2-7.6,4.5,0,8.1,3.3,8.2,7.6,0,2.2-.8,3.8-2,5.5-.2.3-.5.6-.7.9-.6.8-1,1.2-1.3,2.5v.5h1.2l3.8,2.9,3.1-3.1-2.9-3.8c.5-.8.8-1.6,1-2.5l4.7-.7Z"/>
    <path class="st15" d="M119.4,137.5s0,0,0-.1c.3-1.7.9-2.4,1.6-3.3.2-.2.4-.5.6-.8,1.1-1.5,1.8-2.8,1.8-4.6,0-3.4-2.9-6.1-6.5-6.1s0,0-.1,0h0s0,0-.1,0c-3.6,0-6.5,2.7-6.5,6.1,0,1.8.6,3.1,1.8,4.6.2.3.4.5.6.8.7.8,1.2,1.5,1.6,3.3,0,0,0,0,0,.1v.6h5.4v-.6Z"/>
  </g>
  <polygon class="st4" points="114 141.2 115.6 143.2 116.8 143.2 117.8 143.2 119.4 141.2 119.4 139.8 114 139.8 114 141.2"/>
  <g>
    <path class="st6" d="M121.3,129c-.4,0-.7-.2-.7-.6-.2-1.2-1-2.2-2.1-2.9-.4-.2-.5-.7-.3-1,.2-.4.7-.5,1-.3,1.5.9,2.5,2.3,2.8,3.9,0,.4-.2.8-.6.9,0,0,0,0-.1,0"/>
    <path class="st4" d="M106.4,107h-7.6c-.3,0-.6.2-.7.5-.1.3,0,.6.2.8l3,2.9s0,0,0,0l-12.5,12.3-9-5.4c-.2,0-.3-.1-.5-.1-.3,0-.5.1-.7.3l-23.1,24.1c-.3.3-.4.7-.2,1.1.2.4.5.6.9.6h13.5c.3,0,.7-.2.8-.5l9.8-15.5,7.8,5.4c.2.1.4.2.6.2s.1,0,.2,0c.3,0,.5-.2.6-.4l13.3-20.7,3.1,3c.1.1.3.2.5.2s.2,0,.3,0c.3-.1.5-.4.5-.7v-7.3c0-.4-.3-.7-.7-.7"/>
    <path class="st15" d="M59.3,113.6h35.2c1,0,1.9-1.1,1.9-2.5v-12h-39v12c0,1.4.8,2.5,1.9,2.5"/>
    <path class="st15" d="M96.2,87.8c0-.1-.2-.3-.3-.4,0,0,0,0-.1-.1-.3-.2-.7-.4-1.2-.4h-35.2c-.5,0-.9.1-1.2.4,0,0,0,0-.1.1-.1.1-.2.2-.3.4-.1.2-.2.5-.2.8v9h39v-9c0-.3,0-.6-.2-.8"/>
    <path class="st6" d="M96.2,87.8c0-.1-.2-.3-.3-.4.1.1.2.2.3.4"/>
    <path class="st6" d="M94.5,86.9c.5,0,.9.1,1.2.4-.3-.2-.7-.4-1.2-.4h-35.2c-.5,0-.9.1-1.2.4.3-.2.7-.4,1.2-.4h35.2Z"/>
    <path class="st6" d="M57.9,87.4c-.1.1-.2.2-.3.4,0-.1.2-.3.3-.4"/>
    <path class="st15" d="M83.2,87.9c-.5,0-1-.4-1-1v-2.2c0-.7-.7-1.3-1.5-1.3h-7.6c-.8,0-1.5.6-1.5,1.3v2.2c0,.5-.4,1-1,1s-1-.4-1-1v-2.2c0-1.8,1.6-3.2,3.5-3.2h7.6c1.9,0,3.5,1.4,3.5,3.2v2.2c0,.5-.4,1-1,1"/>
  </g>
  <rect class="st15" x="73.7" y="95.2" width="6.3" height="6.7"/>
  <path class="st4" d="M81,94.2h-8.3v8.7h8.3v-8.7ZM80,101.9h-6.3v-6.7h6.3v6.7Z"/>
  <g>
    <path class="st13" d="M234.2,136.8l-.2-5.6-9.8-8.9s-2-2-2-5.1-.2-22.3-.2-22.3c0,0,0-2.8,2.7-2.8s2.9,2.7,2.9,2.7c0,0,2-1.4,3.3.7,1.3,2.2-.2,16.6-.2,16.6,0,0-1.9-.5-3.1,1.1-1.2,1.5-1,3.8.3,4.6,1.3.9,9.9,6.4,9.9,6.4l.4-.7-9.6-6.4s-1.8-1.2-.4-3.2c1.4-2,4.1,0,4.1,0l12.9,7.5s3.5,1.8,3.2,6.3c-.3,4.5-1.2,9-1.2,9h-13Z"/>
    <path class="st0" d="M227.9,112.9c1.2-.9,2.6-.5,2.6-.5,0,0,1.5-14.5.2-16.6-1.2-2-3.1-.9-3.2-.7l.5,17.9Z"/>
    <path class="st4" d="M249.4,146.5h-16.4c-1.1,0-2-.9-2-2v-7.1c0-1.1.9-1.9,1.9-1.9h15.8c.7,0,1.3.5,1.4,1.3l.8,8c0,.9-.6,1.7-1.5,1.7"/>
    <path class="st13" d="M271.9,136.8l.2-5.6,9.8-8.9s2-2,2-5.1.2-22.3.2-22.3c0,0,0-2.8-2.7-2.8s-2.9,2.7-2.9,2.7c0,0-2-1.4-3.3.7-1.3,2.2.2,16.6.2,16.6,0,0,1.9-.5,3.1,1.1,1.2,1.5,1,3.8-.3,4.6-1.3.9-9.9,6.4-9.9,6.4l-.4-.7,9.6-6.4s1.8-1.2.4-3.2-4.1,0-4.1,0l-12.9,7.5s-3.5,1.8-3.2,6.3c.3,4.5,1.2,9,1.2,9h13Z"/>
    <path class="st0" d="M278.2,112.9c-1.2-.9-2.6-.5-2.6-.5,0,0-1.5-14.5-.2-16.6,1.2-2,3.1-.9,3.2-.7l-.5,17.9Z"/>
    <path class="st4" d="M256.6,146.5h16.4c1.1,0,2-.9,2-2v-7.1c0-1.1-.9-1.9-1.9-1.9h-15.8c-.7,0-1.3.5-1.4,1.3l-.8,8c0,.9.6,1.7,1.5,1.7"/>
    <path class="st4" d="M267.5,88.6c0,0-1.7-1.8-3.9-3.5h0c-.2-.2-.4-.3-.6-.5,0,0,0,0,0,0-.2-.1-.4-.3-.6-.4,0,0,0,0,0,0-.2-.1-.4-.3-.7-.4,0,0,0,0,0,0-.2-.1-.5-.3-.7-.4-.3-.1-.6-.3-.9-.4-.3-.7-1.1-1.5-2.3-2.4-1.1-.7-2.1-1.3-2.1-1.3,0,0-.2,0-.2,0-.2,0-.4.1-.5.3-.1.3,0,.6.2.7.9.5,2.1,1.2,3,2-1.3-.4-2.5-.6-3.6-.7-.4-.5-1.3-1-2.6-1.5-1.2-.4-2.4-.7-2.4-.7,0,0,0,0-.1,0-.2,0-.5.2-.5.4,0,.3.1.6.4.6,0,0,1.1.3,2.3.7.5.2.8.3,1.1.5-.8,0-1.4,0-2.1.2-2.7.4-4.4,1.3-4.5,1.3-.3.1-.4.5-.2.7,0,.2.3.3.5.3s.2,0,.2,0c0,0,1.7-.8,4.2-1.2.8-.1,1.6-.2,2.4-.2s.2,0,.2,0c-.3.3-.9.7-1.9,1.4-1.1.7-2.1,1.3-2.1,1.3-.3.1-.3.5-.2.7,0,.2.3.3.5.3s.2,0,.3,0c0,0,1.2-.7,2.4-1.5.7-.5,1.2-.9,1.6-1.2.4-.4.7-.6.8-.9.2,0,.3,0,.5,0,1.3.2,2.5.5,3.8.9-.6.5-2.3,1.7-4.7,3.1-.3.1-.4.5-.2.7,0,.2.3.3.5.3s.2,0,.3,0c0,0,1.3-.8,2.6-1.6,1.5-1,2.2-1.6,2.6-2,.1,0,.3.1.4.2.2.1.5.3.7.4,0,0,0,0,0,0,.2.1.5.3.7.4,0,0,0,0,0,0,.5.3.9.6,1.3.9,2.1,1.6,3.6,3.2,3.6,3.2.1.1.3.2.4.2s.3,0,.4-.1c.2-.2.2-.5,0-.8"/>
    <path class="st4" d="M257.7,86.9c-1.3.8-2.7,1.6-2.7,1.6-.2.1-.5.2-.7.2-.5,0-1-.3-1.3-.8-.4-.7-.1-1.6.6-2,1.3-.7,2.3-1.4,3.1-1.9-.6-.1-1.1-.2-1.7-.3-.2.2-.4.4-.6.6-.4.4-1,.8-1.7,1.2-1.2.8-2.4,1.5-2.4,1.5-.2.1-.5.2-.7.2-.5,0-1-.3-1.3-.8-.4-.7-.2-1.6.6-2,0,0,.4-.2.9-.5-1.7.4-2.8.9-2.8.9-.2.1-.4.2-.7.2-.6,0-1.1-.3-1.3-.8-.4-.7,0-1.6.7-2,.1,0,1.2-.6,2.9-1-.2-.1-.3-.3-.5-.5-.2-.3-.3-.7-.2-1.1.1-.7.8-1.2,1.5-1.2s.2,0,.3,0c0,0,1.3.3,2.5.7.6.2,1.2.5,1.6.7,0-.3,0-.5.2-.8.3-.5.8-.8,1.3-.8s.5,0,.7.2c0,0,1.1.6,2.2,1.3,1.2.8,2,1.6,2.5,2.4.2,0,.4.2.6.3.6.3,1.1.6,1.6.9-.6-1.1-1.5-2.5-2.8-3.7-2-1.9-4.4-2.8-7.1-2.8-1.8,0-3.6.5-5.5,1.5-1.5.8-2.9,1.9-4.3,3.3-2.4,2.4-3.8,4.7-3.8,4.8,0,0,0,0,0,0,0,0,0,0,0,0,0,0,0,0,0,0,.1,0,3.4-1,6.5.5.8.4,1.6.8,2.3,1.2h0c2.2,1.2,4.3,2.4,7,2.2,2.2-.1,4.3-1,6.2-2.6.4-.3.8-.6,1.1-.9-.7-.5-1.6-1.1-2.4-1.5-.5.4-1.2,1-2.3,1.6"/>
    <path class="st12" d="M258.8,112.2c.2-.1.5-.2.7-.4,0,0,0,0,0,0,.2-.1.4-.3.7-.4,0,0,0,0,0,0,.2-.1.5-.3.7-.5.3-.2.5-.4.8-.6,0,0,.1,0,.2,0,.8,0,1.7-.3,3-.9,1.2-.6,2.1-1.2,2.1-1.2.2-.2.3-.5.1-.7-.1-.2-.3-.2-.4-.2s-.2,0-.3,0c-.9.6-2.1,1.3-3.2,1.7.9-.9,1.7-1.9,2.3-2.8.7-.1,1.5-.6,2.6-1.5,1-.8,1.8-1.7,1.8-1.8.2-.2.2-.6,0-.8-.1,0-.2-.1-.4-.1s-.3,0-.4.2c0,0-.8.9-1.7,1.7-.4.3-.7.6-.9.7.3-.7.6-1.3.8-1.9,1-2.5,1-4.5,1-4.6,0-.3-.2-.5-.5-.6h0c-.3,0-.5.2-.5.5,0,0,0,1.9-1,4.3-.3.8-.7,1.6-1.1,2.4,0-.4-.2-1.1-.3-2.3,0-1.3-.1-2.4-.1-2.5,0-.3-.2-.5-.5-.5h0c-.2,0-.4.1-.5.3,0,0,0,.2,0,.3,0,0,0,1.4.1,2.8,0,.8.2,1.5.3,2,.1.5.2.9.4,1.1,0,.1-.2.3-.3.4-.8,1-1.6,2-2.6,2.8-.2-.8-.4-2.9-.4-5.6,0-.3-.2-.5-.5-.5h0c-.2,0-.4.1-.5.3,0,0,0,.2,0,.3,0,0,0,1.5.1,3.1.1,1.8.3,2.7.5,3.2-.1,0-.3.2-.4.3-.2.2-.5.3-.7.5,0,0,0,0,0,0-.2.1-.5.3-.7.4,0,0,0,0,0,0-.5.3-1,.5-1.5.7-2.4,1.1-4.5,1.6-4.5,1.6-.2,0-.3.1-.3.3,0,.1,0,.2,0,.4,0,.2.3.4.5.4s0,0,.1,0c.1,0,2.9-.7,5.7-2.1,0,0,0,0,0,0"/>
    <path class="st12" d="M271,96.3c-.9-3.2-2.3-5.6-2.3-5.7,0,0,0,0,0,0,0,0,0,0,0,0h0c0,.1-.8,3.4-3.5,5.4-.7.5-1.5,1-2.2,1.4h0c-2.1,1.4-4.2,2.6-5.3,5.1-.9,2-1.2,4.3-.7,6.7,0,.5.2,1,.3,1.4.8-.4,1.7-.8,2.5-1.4-.2-.6-.3-1.5-.3-2.8-.1-1.5-.1-3.1-.1-3.1,0-.3,0-.5.2-.7.3-.5.8-.8,1.3-.8h0c.8,0,1.5.7,1.5,1.5,0,1.5,0,2.7.2,3.6.4-.4.8-.9,1.1-1.3,0-.2-.2-.5-.2-.9-.1-.5-.2-1.2-.3-2.1-.1-1.4-.1-2.8-.1-2.8,0-.3,0-.5.2-.8.3-.5.8-.8,1.3-.8h0c.8,0,1.5.7,1.5,1.5,0,0,0,.4,0,1,.5-1.7.6-2.9.6-2.9,0-.8.7-1.4,1.5-1.4s0,0,0,0c.8,0,1.5.7,1.4,1.6,0,0,0,1.3-.5,3,.2-.1.5-.2.7-.2.4,0,.7.1,1,.4.3.3.5.6.5,1,0,.4-.1.8-.4,1.1,0,0-.9,1-1.9,1.9-.5.4-1,.8-1.4,1.1.2.1.5.3.6.5.2.3.3.7.2,1.1,0,.4-.3.7-.6,1,0,0-1,.7-2.2,1.3-1.3.7-2.4,1-3.3,1-.2.1-.4.3-.6.4-.5.4-1,.7-1.6,1,1.2,0,2.9-.1,4.6-.7,2.6-.9,4.6-2.5,5.9-4.8.9-1.6,1.3-3.4,1.4-5.5,0-1.7-.2-3.5-.8-5.3"/>
    <path class="st12" d="M251.5,113.4s0,0,0,0c-.1,0-2.7-2.3-3.2-5.7-.1-.9-.2-1.8-.3-2.6h0c-.2-2.5-.4-4.9-2.1-7.1-1.3-1.7-3.3-3-5.6-3.8-.5-.2-1-.3-1.4-.4,0,.9,0,1.9,0,2.8.6.2,1.5.5,2.6,1,1.4.6,2.8,1.3,2.8,1.3.2.1.4.3.6.5.3.5.3,1,0,1.5-.3.5-.8.8-1.3.8s-.5,0-.7-.2c-1.3-.7-2.4-1.2-3.2-1.5.2.5.4,1.1.7,1.6.3,0,.5,0,.9.2.5.2,1.2.4,2,.7,1.3.6,2.5,1.2,2.6,1.2.2.1.4.3.6.5.3.4.3,1,0,1.5-.3.5-.8.8-1.3.8s-.5,0-.7-.2c0,0-.4-.2-.9-.4,1.3,1.2,2.3,1.8,2.3,1.8.7.4,1,1.3.6,2-.3.5-.8.8-1.3.8s-.5,0-.7-.2c-.1,0-1.1-.7-2.4-1.9,0,.6-.4,1.2-1,1.4-.2,0-.4.1-.5.1-.6,0-1.2-.4-1.4-1,0,0-.5-1.2-.8-2.5-.2-.7-.3-1.2-.3-1.8-.2.2-.5.3-.7.3,0,0-.1,0-.2,0-.8,0-1.4-.6-1.5-1.3,0,0-.1-1.2-.1-2.6,0-1.5.2-2.6.6-3.4,0-.2,0-.5-.1-.7,0-.6-.1-1.2-.1-1.8-.6,1.1-1.2,2.6-1.5,4.4-.4,2.7,0,5.2,1.6,7.5,1,1.5,2.4,2.8,4.2,3.7,1.5.8,3.2,1.4,5.1,1.8,3.3.7,6,.6,6.1.6,0,0,0,0,0,0,0,0,0,0,0,0"/>
    <path class="st12" d="M237.2,104.4s0,0,0,0c.3,0,.5-.3.5-.6-.1-1-.1-2.5,0-3.6.4,1.3.9,2.4,1.4,3.4-.2.6-.2,1.6.2,3,.3,1.3.7,2.4.8,2.4,0,.2.3.3.5.3s.1,0,.2,0c.3-.1.4-.4.3-.7,0,0-.4-1.1-.7-2.3-.1-.5-.2-.9-.2-1.2.4.6.9,1.2,1.3,1.6,1.8,2,3.5,3,3.6,3,0,0,.2,0,.3,0,.2,0,.4,0,.5-.3.1-.3,0-.6-.2-.7,0,0-1.6-.9-3.3-2.8-.6-.7-1.1-1.4-1.6-2.1.4,0,1.1.3,2.2.8,1.2.5,2.2,1,2.2,1,0,0,.2,0,.2,0,.2,0,.4-.1.5-.3,0-.2,0-.4,0-.5,0,0-.1-.1-.2-.2,0,0-1.2-.6-2.5-1.2-.8-.3-1.4-.6-1.9-.7-.4-.1-.7-.2-1-.2s-.2,0-.2,0c0-.1-.2-.3-.2-.4-.6-1.2-1-2.4-1.3-3.6.8.2,2.7,1,5.1,2.2,0,0,.2,0,.2,0,.2,0,.4-.1.5-.3,0-.2,0-.4,0-.5,0,0-.1-.1-.2-.2,0,0-1.4-.7-2.8-1.3-1.6-.7-2.5-1-3.1-1,0-.2,0-.3,0-.5,0-.3,0-.5,0-.8,0,0,0,0,0,0,0-.3,0-.5,0-.8,0,0,0,0,0,0,0-.6,0-1.1,0-1.6.1-2.6.7-4.7.7-4.8,0-.2,0-.3,0-.4,0-.1-.2-.2-.3-.2,0,0,0,0-.1,0-.2,0-.5.2-.5.4,0,.1-.7,2.8-.7,6h0c0,.3,0,.6,0,.8,0,0,0,0,0,0,0,.3,0,.5,0,.8,0,0,0,0,0,0,0,.3,0,.6,0,.8,0,.3,0,.6.2,1-.4.7-.6,1.7-.7,3.2,0,1.3,0,2.4,0,2.5,0,.3.3.5.5.5"/>
    <path class="st4" d="M564.8,124.7l-.3,3.1c0,1-.5,1.8-1.3,2.4-.7.6-1.5.9-2.4.9s-.2,0-.3,0h0c-.5,0-1-.2-1.5-.5-1-.6-1.7-1.7-1.8-2.8v-1.3c-.1,0-.1,0-.1,0,0-.2,0-.4,0-.6h0c0-.2,0-.4,0-.6v-.8s-.6,0-.6,0l-5.7,9.8c-.6,1.1-1.7,1.7-2.9,1.7s-1.2-.2-1.7-.5h0c-.7-.4-1.2-1-1.5-1.7-.2.2-.3.4-.6.6v9.6l22.8-.8v-18.5h-2Z"/>
    <path class="st10" d="M562.3,129.2c-.5.4-1.1.6-1.7.5h0c-.3,0-.6-.1-.9-.3-.6-.4-1-1-1.1-1.7v-1.2c0-.2,0-.4,0-.6h0c0-.2,0-.4,0-.7v-4.7c0-.2-.2-.4-.4-.6-.3-.2-.7,0-.9.2-.2.4-.5.8-.7,1.2h0s-7.1,12.2-7.1,12.2c-.5.9-1.7,1.3-2.7.7h0c-1-.6-1.3-1.8-.8-2.8l6.3-10.8c.1-.2.1-.4.1-.6,0-.2-.2-.4-.3-.4h0c-.3-.2-.9,0-1.1.3l-7.5,13c-.5.9-1.7,1.2-2.6.7h0c-1-.6-1.4-1.8-.8-2.8l7.5-13c.2-.3.1-.7-.2-.9,0,0,0,0,0,0h0c-.3-.2-.7,0-.9.2l-7,12.1c-.5.9-1.7,1.2-2.6.7h0c-1-.6-1.3-1.8-.8-2.8l6.9-12c.2-.3,0-.8-.2-.9,0,0,0,0,0,0h0c-.3-.2-.8,0-1,.2l-4.6,8c-.5.9-1.6,1.2-2.5.7h0c-.9-.6-1.3-1.7-.8-2.6l4.8-8.2,2.3-4c.8-1.4,1.8-2.6,3-3.7.6-.5,1.3-1,2-1.4l1.6-.8c1.5-.8,2.8-1.7,3.9-2.9l13,7.5-.6,1c-.1.2-.2.5-.1.9.4,3.6.4,7.2.1,10.8l-.4,4.1-.3,3.7c0,.6-.3,1.1-.8,1.5"/>
    <path class="st3" d="M586.4,116.1c.5-.2,1-.3,1.5-.3s.8,0,1.2.2c.9.3,1.7,1,2.1,1.9h0c.2.5.3,1,.3,1.5,0,1.2-.6,2.3-1.6,3l-1,.7h0c-.2.1-.4.2-.5.3h0c-.2.1-.4.2-.5.3l-.3.2.4.7h10.9c.9,0,1.8.4,2.4,1,.6.6,1,1.5,1,2.4h0c0,.8-.3,1.6-.7,2.2.1,0,.2,0,.3,0l9-5.2-12.1-19.3-16,9.2,1.2,2.2,2.4-1.1Z"/>
    <path class="st1" d="M588.7,117.3c.6.2,1,.6,1.3,1.2h0c.1.3.2.6.2.9,0,.7-.4,1.4-.9,1.8l-1,.7c-.2.1-.3.2-.5.3h0c-.2.1-.4.2-.6.3l-4.1,2.4c-.2.1-.3.3-.3.6,0,.4.3.7.6.7.4,0,.9,0,1.4,0h14.2c1.1,0,2,.9,2,2h0c0,1.2-1,2.2-2.1,2.2h-12.5c-.2,0-.4,0-.5.2-.2.2-.2.3-.2.5h0c0,.4.4.8.8.8h15c1.1,0,1.9.8,1.9,1.9h0c0,1.2-.9,2.1-2,2.1h-15c-.4,0-.7.3-.7.6s0,0,0,0h0c0,.4.3.7.7.7h13.9c1.1,0,1.9.9,1.9,1.9h0c0,1.2-.9,2.2-2,2.2h-13.8c-.4,0-.7.3-.7.6s0,0,0,0h0c0,.4.3.7.7.7h9.2c1,0,1.8.8,1.8,1.8h0c0,1.1-.8,2-1.8,2h-9.4s-4.6,0-4.6,0c-1.6,0-3.2-.3-4.7-.8-.8-.3-1.5-.6-2.2-1l-1.5-1c-1.4-.9-2.9-1.5-4.5-1.9v-15.1h1.1c.3,0,.5,0,.8-.3,2.9-2.1,6-4,9.3-5.5l3.8-1.8,3.4-1.6c.5-.2,1.1-.3,1.7,0"/>
    <path class="st11" d="M565.4,102.4c-.8-.5-1.3-1.4-1.5-2.3-.2-1,0-2,.6-2.8h0c.3-.5.7-.8,1.2-1.1.6-.3,1.2-.5,1.8-.5s1.1.1,1.5.3l1.1.5h0c.2.1.4.2.5.3h0c.2.1.3.2.5.3l.8.5.3-.4-5.7-10c-.5-.8-.6-1.7-.4-2.6.2-.9.8-1.6,1.6-2.1h0c.5-.3,1.2-.5,1.8-.5s.3,0,.4,0l-8.8-5.1-10.7,20.1,16,9.2,1.4-2.2-2.6-1.9Z"/>
    <path class="st16" d="M565.4,99.8c-.1-.6,0-1.2.4-1.7h0c.2-.3.4-.5.7-.7.6-.4,1.4-.4,2,0l1.1.5c.2,0,.3.2.5.3h0c.2.1.4.2.6.3l4.1,2.4c.2.1.4.1.6,0,.3-.2.4-.6.2-.9-.2-.4-.5-.8-.7-1.2h0s-7-12.3-7-12.3c-.5-.9-.2-2.1.7-2.7h0c1-.6,2.2-.3,2.8.7l6.3,10.8c.1.2.3.3.4.4.2,0,.4,0,.5,0h0c.3-.2.5-.7.3-1.1l-7.5-13c-.5-.9-.2-2.1.7-2.6h0c1-.6,2.3-.3,2.8.6l7.5,13c.2.3.6.5.9.3,0,0,0,0,0,0h0c.3-.2.4-.6.2-.9l-7-12.1c-.5-.9-.2-2.1.7-2.6h0c1-.6,2.2-.3,2.8.7l6.9,12c.2.3.6.5.9.3,0,0,0,0,0,0h0c.3-.2.4-.7.3-1l-4.6-8c-.5-.9-.2-2,.6-2.5h0c.9-.6,2.1-.3,2.6.6l4.7,8.2,2.3,3.9c.8,1.4,1.4,2.9,1.6,4.5.1.8.2,1.6.2,2.4v1.8c-.2,1.7,0,3.3.5,4.9l-13,7.5-.6-1c-.1-.2-.4-.4-.7-.6-3.3-1.5-6.5-3.2-9.4-5.3l-3.4-2.4-3.1-2.2c-.5-.3-.8-.8-.9-1.4"/>
    <path class="st6" d="M528.9,512.5c29,0,52.4-23.5,52.4-52.4s-23.5-52.4-52.4-52.4-52.4,23.5-52.4,52.4,23.5,52.4,52.4,52.4"/>
    <path class="st11" d="M515.4,479.9c.6,0,1,.4,1,1v6.3c0,0,3.9,0,3.9,0v-5.3c-.1-4.9-4.1-8.8-9-8.7h-3.3c-4.9,0-8.8,4.1-8.7,9v5.1c0,0,3.9,0,3.9,0v-6.3c-.1-.5.3-1,.9-1s1,.4,1,1v6.3c0,0,9.5,0,9.5,0v-6.3c-.1-.5.3-1,.9-1"/>
    <path class="st10" d="M515.9,465.1c0,3.5-2.8,6.4-6.3,6.4-3.5,0-6.4-2.8-6.4-6.3,0-3.5,2.8-6.4,6.3-6.4,3.5,0,6.4,2.8,6.4,6.3"/>
    <path class="st1" d="M553.7,465.1c0,3.5-2.8,6.4-6.3,6.4-3.5,0-6.4-2.8-6.4-6.3,0-3.5,2.8-6.4,6.3-6.4,3.5,0,6.4,2.8,6.4,6.3"/>
    <path class="st8" d="M553.2,479.9c.6,0,1,.4,1,1v6.3c0,0,3.9,0,3.9,0v-5.3c-.1-4.9-4.1-8.8-9-8.7h-3.3c-4.9,0-8.8,4.1-8.7,9v5.1c0,0,3.9,0,3.9,0v-6.3c-.1-.5.3-1,.9-1s1,.4,1,1v6.3c0,0,9.5,0,9.5,0v-6.3c-.1-.5.3-1,.9-1"/>
    <path class="st16" d="M535,480.7c0,3.5-2.8,6.4-6.3,6.4-3.5,0-6.4-2.8-6.4-6.3,0-3.5,2.8-6.4,6.3-6.4,3.5,0,6.4,2.8,6.4,6.3"/>
    <path class="st3" d="M533.5,496.9c0-.5.4-1,1-1h0c.5,0,1,.4,1,1v6.2c0,0,0,0,0,0h3.8s0-5.3,0-5.3c0-4.9-4.1-8.8-8.9-8.7h-3.3c-4.9,0-8.8,4.1-8.7,9v5.1c0,0,3.9,0,3.9,0v-6.1c-.1-.5.3-1,.9-1,.6,0,1,.4,1,1v6.1c0,0,9.5,0,9.5,0,0,0,0,0,0,0v-6.2Z"/>
    <path class="st4" d="M512,451.9l10.5,2-1.8,3.9c-.2.4,0,.9.2,1.2.3.3.8.4,1.2.2l3.9-1.8,2,10.5c0,.5.5.8,1,.8s.9-.3,1-.8l2-10.5,3.9,1.8c.4.2.9,0,1.2-.2.3-.3.4-.8.2-1.2l-1.8-3.9,10.5-2c.5,0,.8-.5.8-1s-.4-.9-.8-1l-10.5-2,1.8-3.9c.2-.4,0-.9-.2-1.2-.2-.2-.5-.3-.7-.3s-.3,0-.4,0l-3.9,1.8-2-10.5c0-.5-.5-.8-1-.8s-.9.4-1,.8l-2,10.5-3.9-1.8c-.1,0-.3,0-.4,0-.3,0-.5.1-.7.3-.3.3-.4.8-.2,1.2l1.8,3.9-10.5,2c-.5,0-.8.5-.8,1s.3.9.8,1"/>
    <path class="st4" d="M528.9,427.6c.8,0,1.4-.6,1.4-1.4v-8.1c0-.8-.6-1.4-1.4-1.4s-1.4.6-1.4,1.4v8.1c0,.8.6,1.4,1.4,1.4"/>
    <path class="st4" d="M553.8,452.5h8.1c.8,0,1.4-.6,1.4-1.4s-.6-1.4-1.4-1.4h-8.1c-.8,0-1.4.6-1.4,1.4s.6,1.4,1.4,1.4"/>
    <path class="st4" d="M495.9,452.5h8.1c.8,0,1.4-.6,1.4-1.4s-.6-1.4-1.4-1.4h-8.1c-.8,0-1.4.6-1.4,1.4s.6,1.4,1.4,1.4"/>
    <path class="st4" d="M513.1,436.7c.3,0,.7-.1,1-.4.5-.5.5-1.4,0-1.9l-3.1-3.1c-.5-.5-1.4-.5-1.9,0-.5.5-.5,1.4,0,1.9l3.1,3.1c.3.3.6.4,1,.4"/>
    <path class="st4" d="M544.6,436.7c.3,0,.7-.1,1-.4l3.1-3.1c.5-.5.5-1.4,0-1.9-.5-.5-1.4-.5-1.9,0l-3.1,3.1c-.5.5-.5,1.4,0,1.9.3.3.6.4,1,.4"/>
  </g>
</svg>