<?xml version="1.0" encoding="UTF-8"?>
<svg id="Layer_1" xmlns="http://www.w3.org/2000/svg" xmlns:xlink="http://www.w3.org/1999/xlink" version="1.1" viewBox="0 0 1145.2 431.41">
  <!-- Generator: Adobe Illustrator 29.6.0, SVG Export Plug-In . SVG Version: 2.1.1 Build 207)  -->
  <defs>
    <style>
      .st0, .st1, .st2, .st3, .st4, .st5, .st6, .st7, .st8 {
        fill: none;
      }

      .st9 {
        fill: #22b7e9;
      }

      .st9, .st10, .st11, .st12, .st13 {
        fill-rule: evenodd;
      }

      .st1 {
        stroke: #d3d3d2;
        stroke-dasharray: 3 2;
        stroke-width: 4px;
      }

      .st1, .st3, .st8 {
        stroke-miterlimit: 10;
      }

      .st14, .st11 {
        fill: #ee7003;
      }

      .st2 {
        stroke-dasharray: 0 2.95;
      }

      .st2, .st3, .st4, .st5, .st6, .st7 {
        stroke: #006ba6;
      }

      .st2, .st4, .st5, .st6, .st7 {
        stroke-linecap: round;
        stroke-linejoin: round;
      }

      .st15 {
        fill: #009ee4;
      }

      .st3 {
        stroke-width: .5px;
      }

      .st4 {
        stroke-dasharray: 0 3.06;
      }

      .st5 {
        stroke-dasharray: 0 3;
      }

      .st16, .st10 {
        fill: #633169;
      }

      .st17, .st13 {
        fill: #4f4f4f;
      }

      .st7 {
        stroke-dasharray: 0 3.09;
      }

      .st18 {
        fill: #fff;
      }

      .st19, .st12 {
        fill: #12a639;
      }

      .st20 {
        fill: #006ba6;
      }

      .st21 {
        clip-path: url(#clippath);
      }

      .st8 {
        stroke: #fff;
        stroke-width: 2px;
      }

      .st22 {
        fill: #ebf3f8;
      }
    </style>
    <clipPath id="clippath">
      <rect class="st0" x="469.16" width="207.43" height="207.51"/>
    </clipPath>
  </defs>
  <g class="st21">
    <path class="st13" d="M572.63,103.76l72.62,72.66c-40.11,40.13-105.13,40.13-145.24,0-40.11-40.13-40.11-105.19,0-145.32,19.65-19.66,44.83-30.1,72.62-30.1v102.75Z"/>
    <path class="st8" d="M572.63,103.76l72.62,72.66c-40.11,40.13-105.13,40.13-145.24,0-40.11-40.13-40.11-105.19,0-145.32,19.65-19.66,44.83-30.1,72.62-30.1v102.75Z"/>
    <path class="st11" d="M572.63,103.76l90.68,48.24c-5.09,9.57-10.4,16.75-18.06,24.42l-72.62-72.66Z"/>
    <path class="st8" d="M572.63,103.76l90.68,48.24c-5.09,9.57-10.4,16.75-18.06,24.42l-72.62-72.66Z"/>
    <path class="st10" d="M572.63,103.76l101.14-17.84c4.16,23.59.78,44.94-10.46,66.08l-90.68-48.24Z"/>
    <path class="st8" d="M572.63,103.76l101.14-17.84c4.16,23.59.78,44.94-10.46,66.08l-90.68-48.24Z"/>
    <path class="st9" d="M572.63,103.76l66.01-78.71c19.16,16.09,30.78,36.22,35.13,60.87l-101.14,17.84Z"/>
    <path class="st8" d="M572.63,103.76l66.01-78.71c19.16,16.09,30.78,36.22,35.13,60.87l-101.14,17.84Z"/>
    <path class="st12" d="M572.63,103.76V1c25.69,0,46.33,7.51,66.01,24.04l-66.01,78.71Z"/>
    <path class="st8" d="M572.63,103.76V1c25.69,0,46.33,7.51,66.01,24.04l-66.01,78.71Z"/>
    <path class="st18" d="M657.67,103.76c0,46.97-38.07,85.04-85.04,85.04s-85.04-38.07-85.04-85.04,38.07-85.04,85.04-85.04,85.04,38.07,85.04,85.04"/>
    <path class="st1" d="M649.16,103.76c0,42.27-34.27,76.53-76.53,76.53s-76.54-34.27-76.54-76.53,34.26-76.54,76.54-76.54,76.53,34.26,76.53,76.54Z"/>
  </g>
  <g>
    <path class="st20" d="M537.19,80.86c0,1.2-.44,2.14-1.31,2.81s-2.05,1.01-3.53,1.01c-.76,0-1.46-.06-2.11-.17-.65-.11-1.18-.27-1.61-.48v-1.63c.46.2,1.02.39,1.7.55.68.17,1.38.25,2.1.25,1,0,1.76-.2,2.28-.59s.78-.92.78-1.6c0-.44-.1-.82-.29-1.12-.19-.3-.52-.58-.99-.84-.47-.25-1.11-.53-1.92-.84-1.17-.42-2.04-.93-2.62-1.54-.58-.61-.87-1.44-.87-2.49,0-.71.18-1.32.55-1.84.37-.52.87-.92,1.52-1.2s1.4-.42,2.26-.42c.73,0,1.41.07,2.03.21.62.14,1.19.32,1.71.55l-.53,1.46c-.47-.2-.98-.37-1.54-.51-.56-.14-1.13-.21-1.71-.21-.85,0-1.49.18-1.92.54-.43.36-.65.84-.65,1.43,0,.46.09.84.28,1.14.19.3.5.58.93.83s1.01.5,1.75.77c.8.29,1.47.6,2.02.94.55.34.97.74,1.25,1.21.29.47.43,1.06.43,1.77Z"/>
    <path class="st20" d="M543.39,83.31c.25,0,.51-.02.78-.06s.48-.09.65-.15v1.27c-.18.09-.43.16-.76.22-.33.06-.65.09-.95.09-.53,0-1.02-.09-1.47-.28s-.81-.5-1.09-.96c-.28-.46-.42-1.1-.42-1.92v-5.93h-1.44v-.8l1.46-.67.67-2.17h.99v2.34h2.95v1.29h-2.95v5.89c0,.62.15,1.08.45,1.38.3.3.68.45,1.15.45Z"/>
    <path class="st20" d="M551.88,74.12c.19,0,.39,0,.61.03.22.02.41.05.59.09l-.21,1.54c-.16-.04-.35-.07-.55-.09s-.39-.04-.55-.04c-.52,0-1.01.14-1.46.43-.46.28-.82.68-1.09,1.2s-.41,1.11-.41,1.8v5.43h-1.67v-10.18h1.37l.19,1.86h.08c.32-.56.74-1.04,1.26-1.44.53-.41,1.14-.61,1.85-.61Z"/>
    <path class="st20" d="M563.77,74.31v10.18h-1.37l-.25-1.35h-.08c-.33.53-.79.92-1.37,1.17s-1.2.37-1.86.37c-1.23,0-2.15-.29-2.77-.88-.62-.59-.93-1.53-.93-2.82v-6.67h1.69v6.56c0,1.62.75,2.43,2.26,2.43,1.13,0,1.91-.32,2.35-.95s.66-1.55.66-2.74v-5.3h1.67Z"/>
    <path class="st20" d="M571.35,84.68c-.91,0-1.72-.18-2.41-.55-.7-.37-1.24-.94-1.64-1.71s-.6-1.76-.6-2.96.21-2.27.62-3.06c.41-.79.98-1.36,1.7-1.73.72-.37,1.54-.55,2.45-.55.51,0,1,.05,1.49.16.49.11.88.24,1.19.39l-.51,1.39c-.3-.11-.66-.22-1.06-.32-.41-.1-.79-.15-1.14-.15-2,0-3,1.29-3,3.86,0,1.23.24,2.17.73,2.82s1.21.98,2.18.98c.54,0,1.03-.06,1.46-.17.43-.11.82-.25,1.18-.42v1.48c-.34.18-.72.31-1.13.41-.41.1-.91.14-1.49.14Z"/>
    <path class="st20" d="M580.06,83.31c.25,0,.51-.02.78-.06s.48-.09.65-.15v1.27c-.18.09-.43.16-.76.22s-.65.09-.95.09c-.53,0-1.02-.09-1.47-.28-.45-.18-.81-.5-1.09-.96s-.42-1.1-.42-1.92v-5.93h-1.44v-.8l1.46-.67.67-2.17h.99v2.34h2.95v1.29h-2.95v5.89c0,.62.15,1.08.45,1.38.3.3.68.45,1.15.45Z"/>
    <path class="st20" d="M592.31,74.31v10.18h-1.37l-.25-1.35h-.08c-.33.53-.79.92-1.37,1.17-.58.25-1.2.37-1.86.37-1.23,0-2.15-.29-2.77-.88-.62-.59-.93-1.53-.93-2.82v-6.67h1.69v6.56c0,1.62.75,2.43,2.26,2.43,1.13,0,1.91-.32,2.35-.95.44-.63.66-1.55.66-2.74v-5.3h1.67Z"/>
    <path class="st20" d="M600.56,74.12c.19,0,.39,0,.61.03.22.02.41.05.59.09l-.21,1.54c-.16-.04-.35-.07-.55-.09-.2-.03-.39-.04-.55-.04-.52,0-1.01.14-1.46.43-.46.28-.82.68-1.09,1.2s-.41,1.11-.41,1.8v5.43h-1.67v-10.18h1.37l.19,1.86h.08c.32-.56.74-1.04,1.26-1.44.53-.41,1.14-.61,1.85-.61Z"/>
    <path class="st20" d="M607.8,74.14c1.24,0,2.16.27,2.75.82.6.54.89,1.41.89,2.6v6.94h-1.22l-.32-1.44h-.08c-.44.56-.91.97-1.41,1.23-.49.27-1.17.4-2.01.4-.92,0-1.69-.24-2.3-.73-.61-.49-.91-1.25-.91-2.29s.4-1.8,1.2-2.35c.8-.55,2.03-.85,3.69-.9l1.73-.06v-.61c0-.85-.18-1.44-.55-1.77-.37-.33-.89-.49-1.56-.49-.53,0-1.04.08-1.52.24-.48.16-.93.34-1.35.54l-.51-1.25c.44-.24.97-.45,1.58-.62.61-.17,1.24-.26,1.9-.26ZM609.79,79.51l-1.5.06c-1.27.05-2.14.25-2.63.61-.49.35-.73.85-.73,1.5,0,.57.17.99.52,1.25.35.27.79.4,1.34.4.85,0,1.56-.24,2.14-.71s.86-1.21.86-2.19v-.91Z"/>
    <path class="st20" d="M616.55,84.49h-1.67v-14.44h1.67v14.44Z"/>
  </g>
  <g>
    <path class="st20" d="M552.22,109.5h-1.71v-12.06h-4.24v-1.5h10.17v1.5h-4.22v12.06Z"/>
    <path class="st20" d="M563.3,99.12c.19,0,.39,0,.61.03.22.02.41.05.59.09l-.21,1.54c-.16-.04-.35-.07-.55-.09s-.39-.04-.55-.04c-.52,0-1.01.14-1.46.43-.46.28-.82.68-1.09,1.2s-.41,1.11-.41,1.8v5.43h-1.67v-10.18h1.37l.19,1.86h.08c.32-.56.74-1.04,1.26-1.44.53-.41,1.14-.61,1.85-.61Z"/>
    <path class="st20" d="M570.61,99.12c.86,0,1.61.19,2.24.57.63.38,1.12.92,1.45,1.61.34.69.5,1.5.5,2.42v1.01h-6.97c.03,1.15.32,2.03.88,2.63.56.6,1.35.9,2.37.9.65,0,1.22-.06,1.72-.18.5-.12,1.02-.29,1.55-.52v1.46c-.52.23-1.03.4-1.54.5-.51.11-1.11.16-1.8.16-.98,0-1.83-.2-2.56-.59-.73-.39-1.31-.98-1.72-1.75-.41-.77-.62-1.73-.62-2.87s.19-2.07.56-2.87c.37-.8.9-1.41,1.58-1.84.68-.43,1.47-.65,2.37-.65ZM570.59,100.49c-.8,0-1.43.26-1.89.77-.46.51-.74,1.23-.83,2.14h5.19c-.01-.86-.22-1.56-.61-2.1-.39-.54-1.01-.81-1.86-.81Z"/>
    <path class="st20" d="M582.58,99.12c1.22,0,2.13.3,2.76.89.62.6.93,1.55.93,2.85v6.63h-1.65v-6.52c0-1.63-.76-2.45-2.28-2.45-1.13,0-1.91.32-2.34.95-.43.63-.65,1.55-.65,2.74v5.28h-1.67v-10.18h1.35l.25,1.39h.09c.33-.53.79-.93,1.37-1.19s1.2-.39,1.84-.39Z"/>
    <path class="st20" d="M593.3,109.69c-1.27,0-2.28-.44-3.04-1.32-.76-.88-1.14-2.19-1.14-3.94s.38-3.07,1.15-3.96,1.78-1.34,3.05-1.34c.79,0,1.43.15,1.93.44.5.29.91.65,1.23,1.06h.11c-.03-.16-.05-.41-.08-.73-.03-.32-.04-.58-.04-.77v-4.07h1.67v14.44h-1.35l-.25-1.37h-.08c-.3.43-.71.8-1.22,1.1-.51.3-1.16.46-1.96.46ZM593.57,108.3c1.08,0,1.83-.29,2.27-.88.44-.59.66-1.48.66-2.67v-.3c0-1.27-.21-2.24-.63-2.92-.42-.68-1.19-1.02-2.32-1.02-.9,0-1.57.36-2.02,1.07-.45.72-.67,1.68-.67,2.88s.22,2.16.67,2.83c.45.67,1.13,1.01,2.04,1.01Z"/>
  </g>
  <g>
    <path class="st20" d="M559.82,129.29c0-1.55.23-3.04.67-4.47.45-1.44,1.16-2.73,2.12-3.89h1.58c-.89,1.19-1.55,2.5-2,3.93-.45,1.43-.67,2.9-.67,4.41s.22,2.91.67,4.32c.45,1.41,1.11,2.71,1.99,3.9h-1.56c-.96-1.11-1.67-2.38-2.12-3.79-.45-1.41-.67-2.88-.67-4.42Z"/>
    <path class="st20" d="M568.75,120.74c.92,0,1.63.37,2.12,1.11.49.74.73,1.78.73,3.13s-.23,2.39-.69,3.14c-.46.75-1.18,1.13-2.16,1.13-.9,0-1.59-.38-2.06-1.13-.48-.75-.71-1.8-.71-3.14s.22-2.38.67-3.13c.44-.74,1.15-1.11,2.11-1.11ZM568.75,121.92c-.48,0-.83.26-1.05.77-.22.51-.33,1.28-.33,2.29s.11,1.78.33,2.3c.22.52.57.78,1.05.78.98,0,1.46-1.03,1.46-3.08s-.49-3.06-1.46-3.06ZM577.43,120.93l-7.52,13.57h-1.46l7.52-13.57h1.46ZM577.05,126.18c.92,0,1.63.37,2.12,1.11.49.74.73,1.78.73,3.13s-.23,2.39-.69,3.14c-.46.75-1.18,1.13-2.16,1.13-.9,0-1.59-.38-2.06-1.13-.47-.75-.71-1.8-.71-3.14s.22-2.38.67-3.13c.44-.74,1.15-1.11,2.11-1.11ZM577.05,127.38c-.48,0-.83.25-1.05.76-.22.51-.33,1.27-.33,2.28s.11,1.8.33,2.31c.22.51.57.77,1.05.77.98,0,1.46-1.03,1.46-3.08s-.49-3.04-1.46-3.04Z"/>
    <path class="st20" d="M586.06,129.29c0,1.53-.23,3.01-.67,4.42-.45,1.41-1.16,2.68-2.12,3.79h-1.56c.87-1.19,1.54-2.49,1.99-3.9.45-1.41.67-2.85.67-4.32s-.22-2.98-.67-4.41c-.45-1.43-1.12-2.74-2-3.93h1.58c.96,1.15,1.67,2.45,2.12,3.89.45,1.44.67,2.93.67,4.47Z"/>
  </g>
  <path class="st22" d="M436.54,396.89h70.87v34.02h-70.87v-34.02ZM436.54,362.87h70.87v34.02h-70.87v-34.02ZM436.54,328.86h70.87v34.02h-70.87v-34.02ZM436.54,294.84h70.87v34.02h-70.87v-34.02ZM436.54,260.83h70.87v34.02h-70.87v-34.02Z"/>
  <path class="st22" d="M1003.46,396.89h70.87v34.02h-70.87v-34.02ZM861.73,396.89h70.87v34.02h-70.87v-34.02ZM720,396.89h70.87v34.02h-70.87v-34.02ZM578.27,396.89h70.87v34.02h-70.87v-34.02ZM1003.46,362.87h70.87v34.02h-70.87v-34.02ZM861.73,362.87h70.87v34.02h-70.87v-34.02ZM720,362.87h70.87v34.02h-70.87v-34.02ZM578.27,362.87h70.87v34.02h-70.87v-34.02ZM1003.46,328.86h70.87v34.02h-70.87v-34.02ZM861.73,328.86h70.87v34.02h-70.87v-34.02ZM720,328.86h70.87v34.02h-70.87v-34.02ZM578.27,328.86h70.87v34.02h-70.87v-34.02ZM1003.46,294.84h70.87v34.02h-70.87v-34.02ZM861.73,294.84h70.87v34.02h-70.87v-34.02ZM720,294.84h70.87v34.02h-70.87v-34.02ZM578.27,294.84h70.87v34.02h-70.87v-34.02ZM1003.46,260.83h70.87v34.02h-70.87v-34.02ZM861.73,260.83h70.87v34.02h-70.87v-34.02ZM720,260.83h70.87v34.02h-70.87v-34.02ZM578.27,260.83h70.87v34.02h-70.87v-34.02Z"/>
  <line class="st2" x1="439.49" y1="362.87" x2="505.93" y2="362.87"/>
  <path class="st6" d="M507.4,362.87h0M436.54,362.87h0"/>
  <line class="st2" x1="510.35" y1="362.87" x2="576.79" y2="362.87"/>
  <path class="st6" d="M578.27,362.87h0M507.4,362.87h0"/>
  <line class="st2" x1="581.22" y1="362.87" x2="647.66" y2="362.87"/>
  <path class="st6" d="M649.13,362.87h0M578.27,362.87h0"/>
  <line class="st2" x1="652.09" y1="362.87" x2="718.52" y2="362.87"/>
  <path class="st6" d="M720,362.87h0M649.13,362.87h0"/>
  <line class="st2" x1="722.95" y1="362.87" x2="789.39" y2="362.87"/>
  <path class="st6" d="M790.87,362.87h0M720,362.87h0"/>
  <line class="st2" x1="793.82" y1="362.87" x2="860.26" y2="362.87"/>
  <path class="st6" d="M861.73,362.87h0M790.87,362.87h0"/>
  <line class="st2" x1="864.69" y1="362.87" x2="931.12" y2="362.87"/>
  <path class="st6" d="M932.6,362.87h0M861.73,362.87h0"/>
  <line class="st2" x1="935.55" y1="362.87" x2="1001.99" y2="362.87"/>
  <path class="st6" d="M1003.46,362.87h0M932.6,362.87h0"/>
  <line class="st2" x1="1006.42" y1="362.87" x2="1072.85" y2="362.87"/>
  <path class="st6" d="M1074.33,362.87h0M1003.46,362.87h0"/>
  <line class="st4" x1="1077.39" y1="362.87" x2="1143.17" y2="362.87"/>
  <path class="st6" d="M1144.7,362.87h0M1074.33,362.87h0"/>
  <line class="st2" x1="439.49" y1="396.89" x2="505.93" y2="396.89"/>
  <path class="st6" d="M507.4,396.89h0M436.54,396.89h0"/>
  <line class="st2" x1="510.35" y1="396.89" x2="576.79" y2="396.89"/>
  <path class="st6" d="M578.27,396.89h0M507.4,396.89h0"/>
  <line class="st2" x1="581.22" y1="396.89" x2="647.66" y2="396.89"/>
  <path class="st6" d="M649.13,396.89h0M578.27,396.89h0"/>
  <line class="st2" x1="652.09" y1="396.89" x2="718.52" y2="396.89"/>
  <path class="st6" d="M720,396.89h0M649.13,396.89h0"/>
  <line class="st2" x1="722.95" y1="396.89" x2="789.39" y2="396.89"/>
  <path class="st6" d="M790.87,396.89h0M720,396.89h0"/>
  <line class="st2" x1="793.82" y1="396.89" x2="860.26" y2="396.89"/>
  <path class="st6" d="M861.73,396.89h0M790.87,396.89h0"/>
  <line class="st2" x1="864.69" y1="396.89" x2="931.12" y2="396.89"/>
  <path class="st6" d="M932.6,396.89h0M861.73,396.89h0"/>
  <line class="st2" x1="935.55" y1="396.89" x2="1001.99" y2="396.89"/>
  <path class="st6" d="M1003.46,396.89h0M932.6,396.89h0"/>
  <line class="st2" x1="1006.42" y1="396.89" x2="1072.85" y2="396.89"/>
  <path class="st6" d="M1074.33,396.89h0M1003.46,396.89h0"/>
  <line class="st4" x1="1077.39" y1="396.89" x2="1143.17" y2="396.89"/>
  <path class="st6" d="M1144.7,396.89h0M1074.33,396.89h0"/>
  <line class="st2" x1="439.49" y1="430.91" x2="505.93" y2="430.91"/>
  <path class="st6" d="M507.4,430.91h0M436.54,430.91h0"/>
  <line class="st2" x1="510.35" y1="430.91" x2="576.79" y2="430.91"/>
  <path class="st6" d="M578.27,430.91h0M507.4,430.91h0"/>
  <line class="st2" x1="581.22" y1="430.91" x2="647.66" y2="430.91"/>
  <path class="st6" d="M649.13,430.91h0M578.27,430.91h0"/>
  <line class="st2" x1="652.09" y1="430.91" x2="718.52" y2="430.91"/>
  <path class="st6" d="M720,430.91h0M649.13,430.91h0"/>
  <line class="st2" x1="722.95" y1="430.91" x2="789.39" y2="430.91"/>
  <path class="st6" d="M790.87,430.91h0M720,430.91h0"/>
  <line class="st2" x1="793.82" y1="430.91" x2="860.26" y2="430.91"/>
  <path class="st6" d="M861.73,430.91h0M790.87,430.91h0"/>
  <line class="st2" x1="864.69" y1="430.91" x2="931.12" y2="430.91"/>
  <path class="st6" d="M932.6,430.91h0M861.73,430.91h0"/>
  <line class="st2" x1="935.55" y1="430.91" x2="1001.99" y2="430.91"/>
  <path class="st6" d="M1003.46,430.91h0M932.6,430.91h0"/>
  <line class="st2" x1="1006.42" y1="430.91" x2="1072.85" y2="430.91"/>
  <path class="st6" d="M1074.33,430.91h0M1003.46,430.91h0"/>
  <line class="st4" x1="1077.39" y1="430.91" x2="1143.17" y2="430.91"/>
  <path class="st6" d="M1144.7,430.91h0M1074.33,430.91h0"/>
  <line class="st7" x1="3.59" y1="362.87" x2="26.8" y2="362.87"/>
  <path class="st6" d="M28.35,362.87h0M.5,362.87h0"/>
  <line class="st5" x1="31.35" y1="362.87" x2="435.03" y2="362.87"/>
  <path class="st6" d="M436.54,362.87h0M28.35,362.87h0"/>
  <line class="st7" x1="3.59" y1="396.89" x2="26.8" y2="396.89"/>
  <path class="st6" d="M28.35,396.89h0M.5,396.89h0"/>
  <line class="st5" x1="31.35" y1="396.89" x2="435.03" y2="396.89"/>
  <path class="st6" d="M436.54,396.89h0M28.35,396.89h0"/>
  <line class="st7" x1="3.59" y1="294.84" x2="26.8" y2="294.84"/>
  <path class="st6" d="M28.35,294.84h0M.5,294.84h0"/>
  <line class="st5" x1="31.35" y1="294.84" x2="435.03" y2="294.84"/>
  <path class="st6" d="M436.54,294.84h0M28.35,294.84h0"/>
  <line class="st2" x1="439.49" y1="294.84" x2="505.93" y2="294.84"/>
  <path class="st6" d="M507.4,294.84h0M436.54,294.84h0"/>
  <line class="st2" x1="510.35" y1="294.84" x2="576.79" y2="294.84"/>
  <path class="st6" d="M578.27,294.84h0M507.4,294.84h0"/>
  <line class="st2" x1="581.22" y1="294.84" x2="647.66" y2="294.84"/>
  <path class="st6" d="M649.13,294.84h0M578.27,294.84h0"/>
  <line class="st2" x1="652.09" y1="294.84" x2="718.52" y2="294.84"/>
  <path class="st6" d="M720,294.84h0M649.13,294.84h0"/>
  <line class="st2" x1="722.95" y1="294.84" x2="789.39" y2="294.84"/>
  <path class="st6" d="M790.87,294.84h0M720,294.84h0"/>
  <line class="st2" x1="793.82" y1="294.84" x2="860.26" y2="294.84"/>
  <path class="st6" d="M861.73,294.84h0M790.87,294.84h0"/>
  <line class="st2" x1="864.69" y1="294.84" x2="931.12" y2="294.84"/>
  <path class="st6" d="M932.6,294.84h0M861.73,294.84h0"/>
  <line class="st2" x1="935.55" y1="294.84" x2="1001.99" y2="294.84"/>
  <path class="st6" d="M1003.46,294.84h0M932.6,294.84h0"/>
  <line class="st2" x1="1006.42" y1="294.84" x2="1072.85" y2="294.84"/>
  <path class="st6" d="M1074.33,294.84h0M1003.46,294.84h0"/>
  <line class="st4" x1="1077.39" y1="294.84" x2="1143.17" y2="294.84"/>
  <path class="st6" d="M1144.7,294.84h0M1074.33,294.84h0"/>
  <line class="st7" x1="3.59" y1="328.86" x2="26.8" y2="328.86"/>
  <path class="st6" d="M28.35,328.86h0M.5,328.86h0"/>
  <line class="st5" x1="31.35" y1="328.86" x2="435.03" y2="328.86"/>
  <path class="st6" d="M436.54,328.86h0M28.35,328.86h0"/>
  <line class="st2" x1="439.49" y1="328.86" x2="505.93" y2="328.86"/>
  <path class="st6" d="M507.4,328.86h0M436.54,328.86h0"/>
  <line class="st2" x1="510.35" y1="328.86" x2="576.79" y2="328.86"/>
  <path class="st6" d="M578.27,328.86h0M507.4,328.86h0"/>
  <line class="st2" x1="581.22" y1="328.86" x2="647.66" y2="328.86"/>
  <path class="st6" d="M649.13,328.86h0M578.27,328.86h0"/>
  <line class="st2" x1="652.09" y1="328.86" x2="718.52" y2="328.86"/>
  <path class="st6" d="M720,328.86h0M649.13,328.86h0"/>
  <line class="st2" x1="722.95" y1="328.86" x2="789.39" y2="328.86"/>
  <path class="st6" d="M790.87,328.86h0M720,328.86h0"/>
  <line class="st2" x1="793.82" y1="328.86" x2="860.26" y2="328.86"/>
  <path class="st6" d="M861.73,328.86h0M790.87,328.86h0"/>
  <line class="st2" x1="864.69" y1="328.86" x2="931.12" y2="328.86"/>
  <path class="st6" d="M932.6,328.86h0M861.73,328.86h0"/>
  <line class="st2" x1="935.55" y1="328.86" x2="1001.99" y2="328.86"/>
  <path class="st6" d="M1003.46,328.86h0M932.6,328.86h0"/>
  <line class="st2" x1="1006.42" y1="328.86" x2="1072.85" y2="328.86"/>
  <path class="st6" d="M1074.33,328.86h0M1003.46,328.86h0"/>
  <line class="st4" x1="1077.39" y1="328.86" x2="1143.17" y2="328.86"/>
  <path class="st6" d="M1144.7,328.86h0M1074.33,328.86h0"/>
  <line class="st3" y1="260.83" x2="28.35" y2="260.83"/>
  <line class="st3" x1="28.35" y1="260.83" x2="436.54" y2="260.83"/>
  <line class="st3" x1="436.54" y1="260.83" x2="507.4" y2="260.83"/>
  <line class="st3" x1="507.4" y1="260.83" x2="578.27" y2="260.83"/>
  <line class="st3" x1="578.27" y1="260.83" x2="649.13" y2="260.83"/>
  <line class="st3" x1="649.13" y1="260.83" x2="720" y2="260.83"/>
  <line class="st3" x1="720" y1="260.83" x2="790.87" y2="260.83"/>
  <line class="st3" x1="790.87" y1="260.83" x2="861.73" y2="260.83"/>
  <line class="st3" x1="861.73" y1="260.83" x2="932.6" y2="260.83"/>
  <line class="st3" x1="932.6" y1="260.83" x2="1003.46" y2="260.83"/>
  <line class="st3" x1="1003.46" y1="260.83" x2="1074.33" y2="260.83"/>
  <line class="st3" x1="1074.33" y1="260.83" x2="1145.2" y2="260.83"/>
  <line class="st7" x1="3.59" y1="430.91" x2="26.8" y2="430.91"/>
  <path class="st6" d="M28.35,430.91h0M.5,430.91h0"/>
  <line class="st5" x1="31.35" y1="430.91" x2="435.03" y2="430.91"/>
  <path class="st6" d="M436.54,430.91h0M28.35,430.91h0"/>
  <g>
    <path class="st20" d="M467.37,247.64h-9.48v-2l3.4-3.44c.68-.71,1.23-1.3,1.65-1.78s.72-.91.91-1.29.29-.8.29-1.24c0-.54-.15-.95-.45-1.22-.3-.27-.7-.4-1.21-.4s-1.03.12-1.52.36c-.49.24-1.01.58-1.56,1.03l-1.56-1.84c.38-.33.79-.64,1.23-.94.44-.3.95-.54,1.53-.72s1.27-.28,2.08-.28c.89,0,1.65.16,2.29.48.64.32,1.13.76,1.48,1.31.35.55.52,1.17.52,1.87,0,.75-.15,1.43-.45,2.05-.3.62-.73,1.24-1.29,1.84-.56.61-1.24,1.28-2.04,2.01l-1.75,1.63v.13h5.91v2.41Z"/>
    <path class="st20" d="M478.16,240.86c0,1.46-.16,2.7-.47,3.74-.31,1.04-.81,1.84-1.51,2.39-.7.56-1.62.84-2.77.84-1.63,0-2.83-.61-3.59-1.84-.76-1.23-1.14-2.94-1.14-5.13,0-1.46.15-2.71.46-3.75.3-1.04.8-1.85,1.5-2.4.7-.56,1.62-.84,2.77-.84,1.62,0,2.82.61,3.59,1.84.77,1.23,1.16,2.95,1.16,5.15ZM471.53,240.86c0,1.55.13,2.71.4,3.49.27.78.76,1.17,1.48,1.17s1.2-.39,1.48-1.16c.28-.77.42-1.94.42-3.5s-.14-2.71-.42-3.5c-.28-.79-.77-1.18-1.48-1.18s-1.22.39-1.48,1.18c-.27.79-.4,1.95-.4,3.5Z"/>
    <path class="st20" d="M489.1,247.64h-9.48v-2l3.4-3.44c.68-.71,1.23-1.3,1.65-1.78s.72-.91.91-1.29.29-.8.29-1.24c0-.54-.15-.95-.45-1.22-.3-.27-.7-.4-1.21-.4s-1.03.12-1.52.36c-.49.24-1.01.58-1.56,1.03l-1.56-1.84c.38-.33.79-.64,1.23-.94.44-.3.95-.54,1.53-.72s1.27-.28,2.08-.28c.89,0,1.65.16,2.29.48.64.32,1.13.76,1.48,1.31.35.55.52,1.17.52,1.87,0,.75-.15,1.43-.45,2.05-.3.62-.73,1.24-1.29,1.84-.56.61-1.24,1.28-2.04,2.01l-1.75,1.63v.13h5.91v2.41Z"/>
    <path class="st20" d="M495.43,238.98c.82,0,1.56.16,2.2.48.65.32,1.16.78,1.53,1.39.37.61.56,1.36.56,2.26,0,1.47-.46,2.63-1.37,3.47-.91.84-2.26,1.26-4.05,1.26-.71,0-1.38-.06-2-.19-.63-.13-1.18-.31-1.64-.55v-2.47c.47.24,1.03.45,1.69.62.66.17,1.28.26,1.86.26.85,0,1.5-.17,1.95-.52.45-.35.67-.89.67-1.62,0-1.37-.91-2.05-2.72-2.05-.35,0-.72.04-1.1.1-.38.07-.7.14-.95.2l-1.14-.61.51-6.92h7.35v2.43h-4.85l-.25,2.66c.21-.04.45-.08.69-.12.25-.04.59-.07,1.04-.07Z"/>
  </g>
  <g>
    <path d="M536.6,247.64h-8.59v-.91l3.9-4.05c.65-.67,1.19-1.27,1.63-1.81.44-.53.78-1.06,1.01-1.6.23-.53.34-1.13.34-1.79,0-.85-.25-1.5-.74-1.97s-1.16-.69-2-.69c-.61,0-1.18.11-1.71.32s-1.06.53-1.58.93l-.59-.76c.56-.46,1.17-.81,1.82-1.06.66-.25,1.34-.38,2.05-.38,1.17,0,2.1.32,2.79.97.7.65,1.04,1.51,1.04,2.6,0,.73-.13,1.41-.39,2.01-.26.61-.63,1.2-1.1,1.79-.48.58-1.04,1.2-1.7,1.86l-3.4,3.48v.06h7.2v.99Z"/>
    <path d="M547.62,240.82c0,2.27-.35,4-1.05,5.21-.7,1.2-1.81,1.81-3.32,1.81s-2.51-.6-3.25-1.79c-.73-1.19-1.1-2.93-1.1-5.22,0-1.38.14-2.59.43-3.64.28-1.04.75-1.86,1.39-2.44s1.49-.87,2.56-.87,1.88.28,2.52.85c.64.57,1.1,1.38,1.4,2.42.29,1.04.44,2.27.44,3.68ZM539.99,240.82c0,2.04.26,3.56.79,4.56.53,1,1.35,1.5,2.48,1.5s1.99-.5,2.5-1.5c.51-1,.77-2.52.77-4.56,0-1.25-.1-2.33-.29-3.23-.2-.9-.53-1.59-1.01-2.06-.47-.48-1.12-.71-1.95-.71s-1.48.24-1.96.72c-.48.48-.82,1.17-1.03,2.07-.2.9-.3,1.97-.3,3.21Z"/>
    <path d="M558.3,247.64h-8.59v-.91l3.9-4.05c.65-.67,1.19-1.27,1.63-1.81.44-.53.78-1.06,1.01-1.6.23-.53.34-1.13.34-1.79,0-.85-.25-1.5-.74-1.97s-1.16-.69-2-.69c-.61,0-1.18.11-1.71.32s-1.06.53-1.58.93l-.59-.76c.56-.46,1.17-.81,1.82-1.06.66-.25,1.34-.38,2.05-.38,1.17,0,2.1.32,2.79.97.7.65,1.04,1.51,1.04,2.6,0,.73-.13,1.41-.39,2.01-.26.61-.63,1.2-1.1,1.79-.48.58-1.04,1.2-1.7,1.86l-3.4,3.48v.06h7.2v.99Z"/>
    <path d="M570.1,244.26h-2.26v3.38h-1.05v-3.38h-6.82v-.87l6.75-9.39h1.12v9.27h2.26v.99ZM566.79,243.27v-5.03c0-.73,0-1.31,0-1.74,0-.42.02-.86.03-1.3h-.04c-.18.29-.34.56-.49.82-.15.25-.33.53-.53.82l-4.65,6.44h5.68Z"/>
  </g>
  <g>
    <path d="M608.46,247.64h-8.59v-.91l3.89-4.05c.65-.67,1.19-1.27,1.63-1.81.44-.53.78-1.06,1.01-1.6.23-.53.34-1.13.34-1.79,0-.85-.25-1.5-.74-1.97s-1.16-.69-2-.69c-.61,0-1.18.11-1.71.32s-1.06.53-1.58.93l-.59-.76c.56-.46,1.17-.81,1.82-1.06.66-.25,1.34-.38,2.05-.38,1.17,0,2.1.32,2.79.97s1.04,1.51,1.04,2.6c0,.73-.13,1.41-.39,2.01s-.63,1.2-1.1,1.79c-.48.58-1.04,1.2-1.7,1.86l-3.4,3.48v.06h7.2v.99Z"/>
    <path d="M619.48,240.82c0,2.27-.35,4-1.05,5.21-.7,1.2-1.81,1.81-3.32,1.81s-2.51-.6-3.25-1.79c-.73-1.19-1.1-2.93-1.1-5.22,0-1.38.14-2.59.43-3.64s.75-1.86,1.39-2.44c.64-.58,1.49-.87,2.55-.87s1.88.28,2.52.85c.64.57,1.11,1.38,1.4,2.42.29,1.04.44,2.27.44,3.68ZM611.84,240.82c0,2.04.26,3.56.79,4.56.53,1,1.35,1.5,2.48,1.5s1.99-.5,2.5-1.5c.51-1,.77-2.52.77-4.56,0-1.25-.1-2.33-.29-3.23s-.53-1.59-1.01-2.06c-.48-.48-1.12-.71-1.95-.71s-1.48.24-1.96.72-.82,1.17-1.03,2.07c-.2.9-.3,1.97-.3,3.21Z"/>
    <path d="M630.16,247.64h-8.59v-.91l3.89-4.05c.65-.67,1.19-1.27,1.63-1.81.44-.53.78-1.06,1.01-1.6.23-.53.34-1.13.34-1.79,0-.85-.25-1.5-.74-1.97s-1.16-.69-2-.69c-.61,0-1.18.11-1.71.32s-1.06.53-1.58.93l-.59-.76c.56-.46,1.17-.81,1.82-1.06.66-.25,1.34-.38,2.05-.38,1.17,0,2.1.32,2.79.97s1.04,1.51,1.04,2.6c0,.73-.13,1.41-.39,2.01s-.63,1.2-1.1,1.79c-.48.58-1.04,1.2-1.7,1.86l-3.4,3.48v.06h7.2v.99Z"/>
    <path d="M640.55,237.21c0,.9-.27,1.63-.8,2.2-.53.57-1.22.93-2.05,1.08v.08c1.06.13,1.88.47,2.43,1.04.56.56.84,1.32.84,2.27,0,1.17-.41,2.12-1.24,2.85-.82.73-2.06,1.1-3.71,1.1-.73,0-1.42-.06-2.04-.19s-1.2-.32-1.72-.57v-1.05c.52.25,1.11.46,1.79.63.67.16,1.33.25,1.98.25,1.29,0,2.25-.28,2.87-.83.62-.55.93-1.29.93-2.23,0-.99-.37-1.69-1.1-2.12s-1.72-.64-2.95-.64h-1.44v-.95h1.46c1.05,0,1.92-.24,2.6-.73.68-.49,1.03-1.2,1.03-2.14,0-.8-.26-1.4-.78-1.81s-1.21-.62-2.07-.62c-.72,0-1.37.11-1.95.32s-1.14.51-1.7.89l-.55-.76c.52-.41,1.13-.74,1.82-1.01.7-.27,1.48-.4,2.36-.4,1.27,0,2.25.3,2.95.9.7.6,1.04,1.41,1.04,2.42Z"/>
  </g>
  <g>
    <path d="M679.28,247.64h-8.59v-.91l3.89-4.05c.65-.67,1.19-1.27,1.63-1.81.44-.53.78-1.06,1.01-1.6.23-.53.34-1.13.34-1.79,0-.85-.25-1.5-.74-1.97s-1.16-.69-2-.69c-.61,0-1.18.11-1.71.32s-1.06.53-1.58.93l-.59-.76c.56-.46,1.17-.81,1.82-1.06.66-.25,1.34-.38,2.05-.38,1.17,0,2.1.32,2.79.97s1.04,1.51,1.04,2.6c0,.73-.13,1.41-.39,2.01s-.63,1.2-1.1,1.79c-.48.58-1.04,1.2-1.7,1.86l-3.4,3.48v.06h7.2v.99Z"/>
    <path d="M690.29,240.82c0,2.27-.35,4-1.05,5.21-.7,1.2-1.81,1.81-3.32,1.81s-2.51-.6-3.25-1.79c-.73-1.19-1.1-2.93-1.1-5.22,0-1.38.14-2.59.43-3.64s.75-1.86,1.39-2.44c.64-.58,1.49-.87,2.55-.87s1.88.28,2.52.85c.64.57,1.11,1.38,1.4,2.42.29,1.04.44,2.27.44,3.68ZM682.66,240.82c0,2.04.26,3.56.79,4.56.53,1,1.35,1.5,2.48,1.5s1.99-.5,2.5-1.5c.51-1,.77-2.52.77-4.56,0-1.25-.1-2.33-.29-3.23s-.53-1.59-1.01-2.06c-.48-.48-1.12-.71-1.95-.71s-1.48.24-1.96.72-.82,1.17-1.03,2.07c-.2.9-.3,1.97-.3,3.21Z"/>
    <path d="M700.97,247.64h-8.59v-.91l3.89-4.05c.65-.67,1.19-1.27,1.63-1.81.44-.53.78-1.06,1.01-1.6.23-.53.34-1.13.34-1.79,0-.85-.25-1.5-.74-1.97s-1.16-.69-2-.69c-.61,0-1.18.11-1.71.32s-1.06.53-1.58.93l-.59-.76c.56-.46,1.17-.81,1.82-1.06.66-.25,1.34-.38,2.05-.38,1.17,0,2.1.32,2.79.97s1.04,1.51,1.04,2.6c0,.73-.13,1.41-.39,2.01s-.63,1.2-1.1,1.79c-.48.58-1.04,1.2-1.7,1.86l-3.4,3.48v.06h7.2v.99Z"/>
    <path d="M711.82,247.64h-8.59v-.91l3.89-4.05c.65-.67,1.19-1.27,1.63-1.81.44-.53.78-1.06,1.01-1.6.23-.53.34-1.13.34-1.79,0-.85-.25-1.5-.74-1.97s-1.16-.69-2-.69c-.61,0-1.18.11-1.71.32s-1.06.53-1.58.93l-.59-.76c.56-.46,1.17-.81,1.82-1.06.66-.25,1.34-.38,2.05-.38,1.17,0,2.1.32,2.79.97s1.04,1.51,1.04,2.6c0,.73-.13,1.41-.39,2.01s-.63,1.2-1.1,1.79c-.48.58-1.04,1.2-1.7,1.86l-3.4,3.48v.06h7.2v.99Z"/>
  </g>
  <g>
    <path d="M753.34,247.64h-8.59v-.91l3.89-4.05c.65-.67,1.19-1.27,1.63-1.81.44-.53.78-1.06,1.01-1.6.23-.53.34-1.13.34-1.79,0-.85-.25-1.5-.74-1.97s-1.16-.69-2-.69c-.61,0-1.18.11-1.71.32s-1.06.53-1.58.93l-.59-.76c.56-.46,1.17-.81,1.82-1.06.66-.25,1.34-.38,2.05-.38,1.17,0,2.1.32,2.79.97s1.04,1.51,1.04,2.6c0,.73-.13,1.41-.39,2.01s-.63,1.2-1.1,1.79c-.48.58-1.04,1.2-1.7,1.86l-3.4,3.48v.06h7.2v.99Z"/>
    <path d="M764.36,240.82c0,2.27-.35,4-1.05,5.21-.7,1.2-1.81,1.81-3.32,1.81s-2.51-.6-3.25-1.79c-.73-1.19-1.1-2.93-1.1-5.22,0-1.38.14-2.59.43-3.64s.75-1.86,1.39-2.44c.64-.58,1.49-.87,2.55-.87s1.88.28,2.52.85c.64.57,1.11,1.38,1.4,2.42.29,1.04.44,2.27.44,3.68ZM756.72,240.82c0,2.04.26,3.56.79,4.56.53,1,1.35,1.5,2.48,1.5s1.99-.5,2.5-1.5c.51-1,.77-2.52.77-4.56,0-1.25-.1-2.33-.29-3.23s-.53-1.59-1.01-2.06c-.48-.48-1.12-.71-1.95-.71s-1.48.24-1.96.72-.82,1.17-1.03,2.07c-.2.9-.3,1.97-.3,3.21Z"/>
    <path d="M775.04,247.64h-8.59v-.91l3.89-4.05c.65-.67,1.19-1.27,1.63-1.81.44-.53.78-1.06,1.01-1.6.23-.53.34-1.13.34-1.79,0-.85-.25-1.5-.74-1.97s-1.16-.69-2-.69c-.61,0-1.18.11-1.71.32s-1.06.53-1.58.93l-.59-.76c.56-.46,1.17-.81,1.82-1.06.66-.25,1.34-.38,2.05-.38,1.17,0,2.1.32,2.79.97s1.04,1.51,1.04,2.6c0,.73-.13,1.41-.39,2.01s-.63,1.2-1.1,1.79c-.48.58-1.04,1.2-1.7,1.86l-3.4,3.48v.06h7.2v.99Z"/>
    <path d="M782.69,247.64h-1.06v-11.43c0-.35.01-.68.04-1-.18.18-.34.33-.49.46-.15.13-.36.29-.61.49l-1.9,1.44-.57-.76,3.69-2.77h.91v13.57Z"/>
  </g>
  <g>
    <path d="M820.86,247.64h-8.59v-.91l3.89-4.05c.65-.67,1.19-1.27,1.63-1.81.44-.53.78-1.06,1.01-1.6.23-.53.34-1.13.34-1.79,0-.85-.25-1.5-.74-1.97s-1.16-.69-2-.69c-.61,0-1.18.11-1.71.32s-1.06.53-1.58.93l-.59-.76c.56-.46,1.17-.81,1.82-1.06.66-.25,1.34-.38,2.05-.38,1.17,0,2.1.32,2.79.97s1.04,1.51,1.04,2.6c0,.73-.13,1.41-.39,2.01s-.63,1.2-1.1,1.79c-.48.58-1.04,1.2-1.7,1.86l-3.4,3.48v.06h7.2v.99Z"/>
    <path d="M831.88,240.82c0,2.27-.35,4-1.05,5.21-.7,1.2-1.81,1.81-3.32,1.81s-2.51-.6-3.25-1.79c-.73-1.19-1.1-2.93-1.1-5.22,0-1.38.14-2.59.43-3.64s.75-1.86,1.39-2.44c.64-.58,1.49-.87,2.55-.87s1.88.28,2.52.85c.64.57,1.11,1.38,1.4,2.42.29,1.04.44,2.27.44,3.68ZM824.25,240.82c0,2.04.26,3.56.79,4.56.53,1,1.35,1.5,2.48,1.5s1.99-.5,2.5-1.5c.51-1,.77-2.52.77-4.56,0-1.25-.1-2.33-.29-3.23s-.53-1.59-1.01-2.06c-.48-.48-1.12-.71-1.95-.71s-1.48.24-1.96.72-.82,1.17-1.03,2.07c-.2.9-.3,1.97-.3,3.21Z"/>
    <path d="M842.56,247.64h-8.59v-.91l3.89-4.05c.65-.67,1.19-1.27,1.63-1.81.44-.53.78-1.06,1.01-1.6.23-.53.34-1.13.34-1.79,0-.85-.25-1.5-.74-1.97s-1.16-.69-2-.69c-.61,0-1.18.11-1.71.32s-1.06.53-1.58.93l-.59-.76c.56-.46,1.17-.81,1.82-1.06.66-.25,1.34-.38,2.05-.38,1.17,0,2.1.32,2.79.97s1.04,1.51,1.04,2.6c0,.73-.13,1.41-.39,2.01s-.63,1.2-1.1,1.79c-.48.58-1.04,1.2-1.7,1.86l-3.4,3.48v.06h7.2v.99Z"/>
    <path d="M853.58,240.82c0,2.27-.35,4-1.05,5.21-.7,1.2-1.81,1.81-3.32,1.81s-2.51-.6-3.25-1.79c-.73-1.19-1.1-2.93-1.1-5.22,0-1.38.14-2.59.43-3.64s.75-1.86,1.39-2.44c.64-.58,1.49-.87,2.55-.87s1.88.28,2.52.85c.64.57,1.11,1.38,1.4,2.42.29,1.04.44,2.27.44,3.68ZM845.94,240.82c0,2.04.26,3.56.79,4.56.53,1,1.35,1.5,2.48,1.5s1.99-.5,2.5-1.5c.51-1,.77-2.52.77-4.56,0-1.25-.1-2.33-.29-3.23s-.53-1.59-1.01-2.06c-.48-.48-1.12-.71-1.95-.71s-1.48.24-1.96.72-.82,1.17-1.03,2.07c-.2.9-.3,1.97-.3,3.21Z"/>
  </g>
  <g>
    <path d="M891.81,247.64h-8.59v-.91l3.89-4.05c.65-.67,1.19-1.27,1.63-1.81.44-.53.78-1.06,1.01-1.6.23-.53.34-1.13.34-1.79,0-.85-.25-1.5-.74-1.97s-1.16-.69-2-.69c-.61,0-1.18.11-1.71.32s-1.06.53-1.58.93l-.59-.76c.56-.46,1.17-.81,1.82-1.06.66-.25,1.34-.38,2.05-.38,1.17,0,2.1.32,2.79.97s1.04,1.51,1.04,2.6c0,.73-.13,1.41-.39,2.01s-.63,1.2-1.1,1.79c-.48.58-1.04,1.2-1.7,1.86l-3.4,3.48v.06h7.2v.99Z"/>
    <path d="M902.83,240.82c0,2.27-.35,4-1.05,5.21-.7,1.2-1.81,1.81-3.32,1.81s-2.51-.6-3.25-1.79c-.73-1.19-1.1-2.93-1.1-5.22,0-1.38.14-2.59.43-3.64s.75-1.86,1.39-2.44c.64-.58,1.49-.87,2.55-.87s1.88.28,2.52.85c.64.57,1.11,1.38,1.4,2.42.29,1.04.44,2.27.44,3.68ZM895.19,240.82c0,2.04.26,3.56.79,4.56.53,1,1.35,1.5,2.48,1.5s1.99-.5,2.5-1.5c.51-1,.77-2.52.77-4.56,0-1.25-.1-2.33-.29-3.23s-.53-1.59-1.01-2.06c-.48-.48-1.12-.71-1.95-.71s-1.48.24-1.96.72-.82,1.17-1.03,2.07c-.2.9-.3,1.97-.3,3.21Z"/>
    <path d="M910.32,247.64h-1.06v-11.43c0-.35.01-.68.04-1-.18.18-.34.33-.49.46-.15.13-.36.29-.61.49l-1.9,1.44-.57-.76,3.69-2.77h.91v13.57Z"/>
    <path d="M924.43,239.83c0,1.62-.21,3.03-.62,4.24-.41,1.2-1.06,2.13-1.94,2.79-.88.66-2.02.99-3.41.99-.3,0-.63-.02-.99-.06-.36-.04-.65-.09-.87-.17v-.97c.51.19,1.13.28,1.86.28,1.62,0,2.83-.55,3.61-1.66.79-1.11,1.21-2.68,1.27-4.7h-.08c-.27.49-.7.94-1.29,1.33-.6.39-1.38.59-2.34.59-1.2,0-2.16-.36-2.86-1.09-.7-.73-1.05-1.73-1.05-3.01,0-.9.17-1.69.51-2.37.34-.68.83-1.2,1.45-1.58s1.38-.56,2.25-.56c.98,0,1.8.25,2.46.76.67.51,1.17,1.21,1.51,2.1s.51,1.92.51,3.09ZM919.95,234.84c-.96,0-1.73.3-2.29.91s-.84,1.48-.84,2.62c0,1.01.25,1.81.76,2.38s1.27.85,2.28.85c.7,0,1.3-.14,1.82-.42.52-.28.92-.63,1.2-1.05.28-.42.42-.85.42-1.26,0-.39-.06-.82-.17-1.28s-.3-.9-.56-1.32-.6-.76-1.03-1.03c-.42-.27-.95-.4-1.59-.4Z"/>
  </g>
  <g>
    <path d="M962.64,247.64h-8.59v-.91l3.89-4.05c.65-.67,1.19-1.27,1.63-1.81.44-.53.78-1.06,1.01-1.6.23-.53.34-1.13.34-1.79,0-.85-.25-1.5-.74-1.97s-1.16-.69-2-.69c-.61,0-1.18.11-1.71.32s-1.06.53-1.58.93l-.59-.76c.56-.46,1.17-.81,1.82-1.06.66-.25,1.34-.38,2.05-.38,1.17,0,2.1.32,2.79.97s1.04,1.51,1.04,2.6c0,.73-.13,1.41-.39,2.01s-.63,1.2-1.1,1.79c-.48.58-1.04,1.2-1.7,1.86l-3.4,3.48v.06h7.2v.99Z"/>
    <path d="M973.66,240.82c0,2.27-.35,4-1.05,5.21-.7,1.2-1.81,1.81-3.32,1.81s-2.51-.6-3.25-1.79c-.73-1.19-1.1-2.93-1.1-5.22,0-1.38.14-2.59.43-3.64s.75-1.86,1.39-2.44c.64-.58,1.49-.87,2.55-.87s1.88.28,2.52.85c.64.57,1.11,1.38,1.4,2.42.29,1.04.44,2.27.44,3.68ZM966.02,240.82c0,2.04.26,3.56.79,4.56.53,1,1.35,1.5,2.48,1.5s1.99-.5,2.5-1.5c.51-1,.77-2.52.77-4.56,0-1.25-.1-2.33-.29-3.23s-.53-1.59-1.01-2.06c-.48-.48-1.12-.71-1.95-.71s-1.48.24-1.96.72-.82,1.17-1.03,2.07c-.2.9-.3,1.97-.3,3.21Z"/>
    <path d="M981.15,247.64h-1.06v-11.43c0-.35.01-.68.04-1-.18.18-.34.33-.49.46-.15.13-.36.29-.61.49l-1.9,1.44-.57-.76,3.69-2.77h.91v13.57Z"/>
    <path d="M990.97,233.89c1.17,0,2.11.28,2.82.83.71.55,1.07,1.33,1.07,2.35,0,.82-.27,1.5-.81,2.02-.54.53-1.23.97-2.06,1.34.99.41,1.79.89,2.39,1.46.61.57.91,1.33.91,2.28,0,.77-.19,1.43-.56,1.98-.37.54-.89.96-1.54,1.25-.65.29-1.4.44-2.23.44-1.33,0-2.38-.32-3.16-.97s-1.17-1.51-1.17-2.6c0-.66.14-1.23.42-1.7.28-.48.66-.88,1.14-1.22s1.03-.62,1.63-.86c-.51-.24-.97-.51-1.38-.81-.41-.3-.74-.66-.99-1.08-.25-.42-.37-.93-.37-1.51,0-.66.17-1.23.5-1.71s.79-.85,1.38-1.1c.58-.25,1.25-.38,2-.38ZM987.72,244.26c0,.8.28,1.44.84,1.94.56.49,1.35.74,2.37.74s1.82-.24,2.41-.73c.59-.49.89-1.16.89-2.02,0-.73-.26-1.35-.79-1.83-.53-.49-1.26-.9-2.21-1.24l-.42-.15c-.94.34-1.69.76-2.25,1.26s-.84,1.18-.84,2.04ZM990.97,234.8c-.81,0-1.48.2-2.01.61s-.8.98-.8,1.71.27,1.33.81,1.76c.54.42,1.23.79,2.08,1.11.85-.35,1.52-.75,2-1.18.49-.43.73-1.01.73-1.73s-.25-1.3-.76-1.69c-.51-.39-1.19-.59-2.05-.59Z"/>
  </g>
  <g>
    <path d="M1033.4,247.64h-8.59v-.91l3.89-4.05c.65-.67,1.19-1.27,1.63-1.81.44-.53.78-1.06,1.01-1.6.23-.53.34-1.13.34-1.79,0-.85-.25-1.5-.74-1.97s-1.16-.69-2-.69c-.61,0-1.18.11-1.71.32s-1.06.53-1.58.93l-.59-.76c.56-.46,1.17-.81,1.82-1.06.66-.25,1.34-.38,2.05-.38,1.17,0,2.1.32,2.79.97s1.04,1.51,1.04,2.6c0,.73-.13,1.41-.39,2.01s-.63,1.2-1.1,1.79c-.48.58-1.04,1.2-1.7,1.86l-3.4,3.48v.06h7.2v.99Z"/>
    <path d="M1044.42,240.82c0,2.27-.35,4-1.05,5.21-.7,1.2-1.81,1.81-3.32,1.81s-2.51-.6-3.25-1.79c-.73-1.19-1.1-2.93-1.1-5.22,0-1.38.14-2.59.43-3.64s.75-1.86,1.39-2.44c.64-.58,1.49-.87,2.55-.87s1.88.28,2.52.85c.64.57,1.11,1.38,1.4,2.42.29,1.04.44,2.27.44,3.68ZM1036.78,240.82c0,2.04.26,3.56.79,4.56.53,1,1.35,1.5,2.48,1.5s1.99-.5,2.5-1.5c.51-1,.77-2.52.77-4.56,0-1.25-.1-2.33-.29-3.23s-.53-1.59-1.01-2.06c-.48-.48-1.12-.71-1.95-.71s-1.48.24-1.96.72-.82,1.17-1.03,2.07c-.2.9-.3,1.97-.3,3.21Z"/>
    <path d="M1051.9,247.64h-1.06v-11.43c0-.35.01-.68.04-1-.18.18-.34.33-.49.46-.15.13-.36.29-.61.49l-1.9,1.44-.57-.76,3.69-2.77h.91v13.57Z"/>
    <path d="M1059.37,247.64l5.59-12.58h-7.66v-.99h8.83v.8l-5.59,12.77h-1.18Z"/>
  </g>
  <g>
    <path d="M1104.23,247.64h-8.59v-.91l3.89-4.05c.65-.67,1.19-1.27,1.63-1.81.44-.53.78-1.06,1.01-1.6.23-.53.34-1.13.34-1.79,0-.85-.25-1.5-.74-1.97s-1.16-.69-2-.69c-.61,0-1.18.11-1.71.32s-1.06.53-1.58.93l-.59-.76c.56-.46,1.17-.81,1.82-1.06.66-.25,1.34-.38,2.05-.38,1.17,0,2.1.32,2.79.97s1.04,1.51,1.04,2.6c0,.73-.13,1.41-.39,2.01s-.63,1.2-1.1,1.79c-.48.58-1.04,1.2-1.7,1.86l-3.4,3.48v.06h7.2v.99Z"/>
    <path d="M1115.25,240.82c0,2.27-.35,4-1.05,5.21-.7,1.2-1.81,1.81-3.32,1.81s-2.51-.6-3.25-1.79c-.73-1.19-1.1-2.93-1.1-5.22,0-1.38.14-2.59.43-3.64s.75-1.86,1.39-2.44c.64-.58,1.49-.87,2.55-.87s1.88.28,2.52.85c.64.57,1.11,1.38,1.4,2.42.29,1.04.44,2.27.44,3.68ZM1107.61,240.82c0,2.04.26,3.56.79,4.56.53,1,1.35,1.5,2.48,1.5s1.99-.5,2.5-1.5c.51-1,.77-2.52.77-4.56,0-1.25-.1-2.33-.29-3.23s-.53-1.59-1.01-2.06c-.48-.48-1.12-.71-1.95-.71s-1.48.24-1.96.72-.82,1.17-1.03,2.07c-.2.9-.3,1.97-.3,3.21Z"/>
    <path d="M1122.74,247.64h-1.06v-11.43c0-.35.01-.68.04-1-.18.18-.34.33-.49.46-.15.13-.36.29-.61.49l-1.9,1.44-.57-.76,3.69-2.77h.91v13.57Z"/>
    <path d="M1128.34,241.87c0-1.62.21-3.03.62-4.23.41-1.2,1.05-2.12,1.92-2.78.87-.66,2-.99,3.39-.99.7,0,1.29.07,1.79.21v.97c-.23-.09-.49-.15-.8-.19-.3-.04-.62-.06-.95-.06-1.63,0-2.85.55-3.64,1.65-.79,1.1-1.21,2.67-1.26,4.69h.08c.27-.49.69-.94,1.27-1.33.58-.39,1.36-.59,2.32-.59,1.22,0,2.18.36,2.89,1.09.71.73,1.06,1.73,1.06,2.99,0,1.37-.37,2.46-1.11,3.29-.74.82-1.77,1.23-3.09,1.23-.96,0-1.78-.26-2.44-.77-.67-.51-1.17-1.22-1.52-2.11s-.52-1.92-.52-3.09ZM1132.82,246.9c.96,0,1.72-.31,2.28-.92.56-.61.84-1.5.84-2.67,0-.99-.25-1.77-.76-2.34-.51-.57-1.27-.85-2.28-.85-.7,0-1.3.14-1.81.42-.51.28-.91.63-1.19,1.05-.28.42-.42.85-.42,1.26,0,.39.06.82.17,1.28.11.46.3.9.56,1.32.26.42.6.76,1.03,1.04.42.27.95.41,1.59.41Z"/>
  </g>
  <path class="st19" d="M7.5,285.21c4.14,0,7.5-3.36,7.5-7.5s-3.36-7.5-7.5-7.5S0,273.57,0,277.71s3.36,7.5,7.5,7.5"/>
  <g>
    <path d="M37.91,280.96c0,.81-.2,1.49-.61,2.04-.41.55-.96.97-1.67,1.25-.71.28-1.52.43-2.43.43-.81,0-1.52-.06-2.13-.17-.61-.11-1.13-.26-1.56-.44v-1.08c.48.19,1.04.36,1.68.5.64.15,1.33.22,2.08.22,1.04,0,1.88-.23,2.54-.67.65-.45.98-1.12.98-2,0-.53-.12-.97-.37-1.32-.25-.35-.63-.65-1.14-.91s-1.17-.52-1.97-.79c-.76-.27-1.41-.55-1.96-.86-.54-.31-.96-.7-1.25-1.18-.29-.48-.44-1.07-.44-1.8s.19-1.37.56-1.88c.37-.51.89-.89,1.54-1.16s1.4-.4,2.23-.4c.66,0,1.29.06,1.88.19.6.13,1.16.3,1.69.53l-.38.95c-1.06-.46-2.14-.68-3.23-.68-.94,0-1.7.21-2.29.62-.59.41-.88,1.02-.88,1.81,0,.58.13,1.05.38,1.4.25.35.62.64,1.1.88.48.24,1.07.48,1.77.72.8.28,1.49.57,2.06.88.58.31,1.02.69,1.34,1.15.32.46.47,1.04.47,1.77Z"/>
    <path d="M48.5,274.39v10.11h-.89l-.15-1.73h-.06c-.28.54-.71,1-1.28,1.37-.58.37-1.3.55-2.16.55-2.38,0-3.57-1.23-3.57-3.69v-6.61h1.1v6.54c0,.96.22,1.67.65,2.14.43.46,1.08.69,1.94.69,2.23,0,3.34-1.29,3.34-3.86v-5.51h1.08Z"/>
    <path d="M58.2,281.81c0,.92-.34,1.63-1.02,2.13-.68.49-1.64.74-2.9.74-.71,0-1.33-.06-1.87-.19-.54-.13-.99-.28-1.36-.46v-1.04c.44.23.95.42,1.52.56s1.15.22,1.75.22c.99,0,1.7-.17,2.15-.5.44-.34.67-.79.67-1.38s-.23-.98-.69-1.28c-.46-.3-1.16-.6-2.08-.92-.62-.22-1.17-.43-1.64-.65-.48-.22-.85-.5-1.11-.85-.27-.35-.4-.82-.4-1.42,0-.81.33-1.44.99-1.9.66-.46,1.54-.68,2.64-.68.61,0,1.17.06,1.7.18.53.12,1,.27,1.43.45l-.38.89c-.39-.18-.84-.32-1.33-.44-.49-.11-.99-.17-1.48-.17-.8,0-1.42.14-1.86.42-.44.28-.67.68-.67,1.22,0,.41.11.73.32.96s.53.44.93.61c.41.17.9.36,1.48.56.6.2,1.14.42,1.62.65.49.23.87.52,1.16.87.29.35.43.83.43,1.42Z"/>
    <path d="M63.6,283.77c.28,0,.55-.02.81-.07.26-.04.48-.1.66-.16v.87c-.2.08-.44.14-.71.19-.27.05-.57.08-.9.08-.84,0-1.48-.24-1.94-.71s-.68-1.24-.68-2.29v-6.42h-1.5v-.61l1.5-.34.38-2.34h.68v2.41h3.12v.87h-3.12v6.38c0,1.42.57,2.13,1.71,2.13Z"/>
    <path d="M70.78,274.21c1.14,0,1.99.28,2.55.84.56.56.84,1.44.84,2.64v6.8h-.82l-.21-1.71h-.04c-.35.57-.8,1.03-1.33,1.38-.53.35-1.27.52-2.2.52s-1.73-.24-2.29-.72c-.56-.48-.85-1.18-.85-2.11,0-1,.41-1.77,1.23-2.3.82-.53,2.02-.83,3.6-.89l1.84-.1v-.7c0-1-.2-1.71-.6-2.12s-.98-.62-1.76-.62c-.52,0-1.02.07-1.5.2-.48.13-.96.33-1.44.58l-.34-.87c.47-.24.99-.44,1.56-.59.57-.15,1.16-.23,1.77-.23ZM73.1,279.4l-1.71.08c-1.29.05-2.25.27-2.89.66s-.95.97-.95,1.74c0,.62.2,1.09.59,1.42.39.32.93.48,1.61.48,1.05,0,1.87-.3,2.44-.89.58-.6.88-1.43.9-2.51v-.97Z"/>
    <path d="M77.93,270.64c.51,0,.76.27.76.82s-.25.84-.76.84-.72-.28-.72-.84.24-.82.72-.82ZM78.46,274.39v10.11h-1.06v-10.11h1.06Z"/>
    <path d="M86.32,274.2c1.15,0,2.03.3,2.64.89s.91,1.53.91,2.79v6.61h-1.08v-6.54c0-.96-.22-1.67-.66-2.13s-1.08-.68-1.93-.68c-2.23,0-3.34,1.28-3.34,3.84v5.51h-1.06v-10.11h.87l.15,1.75h.08c.27-.56.69-1.02,1.26-1.39.58-.37,1.29-.55,2.16-.55Z"/>
    <path d="M96.7,274.21c1.14,0,1.99.28,2.55.84.56.56.84,1.44.84,2.64v6.8h-.82l-.21-1.71h-.04c-.35.57-.8,1.03-1.33,1.38-.53.35-1.27.52-2.2.52s-1.73-.24-2.29-.72c-.56-.48-.85-1.18-.85-2.11,0-1,.41-1.77,1.23-2.3.82-.53,2.02-.83,3.6-.89l1.84-.1v-.7c0-1-.2-1.71-.6-2.12s-.98-.62-1.76-.62c-.52,0-1.02.07-1.5.2-.48.13-.96.33-1.44.58l-.34-.87c.47-.24.99-.44,1.56-.59.57-.15,1.16-.23,1.77-.23ZM99.02,279.4l-1.71.08c-1.29.05-2.25.27-2.89.66s-.95.97-.95,1.74c0,.62.2,1.09.59,1.42.39.32.93.48,1.61.48,1.05,0,1.87-.3,2.44-.89.58-.6.88-1.43.9-2.51v-.97Z"/>
    <path d="M104.37,270.05v3.99c0,.35,0,.74-.02,1.16s-.03.75-.06,1.01h.08c.25-.57.67-1.05,1.24-1.43.58-.39,1.31-.58,2.19-.58,1.3,0,2.32.44,3.04,1.32.72.88,1.08,2.18,1.08,3.9,0,1.6-.36,2.87-1.09,3.83-.73.96-1.79,1.43-3.18,1.43-.85,0-1.54-.18-2.08-.53s-.93-.79-1.19-1.29h-.09l-.19,1.63h-.82v-14.44h1.08ZM107.68,275.13c-1.18,0-2.02.37-2.54,1.1-.51.73-.77,1.8-.77,3.19v.13c0,1.37.24,2.41.73,3.13.49.72,1.3,1.07,2.42,1.07s1.91-.38,2.46-1.13c.55-.75.83-1.83.83-3.22,0-2.85-1.04-4.28-3.13-4.28Z"/>
    <path d="M115.77,284.49h-1.08v-14.44h1.08v14.44Z"/>
    <path d="M122.94,274.2c.86,0,1.58.2,2.17.6.58.4,1.02.95,1.31,1.64.29.7.44,1.5.44,2.39v.76h-7.22c0,1.33.31,2.35.93,3.07.62.72,1.51,1.07,2.68,1.07.63,0,1.18-.05,1.65-.15.47-.1.98-.28,1.54-.53v.99c-.51.23-1.01.39-1.5.49-.49.1-1.07.15-1.73.15-1.51,0-2.67-.46-3.48-1.39-.81-.92-1.22-2.19-1.22-3.78,0-1.03.17-1.94.52-2.75.35-.8.85-1.43,1.51-1.89.66-.46,1.46-.68,2.39-.68ZM122.92,275.11c-.92,0-1.68.31-2.25.93-.58.62-.92,1.5-1.02,2.64h6.06c0-1.06-.23-1.93-.67-2.58s-1.16-.99-2.12-.99Z"/>
    <path d="M134.75,284.49v-13.57h1.1v12.58h6.35v.99h-7.45Z"/>
    <path d="M144.84,270.64c.51,0,.76.27.76.82s-.25.84-.76.84-.72-.28-.72-.84.24-.82.72-.82ZM145.37,274.39v10.11h-1.06v-10.11h1.06Z"/>
    <path d="M150.92,284.49l-3.88-10.11h1.14l2.51,6.71c.16.42.31.83.45,1.23.13.41.24.77.31,1.08h.08c.09-.32.2-.68.33-1.09.13-.41.28-.82.43-1.23l2.51-6.71h1.16l-3.88,10.11h-1.16Z"/>
    <path d="M158.16,270.64c.51,0,.76.27.76.82s-.25.84-.76.84-.72-.28-.72-.84.24-.82.72-.82ZM158.69,274.39v10.11h-1.06v-10.11h1.06Z"/>
    <path d="M166.56,274.2c1.15,0,2.03.3,2.64.89s.91,1.53.91,2.79v6.61h-1.08v-6.54c0-.96-.22-1.67-.66-2.13s-1.08-.68-1.93-.68c-2.23,0-3.34,1.28-3.34,3.84v5.51h-1.06v-10.11h.87l.15,1.75h.08c.27-.56.69-1.02,1.26-1.39.58-.37,1.29-.55,2.16-.55Z"/>
    <path d="M177.05,274.2c.8,0,1.46.15,1.99.46.53.3.95.73,1.26,1.27h.06l.17-1.54h.87v10.43c0,1.33-.34,2.37-1.02,3.12-.68.75-1.79,1.12-3.33,1.12-.76,0-1.43-.06-2.01-.19-.58-.13-1.12-.29-1.6-.49v-1.04c.48.24,1.03.43,1.64.58.61.15,1.28.22,2,.22,1.1,0,1.92-.29,2.44-.87.53-.58.79-1.37.79-2.38v-.59c0-.27,0-.53.02-.8.01-.27.03-.53.04-.78h-.06c-.28.66-.71,1.15-1.29,1.48-.58.33-1.28.49-2.09.49-1.32,0-2.34-.44-3.07-1.33-.73-.89-1.09-2.17-1.09-3.84s.36-2.93,1.09-3.89,1.79-1.43,3.18-1.43ZM177.16,275.15c-1.09,0-1.91.38-2.45,1.15-.54.77-.82,1.85-.82,3.24s.27,2.43.81,3.15c.54.72,1.32,1.08,2.35,1.08.84,0,1.49-.17,1.97-.51.47-.34.81-.81,1.02-1.41.2-.6.3-1.27.3-2.03v-.65c0-1.29-.24-2.29-.71-2.98-.48-.7-1.3-1.04-2.46-1.04Z"/>
  </g>
  <g>
    <path class="st20" d="M488.84,284.49h-2.87v-7.85c0-.32,0-.74.02-1.28.01-.54.03-1.01.06-1.42-.06.08-.2.21-.41.41-.21.2-.4.37-.58.52l-1.56,1.25-1.39-1.73,4.37-3.48h2.36v13.57Z"/>
    <path class="st20" d="M499.71,284.49h-2.87v-7.85c0-.32,0-.74.02-1.28.01-.54.03-1.01.06-1.42-.06.08-.2.21-.41.41-.21.2-.4.37-.58.52l-1.56,1.25-1.39-1.73,4.37-3.48h2.36v13.57Z"/>
  </g>
  <g>
    <path d="M556.1,284.49h-1.06v-11.43c0-.35.01-.68.04-1-.18.18-.34.33-.49.46-.15.13-.35.29-.61.49l-1.9,1.44-.57-.76,3.69-2.77h.91v13.57Z"/>
    <path d="M570.14,284.49h-8.59v-.91l3.9-4.05c.65-.67,1.19-1.27,1.63-1.81.44-.53.78-1.06,1.01-1.6.23-.53.34-1.13.34-1.79,0-.85-.25-1.5-.74-1.97s-1.16-.69-2-.69c-.61,0-1.18.11-1.71.32s-1.06.53-1.58.93l-.59-.76c.56-.46,1.17-.81,1.82-1.06.66-.25,1.34-.38,2.05-.38,1.17,0,2.1.32,2.79.97.7.65,1.04,1.51,1.04,2.6,0,.73-.13,1.41-.39,2.01-.26.61-.63,1.2-1.1,1.79-.48.58-1.04,1.2-1.7,1.86l-3.4,3.48v.06h7.2v.99Z"/>
  </g>
  <path d="M574.27,278.17h-.62v-6.66c0-.2,0-.4.02-.58-.1.1-.2.19-.29.27-.09.07-.21.17-.36.29l-1.11.84-.33-.44,2.15-1.62h.53v7.91Z"/>
  <path d="M636.49,276.29c1.38,0,2.47.35,3.28,1.04.8.7,1.21,1.68,1.21,2.95,0,1.37-.44,2.44-1.33,3.23-.89.79-2.09,1.18-3.61,1.18-.71,0-1.36-.07-1.95-.21s-1.09-.32-1.51-.55v-1.08c.44.27.97.48,1.59.65.61.16,1.24.25,1.89.25,1.15,0,2.08-.29,2.77-.86.7-.58,1.04-1.42,1.04-2.52,0-.99-.3-1.75-.9-2.3-.6-.54-1.52-.82-2.75-.82-.48,0-.95.03-1.41.09-.46.06-.87.15-1.25.25l-.59-.4.55-6.25h6.57v.99h-5.66l-.38,4.67c.27-.05.6-.11,1.01-.19.41-.08.88-.11,1.42-.11Z"/>
  <path d="M711.82,284.49h-8.59v-.91l3.89-4.05c.65-.67,1.19-1.27,1.63-1.81.44-.53.78-1.06,1.01-1.6.23-.53.34-1.13.34-1.79,0-.85-.25-1.5-.74-1.97s-1.16-.69-2-.69c-.61,0-1.18.11-1.71.32s-1.06.53-1.58.93l-.59-.76c.56-.46,1.17-.81,1.82-1.06.66-.25,1.34-.38,2.05-.38,1.17,0,2.1.32,2.79.97s1.04,1.51,1.04,2.6c0,.73-.13,1.41-.39,2.01s-.63,1.2-1.1,1.79c-.48.58-1.04,1.2-1.7,1.86l-3.4,3.48v.06h7.2v.99Z"/>
  <path d="M782.69,284.49h-1.06v-11.43c0-.35.01-.68.04-1-.18.18-.34.33-.49.46-.15.13-.36.29-.61.49l-1.9,1.44-.57-.76,3.69-2.77h.91v13.57Z"/>
  <path d="M853.56,284.49h-1.06v-11.43c0-.35.01-.68.04-1-.18.18-.34.33-.49.46-.15.13-.36.29-.61.49l-1.9,1.44-.57-.76,3.69-2.77h.91v13.57Z"/>
  <path d="M924.42,277.67c0,2.27-.35,4-1.05,5.21-.7,1.2-1.81,1.81-3.32,1.81s-2.51-.6-3.25-1.79c-.73-1.19-1.1-2.93-1.1-5.22,0-1.38.14-2.59.43-3.64s.75-1.86,1.39-2.44c.64-.58,1.49-.87,2.55-.87s1.88.28,2.52.85c.64.57,1.11,1.38,1.4,2.42.29,1.04.44,2.27.44,3.68ZM916.78,277.67c0,2.04.26,3.56.79,4.56.53,1,1.35,1.5,2.48,1.5s1.99-.5,2.5-1.5c.51-1,.77-2.52.77-4.56,0-1.25-.1-2.33-.29-3.23s-.53-1.59-1.01-2.06c-.48-.48-1.12-.71-1.95-.71s-1.48.24-1.96.72-.82,1.17-1.03,2.07c-.2.9-.3,1.97-.3,3.21Z"/>
  <path d="M930.46,278.17h-5.01v-.53l2.27-2.36c.38-.39.69-.74.95-1.05s.45-.62.59-.93c.13-.31.2-.66.2-1.04,0-.49-.14-.88-.43-1.15s-.68-.4-1.16-.4c-.35,0-.69.06-1,.19-.31.13-.62.31-.92.54l-.34-.44c.33-.27.68-.47,1.06-.62.38-.15.78-.22,1.2-.22.68,0,1.22.19,1.63.56.41.38.61.88.61,1.52,0,.43-.08.82-.23,1.17s-.37.7-.64,1.04c-.28.34-.61.7-.99,1.09l-1.98,2.03v.03h4.2v.58Z"/>
  <path d="M995.29,277.67c0,2.27-.35,4-1.05,5.21-.7,1.2-1.81,1.81-3.32,1.81s-2.51-.6-3.25-1.79c-.73-1.19-1.1-2.93-1.1-5.22,0-1.38.14-2.59.43-3.64s.75-1.86,1.39-2.44c.64-.58,1.49-.87,2.55-.87s1.88.28,2.52.85c.64.57,1.11,1.38,1.4,2.42.29,1.04.44,2.27.44,3.68ZM987.65,277.67c0,2.04.26,3.56.79,4.56.53,1,1.35,1.5,2.48,1.5s1.99-.5,2.5-1.5c.51-1,.77-2.52.77-4.56,0-1.25-.1-2.33-.29-3.23s-.53-1.59-1.01-2.06c-.48-.48-1.12-.71-1.95-.71s-1.48.24-1.96.72-.82,1.17-1.03,2.07c-.2.9-.3,1.97-.3,3.21Z"/>
  <path d="M1001.33,278.17h-5.01v-.53l2.27-2.36c.38-.39.69-.74.95-1.05s.45-.62.59-.93c.13-.31.2-.66.2-1.04,0-.49-.14-.88-.43-1.15s-.68-.4-1.16-.4c-.35,0-.69.06-1,.19-.31.13-.62.31-.92.54l-.34-.44c.33-.27.68-.47,1.06-.62.38-.15.78-.22,1.2-.22.68,0,1.22.19,1.63.56.41.38.61.88.61,1.52,0,.43-.08.82-.23,1.17s-.37.7-.64,1.04c-.28.34-.61.7-.99,1.09l-1.98,2.03v.03h4.2v.58Z"/>
  <path d="M1066.15,277.67c0,2.27-.35,4-1.05,5.21-.7,1.2-1.81,1.81-3.32,1.81s-2.51-.6-3.25-1.79c-.73-1.19-1.1-2.93-1.1-5.22,0-1.38.14-2.59.43-3.64s.75-1.86,1.39-2.44c.64-.58,1.49-.87,2.55-.87s1.88.28,2.52.85c.64.57,1.11,1.38,1.4,2.42.29,1.04.44,2.27.44,3.68ZM1058.51,277.67c0,2.04.26,3.56.79,4.56.53,1,1.35,1.5,2.48,1.5s1.99-.5,2.5-1.5c.51-1,.77-2.52.77-4.56,0-1.25-.1-2.33-.29-3.23s-.53-1.59-1.01-2.06c-.48-.48-1.12-.71-1.95-.71s-1.48.24-1.96.72-.82,1.17-1.03,2.07c-.2.9-.3,1.97-.3,3.21Z"/>
  <path d="M1072.19,278.17h-5.01v-.53l2.27-2.36c.38-.39.69-.74.95-1.05s.45-.62.59-.93c.13-.31.2-.66.2-1.04,0-.49-.14-.88-.43-1.15s-.68-.4-1.16-.4c-.35,0-.69.06-1,.19-.31.13-.62.31-.92.54l-.34-.44c.33-.27.68-.47,1.06-.62.38-.15.78-.22,1.2-.22.68,0,1.22.19,1.63.56.41.38.61.88.61,1.52,0,.43-.08.82-.23,1.17s-.37.7-.64,1.04c-.28.34-.61.7-.99,1.09l-1.98,2.03v.03h4.2v.58Z"/>
  <path d="M1137.02,277.67c0,2.27-.35,4-1.05,5.21-.7,1.2-1.81,1.81-3.32,1.81s-2.51-.6-3.25-1.79c-.73-1.19-1.1-2.93-1.1-5.22,0-1.38.14-2.59.43-3.64s.75-1.86,1.39-2.44c.64-.58,1.49-.87,2.55-.87s1.88.28,2.52.85c.64.57,1.11,1.38,1.4,2.42.29,1.04.44,2.27.44,3.68ZM1129.38,277.67c0,2.04.26,3.56.79,4.56.53,1,1.35,1.5,2.48,1.5s1.99-.5,2.5-1.5c.51-1,.77-2.52.77-4.56,0-1.25-.1-2.33-.29-3.23s-.53-1.59-1.01-2.06c-.48-.48-1.12-.71-1.95-.71s-1.48.24-1.96.72-.82,1.17-1.03,2.07c-.2.9-.3,1.97-.3,3.21Z"/>
  <path d="M1143.06,278.17h-5.01v-.53l2.27-2.36c.38-.39.69-.74.95-1.05s.45-.62.59-.93c.13-.31.2-.66.2-1.04,0-.49-.14-.88-.43-1.15s-.68-.4-1.16-.4c-.35,0-.69.06-1,.19-.31.13-.62.31-.92.54l-.34-.44c.33-.27.68-.47,1.06-.62.38-.15.78-.22,1.2-.22.68,0,1.22.19,1.63.56.41.38.61.88.61,1.52,0,.43-.08.82-.23,1.17s-.37.7-.64,1.04c-.28.34-.61.7-.99,1.09l-1.98,2.03v.03h4.2v.58Z"/>
  <path class="st15" d="M7.5,319.35c4.14,0,7.5-3.36,7.5-7.5s-3.36-7.5-7.5-7.5S0,307.71,0,311.85s3.36,7.5,7.5,7.5"/>
  <g>
    <path d="M119.55,308.34c1.15,0,2.03.3,2.64.89.61.6.91,1.53.91,2.79v6.61h-1.08v-6.54c0-.96-.22-1.67-.66-2.13s-1.08-.68-1.93-.68c-2.23,0-3.34,1.28-3.34,3.84v5.51h-1.06v-10.11h.87l.15,1.75h.08c.27-.56.69-1.02,1.26-1.39.58-.37,1.29-.55,2.16-.55Z"/>
    <path d="M112.27,313.58c0,1.05-.17,1.97-.52,2.75-.35.79-.86,1.4-1.54,1.83-.68.44-1.5.66-2.48.66s-1.74-.22-2.41-.65-1.19-1.04-1.55-1.82c-.36-.79-.54-1.71-.54-2.77,0-1.65.41-2.93,1.23-3.86s1.93-1.39,3.35-1.39c.96,0,1.78.22,2.44.66.67.44,1.17,1.05,1.51,1.83.34.79.51,1.7.51,2.75ZM104.35,313.58c0,1.29.27,2.33.82,3.12.54.79,1.4,1.19,2.56,1.19s2.04-.4,2.59-1.19c.55-.79.83-1.83.83-3.12,0-.84-.11-1.58-.34-2.22-.23-.65-.59-1.15-1.08-1.52s-1.14-.55-1.94-.55c-1.15,0-2.01.38-2.58,1.14-.57.76-.85,1.81-.85,3.15Z"/>
    <path d="M99.94,304.78c.51,0,.76.27.76.82s-.25.84-.76.84-.72-.28-.72-.84.24-.82.72-.82ZM100.47,308.53v10.11h-1.06v-10.11h1.06Z"/>
    <path d="M95.8,317.91c.28,0,.55-.02.81-.07.26-.04.48-.1.66-.16v.87c-.2.08-.44.14-.71.19-.27.05-.57.08-.9.08-.84,0-1.48-.24-1.94-.71s-.68-1.24-.68-2.29v-6.42h-1.5v-.61l1.5-.34.38-2.34h.68v2.41h3.12v.87h-3.12v6.38c0,1.42.57,2.13,1.71,2.13Z"/>
    <path d="M86.33,308.35c1.14,0,1.99.28,2.55.84.56.56.84,1.44.84,2.64v6.8h-.82l-.21-1.71h-.04c-.35.57-.8,1.03-1.33,1.38-.53.35-1.27.52-2.2.52s-1.73-.24-2.29-.72-.85-1.18-.85-2.11c0-1,.41-1.77,1.23-2.3.82-.53,2.02-.83,3.6-.89l1.84-.09v-.7c0-1-.2-1.71-.6-2.12-.4-.41-.98-.62-1.76-.62-.52,0-1.02.07-1.5.2-.48.13-.96.33-1.44.58l-.34-.87c.47-.24.99-.44,1.56-.59.57-.15,1.16-.23,1.77-.23ZM88.65,313.54l-1.71.08c-1.29.05-2.25.27-2.89.66s-.95.97-.95,1.74c0,.62.2,1.09.59,1.42.39.32.93.48,1.61.48,1.05,0,1.87-.3,2.44-.89.58-.59.88-1.43.9-2.51v-.97Z"/>
    <path d="M80.22,315.95c0,.92-.34,1.63-1.02,2.13s-1.64.74-2.9.74c-.71,0-1.33-.06-1.87-.19-.54-.13-.99-.28-1.36-.46v-1.04c.44.23.95.42,1.52.56s1.15.22,1.75.22c.99,0,1.7-.17,2.15-.5.44-.33.67-.79.67-1.38s-.23-.99-.69-1.28c-.46-.3-1.16-.6-2.08-.92-.62-.22-1.17-.43-1.64-.65-.48-.21-.85-.5-1.11-.85-.27-.35-.4-.82-.4-1.42,0-.81.33-1.44.99-1.9.66-.46,1.54-.68,2.64-.68.61,0,1.17.06,1.7.18.53.12,1,.27,1.43.45l-.38.89c-.39-.18-.84-.32-1.33-.44s-.99-.17-1.48-.17c-.8,0-1.42.14-1.86.42s-.67.68-.67,1.22c0,.41.11.73.32.96.22.24.53.44.93.61.41.17.9.36,1.48.56.6.2,1.14.42,1.62.65.49.23.87.52,1.16.87.29.35.43.83.43,1.42Z"/>
    <path d="M69.99,304.78c.51,0,.76.27.76.82s-.25.84-.76.84-.72-.28-.72-.84.24-.82.72-.82ZM70.53,308.53v10.11h-1.06v-10.11h1.06Z"/>
    <path d="M65.85,317.91c.28,0,.55-.02.81-.07.26-.04.48-.1.66-.16v.87c-.2.08-.44.14-.71.19-.27.05-.57.08-.9.08-.84,0-1.48-.24-1.94-.71s-.68-1.24-.68-2.29v-6.42h-1.5v-.61l1.5-.34.38-2.34h.68v2.41h3.12v.87h-3.12v6.38c0,1.42.57,2.13,1.71,2.13Z"/>
    <path d="M59.13,304.78c.51,0,.76.27.76.82s-.25.84-.76.84-.72-.28-.72-.84.24-.82.72-.82ZM59.66,308.53v10.11h-1.06v-10.11h1.06Z"/>
    <path d="M50.9,308.34c.8,0,1.46.15,1.99.46.53.3.95.73,1.26,1.27h.06l.17-1.54h.87v10.43c0,1.33-.34,2.37-1.02,3.12-.68.75-1.79,1.12-3.33,1.12-.76,0-1.43-.06-2.01-.19-.58-.13-1.12-.29-1.6-.49v-1.04c.48.24,1.03.43,1.64.58.61.15,1.28.22,2,.22,1.1,0,1.92-.29,2.44-.87.53-.58.79-1.37.79-2.38v-.59c0-.27,0-.53.02-.8.01-.27.03-.53.04-.78h-.06c-.28.66-.71,1.15-1.29,1.48s-1.28.49-2.09.49c-1.32,0-2.34-.44-3.07-1.33s-1.09-2.17-1.09-3.84.36-2.93,1.09-3.89,1.79-1.43,3.18-1.43ZM51.01,309.29c-1.09,0-1.91.38-2.45,1.15-.54.77-.82,1.85-.82,3.24s.27,2.43.81,3.15c.54.72,1.32,1.08,2.35,1.08.84,0,1.49-.17,1.97-.51.47-.34.81-.81,1.02-1.41.2-.6.3-1.27.3-2.03v-.65c0-1.29-.24-2.29-.71-2.98s-1.3-1.04-2.46-1.04Z"/>
    <path d="M43.34,304.78c.51,0,.76.27.76.82s-.25.84-.76.84-.72-.28-.72-.84.24-.82.72-.82ZM43.87,308.53v10.11h-1.06v-10.11h1.06Z"/>
    <path d="M39.94,311.72c0,2.28-.6,4-1.81,5.17-1.2,1.17-2.96,1.75-5.26,1.75h-3.34v-13.57h3.76c2.15,0,3.8.57,4.94,1.7s1.71,2.78,1.71,4.95ZM38.8,311.76c0-3.81-1.91-5.72-5.72-5.72h-2.45v11.63h2.17c4,0,6-1.97,6-5.91Z"/>
  </g>
  <g>
    <path class="st20" d="M488.83,318.63h-2.87v-7.85c0-.32,0-.74.02-1.28.01-.54.03-1.01.06-1.42-.06.08-.2.21-.41.41s-.4.37-.58.52l-1.56,1.25-1.39-1.73,4.37-3.48h2.36v13.57Z"/>
    <path class="st20" d="M499.7,318.63h-2.87v-7.85c0-.32,0-.74.02-1.28.01-.54.03-1.01.06-1.42-.06.08-.2.21-.41.41s-.4.37-.58.52l-1.56,1.25-1.39-1.73,4.37-3.48h2.36v13.57Z"/>
  </g>
  <g>
    <path d="M559.24,318.63h-1.06v-11.43c0-.35.01-.68.04-1-.18.18-.34.33-.49.46-.15.13-.35.29-.61.49l-1.9,1.44-.57-.76,3.69-2.77h.91v13.57Z"/>
    <path d="M570.09,318.63h-1.06v-11.43c0-.35.01-.68.04-1-.18.18-.34.33-.49.46-.15.13-.35.29-.61.49l-1.9,1.44-.57-.76,3.69-2.77h.91v13.57Z"/>
  </g>
  <g>
    <path d="M626.77,318.63h-1.06v-11.43c0-.35.01-.68.04-1-.18.18-.34.33-.49.46-.15.13-.36.29-.61.49l-1.9,1.44-.57-.76,3.69-2.77h.91v13.57Z"/>
    <path d="M640.98,311.81c0,2.27-.35,4-1.05,5.21-.7,1.2-1.81,1.81-3.32,1.81s-2.51-.6-3.25-1.79-1.1-2.93-1.1-5.23c0-1.38.14-2.59.43-3.64.29-1.04.75-1.86,1.39-2.44.64-.58,1.49-.87,2.55-.87s1.88.29,2.52.86,1.11,1.38,1.4,2.42c.29,1.04.44,2.27.44,3.68ZM633.34,311.81c0,2.04.26,3.56.79,4.56s1.35,1.5,2.48,1.5,1.99-.5,2.5-1.5c.51-1,.77-2.52.77-4.56,0-1.25-.1-2.33-.29-3.23s-.53-1.59-1.01-2.06-1.12-.71-1.95-.71-1.48.24-1.96.72-.82,1.17-1.03,2.07c-.2.9-.3,1.97-.3,3.21Z"/>
  </g>
  <g>
    <path d="M700.98,318.63h-1.06v-11.43c0-.35.01-.68.04-1-.18.18-.34.33-.49.46-.15.13-.36.29-.61.49l-1.9,1.44-.57-.76,3.69-2.77h.91v13.57Z"/>
    <path d="M711.83,318.63h-1.06v-11.43c0-.35.01-.68.04-1-.18.18-.34.33-.49.46-.15.13-.36.29-.61.49l-1.9,1.44-.57-.76,3.69-2.77h.91v13.57Z"/>
  </g>
  <path d="M782.7,310.82c0,1.62-.21,3.03-.62,4.24-.41,1.2-1.06,2.13-1.94,2.79-.88.66-2.02.99-3.41.99-.3,0-.63-.02-.99-.06-.36-.04-.65-.1-.87-.17v-.97c.51.19,1.13.29,1.86.29,1.62,0,2.83-.55,3.61-1.66s1.21-2.68,1.27-4.7h-.08c-.27.49-.7.94-1.29,1.33-.6.39-1.38.59-2.34.59-1.2,0-2.16-.36-2.86-1.09-.7-.73-1.05-1.73-1.05-3.01,0-.9.17-1.69.51-2.37s.83-1.2,1.45-1.58,1.38-.56,2.25-.56c.98,0,1.8.25,2.46.76.67.51,1.17,1.21,1.51,2.1s.51,1.92.51,3.09ZM778.22,305.83c-.96,0-1.73.3-2.29.91-.56.61-.84,1.48-.84,2.62,0,1.01.25,1.81.76,2.38.51.57,1.27.86,2.28.86.7,0,1.3-.14,1.82-.42s.92-.63,1.2-1.05c.28-.42.42-.85.42-1.26,0-.39-.06-.82-.17-1.28-.11-.46-.3-.9-.56-1.32s-.6-.76-1.03-1.03c-.42-.27-.95-.4-1.59-.4Z"/>
  <path d="M846.77,318.63l5.59-12.58h-7.66v-.99h8.83v.8l-5.59,12.77h-1.18Z"/>
  <path d="M915.74,312.86c0-1.62.21-3.03.62-4.23.41-1.2,1.05-2.12,1.92-2.78.87-.66,2-.99,3.39-.99.7,0,1.29.07,1.79.21v.97c-.23-.09-.49-.15-.8-.19-.3-.04-.62-.06-.95-.06-1.63,0-2.85.55-3.64,1.65-.79,1.1-1.21,2.67-1.26,4.69h.08c.27-.49.69-.94,1.27-1.33s1.36-.59,2.32-.59c1.22,0,2.18.36,2.89,1.09s1.06,1.73,1.06,2.99c0,1.37-.37,2.46-1.11,3.29-.74.82-1.77,1.24-3.09,1.24-.96,0-1.78-.26-2.44-.77-.67-.51-1.17-1.22-1.52-2.11s-.52-1.92-.52-3.09ZM920.23,317.89c.96,0,1.72-.31,2.28-.92.56-.61.84-1.5.84-2.67,0-.99-.25-1.77-.76-2.34-.51-.57-1.27-.86-2.28-.86-.7,0-1.3.14-1.81.42-.51.28-.91.63-1.19,1.05-.28.42-.42.85-.42,1.26,0,.39.06.82.17,1.28.11.46.3.9.56,1.32.26.42.6.76,1.03,1.04.42.27.95.41,1.59.41Z"/>
  <path d="M994.88,308.2c0,.9-.27,1.63-.8,2.2-.53.57-1.22.93-2.05,1.08v.08c1.06.13,1.88.47,2.43,1.04.56.56.84,1.32.84,2.27,0,1.17-.41,2.12-1.24,2.85-.82.74-2.06,1.1-3.71,1.1-.73,0-1.42-.06-2.04-.19s-1.2-.32-1.72-.57v-1.04c.52.25,1.11.46,1.79.63.67.17,1.33.25,1.98.25,1.29,0,2.25-.28,2.87-.83.62-.55.93-1.29.93-2.23,0-.99-.37-1.69-1.1-2.12-.73-.42-1.72-.64-2.95-.64h-1.44v-.95h1.46c1.05,0,1.92-.24,2.6-.73.68-.49,1.03-1.2,1.03-2.14,0-.8-.26-1.4-.78-1.81-.52-.41-1.21-.62-2.07-.62-.72,0-1.37.11-1.95.32-.58.22-1.14.51-1.7.89l-.55-.76c.52-.41,1.13-.74,1.82-1.01.7-.27,1.48-.4,2.36-.4,1.27,0,2.25.3,2.95.9.7.6,1.04,1.41,1.04,2.42Z"/>
  <path d="M1065.75,308.2c0,.9-.27,1.63-.8,2.2-.53.57-1.22.93-2.05,1.08v.08c1.06.13,1.88.47,2.43,1.04.56.56.84,1.32.84,2.27,0,1.17-.41,2.12-1.24,2.85-.82.74-2.06,1.1-3.71,1.1-.73,0-1.42-.06-2.04-.19s-1.2-.32-1.72-.57v-1.04c.52.25,1.11.46,1.79.63.67.17,1.33.25,1.98.25,1.29,0,2.25-.28,2.87-.83.62-.55.93-1.29.93-2.23,0-.99-.37-1.69-1.1-2.12-.73-.42-1.72-.64-2.95-.64h-1.44v-.95h1.46c1.05,0,1.92-.24,2.6-.73.68-.49,1.03-1.2,1.03-2.14,0-.8-.26-1.4-.78-1.81-.52-.41-1.21-.62-2.07-.62-.72,0-1.37.11-1.95.32-.58.22-1.14.51-1.7.89l-.55-.76c.52-.41,1.13-.74,1.82-1.01.7-.27,1.48-.4,2.36-.4,1.27,0,2.25.3,2.95.9.7.6,1.04,1.41,1.04,2.42Z"/>
  <path d="M1137.02,318.63h-8.59v-.91l3.89-4.05c.65-.67,1.19-1.27,1.63-1.8.44-.53.78-1.06,1.01-1.6.23-.53.34-1.13.34-1.79,0-.85-.25-1.5-.74-1.97-.49-.46-1.16-.69-2-.69-.61,0-1.18.11-1.71.32-.53.22-1.06.53-1.58.93l-.59-.76c.56-.46,1.17-.81,1.82-1.06.66-.25,1.34-.38,2.05-.38,1.17,0,2.1.32,2.79.97.7.65,1.04,1.51,1.04,2.6,0,.73-.13,1.41-.39,2.01s-.63,1.2-1.1,1.79c-.48.58-1.04,1.2-1.7,1.86l-3.4,3.48v.06h7.2v.99Z"/>
  <path class="st16" d="M7.5,353.37c4.14,0,7.5-3.36,7.5-7.5s-3.36-7.5-7.5-7.5S0,341.72,0,345.87s3.36,7.5,7.5,7.5"/>
  <g>
    <path d="M222.51,342.35c1.15,0,2.03.3,2.64.89.61.6.91,1.53.91,2.79v6.61h-1.08v-6.54c0-.96-.22-1.67-.66-2.13s-1.08-.68-1.93-.68c-2.23,0-3.34,1.28-3.34,3.84v5.51h-1.06v-10.11h.87l.15,1.75h.08c.27-.56.69-1.02,1.26-1.39.58-.37,1.29-.55,2.16-.55Z"/>
    <path d="M215.23,347.6c0,1.05-.17,1.97-.52,2.75-.35.79-.86,1.4-1.54,1.83-.68.44-1.5.66-2.48.66s-1.74-.22-2.41-.65-1.19-1.04-1.55-1.82c-.36-.79-.54-1.71-.54-2.77,0-1.65.41-2.93,1.23-3.86s1.93-1.39,3.35-1.39c.96,0,1.78.22,2.44.66.67.44,1.17,1.05,1.51,1.83.34.79.51,1.7.51,2.75ZM207.31,347.6c0,1.29.27,2.33.82,3.12.54.79,1.4,1.19,2.56,1.19s2.04-.4,2.59-1.19c.55-.79.83-1.83.83-3.12,0-.84-.11-1.58-.34-2.22-.23-.65-.59-1.15-1.08-1.52s-1.14-.55-1.94-.55c-1.15,0-2.01.38-2.58,1.14-.57.76-.85,1.81-.85,3.15Z"/>
    <path d="M202.9,338.8c.51,0,.76.27.76.82s-.25.84-.76.84-.72-.28-.72-.84.24-.82.72-.82ZM203.43,342.54v10.11h-1.06v-10.11h1.06Z"/>
    <path d="M198.76,351.93c.28,0,.55-.02.81-.07.26-.04.48-.1.66-.16v.87c-.2.08-.44.14-.71.19-.27.05-.57.08-.9.08-.84,0-1.48-.24-1.94-.71s-.68-1.24-.68-2.29v-6.42h-1.5v-.61l1.5-.34.38-2.34h.68v2.41h3.12v.87h-3.12v6.38c0,1.42.57,2.13,1.71,2.13Z"/>
    <path d="M189.05,342.35c1.29,0,2.3.43,3.03,1.3.73.87,1.09,2.16,1.09,3.88s-.38,3.04-1.13,3.94c-.75.91-1.78,1.36-3.09,1.36-.9,0-1.62-.19-2.16-.57s-.93-.84-1.19-1.37h-.08c.01.33.03.68.05,1.04s.03.72.03,1.04v4.14h-1.08v-14.59h.89l.13,1.9h.06c.25-.56.66-1.04,1.21-1.46.55-.42,1.29-.63,2.23-.63ZM188.9,343.3c-1.11,0-1.94.35-2.47,1.05-.53.7-.8,1.72-.82,3.05v.19c0,1.44.26,2.52.79,3.24.53.72,1.33,1.07,2.42,1.07s1.84-.39,2.39-1.16c.56-.77.84-1.85.84-3.23s-.26-2.4-.79-3.13c-.53-.73-1.31-1.09-2.37-1.09Z"/>
    <path d="M178.1,342.35c1,0,1.78.29,2.35.85.56.57.85,1.47.85,2.7v6.75h-1.06v-6.69c0-.91-.2-1.58-.61-2.01s-.96-.65-1.67-.65c-.96,0-1.7.28-2.22.84-.52.56-.78,1.43-.78,2.61v5.89h-1.06v-6.69c0-.91-.2-1.58-.61-2.01-.41-.43-.96-.65-1.67-.65-.96,0-1.7.29-2.22.88-.52.59-.78,1.5-.78,2.73v5.74h-1.06v-10.11h.87l.15,1.6h.08c.25-.49.64-.92,1.15-1.26.51-.35,1.17-.52,1.97-.52.73,0,1.35.16,1.86.47.51.32.86.79,1.06,1.42h.08c.28-.61.71-1.08,1.29-1.41.58-.33,1.27-.49,2.05-.49Z"/>
    <path d="M164.18,342.54v10.11h-.89l-.15-1.73h-.06c-.28.54-.71,1-1.28,1.37-.58.37-1.3.55-2.16.55-2.38,0-3.57-1.23-3.57-3.69v-6.61h1.1v6.54c0,.96.22,1.68.65,2.14.43.46,1.08.69,1.94.69,2.23,0,3.34-1.29,3.34-3.86v-5.51h1.08Z"/>
    <path d="M153.67,349.97c0,.92-.34,1.63-1.02,2.13s-1.64.74-2.9.74c-.71,0-1.33-.06-1.87-.19-.54-.13-.99-.28-1.36-.46v-1.04c.44.23.95.42,1.52.56s1.15.22,1.75.22c.99,0,1.7-.17,2.15-.5.44-.33.67-.79.67-1.38s-.23-.99-.69-1.28c-.46-.3-1.16-.6-2.08-.92-.62-.22-1.17-.43-1.64-.65-.48-.21-.85-.5-1.11-.85-.27-.35-.4-.82-.4-1.42,0-.81.33-1.44.99-1.9.66-.46,1.54-.68,2.64-.68.61,0,1.17.06,1.7.18.53.12,1,.27,1.43.45l-.38.89c-.39-.18-.84-.32-1.33-.44s-.99-.17-1.48-.17c-.8,0-1.42.14-1.86.42s-.67.68-.67,1.22c0,.41.11.73.32.96.22.24.53.44.93.61.41.17.9.36,1.48.56.6.2,1.14.42,1.62.65.49.23.87.52,1.16.87.29.35.43.83.43,1.42Z"/>
    <path d="M140.52,342.35c1.15,0,2.03.3,2.64.89.61.6.91,1.53.91,2.79v6.61h-1.08v-6.54c0-.96-.22-1.67-.66-2.13s-1.08-.68-1.93-.68c-2.23,0-3.34,1.28-3.34,3.84v5.51h-1.06v-10.11h.87l.15,1.75h.08c.27-.56.69-1.02,1.26-1.39.58-.37,1.29-.55,2.16-.55Z"/>
    <path d="M133.25,347.6c0,1.05-.17,1.97-.52,2.75-.35.79-.86,1.4-1.54,1.83-.68.44-1.5.66-2.48.66s-1.74-.22-2.41-.65-1.19-1.04-1.55-1.82c-.36-.79-.54-1.71-.54-2.77,0-1.65.41-2.93,1.23-3.86s1.93-1.39,3.35-1.39c.96,0,1.78.22,2.44.66.67.44,1.17,1.05,1.51,1.83.34.79.51,1.7.51,2.75ZM125.32,347.6c0,1.29.27,2.33.82,3.12.54.79,1.4,1.19,2.56,1.19s2.04-.4,2.59-1.19c.55-.79.83-1.83.83-3.12,0-.84-.11-1.58-.34-2.22-.23-.65-.59-1.15-1.08-1.52s-1.14-.55-1.94-.55c-1.15,0-2.01.38-2.58,1.14-.57.76-.85,1.81-.85,3.15Z"/>
    <path d="M118.96,339.88c-1.11,0-2.07.25-2.87.75-.8.5-1.41,1.2-1.83,2.09-.42.89-.64,1.94-.64,3.13s.19,2.27.58,3.17c.39.9.96,1.6,1.72,2.09.76.49,1.71.74,2.85.74.66,0,1.26-.05,1.81-.15.55-.1,1.07-.23,1.57-.38v.95c-.47.18-.99.32-1.55.42s-1.21.15-1.95.15c-1.37,0-2.51-.29-3.43-.87-.92-.58-1.61-1.4-2.07-2.45-.46-1.05-.69-2.28-.69-3.69s.26-2.54.77-3.58c.51-1.04,1.25-1.87,2.22-2.46.97-.59,2.14-.89,3.51-.89s2.52.25,3.57.76l-.44.95c-.99-.48-2.03-.72-3.14-.72Z"/>
    <path d="M106.08,343.42h-2.41v9.23h-1.08v-9.23h-1.86v-.59l1.86-.32v-.99c0-1.17.25-2.02.75-2.58.5-.55,1.26-.83,2.27-.83.35,0,.68.03.97.09.29.06.56.12.8.2l-.25.91c-.23-.08-.47-.14-.73-.19-.26-.05-.52-.08-.79-.08-.68,0-1.18.19-1.48.58-.3.39-.46,1.01-.46,1.87v1.04h2.41v.87Z"/>
    <path d="M99.39,347.6c0,1.05-.17,1.97-.52,2.75-.35.79-.86,1.4-1.54,1.83-.68.44-1.5.66-2.48.66s-1.74-.22-2.41-.65-1.19-1.04-1.55-1.82c-.36-.79-.54-1.71-.54-2.77,0-1.65.41-2.93,1.23-3.86s1.93-1.39,3.35-1.39c.96,0,1.78.22,2.44.66.67.44,1.17,1.05,1.51,1.83.34.79.51,1.7.51,2.75ZM91.46,347.6c0,1.29.27,2.33.82,3.12.54.79,1.4,1.19,2.56,1.19s2.04-.4,2.59-1.19c.55-.79.83-1.83.83-3.12,0-.84-.11-1.58-.34-2.22-.23-.65-.59-1.15-1.08-1.52s-1.14-.55-1.94-.55c-1.15,0-2.01.38-2.58,1.14-.57.76-.85,1.81-.85,3.15Z"/>
    <path d="M79.34,342.35c.86,0,1.58.2,2.17.6.58.4,1.02.95,1.31,1.64.29.7.44,1.49.44,2.39v.76h-7.22c0,1.33.31,2.35.93,3.07.62.72,1.51,1.07,2.68,1.07.63,0,1.18-.05,1.65-.15s.98-.28,1.54-.53v.99c-.51.23-1.01.39-1.5.49-.49.1-1.07.15-1.73.15-1.51,0-2.67-.46-3.48-1.39-.81-.92-1.22-2.18-1.22-3.78,0-1.03.17-1.94.52-2.75.35-.8.85-1.43,1.51-1.89.66-.46,1.46-.68,2.39-.68ZM79.32,343.26c-.92,0-1.68.31-2.25.93-.58.62-.92,1.5-1.02,2.64h6.06c0-1.06-.23-1.92-.67-2.58-.45-.66-1.16-.99-2.12-.99Z"/>
    <path d="M72.16,342.37c.53,0,.99.06,1.37.17l-.15.99c-.2-.05-.41-.09-.61-.11-.2-.02-.42-.04-.65-.04-.94,0-1.68.34-2.21,1.02-.54.68-.81,1.58-.81,2.71v5.55h-1.08v-10.11h.91l.11,1.9h.06c.25-.57.64-1.06,1.15-1.46.51-.41,1.15-.61,1.91-.61Z"/>
    <path d="M64.66,342.54v10.11h-.89l-.15-1.73h-.06c-.28.54-.71,1-1.28,1.37-.58.37-1.3.55-2.16.55-2.38,0-3.57-1.23-3.57-3.69v-6.61h1.1v6.54c0,.96.22,1.68.65,2.14.43.46,1.08.69,1.94.69,2.23,0,3.34-1.29,3.34-3.86v-5.51h1.08Z"/>
    <path d="M53.08,351.93c.28,0,.55-.02.81-.07.26-.04.48-.1.66-.16v.87c-.2.08-.44.14-.71.19-.27.05-.57.08-.9.08-.84,0-1.48-.24-1.94-.71s-.68-1.24-.68-2.29v-6.42h-1.5v-.61l1.5-.34.38-2.34h.68v2.41h3.12v.87h-3.12v6.38c0,1.42.57,2.13,1.71,2.13Z"/>
    <path d="M46.87,342.54v10.11h-.89l-.15-1.73h-.06c-.28.54-.71,1-1.28,1.37-.58.37-1.3.55-2.16.55-2.38,0-3.57-1.23-3.57-3.69v-6.61h1.1v6.54c0,.96.22,1.68.65,2.14.43.46,1.08.69,1.94.69,2.23,0,3.34-1.29,3.34-3.86v-5.51h1.08Z"/>
    <path d="M30.63,352.65h-1.1v-13.57h7.45v.99h-6.35v5.59h6v.99h-6v6Z"/>
  </g>
  <g>
    <path class="st20" d="M488.83,352.65h-2.87v-7.85c0-.32,0-.74.02-1.28.01-.54.03-1.01.06-1.42-.06.08-.2.21-.41.41s-.4.37-.58.52l-1.56,1.25-1.39-1.73,4.37-3.48h2.36v13.57Z"/>
    <path class="st20" d="M499.7,352.65h-2.87v-7.85c0-.32,0-.74.02-1.28.01-.54.03-1.01.06-1.42-.06.08-.2.21-.41.41s-.4.37-.58.52l-1.56,1.25-1.39-1.73,4.37-3.48h2.36v13.57Z"/>
  </g>
  <g>
    <path d="M555.9,352.65h-1.06v-11.43c0-.35.01-.68.04-1-.18.18-.34.33-.49.46-.15.13-.35.29-.61.49l-1.9,1.44-.57-.76,3.69-2.77h.91v13.57Z"/>
    <path d="M570.11,345.83c0,2.27-.35,4-1.05,5.21-.7,1.2-1.81,1.81-3.32,1.81s-2.51-.6-3.25-1.79c-.73-1.19-1.1-2.93-1.1-5.23,0-1.38.14-2.59.43-3.64.28-1.04.75-1.86,1.39-2.44.64-.58,1.49-.87,2.56-.87s1.88.29,2.52.86c.64.57,1.1,1.38,1.4,2.42.29,1.04.44,2.27.44,3.68ZM562.47,345.83c0,2.04.26,3.56.79,4.56.53,1,1.35,1.5,2.48,1.5s1.99-.5,2.5-1.5c.51-1,.77-2.52.77-4.56,0-1.25-.1-2.33-.29-3.23-.2-.9-.53-1.59-1.01-2.06-.47-.48-1.12-.71-1.95-.71s-1.48.24-1.96.72c-.48.48-.82,1.17-1.03,2.07-.2.9-.3,1.97-.3,3.21Z"/>
  </g>
  <g>
    <path d="M630.11,352.65h-1.06v-11.43c0-.35.01-.68.04-1-.18.18-.34.33-.49.46-.15.13-.36.29-.61.49l-1.9,1.44-.57-.76,3.69-2.77h.91v13.57Z"/>
    <path d="M640.96,352.65h-1.06v-11.43c0-.35.01-.68.04-1-.18.18-.34.33-.49.46-.15.13-.36.29-.61.49l-1.9,1.44-.57-.76,3.69-2.77h.91v13.57Z"/>
  </g>
  <g>
    <path d="M700.98,352.65h-1.06v-11.43c0-.35.01-.68.04-1-.18.18-.34.33-.49.46-.15.13-.36.29-.61.49l-1.9,1.44-.57-.76,3.69-2.77h.91v13.57Z"/>
    <path d="M711.83,352.65h-1.06v-11.43c0-.35.01-.68.04-1-.18.18-.34.33-.49.46-.15.13-.36.29-.61.49l-1.9,1.44-.57-.76,3.69-2.77h.91v13.57Z"/>
  </g>
  <g>
    <path d="M767.71,352.65h-1.06v-11.43c0-.35.01-.68.04-1-.18.18-.34.33-.49.46-.15.13-.36.29-.61.49l-1.9,1.44-.57-.76,3.69-2.77h.91v13.57Z"/>
    <path d="M782.7,349.27h-2.26v3.38h-1.04v-3.38h-6.82v-.87l6.75-9.39h1.12v9.27h2.26v.99ZM779.4,348.28v-5.04c0-.73,0-1.31,0-1.74,0-.42.02-.86.03-1.3h-.04c-.18.29-.34.56-.49.82-.15.25-.33.53-.53.82l-4.66,6.44h5.68Z"/>
  </g>
  <g>
    <path d="M842.72,352.65h-1.06v-11.43c0-.35.01-.68.04-1-.18.18-.34.33-.49.46-.15.13-.36.29-.61.49l-1.9,1.44-.57-.76,3.69-2.77h.91v13.57Z"/>
    <path d="M853.57,352.65h-1.06v-11.43c0-.35.01-.68.04-1-.18.18-.34.33-.49.46-.15.13-.36.29-.61.49l-1.9,1.44-.57-.76,3.69-2.77h.91v13.57Z"/>
  </g>
  <path d="M924.44,344.84c0,1.62-.21,3.03-.62,4.24-.41,1.2-1.06,2.13-1.94,2.79-.88.66-2.02.99-3.41.99-.3,0-.63-.02-.99-.06-.36-.04-.65-.1-.87-.17v-.97c.51.19,1.13.29,1.86.29,1.62,0,2.83-.55,3.61-1.66s1.21-2.68,1.27-4.7h-.08c-.27.49-.7.94-1.29,1.33-.6.39-1.38.59-2.34.59-1.2,0-2.16-.36-2.86-1.09-.7-.73-1.05-1.73-1.05-3.01,0-.9.17-1.69.51-2.37s.83-1.2,1.45-1.58,1.38-.56,2.25-.56c.98,0,1.8.25,2.46.76.67.51,1.17,1.21,1.51,2.1s.51,1.92.51,3.09ZM919.96,339.84c-.96,0-1.73.3-2.29.91-.56.61-.84,1.48-.84,2.62,0,1.01.25,1.81.76,2.38.51.57,1.27.86,2.28.86.7,0,1.3-.14,1.82-.42s.92-.63,1.2-1.05c.28-.42.42-.85.42-1.26,0-.39-.06-.82-.17-1.28-.11-.46-.3-.9-.56-1.32s-.6-.76-1.03-1.03c-.42-.27-.95-.4-1.59-.4Z"/>
  <g>
    <path d="M981.1,352.65h-1.06v-11.43c0-.35.01-.68.04-1-.18.18-.34.33-.49.46-.15.13-.36.29-.61.49l-1.9,1.44-.57-.76,3.69-2.77h.91v13.57Z"/>
    <path d="M995.31,345.83c0,2.27-.35,4-1.05,5.21-.7,1.2-1.81,1.81-3.32,1.81s-2.51-.6-3.25-1.79-1.1-2.93-1.1-5.23c0-1.38.14-2.59.43-3.64.29-1.04.75-1.86,1.39-2.44.64-.58,1.49-.87,2.55-.87s1.88.29,2.52.86,1.11,1.38,1.4,2.42c.29,1.04.44,2.27.44,3.68ZM987.68,345.83c0,2.04.26,3.56.79,4.56s1.35,1.5,2.48,1.5,1.99-.5,2.5-1.5c.51-1,.77-2.52.77-4.56,0-1.25-.1-2.33-.29-3.23s-.53-1.59-1.01-2.06-1.12-.71-1.95-.71-1.48.24-1.96.72-.82,1.17-1.03,2.07c-.2.9-.3,1.97-.3,3.21Z"/>
  </g>
  <path d="M1061.85,338.89c1.17,0,2.11.28,2.82.83.71.55,1.07,1.33,1.07,2.35,0,.82-.27,1.5-.81,2.02s-1.23.97-2.06,1.34c.99.41,1.79.89,2.39,1.46.61.57.91,1.33.91,2.28,0,.77-.19,1.43-.56,1.98-.37.54-.89.96-1.54,1.25-.65.29-1.4.44-2.23.44-1.33,0-2.38-.32-3.16-.97-.78-.65-1.17-1.51-1.17-2.6,0-.66.14-1.23.42-1.7.28-.48.66-.88,1.14-1.22.48-.33,1.03-.62,1.63-.86-.51-.24-.97-.51-1.38-.81-.41-.3-.74-.66-.99-1.08-.25-.42-.37-.93-.37-1.51,0-.66.17-1.23.5-1.71.34-.48.79-.85,1.38-1.1.58-.25,1.25-.38,2-.38ZM1058.6,349.27c0,.8.28,1.44.84,1.94s1.35.74,2.37.74,1.82-.24,2.41-.73c.59-.49.89-1.16.89-2.02,0-.73-.26-1.35-.79-1.83-.53-.49-1.26-.9-2.21-1.25l-.42-.15c-.94.34-1.69.76-2.25,1.26-.56.5-.84,1.18-.84,2.04ZM1061.85,339.81c-.81,0-1.48.2-2.01.61-.53.41-.8.98-.8,1.71s.27,1.33.81,1.76c.54.42,1.23.79,2.08,1.11.85-.35,1.52-.75,2-1.18.49-.43.73-1.01.73-1.73s-.25-1.3-.76-1.69c-.51-.39-1.19-.59-2.05-.59Z"/>
  <path d="M1132.72,338.89c1.17,0,2.11.28,2.82.83.71.55,1.07,1.33,1.07,2.35,0,.82-.27,1.5-.81,2.02s-1.23.97-2.06,1.34c.99.41,1.79.89,2.39,1.46.61.57.91,1.33.91,2.28,0,.77-.19,1.43-.56,1.98-.37.54-.89.96-1.54,1.25-.65.29-1.4.44-2.23.44-1.33,0-2.38-.32-3.16-.97-.78-.65-1.17-1.51-1.17-2.6,0-.66.14-1.23.42-1.7.28-.48.66-.88,1.14-1.22.48-.33,1.03-.62,1.63-.86-.51-.24-.97-.51-1.38-.81-.41-.3-.74-.66-.99-1.08-.25-.42-.37-.93-.37-1.51,0-.66.17-1.23.5-1.71.34-.48.79-.85,1.38-1.1.58-.25,1.25-.38,2-.38ZM1129.47,349.27c0,.8.28,1.44.84,1.94s1.35.74,2.37.74,1.82-.24,2.41-.73c.59-.49.89-1.16.89-2.02,0-.73-.26-1.35-.79-1.83-.53-.49-1.26-.9-2.21-1.25l-.42-.15c-.94.34-1.69.76-2.25,1.26-.56.5-.84,1.18-.84,2.04ZM1132.72,339.81c-.81,0-1.48.2-2.01.61-.53.41-.8.98-.8,1.71s.27,1.33.81,1.76c.54.42,1.23.79,2.08,1.11.85-.35,1.52-.75,2-1.18.49-.43.73-1.01.73-1.73s-.25-1.3-.76-1.69c-.51-.39-1.19-.59-2.05-.59Z"/>
  <path class="st14" d="M7.5,387.39c4.14,0,7.5-3.36,7.5-7.5s-3.36-7.5-7.5-7.5S0,375.74,0,379.88s3.36,7.5,7.5,7.5"/>
  <g>
    <path d="M174.59,383.99c0,.92-.34,1.63-1.02,2.13s-1.64.74-2.9.74c-.71,0-1.33-.06-1.87-.19-.54-.13-.99-.28-1.36-.46v-1.04c.44.23.95.42,1.52.56s1.15.22,1.75.22c.99,0,1.7-.17,2.15-.5.44-.33.67-.79.67-1.38s-.23-.99-.69-1.28c-.46-.3-1.16-.6-2.08-.92-.62-.22-1.17-.43-1.64-.65-.48-.21-.85-.5-1.11-.85-.27-.35-.4-.82-.4-1.42,0-.81.33-1.44.99-1.9.66-.46,1.54-.68,2.64-.68.61,0,1.17.06,1.7.18.53.12,1,.27,1.43.45l-.38.89c-.39-.18-.84-.32-1.33-.44s-.99-.17-1.48-.17c-.8,0-1.42.14-1.86.42s-.67.68-.67,1.22c0,.41.11.73.32.96.22.24.53.44.93.61.41.17.9.36,1.48.56.6.2,1.14.42,1.62.65.49.23.87.52,1.16.87.29.35.43.83.43,1.42Z"/>
    <path d="M161.44,376.37c1.15,0,2.03.3,2.64.89.61.6.91,1.53.91,2.79v6.61h-1.08v-6.54c0-.96-.22-1.67-.66-2.13s-1.08-.68-1.93-.68c-2.23,0-3.34,1.28-3.34,3.84v5.51h-1.06v-10.11h.87l.15,1.75h.08c.27-.56.69-1.02,1.26-1.39.58-.37,1.29-.55,2.16-.55Z"/>
    <path d="M150.31,376.39c1.14,0,1.99.28,2.55.84.56.56.84,1.44.84,2.64v6.8h-.82l-.21-1.71h-.04c-.35.57-.8,1.03-1.33,1.38-.53.35-1.27.52-2.2.52s-1.73-.24-2.29-.72-.85-1.18-.85-2.11c0-1,.41-1.77,1.23-2.3.82-.53,2.02-.83,3.6-.89l1.84-.09v-.7c0-1-.2-1.71-.6-2.12-.4-.41-.98-.62-1.76-.62-.52,0-1.02.07-1.5.2-.48.13-.96.33-1.44.58l-.34-.87c.47-.24.99-.44,1.56-.59.57-.15,1.16-.23,1.77-.23ZM152.63,381.57l-1.71.08c-1.29.05-2.25.27-2.89.66s-.95.97-.95,1.74c0,.62.2,1.09.59,1.42.39.32.93.48,1.61.48,1.05,0,1.87-.3,2.44-.89.58-.59.88-1.43.9-2.51v-.97Z"/>
    <path d="M139.88,376.37c1.29,0,2.3.43,3.03,1.3.73.87,1.09,2.16,1.09,3.88s-.38,3.04-1.13,3.94c-.75.91-1.78,1.36-3.09,1.36-.9,0-1.62-.19-2.16-.57s-.93-.84-1.19-1.37h-.08c.01.33.03.68.05,1.04s.03.72.03,1.04v4.14h-1.08v-14.59h.89l.13,1.9h.06c.25-.56.66-1.04,1.21-1.46.55-.42,1.29-.63,2.23-.63ZM139.72,377.32c-1.11,0-1.94.35-2.47,1.05-.53.7-.8,1.72-.82,3.05v.19c0,1.44.26,2.52.79,3.24.53.72,1.33,1.07,2.42,1.07s1.84-.39,2.39-1.16c.56-.77.84-1.85.84-3.23s-.26-2.4-.79-3.13c-.53-.73-1.31-1.09-2.37-1.09Z"/>
    <path d="M132.81,383.99c0,.92-.34,1.63-1.02,2.13s-1.64.74-2.9.74c-.71,0-1.33-.06-1.87-.19-.54-.13-.99-.28-1.36-.46v-1.04c.44.23.95.42,1.52.56s1.15.22,1.75.22c.99,0,1.7-.17,2.15-.5.44-.33.67-.79.67-1.38s-.23-.99-.69-1.28c-.46-.3-1.16-.6-2.08-.92-.62-.22-1.17-.43-1.64-.65-.48-.21-.85-.5-1.11-.85-.27-.35-.4-.82-.4-1.42,0-.81.33-1.44.99-1.9.66-.46,1.54-.68,2.64-.68.61,0,1.17.06,1.7.18.53.12,1,.27,1.43.45l-.38.89c-.39-.18-.84-.32-1.33-.44s-.99-.17-1.48-.17c-.8,0-1.42.14-1.86.42s-.67.68-.67,1.22c0,.41.11.73.32.96.22.24.53.44.93.61.41.17.9.36,1.48.56.6.2,1.14.42,1.62.65.49.23.87.52,1.16.87.29.35.43.83.43,1.42Z"/>
    <path d="M119.81,376.37c.86,0,1.58.2,2.17.6.58.4,1.02.95,1.31,1.64.29.7.44,1.49.44,2.39v.76h-7.22c0,1.33.31,2.35.93,3.07.62.72,1.51,1.07,2.68,1.07.63,0,1.18-.05,1.65-.15s.98-.28,1.54-.53v.99c-.51.23-1.01.39-1.5.49-.49.1-1.07.15-1.73.15-1.51,0-2.67-.46-3.48-1.39-.81-.92-1.22-2.18-1.22-3.78,0-1.03.17-1.94.52-2.75.35-.8.85-1.43,1.51-1.89.66-.46,1.46-.68,2.39-.68ZM119.79,377.28c-.92,0-1.68.31-2.25.93-.58.62-.92,1.5-1.02,2.64h6.06c0-1.06-.23-1.92-.67-2.58-.45-.66-1.16-.99-2.12-.99Z"/>
    <path d="M114.04,377.43h-2.41v9.23h-1.08v-9.23h-1.86v-.59l1.86-.32v-.99c0-1.17.25-2.02.75-2.58.5-.55,1.26-.83,2.27-.83.35,0,.68.03.97.09.29.06.56.12.8.2l-.25.91c-.23-.08-.47-.14-.73-.19-.26-.05-.52-.08-.79-.08-.68,0-1.18.19-1.48.58-.3.39-.46,1.01-.46,1.87v1.04h2.41v.87Z"/>
    <path d="M106.23,372.82c.51,0,.76.27.76.82s-.25.84-.76.84-.72-.28-.72-.84.24-.82.72-.82ZM106.76,376.56v10.11h-1.06v-10.11h1.06Z"/>
    <path d="M96.14,386.67v-13.57h1.1v12.58h6.35v.99h-7.45Z"/>
    <path d="M87.63,376.39c.53,0,.99.06,1.37.17l-.15.99c-.2-.05-.41-.09-.61-.11-.2-.02-.42-.04-.65-.04-.94,0-1.68.34-2.21,1.02-.54.68-.81,1.58-.81,2.71v5.55h-1.08v-10.11h.91l.11,1.9h.06c.25-.57.64-1.06,1.15-1.46.51-.41,1.15-.61,1.91-.61Z"/>
    <path d="M76.83,376.37c.86,0,1.58.2,2.17.6.58.4,1.02.95,1.31,1.64.29.7.44,1.49.44,2.39v.76h-7.22c0,1.33.31,2.35.93,3.07.62.72,1.51,1.07,2.68,1.07.63,0,1.18-.05,1.65-.15s.98-.28,1.54-.53v.99c-.51.23-1.01.39-1.5.49-.49.1-1.07.15-1.73.15-1.51,0-2.67-.46-3.48-1.39-.81-.92-1.22-2.18-1.22-3.78,0-1.03.17-1.94.52-2.75.35-.8.85-1.43,1.51-1.89.66-.46,1.46-.68,2.39-.68ZM76.82,377.28c-.92,0-1.68.31-2.25.93-.58.62-.92,1.5-1.02,2.64h6.06c0-1.06-.23-1.92-.67-2.58-.45-.66-1.16-.99-2.12-.99Z"/>
    <path d="M65.3,376.37c.8,0,1.46.15,1.99.46.53.3.95.73,1.26,1.27h.06l.17-1.54h.87v10.43c0,1.33-.34,2.37-1.02,3.12-.68.75-1.79,1.12-3.33,1.12-.76,0-1.43-.06-2.01-.19-.58-.13-1.12-.29-1.6-.49v-1.04c.48.24,1.03.43,1.64.58.61.15,1.28.22,2,.22,1.1,0,1.92-.29,2.44-.87.53-.58.79-1.37.79-2.38v-.59c0-.27,0-.53.02-.8.01-.27.03-.53.04-.78h-.06c-.28.66-.71,1.15-1.29,1.48s-1.28.49-2.09.49c-1.32,0-2.34-.44-3.07-1.33s-1.09-2.17-1.09-3.84.36-2.93,1.09-3.89,1.79-1.43,3.18-1.43ZM65.42,377.32c-1.09,0-1.91.38-2.45,1.15-.54.77-.82,1.85-.82,3.24s.27,2.43.81,3.15c.54.72,1.32,1.08,2.35,1.08.84,0,1.49-.17,1.97-.51.47-.34.81-.81,1.02-1.41.2-.6.3-1.27.3-2.03v-.65c0-1.29-.24-2.29-.71-2.98s-1.3-1.04-2.46-1.04Z"/>
    <path d="M54.81,376.37c1.15,0,2.03.3,2.64.89.61.6.91,1.53.91,2.79v6.61h-1.08v-6.54c0-.96-.22-1.67-.66-2.13s-1.08-.68-1.93-.68c-2.23,0-3.34,1.28-3.34,3.84v5.51h-1.06v-10.11h.87l.15,1.75h.08c.27-.56.69-1.02,1.26-1.39.58-.37,1.29-.55,2.16-.55Z"/>
    <path d="M47.54,381.61c0,1.05-.17,1.97-.52,2.75-.35.79-.86,1.4-1.54,1.83-.68.44-1.5.66-2.48.66s-1.74-.22-2.41-.65-1.19-1.04-1.55-1.82c-.36-.79-.54-1.71-.54-2.77,0-1.65.41-2.93,1.23-3.86s1.93-1.39,3.35-1.39c.96,0,1.78.22,2.44.66.67.44,1.17,1.05,1.51,1.83.34.79.51,1.7.51,2.75ZM39.61,381.61c0,1.29.27,2.33.82,3.12.54.79,1.4,1.19,2.56,1.19s2.04-.4,2.59-1.19c.55-.79.83-1.83.83-3.12,0-.84-.11-1.58-.34-2.22-.23-.65-.59-1.15-1.08-1.52s-1.14-.55-1.94-.55c-1.15,0-2.01.38-2.58,1.14-.57.76-.85,1.81-.85,3.15Z"/>
    <path d="M29.52,386.67v-13.57h1.1v12.58h6.35v.99h-7.45Z"/>
  </g>
  <path class="st20" d="M495.42,378c.82,0,1.56.16,2.2.47.65.32,1.16.78,1.53,1.39.37.61.56,1.36.56,2.26,0,1.47-.46,2.62-1.37,3.47-.91.84-2.26,1.26-4.05,1.26-.71,0-1.38-.06-2-.19-.63-.13-1.18-.31-1.64-.55v-2.47c.47.24,1.03.45,1.69.62.66.17,1.28.26,1.86.26.85,0,1.5-.17,1.95-.52.45-.35.67-.89.67-1.62,0-1.37-.91-2.05-2.72-2.05-.35,0-.72.04-1.1.1s-.7.14-.95.2l-1.14-.61.51-6.92h7.35v2.43h-4.85l-.25,2.66c.21-.04.45-.08.69-.12.25-.04.59-.07,1.04-.07Z"/>
  <path d="M561.41,380.89c0-1.62.21-3.03.62-4.23.41-1.2,1.05-2.12,1.92-2.78.87-.66,2-.99,3.39-.99.7,0,1.29.07,1.79.21v.97c-.23-.09-.49-.15-.8-.19-.3-.04-.62-.06-.95-.06-1.63,0-2.85.55-3.64,1.65-.79,1.1-1.21,2.67-1.26,4.69h.08c.27-.49.69-.94,1.27-1.33s1.36-.59,2.32-.59c1.22,0,2.18.36,2.89,1.09s1.06,1.73,1.06,2.99c0,1.37-.37,2.46-1.11,3.29s-1.77,1.24-3.09,1.24c-.96,0-1.78-.26-2.44-.77-.67-.51-1.17-1.22-1.52-2.11-.35-.89-.52-1.92-.52-3.09ZM565.9,385.92c.96,0,1.72-.31,2.28-.92.56-.61.84-1.5.84-2.67,0-.99-.25-1.77-.76-2.34-.51-.57-1.27-.86-2.28-.86-.7,0-1.3.14-1.81.42-.51.28-.91.63-1.19,1.05-.28.42-.42.85-.42,1.26,0,.39.06.82.17,1.28.11.46.3.9.56,1.32s.6.76,1.03,1.04c.42.27.95.41,1.59.41Z"/>
  <path d="M636.48,378.46c1.38,0,2.47.35,3.28,1.04.8.7,1.21,1.68,1.21,2.95,0,1.37-.44,2.44-1.33,3.23-.89.79-2.09,1.18-3.61,1.18-.71,0-1.36-.07-1.95-.21-.59-.14-1.09-.32-1.51-.55v-1.08c.44.27.97.48,1.59.65.61.17,1.24.25,1.89.25,1.15,0,2.08-.29,2.77-.86.7-.58,1.04-1.42,1.04-2.52,0-.99-.3-1.75-.9-2.3-.6-.54-1.52-.82-2.75-.82-.48,0-.95.03-1.41.09s-.87.15-1.25.25l-.59-.4.55-6.25h6.57v.99h-5.66l-.38,4.67c.27-.05.6-.11,1.01-.19.41-.08.88-.11,1.42-.11Z"/>
  <path d="M703.15,380.89c0-1.62.21-3.03.62-4.23.41-1.2,1.05-2.12,1.92-2.78.87-.66,2-.99,3.39-.99.7,0,1.29.07,1.79.21v.97c-.23-.09-.49-.15-.8-.19-.3-.04-.62-.06-.95-.06-1.63,0-2.85.55-3.64,1.65-.79,1.1-1.21,2.67-1.26,4.69h.08c.27-.49.69-.94,1.27-1.33s1.36-.59,2.32-.59c1.22,0,2.18.36,2.89,1.09s1.06,1.73,1.06,2.99c0,1.37-.37,2.46-1.11,3.29-.74.82-1.77,1.24-3.09,1.24-.96,0-1.78-.26-2.44-.77-.67-.51-1.17-1.22-1.52-2.11s-.52-1.92-.52-3.09ZM707.63,385.92c.96,0,1.72-.31,2.28-.92.56-.61.84-1.5.84-2.67,0-.99-.25-1.77-.76-2.34-.51-.57-1.27-.86-2.28-.86-.7,0-1.3.14-1.81.42-.51.28-.91.63-1.19,1.05-.28.42-.42.85-.42,1.26,0,.39.06.82.17,1.28.11.46.3.9.56,1.32.26.42.6.76,1.03,1.04.42.27.95.41,1.59.41Z"/>
  <path d="M778.37,372.91c1.17,0,2.11.28,2.82.83.71.55,1.07,1.33,1.07,2.35,0,.82-.27,1.5-.81,2.02s-1.23.97-2.06,1.34c.99.41,1.79.89,2.39,1.46.61.57.91,1.33.91,2.28,0,.77-.19,1.43-.56,1.98-.37.54-.89.96-1.54,1.25-.65.29-1.4.44-2.23.44-1.33,0-2.38-.32-3.16-.97-.78-.65-1.17-1.51-1.17-2.6,0-.66.14-1.23.42-1.7.28-.48.66-.88,1.14-1.22.48-.33,1.03-.62,1.63-.86-.51-.24-.97-.51-1.38-.81-.41-.3-.74-.66-.99-1.08-.25-.42-.37-.93-.37-1.51,0-.66.17-1.23.5-1.71.34-.48.79-.85,1.38-1.1.58-.25,1.25-.38,2-.38ZM775.12,383.28c0,.8.28,1.44.84,1.94s1.35.74,2.37.74,1.82-.24,2.41-.73c.59-.49.89-1.16.89-2.02,0-.73-.26-1.35-.79-1.83-.53-.49-1.26-.9-2.21-1.25l-.42-.15c-.94.34-1.69.76-2.25,1.26-.56.5-.84,1.18-.84,2.04ZM778.37,373.82c-.81,0-1.48.2-2.01.61-.53.41-.8.98-.8,1.71s.27,1.33.81,1.76c.54.42,1.23.79,2.08,1.11.85-.35,1.52-.75,2-1.18.49-.43.73-1.01.73-1.73s-.25-1.3-.76-1.69c-.51-.39-1.19-.59-2.05-.59Z"/>
  <path d="M844.87,380.89c0-1.62.21-3.03.62-4.23.41-1.2,1.05-2.12,1.92-2.78.87-.66,2-.99,3.39-.99.7,0,1.29.07,1.79.21v.97c-.23-.09-.49-.15-.8-.19-.3-.04-.62-.06-.95-.06-1.63,0-2.85.55-3.64,1.65-.79,1.1-1.21,2.67-1.26,4.69h.08c.27-.49.69-.94,1.27-1.33s1.36-.59,2.32-.59c1.22,0,2.18.36,2.89,1.09s1.06,1.73,1.06,2.99c0,1.37-.37,2.46-1.11,3.29-.74.82-1.77,1.24-3.09,1.24-.96,0-1.78-.26-2.44-.77-.67-.51-1.17-1.22-1.52-2.11s-.52-1.92-.52-3.09ZM849.36,385.92c.96,0,1.72-.31,2.28-.92.56-.61.84-1.5.84-2.67,0-.99-.25-1.77-.76-2.34-.51-.57-1.27-.86-2.28-.86-.7,0-1.3.14-1.81.42-.51.28-.91.63-1.19,1.05-.28.42-.42.85-.42,1.26,0,.39.06.82.17,1.28.11.46.3.9.56,1.32.26.42.6.76,1.03,1.04.42.27.95.41,1.59.41Z"/>
  <path d="M919.94,378.46c1.38,0,2.47.35,3.28,1.04.8.7,1.21,1.68,1.21,2.95,0,1.37-.44,2.44-1.33,3.23-.89.79-2.09,1.18-3.61,1.18-.71,0-1.36-.07-1.95-.21-.59-.14-1.09-.32-1.51-.55v-1.08c.44.27.97.48,1.59.65.61.17,1.24.25,1.89.25,1.15,0,2.08-.29,2.77-.86.7-.58,1.04-1.42,1.04-2.52,0-.99-.3-1.75-.9-2.3-.6-.54-1.52-.82-2.75-.82-.48,0-.95.03-1.41.09s-.87.15-1.25.25l-.59-.4.55-6.25h6.57v.99h-5.66l-.38,4.67c.27-.05.6-.11,1.01-.19.41-.08.88-.11,1.42-.11Z"/>
  <path d="M986.61,380.89c0-1.62.21-3.03.62-4.23.41-1.2,1.05-2.12,1.92-2.78.87-.66,2-.99,3.39-.99.7,0,1.29.07,1.79.21v.97c-.23-.09-.49-.15-.8-.19-.3-.04-.62-.06-.95-.06-1.63,0-2.85.55-3.64,1.65-.79,1.1-1.21,2.67-1.26,4.69h.08c.27-.49.69-.94,1.27-1.33s1.36-.59,2.32-.59c1.22,0,2.18.36,2.89,1.09s1.06,1.73,1.06,2.99c0,1.37-.37,2.46-1.11,3.29-.74.82-1.77,1.24-3.09,1.24-.96,0-1.78-.26-2.44-.77-.67-.51-1.17-1.22-1.52-2.11s-.52-1.92-.52-3.09ZM991.1,385.92c.96,0,1.72-.31,2.28-.92.56-.61.84-1.5.84-2.67,0-.99-.25-1.77-.76-2.34-.51-.57-1.27-.86-2.28-.86-.7,0-1.3.14-1.81.42-.51.28-.91.63-1.19,1.05-.28.42-.42.85-.42,1.26,0,.39.06.82.17,1.28.11.46.3.9.56,1.32.26.42.6.76,1.03,1.04.42.27.95.41,1.59.41Z"/>
  <path d="M1065.75,376.23c0,.9-.27,1.63-.8,2.2-.53.57-1.22.93-2.05,1.08v.08c1.06.13,1.88.47,2.43,1.04.56.56.84,1.32.84,2.27,0,1.17-.41,2.12-1.24,2.85-.82.74-2.06,1.1-3.71,1.1-.73,0-1.42-.06-2.04-.19s-1.2-.32-1.72-.57v-1.04c.52.25,1.11.46,1.79.63.67.17,1.33.25,1.98.25,1.29,0,2.25-.28,2.87-.83.62-.55.93-1.29.93-2.23,0-.99-.37-1.69-1.1-2.12-.73-.42-1.72-.64-2.95-.64h-1.44v-.95h1.46c1.05,0,1.92-.24,2.6-.73.68-.49,1.03-1.2,1.03-2.14,0-.8-.26-1.4-.78-1.81-.52-.41-1.21-.62-2.07-.62-.72,0-1.37.11-1.95.32-.58.22-1.14.51-1.7.89l-.55-.76c.52-.41,1.13-.74,1.82-1.01.7-.27,1.48-.4,2.36-.4,1.27,0,2.25.3,2.95.9.7.6,1.04,1.41,1.04,2.42Z"/>
  <path d="M1136.62,376.23c0,.9-.27,1.63-.8,2.2-.53.57-1.22.93-2.05,1.08v.08c1.06.13,1.88.47,2.43,1.04.56.56.84,1.32.84,2.27,0,1.17-.41,2.12-1.24,2.85-.82.74-2.06,1.1-3.71,1.1-.73,0-1.42-.06-2.04-.19s-1.2-.32-1.72-.57v-1.04c.52.25,1.11.46,1.79.63.67.17,1.33.25,1.98.25,1.29,0,2.25-.28,2.87-.83.62-.55.93-1.29.93-2.23,0-.99-.37-1.69-1.1-2.12-.73-.42-1.72-.64-2.95-.64h-1.44v-.95h1.46c1.05,0,1.92-.24,2.6-.73.68-.49,1.03-1.2,1.03-2.14,0-.8-.26-1.4-.78-1.81-.52-.41-1.21-.62-2.07-.62-.72,0-1.37.11-1.95.32-.58.22-1.14.51-1.7.89l-.55-.76c.52-.41,1.13-.74,1.82-1.01.7-.27,1.48-.4,2.36-.4,1.27,0,2.25.3,2.95.9.7.6,1.04,1.41,1.04,2.42Z"/>
  <path class="st17" d="M7.5,421.4c4.14,0,7.5-3.36,7.5-7.5s-3.36-7.5-7.5-7.5S0,409.75,0,413.9s3.36,7.5,7.5,7.5"/>
  <g>
    <path d="M41.74,413.88c0,1.38-.23,2.6-.68,3.65-.46,1.05-1.14,1.87-2.04,2.46-.91.59-2.03.88-3.37.88s-2.5-.29-3.41-.88c-.91-.59-1.58-1.41-2.03-2.47-.45-1.06-.67-2.28-.67-3.66s.23-2.59.69-3.63c.46-1.04,1.15-1.85,2.07-2.44s2.06-.88,3.41-.88,2.4.28,3.3.85,1.57,1.37,2.04,2.4c.47,1.04.7,2.28.7,3.72ZM30.68,413.88c0,1.2.18,2.26.53,3.16.35.91.9,1.61,1.63,2.11.73.5,1.67.75,2.79.75s2.07-.25,2.8-.75c.73-.5,1.27-1.2,1.61-2.1.35-.9.52-1.96.52-3.17,0-1.88-.41-3.34-1.23-4.4-.82-1.06-2.04-1.59-3.66-1.59-1.13,0-2.06.25-2.81.75-.75.5-1.3,1.2-1.66,2.1s-.54,1.94-.54,3.13Z"/>
    <path d="M47.46,419.96c.28,0,.55-.02.81-.07.26-.04.48-.1.66-.16v.87c-.2.08-.44.14-.71.19-.27.05-.57.08-.9.08-.84,0-1.48-.24-1.94-.71s-.68-1.24-.68-2.29v-6.42h-1.5v-.61l1.5-.34.38-2.34h.68v2.41h3.12v.87h-3.12v6.38c0,1.42.57,2.13,1.71,2.13Z"/>
    <path d="M52.13,406.24v4.64c0,.51-.02.99-.06,1.44h.08c.25-.56.67-1.02,1.25-1.39s1.3-.55,2.17-.55c1.15,0,2.04.3,2.65.89.61.6.92,1.53.92,2.79v6.61h-1.08v-6.54c0-.96-.22-1.67-.66-2.13s-1.08-.68-1.93-.68c-2.23,0-3.34,1.28-3.34,3.84v5.51h-1.06v-14.44h1.06Z"/>
    <path d="M66.23,410.38c.86,0,1.58.2,2.17.6.58.4,1.02.95,1.31,1.64.29.7.44,1.49.44,2.39v.76h-7.22c0,1.33.31,2.35.93,3.07.62.72,1.51,1.07,2.68,1.07.63,0,1.18-.05,1.65-.15s.98-.28,1.54-.53v.99c-.51.23-1.01.39-1.5.49-.49.1-1.07.15-1.73.15-1.51,0-2.67-.46-3.48-1.39-.81-.92-1.22-2.18-1.22-3.78,0-1.03.17-1.94.52-2.75.35-.8.85-1.43,1.51-1.89.66-.46,1.46-.68,2.39-.68ZM66.21,411.3c-.92,0-1.68.31-2.25.93-.58.62-.92,1.5-1.02,2.64h6.06c0-1.06-.23-1.92-.67-2.58-.45-.66-1.16-.99-2.12-.99Z"/>
    <path d="M77.02,410.4c.53,0,.99.06,1.37.17l-.15.99c-.2-.05-.41-.09-.61-.11-.2-.02-.42-.04-.65-.04-.94,0-1.68.34-2.21,1.02-.54.68-.81,1.58-.81,2.71v5.55h-1.08v-10.11h.91l.11,1.9h.06c.25-.57.64-1.06,1.15-1.46.51-.41,1.15-.61,1.91-.61Z"/>
    <path d="M86.71,418c0,.92-.34,1.63-1.02,2.13s-1.64.74-2.9.74c-.71,0-1.33-.06-1.87-.19-.54-.13-.99-.28-1.36-.46v-1.04c.44.23.95.42,1.52.56s1.15.22,1.75.22c.99,0,1.7-.17,2.15-.5.44-.33.67-.79.67-1.38s-.23-.99-.69-1.28c-.46-.3-1.16-.6-2.08-.92-.62-.22-1.17-.43-1.64-.65-.48-.21-.85-.5-1.11-.85-.27-.35-.4-.82-.4-1.42,0-.81.33-1.44.99-1.9.66-.46,1.54-.68,2.64-.68.61,0,1.17.06,1.7.18.53.12,1,.27,1.43.45l-.38.89c-.39-.18-.84-.32-1.33-.44s-.99-.17-1.48-.17c-.8,0-1.42.14-1.86.42s-.67.68-.67,1.22c0,.41.11.73.32.96.22.24.53.44.93.61.41.17.9.36,1.48.56.6.2,1.14.42,1.62.65.49.23.87.52,1.16.87.29.35.43.83.43,1.42Z"/>
  </g>
  <g>
    <path class="st20" d="M479.29,414.92c0-.77.06-1.54.17-2.31.11-.77.31-1.49.6-2.17s.68-1.28,1.2-1.8c.51-.53,1.17-.94,1.96-1.24s1.75-.45,2.88-.45c.27,0,.58,0,.93.03.35.02.65.05.89.1v2.3c-.24-.05-.5-.09-.79-.13s-.57-.06-.85-.06c-1.13,0-2,.18-2.61.53-.61.36-1.05.85-1.3,1.49-.25.64-.4,1.38-.44,2.21h.11c.25-.44.62-.82,1.09-1.12.47-.3,1.09-.46,1.85-.46,1.19,0,2.13.37,2.83,1.12.7.75,1.05,1.81,1.05,3.17,0,1.47-.42,2.62-1.24,3.46-.83.84-1.95,1.25-3.37,1.25-.92,0-1.76-.21-2.51-.64-.75-.42-1.34-1.08-1.79-1.96-.44-.88-.67-2-.67-3.35ZM484.19,418.57c.56,0,1.01-.19,1.37-.58.35-.39.53-.98.53-1.8,0-.66-.15-1.18-.46-1.56-.3-.38-.77-.57-1.39-.57-.43,0-.8.1-1.11.29-.31.19-.55.43-.73.71s-.27.58-.27.88c0,.42.08.83.23,1.24.15.41.38.74.69,1,.31.26.69.39,1.13.39Z"/>
    <path class="st20" d="M499.74,420.68h-9.48v-2l3.4-3.44c.68-.71,1.23-1.3,1.65-1.78.42-.47.72-.91.91-1.29.19-.39.29-.8.29-1.24,0-.54-.15-.95-.45-1.22-.3-.27-.7-.4-1.21-.4s-1.03.12-1.52.36c-.49.24-1.01.58-1.56,1.03l-1.56-1.84c.38-.33.79-.64,1.23-.94.44-.3.95-.54,1.53-.72s1.27-.28,2.08-.28c.89,0,1.65.16,2.29.48s1.13.76,1.48,1.31c.35.55.52,1.18.52,1.87,0,.75-.15,1.43-.45,2.05-.3.62-.73,1.24-1.29,1.84-.56.61-1.24,1.28-2.04,2.01l-1.75,1.63v.13h5.91v2.41Z"/>
  </g>
  <g>
    <path d="M554.02,414.9c0-1.62.21-3.03.62-4.23.41-1.2,1.05-2.12,1.92-2.78.87-.66,2-.99,3.39-.99.7,0,1.29.07,1.79.21v.97c-.23-.09-.49-.15-.8-.19-.3-.04-.62-.06-.95-.06-1.63,0-2.85.55-3.64,1.65-.79,1.1-1.21,2.67-1.26,4.69h.08c.27-.49.69-.94,1.27-1.33s1.36-.59,2.32-.59c1.22,0,2.18.36,2.89,1.09s1.06,1.73,1.06,2.99c0,1.37-.37,2.46-1.11,3.29s-1.77,1.24-3.09,1.24c-.96,0-1.78-.26-2.44-.77-.67-.51-1.17-1.22-1.52-2.11-.35-.89-.52-1.92-.52-3.09ZM558.5,419.94c.96,0,1.72-.31,2.28-.92.56-.61.84-1.5.84-2.67,0-.99-.25-1.77-.76-2.34-.51-.57-1.27-.86-2.28-.86-.7,0-1.3.14-1.81.42-.51.28-.91.63-1.19,1.05-.28.42-.42.85-.42,1.26,0,.39.06.82.17,1.28.11.46.3.9.56,1.32s.6.76,1.03,1.04c.42.27.95.41,1.59.41Z"/>
    <path d="M570.11,420.68h-1.06v-11.43c0-.35.01-.68.04-1-.18.18-.34.33-.49.46-.15.13-.35.29-.61.49l-1.9,1.44-.57-.76,3.69-2.77h.91v13.57Z"/>
  </g>
  <g>
    <path d="M621.62,414.9c0-1.62.21-3.03.62-4.23.41-1.2,1.05-2.12,1.92-2.78.87-.66,2-.99,3.39-.99.7,0,1.29.07,1.79.21v.97c-.23-.09-.49-.15-.8-.19-.3-.04-.62-.06-.95-.06-1.63,0-2.85.55-3.64,1.65-.79,1.1-1.21,2.67-1.26,4.69h.08c.27-.49.69-.94,1.27-1.33s1.36-.59,2.32-.59c1.22,0,2.18.36,2.89,1.09s1.06,1.73,1.06,2.99c0,1.37-.37,2.46-1.11,3.29-.74.82-1.77,1.24-3.09,1.24-.96,0-1.78-.26-2.44-.77-.67-.51-1.17-1.22-1.52-2.11s-.52-1.92-.52-3.09ZM626.11,419.94c.96,0,1.72-.31,2.28-.92.56-.61.84-1.5.84-2.67,0-.99-.25-1.77-.76-2.34-.51-.57-1.27-.86-2.28-.86-.7,0-1.3.14-1.81.42-.51.28-.91.63-1.19,1.05-.28.42-.42.85-.42,1.26,0,.39.06.82.17,1.28.11.46.3.9.56,1.32.26.42.6.76,1.03,1.04.42.27.95.41,1.59.41Z"/>
    <path d="M640.98,412.87c0,1.62-.21,3.03-.62,4.24-.41,1.2-1.06,2.13-1.94,2.79-.88.66-2.02.99-3.41.99-.3,0-.63-.02-.99-.06-.36-.04-.65-.1-.87-.17v-.97c.51.19,1.13.29,1.86.29,1.62,0,2.83-.55,3.61-1.66s1.21-2.68,1.27-4.7h-.08c-.27.49-.7.94-1.29,1.33-.6.39-1.38.59-2.34.59-1.2,0-2.16-.36-2.86-1.09-.7-.73-1.05-1.73-1.05-3.01,0-.9.17-1.69.51-2.37s.83-1.2,1.45-1.58,1.38-.56,2.25-.56c.98,0,1.8.25,2.46.76.67.51,1.17,1.21,1.51,2.1s.51,1.92.51,3.09ZM636.5,407.88c-.96,0-1.73.3-2.29.91-.56.61-.84,1.48-.84,2.62,0,1.01.25,1.81.76,2.38.51.57,1.27.86,2.28.86.7,0,1.3-.14,1.82-.42s.92-.63,1.2-1.05c.28-.42.42-.85.42-1.26,0-.39-.06-.82-.17-1.28-.11-.46-.3-.9-.56-1.32s-.6-.76-1.03-1.03c-.42-.27-.95-.4-1.59-.4Z"/>
  </g>
  <g>
    <path d="M694.26,420.68l5.59-12.58h-7.66v-.99h8.83v.8l-5.59,12.77h-1.18Z"/>
    <path d="M711.85,413.86c0,2.27-.35,4-1.05,5.21-.7,1.2-1.81,1.81-3.32,1.81s-2.51-.6-3.25-1.79-1.1-2.93-1.1-5.23c0-1.38.14-2.59.43-3.64.29-1.04.75-1.86,1.39-2.44.64-.58,1.49-.87,2.55-.87s1.88.29,2.52.86,1.11,1.38,1.4,2.42c.29,1.04.44,2.27.44,3.68ZM704.21,413.86c0,2.04.26,3.56.79,4.56s1.35,1.5,2.48,1.5,1.99-.5,2.5-1.5c.51-1,.77-2.52.77-4.56,0-1.25-.1-2.33-.29-3.23s-.53-1.59-1.01-2.06-1.12-.71-1.95-.71-1.48.24-1.96.72-.82,1.17-1.03,2.07c-.2.9-.3,1.97-.3,3.21Z"/>
  </g>
  <g>
    <path d="M763.32,414.9c0-1.62.21-3.03.62-4.23.41-1.2,1.05-2.12,1.92-2.78.87-.66,2-.99,3.39-.99.7,0,1.29.07,1.79.21v.97c-.23-.09-.49-.15-.8-.19-.3-.04-.62-.06-.95-.06-1.63,0-2.85.55-3.64,1.65-.79,1.1-1.21,2.67-1.26,4.69h.08c.27-.49.69-.94,1.27-1.33s1.36-.59,2.32-.59c1.22,0,2.18.36,2.89,1.09s1.06,1.73,1.06,2.99c0,1.37-.37,2.46-1.11,3.29-.74.82-1.77,1.24-3.09,1.24-.96,0-1.78-.26-2.44-.77-.67-.51-1.17-1.22-1.52-2.11s-.52-1.92-.52-3.09ZM767.81,419.94c.96,0,1.72-.31,2.28-.92.56-.61.84-1.5.84-2.67,0-.99-.25-1.77-.76-2.34-.51-.57-1.27-.86-2.28-.86-.7,0-1.3.14-1.81.42-.51.28-.91.63-1.19,1.05-.28.42-.42.85-.42,1.26,0,.39.06.82.17,1.28.11.46.3.9.56,1.32.26.42.6.76,1.03,1.04.42.27.95.41,1.59.41Z"/>
    <path d="M778.39,406.93c1.17,0,2.11.28,2.82.83.71.55,1.07,1.33,1.07,2.35,0,.82-.27,1.5-.81,2.02s-1.23.97-2.06,1.34c.99.41,1.79.89,2.39,1.46.61.57.91,1.33.91,2.28,0,.77-.19,1.43-.56,1.98-.37.54-.89.96-1.54,1.25-.65.29-1.4.44-2.23.44-1.33,0-2.38-.32-3.16-.97-.78-.65-1.17-1.51-1.17-2.6,0-.66.14-1.23.42-1.7.28-.48.66-.88,1.14-1.22.48-.33,1.03-.62,1.63-.86-.51-.24-.97-.51-1.38-.81-.41-.3-.74-.66-.99-1.08-.25-.42-.37-.93-.37-1.51,0-.66.17-1.23.5-1.71.34-.48.79-.85,1.38-1.1.58-.25,1.25-.38,2-.38ZM775.14,417.3c0,.8.28,1.44.84,1.94s1.35.74,2.37.74,1.82-.24,2.41-.73c.59-.49.89-1.16.89-2.02,0-.73-.26-1.35-.79-1.83-.53-.49-1.26-.9-2.21-1.25l-.42-.15c-.94.34-1.69.76-2.25,1.26-.56.5-.84,1.18-.84,2.04ZM778.39,407.84c-.81,0-1.48.2-2.01.61-.53.41-.8.98-.8,1.71s.27,1.33.81,1.76c.54.42,1.23.79,2.08,1.11.85-.35,1.52-.75,2-1.18.49-.43.73-1.01.73-1.73s-.25-1.3-.76-1.69c-.51-.39-1.19-.59-2.05-.59Z"/>
  </g>
  <g>
    <path d="M836.08,420.68l5.59-12.58h-7.66v-.99h8.83v.8l-5.59,12.77h-1.18Z"/>
    <path d="M849.09,412.47c1.38,0,2.47.35,3.28,1.04.8.7,1.21,1.68,1.21,2.95,0,1.37-.44,2.44-1.33,3.23-.89.79-2.09,1.18-3.61,1.18-.71,0-1.36-.07-1.95-.21-.59-.14-1.09-.32-1.51-.55v-1.08c.44.27.97.48,1.59.65.61.17,1.24.25,1.89.25,1.15,0,2.08-.29,2.77-.86.7-.58,1.04-1.42,1.04-2.52,0-.99-.3-1.75-.9-2.3-.6-.54-1.52-.82-2.75-.82-.48,0-.95.03-1.41.09s-.87.15-1.25.25l-.59-.4.55-6.25h6.57v.99h-5.66l-.38,4.67c.27-.05.6-.11,1.01-.19.41-.08.88-.11,1.42-.11Z"/>
  </g>
  <g>
    <path d="M909.21,406.93c1.17,0,2.11.28,2.82.83.71.55,1.07,1.33,1.07,2.35,0,.82-.27,1.5-.81,2.02s-1.23.97-2.06,1.34c.99.41,1.79.89,2.39,1.46.61.57.91,1.33.91,2.28,0,.77-.19,1.43-.56,1.98-.37.54-.89.96-1.54,1.25-.65.29-1.4.44-2.23.44-1.33,0-2.38-.32-3.16-.97-.78-.65-1.17-1.51-1.17-2.6,0-.66.14-1.23.42-1.7.28-.48.66-.88,1.14-1.22.48-.33,1.03-.62,1.63-.86-.51-.24-.97-.51-1.38-.81-.41-.3-.74-.66-.99-1.08-.25-.42-.37-.93-.37-1.51,0-.66.17-1.23.5-1.71.34-.48.79-.85,1.38-1.1.58-.25,1.25-.38,2-.38ZM905.96,417.3c0,.8.28,1.44.84,1.94s1.35.74,2.37.74,1.82-.24,2.41-.73c.59-.49.89-1.16.89-2.02,0-.73-.26-1.35-.79-1.83-.53-.49-1.26-.9-2.21-1.25l-.42-.15c-.94.34-1.69.76-2.25,1.26-.56.5-.84,1.18-.84,2.04ZM909.21,407.84c-.81,0-1.48.2-2.01.61-.53.41-.8.98-.8,1.71s.27,1.33.81,1.76c.54.42,1.23.79,2.08,1.11.85-.35,1.52-.75,2-1.18.49-.43.73-1.01.73-1.73s-.25-1.3-.76-1.69c-.51-.39-1.19-.59-2.05-.59Z"/>
    <path d="M924.44,413.86c0,2.27-.35,4-1.05,5.21-.7,1.2-1.81,1.81-3.32,1.81s-2.51-.6-3.25-1.79-1.1-2.93-1.1-5.23c0-1.38.14-2.59.43-3.64.29-1.04.75-1.86,1.39-2.44.64-.58,1.49-.87,2.55-.87s1.88.29,2.52.86,1.11,1.38,1.4,2.42c.29,1.04.44,2.27.44,3.68ZM916.81,413.86c0,2.04.26,3.56.79,4.56s1.35,1.5,2.48,1.5,1.99-.5,2.5-1.5c.51-1,.77-2.52.77-4.56,0-1.25-.1-2.33-.29-3.23s-.53-1.59-1.01-2.06-1.12-.71-1.95-.71-1.48.24-1.96.72-.82,1.17-1.03,2.07c-.2.9-.3,1.97-.3,3.21Z"/>
  </g>
  <g>
    <path d="M983.42,406.93c1.17,0,2.11.28,2.82.83.71.55,1.07,1.33,1.07,2.35,0,.82-.27,1.5-.81,2.02s-1.23.97-2.06,1.34c.99.41,1.79.89,2.39,1.46.61.57.91,1.33.91,2.28,0,.77-.19,1.43-.56,1.98-.37.54-.89.96-1.54,1.25-.65.29-1.4.44-2.23.44-1.33,0-2.38-.32-3.16-.97-.78-.65-1.17-1.51-1.17-2.6,0-.66.14-1.23.42-1.7.28-.48.66-.88,1.14-1.22.48-.33,1.03-.62,1.63-.86-.51-.24-.97-.51-1.38-.81-.41-.3-.74-.66-.99-1.08-.25-.42-.37-.93-.37-1.51,0-.66.17-1.23.5-1.71.34-.48.79-.85,1.38-1.1.58-.25,1.25-.38,2-.38ZM980.17,417.3c0,.8.28,1.44.84,1.94s1.35.74,2.37.74,1.82-.24,2.41-.73c.59-.49.89-1.16.89-2.02,0-.73-.26-1.35-.79-1.83-.53-.49-1.26-.9-2.21-1.25l-.42-.15c-.94.34-1.69.76-2.25,1.26-.56.5-.84,1.18-.84,2.04ZM983.42,407.84c-.81,0-1.48.2-2.01.61-.53.41-.8.98-.8,1.71s.27,1.33.81,1.76c.54.42,1.23.79,2.08,1.11.85-.35,1.52-.75,2-1.18.49-.43.73-1.01.73-1.73s-.25-1.3-.76-1.69c-.51-.39-1.19-.59-2.05-.59Z"/>
    <path d="M995.29,420.68h-1.06v-11.43c0-.35.01-.68.04-1-.18.18-.34.33-.49.46-.15.13-.36.29-.61.49l-1.9,1.44-.57-.76,3.69-2.77h.91v13.57Z"/>
  </g>
  <g>
    <path d="M1050.85,406.93c1.17,0,2.11.28,2.82.83.71.55,1.07,1.33,1.07,2.35,0,.82-.27,1.5-.81,2.02s-1.23.97-2.06,1.34c.99.41,1.79.89,2.39,1.46.61.57.91,1.33.91,2.28,0,.77-.19,1.43-.56,1.98-.37.54-.89.96-1.54,1.25-.65.29-1.4.44-2.23.44-1.33,0-2.38-.32-3.16-.97-.78-.65-1.17-1.51-1.17-2.6,0-.66.14-1.23.42-1.7.28-.48.66-.88,1.14-1.22.48-.33,1.03-.62,1.63-.86-.51-.24-.97-.51-1.38-.81-.41-.3-.74-.66-.99-1.08-.25-.42-.37-.93-.37-1.51,0-.66.17-1.23.5-1.71.34-.48.79-.85,1.38-1.1.58-.25,1.25-.38,2-.38ZM1047.6,417.3c0,.8.28,1.44.84,1.94s1.35.74,2.37.74,1.82-.24,2.41-.73c.59-.49.89-1.16.89-2.02,0-.73-.26-1.35-.79-1.83-.53-.49-1.26-.9-2.21-1.25l-.42-.15c-.94.34-1.69.76-2.25,1.26-.56.5-.84,1.18-.84,2.04ZM1050.85,407.84c-.81,0-1.48.2-2.01.61-.53.41-.8.98-.8,1.71s.27,1.33.81,1.76c.54.42,1.23.79,2.08,1.11.85-.35,1.52-.75,2-1.18.49-.43.73-1.01.73-1.73s-.25-1.3-.76-1.69c-.51-.39-1.19-.59-2.05-.59Z"/>
    <path d="M1057.48,414.9c0-1.62.21-3.03.62-4.23.41-1.2,1.05-2.12,1.92-2.78.87-.66,2-.99,3.39-.99.7,0,1.29.07,1.79.21v.97c-.23-.09-.49-.15-.8-.19-.3-.04-.62-.06-.95-.06-1.63,0-2.85.55-3.64,1.65-.79,1.1-1.21,2.67-1.26,4.69h.08c.27-.49.69-.94,1.27-1.33s1.36-.59,2.32-.59c1.22,0,2.18.36,2.89,1.09s1.06,1.73,1.06,2.99c0,1.37-.37,2.46-1.11,3.29-.74.82-1.77,1.24-3.09,1.24-.96,0-1.78-.26-2.44-.77-.67-.51-1.17-1.22-1.52-2.11s-.52-1.92-.52-3.09ZM1061.97,419.94c.96,0,1.72-.31,2.28-.92.56-.61.84-1.5.84-2.67,0-.99-.25-1.77-.76-2.34-.51-.57-1.27-.86-2.28-.86-.7,0-1.3.14-1.81.42-.51.28-.91.63-1.19,1.05-.28.42-.42.85-.42,1.26,0,.39.06.82.17,1.28.11.46.3.9.56,1.32.26.42.6.76,1.03,1.04.42.27.95.41,1.59.41Z"/>
  </g>
  <g>
    <path d="M1121.74,406.93c1.17,0,2.11.28,2.82.83.71.55,1.07,1.33,1.07,2.35,0,.82-.27,1.5-.81,2.02s-1.23.97-2.06,1.34c.99.41,1.79.89,2.39,1.46.61.57.91,1.33.91,2.28,0,.77-.19,1.43-.56,1.98-.37.54-.89.96-1.54,1.25-.65.29-1.4.44-2.23.44-1.33,0-2.38-.32-3.16-.97-.78-.65-1.17-1.51-1.17-2.6,0-.66.14-1.23.42-1.7.28-.48.66-.88,1.14-1.22.48-.33,1.03-.62,1.63-.86-.51-.24-.97-.51-1.38-.81-.41-.3-.74-.66-.99-1.08-.25-.42-.37-.93-.37-1.51,0-.66.17-1.23.5-1.71.34-.48.79-.85,1.38-1.1.58-.25,1.25-.38,2-.38ZM1118.49,417.3c0,.8.28,1.44.84,1.94s1.35.74,2.37.74,1.82-.24,2.41-.73c.59-.49.89-1.16.89-2.02,0-.73-.26-1.35-.79-1.83-.53-.49-1.26-.9-2.21-1.25l-.42-.15c-.94.34-1.69.76-2.25,1.26-.56.5-.84,1.18-.84,2.04ZM1121.74,407.84c-.81,0-1.48.2-2.01.61-.53.41-.8.98-.8,1.71s.27,1.33.81,1.76c.54.42,1.23.79,2.08,1.11.85-.35,1.52-.75,2-1.18.49-.43.73-1.01.73-1.73s-.25-1.3-.76-1.69c-.51-.39-1.19-.59-2.05-.59Z"/>
    <path d="M1130.23,420.68l5.59-12.58h-7.66v-.99h8.83v.8l-5.59,12.77h-1.18Z"/>
  </g>
</svg>