<?xml version="1.0" encoding="UTF-8"?>
<svg id="Layer_1" xmlns="http://www.w3.org/2000/svg" version="1.1" viewBox="0 0 226.75 104.76">
  <!-- Generator: Adobe Illustrator 29.6.0, SVG Export Plug-In . SVG Version: 2.1.1 Build 207)  -->
  <defs>
    <style>
      .st0, .st1, .st2 {
        fill: none;
      }

      .st1 {
        stroke-dasharray: 1.5 1.5;
        stroke-linecap: round;
        stroke-width: .5px;
      }

      .st1, .st2 {
        stroke: #000;
        stroke-miterlimit: 10;
      }

      .st3 {
        fill: #ba0051;
      }

      .st2 {
        stroke-width: .25px;
      }

      .st4 {
        fill: #33aba6;
      }
    </style>
  </defs>
  <g id="Legend">
    <g>
      <g>
        <path d="M11.56,102.85h-.46v-5.3h-1.84v-.42h4.14v.42h-1.84s0,5.3,0,5.3Z"/>
        <path d="M17.83,100.72c0,.44-.07.83-.22,1.16s-.36.59-.65.77c-.29.18-.63.28-1.04.28s-.73-.09-1.02-.27c-.28-.18-.5-.44-.65-.77-.15-.33-.23-.72-.23-1.17,0-.69.17-1.23.52-1.62s.81-.58,1.41-.58c.41,0,.75.09,1.03.28.28.18.49.44.64.77.14.33.22.72.22,1.16h-.01ZM14.5,100.72c0,.54.11.98.34,1.32.23.33.59.5,1.08.5s.86-.17,1.09-.5.35-.77.35-1.32c0-.35-.05-.66-.14-.94-.1-.27-.25-.48-.46-.64-.21-.15-.48-.23-.82-.23-.49,0-.85.16-1.09.48s-.36.76-.36,1.33h0Z"/>
        <path d="M20.31,102.54c.12,0,.23,0,.34-.03s.2-.04.28-.07v.37c-.09.03-.19.06-.3.08-.12.02-.24.03-.38.03-.35,0-.62-.1-.82-.3-.19-.2-.29-.52-.29-.96v-2.7h-.63v-.26l.63-.14.16-.98h.29v1.02h1.31v.37h-1.31v2.69c0,.6.24.9.72.9v-.02Z"/>
        <path d="M23.46,98.52c.48,0,.84.12,1.07.35.23.23.35.6.35,1.11v2.86h-.34l-.09-.72h-.02c-.15.24-.34.43-.56.58s-.53.22-.93.22-.73-.1-.96-.3c-.24-.2-.36-.5-.36-.89,0-.42.17-.74.52-.97.34-.22.85-.35,1.52-.38l.78-.04v-.3c0-.42-.08-.72-.25-.89s-.42-.26-.74-.26c-.22,0-.43.03-.63.08-.2.06-.41.14-.61.24l-.14-.37c.2-.1.42-.18.66-.25.24-.06.49-.1.74-.1v.03ZM24.43,100.7l-.72.03c-.54.02-.95.11-1.22.28s-.4.41-.4.73c0,.26.08.46.25.6s.39.2.68.2c.44,0,.79-.13,1.03-.38s.37-.6.38-1.06v-.41h0Z"/>
        <path d="M26.82,102.85h-.46v-6.08h.46v6.08Z"/>
        <path d="M35.02,99.94c0,.96-.25,1.69-.76,2.18s-1.25.74-2.22.74h-1.41v-5.71h1.58c.91,0,1.6.24,2.08.72s.72,1.17.72,2.08h0ZM34.54,99.95c0-1.6-.8-2.41-2.41-2.41h-1.03v4.9h.91c1.69,0,2.53-.83,2.53-2.49Z"/>
        <path d="M37.96,98.51c.36,0,.67.08.91.25s.43.4.55.69.18.63.18,1.01v.32h-3.04c0,.56.13.99.39,1.29s.64.45,1.13.45c.27,0,.5-.02.7-.06s.41-.12.65-.22v.42c-.21.1-.42.17-.63.21-.21.04-.45.06-.73.06-.63,0-1.12-.19-1.46-.58s-.51-.92-.51-1.59c0-.43.07-.82.22-1.16.15-.34.36-.6.64-.8.28-.19.61-.29,1.01-.29h-.01ZM37.95,98.9c-.39,0-.71.13-.95.39s-.39.63-.43,1.11h2.55c0-.45-.09-.81-.28-1.09s-.49-.42-.89-.42h0Z"/>
        <path d="M41.33,96.77v2.17c0,.18,0,.32-.02.42h.03c.11-.24.28-.44.52-.6.24-.16.55-.24.92-.24.55,0,.98.19,1.28.56.3.37.46.92.46,1.64,0,.67-.15,1.21-.46,1.61-.31.4-.75.6-1.34.6-.36,0-.65-.08-.88-.22-.23-.15-.39-.33-.5-.54h-.04l-.08.69h-.34v-6.08h.46,0ZM42.72,98.9c-.5,0-.85.16-1.07.46-.22.31-.32.76-.32,1.34v.06c0,.58.1,1.01.31,1.32.21.3.55.45,1.02.45s.8-.16,1.04-.48c.23-.32.35-.77.35-1.36,0-1.2-.44-1.8-1.32-1.8h-.01Z"/>
        <path d="M46.99,102.54c.12,0,.23,0,.34-.03s.2-.04.28-.07v.37c-.09.03-.19.06-.3.08-.12.02-.24.03-.38.03-.35,0-.62-.1-.82-.3-.19-.2-.29-.52-.29-.96v-2.7h-.63v-.26l.63-.14.16-.98h.29v1.02h1.31v.37h-1.31v2.69c0,.6.24.9.72.9v-.02Z"/>
        <path d="M52.36,102.93c-.57,0-1.01-.18-1.32-.55s-.46-.9-.46-1.61.16-1.3.48-1.68.77-.58,1.33-.58c.36,0,.65.08.87.23.22.15.39.35.5.58h.03c0-.13,0-.27-.02-.42,0-.15,0-.29,0-.41v-1.73h.46v6.08h-.37l-.06-.74h-.02c-.11.22-.28.42-.5.58s-.53.24-.9.24h0ZM52.42,102.54c.49,0,.84-.15,1.05-.45s.31-.73.31-1.29v-.08c0-.59-.1-1.04-.31-1.35-.21-.31-.55-.47-1.02-.47s-.8.16-1.04.48c-.23.32-.35.78-.35,1.38s.11,1.02.34,1.32.57.45,1.02.45h0Z"/>
        <path d="M59.1,98.59v4.26h-.38l-.06-.73h-.02c-.12.23-.3.42-.54.58s-.54.23-.91.23c-1,0-1.5-.52-1.5-1.55v-2.78h.46v2.75c0,.41.09.71.27.9s.45.29.82.29c.94,0,1.41-.54,1.41-1.62v-2.32h.46,0Z"/>
        <path d="M62.25,98.51c.36,0,.67.08.91.25s.43.4.55.69.18.63.18,1.01v.32h-3.04c0,.56.13.99.39,1.29s.64.45,1.13.45c.27,0,.5-.02.7-.06s.41-.12.65-.22v.42c-.21.1-.42.17-.63.21-.21.04-.45.06-.73.06-.63,0-1.12-.19-1.46-.58s-.51-.92-.51-1.59c0-.43.07-.82.22-1.16.15-.34.36-.6.64-.8.28-.19.61-.29,1.01-.29h-.01ZM62.24,98.9c-.39,0-.71.13-.95.39s-.39.63-.43,1.11h2.55c0-.45-.09-.81-.28-1.09s-.49-.42-.89-.42h0Z"/>
        <path d="M67.59,97.02c.21,0,.32.12.32.34s-.11.35-.32.35-.3-.12-.3-.35.1-.34.3-.34ZM67.82,98.59v4.26h-.45v-4.26h.45Z"/>
        <path d="M71.25,98.51c.49,0,.86.12,1.11.38s.38.64.38,1.18v2.78h-.46v-2.75c0-.41-.09-.7-.28-.9-.18-.19-.46-.29-.81-.29-.94,0-1.41.54-1.41,1.62v2.32h-.45v-4.26h.37l.06.74h.03c.11-.24.29-.43.53-.58.24-.16.54-.23.91-.23h.02Z"/>
        <path d="M81.37,99.98c0,.58-.1,1.09-.29,1.54-.19.44-.48.79-.86,1.04s-.86.37-1.42.37-1.05-.12-1.44-.37c-.38-.25-.67-.59-.86-1.04-.19-.45-.28-.96-.28-1.54s.1-1.09.29-1.53.49-.78.87-1.03c.39-.25.87-.37,1.44-.37s1.01.12,1.39.36.66.58.86,1.01.3.96.3,1.57h0ZM76.71,99.98c0,.51.08.95.22,1.33.15.38.38.68.69.89.31.21.7.32,1.18.32s.87-.11,1.18-.32.53-.51.68-.88c.15-.38.22-.82.22-1.34,0-.79-.17-1.41-.52-1.85s-.86-.67-1.54-.67c-.47,0-.87.11-1.18.32-.32.21-.55.51-.7.88-.15.38-.23.82-.23,1.32Z"/>
        <path d="M84.6,98.51c.49,0,.86.12,1.11.38.26.25.38.64.38,1.18v2.78h-.46v-2.75c0-.41-.09-.7-.28-.9-.18-.19-.45-.29-.81-.29-.94,0-1.41.54-1.41,1.62v2.32h-.45v-4.26h.37l.06.74h.03c.11-.24.29-.43.53-.58.24-.16.54-.23.91-.23h.02Z"/>
        <path d="M89.2,98.51c.36,0,.67.08.91.25s.43.4.55.69.18.63.18,1.01v.32h-3.04c0,.56.13.99.39,1.29s.64.45,1.13.45c.27,0,.5-.02.7-.06s.41-.12.65-.22v.42c-.21.1-.42.17-.63.21s-.45.06-.73.06c-.63,0-1.12-.19-1.46-.58s-.51-.92-.51-1.59c0-.43.07-.82.22-1.16.15-.34.36-.6.64-.8.28-.19.61-.29,1.01-.29h-.01ZM89.19,98.9c-.39,0-.71.13-.95.39s-.39.63-.43,1.11h2.55c0-.45-.09-.81-.28-1.09s-.49-.42-.89-.42h0Z"/>
        <path d="M95.76,100.19l1.63-3.06h.51l-1.9,3.5v2.21h-.46v-2.18l-1.92-3.54h.51l1.63,3.06h0Z"/>
        <path d="M100.34,98.51c.36,0,.67.08.91.25s.43.4.55.69.18.63.18,1.01v.32h-3.04c0,.56.13.99.39,1.29s.64.45,1.13.45c.27,0,.5-.02.7-.06s.41-.12.65-.22v.42c-.21.1-.42.17-.63.21s-.45.06-.73.06c-.63,0-1.12-.19-1.46-.58s-.51-.92-.51-1.59c0-.43.07-.82.22-1.16s.36-.6.64-.8c.28-.19.61-.29,1.01-.29h-.01ZM100.34,98.9c-.39,0-.71.13-.95.39s-.38.63-.43,1.11h2.55c0-.45-.09-.81-.28-1.09s-.49-.42-.89-.42h0Z"/>
        <path d="M104.77,98.52c.48,0,.84.12,1.07.35.23.23.35.6.35,1.11v2.86h-.34l-.09-.72h-.02c-.15.24-.34.43-.56.58s-.53.22-.93.22-.73-.1-.96-.3c-.24-.2-.36-.5-.36-.89,0-.42.17-.74.52-.97.34-.22.85-.35,1.52-.38l.78-.04v-.3c0-.42-.08-.72-.25-.89s-.42-.26-.74-.26c-.22,0-.43.03-.63.08-.2.06-.41.14-.61.24l-.14-.37c.2-.1.42-.18.66-.25.24-.06.49-.1.74-.1v.03ZM105.74,100.7l-.72.03c-.54.02-.95.11-1.22.28s-.4.41-.4.73c0,.26.08.46.25.6s.39.2.68.2c.44,0,.79-.13,1.03-.38s.37-.6.38-1.06v-.41h0Z"/>
        <path d="M109.42,98.52c.22,0,.42.02.58.07l-.06.42c-.08-.02-.17-.04-.26-.05s-.18-.02-.27-.02c-.4,0-.71.14-.93.43-.23.29-.34.67-.34,1.14v2.34h-.46v-4.26h.38l.05.8h.02c.11-.24.27-.45.48-.62.22-.17.48-.26.8-.26h0Z"/>
      </g>
      <path class="st3" d="M6.39,99.98c0,.43-.08.83-.24,1.22-.16.38-.39.73-.7,1.04-.3.3-.65.53-1.03.69-.39.16-.79.24-1.22.24s-.84-.08-1.23-.24c-.39-.16-.73-.39-1.03-.69-.3-.31-.54-.65-.7-1.04-.16-.38-.24-.79-.24-1.22s.08-.83.24-1.22.39-.73.7-1.04c.3-.3.65-.53,1.03-.69.39-.16.79-.24,1.22-.24s.83.08,1.22.24c.38.16.73.39,1.04.7.3.31.54.65.7,1.04s.24.79.24,1.22h0Z"/>
    </g>
    <g>
      <g>
        <path d="M134.83,97.14c.68,0,1.2.12,1.54.36s.52.64.52,1.21c0,.44-.12.78-.35,1.02s-.52.42-.87.53l1.57,2.59h-.55l-1.46-2.46h-1.36v2.46h-.46v-5.71h1.42ZM134.79,97.55h-.92v2.43h1.08c.46,0,.82-.11,1.08-.33.25-.22.38-.53.38-.94,0-.44-.13-.74-.4-.91s-.67-.26-1.22-.26h0Z"/>
        <path d="M139.85,98.51c.36,0,.67.08.91.25s.43.4.55.69c.12.29.18.63.18,1.01v.32h-3.04c0,.56.13.99.39,1.29s.64.45,1.13.45c.27,0,.5-.02.7-.06s.41-.12.65-.22v.42c-.21.1-.42.17-.63.21s-.45.06-.73.06c-.63,0-1.12-.19-1.46-.58-.34-.39-.51-.92-.51-1.59,0-.43.07-.82.22-1.16.15-.34.36-.6.64-.8.28-.19.61-.29,1.01-.29h0ZM139.84,98.9c-.39,0-.71.13-.95.39-.24.26-.39.63-.43,1.11h2.55c0-.45-.09-.81-.28-1.09s-.49-.42-.89-.42h0Z"/>
        <path d="M144.47,102.93c-.62,0-1.11-.19-1.45-.57s-.51-.92-.51-1.61c0-.48.09-.88.26-1.21s.41-.59.72-.76c.31-.17.66-.26,1.07-.26.21,0,.4.02.58.06.18.04.34.09.47.15l-.13.4c-.3-.13-.61-.2-.93-.2-.5,0-.89.16-1.16.49-.27.33-.41.77-.41,1.33s.12.97.36,1.3.61.5,1.11.5c.21,0,.41-.02.6-.06s.35-.1.5-.17v.41c-.14.07-.3.12-.48.16s-.39.06-.62.06l.02-.02Z"/>
        <path d="M150.05,98.59v4.26h-.38l-.06-.73h-.02c-.12.23-.3.42-.54.58-.24.16-.54.23-.91.23-1,0-1.5-.52-1.5-1.55v-2.78h.46v2.75c0,.41.09.71.27.9.18.19.45.29.82.29.94,0,1.41-.54,1.41-1.62v-2.32h.46-.01Z"/>
        <path d="M153.33,98.52c.22,0,.42.02.58.07l-.06.42c-.09-.02-.17-.04-.26-.05s-.18-.02-.27-.02c-.4,0-.71.14-.93.43-.23.29-.34.67-.34,1.14v2.34h-.46v-4.26h.38l.05.8h.02c.11-.24.27-.45.48-.62.22-.17.48-.26.8-.26h0Z"/>
        <path d="M156.6,98.52c.22,0,.42.02.58.07l-.06.42c-.08-.02-.17-.04-.26-.05-.08-.01-.18-.02-.27-.02-.39,0-.71.14-.93.43-.23.29-.34.67-.34,1.14v2.34h-.46v-4.26h.38l.05.8h.02c.11-.24.27-.45.48-.62.22-.17.48-.26.8-.26h0Z"/>
        <path d="M158.35,97.02c.21,0,.32.12.32.34s-.11.35-.32.35-.3-.12-.3-.35.1-.34.3-.34ZM158.57,98.59v4.26h-.45v-4.26h.45Z"/>
        <path d="M162.01,98.51c.48,0,.86.12,1.11.38s.38.64.38,1.18v2.78h-.46v-2.75c0-.41-.09-.7-.28-.9-.18-.19-.46-.29-.81-.29-.94,0-1.41.54-1.41,1.62v2.32h-.45v-4.26h.37l.06.74h.03c.11-.24.29-.43.53-.58.24-.16.54-.23.91-.23h.02Z"/>
        <path d="M166.54,98.51c.34,0,.62.06.84.19.22.13.4.31.53.54h.02l.07-.65h.37v4.39c0,.56-.14,1-.43,1.31s-.75.47-1.4.47c-.32,0-.6-.03-.85-.08s-.47-.12-.67-.21v-.44c.2.1.43.18.69.24.26.06.54.09.84.09.46,0,.81-.12,1.03-.37s.33-.58.33-1v-.59c0-.11,0-.22.02-.33h-.02c-.12.28-.3.49-.54.62-.24.14-.54.21-.88.21-.55,0-.99-.19-1.29-.56-.31-.37-.46-.91-.46-1.62s.15-1.23.46-1.64c.31-.4.75-.6,1.34-.6v.03ZM166.59,98.91c-.46,0-.8.16-1.03.48s-.34.78-.34,1.36.11,1.02.34,1.33c.23.3.56.46.99.46.35,0,.63-.07.83-.22.2-.14.34-.34.43-.59.08-.25.13-.54.13-.86v-.27c0-.54-.1-.96-.3-1.26-.2-.29-.54-.44-1.04-.44h-.01Z"/>
        <path d="M173.48,102.85h-1.68v-.29l.61-.09v-4.95l-.61-.1v-.29h1.68v.29l-.61.1v4.95l.61.09v.29Z"/>
        <path d="M176.61,98.51c.49,0,.86.12,1.11.38.26.25.38.64.38,1.18v2.78h-.46v-2.75c0-.41-.09-.7-.28-.9-.18-.19-.45-.29-.81-.29-.94,0-1.41.54-1.41,1.62v2.32h-.45v-4.26h.37l.06.74h.03c.11-.24.29-.43.53-.58.24-.16.54-.23.91-.23h.02Z"/>
        <path d="M181.3,102.93c-.62,0-1.11-.19-1.44-.57-.34-.38-.51-.92-.51-1.61,0-.48.08-.88.26-1.21.17-.33.41-.59.72-.76.31-.17.66-.26,1.07-.26.21,0,.4.02.58.06.18.04.34.09.48.15l-.13.4c-.3-.13-.61-.2-.93-.2-.5,0-.89.16-1.16.49-.27.33-.41.77-.41,1.33s.12.97.36,1.3.61.5,1.11.5c.21,0,.41-.02.6-.06s.35-.1.5-.17v.41c-.14.07-.3.12-.48.16s-.39.06-.62.06v-.02Z"/>
        <path d="M187.09,100.72c0,.44-.07.83-.22,1.16s-.36.59-.65.77-.63.28-1.04.28-.73-.09-1.02-.27c-.28-.18-.5-.44-.65-.77-.15-.33-.23-.72-.23-1.17,0-.69.17-1.23.52-1.62s.81-.58,1.41-.58c.41,0,.75.09,1.03.28.28.18.49.44.64.77.14.33.22.72.22,1.16h-.01ZM183.75,100.72c0,.54.11.98.34,1.32.23.33.59.5,1.08.5s.86-.17,1.09-.5.35-.77.35-1.32c0-.35-.05-.66-.14-.94-.1-.27-.25-.48-.46-.64-.21-.15-.48-.23-.82-.23-.49,0-.85.16-1.09.48s-.36.76-.36,1.33h.01Z"/>
        <path d="M192.81,98.51c.42,0,.75.12.99.36s.36.62.36,1.14v2.84h-.45v-2.82c0-.38-.09-.67-.26-.85s-.41-.27-.7-.27c-.41,0-.72.12-.94.36s-.33.6-.33,1.1v2.48h-.45v-2.82c0-.38-.09-.67-.26-.85s-.41-.27-.7-.27c-.41,0-.72.12-.94.37s-.33.63-.33,1.15v2.42h-.45v-4.26h.37l.06.67h.03c.11-.21.27-.39.48-.53.22-.15.49-.22.83-.22.31,0,.57.07.79.2.21.13.36.33.45.6h.03c.12-.26.3-.45.54-.59.25-.14.53-.21.86-.21h.02Z"/>
        <path d="M197.25,98.51c.36,0,.67.08.91.25s.43.4.55.69c.12.29.18.63.18,1.01v.32h-3.04c0,.56.13.99.39,1.29s.64.45,1.13.45c.27,0,.5-.02.7-.06s.41-.12.65-.22v.42c-.21.1-.42.17-.63.21s-.45.06-.73.06c-.63,0-1.12-.19-1.46-.58-.34-.39-.51-.92-.51-1.59,0-.43.07-.82.22-1.16s.36-.6.64-.8c.28-.19.61-.29,1.01-.29h0ZM197.25,98.9c-.39,0-.71.13-.95.39-.24.26-.38.63-.43,1.11h2.55c0-.45-.09-.81-.28-1.09s-.49-.42-.89-.42h0Z"/>
      </g>
      <path class="st4" d="M130.54,99.98c0,.43-.08.83-.24,1.22-.16.38-.39.73-.7,1.04s-.64.53-1.03.69-.79.24-1.22.24-.84-.08-1.23-.24c-.39-.16-.73-.39-1.03-.69-.3-.31-.54-.65-.7-1.04-.16-.38-.24-.79-.24-1.22s.08-.83.24-1.22c.16-.39.39-.73.7-1.04s.64-.53,1.03-.69.79-.24,1.22-.24.84.08,1.22.24c.38.16.73.39,1.04.7s.54.65.7,1.04.24.79.24,1.22h0Z"/>
    </g>
  </g>
  <g id="Graph">
    <g>
      <g>
        <rect class="st0" x="205.37" width="14.98" height="79.26"/>
        <rect class="st4" x="205.37" width="10.79" height="79.26"/>
        <rect class="st0" x="205.37" width="14.98" height="79.26"/>
      </g>
      <g>
        <rect class="st0" x="190.39" y="78.61" width="14.98" height=".65"/>
        <rect class="st3" x="190.39" y="78.61" width="10.79" height=".65"/>
        <rect class="st0" x="190.39" y="78.61" width="14.98" height=".65"/>
      </g>
      <g>
        <rect class="st0" x="160.42" width="14.98" height="79.26"/>
        <rect class="st4" x="160.42" width="10.79" height="79.26"/>
        <rect class="st0" x="160.42" width="14.98" height="79.26"/>
      </g>
      <g>
        <rect class="st0" x="145.43" y="77.4" width="14.98" height="1.85"/>
        <rect class="st3" x="145.43" y="77.4" width="10.79" height="1.85"/>
        <rect class="st0" x="145.43" y="77.4" width="14.98" height="1.85"/>
      </g>
      <g>
        <rect class="st0" x="115.46" width="14.98" height="79.26"/>
        <rect class="st4" x="115.46" width="10.79" height="79.26"/>
        <rect class="st0" x="115.46" width="14.98" height="79.26"/>
      </g>
      <g>
        <rect class="st0" x="100.48" y="75.64" width="14.98" height="3.61"/>
        <rect class="st3" x="100.48" y="75.64" width="10.79" height="3.61"/>
        <rect class="st0" x="100.48" y="75.64" width="14.98" height="3.61"/>
      </g>
      <g>
        <rect class="st0" x="70.53" width="14.98" height="79.26"/>
        <rect class="st4" x="70.53" width="10.79" height="79.26"/>
        <rect class="st0" x="70.53" width="14.98" height="79.26"/>
      </g>
      <g>
        <rect class="st0" x="55.55" y="73.46" width="14.98" height="5.8"/>
        <rect class="st3" x="55.55" y="73.46" width="10.79" height="5.8"/>
        <rect class="st0" x="55.55" y="73.46" width="14.98" height="5.8"/>
      </g>
      <g>
        <rect class="st0" x="25.58" width="14.98" height="79.26"/>
        <rect class="st4" x="25.58" width="10.79" height="79.26"/>
        <rect class="st0" x="25.58" width="14.98" height="79.26"/>
      </g>
      <g>
        <rect class="st0" x="10.6" y="75.23" width="14.98" height="4.03"/>
        <rect class="st3" x="10.6" y="75.23" width="10.79" height="4.03"/>
        <rect class="st0" x="10.6" y="75.23" width="14.98" height="4.03"/>
      </g>
    </g>
  </g>
  <g id="Text">
    <g>
      <g>
        <rect class="st0" x="145.43" y="74.57" width="10.79" height="2.83"/>
        <g>
          <path class="st3" d="M149.47,74.57h-3.3v-.51l1.31-1.32c.25-.25.46-.48.63-.67s.31-.39.4-.57.13-.39.13-.62c0-.28-.08-.48-.25-.63s-.38-.21-.64-.21-.46.04-.64.13c-.18.08-.37.2-.56.35l-.33-.41c.2-.16.42-.3.68-.42.25-.11.54-.17.86-.17.47,0,.83.12,1.11.36.27.24.41.56.41.97,0,.26-.05.51-.16.73s-.26.46-.45.68-.42.46-.67.71l-1.04,1.03v.03h2.53v.56l-.02-.02Z"/>
          <path class="st3" d="M151.35,69.5c.34,0,.6.14.78.41.18.27.27.66.27,1.15s-.08.88-.25,1.16c-.17.28-.44.42-.79.42-.33,0-.58-.14-.76-.42-.17-.28-.26-.66-.26-1.16s.08-.88.25-1.15c.16-.27.42-.41.78-.41h-.02ZM151.35,69.94c-.18,0-.31.09-.39.28s-.12.47-.12.84.04.66.12.85c.08.19.21.29.39.29.36,0,.54-.38.54-1.13s-.18-1.13-.54-1.13ZM154.55,69.57l-2.77,5h-.54l2.77-5h.54ZM154.41,71.5c.34,0,.6.14.78.41.18.27.27.66.27,1.15s-.09.88-.26,1.16c-.17.28-.44.42-.79.42-.33,0-.58-.14-.76-.42s-.26-.66-.26-1.16.08-.88.25-1.15c.16-.27.42-.41.78-.41h-.01ZM154.41,71.95c-.18,0-.31.09-.39.28s-.12.47-.12.84.04.66.12.85c.08.19.21.28.39.28.36,0,.54-.38.54-1.13s-.18-1.12-.54-1.12Z"/>
        </g>
      </g>
      <g>
        <rect class="st0" x="55.55" y="70.62" width="10.79" height="2.83"/>
        <g>
          <path class="st3" d="M56.91,70.62l2.05-4.44h-2.7v-.56h3.35v.48l-2.03,4.52h-.68.01Z"/>
          <path class="st3" d="M61.52,65.55c.34,0,.6.14.78.41.18.27.27.66.27,1.15s-.08.88-.25,1.16c-.17.28-.44.42-.79.42-.33,0-.58-.14-.76-.42-.17-.28-.26-.66-.26-1.16s.08-.88.25-1.15c.16-.27.42-.41.78-.41h-.02ZM61.52,65.99c-.18,0-.31.09-.39.28-.08.19-.12.47-.12.84s.04.66.12.85c.08.19.21.29.39.29.36,0,.54-.38.54-1.13s-.18-1.13-.54-1.13ZM64.72,65.62l-2.77,5h-.54l2.77-5h.54ZM64.58,67.56c.34,0,.6.14.78.41.18.27.27.66.27,1.15s-.09.88-.26,1.16c-.17.28-.44.42-.79.42-.33,0-.58-.14-.76-.42-.18-.28-.26-.66-.26-1.16s.08-.88.25-1.15c.16-.27.42-.41.78-.41h0ZM64.58,68c-.18,0-.31.09-.39.28s-.12.47-.12.84.04.66.12.85c.08.19.21.28.39.28.36,0,.54-.38.54-1.13s-.18-1.12-.54-1.12Z"/>
        </g>
      </g>
      <g>
        <rect class="st0" x="10.6" y="72.4" width="10.79" height="2.83"/>
        <g>
          <path class="st3" d="M12.93,69.34c.51,0,.92.13,1.22.38s.46.62.46,1.08c0,.52-.16.92-.49,1.22s-.79.44-1.38.44c-.26,0-.5-.02-.73-.07s-.41-.11-.57-.2v-.58c.17.1.37.18.61.24s.47.09.69.09c.37,0,.67-.09.89-.26s.34-.45.34-.82c0-.33-.1-.58-.3-.75-.2-.18-.52-.26-.95-.26-.13,0-.28.01-.45.04s-.3.05-.41.07l-.31-.2.19-2.36h2.51v.56h-1.98l-.12,1.45c.08-.01.19-.03.32-.05.13-.02.28-.03.45-.03h.01Z"/>
          <path class="st3" d="M16.44,67.34c.34,0,.6.14.78.41.18.27.27.66.27,1.15s-.09.88-.26,1.16c-.17.28-.44.42-.79.42-.33,0-.58-.14-.76-.42-.17-.28-.26-.66-.26-1.16s.08-.88.25-1.15c.16-.27.42-.41.78-.41h-.01ZM16.44,67.77c-.18,0-.31.09-.39.28s-.12.47-.12.84.04.66.12.85.21.29.39.29c.36,0,.54-.38.54-1.13s-.18-1.13-.54-1.13ZM19.64,67.41l-2.77,5h-.54l2.77-5h.54ZM19.5,69.34c.34,0,.6.14.78.41.18.27.27.66.27,1.15s-.08.88-.26,1.16c-.17.28-.43.42-.79.42-.33,0-.58-.14-.76-.42s-.26-.66-.26-1.16.08-.88.25-1.15c.16-.27.42-.41.78-.41h-.01ZM19.5,69.78c-.18,0-.31.09-.39.28s-.12.47-.12.84.04.66.12.85c.08.19.21.28.39.28.36,0,.54-.38.54-1.13s-.18-1.12-.54-1.12Z"/>
        </g>
      </g>
      <g>
        <rect class="st0" x="100.48" y="72.81" width="10.79" height="2.83"/>
        <g>
          <path class="st3" d="M102.8,69.74c.51,0,.92.13,1.22.38s.46.62.46,1.08c0,.52-.17.92-.49,1.22-.33.3-.79.44-1.38.44-.26,0-.5-.02-.73-.07-.22-.05-.41-.11-.57-.2v-.58c.17.1.37.18.61.24s.47.09.69.09c.37,0,.67-.09.89-.26s.34-.45.34-.82c0-.33-.1-.58-.3-.75-.2-.18-.52-.26-.95-.26-.13,0-.28.01-.45.04s-.3.05-.41.07l-.31-.2.19-2.36h2.51v.56h-1.98l-.12,1.45c.08-.01.19-.03.32-.05.13-.02.28-.03.45-.03h.01Z"/>
          <path class="st3" d="M106.31,67.74c.34,0,.6.14.78.41.18.27.27.66.27,1.15s-.08.88-.25,1.16c-.17.28-.44.42-.79.42-.33,0-.58-.14-.76-.42-.17-.28-.26-.66-.26-1.16s.08-.88.25-1.15c.16-.27.42-.41.78-.41h-.02ZM106.31,68.18c-.18,0-.31.09-.39.28s-.12.47-.12.84.04.66.12.85c.08.19.21.29.39.29.36,0,.54-.38.54-1.13s-.18-1.13-.54-1.13ZM109.51,67.81l-2.77,5h-.54l2.77-5h.54ZM109.37,69.74c.34,0,.6.14.78.41.18.27.27.66.27,1.15s-.09.88-.26,1.16c-.17.28-.44.42-.79.42-.33,0-.58-.14-.76-.42s-.26-.66-.26-1.16.08-.88.25-1.15c.16-.27.42-.41.78-.41h0ZM109.37,70.18c-.18,0-.31.09-.39.28s-.12.47-.12.84.04.66.12.85c.08.19.21.28.39.28.36,0,.54-.38.54-1.13s-.18-1.12-.54-1.12Z"/>
        </g>
      </g>
      <line class="st1" x1="9.13" y1="75.24" x2="38.05" y2="75.24"/>
      <line class="st1" x1="54.07" y1="73.46" x2="82.98" y2="73.46"/>
      <line class="st1" x1="99.02" y1="75.64" x2="127.93" y2="75.64"/>
      <line class="st1" x1="144.04" y1="77.4" x2="172.96" y2="77.4"/>
      <g>
        <rect class="st0" x="190.38" y="75.78" width="10.79" height="2.83"/>
        <g>
          <path class="st3" d="M193.33,75.78h-.6v-3.97c0-.12,0-.25.02-.38-.08.07-.14.14-.21.19-.06.05-.14.12-.23.2l-.53.43-.32-.41,1.35-1.05h.51v5h.01Z"/>
          <path class="st3" d="M195.98,70.71c.34,0,.6.14.78.41.18.27.27.66.27,1.15s-.09.88-.26,1.16c-.17.28-.44.42-.79.42-.33,0-.58-.14-.76-.42-.17-.28-.26-.66-.26-1.16s.08-.88.25-1.15c.16-.27.42-.41.78-.41h-.01ZM195.98,71.14c-.18,0-.31.09-.39.28s-.12.47-.12.84.04.66.12.85c.08.19.21.29.39.29.36,0,.54-.38.54-1.13s-.18-1.13-.54-1.13ZM199.18,70.78l-2.77,5h-.54l2.77-5h.54ZM199.04,72.71c.34,0,.6.14.78.41.18.27.27.66.27,1.15s-.08.88-.26,1.16c-.17.28-.43.42-.79.42-.33,0-.58-.14-.76-.42-.17-.28-.26-.66-.26-1.16s.08-.88.25-1.15c.16-.27.42-.41.78-.41h-.01ZM199.04,73.15c-.18,0-.31.09-.39.28s-.12.47-.12.84.04.66.12.85c.08.19.21.28.39.28.36,0,.54-.38.54-1.13s-.18-1.12-.54-1.12Z"/>
        </g>
        <rect class="st0" x="190.39" y="70.59" width="1.07" height="5.53"/>
        <rect class="st0" x="200.1" y="70.59" width="1.07" height="5.53"/>
      </g>
      <line class="st1" x1="189" y1="78.61" x2="217.91" y2="78.61"/>
    </g>
  </g>
  <g id="Year">
    <g>
      <g>
        <g>
          <path d="M202.85,88.26h-3.3v-.51l1.31-1.32c.25-.25.46-.48.63-.67s.31-.39.4-.57.13-.39.13-.62c0-.28-.08-.48-.25-.63-.16-.14-.38-.21-.64-.21s-.46.04-.64.13c-.18.08-.37.2-.56.35l-.33-.41c.2-.16.42-.3.68-.42.25-.11.54-.17.86-.17.47,0,.84.12,1.11.36s.41.56.41.97c0,.26-.05.51-.16.74-.11.23-.26.46-.45.68s-.42.46-.67.71l-1.04,1.03v.03h2.53v.56l-.02-.03Z"/>
          <path d="M205.34,85.19c.51,0,.92.13,1.22.39s.46.62.46,1.08c0,.52-.17.92-.49,1.22-.33.3-.79.44-1.38.44-.26,0-.5-.02-.73-.07-.22-.05-.41-.11-.57-.2v-.58c.17.1.37.18.61.24s.47.09.69.09c.37,0,.67-.09.89-.26.23-.17.34-.45.34-.82,0-.33-.1-.58-.3-.75-.2-.18-.52-.26-.95-.26-.13,0-.28.01-.45.04s-.3.05-.41.07l-.31-.2.19-2.36h2.51v.56h-1.98l-.12,1.45c.08-.01.19-.03.32-.05.14-.02.29-.03.45-.03h0Z"/>
        </g>
        <g>
          <path d="M67.94,88.26h-3.3v-.51l1.31-1.32c.25-.25.46-.48.63-.67s.31-.39.4-.57.13-.39.13-.62c0-.28-.08-.48-.25-.63-.16-.14-.38-.21-.64-.21s-.46.04-.64.13c-.18.08-.37.2-.56.35l-.33-.41c.2-.16.42-.3.68-.42.25-.11.54-.17.86-.17.47,0,.84.12,1.11.36.27.24.41.56.41.97,0,.26-.05.51-.16.74-.11.23-.26.46-.45.68-.19.22-.42.46-.67.71l-1.04,1.03v.03h2.53v.56l-.02-.03Z"/>
          <path d="M72.2,88.26h-3.3v-.51l1.31-1.32c.25-.25.46-.48.63-.67s.31-.39.4-.57.13-.39.13-.62c0-.28-.08-.48-.25-.63-.16-.14-.38-.21-.64-.21s-.46.04-.64.13c-.18.08-.37.2-.56.35l-.33-.41c.2-.16.42-.3.68-.42.25-.11.54-.17.86-.17.47,0,.84.12,1.11.36.27.24.41.56.41.97,0,.26-.05.51-.16.74-.11.23-.26.46-.45.68-.19.22-.42.46-.67.71l-1.04,1.03v.03h2.53v.56l-.02-.03Z"/>
        </g>
        <g>
          <path d="M157.81,88.26h-3.3v-.51l1.31-1.32c.25-.25.46-.48.63-.67s.31-.39.4-.57.13-.39.13-.62c0-.28-.08-.48-.25-.63-.16-.14-.38-.21-.64-.21s-.46.04-.64.13c-.18.08-.37.2-.56.35l-.33-.41c.2-.16.42-.3.68-.42.25-.11.54-.17.86-.17.47,0,.84.12,1.11.36s.41.56.41.97c0,.26-.05.51-.16.74-.11.23-.26.46-.45.68s-.42.46-.67.71l-1.04,1.03v.03h2.53v.56l-.02-.03Z"/>
          <path d="M162.15,87.13h-.73v1.13h-.59v-1.13h-2.39v-.53l2.35-3.37h.64v3.34h.73v.55h-.01ZM160.82,86.57v-1.58c0-.24,0-.45,0-.62,0-.17,0-.33.02-.49h-.03c-.04.09-.08.18-.14.29-.06.1-.11.19-.16.26l-1.5,2.14h1.8Z"/>
        </g>
        <g>
          <path d="M112.91,88.26h-3.3v-.51l1.31-1.32c.25-.25.46-.48.63-.67s.31-.39.4-.57.13-.39.13-.62c0-.28-.08-.48-.25-.63-.16-.14-.38-.21-.64-.21s-.46.04-.64.13c-.18.08-.37.2-.56.35l-.33-.41c.2-.16.42-.3.68-.42.25-.11.54-.17.86-.17.47,0,.84.12,1.11.36.27.24.41.56.41.97,0,.26-.05.51-.16.74-.11.23-.26.46-.45.68-.19.22-.42.46-.67.71l-1.04,1.03v.03h2.53v.56l-.02-.03Z"/>
          <path d="M116.99,84.43c0,.34-.09.6-.28.8-.19.2-.44.33-.75.4v.03c.4.05.69.17.89.38s.3.47.3.8c0,.29-.07.55-.2.78-.14.22-.34.4-.63.52s-.65.19-1.09.19c-.26,0-.5-.02-.73-.06-.22-.04-.44-.11-.64-.21v-.57c.21.11.44.19.68.25s.48.08.7.08c.45,0,.77-.09.97-.26.2-.17.3-.42.3-.72s-.12-.54-.37-.68-.59-.21-1.03-.21h-.48v-.52h.49c.41,0,.72-.09.93-.26.21-.17.32-.4.32-.69,0-.24-.08-.43-.25-.56-.16-.13-.38-.2-.67-.2s-.5.04-.69.12-.38.18-.57.3l-.31-.42c.18-.14.4-.26.66-.36s.56-.15.9-.15c.52,0,.91.12,1.17.35.25.23.38.53.38.89v-.02Z"/>
        </g>
        <g>
          <path d="M23.7,88.26h-3.3v-.51l1.31-1.32c.25-.25.46-.48.63-.67s.31-.39.4-.57.13-.39.13-.62c0-.28-.08-.48-.25-.63-.16-.14-.38-.21-.64-.21s-.46.04-.64.13c-.18.08-.37.2-.56.35l-.33-.41c.2-.16.42-.3.68-.42.25-.11.54-.17.86-.17.47,0,.84.12,1.11.36s.41.56.41.97c0,.26-.05.51-.16.74-.11.23-.26.46-.45.68s-.42.46-.67.71l-1.04,1.03v.03h2.53v.56l-.02-.03Z"/>
          <path d="M26.57,88.26h-.6v-3.97c0-.12.01-.25.02-.38-.08.08-.14.14-.21.19-.06.05-.14.12-.23.2l-.53.43-.32-.41,1.35-1.05h.51v5h0Z"/>
        </g>
      </g>
      <line class="st2" x1="0" y1="79.26" x2="226.75" y2="79.26"/>
    </g>
  </g>
</svg>