<?xml version="1.0" encoding="UTF-8"?>
<svg id="Layer_1" xmlns="http://www.w3.org/2000/svg" version="1.1" viewBox="0 0 226.75 104.76">
  <!-- Generator: Adobe Illustrator 29.6.0, SVG Export Plug-In . SVG Version: 2.1.1 Build 207)  -->
  <defs>
    <style>
      .st0, .st1, .st2 {
        fill: none;
      }

      .st3 {
        fill: #cca129;
      }

      .st1 {
        stroke-dasharray: 1.5 1.5;
        stroke-linecap: round;
        stroke-width: .5px;
      }

      .st1, .st2 {
        stroke: #000;
        stroke-miterlimit: 10;
      }

      .st2 {
        stroke-width: .25px;
      }

      .st4 {
        fill: #33aba6;
      }

      .st5 {
        fill: #fab600;
      }
    </style>
  </defs>
  <g id="Legend">
    <g>
      <path d="M10.93,102.84h-1.68v-.29l.61-.09v-4.95l-.61-.1v-.29h1.68v.29l-.61.1v4.95l.61.09v.29Z"/>
      <path d="M14.07,98.51c.49,0,.86.12,1.11.38s.38.64.38,1.18v2.78h-.46v-2.75c0-.41-.09-.7-.28-.9-.18-.19-.46-.29-.81-.29-.94,0-1.41.54-1.41,1.62v2.32h-.45v-4.26h.37l.06.74h.03c.11-.24.29-.43.53-.58.24-.16.54-.23.91-.23h.02Z"/>
      <path d="M18.25,102.54c.12,0,.23,0,.34-.03s.2-.04.28-.07v.37c-.09.03-.19.06-.3.08-.12.02-.24.03-.38.03-.35,0-.62-.1-.82-.3-.19-.2-.29-.52-.29-.96v-2.7h-.63v-.26l.63-.14.16-.98h.29v1.02h1.31v.37h-1.31v2.69c0,.6.24.9.72.9v-.02Z"/>
      <path d="M21.51,98.51c.36,0,.67.08.91.25s.43.4.55.69c.12.29.18.63.18,1.01v.32h-3.04c0,.56.13.99.39,1.29s.64.45,1.13.45c.27,0,.5-.02.7-.06s.41-.12.65-.22v.42c-.21.1-.42.17-.63.21s-.45.06-.73.06c-.63,0-1.12-.19-1.46-.58s-.51-.92-.51-1.59c0-.43.07-.82.22-1.16.15-.34.36-.6.64-.8.28-.19.61-.29,1.01-.29h0ZM21.5,98.89c-.39,0-.71.13-.95.39-.24.26-.39.63-.43,1.11h2.55c0-.45-.09-.81-.28-1.09s-.49-.42-.89-.42h0Z"/>
      <path d="M26.17,98.52c.22,0,.42.02.58.07l-.06.42c-.09-.02-.17-.04-.26-.05s-.18-.02-.27-.02c-.39,0-.71.14-.93.43-.23.29-.34.67-.34,1.14v2.34h-.46v-4.26h.38l.05.8h.02c.11-.24.27-.45.48-.62.22-.17.48-.26.8-.26h.01Z"/>
      <path d="M29.31,98.51c.36,0,.67.08.91.25s.43.4.55.69c.12.29.18.63.18,1.01v.32h-3.04c0,.56.13.99.39,1.29s.64.45,1.13.45c.27,0,.5-.02.7-.06s.41-.12.65-.22v.42c-.21.1-.42.17-.63.21s-.45.06-.73.06c-.63,0-1.12-.19-1.46-.58s-.51-.92-.51-1.59c0-.43.07-.82.22-1.16.15-.34.36-.6.64-.8.28-.19.61-.29,1.01-.29h0ZM29.31,98.89c-.39,0-.71.13-.95.39-.24.26-.39.63-.43,1.11h2.55c0-.45-.09-.81-.28-1.09s-.49-.42-.89-.42h0Z"/>
      <path d="M34.91,101.72c0,.39-.14.69-.43.9s-.69.31-1.22.31c-.3,0-.56-.03-.79-.08s-.42-.12-.57-.19v-.44c.19.1.4.17.64.24.24.06.49.09.74.09.42,0,.72-.07.9-.21.19-.14.28-.33.28-.58s-.1-.42-.29-.54c-.2-.13-.49-.25-.88-.39-.26-.09-.49-.18-.69-.27s-.36-.21-.47-.36-.17-.34-.17-.6c0-.34.14-.61.42-.8s.65-.29,1.11-.29c.26,0,.5.03.72.08s.42.11.6.19l-.16.38c-.17-.07-.35-.14-.56-.18s-.42-.07-.62-.07c-.34,0-.6.06-.78.18-.19.12-.28.29-.28.51,0,.17.05.3.14.4s.22.18.39.26c.17.07.38.15.62.24.25.09.48.18.68.27.21.1.37.22.49.37.12.15.18.35.18.6v-.02Z"/>
      <path d="M37.3,102.54c.12,0,.23,0,.34-.03.11-.02.2-.04.28-.07v.37c-.08.03-.19.06-.3.08s-.24.03-.38.03c-.35,0-.62-.1-.82-.3-.19-.2-.29-.52-.29-.96v-2.7h-.63v-.26l.63-.14.16-.98h.29v1.02h1.31v.37h-1.31v2.69c0,.6.24.9.72.9v-.02Z"/>
      <path d="M44.37,102.84h-3.14v-5.71h3.14v.42h-2.67v2.1h2.52v.41h-2.52v2.38h2.67v.42-.02Z"/>
      <path d="M46.71,100.66l-1.49-2.07h.54l1.22,1.76,1.23-1.76h.52l-1.47,2.07,1.56,2.18h-.53l-1.31-1.87-1.3,1.87h-.52l1.55-2.18Z"/>
      <path d="M51.74,98.51c.54,0,.97.18,1.28.55s.46.91.46,1.64-.16,1.28-.48,1.66c-.32.38-.75.57-1.3.57-.38,0-.68-.08-.91-.24s-.39-.35-.5-.58h-.03c0,.14,0,.29.02.44s0,.3,0,.44v1.74h-.46v-6.14h.38l.06.8h.02c.11-.23.28-.44.51-.62s.55-.26.94-.26ZM51.67,98.91c-.47,0-.82.15-1.04.44-.22.3-.34.72-.34,1.28v.08c0,.61.11,1.06.33,1.36s.56.45,1.02.45.77-.16,1.01-.49c.23-.33.35-.78.35-1.36s-.11-1.01-.33-1.32-.55-.46-1-.46v.02Z"/>
      <path d="M56.36,98.51c.36,0,.67.08.91.25s.43.4.55.69.18.63.18,1.01v.32h-3.04c0,.56.13.99.39,1.29s.64.45,1.13.45c.27,0,.5-.02.7-.06s.41-.12.65-.22v.42c-.21.1-.42.17-.63.21-.21.04-.45.06-.73.06-.63,0-1.12-.19-1.46-.58s-.51-.92-.51-1.59c0-.43.07-.82.22-1.16.15-.34.36-.6.64-.8.28-.19.61-.29,1.01-.29h-.01ZM56.35,98.89c-.39,0-.71.13-.95.39s-.39.63-.43,1.11h2.55c0-.45-.09-.81-.28-1.09s-.49-.42-.89-.42h0Z"/>
      <path d="M61.19,98.51c.49,0,.86.12,1.11.38s.38.64.38,1.18v2.78h-.46v-2.75c0-.41-.09-.7-.28-.9-.18-.19-.46-.29-.81-.29-.94,0-1.41.54-1.41,1.62v2.32h-.45v-4.26h.37l.06.74h.03c.11-.24.29-.43.53-.58.24-.16.54-.23.91-.23h.02Z"/>
      <path d="M66.84,101.72c0,.39-.14.69-.43.9s-.69.31-1.22.31c-.3,0-.56-.03-.79-.08s-.42-.12-.57-.19v-.44c.19.1.4.17.64.24.24.06.49.09.74.09.42,0,.72-.07.9-.21.19-.14.28-.33.28-.58s-.1-.42-.29-.54c-.2-.13-.49-.25-.88-.39-.26-.09-.49-.18-.69-.27s-.36-.21-.47-.36-.17-.34-.17-.6c0-.34.14-.61.42-.8s.65-.29,1.11-.29c.26,0,.5.03.72.08s.42.11.6.19l-.16.38c-.17-.07-.35-.14-.56-.18s-.42-.07-.62-.07c-.34,0-.6.06-.78.18-.19.12-.28.29-.28.51,0,.17.05.3.14.4s.22.18.39.26c.17.07.38.15.62.24.25.09.48.18.68.27.21.1.37.22.49.37.12.15.18.35.18.6v-.02Z"/>
      <path d="M69.65,98.51c.36,0,.67.08.91.25s.43.4.55.69.18.63.18,1.01v.32h-3.04c0,.56.13.99.39,1.29s.64.45,1.13.45c.27,0,.5-.02.7-.06s.41-.12.65-.22v.42c-.21.1-.42.17-.63.21s-.45.06-.73.06c-.63,0-1.12-.19-1.46-.58s-.51-.92-.51-1.59c0-.43.07-.82.22-1.16s.36-.6.64-.8c.28-.19.61-.29,1.01-.29h-.01ZM69.64,98.89c-.39,0-.71.13-.95.39s-.38.63-.43,1.11h2.55c0-.45-.09-.81-.28-1.09s-.49-.42-.89-.42h0Z"/>
    </g>
    <path class="st5" d="M6.39,99.98c0,.43-.08.83-.24,1.22-.16.38-.39.73-.7,1.04-.3.3-.65.53-1.03.69-.39.16-.79.24-1.22.24s-.84-.08-1.23-.24c-.39-.16-.73-.39-1.03-.69-.3-.31-.54-.65-.7-1.04-.16-.38-.24-.79-.24-1.22s.08-.83.24-1.22.39-.73.7-1.04c.3-.3.65-.53,1.03-.69.39-.16.79-.24,1.22-.24s.83.08,1.22.24c.38.16.73.39,1.04.7.3.31.54.65.7,1.04s.24.79.24,1.22h0Z"/>
    <g>
      <g>
        <path d="M96.14,97.13c.68,0,1.2.12,1.54.36.34.24.52.64.52,1.21,0,.44-.12.78-.35,1.02-.23.25-.52.42-.87.53l1.57,2.59h-.55l-1.46-2.46h-1.36v2.46h-.46v-5.71s1.42,0,1.42,0ZM96.1,97.55h-.92v2.43h1.08c.46,0,.82-.11,1.08-.33.25-.22.38-.53.38-.94,0-.44-.13-.74-.4-.91s-.67-.26-1.22-.26h0Z"/>
        <path d="M101.15,98.51c.36,0,.67.08.91.25s.43.4.55.69.18.63.18,1.01v.32h-3.04c0,.56.13.99.39,1.29s.64.45,1.13.45c.27,0,.5-.02.7-.06s.41-.12.65-.22v.42c-.21.1-.42.17-.63.21s-.45.06-.73.06c-.63,0-1.12-.19-1.46-.58s-.51-.92-.51-1.59c0-.43.07-.82.22-1.16.15-.34.36-.6.64-.8.28-.19.61-.29,1.01-.29h-.01ZM101.14,98.89c-.39,0-.71.13-.95.39s-.39.63-.43,1.11h2.55c0-.45-.09-.81-.28-1.09s-.49-.42-.89-.42h0Z"/>
        <path d="M105.78,102.92c-.62,0-1.11-.19-1.44-.57-.34-.38-.51-.92-.51-1.61,0-.48.08-.88.26-1.21.17-.33.41-.59.72-.76.31-.17.66-.26,1.07-.26.21,0,.4.02.58.06s.34.09.48.15l-.13.4c-.3-.13-.61-.2-.93-.2-.5,0-.89.16-1.16.49-.27.33-.41.77-.41,1.33s.12.97.36,1.3.61.5,1.11.5c.21,0,.41-.02.6-.06s.35-.1.5-.17v.41c-.14.07-.3.12-.48.16s-.39.06-.62.06v-.02Z"/>
        <path d="M111.35,98.59v4.26h-.38l-.06-.73h-.02c-.12.23-.3.42-.54.58s-.54.23-.91.23c-1,0-1.5-.52-1.5-1.55v-2.78h.46v2.75c0,.41.09.71.27.9s.45.29.82.29c.94,0,1.41-.54,1.41-1.62v-2.32h.46-.01Z"/>
        <path d="M114.63,98.52c.22,0,.42.02.58.07l-.06.42c-.09-.02-.17-.04-.26-.05-.09-.01-.18-.02-.27-.02-.39,0-.71.14-.93.43-.23.29-.34.67-.34,1.14v2.34h-.46v-4.26h.38l.05.8h.02c.11-.24.27-.45.48-.62.22-.17.48-.26.8-.26h0Z"/>
        <path d="M117.9,98.52c.22,0,.42.02.58.07l-.06.42c-.08-.02-.17-.04-.26-.05s-.18-.02-.27-.02c-.4,0-.71.14-.93.43-.23.29-.34.67-.34,1.14v2.34h-.46v-4.26h.38l.05.8h.02c.11-.24.27-.45.48-.62.22-.17.48-.26.8-.26h0Z"/>
        <path d="M119.65,97.01c.21,0,.32.12.32.34s-.11.35-.32.35-.3-.12-.3-.35.1-.34.3-.34ZM119.88,98.59v4.26h-.45v-4.26h.45Z"/>
        <path d="M123.31,98.51c.49,0,.86.12,1.11.38s.38.64.38,1.18v2.78h-.46v-2.75c0-.41-.09-.7-.28-.9-.18-.19-.46-.29-.81-.29-.94,0-1.41.54-1.41,1.62v2.32h-.45v-4.26h.37l.06.74h.03c.11-.24.29-.43.53-.58.24-.16.54-.23.91-.23h.02Z"/>
        <path d="M127.85,98.51c.34,0,.62.06.84.19.22.13.4.31.53.54h.02l.07-.65h.37v4.39c0,.56-.14,1-.43,1.31s-.75.47-1.4.47c-.32,0-.6-.03-.85-.08s-.47-.12-.67-.21v-.44c.2.1.43.18.69.24s.54.09.84.09c.46,0,.81-.12,1.03-.37s.33-.58.33-1v-.59c0-.11,0-.22.02-.33h-.02c-.12.28-.3.49-.54.62s-.54.21-.88.21c-.55,0-.99-.19-1.29-.56-.31-.37-.46-.91-.46-1.62s.15-1.23.46-1.64c.31-.4.75-.6,1.34-.6v.03ZM127.9,98.91c-.46,0-.8.16-1.03.48-.23.32-.34.78-.34,1.36s.11,1.02.34,1.33c.23.3.56.46.99.46.35,0,.63-.07.83-.22.2-.14.34-.34.43-.59.08-.25.13-.54.13-.86v-.27c0-.54-.1-.96-.3-1.26-.2-.29-.54-.44-1.04-.44h0Z"/>
        <path d="M134.78,102.84h-1.68v-.29l.61-.09v-4.95l-.61-.1v-.29h1.68v.29l-.61.1v4.95l.61.09v.29Z"/>
        <path d="M137.92,98.51c.49,0,.86.12,1.11.38.26.25.38.64.38,1.18v2.78h-.46v-2.75c0-.41-.09-.7-.28-.9-.18-.19-.45-.29-.81-.29-.94,0-1.41.54-1.41,1.62v2.32h-.45v-4.26h.37l.06.74h.03c.11-.24.29-.43.53-.58.24-.16.54-.23.91-.23h.02Z"/>
        <path d="M142.61,102.92c-.62,0-1.11-.19-1.44-.57-.34-.38-.51-.92-.51-1.61,0-.48.08-.88.26-1.21.17-.33.41-.59.72-.76.31-.17.66-.26,1.07-.26.21,0,.4.02.58.06.18.04.34.09.48.15l-.13.4c-.3-.13-.61-.2-.93-.2-.5,0-.89.16-1.16.49-.27.33-.41.77-.41,1.33s.12.97.36,1.3.61.5,1.11.5c.21,0,.41-.02.6-.06s.35-.1.5-.17v.41c-.14.07-.3.12-.48.16s-.39.06-.62.06v-.02Z"/>
        <path d="M148.39,100.72c0,.44-.07.83-.22,1.16s-.36.59-.65.77-.63.28-1.04.28-.73-.09-1.02-.27c-.28-.18-.5-.44-.65-.77-.15-.33-.23-.72-.23-1.17,0-.69.17-1.23.52-1.62s.81-.58,1.41-.58c.41,0,.75.09,1.03.28.28.18.49.44.64.77.14.33.22.72.22,1.16h-.01ZM145.05,100.72c0,.54.11.98.34,1.32.23.33.59.5,1.08.5s.86-.17,1.09-.5.35-.77.35-1.32c0-.35-.05-.66-.14-.94-.1-.27-.25-.48-.46-.64-.21-.15-.48-.23-.82-.23-.49,0-.85.16-1.09.48-.24.32-.36.76-.36,1.33h.01Z"/>
        <path d="M154.12,98.51c.42,0,.75.12.99.36s.36.62.36,1.14v2.84h-.45v-2.82c0-.38-.09-.67-.26-.85s-.41-.27-.7-.27c-.41,0-.72.12-.94.36s-.33.6-.33,1.1v2.48h-.45v-2.82c0-.38-.09-.67-.26-.85s-.41-.27-.7-.27c-.41,0-.72.12-.94.37s-.33.63-.33,1.15v2.42h-.45v-4.26h.37l.06.67h.03c.11-.21.27-.39.48-.53.22-.15.49-.22.83-.22.31,0,.57.07.78.2.21.13.36.33.45.6h.03c.12-.26.3-.45.54-.59.25-.14.53-.21.86-.21h.03Z"/>
        <path d="M158.56,98.51c.36,0,.67.08.91.25s.43.4.55.69c.12.29.18.63.18,1.01v.32h-3.04c0,.56.13.99.39,1.29s.64.45,1.13.45c.27,0,.5-.02.7-.06s.41-.12.65-.22v.42c-.21.1-.42.17-.63.21s-.45.06-.73.06c-.63,0-1.12-.19-1.46-.58-.34-.39-.51-.92-.51-1.59,0-.43.07-.82.22-1.16.15-.34.36-.6.64-.8.28-.19.61-.29,1.01-.29h0ZM158.55,98.89c-.39,0-.71.13-.95.39-.24.26-.39.63-.43,1.11h2.55c0-.45-.09-.81-.28-1.09s-.49-.42-.89-.42h0Z"/>
      </g>
      <path class="st4" d="M91.85,99.98c0,.43-.08.83-.24,1.22-.16.38-.39.73-.7,1.04s-.64.53-1.03.69-.79.24-1.22.24-.84-.08-1.23-.24c-.39-.16-.73-.39-1.03-.69-.3-.31-.54-.65-.7-1.04-.16-.38-.24-.79-.24-1.22s.08-.83.24-1.22c.16-.39.39-.73.7-1.04s.64-.53,1.03-.69.79-.24,1.22-.24.84.08,1.22.24c.38.16.73.39,1.04.7s.54.65.7,1.04.24.79.24,1.22h0Z"/>
    </g>
  </g>
  <g id="Graph">
    <g>
      <g>
        <rect class="st0" x="205.37" width="14.98" height="79.26"/>
        <rect class="st4" x="205.37" width="10.79" height="79.26"/>
        <rect class="st0" x="205.37" width="14.98" height="79.26"/>
      </g>
      <g>
        <rect class="st0" x="190.39" y="78.52" width="14.98" height=".74"/>
        <rect class="st5" x="190.39" y="78.52" width="10.79" height=".74"/>
        <rect class="st0" x="190.39" y="78.52" width="14.98" height=".74"/>
      </g>
      <g>
        <rect class="st0" x="160.42" width="14.98" height="79.26"/>
        <rect class="st4" x="160.42" width="10.79" height="79.26"/>
        <rect class="st0" x="160.42" width="14.98" height="79.26"/>
      </g>
      <g>
        <rect class="st0" x="145.43" y="78.29" width="14.98" height=".97"/>
        <rect class="st5" x="145.43" y="78.29" width="10.79" height=".97"/>
        <rect class="st0" x="145.43" y="78.29" width="14.98" height=".97"/>
      </g>
      <g>
        <rect class="st0" x="115.46" width="14.98" height="79.26"/>
        <rect class="st4" x="115.46" width="10.79" height="79.26"/>
        <rect class="st0" x="115.46" width="14.98" height="79.26"/>
      </g>
      <g>
        <rect class="st0" x="100.48" y="78.25" width="14.98" height="1.01"/>
        <rect class="st5" x="100.48" y="78.25" width="10.79" height="1.01"/>
        <rect class="st0" x="100.48" y="78.25" width="14.98" height="1.01"/>
      </g>
      <g>
        <rect class="st0" x="70.53" width="14.98" height="79.26"/>
        <rect class="st4" x="70.53" width="10.79" height="79.26"/>
        <rect class="st0" x="70.53" width="14.98" height="79.26"/>
      </g>
      <g>
        <rect class="st0" x="55.55" y="78.49" width="14.98" height=".77"/>
        <rect class="st5" x="55.55" y="78.49" width="10.79" height=".77"/>
        <rect class="st0" x="55.55" y="78.49" width="14.98" height=".77"/>
      </g>
      <g>
        <rect class="st0" x="25.58" width="14.98" height="79.26"/>
        <rect class="st4" x="25.58" width="10.79" height="79.26"/>
        <rect class="st0" x="25.58" width="14.98" height="79.26"/>
      </g>
      <g>
        <rect class="st0" x="10.6" y="78.67" width="14.98" height=".59"/>
        <rect class="st5" x="10.6" y="78.67" width="10.79" height=".59"/>
        <rect class="st0" x="10.6" y="78.67" width="14.98" height=".59"/>
      </g>
    </g>
  </g>
  <g id="Text">
    <g>
      <rect class="st0" x="190.39" y="75.69" width="10.79" height="2.83"/>
      <g>
        <path class="st3" d="M193.33,75.69h-.6v-3.97c0-.12,0-.25.02-.38-.08.08-.14.14-.21.19-.06.05-.14.12-.23.2l-.53.43-.32-.41,1.35-1.05h.51v5h.01Z"/>
        <path class="st3" d="M195.98,70.62c.34,0,.6.14.78.41.18.27.27.66.27,1.15s-.09.88-.26,1.16c-.17.28-.44.42-.79.42-.33,0-.58-.14-.76-.42-.17-.28-.26-.66-.26-1.16s.08-.88.25-1.15c.16-.27.42-.41.78-.41h-.01ZM195.98,71.05c-.18,0-.31.09-.39.28s-.12.47-.12.84.04.66.12.85c.08.19.21.29.39.29.36,0,.54-.38.54-1.13s-.18-1.13-.54-1.13ZM199.18,70.69l-2.77,5h-.54l2.77-5h.54ZM199.04,72.62c.34,0,.6.14.78.41.18.27.27.66.27,1.15s-.08.88-.26,1.16c-.17.28-.43.42-.79.42-.33,0-.58-.14-.76-.42-.17-.28-.26-.66-.26-1.16s.08-.88.25-1.15c.16-.27.42-.41.78-.41h-.01ZM199.04,73.06c-.18,0-.31.09-.39.28s-.12.47-.12.84.04.66.12.85c.08.19.21.28.39.28.36,0,.54-.38.54-1.13s-.18-1.12-.54-1.12Z"/>
      </g>
    </g>
    <g>
      <rect class="st0" x="10.6" y="75.84" width="10.79" height="2.83"/>
      <g>
        <path class="st3" d="M13.54,75.83h-.6v-3.97c0-.12.01-.25.02-.38-.07.07-.14.14-.21.19-.06.05-.14.12-.23.2l-.53.43-.32-.41,1.35-1.05h.51v5h0Z"/>
        <path class="st3" d="M16.18,70.77c.34,0,.6.14.78.41.18.27.27.66.27,1.15s-.08.88-.25,1.16c-.17.28-.44.42-.79.42-.33,0-.58-.14-.76-.42-.17-.28-.26-.66-.26-1.16s.08-.88.25-1.15c.16-.27.42-.41.78-.41h-.02ZM16.18,71.2c-.18,0-.31.09-.39.28s-.12.47-.12.84.04.66.12.85.21.29.39.29c.36,0,.54-.38.54-1.13s-.18-1.13-.54-1.13ZM19.38,70.84l-2.77,5h-.54l2.77-5h.54ZM19.24,72.77c.34,0,.6.14.78.41.18.27.27.66.27,1.15s-.09.88-.26,1.16c-.17.28-.44.42-.79.42-.33,0-.58-.14-.76-.42-.17-.28-.26-.66-.26-1.16s.08-.88.24-1.15c.16-.27.42-.41.78-.41ZM19.24,73.21c-.18,0-.31.09-.39.28s-.12.47-.12.84.04.66.12.85c.08.19.21.28.39.28.36,0,.54-.38.54-1.13s-.18-1.12-.54-1.12Z"/>
      </g>
    </g>
    <g>
      <rect class="st0" x="55.55" y="75.66" width="10.79" height="2.83"/>
      <g>
        <path class="st3" d="M58.48,75.66h-.6v-3.97c0-.12,0-.25.02-.38-.08.07-.14.14-.21.19-.06.05-.14.12-.23.2l-.53.43-.32-.41,1.35-1.05h.51v5h0Z"/>
        <path class="st3" d="M61.13,70.6c.34,0,.6.14.78.41.18.27.27.66.27,1.15s-.09.88-.26,1.16c-.17.28-.44.42-.79.42-.33,0-.58-.14-.76-.42-.17-.28-.26-.66-.26-1.16s.08-.88.25-1.15c.16-.27.42-.41.78-.41h-.01ZM61.13,71.03c-.18,0-.31.09-.39.28-.08.19-.12.47-.12.84s.04.66.12.85c.08.19.21.29.39.29.36,0,.54-.38.54-1.13s-.18-1.13-.54-1.13ZM64.33,70.66l-2.77,5h-.54l2.77-5h.54ZM64.19,72.6c.34,0,.6.14.78.41.18.27.27.66.27,1.15s-.08.88-.26,1.16c-.17.28-.43.42-.79.42-.33,0-.58-.14-.76-.42-.17-.28-.26-.66-.26-1.16s.08-.88.25-1.15c.16-.27.42-.41.78-.41h0ZM64.19,73.04c-.18,0-.31.09-.39.28s-.12.47-.12.84.04.66.12.85c.08.19.21.28.39.28.36,0,.54-.38.54-1.13s-.18-1.12-.54-1.12Z"/>
      </g>
    </g>
    <g>
      <rect class="st0" x="100.49" y="75.41" width="10.79" height="2.83"/>
      <g>
        <path class="st3" d="M103.43,75.41h-.6v-3.97c0-.12.01-.25.02-.38-.07.08-.14.14-.21.19-.06.05-.14.12-.23.2l-.53.43-.32-.41,1.35-1.05h.51v5h.01Z"/>
        <path class="st3" d="M106.08,70.34c.34,0,.6.14.78.41.18.27.27.66.27,1.15s-.08.88-.25,1.16c-.17.28-.44.42-.79.42-.33,0-.58-.14-.76-.42-.17-.28-.26-.66-.26-1.16s.08-.88.25-1.15c.16-.27.42-.41.78-.41h-.02ZM106.08,70.77c-.18,0-.31.09-.39.28s-.12.47-.12.84.04.66.12.85c.08.19.21.29.39.29.36,0,.54-.38.54-1.13s-.18-1.13-.54-1.13ZM109.28,70.41l-2.77,5h-.54l2.77-5h.54ZM109.14,72.34c.34,0,.6.14.78.41.18.27.27.66.27,1.15s-.09.88-.26,1.16c-.17.28-.44.42-.79.42-.33,0-.58-.14-.76-.42s-.26-.66-.26-1.16.08-.88.25-1.15c.16-.27.42-.41.78-.41h0ZM109.14,72.78c-.18,0-.31.09-.39.28s-.12.47-.12.84.04.66.12.85c.08.19.21.28.39.28.36,0,.54-.38.54-1.13s-.18-1.12-.54-1.12Z"/>
      </g>
    </g>
    <g>
      <rect class="st0" x="145.44" y="75.46" width="10.79" height="2.83"/>
      <g>
        <path class="st3" d="M148.39,75.46h-.6v-3.97c0-.12,0-.25.02-.38-.08.07-.14.14-.21.19-.06.05-.14.12-.23.2l-.53.43-.32-.41,1.35-1.05h.51v5h.01Z"/>
        <path class="st3" d="M151.03,70.4c.34,0,.6.14.78.41.18.27.27.66.27,1.15s-.09.88-.26,1.16c-.17.28-.44.42-.79.42-.33,0-.58-.14-.76-.42-.17-.28-.26-.66-.26-1.16s.08-.88.25-1.15c.16-.27.42-.41.78-.41h-.01ZM151.03,70.83c-.18,0-.31.09-.39.28s-.12.47-.12.84.04.66.12.85c.08.19.21.29.39.29.36,0,.54-.38.54-1.13s-.18-1.13-.54-1.13ZM154.23,70.46l-2.77,5h-.54l2.77-5h.54ZM154.09,72.4c.34,0,.6.14.78.41.18.27.27.66.27,1.15s-.08.88-.26,1.16c-.17.28-.43.42-.79.42-.33,0-.58-.14-.76-.42-.17-.28-.26-.66-.26-1.16s.08-.88.25-1.15c.16-.27.42-.41.78-.41h-.01ZM154.09,72.84c-.18,0-.31.09-.39.28s-.12.47-.12.84.04.66.12.85c.08.19.21.28.39.28.36,0,.54-.38.54-1.13s-.18-1.12-.54-1.12Z"/>
      </g>
    </g>
    <line class="st1" x1="54.34" y1="78.5" x2="83.25" y2="78.5"/>
    <line class="st1" x1="99.12" y1="78.24" x2="128.03" y2="78.24"/>
    <line class="st1" x1="144.07" y1="78.3" x2="172.98" y2="78.3"/>
    <line class="st1" x1="189.04" y1="78.52" x2="217.95" y2="78.52"/>
    <line class="st1" x1="9.23" y1="78.67" x2="38.15" y2="78.67"/>
    <rect class="st0" x="200.09" y="71.48" width="1.09" height="5.09"/>
  </g>
  <g id="Year">
    <g>
      <g>
        <g>
          <path d="M202.85,88.26h-3.3v-.51l1.31-1.32c.25-.25.46-.48.63-.67s.31-.39.4-.57.13-.39.13-.62c0-.28-.08-.48-.25-.63-.16-.14-.38-.21-.64-.21s-.46.04-.64.13c-.18.08-.37.2-.56.35l-.33-.41c.2-.16.42-.3.68-.42.25-.11.54-.17.86-.17.47,0,.84.12,1.11.36s.41.56.41.97c0,.26-.05.51-.16.74-.11.23-.26.46-.45.68s-.42.46-.67.71l-1.04,1.03v.03h2.53v.56l-.02-.03Z"/>
          <path d="M205.34,85.19c.51,0,.92.13,1.22.39s.46.62.46,1.08c0,.52-.17.92-.49,1.22-.33.3-.79.44-1.38.44-.26,0-.5-.02-.73-.07-.22-.05-.41-.11-.57-.2v-.58c.17.1.37.18.61.24s.47.09.69.09c.37,0,.67-.09.89-.26.23-.17.34-.45.34-.82,0-.33-.1-.58-.3-.75-.2-.18-.52-.26-.95-.26-.13,0-.28.01-.45.04s-.3.05-.41.07l-.31-.2.19-2.36h2.51v.56h-1.98l-.12,1.45c.08-.01.19-.03.32-.05.14-.02.29-.03.45-.03h0Z"/>
        </g>
        <g>
          <path d="M67.94,88.26h-3.3v-.51l1.31-1.32c.25-.25.46-.48.63-.67s.31-.39.4-.57.13-.39.13-.62c0-.28-.08-.48-.25-.63-.16-.14-.38-.21-.64-.21s-.46.04-.64.13c-.18.08-.37.2-.56.35l-.33-.41c.2-.16.42-.3.68-.42.25-.11.54-.17.86-.17.47,0,.84.12,1.11.36.27.24.41.56.41.97,0,.26-.05.51-.16.74-.11.23-.26.46-.45.68-.19.22-.42.46-.67.71l-1.04,1.03v.03h2.53v.56l-.02-.03Z"/>
          <path d="M72.2,88.26h-3.3v-.51l1.31-1.32c.25-.25.46-.48.63-.67s.31-.39.4-.57.13-.39.13-.62c0-.28-.08-.48-.25-.63-.16-.14-.38-.21-.64-.21s-.46.04-.64.13c-.18.08-.37.2-.56.35l-.33-.41c.2-.16.42-.3.68-.42.25-.11.54-.17.86-.17.47,0,.84.12,1.11.36.27.24.41.56.41.97,0,.26-.05.51-.16.74-.11.23-.26.46-.45.68-.19.22-.42.46-.67.71l-1.04,1.03v.03h2.53v.56l-.02-.03Z"/>
        </g>
        <g>
          <path d="M157.81,88.26h-3.3v-.51l1.31-1.32c.25-.25.46-.48.63-.67s.31-.39.4-.57.13-.39.13-.62c0-.28-.08-.48-.25-.63-.16-.14-.38-.21-.64-.21s-.46.04-.64.13c-.18.08-.37.2-.56.35l-.33-.41c.2-.16.42-.3.68-.42.25-.11.54-.17.86-.17.47,0,.84.12,1.11.36s.41.56.41.97c0,.26-.05.51-.16.74-.11.23-.26.46-.45.68s-.42.46-.67.71l-1.04,1.03v.03h2.53v.56l-.02-.03Z"/>
          <path d="M162.15,87.13h-.73v1.13h-.59v-1.13h-2.39v-.53l2.35-3.37h.64v3.34h.73v.55h-.01ZM160.82,86.57v-1.58c0-.24,0-.45,0-.62,0-.17,0-.33.02-.49h-.03c-.04.09-.08.18-.14.29-.06.1-.11.19-.16.26l-1.5,2.14h1.8Z"/>
        </g>
        <g>
          <path d="M112.91,88.26h-3.3v-.51l1.31-1.32c.25-.25.46-.48.63-.67s.31-.39.4-.57.13-.39.13-.62c0-.28-.08-.48-.25-.63-.16-.14-.38-.21-.64-.21s-.46.04-.64.13c-.18.08-.37.2-.56.35l-.33-.41c.2-.16.42-.3.68-.42.25-.11.54-.17.86-.17.47,0,.84.12,1.11.36.27.24.41.56.41.97,0,.26-.05.51-.16.74-.11.23-.26.46-.45.68-.19.22-.42.46-.67.71l-1.04,1.03v.03h2.53v.56l-.02-.03Z"/>
          <path d="M116.99,84.43c0,.34-.09.6-.28.8-.19.2-.44.33-.75.4v.03c.4.05.69.17.89.38s.3.47.3.8c0,.29-.07.55-.2.78-.14.22-.34.4-.63.52s-.65.19-1.09.19c-.26,0-.5-.02-.73-.06-.22-.04-.44-.11-.64-.21v-.57c.21.11.44.19.68.25s.48.08.7.08c.45,0,.77-.09.97-.26.2-.17.3-.42.3-.72s-.12-.54-.37-.68-.59-.21-1.03-.21h-.48v-.52h.49c.41,0,.72-.09.93-.26.21-.17.32-.4.32-.69,0-.24-.08-.43-.25-.56-.16-.13-.38-.2-.67-.2s-.5.04-.69.12-.38.18-.57.3l-.31-.42c.18-.14.4-.26.66-.36s.56-.15.9-.15c.52,0,.91.12,1.17.35.25.23.38.53.38.89v-.02Z"/>
        </g>
        <g>
          <path d="M23.7,88.26h-3.3v-.51l1.31-1.32c.25-.25.46-.48.63-.67s.31-.39.4-.57.13-.39.13-.62c0-.28-.08-.48-.25-.63-.16-.14-.38-.21-.64-.21s-.46.04-.64.13c-.18.08-.37.2-.56.35l-.33-.41c.2-.16.42-.3.68-.42.25-.11.54-.17.86-.17.47,0,.84.12,1.11.36s.41.56.41.97c0,.26-.05.51-.16.74-.11.23-.26.46-.45.68s-.42.46-.67.71l-1.04,1.03v.03h2.53v.56l-.02-.03Z"/>
          <path d="M26.57,88.26h-.6v-3.97c0-.12.01-.25.02-.38-.08.08-.14.14-.21.19-.06.05-.14.12-.23.2l-.53.43-.32-.41,1.35-1.05h.51v5h0Z"/>
        </g>
      </g>
      <line class="st2" x1="0" y1="79.26" x2="226.75" y2="79.26"/>
    </g>
  </g>
</svg>