<?xml version="1.0" encoding="UTF-8"?>
<svg id="Layer_1" xmlns="http://www.w3.org/2000/svg" version="1.1" viewBox="0 0 226.74 104.73">
  <!-- Generator: Adobe Illustrator 29.6.0, SVG Export Plug-In . SVG Version: 2.1.1 Build 207)  -->
  <defs>
    <style>
      .st0, .st1, .st2 {
        fill: none;
      }

      .st3 {
        fill: #cca129;
      }

      .st1 {
        stroke-dasharray: 1.5 1.5;
        stroke-linecap: round;
        stroke-width: .5px;
      }

      .st1, .st2 {
        stroke: #000;
        stroke-miterlimit: 10;
      }

      .st4 {
        fill: #99d5d3;
      }

      .st2 {
        stroke-width: .25px;
      }

      .st5 {
        fill: #fab600;
      }
    </style>
  </defs>
  <g id="Legend">
    <g>
      <g>
        <path d="M10.92,102.84h-1.68v-.29l.61-.09v-4.95l-.61-.1v-.29h1.68v.29l-.61.1v4.95l.61.09v.29Z"/>
        <path d="M14.06,98.51c.49,0,.86.12,1.11.38.26.25.38.64.38,1.18v2.78h-.46v-2.75c0-.41-.09-.7-.28-.9-.18-.19-.45-.29-.81-.29-.94,0-1.41.54-1.41,1.62v2.32h-.45v-4.26h.37l.06.74h.03c.11-.24.29-.43.53-.58.24-.16.54-.23.91-.23h.02Z"/>
        <path d="M18.24,102.54c.12,0,.23,0,.34-.03.11-.02.2-.04.28-.07v.37c-.09.03-.19.06-.3.08-.11.02-.24.03-.38.03-.35,0-.62-.1-.82-.3s-.29-.52-.29-.96v-2.7h-.63v-.26l.63-.14.16-.98h.29v1.02h1.31v.37h-1.31v2.69c0,.6.24.9.72.9v-.02Z"/>
        <path d="M21.5,98.51c.36,0,.67.08.91.25s.43.4.55.69c.12.29.18.63.18,1.01v.32h-3.04c0,.56.13.99.39,1.29s.64.45,1.13.45c.27,0,.5-.02.7-.06s.41-.12.65-.22v.42c-.21.1-.42.17-.63.21s-.45.06-.73.06c-.63,0-1.12-.19-1.46-.58s-.51-.92-.51-1.59c0-.43.07-.82.22-1.16.15-.34.36-.6.64-.8.28-.19.61-.29,1.01-.29h0ZM21.49,98.89c-.39,0-.71.13-.95.39-.24.26-.39.63-.43,1.11h2.55c0-.45-.09-.81-.28-1.09s-.49-.42-.89-.42h0Z"/>
        <path d="M26.16,98.52c.22,0,.42.02.58.07l-.06.42c-.09-.02-.17-.04-.26-.05s-.18-.02-.27-.02c-.4,0-.71.14-.93.43-.23.29-.34.67-.34,1.14v2.34h-.46v-4.26h.38l.05.8h.02c.11-.24.27-.45.48-.62.22-.17.48-.26.8-.26h.01Z"/>
        <path d="M29.31,98.51c.36,0,.67.08.91.25s.43.4.55.69c.12.29.18.63.18,1.01v.32h-3.04c0,.56.13.99.39,1.29s.64.45,1.13.45c.27,0,.5-.02.7-.06s.41-.12.65-.22v.42c-.21.1-.42.17-.63.21s-.45.06-.73.06c-.63,0-1.12-.19-1.46-.58s-.51-.92-.51-1.59c0-.43.07-.82.22-1.16.15-.34.36-.6.64-.8.28-.19.61-.29,1.01-.29h0ZM29.3,98.89c-.39,0-.71.13-.95.39-.24.26-.39.63-.43,1.11h2.55c0-.45-.09-.81-.28-1.09s-.49-.42-.89-.42h0Z"/>
        <path d="M34.9,101.72c0,.39-.14.69-.43.9s-.69.31-1.22.31c-.3,0-.56-.03-.79-.08s-.42-.12-.57-.19v-.44c.19.1.4.17.64.24.24.06.49.09.74.09.42,0,.72-.07.9-.21.19-.14.28-.33.28-.58s-.1-.42-.29-.54c-.19-.13-.49-.25-.88-.39-.26-.09-.49-.18-.69-.27-.2-.09-.36-.21-.47-.36s-.17-.34-.17-.6c0-.34.14-.61.42-.8s.65-.29,1.11-.29c.26,0,.49.03.72.08.22.05.42.11.6.19l-.16.38c-.17-.07-.35-.14-.56-.18s-.42-.07-.62-.07c-.34,0-.6.06-.78.18-.19.12-.28.29-.28.51,0,.17.05.3.14.4s.22.18.39.26c.17.07.38.15.62.24.25.09.48.18.68.27.21.1.37.22.49.37.12.15.18.35.18.6v-.02Z"/>
        <path d="M37.29,102.54c.12,0,.23,0,.34-.03.11-.02.2-.04.28-.07v.37c-.09.03-.19.06-.3.08-.11.02-.24.03-.38.03-.35,0-.62-.1-.82-.3s-.29-.52-.29-.96v-2.7h-.63v-.26l.63-.14.16-.98h.29v1.02h1.31v.37h-1.31v2.69c0,.6.24.9.72.9v-.02Z"/>
        <path d="M44.36,102.84h-3.14v-5.71h3.14v.42h-2.67v2.1h2.52v.41h-2.52v2.38h2.67v.42-.02Z"/>
        <path d="M46.7,100.66l-1.49-2.07h.54l1.22,1.76,1.23-1.76h.52l-1.47,2.07,1.56,2.18h-.53l-1.31-1.87-1.3,1.87h-.52l1.55-2.18Z"/>
        <path d="M51.73,98.51c.54,0,.97.18,1.28.55s.46.91.46,1.64-.16,1.28-.48,1.66c-.32.38-.75.57-1.3.57-.38,0-.68-.08-.91-.24-.23-.16-.39-.35-.5-.58h-.03c0,.14,0,.29.02.44s0,.3,0,.44v1.74h-.46v-6.14h.38l.06.8h.02c.11-.23.28-.44.51-.62s.55-.26.94-.26ZM51.67,98.91c-.47,0-.82.15-1.04.44s-.34.72-.34,1.28v.08c0,.61.11,1.06.33,1.36s.56.45,1.02.45.77-.16,1.01-.49c.23-.33.35-.78.35-1.36s-.11-1.01-.33-1.32-.55-.46-1-.46v.02Z"/>
        <path d="M56.35,98.51c.36,0,.67.08.91.25s.43.4.55.69.18.63.18,1.01v.32h-3.04c0,.56.13.99.39,1.29s.64.45,1.13.45c.27,0,.5-.02.7-.06s.41-.12.65-.22v.42c-.21.1-.42.17-.63.21-.21.04-.45.06-.73.06-.63,0-1.12-.19-1.46-.58s-.51-.92-.51-1.59c0-.43.07-.82.22-1.16.15-.34.36-.6.64-.8.28-.19.61-.29,1.01-.29h-.01ZM56.35,98.89c-.39,0-.71.13-.95.39s-.39.63-.43,1.11h2.55c0-.45-.09-.81-.28-1.09s-.49-.42-.89-.42h0Z"/>
        <path d="M61.18,98.51c.49,0,.86.12,1.11.38.26.25.38.64.38,1.18v2.78h-.46v-2.75c0-.41-.09-.7-.28-.9-.18-.19-.45-.29-.81-.29-.94,0-1.41.54-1.41,1.62v2.32h-.45v-4.26h.37l.06.74h.03c.11-.24.29-.43.53-.58.24-.16.54-.23.91-.23h.02Z"/>
        <path d="M66.83,101.72c0,.39-.14.69-.43.9s-.69.31-1.22.31c-.3,0-.56-.03-.79-.08s-.42-.12-.57-.19v-.44c.19.1.4.17.64.24.24.06.49.09.74.09.42,0,.72-.07.9-.21.19-.14.28-.33.28-.58s-.1-.42-.29-.54c-.19-.13-.49-.25-.88-.39-.26-.09-.49-.18-.69-.27-.2-.09-.36-.21-.47-.36s-.17-.34-.17-.6c0-.34.14-.61.42-.8s.65-.29,1.11-.29c.26,0,.49.03.72.08.22.05.42.11.6.19l-.16.38c-.17-.07-.35-.14-.56-.18s-.42-.07-.62-.07c-.34,0-.6.06-.78.18-.19.12-.28.29-.28.51,0,.17.05.3.14.4s.22.18.39.26c.17.07.38.15.62.24.25.09.48.18.68.27.21.1.37.22.49.37.12.15.18.35.18.6v-.02Z"/>
        <path d="M69.64,98.51c.36,0,.67.08.91.25s.43.4.55.69.18.63.18,1.01v.32h-3.04c0,.56.13.99.39,1.29s.64.45,1.13.45c.27,0,.5-.02.7-.06s.41-.12.65-.22v.42c-.21.1-.42.17-.63.21s-.45.06-.73.06c-.63,0-1.12-.19-1.46-.58s-.51-.92-.51-1.59c0-.43.07-.82.22-1.16.15-.34.36-.6.64-.8.28-.19.61-.29,1.01-.29h-.01ZM69.63,98.89c-.39,0-.71.13-.95.39s-.39.63-.43,1.11h2.55c0-.45-.09-.81-.28-1.09s-.49-.42-.89-.42h0Z"/>
      </g>
      <path class="st5" d="M6.39,99.98c0,.43-.08.83-.24,1.22-.16.38-.39.73-.7,1.04-.3.3-.65.53-1.03.69-.39.16-.79.24-1.22.24s-.84-.08-1.23-.24c-.39-.16-.73-.39-1.03-.69-.3-.31-.54-.65-.7-1.04C.08,100.82,0,100.41,0,99.98s.08-.83.24-1.22.39-.73.7-1.04c.3-.3.65-.53,1.03-.69.39-.16.79-.24,1.22-.24s.83.08,1.22.24c.38.16.73.39,1.04.7.3.31.54.65.7,1.04s.24.79.24,1.22h0Z"/>
    </g>
    <g>
      <g>
        <path d="M99.09,99.93c0,.96-.25,1.69-.76,2.18s-1.25.74-2.22.74h-1.41v-5.71h1.58c.91,0,1.6.24,2.08.72s.72,1.17.72,2.08h.01ZM98.61,99.95c0-1.6-.8-2.41-2.41-2.41h-1.03v4.9h.91c1.69,0,2.53-.83,2.53-2.49Z"/>
        <path d="M100.64,97.01c.21,0,.32.12.32.34s-.11.35-.32.35-.3-.12-.3-.35.1-.34.3-.34ZM100.87,98.59v4.26h-.45v-4.26h.45Z"/>
        <path d="M103.32,102.84l-1.63-4.26h.48l1.06,2.82c.07.18.13.35.19.52.06.17.1.32.13.46h.03c.04-.13.08-.29.14-.46s.12-.35.18-.52l1.06-2.82h.49l-1.63,4.26h-.5Z"/>
        <path d="M106.49,97.01c.21,0,.32.12.32.34s-.11.35-.32.35-.3-.12-.3-.35.1-.34.3-.34ZM106.71,98.59v4.26h-.45v-4.26h.45Z"/>
        <path d="M109.77,102.92c-.57,0-1.01-.18-1.32-.55s-.46-.9-.46-1.61.16-1.3.48-1.68.77-.58,1.33-.58c.36,0,.65.08.87.23s.39.35.5.58h.03c0-.13-.01-.27-.02-.42,0-.15-.01-.29-.01-.41v-1.73h.46v6.08h-.37l-.06-.74h-.02c-.11.22-.28.42-.5.58s-.53.24-.9.24h-.01ZM109.83,102.53c.49,0,.84-.15,1.05-.45s.31-.73.31-1.29v-.08c0-.59-.1-1.04-.31-1.35s-.55-.47-1.02-.47-.81.16-1.04.48-.35.78-.35,1.38.11,1.02.34,1.32c.22.3.56.45,1.02.45h0Z"/>
        <path d="M114.77,98.51c.36,0,.67.08.91.25s.43.4.55.69.18.63.18,1.01v.32h-3.04c0,.56.13.99.39,1.29s.64.45,1.13.45c.27,0,.5-.02.7-.06s.41-.12.65-.22v.42c-.21.1-.42.17-.63.21s-.45.06-.73.06c-.63,0-1.12-.19-1.46-.58s-.51-.92-.51-1.59c0-.43.07-.82.22-1.16.15-.34.36-.6.64-.8.28-.19.61-.29,1.01-.29h-.01ZM114.76,98.89c-.39,0-.71.13-.95.39s-.39.63-.43,1.11h2.55c0-.45-.09-.81-.28-1.09s-.49-.42-.89-.42h0Z"/>
        <path d="M119.59,98.51c.49,0,.86.12,1.11.38s.38.64.38,1.18v2.78h-.46v-2.75c0-.41-.09-.7-.28-.9-.18-.19-.46-.29-.81-.29-.94,0-1.41.54-1.41,1.62v2.32h-.45v-4.26h.37l.06.74h.03c.11-.24.29-.43.53-.58.24-.16.54-.23.91-.23h.02Z"/>
        <path d="M124.11,102.92c-.57,0-1.01-.18-1.32-.55s-.46-.9-.46-1.61.16-1.3.48-1.68.77-.58,1.33-.58c.36,0,.65.08.87.23s.39.35.5.58h.03c0-.13-.01-.27-.02-.42,0-.15-.01-.29-.01-.41v-1.73h.46v6.08h-.37l-.06-.74h-.02c-.11.22-.28.42-.5.58s-.53.24-.9.24h-.01ZM124.16,102.53c.49,0,.84-.15,1.05-.45s.31-.73.31-1.29v-.08c0-.59-.1-1.04-.31-1.35s-.55-.47-1.02-.47-.81.16-1.04.48-.35.78-.35,1.38.11,1.02.34,1.32c.22.3.56.45,1.02.45h0Z"/>
        <path d="M131.07,102.84h-1.68v-.29l.61-.09v-4.95l-.61-.1v-.29h1.68v.29l-.61.1v4.95l.61.09v.29Z"/>
        <path d="M134.2,98.51c.49,0,.86.12,1.11.38.26.25.38.64.38,1.18v2.78h-.46v-2.75c0-.41-.09-.7-.28-.9-.18-.19-.45-.29-.81-.29-.94,0-1.41.54-1.41,1.62v2.32h-.45v-4.26h.37l.06.74h.03c.11-.24.29-.43.53-.58.24-.16.54-.23.91-.23h.02Z"/>
        <path d="M138.89,102.92c-.62,0-1.11-.19-1.44-.57-.34-.38-.51-.92-.51-1.61,0-.48.08-.88.26-1.21.17-.33.41-.59.72-.76.31-.17.66-.26,1.07-.26.21,0,.4.02.58.06.18.04.34.09.48.15l-.13.4c-.3-.13-.61-.2-.93-.2-.5,0-.89.16-1.16.49-.27.33-.41.77-.41,1.33s.12.97.36,1.3.61.5,1.11.5c.21,0,.41-.02.6-.06s.35-.1.5-.17v.41c-.14.07-.3.12-.48.16s-.39.06-.62.06v-.02Z"/>
        <path d="M144.67,100.72c0,.44-.07.83-.22,1.16s-.36.59-.65.77-.63.28-1.04.28-.73-.09-1.02-.27c-.28-.18-.5-.44-.65-.77-.15-.33-.23-.72-.23-1.17,0-.69.17-1.23.52-1.62s.81-.58,1.41-.58c.41,0,.75.09,1.03.28.28.18.49.44.64.77.14.33.22.72.22,1.16h-.01ZM141.34,100.72c0,.54.11.98.34,1.32.23.33.59.5,1.08.5s.86-.17,1.09-.5.35-.77.35-1.32c0-.35-.05-.66-.14-.94-.1-.27-.25-.48-.46-.64-.21-.15-.48-.23-.82-.23-.49,0-.85.16-1.09.48-.24.32-.36.76-.36,1.33h.01Z"/>
        <path d="M150.4,98.51c.42,0,.75.12.99.36s.36.62.36,1.14v2.84h-.45v-2.82c0-.38-.09-.67-.26-.85s-.41-.27-.7-.27c-.41,0-.72.12-.94.36s-.33.6-.33,1.1v2.48h-.45v-2.82c0-.38-.09-.67-.26-.85s-.41-.27-.7-.27c-.41,0-.72.12-.94.37s-.33.63-.33,1.15v2.42h-.45v-4.26h.37l.06.67h.03c.11-.21.27-.39.48-.53.22-.15.49-.22.83-.22.31,0,.57.07.78.2.21.13.36.33.45.6h.03c.12-.26.3-.45.54-.59.25-.14.53-.21.86-.21h.03Z"/>
        <path d="M154.84,98.51c.36,0,.67.08.91.25s.43.4.55.69c.12.29.18.63.18,1.01v.32h-3.04c0,.56.13.99.39,1.29s.64.45,1.13.45c.27,0,.5-.02.7-.06s.41-.12.65-.22v.42c-.21.1-.42.17-.63.21s-.45.06-.73.06c-.63,0-1.12-.19-1.46-.58-.34-.39-.51-.92-.51-1.59,0-.43.07-.82.22-1.16.15-.34.36-.6.64-.8.28-.19.61-.29,1.01-.29h0ZM154.83,98.89c-.39,0-.71.13-.95.39-.24.26-.39.63-.43,1.11h2.55c0-.45-.09-.81-.28-1.09s-.49-.42-.89-.42h0Z"/>
      </g>
      <path class="st4" d="M91.84,99.98c0,.43-.08.83-.24,1.22-.16.38-.39.73-.7,1.04s-.64.53-1.03.69-.79.24-1.22.24-.84-.08-1.23-.24c-.39-.16-.73-.39-1.03-.69-.3-.31-.54-.65-.7-1.04-.16-.38-.24-.79-.24-1.22s.08-.83.24-1.22c.16-.39.39-.73.7-1.04s.64-.53,1.03-.69.79-.24,1.22-.24.84.08,1.22.24c.38.16.73.39,1.04.7s.54.65.7,1.04.24.79.24,1.22h0Z"/>
    </g>
  </g>
  <g id="Graph">
    <g>
      <g>
        <rect class="st0" x="205.36" width="14.98" height="79.26"/>
        <rect class="st4" x="205.36" width="10.79" height="79.26"/>
        <rect class="st0" x="205.36" width="14.98" height="79.26"/>
      </g>
      <g>
        <rect class="st0" x="190.38" y="75.41" width="14.98" height="3.85"/>
        <rect class="st5" x="190.38" y="75.41" width="10.79" height="3.85"/>
        <rect class="st0" x="190.38" y="75.41" width="14.98" height="3.85"/>
      </g>
      <g>
        <rect class="st0" x="160.41" width="14.98" height="79.26"/>
        <rect class="st4" x="160.41" width="10.79" height="79.26"/>
        <rect class="st0" x="160.41" width="14.98" height="79.26"/>
      </g>
      <g>
        <rect class="st0" x="145.42" y="74.52" width="14.98" height="4.74"/>
        <rect class="st5" x="145.42" y="74.52" width="10.79" height="4.74"/>
        <rect class="st0" x="145.42" y="74.52" width="14.98" height="4.74"/>
      </g>
      <g>
        <rect class="st0" x="115.45" width="14.98" height="79.26"/>
        <rect class="st4" x="115.45" width="10.79" height="79.26"/>
        <rect class="st0" x="115.45" width="14.98" height="79.26"/>
      </g>
      <g>
        <rect class="st0" x="100.47" y="75.66" width="14.98" height="3.6"/>
        <rect class="st5" x="100.47" y="75.66" width="10.79" height="3.6"/>
        <rect class="st0" x="100.47" y="75.66" width="14.98" height="3.6"/>
      </g>
      <g>
        <rect class="st0" x="70.52" width="14.98" height="79.26"/>
        <rect class="st4" x="70.52" width="10.79" height="79.26"/>
        <rect class="st0" x="70.52" width="14.98" height="79.26"/>
      </g>
      <g>
        <rect class="st0" x="55.54" y="75.39" width="14.98" height="3.87"/>
        <rect class="st5" x="55.54" y="75.39" width="10.79" height="3.87"/>
        <rect class="st0" x="55.54" y="75.39" width="14.98" height="3.87"/>
      </g>
      <g>
        <rect class="st0" x="25.57" width="14.98" height="79.26"/>
        <rect class="st4" x="25.57" width="10.79" height="79.26"/>
        <rect class="st0" x="25.57" width="14.98" height="79.26"/>
      </g>
      <g>
        <rect class="st0" x="10.59" y="75.87" width="14.98" height="3.38"/>
        <rect class="st5" x="10.59" y="75.87" width="10.79" height="3.38"/>
        <rect class="st0" x="10.59" y="75.87" width="14.98" height="3.38"/>
      </g>
    </g>
  </g>
  <g id="Text">
    <g>
      <g>
        <path class="st3" d="M146.22,69.55c0-.36.03-.71.09-1.06s.18-.66.34-.95c.17-.28.4-.51.7-.67s.68-.25,1.16-.25c.1,0,.21,0,.33.01s.22.03.29.05v.53c-.08-.03-.18-.05-.29-.06-.11-.01-.21-.02-.32-.02-.32,0-.59.05-.8.16s-.38.25-.51.44c-.12.19-.21.4-.27.64s-.09.5-.1.78h.04c.11-.16.26-.3.45-.42.19-.11.44-.17.73-.17.43,0,.78.13,1.05.4.27.26.4.64.4,1.12,0,.52-.14.93-.43,1.23s-.67.45-1.16.45c-.32,0-.6-.08-.86-.24s-.46-.4-.61-.73-.23-.74-.23-1.24h0ZM147.91,71.23c.29,0,.53-.09.71-.28.18-.19.27-.48.27-.88,0-.32-.08-.57-.24-.76s-.4-.28-.72-.28c-.22,0-.41.05-.57.14s-.29.21-.38.35c-.09.14-.14.29-.14.43,0,.2.04.4.12.6s.2.36.36.49.36.19.6.19h0Z"/>
        <path class="st3" d="M151.32,66.62c.34,0,.6.14.78.41.18.27.27.66.27,1.15s-.08.88-.25,1.16c-.17.28-.44.42-.79.42-.33,0-.58-.14-.76-.42-.17-.28-.26-.66-.26-1.16s.08-.88.25-1.15c.16-.27.42-.41.78-.41h-.02ZM151.32,67.05c-.18,0-.31.09-.39.28s-.12.47-.12.84.04.66.12.85c.08.19.21.29.39.29.36,0,.54-.38.54-1.13s-.18-1.13-.54-1.13ZM154.52,66.68l-2.77,5h-.54l2.77-5h.54ZM154.38,68.62c.34,0,.6.14.78.41.18.27.27.66.27,1.15s-.09.88-.26,1.16c-.17.28-.44.42-.79.42-.33,0-.58-.14-.76-.42s-.26-.66-.26-1.16.08-.88.25-1.15c.16-.27.42-.41.78-.41h-.01ZM154.38,69.06c-.18,0-.31.09-.39.28s-.12.47-.12.84.04.66.12.85c.08.19.21.28.39.28.36,0,.54-.38.54-1.13s-.18-1.12-.54-1.12Z"/>
      </g>
      <rect class="st0" x="145.44" y="71.68" width="10.79" height="2.83"/>
      <g>
        <g>
          <path class="st3" d="M57.87,69.52c.51,0,.92.13,1.22.38s.46.62.46,1.08c0,.52-.16.92-.49,1.22s-.79.44-1.38.44c-.26,0-.5-.02-.73-.07-.22-.05-.41-.11-.57-.2v-.58c.17.1.37.18.61.24s.47.09.69.09c.37,0,.67-.09.89-.26.23-.17.34-.45.34-.82,0-.33-.1-.58-.3-.75-.2-.18-.52-.26-.95-.26-.13,0-.28.01-.45.04s-.3.05-.41.07l-.31-.2.19-2.36h2.51v.56h-1.98l-.12,1.45c.08-.01.19-.03.32-.05s.28-.03.45-.03h.01Z"/>
          <path class="st3" d="M61.38,67.52c.34,0,.6.14.78.41.18.27.27.66.27,1.15s-.09.88-.26,1.16c-.17.28-.44.42-.79.42-.33,0-.58-.14-.76-.42-.17-.28-.26-.66-.26-1.16s.08-.88.25-1.15c.16-.27.42-.41.78-.41h-.01ZM61.38,67.95c-.18,0-.31.09-.39.28-.08.19-.12.47-.12.84s.04.66.12.85.21.29.39.29c.36,0,.54-.38.54-1.13s-.18-1.13-.54-1.13ZM64.57,67.59l-2.77,5h-.54l2.77-5h.54ZM64.43,69.52c.34,0,.6.14.78.41.18.27.27.66.27,1.15s-.09.88-.26,1.16c-.17.28-.44.42-.79.42-.33,0-.58-.14-.76-.42-.18-.28-.26-.66-.26-1.16s.08-.88.25-1.15c.16-.27.42-.41.78-.41h0ZM64.43,69.96c-.18,0-.31.09-.39.28s-.12.47-.12.84.04.66.12.85c.08.19.21.28.39.28.36,0,.54-.38.54-1.13s-.18-1.12-.54-1.12Z"/>
        </g>
        <rect class="st0" x="55.54" y="72.57" width="10.79" height="2.83"/>
      </g>
      <g>
        <g>
          <path class="st3" d="M14.99,71.91h-.73v1.13h-.6v-1.13h-2.39v-.53l2.35-3.37h.64v3.34h.73v.55h0ZM13.67,71.36v-1.58c0-.24,0-.45.01-.62,0-.17.02-.33.02-.49h-.03c-.04.09-.08.18-.14.29-.06.1-.11.19-.16.26l-1.5,2.13h1.8Z"/>
          <path class="st3" d="M16.58,67.98c.34,0,.6.14.78.41.18.27.27.66.27,1.15s-.09.88-.26,1.16c-.17.28-.44.42-.79.42-.33,0-.58-.14-.76-.42-.17-.28-.26-.66-.26-1.16s.08-.88.25-1.15c.16-.27.42-.41.78-.41h-.01ZM16.58,68.41c-.18,0-.31.09-.39.28s-.12.47-.12.84.04.66.12.85.21.29.39.29c.36,0,.54-.38.54-1.13s-.18-1.13-.54-1.13ZM19.78,68.05l-2.77,5h-.54l2.77-5h.54ZM19.64,69.98c.34,0,.6.14.78.41.18.27.27.66.27,1.15s-.09.88-.26,1.16c-.17.28-.44.42-.79.42-.33,0-.58-.14-.76-.42s-.26-.66-.26-1.16.08-.88.25-1.15c.16-.27.42-.41.78-.41h-.01ZM19.64,70.42c-.18,0-.31.09-.39.28s-.12.47-.12.84.04.66.12.85c.08.19.21.28.39.28.36,0,.54-.38.54-1.13s-.18-1.12-.54-1.12Z"/>
        </g>
        <rect class="st0" x="10.58" y="73.04" width="10.79" height="2.83"/>
      </g>
      <g>
        <path class="st3" d="M102.82,69.76c.51,0,.92.13,1.22.38s.46.62.46,1.08c0,.52-.16.92-.49,1.22-.33.3-.79.44-1.38.44-.26,0-.5-.02-.73-.07-.22-.05-.41-.11-.57-.2v-.58c.17.1.37.18.61.24s.47.09.69.09c.37,0,.67-.09.89-.26.23-.17.34-.45.34-.82,0-.33-.1-.58-.3-.75-.2-.18-.52-.26-.95-.26-.13,0-.28.01-.45.04s-.3.05-.41.07l-.31-.2.19-2.36h2.51v.56h-1.98l-.12,1.45c.08-.01.19-.03.32-.05s.28-.03.45-.03h.01Z"/>
        <path class="st3" d="M106.33,67.75c.34,0,.6.14.78.41.18.27.27.66.27,1.15s-.09.88-.26,1.16c-.17.28-.44.42-.79.42-.33,0-.58-.14-.76-.42-.17-.28-.26-.66-.26-1.16s.08-.88.25-1.15c.16-.27.42-.41.78-.41h0ZM106.33,68.19c-.18,0-.31.09-.39.28s-.12.47-.12.84.04.66.12.85.21.29.39.29c.36,0,.54-.38.54-1.13s-.18-1.13-.54-1.13ZM109.53,67.83l-2.77,5h-.54l2.77-5h.54ZM109.39,69.76c.34,0,.6.14.78.41.18.27.27.66.27,1.15s-.09.88-.26,1.16c-.17.28-.44.42-.79.42-.33,0-.58-.14-.76-.42s-.26-.66-.26-1.16.08-.88.25-1.15c.16-.27.42-.41.78-.41h0ZM109.39,70.2c-.18,0-.31.09-.39.28s-.12.47-.12.84.04.66.12.85c.08.19.21.28.39.28.36,0,.54-.38.54-1.13s-.18-1.12-.54-1.12Z"/>
      </g>
      <line class="st1" x1="9.24" y1="75.87" x2="38.15" y2="75.87"/>
      <line class="st1" x1="54.17" y1="75.41" x2="83.08" y2="75.41"/>
      <line class="st1" x1="99.12" y1="75.66" x2="128.03" y2="75.66"/>
      <line class="st1" x1="144.09" y1="74.52" x2="173.01" y2="74.52"/>
      <g>
        <path class="st3" d="M192.7,69.51c.51,0,.92.13,1.22.38s.46.62.46,1.08c0,.52-.16.92-.49,1.22s-.79.44-1.38.44c-.26,0-.5-.02-.73-.07s-.41-.11-.57-.2v-.58c.17.1.37.18.61.24s.47.09.69.09c.37,0,.67-.09.89-.26.23-.17.34-.45.34-.82,0-.33-.1-.58-.3-.75-.2-.18-.52-.26-.95-.26-.13,0-.28.01-.45.04s-.3.05-.41.07l-.31-.2.19-2.36h2.51v.56h-1.98l-.12,1.45c.08-.01.19-.03.32-.05.14-.02.29-.03.45-.03h0Z"/>
        <path class="st3" d="M196.21,67.51c.34,0,.6.14.78.41.18.27.27.66.27,1.15s-.09.88-.26,1.16c-.17.28-.44.42-.79.42-.33,0-.58-.14-.76-.42-.17-.28-.26-.66-.26-1.16s.08-.88.25-1.15c.16-.27.42-.41.78-.41h-.01ZM196.21,67.94c-.18,0-.31.09-.39.28s-.12.47-.12.84.04.66.12.85c.08.19.21.29.39.29.36,0,.54-.38.54-1.13s-.18-1.13-.54-1.13ZM199.41,67.58l-2.77,5h-.54l2.77-5h.54ZM199.27,69.51c.34,0,.6.14.78.41.18.27.27.66.27,1.15s-.08.88-.26,1.16c-.17.28-.43.42-.79.42-.33,0-.58-.14-.76-.42-.17-.28-.26-.66-.26-1.16s.08-.88.25-1.15c.16-.27.42-.41.78-.41h-.01ZM199.27,69.95c-.18,0-.31.09-.39.28s-.12.47-.12.84.04.66.12.85c.08.19.21.28.39.28.36,0,.54-.38.54-1.13s-.18-1.12-.54-1.12Z"/>
      </g>
      <rect class="st0" x="190.37" y="72.58" width="10.79" height="2.83"/>
      <line class="st1" x1="189.03" y1="75.41" x2="217.94" y2="75.41"/>
    </g>
    <rect class="st0" x="10.58" y="68.1" width=".66" height="5.24"/>
    <rect class="st0" x="20.7" y="68.1" width=".66" height="5.24"/>
  </g>
  <g id="Year">
    <rect class="st0" x="100.47" y="83.11" width="9.09" height="5.15"/>
    <rect class="st0" x="117.16" y="83.11" width="9.09" height="5.15"/>
    <g>
      <g>
        <g>
          <path d="M202.84,88.26h-3.3v-.51l1.31-1.32c.25-.25.46-.48.63-.67s.31-.39.4-.57.13-.39.13-.62c0-.28-.08-.48-.25-.63-.16-.14-.38-.21-.64-.21s-.46.04-.64.13c-.18.08-.37.2-.56.35l-.33-.41c.2-.16.42-.3.68-.42.25-.11.54-.17.86-.17.47,0,.84.12,1.11.36s.41.56.41.97c0,.26-.05.51-.16.74-.11.23-.26.46-.45.68s-.42.46-.67.71l-1.04,1.03v.03h2.53v.56l-.02-.03Z"/>
          <path d="M205.33,85.19c.51,0,.92.13,1.22.39s.46.62.46,1.08c0,.52-.17.92-.49,1.22-.33.3-.79.44-1.38.44-.26,0-.5-.02-.73-.07-.22-.05-.41-.11-.57-.2v-.58c.17.1.37.18.61.24s.47.09.69.09c.37,0,.67-.09.89-.26.23-.17.34-.45.34-.82,0-.33-.1-.58-.3-.75-.2-.18-.52-.26-.95-.26-.13,0-.28.01-.45.04s-.3.05-.41.07l-.31-.2.19-2.36h2.51v.56h-1.98l-.12,1.45c.08-.01.19-.03.32-.05.14-.02.29-.03.45-.03h0Z"/>
        </g>
        <g>
          <path d="M67.93,88.26h-3.3v-.51l1.31-1.32c.25-.25.46-.48.63-.67s.31-.39.4-.57.13-.39.13-.62c0-.28-.08-.48-.25-.63-.16-.14-.38-.21-.64-.21s-.46.04-.64.13c-.18.08-.37.2-.56.35l-.33-.41c.2-.16.42-.3.68-.42.25-.11.54-.17.86-.17.47,0,.84.12,1.11.36.27.24.41.56.41.97,0,.26-.05.51-.16.74-.11.23-.26.46-.45.68-.19.22-.42.46-.67.71l-1.04,1.03v.03h2.53v.56l-.02-.03Z"/>
          <path d="M72.19,88.26h-3.3v-.51l1.31-1.32c.25-.25.46-.48.63-.67s.31-.39.4-.57.13-.39.13-.62c0-.28-.08-.48-.25-.63-.16-.14-.38-.21-.64-.21s-.46.04-.64.13c-.18.08-.37.2-.56.35l-.33-.41c.2-.16.42-.3.68-.42.25-.11.54-.17.86-.17.47,0,.84.12,1.11.36.27.24.41.56.41.97,0,.26-.05.51-.16.74-.11.23-.26.46-.45.68-.19.22-.42.46-.67.71l-1.04,1.03v.03h2.53v.56l-.02-.03Z"/>
        </g>
        <g>
          <path d="M157.8,88.26h-3.3v-.51l1.31-1.32c.25-.25.46-.48.63-.67s.31-.39.4-.57.13-.39.13-.62c0-.28-.08-.48-.25-.63-.16-.14-.38-.21-.64-.21s-.46.04-.64.13c-.18.08-.37.2-.56.35l-.33-.41c.2-.16.42-.3.68-.42.25-.11.54-.17.86-.17.47,0,.84.12,1.11.36s.41.56.41.97c0,.26-.05.51-.16.74-.11.23-.26.46-.45.68s-.42.46-.67.71l-1.04,1.03v.03h2.53v.56l-.02-.03Z"/>
          <path d="M162.14,87.13h-.73v1.13h-.59v-1.13h-2.39v-.53l2.35-3.37h.64v3.34h.73v.55h-.01ZM160.81,86.57v-1.58c0-.24,0-.45,0-.62,0-.17,0-.33.02-.49h-.03c-.04.09-.08.18-.14.29-.06.1-.11.19-.16.26l-1.5,2.14h1.8Z"/>
        </g>
        <g>
          <path d="M112.9,88.26h-3.3v-.51l1.31-1.32c.25-.25.46-.48.63-.67s.31-.39.4-.57.13-.39.13-.62c0-.28-.08-.48-.25-.63-.16-.14-.38-.21-.64-.21s-.46.04-.64.13c-.18.08-.37.2-.56.35l-.33-.41c.2-.16.42-.3.68-.42.25-.11.54-.17.86-.17.47,0,.84.12,1.11.36.27.24.41.56.41.97,0,.26-.05.51-.16.74-.11.23-.26.46-.45.68-.19.22-.42.46-.67.71l-1.04,1.03v.03h2.53v.56l-.02-.03Z"/>
          <path d="M116.98,84.43c0,.34-.09.6-.28.8-.19.2-.44.33-.75.4v.03c.4.05.69.17.89.38s.3.47.3.8c0,.29-.07.55-.2.78-.14.22-.34.4-.63.52s-.65.19-1.09.19c-.26,0-.5-.02-.73-.06-.22-.04-.44-.11-.64-.21v-.57c.21.11.44.19.68.25s.48.08.7.08c.45,0,.77-.09.97-.26.2-.17.3-.42.3-.72s-.12-.54-.37-.68-.59-.21-1.03-.21h-.48v-.52h.49c.41,0,.72-.09.93-.26.21-.17.32-.4.32-.69,0-.24-.08-.43-.25-.56-.16-.13-.38-.2-.67-.2s-.5.04-.69.12-.38.18-.57.3l-.31-.42c.18-.14.4-.26.66-.36s.56-.15.9-.15c.52,0,.91.12,1.17.35.25.23.38.53.38.89v-.02Z"/>
        </g>
        <g>
          <path d="M23.69,88.26h-3.3v-.51l1.31-1.32c.25-.25.46-.48.63-.67s.31-.39.4-.57.13-.39.13-.62c0-.28-.08-.48-.25-.63-.16-.14-.38-.21-.64-.21s-.46.04-.64.13c-.18.08-.37.2-.56.35l-.33-.41c.2-.16.42-.3.68-.42.25-.11.54-.17.86-.17.47,0,.84.12,1.11.36s.41.56.41.97c0,.26-.05.51-.16.74-.11.23-.26.46-.45.68s-.42.46-.67.71l-1.04,1.03v.03h2.53v.56l-.02-.03Z"/>
          <path d="M26.56,88.26h-.6v-3.97c0-.12.01-.25.02-.38-.08.08-.14.14-.21.19-.06.05-.14.12-.23.2l-.53.43-.32-.41,1.35-1.05h.51v5h0Z"/>
        </g>
      </g>
      <line class="st2" y1="79.26" x2="226.74" y2="79.26"/>
    </g>
    <rect class="st0" x="26.56" y="83.74" width="9.8" height="5.15"/>
    <rect class="st0" x="10.6" y="83.74" width="9.8" height="5.15"/>
    <rect class="st0" x="190.39" y="83.12" width="9.06" height="5.15"/>
    <rect class="st0" x="207.09" y="83.12" width="9.06" height="5.15"/>
  </g>
</svg>