<?xml version="1.0" encoding="UTF-8"?>
<svg id="Layer_1" xmlns="http://www.w3.org/2000/svg" version="1.1" viewBox="0 0 226.75 103.17">
  <!-- Generator: Adobe Illustrator 29.6.0, SVG Export Plug-In . SVG Version: 2.1.1 Build 207)  -->
  <defs>
    <style>
      .st0, .st1, .st2 {
        fill: none;
      }

      .st1 {
        stroke-dasharray: 1.5 1.5;
        stroke-linecap: round;
        stroke-width: .5px;
      }

      .st1, .st2 {
        stroke: #000;
        stroke-miterlimit: 10;
      }

      .st3 {
        fill: #96182a;
      }

      .st2 {
        stroke-width: .25px;
      }

      .st4 {
        fill: #006ba6;
      }
    </style>
  </defs>
  <g id="Legend">
    <g>
      <g>
        <path d="M11.56,102.85h-.46v-5.3h-1.84v-.42h4.14v.42h-1.84s0,5.3,0,5.3Z"/>
        <path d="M17.83,100.72c0,.44-.07.83-.22,1.16s-.36.59-.65.77c-.29.18-.63.28-1.04.28s-.73-.09-1.02-.27c-.28-.18-.5-.44-.65-.77-.15-.33-.23-.72-.23-1.17,0-.69.17-1.23.52-1.62.34-.39.81-.58,1.41-.58.41,0,.75.09,1.03.28.28.18.49.44.64.77.14.33.22.72.22,1.16h-.01ZM14.49,100.72c0,.54.11.98.34,1.32.23.33.59.5,1.08.5s.86-.17,1.09-.5.35-.77.35-1.32c0-.35-.05-.66-.14-.94-.1-.27-.25-.48-.46-.64-.21-.15-.48-.23-.82-.23-.49,0-.85.16-1.09.48s-.36.76-.36,1.33h0Z"/>
        <path d="M20.31,102.54c.12,0,.23,0,.34-.03.11-.02.2-.04.28-.07v.37c-.08.03-.19.06-.3.08s-.24.03-.38.03c-.35,0-.62-.1-.82-.3-.19-.2-.29-.52-.29-.96v-2.7h-.63v-.26l.63-.14.16-.98h.29v1.02h1.31v.37h-1.31v2.69c0,.6.24.9.72.9v-.02Z"/>
        <path d="M23.45,98.52c.48,0,.84.12,1.07.35.24.23.35.6.35,1.11v2.86h-.34l-.09-.72h-.02c-.15.24-.34.43-.56.58s-.53.22-.93.22-.73-.1-.96-.3c-.24-.2-.36-.5-.36-.89,0-.42.17-.74.52-.97s.85-.35,1.52-.38l.78-.04v-.3c0-.42-.08-.72-.25-.89s-.42-.26-.74-.26c-.22,0-.43.03-.63.08-.2.06-.41.14-.61.24l-.14-.37c.2-.1.42-.18.66-.25.24-.06.49-.1.74-.1v.03ZM24.43,100.7l-.72.03c-.54.02-.95.11-1.22.28s-.4.41-.4.73c0,.26.08.46.25.6s.39.2.68.2c.44,0,.79-.13,1.03-.38s.37-.6.38-1.06v-.41h0Z"/>
        <path d="M26.81,102.85h-.46v-6.08h.46v6.08Z"/>
        <path d="M35.01,99.94c0,.96-.25,1.69-.76,2.18s-1.25.74-2.22.74h-1.41v-5.71h1.58c.91,0,1.6.24,2.08.72.48.48.72,1.17.72,2.08h0ZM34.53,99.95c0-1.6-.8-2.41-2.41-2.41h-1.03v4.9h.91c1.69,0,2.53-.83,2.53-2.49Z"/>
        <path d="M37.96,98.51c.36,0,.67.08.91.25s.43.4.55.69.18.63.18,1.01v.32h-3.04c0,.56.13.99.39,1.29s.64.45,1.13.45c.27,0,.5-.02.7-.06s.41-.12.65-.22v.42c-.21.1-.42.17-.63.21-.21.04-.45.06-.73.06-.63,0-1.12-.19-1.46-.58s-.51-.92-.51-1.59c0-.43.07-.82.22-1.16s.36-.6.64-.8c.28-.19.61-.29,1.01-.29h-.01ZM37.95,98.9c-.39,0-.71.13-.95.39s-.38.63-.43,1.11h2.55c0-.45-.09-.81-.28-1.09s-.49-.42-.89-.42h0Z"/>
        <path d="M41.33,96.77v2.17c0,.18,0,.32-.02.42h.03c.11-.24.28-.44.52-.6.24-.16.55-.24.92-.24.55,0,.98.19,1.28.56.3.37.46.92.46,1.64,0,.67-.15,1.21-.46,1.61-.31.4-.75.6-1.34.6-.36,0-.65-.08-.88-.22-.23-.15-.39-.33-.5-.54h-.04l-.08.69h-.34v-6.08h.46,0ZM42.72,98.9c-.5,0-.85.16-1.07.46-.22.31-.32.76-.32,1.34v.06c0,.58.1,1.01.31,1.32.21.3.54.45,1.02.45s.8-.16,1.04-.48c.23-.32.35-.77.35-1.36,0-1.2-.44-1.8-1.32-1.8h-.01Z"/>
        <path d="M46.99,102.54c.12,0,.23,0,.34-.03.11-.02.2-.04.28-.07v.37c-.08.03-.19.06-.3.08s-.24.03-.38.03c-.35,0-.62-.1-.82-.3-.19-.2-.29-.52-.29-.96v-2.7h-.63v-.26l.63-.14.16-.98h.29v1.02h1.31v.37h-1.31v2.69c0,.6.24.9.72.9v-.02Z"/>
      </g>
      <path class="st3" d="M6.39,99.98c0,.43-.08.83-.24,1.22-.16.38-.39.73-.7,1.04-.3.3-.65.53-1.03.69-.39.16-.79.24-1.22.24s-.84-.08-1.23-.24c-.39-.16-.73-.39-1.03-.69-.3-.31-.54-.65-.7-1.04-.16-.38-.24-.79-.24-1.22s.08-.83.24-1.22.39-.73.7-1.04c.3-.3.65-.53,1.03-.69.39-.16.79-.24,1.22-.24s.83.08,1.22.24c.38.16.73.39,1.04.7.3.31.54.65.7,1.04s.24.79.24,1.22h0Z"/>
    </g>
    <g>
      <g>
        <path d="M75.24,102.85h-.5l-3.3-4.99h-.02c.01.21.02.43.02.66v4.33h-.43v-5.71h.5l3.3,4.98h.03c-.01-.17-.02-.38-.02-.64v-4.34h.43v5.71h-.01Z"/>
        <path d="M78.49,98.51c.36,0,.67.08.91.25s.43.4.55.69.18.63.18,1.01v.32h-3.04c0,.56.13.99.39,1.29s.64.45,1.13.45c.27,0,.5-.02.7-.06s.41-.12.65-.22v.42c-.21.1-.42.17-.63.21s-.45.06-.73.06c-.63,0-1.12-.19-1.46-.58s-.51-.92-.51-1.59c0-.43.07-.82.22-1.16.15-.34.36-.6.64-.8.28-.19.61-.29,1.01-.29h-.01ZM78.48,98.9c-.39,0-.71.13-.95.39s-.39.63-.43,1.11h2.55c0-.45-.09-.81-.28-1.09s-.49-.42-.89-.42h0Z"/>
        <path d="M82.61,102.54c.12,0,.23,0,.34-.03.11-.02.2-.04.28-.07v.37c-.08.03-.19.06-.3.08s-.24.03-.38.03c-.35,0-.62-.1-.82-.3-.19-.2-.29-.52-.29-.96v-2.7h-.63v-.26l.63-.14.16-.98h.29v1.02h1.31v.37h-1.31v2.69c0,.6.24.9.72.9v-.02Z"/>
        <path d="M87.97,97.14c1.37,0,2.06.54,2.06,1.62,0,.55-.18.98-.53,1.29-.36.31-.91.47-1.65.47h-.83v2.34h-.46v-5.71h1.42,0ZM87.92,97.54h-.91v2.57h.78c.55,0,.99-.1,1.29-.29.31-.19.46-.54.46-1.04,0-.43-.13-.74-.4-.94-.26-.2-.67-.3-1.23-.3h.01Z"/>
        <path d="M94.84,100.72c0,.44-.07.83-.22,1.16s-.36.59-.65.77-.63.28-1.04.28-.73-.09-1.02-.27c-.28-.18-.5-.44-.65-.77-.15-.33-.23-.72-.23-1.17,0-.69.17-1.23.52-1.62s.81-.58,1.41-.58c.41,0,.75.09,1.03.28.28.18.49.44.64.77.14.33.22.72.22,1.16h0ZM91.51,100.72c0,.54.11.98.34,1.32.23.33.59.5,1.08.5s.86-.17,1.09-.5c.23-.33.35-.77.35-1.32,0-.35-.05-.66-.14-.94-.1-.27-.25-.48-.46-.64-.21-.15-.48-.23-.82-.23-.49,0-.85.16-1.09.48s-.36.76-.36,1.33h.01Z"/>
        <path d="M97.87,98.52c.22,0,.42.02.58.07l-.06.42c-.09-.02-.17-.04-.26-.05-.09-.01-.18-.02-.27-.02-.39,0-.71.14-.93.43-.23.29-.34.67-.34,1.14v2.34h-.46v-4.26h.38l.05.8h.02c.11-.24.27-.45.48-.62.22-.17.48-.26.8-.26h0Z"/>
        <path d="M100.6,102.54c.12,0,.23,0,.34-.03s.2-.04.28-.07v.37c-.09.03-.19.06-.3.08-.12.02-.24.03-.38.03-.35,0-.62-.1-.82-.3-.19-.2-.29-.52-.29-.96v-2.7h-.63v-.26l.63-.14.16-.98h.29v1.02h1.31v.37h-1.31v2.69c0,.6.24.9.72.9v-.02Z"/>
        <path d="M103.89,98.96h-1.02v3.89h-.46v-3.89h-.78v-.25l.78-.14v-.42c0-.49.1-.85.32-1.08.21-.23.53-.35.96-.35.15,0,.29.01.41.04.12.02.23.05.34.08l-.1.38c-.1-.03-.2-.06-.31-.08-.11-.02-.22-.03-.33-.03-.29,0-.5.08-.62.24-.13.16-.19.43-.19.79v.44h1.02v.37h-.02Z"/>
        <path d="M108.39,100.72c0,.44-.07.83-.22,1.16s-.36.59-.65.77-.63.28-1.04.28-.73-.09-1.02-.27c-.28-.18-.5-.44-.65-.77-.15-.33-.23-.72-.23-1.17,0-.69.17-1.23.52-1.62.34-.39.81-.58,1.41-.58.41,0,.75.09,1.03.28.28.18.49.44.64.77.14.33.22.72.22,1.16h0ZM105.05,100.72c0,.54.11.98.34,1.32.23.33.59.5,1.08.5s.86-.17,1.09-.5c.23-.33.35-.77.35-1.32,0-.35-.05-.66-.14-.94-.1-.27-.25-.48-.46-.64-.21-.15-.48-.23-.82-.23-.49,0-.85.16-1.09.48s-.36.76-.36,1.33h.01Z"/>
        <path d="M110.12,102.85h-.46v-6.08h.46v6.08Z"/>
        <path d="M111.87,97.02c.21,0,.32.12.32.34s-.11.35-.32.35-.3-.12-.3-.35.1-.34.3-.34ZM112.09,98.59v4.26h-.45v-4.26h.45Z"/>
        <path d="M117.18,100.72c0,.44-.07.83-.22,1.16s-.36.59-.65.77-.63.28-1.04.28-.73-.09-1.02-.27c-.28-.18-.5-.44-.65-.77-.15-.33-.23-.72-.23-1.17,0-.69.17-1.23.52-1.62.34-.39.81-.58,1.41-.58.41,0,.75.09,1.03.28.28.18.49.44.64.77.14.33.22.72.22,1.16h0ZM113.84,100.72c0,.54.11.98.34,1.32.23.33.59.5,1.08.5s.86-.17,1.09-.5c.23-.33.35-.77.35-1.32,0-.35-.05-.66-.14-.94-.1-.27-.25-.48-.46-.64-.21-.15-.48-.23-.82-.23-.49,0-.85.16-1.09.48s-.36.76-.36,1.33h.01Z"/>
        <path d="M124.61,97.14l-2.1,5.71h-.46l-2.1-5.71h.49l1.51,4.12c.07.19.13.38.19.55.06.18.1.34.14.5.04-.15.08-.32.14-.49.05-.17.12-.36.19-.57l1.5-4.11s.5,0,.5,0Z"/>
        <path d="M126.94,98.52c.48,0,.84.12,1.07.35.24.23.35.6.35,1.11v2.86h-.34l-.09-.72h-.02c-.15.24-.34.43-.56.58s-.53.22-.93.22-.73-.1-.96-.3c-.24-.2-.36-.5-.36-.89,0-.42.17-.74.52-.97s.85-.35,1.52-.38l.78-.04v-.3c0-.42-.08-.72-.25-.89s-.42-.26-.74-.26c-.22,0-.43.03-.63.08-.2.06-.41.14-.61.24l-.14-.37c.2-.1.42-.18.66-.25.24-.06.49-.1.74-.1v.03ZM127.91,100.7l-.72.03c-.54.02-.95.11-1.22.28s-.4.41-.4.73c0,.26.08.46.25.6s.39.2.68.2c.44,0,.79-.13,1.03-.38s.37-.6.38-1.06v-.41h0Z"/>
        <path d="M130.3,102.85h-.46v-6.08h.46v6.08Z"/>
        <path d="M135.17,98.59v4.26h-.38l-.06-.73h-.02c-.12.23-.3.42-.54.58-.24.16-.54.23-.91.23-1,0-1.5-.52-1.5-1.55v-2.78h.46v2.75c0,.41.09.71.27.9.18.19.45.29.82.29.94,0,1.41-.54,1.41-1.62v-2.32h.46-.01Z"/>
        <path d="M138.32,98.51c.36,0,.67.08.91.25s.43.4.55.69c.12.29.18.63.18,1.01v.32h-3.04c0,.56.13.99.39,1.29s.64.45,1.13.45c.27,0,.5-.02.7-.06s.41-.12.65-.22v.42c-.21.1-.42.17-.63.21s-.45.06-.73.06c-.63,0-1.12-.19-1.46-.58-.34-.39-.51-.92-.51-1.59,0-.43.07-.82.22-1.16.15-.34.36-.6.64-.8.28-.19.61-.29,1.01-.29h0ZM138.31,98.9c-.39,0-.71.13-.95.39-.24.26-.39.63-.43,1.11h2.55c0-.45-.09-.81-.28-1.09s-.49-.42-.89-.42h0Z"/>
      </g>
      <path class="st4" d="M68.15,99.98c0,.43-.08.83-.24,1.22-.16.38-.39.73-.7,1.04s-.64.53-1.03.69-.79.24-1.22.24-.84-.08-1.23-.24c-.39-.16-.73-.39-1.03-.69-.3-.31-.54-.65-.7-1.04-.16-.38-.24-.79-.24-1.22s.08-.83.24-1.22.39-.73.7-1.04c.3-.3.64-.53,1.03-.69.39-.16.79-.24,1.22-.24s.84.08,1.22.24c.38.16.73.39,1.04.7s.54.65.7,1.04.24.79.24,1.22h0Z"/>
    </g>
  </g>
  <g id="Graph">
    <rect class="st0" x="201.56" y="72.34" width="3.81" height="8"/>
    <rect class="st0" x="171.21" y="70.69" width="19.56" height="12.68"/>
    <g>
      <g>
        <rect class="st0" x="205.37" width="14.98" height="79.26"/>
        <rect class="st4" x="205.37" width="10.79" height="79.26"/>
        <rect class="st0" x="205.37" width="14.98" height="79.26"/>
      </g>
      <g>
        <rect class="st0" x="190.39" y="75.47" width="14.98" height="3.79"/>
        <rect class="st3" x="190.39" y="75.47" width="10.79" height="3.79"/>
        <rect class="st0" x="190.39" y="75.47" width="14.98" height="3.79"/>
      </g>
      <g>
        <rect class="st0" x="160.42" width="14.98" height="79.26"/>
        <rect class="st4" x="160.42" width="10.79" height="79.26"/>
        <rect class="st0" x="160.42" width="14.98" height="79.26"/>
      </g>
      <g>
        <rect class="st0" x="145.43" y="74.99" width="14.98" height="4.26"/>
        <rect class="st3" x="145.43" y="74.99" width="10.79" height="4.26"/>
        <rect class="st0" x="145.43" y="74.99" width="14.98" height="4.26"/>
      </g>
      <g>
        <rect class="st0" x="115.46" width="14.98" height="79.26"/>
        <rect class="st4" x="115.46" width="10.79" height="79.26"/>
        <rect class="st0" x="115.46" width="14.98" height="79.26"/>
      </g>
      <g>
        <rect class="st0" x="100.48" y="74.77" width="14.98" height="4.49"/>
        <rect class="st3" x="100.48" y="74.77" width="10.79" height="4.49"/>
        <rect class="st0" x="100.48" y="74.77" width="14.98" height="4.49"/>
      </g>
      <g>
        <rect class="st0" x="70.53" width="14.98" height="79.26"/>
        <rect class="st4" x="70.53" width="10.79" height="79.26"/>
        <rect class="st0" x="70.53" width="14.98" height="79.26"/>
      </g>
      <g>
        <rect class="st0" x="55.55" y="74.93" width="14.98" height="4.33"/>
        <rect class="st3" x="55.55" y="74.93" width="10.79" height="4.33"/>
        <rect class="st0" x="55.55" y="74.93" width="14.98" height="4.33"/>
      </g>
      <g>
        <rect class="st0" x="25.58" width="14.98" height="79.26"/>
        <rect class="st4" x="25.58" width="10.79" height="79.26"/>
        <rect class="st0" x="25.58" width="14.98" height="79.26"/>
      </g>
      <g>
        <rect class="st0" x="10.6" y="75.6" width="14.98" height="3.66"/>
        <rect class="st3" x="10.6" y="75.6" width="10.79" height="3.66"/>
        <rect class="st0" x="10.6" y="75.6" width="14.98" height="3.66"/>
      </g>
    </g>
  </g>
  <g id="Text">
    <g>
      <g>
        <rect class="st0" x="145.44" y="72.14" width="10.79" height="2.83"/>
        <g>
          <path class="st3" d="M147.78,69.08c.51,0,.92.13,1.22.38s.46.62.46,1.08c0,.52-.17.92-.49,1.22-.33.3-.79.44-1.38.44-.26,0-.5-.02-.73-.07-.22-.05-.41-.11-.57-.2v-.58c.17.1.37.18.61.24s.47.09.69.09c.37,0,.67-.09.89-.26s.34-.45.34-.82c0-.33-.1-.58-.3-.75-.2-.18-.52-.26-.95-.26-.13,0-.28.01-.45.04s-.3.05-.41.07l-.31-.2.19-2.36h2.51v.56h-1.98l-.12,1.45c.08-.01.19-.03.32-.05.13-.02.28-.03.45-.03h0Z"/>
          <path class="st3" d="M151.29,67.08c.34,0,.6.14.78.41.18.27.27.66.27,1.15s-.08.88-.25,1.16c-.17.28-.44.42-.79.42-.33,0-.58-.14-.76-.42-.17-.28-.26-.66-.26-1.16s.08-.88.25-1.15c.16-.27.42-.41.78-.41h-.02ZM151.29,67.51c-.18,0-.31.09-.39.28s-.12.47-.12.84.04.66.12.85c.08.19.21.29.39.29.36,0,.54-.38.54-1.13s-.18-1.13-.54-1.13ZM154.49,67.14l-2.77,5h-.54l2.77-5h.54ZM154.35,69.08c.34,0,.6.14.78.41.18.27.27.66.27,1.15s-.09.88-.26,1.16c-.17.28-.44.42-.79.42-.33,0-.58-.14-.76-.42s-.26-.66-.26-1.16.08-.88.25-1.15c.16-.27.42-.41.78-.41h-.01ZM154.35,69.52c-.18,0-.31.09-.39.28s-.12.47-.12.84.04.66.12.85c.08.19.21.28.39.28.36,0,.54-.38.54-1.13s-.18-1.12-.54-1.12Z"/>
        </g>
      </g>
      <g>
        <rect class="st0" x="55.52" y="72.1" width="10.79" height="2.83"/>
        <g>
          <path class="st3" d="M57.85,69.03c.51,0,.92.13,1.22.38s.46.62.46,1.08c0,.52-.17.92-.49,1.22-.33.3-.79.44-1.38.44-.26,0-.5-.02-.73-.07-.22-.05-.41-.11-.57-.2v-.58c.17.1.37.18.61.24s.47.09.69.09c.37,0,.67-.09.89-.26s.34-.45.34-.82c0-.33-.1-.58-.3-.75-.2-.18-.52-.26-.95-.26-.13,0-.28.01-.45.04s-.3.05-.41.07l-.31-.2.19-2.36h2.51v.56h-1.98l-.12,1.45c.08-.01.19-.03.32-.05.13-.02.28-.03.45-.03h.01Z"/>
          <path class="st3" d="M61.35,67.03c.34,0,.6.14.78.41.18.27.27.66.27,1.15s-.08.88-.25,1.16c-.17.28-.44.42-.79.42-.33,0-.58-.14-.76-.42-.17-.28-.26-.66-.26-1.16s.08-.88.25-1.15c.16-.27.42-.41.78-.41h-.02ZM61.35,67.47c-.18,0-.31.09-.39.28-.08.19-.12.47-.12.84s.04.66.12.85c.08.19.21.29.39.29.36,0,.54-.38.54-1.13s-.18-1.13-.54-1.13ZM64.55,67.1l-2.77,5h-.54l2.77-5h.54ZM64.41,69.03c.34,0,.6.14.78.41.18.27.27.66.27,1.15s-.09.88-.26,1.16c-.17.28-.44.42-.79.42-.33,0-.58-.14-.76-.42-.18-.28-.26-.66-.26-1.16s.08-.88.25-1.15c.16-.27.42-.41.78-.41h0ZM64.41,69.47c-.18,0-.31.09-.39.28s-.12.47-.12.84.04.66.12.85c.08.19.21.28.39.28.36,0,.54-.38.54-1.13s-.18-1.12-.54-1.12Z"/>
        </g>
      </g>
      <g>
        <rect class="st0" x="10.59" y="72.76" width="10.79" height="2.83"/>
        <g>
          <path class="st3" d="M12.92,69.7c.51,0,.92.13,1.22.38s.46.62.46,1.08c0,.52-.16.92-.49,1.22s-.79.44-1.38.44c-.26,0-.5-.02-.73-.07s-.41-.11-.57-.2v-.58c.17.1.37.18.61.24s.47.09.69.09c.37,0,.67-.09.89-.26.23-.17.34-.45.34-.82,0-.33-.1-.58-.3-.75-.2-.18-.52-.26-.95-.26-.13,0-.28.01-.45.04s-.3.05-.41.07l-.31-.2.19-2.36h2.51v.56h-1.98l-.12,1.45c.08-.01.19-.03.32-.05.14-.02.29-.03.45-.03h.01Z"/>
          <path class="st3" d="M16.43,67.7c.34,0,.6.14.78.41.18.27.27.66.27,1.15s-.09.88-.26,1.16c-.17.28-.44.42-.79.42-.33,0-.58-.14-.76-.42-.17-.28-.26-.66-.26-1.16s.08-.88.25-1.15c.16-.27.42-.41.78-.41h-.01ZM16.43,68.13c-.18,0-.31.09-.39.28s-.12.47-.12.84.04.66.12.85c.08.19.21.29.39.29.36,0,.54-.38.54-1.13s-.18-1.13-.54-1.13ZM19.63,67.77l-2.77,5h-.54l2.77-5h.54ZM19.49,69.7c.34,0,.6.14.78.41.18.27.27.66.27,1.15s-.08.88-.26,1.16c-.17.28-.43.42-.79.42-.33,0-.58-.14-.76-.42-.17-.28-.26-.66-.26-1.16s.08-.88.25-1.15c.16-.27.42-.41.78-.41h-.01ZM19.49,70.14c-.18,0-.31.09-.39.28s-.12.47-.12.84.04.66.12.85c.08.19.21.28.39.28.36,0,.54-.38.54-1.13s-.18-1.12-.54-1.12Z"/>
        </g>
      </g>
      <g>
        <rect class="st0" x="100.47" y="71.93" width="10.79" height="2.83"/>
        <g>
          <path class="st3" d="M101.26,69.8c0-.36.03-.71.09-1.06s.18-.66.34-.95c.17-.28.4-.51.7-.67.3-.17.68-.25,1.15-.25.1,0,.21,0,.33.01s.22.03.29.05v.53c-.08-.03-.18-.05-.29-.06-.11-.01-.21-.02-.31-.02-.32,0-.59.05-.81.16-.21.11-.38.25-.51.44-.12.19-.21.4-.27.64s-.09.5-.11.78h.04c.11-.16.26-.3.45-.42s.44-.17.74-.17c.43,0,.78.13,1.05.4.27.26.4.64.4,1.12,0,.52-.14.93-.43,1.23s-.67.45-1.16.45c-.32,0-.6-.08-.86-.24-.26-.16-.46-.4-.61-.73s-.23-.74-.23-1.24h.01ZM102.96,71.48c.29,0,.53-.09.71-.28s.27-.48.27-.88c0-.32-.08-.57-.24-.76-.16-.19-.4-.28-.72-.28-.22,0-.41.05-.57.14s-.29.21-.38.35-.14.29-.14.43c0,.2.04.4.12.6s.2.36.36.49.36.19.59.19Z"/>
          <path class="st3" d="M106.36,66.86c.34,0,.6.14.78.41.18.27.27.66.27,1.15s-.09.88-.26,1.16c-.17.28-.44.42-.79.42-.33,0-.58-.14-.76-.42-.17-.28-.26-.66-.26-1.16s.08-.88.25-1.15c.16-.27.42-.41.78-.41h0ZM106.36,67.3c-.18,0-.31.09-.39.28s-.12.47-.12.84.04.66.12.85c.08.19.21.29.39.29.36,0,.54-.38.54-1.13s-.18-1.13-.54-1.13ZM109.56,66.93l-2.77,5h-.54l2.77-5h.54ZM109.42,68.87c.34,0,.6.14.78.41.18.27.27.66.27,1.15s-.08.88-.26,1.16c-.17.28-.43.42-.79.42-.33,0-.58-.14-.76-.42-.17-.28-.26-.66-.26-1.16s.08-.88.25-1.15c.16-.27.42-.41.78-.41h0ZM109.42,69.31c-.18,0-.31.09-.39.28s-.12.47-.12.84.04.66.12.85c.08.19.21.28.39.28.36,0,.54-.38.54-1.13s-.18-1.12-.54-1.12Z"/>
        </g>
      </g>
      <line class="st1" x1="9.23" y1="75.6" x2="38.14" y2="75.6"/>
      <line class="st1" x1="54.16" y1="74.93" x2="83.07" y2="74.93"/>
      <line class="st1" x1="99.11" y1="74.76" x2="128.02" y2="74.76"/>
      <line class="st1" x1="144.08" y1="74.99" x2="173" y2="74.99"/>
      <g>
        <rect class="st0" x="190.38" y="72.63" width="10.79" height="2.83"/>
        <g>
          <path class="st3" d="M192.71,69.57c.51,0,.92.13,1.22.38s.46.62.46,1.08c0,.52-.17.92-.49,1.22-.33.3-.79.44-1.38.44-.26,0-.5-.02-.73-.07-.22-.05-.41-.11-.57-.2v-.58c.17.1.37.18.61.24s.47.09.69.09c.37,0,.67-.09.89-.26.23-.17.34-.45.34-.82,0-.33-.1-.58-.3-.75-.2-.18-.52-.26-.95-.26-.13,0-.28.01-.45.04s-.3.05-.41.07l-.31-.2.19-2.36h2.51v.56h-1.98l-.12,1.45c.08-.01.19-.03.32-.05.14-.02.29-.03.45-.03h0Z"/>
          <path class="st3" d="M196.22,67.57c.34,0,.6.14.78.41.18.27.27.66.27,1.15s-.08.88-.25,1.16c-.17.28-.44.42-.79.42-.33,0-.58-.14-.76-.42-.17-.28-.26-.66-.26-1.16s.08-.88.25-1.15c.16-.27.42-.41.78-.41h-.02ZM196.22,68c-.18,0-.31.09-.39.28s-.12.47-.12.84.04.66.12.85.21.29.39.29c.36,0,.54-.38.54-1.13s-.18-1.13-.54-1.13ZM199.42,67.64l-2.77,5h-.54l2.77-5h.54ZM199.28,69.57c.34,0,.6.14.78.41.18.27.27.66.27,1.15s-.09.88-.26,1.16c-.17.28-.44.42-.79.42-.33,0-.58-.14-.76-.42-.17-.28-.26-.66-.26-1.16s.08-.88.24-1.15c.16-.27.42-.41.78-.41h0ZM199.28,70.01c-.18,0-.31.09-.39.28s-.12.47-.12.84.04.66.12.85c.08.19.21.28.39.28.36,0,.54-.38.54-1.13s-.18-1.12-.54-1.12Z"/>
        </g>
      </g>
      <line class="st1" x1="188.65" y1="75.47" x2="217.57" y2="75.47"/>
    </g>
  </g>
  <g id="Year">
    <g>
      <g>
        <g>
          <path d="M202.85,88.26h-3.3v-.51l1.31-1.32c.25-.25.46-.48.63-.67s.31-.39.4-.57.13-.39.13-.62c0-.28-.08-.48-.25-.63-.16-.14-.38-.21-.64-.21s-.46.04-.64.13c-.18.08-.37.2-.56.35l-.33-.41c.2-.16.42-.3.68-.42.25-.11.54-.17.86-.17.47,0,.84.12,1.11.36s.41.56.41.97c0,.26-.05.51-.16.74-.11.23-.26.46-.45.68s-.42.46-.67.71l-1.04,1.03v.03h2.53v.56l-.02-.03Z"/>
          <path d="M205.34,85.19c.51,0,.92.13,1.22.39s.46.62.46,1.08c0,.52-.17.92-.49,1.22-.33.3-.79.44-1.38.44-.26,0-.5-.02-.73-.07-.22-.05-.41-.11-.57-.2v-.58c.17.1.37.18.61.24s.47.09.69.09c.37,0,.67-.09.89-.26.23-.17.34-.45.34-.82,0-.33-.1-.58-.3-.75-.2-.18-.52-.26-.95-.26-.13,0-.28.01-.45.04s-.3.05-.41.07l-.31-.2.19-2.36h2.51v.56h-1.98l-.12,1.45c.08-.01.19-.03.32-.05.14-.02.29-.03.45-.03h0Z"/>
        </g>
        <g>
          <path d="M67.94,88.26h-3.3v-.51l1.31-1.32c.25-.25.46-.48.63-.67s.31-.39.4-.57.13-.39.13-.62c0-.28-.08-.48-.25-.63-.16-.14-.38-.21-.64-.21s-.46.04-.64.13c-.18.08-.37.2-.56.35l-.33-.41c.2-.16.42-.3.68-.42.25-.11.54-.17.86-.17.47,0,.84.12,1.11.36.27.24.41.56.41.97,0,.26-.05.51-.16.74-.11.23-.26.46-.45.68-.19.22-.42.46-.67.71l-1.04,1.03v.03h2.53v.56l-.02-.03Z"/>
          <path d="M72.2,88.26h-3.3v-.51l1.31-1.32c.25-.25.46-.48.63-.67s.31-.39.4-.57.13-.39.13-.62c0-.28-.08-.48-.25-.63-.16-.14-.38-.21-.64-.21s-.46.04-.64.13c-.18.08-.37.2-.56.35l-.33-.41c.2-.16.42-.3.68-.42.25-.11.54-.17.86-.17.47,0,.84.12,1.11.36.27.24.41.56.41.97,0,.26-.05.51-.16.74-.11.23-.26.46-.45.68-.19.22-.42.46-.67.71l-1.04,1.03v.03h2.53v.56l-.02-.03Z"/>
        </g>
        <g>
          <path d="M157.81,88.26h-3.3v-.51l1.31-1.32c.25-.25.46-.48.63-.67s.31-.39.4-.57.13-.39.13-.62c0-.28-.08-.48-.25-.63-.16-.14-.38-.21-.64-.21s-.46.04-.64.13c-.18.08-.37.2-.56.35l-.33-.41c.2-.16.42-.3.68-.42.25-.11.54-.17.86-.17.47,0,.84.12,1.11.36s.41.56.41.97c0,.26-.05.51-.16.74-.11.23-.26.46-.45.68s-.42.46-.67.71l-1.04,1.03v.03h2.53v.56l-.02-.03Z"/>
          <path d="M162.15,87.13h-.73v1.13h-.59v-1.13h-2.39v-.53l2.35-3.37h.64v3.34h.73v.55h-.01ZM160.82,86.57v-1.58c0-.24,0-.45,0-.62,0-.17,0-.33.02-.49h-.03c-.04.09-.08.18-.14.29-.06.1-.11.19-.16.26l-1.5,2.14h1.8Z"/>
        </g>
        <g>
          <path d="M112.91,88.26h-3.3v-.51l1.31-1.32c.25-.25.46-.48.63-.67s.31-.39.4-.57.13-.39.13-.62c0-.28-.08-.48-.25-.63-.16-.14-.38-.21-.64-.21s-.46.04-.64.13c-.18.08-.37.2-.56.35l-.33-.41c.2-.16.42-.3.68-.42.25-.11.54-.17.86-.17.47,0,.84.12,1.11.36.27.24.41.56.41.97,0,.26-.05.51-.16.74-.11.23-.26.46-.45.68-.19.22-.42.46-.67.71l-1.04,1.03v.03h2.53v.56l-.02-.03Z"/>
          <path d="M116.99,84.43c0,.34-.09.6-.28.8-.19.2-.44.33-.75.4v.03c.4.05.69.17.89.38s.3.47.3.8c0,.29-.07.55-.2.78-.14.22-.34.4-.63.52s-.65.19-1.09.19c-.26,0-.5-.02-.73-.06-.22-.04-.44-.11-.64-.21v-.57c.21.11.44.19.68.25s.48.08.7.08c.45,0,.77-.09.97-.26.2-.17.3-.42.3-.72s-.12-.54-.37-.68-.59-.21-1.03-.21h-.48v-.52h.49c.41,0,.72-.09.93-.26.21-.17.32-.4.32-.69,0-.24-.08-.43-.25-.56-.16-.13-.38-.2-.67-.2s-.5.04-.69.12-.38.18-.57.3l-.31-.42c.18-.14.4-.26.66-.36s.56-.15.9-.15c.52,0,.91.12,1.17.35.25.23.38.53.38.89v-.02Z"/>
        </g>
        <g>
          <path d="M23.7,88.26h-3.3v-.51l1.31-1.32c.25-.25.46-.48.63-.67s.31-.39.4-.57.13-.39.13-.62c0-.28-.08-.48-.25-.63-.16-.14-.38-.21-.64-.21s-.46.04-.64.13c-.18.08-.37.2-.56.35l-.33-.41c.2-.16.42-.3.68-.42.25-.11.54-.17.86-.17.47,0,.84.12,1.11.36s.41.56.41.97c0,.26-.05.51-.16.74-.11.23-.26.46-.45.68s-.42.46-.67.71l-1.04,1.03v.03h2.53v.56l-.02-.03Z"/>
          <path d="M26.57,88.26h-.6v-3.97c0-.12.01-.25.02-.38-.08.08-.14.14-.21.19-.06.05-.14.12-.23.2l-.53.43-.32-.41,1.35-1.05h.51v5h0Z"/>
        </g>
      </g>
      <line class="st2" x1="0" y1="79.26" x2="226.75" y2="79.26"/>
    </g>
  </g>
</svg>