<?xml version="1.0" encoding="UTF-8"?>
<svg id="Layer_1" xmlns="http://www.w3.org/2000/svg" version="1.1" viewBox="0 0 226.75 104.79">
  <!-- Generator: Adobe Illustrator 29.6.0, SVG Export Plug-In . SVG Version: 2.1.1 Build 207)  -->
  <defs>
    <style>
      .st0, .st1, .st2 {
        fill: none;
      }

      .st1 {
        stroke-dasharray: 1.5 1.5;
        stroke-linecap: round;
        stroke-width: .5px;
      }

      .st1, .st2 {
        stroke: #000;
        stroke-miterlimit: 10;
      }

      .st3 {
        fill: #ba1028;
      }

      .st2 {
        stroke-width: .25px;
      }

      .st4 {
        fill: #12a639;
      }
    </style>
  </defs>
  <g id="Legend">
    <g>
      <path d="M11.56,102.85h-.46v-5.3h-1.84v-.42h4.14v.42h-1.84s0,5.3,0,5.3Z"/>
      <path d="M17.83,100.72c0,.44-.07.83-.22,1.16s-.36.59-.65.77c-.29.18-.63.28-1.04.28s-.73-.09-1.02-.27c-.28-.18-.5-.44-.65-.77-.15-.33-.23-.72-.23-1.17,0-.69.17-1.23.52-1.62.34-.39.81-.58,1.41-.58.41,0,.75.09,1.03.28.28.18.49.44.64.77.14.33.22.72.22,1.16h-.01ZM14.49,100.72c0,.54.12.98.34,1.32.23.33.59.5,1.08.5s.86-.17,1.09-.5.35-.77.35-1.32c0-.35-.05-.66-.14-.94-.1-.27-.25-.48-.46-.64-.21-.15-.48-.23-.82-.23-.49,0-.85.16-1.09.48s-.36.76-.36,1.33h0Z"/>
      <path d="M20.31,102.54c.12,0,.23,0,.34-.03s.2-.04.28-.07v.37c-.08.03-.19.06-.3.08-.12.02-.24.03-.38.03-.35,0-.62-.1-.82-.3s-.29-.52-.29-.96v-2.7h-.63v-.26l.63-.14.16-.98h.29v1.02h1.31v.37h-1.31v2.69c0,.6.24.9.72.9v-.02Z"/>
      <path d="M23.45,98.52c.48,0,.84.12,1.07.35.24.23.35.6.35,1.11v2.86h-.34l-.09-.72h-.02c-.15.24-.34.43-.56.58s-.53.22-.93.22-.73-.1-.96-.3c-.24-.2-.36-.5-.36-.89,0-.42.17-.74.52-.97s.85-.35,1.52-.38l.78-.04v-.3c0-.42-.08-.72-.25-.89s-.42-.26-.74-.26c-.22,0-.43.03-.63.08-.2.06-.41.14-.61.24l-.14-.37c.2-.1.42-.18.66-.25.24-.06.49-.1.74-.1v.03ZM24.43,100.7l-.72.03c-.54.02-.95.11-1.22.28-.27.16-.4.41-.4.73,0,.26.08.46.25.6s.39.2.68.2c.44,0,.79-.13,1.03-.38s.37-.6.38-1.06v-.41h0Z"/>
      <path d="M26.81,102.85h-.46v-6.08h.46v6.08Z"/>
      <path d="M35.01,99.94c0,.96-.25,1.69-.76,2.18s-1.24.74-2.21.74h-1.41v-5.71h1.58c.91,0,1.6.24,2.08.72.48.48.72,1.17.72,2.08h0ZM34.53,99.95c0-1.6-.8-2.41-2.41-2.41h-1.03v4.9h.91c1.69,0,2.53-.83,2.53-2.49Z"/>
      <path d="M37.96,98.51c.36,0,.67.08.91.25s.43.4.55.69.18.63.18,1.01v.32h-3.04c0,.56.13.99.39,1.29s.64.45,1.13.45c.27,0,.5-.02.7-.06s.41-.12.65-.22v.42c-.21.1-.42.17-.63.21-.21.04-.45.06-.73.06-.63,0-1.12-.19-1.46-.58s-.51-.92-.51-1.59c0-.43.07-.82.22-1.16s.36-.6.64-.8c.28-.19.61-.29,1.01-.29h-.01ZM37.95,98.9c-.39,0-.71.13-.95.39s-.38.63-.43,1.11h2.55c0-.45-.09-.81-.28-1.09s-.49-.42-.89-.42h0Z"/>
      <path d="M41.32,96.77v2.17c0,.18,0,.32-.02.42h.03c.11-.24.28-.44.52-.6.24-.16.55-.24.92-.24.55,0,.98.19,1.28.56.3.37.46.92.46,1.64,0,.67-.15,1.21-.46,1.61-.31.4-.75.6-1.34.6-.36,0-.65-.08-.88-.22-.23-.15-.39-.33-.5-.54h-.04l-.08.69h-.34v-6.08h.46,0ZM42.72,98.9c-.5,0-.85.16-1.07.46-.22.31-.32.76-.32,1.34v.06c0,.58.1,1.01.31,1.32.21.3.54.45,1.02.45s.8-.16,1.04-.48.35-.77.35-1.36c0-1.2-.44-1.8-1.32-1.8h-.01Z"/>
      <path d="M46.99,102.54c.12,0,.23,0,.34-.03s.2-.04.28-.07v.37c-.08.03-.19.06-.3.08-.12.02-.24.03-.38.03-.35,0-.62-.1-.82-.3s-.29-.52-.29-.96v-2.7h-.63v-.26l.63-.14.16-.98h.29v1.02h1.31v.37h-1.31v2.69c0,.6.24.9.72.9v-.02Z"/>
      <path d="M52.36,102.93c-.57,0-1.01-.18-1.32-.55s-.46-.9-.46-1.61.16-1.3.48-1.68.77-.58,1.33-.58c.36,0,.65.08.87.23.22.15.39.35.5.58h.03c0-.13,0-.27-.02-.42,0-.15,0-.29,0-.41v-1.73h.46v6.08h-.37l-.06-.74h-.02c-.11.22-.28.42-.5.58s-.53.24-.9.24h0ZM52.41,102.54c.49,0,.84-.15,1.05-.45s.31-.73.31-1.29v-.08c0-.59-.1-1.04-.31-1.35-.21-.31-.55-.47-1.02-.47s-.8.16-1.04.48-.35.78-.35,1.38.11,1.02.34,1.32c.22.3.56.45,1.02.45h0Z"/>
      <path d="M59.09,98.59v4.26h-.38l-.06-.73h-.02c-.12.23-.3.42-.54.58s-.54.23-.91.23c-1,0-1.5-.52-1.5-1.55v-2.78h.46v2.75c0,.41.09.71.27.9s.45.29.82.29c.94,0,1.41-.54,1.41-1.62v-2.32h.46,0Z"/>
      <path d="M62.24,98.51c.36,0,.67.08.91.25s.43.4.55.69.18.63.18,1.01v.32h-3.04c0,.56.13.99.39,1.29s.64.45,1.13.45c.27,0,.5-.02.7-.06s.41-.12.65-.22v.42c-.21.1-.42.17-.63.21-.21.04-.45.06-.73.06-.63,0-1.12-.19-1.46-.58s-.51-.92-.51-1.59c0-.43.07-.82.22-1.16.15-.34.36-.6.64-.8.28-.19.61-.29,1.01-.29h-.01ZM62.24,98.9c-.39,0-.71.13-.95.39s-.39.63-.43,1.11h2.55c0-.45-.09-.81-.28-1.09s-.49-.42-.89-.42h0Z"/>
      <path d="M67.59,97.02c.21,0,.32.12.32.34s-.11.35-.32.35-.3-.12-.3-.35.1-.34.3-.34ZM67.81,98.59v4.26h-.45v-4.26h.45Z"/>
      <path d="M71.24,98.51c.48,0,.86.12,1.11.38s.38.64.38,1.18v2.78h-.46v-2.75c0-.41-.09-.7-.28-.9-.18-.19-.46-.29-.81-.29-.94,0-1.41.54-1.41,1.62v2.32h-.45v-4.26h.37l.06.74h.03c.11-.24.29-.43.53-.58.24-.16.54-.23.91-.23h.02Z"/>
      <path d="M78.33,98.51c.48,0,.86.12,1.11.38s.38.64.38,1.18v2.78h-.46v-2.75c0-.41-.09-.7-.28-.9-.18-.19-.46-.29-.81-.29-.94,0-1.41.54-1.41,1.62v2.32h-.45v-4.26h.37l.06.74h.03c.11-.24.29-.43.53-.58.24-.16.54-.23.91-.23h.02Z"/>
      <path d="M82.93,98.51c.36,0,.67.08.91.25s.43.4.55.69.18.63.18,1.01v.32h-3.04c0,.56.13.99.39,1.29s.64.45,1.13.45c.27,0,.5-.02.7-.06s.41-.12.65-.22v.42c-.21.1-.42.17-.63.21s-.45.06-.73.06c-.63,0-1.12-.19-1.46-.58s-.51-.92-.51-1.59c0-.43.07-.82.22-1.16.15-.34.36-.6.64-.8.28-.19.61-.29,1.01-.29h-.01ZM82.92,98.9c-.39,0-.71.13-.95.39s-.39.63-.43,1.11h2.55c0-.45-.09-.81-.28-1.09s-.49-.42-.89-.42h0Z"/>
      <path d="M86.87,100.66l-1.49-2.07h.54l1.22,1.76,1.23-1.76h.52l-1.47,2.07,1.56,2.18h-.53l-1.31-1.87-1.3,1.87h-.52s1.55-2.18,1.55-2.18Z"/>
      <path d="M91.2,102.54c.12,0,.23,0,.34-.03.11-.02.2-.04.28-.07v.37c-.09.03-.19.06-.3.08-.11.02-.24.03-.38.03-.35,0-.62-.1-.82-.3-.19-.2-.29-.52-.29-.96v-2.7h-.63v-.26l.63-.14.16-.98h.29v1.02h1.31v.37h-1.31v2.69c0,.6.24.9.72.9v-.02Z"/>
      <path d="M97.04,102.85h-.45v-4.81c0-.15,0-.29.02-.42-.07.08-.14.14-.21.19-.06.05-.15.12-.26.21l-.8.61-.24-.32,1.55-1.17h.38v5.71h.01Z"/>
      <path d="M103.15,99.98c0,.96-.15,1.69-.44,2.19-.3.51-.76.76-1.4.76-.6,0-1.06-.25-1.37-.75-.31-.5-.46-1.23-.46-2.2,0-.58.06-1.09.18-1.53s.31-.78.58-1.03c.27-.25.63-.37,1.08-.37s.79.12,1.06.36.47.58.59,1.02c.12.44.18.96.18,1.55ZM99.93,99.98c0,.86.11,1.5.33,1.92s.57.63,1.04.63.84-.21,1.05-.63c.22-.42.32-1.06.32-1.92,0-.53-.04-.98-.12-1.36s-.22-.67-.42-.87c-.2-.2-.47-.3-.82-.3s-.62.1-.82.3c-.2.2-.35.49-.43.87-.08.38-.13.83-.13,1.35h0Z"/>
      <path d="M108.06,100.19l1.63-3.06h.51l-1.9,3.5v2.21h-.46v-2.18l-1.92-3.54h.51l1.63,3.06h0Z"/>
      <path d="M112.64,98.51c.36,0,.67.08.91.25s.43.4.55.69.18.63.18,1.01v.32h-3.04c0,.56.13.99.39,1.29s.64.45,1.13.45c.27,0,.5-.02.7-.06s.41-.12.65-.22v.42c-.21.1-.42.17-.63.21s-.45.06-.73.06c-.63,0-1.12-.19-1.46-.58s-.51-.92-.51-1.59c0-.43.07-.82.22-1.16s.36-.6.64-.8c.28-.19.61-.29,1.01-.29h-.01ZM112.64,98.9c-.39,0-.71.13-.95.39s-.38.63-.43,1.11h2.55c0-.45-.09-.81-.28-1.09s-.49-.42-.89-.42h0Z"/>
      <path d="M117.07,98.52c.48,0,.84.12,1.07.35.24.23.35.6.35,1.11v2.86h-.34l-.09-.72h-.02c-.15.24-.34.43-.56.58s-.53.22-.93.22-.73-.1-.96-.3c-.24-.2-.36-.5-.36-.89,0-.42.17-.74.52-.97.34-.22.85-.35,1.52-.38l.78-.04v-.3c0-.42-.08-.72-.25-.89s-.41-.26-.74-.26c-.22,0-.43.03-.63.08-.2.06-.41.14-.61.24l-.14-.37c.2-.1.42-.18.66-.25.24-.06.49-.1.74-.1v.03ZM118.04,100.7l-.72.03c-.54.02-.95.11-1.22.28s-.4.41-.4.73c0,.26.08.46.25.6s.39.2.68.2c.44,0,.79-.13,1.03-.38s.37-.6.38-1.06v-.41h0Z"/>
      <path d="M121.72,98.52c.22,0,.42.02.58.07l-.06.42c-.09-.02-.17-.04-.26-.05-.09-.01-.18-.02-.27-.02-.39,0-.71.14-.93.43-.23.29-.34.67-.34,1.14v2.34h-.46v-4.26h.38l.05.8h.02c.11-.24.27-.45.48-.62.21-.17.48-.26.8-.26h0Z"/>
      <path d="M125.92,101.72c0,.39-.14.69-.43.9s-.69.31-1.22.31c-.3,0-.56-.03-.79-.08s-.42-.12-.57-.19v-.44c.19.1.4.17.64.24.24.06.49.09.74.09.42,0,.72-.07.9-.21.19-.14.28-.33.28-.58s-.1-.42-.29-.54c-.2-.13-.49-.25-.88-.39-.26-.09-.49-.18-.69-.27s-.36-.21-.47-.36-.17-.34-.17-.6c0-.34.14-.61.42-.8s.65-.29,1.11-.29c.26,0,.49.03.71.08s.42.11.61.19l-.16.38c-.17-.07-.35-.14-.56-.18-.21-.05-.42-.07-.62-.07-.34,0-.6.06-.78.18-.19.12-.28.29-.28.51,0,.17.04.3.13.4s.22.18.39.26c.17.07.38.15.62.24.25.09.48.18.68.27.21.1.37.22.49.37.12.15.18.35.18.6v-.02Z"/>
    </g>
    <path class="st3" d="M6.39,99.98c0,.43-.08.83-.24,1.22-.16.38-.39.73-.7,1.04-.3.3-.65.53-1.03.69-.39.16-.79.24-1.22.24s-.84-.08-1.23-.24c-.39-.16-.73-.39-1.03-.69-.3-.31-.54-.65-.7-1.04-.16-.38-.24-.79-.24-1.22s.08-.83.24-1.22.39-.73.7-1.04c.3-.3.65-.53,1.03-.69.39-.16.79-.24,1.22-.24s.83.08,1.22.24c.38.16.73.39,1.04.7.3.31.54.65.7,1.04s.24.79.24,1.22h0Z"/>
    <g>
      <g>
        <path d="M149.33,102.85v-5.71h.46v5.3h2.67v.42h-3.14,0Z"/>
        <path d="M153.7,97.02c.21,0,.32.12.32.34s-.11.35-.32.35-.3-.12-.3-.35.1-.34.3-.34ZM153.92,98.59v4.26h-.45v-4.26h.45Z"/>
        <path d="M158.38,104.74v-2.26c0-.15,0-.29.02-.4h-.03c-.11.25-.28.45-.53.61s-.55.24-.93.24c-.54,0-.96-.19-1.26-.56-.3-.37-.46-.92-.46-1.64,0-.67.15-1.21.46-1.62.3-.41.75-.61,1.34-.61.36,0,.66.08.88.23.23.15.39.34.5.55h.02l.06-.7h.37v6.14h-.45v.02ZM156.99,102.54c.49,0,.84-.15,1.06-.45.22-.3.33-.73.33-1.29v-.11c0-.59-.11-1.03-.32-1.33s-.55-.45-1.03-.45-.8.16-1.03.49-.34.77-.34,1.34.11,1.04.33,1.34c.22.31.55.46,1,.46Z"/>
        <path d="M163.72,98.59v4.26h-.38l-.06-.73h-.02c-.12.23-.3.42-.54.58-.24.16-.54.23-.91.23-1,0-1.5-.52-1.5-1.55v-2.78h.46v2.75c0,.41.09.71.27.9.18.19.45.29.82.29.94,0,1.41-.54,1.41-1.62v-2.32h.46-.01Z"/>
        <path d="M165.48,97.02c.21,0,.32.12.32.34s-.11.35-.32.35-.3-.12-.3-.35.1-.34.3-.34ZM165.7,98.59v4.26h-.45v-4.26h.45Z"/>
        <path d="M168.76,102.93c-.57,0-1.01-.18-1.32-.55s-.46-.9-.46-1.61.16-1.3.48-1.68c.32-.38.77-.58,1.33-.58.36,0,.65.08.87.23s.39.35.5.58h.03c0-.13,0-.27-.02-.42,0-.15,0-.29,0-.41v-1.73h.46v6.08h-.37l-.06-.74h-.02c-.11.22-.28.42-.5.58s-.53.24-.9.24h0ZM168.81,102.54c.49,0,.84-.15,1.05-.45s.31-.73.31-1.29v-.08c0-.59-.1-1.04-.31-1.35-.21-.31-.55-.47-1.02-.47s-.81.16-1.04.48-.35.78-.35,1.38.11,1.02.34,1.32c.22.3.56.45,1.02.45h0Z"/>
        <path d="M172.36,97.02c.21,0,.32.12.32.34s-.11.35-.32.35-.3-.12-.3-.35.1-.34.3-.34ZM172.59,98.59v4.26h-.45v-4.26h.45Z"/>
        <path d="M175.32,102.54c.12,0,.23,0,.34-.03.11-.02.2-.04.28-.07v.37c-.08.03-.19.06-.3.08s-.24.03-.38.03c-.35,0-.62-.1-.82-.3-.19-.2-.29-.52-.29-.96v-2.7h-.63v-.26l.63-.14.16-.98h.29v1.02h1.31v.37h-1.31v2.69c0,.6.24.9.72.9v-.02Z"/>
        <path d="M176.25,98.59h.49l1.02,2.65c.08.24.16.44.22.63.06.18.12.35.15.49h.02c.04-.12.09-.28.15-.47s.14-.41.22-.64l.99-2.66h.49l-1.92,5.02c-.14.37-.31.66-.51.87s-.46.31-.8.31c-.11,0-.2,0-.28-.02s-.16-.04-.23-.06v-.38c.14.05.29.07.46.07.22,0,.41-.07.55-.21s.27-.35.37-.63l.28-.72-1.67-4.24h0Z"/>
        <path d="M183.12,97.14h1.58c.7,0,1.22.11,1.56.33s.5.57.5,1.06c0,.33-.1.61-.29.85-.19.23-.47.38-.82.45v.03c.42.06.73.21.95.43s.32.54.32.94c0,.37-.08.67-.25.91s-.4.42-.7.54-.65.18-1.04.18h-1.81v-5.71h0ZM183.59,99.66h1.22c.52,0,.9-.09,1.13-.27.23-.18.35-.45.35-.81s-.12-.63-.38-.79c-.25-.16-.65-.24-1.21-.24h-1.12v2.11h0ZM183.59,100.06v2.39h1.3c1.03,0,1.55-.42,1.55-1.25,0-.39-.13-.68-.4-.87-.26-.18-.67-.28-1.23-.28h-1.23,0Z"/>
        <path d="M189.71,98.52c.48,0,.84.12,1.07.35.24.23.35.6.35,1.11v2.86h-.34l-.09-.72h-.02c-.15.24-.34.43-.56.58s-.53.22-.93.22-.73-.1-.96-.3c-.24-.2-.36-.5-.36-.89,0-.42.17-.74.52-.97s.85-.35,1.52-.38l.78-.04v-.3c0-.42-.08-.72-.25-.89s-.42-.26-.74-.26c-.22,0-.43.03-.63.08-.2.06-.41.14-.61.24l-.14-.37c.2-.1.42-.18.66-.25.24-.06.49-.1.74-.1v.03ZM190.68,100.7l-.72.03c-.54.02-.95.11-1.22.28s-.4.41-.4.73c0,.26.08.46.25.6s.39.2.68.2c.44,0,.79-.13,1.03-.38s.37-.6.38-1.06v-.41h0Z"/>
        <path d="M193.07,102.85h-.46v-6.08h.46v6.08Z"/>
        <path d="M196.09,98.52c.48,0,.84.12,1.07.35.24.23.35.6.35,1.11v2.86h-.34l-.09-.72h-.02c-.15.24-.34.43-.56.58s-.53.22-.93.22-.73-.1-.96-.3c-.24-.2-.36-.5-.36-.89,0-.42.17-.74.52-.97s.85-.35,1.52-.38l.78-.04v-.3c0-.42-.08-.72-.25-.89s-.42-.26-.74-.26c-.22,0-.43.03-.63.08-.2.06-.41.14-.61.24l-.14-.37c.2-.1.42-.18.66-.25.24-.06.49-.1.74-.1v.03ZM197.07,100.7l-.72.03c-.54.02-.95.11-1.22.28s-.4.41-.4.73c0,.26.08.46.25.6s.39.2.68.2c.44,0,.79-.13,1.03-.38s.37-.6.38-1.06v-.41h0Z"/>
        <path d="M200.9,98.51c.49,0,.86.12,1.11.38.26.25.38.64.38,1.18v2.78h-.46v-2.75c0-.41-.09-.7-.28-.9-.18-.19-.45-.29-.81-.29-.94,0-1.41.54-1.41,1.62v2.32h-.45v-4.26h.37l.06.74h.03c.11-.24.29-.43.53-.58.24-.16.54-.23.91-.23h.02Z"/>
        <path d="M205.59,102.93c-.62,0-1.11-.19-1.44-.57-.34-.38-.51-.92-.51-1.61,0-.48.08-.88.26-1.21.17-.33.41-.59.72-.76.31-.17.66-.26,1.07-.26.21,0,.4.02.58.06.18.04.34.09.48.15l-.13.4c-.3-.13-.61-.2-.93-.2-.5,0-.89.16-1.16.49-.27.33-.41.77-.41,1.33s.12.97.36,1.3.61.5,1.11.5c.21,0,.41-.02.6-.06s.35-.1.5-.17v.41c-.14.07-.3.12-.48.16s-.39.06-.62.06v-.02Z"/>
        <path d="M209.43,98.51c.36,0,.67.08.91.25s.43.4.55.69c.12.29.18.63.18,1.01v.32h-3.04c0,.56.13.99.39,1.29s.64.45,1.13.45c.27,0,.5-.02.7-.06s.41-.12.65-.22v.42c-.21.1-.42.17-.63.21s-.45.06-.73.06c-.63,0-1.12-.19-1.46-.58-.34-.39-.51-.92-.51-1.59,0-.43.07-.82.22-1.16s.36-.6.64-.8c.28-.19.61-.29,1.01-.29h0ZM209.42,98.9c-.39,0-.71.13-.95.39-.24.26-.38.63-.43,1.11h2.55c0-.45-.09-.81-.28-1.09s-.49-.42-.89-.42h0Z"/>
      </g>
      <path class="st4" d="M146.47,99.98c0,.43-.08.83-.24,1.22-.16.38-.39.73-.7,1.04s-.64.53-1.03.69-.79.24-1.22.24-.84-.08-1.23-.24c-.39-.16-.73-.39-1.03-.69-.3-.31-.54-.65-.7-1.04-.16-.38-.24-.79-.24-1.22s.08-.83.24-1.22.39-.73.7-1.04.64-.53,1.03-.69.79-.24,1.22-.24.84.08,1.22.24c.38.16.73.39,1.04.7s.54.65.7,1.04.24.79.24,1.22h0Z"/>
    </g>
  </g>
  <g id="Graph">
    <g>
      <g>
        <rect class="st0" x="205.37" width="14.98" height="79.26"/>
        <rect class="st4" x="205.37" width="10.79" height="79.26"/>
        <rect class="st0" x="205.37" width="14.98" height="79.26"/>
      </g>
      <g>
        <rect class="st0" x="190.39" y="66.09" width="14.98" height="13.17"/>
        <rect class="st3" x="190.39" y="66.09" width="10.79" height="13.17"/>
        <rect class="st0" x="190.39" y="66.09" width="14.98" height="13.17"/>
      </g>
      <g>
        <rect class="st0" x="160.42" width="14.98" height="79.26"/>
        <rect class="st4" x="160.42" width="10.79" height="79.26"/>
        <rect class="st0" x="160.42" width="14.98" height="79.26"/>
      </g>
      <g>
        <rect class="st0" x="145.43" y="66.98" width="14.98" height="12.28"/>
        <rect class="st3" x="145.43" y="66.98" width="10.79" height="12.28"/>
        <rect class="st0" x="145.43" y="66.98" width="14.98" height="12.28"/>
      </g>
      <g>
        <rect class="st0" x="115.46" width="14.98" height="79.26"/>
        <rect class="st4" x="115.46" width="10.79" height="79.26"/>
        <rect class="st0" x="115.46" width="14.98" height="79.26"/>
      </g>
      <g>
        <rect class="st0" x="100.48" y="60.02" width="14.98" height="19.24"/>
        <rect class="st3" x="100.48" y="60.02" width="10.79" height="19.24"/>
        <rect class="st0" x="100.48" y="60.02" width="14.98" height="19.24"/>
      </g>
      <g>
        <rect class="st0" x="70.53" width="14.98" height="79.26"/>
        <rect class="st4" x="70.53" width="10.79" height="79.26"/>
        <rect class="st0" x="70.53" width="14.98" height="79.26"/>
      </g>
      <g>
        <rect class="st0" x="55.55" y="57.07" width="14.98" height="22.19"/>
        <rect class="st3" x="55.55" y="57.07" width="10.79" height="22.19"/>
        <rect class="st0" x="55.55" y="57.07" width="14.98" height="22.19"/>
      </g>
      <g>
        <rect class="st0" x="25.58" width="14.98" height="79.26"/>
        <rect class="st4" x="25.58" width="10.79" height="79.26"/>
        <rect class="st0" x="25.58" width="14.98" height="79.26"/>
      </g>
      <g>
        <rect class="st0" x="10.6" y="64.65" width="14.98" height="14.61"/>
        <rect class="st3" x="10.6" y="64.65" width="10.79" height="14.61"/>
        <rect class="st0" x="10.6" y="64.65" width="14.98" height="14.61"/>
      </g>
    </g>
  </g>
  <g id="Text">
    <g>
      <g>
        <rect class="st0" x="145.44" y="64.15" width="10.79" height="2.83"/>
        <g>
          <path class="st3" d="M146.34,63.61h-.6v-3.97c0-.12,0-.25.02-.38-.08.07-.14.14-.21.19-.06.05-.14.12-.23.2l-.53.43-.32-.41,1.35-1.05h.51v5h.01Z"/>
          <path class="st3" d="M149.56,60.54c.51,0,.92.13,1.22.38s.46.62.46,1.08c0,.52-.16.92-.49,1.22s-.79.44-1.38.44c-.26,0-.5-.02-.73-.07s-.41-.11-.57-.2v-.58c.17.1.37.18.61.24s.47.09.69.09c.37,0,.67-.09.89-.26.23-.17.34-.45.34-.82,0-.33-.1-.58-.3-.75-.2-.18-.52-.26-.95-.26-.13,0-.28.01-.45.04s-.3.05-.41.07l-.31-.2.19-2.36h2.51v.56h-1.98l-.12,1.45c.08-.01.19-.03.32-.05.14-.02.29-.03.45-.03h0Z"/>
          <path class="st3" d="M153.07,58.54c.34,0,.6.14.78.41.18.27.27.66.27,1.15s-.09.88-.26,1.16c-.17.28-.44.42-.79.42-.33,0-.58-.14-.76-.42-.17-.28-.26-.66-.26-1.16s.08-.88.25-1.15c.16-.27.42-.41.78-.41h-.01ZM153.07,58.98c-.18,0-.31.09-.39.28s-.12.47-.12.84.04.66.12.85c.08.19.21.29.39.29.36,0,.54-.38.54-1.13s-.18-1.13-.54-1.13ZM156.27,58.61l-2.77,5h-.54l2.77-5h.54ZM156.13,60.54c.34,0,.6.14.78.41.18.27.27.66.27,1.15s-.08.88-.26,1.16c-.17.28-.43.42-.79.42-.33,0-.58-.14-.76-.42-.17-.28-.26-.66-.26-1.16s.08-.88.25-1.15c.16-.27.42-.41.78-.41h-.01ZM156.13,60.99c-.18,0-.31.09-.39.28s-.12.47-.12.84.04.66.12.85c.08.19.21.28.39.28.36,0,.54-.38.54-1.13s-.18-1.12-.54-1.12Z"/>
        </g>
      </g>
      <g>
        <rect class="st0" x="10.6" y="61.54" width="10.79" height="3.11"/>
        <g>
          <path class="st3" d="M11.42,61.54h-.6v-3.97c0-.12.01-.25.02-.38-.07.08-.14.14-.21.19-.06.05-.14.12-.23.2l-.53.43-.32-.41,1.35-1.05h.51v5h0Z"/>
          <path class="st3" d="M14.76,56.48c.44,0,.8.1,1.08.31.28.21.42.5.42.89,0,.2-.04.38-.13.52-.09.15-.2.28-.35.4-.15.11-.3.22-.48.3.21.1.39.21.56.34.17.12.3.26.4.43s.15.36.15.59c0,.42-.15.75-.45,1s-.7.37-1.19.37c-.54,0-.96-.12-1.24-.35-.29-.24-.43-.57-.43-.99,0-.22.05-.42.14-.59.1-.17.22-.32.38-.44s.33-.22.51-.31c-.25-.14-.46-.31-.62-.51-.17-.2-.25-.45-.25-.76,0-.25.07-.47.2-.64.13-.18.31-.31.53-.41.22-.09.48-.14.76-.14h0ZM13.71,60.28c0,.24.09.44.26.61.17.16.44.24.8.24.34,0,.6-.08.78-.24.18-.16.27-.37.27-.63,0-.24-.1-.44-.29-.61-.19-.16-.45-.3-.76-.42l-.11-.04c-.31.14-.54.29-.7.46s-.24.38-.24.64h-.01ZM14.75,56.97c-.26,0-.47.06-.64.19-.16.12-.25.3-.25.54,0,.17.04.32.12.43.08.12.19.22.33.3s.29.16.46.23c.24-.1.45-.23.61-.37s.25-.34.25-.6c0-.23-.08-.41-.24-.54-.16-.12-.38-.19-.65-.19h.01Z"/>
          <path class="st3" d="M18.31,56.48c.34,0,.6.14.78.41.18.27.27.66.27,1.15s-.09.88-.26,1.16c-.17.28-.44.42-.79.42-.33,0-.58-.14-.76-.42-.17-.28-.26-.66-.26-1.16s.08-.88.25-1.15c.16-.27.42-.41.78-.41h-.01ZM18.31,56.91c-.18,0-.31.09-.39.28s-.12.47-.12.84.04.66.12.85c.08.19.21.29.39.29.36,0,.54-.38.54-1.13s-.18-1.13-.54-1.13ZM21.51,56.55l-2.77,5h-.54l2.77-5h.54ZM21.37,58.48c.34,0,.6.14.78.41.18.27.27.66.27,1.15s-.08.88-.26,1.16c-.17.28-.43.42-.79.42-.33,0-.58-.14-.76-.42-.17-.28-.26-.66-.26-1.16s.08-.88.25-1.15c.16-.27.42-.41.78-.41h-.01ZM21.37,58.92c-.18,0-.31.09-.39.28s-.12.47-.12.84.04.66.12.85c.08.19.21.28.39.28.36,0,.54-.38.54-1.13s-.18-1.12-.54-1.12Z"/>
        </g>
      </g>
      <g>
        <rect class="st0" x="55.53" y="54.23" width="10.79" height="2.83"/>
        <g>
          <path class="st3" d="M57.48,54.23h-3.3v-.51l1.31-1.32c.25-.25.46-.48.63-.67s.31-.39.4-.57.13-.39.13-.62c0-.28-.08-.48-.25-.63s-.38-.21-.64-.21-.46.04-.64.13c-.18.08-.37.2-.56.35l-.33-.41c.2-.16.42-.3.68-.42.25-.11.54-.17.86-.17.47,0,.83.12,1.11.36.27.24.41.56.41.97,0,.26-.05.51-.16.73s-.26.46-.45.68c-.19.22-.42.46-.67.71l-1.04,1.03v.03h2.53v.56l-.02-.02Z"/>
          <path class="st3" d="M60.02,49.17c.44,0,.8.1,1.08.31.28.21.42.5.42.89,0,.2-.04.38-.13.52-.09.15-.2.28-.35.4-.14.11-.3.22-.48.3.21.1.39.21.56.34.17.12.3.26.4.43.1.16.15.36.15.59,0,.42-.15.75-.45,1s-.7.37-1.19.37c-.54,0-.96-.12-1.24-.35-.29-.24-.43-.57-.43-.99,0-.22.05-.42.14-.59.1-.17.22-.32.38-.44s.33-.22.51-.31c-.25-.14-.46-.31-.62-.51-.17-.2-.25-.45-.25-.76,0-.25.07-.47.2-.64.13-.18.31-.31.53-.41.22-.09.48-.14.76-.14h0ZM58.97,52.97c0,.24.09.44.26.61.17.16.44.24.8.24.34,0,.6-.08.78-.24.18-.16.27-.37.27-.63,0-.24-.1-.44-.29-.61s-.45-.3-.76-.42l-.11-.04c-.31.14-.54.29-.7.46s-.24.38-.24.64h0ZM60.01,49.66c-.26,0-.47.06-.64.18-.16.12-.25.3-.25.54,0,.17.04.32.12.43.08.12.19.22.33.3.14.08.29.16.46.23.24-.1.45-.23.61-.37.17-.14.25-.34.25-.59,0-.23-.08-.41-.25-.54-.16-.12-.38-.18-.65-.18h.02Z"/>
          <path class="st3" d="M63.57,49.17c.34,0,.6.14.78.41.18.27.27.66.27,1.15s-.09.88-.26,1.16c-.17.28-.44.42-.79.42-.33,0-.58-.14-.76-.42-.17-.28-.26-.66-.26-1.16s.08-.88.25-1.15c.16-.27.42-.41.78-.41h0ZM63.57,49.6c-.18,0-.31.09-.39.28-.08.19-.12.47-.12.84s.04.66.12.85c.08.19.21.29.39.29.36,0,.54-.38.54-1.13s-.18-1.13-.54-1.13ZM66.77,49.24l-2.77,5h-.54l2.77-5h.54ZM66.63,51.17c.34,0,.6.14.78.41.18.27.27.66.27,1.15s-.08.88-.26,1.16c-.17.28-.43.42-.79.42-.33,0-.58-.14-.76-.42-.17-.28-.26-.66-.26-1.16s.08-.88.25-1.15c.16-.27.42-.41.78-.41h0ZM66.63,51.61c-.18,0-.31.09-.39.28s-.12.47-.12.84.04.66.12.85c.08.19.21.28.39.28.36,0,.54-.38.54-1.13s-.18-1.12-.54-1.12Z"/>
        </g>
      </g>
      <g>
        <rect class="st0" x="100.48" y="57.18" width="10.79" height="2.83"/>
        <g>
          <path class="st3" d="M102.51,56.64h-3.3v-.51l1.31-1.32c.25-.25.46-.48.63-.67s.31-.39.4-.57.13-.39.13-.62c0-.28-.08-.48-.25-.63s-.38-.21-.64-.21-.46.04-.64.13c-.18.08-.37.2-.56.35l-.33-.41c.2-.16.42-.3.68-.42.25-.11.54-.17.86-.17.47,0,.83.12,1.11.36.27.24.41.56.41.97,0,.26-.05.51-.16.73s-.26.46-.45.68c-.19.22-.42.46-.67.71l-1.04,1.03v.03h2.53v.56l-.02-.02Z"/>
          <path class="st3" d="M106.84,55.51h-.73v1.13h-.6v-1.13h-2.39v-.53l2.35-3.37h.64v3.34h.73v.55h0ZM105.52,54.96v-1.58c0-.24,0-.45.01-.62,0-.17.01-.33.02-.49h-.03c-.04.09-.08.18-.14.29s-.11.19-.16.26l-1.5,2.13h1.8Z"/>
          <path class="st3" d="M108.43,51.58c.34,0,.6.14.78.41.18.27.27.66.27,1.15s-.08.88-.25,1.16c-.17.28-.44.42-.79.42-.33,0-.58-.14-.76-.42-.17-.28-.26-.66-.26-1.16s.08-.88.25-1.15c.16-.27.42-.41.78-.41h-.02ZM108.43,52.01c-.18,0-.31.09-.39.28s-.12.47-.12.84.04.66.12.85c.08.19.21.29.39.29.36,0,.54-.38.54-1.13s-.18-1.13-.54-1.13ZM111.63,51.65l-2.77,5h-.54l2.77-5h.54ZM111.49,53.58c.34,0,.6.14.78.41.18.27.27.66.27,1.15s-.09.88-.26,1.16c-.17.28-.44.42-.79.42-.33,0-.58-.14-.76-.42s-.26-.66-.26-1.16.08-.88.25-1.15c.16-.27.42-.41.78-.41h0ZM111.49,54.02c-.18,0-.31.09-.39.28s-.12.47-.12.84.04.66.12.85c.08.19.21.28.39.28.36,0,.54-.38.54-1.13s-.18-1.12-.54-1.12Z"/>
        </g>
      </g>
      <line class="st1" x1="9.23" y1="64.65" x2="38.15" y2="64.65"/>
      <line class="st1" x1="54.17" y1="57.07" x2="83.08" y2="57.07"/>
      <line class="st1" x1="99.12" y1="60.01" x2="128.03" y2="60.01"/>
      <line class="st1" x1="144.09" y1="66.98" x2="173" y2="66.98"/>
      <g>
        <rect class="st0" x="190.39" y="63.25" width="10.79" height="2.83"/>
        <g>
          <path class="st3" d="M191.26,62.71h-.6v-3.97c0-.12,0-.25.02-.38-.08.07-.14.14-.21.19-.06.05-.14.12-.23.2l-.53.43-.32-.41,1.35-1.05h.51v5h.01Z"/>
          <path class="st3" d="M193.46,62.71l2.05-4.44h-2.7v-.56h3.35v.48l-2.03,4.52h-.68,0Z"/>
          <path class="st3" d="M198.08,57.65c.34,0,.6.14.78.41.18.27.27.66.27,1.15s-.09.88-.26,1.16c-.17.28-.44.42-.79.42-.33,0-.58-.14-.76-.42-.17-.28-.26-.66-.26-1.16s.08-.88.24-1.15c.16-.27.42-.41.78-.41h0ZM198.08,58.08c-.18,0-.31.09-.39.28s-.12.47-.12.84.04.66.12.85c.08.19.21.29.39.29.36,0,.54-.38.54-1.13s-.18-1.13-.54-1.13ZM201.28,57.71l-2.77,5h-.54l2.77-5h.54ZM201.14,59.65c.34,0,.6.14.78.41.18.27.27.66.27,1.15s-.09.88-.26,1.16c-.17.28-.44.42-.79.42-.33,0-.58-.14-.76-.42-.17-.28-.26-.66-.26-1.16s.08-.88.25-1.15c.16-.27.42-.41.78-.41h-.01ZM201.14,60.09c-.18,0-.31.09-.39.28s-.12.47-.12.84.04.66.12.85c.08.19.21.28.39.28.36,0,.54-.38.54-1.13s-.18-1.12-.54-1.12Z"/>
        </g>
      </g>
      <line class="st1" x1="189.04" y1="66.08" x2="217.95" y2="66.08"/>
    </g>
    <rect class="st0" x="189.4" y="57.02" width="1.01" height="7.39"/>
    <rect class="st0" x="201.17" y="57.02" width="1.01" height="7.39"/>
  </g>
  <g id="Year">
    <g>
      <g>
        <g>
          <path d="M202.85,88.26h-3.3v-.51l1.31-1.32c.25-.25.46-.48.63-.67s.31-.39.4-.57.13-.39.13-.62c0-.28-.08-.48-.25-.63-.16-.14-.38-.21-.64-.21s-.46.04-.64.13c-.18.08-.37.2-.56.35l-.33-.41c.2-.16.42-.3.68-.42.25-.11.54-.17.86-.17.47,0,.84.12,1.11.36s.41.56.41.97c0,.26-.05.51-.16.74-.11.23-.26.46-.45.68s-.42.46-.67.71l-1.04,1.03v.03h2.53v.56l-.02-.03Z"/>
          <path d="M205.34,85.19c.51,0,.92.13,1.22.39s.46.62.46,1.08c0,.52-.17.92-.49,1.22-.33.3-.79.44-1.38.44-.26,0-.5-.02-.73-.07-.22-.05-.41-.11-.57-.2v-.58c.17.1.37.18.61.24s.47.09.69.09c.37,0,.67-.09.89-.26.23-.17.34-.45.34-.82,0-.33-.1-.58-.3-.75-.2-.18-.52-.26-.95-.26-.13,0-.28.01-.45.04s-.3.05-.41.07l-.31-.2.19-2.36h2.51v.56h-1.98l-.12,1.45c.08-.01.19-.03.32-.05.14-.02.29-.03.45-.03h0Z"/>
        </g>
        <g>
          <path d="M67.94,88.26h-3.3v-.51l1.31-1.32c.25-.25.46-.48.63-.67s.31-.39.4-.57.13-.39.13-.62c0-.28-.08-.48-.25-.63-.16-.14-.38-.21-.64-.21s-.46.04-.64.13c-.18.08-.37.2-.56.35l-.33-.41c.2-.16.42-.3.68-.42.25-.11.54-.17.86-.17.47,0,.84.12,1.11.36.27.24.41.56.41.97,0,.26-.05.51-.16.74-.11.23-.26.46-.45.68-.19.22-.42.46-.67.71l-1.04,1.03v.03h2.53v.56l-.02-.03Z"/>
          <path d="M72.2,88.26h-3.3v-.51l1.31-1.32c.25-.25.46-.48.63-.67s.31-.39.4-.57.13-.39.13-.62c0-.28-.08-.48-.25-.63-.16-.14-.38-.21-.64-.21s-.46.04-.64.13c-.18.08-.37.2-.56.35l-.33-.41c.2-.16.42-.3.68-.42.25-.11.54-.17.86-.17.47,0,.84.12,1.11.36.27.24.41.56.41.97,0,.26-.05.51-.16.74-.11.23-.26.46-.45.68-.19.22-.42.46-.67.71l-1.04,1.03v.03h2.53v.56l-.02-.03Z"/>
        </g>
        <g>
          <path d="M157.81,88.26h-3.3v-.51l1.31-1.32c.25-.25.46-.48.63-.67s.31-.39.4-.57.13-.39.13-.62c0-.28-.08-.48-.25-.63-.16-.14-.38-.21-.64-.21s-.46.04-.64.13c-.18.08-.37.2-.56.35l-.33-.41c.2-.16.42-.3.68-.42.25-.11.54-.17.86-.17.47,0,.84.12,1.11.36s.41.56.41.97c0,.26-.05.51-.16.74-.11.23-.26.46-.45.68s-.42.46-.67.71l-1.04,1.03v.03h2.53v.56l-.02-.03Z"/>
          <path d="M162.15,87.13h-.73v1.13h-.59v-1.13h-2.39v-.53l2.35-3.37h.64v3.34h.73v.55h-.01ZM160.82,86.57v-1.58c0-.24,0-.45,0-.62,0-.17,0-.33.02-.49h-.03c-.04.09-.08.18-.14.29-.06.1-.11.19-.16.26l-1.5,2.14h1.8Z"/>
        </g>
        <g>
          <path d="M112.91,88.26h-3.3v-.51l1.31-1.32c.25-.25.46-.48.63-.67s.31-.39.4-.57.13-.39.13-.62c0-.28-.08-.48-.25-.63-.16-.14-.38-.21-.64-.21s-.46.04-.64.13c-.18.08-.37.2-.56.35l-.33-.41c.2-.16.42-.3.68-.42.25-.11.54-.17.86-.17.47,0,.84.12,1.11.36.27.24.41.56.41.97,0,.26-.05.51-.16.74-.11.23-.26.46-.45.68-.19.22-.42.46-.67.71l-1.04,1.03v.03h2.53v.56l-.02-.03Z"/>
          <path d="M116.99,84.43c0,.34-.09.6-.28.8-.19.2-.44.33-.75.4v.03c.4.05.69.17.89.38s.3.47.3.8c0,.29-.07.55-.2.78-.14.22-.34.4-.63.52s-.65.19-1.09.19c-.26,0-.5-.02-.73-.06-.22-.04-.44-.11-.64-.21v-.57c.21.11.44.19.68.25s.48.08.7.08c.45,0,.77-.09.97-.26.2-.17.3-.42.3-.72s-.12-.54-.37-.68-.59-.21-1.03-.21h-.48v-.52h.49c.41,0,.72-.09.93-.26.21-.17.32-.4.32-.69,0-.24-.08-.43-.25-.56-.16-.13-.38-.2-.67-.2s-.5.04-.69.12-.38.18-.57.3l-.31-.42c.18-.14.4-.26.66-.36s.56-.15.9-.15c.52,0,.91.12,1.17.35.25.23.38.53.38.89v-.02Z"/>
        </g>
        <g>
          <path d="M23.7,88.26h-3.3v-.51l1.31-1.32c.25-.25.46-.48.63-.67s.31-.39.4-.57.13-.39.13-.62c0-.28-.08-.48-.25-.63-.16-.14-.38-.21-.64-.21s-.46.04-.64.13c-.18.08-.37.2-.56.35l-.33-.41c.2-.16.42-.3.68-.42.25-.11.54-.17.86-.17.47,0,.84.12,1.11.36s.41.56.41.97c0,.26-.05.51-.16.74-.11.23-.26.46-.45.68s-.42.46-.67.71l-1.04,1.03v.03h2.53v.56l-.02-.03Z"/>
          <path d="M26.57,88.26h-.6v-3.97c0-.12.01-.25.02-.38-.08.08-.14.14-.21.19-.06.05-.14.12-.23.2l-.53.43-.32-.41,1.35-1.05h.51v5h0Z"/>
        </g>
      </g>
      <line class="st2" x1="0" y1="79.26" x2="226.75" y2="79.26"/>
    </g>
  </g>
</svg>