<?xml version="1.0" encoding="UTF-8"?>
<svg xmlns="http://www.w3.org/2000/svg" viewBox="0 0 123.79 60.47">
  <defs>
    <style>
      .cls-1, .cls-2 {
        fill: none;
      }

      .cls-2 {
        stroke: #000;
        stroke-miterlimit: 10;
        stroke-width: .25px;
      }

      .cls-3 {
        fill: #006ba6;
      }
    </style>
  </defs>
  <g id="Chart_Bar">
    <g>
      <rect class="cls-3" x="49.46" y="4.49" width="64.35" height="11.01"/>
      <rect class="cls-3" x="49.46" y="20" width="33.2" height="11.01"/>
      <rect class="cls-3" x="49.46" y="35.5" width="23.74" height="11.01"/>
    </g>
  </g>
  <g id="Text">
    <g>
      <path d="M37.5,43.55h-.6v-3.49c0-.2,0-.36,0-.48,0-.12.01-.25.02-.38-.07.07-.14.14-.21.19s-.14.12-.23.2l-.53.43-.32-.41,1.35-1.05h.51v5Z"/>
      <path d="M42.53,41.05c0,.54-.06,1-.17,1.39-.11.38-.29.68-.54.88-.25.21-.57.31-.96.31-.56,0-.98-.23-1.25-.68-.27-.46-.4-1.09-.4-1.89,0-.54.06-1,.16-1.39.11-.38.29-.68.53-.88s.56-.3.96-.3c.56,0,.98.23,1.25.68s.41,1.08.41,1.89ZM39.83,41.05c0,.69.08,1.2.23,1.54.16.34.42.51.8.51s.64-.17.8-.51c.16-.34.24-.85.24-1.54s-.08-1.19-.24-1.53c-.16-.34-.43-.51-.8-.51s-.65.17-.8.51c-.16.34-.23.85-.23,1.53Z"/>
    </g>
    <g>
      <path d="M38.38,28h-3.3v-.51l1.31-1.32c.25-.25.46-.48.63-.67.18-.2.31-.39.4-.57.09-.19.13-.39.13-.62,0-.28-.08-.48-.25-.63-.16-.14-.38-.21-.64-.21-.25,0-.46.04-.64.13-.18.08-.37.2-.56.35l-.33-.41c.2-.16.42-.3.68-.42s.54-.17.86-.17c.47,0,.84.12,1.11.36.27.24.41.56.41.97,0,.26-.05.51-.16.73s-.26.46-.45.68c-.19.22-.42.46-.67.71l-1.04,1.03v.03h2.53v.56Z"/>
      <path d="M42.53,25.5c0,.54-.06,1-.17,1.39-.11.38-.29.68-.54.88-.25.21-.57.31-.96.31-.56,0-.98-.23-1.25-.68-.27-.46-.4-1.09-.4-1.89,0-.54.06-1,.16-1.39.11-.38.29-.68.53-.88s.56-.3.96-.3c.56,0,.98.23,1.25.68s.41,1.08.41,1.89ZM39.83,25.5c0,.69.08,1.2.23,1.54.16.34.42.51.8.51s.64-.17.8-.51c.16-.34.24-.85.24-1.54s-.08-1.19-.24-1.53c-.16-.34-.43-.51-.8-.51s-.65.17-.8.51c-.16.34-.23.85-.23,1.53Z"/>
    </g>
    <path class="cls-3" d="M77.61,40.48c.51,0,.92.13,1.22.39s.46.62.46,1.08c0,.52-.16.92-.49,1.22-.33.3-.79.44-1.38.44-.26,0-.5-.02-.73-.07-.22-.05-.41-.11-.57-.2v-.58c.17.1.37.18.61.24.24.06.47.09.69.09.37,0,.67-.09.89-.26.23-.17.34-.45.34-.82,0-.33-.1-.58-.3-.75-.2-.18-.52-.26-.95-.26-.13,0-.28.01-.45.04s-.3.05-.41.07l-.31-.2.19-2.36h2.51v.56h-1.98l-.12,1.45c.08-.01.19-.03.32-.05s.28-.03.45-.03Z"/>
    <path class="cls-3" d="M86.22,28.03l2.05-4.44h-2.69v-.56h3.35v.48l-2.03,4.52h-.68Z"/>
    <g>
      <path class="cls-3" d="M118.6,12.5h-.6v-3.49c0-.2,0-.36,0-.48,0-.12.01-.25.02-.38-.07.07-.14.14-.21.19-.06.05-.14.12-.23.2l-.53.43-.32-.41,1.35-1.05h.51v5Z"/>
      <path class="cls-3" d="M123.79,11.36h-.73v1.13h-.6v-1.13h-2.39v-.53l2.35-3.37h.64v3.34h.73v.55ZM122.47,10.81v-1.58c0-.24,0-.45.01-.62,0-.17.01-.33.02-.49h-.03c-.04.09-.08.18-.14.29s-.11.19-.16.26l-1.5,2.14h1.79Z"/>
    </g>
    <g>
      <path d="M4.79,7.78v5.42h-.54v-.36H.52v.39h-.52v-5.46h1.76c.11-.31.22-.69.27-.96l.6.08c-.1.3-.23.62-.35.88h2.51ZM.52,8.27v1.04h3.73v-1.04H.52ZM.52,9.81v1.02h3.73v-1.02H.52ZM4.25,12.35v-1.04H.52v1.04h3.73Z"/>
      <path d="M7.97,12.69h-.6v-3.49c0-.2,0-.36,0-.48,0-.12.01-.25.02-.38-.07.07-.14.14-.21.19s-.14.12-.23.2l-.53.43-.32-.41,1.35-1.05h.51v5Z"/>
      <path d="M12.71,9.82c0,.36-.03.71-.09,1.06-.06.35-.18.66-.34.95-.17.28-.4.51-.7.68-.3.17-.69.25-1.16.25-.09,0-.2,0-.33-.02-.13-.01-.23-.03-.3-.05v-.52c.18.06.39.09.62.09.33,0,.6-.05.81-.16.21-.11.38-.25.51-.44.13-.18.22-.4.27-.64.06-.25.09-.5.1-.77h-.04c-.11.16-.26.3-.45.41s-.44.17-.74.17c-.43,0-.78-.13-1.04-.4s-.4-.64-.4-1.12c0-.35.07-.65.2-.9.13-.25.32-.45.56-.58.24-.14.52-.2.84-.2s.6.08.86.24c.26.16.46.4.61.73.15.32.22.74.22,1.24ZM11.02,8.14c-.29,0-.53.1-.71.29-.18.19-.28.48-.28.88,0,.32.08.58.23.76.16.18.4.28.72.28.22,0,.42-.05.58-.14.16-.09.29-.21.38-.35.09-.14.14-.28.14-.43,0-.2-.04-.4-.12-.59-.08-.2-.2-.36-.36-.49-.16-.13-.36-.2-.6-.2Z"/>
      <path d="M14.03,12.69l2.05-4.44h-2.69v-.56h3.35v.48l-2.03,4.52h-.68Z"/>
      <path d="M20.94,11.55h-.73v1.13h-.6v-1.13h-2.39v-.53l2.35-3.37h.64v3.34h.73v.55ZM19.62,11v-1.58c0-.24,0-.45.01-.62,0-.17.02-.33.02-.49h-.03c-.04.09-.08.18-.14.29-.06.1-.11.19-.16.26l-1.5,2.13h1.79Z"/>
      <path d="M28.44,11.62h-2.54v1.6h-.53v-1.6h-3.24v-.5h1.15v-1.88h2.09v-1.06h-1.7c-.32.54-.69,1.02-1.06,1.38-.1-.08-.32-.26-.45-.33.66-.57,1.25-1.48,1.58-2.42l.53.13c-.1.25-.21.5-.32.74h4.17v.5h-2.21v1.06h2.05v.49h-2.05v1.39h2.54v.5ZM25.38,11.12v-1.39h-1.57v1.39h1.57Z"/>
      <path d="M32.1,10.77c.02.15.09.37.13.49-2.02.97-2.27,1.11-2.44,1.27-.04-.12-.2-.33-.29-.43.15-.08.42-.31.42-.63v-4.1h.55v4.15l1.62-.76ZM35.07,13.2c-.28-.45-.85-1.11-1.42-1.67-.46.74-1.11,1.3-2.05,1.73-.07-.11-.27-.34-.39-.45,2.24-.89,2.72-2.62,2.89-5.72l.55.03c-.1,1.66-.29,2.95-.75,3.94.6.57,1.28,1.3,1.62,1.79l-.45.34ZM32.46,9.38c-.2-.45-.64-1.16-1.05-1.67l.44-.23c.41.5.87,1.17,1.08,1.62l-.47.27Z"/>
      <path d="M39.91,10.41c.64.85,1.67,1.69,2.62,2.09-.11.1-.28.3-.36.44-.93-.46-1.93-1.34-2.61-2.26v2.54h-.54v-2.52c-.68.92-1.67,1.77-2.59,2.22-.08-.13-.25-.32-.36-.43.94-.41,1.97-1.23,2.61-2.08h-2.46v-.5h2.81v-1.74h-2.48v-.5h2.48v-.84h.54v.84h2.54v.5h-2.54v1.74h2.83v.5h-2.47ZM37.56,8.33c.28.41.57.95.67,1.31l-.49.19c-.09-.35-.36-.92-.63-1.32l.46-.18ZM40.36,9.7c.24-.38.54-.97.71-1.39l.53.17c-.25.48-.55,1.03-.81,1.37l-.43-.15Z"/>
    </g>
    <line class="cls-2" x1="49.46" y1="51" x2="49.46"/>
    <g>
      <path d="M13.4,59.23v.49h-6.04v-.49h2.73v-.91h-2.15v-.47h2.15v-.87h-2.39v-.48h5.37v.48h-2.44v.87h2.19v.47h-2.19v.91h2.77ZM12.65,55.86h-4.53v-2.06h4.53v2.06ZM12.11,54.27h-3.48v1.12h3.48v-1.12Z"/>
      <path d="M16.59,57.03l-.84.25v1.97c0,.32-.08.47-.28.55-.2.09-.53.1-1.09.1-.01-.14-.09-.36-.17-.5.39.01.75,0,.85,0,.12,0,.17-.04.17-.15v-1.81c-.34.1-.67.2-.95.27l-.14-.53c.3-.07.68-.17,1.09-.29v-1.48h-.99v-.51h.99v-1.4h.52v1.4h.78v.51h-.78v1.33l.77-.22.07.5ZM20.35,56.22c-.18.86-.53,1.67-1.02,2.33.38.38.81.69,1.27.89-.13.1-.29.3-.36.44-.46-.22-.88-.55-1.25-.93-.35.38-.77.71-1.24.96-.08-.12-.22-.27-.34-.38.48-.25.9-.57,1.25-.95-.46-.58-.83-1.25-1.09-1.98h-.21v3.29h-.51v-6.15h3.28s0,.15,0,.22c-.04.98-.11,1.38-.25,1.53-.13.13-.28.17-.51.18-.22.01-.67,0-1.13-.01,0-.14-.06-.31-.15-.44.46.04.92.04,1.06.04s.23,0,.28-.06c.09-.08.13-.36.16-.99h-2.23v1.9h2.56l.09-.02.34.11ZM18.07,56.59c.22.57.54,1.11.92,1.58.34-.48.6-1.02.75-1.58h-1.67Z"/>
      <path d="M24.59,58.2h-3.42v-.47h.68v-2.84h-.59v-.47h.59v-.85h.48v.85h1.27v-.85h.48v.85h.51v.47h-.51v2.84h.51v.47ZM22.64,58.49c-.25.54-.65,1.07-1.04,1.42-.1-.08-.29-.23-.42-.3.39-.32.75-.79.96-1.25l.5.13ZM22.33,54.89v.62h1.27v-.62h-1.27ZM22.33,56.62h1.27v-.69h-1.27v.69ZM22.33,57.74h1.27v-.7h-1.27v.7ZM23.54,58.35c.28.32.6.75.74,1.04l-.42.25c-.13-.28-.44-.74-.72-1.06l.41-.22ZM27.36,59.23c0,.31-.08.46-.27.55-.2.08-.53.1-1.04.1-.02-.15-.09-.37-.16-.5.37,0,.72,0,.82,0,.1,0,.15-.04.15-.15v-1.68h-1.48c-.07.83-.25,1.72-.67,2.4-.08-.1-.29-.26-.41-.31.58-.92.64-2.25.64-3.25v-2.53h2.42v5.38ZM26.85,57.07v-1.16h-1.43v.47c0,.22,0,.46-.01.69h1.44ZM25.42,54.33v1.11h1.43v-1.11h-1.43Z"/>
      <path d="M29.33,57.03h-.35v-2.04c0-.12,0-.21,0-.28,0-.07,0-.14.01-.22-.04.04-.08.08-.12.11s-.08.07-.13.11l-.31.25-.19-.24.79-.61h.3v2.91Z"/>
      <path d="M31.89,57.44c0-.57.08-1.12.25-1.65.17-.53.43-1.01.78-1.43h.58c-.33.44-.57.92-.74,1.45s-.25,1.07-.25,1.62.08,1.07.25,1.59.41,1,.73,1.44h-.57c-.35-.41-.61-.88-.78-1.4-.17-.52-.25-1.06-.25-1.63Z"/>
      <path d="M40.37,58.3h-2.54v1.6h-.53v-1.6h-3.24v-.5h1.15v-1.88h2.09v-1.06h-1.7c-.32.54-.69,1.02-1.06,1.38-.1-.08-.32-.26-.45-.33.66-.57,1.25-1.48,1.58-2.42l.53.13c-.1.25-.21.5-.32.74h4.17v.5h-2.21v1.06h2.05v.49h-2.05v1.39h2.54v.5ZM37.3,57.79v-1.39h-1.57v1.39h1.57Z"/>
      <path d="M42.53,57.44c0,.56-.08,1.11-.25,1.63-.17.52-.43.99-.78,1.4h-.57c.32-.44.57-.92.73-1.44.17-.52.25-1.05.25-1.59s-.08-1.1-.25-1.62c-.17-.53-.41-1.01-.74-1.45h.58c.35.42.61.9.78,1.43.17.53.25,1.08.25,1.65Z"/>
    </g>
    <rect class="cls-1" x="113.81" y="4.49" width="2.92" height="11.01"/>
    <rect class="cls-1" x="82.66" y="20" width="2.92" height="11.01"/>
    <rect class="cls-1" x="73.2" y="35.51" width="2.92" height="11.01"/>
  </g>
</svg>