<svg id="Layer_1" data-name="Layer 1" xmlns="http://www.w3.org/2000/svg" viewBox="0 0 500 500"><defs><style>.cls-1{fill:#929497;}.cls-2{fill:#7c6299;}.cls-3{fill:#fff;}.cls-4{fill:#49176d;}.cls-5{fill:#b0a2c5;}.cls-6{fill:#f1901d;}.cls-7{fill:#fab600;}.cls-8{fill:#ee7003;}</style></defs><path class="cls-1" d="M312.9,360.07h0c.9-20.11,30.65-35.45,70.08-36.66V57.67A14.76,14.76,0,0,0,368.26,42.9h-267A14.77,14.77,0,0,0,86.46,57.67V398.25A14.77,14.77,0,0,0,101.23,413H312.9Z"/><path d="M343.77,330.23h0Z"/><circle class="cls-2" cx="233.97" cy="226.3" r="105.18"/><rect class="cls-3" x="224.05" y="139.53" width="19.85" height="173.54" rx="9.93"/><rect class="cls-3" x="147.2" y="216.37" width="173.54" height="19.85" rx="9.93"/><rect class="cls-3" x="224.05" y="139.53" width="19.85" height="173.54" rx="9.93" transform="translate(-91.53 228.26) rotate(-44.39)"/><rect class="cls-3" x="147.2" y="216.37" width="173.54" height="19.85" rx="9.93" transform="translate(-91.49 231.72) rotate(-45)"/><circle class="cls-4" cx="233.97" cy="226.3" r="59.07"/><circle class="cls-5" cx="233.97" cy="226.3" r="26.44"/><path d="M409.87,0H59.61a16.06,16.06,0,0,0-16,16.05V439.87a16.06,16.06,0,0,0,16,16.05H93.76l4.57,39.8h30.46l12.53-39.8H312.9V413H101.23a14.77,14.77,0,0,1-14.77-14.77V57.67A14.77,14.77,0,0,1,101.23,42.9h267A14.76,14.76,0,0,1,383,57.67V323.41c1.67-.05,3.34-.09,5-.09a140.28,140.28,0,0,1,37.86,4.88V16.05A16,16,0,0,0,409.87,0Z"/><path class="cls-6" d="M388.06,482.2c-30.55,0-56.39-9.05-65.17-21.54a16.22,16.22,0,0,1-3.22-9.37v17.8c0,17.07,30.62,30.91,68.39,30.91s68.38-13.84,68.38-30.91v-17.8a16.22,16.22,0,0,1-3.22,9.37C444.44,473.15,418.6,482.2,388.06,482.2Z"/><path class="cls-6" d="M388.06,459.82c-30.55,0-56.39-9.05-65.17-21.55a16.17,16.17,0,0,1-3.22-9.36v17.8c0,17.07,30.62,30.91,68.39,30.91s68.38-13.84,68.38-30.91v-17.8a16.17,16.17,0,0,1-3.22,9.36C444.44,450.77,418.6,459.82,388.06,459.82Z"/><path class="cls-6" d="M388.06,437.23c-30.55,0-56.39-9.05-65.17-21.54a16.2,16.2,0,0,1-3.22-9.37v17.8c0,17.07,30.62,30.91,68.39,30.91s68.38-13.84,68.38-30.91v-17.8a16.2,16.2,0,0,1-3.22,9.37C444.44,428.18,418.6,437.23,388.06,437.23Z"/><path class="cls-6" d="M388.06,414.54c-30.55,0-56.39-9.05-65.17-21.54a16.2,16.2,0,0,1-3.22-9.37v17.8c0,17.07,30.62,30.91,68.39,30.91s68.38-13.84,68.38-30.91v-17.8a16.2,16.2,0,0,1-3.22,9.37C444.44,405.49,418.6,414.54,388.06,414.54Z"/><path class="cls-6" d="M453.22,369.44C444.44,381.93,418.6,391,388.06,391s-56.39-9.05-65.17-21.54a16.2,16.2,0,0,1-3.22-9.37v18.74c0,17.07,30.62,30.91,68.39,30.91s68.38-13.84,68.38-30.91V360.07A16.2,16.2,0,0,1,453.22,369.44Z"/><path class="cls-6" d="M388.06,330.09c-37.77,0-68.39,13.85-68.39,30.92a16.2,16.2,0,0,0,3.22,9.37c8.78,12.49,34.63,21.54,65.17,21.54s56.38-9.05,65.16-21.54a16.2,16.2,0,0,0,3.22-9.37C456.44,343.94,425.82,330.09,388.06,330.09Z"/><path class="cls-7" d="M388.05,333.35c-34.48,0-62.43,12-62.43,26.82a13.62,13.62,0,0,0,2.94,8.13c8,10.83,31.61,18.69,59.49,18.69s51.48-7.86,59.49-18.69a13.62,13.62,0,0,0,2.94-8.13C450.48,345.36,422.53,333.35,388.05,333.35Z"/><path id="dollar_sign" data-name="dollar sign" class="cls-8" d="M409.87,368.64c0-10.56-31.54-9.75-31.54-15.69,0-1.92,3.26-3.56,10-3.56a59.32,59.32,0,0,1,13.27,1.38c1.91.44,4-.32,4-1.42v-3c0-.63-.72-1.2-1.83-1.43a61.81,61.81,0,0,0-9.47-1.06c-1.49-.07-2.63-.74-2.63-1.53v-1.66c0-.85-1.3-1.54-2.92-1.54h-1.43c-1.61,0-2.92.69-2.92,1.54v1.87c0,.73-1,1.37-2.32,1.5A30,30,0,0,0,371.28,347c-3.35,1.77-5,3.9-5,6.4,0,9.9,31.55,10.21,31.55,15.63,0,1.92-4.59,3.42-9.72,3.42a77,77,0,0,1-17.69-1.83c-1.94-.46-4.14.28-4.14,1.4v3c0,.61.68,1.17,1.74,1.41a76.82,76.82,0,0,0,13.69,1.7c1.54.05,2.74.72,2.74,1.53v2c0,.84,1.31,1.53,2.92,1.53h1.43c1.62,0,2.92-.69,2.92-1.53v-2.4c0-.74,1-1.35,2.39-1.49a32.34,32.34,0,0,0,11-2.72C408.26,373.42,409.87,371.28,409.87,368.64Z"/></svg>