<svg id="Layer_1" data-name="Layer 1" xmlns="http://www.w3.org/2000/svg" viewBox="0 0 500 500"><defs><style>.cls-1{fill:#fab600;}.cls-2{fill:#b0a2c5;}.cls-3{fill:#7c6299;}.cls-4{fill:#49176d;}.cls-5{fill:#fff;}.cls-6{fill:#ee7003;}.cls-7{fill:#95ba29;}.cls-8{fill:#12a639;}.cls-9{fill:#007e72;}.cls-10{fill:#0055a4;}</style></defs><path class="cls-1" d="M326.7,240.27h25.36a49.64,49.64,0,1,0-46.36,13.11A23.44,23.44,0,0,1,326.7,240.27Z"/><rect class="cls-2" x="122.69" y="208.8" width="34.11" height="147.73"/><rect class="cls-3" x="118.12" y="350.6" width="43.26" height="5.93" rx="2.97"/><rect class="cls-4" x="119.11" y="203.12" width="41.28" height="15.33" rx="4.52"/><rect class="cls-4" x="116.39" y="355.55" width="46.72" height="9.15" rx="1.51"/><rect class="cls-2" x="38.27" y="208.8" width="34.11" height="147.73"/><rect class="cls-3" x="33.7" y="350.6" width="43.26" height="5.93" rx="2.97"/><rect class="cls-4" x="34.69" y="203.12" width="41.28" height="15.33" rx="4.52"/><rect class="cls-4" x="31.97" y="355.55" width="46.72" height="9.15" rx="1.51"/><rect class="cls-2" x="207.11" y="208.8" width="34.11" height="147.73"/><rect class="cls-3" x="202.53" y="350.6" width="43.26" height="5.93" rx="2.97"/><rect class="cls-4" x="203.52" y="203.12" width="41.28" height="15.33" rx="4.52"/><rect class="cls-4" x="200.8" y="355.55" width="46.72" height="9.15" rx="1.51"/><path class="cls-3" d="M260.83,197.71A56.27,56.27,0,0,1,265,182.57L139.66,121.82,11,184.25V212H260.83A56.64,56.64,0,0,1,260.83,197.71Z"/><rect class="cls-2" x="20.76" y="361.07" width="237.96" height="13.84"/><rect class="cls-3" x="11.04" y="373.92" width="257.41" height="16.15"/><rect class="cls-4" y="388.42" width="279.49" height="15.49"/><path class="cls-5" d="M145.33,193.48c0,3.23.45,4.4,3.78,4.67l5.46.37v3.06H124.91v-3.06l5.18-.37c3.15-.27,3.68-1.44,3.68-4.67V146.57h-4.19c-8.25,0-9.42,3.23-11.94,12H114.5V142.88H165v15.73h-3.15c-2.51-8.81-3.68-12-11.95-12h-4.57Z"/><path id="dollar_sign" data-name="dollar sign" class="cls-6" d="M334.88,216.58c0-16.34-25.7-15.1-25.7-24.28,0-3,2.66-5.52,8.12-5.52a26.73,26.73,0,0,1,10.82,2.14,2.37,2.37,0,0,0,3.29-2.2v-4.58a2.38,2.38,0,0,0-1.49-2.21,28,28,0,0,0-7.72-1.64,2.37,2.37,0,0,1-2.14-2.36v-2.58a2.37,2.37,0,0,0-2.38-2.38h-1.16a2.37,2.37,0,0,0-2.38,2.38v2.9a2.36,2.36,0,0,1-1.89,2.32,16.65,16.65,0,0,0-8.81,4.44,13.51,13.51,0,0,0-4.1,9.9c0,15.32,25.69,15.8,25.69,24.19,0,3-3.73,5.29-7.91,5.29a34.92,34.92,0,0,1-14.41-2.82,2.37,2.37,0,0,0-3.37,2.16v4.63a2.37,2.37,0,0,0,1.42,2.18,34.5,34.5,0,0,0,11.15,2.62,2.39,2.39,0,0,1,2.23,2.37v3.17a2.37,2.37,0,0,0,2.38,2.38h1.16a2.37,2.37,0,0,0,2.38-2.38V233a2.37,2.37,0,0,1,1.95-2.31,17.42,17.42,0,0,0,8.95-4.21A13.15,13.15,0,0,0,334.88,216.58Z"/><path class="cls-7" d="M326.89,276.33s-24.31,28.05-28.05,55.16S297,416.11,401.69,416.11s101.44-67.79,96.3-87-31.32-60.77-31.32-60.77Z"/><rect class="cls-8" x="310.34" y="247.34" width="177.18" height="32.72" rx="16.36"/><path id="dollar_sign-2" data-name="dollar sign" class="cls-9" d="M424.19,361.61c0-23.23-36.52-21.46-36.52-34.51,0-4.22,3.78-7.84,11.54-7.84a37.94,37.94,0,0,1,15.37,3,3.36,3.36,0,0,0,4.67-3.12v-6.52a3.38,3.38,0,0,0-2.11-3.14,40.11,40.11,0,0,0-11-2.33,3.35,3.35,0,0,1-3-3.36v-3.66a3.38,3.38,0,0,0-3.38-3.38h-1.66a3.38,3.38,0,0,0-3.38,3.38v4.12a3.34,3.34,0,0,1-2.68,3.3,23.6,23.6,0,0,0-12.52,6.31A19.2,19.2,0,0,0,373.67,328c0,21.78,36.53,22.45,36.53,34.37,0,4.24-5.32,7.53-11.25,7.53a49.73,49.73,0,0,1-20.49-4,3.38,3.38,0,0,0-4.79,3.07v6.58a3.39,3.39,0,0,0,2,3.1,49.44,49.44,0,0,0,15.85,3.73,3.39,3.39,0,0,1,3.17,3.37v4.5a3.38,3.38,0,0,0,3.38,3.38h1.66a3.38,3.38,0,0,0,3.38-3.38v-5.27a3.35,3.35,0,0,1,2.77-3.28c5.34-1,9.59-3,12.71-6Q424.17,370.34,424.19,361.61Z"/><path class="cls-10" d="M282.93,113.91l27.71-29.06a3.08,3.08,0,0,1,5.18,1.25l3.33,11.34c2.85-.1,5.71-.12,8.56,0a93.62,93.62,0,0,1,83.35,64.13l1.34,4.13a4.13,4.13,0,0,1-2.66,5.22l-8.27,2.69a4.14,4.14,0,0,1-5.22-2.66l-1.35-4.13a76.56,76.56,0,0,0-68.12-52.42c-.89,0-1.77,0-2.66,0l3,10.24a3.07,3.07,0,0,1-3.68,3.85l-39-9.47A3.08,3.08,0,0,1,282.93,113.91Z"/></svg>