<svg id="Layer_1" data-name="Layer 1" xmlns="http://www.w3.org/2000/svg" viewBox="0 0 500 500"><defs><style>.cls-1{fill:#0055a4;}.cls-2{fill:#006ba6;}.cls-3{fill:#22b7e9;}.cls-4{fill:#49176d;}.cls-5{fill:#004688;}.cls-6{fill:#fff;}.cls-7{fill:#b0a2c5;}.cls-8{fill:#7c6299;}.cls-9{fill:#fab600;}.cls-10{fill:#ee7003;}</style></defs><path class="cls-1" d="M103.69,142.24l15.64,3.4c21.77-47.87,73.4-79.56,130.85-79.56,76.71,0,139.37,55.79,141.56,125.13A3.68,3.68,0,0,1,388,195h-8.76a3.71,3.71,0,0,1-3.68-3.62C373.47,130.84,318,82.21,250.18,82.21c-49.86,0-94.68,26.54-114.68,66.94l14.8,3.22a2.49,2.49,0,0,1,1.31,4.11l-32.08,35.29a2.49,2.49,0,0,1-4.21-.91l-14.53-45.43A2.49,2.49,0,0,1,103.69,142.24Z"/><rect class="cls-2" x="30.99" y="275.94" width="27.62" height="119.62"/><rect class="cls-3" x="27.29" y="390.76" width="35.03" height="4.8" rx="2.4"/><rect class="cls-4" x="28.09" y="271.33" width="33.43" height="12.41" rx="3.66"/><rect class="cls-4" x="25.89" y="394.76" width="37.83" height="7.41" rx="1.22"/><rect class="cls-2" x="76.63" y="275.94" width="27.62" height="119.62"/><rect class="cls-3" x="72.93" y="390.76" width="35.03" height="4.8" rx="2.4"/><rect class="cls-4" x="73.73" y="271.33" width="33.43" height="12.41" rx="3.66"/><rect class="cls-4" x="71.52" y="394.76" width="37.83" height="7.41" rx="1.22"/><rect class="cls-2" x="122.26" y="275.94" width="27.62" height="119.62"/><rect class="cls-3" x="118.56" y="390.76" width="35.03" height="4.8" rx="2.4"/><rect class="cls-4" x="119.36" y="271.33" width="33.43" height="12.41" rx="3.66"/><rect class="cls-4" x="117.16" y="394.76" width="37.83" height="7.41" rx="1.22"/><rect class="cls-2" x="167.7" y="275.94" width="27.62" height="119.62"/><rect class="cls-3" x="164" y="390.76" width="35.03" height="4.8" rx="2.4"/><rect class="cls-4" x="164.8" y="271.33" width="33.43" height="12.41" rx="3.66"/><rect class="cls-4" x="162.6" y="394.76" width="37.83" height="7.41" rx="1.22"/><polygon class="cls-3" points="217.38 278.54 8.94 278.54 8.94 256.05 113.08 205.5 217.38 256.05 217.38 278.54"/><rect class="cls-3" x="16.81" y="399.23" width="192.69" height="11.21"/><rect class="cls-2" x="8.94" y="409.64" width="208.43" height="13.08"/><rect class="cls-5" y="421.38" width="226.32" height="12.54"/><path class="cls-6" d="M97.49,239.87,90.29,262h-4.6l-6.8-22.09-.07.07v22H73.66V236.23h9L88.08,255h.07L94,236.23h8.73V262H97.56v-22Z"/><path class="cls-6" d="M119.71,262.49a14,14,0,0,1-5.47-1,10.37,10.37,0,0,1-3.88-2.81,12,12,0,0,1-2.25-4.25,17.77,17.77,0,0,1-.76-5.32,18.1,18.1,0,0,1,.75-5.32,11.77,11.77,0,0,1,2.26-4.26,10.24,10.24,0,0,1,3.89-2.81,13.89,13.89,0,0,1,5.46-1,12.84,12.84,0,0,1,6.88,1.73,10.41,10.41,0,0,1,4.13,4.74,18.51,18.51,0,0,1,0,13.83,10.38,10.38,0,0,1-4.13,4.75A12.75,12.75,0,0,1,119.71,262.49Zm0-22.8a5.65,5.65,0,0,0-4,1.35,6.84,6.84,0,0,0-2,3.46,19,19,0,0,0-.52,4.61,18.52,18.52,0,0,0,.53,4.61,6.77,6.77,0,0,0,2,3.45,6.55,6.55,0,0,0,7.94,0,6.82,6.82,0,0,0,2-3.45,18.51,18.51,0,0,0,.54-4.61,19,19,0,0,0-.53-4.61,6.75,6.75,0,0,0-2-3.46A5.61,5.61,0,0,0,119.71,239.69Z"/><path class="cls-6" d="M142.26,262h-5.55V236.23h16.62v4.28H142.26v6.19h10.33V251H142.26Z"/><rect class="cls-7" x="373.07" y="275.9" width="27.61" height="119.59"/><rect class="cls-8" x="369.37" y="390.68" width="35.02" height="4.8" rx="2.4"/><rect class="cls-4" x="370.17" y="271.3" width="33.42" height="12.41" rx="3.66"/><rect class="cls-4" x="367.97" y="394.68" width="37.82" height="7.4" rx="1.22"/><rect class="cls-7" x="304.74" y="275.9" width="27.61" height="119.59"/><rect class="cls-8" x="301.04" y="390.68" width="35.02" height="4.8" rx="2.4"/><rect class="cls-4" x="301.84" y="271.3" width="33.42" height="12.41" rx="3.66"/><rect class="cls-4" x="299.64" y="394.68" width="37.82" height="7.4" rx="1.22"/><rect class="cls-7" x="441.41" y="275.9" width="27.61" height="119.59"/><rect class="cls-8" x="437.7" y="390.68" width="35.02" height="4.8" rx="2.4"/><rect class="cls-4" x="438.5" y="271.3" width="33.42" height="12.41" rx="3.66"/><rect class="cls-4" x="436.3" y="394.68" width="37.82" height="7.4" rx="1.22"/><polygon class="cls-8" points="491.06 278.5 282.69 278.5 282.69 256.02 386.81 205.49 491.06 256.02 491.06 278.5"/><rect class="cls-7" x="290.57" y="399.15" width="192.63" height="11.21"/><rect class="cls-8" x="282.7" y="409.56" width="208.37" height="13.07"/><rect class="cls-4" x="273.76" y="421.3" width="226.24" height="12.54"/><path class="cls-6" d="M391.4,263.5c0,2.61.36,3.56,3.06,3.78l4.41.29v2.48h-24v-2.48l4.19-.29c2.55-.22,3-1.17,3-3.78v-38h-3.39c-6.68,0-7.63,2.61-9.67,9.74h-2.54V222.54h40.88v12.73h-2.55c-2-7.13-3-9.74-9.67-9.74h-3.7Z"/><circle class="cls-9" cx="247.42" cy="188.44" r="53.02"/><path id="dollar_sign" data-name="dollar sign" class="cls-10" d="M266.39,200.77c0-17.44-27.43-16.11-27.43-25.92,0-3.16,2.84-5.89,8.67-5.89a28.36,28.36,0,0,1,11.54,2.29,2.53,2.53,0,0,0,3.51-2.34V164a2.52,2.52,0,0,0-1.58-2.35,29.84,29.84,0,0,0-8.24-1.75,2.53,2.53,0,0,1-2.28-2.53v-2.75a2.54,2.54,0,0,0-2.54-2.54h-1.25a2.54,2.54,0,0,0-2.54,2.54v3.09a2.52,2.52,0,0,1-2,2.49,17.75,17.75,0,0,0-9.41,4.73,14.45,14.45,0,0,0-4.38,10.57c0,16.35,27.43,16.86,27.43,25.81,0,3.19-4,5.65-8.44,5.65a37.19,37.19,0,0,1-15.39-3,2.54,2.54,0,0,0-3.6,2.31v4.94a2.55,2.55,0,0,0,1.52,2.33,37.18,37.18,0,0,0,11.9,2.8,2.54,2.54,0,0,1,2.38,2.53v3.38a2.54,2.54,0,0,0,2.54,2.54H248a2.54,2.54,0,0,0,2.54-2.54v-4a2.52,2.52,0,0,1,2.07-2.46,18.54,18.54,0,0,0,9.55-4.49A14,14,0,0,0,266.39,200.77Z"/></svg>