<svg id="Layer_1" data-name="Layer 1" xmlns="http://www.w3.org/2000/svg" viewBox="0 0 500 500"><defs><style>.cls-1{fill:#b0a2c5;}.cls-2{fill:#7c6299;}.cls-3{fill:#49176d;}.cls-4{fill:#fff;}.cls-5{fill:#006ba6;}.cls-6{fill:#ee7003;}.cls-7{fill:#95ba29;}.cls-8{fill:#fab600;}.cls-9{fill:none;}.cls-10{fill:#22b7e9;}.cls-11{fill:#0055a4;}</style></defs><rect class="cls-1" x="115.56" y="213.22" width="32.13" height="139.15"/><rect class="cls-2" x="111.25" y="346.78" width="40.74" height="5.59" rx="2.79"/><rect class="cls-3" x="112.18" y="207.86" width="38.88" height="14.44" rx="4.26"/><rect class="cls-3" x="109.62" y="351.44" width="44" height="8.61" rx="1.42"/><rect class="cls-1" x="36.05" y="213.22" width="32.13" height="139.15"/><rect class="cls-2" x="31.74" y="346.78" width="40.74" height="5.59" rx="2.79"/><rect class="cls-3" x="32.67" y="207.86" width="38.88" height="14.44" rx="4.26"/><rect class="cls-3" x="30.11" y="351.44" width="44" height="8.61" rx="1.42"/><rect class="cls-1" x="195.07" y="213.22" width="32.13" height="139.15"/><rect class="cls-2" x="190.76" y="346.78" width="40.74" height="5.59" rx="2.79"/><rect class="cls-3" x="191.69" y="207.86" width="38.88" height="14.44" rx="4.26"/><rect class="cls-3" x="189.13" y="351.44" width="44" height="8.61" rx="1.42"/><path class="cls-2" d="M237.7,207.81a53.15,53.15,0,0,1,7.69-21.34L131.54,131.29,10.4,190.09v26.16H237.33A54.36,54.36,0,0,1,237.7,207.81Z"/><rect class="cls-1" x="19.56" y="356.64" width="224.13" height="13.04"/><rect class="cls-2" x="10.4" y="368.74" width="242.45" height="15.21"/><rect class="cls-3" y="382.4" width="263.25" height="14.59"/><path class="cls-4" d="M136.88,198.79c0,3,.43,4.14,3.56,4.4l5.14.34v2.88H117.65v-2.88l4.88-.34c3-.26,3.47-1.36,3.47-4.4V154.61h-4c-7.78,0-8.88,3-11.25,11.34h-3V151.13h47.57V166h-3c-2.36-8.3-3.47-11.34-11.25-11.34h-4.31Z"/><path class="cls-5" d="M419.6,232.35H407a7.29,7.29,0,0,0,14.47,1.11A2.23,2.23,0,0,0,419.6,232.35Z"/><path class="cls-5" d="M449.82,246.84h27.45v-5.2a13.53,13.53,0,0,0-13.53-13.53H449.09a29.72,29.72,0,0,1,.73,6.51Z"/><path class="cls-5" d="M421.87,234.62a2.27,2.27,0,0,0-2.27-2.27H381.43a2.27,2.27,0,0,0-2.27,2.27v12.22h42.71Z"/><polygon class="cls-6" points="379.16 246.84 421.87 246.84 421.87 237.75 379.16 235.92 379.16 246.84"/><path class="cls-6" d="M483.58,246.84l0-.58c.19-3.19-2-5.94-4.82-6.06l-29-1.25v7.89Z"/><path class="cls-5" d="M340.39,234.24l10.82.48v-.1a29.72,29.72,0,0,1,.73-6.51h-1V212.27a9,9,0,0,1,8.93-8.94h38.18a8.86,8.86,0,0,1,4.15,1.07H419.6c.22,0,.44,0,.66,0a23.55,23.55,0,0,0-22.18-15.73H359.9a23.51,23.51,0,0,0-18.52,9.06,53.13,53.13,0,0,1,2.34,23.82,50.35,50.35,0,0,1-1.37,6.68c-.4,1.55-.89,3.07-1.43,4.55-.06.16-.1.33-.16.48"/><path class="cls-7" d="M467.47,246.84a5.2,5.2,0,0,0-5-4.65l-12.62.3v4.35Z"/><polygon class="cls-7" points="379.16 246.84 421.87 246.84 421.87 243.17 379.16 244.19 379.16 246.84"/><path class="cls-5" d="M290.41,268.15a56.1,56.1,0,0,1-6.59-.44c-1.46-.19-2.9-.48-4.33-.78V360.4l10.92-59.62Z"/><circle class="cls-8" cx="290.71" cy="214.7" r="46.79"/><path id="dollar_sign" data-name="dollar sign" class="cls-6" d="M307.45,225.58c0-15.39-24.2-14.22-24.2-22.87,0-2.8,2.5-5.2,7.65-5.2a25.08,25.08,0,0,1,10.18,2,2.23,2.23,0,0,0,3.1-2.07v-4.32a2.24,2.24,0,0,0-1.4-2.08,26.52,26.52,0,0,0-7.27-1.54,2.24,2.24,0,0,1-2-2.23v-2.43a2.24,2.24,0,0,0-2.24-2.24h-1.1a2.24,2.24,0,0,0-2.24,2.24v2.73a2.22,2.22,0,0,1-1.78,2.19,15.62,15.62,0,0,0-8.3,4.18,12.75,12.75,0,0,0-3.87,9.33c0,14.43,24.21,14.88,24.21,22.78,0,2.81-3.52,5-7.45,5a33,33,0,0,1-13.58-2.65,2.24,2.24,0,0,0-3.18,2v4.36a2.26,2.26,0,0,0,1.34,2.06,32.83,32.83,0,0,0,10.51,2.47,2.24,2.24,0,0,1,2.1,2.23v3a2.24,2.24,0,0,0,2.24,2.24h1.1a2.25,2.25,0,0,0,2.24-2.24V241a2.22,2.22,0,0,1,1.83-2.17,16.48,16.48,0,0,0,8.43-4A12.4,12.4,0,0,0,307.45,225.58Z"/><path class="cls-9" d="M419.6,225.69H381.43a9,9,0,0,0-8.94,8.93V253.5h56V234.62A8.94,8.94,0,0,0,419.6,225.69Z"/><path class="cls-10" d="M489.55,253.5h-46.4V234.62a23.58,23.58,0,0,0-23.55-23.55H381.43a23.59,23.59,0,0,0-23.56,23.55V253.5H327.36a53.54,53.54,0,0,1-23.9,13.07L279.54,397.13H477.07l22.29-127.79C501.84,261.64,496.8,253.5,489.55,253.5Zm-61,0h-56V234.62a9,9,0,0,1,8.94-8.93H419.6a8.94,8.94,0,0,1,8.93,8.93Z"/><path class="cls-11" d="M246,135.32l21.39-31.19a2.9,2.9,0,0,1,5,.39l4.8,10c2.63-.52,5.29-1,8-1.25a88.18,88.18,0,0,1,87.15,47.07l1.87,3.64a3.9,3.9,0,0,1-1.69,5.26L365.21,173a3.9,3.9,0,0,1-5.26-1.69l-1.87-3.64a72.14,72.14,0,0,0-71.24-38.47c-.83.09-1.64.24-2.47.36l4.34,9.07a2.9,2.9,0,0,1-2.84,4.14l-37.71-2.93A2.9,2.9,0,0,1,246,135.32Z"/><path class="cls-7" d="M290.77,268.16h-.36v32.64l6-33A53.31,53.31,0,0,1,290.77,268.16Z"/><path class="cls-7" d="M351.21,244.86l-16.75.4c-.37.54-.75,1.06-1.15,1.58h17.9Z"/><path class="cls-6" d="M340.39,234.24s-3.1,7.68-5.93,11h16.72l0-10.54Z"/></svg>