<svg id="Layer_1" data-name="Layer 1" xmlns="http://www.w3.org/2000/svg" viewBox="0 0 500 500"><defs><style>.cls-1{fill:#ee7003;}.cls-2{fill:#95ba29;}.cls-3{fill:#49176d;}</style></defs><rect class="cls-1" x="241.14" y="193.56" width="16.61" height="259.58" rx="2.28"/><path class="cls-2" d="M246.28,0c66.69,66.68,29.65,117.45,0,147.09C216.64,117.45,179.6,66.68,246.28,0Z"/><path class="cls-2" d="M340.79,200.25c0,82.32-54.2,90.79-90.79,90.79C250,254.45,258.47,200.25,340.79,200.25Z"/><path class="cls-2" d="M159.21,200.25c0,82.32,54.2,90.79,90.79,90.79C250,254.45,241.53,200.25,159.21,200.25Z"/><path class="cls-2" d="M340.79,109.46c0,82.32-54.2,90.79-90.79,90.79C250,163.66,258.47,109.46,340.79,109.46Z"/><path class="cls-2" d="M181.65,131.9c62,0,68.35,40.8,68.35,68.35C222.45,200.25,181.65,193.88,181.65,131.9Z"/><path class="cls-3" d="M319.31,438.26c0,35.67-23.91,61.74-70.26,61.74-48.2,0-70.26-26.07-70.26-61.74s34.6-79,70.26-79S319.31,402.6,319.31,438.26Z"/><path class="cls-3" d="M275.68,367.53H222.2v-12.6a5.65,5.65,0,0,1,5.64-5.64H270a5.64,5.64,0,0,1,5.64,5.64Z"/></svg>