<svg id="Layer_1" data-name="Layer 1" xmlns="http://www.w3.org/2000/svg" viewBox="0 0 500 500"><defs><style>.cls-1{fill:#f9e0c8;}.cls-2{fill:#ffc10e;}.cls-3{fill:#49176d;}.cls-4{fill:#f37920;}</style></defs><path class="cls-1" d="M248.82,164.86l.05-.06c2.68-17.86-3.57-43.77-5.74-47.8-1.3-2.41-9.56-15.24-16-25.13A113.19,113.19,0,0,0,182,286.61a145.76,145.76,0,0,1,33-41.4c25.53-20.44,33.57-52.84,34.27-80.76Z"/><rect class="cls-1" x="308.82" y="220.63" width="117.52" height="58.93" rx="29.46"/><path class="cls-2" d="M217.75,77.19l22.58-18.57a43.69,43.69,0,0,1,39.18-8.43L319.89,61.1a43.72,43.72,0,0,1,20.28,12.07l1,1h45.61l32-50.14A15.66,15.66,0,0,0,405.51,0H197.11A15.66,15.66,0,0,0,183.9,24.08Z"/><path class="cls-2" d="M427.43,269.42a36.19,36.19,0,0,1-30.55,16.87h-58.6a36.16,36.16,0,0,1-27.51-59.66,36,36,0,0,1-4.1-41A36.11,36.11,0,0,1,293,157.34a35.7,35.7,0,0,1,.56-6.25l-8.33-8.75-6.79-1.84-29.14,23.95c-.7,27.92-8.74,60.32-34.27,80.76a145.18,145.18,0,1,0,212.38,24.21Z"/><path class="cls-1" d="M203.74,182.33a37,37,0,0,1-23.52-65.58l64.39-52.93a37,37,0,0,1,33.15-7.14L318.14,67.6a36.94,36.94,0,0,1,17.15,10.21l32.19,33.83a37,37,0,1,1-53.61,51l-25.05-26.32-11.95-3.23-49.65,40.81A36.82,36.82,0,0,1,203.74,182.33Z"/><rect class="cls-1" x="78.77" y="120.78" width="107.49" height="148.42"/><rect class="cls-3" x="44.71" y="112.05" width="86.76" height="168.6" rx="18.09"/><path class="cls-4" d="M317.08,362.75c-10.32-4.43-20.07-8.6-20.07-14.32,0-4.64,5.34-7.63,13.58-7.63a56,56,0,0,1,22.71,4.47,10.2,10.2,0,0,0,9.72-.84,10.39,10.39,0,0,0,4.71-8.71V325.26a10.32,10.32,0,0,0-6.5-9.64c-5.05-2-11.27-3.36-19-4.07a.46.46,0,0,1-.38-.47v-5.89a10.38,10.38,0,0,0-10.38-10.37H308.8a10.39,10.39,0,0,0-10.38,10.37v6.62a.44.44,0,0,1-.29.44,43,43,0,0,0-22.67,11.5,35.67,35.67,0,0,0-10.81,26.09c0,23.27,21.47,33.14,38.72,41.07,9.79,4.5,19.91,9.15,19.91,14.11,0,3.3-5.72,7.13-13.1,7.13-14.57,0-24.82-3.26-30.85-6a10.37,10.37,0,0,0-14.68,9.44v10.56a10.37,10.37,0,0,0,6.21,9.52,84.41,84.41,0,0,0,27.07,6.39.48.48,0,0,1,.49.46v7.24a10.4,10.4,0,0,0,10.38,10.38h2.66a10.39,10.39,0,0,0,10.38-10.38v-8.46c0-.23.22-.37.42-.41,9.52-1.82,17.23-5.48,22.92-10.9,6.95-6.68,10.47-15.48,10.47-26.16C355.65,379.26,334.27,370.1,317.08,362.75Z"/><path class="cls-1" d="M396.88,81H347.56L372.36,107a43.84,43.84,0,0,1,9,14.14h15.5a36,36,0,0,1,22.67,8,29.29,29.29,0,0,0,6.79-18.76h0A29.54,29.54,0,0,0,396.88,81Z"/><path class="cls-1" d="M309,167.29l-9.22-9.69A29.41,29.41,0,0,0,310.48,180a36.27,36.27,0,0,1,6.58-6.1A43.8,43.8,0,0,1,309,167.29Z"/><path class="cls-1" d="M396.88,127.87h-13.5a44.11,44.11,0,0,1,1,10.36A43.31,43.31,0,0,1,372.59,167h24.29a36,36,0,0,1,23.19,8.44,29.39,29.39,0,0,0-23.19-47.54Z"/><path class="cls-1" d="M396.88,173.7H364.65a43.74,43.74,0,0,1-40.8,3.83,29.51,29.51,0,0,0-15,25.64h0a29.29,29.29,0,0,0,6.79,18.76,36,36,0,0,1,22.67-8h58.6a36,36,0,0,1,22.67,8,29.29,29.29,0,0,0,6.79-18.76h0A29.55,29.55,0,0,0,396.88,173.7Z"/></svg>