<svg id="Layer_1" data-name="Layer 1" xmlns="http://www.w3.org/2000/svg" viewBox="0 0 500 500"><defs><style>.cls-1{fill:#006ba6;}.cls-2{fill:#22b7e9;}.cls-3{fill:#49176d;}.cls-4{fill:#004688;}.cls-5{fill:#fff;}.cls-6{fill:#b0a2c5;}.cls-7{fill:#7c6299;}.cls-8{fill:#fab600;}.cls-9{fill:#ee7003;}.cls-10{fill:#0055a4;}</style></defs><rect class="cls-1" x="30.78" y="241.32" width="27.44" height="118.82"/><rect class="cls-2" x="27.11" y="355.38" width="34.79" height="4.77" rx="2.39"/><rect class="cls-3" x="27.9" y="236.75" width="33.2" height="12.33" rx="3.64"/><rect class="cls-3" x="25.71" y="359.35" width="37.58" height="7.36" rx="1.21"/><rect class="cls-1" x="76.12" y="241.32" width="27.44" height="118.82"/><rect class="cls-2" x="72.44" y="355.38" width="34.79" height="4.77" rx="2.39"/><rect class="cls-3" x="73.23" y="236.75" width="33.2" height="12.33" rx="3.64"/><rect class="cls-3" x="71.05" y="359.35" width="37.58" height="7.36" rx="1.21"/><rect class="cls-1" x="121.45" y="241.32" width="27.44" height="118.82"/><rect class="cls-2" x="117.77" y="355.38" width="34.79" height="4.77" rx="2.39"/><rect class="cls-3" x="118.56" y="236.75" width="33.2" height="12.33" rx="3.64"/><rect class="cls-3" x="116.38" y="359.35" width="37.58" height="7.36" rx="1.21"/><rect class="cls-1" x="166.58" y="241.32" width="27.44" height="118.82"/><rect class="cls-2" x="162.9" y="355.38" width="34.79" height="4.77" rx="2.39"/><rect class="cls-3" x="163.7" y="236.75" width="33.2" height="12.33" rx="3.64"/><rect class="cls-3" x="161.51" y="359.35" width="37.58" height="7.36" rx="1.21"/><polygon class="cls-2" points="215.92 243.91 8.88 243.91 8.88 221.57 112.33 171.36 215.92 221.57 215.92 243.91"/><rect class="cls-2" x="16.7" y="363.79" width="191.4" height="11.13"/><rect class="cls-1" x="8.88" y="374.13" width="207.04" height="12.99"/><rect class="cls-4" y="385.8" width="224.8" height="12.46"/><path class="cls-5" d="M96.83,205.5l-7.15,21.94H85.12L78.37,205.5l-.08.07v21.87H73.16V201.89h9l5.34,18.59h.07l5.8-18.59H102v25.55H96.9V205.57Z"/><path class="cls-5" d="M118.91,228a13.56,13.56,0,0,1-5.43-1,10.07,10.07,0,0,1-3.86-2.79,12,12,0,0,1-2.24-4.21,19.15,19.15,0,0,1,0-10.58,12.1,12.1,0,0,1,2.25-4.23,10.13,10.13,0,0,1,3.87-2.79,13.86,13.86,0,0,1,5.42-1,12.66,12.66,0,0,1,6.83,1.72,10.32,10.32,0,0,1,4.11,4.7,18.43,18.43,0,0,1,0,13.75,10.29,10.29,0,0,1-4.11,4.71A12.66,12.66,0,0,1,118.91,228Zm0-22.65a5.59,5.59,0,0,0-4,1.34,6.73,6.73,0,0,0-2,3.44,20.24,20.24,0,0,0,0,9.16,6.79,6.79,0,0,0,2,3.43,5.65,5.65,0,0,0,4,1.33,5.59,5.59,0,0,0,3.94-1.33,6.79,6.79,0,0,0,2-3.43,20.24,20.24,0,0,0,0-9.16,6.79,6.79,0,0,0-2-3.44A5.59,5.59,0,0,0,118.91,205.32Z"/><path class="cls-5" d="M141.3,227.44h-5.51V201.89h16.52v4.25h-11v6.15h10.27v4.25H141.3Z"/><rect class="cls-6" x="373.92" y="241.29" width="27.43" height="118.79"/><rect class="cls-7" x="370.24" y="355.3" width="34.78" height="4.77" rx="2.39"/><rect class="cls-3" x="371.04" y="236.72" width="33.19" height="12.32" rx="3.64"/><rect class="cls-3" x="368.85" y="359.28" width="37.57" height="7.35" rx="1.21"/><rect class="cls-6" x="306.05" y="241.29" width="27.43" height="118.79"/><rect class="cls-7" x="302.37" y="355.3" width="34.78" height="4.77" rx="2.39"/><rect class="cls-3" x="303.16" y="236.72" width="33.19" height="12.32" rx="3.64"/><rect class="cls-3" x="300.98" y="359.28" width="37.57" height="7.35" rx="1.21"/><rect class="cls-6" x="441.8" y="241.29" width="27.43" height="118.79"/><rect class="cls-7" x="438.12" y="355.3" width="34.78" height="4.77" rx="2.39"/><rect class="cls-3" x="438.92" y="236.72" width="33.19" height="12.32" rx="3.64"/><rect class="cls-3" x="436.73" y="359.28" width="37.57" height="7.35" rx="1.21"/><polygon class="cls-7" points="491.12 243.87 284.15 243.87 284.15 221.54 387.56 171.35 491.12 221.54 491.12 243.87"/><rect class="cls-6" x="291.97" y="363.72" width="191.34" height="11.13"/><rect class="cls-7" x="284.15" y="374.05" width="206.97" height="12.99"/><rect class="cls-3" x="275.27" y="385.71" width="224.73" height="12.46"/><path class="cls-5" d="M392.12,229c0,2.6.37,3.54,3,3.75l4.39.3v2.46H375.71V233l4.16-.3c2.53-.21,3-1.15,3-3.75V191.25h-3.37c-6.64,0-7.58,2.6-9.6,9.68h-2.53V188.28h40.61v12.65h-2.53c-2-7.08-3-9.68-9.61-9.68h-3.68Z"/><circle class="cls-8" cx="247.54" cy="154.41" r="52.67"/><path id="dollar_sign" data-name="dollar sign" class="cls-9" d="M266.38,166.66c0-17.32-27.24-16-27.24-25.74,0-3.15,2.82-5.85,8.61-5.85a28.21,28.21,0,0,1,11.46,2.27A2.51,2.51,0,0,0,262.7,135v-4.86a2.51,2.51,0,0,0-1.58-2.34,29.76,29.76,0,0,0-8.18-1.74,2.51,2.51,0,0,1-2.27-2.51v-2.73a2.52,2.52,0,0,0-2.52-2.52h-1.24a2.52,2.52,0,0,0-2.52,2.52v3.07a2.49,2.49,0,0,1-2,2.47,17.58,17.58,0,0,0-9.34,4.71,14.29,14.29,0,0,0-4.35,10.49c0,16.24,27.24,16.75,27.24,25.64,0,3.16-4,5.61-8.39,5.61a36.93,36.93,0,0,1-15.28-3,2.52,2.52,0,0,0-3.57,2.29V177a2.54,2.54,0,0,0,1.51,2.32A36.88,36.88,0,0,0,242,182.13a2.52,2.52,0,0,1,2.36,2.51V188a2.52,2.52,0,0,0,2.52,2.52h1.24a2.52,2.52,0,0,0,2.52-2.52v-3.93a2.51,2.51,0,0,1,2.06-2.45,18.47,18.47,0,0,0,9.49-4.46A13.93,13.93,0,0,0,266.38,166.66Z"/><path class="cls-10" d="M262.94,279a4.79,4.79,0,0,0-2.32.61,4.71,4.71,0,0,0-2.38,4.09v7.17l-54,.61a4.71,4.71,0,0,0-4.7,4.7v14.69a4.7,4.7,0,0,0,4.7,4.7l54-.61v7.16a4.69,4.69,0,0,0,7.11,4l32.14-19.2a4.69,4.69,0,0,0,0-8.06l-32.13-19.22a4.77,4.77,0,0,0-2.41-.67"/></svg>