<svg id="Layer_1" data-name="Layer 1" xmlns="http://www.w3.org/2000/svg" viewBox="0 0 500 500"><defs><style>.cls-1{fill:#49176d;}.cls-2{fill:#fab600;}.cls-3{fill:#f1901d;}.cls-4{fill:#004688;}.cls-5{fill:#22b7e9;}.cls-6{fill:#fff;}</style></defs><path class="cls-1" d="M365.42,170.93a17.66,17.66,0,0,0-17.66-17.67h-7.29v40.06H145.79V153.26h-7a17.67,17.67,0,0,0-17.67,17.67V482.34A17.67,17.67,0,0,0,138.77,500h209a17.67,17.67,0,0,0,17.67-17.66Z"/><path class="cls-2" d="M330.93,244H155.6a5.89,5.89,0,0,1-5.87-5.87V214a5.89,5.89,0,0,1,5.87-5.87H330.93A5.89,5.89,0,0,1,336.8,214v24.18A5.89,5.89,0,0,1,330.93,244Z"/><rect class="cls-3" x="152.83" y="327.82" width="35.52" height="35.52" rx="2.03"/><rect class="cls-3" x="201.28" y="327.82" width="35.52" height="35.52" rx="2.03"/><rect class="cls-3" x="249.73" y="327.82" width="35.52" height="35.52" rx="2.03"/><rect class="cls-3" x="152.83" y="383.21" width="35.52" height="35.52" rx="2.03"/><rect class="cls-3" x="201.28" y="383.21" width="35.52" height="35.52" rx="2.03"/><rect class="cls-3" x="249.73" y="383.21" width="35.52" height="35.52" rx="2.03"/><rect class="cls-3" x="152.83" y="272.44" width="35.52" height="35.52" rx="2.03"/><rect class="cls-3" x="201.28" y="272.44" width="35.52" height="35.52" rx="2.03"/><rect class="cls-3" x="249.73" y="272.44" width="35.52" height="35.52" rx="2.03"/><rect class="cls-3" x="152.83" y="438.6" width="35.52" height="35.52" rx="2.03"/><rect class="cls-3" x="201.28" y="438.6" width="35.52" height="35.52" rx="2.03"/><rect class="cls-3" x="249.73" y="438.6" width="35.52" height="35.52" rx="2.03"/><rect class="cls-2" x="298.18" y="327.82" width="35.52" height="35.52" rx="2.03"/><rect class="cls-2" x="298.18" y="272.44" width="35.52" height="35.52" rx="2.03"/><path class="cls-2" d="M330,474.12H301.86a3.7,3.7,0,0,1-3.68-3.68V386.89a3.7,3.7,0,0,1,3.68-3.68H330a3.69,3.69,0,0,1,3.68,3.68v83.55A3.69,3.69,0,0,1,330,474.12Z"/><path class="cls-4" d="M378.9,107.73V22.55A22.57,22.57,0,0,0,356.35,0H316V107.73Z"/><path class="cls-5" d="M159.08,6.61A22.51,22.51,0,0,1,175,0h181.3a22.54,22.54,0,0,0-22.54,22.55V186.63H152.47V22.56A22.51,22.51,0,0,1,159.08,6.61Z"/><rect class="cls-6" x="178.39" y="37.99" width="34.6" height="12.28"/><rect class="cls-6" x="224.39" y="37.99" width="82.39" height="12.28"/><rect class="cls-6" x="178.39" y="67.63" width="80.59" height="12.28"/><rect class="cls-6" x="270.1" y="67.63" width="36.69" height="12.28"/><rect class="cls-6" x="178.39" y="96.98" width="57.74" height="12.28"/><rect class="cls-6" x="248.46" y="96.98" width="58.32" height="12.28"/><rect class="cls-6" x="178.39" y="125.72" width="34.6" height="12.28"/><rect class="cls-6" x="224.39" y="125.72" width="82.39" height="12.28"/><rect class="cls-6" x="178.39" y="155.95" width="80.59" height="12.28"/><rect class="cls-6" x="270.1" y="155.95" width="36.69" height="12.28"/><circle class="cls-6" cx="315.99" cy="226.81" r="9.82"/><circle class="cls-6" cx="288.34" cy="226.81" r="9.82"/><circle class="cls-6" cx="261.49" cy="226.81" r="9.82"/><circle class="cls-6" cx="235.25" cy="226.81" r="9.82"/></svg>