<svg id="Layer_1" data-name="Layer 1" xmlns="http://www.w3.org/2000/svg" viewBox="0 0 500 500"><defs><style>.cls-1{fill:#22b7e9;}.cls-2{fill:#0055a4;}.cls-3{fill:#fff;}.cls-4{fill:#49176d;}.cls-5{fill:#006ba6;}.cls-6{fill:#f1901d;}.cls-7{fill:#fab600;}.cls-8{fill:#ee7003;}</style></defs><path class="cls-1" d="M351.51,309.15c.93-20.76,32.9-36.41,74.43-36.41,20.84,0,39.27,3.94,52.58,10.48V112.84c-.3,0-.59,0-.88,0a38,38,0,0,1-38-38c0-.41.05-.81.06-1.22H60.36c0,.41.06.81.06,1.22a38,38,0,0,1-38,38c-.31,0-.62,0-.93,0V291.25c.31,0,.62-.05.93-.05a38,38,0,0,1,37.88,35.42H351.46Z"/><path class="cls-2" d="M492.17,52.18H7.83A7.82,7.82,0,0,0,0,60V340.27a7.82,7.82,0,0,0,7.83,7.82H351.46V326.62H60.29A38,38,0,0,0,22.41,291.2c-.31,0-.62,0-.93.05V112.84c.31,0,.62,0,.93,0a38,38,0,0,0,38-38c0-.41-.05-.81-.06-1.22H439.69c0,.41-.06.81-.06,1.22a38,38,0,0,0,38,38c.29,0,.58,0,.88,0V283.22l-.34-.15c12.09,5.87,20,13.88,21.82,23.05V60A7.82,7.82,0,0,0,492.17,52.18Z"/><path class="cls-3" d="M250,250.2a75.29,75.29,0,1,1,75.29-75.29A75.37,75.37,0,0,1,250,250.2Z"/><circle class="cls-4" cx="250" cy="174.91" r="68.58"/><path class="cls-3" d="M257.9,205c0,4.57.63,6.22,5.34,6.6l7.72.51v4.33H229v-4.33l7.33-.51c4.45-.38,5.2-2,5.2-6.6V138.63h-5.92c-11.68,0-13.33,4.57-16.9,17h-4.44V133.41h71.42v22.24h-4.45c-3.55-12.45-5.21-17-16.9-17H257.9Z"/><rect class="cls-5" x="123.81" y="267.86" width="252.37" height="13.07"/><rect class="cls-5" x="148.54" y="292.81" width="202.93" height="13.07"/><path class="cls-6" d="M490.53,318.44c-8.7,12.38-34.32,21.35-64.58,21.35s-55.88-9-64.59-21.35c-2.05-2.93-3.18-5.51-3.18-8.75v18c0,16.92,30.34,30.64,67.77,30.64s67.76-13.72,67.76-30.64V309.15A16.05,16.05,0,0,1,490.53,318.44Z"/><path class="cls-6" d="M426,279.45c-37.43,0-67.77,13.71-67.77,30.63a16.13,16.13,0,0,0,3.18,9.29c8.71,12.38,34.32,21.35,64.59,21.35s55.88-9,64.58-21.35a16.05,16.05,0,0,0,3.18-9.29C493.71,293.16,463.37,279.45,426,279.45Z"/><path class="cls-7" d="M425.94,282.67c-34.17,0-61.86,11.9-61.86,26.58a13.57,13.57,0,0,0,2.9,8.06c7.95,10.74,31.33,18.52,59,18.52s51-7.78,59-18.52a13.57,13.57,0,0,0,2.9-8.06C487.8,294.57,460.11,282.67,425.94,282.67Z"/><path id="dollar_sign" data-name="dollar sign" class="cls-8" d="M447.56,317.65c0-10.47-31.26-9.67-31.26-15.55,0-1.9,3.24-3.53,9.88-3.53a58.46,58.46,0,0,1,13.16,1.37c1.89.43,4-.32,4-1.41v-2.94c0-.62-.71-1.18-1.81-1.41a62.2,62.2,0,0,0-9.39-1.05c-1.48-.07-2.6-.73-2.6-1.51V290c0-.84-1.3-1.52-2.89-1.52h-1.42c-1.6,0-2.9.68-2.9,1.52v1.86c0,.72-.95,1.36-2.29,1.49a29.76,29.76,0,0,0-10.72,2.84c-3.32,1.75-5,3.87-5,6.34,0,9.81,31.26,10.12,31.26,15.49,0,1.91-4.55,3.39-9.63,3.39a75.88,75.88,0,0,1-17.53-1.81c-1.93-.46-4.1.27-4.1,1.39v3c0,.61.67,1.16,1.72,1.4A76.41,76.41,0,0,0,419.62,327c1.53.06,2.71.71,2.71,1.52v2c0,.84,1.3,1.52,2.9,1.52h1.42c1.59,0,2.89-.68,2.89-1.52v-2.38c0-.73,1-1.34,2.37-1.48A32,32,0,0,0,442.79,324C446,322.38,447.56,320.27,447.56,317.65Z"/><path class="cls-6" d="M426,430.19c-30.27,0-55.89-9-64.59-21.36a16.1,16.1,0,0,1-3.18-9.28v17.64c0,16.92,30.34,30.63,67.77,30.63s67.76-13.71,67.76-30.63V399.55a16,16,0,0,1-3.18,9.28C481.83,421.21,456.21,430.19,426,430.19Z"/><path class="cls-6" d="M426,408c-30.27,0-55.89-9-64.59-21.36a16.1,16.1,0,0,1-3.18-9.28V395c0,16.92,30.34,30.63,67.77,30.63s67.76-13.71,67.76-30.63V377.37a16,16,0,0,1-3.18,9.28C481.83,399,456.21,408,426,408Z"/><path class="cls-6" d="M426,385.79c-30.27,0-55.89-9-64.59-21.35a16.13,16.13,0,0,1-3.18-9.29v17.64c0,16.92,30.34,30.64,67.77,30.64s67.76-13.72,67.76-30.64V355.15a16.05,16.05,0,0,1-3.18,9.29C481.83,376.81,456.21,385.79,426,385.79Z"/><path class="cls-6" d="M426,363.57c-30.27,0-55.89-9-64.59-21.35a16.13,16.13,0,0,1-3.18-9.29v17.64c0,16.92,30.34,30.64,67.77,30.64s67.76-13.72,67.76-30.64V332.93a16.05,16.05,0,0,1-3.18,9.29C481.83,354.6,456.21,363.57,426,363.57Z"/><path class="cls-6" d="M426,363.16c-30.27,0-55.89-9-64.59-21.35a16.1,16.1,0,0,1-3.18-9.28v17.64c0,16.92,30.34,30.63,67.77,30.63s67.76-13.71,67.76-30.63V332.53a16,16,0,0,1-3.18,9.28C481.83,354.19,456.21,363.16,426,363.16Z"/></svg>