<?xml version="1.0" encoding="UTF-8"?>
<svg id="Layer_1" data-name="Layer 1" xmlns="http://www.w3.org/2000/svg" version="1.1" viewBox="0 0 500 500">
  <defs>
    <style>
      .cls-1 {
        fill: none;
      }

      .cls-1, .cls-2, .cls-3, .cls-4, .cls-5, .cls-6, .cls-7, .cls-8 {
        stroke-width: 0px;
      }

      .cls-2 {
        fill: #004688;
      }

      .cls-3 {
        fill: #7c6299;
      }

      .cls-4 {
        fill: #b0a2c5;
      }

      .cls-5 {
        fill: #49176d;
      }

      .cls-6 {
        fill: #0055a4;
      }

      .cls-7 {
        fill: #22b7e9;
      }

      .cls-8 {
        fill: #fff;
      }
    </style>
  </defs>
  <path class="cls-6" d="M448.73,113.05l-100.95-95.57h-206.64v56.47c58,2.8,104.32,50.86,104.32,109.55,0,52.2-36.03,96.41-86.46,107.2v15.08c11.25,4.71,18.73,15.67,18.73,28.26v141.55h271V113.05Z"/>
  <g>
    <path class="cls-1" d="M159,305.79c.21.09.41.19.62.28v-15.51c-.21.05-.41.1-.62.15v15.08Z"/>
    <path class="cls-7" d="M467.2,95.57L366.26,0h-206.64v76.46c49.05,10.92,85.85,54.75,85.85,107.04s-35.74,96.03-85.85,107.06v15.51c10.9,4.85,18.11,15.62,18.11,27.97v124.06h289.48V95.57Z"/>
  </g>
  <polygon class="cls-2" points="467.2 95.57 366.26 0 366.26 95.57 467.2 95.57"/>
  <path class="cls-6" d="M310.17,53.14h-119.61v35.41c32.78,18.99,54.9,54.43,54.9,94.96,0,27.42-9.95,52.62-26.7,71.95h91.4V53.14Z"/>
  <rect class="cls-6" x="335.44" y="228.84" width="108.03" height="23.93"/>
  <rect class="cls-6" x="335.44" y="180.19" width="108.03" height="23.93"/>
  <rect class="cls-6" x="335.44" y="130.04" width="108.03" height="23.93"/>
  <rect class="cls-6" x="190.56" y="380.52" width="252.9" height="20.02"/>
  <rect class="cls-6" x="190.56" y="330.91" width="252.9" height="20.02"/>
  <rect class="cls-6" x="190.56" y="282.28" width="252.9" height="20.02"/>
  <rect class="cls-4" x="119.26" y="273.72" width="33.04" height="40.4"/>
  <rect class="cls-3" x="100.54" y="310.06" width="70.49" height="189.94" rx="23.98" ry="23.98"/>
  <circle class="cls-5" cx="135.78" cy="183.51" r="102.98"/>
  <circle class="cls-3" cx="135.78" cy="183.51" r="77.44"/>
  <path class="cls-8" d="M145.52,221.7c0,5.64.79,7.67,6.59,8.15l9.52.63v5.34h-51.75v-5.34l9.05-.63c5.49-.47,6.42-2.51,6.42-8.15v-81.86h-7.31c-14.41,0-16.45,5.64-20.85,21.01h-5.48v-27.45h88.14v27.45h-5.49c-4.38-15.37-6.43-21.01-20.86-21.01h-7.98v81.86Z"/>
</svg>