<?xml version="1.0" encoding="UTF-8"?>
<svg id="Layer_1" data-name="Layer 1" xmlns="http://www.w3.org/2000/svg" version="1.1" viewBox="0 0 500 500">
  <defs>
    <style>
      .cls-1 {
        fill: #fab600;
      }

      .cls-1, .cls-2, .cls-3, .cls-4, .cls-5, .cls-6 {
        stroke-width: 0px;
      }

      .cls-2 {
        fill: #d50065;
      }

      .cls-3 {
        fill: #004688;
      }

      .cls-4 {
        fill: #7c6299;
      }

      .cls-5 {
        fill: #49176d;
      }

      .cls-6 {
        fill: #fff;
      }
    </style>
  </defs>
  <g>
    <path class="cls-1" d="M106.19,233.77c3.76-11.67,13.85-19.5,25.12-19.5h78.53v-30.38c0-28.76,23.4-52.16,52.16-52.16h74.26c15.2,0,28.86,6.57,38.4,16.98L336.99,8.44c-1.61-6.02-7.31-9.67-12.59-8.06L16.04,94.23c-6.59,2.01-10.19,9.61-8.1,17.11l72.74,261.37,25.38-138.54.13-.39Z"/>
    <path class="cls-2" d="M451.42,194.73l-63-2.71v7.94l3.84,14.29h68.05l.48-7.74c.38-6.21-3.86-11.55-9.36-11.79Z"/>
    <polyline class="cls-5" points="80.68 372.71 63.71 311.75 63.71 465.32"/>
    <path class="cls-4" d="M472.33,220.61h-90.25v-36.72c0-25.26-20.55-45.82-45.82-45.82h-74.26c-25.26,0-45.82,20.55-45.82,45.82v36.72h-84.87c-8.54,0-16.16,6.04-19.08,15.11l-48.41,264.29h384.24l43.35-248.58c4.82-14.97-4.99-30.81-19.08-30.81ZM244.62,183.89c0-9.58,7.79-17.38,17.38-17.38h74.26c9.58,0,17.38,7.8,17.38,17.38v36.72h-109.02v-36.72Z"/>
    <path class="cls-6" d="M306.94,415.14c0,8.11,1.13,11.04,9.48,11.72l13.7.91v7.68h-74.44v-7.68l13.01-.91c7.89-.68,9.23-3.61,9.23-11.72v-117.74h-10.51c-20.73,0-23.66,8.11-29.99,30.21h-7.88v-39.48h126.77v39.48h-7.9c-6.29-22.11-9.25-30.21-30-30.21h-11.47v117.74Z"/>
    <g>
      <g>
        <path class="cls-3" d="M106.35,158.71l-3.1-11.47c.6-1.16,2.43-4.06,5.49-8.7s5.53-8.52,7.41-11.61c1.88-3.09,3.49-6.3,4.85-9.64,1.36-3.33,1.78-5.97,1.26-7.9-.56-2.07-1.68-3.64-3.36-4.72-1.68-1.08-3.53-1.34-5.54-.8-2.12.57-3.59,1.92-4.4,4.04-.82,2.12-.92,4.31-.32,6.56l-12.43,3.35c-.79-2.91-.97-5.55-.54-7.92.43-2.37,1.35-4.51,2.78-6.42,1.43-1.91,3.21-3.49,5.34-4.74,2.13-1.26,4.51-2.24,7.13-2.95,3.41-.92,6.75-1.22,10-.89,3.26.33,6.09,1.43,8.52,3.3,2.42,1.87,4.11,4.58,5.07,8.13.87,3.23.77,6.61-.3,10.15-1.07,3.54-2.57,6.89-4.5,10.05-1.93,3.16-4.39,6.93-7.41,11.31-3.01,4.38-4.99,7.52-5.95,9.43l.16-.05,27.51-7.43,2.2,8.14-39.86,10.76Z"/>
        <path class="cls-3" d="M186.03,107.08c1.02,3.79,1.67,7.43,1.95,10.95s.05,6.9-.71,10.16c-.76,3.26-2.23,6.08-4.42,8.48s-5.19,4.11-9.01,5.14c-4.84,1.31-9.1.94-12.78-1.11-3.68-2.05-6.7-5.09-9.07-9.14-2.37-4.05-4.25-8.64-5.64-13.77s-2.08-10.05-2.07-14.75,1.09-8.88,3.24-12.52c2.15-3.65,5.64-6.12,10.45-7.43,4.97-1.34,9.34-1,13.1,1.04,3.76,2.04,6.84,5.08,9.24,9.13,2.4,4.05,4.3,8.66,5.69,13.82ZM173.45,110.48c-1.45-5.37-3.25-10.13-5.39-14.29-2.14-4.15-4.68-5.83-7.62-5.03-4.82,1.3-5.31,9.04-1.48,23.23,3.81,14.11,8.12,20.51,12.94,19.21,2.94-.79,4.29-3.51,4.06-8.15-.23-4.64-1.07-9.63-2.51-14.97Z"/>
        <path class="cls-3" d="M200.95,71.49c8.94-2.42,14.82,1.58,17.63,11.98,2.81,10.4-.26,16.81-9.21,19.23-8.94,2.41-14.82-1.58-17.63-11.98-2.81-10.4.26-16.81,9.2-19.23ZM200.6,88.32c.6,2.22,1.45,4.1,2.54,5.64,1.09,1.54,2.53,2.07,4.3,1.59,1.72-.47,2.67-1.67,2.86-3.61.19-1.94,0-3.97-.58-6.08-.57-2.12-1.43-3.97-2.56-5.55s-2.57-2.14-4.29-1.67c-1.77.48-2.75,1.66-2.92,3.53-.17,1.88.04,3.93.64,6.16ZM236.17,56.57l-13.77,71.78-6.08,1.64,13.77-71.78,6.08-1.64ZM245.37,88.97c8.95-2.42,14.83,1.59,17.64,12.02,2.81,10.4-.26,16.81-9.2,19.23-8.95,2.42-14.82-1.58-17.63-11.98-2.82-10.43.25-16.85,9.19-19.26ZM245.03,105.84c1.51,5.58,3.79,7.96,6.85,7.14,1.73-.47,2.68-1.67,2.86-3.61.17-1.94-.02-3.94-.57-5.99-.56-2.08-1.41-3.92-2.53-5.5-1.13-1.59-2.56-2.15-4.29-1.68-3.06.83-3.83,4.04-2.31,9.65Z"/>
      </g>
      <path class="cls-3" d="M43.65,158.07l-3.81-14.11,33.94-32.21,4.14,15.32-22,19.97.06.23,29.07,6.24,4.14,15.32-45.54-10.75Z"/>
    </g>
    <polygon class="cls-1" points="392.26 214.26 388.42 199.97 388.42 214.26 392.26 214.26"/>
    <path class="cls-5" d="M388.42,192.03l59.84,2.57c-1.46-13.16-12.6-23.39-26.15-23.39h-35.32c1.02,4.07,1.62,8.3,1.62,12.68v8.14Z"/>
  </g>
  <path class="cls-1" d="M347.29,183.89c0-6.08-4.95-11.04-11.04-11.04h-74.26c-6.08,0-11.04,4.95-11.04,11.04v30.38h96.33v-30.38Z"/>
</svg>