<?xml version="1.0" encoding="UTF-8"?>
<svg id="Layer_1" data-name="Layer 1" xmlns="http://www.w3.org/2000/svg" version="1.1" viewBox="0 0 500 500">
  <defs>
    <style>
      .cls-1 {
        fill: #7c6299;
      }

      .cls-1, .cls-2, .cls-3, .cls-4 {
        stroke-width: 0px;
      }

      .cls-2 {
        fill: #b0a2c5;
      }

      .cls-3 {
        fill: #49176d;
      }

      .cls-4 {
        fill: #fff;
      }
    </style>
  </defs>
  <g>
    <polygon class="cls-2" points="435.95 500 64.05 500 64.05 0 318.75 0 435.95 104.31 435.95 500"/>
    <polygon class="cls-3" points="435.95 104.31 318.75 0 318.75 104.31 435.95 104.31"/>
  </g>
  <g>
    <path class="cls-4" d="M109.2,462.65l-14.65-6.39,64.67-148.35c1.25-2.86,4.05-4.73,7.17-4.79.05,0,.1,0,.15,0,3.06,0,5.86,1.75,7.2,4.52l27.66,57.29,45.03-121.1c1.07-2.89,3.72-4.91,6.79-5.17,3.08-.26,6.03,1.25,7.59,3.91l30.48,51.96,54.42-105.94,14.22,7.3-61.06,118.87c-1.33,2.59-3.97,4.25-6.89,4.34-3.02.09-5.64-1.43-7.12-3.94l-29.32-49.98-45.7,122.9c-1.12,3-3.91,5.05-7.11,5.2-3.2.11-6.18-1.62-7.57-4.51l-28.25-58.5-57.72,132.4Z"/>
    <polygon class="cls-4" points="382.95 220.82 379.03 141.23 312.06 184.4 382.95 220.82"/>
  </g>
  <path class="cls-1" d="M387.98,464.9H99.21c-3.68,0-6.66-2.98-6.66-6.66V95.04c0-3.68,2.98-6.66,6.66-6.66s6.66,2.98,6.66,6.66v356.54h282.11c3.68,0,6.66,2.98,6.66,6.66s-2.98,6.66-6.66,6.66Z"/>
</svg>